<?xml version="1.0" standalone="no"?><!DOCTYPE svg PUBLIC "-//W3C//DTD SVG 1.1//EN" "http://www.w3.org/Graphics/SVG/1.1/DTD/svg11.dtd"><svg width="100%" height="100%" viewBox="0 0 139 158" version="1.1" xmlns="http://www.w3.org/2000/svg" xmlns:xlink="http://www.w3.org/1999/xlink" xml:space="preserve" style="fill-rule:evenodd;clip-rule:evenodd;stroke-linejoin:round;stroke-miterlimit:1.41421;"><path d="M67.158,101.425l-10.5,-5.074l0,-14.496l10.5,5.074l0,14.496ZM55.158,79.098l0,18.581l14.25,6.504l0,-18.582l-14.25,-6.503Z" style="fill:#9aa79e;fill-rule:nonzero;"/><path d="M69.085,84.3l-11.153,-5.187l11.195,-5.063l10.863,5.063l-10.905,5.187ZM69.168,72.75l-14.036,6.347l13.984,6.504l13.674,-6.504l-13.622,-6.347Z" style="fill:#eee;fill-rule:nonzero;"/><path d="M81.408,96.179l-10.5,4.889l0,-13.967l10.5,-4.889l0,13.967ZM69.408,85.601l0,18.582l13.5,-6.504l0,-18.581l-13.5,6.503Z" style="fill:#999;fill-rule:nonzero;"/></svg>