<?xml version="1.0" standalone="no"?><!DOCTYPE svg PUBLIC "-//W3C//DTD SVG 1.1//EN" "http://www.w3.org/Graphics/SVG/1.1/DTD/svg11.dtd"><svg width="100%" height="100%" viewBox="0 0 28 32" version="1.1" xmlns="http://www.w3.org/2000/svg" xmlns:xlink="http://www.w3.org/1999/xlink" xml:space="preserve" style="fill-rule:evenodd;clip-rule:evenodd;stroke-linejoin:round;stroke-miterlimit:1.41421;"><path d="M12.026,28.675l-10.5,-5.074l0,-14.496l10.5,5.074l0,14.496ZM0.026,6.348l0,18.581l14.25,6.504l0,-18.582l-14.25,-6.503Z" style="fill:#b27f7b;fill-rule:nonzero;"/><path d="M13.953,11.55l-11.153,-5.187l11.195,-5.063l10.864,5.063l-10.906,5.187ZM14.036,0l-14.036,6.347l13.985,6.504l13.674,-6.504l-13.623,-6.347Z" style="fill:#eee;fill-rule:nonzero;"/><path d="M26.276,23.429l-10.5,4.889l0,-13.967l10.5,-4.889l0,13.967ZM14.276,12.851l0,18.582l13.5,-6.504l0,-18.581l-13.5,6.503Z" style="fill:#999;fill-rule:nonzero;"/></svg>