<?xml version="1.0" standalone="no"?><!DOCTYPE svg PUBLIC "-//W3C//DTD SVG 1.1//EN" "http://www.w3.org/Graphics/SVG/1.1/DTD/svg11.dtd"><svg width="100%" height="100%" viewBox="0 0 720 662" version="1.1" xmlns="http://www.w3.org/2000/svg" xmlns:xlink="http://www.w3.org/1999/xlink" xml:space="preserve" style="fill-rule:evenodd;clip-rule:evenodd;stroke-linejoin:round;stroke-miterlimit:1.41421;"><path d="M600.81,366.667l117.963,74.91l0,-260.673l-117.963,185.763Z" style="fill:#fff;fill-rule:nonzero;"/><path d="M716.728,215.246l2.045,1.299l0,-4.518l-2.045,3.219Z" style="fill:#ccc;fill-rule:nonzero;"/><path d="M712.483,221.932l6.29,3.994l0,-5.36l-3.864,-2.454l-2.426,3.82Z" style="fill:#ccc;fill-rule:nonzero;"/><path d="M708.237,228.619l10.536,6.69l0,-5.361l-8.11,-5.15l-2.426,3.821Z" style="fill:#ccc;fill-rule:nonzero;"/><path d="M703.992,235.305l14.781,9.387l0,-5.361l-12.356,-7.846l-2.425,3.82Z" style="fill:#ccc;fill-rule:nonzero;"/><path d="M699.746,241.992l19.027,12.082l0,-5.362l-16.601,-10.542l-2.426,3.822Z" style="fill:#ccc;fill-rule:nonzero;"/><path d="M695.5,248.678l23.273,14.778l0,-5.361l-20.848,-13.239l-2.425,3.822Z" style="fill:#ccc;fill-rule:nonzero;"/><path d="M622.839,363.098l74.555,47.344l-1.211,1.908l-74.556,-47.344l1.212,-1.908Z" style="fill:#f6931d;"/><path d="M648.194,323.172l13.254,8.418l-25.356,39.926l-13.254,-8.418l25.356,-39.926Z" style="fill:#f6931d;"/><path d="M653.959,347.96l13.253,8.416l-15.794,24.871l-13.254,-8.416l15.795,-24.871Z" style="fill:#f79d31;"/><path d="M663.935,366.114l13.254,8.417l-10.446,16.448l-13.254,-8.416l10.446,-16.449Z" style="fill:#fac98f;"/><path d="M684.157,368.133l13.255,8.416l-15.343,24.162l-13.253,-8.416l15.341,-24.162Z" style="fill:#f9b462;"/><path d="M695.111,384.748l13.255,8.418l-10.972,17.276l-13.255,-8.416l10.972,-17.278Z" style="fill:#f79929;"/><path d="M715.462,424.593l3.31,2.103l0,-2.677l-2.1,-1.333l-1.21,1.907Z" style="fill:#f6931d;fill-rule:nonzero;"/><path d="M659.154,312.887l59.619,37.859l0,-1.407l-58.982,-37.454l-0.637,1.002Z" style="fill:#ccc;fill-rule:nonzero;"/><path d="M689.971,265.466l-29.997,47.238l-1.003,-0.636l29.997,-47.24l1.003,0.638Z" style="fill:#ccc;fill-rule:nonzero;"/><path d="M704.156,274.472l-29.999,47.239l-1.003,-0.637l29.999,-47.239l1.003,0.637Z" style="fill:#ccc;fill-rule:nonzero;"/><path d="M718.338,283.479l-29.997,47.239l-1.002,-0.636l29.997,-47.239l1.002,0.636Z" style="fill:#ccc;fill-rule:nonzero;"/><path d="M701.522,339.087l1.002,0.638l16.248,-25.588l0,-2.216l-17.25,27.166Z" style="fill:#ccc;fill-rule:nonzero;"/><path d="M715.71,348.091l0.994,0.645l2.068,-3.172l0,-2.169l-3.062,4.696Z" style="fill:#ccc;fill-rule:nonzero;"/><path d="M666.194,301.803l52.578,33.389l0,-1.407l-51.942,-32.986l-0.636,1.004Z" style="fill:#ccc;fill-rule:nonzero;"/><path d="M673.231,290.716l45.542,29.383l0,-1.408l-44.904,-28.972l-0.638,0.997Z" style="fill:#ccc;fill-rule:nonzero;"/><path d="M680.271,279.634l38.502,24.45l0,-1.407l-37.865,-24.046l-0.637,1.003Z" style="fill:#ccc;fill-rule:nonzero;"/><path d="M687.309,268.549l31.464,19.981l0,-1.408l-30.827,-19.576l-0.637,1.003Z" style="fill:#ccc;fill-rule:nonzero;"/><path d="M695.624,288.225l-37.02,23.154l0.945,1.511l35.589,-22.259l-1.15,28.647l-0.042,1.024l1.02,-0.1l20.529,-2.01l3.278,9.217l0,-5.316l-1.833,-5.153l-0.232,-0.658l-0.695,0.068l-20.203,1.978l1.177,-29.311l0.067,-1.688l-1.43,0.896Z" style="fill:#6db4c2;fill-rule:nonzero;"/><path d="M656.372,312.498l4.318,2.741l-1.395,2.196l-4.317,-2.742l1.394,-2.195Z" style="fill:#ccc;"/><path d="M670.555,321.505l4.319,2.742l-1.395,2.195l-4.318,-2.741l1.394,-2.196Z" style="fill:#ccc;"/><path d="M684.738,330.512l4.319,2.741l-1.394,2.196l-4.318,-2.742l1.393,-2.195Z" style="fill:#ccc;"/><path d="M698.922,339.519l4.318,2.742l-1.394,2.196l-4.318,-2.743l1.394,-2.195Z" style="fill:#ccc;"/><path d="M713.106,348.525l4.318,2.742l-1.395,2.196l-4.317,-2.742l1.394,-2.196Z" style="fill:#ccc;"/><path d="M661.425,296.531l4.318,2.742l-1.394,2.196l-4.318,-2.742l1.394,-2.196Z" style="fill:#ccc;"/><path d="M668.463,285.446l4.319,2.742l-1.395,2.195l-4.318,-2.741l1.394,-2.196Z" style="fill:#ccc;"/><path d="M675.503,274.363l4.317,2.741l-1.395,2.195l-4.317,-2.742l1.395,-2.194Z" style="fill:#ccc;"/><path d="M681.722,264.566l4.318,2.742l-1.394,2.195l-4.317,-2.741l1.393,-2.196Z" style="fill:#ccc;"/><path d="M536.474,190.635l-5.805,-2.466l46.22,-108.804l-26.612,73.269l-2.012,4.734c-0.132,0.309 -0.14,0.641 -0.051,0.941l-1.522,4.192c-0.411,0.101 -0.771,0.387 -0.95,0.805l-2.083,4.904c-0.241,0.568 -0.069,1.215 0.381,1.599l-1.284,3.534c-0.652,-0.163 -1.348,0.169 -1.62,0.804l-2.081,4.903c-0.298,0.702 0.033,1.523 0.734,1.82c0.069,0.03 0.138,0.052 0.207,0.07l-3.522,9.695ZM549.873,159.258l-1.522,4.194c-0.116,-0.383 -0.393,-0.714 -0.786,-0.881c-0.286,-0.122 -0.591,-0.139 -0.873,-0.07l1.522,-4.192c0.117,0.382 0.392,0.712 0.787,0.879c0.286,0.122 0.591,0.139 0.872,0.07M576.889,79.365l13.813,-32.517l-26.612,73.267l-2.008,4.728c-0.132,0.309 -0.141,0.642 -0.051,0.943l-1.523,4.192c-0.411,0.1 -0.772,0.388 -0.951,0.804l-2.08,4.902c-0.243,0.571 -0.072,1.218 0.378,1.601l-1.284,3.534c-0.652,-0.163 -1.348,0.169 -1.617,0.805l-2.083,4.902c-0.299,0.703 0.031,1.524 0.735,1.822c0.068,0.029 0.136,0.05 0.205,0.068l-1.284,3.535c-0.104,-0.088 -0.225,-0.164 -0.357,-0.222c-0.704,-0.299 -1.524,0.032 -1.822,0.736l-0.071,0.169l26.612,-73.269ZM538.209,191.372l-1.735,-0.737l3.522,-9.695c0.651,0.163 1.347,-0.168 1.616,-0.804l2.083,-4.902c0.298,-0.704 -0.033,-1.522 -0.737,-1.822c-0.067,-0.028 -0.134,-0.051 -0.202,-0.069l1.284,-3.534c0.104,0.09 0.222,0.165 0.357,0.222c0.702,0.298 1.522,-0.032 1.821,-0.736l0.072,-0.17l-8.081,22.247ZM563.69,126.735l-1.523,4.193c-0.115,-0.383 -0.393,-0.713 -0.787,-0.881c-0.285,-0.12 -0.59,-0.138 -0.872,-0.069l1.523,-4.192c0.115,0.382 0.392,0.712 0.785,0.88c0.286,0.121 0.591,0.139 0.874,0.069M539.945,192.109l-1.736,-0.737l8.081,-22.247l2.01,-4.732c0.132,-0.31 0.141,-0.641 0.051,-0.941l1.522,-4.194c0.412,-0.1 0.773,-0.387 0.951,-0.804l2.081,-4.902c0.243,-0.57 0.072,-1.216 -0.378,-1.601l1.284,-3.535c0.651,0.164 1.347,-0.169 1.617,-0.803l2.083,-4.903c0.298,-0.702 -0.032,-1.524 -0.736,-1.821c-0.067,-0.028 -0.135,-0.052 -0.204,-0.07l1.284,-3.534c0.104,0.09 0.224,0.166 0.355,0.22c0.706,0.3 1.525,-0.031 1.824,-0.733l0.071,-0.169l-20.16,55.506ZM601.748,20.847l0.348,0.147l-24.189,66.597l-2.01,4.731c-0.131,0.309 -0.14,0.64 -0.05,0.94l-1.522,4.193c-0.411,0.102 -0.774,0.387 -0.951,0.805l-2.082,4.901c-0.242,0.57 -0.071,1.217 0.378,1.602l-1.283,3.534c-0.65,-0.165 -1.348,0.168 -1.618,0.804l-2.082,4.902c-0.298,0.703 0.032,1.523 0.735,1.821c0.068,0.03 0.136,0.052 0.205,0.069l-1.284,3.535c-0.104,-0.09 -0.225,-0.166 -0.356,-0.221c-0.705,-0.299 -1.524,0.032 -1.823,0.735l-0.074,0.173l26.612,-73.267l11.046,-26.001ZM577.505,94.212l-1.522,4.193c-0.116,-0.383 -0.393,-0.714 -0.787,-0.881c-0.286,-0.122 -0.59,-0.139 -0.871,-0.069l1.522,-4.193c0.114,0.383 0.392,0.713 0.785,0.881c0.287,0.121 0.592,0.138 0.873,0.069M541.68,192.846l-1.735,-0.737l20.16,-55.506l2.011,-4.734c0.132,-0.31 0.141,-0.641 0.051,-0.941l1.523,-4.193c0.411,-0.101 0.772,-0.387 0.95,-0.804l2.081,-4.902c0.243,-0.57 0.071,-1.217 -0.378,-1.601l1.284,-3.535c0.651,0.164 1.347,-0.168 1.618,-0.804l2.082,-4.902c0.298,-0.703 -0.032,-1.523 -0.737,-1.822c-0.066,-0.028 -0.134,-0.052 -0.203,-0.068l1.283,-3.534c0.105,0.089 0.225,0.165 0.357,0.221c0.705,0.299 1.524,-0.032 1.823,-0.737l0.074,-0.171l-32.244,88.77ZM602.096,20.994l1.736,0.738l-12.106,33.328l-2.012,4.736c-0.132,0.311 -0.142,0.643 -0.05,0.943l-1.524,4.193c-0.411,0.099 -0.771,0.387 -0.95,0.805l-2.082,4.902c-0.241,0.569 -0.07,1.216 0.379,1.601l-1.284,3.534c-0.65,-0.163 -1.348,0.168 -1.618,0.803l-2.082,4.903c-0.298,0.703 0.032,1.522 0.736,1.821c0.067,0.029 0.135,0.051 0.205,0.069l-1.284,3.534c-0.105,-0.088 -0.226,-0.164 -0.358,-0.221c-0.704,-0.299 -1.524,0.032 -1.822,0.735l-0.073,0.173l24.189,-66.597ZM591.323,61.688l-1.524,4.194c-0.115,-0.383 -0.393,-0.713 -0.787,-0.882c-0.285,-0.121 -0.59,-0.137 -0.872,-0.068l1.524,-4.193c0.114,0.383 0.391,0.713 0.784,0.881c0.287,0.121 0.592,0.138 0.875,0.068M543.416,193.584l-1.736,-0.738l32.244,-88.77l2.008,-4.729c0.131,-0.31 0.141,-0.641 0.051,-0.942l1.522,-4.193c0.413,-0.1 0.772,-0.388 0.951,-0.804l2.082,-4.904c0.242,-0.57 0.07,-1.216 -0.378,-1.6l1.284,-3.534c0.651,0.162 1.346,-0.168 1.616,-0.805l2.084,-4.901c0.297,-0.703 -0.034,-1.523 -0.736,-1.822c-0.068,-0.029 -0.136,-0.051 -0.205,-0.068l1.284,-3.534c0.103,0.089 0.224,0.164 0.357,0.221c0.704,0.298 1.523,-0.032 1.824,-0.737l0.072,-0.171l-44.324,122.031ZM603.832,21.732l1.735,0.736l-3.61,9.939c-0.411,0.103 -0.773,0.389 -0.95,0.806l-2.082,4.902c-0.243,0.57 -0.071,1.218 0.378,1.6l-1.284,3.535c-0.651,-0.163 -1.347,0.168 -1.618,0.805l-2.081,4.901c-0.299,0.703 0.031,1.523 0.734,1.822c0.069,0.029 0.136,0.052 0.205,0.069l-1.283,3.534c-0.106,-0.09 -0.225,-0.165 -0.359,-0.221c-0.702,-0.299 -1.523,0.032 -1.821,0.735l-0.07,0.165l12.106,-33.328ZM605.567,22.468l113.571,48.246l-71.079,167.322l-104.643,-44.452l44.324,-122.031l2.009,-4.731c0.13,-0.309 0.14,-0.64 0.05,-0.94l1.524,-4.194c0.411,-0.101 0.771,-0.387 0.948,-0.804l2.084,-4.902c0.241,-0.569 0.07,-1.217 -0.379,-1.601l1.283,-3.534c0.651,0.163 1.348,-0.168 1.617,-0.804l2.083,-4.903c0.299,-0.703 -0.032,-1.523 -0.736,-1.821c-0.066,-0.029 -0.135,-0.051 -0.204,-0.069l1.284,-3.535c0.104,0.09 0.224,0.165 0.357,0.221c0.704,0.3 1.523,-0.032 1.821,-0.735l2.083,-4.902c0.299,-0.704 -0.031,-1.523 -0.735,-1.821c-0.285,-0.122 -0.591,-0.14 -0.872,-0.071l3.61,-9.939Z" style="fill:#2e93db;"/><path d="M601.603,34.337l-10.41,-4.422c-0.436,-0.186 -0.944,0.02 -1.129,0.456c-0.186,0.435 0.021,0.944 0.456,1.128l10.41,4.422c0.437,0.185 0.945,-0.018 1.128,-0.453l0,-0.002c0.186,-0.436 -0.019,-0.943 -0.455,-1.129" style="fill:#9a57b4;"/><path d="M600.258,37.507l-10.411,-4.422c-0.437,-0.186 -0.944,0.02 -1.13,0.456c-0.185,0.435 0.021,0.944 0.456,1.129l10.411,4.421c0.435,0.186 0.943,-0.02 1.127,-0.455l0.001,0c0.185,-0.436 -0.02,-0.945 -0.454,-1.129" style="fill:#9a57b4;"/><path d="M597.004,45.166l-10.411,-4.423c-0.437,-0.186 -0.944,0.02 -1.129,0.457c-0.185,0.435 0.02,0.942 0.455,1.128l10.411,4.422c0.436,0.185 0.944,-0.02 1.129,-0.455l0.001,-0.001c0.184,-0.435 -0.021,-0.944 -0.456,-1.128" style="fill:#9a57b4;"/><path d="M595.657,48.335l-10.41,-4.422c-0.437,-0.185 -0.944,0.02 -1.13,0.456c-0.184,0.436 0.02,0.944 0.456,1.129l10.411,4.422c0.436,0.185 0.943,-0.021 1.129,-0.456l-0.002,0c0.187,-0.435 -0.019,-0.944 -0.454,-1.129" style="fill:#9a57b4;"/><path d="M592.403,55.993l-10.411,-4.422c-0.435,-0.185 -0.942,0.02 -1.128,0.456c-0.186,0.436 0.019,0.943 0.456,1.129l10.41,4.422c0.436,0.186 0.943,-0.02 1.129,-0.455l0,-0.001c0.185,-0.435 -0.019,-0.943 -0.456,-1.129" style="fill:#9a57b4;"/><path d="M591.057,59.164l-10.411,-4.422c-0.435,-0.186 -0.942,0.019 -1.128,0.455l0,0.001c-0.186,0.435 0.02,0.943 0.456,1.128l10.41,4.422c0.436,0.186 0.943,-0.02 1.128,-0.456l0,0c0.186,-0.435 -0.019,-0.943 -0.455,-1.128" style="fill:#9a57b4;"/><path d="M587.804,66.821l-10.41,-4.422c-0.437,-0.185 -0.944,0.021 -1.131,0.456c-0.183,0.435 0.022,0.944 0.457,1.13l10.411,4.421c0.436,0.185 0.943,-0.02 1.127,-0.455c0.187,-0.435 -0.019,-0.944 -0.454,-1.13" style="fill:#9a57b4;"/><path d="M586.457,69.992l-10.41,-4.422c-0.436,-0.186 -0.945,0.019 -1.128,0.455l-0.002,0.001c-0.184,0.435 0.021,0.942 0.458,1.128l10.408,4.422c0.437,0.185 0.944,-0.019 1.129,-0.455l0.001,-0.001c0.185,-0.435 -0.021,-0.943 -0.456,-1.128" style="fill:#9a57b4;"/><path d="M583.204,77.649l-10.409,-4.422c-0.437,-0.185 -0.946,0.02 -1.13,0.456c-0.185,0.436 0.019,0.944 0.456,1.13l10.41,4.422c0.435,0.184 0.944,-0.021 1.128,-0.456l0,0c0.186,-0.436 -0.019,-0.944 -0.455,-1.13" style="fill:#9a57b4;"/><path d="M581.857,80.821l-10.41,-4.423c-0.436,-0.187 -0.944,0.019 -1.129,0.455c-0.186,0.437 0.021,0.944 0.456,1.13l10.41,4.421c0.435,0.185 0.943,-0.02 1.128,-0.455c0.186,-0.437 -0.019,-0.944 -0.455,-1.128" style="fill:#9a57b4;"/><path d="M578.603,88.477l-10.409,-4.422c-0.436,-0.184 -0.943,0.021 -1.129,0.456c-0.185,0.436 0.019,0.944 0.456,1.129l10.41,4.422c0.436,0.186 0.943,-0.019 1.128,-0.454l0.001,-0.001c0.184,-0.435 -0.021,-0.944 -0.457,-1.13" style="fill:#9a57b4;"/><path d="M577.258,91.647l-10.411,-4.422c-0.436,-0.185 -0.944,0.021 -1.128,0.457l-0.003,-0.001c-0.183,0.437 0.022,0.945 0.459,1.13l10.409,4.422c0.436,0.185 0.943,-0.02 1.129,-0.455l0,0c0.186,-0.436 -0.021,-0.945 -0.455,-1.131" style="fill:#9a57b4;"/><path d="M574.004,99.305l-10.41,-4.422c-0.436,-0.185 -0.943,0.021 -1.129,0.456l0,0c-0.186,0.436 0.02,0.944 0.456,1.13l10.41,4.421c0.436,0.185 0.943,-0.019 1.128,-0.454l0,-0.002c0.186,-0.434 -0.019,-0.943 -0.455,-1.129" style="fill:#9a57b4;"/><path d="M572.658,102.476l-10.411,-4.422c-0.436,-0.186 -0.944,0.019 -1.129,0.456c-0.186,0.435 0.021,0.944 0.456,1.13l10.41,4.421c0.437,0.185 0.943,-0.02 1.128,-0.455l0.001,-0.001c0.185,-0.435 -0.02,-0.944 -0.455,-1.129" style="fill:#9a57b4;"/><path d="M569.404,110.135l-10.41,-4.423c-0.435,-0.186 -0.945,0.021 -1.13,0.456l0,0c-0.184,0.435 0.02,0.944 0.457,1.129l10.41,4.421c0.436,0.186 0.943,-0.019 1.128,-0.456c0.185,-0.435 -0.019,-0.942 -0.455,-1.127" style="fill:#9a57b4;"/><path d="M568.058,113.304l-10.411,-4.423c-0.437,-0.185 -0.944,0.021 -1.129,0.457c-0.184,0.435 0.02,0.944 0.456,1.129l10.411,4.422c0.435,0.184 0.943,-0.021 1.128,-0.456c0.185,-0.436 -0.019,-0.943 -0.455,-1.129" style="fill:#9a57b4;"/><path d="M564.804,120.962l-10.41,-4.422c-0.436,-0.186 -0.944,0.02 -1.129,0.456c-0.184,0.435 0.02,0.945 0.456,1.128l10.41,4.422c0.435,0.186 0.944,-0.018 1.128,-0.454c0.186,-0.436 -0.018,-0.945 -0.455,-1.13" style="fill:#9a57b4;"/><path d="M563.457,124.132l-10.409,-4.422c-0.437,-0.185 -0.945,0.02 -1.13,0.456c-0.186,0.435 0.02,0.945 0.456,1.13l10.41,4.42c0.436,0.186 0.944,-0.019 1.129,-0.454c0.185,-0.436 -0.02,-0.944 -0.456,-1.13" style="fill:#9a57b4;"/><path d="M560.205,131.791l-10.412,-4.422c-0.435,-0.186 -0.943,0.019 -1.128,0.456c-0.185,0.435 0.021,0.943 0.456,1.128l10.409,4.422c0.437,0.186 0.944,-0.019 1.131,-0.456c0.184,-0.435 -0.021,-0.943 -0.456,-1.128" style="fill:#9a57b4;"/><path d="M558.858,134.96l-10.41,-4.422c-0.436,-0.185 -0.945,0.02 -1.129,0.456l-0.001,0.001c-0.184,0.435 0.021,0.942 0.457,1.128l10.41,4.422c0.436,0.186 0.943,-0.019 1.128,-0.456l0.001,0c0.184,-0.435 -0.021,-0.943 -0.456,-1.129" style="fill:#9a57b4;"/><path d="M555.605,142.619l-10.41,-4.422c-0.437,-0.186 -0.944,0.019 -1.13,0.455l0.001,0.001c-0.186,0.435 0.02,0.944 0.455,1.128l10.411,4.422c0.435,0.185 0.942,-0.019 1.127,-0.456c0.186,-0.436 -0.02,-0.943 -0.454,-1.128" style="fill:#9a57b4;"/><path d="M554.259,145.789l-10.411,-4.423c-0.437,-0.185 -0.944,0.021 -1.13,0.456c-0.185,0.436 0.021,0.943 0.457,1.129l10.41,4.422c0.437,0.186 0.943,-0.019 1.127,-0.456l0.001,0c0.185,-0.435 -0.02,-0.942 -0.454,-1.128" style="fill:#9a57b4;"/><path d="M551.006,153.446l-10.412,-4.422c-0.435,-0.185 -0.944,0.02 -1.128,0.456l-0.001,0.001c-0.185,0.435 0.02,0.944 0.456,1.129l10.411,4.422c0.435,0.184 0.943,-0.021 1.128,-0.456c0.185,-0.436 -0.02,-0.944 -0.454,-1.13" style="fill:#9a57b4;"/><path d="M549.658,156.617l-10.41,-4.422c-0.436,-0.186 -0.945,0.02 -1.129,0.455l0,0.001c-0.185,0.435 0.019,0.943 0.455,1.129l10.412,4.421c0.435,0.185 0.942,-0.02 1.126,-0.455l0.002,0c0.185,-0.436 -0.021,-0.944 -0.456,-1.129" style="fill:#9a57b4;"/><path d="M546.405,164.275l-10.411,-4.422c-0.436,-0.186 -0.943,0.019 -1.128,0.455l0,0.001c-0.185,0.436 0.019,0.943 0.455,1.128l10.41,4.423c0.437,0.185 0.944,-0.02 1.13,-0.456l0,0c0.184,-0.436 -0.02,-0.943 -0.456,-1.129" style="fill:#9a57b4;"/><path d="M545.058,167.446l-10.411,-4.423c-0.435,-0.186 -0.943,0.019 -1.128,0.456c-0.185,0.436 0.02,0.943 0.456,1.129l10.41,4.422c0.435,0.185 0.943,-0.02 1.128,-0.456c0.186,-0.435 -0.019,-0.945 -0.455,-1.128" style="fill:#9a57b4;"/><path d="M541.805,175.103l-10.41,-4.422c-0.437,-0.186 -0.945,0.02 -1.129,0.455l0,0.001c-0.185,0.435 0.021,0.944 0.456,1.13l10.411,4.421c0.435,0.184 0.942,-0.02 1.128,-0.455l0,-0.001c0.184,-0.435 -0.021,-0.944 -0.456,-1.129" style="fill:#9a57b4;"/><path d="M540.458,178.273l-10.41,-4.423c-0.435,-0.185 -0.943,0.021 -1.13,0.457c-0.184,0.436 0.022,0.943 0.457,1.129l10.41,4.422c0.436,0.185 0.943,-0.02 1.129,-0.456c0.186,-0.435 -0.021,-0.944 -0.456,-1.129" style="fill:#9a57b4;"/><path d="M326.523,311.619l-42.232,-176.82l250.074,-59.728l42.232,176.818l-250.074,59.73Z" style="fill:#fab867;"/><path d="M244.455,4.752l110.76,114.828c5.957,6.177 5.779,16.105 -0.398,22.062l-26.206,25.278l-9.48,9.144c-2.31,2.229 -3.738,2.889 -6.219,1.725l-5.532,-2.592c-2.745,-1.287 -5.706,-0.454 -8.499,2.24l-32.774,31.612c-2.792,2.694 -3.73,5.622 -2.544,8.413l2.392,5.621c1.072,2.523 0.361,3.926 -1.95,6.155l-9.479,9.143l-71.414,68.885c-6.177,5.957 -16.105,5.778 -22.062,-0.399l-110.761,-114.828c-5.958,-6.177 -5.779,-16.104 0.398,-22.062l171.705,-165.623c6.177,-5.958 16.105,-5.779 22.063,0.398" style="fill:#36485c;"/><path d="M40.788,260.762l179.492,28.841l-40.789,253.851l-179.491,-28.84l40.788,-253.852Z" style="fill:#fff;"/><path d="M82.595,295.373l87.14,14.001l-0.718,4.469l-87.14,-14.002l0.718,-4.468Z" style="fill:#ccc;"/><path d="M51.097,301.771l146.546,23.547l-0.719,4.469l-146.545,-23.547l0.718,-4.469Z" style="fill:#ccc;"/><path d="M49.841,309.591l146.544,23.547l-0.717,4.469l-146.546,-23.547l0.719,-4.469Z" style="fill:#ccc;"/><path d="M48.584,317.412l146.545,23.547l-0.717,4.468l-146.546,-23.546l0.718,-4.469Z" style="fill:#ccc;"/><path d="M47.327,325.231l146.546,23.547l-0.719,4.469l-146.544,-23.547l0.717,-4.469Z" style="fill:#ccc;"/><path d="M46.071,333.052l146.546,23.546l-0.719,4.47l-146.545,-23.547l0.718,-4.469Z" style="fill:#ccc;"/><path d="M44.815,340.871l146.545,23.547l-0.719,4.469l-146.545,-23.547l0.719,-4.469Z" style="fill:#ccc;"/><path d="M43.558,348.691l146.545,23.547l-0.718,4.469l-146.545,-23.546l0.718,-4.47Z" style="fill:#ccc;"/><path d="M42.301,356.512l146.546,23.547l-0.718,4.468l-146.546,-23.546l0.718,-4.469Z" style="fill:#ccc;"/><path d="M152.99,481.882c10.495,1.686 17.637,11.562 15.95,22.059c-1.686,10.494 -11.562,17.636 -22.057,15.951c-10.496,-1.689 -17.637,-11.563 -15.951,-22.057c1.687,-10.499 11.562,-17.639 22.058,-15.953" style="fill:#f2675d;"/><path d="M136.928,515.074c-2.438,-2.239 -4.276,-5.084 -5.306,-8.251l18.315,-5.936l-13.009,14.187Z" style="fill:#fcd8d6;"/><path d="M131.623,506.823c-0.913,-2.81 -1.191,-5.873 -0.69,-8.988c0.976,-6.079 4.697,-11.03 9.695,-13.797l9.308,16.849l-18.313,5.936Z" style="fill:#f9b3af;"/><path d="M140.628,484.038c3.634,-2.01 7.942,-2.865 12.362,-2.156l-3.053,19.005l-9.309,-16.849Z" style="fill:#f48c85;"/><path d="M152.99,481.882l-3.053,19.005l15.684,-11.154c-2.884,-4.056 -7.329,-6.999 -12.631,-7.851" style="fill:#f2675d;"/><path d="M128.57,520.261l7.822,1.257l-0.358,2.23l-7.823,-1.256l0.359,-2.231Z" style="fill:#ccc;"/><path d="M140.015,522.099l23.24,3.736l-0.358,2.229l-23.24,-3.734l0.358,-2.231Z" style="fill:#ccc;"/><path d="M137.199,404.183l6.568,1.056l-0.94,5.849l-6.567,-1.055l0.939,-5.85Z" style="fill:#ffae00;"/><path d="M135.648,413.839l6.567,1.054l-0.939,5.851l-6.567,-1.057l0.939,-5.848Z" style="fill:#f7837b;"/><path d="M134.096,423.494l6.568,1.056l-0.94,5.849l-6.567,-1.055l0.939,-5.85Z" style="fill:#ffcda1;"/><path d="M132.544,433.15l6.569,1.055l-0.941,5.85l-6.567,-1.056l0.939,-5.849Z" style="fill:#596273;"/><path d="M130.994,442.806l6.567,1.054l-0.94,5.849l-6.567,-1.055l0.94,-5.848Z" style="fill:#6db4c2;"/><path d="M149.915,406.227l7.995,1.284l-0.94,5.849l-7.994,-1.284l0.939,-5.849Z" style="fill:#ccc;"/><path d="M148.365,415.882l18.285,2.937l-0.94,5.85l-18.285,-2.937l0.94,-5.85Z" style="fill:#ccc;"/><path d="M146.813,425.538l24.527,3.941l-0.94,5.849l-24.527,-3.94l0.94,-5.85Z" style="fill:#ccc;"/><path d="M160.809,407.977l20.485,3.292l-0.94,5.849l-20.485,-3.291l0.94,-5.85Z" style="fill:#ccc;"/><path d="M168.975,419.194l5.752,0.923l-0.941,5.851l-5.751,-0.924l0.94,-5.85Z" style="fill:#ccc;"/><path d="M176.807,420.451l14.169,2.278l-0.94,5.849l-14.17,-2.277l0.941,-5.85Z" style="fill:#ccc;"/><path d="M187.873,442.039l-7.994,-1.284l-0.939,5.85l7.993,1.284l0.94,-5.85Z" style="fill:#ccc;"/><path d="M176.98,440.29l-20.486,-3.293l-0.94,5.85l20.486,3.293l0.94,-5.85Z" style="fill:#ccc;"/><path d="M153.255,436.477l-7.993,-1.284l-0.941,5.85l7.994,1.284l0.94,-5.85Z" style="fill:#ccc;"/><path d="M165.711,448.384l-5.751,-0.924l-0.94,5.847l5.751,0.926l0.94,-5.849Z" style="fill:#ccc;"/><path d="M157.88,447.125l-14.17,-2.277l-0.94,5.85l14.169,2.277l0.941,-5.85Z" style="fill:#ccc;"/><path d="M32.517,440.975l86.986,13.977l-0.189,1.174l-86.985,-13.978l0.188,-1.173Z" style="fill:#ccc;fill-rule:nonzero;"/><path d="M124.832,399.735l-8.877,55.249l-1.174,-0.19l8.877,-55.248l1.174,0.189Z" style="fill:#ccc;fill-rule:nonzero;"/><path d="M34.6,428.011l86.986,13.977l-0.189,1.172l-86.985,-13.977l0.188,-1.172Z" style="fill:#ccc;fill-rule:nonzero;"/><path d="M36.685,415.05l86.869,14.602l-0.192,1.168l-86.869,-14.602l0.192,-1.168Z" style="fill:#ccc;fill-rule:nonzero;"/><path d="M38.766,402.083l86.985,13.978l-0.188,1.172l-86.985,-13.978l0.188,-1.172Z" style="fill:#ccc;fill-rule:nonzero;"/><path d="M40.849,389.119l86.986,13.977l-0.188,1.173l-86.986,-13.977l0.188,-1.173Z" style="fill:#ccc;fill-rule:nonzero;"/><path d="M56.077,405.077l-24.85,35.904l1.465,1.014l23.89,-34.516l10.27,26.77l0.365,0.955l0.897,-0.495l18.063,-9.962l14.032,15.119l0.797,0.858l0.614,-0.998l17.932,-29.091l3.206,1.976l0.478,-9.652l-8.408,4.765l3.208,1.976l-17.319,28.094l-13.708,-14.769l-0.473,-0.511l-0.612,0.336l-17.775,9.805l-10.508,-27.39l-0.604,-1.576l-0.96,1.388Z" style="fill:#6db4c2;fill-rule:nonzero;"/><path d="M436.287,172.827c19.518,1.307 87.61,13.033 97.917,16.365c10.309,3.332 10.331,16.392 9.863,21.675c-0.468,5.284 -6.834,6.215 -6.042,-2.727c0.792,-8.941 0.441,-13.854 -5.745,-14.956c-6.186,-1.101 -89.958,-13.141 -95.787,-13.818c-5.831,-0.677 -4.082,-7.126 -0.206,-6.539" style="fill:#254659;"/><path d="M547.971,182.712c-19.445,-2.141 -88.537,-2.556 -99.271,-1.086c-10.732,1.469 -13.048,14.322 -13.515,19.605c-0.468,5.284 5.636,7.318 6.426,-1.624c0.792,-8.941 2,-13.717 8.283,-13.714c6.282,0.002 90.867,2.861 96.726,3.219c5.859,0.358 5.27,-6.298 1.351,-6.4" style="fill:#254659;"/><path d="M465.827,173.224c-0.526,-0.104 -1.045,-0.2 -1.552,-0.288c-10.071,-1.731 -25.233,-1.813 -27.906,-1.209c-3.195,0.723 -3.307,0.969 -3.655,3.319c-0.348,2.351 -0.14,4.412 1.641,5.187c2.428,1.055 2.171,4.217 3.013,13.433c0.687,7.508 3.218,13.787 14.907,16.872l0.801,-2.211c-5.04,-1.482 -9.529,-4.247 -11.246,-8.103c-3.376,-7.585 -3.081,-22.28 2.341,-24.864c2.66,-1.269 12.052,-1.395 20.818,0.168l0.838,-2.304ZM491.803,179.995c-3.304,-0.219 -16.081,-4.826 -25.976,-6.771l-0.838,2.304c7.122,1.27 13.832,3.654 16.185,7.448c4.413,7.114 -5.087,22.661 -13.05,25.597c-3.944,1.455 -9.795,1.299 -15.048,-0.246l-0.801,2.211c1.378,0.363 2.88,0.684 4.525,0.955c15.302,2.528 21.344,-6.936 23.293,-9.984c3.478,-5.436 3.26,-13.373 11.041,-12.685c7.782,0.689 6.324,8.337 8.792,14.301c1.107,2.673 3.974,9.922 13.003,12.823l0.792,-2.184c-1.26,-0.39 -2.411,-0.876 -3.402,-1.456c-7.323,-4.29 -13.945,-21.264 -8.352,-27.492c3.891,-4.332 14.652,-5.002 23.791,-4.191l0.886,-2.438c-2.185,-0.169 -4.318,-0.274 -6.277,-0.286c-9.136,-0.057 -20.376,2.638 -28.564,2.094M512.929,215.948c2.264,0.728 4.914,1.183 8.025,1.223c15.804,0.202 20.031,-6.009 22.26,-14.138c2.448,-8.924 2.75,-12.082 5.325,-12.694c1.891,-0.45 2.458,-2.443 2.528,-4.818c0.07,-2.375 0.004,-2.637 -3.015,-3.909c-2.041,-0.86 -12.194,-2.713 -21.408,-3.425l-0.886,2.438c6.495,0.576 12.171,1.9 13.975,3.192c4.883,3.497 2.593,18.015 -2.063,24.889c-4.161,6.142 -16.155,7.463 -23.949,5.058l-0.792,2.184Z" style="fill:#000;"/><g><clipPath id="_clip1"><rect x="439.626" y="174.382" width="102.832" height="40.513"/></clipPath><g clip-path="url(#_clip1)"><g opacity="0.5"><clipPath id="_clip2"><rect x="439.626" y="174.382" width="102.832" height="40.513"/></clipPath><g clip-path="url(#_clip2)"><path d="M539.733,183.817c-4.342,-3.109 -31.109,-6.412 -37.766,1c-5.594,6.228 1.029,23.202 8.352,27.49c7.107,4.164 22.518,3.535 27.351,-3.601c4.656,-6.874 6.946,-21.392 2.063,-24.889M444.171,175.359c4.821,-2.297 31.751,-0.849 37.003,7.617c4.413,7.114 -5.087,22.661 -13.05,25.597c-7.728,2.85 -22.788,-0.475 -26.294,-8.349c-3.376,-7.585 -3.082,-22.279 2.341,-24.865" style="fill:#fff;"/></g></g></g></g><g><clipPath id="_clip3"><rect x="446.822" y="174.382" width="35.473" height="28.747"/></clipPath><g clip-path="url(#_clip3)"><g opacity="0.5"><clipPath id="_clip4"><rect x="446.822" y="174.382" width="35.473" height="28.747"/></clipPath><g clip-path="url(#_clip4)"><path d="M446.822,174.695c8.381,-1.178 29.736,0.842 34.352,8.281c3.095,4.989 -0.654,14.127 -5.916,20.153l-28.436,-28.434Z" style="fill:#fff;"/></g></g></g></g><g><clipPath id="_clip5"><rect x="506.541" y="180.327" width="35.918" height="30.669"/></clipPath><g clip-path="url(#_clip5)"><g opacity="0.5"><clipPath id="_clip6"><rect x="506.541" y="180.327" width="35.918" height="30.669"/></clipPath><g clip-path="url(#_clip6)"><path d="M506.541,182.036l28.963,28.96c0.852,-0.672 1.585,-1.434 2.166,-2.29c4.656,-6.874 6.946,-21.392 2.063,-24.889c-3.646,-2.611 -23.108,-5.357 -33.192,-1.781" style="fill:#fff;"/></g></g></g></g><path d="M528.564,336.315l182.763,21.857l-10.93,91.381l-182.761,-21.857l10.928,-91.381Z" style="fill:#fff;"/><path d="M623.077,388.907l63.929,7.646c1.852,0.221 3.187,1.919 2.965,3.772l-3.419,28.595c-0.222,1.852 -1.919,3.188 -3.771,2.966l-63.93,-7.645c-1.852,-0.222 -3.187,-1.919 -2.965,-3.772l3.419,-28.595c0.223,-1.853 1.918,-3.188 3.772,-2.967" style="fill:#98e6d6;"/><path d="M665.085,191.628l22.793,24.348c4.323,4.62 4.083,11.934 -0.535,16.257l-65.491,61.307c-4.618,4.323 -11.934,4.081 -16.257,-0.536l-22.792,-24.349c-4.324,-4.619 -4.082,-11.933 0.535,-16.256l65.491,-61.307c4.617,-4.323 11.933,-4.081 16.256,0.536" style="fill:#fff;"/><path d="M651.454,194.294l32.898,35.143l-62.259,58.283l-32.9,-35.143l62.261,-58.283Z" style="fill:#000;"/><path d="M664.553,200.169l14.8,15.81c0.402,0.429 1.082,0.452 1.512,0.05c0.429,-0.403 0.452,-1.083 0.049,-1.512l-14.798,-15.81c-0.403,-0.429 -1.082,-0.452 -1.513,-0.049l0.001,0c-0.431,0.402 -0.452,1.082 -0.051,1.511" style="fill:#b3b3b3;"/><path d="M651.454,194.294l-29.361,93.426l62.259,-58.283l-32.898,-35.143Z" style="fill:#4d4d4d;"/><path d="M586.154,263.405l24.934,26.634c0.623,0.666 1.676,0.701 2.342,0.077c0.666,-0.623 0.702,-1.678 0.078,-2.343l-24.932,-26.635c-0.625,-0.666 -1.678,-0.7 -2.344,-0.076c-0.666,0.623 -0.7,1.677 -0.078,2.343" style="fill:#b3b3b3;"/><path d="M604.554,271.136c2.45,2.616 2.314,6.724 -0.302,9.174c-2.618,2.45 -6.726,2.315 -9.175,-0.302c-2.451,-2.617 -2.316,-6.725 0.303,-9.175c2.616,-2.449 6.723,-2.314 9.174,0.303" style="fill:#fff;"/><path d="M603.155,272.445c1.727,1.845 1.632,4.74 -0.213,6.467c-1.845,1.726 -4.74,1.631 -6.467,-0.214c-1.726,-1.845 -1.63,-4.74 0.215,-6.466c1.843,-1.727 4.737,-1.631 6.465,0.213" style="fill:#b3b3b3;"/><path d="M137.748,304.198l-12.734,2.271l6.915,-10.932l80.143,-53.845c1.299,-0.873 3.076,-0.524 3.949,0.775l2.645,3.937c0.873,1.3 0.524,3.077 -0.775,3.95l-80.143,53.844Z" style="fill:#f85a68;"/><path d="M137.748,304.198l-12.734,2.271l10.218,-6.865l82.112,-55.169l1.322,1.969c0.873,1.3 0.524,3.077 -0.775,3.95l-80.143,53.844Z" style="fill:#c62229;"/><path d="M137.748,304.198l-12.734,2.271l6.915,-10.932l76.664,-51.508c2.568,2.701 4.471,5.585 5.819,8.662l-76.664,51.507Z" style="fill:#fff;"/><path d="M137.748,304.198l-12.734,2.271l10.218,-6.865l76.651,-51.5c1,1.479 1.837,3.007 2.529,4.587l-76.664,51.507Z" style="fill:#d0d0d0;"/><path d="M137.748,304.198l-12.734,2.271l6.915,-10.932l73.901,-49.651c2.616,2.693 4.517,5.576 5.82,8.661l-73.902,49.651Z" style="fill:#fab867;"/><path d="M137.748,304.198l-12.734,2.271l10.218,-6.865l73.915,-49.661c1.003,1.482 1.832,3.017 2.503,4.604l-73.902,49.651Z" style="fill:#f6931d;"/><path d="M137.747,304.198l-12.734,2.271l6.915,-10.932c1.181,1.204 2.294,2.565 3.302,4.067c1.01,1.502 1.849,3.046 2.517,4.594" style="fill:#f0b16c;"/><path d="M137.747,304.198l-12.734,2.271l10.218,-6.865c1.009,1.502 1.848,3.046 2.516,4.594" style="fill:#c78b4c;"/><path d="M129.22,305.718l-4.206,0.75l2.284,-3.611c0.39,0.398 0.758,0.847 1.091,1.344c0.332,0.496 0.61,1.007 0.831,1.517" style="fill:#1e1e1e;"/><path d="M442.036,574.719l5.524,14.009c0.214,0.541 -0.192,0.809 -0.903,0.594l-5.168,-1.562c-0.711,-0.215 -1.467,-0.834 -1.681,-1.375l-5.525,-14.01c-0.213,-0.54 0.194,-0.807 0.903,-0.594l5.169,1.563c0.712,0.216 1.468,0.834 1.681,1.375" style="fill:#f6931d;"/><path d="M444.462,577.546l7.644,19.385c0.297,0.75 -0.075,1.605 -0.825,1.9l-5.451,2.15c-0.75,0.296 -1.605,-0.075 -1.901,-0.825l-7.645,-19.384c-0.296,-0.752 0.075,-1.605 0.825,-1.901l5.452,-2.151c0.75,-0.295 1.604,0.076 1.901,0.826" style="fill:#fff;"/><path d="M454.559,586.332l25.574,64.836c0.71,1.804 -0.184,3.859 -1.984,4.57l-13.107,5.169c-1.802,0.71 -3.858,-0.182 -4.567,-1.984l-25.574,-64.838c-1.473,-3.738 1.812,-7.886 3.013,-8.361l8.738,-3.446c1.2,-0.473 6.433,0.315 7.907,4.054" style="fill:#f6931d;"/><path d="M458.062,587.633l23.741,60.196c0.503,1.276 -0.13,2.732 -1.406,3.235l-20.189,7.962c-1.277,0.504 -2.733,-0.127 -3.236,-1.404l-23.742,-60.195c-0.502,-1.277 0.129,-2.733 1.406,-3.237l20.19,-7.963c1.277,-0.503 2.733,0.13 3.236,1.406" style="fill:#fbd4a5;"/><path d="M458.466,588.659l22.932,58.143l-24.831,9.795l-22.932,-58.145l24.831,-9.793Z" style="fill:#f6931d;"/><path d="M437.744,536.116l8.814,22.349c0.504,1.278 -0.129,2.732 -1.406,3.236l-20.189,7.963c-1.276,0.504 -2.732,-0.128 -3.235,-1.404l-8.816,-22.35c-0.503,-1.278 0.128,-2.734 1.406,-3.238l20.19,-7.962c1.276,-0.503 2.731,0.13 3.236,1.406" style="fill:#fbd4a5;"/><path d="M442.785,556.02l-8.464,-21.458c-0.404,-1.027 -1.575,-1.535 -2.603,-1.13l-16.235,6.404c-1.027,0.404 -1.535,1.575 -1.13,2.603l8.463,21.457c0.405,1.026 1.576,1.535 2.602,1.131l16.235,-6.404c1.027,-0.404 1.536,-1.577 1.132,-2.603" style="fill:#f6931d;"/><path d="M669.662,533.615l2.643,14.826c0.101,0.573 -0.349,0.754 -1.003,0.403l-4.757,-2.556c-0.654,-0.351 -1.274,-1.106 -1.376,-1.681l-2.642,-14.824c-0.101,-0.574 0.35,-0.754 1.004,-0.403l4.757,2.554c0.654,0.352 1.272,1.107 1.374,1.681" style="fill:#bd1d2d;"/><path d="M671.481,536.867l3.655,20.513c0.141,0.794 -0.391,1.559 -1.185,1.7l-5.769,1.028c-0.794,0.142 -1.559,-0.392 -1.7,-1.185l-3.655,-20.515c-0.143,-0.794 0.391,-1.558 1.184,-1.7l5.77,-1.028c0.793,-0.141 1.559,0.392 1.7,1.187" style="fill:#fff;"/><path d="M679.639,547.477l12.229,68.617c0.339,1.907 -0.943,3.745 -2.848,4.085l-13.871,2.472c-1.906,0.34 -3.744,-0.943 -4.086,-2.849l-12.226,-68.618c-0.707,-3.956 3.336,-7.373 4.605,-7.598l9.248,-1.65c1.271,-0.224 6.244,1.584 6.949,5.541" style="fill:#f2675d;"/><path d="M682.814,549.446l11.354,63.704c0.24,1.351 -0.669,2.652 -2.019,2.895l-21.366,3.806c-1.352,0.241 -2.654,-0.667 -2.894,-2.018l-11.354,-63.704c-0.241,-1.351 0.668,-2.653 2.019,-2.894l21.366,-3.809c1.352,-0.239 2.654,0.668 2.894,2.02" style="fill:#f9b3af;"/><path d="M683.008,550.532l10.966,61.533l-26.28,4.683l-10.966,-61.533l26.28,-4.683Z" style="fill:#f2675d;"/><path d="M678.793,526.879l4.215,23.652c0.24,1.351 -0.668,2.652 -2.019,2.893l-21.367,3.809c-1.35,0.24 -2.652,-0.669 -2.894,-2.019l-4.215,-23.652c-0.24,-1.352 0.669,-2.654 2.019,-2.895l21.366,-3.807c1.352,-0.241 2.654,0.667 2.895,2.019" style="fill:#f9b3af;"/><path d="M679.793,547.387l-4.047,-22.71c-0.194,-1.086 -1.24,-1.815 -2.328,-1.623l-17.182,3.064c-1.086,0.193 -1.817,1.24 -1.623,2.327l4.047,22.707c0.194,1.089 1.241,1.818 2.327,1.626l17.182,-3.063c1.086,-0.195 1.818,-1.241 1.624,-2.328" style="fill:#f2675d;"/><path d="M262.569,75.071l53.328,9.883l-7.077,38.178l-17.956,12.342l-38.179,-7.075l9.884,-53.328Z" style="fill:#fff;"/><path d="M293.486,120.326l15.149,2.807l-17.957,12.341l2.808,-15.148Z" style="fill:#f48c85;"/><path d="M262.569,75.071l53.328,9.883l-1.47,7.929l-53.328,-9.883l1.47,-7.929Z" style="fill:#f48c85;"/><path d="M305.827,138.474l-15.149,-2.808l17.956,-12.342l-2.807,15.15Z" style="fill:#f9b3af;"/><path d="M262.464,623.825l8.959,-14.323l-6.993,-4.376l-8.961,14.323l6.995,4.376Z" style="fill:#fff;"/><path d="M270.707,618.643l-12.226,19.541c-1.933,3.09 -6.043,4.036 -9.133,2.102l-2.108,-1.318c-3.09,-1.933 -4.036,-6.043 -2.102,-9.133l12.224,-19.542l13.345,8.35Z" style="fill:#fff;"/><path d="M268.539,617.287l-11.412,18.24c-1.305,2.086 -4.08,2.724 -6.166,1.419l-1.422,-0.891c-2.087,-1.304 -2.725,-4.078 -1.42,-6.165l11.413,-18.24l9.007,5.637Z" style="fill:#fab867;"/><path d="M282.287,600.135l-3.678,5.881l-13.345,-8.349l3.678,-5.882c1.933,-3.088 6.044,-4.035 9.133,-2.102l2.109,1.319c3.09,1.932 4.037,6.042 2.103,9.133" style="fill:#fff;"/><path d="M279.305,600.079l-2.866,4.58l-9.008,-5.636l2.866,-4.581c1.305,-2.085 4.08,-2.725 6.165,-1.42l1.423,0.891c2.086,1.305 2.725,4.08 1.42,6.166" style="fill:#fab867;"/><path d="M268.968,610.229c-0.197,0.314 -0.611,0.409 -0.923,0.212c-0.315,-0.196 -0.409,-0.609 -0.213,-0.921c0.195,-0.315 0.609,-0.409 0.922,-0.213c0.314,0.195 0.41,0.609 0.214,0.922" style="fill:#909faf;"/><path d="M265.986,608.364c-0.196,0.313 -0.61,0.409 -0.922,0.212c-0.315,-0.195 -0.41,-0.608 -0.213,-0.922c0.195,-0.314 0.609,-0.408 0.923,-0.211c0.313,0.195 0.409,0.607 0.212,0.921" style="fill:#909faf;"/><path d="M230.993,150.671c0.291,-0.194 0.684,-0.114 0.876,0.175c0.195,0.292 0.116,0.684 -0.175,0.878l-12.611,8.394c-1.698,1.129 -3.43,0.886 -4.731,-0.033c-0.495,-0.35 -0.925,-0.797 -1.26,-1.299c-0.334,-0.503 -0.58,-1.071 -0.713,-1.664c-0.346,-1.555 0.099,-3.246 1.798,-4.377l18.45,-12.28c1.448,-0.963 2.895,-0.804 3.97,-0.08c0.411,0.277 0.765,0.64 1.04,1.053c0.274,0.415 0.471,0.883 0.568,1.37c0.255,1.285 -0.16,2.701 -1.618,3.671l-16.145,10.745c-1.12,0.744 -2.238,0.626 -3.069,0.069c-0.316,-0.211 -0.588,-0.49 -0.8,-0.809c-0.212,-0.319 -0.362,-0.679 -0.436,-1.053c-0.193,-0.994 0.132,-2.092 1.262,-2.844l10.576,-7.039c0.291,-0.193 0.683,-0.114 0.877,0.177c0.193,0.29 0.114,0.683 -0.176,0.876l-10.576,7.04c-0.638,0.424 -0.827,1.018 -0.724,1.546c0.041,0.216 0.127,0.421 0.246,0.599c0.119,0.181 0.274,0.338 0.453,0.458c0.435,0.292 1.04,0.344 1.666,-0.073l16.144,-10.746c0.966,-0.642 1.245,-1.553 1.083,-2.371c-0.064,-0.325 -0.196,-0.64 -0.38,-0.917c-0.185,-0.279 -0.422,-0.522 -0.696,-0.706c-0.679,-0.458 -1.61,-0.548 -2.565,0.088l-18.451,12.279c-1.191,0.795 -1.507,1.973 -1.266,3.051c0.096,0.432 0.282,0.853 0.536,1.236c0.253,0.381 0.572,0.715 0.932,0.97c0.903,0.638 2.112,0.803 3.304,0.009l12.61,-8.393Z" style="fill:#fff;fill-rule:nonzero;"/><path d="M563.56,296.189l65.609,42.07l-24.433,38.1l-65.607,-42.069l24.431,-38.101Z" style="fill:#fff;"/><path d="M577.799,320.398l5.097,3.267l-1.939,3.024l-5.096,-3.267l1.938,-3.024Z" style="fill:#ccc;"/><path d="M584.514,324.703l9.19,5.893l-1.94,3.023l-9.188,-5.893l1.938,-3.023Z" style="fill:#ccc;"/><path d="M595.158,331.529l5.151,3.303l-1.939,3.024l-5.151,-3.303l1.939,-3.024Z" style="fill:#ccc;"/><path d="M584.273,346.272l1.733,1.111l-1.15,1.792l-1.733,-1.111l1.15,-1.792Z" style="fill:#ccc;"/><path d="M587.119,348.097l4.079,2.615l-1.151,1.792l-4.077,-2.615l1.149,-1.792Z" style="fill:#ccc;"/><path d="M592.242,351.382l1.734,1.112l-1.15,1.792l-1.733,-1.112l1.149,-1.792Z" style="fill:#ccc;"/><path d="M595.089,353.207l4.078,2.615l-1.15,1.791l-4.077,-2.614l1.149,-1.792Z" style="fill:#ccc;"/><path d="M571.77,330.719l4.59,2.943l-1.15,1.791l-4.589,-2.943l1.149,-1.791Z" style="fill:#ccc;"/><path d="M577.503,334.395l1.922,1.232l-1.149,1.792l-1.921,-1.233l1.148,-1.791Z" style="fill:#ccc;"/><path d="M580.228,336.141l1.921,1.233l-1.149,1.792l-1.92,-1.232l1.148,-1.793Z" style="fill:#ccc;"/><path d="M583.067,337.962l4.589,2.943l-1.148,1.792l-4.591,-2.943l1.15,-1.792Z" style="fill:#ccc;"/><path d="M588.8,341.637l1.921,1.233l-1.149,1.791l-1.921,-1.232l1.149,-1.792Z" style="fill:#ccc;"/><path d="M591.525,343.385l1.922,1.233l-1.15,1.791l-1.922,-1.232l1.15,-1.792Z" style="fill:#ccc;"/><path d="M559.201,330.195l5.124,3.286l-1.149,1.792l-5.124,-3.286l1.149,-1.792Z" style="fill:#ccc;"/><path d="M565.602,334.299l2.145,1.377l-1.147,1.791l-2.147,-1.376l1.149,-1.792Z" style="fill:#ccc;"/><path d="M568.644,336.251l2.146,1.376l-1.15,1.792l-2.145,-1.377l1.149,-1.791Z" style="fill:#ccc;"/><path d="M571.814,338.283l5.124,3.285l-1.149,1.793l-5.124,-3.286l1.149,-1.792Z" style="fill:#ccc;"/><path d="M578.214,342.387l2.146,1.377l-1.148,1.791l-2.146,-1.375l1.148,-1.793Z" style="fill:#ccc;"/><path d="M581.258,344.338l2.145,1.377l-1.15,1.791l-2.145,-1.376l1.15,-1.792Z" style="fill:#ccc;"/><path d="M562.299,336.981l-2.184,-1.4l-1.148,1.792l2.184,1.401l1.148,-1.793Z" style="fill:#ccc;"/><path d="M593.89,357.238l-6.457,-4.14l-1.15,1.792l6.458,4.141l1.149,-1.793Z" style="fill:#ccc;"/><path d="M585.823,352.067l-2.703,-1.734l-1.15,1.792l2.704,1.734l1.149,-1.792Z" style="fill:#ccc;"/><path d="M581.991,349.608l-2.703,-1.734l-1.151,1.792l2.705,1.734l1.149,-1.792Z" style="fill:#ccc;"/><path d="M577.997,347.048l-6.457,-4.141l-1.15,1.792l6.459,4.141l1.148,-1.792Z" style="fill:#ccc;"/><path d="M569.931,341.876l-2.704,-1.734l-1.148,1.792l2.703,1.734l1.149,-1.792Z" style="fill:#ccc;"/><path d="M566.099,339.418l-2.704,-1.734l-1.15,1.792l2.704,1.734l1.15,-1.792Z" style="fill:#ccc;"/><path d="M309.172,534.192l55.762,-0.367l0.01,1.461l-55.763,0.367l-0.009,-1.461Z" style="fill:#fff;"/><path d="M309.213,540.359l55.762,-0.368l0.01,1.462l-55.763,0.365l-0.009,-1.459Z" style="fill:#fff;"/><path d="M309.253,546.525l55.763,-0.367l0.009,1.461l-55.762,0.366l-0.01,-1.46Z" style="fill:#fff;"/><path d="M309.294,552.692l55.762,-0.368l0.011,1.462l-55.764,0.366l-0.009,-1.46Z" style="fill:#fff;"/><path d="M309.335,558.858l55.761,-0.366l0.01,1.458l-55.762,0.369l-0.01,-1.461Z" style="fill:#fff;"/><path d="M309.375,565.025l55.763,-0.368l0.009,1.461l-55.762,0.366l-0.01,-1.459Z" style="fill:#fff;"/><path d="M309.416,571.19l55.762,-0.366l0.009,1.461l-55.762,0.366l-0.01,-1.461Z" style="fill:#fff;"/><path d="M309.456,577.357l55.763,-0.367l0.009,1.461l-55.763,0.367l-0.009,-1.461Z" style="fill:#fff;"/><path d="M309.497,583.523l55.762,-0.366l0.01,1.46l-55.762,0.368l-0.01,-1.462Z" style="fill:#fff;"/><path d="M309.537,589.691l55.763,-0.369l0.01,1.462l-55.763,0.368l-0.01,-1.461Z" style="fill:#fff;"/><path d="M309.578,595.856l55.763,-0.367l0.009,1.461l-55.762,0.367l-0.01,-1.461Z" style="fill:#fff;"/><path d="M309.618,602.023l55.763,-0.367l0.01,1.461l-55.763,0.368l-0.01,-1.462Z" style="fill:#fff;"/><path d="M309.659,608.189l55.763,-0.367l0.009,1.461l-55.761,0.367l-0.011,-1.461Z" style="fill:#fff;"/><path d="M309.7,614.356l55.762,-0.367l0.01,1.461l-55.763,0.367l-0.009,-1.461Z" style="fill:#fff;"/><path d="M309.74,620.522l55.763,-0.367l0.009,1.46l-55.762,0.367l-0.01,-1.46Z" style="fill:#fff;"/><path d="M309.781,626.689l55.762,-0.367l0.01,1.46l-55.762,0.367l-0.01,-1.46Z" style="fill:#fff;"/><path d="M302.755,521.961l10.532,-0.07l-1.844,5.08c-0.215,-0.079 -0.448,-0.12 -0.691,-0.119c-1.095,0.007 -1.979,0.903 -1.971,1.999c0.005,0.852 0.548,1.577 1.307,1.852l-7.145,19.673l-0.188,-28.415ZM313.287,521.891l7.502,-0.049l-1.845,5.08c-0.216,-0.078 -0.448,-0.121 -0.691,-0.119c-1.096,0.007 -1.979,0.901 -1.972,1.998c0.006,0.853 0.549,1.578 1.307,1.852l-14.513,39.956l-0.132,-20.233l7.145,-19.673c0.214,0.079 0.448,0.12 0.691,0.118c1.096,-0.006 1.978,-0.901 1.971,-1.998c-0.006,-0.852 -0.549,-1.577 -1.307,-1.852l1.844,-5.08ZM320.789,521.842l7.501,-0.049l-1.845,5.079c-0.216,-0.078 -0.449,-0.12 -0.691,-0.118c-1.097,0.006 -1.979,0.901 -1.972,1.998c0.006,0.853 0.55,1.576 1.307,1.852l-21.88,60.242l-0.134,-20.237l14.513,-39.956c0.216,0.078 0.448,0.121 0.691,0.119c1.096,-0.007 1.978,-0.901 1.971,-1.997c-0.005,-0.855 -0.549,-1.578 -1.306,-1.853l1.845,-5.08ZM328.29,521.793l7.5,-0.05l-1.845,5.08c-0.215,-0.078 -0.448,-0.121 -0.69,-0.12c-1.097,0.008 -1.98,0.902 -1.972,2c0.005,0.853 0.549,1.577 1.307,1.853l-29.248,80.524l-0.133,-20.234l21.88,-60.242c0.216,0.078 0.449,0.121 0.691,0.119c1.096,-0.007 1.979,-0.903 1.972,-1.998c-0.005,-0.852 -0.549,-1.577 -1.307,-1.853l1.845,-5.079ZM335.79,521.743l7.501,-0.049l-1.846,5.079c-0.214,-0.078 -0.447,-0.12 -0.69,-0.118c-1.096,0.007 -1.979,0.902 -1.972,1.998c0.006,0.853 0.55,1.576 1.307,1.854l-36.615,100.809l-0.133,-20.236l29.248,-80.524c0.215,0.077 0.447,0.119 0.69,0.117c1.097,-0.008 1.979,-0.901 1.973,-1.997c-0.006,-0.854 -0.549,-1.578 -1.308,-1.853l1.845,-5.08ZM343.291,521.694l7.5,-0.05l-1.844,5.08c-0.215,-0.079 -0.449,-0.121 -0.691,-0.119c-1.096,0.008 -1.979,0.902 -1.972,1.998c0.006,0.854 0.549,1.577 1.308,1.854l-38.089,104.867l-6.001,0.04l-0.027,-4.048l36.615,-100.809c0.216,0.077 0.449,0.119 0.692,0.118c1.096,-0.008 1.977,-0.903 1.971,-1.999c-0.006,-0.852 -0.549,-1.577 -1.308,-1.853l1.846,-5.079ZM350.791,521.644l7.501,-0.049l-1.844,5.079c-0.216,-0.078 -0.449,-0.12 -0.692,-0.118c-1.096,0.007 -1.978,0.901 -1.971,1.997c0.005,0.854 0.549,1.578 1.307,1.853l-38.088,104.869l-7.501,0.049l38.089,-104.867c0.215,0.078 0.447,0.12 0.69,0.118c1.095,-0.007 1.978,-0.902 1.971,-1.999c-0.005,-0.852 -0.549,-1.576 -1.306,-1.852l1.844,-5.08ZM358.292,521.595l7.501,-0.049l-1.845,5.08c-0.216,-0.08 -0.448,-0.121 -0.691,-0.12c-1.096,0.008 -1.979,0.903 -1.971,1.999c0.005,0.852 0.549,1.577 1.306,1.853l-38.088,104.868l-7.5,0.049l38.088,-104.869c0.216,0.078 0.447,0.121 0.69,0.12c1.097,-0.008 1.98,-0.903 1.973,-1.998c-0.006,-0.854 -0.549,-1.578 -1.307,-1.854l1.844,-5.079ZM365.793,521.546l5.396,-0.036l0.747,113.404l-47.432,0.312l38.088,-104.868c0.216,0.078 0.449,0.12 0.691,0.118c1.096,-0.007 1.979,-0.902 1.972,-1.998c-0.006,-0.853 -0.549,-1.578 -1.307,-1.852l1.845,-5.08Z" style="fill:#36485c;"/><path d="M304.431,523.615l8.25,-0.055l-1.237,3.411c-0.216,-0.079 -0.449,-0.121 -0.692,-0.119c-1.095,0.007 -1.978,0.903 -1.971,1.998c0.005,0.853 0.548,1.578 1.307,1.853l-5.51,15.171l-0.147,-22.259ZM312.681,523.56l7.502,-0.05l-1.238,3.412c-0.216,-0.078 -0.449,-0.121 -0.692,-0.119c-1.096,0.007 -1.979,0.901 -1.972,1.998c0.006,0.853 0.549,1.578 1.307,1.852l-12.877,35.456l-0.133,-20.235l5.51,-15.171c0.215,0.079 0.448,0.12 0.691,0.118c1.096,-0.006 1.979,-0.901 1.971,-1.998c-0.006,-0.852 -0.549,-1.577 -1.306,-1.852l1.237,-3.411ZM320.183,523.51l7.501,-0.049l-1.239,3.411c-0.216,-0.078 -0.449,-0.12 -0.691,-0.118c-1.097,0.006 -1.979,0.901 -1.972,1.998c0.006,0.853 0.55,1.576 1.307,1.852l-20.244,55.742l-0.134,-20.237l12.877,-35.456c0.216,0.078 0.448,0.121 0.691,0.119c1.096,-0.007 1.979,-0.901 1.971,-1.997c-0.005,-0.855 -0.549,-1.578 -1.305,-1.853l1.238,-3.412ZM327.684,523.461l7.5,-0.049l-1.239,3.411c-0.215,-0.078 -0.448,-0.121 -0.69,-0.12c-1.097,0.008 -1.98,0.902 -1.972,2c0.006,0.853 0.549,1.577 1.307,1.853l-27.613,76.023l-0.132,-20.233l20.244,-55.742c0.216,0.078 0.449,0.12 0.691,0.119c1.096,-0.007 1.979,-0.903 1.972,-1.998c-0.005,-0.852 -0.549,-1.577 -1.307,-1.853l1.239,-3.411ZM335.184,523.412l7.501,-0.05l-1.239,3.411c-0.215,-0.079 -0.448,-0.12 -0.691,-0.118c-1.096,0.007 -1.979,0.902 -1.972,1.998c0.006,0.853 0.55,1.576 1.307,1.853l-34.979,96.308l-0.134,-20.235l27.613,-76.023c0.215,0.076 0.448,0.119 0.69,0.117c1.097,-0.008 1.979,-0.901 1.973,-1.997c-0.006,-0.854 -0.549,-1.578 -1.308,-1.853l1.239,-3.411ZM342.685,523.362l7.5,-0.048l-1.238,3.41c-0.215,-0.079 -0.449,-0.121 -0.691,-0.119c-1.096,0.008 -1.979,0.901 -1.972,1.998c0.006,0.854 0.549,1.577 1.308,1.854l-37.484,103.198l-4.952,0.033l-0.045,-6.874l34.979,-96.308c0.216,0.078 0.449,0.12 0.692,0.119c1.096,-0.008 1.977,-0.903 1.971,-1.999c-0.006,-0.852 -0.549,-1.577 -1.307,-1.853l1.239,-3.411ZM350.185,523.314l7.502,-0.051l-1.239,3.411c-0.216,-0.078 -0.449,-0.12 -0.691,-0.118c-1.097,0.007 -1.979,0.901 -1.972,1.997c0.005,0.854 0.549,1.578 1.307,1.853l-37.482,103.199l-7.502,0.05l37.484,-103.198c0.215,0.078 0.447,0.12 0.69,0.118c1.095,-0.007 1.978,-0.902 1.971,-1.999c-0.005,-0.852 -0.549,-1.576 -1.306,-1.852l1.238,-3.41ZM357.687,523.263l7.5,-0.048l-1.239,3.411c-0.216,-0.08 -0.448,-0.121 -0.691,-0.12c-1.096,0.008 -1.979,0.903 -1.971,1.999c0.005,0.852 0.549,1.577 1.306,1.853l-37.482,103.198l-7.5,0.049l37.482,-103.199c0.216,0.078 0.448,0.121 0.69,0.12c1.097,-0.008 1.98,-0.903 1.973,-1.998c-0.006,-0.854 -0.549,-1.578 -1.307,-1.854l1.239,-3.411ZM365.187,523.215l4.349,-0.029l0.724,110.073l-45.15,0.297l37.482,-103.198c0.216,0.078 0.449,0.12 0.691,0.117c1.096,-0.006 1.979,-0.901 1.972,-1.997c-0.006,-0.853 -0.549,-1.578 -1.307,-1.852l1.239,-3.411Z" style="fill:#fff;"/><path d="M304.542,540.488l65.105,-0.428l0.005,0.85l-65.104,0.428l-0.006,-0.85Z" style="fill:#bdcad9;"/><path d="M304.584,546.951l65.106,-0.429l0.004,0.852l-65.104,0.428l-0.006,-0.851Z" style="fill:#bdcad9;"/><path d="M304.627,553.414l65.106,-0.429l0.004,0.852l-65.104,0.428l-0.006,-0.851Z" style="fill:#bdcad9;"/><path d="M304.67,559.877l65.104,-0.429l0.005,0.852l-65.104,0.429l-0.005,-0.852Z" style="fill:#bdcad9;"/><path d="M304.713,566.339l65.104,-0.427l0.005,0.85l-65.104,0.429l-0.005,-0.852Z" style="fill:#bdcad9;"/><path d="M304.755,572.803l65.104,-0.43l0.006,0.852l-65.104,0.429l-0.006,-0.851Z" style="fill:#bdcad9;"/><path d="M304.798,579.265l65.104,-0.429l0.006,0.851l-65.105,0.43l-0.005,-0.852Z" style="fill:#bdcad9;"/><path d="M304.841,585.728l65.104,-0.428l0.005,0.851l-65.104,0.429l-0.005,-0.852Z" style="fill:#bdcad9;"/><path d="M304.883,592.192l65.105,-0.429l0.005,0.851l-65.104,0.429l-0.006,-0.851Z" style="fill:#bdcad9;"/><path d="M304.926,598.654l65.103,-0.428l0.006,0.85l-65.104,0.43l-0.005,-0.852Z" style="fill:#bdcad9;"/><path d="M304.968,605.118l65.104,-0.429l0.006,0.851l-65.105,0.429l-0.005,-0.851Z" style="fill:#bdcad9;"/><path d="M305.011,611.58l65.104,-0.428l0.005,0.85l-65.104,0.43l-0.005,-0.852Z" style="fill:#bdcad9;"/><path d="M305.053,618.043l65.104,-0.428l0.006,0.851l-65.104,0.428l-0.006,-0.851Z" style="fill:#bdcad9;"/><path d="M305.096,624.506l65.103,-0.428l0.006,0.85l-65.104,0.43l-0.005,-0.852Z" style="fill:#bdcad9;"/><path d="M318.197,518.317c0.714,-0.005 1.298,0.574 1.304,1.287l0.057,8.823c0.005,0.713 -0.572,1.297 -1.285,1.303c-0.712,0.005 -1.299,-0.574 -1.304,-1.285l-0.058,-8.824c-0.005,-0.713 0.575,-1.3 1.286,-1.304" style="fill:#f48c85;"/><path d="M325.698,518.268c0.713,-0.006 1.298,0.573 1.303,1.287l0.057,8.822c0.006,0.712 -0.572,1.298 -1.285,1.303c-0.712,0.006 -1.298,-0.574 -1.303,-1.286l-0.058,-8.823c-0.006,-0.713 0.574,-1.298 1.286,-1.303" style="fill:#f48c85;"/><path d="M333.199,518.219c0.712,-0.006 1.298,0.573 1.302,1.286l0.059,8.823c0.004,0.713 -0.573,1.297 -1.286,1.304c-0.712,0.005 -1.299,-0.575 -1.304,-1.287l-0.058,-8.824c-0.005,-0.712 0.575,-1.299 1.287,-1.302" style="fill:#f48c85;"/><path d="M340.699,518.169c0.714,-0.006 1.299,0.573 1.303,1.286l0.058,8.823c0.004,0.712 -0.572,1.298 -1.286,1.303c-0.711,0.006 -1.299,-0.573 -1.303,-1.286l-0.059,-8.823c-0.004,-0.713 0.575,-1.298 1.287,-1.303" style="fill:#f48c85;"/><path d="M348.199,518.12c0.714,-0.006 1.299,0.573 1.303,1.286l0.059,8.823c0.004,0.713 -0.574,1.3 -1.286,1.304c-0.712,0.005 -1.299,-0.575 -1.304,-1.287l-0.058,-8.824c-0.004,-0.712 0.575,-1.298 1.286,-1.302" style="fill:#f48c85;"/><path d="M355.7,518.069c0.713,-0.004 1.298,0.575 1.304,1.288l0.057,8.821c0.005,0.714 -0.573,1.299 -1.286,1.305c-0.711,0.005 -1.298,-0.575 -1.304,-1.287l-0.058,-8.822c-0.004,-0.715 0.575,-1.299 1.287,-1.305" style="fill:#f48c85;"/><path d="M363.2,518.021c0.714,-0.005 1.299,0.574 1.303,1.286l0.059,8.823c0.005,0.713 -0.573,1.298 -1.287,1.304c-0.711,0.005 -1.298,-0.575 -1.303,-1.287l-0.058,-8.823c-0.005,-0.713 0.575,-1.299 1.286,-1.303" style="fill:#f48c85;"/><path d="M310.697,518.366c0.713,-0.005 1.298,0.574 1.303,1.287l0.058,8.822c0.005,0.713 -0.573,1.299 -1.286,1.304c-0.712,0.006 -1.299,-0.574 -1.303,-1.286l-0.059,-8.824c-0.004,-0.712 0.575,-1.297 1.287,-1.303" style="fill:#f48c85;"/><path d="M354.806,548.363l1.045,-0.75l0.022,0.01l0.021,0.01l0.02,0.011l0.018,0.012l0.016,0.012l0.015,0.013l0.012,0.014l0.012,0.015l0.009,0.013l0.008,0.016l0.006,0.016l0.005,0.018l0.003,0.018l0.002,0.017l0,0.016l-0.001,0.021l-0.004,0.018l-0.005,0.018l-0.006,0.019l-0.008,0.02l-0.009,0.021l-0.011,0.018l-0.013,0.021l-0.014,0.02l-0.016,0.02l-0.016,0.02l-0.018,0.02l-0.021,0.02l-0.022,0.019l-0.023,0.02l-0.025,0.02l-0.026,0.02l-0.027,0.019l-0.029,0.018l-0.029,0.018l-0.03,0.017l-0.031,0.016l-0.03,0.015l-0.031,0.016l-0.032,0.013l-0.033,0.013l-0.032,0.012l-0.032,0.011l-0.033,0.013l-0.033,0.009l-0.033,0.009l-0.034,0.008l-0.034,0.007l-0.032,0.006l-0.034,0.006l-0.031,0.005l-0.033,0.004l-0.032,0.003l-0.031,0.002l-0.032,0l-0.03,0l-0.03,-0.001l-0.03,-0.002l-0.028,-0.003l-0.028,-0.005l-0.027,-0.004l-0.026,-0.006l-0.025,-0.006l-0.024,-0.009ZM355.851,547.613l-1.045,0.75l-0.167,-0.166l-0.004,-0.067l0.006,-0.037l0.007,-0.029l0.007,-0.028l0.009,-0.027l0.01,-0.029l0.01,-0.027l0.012,-0.033l0.013,-0.035l0.014,-0.034l0.013,-0.035l0.015,-0.039l0.016,-0.039l0.016,-0.041l0.016,-0.04l0.018,-0.043l0.017,-0.042l0.017,-0.042l0.017,-0.044l0.018,-0.043l0.017,-0.042l0.017,-0.04l0.017,-0.044l0.015,-0.039l0.016,-0.04l0.015,-0.037l0.014,-0.036l0.013,-0.035l0.012,-0.032l0.011,-0.029l0.009,-0.027l1.356,-0.182l-0.012,0.031l-0.013,0.036l-0.014,0.037l-0.014,0.037l-0.015,0.037l-0.016,0.042l-0.016,0.04l-0.017,0.042l-0.016,0.041l-0.017,0.044l-0.018,0.043l-0.018,0.043l-0.017,0.043l-0.017,0.043l-0.017,0.042l-0.018,0.042l-0.015,0.039l-0.016,0.04l-0.015,0.037l-0.014,0.035l-0.013,0.035l-0.013,0.032l-0.011,0.028l-0.009,0.026l-0.009,0.023l-0.006,0.02l-0.005,0.014l-0.003,0.009l0.003,-0.017l-0.004,-0.053l-0.162,-0.158ZM356.079,547.182l-0.719,-0.462l0.031,-0.018l0.032,-0.016l0.031,-0.016l0.033,-0.015l0.032,-0.013l0.033,-0.014l0.033,-0.011l0.034,-0.012l0.033,-0.01l0.033,-0.01l0.034,-0.009l0.033,-0.007l0.034,-0.007l0.033,-0.006l0.033,-0.006l0.031,-0.004l0.032,-0.003l0.032,-0.003l0.031,-0.001l0.031,0l0.03,0.001l0.029,0.001l0.028,0.002l0.029,0.004l0.026,0.005l0.026,0.005l0.025,0.007l0.025,0.006l0.022,0.009l0.023,0.009l0.019,0.011l0.02,0.012l0.018,0.012l0.015,0.011l0.015,0.015l0.012,0.014l0.011,0.017l0.009,0.013l0.007,0.018l0.006,0.015l0.004,0.018l0.003,0.017l0.001,0.019l-0.001,0.018l-0.003,0.018l-0.004,0.02l-0.005,0.019l-0.007,0.019l-0.009,0.02l-0.01,0.018l-0.011,0.021l-0.014,0.019l-0.013,0.02l-0.018,0.021l-0.017,0.018l-0.019,0.021l-0.021,0.02l-0.021,0.019l-0.024,0.02l-0.024,0.019l-0.026,0.018l-0.028,0.018l-0.027,0.018l-0.031,0.018ZM356.398,546.86l-1.356,0.182l1.037,0.14l-0.104,0.06l-0.123,0.068l-0.138,0.075l-0.153,0.083l-0.168,0.089l-0.183,0.094l-0.196,0.101l-0.208,0.103l-0.217,0.107l-0.228,0.11l-0.237,0.111l-0.244,0.111l-0.252,0.113l-0.257,0.112l-0.261,0.109l-0.266,0.105l-0.268,0.105l-0.271,0.099l-0.273,0.093l-0.274,0.09l-0.273,0.081l-0.273,0.074l-0.273,0.064l-0.271,0.054l-0.27,0.044l-0.265,0.028l-0.261,0.013l-0.252,-0.006l-0.239,-0.025l-0.222,-0.048l-0.198,-0.072l-0.171,-0.093l1.191,-0.675l0.07,0.038l0.077,0.028l0.084,0.017l0.095,0.011l0.109,0.002l0.124,-0.006l0.141,-0.016l0.156,-0.025l0.172,-0.034l0.184,-0.043l0.197,-0.054l0.206,-0.062l0.214,-0.068l0.22,-0.076l0.225,-0.084l0.227,-0.087l0.229,-0.093l0.228,-0.095l0.227,-0.097l0.225,-0.101l0.219,-0.1l0.214,-0.101l0.207,-0.1l0.199,-0.097l0.188,-0.094l0.179,-0.091l0.166,-0.087l0.153,-0.08l0.138,-0.074l0.12,-0.065l0.104,-0.058l0.082,-0.047l1.038,0.14ZM348.706,548.994l1.359,-0.196l-0.008,0.021l-0.009,0.021l-0.01,0.02l-0.013,0.02l-0.014,0.021l-0.015,0.02l-0.017,0.02l-0.017,0.02l-0.02,0.019l-0.021,0.02l-0.021,0.02l-0.024,0.018l-0.023,0.019l-0.025,0.018l-0.027,0.017l-0.026,0.017l-0.028,0.017l-0.029,0.018l-0.03,0.014l-0.03,0.015l-0.031,0.015l-0.031,0.013l-0.032,0.014l-0.033,0.011l-0.033,0.012l-0.034,0.011l-0.034,0.011l-0.034,0.007l-0.034,0.009l-0.035,0.009l-0.036,0.006l-0.035,0.006l-0.034,0.003l-0.034,0.003l-0.033,0.003l-0.033,0.003l-0.032,-0.003l-0.03,0.001l-0.029,-0.002l-0.028,-0.003l-0.028,-0.003l-0.027,-0.004l-0.025,-0.007l-0.024,-0.006l-0.024,-0.007l-0.021,-0.009l-0.02,-0.008l-0.02,-0.009l-0.018,-0.012l-0.017,-0.012l-0.016,-0.012l-0.013,-0.013l-0.012,-0.014l-0.011,-0.014l-0.009,-0.014l-0.009,-0.016l-0.006,-0.016l-0.005,-0.018l-0.003,-0.017l-0.001,-0.019l0,-0.018l0.003,-0.019l0.003,-0.021l0.006,-0.02ZM349.981,548.559l-1.191,0.675l-0.084,-0.24l0.05,-0.154l0.049,-0.146l0.047,-0.135l0.046,-0.127l0.045,-0.119l0.044,-0.114l0.043,-0.105l0.043,-0.101l0.045,-0.096l0.044,-0.091l0.045,-0.087l0.047,-0.083l0.049,-0.081l0.049,-0.079l0.05,-0.074l0.054,-0.075l0.056,-0.073l0.057,-0.071l0.058,-0.072l0.06,-0.069l0.061,-0.068l0.063,-0.07l0.066,-0.07l0.067,-0.073l0.069,-0.074l0.073,-0.079l0.076,-0.082l0.08,-0.086l0.083,-0.093l0.088,-0.098l0.095,-0.106l0.098,-0.113l1.188,0.09l-0.103,0.12l-0.101,0.112l-0.094,0.105l-0.088,0.098l-0.085,0.092l-0.079,0.084l-0.074,0.081l-0.068,0.074l-0.065,0.07l-0.06,0.064l-0.054,0.06l-0.052,0.058l-0.047,0.056l-0.045,0.053l-0.041,0.051l-0.039,0.052l-0.037,0.051l-0.036,0.054l-0.036,0.057l-0.036,0.06l-0.036,0.063l-0.036,0.069l-0.036,0.075l-0.038,0.081l-0.037,0.087l-0.039,0.096l-0.041,0.103l-0.042,0.11l-0.043,0.123l-0.045,0.129l-0.047,0.14l-0.049,0.15l-0.084,-0.239ZM351.776,546.14l-1.152,-0.13l0.021,-0.021l0.021,-0.021l0.023,-0.02l0.024,-0.019l0.026,-0.019l0.025,-0.019l0.027,-0.017l0.028,-0.018l0.029,-0.017l0.029,-0.016l0.03,-0.015l0.029,-0.015l0.032,-0.015l0.031,-0.012l0.032,-0.012l0.033,-0.012l0.033,-0.013l0.033,-0.009l0.033,-0.01l0.033,-0.009l0.033,-0.009l0.034,-0.007l0.033,-0.005l0.033,-0.006l0.033,-0.004l0.033,-0.004l0.033,-0.002l0.032,-0.001l0.032,-0.001l0.031,0.001l0.03,0.002l0.031,0.004l0.029,0.003l0.027,0.005l0.027,0.005l0.025,0.008l0.023,0.007l0.022,0.009l0.021,0.009l0.02,0.01l0.018,0.011l0.015,0.013l0.016,0.011l0.013,0.013l0.012,0.015l0.01,0.014l0.009,0.015l0.007,0.017l0.006,0.016l0.004,0.016l0.004,0.017l0,0.02l0,0.016l-0.003,0.02l-0.003,0.018l-0.006,0.019l-0.007,0.021l-0.008,0.02l-0.011,0.019l-0.013,0.02l-0.013,0.02l-0.015,0.022l-0.018,0.022l-0.019,0.02ZM351.794,546.12l-1.188,-0.09l1.17,0.11l-0.111,0.109l-0.126,0.108l-0.145,0.116l-0.162,0.124l-0.184,0.133l-0.203,0.144l-0.22,0.153l-0.238,0.158l-0.254,0.166l-0.268,0.172l-0.28,0.174l-0.294,0.178l-0.301,0.18l-0.312,0.18l-0.319,0.178l-0.324,0.177l-0.329,0.173l-0.333,0.171l-0.335,0.162l-0.336,0.156l-0.336,0.147l-0.336,0.139l-0.335,0.128l-0.334,0.115l-0.332,0.101l-0.331,0.085l-0.33,0.068l-0.324,0.043l-0.317,0.02l-0.301,-0.015l-0.276,-0.047l-0.241,-0.082l1.091,-0.729l0.086,0.028l0.091,0.016l0.104,0.004l0.128,-0.007l0.151,-0.021l0.177,-0.036l0.201,-0.053l0.225,-0.068l0.242,-0.084l0.257,-0.097l0.269,-0.112l0.282,-0.124l0.287,-0.133l0.292,-0.142l0.295,-0.15l0.296,-0.155l0.296,-0.162l0.291,-0.164l0.286,-0.165l0.279,-0.165l0.27,-0.164l0.261,-0.163l0.246,-0.157l0.234,-0.153l0.216,-0.145l0.199,-0.137l0.178,-0.126l0.156,-0.114l0.131,-0.099l0.101,-0.081l0.069,-0.06l0.028,-0.026l1.17,0.11ZM342.763,549.771l1.383,-0.363l0,0.02l-0.001,0.019l-0.004,0.019l-0.005,0.02l-0.006,0.021l-0.009,0.019l-0.01,0.021l-0.011,0.019l-0.013,0.02l-0.016,0.02l-0.015,0.019l-0.016,0.021l-0.02,0.019l-0.019,0.02l-0.021,0.019l-0.022,0.019l-0.024,0.018l-0.024,0.018l-0.026,0.019l-0.026,0.017l-0.027,0.017l-0.029,0.016l-0.029,0.016l-0.03,0.015l-0.032,0.016l-0.031,0.013l-0.033,0.014l-0.033,0.013l-0.035,0.013l-0.033,0.011l-0.036,0.01l-0.035,0.011l-0.036,0.008l-0.035,0.007l-0.035,0.007l-0.034,0.006l-0.033,0.005l-0.034,0.003l-0.031,0.004l-0.033,0l-0.03,0.002l-0.03,-0.002l-0.03,-0.001l-0.029,-0.001l-0.028,-0.005l-0.027,-0.003l-0.025,-0.006l-0.025,-0.005l-0.022,-0.007l-0.024,-0.007l-0.021,-0.008l-0.02,-0.012l-0.019,-0.008l-0.017,-0.012l-0.016,-0.013l-0.015,-0.012l-0.014,-0.013l-0.011,-0.014l-0.011,-0.015l-0.009,-0.016l-0.006,-0.018l-0.006,-0.016l-0.003,-0.019l-0.003,-0.018ZM344,549.225l-1.091,0.729l-0.146,-0.183l-0.002,-0.107l0.005,-0.112l0.011,-0.12l0.016,-0.128l0.022,-0.135l0.026,-0.139l0.033,-0.145l0.036,-0.151l0.039,-0.155l0.045,-0.158l0.048,-0.162l0.051,-0.162l0.057,-0.165l0.057,-0.167l0.062,-0.166l0.064,-0.166l0.066,-0.164l0.069,-0.163l0.072,-0.161l0.072,-0.157l0.076,-0.155l0.076,-0.149l0.078,-0.145l0.081,-0.14l0.082,-0.133l0.084,-0.129l0.087,-0.123l0.09,-0.119l0.098,-0.113l0.107,-0.11l0.125,-0.111l0.158,-0.115l0.827,0.396l0.014,-0.009l-0.023,0.02l-0.04,0.042l-0.053,0.062l-0.061,0.078l-0.064,0.091l-0.067,0.103l-0.069,0.112l-0.07,0.122l-0.069,0.129l-0.07,0.136l-0.068,0.142l-0.068,0.146l-0.067,0.15l-0.065,0.153l-0.062,0.156l-0.061,0.156l-0.058,0.158l-0.055,0.158l-0.053,0.155l-0.048,0.156l-0.047,0.152l-0.041,0.148l-0.038,0.146l-0.033,0.139l-0.03,0.135l-0.023,0.127l-0.02,0.12l-0.014,0.111l-0.009,0.101l-0.003,0.092l0,0.079l-0.146,-0.183ZM345.857,545.305l-1.378,0.277l0.003,-0.019l0.006,-0.022l0.007,-0.019l0.009,-0.02l0.011,-0.021l0.012,-0.021l0.013,-0.019l0.016,-0.02l0.016,-0.02l0.017,-0.021l0.019,-0.019l0.021,-0.019l0.021,-0.02l0.023,-0.018l0.024,-0.019l0.025,-0.017l0.025,-0.018l0.027,-0.017l0.028,-0.016l0.029,-0.017l0.029,-0.016l0.03,-0.015l0.032,-0.014l0.031,-0.014l0.033,-0.014l0.033,-0.012l0.033,-0.012l0.034,-0.011l0.034,-0.01l0.036,-0.01l0.034,-0.008l0.036,-0.008l0.036,-0.007l0.034,-0.006l0.035,-0.003l0.033,-0.005l0.033,-0.002l0.031,0l0.032,-0.001l0.03,0.001l0.029,0.001l0.028,0.003l0.028,0.003l0.027,0.005l0.05,0.012l0.022,0.007l0.023,0.006l0.02,0.01l0.019,0.011l0.019,0.01l0.017,0.011l0.015,0.013l0.015,0.012l0.012,0.014l0.021,0.03l0.008,0.015l0.007,0.017l0.005,0.017l0.003,0.017l0.001,0.019l0,0.019l-0.002,0.02ZM345.581,545.642l-0.827,-0.396l1.103,0.059l-0.113,0.212l-0.095,0.096l-0.1,0.092l-0.119,0.1l-0.141,0.116l-0.164,0.128l-0.184,0.142l-0.204,0.154l-0.223,0.165l-0.242,0.174l-0.258,0.181l-0.274,0.189l-0.287,0.194l-0.299,0.198l-0.311,0.201l-0.32,0.2l-0.329,0.202l-0.337,0.198l-0.342,0.194l-0.348,0.19l-0.351,0.186l-0.355,0.176l-0.358,0.167l-0.359,0.158l-0.36,0.144l-0.362,0.132l-0.363,0.116l-0.363,0.097l-0.363,0.075l-0.36,0.051l-0.35,0.021l-0.334,-0.01l0.729,-0.817l0.148,0.004l0.162,-0.01l0.182,-0.025l0.204,-0.043l0.225,-0.061l0.245,-0.079l0.262,-0.095l0.276,-0.111l0.288,-0.126l0.297,-0.139l0.303,-0.15l0.306,-0.162l0.309,-0.168l0.308,-0.176l0.306,-0.181l0.301,-0.183l0.297,-0.186l0.288,-0.186l0.279,-0.183l0.269,-0.181l0.256,-0.178l0.24,-0.169l0.225,-0.163l0.208,-0.152l0.188,-0.141l0.166,-0.129l0.143,-0.112l0.116,-0.095l0.087,-0.075l0.052,-0.046l0.002,-0.001l-0.077,0.157l1.102,0.06ZM336.599,549.818l1.308,-0.566l0.011,0.015l0.009,0.017l0.006,0.017l0.006,0.016l0.004,0.019l0.002,0.017l0,0.019l-0.001,0.018l-0.003,0.018l-0.005,0.021l-0.007,0.019l-0.008,0.019l-0.009,0.021l-0.011,0.018l-0.013,0.02l-0.013,0.019l-0.016,0.021l-0.016,0.02l-0.018,0.019l-0.019,0.019l-0.021,0.02l-0.023,0.018l-0.022,0.019l-0.025,0.019l-0.025,0.019l-0.027,0.018l-0.029,0.016l-0.028,0.018l-0.03,0.016l-0.033,0.017l-0.031,0.015l-0.034,0.015l-0.033,0.013l-0.034,0.014l-0.035,0.013l-0.034,0.011l-0.034,0.011l-0.035,0.009l-0.033,0.007l-0.034,0.009l-0.033,0.007l-0.034,0.005l-0.033,0.006l-0.031,0.002l-0.033,0.003l-0.032,0.001l-0.031,0.002l-0.029,-0.001l-0.03,-0.001l-0.029,-0.002l-0.027,-0.002l-0.027,-0.004l-0.026,-0.004l-0.026,-0.007l-0.025,-0.006l-0.021,-0.008l-0.022,-0.008l-0.021,-0.01l-0.02,-0.01l-0.018,-0.011l-0.017,-0.012l-0.016,-0.014l-0.014,-0.013l-0.012,-0.016ZM337.618,549.127l-0.729,0.817l-0.29,-0.126l-0.063,-0.095l-0.05,-0.102l-0.041,-0.106l-0.03,-0.113l-0.021,-0.115l-0.015,-0.12l-0.006,-0.124l0,-0.126l0.006,-0.13l0.012,-0.131l0.016,-0.136l0.021,-0.135l0.025,-0.138l0.029,-0.138l0.032,-0.138l0.036,-0.14l0.037,-0.139l0.039,-0.136l0.041,-0.137l0.042,-0.132l0.043,-0.132l0.044,-0.129l0.044,-0.126l0.044,-0.12l0.042,-0.118l0.041,-0.114l0.041,-0.107l0.037,-0.1l0.036,-0.096l0.033,-0.087l0.03,-0.081l0.025,-0.072l1.354,-0.18l-0.028,0.077l-0.031,0.084l-0.033,0.088l-0.036,0.096l-0.037,0.1l-0.04,0.106l-0.04,0.112l-0.042,0.112l-0.042,0.12l-0.042,0.12l-0.042,0.125l-0.041,0.126l-0.041,0.129l-0.038,0.127l-0.038,0.13l-0.036,0.129l-0.032,0.131l-0.029,0.128l-0.027,0.127l-0.023,0.124l-0.019,0.123l-0.015,0.119l-0.01,0.115l-0.005,0.112l0,0.106l0.005,0.102l0.011,0.096l0.017,0.087l0.021,0.081l0.028,0.075l0.032,0.063l0.037,0.057l-0.289,-0.125ZM337.827,546.294l0.037,-0.759l0.036,-0.007l0.036,-0.007l0.033,-0.005l0.034,-0.005l0.034,-0.003l0.032,-0.003l0.032,-0.002l0.061,0l0.029,0.002l0.029,0.003l0.028,0.003l0.027,0.003l0.025,0.006l0.024,0.007l0.024,0.006l0.023,0.008l0.04,0.018l0.018,0.011l0.017,0.012l0.017,0.011l0.014,0.012l0.014,0.015l0.01,0.014l0.011,0.015l0.008,0.016l0.007,0.017l0.005,0.016l0.004,0.019l0.001,0.018l0,0.019l-0.002,0.021l-0.003,0.019l-0.006,0.02l-0.007,0.021l-0.008,0.019l-0.011,0.02l-0.011,0.021l-0.013,0.02l-0.015,0.02l-0.016,0.02l-0.018,0.019l-0.018,0.02l-0.02,0.019l-0.021,0.02l-0.023,0.018l-0.023,0.018l-0.026,0.018l-0.024,0.018l-0.028,0.018l-0.028,0.017l-0.028,0.016l-0.03,0.016l-0.03,0.016l-0.03,0.013l-0.032,0.016l-0.033,0.012l-0.033,0.014l-0.034,0.011l-0.033,0.012l-0.036,0.01l-0.035,0.009l-0.035,0.009ZM338.523,545.825l-1.354,0.18l0.658,0.289l0.084,-0.025l-0.018,0.01l-0.086,0.047l-0.126,0.079l-0.16,0.107l-0.184,0.132l-0.205,0.149l-0.222,0.167l-0.239,0.183l-0.254,0.194l-0.268,0.205l-0.28,0.213l-0.293,0.22l-0.304,0.225l-0.315,0.227l-0.324,0.231l-0.336,0.229l-0.345,0.228l-0.352,0.225l-0.363,0.218l-0.371,0.214l-0.381,0.202l-0.389,0.193l-0.399,0.183l-0.408,0.165l-0.418,0.151l-0.425,0.13l-0.433,0.108l-0.435,0.081l-0.435,0.051l-0.43,0.02l-0.42,-0.013l0.706,-0.819l0.274,0.009l0.271,-0.013l0.271,-0.031l0.273,-0.053l0.28,-0.068l0.286,-0.088l0.294,-0.106l0.302,-0.122l0.307,-0.141l0.312,-0.155l0.315,-0.169l0.316,-0.181l0.316,-0.191l0.314,-0.2l0.312,-0.205l0.307,-0.211l0.303,-0.214l0.297,-0.215l0.29,-0.214l0.282,-0.214l0.275,-0.208l0.265,-0.202l0.255,-0.196l0.246,-0.188l0.236,-0.176l0.227,-0.167l0.218,-0.154l0.213,-0.144l0.212,-0.131l0.223,-0.124l0.253,-0.115l0.32,-0.102l0.659,0.29ZM327.982,550.904l1.327,-0.54l0.01,0.016l0.007,0.017l0.006,0.018l0.003,0.017l0.003,0.018l0,0.02l-0.001,0.017l-0.004,0.019l-0.004,0.021l-0.007,0.018l-0.008,0.02l-0.009,0.019l-0.011,0.019l-0.012,0.021l-0.013,0.019l-0.016,0.021l-0.017,0.019l-0.018,0.019l-0.019,0.02l-0.02,0.019l-0.022,0.02l-0.023,0.018l-0.024,0.018l-0.026,0.019l-0.027,0.017l-0.027,0.017l-0.029,0.019l-0.03,0.015l-0.032,0.016l-0.031,0.016l-0.033,0.015l-0.034,0.013l-0.035,0.015l-0.034,0.012l-0.034,0.011l-0.035,0.011l-0.034,0.009l-0.034,0.009l-0.034,0.007l-0.034,0.008l-0.033,0.005l-0.033,0.004l-0.032,0.004l-0.033,0.004l-0.031,0.001l-0.03,0.001l-0.03,-0.001l-0.03,-0.001l-0.03,-0.001l-0.027,-0.003l-0.027,-0.004l-0.027,-0.004l-0.024,-0.006l-0.024,-0.006l-0.024,-0.008l-0.021,-0.008l-0.021,-0.009l-0.02,-0.011l-0.018,-0.011l-0.017,-0.013l-0.015,-0.012l-0.014,-0.013l-0.013,-0.015l-0.011,-0.015ZM328.999,550.224l-0.706,0.819l-0.311,-0.139l-0.076,-0.149l-0.049,-0.153l-0.021,-0.159l0.003,-0.162l0.029,-0.166l0.049,-0.167l0.07,-0.167l0.088,-0.169l0.103,-0.168l0.119,-0.165l0.131,-0.165l0.141,-0.165l0.151,-0.162l0.159,-0.16l0.165,-0.158l0.173,-0.155l0.176,-0.153l0.179,-0.151l0.18,-0.144l0.181,-0.144l0.181,-0.139l0.179,-0.136l0.176,-0.13l0.171,-0.126l0.166,-0.12l0.159,-0.117l0.151,-0.107l0.142,-0.103l0.129,-0.095l0.117,-0.086l0.104,-0.077l0.085,-0.069l0.993,0.277l-0.116,0.091l-0.124,0.094l-0.132,0.099l-0.139,0.1l-0.146,0.107l-0.152,0.108l-0.156,0.114l-0.16,0.116l-0.162,0.119l-0.167,0.123l-0.163,0.125l-0.166,0.126l-0.162,0.129l-0.161,0.132l-0.156,0.13l-0.152,0.131l-0.144,0.13l-0.138,0.131l-0.13,0.131l-0.118,0.127l-0.109,0.126l-0.099,0.124l-0.085,0.121l-0.073,0.118l-0.06,0.114l-0.045,0.109l-0.032,0.107l-0.018,0.104l-0.003,0.1l0.014,0.096l0.029,0.096l0.048,0.092l-0.31,-0.14ZM332.404,546.86l-0.429,-0.608l0.034,-0.014l0.035,-0.013l0.034,-0.012l0.034,-0.011l0.034,-0.01l0.034,-0.008l0.034,-0.009l0.034,-0.007l0.033,-0.007l0.033,-0.005l0.033,-0.003l0.032,-0.004l0.032,-0.002l0.032,-0.003l0.03,0l0.03,0l0.029,0.002l0.028,0.002l0.028,0.004l0.027,0.003l0.026,0.005l0.024,0.006l0.024,0.007l0.023,0.007l0.022,0.01l0.02,0.01l0.019,0.01l0.018,0.011l0.015,0.013l0.015,0.014l0.014,0.014l0.013,0.015l0.009,0.016l0.009,0.017l0.006,0.016l0.005,0.018l0.003,0.017l0.001,0.019l0,0.018l-0.002,0.019l-0.004,0.019l-0.005,0.02l-0.007,0.018l-0.009,0.021l-0.009,0.018l-0.012,0.021l-0.013,0.019l-0.014,0.02l-0.015,0.021l-0.018,0.018l-0.018,0.019l-0.02,0.02l-0.022,0.02l-0.021,0.019l-0.024,0.019l-0.025,0.017l-0.026,0.02l-0.027,0.016l-0.028,0.019l-0.03,0.015l-0.03,0.017l-0.032,0.016l-0.032,0.016l-0.034,0.015ZM332.686,546.694l-0.993,-0.277l0.711,0.443l-0.264,0.106l-0.302,0.111l-0.338,0.119l-0.376,0.126l-0.412,0.133l-0.446,0.141l-0.478,0.147l-0.505,0.15l-0.532,0.156l-0.554,0.159l-0.575,0.162l-0.589,0.162l-0.603,0.162l-0.614,0.162l-0.62,0.162l-0.624,0.159l-0.624,0.154l-0.622,0.151l-0.616,0.145l-0.607,0.138l-0.595,0.131l-0.58,0.123l-0.563,0.113l-0.543,0.103l-0.518,0.091l-0.493,0.081l-0.463,0.066l-0.435,0.051l-0.404,0.036l-0.371,0.016l-0.34,-0.003l-0.308,-0.027l0.818,-0.806l0.147,0.013l0.212,0l0.274,-0.013l0.324,-0.029l0.372,-0.043l0.414,-0.059l0.45,-0.073l0.482,-0.085l0.511,-0.097l0.536,-0.107l0.557,-0.119l0.574,-0.125l0.588,-0.135l0.598,-0.14l0.606,-0.147l0.609,-0.151l0.609,-0.156l0.606,-0.156l0.6,-0.159l0.589,-0.16l0.577,-0.159l0.559,-0.158l0.54,-0.154l0.516,-0.15l0.489,-0.147l0.458,-0.14l0.424,-0.134l0.386,-0.124l0.344,-0.115l0.296,-0.104l0.241,-0.09l0.179,-0.072l0.711,0.442ZM316.213,550.268l1.373,-0.251l-0.005,0.018l-0.006,0.021l-0.009,0.021l-0.01,0.021l-0.011,0.02l-0.013,0.02l-0.014,0.021l-0.016,0.019l-0.018,0.021l-0.019,0.019l-0.019,0.019l-0.021,0.02l-0.023,0.019l-0.024,0.018l-0.024,0.019l-0.025,0.017l-0.027,0.017l-0.027,0.018l-0.029,0.015l-0.029,0.016l-0.029,0.015l-0.032,0.017l-0.031,0.013l-0.032,0.014l-0.032,0.012l-0.034,0.012l-0.034,0.012l-0.034,0.01l-0.034,0.009l-0.035,0.01l-0.035,0.007l-0.036,0.007l-0.034,0.006l-0.035,0.005l-0.035,0.005l-0.033,0.002l-0.032,0.002l-0.032,0.001l-0.03,-0.001l-0.03,-0.001l-0.028,-0.003l-0.029,-0.004l-0.026,-0.004l-0.026,-0.004l-0.025,-0.006l-0.024,-0.006l-0.022,-0.008l-0.021,-0.01l-0.02,-0.009l-0.019,-0.011l-0.017,-0.011l-0.016,-0.01l-0.015,-0.014l-0.013,-0.012l-0.012,-0.015l-0.011,-0.016l-0.007,-0.015l-0.008,-0.015l-0.006,-0.018l-0.003,-0.016l-0.002,-0.02l0,-0.018l0.001,-0.02l0.004,-0.02ZM317.308,549.74l-0.818,0.806l-0.277,-0.278l0.002,-0.014l0.002,-0.014l0.002,-0.013l0,-0.012l0.002,-0.013l0,-0.013l0.001,-0.014l0.001,-0.017l0.002,-0.019l0.001,-0.021l0.004,-0.023l0.006,-0.032l0.011,-0.036l0.016,-0.037l0.022,-0.043l0.027,-0.04l0.031,-0.043l0.04,-0.046l0.039,-0.038l0.04,-0.039l0.044,-0.037l0.04,-0.032l0.038,-0.029l0.041,-0.029l0.044,-0.031l0.045,-0.031l0.044,-0.027l0.045,-0.03l0.049,-0.031l0.051,-0.032l0.054,-0.035l0.059,-0.036l0.783,0.425l-0.053,0.032l-0.048,0.03l-0.042,0.028l-0.037,0.023l-0.033,0.022l-0.028,0.018l-0.019,0.012l-0.013,0.009l-0.011,0.008l-0.007,0.005l0.009,-0.006l0.01,-0.011l0.013,-0.014l0.017,-0.019l0.015,-0.019l0.012,-0.019l0.009,-0.019l0.006,-0.014l0.005,-0.013l0.002,-0.008l-0.001,0.003l0,0.007l-0.001,0.011l0,0.015l-0.001,0.017l-0.001,0.022l-0.002,0.024l-0.003,0.027l-0.005,0.028l-0.006,0.032l-0.278,-0.277ZM317.799,549.786l-0.783,-0.425l0.001,0l1.414,-0.888l1.256,-0.815l1.101,-0.743l0.951,-0.673l0.808,-0.604l0.668,-0.536l0.535,-0.467l0.407,-0.399l0.284,-0.33l0.171,-0.258l0.073,-0.185l0.003,-0.118l-0.039,-0.07l-0.076,-0.047l-0.138,-0.032l-0.224,-0.011l-0.318,0.018l-0.403,0.054l-0.481,0.093l-0.548,0.13l-0.608,0.166l-0.656,0.202l-0.7,0.232l-0.735,0.266l-0.765,0.292l-0.789,0.318l-0.804,0.345l-0.816,0.366l-0.819,0.385l-0.819,0.404l-0.81,0.422l-0.798,0.435l-0.692,-0.48l0.845,-0.46l0.858,-0.444l0.863,-0.427l0.865,-0.408l0.862,-0.387l0.853,-0.363l0.838,-0.34l0.819,-0.313l0.793,-0.284l0.764,-0.256l0.732,-0.223l0.693,-0.191l0.652,-0.154l0.608,-0.117l0.563,-0.076l0.515,-0.029l0.464,0.026l0.393,0.098l0.288,0.176l0.144,0.254l-0.005,0.306l-0.134,0.343l-0.252,0.381l-0.364,0.423l-0.478,0.47l-0.597,0.522l-0.723,0.578l-0.853,0.638l-0.992,0.702l-1.137,0.768l-1.286,0.834l-1.442,0.906ZM313.342,547.313l-1.424,0.796l-0.691,-0.479l1.423,-0.796l0.692,0.479ZM311.227,547.63l0.691,0.479l-0.031,0.016l-0.032,0.017l-0.032,0.015l-0.032,0.015l-0.033,0.013l-0.033,0.011l-0.033,0.014l-0.034,0.011l-0.033,0.009l-0.034,0.009l-0.034,0.009l-0.033,0.007l-0.033,0.006l-0.033,0.006l-0.033,0.004l-0.031,0.005l-0.032,0.003l-0.032,0.001l-0.03,0l-0.031,0.002l-0.029,-0.003l-0.029,-0.002l-0.029,-0.003l-0.027,-0.003l-0.026,-0.005l-0.026,-0.005l-0.024,-0.008l-0.023,-0.007l-0.023,-0.01l-0.021,-0.009l-0.02,-0.01l-0.018,-0.013l-0.018,-0.012l-0.014,-0.014l-0.014,-0.015l-0.012,-0.014l-0.01,-0.016l-0.009,-0.015l-0.006,-0.017l-0.005,-0.016l-0.003,-0.018l-0.002,-0.018l0.001,-0.016l0,-0.02l0.003,-0.018l0.006,-0.02l0.006,-0.018l0.009,-0.019l0.009,-0.021l0.01,-0.018l0.012,-0.021l0.014,-0.019l0.015,-0.02l0.018,-0.021l0.018,-0.018l0.019,-0.021l0.022,-0.019l0.022,-0.02l0.024,-0.018l0.025,-0.019l0.026,-0.019l0.027,-0.019l0.03,-0.017l0.03,-0.018Z" style="fill:#4d4d4d;fill-rule:nonzero;"/><path d="M361.175,560.59l0.708,-0.82l0.03,0.004l0.028,0.004l0.028,0.006l0.026,0.005l0.025,0.006l0.023,0.008l0.023,0.009l0.021,0.008l0.018,0.011l0.018,0.011l0.017,0.013l0.014,0.012l0.014,0.013l0.012,0.013l0.01,0.014l0.009,0.015l0.007,0.016l0.006,0.017l0.005,0.018l0.002,0.016l0.001,0.017l0,0.02l-0.002,0.017l-0.004,0.02l-0.006,0.018l-0.007,0.021l-0.008,0.02l-0.01,0.02l-0.013,0.022l-0.014,0.02l-0.015,0.02l-0.018,0.021l-0.019,0.021l-0.02,0.021l-0.021,0.021l-0.024,0.02l-0.023,0.019l-0.025,0.018l-0.025,0.018l-0.027,0.018l-0.028,0.018l-0.028,0.017l-0.03,0.016l-0.03,0.016l-0.03,0.014l-0.03,0.013l-0.032,0.013l-0.032,0.014l-0.032,0.012l-0.033,0.011l-0.033,0.011l-0.033,0.009l-0.034,0.009l-0.033,0.008l-0.034,0.007l-0.033,0.006l-0.034,0.007l-0.033,0.003l-0.032,0.003l-0.034,0.003l-0.032,0.003l-0.032,-0.001l-0.031,-0.001l-0.031,-0.002ZM361.883,559.77l-0.708,0.82l-0.106,-0.006l-0.1,-0.003l-0.094,0.001l-0.091,0.005l-0.086,0.005l-0.08,0.009l-0.079,0.01l-0.074,0.015l-0.073,0.014l-0.072,0.017l-0.07,0.019l-0.071,0.023l-0.07,0.023l-0.073,0.025l-0.072,0.027l-0.074,0.03l-0.076,0.031l-0.078,0.036l-0.079,0.038l-0.081,0.039l-0.081,0.04l-0.086,0.044l-0.087,0.045l-0.088,0.048l-0.091,0.048l-0.093,0.049l-0.094,0.05l-0.097,0.052l-0.099,0.052l-0.102,0.053l-0.106,0.053l-0.108,0.054l-0.556,-0.55l0.08,-0.038l0.082,-0.042l0.083,-0.044l0.088,-0.046l0.089,-0.047l0.091,-0.048l0.094,-0.051l0.096,-0.051l0.099,-0.052l0.102,-0.054l0.104,-0.054l0.11,-0.054l0.111,-0.054l0.116,-0.054l0.119,-0.054l0.124,-0.052l0.127,-0.052l0.133,-0.05l0.135,-0.047l0.14,-0.047l0.144,-0.043l0.147,-0.039l0.152,-0.036l0.153,-0.032l0.155,-0.027l0.157,-0.023l0.16,-0.017l0.159,-0.012l0.159,-0.006l0.162,-0.002l0.162,0.004l0.162,0.008ZM357.888,560.986l0.556,0.55l-0.61,0.288l-0.61,0.273l-0.609,0.259l-0.604,0.245l-0.599,0.227l-0.59,0.212l-0.579,0.195l-0.567,0.177l-0.551,0.161l-0.533,0.139l-0.516,0.122l-0.495,0.102l-0.472,0.079l-0.449,0.058l-0.423,0.033l-0.394,0.007l-0.366,-0.021l-0.331,-0.053l-0.286,-0.09l-0.233,-0.128l-0.167,-0.169l-0.092,-0.202l-0.015,-0.232l0.057,-0.258l0.127,-0.277l0.193,-0.298l0.256,-0.322l0.324,-0.344l0.388,-0.37l0.457,-0.398l0.529,-0.426l0.602,-0.456l0.926,0.327l-0.559,0.424l-0.48,0.388l-0.405,0.351l-0.333,0.317l-0.262,0.281l-0.196,0.243l-0.133,0.207l-0.079,0.171l-0.03,0.135l0.006,0.106l0.037,0.08l0.061,0.063l0.092,0.049l0.129,0.039l0.171,0.029l0.216,0.012l0.26,-0.006l0.303,-0.024l0.344,-0.044l0.378,-0.063l0.412,-0.085l0.439,-0.104l0.467,-0.122l0.487,-0.142l0.508,-0.158l0.523,-0.176l0.538,-0.194l0.546,-0.208l0.555,-0.224l0.559,-0.238l0.562,-0.252l0.56,-0.265ZM352.436,560.107l-1.374,0.252l0.006,-0.02l0.006,-0.021l0.009,-0.021l0.009,-0.02l0.012,-0.021l0.014,-0.019l0.013,-0.02l0.017,-0.021l0.017,-0.02l0.019,-0.019l0.019,-0.019l0.021,-0.02l0.024,-0.019l0.022,-0.018l0.025,-0.018l0.025,-0.018l0.027,-0.018l0.028,-0.016l0.028,-0.017l0.029,-0.015l0.03,-0.017l0.031,-0.014l0.031,-0.014l0.033,-0.014l0.032,-0.012l0.034,-0.012l0.033,-0.011l0.034,-0.011l0.035,-0.009l0.035,-0.009l0.034,-0.007l0.036,-0.008l0.035,-0.006l0.035,-0.005l0.034,-0.005l0.034,-0.001l0.031,-0.001l0.032,-0.002l0.06,0.002l0.029,0.002l0.028,0.003l0.027,0.004l0.025,0.005l0.025,0.006l0.025,0.007l0.021,0.008l0.021,0.009l0.021,0.009l0.018,0.01l0.017,0.012l0.016,0.011l0.015,0.013l0.013,0.014l0.012,0.013l0.01,0.015l0.009,0.016l0.007,0.016l0.005,0.016l0.004,0.018l0.002,0.018l0,0.02l-0.001,0.019l-0.004,0.02ZM352.212,560.396l-0.926,-0.327l1.15,0.038l-0.001,0.01l-0.002,0.008l-0.003,0.014l-0.004,0.017l-0.004,0.014l-0.006,0.022l-0.007,0.02l-0.009,0.022l-0.014,0.03l-0.016,0.03l-0.018,0.027l-0.018,0.027l-0.024,0.033l-0.022,0.025l-0.023,0.028l-0.025,0.025l-0.023,0.023l-0.029,0.03l-0.026,0.022l-0.026,0.024l-0.027,0.023l-0.027,0.023l-0.03,0.026l-0.032,0.025l-0.034,0.027l-0.033,0.027l-0.038,0.029l-0.038,0.03l-0.038,0.031l-0.045,0.035l-0.046,0.036l-0.049,0.037l-0.961,-0.301l0.046,-0.036l0.043,-0.033l0.039,-0.03l0.038,-0.03l0.034,-0.026l0.029,-0.025l0.027,-0.021l0.023,-0.018l0.021,-0.018l0.017,-0.014l0.017,-0.015l0.012,-0.01l0.01,-0.009l0.007,-0.006l0.002,-0.003l-0.002,0.003l-0.004,0.004l-0.005,0.005l-0.008,0.012l-0.007,0.009l-0.003,0.007l-0.008,0.013l-0.006,0.012l-0.001,0.004l-0.002,0.006l-0.001,0.003l0,-0.003l0.001,0l0.002,-0.007l0.001,-0.011l0.002,-0.01l1.15,0.037ZM350.738,560.606l0.961,0.301l0.001,0l-0.911,0.671l-0.869,0.58l-0.83,0.492l-0.794,0.41l-0.763,0.334l-0.732,0.254l-0.698,0.177l-0.656,0.102l-0.601,0.028l-0.54,-0.04l-0.474,-0.102l-0.408,-0.15l-0.348,-0.192l-0.294,-0.228l-0.241,-0.257l-0.194,-0.28l-0.148,-0.297l-0.104,-0.314l-0.063,-0.321l-0.022,-0.326l0.019,-0.328l0.058,-0.325l0.101,-0.318l0.144,-0.309l0.195,-0.3l0.255,-0.29l0.336,-0.278l0.433,-0.251l0.515,-0.192l0.534,-0.102l0.508,-0.015l0.482,0.063l-0.885,0.795l-0.272,-0.036l-0.187,0.003l-0.101,0.02l-0.061,0.023l-0.079,0.048l-0.114,0.096l-0.128,0.149l-0.123,0.189l-0.105,0.225l-0.078,0.249l-0.048,0.265l-0.015,0.275l0.018,0.278l0.054,0.274l0.089,0.268l0.124,0.251l0.162,0.234l0.194,0.207l0.227,0.177l0.257,0.141l0.284,0.108l0.308,0.065l0.332,0.026l0.36,-0.018l0.401,-0.061l0.453,-0.115l0.514,-0.179l0.582,-0.255l0.65,-0.336l0.715,-0.425l0.78,-0.519l0.84,-0.619l0,0ZM345.831,558.974l-1.367,0.453l-0.005,-0.018l-0.003,-0.018l0,-0.018l0,-0.019l0.003,-0.019l0.004,-0.019l0.005,-0.021l0.008,-0.02l0.009,-0.018l0.01,-0.022l0.012,-0.018l0.013,-0.021l0.015,-0.019l0.017,-0.02l0.018,-0.019l0.018,-0.02l0.02,-0.019l0.022,-0.02l0.022,-0.018l0.024,-0.018l0.025,-0.018l0.026,-0.018l0.027,-0.018l0.029,-0.015l0.029,-0.018l0.03,-0.015l0.031,-0.016l0.032,-0.016l0.032,-0.013l0.034,-0.014l0.034,-0.013l0.035,-0.012l0.035,-0.011l0.035,-0.01l0.035,-0.01l0.034,-0.008l0.035,-0.007l0.034,-0.005l0.033,-0.006l0.033,-0.004l0.033,-0.003l0.031,-0.002l0.031,-0.001l0.031,-0.001l0.03,0.002l0.029,0.001l0.028,0.002l0.027,0.003l0.027,0.005l0.025,0.006l0.048,0.013l0.022,0.007l0.021,0.01l0.019,0.01l0.019,0.01l0.017,0.011l0.016,0.014l0.014,0.012l0.013,0.015l0.011,0.014l0.009,0.017l0.009,0.015l0.007,0.018ZM344.705,559.598l0.885,-0.795l0.241,0.171l0.012,0.042l0.012,0.036l0.013,0.035l0.011,0.033l0.011,0.031l0.01,0.029l0.009,0.028l0.01,0.029l0.007,0.028l0.008,0.03l0.006,0.03l0.005,0.032l0.002,0.033l0,0.036l-0.003,0.038l-0.007,0.039l-0.013,0.042l-0.015,0.041l-0.017,0.041l-0.021,0.039l-0.022,0.037l-0.024,0.038l-0.026,0.038l-0.026,0.037l-0.028,0.036l-0.029,0.037l-0.031,0.039l-0.032,0.04l-0.033,0.041l-0.037,0.044l-0.038,0.049l-0.042,0.049l-1.212,-0.061l0.042,-0.052l0.04,-0.048l0.035,-0.043l0.032,-0.04l0.029,-0.036l0.023,-0.03l0.022,-0.027l0.018,-0.023l0.013,-0.018l0.01,-0.014l0.006,-0.011l0.003,-0.006l0.002,-0.003l0,-0.001l-0.001,0.003l-0.001,0.004l0,0.003l0,-0.002l0,-0.007l-0.001,-0.007l-0.003,-0.009l-0.003,-0.016l-0.006,-0.017l-0.006,-0.022l-0.009,-0.025l-0.01,-0.027l-0.01,-0.032l-0.012,-0.034l-0.012,-0.038l-0.015,-0.04l-0.013,-0.045l0.241,0.171ZM344.291,560.09l1.212,0.061l-0.531,0.599l-0.571,0.541l-0.609,0.484l-0.642,0.427l-0.67,0.372l-0.689,0.314l-0.698,0.259l-0.699,0.204l-0.69,0.154l-0.677,0.106l-0.658,0.064l-0.637,0.025l-0.613,-0.006l-0.584,-0.04l-0.555,-0.064l-0.522,-0.087l-0.486,-0.11l-0.447,-0.127l-0.404,-0.14l-0.359,-0.154l-0.311,-0.164l-0.258,-0.174l-0.203,-0.184l-0.14,-0.197l-0.064,-0.221l0.048,-0.261l0.229,-0.301l0.408,-0.277l0.481,-0.195l0.5,-0.124l0.536,-0.078l0.596,-0.042l-0.488,0.821l-0.459,0.033l-0.332,0.048l-0.187,0.045l-0.036,0.012l0.057,-0.039l0.03,-0.034l0,0.025l0.024,0.078l0.081,0.111l0.14,0.126l0.199,0.134l0.255,0.136l0.304,0.129l0.348,0.123l0.389,0.108l0.424,0.096l0.454,0.077l0.478,0.055l0.5,0.033l0.512,0.006l0.522,-0.021l0.525,-0.05l0.524,-0.083l0.52,-0.116l0.513,-0.149l0.505,-0.187l0.499,-0.228l0.496,-0.274l0.491,-0.328l0.486,-0.384l0.474,-0.45l0.459,-0.517ZM335.997,561.119l-1.315,0.091l0.013,-0.02l0.013,-0.022l0.014,-0.021l0.017,-0.019l0.018,-0.021l0.019,-0.02l0.02,-0.02l0.021,-0.02l0.024,-0.018l0.023,-0.018l0.025,-0.019l0.026,-0.017l0.026,-0.018l0.029,-0.017l0.027,-0.017l0.03,-0.016l0.03,-0.014l0.03,-0.015l0.032,-0.014l0.031,-0.012l0.033,-0.014l0.033,-0.01l0.033,-0.012l0.033,-0.012l0.033,-0.008l0.034,-0.009l0.035,-0.007l0.034,-0.007l0.035,-0.005l0.033,-0.006l0.034,-0.003l0.035,-0.003l0.033,-0.003l0.064,0l0.031,0.002l0.029,0.002l0.029,0.004l0.027,0.004l0.026,0.004l0.025,0.006l0.024,0.008l0.021,0.009l0.021,0.006l0.021,0.012l0.018,0.009l0.017,0.012l0.015,0.012l0.015,0.012l0.013,0.014l0.012,0.014l0.009,0.015l0.009,0.017l0.006,0.014l0.006,0.018l0.003,0.016l0.003,0.018l0,0.018l-0.002,0.019l-0.002,0.019l-0.005,0.021l-0.007,0.019l-0.008,0.021l-0.011,0.021ZM335.096,561.575l0.488,-0.821l0.413,0.365l-0.491,0.831l-0.548,0.731l-0.604,0.637l-0.661,0.548l-0.718,0.462l-0.765,0.368l-0.789,0.27l-0.785,0.171l-0.757,0.077l-0.722,-0.003l-0.682,-0.074l-0.644,-0.133l-0.601,-0.189l-0.557,-0.237l-0.509,-0.277l-0.457,-0.316l-0.399,-0.348l-0.335,-0.374l-0.265,-0.399l-0.187,-0.418l-0.102,-0.434l-0.008,-0.447l0.099,-0.459l0.221,-0.466l0.357,-0.469l0.506,-0.456l0.654,-0.43l0.788,-0.385l0.911,-0.333l1.029,-0.276l1.155,-0.222l1.287,-0.165l-0.36,0.812l-1.151,0.148l-0.979,0.187l-0.814,0.219l-0.655,0.239l-0.512,0.249l-0.397,0.261l-0.304,0.278l-0.228,0.3l-0.151,0.323l-0.074,0.345l0.006,0.356l0.085,0.362l0.162,0.36l0.231,0.348l0.297,0.333l0.355,0.309l0.406,0.279l0.447,0.246l0.485,0.205l0.51,0.159l0.525,0.11l0.529,0.058l0.523,0.004l0.503,-0.05l0.483,-0.106l0.468,-0.161l0.474,-0.226l0.486,-0.313l0.497,-0.412l0.493,-0.523l0.477,-0.637l0.447,-0.756l0.414,0.365ZM331.418,557.903l0.781,-0.078l-0.361,0.813l-0.78,0.078l0.36,-0.812l0,-0.001ZM332.701,557.999l-1.364,0.464l-0.005,-0.017l-0.003,-0.018l-0.001,-0.019l0,-0.019l0.002,-0.019l0.003,-0.019l0.006,-0.02l0.007,-0.018l0.008,-0.021l0.01,-0.02l0.011,-0.019l0.014,-0.021l0.014,-0.02l0.016,-0.02l0.017,-0.019l0.018,-0.019l0.02,-0.019l0.022,-0.02l0.021,-0.018l0.024,-0.019l0.024,-0.019l0.027,-0.017l0.026,-0.018l0.028,-0.017l0.029,-0.017l0.03,-0.015l0.031,-0.017l0.031,-0.014l0.032,-0.015l0.034,-0.013l0.034,-0.013l0.034,-0.013l0.036,-0.012l0.036,-0.01l0.034,-0.009l0.035,-0.008l0.035,-0.008l0.033,-0.007l0.034,-0.005l0.033,-0.004l0.031,-0.004l0.032,-0.001l0.033,-0.003l0.03,0l0.03,0.001l0.03,0.001l0.028,0.002l0.027,0.003l0.026,0.004l0.027,0.005l0.024,0.007l0.024,0.006l0.023,0.008l0.02,0.008l0.02,0.009l0.019,0.012l0.019,0.011l0.015,0.012l0.015,0.013l0.013,0.014l0.012,0.015l0.011,0.016l0.008,0.015l0.007,0.017ZM331.838,558.638l0.361,-0.813l0.502,0.174l0.06,0.269l0.001,0.277l-0.054,0.289l-0.105,0.293l-0.152,0.297l-0.196,0.3l-0.234,0.3l-0.27,0.301l-0.301,0.3l-0.329,0.298l-0.357,0.296l-0.378,0.293l-0.399,0.291l-0.417,0.285l-0.431,0.281l-0.445,0.276l-0.454,0.268l-0.461,0.262l-0.468,0.254l-0.47,0.244l-0.47,0.236l-0.469,0.225l-0.464,0.215l-0.458,0.202l-0.448,0.189l-0.439,0.175l-0.425,0.161l-0.411,0.145l-0.395,0.13l-0.378,0.112l-0.361,0.095l-0.345,0.075l0.136,-0.779l0.222,-0.049l0.261,-0.069l0.296,-0.087l0.325,-0.107l0.351,-0.124l0.372,-0.14l0.39,-0.157l0.404,-0.17l0.415,-0.183l0.423,-0.195l0.429,-0.207l0.432,-0.216l0.432,-0.225l0.429,-0.232l0.422,-0.24l0.414,-0.245l0.402,-0.249l0.388,-0.253l0.371,-0.255l0.352,-0.255l0.33,-0.255l0.305,-0.254l0.277,-0.251l0.249,-0.247l0.216,-0.24l0.184,-0.236l0.149,-0.228l0.112,-0.22l0.077,-0.212l0.038,-0.204l-0.002,-0.195l-0.042,-0.191l0.501,0.175ZM321.914,564.854l-0.136,0.779l-1.346,0.226l-1.189,0.133l-1.04,0.041l-0.894,-0.048l-0.748,-0.135l-0.6,-0.219l-0.449,-0.296l-0.3,-0.364l-0.158,-0.419l-0.028,-0.465l0.091,-0.501l0.197,-0.532l0.295,-0.559l0.382,-0.579l0.463,-0.593l0.536,-0.606l0.602,-0.612l0.663,-0.612l0.716,-0.609l0.763,-0.599l0.804,-0.584l0.839,-0.566l0.867,-0.54l0.892,-0.51l0.909,-0.474l0.922,-0.433l0.929,-0.386l0.932,-0.334l0.929,-0.271l0.918,-0.205l0.898,-0.127l0.865,-0.041l-0.581,0.823l-0.654,0.031l-0.69,0.1l-0.727,0.16l-0.759,0.223l-0.786,0.282l-0.804,0.334l-0.815,0.382l-0.817,0.427l-0.809,0.463l-0.796,0.495l-0.775,0.522l-0.744,0.541l-0.707,0.556l-0.664,0.565l-0.612,0.564l-0.553,0.561l-0.488,0.552l-0.417,0.535l-0.337,0.511l-0.254,0.481l-0.167,0.447l-0.073,0.406l0.021,0.359l0.116,0.309l0.213,0.258l0.317,0.212l0.432,0.157l0.563,0.102l0.711,0.038l0.872,-0.035l1.041,-0.116l1.219,-0.205ZM330.838,554.076l-1.381,0.297l0.003,-0.019l0.005,-0.021l0.006,-0.019l0.009,-0.021l0.009,-0.02l0.011,-0.021l0.013,-0.02l0.014,-0.019l0.015,-0.02l0.018,-0.021l0.018,-0.019l0.019,-0.019l0.021,-0.019l0.022,-0.019l0.023,-0.02l0.024,-0.017l0.025,-0.018l0.027,-0.017l0.027,-0.017l0.029,-0.017l0.028,-0.016l0.031,-0.016l0.031,-0.015l0.03,-0.014l0.033,-0.013l0.032,-0.013l0.034,-0.013l0.033,-0.011l0.035,-0.011l0.035,-0.01l0.035,-0.009l0.036,-0.008l0.035,-0.007l0.034,-0.005l0.036,-0.006l0.033,-0.005l0.033,-0.002l0.033,-0.002l0.03,0l0.031,0l0.03,0l0.029,0.003l0.027,0.003l0.027,0.003l0.027,0.005l0.049,0.012l0.044,0.016l0.02,0.01l0.019,0.01l0.017,0.01l0.016,0.013l0.015,0.013l0.014,0.012l0.013,0.015l0.009,0.014l0.01,0.016l0.008,0.016l0.004,0.018l0.005,0.016l0.003,0.018l0,0.02l-0.001,0.019ZM329.857,554.637l0.581,-0.823l0.4,0.262l-0.076,0.241l-0.169,0.241l-0.237,0.231l-0.285,0.219l-0.323,0.205l-0.357,0.203l-0.389,0.198l-0.42,0.198l-0.449,0.198l-0.475,0.199l-0.502,0.201l-0.523,0.202l-0.543,0.206l-0.558,0.206l-0.575,0.207l-0.583,0.209l-0.593,0.211l-0.596,0.21l-0.599,0.211l-0.595,0.21l-0.59,0.209l-0.583,0.21l-0.57,0.208l-0.554,0.206l-0.537,0.206l-0.512,0.201l-0.486,0.198l-0.456,0.193l-0.421,0.187l-0.384,0.182l-0.339,0.173l-0.293,0.163l-0.739,-0.45l0.384,-0.216l0.418,-0.213l0.446,-0.211l0.475,-0.211l0.499,-0.212l0.521,-0.213l0.542,-0.213l0.559,-0.212l0.574,-0.213l0.585,-0.213l0.592,-0.214l0.598,-0.214l0.601,-0.211l0.599,-0.211l0.593,-0.211l0.586,-0.206l0.576,-0.206l0.56,-0.204l0.543,-0.199l0.52,-0.196l0.495,-0.192l0.465,-0.187l0.432,-0.181l0.395,-0.174l0.352,-0.167l0.305,-0.153l0.252,-0.144l0.196,-0.124l0.136,-0.104l0.079,-0.076l0.039,-0.053l0.013,-0.041l0.4,0.264ZM315.527,560.168l0.739,0.45l-0.031,0.019l-0.03,0.016l-0.031,0.015l-0.033,0.016l-0.032,0.015l-0.033,0.012l-0.033,0.012l-0.033,0.012l-0.033,0.011l-0.034,0.01l-0.033,0.007l-0.033,0.009l-0.034,0.007l-0.033,0.008l-0.033,0.005l-0.032,0.005l-0.032,0.001l-0.032,0.005l-0.031,0.002l-0.031,0l-0.031,0l-0.029,-0.002l-0.029,-0.002l-0.028,-0.003l-0.027,-0.003l-0.026,-0.006l-0.026,-0.006l-0.025,-0.007l-0.023,-0.008l-0.022,-0.009l-0.021,-0.011l-0.02,-0.01l-0.018,-0.012l-0.016,-0.014l-0.015,-0.013l-0.013,-0.014l-0.012,-0.015l-0.01,-0.016l-0.007,-0.015l-0.006,-0.016l-0.006,-0.017l-0.003,-0.017l0,-0.018l0,-0.018l0,-0.019l0.004,-0.018l0.005,-0.019l0.007,-0.02l0.008,-0.018l0.009,-0.021l0.012,-0.019l0.012,-0.02l0.015,-0.02l0.015,-0.019l0.017,-0.021l0.019,-0.02l0.019,-0.019l0.022,-0.019l0.022,-0.02l0.024,-0.019l0.026,-0.02l0.028,-0.018l0.027,-0.018l0.03,-0.018Z" style="fill:#4d4d4d;fill-rule:nonzero;"/><path d="M341.637,577.764l0.942,-0.782l0.026,0.008l0.024,0.008l0.023,0.01l0.019,0.009l0.02,0.011l0.018,0.011l0.015,0.013l0.015,0.013l0.013,0.012l0.011,0.015l0.01,0.016l0.008,0.014l0.007,0.017l0.005,0.016l0.003,0.018l0.003,0.016l0.001,0.019l-0.002,0.017l-0.002,0.02l-0.005,0.018l-0.006,0.018l-0.007,0.021l-0.009,0.019l-0.012,0.02l-0.012,0.02l-0.014,0.021l-0.016,0.021l-0.016,0.02l-0.019,0.02l-0.021,0.021l-0.022,0.019l-0.023,0.02l-0.025,0.021l-0.026,0.018l-0.027,0.02l-0.028,0.019l-0.027,0.016l-0.03,0.017l-0.03,0.016l-0.03,0.015l-0.031,0.015l-0.032,0.014l-0.032,0.014l-0.032,0.013l-0.033,0.012l-0.032,0.009l-0.033,0.011l-0.034,0.009l-0.032,0.008l-0.033,0.007l-0.034,0.007l-0.033,0.007l-0.033,0.005l-0.033,0.003l-0.032,0.003l-0.031,0.002l-0.032,0.001l-0.031,0l-0.03,-0.001l-0.029,-0.002l-0.03,-0.003l-0.028,-0.003l-0.028,-0.006l-0.026,-0.006ZM342.579,576.982l-0.942,0.782l-0.167,-0.05l-0.148,-0.059l-0.131,-0.067l-0.113,-0.076l-0.095,-0.082l-0.077,-0.089l-0.061,-0.093l-0.045,-0.097l-0.03,-0.101l-0.017,-0.103l-0.004,-0.104l0.007,-0.107l0.018,-0.107l0.027,-0.107l0.036,-0.108l0.042,-0.105l0.05,-0.106l0.055,-0.103l0.061,-0.103l0.066,-0.102l0.069,-0.099l0.073,-0.095l0.076,-0.094l0.078,-0.09l0.08,-0.087l0.082,-0.084l0.084,-0.081l0.085,-0.078l0.087,-0.074l0.091,-0.07l0.097,-0.07l0.108,-0.07l0.768,0.433l-0.005,0.004l-0.022,0.015l-0.034,0.028l-0.042,0.035l-0.047,0.042l-0.05,0.048l-0.052,0.054l-0.054,0.059l-0.053,0.061l-0.052,0.066l-0.052,0.067l-0.05,0.07l-0.045,0.07l-0.042,0.072l-0.039,0.072l-0.034,0.072l-0.029,0.072l-0.022,0.068l-0.017,0.067l-0.011,0.066l-0.004,0.063l0.002,0.059l0.009,0.058l0.016,0.053l0.023,0.051l0.03,0.046l0.037,0.043l0.046,0.039l0.055,0.038l0.064,0.032l0.075,0.031l0.089,0.025ZM343.177,574.863l-1.343,0.512l-0.008,-0.017l-0.005,-0.016l-0.005,-0.018l-0.002,-0.019l-0.001,-0.018l0.002,-0.019l0.003,-0.019l0.003,-0.019l0.006,-0.019l0.009,-0.021l0.009,-0.019l0.01,-0.019l0.012,-0.02l0.014,-0.019l0.015,-0.021l0.016,-0.019l0.019,-0.02l0.019,-0.02l0.019,-0.02l0.023,-0.017l0.022,-0.019l0.025,-0.019l0.025,-0.017l0.026,-0.018l0.028,-0.018l0.028,-0.018l0.029,-0.015l0.031,-0.016l0.032,-0.016l0.032,-0.015l0.034,-0.015l0.034,-0.013l0.035,-0.014l0.034,-0.01l0.035,-0.011l0.035,-0.011l0.034,-0.008l0.033,-0.008l0.035,-0.007l0.033,-0.006l0.034,-0.004l0.032,-0.003l0.032,-0.004l0.032,-0.002l0.03,0l0.031,-0.002l0.029,0.002l0.029,0.002l0.028,0.003l0.027,0.002l0.027,0.006l0.024,0.006l0.026,0.005l0.022,0.008l0.023,0.008l0.021,0.009l0.019,0.01l0.018,0.011l0.018,0.012l0.015,0.012l0.014,0.014l0.012,0.015l0.013,0.014l0.009,0.017ZM342.889,575.336l-0.768,-0.433l1.056,-0.04l0.054,0.132l0.034,0.138l0.012,0.143l-0.007,0.145l-0.027,0.148l-0.042,0.151l-0.06,0.151l-0.072,0.153l-0.088,0.153l-0.099,0.153l-0.11,0.153l-0.121,0.15l-0.13,0.15l-0.139,0.15l-0.145,0.147l-0.154,0.144l-0.158,0.141l-0.165,0.138l-0.17,0.137l-0.172,0.132l-0.177,0.127l-0.18,0.123l-0.183,0.12l-0.185,0.115l-0.185,0.109l-0.186,0.102l-0.189,0.098l-0.192,0.092l-0.19,0.084l-0.195,0.078l-0.198,0.069l-0.201,0.062l-0.07,-0.732l0.065,-0.02l0.08,-0.027l0.096,-0.039l0.106,-0.047l0.115,-0.056l0.123,-0.062l0.13,-0.072l0.132,-0.08l0.137,-0.082l0.137,-0.09l0.138,-0.096l0.137,-0.099l0.136,-0.104l0.133,-0.106l0.13,-0.109l0.126,-0.113l0.12,-0.113l0.114,-0.114l0.106,-0.113l0.099,-0.116l0.092,-0.114l0.081,-0.112l0.072,-0.111l0.061,-0.107l0.051,-0.107l0.039,-0.103l0.029,-0.098l0.017,-0.095l0.005,-0.092l-0.007,-0.085l-0.021,-0.083l-0.032,-0.079l1.055,-0.039ZM339.087,578.219l0.07,0.732l-0.915,0.214l-0.855,0.134l-0.789,0.049l-0.718,-0.027l-0.644,-0.097l-0.568,-0.158l-0.497,-0.213l-0.427,-0.261l-0.362,-0.3l-0.3,-0.335l-0.242,-0.364l-0.187,-0.387l-0.133,-0.406l-0.083,-0.42l-0.033,-0.426l0.014,-0.431l0.061,-0.43l0.105,-0.424l0.151,-0.418l0.197,-0.4l0.244,-0.384l0.296,-0.368l0.357,-0.343l0.43,-0.32l0.509,-0.278l0.581,-0.217l0.61,-0.131l0.6,-0.037l0.582,0.048l0.57,0.128l0.567,0.206l0.574,0.287l-1.153,0.699l-0.502,-0.252l-0.465,-0.17l-0.416,-0.094l-0.354,-0.029l-0.282,0.017l-0.219,0.047l-0.189,0.072l-0.198,0.11l-0.216,0.16l-0.22,0.214l-0.211,0.261l-0.19,0.301l-0.162,0.332l-0.129,0.354l-0.093,0.372l-0.054,0.381l-0.012,0.387l0.03,0.383l0.074,0.376l0.119,0.361l0.165,0.343l0.212,0.319l0.258,0.288l0.303,0.253l0.349,0.214l0.394,0.169l0.439,0.123l0.482,0.071l0.529,0.021l0.583,-0.038l0.645,-0.099l0.717,-0.169l0.001,0ZM338.967,572.608l-1.383,0.368l0,-0.02l0.001,-0.02l0.003,-0.019l0.005,-0.019l0.007,-0.021l0.008,-0.019l0.01,-0.02l0.011,-0.02l0.013,-0.02l0.014,-0.021l0.016,-0.02l0.017,-0.018l0.018,-0.021l0.019,-0.019l0.021,-0.02l0.023,-0.018l0.023,-0.019l0.024,-0.019l0.025,-0.016l0.027,-0.018l0.028,-0.018l0.027,-0.016l0.03,-0.017l0.03,-0.015l0.031,-0.015l0.032,-0.014l0.032,-0.013l0.034,-0.014l0.033,-0.012l0.035,-0.011l0.034,-0.011l0.036,-0.01l0.036,-0.009l0.036,-0.008l0.033,-0.007l0.035,-0.005l0.034,-0.006l0.033,-0.003l0.033,-0.003l0.031,-0.002l0.032,-0.001l0.03,0l0.058,0.003l0.027,0.005l0.028,0.004l0.025,0.004l0.048,0.012l0.024,0.008l0.021,0.009l0.02,0.009l0.019,0.009l0.018,0.012l0.031,0.025l0.014,0.014l0.012,0.013l0.009,0.016l0.009,0.015l0.009,0.017l0.005,0.017l0.004,0.018l0.002,0.019ZM337.699,573.141l1.153,-0.699l0.115,0.166l-0.008,0.227l-0.054,0.236l-0.096,0.238l-0.135,0.24l-0.168,0.239l-0.201,0.24l-0.228,0.235l-0.255,0.234l-0.277,0.231l-0.298,0.228l-0.315,0.225l-0.331,0.22l-0.346,0.216l-0.359,0.212l-0.369,0.207l-0.375,0.201l-0.386,0.196l-0.389,0.189l-0.393,0.181l-0.394,0.176l-0.394,0.167l-0.392,0.159l-0.39,0.15l-0.384,0.141l-0.376,0.13l-0.37,0.12l-0.361,0.11l-0.349,0.097l-0.337,0.085l-0.325,0.073l-0.312,0.057l-0.299,0.043l0.319,-0.808l0.184,-0.026l0.215,-0.041l0.242,-0.053l0.265,-0.066l0.284,-0.08l0.302,-0.091l0.315,-0.102l0.329,-0.116l0.337,-0.123l0.344,-0.133l0.349,-0.141l0.352,-0.149l0.352,-0.156l0.35,-0.163l0.346,-0.167l0.34,-0.174l0.332,-0.176l0.321,-0.18l0.309,-0.182l0.294,-0.186l0.278,-0.184l0.259,-0.184l0.239,-0.183l0.217,-0.18l0.192,-0.178l0.168,-0.174l0.143,-0.168l0.116,-0.164l0.089,-0.159l0.061,-0.154l0.035,-0.149l0.005,-0.145l0.115,0.165ZM329.62,577.503l-0.319,0.808l0,-0.001l-1.439,0.143l-1.306,0.07l-1.178,0l-1.053,-0.061l-0.933,-0.122l-0.815,-0.175l-0.703,-0.226l-0.593,-0.269l-0.487,-0.309l-0.387,-0.344l-0.291,-0.37l-0.2,-0.394l-0.116,-0.41l-0.038,-0.42l0.037,-0.428l0.104,-0.429l0.166,-0.426l0.224,-0.417l0.276,-0.404l0.326,-0.388l0.372,-0.367l0.417,-0.344l0.463,-0.313l0.507,-0.277l0.55,-0.229l0.58,-0.17l0.588,-0.096l0.568,-0.013l0.529,0.069l0.484,0.149l0.438,0.226l0.396,0.306l-1.256,0.624l-0.321,-0.248l-0.325,-0.168l-0.317,-0.098l-0.299,-0.041l-0.273,0.008l-0.258,0.041l-0.259,0.077l-0.274,0.116l-0.287,0.157l-0.295,0.199l-0.29,0.239l-0.276,0.273l-0.253,0.303l-0.221,0.322l-0.183,0.34l-0.137,0.352l-0.086,0.357l-0.03,0.355l0.03,0.353l0.097,0.343l0.167,0.328l0.243,0.31l0.325,0.288l0.41,0.261l0.504,0.229l0.603,0.194l0.709,0.152l0.823,0.107l0.944,0.055l1.07,0l1.204,-0.065l1.344,-0.132ZM326.841,572.08l-1.364,0.209l0.007,-0.021l0.01,-0.021l0.009,-0.02l0.012,-0.02l0.013,-0.022l0.015,-0.02l0.017,-0.02l0.017,-0.021l0.019,-0.018l0.02,-0.02l0.022,-0.019l0.022,-0.018l0.024,-0.02l0.024,-0.017l0.026,-0.018l0.026,-0.018l0.029,-0.016l0.028,-0.017l0.029,-0.014l0.03,-0.017l0.03,-0.013l0.032,-0.016l0.031,-0.011l0.033,-0.015l0.034,-0.012l0.033,-0.011l0.034,-0.009l0.034,-0.01l0.035,-0.009l0.034,-0.007l0.036,-0.008l0.035,-0.005l0.035,-0.004l0.034,-0.004l0.033,-0.002l0.034,-0.003l0.062,0l0.029,0.001l0.029,0.003l0.027,0.002l0.028,0.005l0.025,0.006l0.025,0.005l0.024,0.008l0.021,0.007l0.022,0.009l0.02,0.01l0.018,0.01l0.018,0.011l0.015,0.012l0.015,0.013l0.012,0.014l0.012,0.014l0.009,0.015l0.009,0.016l0.007,0.016l0.005,0.016l0.003,0.017l0.003,0.018l0,0.019l-0.002,0.02l-0.003,0.021l-0.005,0.019ZM325.531,572.496l1.256,-0.624l0.054,0.208l-0.014,0.047l-0.012,0.043l-0.012,0.041l-0.009,0.034l-0.009,0.034l-0.009,0.029l-0.007,0.026l-0.008,0.027l-0.009,0.026l-0.008,0.025l-0.01,0.028l-0.012,0.026l-0.012,0.03l-0.018,0.033l-0.019,0.032l-0.02,0.03l-0.021,0.029l-0.022,0.028l-0.021,0.025l-0.022,0.027l-0.019,0.019l-0.018,0.023l-0.021,0.023l-0.021,0.023l-0.024,0.026l-0.026,0.028l-0.028,0.032l-0.03,0.036l-0.033,0.039l-0.038,0.045l-0.04,0.05l-0.045,0.054l-1.211,-0.064l0.049,-0.06l0.046,-0.054l0.041,-0.049l0.04,-0.048l0.036,-0.04l0.032,-0.038l0.028,-0.033l0.027,-0.029l0.024,-0.026l0.018,-0.02l0.017,-0.019l0.013,-0.016l0.006,-0.007l0.004,-0.004l0,-0.001l-0.002,0.004l-0.004,0.006l-0.002,0.006l0,-0.001l0.001,-0.005l0.003,-0.007l0.004,-0.01l0.005,-0.017l0.005,-0.019l0.008,-0.025l0.008,-0.029l0.008,-0.03l0.01,-0.037l0.012,-0.041l0.013,-0.045l0.014,-0.051l0.054,0.207ZM325.013,573.034l1.211,0.064l-0.018,0.02l-0.02,0.021l-0.02,0.02l-0.022,0.021l-0.022,0.019l-0.025,0.018l-0.025,0.02l-0.025,0.018l-0.027,0.018l-0.027,0.016l-0.03,0.017l-0.03,0.015l-0.03,0.016l-0.03,0.014l-0.031,0.015l-0.032,0.012l-0.032,0.012l-0.032,0.013l-0.032,0.01l-0.033,0.01l-0.034,0.011l-0.034,0.008l-0.033,0.008l-0.034,0.006l-0.033,0.006l-0.033,0.005l-0.033,0.004l-0.033,0.004l-0.033,0.002l-0.033,0.001l-0.032,-0.001l-0.031,-0.001l-0.031,-0.002l-0.029,-0.004l-0.029,-0.003l-0.027,-0.005l-0.025,-0.007l-0.024,-0.005l-0.023,-0.009l-0.022,-0.01l-0.02,-0.009l-0.019,-0.01l-0.016,-0.011l-0.017,-0.012l-0.015,-0.013l-0.012,-0.013l-0.012,-0.015l-0.009,-0.014l-0.009,-0.016l-0.007,-0.015l-0.005,-0.017l-0.004,-0.017l-0.002,-0.017l-0.001,-0.019l0.001,-0.018l0.003,-0.018l0.003,-0.02l0.006,-0.021l0.009,-0.018l0.009,-0.021l0.011,-0.02l0.013,-0.02l0.014,-0.021l0.017,-0.022Z" style="fill:#4d4d4d;fill-rule:nonzero;"/><path d="M353.834,586.645l-2.335,-0.151l0.067,-0.041l0.067,-0.039l0.071,-0.037l0.072,-0.038l0.074,-0.038l0.075,-0.035l0.077,-0.036l0.078,-0.034l0.078,-0.033l0.081,-0.032l0.08,-0.03l0.082,-0.029l0.082,-0.029l0.082,-0.027l0.082,-0.026l0.082,-0.024l0.083,-0.024l0.081,-0.021l0.081,-0.021l0.081,-0.019l0.08,-0.017l0.079,-0.015l0.078,-0.013l0.077,-0.014l0.076,-0.009l0.074,-0.009l0.073,-0.007l0.069,-0.006l0.069,-0.003l0.066,-0.001l0.065,0.001l0.061,0.003l0.058,0.005l0.056,0.007l0.049,0.008l0.047,0.011l0.042,0.012l0.039,0.014l0.034,0.017l0.031,0.017l0.026,0.02l0.023,0.019l0.018,0.022l0.015,0.023l0.011,0.025l0.007,0.026l0.003,0.029l-0.001,0.026l-0.005,0.03l-0.009,0.03l-0.013,0.032l-0.017,0.033l-0.021,0.033l-0.024,0.036l-0.029,0.035l-0.031,0.036l-0.037,0.037l-0.04,0.036l-0.043,0.038l-0.048,0.04l-0.052,0.038l-0.056,0.04l-0.058,0.04l-0.063,0.039ZM351.499,586.494l2.335,0.151l-1.292,0.844l-1.293,0.928l-1.285,1.003l-1.27,1.065l-1.248,1.119l-1.222,1.162l-1.192,1.196l-1.163,1.224l-1.128,1.238l-1.092,1.248l-1.055,1.247l-1.015,1.24l-0.975,1.222l-0.932,1.199l-0.889,1.166l-0.843,1.123l-0.798,1.076l-0.75,1.02l-0.702,0.954l-0.653,0.883l-0.601,0.803l-0.553,0.715l-0.503,0.627l-0.462,0.534l-0.438,0.453l-0.535,0.438l-1.612,0.747l-1.702,0.107l-0.268,-0.27l-0.085,-0.359l-0.005,-0.498l0.062,-0.654l3.425,-0.981l-0.06,0.62l0.005,0.436l0.056,0.251l0,0.03l-1.311,0.112l-1.096,0.477l0.101,-0.093l0.312,-0.324l0.406,-0.47l0.476,-0.592l0.537,-0.698l0.594,-0.791l0.648,-0.878l0.701,-0.953l0.752,-1.021l0.801,-1.082l0.851,-1.132l0.896,-1.176l0.943,-1.211l0.987,-1.238l1.031,-1.258l1.073,-1.27l1.115,-1.275l1.156,-1.269l1.197,-1.258l1.236,-1.24l1.276,-1.214l1.319,-1.181l1.359,-1.14l1.407,-1.098l1.457,-1.046l1.514,-0.988ZM329.76,610.464l-3.425,0.981l0.076,-0.588l0.071,-0.579l0.068,-0.57l0.063,-0.562l0.057,-0.556l0.051,-0.548l0.047,-0.541l0.038,-0.536l0.033,-0.53l0.025,-0.526l0.017,-0.521l0.009,-0.518l0.001,-0.514l-0.009,-0.51l-0.019,-0.51l-0.028,-0.507l-0.038,-0.507l-0.05,-0.505l-0.061,-0.506l-0.072,-0.507l-0.085,-0.507l-0.097,-0.51l-0.11,-0.51l-0.124,-0.515l-0.137,-0.517l-0.153,-0.52l-0.168,-0.525l-0.181,-0.53l-0.198,-0.536l-0.215,-0.541l-0.231,-0.546l-0.247,-0.555l3.397,-1.188l0.25,0.561l0.234,0.554l0.217,0.549l0.201,0.543l0.184,0.537l0.17,0.532l0.155,0.53l0.14,0.525l0.125,0.522l0.112,0.519l0.099,0.517l0.086,0.515l0.074,0.515l0.062,0.514l0.051,0.515l0.038,0.514l0.028,0.514l0.019,0.516l0.009,0.521l-0.001,0.52l-0.008,0.523l-0.017,0.528l-0.026,0.531l-0.033,0.535l-0.039,0.542l-0.046,0.545l-0.053,0.553l-0.057,0.559l-0.063,0.565l-0.068,0.573l-0.072,0.582l-0.076,0.591ZM328.065,593.304l-3.397,1.188l-0.01,-0.027l-0.006,-0.028l-0.001,-0.029l0.004,-0.03l0.008,-0.031l0.012,-0.033l0.015,-0.033l0.021,-0.034l0.023,-0.034l0.028,-0.036l0.03,-0.036l0.035,-0.036l0.038,-0.036l0.042,-0.036l0.044,-0.037l0.049,-0.038l0.051,-0.038l0.054,-0.037l0.057,-0.037l0.061,-0.038l0.062,-0.037l0.065,-0.038l0.069,-0.036l0.07,-0.037l0.073,-0.036l0.076,-0.035l0.077,-0.036l0.079,-0.035l0.081,-0.033l0.084,-0.033l0.086,-0.032l0.087,-0.031l0.088,-0.031l0.087,-0.027l0.086,-0.027l0.085,-0.024l0.086,-0.024l0.082,-0.021l0.084,-0.02l0.081,-0.019l0.08,-0.015l0.079,-0.015l0.075,-0.012l0.076,-0.01l0.073,-0.01l0.072,-0.007l0.068,-0.006l0.067,-0.003l0.065,-0.003l0.062,0.001l0.058,0.002l0.057,0.003l0.054,0.004l0.051,0.008l0.047,0.009l0.045,0.01l0.041,0.013l0.037,0.014l0.034,0.016l0.03,0.019l0.027,0.019l0.022,0.022l0.019,0.023l0.015,0.026Z" style="fill:#f6931d;fill-rule:nonzero;"/><path d="M203.47,134.464c-0.218,0.273 -0.617,0.316 -0.89,0.098c-0.272,-0.218 -0.315,-0.617 -0.097,-0.89l9.479,-11.816c1.277,-1.59 3.001,-1.883 4.52,-1.4c0.578,0.183 1.122,0.48 1.593,0.856c0.471,0.378 0.878,0.846 1.183,1.371c0.801,1.377 0.888,3.124 -0.388,4.716l-13.869,17.286c-1.089,1.357 -2.516,1.644 -3.761,1.278c-0.475,-0.139 -0.922,-0.378 -1.309,-0.689c-0.387,-0.312 -0.716,-0.698 -0.956,-1.132c-0.631,-1.148 -0.664,-2.624 0.432,-3.989l12.136,-15.127c0.841,-1.05 1.943,-1.274 2.903,-0.996c0.366,0.107 0.71,0.29 1.008,0.529c0.299,0.241 0.551,0.539 0.734,0.873c0.486,0.889 0.507,2.033 -0.342,3.092l-7.95,9.909c-0.218,0.272 -0.615,0.316 -0.889,0.097c-0.272,-0.218 -0.316,-0.616 -0.098,-0.889l7.951,-9.909c0.479,-0.597 0.479,-1.221 0.221,-1.693c-0.105,-0.193 -0.249,-0.362 -0.416,-0.497c-0.167,-0.135 -0.362,-0.239 -0.57,-0.3c-0.503,-0.145 -1.095,-0.012 -1.565,0.575l-12.137,15.127c-0.725,0.904 -0.716,1.858 -0.314,2.588c0.161,0.292 0.381,0.551 0.641,0.76c0.261,0.209 0.56,0.369 0.876,0.462c0.786,0.231 1.701,0.035 2.418,-0.86l13.869,-17.288c0.897,-1.117 0.84,-2.336 0.285,-3.29c-0.222,-0.382 -0.526,-0.729 -0.885,-1.016c-0.357,-0.287 -0.762,-0.509 -1.182,-0.643c-1.054,-0.335 -2.256,-0.126 -3.152,0.991l-9.479,11.816Z" style="fill:#f48c85;fill-rule:nonzero;"/><path d="M450.41,499.392l-10.963,2.889c-1.673,0.44 -1.85,1.575 0,2.102l10.726,3.055l0.237,-8.046Z" style="fill:#2e93db;"/><path d="M450.41,499.392l-9.454,2.491c0.425,0.911 0.393,1.996 -0.133,2.891l9.35,2.664l0.237,-8.046Z" style="fill:#fca71f;"/><path d="M446.994,498.097l170.441,0.25l0.288,11.565l-170.892,-0.212l0.163,-11.603Z" style="fill:#4b6480;"/><path d="M617.578,504.13l0.144,5.782l-170.891,-0.212l0.082,-5.821l170.665,0.251Z" style="fill:#36485c;"/><path d="M582.523,494.324l43.309,-2.165l0.406,16.311l-2.351,-0.004l-0.357,-14.348l-40.959,2.168l-0.048,-1.962Z" style="fill:#36485c;"/><path d="M575.083,495.909l50.749,0.077l0.406,16.311l-50.749,-0.063l-0.406,-16.325Z" style="fill:#4b6480;"/><path d="M626.036,504.14l0.202,8.156l-50.749,-0.062l-0.203,-8.17l50.75,0.076Z" style="fill:#36485c;"/><path d="M571.231,498.251l3.912,0.044l0.288,11.565l-4.363,-0.006l0.163,-11.603Z" style="fill:#fca71f;"/></svg>