<?xml version="1.0" standalone="no"?><!DOCTYPE svg PUBLIC "-//W3C//DTD SVG 1.1//EN" "http://www.w3.org/Graphics/SVG/1.1/DTD/svg11.dtd"><svg width="100%" height="100%" viewBox="0 0 800 800" version="1.1" xmlns="http://www.w3.org/2000/svg" xmlns:xlink="http://www.w3.org/1999/xlink" xml:space="preserve" style="fill-rule:evenodd;clip-rule:evenodd;stroke-linejoin:round;stroke-miterlimit:1.41421;"><g id="Background"><path d="M672.008,365.003l99.407,63.125l-1.615,2.544l-99.408,-63.125l1.616,-2.544Z" style="fill:#f6931d;"/><path d="M795.506,446.996l4.413,2.804l0,-3.569l-2.799,-1.778l-1.615,2.543Z" style="fill:#f6931d;fill-rule:nonzero;"/><path d="M644.14,621.344l-7.741,-3.289l61.627,-145.071l-35.483,97.692l-2.682,6.311c-0.176,0.413 -0.187,0.855 -0.068,1.255l-2.029,5.589c-0.548,0.135 -1.028,0.517 -1.267,1.074l-2.777,6.538c-0.322,0.758 -0.093,1.621 0.507,2.132l-1.712,4.712c-0.869,-0.217 -1.797,0.226 -2.159,1.073l-2.775,6.537c-0.398,0.936 0.044,2.03 0.979,2.427c0.092,0.039 0.183,0.069 0.275,0.093l-4.695,12.927ZM662.005,579.508l-2.03,5.591c-0.154,-0.51 -0.523,-0.952 -1.048,-1.174c-0.381,-0.163 -0.788,-0.185 -1.163,-0.094l2.029,-5.589c0.156,0.509 0.523,0.95 1.049,1.172c0.381,0.163 0.788,0.186 1.163,0.094M698.026,472.984l18.417,-43.356l-35.482,97.689l-2.678,6.304c-0.176,0.412 -0.188,0.856 -0.068,1.257l-2.03,5.589c-0.548,0.134 -1.029,0.518 -1.268,1.073l-2.774,6.536c-0.323,0.761 -0.095,1.624 0.504,2.134l-1.712,4.712c-0.869,-0.217 -1.797,0.225 -2.156,1.073l-2.777,6.536c-0.398,0.938 0.042,2.032 0.98,2.43c0.091,0.038 0.181,0.067 0.273,0.091l-1.711,4.713c-0.139,-0.118 -0.3,-0.219 -0.476,-0.296c-0.939,-0.399 -2.032,0.042 -2.43,0.981l-0.095,0.226l35.483,-97.692ZM646.453,622.326l-2.313,-0.982l4.695,-12.927c0.868,0.217 1.797,-0.224 2.155,-1.072l2.778,-6.536c0.397,-0.939 -0.044,-2.03 -0.983,-2.43c-0.089,-0.037 -0.179,-0.067 -0.27,-0.092l1.712,-4.712c0.139,0.12 0.297,0.22 0.476,0.296c0.936,0.398 2.03,-0.042 2.428,-0.981l0.096,-0.227l-10.774,29.663ZM680.427,536.144l-2.03,5.59c-0.153,-0.51 -0.524,-0.95 -1.05,-1.174c-0.379,-0.161 -0.786,-0.185 -1.162,-0.093l2.03,-5.589c0.154,0.509 0.523,0.95 1.047,1.174c0.382,0.161 0.788,0.185 1.165,0.092M648.768,623.309l-2.315,-0.983l10.774,-29.663l2.681,-6.309c0.175,-0.413 0.187,-0.854 0.067,-1.255l2.03,-5.591c0.549,-0.134 1.031,-0.516 1.268,-1.073l2.775,-6.536c0.323,-0.76 0.095,-1.621 -0.504,-2.134l1.711,-4.713c0.868,0.218 1.796,-0.226 2.157,-1.071l2.777,-6.537c0.397,-0.937 -0.043,-2.032 -0.981,-2.428c-0.09,-0.038 -0.181,-0.07 -0.273,-0.094l1.712,-4.712c0.139,0.12 0.299,0.221 0.474,0.294c0.941,0.4 2.033,-0.042 2.432,-0.978l0.095,-0.225l-26.88,74.008ZM731.171,394.959l0.464,0.197l-32.251,88.796l-2.68,6.307c-0.175,0.412 -0.187,0.854 -0.067,1.254l-2.03,5.59c-0.548,0.136 -1.031,0.516 -1.267,1.074l-2.776,6.535c-0.323,0.76 -0.095,1.622 0.504,2.135l-1.711,4.712c-0.867,-0.219 -1.797,0.224 -2.158,1.072l-2.776,6.537c-0.397,0.937 0.043,2.03 0.98,2.428c0.091,0.039 0.182,0.069 0.274,0.092l-1.712,4.713c-0.139,-0.12 -0.3,-0.221 -0.475,-0.295c-0.94,-0.399 -2.032,0.043 -2.43,0.98l-0.099,0.231l35.482,-97.689l14.728,-34.669ZM698.848,492.78l-2.03,5.59c-0.154,-0.51 -0.524,-0.952 -1.049,-1.174c-0.381,-0.163 -0.787,-0.186 -1.162,-0.093l2.03,-5.59c0.152,0.511 0.523,0.95 1.047,1.175c0.382,0.161 0.789,0.184 1.164,0.092M651.081,624.291l-2.313,-0.982l26.88,-74.008l2.681,-6.312c0.176,-0.413 0.188,-0.855 0.068,-1.255l2.03,-5.59c0.548,-0.135 1.03,-0.516 1.267,-1.073l2.775,-6.536c0.324,-0.76 0.095,-1.622 -0.504,-2.134l1.712,-4.713c0.868,0.218 1.796,-0.224 2.157,-1.072l2.776,-6.536c0.398,-0.938 -0.042,-2.031 -0.982,-2.43c-0.088,-0.037 -0.179,-0.069 -0.271,-0.091l1.711,-4.712c0.139,0.119 0.3,0.22 0.476,0.295c0.939,0.399 2.032,-0.042 2.43,-0.982l0.099,-0.229l-42.992,118.36ZM731.635,395.156l2.315,0.983l-16.141,44.438l-2.683,6.315c-0.176,0.414 -0.189,0.857 -0.067,1.257l-2.031,5.59c-0.549,0.133 -1.029,0.516 -1.267,1.074l-2.776,6.536c-0.322,0.758 -0.093,1.621 0.505,2.134l-1.712,4.712c-0.867,-0.217 -1.797,0.224 -2.157,1.071l-2.776,6.537c-0.398,0.938 0.042,2.03 0.981,2.429c0.09,0.038 0.18,0.067 0.273,0.091l-1.712,4.713c-0.14,-0.118 -0.301,-0.219 -0.477,-0.295c-0.938,-0.399 -2.032,0.042 -2.429,0.98l-0.097,0.231l32.251,-88.796ZM717.271,449.414l-2.032,5.592c-0.153,-0.511 -0.523,-0.951 -1.049,-1.176c-0.38,-0.161 -0.786,-0.183 -1.162,-0.091l2.031,-5.59c0.153,0.51 0.522,0.95 1.046,1.174c0.383,0.162 0.789,0.185 1.166,0.091M653.396,625.276l-2.315,-0.985l42.992,-118.36l2.677,-6.305c0.175,-0.413 0.188,-0.855 0.068,-1.256l2.03,-5.59c0.55,-0.134 1.029,-0.518 1.268,-1.073l2.775,-6.538c0.323,-0.76 0.094,-1.621 -0.504,-2.133l1.712,-4.713c0.868,0.217 1.795,-0.224 2.155,-1.073l2.779,-6.534c0.396,-0.938 -0.045,-2.031 -0.982,-2.43c-0.09,-0.038 -0.181,-0.068 -0.273,-0.091l1.712,-4.712c0.138,0.119 0.299,0.219 0.476,0.295c0.939,0.397 2.031,-0.042 2.432,-0.982l0.096,-0.229l-59.098,162.709ZM733.95,396.139l2.313,0.982l-4.813,13.252c-0.548,0.137 -1.031,0.519 -1.267,1.075l-2.776,6.536c-0.323,0.759 -0.094,1.623 0.504,2.133l-1.711,4.713c-0.869,-0.217 -1.796,0.224 -2.158,1.073l-2.775,6.535c-0.398,0.938 0.042,2.031 0.979,2.43c0.092,0.038 0.181,0.069 0.274,0.091l-1.711,4.712c-0.141,-0.119 -0.3,-0.219 -0.479,-0.294c-0.936,-0.399 -2.03,0.043 -2.428,0.98l-0.093,0.22l16.141,-44.438ZM736.263,397.121l151.428,64.328l-94.772,223.096l-139.523,-59.269l59.098,-162.709l2.679,-6.307c0.173,-0.412 0.186,-0.854 0.066,-1.254l2.032,-5.592c0.548,-0.134 1.028,-0.516 1.265,-1.072l2.778,-6.536c0.322,-0.759 0.093,-1.622 -0.505,-2.135l1.711,-4.712c0.868,0.218 1.797,-0.224 2.155,-1.072l2.778,-6.537c0.399,-0.937 -0.043,-2.03 -0.982,-2.428c-0.088,-0.038 -0.179,-0.068 -0.271,-0.092l1.711,-4.713c0.139,0.12 0.299,0.22 0.476,0.294c0.939,0.4 2.031,-0.042 2.429,-0.98l2.777,-6.535c0.399,-0.939 -0.041,-2.031 -0.98,-2.429c-0.38,-0.162 -0.788,-0.186 -1.163,-0.094l4.813,-13.252Z" style="fill:#2e93db;"/><path d="M730.79,411.82l-13.88,-5.896c-0.581,-0.247 -1.259,0.027 -1.506,0.608c-0.247,0.581 0.028,1.259 0.608,1.505l13.881,5.896c0.582,0.246 1.259,-0.025 1.504,-0.605l0,-0.002c0.247,-0.581 -0.026,-1.258 -0.607,-1.506" style="fill:#9a57b4;"/><path d="M728.996,416.047l-13.881,-5.896c-0.583,-0.247 -1.259,0.027 -1.506,0.609c-0.247,0.58 0.027,1.258 0.607,1.505l13.882,5.895c0.58,0.248 1.257,-0.027 1.502,-0.607l0.002,0c0.247,-0.581 -0.027,-1.26 -0.606,-1.506" style="fill:#9a57b4;"/><path d="M724.658,426.259l-13.882,-5.897c-0.582,-0.248 -1.258,0.027 -1.505,0.609c-0.247,0.58 0.026,1.257 0.607,1.505l13.881,5.895c0.581,0.247 1.259,-0.026 1.505,-0.606l0.001,-0.001c0.246,-0.581 -0.027,-1.259 -0.607,-1.505" style="fill:#9a57b4;"/><path d="M722.862,430.485l-13.881,-5.897c-0.582,-0.246 -1.258,0.027 -1.506,0.608c-0.246,0.582 0.027,1.26 0.608,1.507l13.881,5.894c0.581,0.248 1.257,-0.026 1.505,-0.607l-0.002,0c0.249,-0.58 -0.025,-1.258 -0.605,-1.505" style="fill:#9a57b4;"/><path d="M718.523,440.695l-13.881,-5.896c-0.581,-0.247 -1.257,0.027 -1.505,0.608c-0.247,0.581 0.026,1.258 0.609,1.505l13.88,5.897c0.581,0.247 1.257,-0.027 1.505,-0.607l0,-0.001c0.246,-0.58 -0.026,-1.258 -0.608,-1.506" style="fill:#9a57b4;"/><path d="M716.729,444.923l-13.881,-5.896c-0.582,-0.248 -1.258,0.026 -1.505,0.607l0,0.001c-0.248,0.58 0.026,1.258 0.607,1.504l13.88,5.897c0.582,0.247 1.259,-0.027 1.505,-0.608l0,-0.001c0.249,-0.579 -0.025,-1.257 -0.606,-1.504" style="fill:#9a57b4;"/><path d="M712.391,455.133l-13.879,-5.896c-0.583,-0.247 -1.259,0.028 -1.508,0.608c-0.245,0.58 0.029,1.259 0.609,1.506l13.881,5.895c0.581,0.247 1.257,-0.026 1.503,-0.607c0.249,-0.58 -0.025,-1.258 -0.606,-1.506" style="fill:#9a57b4;"/><path d="M710.596,459.36l-13.88,-5.896c-0.582,-0.247 -1.26,0.026 -1.505,0.607l-0.002,0.001c-0.246,0.581 0.028,1.257 0.61,1.505l13.878,5.895c0.583,0.247 1.258,-0.025 1.505,-0.606l0.001,-0.002c0.247,-0.58 -0.027,-1.257 -0.607,-1.504" style="fill:#9a57b4;"/><path d="M706.258,469.57l-13.879,-5.896c-0.582,-0.247 -1.261,0.027 -1.507,0.608c-0.246,0.581 0.026,1.258 0.608,1.507l13.881,5.895c0.58,0.246 1.258,-0.027 1.503,-0.607l0.001,-0.001c0.247,-0.581 -0.026,-1.258 -0.607,-1.506" style="fill:#9a57b4;"/><path d="M704.462,473.799l-13.88,-5.897c-0.582,-0.249 -1.259,0.026 -1.506,0.607c-0.247,0.582 0.028,1.259 0.609,1.506l13.879,5.895c0.581,0.247 1.258,-0.027 1.505,-0.607c0.247,-0.582 -0.026,-1.258 -0.607,-1.504" style="fill:#9a57b4;"/><path d="M700.123,484.008l-13.879,-5.896c-0.581,-0.246 -1.257,0.027 -1.505,0.608c-0.246,0.581 0.026,1.258 0.608,1.505l13.88,5.896c0.581,0.248 1.258,-0.025 1.504,-0.606l0.001,-0.001c0.246,-0.58 -0.028,-1.258 -0.609,-1.506" style="fill:#9a57b4;"/><path d="M698.33,488.234l-13.881,-5.896c-0.582,-0.247 -1.259,0.027 -1.505,0.609l-0.003,-0.001c-0.245,0.582 0.029,1.259 0.611,1.506l13.879,5.896c0.581,0.247 1.258,-0.027 1.505,-0.607l0.001,0c0.247,-0.581 -0.028,-1.26 -0.607,-1.507" style="fill:#9a57b4;"/><path d="M693.991,498.445l-13.88,-5.896c-0.582,-0.247 -1.258,0.027 -1.506,0.607l0,0.001c-0.247,0.581 0.027,1.258 0.608,1.506l13.881,5.895c0.581,0.247 1.257,-0.025 1.504,-0.606l0,-0.002c0.247,-0.579 -0.026,-1.257 -0.607,-1.505" style="fill:#9a57b4;"/><path d="M692.196,502.673l-13.881,-5.896c-0.581,-0.248 -1.259,0.025 -1.505,0.608c-0.248,0.58 0.027,1.258 0.608,1.506l13.88,5.895c0.582,0.247 1.257,-0.027 1.504,-0.606l0.001,-0.002c0.247,-0.58 -0.027,-1.258 -0.607,-1.505" style="fill:#9a57b4;"/><path d="M687.858,512.885l-13.88,-5.897c-0.581,-0.248 -1.26,0.027 -1.507,0.607l0,0.001c-0.246,0.58 0.027,1.258 0.609,1.505l13.88,5.895c0.581,0.248 1.258,-0.026 1.504,-0.608c0.247,-0.58 -0.025,-1.257 -0.606,-1.503" style="fill:#9a57b4;"/><path d="M686.062,517.11l-13.881,-5.897c-0.582,-0.247 -1.258,0.027 -1.505,0.609c-0.246,0.58 0.027,1.258 0.608,1.505l13.881,5.896c0.58,0.246 1.257,-0.028 1.504,-0.608c0.247,-0.581 -0.025,-1.257 -0.607,-1.505" style="fill:#9a57b4;"/><path d="M681.725,527.321l-13.88,-5.896c-0.581,-0.248 -1.259,0.026 -1.506,0.608c-0.245,0.58 0.027,1.259 0.608,1.504l13.88,5.896c0.58,0.248 1.259,-0.025 1.505,-0.606c0.247,-0.581 -0.025,-1.26 -0.607,-1.506" style="fill:#9a57b4;"/><path d="M679.929,531.547l-13.879,-5.896c-0.582,-0.246 -1.26,0.027 -1.507,0.609c-0.247,0.579 0.027,1.259 0.608,1.506l13.881,5.894c0.581,0.247 1.258,-0.026 1.505,-0.606c0.246,-0.581 -0.027,-1.259 -0.608,-1.507" style="fill:#9a57b4;"/><path d="M675.592,541.76l-13.882,-5.896c-0.58,-0.249 -1.257,0.025 -1.504,0.607c-0.247,0.581 0.028,1.258 0.608,1.504l13.879,5.897c0.582,0.247 1.258,-0.026 1.507,-0.608c0.246,-0.581 -0.027,-1.258 -0.608,-1.504" style="fill:#9a57b4;"/><path d="M673.796,545.985l-13.88,-5.896c-0.581,-0.248 -1.259,0.026 -1.505,0.607l-0.001,0.001c-0.246,0.581 0.028,1.258 0.609,1.505l13.88,5.897c0.581,0.247 1.257,-0.027 1.504,-0.609l0.001,0c0.246,-0.579 -0.027,-1.257 -0.608,-1.505" style="fill:#9a57b4;"/><path d="M669.459,556.196l-13.88,-5.896c-0.582,-0.248 -1.259,0.026 -1.506,0.607l0.001,0.001c-0.248,0.58 0.026,1.259 0.607,1.505l13.881,5.895c0.58,0.247 1.256,-0.025 1.502,-0.608c0.249,-0.581 -0.026,-1.257 -0.605,-1.504" style="fill:#9a57b4;"/><path d="M667.664,560.423l-13.881,-5.897c-0.582,-0.247 -1.259,0.028 -1.506,0.608c-0.247,0.582 0.027,1.258 0.609,1.506l13.88,5.896c0.582,0.247 1.257,-0.026 1.503,-0.608l0.001,0c0.247,-0.581 -0.027,-1.257 -0.606,-1.505" style="fill:#9a57b4;"/><path d="M663.327,570.633l-13.882,-5.896c-0.581,-0.247 -1.259,0.027 -1.505,0.608l-0.001,0.001c-0.247,0.58 0.027,1.259 0.608,1.505l13.881,5.896c0.581,0.246 1.258,-0.027 1.504,-0.607c0.247,-0.582 -0.026,-1.259 -0.605,-1.507" style="fill:#9a57b4;"/><path d="M661.53,574.86l-13.881,-5.896c-0.581,-0.247 -1.259,0.027 -1.505,0.607l0,0.001c-0.247,0.581 0.026,1.258 0.607,1.506l13.882,5.895c0.58,0.246 1.256,-0.027 1.502,-0.607l0.002,0c0.247,-0.581 -0.027,-1.259 -0.607,-1.506" style="fill:#9a57b4;"/><path d="M657.192,585.071l-13.881,-5.896c-0.581,-0.248 -1.258,0.026 -1.504,0.607l0,0.001c-0.247,0.581 0.025,1.258 0.607,1.504l13.88,5.898c0.582,0.246 1.258,-0.027 1.506,-0.608l0,-0.001c0.246,-0.581 -0.027,-1.257 -0.608,-1.505" style="fill:#9a57b4;"/><path d="M655.397,589.299l-13.882,-5.897c-0.58,-0.248 -1.258,0.026 -1.505,0.608c-0.246,0.582 0.027,1.257 0.608,1.505l13.881,5.897c0.58,0.246 1.257,-0.027 1.504,-0.609c0.248,-0.58 -0.026,-1.259 -0.607,-1.504" style="fill:#9a57b4;"/><path d="M651.059,599.509l-13.88,-5.896c-0.582,-0.248 -1.259,0.027 -1.505,0.607l0,0.001c-0.247,0.58 0.028,1.258 0.608,1.506l13.881,5.895c0.58,0.246 1.256,-0.027 1.504,-0.607l0,-0.001c0.246,-0.58 -0.027,-1.258 -0.608,-1.505" style="fill:#9a57b4;"/><path d="M649.264,603.735l-13.881,-5.897c-0.58,-0.247 -1.257,0.028 -1.506,0.609c-0.245,0.581 0.029,1.258 0.609,1.505l13.88,5.896c0.582,0.247 1.258,-0.026 1.505,-0.608c0.248,-0.58 -0.027,-1.258 -0.607,-1.505" style="fill:#9a57b4;"/><path d="M332.96,296.364l-56.31,-235.76l333.432,-79.638l56.31,235.758l-333.432,79.64Z" style="fill:#fab867;"/><path d="M258.315,-84.997l147.681,153.104c7.942,8.236 7.705,21.474 -0.531,29.417l-34.942,33.703l-12.639,12.192c-3.081,2.972 -4.984,3.853 -8.293,2.301l-7.375,-3.456c-3.661,-1.716 -7.609,-0.606 -11.332,2.986l-43.699,42.15c-3.723,3.591 -4.974,7.496 -3.392,11.217l3.189,7.494c1.43,3.365 0.481,5.235 -2.6,8.207l-12.639,12.191l-95.218,91.846c-8.236,7.943 -21.473,7.704 -29.416,-0.531l-147.681,-153.105c-7.944,-8.235 -7.706,-21.471 0.53,-29.416l228.94,-220.83c8.236,-7.944 21.473,-7.705 29.417,0.53" style="fill:#36485c;"/><path d="M-104.06,228.554l239.322,38.455l-54.385,338.468l-239.321,-38.453l54.384,-338.47Z" style="fill:#fff;"/><path d="M-48.317,274.702l116.186,18.668l-0.957,5.959l-116.186,-18.669l0.957,-5.958Z" style="fill:#ccc;"/><path d="M-90.315,283.233l195.395,31.396l-0.958,5.958l-195.394,-31.395l0.957,-5.959Z" style="fill:#ccc;"/><path d="M-91.989,293.66l195.393,31.396l-0.957,5.959l-195.394,-31.397l0.958,-5.958Z" style="fill:#ccc;"/><path d="M-93.665,304.088l195.394,31.395l-0.957,5.958l-195.394,-31.395l0.957,-5.959Z" style="fill:#ccc;"/><path d="M-95.34,314.513l195.394,31.396l-0.958,5.959l-195.393,-31.396l0.957,-5.959Z" style="fill:#ccc;"/><path d="M-97.016,324.942l195.394,31.394l-0.958,5.959l-195.393,-31.395l0.957,-5.959Z" style="fill:#ccc;"/><path d="M-98.69,335.367l195.393,31.396l-0.958,5.958l-195.393,-31.396l0.958,-5.958Z" style="fill:#ccc;"/><path d="M-100.366,345.794l195.393,31.396l-0.957,5.958l-195.394,-31.395l0.958,-5.959Z" style="fill:#ccc;"/><path d="M-102.042,356.222l195.395,31.396l-0.958,5.957l-195.394,-31.395l0.957,-5.958Z" style="fill:#ccc;"/><path d="M45.543,523.382c13.994,2.248 23.516,15.416 21.267,29.411c-2.248,13.993 -15.416,23.515 -29.41,21.268c-13.994,-2.251 -23.516,-15.417 -21.267,-29.409c2.249,-13.998 15.416,-23.518 29.41,-21.27" style="fill:#f2675d;"/><path d="M24.127,567.638c-3.25,-2.986 -5.701,-6.779 -7.074,-11.002l24.419,-7.915l-17.345,18.917Z" style="fill:#fcd8d6;"/><path d="M17.053,556.636c-1.217,-3.746 -1.588,-7.83 -0.92,-11.984c1.302,-8.105 6.263,-14.707 12.927,-18.396l12.411,22.465l-24.418,7.915Z" style="fill:#f9b3af;"/><path d="M29.06,526.256c4.845,-2.68 10.59,-3.82 16.483,-2.874l-4.071,25.339l-12.412,-22.465Z" style="fill:#f48c85;"/><path d="M45.543,523.382l-4.071,25.339l20.913,-14.871c-3.846,-5.408 -9.773,-9.333 -16.842,-10.468" style="fill:#f2675d;"/><path d="M12.982,574.554l10.43,1.675l-0.477,2.974l-10.431,-1.675l0.478,-2.974Z" style="fill:#ccc;"/><path d="M28.243,577.004l30.987,4.981l-0.478,2.973l-30.987,-4.979l0.478,-2.975Z" style="fill:#ccc;"/><path d="M24.488,419.783l8.758,1.407l-1.254,7.799l-8.756,-1.407l1.252,-7.799Z" style="fill:#ffae00;"/><path d="M22.42,432.657l8.756,1.406l-1.252,7.801l-8.756,-1.409l1.252,-7.798Z" style="fill:#f7837b;"/><path d="M20.352,445.531l8.757,1.407l-1.253,7.799l-8.757,-1.407l1.253,-7.799Z" style="fill:#ffcda1;"/><path d="M18.282,458.405l8.758,1.406l-1.254,7.8l-8.757,-1.408l1.253,-7.798Z" style="fill:#596273;"/><path d="M16.214,471.279l8.757,1.406l-1.253,7.799l-8.757,-1.407l1.253,-7.798Z" style="fill:#6db4c2;"/><path d="M41.443,422.508l10.659,1.712l-1.253,7.799l-10.658,-1.712l1.252,-7.799Z" style="fill:#ccc;"/><path d="M39.376,435.382l24.381,3.916l-1.254,7.799l-24.38,-3.916l1.253,-7.799Z" style="fill:#ccc;"/><path d="M37.307,448.256l32.702,5.255l-1.253,7.798l-32.703,-5.253l1.254,-7.8Z" style="fill:#ccc;"/><path d="M55.968,424.842l27.314,4.389l-1.253,7.799l-27.314,-4.389l1.253,-7.799Z" style="fill:#ccc;"/><path d="M66.856,439.797l7.669,1.231l-1.254,7.801l-7.668,-1.231l1.253,-7.801Z" style="fill:#ccc;"/><path d="M77.299,441.474l18.892,3.037l-1.253,7.799l-18.893,-3.036l1.254,-7.8Z" style="fill:#ccc;"/><path d="M92.054,470.258l-10.658,-1.712l-1.253,7.799l10.658,1.712l1.253,-7.799Z" style="fill:#ccc;"/><path d="M77.53,467.925l-27.315,-4.39l-1.253,7.8l27.314,4.39l1.254,-7.8Z" style="fill:#ccc;"/><path d="M45.896,462.841l-10.657,-1.712l-1.254,7.801l10.658,1.712l1.253,-7.801Z" style="fill:#ccc;"/><path d="M62.504,478.718l-7.667,-1.233l-1.254,7.797l7.668,1.234l1.253,-7.798Z" style="fill:#ccc;"/><path d="M52.063,477.039l-18.893,-3.036l-1.253,7.8l18.892,3.035l1.254,-7.799Z" style="fill:#ccc;"/><path d="M-115.088,468.839l115.981,18.636l-0.251,1.565l-115.981,-18.637l0.251,-1.564Z" style="fill:#ccc;fill-rule:nonzero;"/><path d="M7.999,413.852l-11.837,73.666l-1.565,-0.253l11.837,-73.665l1.564,0.252Z" style="fill:#ccc;fill-rule:nonzero;"/><path d="M-112.311,451.553l115.982,18.637l-0.252,1.562l-115.981,-18.636l0.252,-1.563Z" style="fill:#ccc;fill-rule:nonzero;"/><path d="M-109.53,434.272l115.825,19.469l-0.256,1.557l-115.825,-19.469l0.256,-1.557Z" style="fill:#ccc;fill-rule:nonzero;"/><path d="M-106.755,416.983l115.98,18.637l-0.251,1.563l-115.98,-18.637l0.251,-1.563Z" style="fill:#ccc;fill-rule:nonzero;"/><path d="M-103.978,399.697l115.981,18.636l-0.251,1.564l-115.981,-18.636l0.251,-1.564Z" style="fill:#ccc;fill-rule:nonzero;"/><path d="M-83.675,420.975l-33.133,47.872l1.954,1.352l31.853,-46.021l13.693,35.693l0.487,1.273l1.196,-0.66l24.084,-13.282l18.709,20.159l1.063,1.144l0.819,-1.331l23.909,-38.788l4.275,2.635l0.637,-12.87l-11.211,6.353l4.277,2.635l-23.091,37.459l-18.278,-19.692l-0.631,-0.682l-0.815,0.449l-23.7,13.073l-14.011,-36.52l-0.806,-2.101l-1.28,1.85Z" style="fill:#6db4c2;fill-rule:nonzero;"/><path d="M423.273,111.308c26.023,1.743 116.813,17.378 130.555,21.821c13.745,4.442 13.774,21.855 13.15,28.9c-0.623,7.045 -9.111,8.286 -8.054,-3.636c1.054,-11.922 0.587,-18.473 -7.661,-19.942c-8.248,-1.468 -119.944,-17.521 -127.717,-18.424c-7.774,-0.903 -5.442,-9.501 -0.274,-8.719" style="fill:#254659;"/><path d="M572.185,124.487c-25.927,-2.854 -118.05,-3.408 -132.361,-1.448c-14.31,1.959 -17.398,19.096 -18.021,26.14c-0.623,7.046 7.515,9.758 8.569,-2.165c1.055,-11.921 2.666,-18.289 11.043,-18.285c8.377,0.002 121.157,3.815 128.968,4.292c7.812,0.477 7.027,-8.397 1.802,-8.534" style="fill:#254659;"/><path d="M462.659,111.837c-0.702,-0.138 -1.393,-0.266 -2.069,-0.383c-13.429,-2.308 -33.645,-2.418 -37.208,-1.612c-4.261,0.963 -4.41,1.291 -4.874,4.425c-0.464,3.134 -0.187,5.883 2.188,6.916c3.238,1.406 2.895,5.623 4.018,17.91c0.915,10.011 4.29,18.383 19.876,22.496l1.068,-2.947c-6.721,-1.977 -12.706,-5.663 -14.995,-10.805c-4.502,-10.113 -4.108,-29.706 3.121,-33.152c3.547,-1.691 16.069,-1.86 27.758,0.224l1.117,-3.072ZM497.293,120.866c-4.405,-0.293 -21.441,-6.435 -34.634,-9.029l-1.117,3.072c9.496,1.694 18.442,4.873 21.58,9.931c5.884,9.485 -6.783,30.215 -17.4,34.13c-5.259,1.939 -13.06,1.732 -20.064,-0.328l-1.068,2.947c1.837,0.485 3.84,0.912 6.033,1.274c20.403,3.37 28.458,-9.248 31.057,-13.312c4.638,-7.248 4.347,-17.831 14.722,-16.913c10.376,0.918 8.432,11.116 11.722,19.067c1.476,3.564 5.299,13.23 17.338,17.098l1.056,-2.912c-1.68,-0.52 -3.215,-1.168 -4.536,-1.942c-9.765,-5.719 -18.594,-28.351 -11.136,-36.655c5.188,-5.776 19.536,-6.67 31.721,-5.589l1.181,-3.25c-2.913,-0.225 -5.757,-0.365 -8.369,-0.382c-12.181,-0.076 -27.168,3.518 -38.086,2.793M525.462,168.803c3.018,0.971 6.552,1.577 10.699,1.63c21.072,0.27 26.708,-8.011 29.681,-18.85c3.264,-11.899 3.666,-16.109 7.1,-16.925c2.521,-0.6 3.277,-3.258 3.37,-6.425c0.094,-3.166 0.005,-3.516 -4.02,-5.212c-2.721,-1.146 -16.258,-3.617 -28.544,-4.566l-1.181,3.25c8.66,0.769 16.228,2.534 18.633,4.257c6.511,4.662 3.458,24.02 -2.75,33.185c-5.548,8.189 -21.54,9.95 -31.932,6.744l-1.056,2.912Z" style="fill:#000;"/><g><clipPath id="_clip1"><rect x="427.725" y="113.381" width="137.109" height="54.017"/></clipPath><g clip-path="url(#_clip1)"><g opacity="0.5"><clipPath id="_clip2"><rect x="427.725" y="113.381" width="137.109" height="54.017"/></clipPath><g clip-path="url(#_clip2)"><path d="M561.2,125.962c-5.789,-4.147 -41.479,-8.551 -50.354,1.332c-7.459,8.305 1.371,30.937 11.136,36.655c9.476,5.551 30.023,4.712 36.468,-4.803c6.208,-9.165 9.261,-28.522 2.75,-33.185M433.784,114.685c6.428,-3.064 42.335,-1.133 49.338,10.154c5.884,9.487 -6.783,30.215 -17.401,34.131c-10.303,3.799 -30.384,-0.635 -35.058,-11.132c-4.502,-10.114 -4.109,-29.706 3.121,-33.153" style="fill:#fff;"/></g></g></g></g><g><clipPath id="_clip3"><rect x="437.319" y="113.381" width="47.297" height="38.33"/></clipPath><g clip-path="url(#_clip3)"><g opacity="0.5"><clipPath id="_clip4"><rect x="437.319" y="113.381" width="47.297" height="38.33"/></clipPath><g clip-path="url(#_clip4)"><path d="M437.319,113.798c11.174,-1.571 39.648,1.123 45.803,11.042c4.126,6.652 -0.873,18.835 -7.889,26.87l-37.914,-37.912Z" style="fill:#fff;"/></g></g></g></g><g><clipPath id="_clip5"><rect x="516.944" y="121.308" width="47.89" height="40.892"/></clipPath><g clip-path="url(#_clip5)"><g opacity="0.5"><clipPath id="_clip6"><rect x="516.944" y="121.308" width="47.89" height="40.892"/></clipPath><g clip-path="url(#_clip6)"><path d="M516.944,123.587l38.617,38.614c1.136,-0.898 2.114,-1.913 2.889,-3.055c6.208,-9.165 9.261,-28.522 2.75,-33.185c-4.861,-3.481 -30.81,-7.143 -44.256,-2.375" style="fill:#fff;"/></g></g></g></g><path d="M546.309,329.293l243.684,29.142l-14.573,121.842l-243.682,-29.143l14.571,-121.841Z" style="fill:#fff;"/><path d="M672.325,399.415l85.239,10.194c2.469,0.295 4.249,2.559 3.954,5.03l-4.559,38.126c-0.296,2.47 -2.559,4.251 -5.028,3.955l-85.24,-10.193c-2.47,-0.297 -4.25,-2.559 -3.954,-5.03l4.559,-38.127c0.297,-2.47 2.558,-4.25 5.029,-3.955" style="fill:#98e6d6;"/><path d="M730.948,-11.718c33.21,-18.525 75.15,-6.62 93.674,26.591c18.526,33.211 6.62,75.15 -26.593,93.675c-33.209,18.525 -75.148,6.62 -93.673,-26.592c-18.524,-33.21 -6.62,-75.15 26.592,-93.674" style="fill:#fff;"/><path d="M733.009,-8.023c31.17,-17.386 70.531,-6.212 87.919,24.958c17.385,31.169 6.212,70.531 -24.958,87.917c-31.169,17.387 -70.532,6.212 -87.918,-24.957c-17.387,-31.169 -6.213,-70.532 24.957,-87.918" style="fill:#e6e6e6;"/><path d="M720.693,-21.414l4.033,-2.249c2.586,-1.442 5.882,-0.507 7.324,2.08l16.492,29.563c1.442,2.586 0.506,5.883 -2.08,7.326l-4.032,2.249c-2.587,1.443 -5.883,0.507 -7.326,-2.08l-16.489,-29.562c-1.443,-2.587 -0.509,-5.885 2.078,-7.327" style="fill:#fff;"/><path d="M722.737,-19.481l2.561,-1.428c1.642,-0.916 3.736,-0.322 4.653,1.322l15.479,27.752c0.918,1.643 0.324,3.736 -1.32,4.653l-2.56,1.429c-1.643,0.916 -3.737,0.322 -4.654,-1.321l-15.481,-27.753c-0.914,-1.643 -0.321,-3.737 1.322,-4.654" style="fill:#e6e6e6;"/><path d="M738.067,1.048c26.16,-14.592 59.197,-5.214 73.789,20.946c14.592,26.159 5.214,59.196 -20.947,73.788c-26.158,14.593 -59.196,5.215 -73.787,-20.946c-14.592,-26.161 -5.214,-59.196 20.945,-73.788" style="fill:#fff;"/><path d="M740.691,5.751c23.563,-13.144 53.319,-4.697 66.462,18.867c13.143,23.562 4.696,53.317 -18.866,66.46c-23.564,13.144 -53.32,4.697 -66.461,-18.865c-13.144,-23.564 -4.698,-53.318 18.865,-66.462" style="fill:#b3b3b3;"/><path d="M744.252,12.133c20.038,-11.176 45.341,-3.994 56.52,16.044c11.176,20.038 3.992,45.342 -16.045,56.519c-20.038,11.177 -45.342,3.993 -56.517,-16.044c-11.179,-20.038 -3.995,-45.342 16.042,-56.519" style="fill:#886734;"/><path d="M749.874,22.212c14.472,-8.072 32.746,-2.884 40.819,11.586c8.072,14.473 2.884,32.747 -11.589,40.82c-14.468,8.072 -32.746,2.885 -40.818,-11.587c-8.072,-14.472 -2.885,-32.747 11.588,-40.819" style="fill:#694f28;"/><path d="M778.665,14.315c7.405,3.073 13.866,8.566 18.074,16.111c9.937,17.812 3.55,40.304 -14.26,50.239c-7.545,4.208 -15.93,5.487 -23.844,4.212c6.976,0.463 14.163,-1.014 20.723,-4.674c18.09,-10.09 24.574,-32.934 14.486,-51.023c-3.662,-6.562 -8.998,-11.594 -15.179,-14.865" style="fill:#bd9d6e;"/><path d="M728.337,136.376l30.39,32.464c5.764,6.159 5.444,15.912 -0.713,21.676l-87.322,81.743c-6.157,5.763 -15.911,5.441 -21.675,-0.716l-30.39,-32.465c-5.765,-6.158 -5.442,-15.91 0.714,-21.675l87.321,-81.742c6.156,-5.764 15.911,-5.442 21.675,0.715" style="fill:#fff;"/><path d="M710.162,139.931l43.864,46.857l-83.013,77.711l-43.866,-46.857l83.015,-77.711Z" style="fill:#000;"/><path d="M727.627,147.764l19.733,21.08c0.537,0.572 1.443,0.602 2.016,0.066c0.572,-0.537 0.603,-1.443 0.066,-2.016l-19.731,-21.079c-0.537,-0.572 -1.443,-0.603 -2.017,-0.066l0.001,0c-0.574,0.536 -0.603,1.443 -0.068,2.015" style="fill:#b3b3b3;"/><path d="M710.161,139.931l-39.148,124.568l83.013,-77.711l-43.865,-46.857Z" style="fill:#4d4d4d;"/><path d="M647.628,242.386c3.267,3.489 3.086,8.966 -0.402,12.233c-3.491,3.266 -8.968,3.086 -12.234,-0.403c-3.268,-3.49 -3.087,-8.967 0.404,-12.233c3.489,-3.266 8.964,-3.086 12.232,0.403" style="fill:#fff;"/><path d="M645.763,244.132c2.303,2.46 2.176,6.32 -0.284,8.623c-2.459,2.301 -6.32,2.174 -8.622,-0.285c-2.302,-2.46 -2.174,-6.32 0.286,-8.622c2.458,-2.302 6.317,-2.175 8.62,0.284" style="fill:#b3b3b3;"/><path d="M25.22,286.469l-16.979,3.028l9.221,-14.576l106.857,-71.793c1.732,-1.164 4.101,-0.699 5.265,1.033l3.527,5.25c1.164,1.733 0.698,4.102 -1.033,5.266l-106.858,71.792Z" style="fill:#f85a68;"/><path d="M25.22,286.469l-16.979,3.028l13.624,-9.153l109.483,-73.558l1.763,2.625c1.164,1.733 0.698,4.102 -1.033,5.266l-106.858,71.792Z" style="fill:#c62229;"/><path d="M25.22,286.469l-16.979,3.028l9.221,-14.576l102.218,-68.677c3.424,3.602 5.962,7.447 7.759,11.549l-102.219,68.676Z" style="fill:#fff;"/><path d="M25.22,286.469l-16.979,3.028l13.624,-9.153l102.202,-68.666c1.333,1.972 2.449,4.009 3.372,6.115l-102.219,68.676Z" style="fill:#d0d0d0;"/><path d="M25.22,286.469l-16.979,3.028l9.221,-14.576l98.534,-66.201c3.488,3.591 6.023,7.435 7.76,11.548l-98.536,66.201Z" style="fill:#fab867;"/><path d="M25.22,286.469l-16.979,3.028l13.624,-9.153l98.554,-66.214c1.337,1.976 2.443,4.022 3.337,6.138l-98.536,66.201Z" style="fill:#f6931d;"/><path d="M25.22,286.469l-16.979,3.028l9.22,-14.575c1.574,1.605 3.059,3.419 4.403,5.422c1.346,2.003 2.465,4.062 3.356,6.125" style="fill:#f0b16c;"/><path d="M25.22,286.469l-16.979,3.028l13.624,-9.153c1.345,2.003 2.464,4.062 3.355,6.125" style="fill:#c78b4c;"/><path d="M13.85,288.496l-5.608,1l3.045,-4.815c0.52,0.531 1.011,1.129 1.455,1.792c0.443,0.662 0.814,1.343 1.108,2.023" style="fill:#1e1e1e;"/><path d="M430.937,647.164l7.366,18.678c0.285,0.722 -0.256,1.079 -1.204,0.793l-6.891,-2.083c-0.948,-0.287 -1.956,-1.112 -2.242,-1.834l-7.365,-18.679c-0.284,-0.721 0.257,-1.077 1.204,-0.792l6.892,2.084c0.949,0.287 1.957,1.111 2.24,1.833" style="fill:#f6931d;"/><path d="M434.172,650.934l10.193,25.846c0.395,1.001 -0.1,2.14 -1.1,2.534l-7.268,2.867c-1.001,0.394 -2.14,-0.101 -2.535,-1.101l-10.194,-25.845c-0.394,-1.002 0.101,-2.14 1.101,-2.534l7.269,-2.868c1,-0.394 2.139,0.101 2.534,1.101" style="fill:#fff;"/><path d="M447.635,662.648l34.099,86.449c0.946,2.405 -0.245,5.145 -2.646,6.093l-17.475,6.892c-2.403,0.947 -5.144,-0.243 -6.09,-2.646l-34.098,-86.451c-1.965,-4.983 2.415,-10.514 4.017,-11.147l11.65,-4.595c1.601,-0.631 8.578,0.42 10.543,5.405" style="fill:#f6931d;"/><path d="M452.306,664.383l31.655,80.261c0.67,1.701 -0.173,3.643 -1.875,4.314l-26.918,10.616c-1.703,0.672 -3.644,-0.17 -4.315,-1.872l-31.656,-80.26c-0.67,-1.703 0.172,-3.645 1.875,-4.317l26.92,-10.617c1.702,-0.671 3.643,0.173 4.314,1.875" style="fill:#fbd4a5;"/><path d="M452.845,665.75l30.576,77.525l-33.108,13.059l-30.576,-77.526l33.108,-13.058Z" style="fill:#f6931d;"/><path d="M425.215,595.693l11.752,29.799c0.672,1.703 -0.172,3.642 -1.874,4.314l-26.919,10.617c-1.702,0.672 -3.643,-0.17 -4.314,-1.872l-11.754,-29.8c-0.671,-1.704 0.171,-3.645 1.875,-4.317l26.919,-10.616c1.702,-0.671 3.642,0.173 4.315,1.875" style="fill:#fbd4a5;"/><path d="M431.936,622.232l-11.285,-28.611c-0.539,-1.369 -2.101,-2.047 -3.471,-1.506l-21.647,8.539c-1.369,0.538 -2.047,2.1 -1.506,3.47l11.283,28.609c0.54,1.368 2.102,2.046 3.47,1.508l21.647,-8.539c1.369,-0.539 2.048,-2.102 1.509,-3.471" style="fill:#f6931d;"/><path d="M734.44,592.358l3.522,19.768c0.135,0.764 -0.465,1.005 -1.337,0.537l-6.343,-3.408c-0.872,-0.468 -1.698,-1.474 -1.834,-2.241l-3.523,-19.765c-0.135,-0.765 0.467,-1.005 1.339,-0.537l6.343,3.405c0.871,0.469 1.696,1.476 1.832,2.241" style="fill:#bd1d2d;"/><path d="M736.864,596.694l4.873,27.351c0.189,1.058 -0.521,2.078 -1.579,2.266l-7.693,1.371c-1.058,0.189 -2.078,-0.522 -2.266,-1.58l-4.874,-27.353c-0.19,-1.059 0.522,-2.077 1.579,-2.267l7.693,-1.371c1.058,-0.188 2.079,0.523 2.267,1.583" style="fill:#fff;"/><path d="M747.742,610.841l16.305,91.49c0.452,2.542 -1.258,4.993 -3.798,5.446l-18.494,3.296c-2.542,0.454 -4.992,-1.257 -5.448,-3.798l-16.302,-91.491c-0.942,-5.274 4.448,-9.83 6.141,-10.131l12.33,-2.199c1.695,-0.299 8.325,2.112 9.266,7.387" style="fill:#f2675d;"/><path d="M751.976,613.467l15.138,84.938c0.32,1.802 -0.892,3.537 -2.692,3.86l-28.488,5.075c-1.802,0.321 -3.538,-0.889 -3.859,-2.69l-15.138,-84.939c-0.321,-1.802 0.89,-3.538 2.692,-3.859l28.488,-5.078c1.802,-0.319 3.538,0.89 3.859,2.693" style="fill:#f9b3af;"/><path d="M752.233,614.914l14.621,82.045l-35.039,6.244l-14.621,-82.045l35.039,-6.244Z" style="fill:#f2675d;"/><path d="M746.613,583.377l5.62,31.537c0.321,1.801 -0.89,3.536 -2.691,3.857l-28.49,5.078c-1.8,0.321 -3.536,-0.891 -3.858,-2.691l-5.621,-31.537c-0.319,-1.802 0.892,-3.538 2.693,-3.86l28.488,-5.075c1.802,-0.322 3.538,0.889 3.859,2.691" style="fill:#f9b3af;"/><path d="M747.947,610.721l-5.396,-30.279c-0.259,-1.449 -1.654,-2.421 -3.104,-2.164l-22.909,4.085c-1.449,0.257 -2.423,1.653 -2.164,3.102l5.395,30.277c0.259,1.451 1.655,2.423 3.103,2.167l22.91,-4.084c1.448,-0.26 2.423,-1.654 2.165,-3.104" style="fill:#f2675d;"/><path d="M196.555,60.391l71.104,13.178l-9.435,50.904l-23.942,16.456l-50.905,-9.434l13.178,-71.104Z" style="fill:#fff;"/><path d="M238.026,120.73l20.198,3.743l-23.943,16.455l3.745,-20.198Z" style="fill:#f48c85;"/><path d="M196.555,60.391l71.104,13.178l-1.959,10.572l-71.105,-13.177l1.96,-10.573Z" style="fill:#f48c85;"/><path d="M254.481,144.673l-20.199,-3.744l23.942,-16.456l-3.743,20.2Z" style="fill:#f9b3af;"/><path d="M191.508,712.639l11.946,-19.097l-9.324,-5.835l-11.948,19.097l9.326,5.835Z" style="fill:#fff;"/><path d="M202.499,705.73l-16.301,26.054c-2.578,4.121 -8.057,5.382 -12.178,2.803l-2.81,-1.757c-4.12,-2.578 -5.382,-8.058 -2.803,-12.178l16.299,-26.055l17.793,11.133Z" style="fill:#fff;"/><path d="M199.608,703.921l-15.216,24.32c-1.74,2.782 -5.439,3.632 -8.221,1.892l-1.896,-1.187c-2.782,-1.739 -3.633,-5.438 -1.893,-8.22l15.217,-24.32l12.009,7.515Z" style="fill:#fab867;"/><path d="M217.939,681.052l-4.904,7.841l-17.793,-11.131l4.904,-7.843c2.578,-4.118 8.059,-5.38 12.178,-2.803l2.812,1.759c4.119,2.576 5.382,8.056 2.803,12.177" style="fill:#fff;"/><path d="M213.963,680.978l-3.821,6.107l-12.011,-7.515l3.821,-6.108c1.74,-2.78 5.44,-3.633 8.221,-1.893l1.897,1.187c2.781,1.741 3.633,5.44 1.893,8.222" style="fill:#fab867;"/><path d="M200.18,694.511c-0.262,0.418 -0.814,0.545 -1.231,0.283c-0.419,-0.262 -0.545,-0.812 -0.284,-1.229c0.26,-0.419 0.813,-0.545 1.23,-0.283c0.418,0.26 0.546,0.812 0.285,1.229" style="fill:#909faf;"/><path d="M196.205,692.025c-0.262,0.417 -0.813,0.544 -1.23,0.282c-0.419,-0.26 -0.546,-0.812 -0.284,-1.23c0.261,-0.418 0.813,-0.543 1.231,-0.282c0.418,0.26 0.545,0.811 0.283,1.23" style="fill:#909faf;"/><path d="M149.546,81.767c0.388,-0.258 0.912,-0.152 1.169,0.234c0.259,0.389 0.154,0.912 -0.234,1.17l-16.814,11.192c-2.264,1.506 -4.574,1.182 -6.308,-0.044c-0.661,-0.467 -1.234,-1.063 -1.68,-1.732c-0.446,-0.67 -0.774,-1.428 -0.951,-2.219c-0.461,-2.073 0.132,-4.328 2.397,-5.835l24.6,-16.374c1.931,-1.284 3.861,-1.072 5.294,-0.106c0.548,0.369 1.02,0.853 1.386,1.404c0.366,0.553 0.628,1.177 0.758,1.826c0.34,1.713 -0.214,3.601 -2.158,4.895l-21.526,14.327c-1.493,0.992 -2.985,0.834 -4.092,0.091c-0.422,-0.281 -0.785,-0.653 -1.067,-1.078c-0.282,-0.425 -0.483,-0.906 -0.581,-1.404c-0.258,-1.326 0.176,-2.789 1.682,-3.792l14.101,-9.385c0.388,-0.258 0.911,-0.152 1.17,0.235c0.257,0.387 0.152,0.911 -0.235,1.169l-14.101,9.386c-0.851,0.566 -1.102,1.357 -0.965,2.062c0.055,0.287 0.169,0.561 0.328,0.798c0.159,0.241 0.365,0.451 0.604,0.611c0.58,0.389 1.387,0.458 2.221,-0.098l21.526,-14.327c1.287,-0.857 1.66,-2.071 1.444,-3.162c-0.086,-0.433 -0.262,-0.853 -0.507,-1.223c-0.247,-0.371 -0.563,-0.695 -0.928,-0.941c-0.906,-0.611 -2.147,-0.73 -3.42,0.117l-24.601,16.373c-1.589,1.059 -2.01,2.63 -1.688,4.067c0.127,0.576 0.375,1.138 0.714,1.648c0.338,0.509 0.763,0.954 1.243,1.294c1.204,0.851 2.816,1.07 4.405,0.012l16.814,-11.191Z" style="fill:#fff;fill-rule:nonzero;"/><path d="M592.97,275.791l87.479,56.094l-32.577,50.8l-87.477,-56.093l32.575,-50.801Z" style="fill:#fff;"/><path d="M611.955,308.069l6.796,4.357l-2.585,4.032l-6.795,-4.357l2.584,-4.032Z" style="fill:#ccc;"/><path d="M620.908,313.81l12.253,7.857l-2.586,4.031l-12.251,-7.857l2.584,-4.031Z" style="fill:#ccc;"/><path d="M635.101,322.91l6.868,4.404l-2.585,4.032l-6.869,-4.404l2.586,-4.032Z" style="fill:#ccc;"/><path d="M620.587,342.568l2.311,1.482l-1.533,2.389l-2.311,-1.482l1.533,-2.389Z" style="fill:#ccc;"/><path d="M624.382,345.002l5.438,3.486l-1.534,2.389l-5.436,-3.486l1.532,-2.389Z" style="fill:#ccc;"/><path d="M631.212,349.382l2.313,1.482l-1.534,2.389l-2.31,-1.482l1.531,-2.389Z" style="fill:#ccc;"/><path d="M635.008,351.815l5.438,3.487l-1.534,2.388l-5.436,-3.486l1.532,-2.389Z" style="fill:#ccc;"/><path d="M603.917,321.83l6.119,3.924l-1.533,2.389l-6.118,-3.924l1.532,-2.389Z" style="fill:#ccc;"/><path d="M611.56,326.732l2.563,1.642l-1.532,2.389l-2.562,-1.643l1.531,-2.389Z" style="fill:#ccc;"/><path d="M615.193,329.061l2.562,1.643l-1.532,2.39l-2.561,-1.643l1.531,-2.39Z" style="fill:#ccc;"/><path d="M618.979,331.487l6.119,3.924l-1.532,2.39l-6.12,-3.924l1.533,-2.39Z" style="fill:#ccc;"/><path d="M626.623,336.389l2.562,1.644l-1.533,2.388l-2.561,-1.643l1.532,-2.389Z" style="fill:#ccc;"/><path d="M630.256,338.719l2.563,1.643l-1.533,2.389l-2.563,-1.643l1.533,-2.389Z" style="fill:#ccc;"/><path d="M587.157,321.132l6.832,4.381l-1.531,2.389l-6.833,-4.381l1.532,-2.389Z" style="fill:#ccc;"/><path d="M595.692,326.605l2.86,1.835l-1.53,2.389l-2.862,-1.835l1.532,-2.389Z" style="fill:#ccc;"/><path d="M599.748,329.206l2.862,1.835l-1.533,2.389l-2.86,-1.835l1.531,-2.389Z" style="fill:#ccc;"/><path d="M603.975,331.916l6.833,4.381l-1.533,2.39l-6.832,-4.381l1.532,-2.39Z" style="fill:#ccc;"/><path d="M612.509,337.389l2.861,1.835l-1.531,2.389l-2.861,-1.834l1.531,-2.39Z" style="fill:#ccc;"/><path d="M616.567,339.99l2.86,1.835l-1.533,2.389l-2.86,-1.835l1.533,-2.389Z" style="fill:#ccc;"/><path d="M591.288,330.18l-2.912,-1.867l-1.531,2.39l2.912,1.867l1.531,-2.39Z" style="fill:#ccc;"/><path d="M633.409,357.19l-8.609,-5.52l-1.533,2.389l8.61,5.52l1.532,-2.389Z" style="fill:#ccc;"/><path d="M622.654,350.295l-3.604,-2.313l-1.534,2.389l3.606,2.313l1.532,-2.39Z" style="fill:#ccc;"/><path d="M617.544,347.017l-3.604,-2.312l-1.534,2.389l3.606,2.312l1.532,-2.389Z" style="fill:#ccc;"/><path d="M612.22,343.603l-8.61,-5.521l-1.533,2.389l8.612,5.521l1.531,-2.389Z" style="fill:#ccc;"/><path d="M601.465,336.707l-3.606,-2.313l-1.531,2.39l3.604,2.312l1.533,-2.389Z" style="fill:#ccc;"/><path d="M596.354,333.429l-3.605,-2.312l-1.533,2.39l3.605,2.311l1.533,-2.389Z" style="fill:#ccc;"/><path d="M253.785,593.128l74.35,-0.489l0.013,1.948l-74.35,0.489l-0.013,-1.948Z" style="fill:#fff;"/><path d="M253.84,601.351l74.35,-0.49l0.013,1.949l-74.351,0.487l-0.012,-1.946Z" style="fill:#fff;"/><path d="M253.894,609.572l74.35,-0.49l0.012,1.948l-74.349,0.488l-0.013,-1.946Z" style="fill:#fff;"/><path d="M253.948,617.795l74.35,-0.491l0.014,1.949l-74.351,0.488l-0.013,-1.946Z" style="fill:#fff;"/><path d="M254.002,626.017l74.349,-0.489l0.013,1.945l-74.35,0.491l-0.012,-1.947Z" style="fill:#fff;"/><path d="M254.056,634.238l74.351,-0.49l0.012,1.947l-74.35,0.489l-0.013,-1.946Z" style="fill:#fff;"/><path d="M254.11,642.459l74.35,-0.489l0.012,1.948l-74.349,0.488l-0.013,-1.947Z" style="fill:#fff;"/><path d="M254.165,650.682l74.35,-0.489l0.012,1.947l-74.35,0.49l-0.012,-1.948Z" style="fill:#fff;"/><path d="M254.219,658.902l74.35,-0.488l0.013,1.947l-74.35,0.49l-0.013,-1.949Z" style="fill:#fff;"/><path d="M254.272,667.126l74.35,-0.491l0.014,1.949l-74.351,0.49l-0.013,-1.948Z" style="fill:#fff;"/><path d="M254.327,675.347l74.35,-0.49l0.012,1.949l-74.349,0.489l-0.013,-1.948Z" style="fill:#fff;"/><path d="M254.381,683.569l74.35,-0.49l0.013,1.948l-74.35,0.491l-0.013,-1.949Z" style="fill:#fff;"/><path d="M254.435,691.79l74.35,-0.489l0.013,1.948l-74.349,0.49l-0.014,-1.949Z" style="fill:#fff;"/><path d="M254.489,700.013l74.35,-0.489l0.013,1.948l-74.35,0.489l-0.013,-1.948Z" style="fill:#fff;"/><path d="M254.543,708.235l74.351,-0.49l0.012,1.947l-74.35,0.49l-0.013,-1.947Z" style="fill:#fff;"/><path d="M254.598,716.457l74.35,-0.489l0.013,1.947l-74.35,0.489l-0.013,-1.947Z" style="fill:#fff;"/><path d="M245.23,576.819l14.043,-0.093l-2.459,6.773c-0.287,-0.105 -0.597,-0.16 -0.921,-0.158c-1.461,0.009 -2.639,1.204 -2.628,2.665c0.006,1.136 0.73,2.103 1.742,2.47l-9.527,26.23l-0.25,-37.887ZM259.273,576.726l10.002,-0.065l-2.46,6.773c-0.288,-0.104 -0.597,-0.161 -0.921,-0.159c-1.461,0.01 -2.639,1.202 -2.629,2.665c0.007,1.137 0.732,2.104 1.742,2.469l-19.35,53.275l-0.177,-26.978l9.527,-26.23c0.286,0.105 0.597,0.159 0.921,0.157c1.462,-0.008 2.638,-1.201 2.629,-2.664c-0.008,-1.136 -0.732,-2.103 -1.743,-2.47l2.459,-6.773ZM269.275,576.661l10.001,-0.066l-2.46,6.773c-0.288,-0.105 -0.598,-0.161 -0.921,-0.158c-1.462,0.008 -2.639,1.202 -2.629,2.664c0.008,1.137 0.733,2.102 1.743,2.47l-29.174,80.322l-0.178,-26.982l19.35,-53.275c0.288,0.104 0.598,0.161 0.921,0.159c1.462,-0.01 2.638,-1.202 2.629,-2.663c-0.007,-1.14 -0.732,-2.104 -1.742,-2.471l2.46,-6.773ZM279.276,576.595l10.001,-0.066l-2.46,6.773c-0.287,-0.104 -0.598,-0.161 -0.921,-0.16c-1.462,0.011 -2.639,1.203 -2.629,2.667c0.007,1.137 0.732,2.102 1.743,2.47l-38.997,107.366l-0.178,-26.979l29.174,-80.322c0.287,0.104 0.598,0.161 0.921,0.158c1.461,-0.009 2.638,-1.204 2.629,-2.664c-0.007,-1.136 -0.732,-2.102 -1.743,-2.47l2.46,-6.773ZM289.277,576.529l10.001,-0.065l-2.461,6.771c-0.286,-0.104 -0.597,-0.159 -0.92,-0.157c-1.462,0.01 -2.639,1.203 -2.63,2.664c0.008,1.138 0.734,2.102 1.743,2.472l-48.82,134.412l-0.177,-26.981l38.997,-107.366c0.286,0.103 0.596,0.159 0.92,0.156c1.462,-0.01 2.639,-1.201 2.63,-2.662c-0.008,-1.139 -0.732,-2.104 -1.743,-2.471l2.46,-6.773ZM299.278,576.464l10,-0.067l-2.459,6.773c-0.287,-0.105 -0.598,-0.161 -0.921,-0.159c-1.462,0.011 -2.639,1.203 -2.629,2.664c0.007,1.139 0.732,2.103 1.743,2.472l-50.785,139.823l-8.001,0.053l-0.036,-5.397l48.82,-134.412c0.288,0.103 0.598,0.159 0.922,0.157c1.462,-0.01 2.637,-1.204 2.629,-2.665c-0.009,-1.136 -0.732,-2.102 -1.744,-2.471l2.461,-6.771ZM309.278,576.397l10.001,-0.065l-2.459,6.772c-0.288,-0.104 -0.598,-0.161 -0.922,-0.158c-1.461,0.01 -2.637,1.201 -2.628,2.663c0.006,1.139 0.732,2.104 1.743,2.471l-50.785,139.825l-10.001,0.065l50.785,-139.823c0.287,0.104 0.597,0.16 0.92,0.158c1.461,-0.01 2.638,-1.203 2.629,-2.665c-0.007,-1.137 -0.732,-2.102 -1.742,-2.47l2.459,-6.773ZM319.279,576.332l10.002,-0.066l-2.46,6.773c-0.288,-0.106 -0.598,-0.161 -0.922,-0.159c-1.461,0.01 -2.638,1.203 -2.628,2.665c0.007,1.136 0.732,2.102 1.742,2.47l-50.785,139.824l-10,0.066l50.785,-139.825c0.287,0.104 0.596,0.161 0.92,0.159c1.462,-0.01 2.639,-1.203 2.63,-2.663c-0.008,-1.139 -0.732,-2.105 -1.743,-2.472l2.459,-6.772ZM329.281,576.266l7.194,-0.048l0.996,151.205l-63.243,0.416l50.785,-139.824c0.288,0.104 0.598,0.16 0.921,0.158c1.461,-0.01 2.639,-1.203 2.629,-2.664c-0.008,-1.137 -0.732,-2.104 -1.742,-2.47l2.46,-6.773Z" style="fill:#36485c;"/><path d="M247.465,579.026l11,-0.074l-1.65,4.547c-0.288,-0.105 -0.598,-0.161 -0.922,-0.158c-1.461,0.009 -2.638,1.204 -2.628,2.664c0.006,1.137 0.73,2.104 1.742,2.471l-7.347,20.227l-0.195,-29.678ZM258.465,578.953l10.002,-0.067l-1.651,4.548c-0.288,-0.104 -0.598,-0.16 -0.922,-0.159c-1.461,0.01 -2.639,1.202 -2.629,2.665c0.007,1.138 0.732,2.105 1.742,2.47l-17.169,47.274l-0.178,-26.981l7.347,-20.226c0.287,0.105 0.597,0.159 0.921,0.156c1.462,-0.007 2.639,-1.2 2.629,-2.663c-0.008,-1.136 -0.732,-2.103 -1.742,-2.47l1.65,-4.547ZM268.467,578.886l10.001,-0.066l-1.651,4.548c-0.289,-0.104 -0.599,-0.16 -0.922,-0.158c-1.462,0.009 -2.638,1.202 -2.629,2.665c0.008,1.137 0.733,2.102 1.743,2.47l-26.993,74.322l-0.178,-26.983l17.169,-47.274c0.288,0.104 0.598,0.16 0.921,0.159c1.462,-0.01 2.639,-1.202 2.629,-2.663c-0.007,-1.14 -0.732,-2.105 -1.741,-2.471l1.651,-4.549ZM278.468,578.82l10.001,-0.066l-1.652,4.548c-0.287,-0.104 -0.598,-0.161 -0.921,-0.16c-1.462,0.011 -2.639,1.203 -2.629,2.667c0.008,1.137 0.732,2.102 1.743,2.47l-36.817,101.364l-0.177,-26.977l26.993,-74.322c0.287,0.104 0.598,0.16 0.921,0.158c1.461,-0.009 2.639,-1.204 2.629,-2.664c-0.007,-1.136 -0.732,-2.102 -1.742,-2.47l1.651,-4.548ZM288.469,578.755l10.001,-0.067l-1.652,4.548c-0.287,-0.106 -0.598,-0.159 -0.921,-0.158c-1.462,0.01 -2.639,1.203 -2.63,2.664c0.008,1.138 0.734,2.102 1.743,2.471l-46.639,128.411l-0.178,-26.981l36.817,-101.364c0.287,0.102 0.597,0.159 0.92,0.156c1.462,-0.01 2.639,-1.201 2.63,-2.661c-0.008,-1.139 -0.732,-2.105 -1.743,-2.471l1.652,-4.548ZM298.47,578.689l10,-0.066l-1.651,4.548c-0.287,-0.106 -0.598,-0.161 -0.921,-0.159c-1.462,0.01 -2.639,1.202 -2.629,2.663c0.007,1.139 0.732,2.104 1.743,2.472l-49.978,137.599l-6.603,0.044l-0.06,-9.165l46.639,-128.411c0.288,0.104 0.599,0.159 0.922,0.158c1.462,-0.01 2.637,-1.204 2.629,-2.665c-0.009,-1.137 -0.732,-2.103 -1.743,-2.471l1.652,-4.548ZM308.47,578.623l10.002,-0.068l-1.652,4.549c-0.288,-0.104 -0.598,-0.161 -0.921,-0.158c-1.462,0.01 -2.638,1.201 -2.629,2.663c0.007,1.139 0.732,2.104 1.743,2.471l-49.977,137.598l-10.002,0.067l49.978,-137.598c0.287,0.104 0.597,0.16 0.92,0.158c1.461,-0.01 2.638,-1.203 2.629,-2.665c-0.007,-1.137 -0.732,-2.102 -1.742,-2.47l1.651,-4.547ZM318.472,578.555l10.001,-0.064l-1.652,4.548c-0.288,-0.106 -0.598,-0.161 -0.922,-0.16c-1.461,0.011 -2.638,1.204 -2.628,2.666c0.007,1.136 0.732,2.102 1.742,2.47l-49.977,137.598l-10,0.065l49.977,-137.598c0.287,0.104 0.597,0.161 0.92,0.159c1.462,-0.01 2.639,-1.203 2.63,-2.663c-0.008,-1.139 -0.732,-2.105 -1.743,-2.472l1.652,-4.549ZM328.473,578.492l5.798,-0.038l0.966,146.764l-60.201,0.395l49.977,-137.597c0.288,0.104 0.598,0.159 0.921,0.157c1.461,-0.01 2.639,-1.202 2.629,-2.663c-0.008,-1.138 -0.732,-2.105 -1.742,-2.471l1.652,-4.548Z" style="fill:#fff;"/><path d="M247.613,601.522l86.806,-0.571l0.007,1.134l-86.805,0.571l-0.008,-1.134Z" style="fill:#bdcad9;"/><path d="M247.669,610.14l86.807,-0.571l0.006,1.135l-86.805,0.571l-0.008,-1.135Z" style="fill:#bdcad9;"/><path d="M247.726,618.758l86.807,-0.572l0.006,1.135l-86.805,0.571l-0.008,-1.134Z" style="fill:#bdcad9;"/><path d="M247.783,627.375l86.806,-0.572l0.007,1.135l-86.806,0.572l-0.007,-1.135Z" style="fill:#bdcad9;"/><path d="M247.84,635.991l86.806,-0.57l0.007,1.133l-86.806,0.572l-0.007,-1.135Z" style="fill:#bdcad9;"/><path d="M247.897,644.61l86.805,-0.573l0.008,1.135l-86.806,0.572l-0.007,-1.135Z" style="fill:#bdcad9;"/><path d="M247.954,653.226l86.806,-0.572l0.007,1.135l-86.806,0.573l-0.007,-1.136Z" style="fill:#bdcad9;"/><path d="M248.011,661.843l86.806,-0.571l0.007,1.135l-86.806,0.572l-0.007,-1.136Z" style="fill:#bdcad9;"/><path d="M248.067,670.461l86.806,-0.572l0.007,1.135l-86.806,0.572l-0.007,-1.135Z" style="fill:#bdcad9;"/><path d="M248.124,679.077l86.805,-0.57l0.008,1.133l-86.806,0.573l-0.007,-1.136Z" style="fill:#bdcad9;"/><path d="M248.181,687.695l86.805,-0.572l0.008,1.135l-86.806,0.572l-0.007,-1.135Z" style="fill:#bdcad9;"/><path d="M248.237,696.312l86.806,-0.57l0.007,1.133l-86.806,0.573l-0.007,-1.136Z" style="fill:#bdcad9;"/><path d="M248.293,704.93l86.806,-0.571l0.008,1.134l-86.806,0.571l-0.008,-1.134Z" style="fill:#bdcad9;"/><path d="M248.351,713.547l86.805,-0.571l0.008,1.133l-86.806,0.574l-0.007,-1.136Z" style="fill:#bdcad9;"/><path d="M265.819,571.962c0.952,-0.007 1.731,0.765 1.739,1.715l0.076,11.764c0.007,0.951 -0.763,1.73 -1.714,1.738c-0.949,0.006 -1.731,-0.766 -1.738,-1.714l-0.077,-11.765c-0.007,-0.951 0.766,-1.733 1.714,-1.738" style="fill:#f48c85;"/><path d="M275.82,571.896c0.951,-0.007 1.731,0.765 1.737,1.716l0.077,11.763c0.007,0.95 -0.763,1.731 -1.714,1.738c-0.949,0.007 -1.731,-0.766 -1.737,-1.715l-0.078,-11.764c-0.007,-0.951 0.766,-1.731 1.715,-1.738" style="fill:#f48c85;"/><path d="M285.821,571.83c0.95,-0.007 1.731,0.765 1.737,1.715l0.078,11.764c0.006,0.951 -0.764,1.73 -1.715,1.739c-0.949,0.006 -1.732,-0.767 -1.738,-1.716l-0.078,-11.765c-0.006,-0.95 0.767,-1.732 1.716,-1.737" style="fill:#f48c85;"/><path d="M295.821,571.764c0.952,-0.007 1.732,0.765 1.738,1.715l0.077,11.764c0.006,0.95 -0.763,1.731 -1.714,1.738c-0.949,0.007 -1.732,-0.765 -1.738,-1.715l-0.078,-11.764c-0.006,-0.951 0.766,-1.731 1.715,-1.738" style="fill:#f48c85;"/><path d="M305.822,571.698c0.951,-0.007 1.731,0.765 1.737,1.715l0.078,11.764c0.006,0.951 -0.765,1.733 -1.714,1.739c-0.949,0.006 -1.732,-0.767 -1.739,-1.716l-0.077,-11.765c-0.006,-0.95 0.767,-1.731 1.715,-1.737" style="fill:#f48c85;"/><path d="M315.823,571.631c0.95,-0.006 1.731,0.766 1.738,1.717l0.077,11.762c0.006,0.952 -0.764,1.732 -1.715,1.739c-0.948,0.007 -1.731,-0.766 -1.739,-1.715l-0.077,-11.763c-0.006,-0.953 0.767,-1.732 1.716,-1.74" style="fill:#f48c85;"/><path d="M325.824,571.566c0.951,-0.007 1.731,0.765 1.737,1.715l0.078,11.764c0.007,0.951 -0.764,1.731 -1.715,1.739c-0.949,0.006 -1.731,-0.767 -1.738,-1.716l-0.077,-11.764c-0.007,-0.951 0.766,-1.732 1.715,-1.738" style="fill:#f48c85;"/><path d="M255.819,572.026c0.95,-0.006 1.731,0.766 1.737,1.716l0.077,11.763c0.007,0.951 -0.764,1.732 -1.714,1.738c-0.949,0.008 -1.732,-0.765 -1.738,-1.714l-0.078,-11.765c-0.006,-0.95 0.767,-1.73 1.716,-1.738" style="fill:#f48c85;"/><path d="M314.631,612.022l1.393,-1l0.03,0.014l0.028,0.013l0.026,0.014l0.024,0.016l0.021,0.016l0.02,0.018l0.016,0.018l0.016,0.02l0.012,0.018l0.011,0.021l0.008,0.022l0.007,0.023l0.004,0.024l0.002,0.023l0,0.022l-0.001,0.027l-0.005,0.024l-0.007,0.025l-0.008,0.025l-0.01,0.027l-0.012,0.027l-0.015,0.025l-0.017,0.028l-0.019,0.026l-0.021,0.027l-0.022,0.026l-0.024,0.027l-0.028,0.027l-0.029,0.025l-0.031,0.027l-0.033,0.026l-0.035,0.027l-0.036,0.025l-0.038,0.024l-0.039,0.024l-0.04,0.023l-0.041,0.021l-0.04,0.021l-0.042,0.021l-0.042,0.017l-0.044,0.017l-0.043,0.016l-0.043,0.015l-0.044,0.017l-0.044,0.012l-0.044,0.012l-0.045,0.011l-0.045,0.01l-0.043,0.008l-0.045,0.007l-0.042,0.007l-0.044,0.005l-0.042,0.005l-0.042,0.002l-0.042,0l-0.04,0l-0.04,-0.001l-0.04,-0.003l-0.038,-0.004l-0.037,-0.006l-0.036,-0.006l-0.035,-0.008l-0.033,-0.008l-0.032,-0.012ZM316.024,611.022l-1.393,1l-0.223,-0.221l-0.005,-0.089l0.008,-0.05l0.009,-0.039l0.01,-0.037l0.012,-0.036l0.013,-0.039l0.013,-0.036l0.016,-0.044l0.017,-0.046l0.019,-0.046l0.018,-0.046l0.019,-0.052l0.022,-0.052l0.021,-0.055l0.022,-0.053l0.023,-0.057l0.023,-0.056l0.023,-0.057l0.023,-0.058l0.023,-0.057l0.023,-0.056l0.023,-0.053l0.022,-0.059l0.021,-0.052l0.021,-0.053l0.02,-0.049l0.019,-0.048l0.017,-0.048l0.016,-0.042l0.014,-0.038l0.013,-0.036l1.807,-0.244l-0.016,0.043l-0.017,0.047l-0.018,0.049l-0.019,0.049l-0.02,0.051l-0.021,0.054l-0.022,0.054l-0.023,0.057l-0.021,0.053l-0.023,0.059l-0.024,0.059l-0.023,0.057l-0.023,0.057l-0.023,0.057l-0.023,0.057l-0.023,0.054l-0.021,0.053l-0.021,0.053l-0.02,0.05l-0.019,0.047l-0.017,0.046l-0.017,0.043l-0.015,0.038l-0.012,0.034l-0.012,0.03l-0.008,0.028l-0.006,0.018l-0.004,0.011l0.003,-0.021l-0.005,-0.072l-0.216,-0.211ZM316.328,610.449l-0.958,-0.618l0.041,-0.023l0.042,-0.022l0.042,-0.02l0.044,-0.021l0.043,-0.018l0.044,-0.018l0.044,-0.014l0.045,-0.017l0.044,-0.012l0.044,-0.014l0.045,-0.013l0.044,-0.009l0.045,-0.008l0.044,-0.008l0.044,-0.008l0.042,-0.005l0.043,-0.004l0.042,-0.004l0.042,-0.002l0.041,0l0.04,0.001l0.038,0.002l0.038,0.003l0.038,0.005l0.035,0.006l0.035,0.007l0.033,0.009l0.033,0.008l0.03,0.012l0.03,0.013l0.026,0.014l0.026,0.016l0.024,0.016l0.021,0.015l0.019,0.02l0.017,0.019l0.014,0.022l0.012,0.018l0.01,0.024l0.007,0.02l0.006,0.024l0.004,0.022l0.001,0.025l-0.001,0.025l-0.004,0.024l-0.005,0.026l-0.007,0.025l-0.01,0.026l-0.011,0.026l-0.014,0.024l-0.015,0.028l-0.018,0.026l-0.018,0.027l-0.023,0.027l-0.023,0.025l-0.025,0.027l-0.028,0.027l-0.029,0.025l-0.031,0.027l-0.032,0.025l-0.035,0.025l-0.037,0.024l-0.037,0.024l-0.041,0.024ZM316.753,610.018l-1.807,0.243l1.382,0.187l-0.139,0.08l-0.163,0.09l-0.184,0.1l-0.205,0.111l-0.224,0.119l-0.244,0.125l-0.261,0.135l-0.277,0.137l-0.29,0.143l-0.304,0.146l-0.316,0.148l-0.325,0.148l-0.336,0.151l-0.343,0.149l-0.347,0.145l-0.355,0.141l-0.358,0.139l-0.361,0.133l-0.364,0.124l-0.365,0.119l-0.364,0.108l-0.364,0.099l-0.364,0.086l-0.362,0.072l-0.359,0.058l-0.354,0.038l-0.348,0.017l-0.336,-0.008l-0.319,-0.034l-0.295,-0.064l-0.264,-0.095l-0.228,-0.124l1.587,-0.901l0.094,0.051l0.102,0.037l0.112,0.023l0.127,0.015l0.146,0.002l0.165,-0.008l0.188,-0.021l0.208,-0.033l0.229,-0.045l0.246,-0.058l0.262,-0.072l0.275,-0.082l0.285,-0.091l0.293,-0.102l0.3,-0.111l0.303,-0.117l0.305,-0.123l0.305,-0.127l0.302,-0.129l0.3,-0.135l0.292,-0.134l0.285,-0.134l0.276,-0.133l0.266,-0.13l0.251,-0.125l0.238,-0.122l0.221,-0.115l0.204,-0.107l0.185,-0.099l0.16,-0.087l0.138,-0.077l0.11,-0.063l1.383,0.187ZM306.498,612.863l1.811,-0.261l-0.01,0.028l-0.012,0.028l-0.014,0.027l-0.017,0.027l-0.019,0.028l-0.02,0.026l-0.022,0.027l-0.023,0.026l-0.026,0.026l-0.028,0.027l-0.029,0.026l-0.031,0.024l-0.031,0.026l-0.034,0.023l-0.035,0.023l-0.035,0.023l-0.038,0.023l-0.038,0.023l-0.04,0.019l-0.04,0.02l-0.041,0.02l-0.042,0.017l-0.043,0.019l-0.044,0.015l-0.044,0.016l-0.045,0.015l-0.045,0.014l-0.045,0.01l-0.046,0.012l-0.047,0.011l-0.047,0.008l-0.047,0.008l-0.046,0.005l-0.045,0.004l-0.044,0.004l-0.044,0.003l-0.042,-0.003l-0.04,0.001l-0.039,-0.003l-0.038,-0.004l-0.037,-0.004l-0.036,-0.005l-0.033,-0.01l-0.032,-0.007l-0.032,-0.01l-0.028,-0.012l-0.027,-0.011l-0.027,-0.012l-0.023,-0.016l-0.023,-0.015l-0.021,-0.016l-0.018,-0.018l-0.016,-0.018l-0.015,-0.019l-0.012,-0.019l-0.012,-0.021l-0.008,-0.022l-0.006,-0.023l-0.004,-0.023l-0.002,-0.025l0.001,-0.025l0.003,-0.025l0.005,-0.028l0.008,-0.027ZM308.197,612.283l-1.587,0.901l-0.112,-0.321l0.066,-0.205l0.066,-0.194l0.062,-0.18l0.061,-0.17l0.06,-0.159l0.059,-0.151l0.057,-0.141l0.058,-0.134l0.06,-0.128l0.059,-0.121l0.06,-0.116l0.062,-0.111l0.065,-0.108l0.066,-0.105l0.067,-0.099l0.072,-0.1l0.074,-0.098l0.076,-0.094l0.078,-0.096l0.079,-0.092l0.082,-0.091l0.084,-0.093l0.088,-0.094l0.089,-0.097l0.092,-0.099l0.098,-0.105l0.101,-0.109l0.106,-0.115l0.111,-0.124l0.118,-0.13l0.126,-0.142l0.131,-0.149l1.584,0.119l-0.138,0.16l-0.134,0.149l-0.125,0.14l-0.118,0.132l-0.113,0.122l-0.106,0.112l-0.098,0.108l-0.091,0.099l-0.087,0.093l-0.079,0.085l-0.073,0.08l-0.069,0.078l-0.063,0.074l-0.06,0.071l-0.054,0.068l-0.052,0.069l-0.049,0.069l-0.049,0.071l-0.048,0.076l-0.047,0.08l-0.048,0.085l-0.048,0.092l-0.048,0.099l-0.051,0.109l-0.05,0.116l-0.052,0.128l-0.054,0.137l-0.056,0.147l-0.057,0.163l-0.06,0.172l-0.063,0.187l-0.066,0.2l-0.112,-0.32ZM310.591,609.058l-1.536,-0.173l0.028,-0.028l0.028,-0.028l0.031,-0.027l0.032,-0.024l0.034,-0.026l0.034,-0.026l0.035,-0.023l0.038,-0.023l0.038,-0.023l0.039,-0.02l0.04,-0.02l0.039,-0.021l0.043,-0.02l0.041,-0.017l0.043,-0.016l0.044,-0.016l0.043,-0.017l0.044,-0.012l0.044,-0.013l0.044,-0.012l0.045,-0.012l0.045,-0.009l0.044,-0.007l0.044,-0.008l0.044,-0.005l0.044,-0.006l0.044,-0.002l0.043,-0.002l0.042,-0.001l0.042,0.001l0.04,0.003l0.041,0.005l0.038,0.004l0.037,0.007l0.035,0.007l0.034,0.01l0.031,0.009l0.029,0.013l0.028,0.012l0.026,0.013l0.024,0.015l0.021,0.017l0.021,0.015l0.017,0.017l0.016,0.02l0.014,0.019l0.012,0.02l0.009,0.022l0.008,0.021l0.005,0.022l0.005,0.023l0.001,0.026l-0.001,0.022l-0.003,0.026l-0.005,0.024l-0.007,0.026l-0.01,0.027l-0.011,0.027l-0.014,0.025l-0.017,0.027l-0.018,0.027l-0.02,0.029l-0.024,0.029l-0.025,0.027ZM310.615,609.031l-1.584,-0.119l1.56,0.146l-0.148,0.146l-0.168,0.144l-0.193,0.154l-0.217,0.166l-0.245,0.177l-0.27,0.192l-0.294,0.204l-0.317,0.211l-0.339,0.221l-0.357,0.229l-0.374,0.232l-0.391,0.237l-0.402,0.24l-0.416,0.24l-0.425,0.238l-0.432,0.236l-0.439,0.231l-0.444,0.227l-0.446,0.216l-0.448,0.208l-0.448,0.197l-0.448,0.185l-0.447,0.17l-0.445,0.154l-0.443,0.135l-0.442,0.114l-0.439,0.09l-0.433,0.058l-0.422,0.025l-0.401,-0.019l-0.369,-0.063l-0.321,-0.109l1.455,-0.972l0.114,0.038l0.122,0.02l0.139,0.007l0.17,-0.01l0.202,-0.028l0.236,-0.048l0.268,-0.07l0.299,-0.091l0.323,-0.112l0.343,-0.13l0.359,-0.149l0.375,-0.165l0.383,-0.177l0.389,-0.19l0.394,-0.2l0.395,-0.206l0.394,-0.216l0.388,-0.219l0.382,-0.22l0.371,-0.22l0.361,-0.219l0.347,-0.217l0.329,-0.21l0.311,-0.203l0.289,-0.194l0.265,-0.182l0.237,-0.169l0.208,-0.151l0.175,-0.133l0.134,-0.107l0.093,-0.081l0.037,-0.034l1.56,0.146ZM298.574,613.901l1.844,-0.485l0,0.026l-0.002,0.025l-0.005,0.026l-0.007,0.028l-0.008,0.026l-0.012,0.027l-0.013,0.027l-0.015,0.025l-0.017,0.027l-0.021,0.027l-0.02,0.025l-0.022,0.028l-0.026,0.025l-0.026,0.027l-0.028,0.025l-0.029,0.025l-0.032,0.025l-0.032,0.023l-0.035,0.026l-0.034,0.022l-0.037,0.023l-0.038,0.022l-0.039,0.021l-0.04,0.02l-0.042,0.021l-0.042,0.018l-0.044,0.018l-0.044,0.018l-0.046,0.017l-0.045,0.014l-0.047,0.014l-0.047,0.014l-0.048,0.011l-0.047,0.009l-0.046,0.01l-0.046,0.008l-0.044,0.007l-0.045,0.003l-0.042,0.006l-0.043,0l-0.041,0.002l-0.04,-0.002l-0.04,-0.001l-0.038,-0.002l-0.037,-0.006l-0.036,-0.005l-0.034,-0.007l-0.033,-0.007l-0.03,-0.009l-0.031,-0.01l-0.028,-0.011l-0.027,-0.015l-0.025,-0.011l-0.023,-0.016l-0.022,-0.017l-0.02,-0.017l-0.018,-0.017l-0.015,-0.019l-0.014,-0.02l-0.012,-0.021l-0.009,-0.024l-0.008,-0.021l-0.004,-0.026l-0.003,-0.023ZM300.223,613.171l-1.455,0.973l-0.194,-0.244l-0.003,-0.143l0.007,-0.149l0.014,-0.161l0.022,-0.17l0.029,-0.18l0.035,-0.185l0.043,-0.194l0.048,-0.201l0.053,-0.207l0.059,-0.211l0.065,-0.215l0.068,-0.217l0.075,-0.22l0.077,-0.222l0.082,-0.221l0.085,-0.222l0.089,-0.219l0.092,-0.217l0.095,-0.215l0.097,-0.209l0.101,-0.207l0.101,-0.198l0.104,-0.194l0.108,-0.186l0.109,-0.178l0.112,-0.172l0.116,-0.164l0.121,-0.158l0.13,-0.151l0.143,-0.146l0.166,-0.149l0.211,-0.153l1.103,0.528l0.018,-0.012l-0.03,0.027l-0.054,0.056l-0.07,0.082l-0.081,0.105l-0.086,0.121l-0.089,0.137l-0.092,0.15l-0.093,0.162l-0.092,0.172l-0.094,0.182l-0.091,0.189l-0.09,0.194l-0.089,0.201l-0.087,0.203l-0.083,0.209l-0.081,0.208l-0.077,0.21l-0.074,0.211l-0.07,0.207l-0.065,0.207l-0.062,0.203l-0.055,0.198l-0.05,0.194l-0.045,0.186l-0.039,0.179l-0.031,0.17l-0.027,0.16l-0.019,0.148l-0.012,0.135l-0.004,0.122l0.001,0.106l-0.195,-0.245ZM302.699,607.945l-1.838,0.369l0.005,-0.025l0.007,-0.029l0.01,-0.026l0.012,-0.027l0.014,-0.027l0.016,-0.028l0.018,-0.026l0.021,-0.027l0.021,-0.026l0.023,-0.028l0.026,-0.026l0.027,-0.025l0.029,-0.026l0.03,-0.025l0.032,-0.025l0.033,-0.023l0.034,-0.024l0.036,-0.022l0.037,-0.022l0.039,-0.022l0.039,-0.021l0.04,-0.021l0.042,-0.018l0.042,-0.019l0.043,-0.018l0.044,-0.016l0.045,-0.016l0.045,-0.015l0.045,-0.014l0.048,-0.013l0.046,-0.01l0.048,-0.011l0.047,-0.009l0.046,-0.009l0.046,-0.004l0.044,-0.006l0.045,-0.003l0.041,0l0.042,-0.001l0.04,0.001l0.039,0.002l0.038,0.003l0.037,0.005l0.036,0.006l0.066,0.016l0.03,0.01l0.03,0.008l0.027,0.013l0.026,0.014l0.025,0.014l0.022,0.014l0.021,0.018l0.019,0.016l0.017,0.018l0.028,0.04l0.01,0.021l0.009,0.022l0.007,0.023l0.004,0.023l0.002,0.025l0,0.025l-0.003,0.027ZM302.331,608.394l-1.103,-0.528l1.471,0.079l-0.151,0.283l-0.126,0.128l-0.134,0.122l-0.159,0.135l-0.188,0.154l-0.218,0.17l-0.245,0.19l-0.273,0.205l-0.297,0.219l-0.322,0.233l-0.345,0.241l-0.365,0.252l-0.382,0.259l-0.399,0.264l-0.415,0.267l-0.427,0.267l-0.438,0.269l-0.449,0.264l-0.457,0.259l-0.463,0.254l-0.469,0.247l-0.473,0.235l-0.477,0.223l-0.479,0.21l-0.48,0.193l-0.482,0.175l-0.485,0.155l-0.484,0.129l-0.484,0.101l-0.479,0.068l-0.467,0.028l-0.446,-0.014l0.972,-1.089l0.198,0.005l0.216,-0.013l0.243,-0.034l0.272,-0.057l0.3,-0.08l0.326,-0.105l0.35,-0.127l0.368,-0.149l0.384,-0.167l0.395,-0.186l0.404,-0.199l0.408,-0.216l0.412,-0.224l0.411,-0.235l0.408,-0.241l0.402,-0.244l0.396,-0.249l0.384,-0.247l0.372,-0.245l0.358,-0.241l0.341,-0.237l0.321,-0.226l0.3,-0.217l0.277,-0.203l0.25,-0.188l0.222,-0.173l0.19,-0.149l0.155,-0.126l0.116,-0.1l0.069,-0.062l0.003,0l-0.103,0.209l1.47,0.08ZM290.355,613.963l1.744,-0.755l0.015,0.019l0.012,0.023l0.008,0.023l0.008,0.021l0.005,0.025l0.003,0.024l-0.001,0.024l-0.001,0.025l-0.004,0.024l-0.007,0.028l-0.009,0.025l-0.01,0.025l-0.012,0.029l-0.015,0.024l-0.017,0.027l-0.018,0.024l-0.021,0.029l-0.022,0.026l-0.024,0.025l-0.025,0.027l-0.028,0.025l-0.03,0.024l-0.03,0.027l-0.033,0.024l-0.034,0.025l-0.036,0.024l-0.038,0.023l-0.038,0.024l-0.04,0.02l-0.043,0.023l-0.042,0.019l-0.045,0.021l-0.044,0.018l-0.046,0.019l-0.046,0.016l-0.046,0.014l-0.045,0.015l-0.046,0.013l-0.044,0.01l-0.046,0.01l-0.044,0.01l-0.045,0.006l-0.044,0.009l-0.042,0.003l-0.044,0.003l-0.042,0.002l-0.041,0.002l-0.039,0l-0.04,-0.001l-0.039,-0.004l-0.036,-0.002l-0.036,-0.005l-0.035,-0.007l-0.034,-0.009l-0.033,-0.008l-0.029,-0.01l-0.029,-0.011l-0.028,-0.013l-0.027,-0.014l-0.024,-0.014l-0.022,-0.017l-0.021,-0.017l-0.019,-0.018l-0.016,-0.021ZM291.713,613.041l-0.972,1.089l-0.386,-0.168l-0.084,-0.127l-0.067,-0.136l-0.054,-0.141l-0.041,-0.15l-0.028,-0.154l-0.02,-0.16l-0.007,-0.165l-0.001,-0.168l0.008,-0.173l0.016,-0.175l0.022,-0.181l0.028,-0.181l0.033,-0.183l0.039,-0.185l0.043,-0.184l0.047,-0.186l0.05,-0.185l0.052,-0.182l0.054,-0.182l0.057,-0.177l0.057,-0.175l0.059,-0.172l0.058,-0.168l0.059,-0.161l0.056,-0.157l0.055,-0.152l0.054,-0.143l0.049,-0.133l0.049,-0.128l0.043,-0.116l0.04,-0.108l0.034,-0.096l1.805,-0.24l-0.037,0.103l-0.041,0.112l-0.044,0.117l-0.048,0.128l-0.05,0.134l-0.053,0.141l-0.054,0.149l-0.055,0.15l-0.056,0.16l-0.056,0.16l-0.056,0.166l-0.055,0.168l-0.055,0.172l-0.051,0.17l-0.05,0.173l-0.048,0.172l-0.043,0.174l-0.039,0.171l-0.036,0.169l-0.03,0.166l-0.025,0.164l-0.02,0.159l-0.014,0.153l-0.006,0.149l-0.001,0.142l0.007,0.135l0.015,0.128l0.022,0.117l0.029,0.108l0.037,0.099l0.043,0.085l0.049,0.076l-0.386,-0.167ZM291.992,609.264l0.05,-1.012l0.047,-0.01l0.048,-0.009l0.045,-0.007l0.045,-0.007l0.045,-0.003l0.043,-0.005l0.042,-0.002l0.082,0l0.039,0.003l0.038,0.003l0.038,0.005l0.035,0.004l0.034,0.008l0.032,0.009l0.032,0.008l0.03,0.011l0.054,0.024l0.024,0.014l0.023,0.016l0.022,0.015l0.019,0.016l0.018,0.02l0.014,0.018l0.014,0.021l0.011,0.021l0.009,0.022l0.007,0.022l0.005,0.025l0.002,0.024l0,0.026l-0.003,0.027l-0.004,0.026l-0.008,0.027l-0.009,0.027l-0.011,0.026l-0.014,0.027l-0.015,0.027l-0.018,0.027l-0.019,0.027l-0.022,0.026l-0.024,0.026l-0.024,0.026l-0.027,0.026l-0.028,0.026l-0.03,0.024l-0.031,0.025l-0.034,0.024l-0.033,0.024l-0.037,0.023l-0.037,0.023l-0.037,0.021l-0.04,0.022l-0.04,0.021l-0.041,0.018l-0.042,0.021l-0.044,0.016l-0.044,0.018l-0.045,0.015l-0.045,0.016l-0.047,0.013l-0.047,0.013l-0.047,0.012ZM292.92,608.638l-1.805,0.24l0.877,0.386l0.112,-0.034l-0.024,0.013l-0.114,0.063l-0.169,0.106l-0.213,0.142l-0.245,0.176l-0.273,0.199l-0.297,0.223l-0.318,0.243l-0.339,0.259l-0.357,0.273l-0.374,0.284l-0.39,0.294l-0.405,0.3l-0.42,0.303l-0.433,0.308l-0.447,0.305l-0.46,0.304l-0.47,0.3l-0.484,0.292l-0.495,0.284l-0.507,0.269l-0.519,0.258l-0.532,0.243l-0.544,0.221l-0.558,0.201l-0.566,0.173l-0.577,0.144l-0.581,0.108l-0.579,0.068l-0.574,0.027l-0.56,-0.018l0.941,-1.092l0.366,0.012l0.361,-0.017l0.361,-0.041l0.365,-0.07l0.373,-0.091l0.381,-0.117l0.392,-0.141l0.403,-0.163l0.409,-0.188l0.416,-0.207l0.42,-0.226l0.422,-0.24l0.421,-0.255l0.419,-0.266l0.415,-0.274l0.41,-0.282l0.404,-0.284l0.396,-0.288l0.386,-0.285l0.377,-0.285l0.366,-0.278l0.353,-0.269l0.341,-0.261l0.328,-0.25l0.314,-0.236l0.303,-0.223l0.29,-0.205l0.284,-0.192l0.283,-0.175l0.297,-0.165l0.338,-0.153l0.427,-0.136l0.878,0.386ZM278.865,615.411l1.77,-0.721l0.013,0.021l0.01,0.023l0.007,0.024l0.005,0.023l0.003,0.024l0,0.026l-0.001,0.023l-0.005,0.026l-0.006,0.027l-0.009,0.024l-0.01,0.027l-0.012,0.025l-0.015,0.026l-0.016,0.028l-0.018,0.025l-0.021,0.028l-0.023,0.025l-0.024,0.026l-0.025,0.027l-0.027,0.025l-0.029,0.026l-0.03,0.024l-0.033,0.025l-0.034,0.025l-0.036,0.024l-0.036,0.022l-0.039,0.024l-0.04,0.021l-0.042,0.022l-0.042,0.02l-0.044,0.02l-0.045,0.019l-0.047,0.019l-0.045,0.016l-0.046,0.014l-0.046,0.015l-0.046,0.013l-0.045,0.011l-0.045,0.01l-0.045,0.011l-0.045,0.006l-0.044,0.006l-0.042,0.005l-0.044,0.005l-0.042,0.002l-0.04,0.001l-0.04,-0.001l-0.04,-0.001l-0.039,-0.002l-0.036,-0.004l-0.037,-0.005l-0.035,-0.006l-0.033,-0.007l-0.032,-0.009l-0.031,-0.01l-0.029,-0.011l-0.028,-0.012l-0.026,-0.014l-0.024,-0.015l-0.023,-0.018l-0.02,-0.015l-0.019,-0.019l-0.017,-0.019l-0.015,-0.02ZM280.221,614.503l-0.941,1.092l-0.415,-0.185l-0.101,-0.199l-0.065,-0.204l-0.028,-0.211l0.004,-0.217l0.038,-0.221l0.066,-0.223l0.093,-0.222l0.117,-0.226l0.138,-0.224l0.158,-0.22l0.175,-0.22l0.188,-0.219l0.202,-0.217l0.212,-0.213l0.22,-0.211l0.23,-0.206l0.235,-0.204l0.238,-0.201l0.24,-0.193l0.242,-0.191l0.241,-0.186l0.239,-0.181l0.234,-0.174l0.228,-0.168l0.222,-0.16l0.212,-0.155l0.201,-0.143l0.189,-0.138l0.173,-0.126l0.156,-0.115l0.138,-0.103l0.114,-0.092l1.323,0.37l-0.154,0.121l-0.166,0.126l-0.176,0.131l-0.185,0.134l-0.195,0.142l-0.202,0.144l-0.208,0.152l-0.213,0.155l-0.217,0.159l-0.222,0.164l-0.218,0.166l-0.221,0.169l-0.216,0.172l-0.214,0.175l-0.209,0.174l-0.202,0.174l-0.192,0.174l-0.184,0.175l-0.173,0.174l-0.158,0.17l-0.145,0.167l-0.132,0.166l-0.114,0.161l-0.097,0.157l-0.08,0.152l-0.06,0.146l-0.042,0.143l-0.025,0.138l-0.003,0.133l0.018,0.128l0.039,0.128l0.064,0.123l-0.414,-0.187ZM284.762,610.018l-0.572,-0.81l0.045,-0.019l0.046,-0.017l0.046,-0.016l0.045,-0.015l0.046,-0.014l0.045,-0.01l0.045,-0.012l0.045,-0.01l0.045,-0.009l0.044,-0.006l0.044,-0.005l0.042,-0.005l0.043,-0.003l0.042,-0.003l0.04,-0.001l0.04,0.001l0.039,0.002l0.038,0.003l0.037,0.005l0.036,0.004l0.034,0.007l0.033,0.008l0.032,0.009l0.03,0.01l0.029,0.013l0.027,0.013l0.025,0.013l0.024,0.015l0.021,0.017l0.02,0.019l0.018,0.019l0.017,0.02l0.013,0.021l0.011,0.023l0.009,0.021l0.006,0.024l0.004,0.023l0.002,0.025l-0.001,0.024l-0.002,0.026l-0.005,0.025l-0.007,0.026l-0.009,0.025l-0.012,0.028l-0.013,0.024l-0.015,0.027l-0.018,0.026l-0.018,0.026l-0.021,0.028l-0.023,0.025l-0.025,0.025l-0.026,0.027l-0.029,0.026l-0.029,0.025l-0.031,0.026l-0.034,0.024l-0.034,0.026l-0.037,0.022l-0.037,0.024l-0.04,0.02l-0.04,0.024l-0.043,0.021l-0.042,0.021l-0.045,0.02ZM285.137,609.797l-1.323,-0.37l0.948,0.591l-0.353,0.141l-0.402,0.149l-0.451,0.158l-0.501,0.168l-0.549,0.178l-0.595,0.187l-0.637,0.196l-0.674,0.201l-0.709,0.208l-0.739,0.211l-0.766,0.216l-0.786,0.217l-0.804,0.215l-0.818,0.217l-0.827,0.215l-0.832,0.213l-0.832,0.205l-0.829,0.201l-0.822,0.194l-0.809,0.184l-0.793,0.174l-0.774,0.164l-0.751,0.151l-0.723,0.137l-0.691,0.123l-0.657,0.106l-0.618,0.088l-0.58,0.068l-0.538,0.048l-0.495,0.023l-0.453,-0.005l-0.411,-0.036l1.09,-1.075l0.196,0.019l0.283,0l0.365,-0.019l0.432,-0.038l0.496,-0.058l0.552,-0.079l0.6,-0.097l0.643,-0.113l0.682,-0.13l0.714,-0.142l0.743,-0.159l0.765,-0.167l0.784,-0.178l0.797,-0.188l0.808,-0.195l0.812,-0.202l0.812,-0.207l0.809,-0.209l0.799,-0.212l0.786,-0.213l0.769,-0.213l0.746,-0.21l0.719,-0.206l0.688,-0.2l0.653,-0.195l0.61,-0.186l0.566,-0.179l0.514,-0.166l0.459,-0.153l0.394,-0.139l0.322,-0.119l0.239,-0.096l0.947,0.589ZM263.173,614.562l1.831,-0.335l-0.006,0.025l-0.009,0.029l-0.011,0.027l-0.014,0.027l-0.015,0.027l-0.017,0.027l-0.019,0.028l-0.021,0.025l-0.024,0.028l-0.025,0.025l-0.026,0.026l-0.028,0.026l-0.03,0.026l-0.032,0.024l-0.032,0.025l-0.033,0.024l-0.036,0.022l-0.037,0.023l-0.038,0.021l-0.039,0.021l-0.039,0.02l-0.042,0.023l-0.041,0.017l-0.043,0.018l-0.043,0.017l-0.045,0.016l-0.045,0.015l-0.046,0.014l-0.045,0.012l-0.047,0.013l-0.047,0.01l-0.047,0.009l-0.046,0.008l-0.047,0.007l-0.046,0.006l-0.044,0.003l-0.043,0.002l-0.042,0.002l-0.04,-0.001l-0.04,-0.002l-0.038,-0.004l-0.038,-0.005l-0.035,-0.005l-0.035,-0.006l-0.033,-0.008l-0.032,-0.008l-0.03,-0.01l-0.028,-0.014l-0.026,-0.012l-0.025,-0.014l-0.023,-0.015l-0.021,-0.014l-0.02,-0.018l-0.018,-0.016l-0.016,-0.02l-0.014,-0.021l-0.01,-0.02l-0.01,-0.021l-0.008,-0.023l-0.005,-0.022l-0.002,-0.026l0,-0.024l0.001,-0.027l0.005,-0.027ZM264.633,613.858l-1.09,1.075l-0.37,-0.371l0.003,-0.019l0.003,-0.018l0.002,-0.018l0.001,-0.015l0.002,-0.018l0,-0.017l0.001,-0.019l0.002,-0.023l0.002,-0.024l0.002,-0.029l0.005,-0.031l0.008,-0.042l0.015,-0.048l0.021,-0.049l0.029,-0.058l0.036,-0.053l0.042,-0.058l0.053,-0.061l0.052,-0.051l0.054,-0.051l0.058,-0.049l0.054,-0.043l0.05,-0.038l0.055,-0.039l0.058,-0.042l0.06,-0.04l0.059,-0.038l0.06,-0.038l0.065,-0.043l0.068,-0.041l0.073,-0.047l0.078,-0.048l1.044,0.566l-0.071,0.043l-0.063,0.04l-0.057,0.037l-0.049,0.031l-0.044,0.029l-0.037,0.025l-0.025,0.016l-0.018,0.012l-0.015,0.01l-0.009,0.007l0.012,-0.008l0.013,-0.015l0.018,-0.018l0.023,-0.026l0.02,-0.025l0.015,-0.025l0.013,-0.026l0.008,-0.018l0.006,-0.018l0.003,-0.01l-0.001,0.004l0,0.009l-0.002,0.014l0,0.02l-0.001,0.023l-0.002,0.03l-0.002,0.032l-0.004,0.035l-0.007,0.038l-0.008,0.042l-0.371,-0.369ZM265.288,613.92l-1.044,-0.567l0.001,0l1.886,-1.183l1.674,-1.088l1.469,-0.991l1.268,-0.897l1.077,-0.805l0.891,-0.715l0.713,-0.623l0.543,-0.532l0.378,-0.438l0.228,-0.346l0.098,-0.245l0.004,-0.159l-0.052,-0.092l-0.102,-0.063l-0.184,-0.043l-0.298,-0.014l-0.424,0.024l-0.538,0.072l-0.641,0.124l-0.731,0.173l-0.81,0.221l-0.875,0.269l-0.933,0.31l-0.981,0.355l-1.02,0.389l-1.051,0.424l-1.073,0.46l-1.087,0.487l-1.093,0.514l-1.091,0.539l-1.081,0.563l-1.064,0.58l-0.922,-0.64l1.126,-0.614l1.144,-0.591l1.151,-0.569l1.154,-0.544l1.149,-0.518l1.137,-0.484l1.118,-0.452l1.092,-0.418l1.057,-0.378l1.019,-0.341l0.976,-0.298l0.924,-0.254l0.869,-0.206l0.81,-0.156l0.751,-0.101l0.687,-0.039l0.618,0.035l0.525,0.131l0.383,0.235l0.192,0.338l-0.006,0.408l-0.179,0.457l-0.336,0.508l-0.485,0.565l-0.637,0.625l-0.796,0.697l-0.964,0.771l-1.138,0.851l-1.323,0.936l-1.515,1.023l-1.715,1.113l-1.923,1.207ZM259.345,610.623l-1.898,1.06l-0.921,-0.638l1.897,-1.062l0.922,0.639ZM256.526,611.046l0.921,0.637l-0.041,0.022l-0.043,0.022l-0.043,0.02l-0.043,0.02l-0.044,0.018l-0.043,0.015l-0.045,0.018l-0.045,0.015l-0.044,0.012l-0.045,0.012l-0.045,0.012l-0.044,0.01l-0.044,0.008l-0.044,0.007l-0.044,0.007l-0.042,0.006l-0.043,0.004l-0.042,0.001l-0.04,0.001l-0.041,0.002l-0.039,-0.004l-0.039,-0.002l-0.038,-0.004l-0.036,-0.005l-0.035,-0.006l-0.035,-0.007l-0.032,-0.01l-0.031,-0.01l-0.03,-0.013l-0.028,-0.012l-0.027,-0.014l-0.024,-0.017l-0.024,-0.016l-0.019,-0.019l-0.018,-0.019l-0.016,-0.019l-0.014,-0.021l-0.011,-0.02l-0.008,-0.024l-0.007,-0.02l-0.004,-0.024l-0.003,-0.024l0.001,-0.023l0.001,-0.026l0.004,-0.024l0.007,-0.027l0.009,-0.024l0.011,-0.025l0.012,-0.028l0.014,-0.024l0.016,-0.029l0.019,-0.024l0.02,-0.027l0.023,-0.027l0.024,-0.025l0.026,-0.027l0.029,-0.026l0.029,-0.026l0.032,-0.025l0.034,-0.025l0.034,-0.025l0.037,-0.027l0.039,-0.021l0.041,-0.024Z" style="fill:#4d4d4d;fill-rule:nonzero;"/><path d="M323.123,628.325l0.944,-1.093l0.04,0.005l0.038,0.005l0.037,0.008l0.035,0.007l0.033,0.008l0.031,0.011l0.03,0.012l0.028,0.011l0.025,0.014l0.024,0.015l0.022,0.017l0.019,0.016l0.018,0.017l0.016,0.018l0.014,0.019l0.012,0.02l0.009,0.021l0.008,0.023l0.007,0.023l0.003,0.022l0.001,0.023l0,0.026l-0.003,0.023l-0.005,0.026l-0.008,0.025l-0.009,0.028l-0.011,0.026l-0.014,0.027l-0.017,0.029l-0.018,0.027l-0.021,0.027l-0.024,0.028l-0.025,0.028l-0.027,0.027l-0.028,0.028l-0.031,0.027l-0.031,0.025l-0.034,0.024l-0.033,0.025l-0.036,0.024l-0.037,0.023l-0.038,0.023l-0.039,0.021l-0.04,0.022l-0.04,0.018l-0.041,0.018l-0.042,0.017l-0.043,0.019l-0.043,0.016l-0.044,0.014l-0.044,0.015l-0.044,0.012l-0.045,0.012l-0.044,0.011l-0.045,0.009l-0.044,0.008l-0.045,0.009l-0.044,0.004l-0.043,0.004l-0.045,0.005l-0.043,0.003l-0.043,-0.001l-0.041,-0.001l-0.042,-0.003ZM324.067,627.232l-0.944,1.093l-0.141,-0.008l-0.133,-0.004l-0.126,0.001l-0.121,0.007l-0.114,0.007l-0.107,0.012l-0.105,0.013l-0.099,0.02l-0.098,0.019l-0.095,0.023l-0.094,0.025l-0.094,0.03l-0.094,0.031l-0.097,0.033l-0.096,0.036l-0.099,0.041l-0.101,0.041l-0.104,0.048l-0.106,0.05l-0.108,0.053l-0.108,0.053l-0.114,0.059l-0.116,0.059l-0.118,0.064l-0.121,0.064l-0.124,0.066l-0.125,0.067l-0.13,0.069l-0.132,0.069l-0.135,0.071l-0.142,0.071l-0.144,0.072l-0.741,-0.734l0.107,-0.051l0.109,-0.055l0.111,-0.059l0.117,-0.061l0.118,-0.063l0.122,-0.064l0.125,-0.068l0.128,-0.068l0.132,-0.069l0.136,-0.072l0.139,-0.072l0.147,-0.072l0.148,-0.072l0.154,-0.072l0.159,-0.072l0.165,-0.07l0.17,-0.069l0.177,-0.067l0.18,-0.063l0.187,-0.062l0.192,-0.058l0.196,-0.051l0.202,-0.048l0.204,-0.043l0.207,-0.036l0.209,-0.031l0.214,-0.023l0.211,-0.016l0.213,-0.008l0.216,-0.002l0.215,0.005l0.216,0.011ZM318.741,628.853l0.741,0.734l-0.813,0.383l-0.813,0.365l-0.812,0.345l-0.806,0.326l-0.798,0.303l-0.787,0.283l-0.772,0.26l-0.756,0.236l-0.735,0.214l-0.711,0.186l-0.688,0.162l-0.66,0.136l-0.629,0.106l-0.598,0.077l-0.564,0.044l-0.526,0.01l-0.488,-0.028l-0.441,-0.071l-0.381,-0.12l-0.311,-0.171l-0.223,-0.225l-0.122,-0.27l-0.021,-0.309l0.077,-0.344l0.169,-0.369l0.257,-0.398l0.342,-0.429l0.431,-0.459l0.518,-0.493l0.609,-0.53l0.705,-0.569l0.803,-0.607l1.235,0.436l-0.745,0.565l-0.641,0.517l-0.54,0.468l-0.444,0.423l-0.349,0.374l-0.261,0.325l-0.178,0.275l-0.105,0.229l-0.04,0.18l0.008,0.141l0.049,0.106l0.082,0.084l0.123,0.066l0.172,0.052l0.227,0.038l0.288,0.016l0.347,-0.008l0.404,-0.031l0.459,-0.059l0.504,-0.084l0.549,-0.114l0.586,-0.138l0.622,-0.163l0.65,-0.189l0.677,-0.211l0.697,-0.235l0.717,-0.258l0.729,-0.278l0.739,-0.298l0.746,-0.317l0.749,-0.336l0.747,-0.354ZM311.472,627.681l-1.832,0.336l0.007,-0.027l0.009,-0.027l0.011,-0.028l0.013,-0.027l0.016,-0.028l0.018,-0.026l0.018,-0.026l0.022,-0.028l0.023,-0.027l0.025,-0.025l0.026,-0.026l0.028,-0.026l0.031,-0.025l0.03,-0.024l0.033,-0.025l0.034,-0.023l0.036,-0.024l0.037,-0.022l0.037,-0.022l0.039,-0.021l0.04,-0.022l0.041,-0.019l0.042,-0.018l0.043,-0.019l0.043,-0.016l0.045,-0.016l0.045,-0.015l0.045,-0.015l0.046,-0.011l0.047,-0.013l0.046,-0.009l0.048,-0.01l0.046,-0.008l0.047,-0.007l0.045,-0.007l0.045,-0.001l0.042,-0.002l0.043,-0.002l0.08,0.002l0.038,0.003l0.037,0.004l0.036,0.006l0.034,0.006l0.033,0.008l0.033,0.01l0.028,0.01l0.029,0.012l0.027,0.012l0.024,0.014l0.023,0.015l0.021,0.015l0.02,0.017l0.018,0.019l0.016,0.018l0.013,0.02l0.012,0.021l0.009,0.021l0.007,0.022l0.005,0.024l0.003,0.024l0,0.026l-0.001,0.025l-0.005,0.027ZM311.173,628.067l-1.235,-0.436l1.534,0.05l-0.002,0.013l-0.002,0.011l-0.004,0.019l-0.006,0.022l-0.005,0.019l-0.008,0.029l-0.01,0.027l-0.011,0.03l-0.019,0.04l-0.022,0.04l-0.023,0.036l-0.024,0.035l-0.033,0.044l-0.029,0.034l-0.031,0.037l-0.033,0.033l-0.031,0.031l-0.038,0.04l-0.035,0.029l-0.034,0.032l-0.037,0.031l-0.035,0.031l-0.041,0.035l-0.042,0.033l-0.045,0.036l-0.045,0.036l-0.05,0.039l-0.051,0.04l-0.051,0.041l-0.059,0.046l-0.062,0.049l-0.065,0.049l-1.282,-0.402l0.062,-0.048l0.057,-0.043l0.052,-0.04l0.051,-0.041l0.045,-0.034l0.039,-0.033l0.036,-0.028l0.03,-0.025l0.029,-0.024l0.022,-0.018l0.023,-0.02l0.016,-0.013l0.013,-0.012l0.009,-0.008l0.003,-0.004l-0.003,0.004l-0.005,0.005l-0.006,0.007l-0.011,0.016l-0.009,0.011l-0.005,0.01l-0.01,0.017l-0.008,0.016l-0.002,0.006l-0.002,0.007l-0.002,0.004l0.001,-0.003l0.001,-0.001l0.002,-0.009l0.002,-0.014l0.003,-0.014l1.533,0.05ZM309.207,628.346l1.282,0.402l0.001,0l-1.215,0.894l-1.158,0.774l-1.107,0.656l-1.059,0.547l-1.017,0.445l-0.976,0.339l-0.93,0.236l-0.875,0.136l-0.802,0.037l-0.72,-0.054l-0.631,-0.135l-0.545,-0.2l-0.464,-0.256l-0.391,-0.305l-0.322,-0.342l-0.259,-0.373l-0.197,-0.397l-0.139,-0.418l-0.084,-0.428l-0.029,-0.435l0.025,-0.437l0.078,-0.434l0.135,-0.423l0.192,-0.413l0.259,-0.399l0.341,-0.387l0.447,-0.371l0.578,-0.335l0.686,-0.256l0.712,-0.135l0.678,-0.02l0.642,0.084l-1.179,1.06l-0.363,-0.048l-0.249,0.004l-0.135,0.026l-0.081,0.031l-0.106,0.064l-0.152,0.128l-0.171,0.198l-0.164,0.253l-0.139,0.299l-0.105,0.332l-0.064,0.354l-0.02,0.366l0.024,0.371l0.072,0.366l0.119,0.357l0.166,0.335l0.215,0.311l0.259,0.276l0.303,0.236l0.342,0.189l0.379,0.143l0.411,0.087l0.443,0.035l0.479,-0.024l0.535,-0.082l0.604,-0.153l0.686,-0.239l0.776,-0.339l0.866,-0.448l0.954,-0.567l1.039,-0.692l1.12,-0.825l0,-0.001ZM302.665,626.171l-1.823,0.604l-0.006,-0.024l-0.004,-0.024l-0.001,-0.024l0,-0.026l0.004,-0.025l0.006,-0.026l0.007,-0.027l0.01,-0.027l0.012,-0.024l0.014,-0.029l0.016,-0.025l0.017,-0.027l0.02,-0.026l0.023,-0.026l0.023,-0.026l0.025,-0.027l0.026,-0.025l0.029,-0.026l0.03,-0.025l0.032,-0.024l0.033,-0.024l0.035,-0.024l0.036,-0.023l0.038,-0.021l0.039,-0.023l0.04,-0.021l0.041,-0.021l0.043,-0.021l0.043,-0.018l0.045,-0.018l0.045,-0.017l0.047,-0.016l0.047,-0.015l0.047,-0.013l0.046,-0.014l0.046,-0.01l0.046,-0.01l0.045,-0.007l0.045,-0.008l0.044,-0.005l0.043,-0.004l0.042,-0.002l0.041,-0.002l0.042,-0.001l0.04,0.002l0.038,0.002l0.038,0.003l0.036,0.004l0.035,0.006l0.034,0.008l0.064,0.018l0.029,0.009l0.028,0.013l0.026,0.013l0.025,0.014l0.023,0.015l0.021,0.018l0.019,0.016l0.017,0.02l0.015,0.019l0.012,0.022l0.012,0.021l0.009,0.024ZM301.164,627.003l1.179,-1.06l0.322,0.228l0.016,0.055l0.016,0.049l0.017,0.046l0.015,0.044l0.014,0.042l0.014,0.038l0.012,0.038l0.013,0.038l0.01,0.038l0.01,0.04l0.008,0.04l0.007,0.042l0.003,0.044l-0.001,0.048l-0.004,0.051l-0.009,0.052l-0.017,0.056l-0.02,0.055l-0.023,0.054l-0.028,0.052l-0.029,0.05l-0.032,0.05l-0.035,0.051l-0.035,0.049l-0.037,0.048l-0.038,0.049l-0.042,0.052l-0.042,0.054l-0.045,0.055l-0.049,0.058l-0.051,0.065l-0.055,0.066l-1.616,-0.082l0.056,-0.069l0.053,-0.064l0.047,-0.057l0.042,-0.054l0.039,-0.047l0.031,-0.04l0.029,-0.036l0.024,-0.031l0.017,-0.024l0.013,-0.019l0.008,-0.014l0.005,-0.008l0.002,-0.004l0,-0.002l-0.001,0.004l-0.001,0.006l0,0.003l0,-0.002l-0.001,-0.009l-0.001,-0.01l-0.004,-0.012l-0.004,-0.021l-0.008,-0.023l-0.008,-0.029l-0.012,-0.034l-0.013,-0.036l-0.014,-0.042l-0.016,-0.046l-0.016,-0.05l-0.019,-0.053l-0.018,-0.06l0.322,0.228ZM300.612,627.658l1.616,0.082l-0.708,0.799l-0.762,0.721l-0.812,0.645l-0.856,0.57l-0.893,0.496l-0.919,0.418l-0.931,0.345l-0.931,0.273l-0.921,0.205l-0.902,0.141l-0.878,0.085l-0.849,0.034l-0.817,-0.008l-0.779,-0.053l-0.74,-0.086l-0.696,-0.116l-0.648,-0.146l-0.596,-0.17l-0.539,-0.186l-0.478,-0.206l-0.415,-0.219l-0.344,-0.232l-0.27,-0.245l-0.187,-0.263l-0.086,-0.294l0.065,-0.348l0.305,-0.402l0.544,-0.369l0.641,-0.26l0.667,-0.165l0.714,-0.104l0.795,-0.056l-0.65,1.095l-0.613,0.043l-0.442,0.065l-0.25,0.059l-0.047,0.017l0.076,-0.052l0.04,-0.046l-0.001,0.033l0.033,0.104l0.107,0.148l0.187,0.169l0.266,0.178l0.339,0.181l0.406,0.173l0.464,0.163l0.518,0.145l0.566,0.127l0.605,0.103l0.638,0.074l0.666,0.044l0.683,0.008l0.696,-0.029l0.7,-0.066l0.699,-0.111l0.693,-0.154l0.684,-0.199l0.673,-0.249l0.666,-0.304l0.661,-0.366l0.655,-0.437l0.647,-0.512l0.633,-0.6l0.612,-0.69ZM289.553,629.03l-1.753,0.122l0.017,-0.027l0.017,-0.029l0.019,-0.028l0.023,-0.026l0.024,-0.028l0.025,-0.026l0.026,-0.027l0.029,-0.026l0.031,-0.024l0.031,-0.024l0.034,-0.026l0.034,-0.022l0.035,-0.025l0.038,-0.022l0.037,-0.023l0.039,-0.021l0.04,-0.019l0.041,-0.02l0.042,-0.018l0.042,-0.017l0.043,-0.018l0.044,-0.014l0.044,-0.015l0.045,-0.016l0.044,-0.011l0.045,-0.012l0.046,-0.01l0.046,-0.009l0.046,-0.007l0.045,-0.008l0.045,-0.004l0.046,-0.003l0.045,-0.004l0.085,0l0.041,0.002l0.039,0.003l0.038,0.005l0.037,0.005l0.034,0.006l0.033,0.008l0.032,0.011l0.029,0.011l0.028,0.009l0.027,0.016l0.024,0.012l0.023,0.015l0.02,0.016l0.02,0.017l0.018,0.018l0.015,0.019l0.012,0.02l0.012,0.022l0.008,0.019l0.008,0.024l0.005,0.022l0.003,0.024l0,0.023l-0.002,0.026l-0.003,0.025l-0.007,0.028l-0.009,0.025l-0.011,0.029l-0.014,0.027ZM288.352,629.639l0.65,-1.095l0.551,0.486l-0.655,1.108l-0.73,0.975l-0.806,0.85l-0.881,0.73l-0.957,0.616l-1.021,0.491l-1.052,0.36l-1.046,0.228l-1.01,0.103l-0.962,-0.005l-0.91,-0.098l-0.858,-0.178l-0.801,-0.251l-0.743,-0.317l-0.679,-0.369l-0.609,-0.421l-0.532,-0.464l-0.447,-0.499l-0.353,-0.532l-0.25,-0.557l-0.136,-0.579l-0.01,-0.596l0.132,-0.612l0.294,-0.621l0.477,-0.625l0.674,-0.609l0.872,-0.573l1.051,-0.513l1.215,-0.444l1.372,-0.368l1.54,-0.296l1.715,-0.22l-0.479,1.083l-1.535,0.197l-1.306,0.249l-1.085,0.292l-0.873,0.319l-0.683,0.332l-0.529,0.348l-0.406,0.37l-0.303,0.4l-0.202,0.431l-0.099,0.46l0.009,0.475l0.113,0.483l0.216,0.479l0.308,0.465l0.396,0.443l0.473,0.412l0.541,0.373l0.597,0.327l0.646,0.274l0.68,0.212l0.7,0.146l0.706,0.078l0.697,0.005l0.671,-0.067l0.643,-0.141l0.625,-0.214l0.631,-0.302l0.648,-0.417l0.663,-0.55l0.657,-0.697l0.637,-0.849l0.596,-1.008l0.552,0.487ZM283.448,624.743l1.041,-0.105l-0.481,1.085l-1.04,0.104l0.479,-1.083l0.001,-0.001ZM285.158,624.871l-1.818,0.618l-0.007,-0.022l-0.004,-0.025l-0.002,-0.025l0,-0.025l0.003,-0.026l0.004,-0.025l0.008,-0.027l0.009,-0.024l0.011,-0.027l0.013,-0.027l0.015,-0.026l0.019,-0.027l0.018,-0.027l0.022,-0.027l0.023,-0.025l0.024,-0.026l0.026,-0.025l0.029,-0.027l0.029,-0.024l0.031,-0.025l0.033,-0.025l0.035,-0.023l0.035,-0.024l0.038,-0.022l0.038,-0.023l0.04,-0.02l0.041,-0.023l0.042,-0.019l0.043,-0.02l0.045,-0.017l0.045,-0.017l0.046,-0.018l0.048,-0.015l0.047,-0.014l0.046,-0.012l0.047,-0.01l0.046,-0.011l0.044,-0.01l0.045,-0.006l0.044,-0.006l0.042,-0.005l0.043,-0.001l0.043,-0.004l0.04,0l0.04,0.001l0.04,0.002l0.038,0.002l0.036,0.004l0.035,0.006l0.036,0.006l0.032,0.009l0.031,0.009l0.031,0.01l0.027,0.011l0.027,0.012l0.025,0.016l0.025,0.014l0.02,0.016l0.02,0.018l0.018,0.019l0.015,0.02l0.015,0.021l0.011,0.02l0.009,0.023ZM284.008,625.723l0.481,-1.085l0.669,0.233l0.08,0.358l0.002,0.37l-0.072,0.385l-0.14,0.391l-0.203,0.396l-0.261,0.4l-0.312,0.4l-0.36,0.401l-0.402,0.4l-0.439,0.397l-0.475,0.395l-0.505,0.391l-0.531,0.387l-0.556,0.381l-0.575,0.374l-0.593,0.368l-0.606,0.358l-0.615,0.349l-0.623,0.339l-0.627,0.325l-0.627,0.315l-0.625,0.3l-0.619,0.286l-0.61,0.269l-0.598,0.252l-0.585,0.234l-0.567,0.214l-0.548,0.194l-0.527,0.173l-0.504,0.15l-0.481,0.126l-0.46,0.1l0.182,-1.038l0.295,-0.066l0.349,-0.092l0.394,-0.116l0.434,-0.143l0.468,-0.165l0.495,-0.187l0.52,-0.209l0.539,-0.227l0.554,-0.244l0.564,-0.26l0.572,-0.275l0.576,-0.289l0.576,-0.3l0.571,-0.309l0.563,-0.32l0.552,-0.327l0.536,-0.332l0.518,-0.337l0.494,-0.34l0.47,-0.34l0.439,-0.34l0.407,-0.338l0.369,-0.335l0.332,-0.33l0.289,-0.32l0.245,-0.314l0.198,-0.304l0.15,-0.294l0.102,-0.282l0.051,-0.272l-0.002,-0.26l-0.056,-0.255l0.668,0.234ZM270.776,634.011l-0.182,1.038l-1.794,0.302l-1.586,0.177l-1.386,0.055l-1.192,-0.065l-0.998,-0.18l-0.8,-0.292l-0.598,-0.394l-0.401,-0.485l-0.21,-0.559l-0.037,-0.62l0.121,-0.668l0.263,-0.71l0.393,-0.745l0.509,-0.772l0.617,-0.791l0.715,-0.808l0.803,-0.816l0.884,-0.815l0.955,-0.812l1.017,-0.799l1.072,-0.779l1.118,-0.754l1.157,-0.72l1.189,-0.68l1.212,-0.633l1.229,-0.577l1.239,-0.514l1.243,-0.446l1.238,-0.361l1.224,-0.274l1.197,-0.169l1.154,-0.055l-0.775,1.098l-0.872,0.041l-0.92,0.133l-0.969,0.214l-1.012,0.297l-1.048,0.376l-1.072,0.445l-1.087,0.51l-1.089,0.569l-1.079,0.617l-1.061,0.661l-1.033,0.696l-0.993,0.721l-0.942,0.741l-0.886,0.753l-0.815,0.752l-0.738,0.749l-0.651,0.735l-0.555,0.714l-0.45,0.681l-0.339,0.642l-0.222,0.596l-0.097,0.541l0.028,0.478l0.154,0.413l0.284,0.344l0.423,0.282l0.576,0.21l0.751,0.135l0.948,0.051l1.162,-0.046l1.388,-0.155l1.626,-0.273ZM282.674,619.64l-1.841,0.396l0.004,-0.026l0.006,-0.028l0.009,-0.025l0.011,-0.028l0.012,-0.027l0.015,-0.027l0.017,-0.027l0.019,-0.026l0.02,-0.026l0.024,-0.028l0.024,-0.025l0.026,-0.026l0.027,-0.025l0.03,-0.026l0.031,-0.026l0.032,-0.023l0.033,-0.024l0.036,-0.023l0.036,-0.022l0.039,-0.023l0.037,-0.021l0.041,-0.021l0.041,-0.02l0.041,-0.019l0.043,-0.017l0.043,-0.018l0.045,-0.017l0.045,-0.015l0.046,-0.015l0.047,-0.013l0.047,-0.012l0.047,-0.011l0.047,-0.009l0.046,-0.007l0.047,-0.007l0.045,-0.007l0.043,-0.003l0.044,-0.002l0.041,-0.001l0.041,0l0.04,0.001l0.039,0.004l0.036,0.003l0.036,0.005l0.035,0.006l0.066,0.016l0.058,0.022l0.027,0.013l0.025,0.013l0.023,0.014l0.022,0.017l0.02,0.017l0.018,0.016l0.017,0.02l0.013,0.019l0.013,0.021l0.01,0.021l0.006,0.025l0.006,0.021l0.004,0.024l0.001,0.027l-0.002,0.025ZM281.366,620.388l0.775,-1.098l0.533,0.35l-0.101,0.321l-0.225,0.321l-0.316,0.309l-0.381,0.292l-0.43,0.273l-0.476,0.27l-0.519,0.264l-0.56,0.264l-0.599,0.265l-0.633,0.265l-0.669,0.268l-0.697,0.269l-0.724,0.275l-0.745,0.274l-0.766,0.277l-0.778,0.278l-0.79,0.281l-0.795,0.28l-0.798,0.282l-0.794,0.28l-0.787,0.279l-0.777,0.279l-0.76,0.278l-0.739,0.275l-0.715,0.274l-0.683,0.268l-0.648,0.264l-0.608,0.257l-0.562,0.25l-0.511,0.242l-0.452,0.231l-0.391,0.218l-0.986,-0.601l0.513,-0.288l0.557,-0.284l0.595,-0.281l0.633,-0.281l0.665,-0.283l0.695,-0.284l0.723,-0.284l0.745,-0.282l0.765,-0.284l0.78,-0.285l0.79,-0.285l0.797,-0.285l0.801,-0.282l0.799,-0.281l0.791,-0.281l0.781,-0.275l0.768,-0.274l0.746,-0.273l0.724,-0.265l0.694,-0.261l0.66,-0.256l0.62,-0.25l0.576,-0.241l0.526,-0.232l0.47,-0.222l0.406,-0.205l0.337,-0.191l0.261,-0.166l0.181,-0.138l0.106,-0.102l0.051,-0.071l0.018,-0.054l0.533,0.352ZM262.259,627.762l0.986,0.601l-0.041,0.025l-0.041,0.021l-0.041,0.02l-0.044,0.022l-0.043,0.019l-0.043,0.017l-0.044,0.016l-0.044,0.016l-0.045,0.014l-0.045,0.013l-0.044,0.01l-0.044,0.012l-0.045,0.009l-0.044,0.011l-0.044,0.006l-0.043,0.007l-0.043,0.002l-0.042,0.006l-0.042,0.003l-0.041,0l-0.041,0l-0.039,-0.003l-0.038,-0.003l-0.038,-0.003l-0.036,-0.005l-0.035,-0.007l-0.034,-0.008l-0.033,-0.01l-0.031,-0.011l-0.03,-0.011l-0.028,-0.015l-0.026,-0.013l-0.024,-0.016l-0.022,-0.019l-0.019,-0.017l-0.018,-0.019l-0.016,-0.02l-0.013,-0.021l-0.01,-0.02l-0.008,-0.022l-0.007,-0.023l-0.004,-0.022l-0.001,-0.024l0,-0.024l0.001,-0.025l0.005,-0.025l0.007,-0.025l0.009,-0.026l0.01,-0.025l0.013,-0.028l0.015,-0.025l0.017,-0.027l0.019,-0.026l0.02,-0.026l0.023,-0.027l0.025,-0.027l0.026,-0.026l0.029,-0.025l0.03,-0.026l0.032,-0.026l0.034,-0.026l0.037,-0.024l0.037,-0.025l0.039,-0.024Z" style="fill:#4d4d4d;fill-rule:nonzero;"/><path d="M297.072,651.224l1.256,-1.042l0.035,0.011l0.032,0.01l0.03,0.013l0.026,0.013l0.026,0.014l0.024,0.015l0.021,0.017l0.02,0.017l0.017,0.017l0.015,0.019l0.013,0.022l0.011,0.019l0.009,0.022l0.007,0.021l0.004,0.024l0.004,0.022l0.001,0.025l-0.003,0.023l-0.003,0.027l-0.006,0.023l-0.008,0.025l-0.01,0.028l-0.012,0.025l-0.015,0.027l-0.016,0.026l-0.019,0.028l-0.021,0.028l-0.022,0.027l-0.025,0.026l-0.028,0.029l-0.029,0.025l-0.031,0.027l-0.033,0.028l-0.035,0.024l-0.036,0.026l-0.037,0.025l-0.037,0.022l-0.04,0.023l-0.039,0.021l-0.04,0.02l-0.042,0.02l-0.042,0.019l-0.043,0.018l-0.043,0.017l-0.044,0.016l-0.043,0.012l-0.044,0.015l-0.045,0.012l-0.043,0.011l-0.044,0.009l-0.045,0.009l-0.044,0.01l-0.044,0.006l-0.044,0.005l-0.042,0.003l-0.042,0.003l-0.042,0.001l-0.042,0.001l-0.04,-0.002l-0.039,-0.002l-0.04,-0.004l-0.037,-0.004l-0.037,-0.008l-0.035,-0.009ZM298.328,650.182l-1.256,1.042l-0.222,-0.066l-0.198,-0.079l-0.174,-0.089l-0.151,-0.101l-0.127,-0.11l-0.103,-0.118l-0.081,-0.124l-0.06,-0.13l-0.04,-0.135l-0.022,-0.137l-0.006,-0.139l0.009,-0.142l0.025,-0.143l0.036,-0.143l0.047,-0.143l0.057,-0.141l0.066,-0.141l0.074,-0.137l0.081,-0.137l0.088,-0.137l0.092,-0.131l0.097,-0.127l0.101,-0.125l0.104,-0.12l0.107,-0.116l0.109,-0.113l0.112,-0.108l0.114,-0.104l0.116,-0.098l0.121,-0.093l0.13,-0.094l0.143,-0.093l1.025,0.577l-0.007,0.006l-0.029,0.02l-0.046,0.037l-0.056,0.046l-0.062,0.056l-0.067,0.064l-0.07,0.073l-0.071,0.078l-0.071,0.081l-0.07,0.088l-0.069,0.09l-0.066,0.093l-0.06,0.094l-0.057,0.095l-0.051,0.097l-0.046,0.096l-0.038,0.095l-0.03,0.091l-0.023,0.089l-0.014,0.088l-0.006,0.085l0.003,0.078l0.012,0.077l0.021,0.071l0.031,0.068l0.04,0.062l0.05,0.057l0.061,0.052l0.073,0.05l0.085,0.043l0.101,0.041l0.118,0.034ZM299.125,647.356l-1.79,0.683l-0.011,-0.022l-0.007,-0.022l-0.006,-0.024l-0.003,-0.025l-0.001,-0.024l0.002,-0.026l0.004,-0.025l0.005,-0.025l0.008,-0.026l0.011,-0.028l0.012,-0.025l0.014,-0.025l0.016,-0.027l0.018,-0.025l0.021,-0.028l0.021,-0.026l0.025,-0.026l0.025,-0.027l0.026,-0.026l0.03,-0.023l0.03,-0.026l0.033,-0.025l0.033,-0.023l0.035,-0.024l0.037,-0.024l0.038,-0.023l0.039,-0.021l0.041,-0.021l0.042,-0.021l0.043,-0.02l0.045,-0.02l0.046,-0.017l0.046,-0.019l0.046,-0.014l0.047,-0.014l0.046,-0.015l0.045,-0.01l0.045,-0.011l0.046,-0.009l0.044,-0.009l0.045,-0.005l0.043,-0.004l0.043,-0.005l0.043,-0.003l0.04,0l0.041,-0.003l0.039,0.003l0.038,0.003l0.038,0.004l0.036,0.003l0.036,0.007l0.032,0.008l0.034,0.007l0.029,0.011l0.031,0.01l0.028,0.012l0.026,0.014l0.024,0.015l0.023,0.015l0.021,0.017l0.018,0.018l0.016,0.02l0.017,0.019l0.012,0.022ZM298.742,647.987l-1.025,-0.577l1.408,-0.054l0.073,0.177l0.045,0.183l0.016,0.191l-0.01,0.194l-0.035,0.197l-0.057,0.201l-0.079,0.202l-0.097,0.203l-0.117,0.205l-0.132,0.203l-0.146,0.204l-0.162,0.2l-0.173,0.2l-0.185,0.2l-0.194,0.196l-0.205,0.192l-0.211,0.188l-0.22,0.185l-0.226,0.182l-0.23,0.176l-0.236,0.17l-0.24,0.164l-0.244,0.16l-0.246,0.153l-0.247,0.145l-0.248,0.136l-0.252,0.131l-0.256,0.122l-0.254,0.113l-0.26,0.103l-0.264,0.093l-0.268,0.082l-0.093,-0.976l0.087,-0.026l0.107,-0.037l0.127,-0.052l0.142,-0.062l0.153,-0.075l0.164,-0.083l0.173,-0.095l0.177,-0.107l0.182,-0.11l0.183,-0.119l0.184,-0.128l0.183,-0.132l0.181,-0.139l0.177,-0.142l0.174,-0.145l0.167,-0.15l0.161,-0.151l0.152,-0.152l0.141,-0.151l0.132,-0.154l0.122,-0.153l0.108,-0.149l0.096,-0.148l0.082,-0.143l0.068,-0.142l0.052,-0.138l0.039,-0.13l0.022,-0.127l0.007,-0.122l-0.01,-0.114l-0.027,-0.11l-0.043,-0.106l1.407,-0.052ZM293.672,651.831l0.093,0.976l-1.219,0.286l-1.141,0.178l-1.052,0.066l-0.957,-0.036l-0.859,-0.13l-0.757,-0.21l-0.663,-0.285l-0.569,-0.347l-0.483,-0.4l-0.399,-0.447l-0.323,-0.486l-0.249,-0.515l-0.178,-0.542l-0.111,-0.56l-0.044,-0.568l0.019,-0.575l0.081,-0.573l0.141,-0.565l0.201,-0.557l0.262,-0.534l0.326,-0.512l0.395,-0.49l0.476,-0.458l0.573,-0.426l0.679,-0.371l0.774,-0.29l0.813,-0.174l0.8,-0.05l0.777,0.064l0.759,0.171l0.757,0.275l0.765,0.383l-1.538,0.931l-0.669,-0.336l-0.62,-0.226l-0.554,-0.125l-0.472,-0.039l-0.377,0.023l-0.291,0.062l-0.253,0.096l-0.264,0.147l-0.287,0.213l-0.294,0.286l-0.281,0.348l-0.254,0.401l-0.216,0.443l-0.172,0.472l-0.123,0.496l-0.072,0.507l-0.016,0.516l0.04,0.511l0.098,0.501l0.159,0.482l0.22,0.457l0.282,0.426l0.344,0.383l0.405,0.338l0.465,0.285l0.525,0.226l0.585,0.163l0.643,0.095l0.705,0.028l0.778,-0.05l0.86,-0.132l0.956,-0.226l0.001,0ZM293.512,644.35l-1.844,0.49l0,-0.026l0.002,-0.027l0.004,-0.025l0.006,-0.026l0.009,-0.028l0.011,-0.025l0.013,-0.027l0.015,-0.026l0.017,-0.027l0.019,-0.028l0.021,-0.026l0.023,-0.025l0.024,-0.028l0.026,-0.025l0.028,-0.026l0.03,-0.025l0.031,-0.025l0.032,-0.025l0.033,-0.022l0.036,-0.024l0.037,-0.023l0.037,-0.022l0.04,-0.022l0.04,-0.02l0.041,-0.021l0.042,-0.018l0.043,-0.018l0.045,-0.018l0.045,-0.016l0.046,-0.015l0.046,-0.015l0.048,-0.013l0.048,-0.012l0.047,-0.011l0.045,-0.009l0.046,-0.007l0.046,-0.007l0.043,-0.005l0.044,-0.004l0.042,-0.002l0.042,-0.001l0.04,0l0.078,0.004l0.036,0.006l0.037,0.005l0.034,0.006l0.064,0.016l0.031,0.011l0.029,0.011l0.026,0.013l0.026,0.012l0.023,0.015l0.042,0.034l0.018,0.018l0.016,0.018l0.013,0.021l0.012,0.02l0.011,0.023l0.007,0.022l0.005,0.025l0.003,0.025ZM291.821,645.06l1.538,-0.931l0.153,0.221l-0.011,0.303l-0.072,0.314l-0.127,0.317l-0.18,0.32l-0.224,0.319l-0.268,0.32l-0.305,0.314l-0.34,0.312l-0.369,0.308l-0.397,0.304l-0.42,0.299l-0.442,0.294l-0.461,0.288l-0.479,0.283l-0.491,0.275l-0.501,0.268l-0.514,0.262l-0.519,0.252l-0.524,0.241l-0.525,0.235l-0.526,0.223l-0.522,0.212l-0.52,0.199l-0.512,0.188l-0.502,0.174l-0.493,0.16l-0.481,0.146l-0.465,0.13l-0.45,0.113l-0.433,0.097l-0.416,0.077l-0.399,0.057l0.425,-1.077l0.246,-0.035l0.287,-0.055l0.322,-0.07l0.353,-0.089l0.379,-0.106l0.403,-0.122l0.42,-0.136l0.438,-0.154l0.45,-0.164l0.458,-0.177l0.466,-0.189l0.469,-0.198l0.47,-0.208l0.466,-0.218l0.462,-0.222l0.453,-0.232l0.442,-0.235l0.429,-0.24l0.411,-0.243l0.392,-0.247l0.371,-0.246l0.346,-0.245l0.318,-0.244l0.289,-0.24l0.257,-0.238l0.224,-0.231l0.19,-0.225l0.155,-0.218l0.118,-0.212l0.082,-0.205l0.047,-0.199l0.006,-0.194l0.153,0.22ZM281.049,650.877l-0.425,1.077l0,-0.001l-1.919,0.19l-1.741,0.093l-1.571,0.001l-1.404,-0.082l-1.243,-0.162l-1.087,-0.234l-0.937,-0.301l-0.791,-0.359l-0.65,-0.412l-0.515,-0.458l-0.388,-0.494l-0.267,-0.525l-0.155,-0.547l-0.05,-0.56l0.049,-0.57l0.138,-0.572l0.222,-0.568l0.298,-0.556l0.369,-0.539l0.434,-0.517l0.496,-0.49l0.556,-0.458l0.618,-0.418l0.676,-0.369l0.733,-0.306l0.773,-0.226l0.784,-0.128l0.757,-0.018l0.706,0.093l0.645,0.198l0.584,0.301l0.528,0.409l-1.674,0.832l-0.428,-0.331l-0.434,-0.224l-0.423,-0.131l-0.398,-0.054l-0.364,0.01l-0.344,0.055l-0.346,0.103l-0.365,0.154l-0.383,0.209l-0.393,0.266l-0.387,0.319l-0.368,0.364l-0.337,0.403l-0.294,0.43l-0.244,0.453l-0.183,0.469l-0.115,0.476l-0.04,0.474l0.04,0.471l0.129,0.457l0.223,0.437l0.324,0.413l0.433,0.385l0.547,0.348l0.672,0.305l0.804,0.258l0.946,0.203l1.097,0.143l1.258,0.073l1.427,0l1.605,-0.086l1.792,-0.176ZM277.344,643.646l-1.818,0.278l0.009,-0.027l0.013,-0.029l0.012,-0.026l0.016,-0.027l0.018,-0.029l0.02,-0.027l0.022,-0.027l0.023,-0.027l0.025,-0.024l0.027,-0.027l0.029,-0.025l0.03,-0.025l0.031,-0.026l0.033,-0.023l0.034,-0.024l0.035,-0.024l0.038,-0.021l0.038,-0.023l0.038,-0.019l0.04,-0.022l0.041,-0.018l0.042,-0.021l0.042,-0.015l0.044,-0.019l0.045,-0.017l0.044,-0.014l0.045,-0.012l0.046,-0.014l0.046,-0.012l0.046,-0.009l0.047,-0.01l0.047,-0.007l0.047,-0.006l0.045,-0.005l0.044,-0.002l0.045,-0.005l0.083,0l0.039,0.002l0.038,0.004l0.037,0.003l0.037,0.006l0.033,0.008l0.033,0.007l0.032,0.01l0.029,0.01l0.029,0.012l0.026,0.013l0.025,0.014l0.023,0.014l0.02,0.016l0.02,0.017l0.017,0.019l0.015,0.019l0.013,0.02l0.011,0.021l0.01,0.021l0.007,0.022l0.004,0.023l0.003,0.023l0,0.026l-0.002,0.027l-0.004,0.027l-0.007,0.026ZM275.598,644.201l1.674,-0.832l0.072,0.277l-0.019,0.062l-0.016,0.058l-0.015,0.054l-0.013,0.046l-0.012,0.045l-0.011,0.039l-0.01,0.035l-0.011,0.036l-0.011,0.034l-0.011,0.033l-0.013,0.038l-0.016,0.035l-0.017,0.039l-0.023,0.044l-0.026,0.043l-0.027,0.04l-0.027,0.039l-0.03,0.037l-0.028,0.034l-0.029,0.035l-0.025,0.026l-0.025,0.03l-0.028,0.031l-0.028,0.031l-0.031,0.034l-0.035,0.038l-0.037,0.043l-0.04,0.047l-0.044,0.053l-0.051,0.059l-0.054,0.067l-0.06,0.072l-1.614,-0.085l0.065,-0.08l0.062,-0.072l0.054,-0.066l0.053,-0.063l0.048,-0.054l0.043,-0.05l0.038,-0.045l0.035,-0.038l0.032,-0.035l0.025,-0.027l0.022,-0.025l0.018,-0.021l0.008,-0.01l0.005,-0.005l0,-0.001l-0.003,0.005l-0.005,0.008l-0.003,0.008l0,-0.001l0.002,-0.007l0.003,-0.009l0.006,-0.014l0.006,-0.022l0.007,-0.026l0.011,-0.033l0.01,-0.038l0.011,-0.04l0.014,-0.05l0.016,-0.055l0.017,-0.06l0.019,-0.068l0.072,0.277ZM274.907,644.918l1.614,0.085l-0.024,0.027l-0.026,0.028l-0.027,0.027l-0.029,0.028l-0.03,0.025l-0.033,0.024l-0.033,0.026l-0.034,0.024l-0.036,0.024l-0.036,0.022l-0.039,0.022l-0.04,0.02l-0.04,0.022l-0.041,0.019l-0.041,0.019l-0.042,0.016l-0.043,0.017l-0.043,0.017l-0.043,0.013l-0.044,0.014l-0.045,0.014l-0.045,0.011l-0.044,0.01l-0.045,0.008l-0.045,0.009l-0.044,0.006l-0.044,0.005l-0.044,0.006l-0.044,0.002l-0.044,0.002l-0.042,-0.001l-0.042,-0.002l-0.041,-0.003l-0.039,-0.005l-0.038,-0.004l-0.036,-0.006l-0.034,-0.01l-0.032,-0.007l-0.03,-0.012l-0.029,-0.013l-0.027,-0.012l-0.025,-0.013l-0.022,-0.015l-0.022,-0.016l-0.02,-0.017l-0.017,-0.018l-0.015,-0.019l-0.013,-0.019l-0.012,-0.022l-0.009,-0.02l-0.007,-0.022l-0.005,-0.023l-0.003,-0.023l-0.001,-0.025l0.002,-0.024l0.003,-0.024l0.005,-0.027l0.008,-0.027l0.011,-0.025l0.012,-0.027l0.015,-0.027l0.017,-0.027l0.019,-0.028l0.023,-0.029Z" style="fill:#4d4d4d;fill-rule:nonzero;"/><path d="M313.335,663.065l-3.113,-0.201l0.089,-0.055l0.09,-0.052l0.094,-0.049l0.096,-0.051l0.099,-0.051l0.1,-0.047l0.102,-0.048l0.104,-0.045l0.105,-0.044l0.108,-0.042l0.106,-0.041l0.109,-0.038l0.11,-0.038l0.109,-0.037l0.11,-0.034l0.109,-0.032l0.11,-0.031l0.109,-0.029l0.108,-0.028l0.108,-0.025l0.106,-0.023l0.106,-0.02l0.104,-0.017l0.102,-0.018l0.101,-0.013l0.099,-0.012l0.097,-0.009l0.093,-0.008l0.091,-0.004l0.089,-0.001l0.086,0.001l0.082,0.004l0.077,0.007l0.074,0.009l0.066,0.011l0.062,0.014l0.057,0.016l0.051,0.019l0.046,0.023l0.041,0.023l0.035,0.026l0.03,0.025l0.025,0.03l0.019,0.031l0.015,0.033l0.009,0.035l0.004,0.038l-0.001,0.035l-0.007,0.04l-0.012,0.04l-0.017,0.043l-0.023,0.043l-0.027,0.045l-0.033,0.048l-0.038,0.046l-0.042,0.048l-0.049,0.049l-0.053,0.049l-0.058,0.05l-0.064,0.053l-0.069,0.051l-0.074,0.053l-0.078,0.054l-0.084,0.052ZM310.222,662.864l3.113,0.201l-1.723,1.125l-1.724,1.238l-1.713,1.337l-1.693,1.42l-1.664,1.492l-1.629,1.549l-1.59,1.595l-1.55,1.632l-1.504,1.65l-1.456,1.665l-1.407,1.663l-1.353,1.653l-1.301,1.63l-1.242,1.597l-1.185,1.556l-1.125,1.496l-1.064,1.435l-1,1.361l-0.936,1.272l-0.87,1.177l-0.802,1.071l-0.737,0.953l-0.67,0.836l-0.616,0.712l-0.585,0.605l-0.713,0.583l-2.149,0.996l-2.27,0.143l-0.357,-0.361l-0.113,-0.479l-0.007,-0.663l0.083,-0.872l4.567,-1.308l-0.08,0.827l0.006,0.582l0.075,0.333l0,0.04l-1.748,0.15l-1.462,0.636l0.135,-0.124l0.416,-0.431l0.542,-0.627l0.634,-0.79l0.716,-0.93l0.792,-1.055l0.864,-1.171l0.935,-1.27l1.003,-1.362l1.068,-1.442l1.134,-1.51l1.195,-1.567l1.257,-1.615l1.316,-1.652l1.375,-1.676l1.43,-1.694l1.487,-1.699l1.542,-1.692l1.595,-1.678l1.649,-1.654l1.701,-1.619l1.758,-1.573l1.812,-1.521l1.876,-1.465l1.943,-1.394l2.019,-1.317ZM281.237,694.824l-4.567,1.307l0.101,-0.784l0.095,-0.772l0.09,-0.76l0.084,-0.749l0.077,-0.741l0.068,-0.731l0.062,-0.721l0.051,-0.715l0.044,-0.707l0.033,-0.701l0.023,-0.695l0.012,-0.69l0.001,-0.685l-0.012,-0.681l-0.025,-0.678l-0.038,-0.678l-0.05,-0.675l-0.067,-0.673l-0.081,-0.676l-0.096,-0.675l-0.114,-0.676l-0.129,-0.679l-0.147,-0.681l-0.165,-0.687l-0.183,-0.688l-0.204,-0.694l-0.223,-0.701l-0.242,-0.706l-0.264,-0.714l-0.286,-0.721l-0.308,-0.729l-0.33,-0.74l4.529,-1.584l0.334,0.748l0.312,0.739l0.289,0.731l0.268,0.725l0.246,0.716l0.226,0.709l0.207,0.707l0.186,0.7l0.167,0.696l0.149,0.692l0.132,0.689l0.115,0.687l0.099,0.687l0.082,0.684l0.068,0.688l0.051,0.685l0.038,0.686l0.025,0.688l0.012,0.694l-0.001,0.693l-0.011,0.698l-0.023,0.704l-0.034,0.708l-0.044,0.713l-0.053,0.723l-0.061,0.726l-0.07,0.738l-0.077,0.745l-0.084,0.754l-0.09,0.763l-0.096,0.776l-0.101,0.788ZM278.976,671.944l-4.529,1.583l-0.013,-0.034l-0.008,-0.038l-0.001,-0.039l0.005,-0.041l0.01,-0.04l0.016,-0.044l0.021,-0.044l0.027,-0.046l0.031,-0.045l0.037,-0.048l0.041,-0.048l0.046,-0.048l0.051,-0.048l0.056,-0.048l0.059,-0.049l0.065,-0.052l0.068,-0.049l0.072,-0.051l0.076,-0.048l0.081,-0.052l0.083,-0.048l0.087,-0.051l0.091,-0.048l0.094,-0.049l0.097,-0.048l0.101,-0.047l0.103,-0.047l0.106,-0.047l0.108,-0.044l0.112,-0.044l0.114,-0.043l0.116,-0.041l0.117,-0.041l0.116,-0.037l0.115,-0.036l0.114,-0.031l0.114,-0.033l0.11,-0.028l0.111,-0.026l0.109,-0.025l0.106,-0.02l0.105,-0.02l0.101,-0.016l0.101,-0.014l0.097,-0.013l0.096,-0.01l0.091,-0.007l0.089,-0.005l0.087,-0.004l0.082,0.002l0.078,0.002l0.076,0.004l0.072,0.006l0.068,0.01l0.063,0.012l0.059,0.014l0.055,0.017l0.05,0.019l0.045,0.021l0.04,0.025l0.036,0.026l0.029,0.029l0.025,0.031l0.02,0.034Z" style="fill:#f6931d;fill-rule:nonzero;"/><path d="M112.85,60.158c-0.291,0.363 -0.823,0.421 -1.186,0.13c-0.363,-0.291 -0.421,-0.823 -0.13,-1.186l12.639,-15.755c1.702,-2.12 4.001,-2.511 6.026,-1.867c0.771,0.244 1.497,0.64 2.125,1.142c0.628,0.504 1.17,1.128 1.577,1.828c1.068,1.835 1.184,4.165 -0.517,6.287l-18.492,23.049c-1.452,1.809 -3.355,2.191 -5.015,1.704c-0.633,-0.186 -1.229,-0.504 -1.745,-0.919c-0.516,-0.416 -0.955,-0.931 -1.275,-1.51c-0.842,-1.53 -0.886,-3.498 0.576,-5.318l16.181,-20.17c1.122,-1.399 2.591,-1.698 3.871,-1.327c0.488,0.142 0.946,0.386 1.344,0.705c0.398,0.321 0.735,0.718 0.978,1.164c0.648,1.185 0.677,2.71 -0.456,4.123l-10.599,13.212c-0.291,0.362 -0.821,0.421 -1.186,0.129c-0.362,-0.291 -0.421,-0.821 -0.13,-1.185l10.601,-13.213c0.639,-0.796 0.638,-1.628 0.295,-2.257c-0.141,-0.257 -0.332,-0.482 -0.555,-0.662c-0.223,-0.181 -0.483,-0.319 -0.76,-0.4c-0.671,-0.194 -1.46,-0.016 -2.087,0.766l-16.183,20.17c-0.966,1.205 -0.954,2.477 -0.418,3.45c0.214,0.389 0.508,0.735 0.854,1.013c0.348,0.279 0.747,0.493 1.169,0.616c1.047,0.308 2.268,0.047 3.224,-1.146l18.492,-23.051c1.195,-1.489 1.12,-3.114 0.38,-4.387c-0.297,-0.509 -0.702,-0.972 -1.18,-1.354c-0.477,-0.383 -1.016,-0.679 -1.577,-0.858c-1.405,-0.446 -3.008,-0.167 -4.202,1.322l-12.639,15.755Z" style="fill:#f48c85;fill-rule:nonzero;"/></g></svg>