<svg viewBox="0 0 800 800" xmlns="http://www.w3.org/2000/svg" fill-rule="evenodd" clip-rule="evenodd" stroke-linejoin="round" stroke-miterlimit="1.414"><path d="M672.008 365.003l99.407 63.125-1.615 2.544-99.408-63.125 1.616-2.544z" fill="#f6931d"/><path d="M795.506 446.996l4.413 2.804v-3.57l-2.8-1.777-1.616 2.543z" fill="#f6931d" fill-rule="nonzero"/><path d="M644.14 621.344l-7.74-3.29 61.626-145.07-35.483 97.692-2.682 6.31a1.846 1.846 0 0 0-.066 1.256l-2.03 5.59a1.86 1.86 0 0 0-1.266 1.073l-2.777 6.538a1.857 1.857 0 0 0 .508 2.132l-1.712 4.712a1.865 1.865 0 0 0-2.16 1.073l-2.774 6.537a1.857 1.857 0 0 0 1.255 2.52l-4.695 12.927zm17.865-41.836l-2.03 5.59a1.85 1.85 0 0 0-2.21-1.267l2.028-5.587a1.853 1.853 0 0 0 2.212 1.266m36.02-106.525l18.418-43.356-35.482 97.69-2.676 6.302a1.846 1.846 0 0 0-.068 1.258l-2.03 5.59a1.863 1.863 0 0 0-1.268 1.072l-2.774 6.536a1.857 1.857 0 0 0 .504 2.134l-1.712 4.712a1.86 1.86 0 0 0-2.156 1.073L666 562.53a1.858 1.858 0 0 0 1.253 2.522l-1.71 4.713a1.857 1.857 0 0 0-2.906.685l-.096.225 35.484-97.692zm-51.572 149.342l-2.313-.982 4.695-12.927a1.857 1.857 0 0 0 2.155-1.072l2.778-6.536a1.86 1.86 0 0 0-1.253-2.523l1.712-4.712c.14.12.297.22.476.296a1.856 1.856 0 0 0 2.428-.98l.098-.226-10.774 29.663zm33.974-86.182l-2.03 5.59a1.852 1.852 0 0 0-2.212-1.267l2.03-5.59c.154.51.523.95 1.047 1.175.382.16.788.185 1.165.092m-31.66 87.165l-2.314-.984 10.774-29.663 2.68-6.31c.176-.412.188-.853.068-1.254l2.03-5.593a1.852 1.852 0 0 0 1.268-1.073l2.775-6.536a1.86 1.86 0 0 0-.504-2.135l1.71-4.713a1.862 1.862 0 0 0 2.158-1.07l2.777-6.538a1.857 1.857 0 0 0-1.256-2.522l1.712-4.712a1.86 1.86 0 0 0 2.906-.684l.096-.225-26.88 74.01zm82.404-228.35l.466.196-32.25 88.796-2.68 6.307a1.843 1.843 0 0 0-.068 1.252l-2.03 5.59a1.854 1.854 0 0 0-1.267 1.074l-2.775 6.535a1.86 1.86 0 0 0 .504 2.136l-1.71 4.712a1.86 1.86 0 0 0-2.16 1.07l-2.776 6.538a1.858 1.858 0 0 0 1.254 2.52l-1.712 4.713a1.858 1.858 0 0 0-2.905.684l-.1.232 35.484-97.69 14.728-34.668zm-32.32 97.82l-2.03 5.59a1.85 1.85 0 0 0-2.21-1.267l2.03-5.59c.15.51.52.95 1.045 1.175.382.16.79.184 1.164.092m-47.77 131.51l-2.312-.98 26.88-74.01 2.68-6.31a1.84 1.84 0 0 0 .07-1.256l2.03-5.59a1.855 1.855 0 0 0 1.266-1.073l2.775-6.534a1.857 1.857 0 0 0-.506-2.134l1.712-4.712a1.86 1.86 0 0 0 2.157-1.072l2.776-6.536a1.858 1.858 0 0 0-1.254-2.52l1.71-4.713a1.856 1.856 0 0 0 2.906-.688l.1-.23-42.992 118.36zm80.555-229.134l2.315.983-16.14 44.436-2.684 6.315a1.83 1.83 0 0 0-.067 1.258l-2.033 5.59a1.85 1.85 0 0 0-1.267 1.073l-2.775 6.537a1.863 1.863 0 0 0 .505 2.133l-1.712 4.712a1.86 1.86 0 0 0-2.157 1.07l-2.774 6.538a1.857 1.857 0 0 0 1.254 2.52l-1.713 4.713a1.856 1.856 0 0 0-2.906.685l-.096.232 32.25-88.796zm-14.364 54.258l-2.03 5.592a1.853 1.853 0 0 0-1.05-1.176 1.844 1.844 0 0 0-1.16-.09l2.03-5.59c.153.51.522.95 1.046 1.173.383.162.79.185 1.166.09m-63.874 175.863l-2.315-.985 42.993-118.36 2.677-6.303a1.85 1.85 0 0 0 .068-1.256l2.03-5.59a1.86 1.86 0 0 0 1.27-1.072l2.774-6.538a1.858 1.858 0 0 0-.503-2.134l1.713-4.713a1.857 1.857 0 0 0 2.154-1.073l2.78-6.534a1.862 1.862 0 0 0-1.256-2.52l1.713-4.713c.138.12.3.22.476.295a1.86 1.86 0 0 0 2.43-.982l.097-.23-59.098 162.71zM733.95 396.14l2.313.98-4.813 13.253c-.548.137-1.03.52-1.267 1.075l-2.776 6.536a1.858 1.858 0 0 0 .504 2.133l-1.71 4.713a1.862 1.862 0 0 0-2.157 1.073l-2.775 6.535a1.86 1.86 0 0 0 1.253 2.52l-1.71 4.713a1.857 1.857 0 0 0-2.906.687l-.094.22 16.14-44.437zm2.313.98l151.428 64.33-94.77 223.095-139.523-59.27 59.098-162.708 2.68-6.307a1.86 1.86 0 0 0 .065-1.254l2.03-5.592a1.85 1.85 0 0 0 1.266-1.072l2.778-6.536a1.864 1.864 0 0 0-.505-2.135l1.71-4.71a1.856 1.856 0 0 0 2.154-1.072l2.778-6.537a1.856 1.856 0 0 0-1.253-2.52l1.71-4.712a1.855 1.855 0 0 0 2.904-.686l2.778-6.534c.4-.94-.04-2.03-.98-2.43a1.842 1.842 0 0 0-1.163-.093l4.812-13.252z" fill="#2e93db"/><path d="M730.79 411.82l-13.88-5.896a1.152 1.152 0 0 0-1.506.608c-.247.58.028 1.26.608 1.505l13.88 5.896a1.15 1.15 0 0 0 1.505-.605v-.002a1.152 1.152 0 0 0-.607-1.506m-1.794 4.227l-13.88-5.896a1.15 1.15 0 0 0-1.507.61 1.15 1.15 0 0 0 .605 1.506l13.882 5.895a1.147 1.147 0 0 0 1.502-.606 1.153 1.153 0 0 0-.605-1.506m-4.337 10.212l-13.882-5.898a1.15 1.15 0 1 0-.898 2.114l13.88 5.895a1.15 1.15 0 0 0 1.506-.604 1.152 1.152 0 0 0-.606-1.506m-1.796 4.225l-13.88-5.897a1.153 1.153 0 0 0-1.507.608c-.246.582.027 1.26.608 1.507l13.88 5.894a1.15 1.15 0 0 0 1.506-.607h-.004a1.15 1.15 0 0 0-.605-1.505m-4.337 10.21l-13.88-5.896a1.15 1.15 0 0 0-1.506.606 1.15 1.15 0 0 0 .61 1.505l13.88 5.898a1.152 1.152 0 0 0 1.504-.608 1.153 1.153 0 0 0-.606-1.507m-1.794 4.23l-13.882-5.896a1.15 1.15 0 0 0-1.505.607 1.15 1.15 0 0 0 .607 1.505l13.88 5.895a1.148 1.148 0 1 0 .9-2.113m-4.34 10.21l-13.878-5.895a1.155 1.155 0 0 0-1.508.608c-.245.58.03 1.26.61 1.506l13.88 5.897a1.148 1.148 0 1 0 .897-2.113m-1.794 4.226l-13.88-5.896a1.15 1.15 0 0 0-1.505.607v.003a1.15 1.15 0 0 0 .61 1.505l13.878 5.895a1.15 1.15 0 0 0 1.505-.606v-.002a1.15 1.15 0 0 0-.606-1.504m-4.34 10.21l-13.88-5.896a1.153 1.153 0 0 0-1.505.608c-.246.58.026 1.258.608 1.507l13.88 5.893a1.15 1.15 0 0 0 1.504-.607 1.152 1.152 0 0 0-.606-1.507m-1.796 4.23l-13.88-5.898a1.15 1.15 0 0 0-1.506.607 1.15 1.15 0 0 0 .61 1.504l13.878 5.895a1.15 1.15 0 0 0 1.505-.608 1.15 1.15 0 0 0-.61-1.504m-4.337 10.21l-13.88-5.896a1.152 1.152 0 0 0-1.504.608 1.15 1.15 0 0 0 .606 1.505l13.88 5.896a1.148 1.148 0 0 0 1.504-.604h.002a1.154 1.154 0 0 0-.61-1.507m-1.792 4.224l-13.88-5.896a1.15 1.15 0 0 0-1.506.61l-.003-.002c-.243.582.03 1.26.613 1.506l13.88 5.896a1.15 1.15 0 0 0 1.504-.607 1.155 1.155 0 0 0-.606-1.505m-4.34 10.21l-13.88-5.896a1.153 1.153 0 0 0-1.505.605c-.247.582.027 1.26.608 1.507l13.88 5.895a1.15 1.15 0 0 0 1.505-.606 1.152 1.152 0 0 0-.607-1.506m-1.794 4.23l-13.88-5.897a1.148 1.148 0 1 0-.898 2.114l13.88 5.897a1.15 1.15 0 0 0 1.504-.606 1.152 1.152 0 0 0-.606-1.506m-4.338 10.21l-13.88-5.896a1.153 1.153 0 0 0-1.507.607c-.244.58.03 1.26.61 1.506l13.88 5.897a1.148 1.148 0 1 0 .9-2.11m-1.798 4.223l-13.88-5.897a1.15 1.15 0 0 0-1.506.61 1.15 1.15 0 0 0 .608 1.504l13.88 5.896a1.152 1.152 0 0 0 1.505-.608 1.15 1.15 0 0 0-.61-1.505m-4.335 10.21l-13.88-5.895a1.15 1.15 0 0 0-1.506.608 1.15 1.15 0 0 0 .606 1.504l13.88 5.896a1.15 1.15 0 0 0 1.505-.606 1.15 1.15 0 0 0-.606-1.506m-1.794 4.227l-13.88-5.896a1.153 1.153 0 0 0-1.507.61c-.247.58.027 1.26.608 1.507l13.883 5.894a1.15 1.15 0 0 0 1.505-.605 1.154 1.154 0 0 0-.608-1.507m-4.338 10.212l-13.882-5.896a1.147 1.147 0 1 0-.896 2.11l13.88 5.898a1.153 1.153 0 0 0 1.506-.608 1.15 1.15 0 0 0-.608-1.504m-1.796 4.225l-13.88-5.896a1.15 1.15 0 0 0-1.505.605c-.245.582.03 1.26.61 1.506l13.88 5.898a1.15 1.15 0 0 0 1.504-.61 1.153 1.153 0 0 0-.607-1.505m-4.337 10.213l-13.88-5.896a1.15 1.15 0 0 0-1.507.607 1.15 1.15 0 0 0 .608 1.506l13.883 5.895a1.146 1.146 0 0 0 1.502-.608 1.15 1.15 0 0 0-.605-1.504m-1.796 4.227l-13.88-5.897a1.153 1.153 0 0 0-1.507.608 1.152 1.152 0 0 0 .61 1.506l13.88 5.896a1.147 1.147 0 0 0 1.502-.608 1.152 1.152 0 0 0-.607-1.505m-4.336 10.21l-13.882-5.896a1.15 1.15 0 0 0-1.505.608 1.15 1.15 0 0 0 .607 1.506l13.88 5.898a1.15 1.15 0 0 0 1.505-.607 1.154 1.154 0 0 0-.605-1.506m-1.797 4.226l-13.88-5.896a1.15 1.15 0 0 0-1.506.607v.003c-.247.58.026 1.258.607 1.506l13.884 5.894a1.15 1.15 0 0 0 1.502-.607h.002a1.153 1.153 0 0 0-.607-1.506m-4.338 10.21l-13.88-5.895a1.148 1.148 0 0 0-1.505.607 1.15 1.15 0 0 0 .607 1.505l13.88 5.898a1.153 1.153 0 0 0 1.506-.608 1.152 1.152 0 0 0-.608-1.506m-1.795 4.23l-13.882-5.898a1.15 1.15 0 0 0-1.505.608 1.152 1.152 0 0 0 .608 1.505l13.88 5.897a1.148 1.148 0 1 0 .897-2.113m-4.335 10.21l-13.88-5.897a1.15 1.15 0 0 0-1.506.607c-.247.58.028 1.26.608 1.507l13.88 5.895a1.152 1.152 0 0 0 1.505-.607 1.152 1.152 0 0 0-.608-1.506m-1.796 4.225l-13.88-5.897a1.154 1.154 0 0 0-1.507.61c-.245.58.03 1.257.61 1.504l13.88 5.896a1.15 1.15 0 0 0 1.504-.608 1.15 1.15 0 0 0-.605-1.505" fill="#9a57b4"/><path d="M332.96 296.364l-56.31-235.76 333.432-79.638 56.31 235.758-333.432 79.64z" fill="#fab867"/><path d="M258.315-84.997l147.68 153.104c7.943 8.236 7.706 21.474-.53 29.417l-34.942 33.703-12.64 12.192c-3.08 2.97-4.983 3.85-8.292 2.3l-7.373-3.457c-3.66-1.716-7.61-.606-11.332 2.986l-43.7 42.15c-3.722 3.59-4.973 7.495-3.39 11.216l3.188 7.494c1.43 3.366.48 5.236-2.6 8.208l-12.64 12.19-95.217 91.847c-8.236 7.943-21.473 7.704-29.416-.53L-.573 164.718c-7.944-8.236-7.706-21.472.53-29.417l228.94-220.83c8.236-7.943 21.473-7.704 29.417.53" fill="#36485c"/><path d="M-104.06 228.554l239.322 38.455-54.385 338.466-239.32-38.453 54.383-338.47z" fill="#fff"/><path d="M-48.317 274.702L67.87 293.37l-.958 5.96-116.186-18.67.957-5.958zm-41.998 8.53L105.08 314.63l-.958 5.957-195.394-31.395.957-5.96zm-1.675 10.428l195.394 31.396-.957 5.96-195.394-31.398.958-5.958zm-1.675 10.428l195.394 31.395-.96 5.958-195.393-31.393.957-5.96zm-1.675 10.425l195.394 31.396-.958 5.957-195.393-31.396.957-5.96zm-1.676 10.43l195.394 31.393-.958 5.96L-97.973 330.9l.957-5.96zm-1.674 10.424l195.393 31.396-.958 5.958-195.393-31.394.958-5.958zm-1.676 10.427L95.027 377.19l-.957 5.958-195.394-31.395.958-5.96zm-1.676 10.428l195.395 31.396-.958 5.957L-103 362.18l.958-5.958z" fill="#ccc"/><path d="M45.543 523.382c13.994 2.248 23.516 15.416 21.267 29.41-2.248 13.994-15.416 23.516-29.41 21.27-13.994-2.252-23.516-15.418-21.267-29.41 2.25-13.998 15.416-23.518 29.41-21.27" fill="#f2675d"/><path d="M24.127 567.638a25.792 25.792 0 0 1-7.074-11.002l24.42-7.915-17.346 18.92z" fill="#fcd8d6"/><path d="M17.053 556.636a25.554 25.554 0 0 1-.92-11.984c1.302-8.105 6.263-14.707 12.927-18.396l12.41 22.465-24.417 7.917z" fill="#f9b3af"/><path d="M29.06 526.256a25.566 25.566 0 0 1 16.483-2.874l-4.07 25.34-12.413-22.466z" fill="#f48c85"/><path d="M45.543 523.382l-4.07 25.34 20.912-14.872c-3.846-5.408-9.773-9.333-16.842-10.468" fill="#f2675d"/><path d="M12.982 574.554l10.43 1.675-.477 2.972-10.43-1.675.477-2.974zm15.26 2.45l30.988 4.98-.478 2.974-30.987-4.98.478-2.974z" fill="#ccc"/><path d="M24.488 419.783l8.758 1.407-1.254 7.8-8.756-1.408 1.252-7.8z" fill="#ffae00"/><path d="M22.42 432.657l8.756 1.406-1.252 7.8-8.756-1.408 1.252-7.798z" fill="#f7837b"/><path d="M20.352 445.53l8.757 1.408-1.255 7.8-8.757-1.408 1.252-7.8z" fill="#ffcda1"/><path d="M18.282 458.405l8.758 1.406-1.254 7.8-8.757-1.406 1.25-7.798z" fill="#596273"/><path d="M16.214 471.28l8.757 1.405-1.25 7.8-8.758-1.408 1.254-7.798z" fill="#6db4c2"/><path d="M41.443 422.508l10.66 1.712-1.254 7.8-10.66-1.713 1.252-7.8zm-2.067 12.874l24.38 3.916-1.253 7.8-24.38-3.917 1.253-7.797zm-2.07 12.874l32.703 5.255-1.255 7.8-32.703-5.253 1.254-7.8zm18.662-23.414l27.314 4.39-1.253 7.798-27.316-4.39 1.253-7.798zm10.888 14.955l7.67 1.23-1.255 7.802-7.666-1.233 1.253-7.8zm10.444 1.677l18.89 3.037-1.252 7.8-18.893-3.035 1.254-7.8zm14.754 28.784l-10.658-1.712-1.253 7.8 10.658 1.71 1.255-7.798zm-14.524-2.333l-27.315-4.39-1.253 7.8 27.314 4.39 1.254-7.8zm-31.634-5.085l-10.657-1.71-1.256 7.8 10.658 1.712 1.253-7.8zm16.608 15.878l-7.667-1.233-1.254 7.797 7.668 1.234 1.255-7.798zm-10.44-1.678l-18.894-3.037-1.253 7.8 18.892 3.035 1.252-7.8z" fill="#ccc"/><path d="M-115.088 468.84L.892 487.474l-.25 1.565-115.98-18.638.25-1.564z" fill="#ccc" fill-rule="nonzero"/><path d="M8 413.852l-11.84 73.666-1.565-.253L6.435 413.6l1.563.252z" fill="#ccc" fill-rule="nonzero"/><path d="M-112.31 451.553L3.67 470.19l-.25 1.562-115.982-18.636.252-1.563zm2.78-17.28l115.825 19.47-.256 1.555-115.827-19.47.256-1.556zm2.775-17.29L9.225 435.62l-.25 1.563-115.98-18.637.25-1.563zm2.777-17.286l115.98 18.636-.25 1.564-115.98-18.636.25-1.562z" fill="#ccc" fill-rule="nonzero"/><path d="M-83.675 420.975l-33.133 47.872 1.954 1.352L-83 424.176l13.692 35.693.487 1.274 1.194-.66 24.084-13.282 18.708 20.16 1.063 1.143.82-1.33 23.91-38.79 4.273 2.636.637-12.87-11.21 6.355 4.277 2.635-23.09 37.458-18.28-19.692-.63-.682-.815.45-23.7 13.072-14.01-36.52-.807-2.1-1.28 1.85z" fill="#6db4c2" fill-rule="nonzero"/><path d="M423.273 111.308c26.023 1.743 116.813 17.378 130.555 21.82 13.745 4.443 13.774 21.856 13.15 28.9-.623 7.046-9.11 8.287-8.054-3.635 1.054-11.922.587-18.473-7.66-19.942-8.25-1.466-119.945-17.52-127.718-18.422-7.774-.903-5.442-9.5-.274-8.72" fill="#254659"/><path d="M572.185 124.487c-25.927-2.854-118.05-3.408-132.36-1.448-14.31 1.957-17.4 19.094-18.022 26.14-.623 7.044 7.515 9.756 8.57-2.167 1.054-11.92 2.665-18.29 11.042-18.285 8.377 0 121.157 3.814 128.968 4.29 7.812.478 7.027-8.396 1.802-8.533" fill="#254659"/><path d="M462.66 111.837a92.714 92.714 0 0 0-2.07-.383c-13.43-2.308-33.645-2.418-37.208-1.612-4.26.963-4.41 1.29-4.874 4.425-.464 3.134-.187 5.883 2.188 6.916 3.238 1.406 2.895 5.623 4.018 17.91.915 10.01 4.29 18.383 19.876 22.496l1.068-2.95c-6.72-1.976-12.706-5.662-14.995-10.804-4.502-10.113-4.108-29.706 3.12-33.152 3.548-1.69 16.07-1.86 27.76.224l1.116-3.073zm34.633 9.03c-4.405-.294-21.44-6.436-34.634-9.03l-1.12 3.072c9.497 1.692 18.443 4.87 21.58 9.93 5.885 9.484-6.782 30.214-17.4 34.13-5.26 1.94-13.06 1.73-20.063-.33l-1.068 2.948c1.836.484 3.84.91 6.032 1.273 20.403 3.37 28.458-9.247 31.057-13.31 4.637-7.248 4.346-17.83 14.72-16.913 10.377.918 8.433 11.116 11.723 19.067 1.476 3.564 5.3 13.23 17.338 17.098l1.057-2.912c-1.68-.52-3.215-1.167-4.536-1.94-9.764-5.72-18.593-28.352-11.135-36.656 5.188-5.776 19.536-6.67 31.72-5.59l1.182-3.25c-2.913-.224-5.757-.364-8.37-.38-12.18-.077-27.167 3.517-38.085 2.792m28.17 47.937c3.017.97 6.55 1.577 10.698 1.63 21.073.27 26.71-8.01 29.682-18.85 3.264-11.9 3.666-16.11 7.1-16.925 2.52-.6 3.277-3.258 3.37-6.425.094-3.166.005-3.516-4.02-5.212-2.72-1.144-16.258-3.615-28.544-4.564l-1.18 3.25c8.66.77 16.227 2.534 18.632 4.257 6.51 4.662 3.458 24.02-2.75 33.185-5.548 8.19-21.54 9.95-31.932 6.744l-1.056 2.913z"/><clipPath id="a"><path d="M427.725 113.38h137.11v54.02h-137.11z"/></clipPath><g opacity=".5" clip-path="url(#a)"><clipPath id="b"><path d="M427.725 113.38h137.11v54.02h-137.11z"/></clipPath><g clip-path="url(#b)"><path d="M561.2 125.962c-5.79-4.147-41.48-8.55-50.354 1.332-7.46 8.305 1.37 30.937 11.136 36.655 9.476 5.55 30.023 4.71 36.468-4.805 6.208-9.165 9.26-28.522 2.75-33.185m-127.416-11.275c6.428-3.064 42.335-1.133 49.338 10.154 5.884 9.485-6.783 30.213-17.4 34.13-10.304 3.8-30.385-.636-35.06-11.133-4.5-10.114-4.108-29.706 3.122-33.153" fill="#fff"/></g></g><clipPath id="c"><path d="M437.32 113.38h47.296v38.33H437.32z"/></clipPath><g opacity=".5" clip-path="url(#c)"><clipPath id="d"><path d="M437.32 113.38h47.296v38.33H437.32z"/></clipPath><g clip-path="url(#d)"><path d="M437.32 113.798c11.173-1.57 39.647 1.123 45.802 11.042 4.126 6.652-.873 18.835-7.89 26.87l-37.913-37.912z" fill="#fff"/></g></g><clipPath id="e"><path d="M516.944 121.308h47.89V162.2h-47.89z"/></clipPath><g opacity=".5" clip-path="url(#e)"><clipPath id="f"><path d="M516.944 121.308h47.89V162.2h-47.89z"/></clipPath><g clip-path="url(#f)"><path d="M516.944 123.587L555.56 162.2c1.137-.897 2.115-1.912 2.89-3.054 6.208-9.165 9.26-28.522 2.75-33.185-4.86-3.48-30.81-7.14-44.256-2.373" fill="#fff"/></g></g><path d="M546.31 329.293l243.683 29.142-14.573 121.842-243.682-29.143 14.57-121.84z" fill="#fff"/><path d="M672.325 399.415l85.24 10.194c2.468.293 4.248 2.557 3.953 5.03l-4.56 38.124a4.537 4.537 0 0 1-5.027 3.955l-85.24-10.194a4.538 4.538 0 0 1-3.952-5.03l4.56-38.127a4.54 4.54 0 0 1 5.028-3.956" fill="#98e6d6"/><path d="M730.948-11.718c33.21-18.525 75.15-6.62 93.674 26.59 18.526 33.212 6.62 75.15-26.593 93.676-33.21 18.525-75.15 6.62-93.675-26.592-18.524-33.21-6.62-75.15 26.592-93.674" fill="#fff"/><path d="M733.01-8.023c31.17-17.386 70.53-6.212 87.918 24.958 17.385 31.17 6.212 70.53-24.958 87.917-31.17 17.387-70.532 6.212-87.918-24.957-17.387-31.17-6.213-70.532 24.957-87.918" fill="#e6e6e6"/><path d="M720.693-21.414l4.033-2.25c2.586-1.44 5.882-.506 7.324 2.08L748.542 7.98c1.442 2.586.506 5.883-2.08 7.326l-4.032 2.25c-2.587 1.442-5.883.506-7.326-2.08l-16.49-29.563c-1.442-2.587-.508-5.885 2.08-7.327" fill="#fff"/><path d="M722.737-19.48l2.56-1.43a3.43 3.43 0 0 1 4.654 1.323l15.48 27.752a3.428 3.428 0 0 1-1.32 4.653l-2.56 1.43a3.432 3.432 0 0 1-4.653-1.322l-15.48-27.753a3.434 3.434 0 0 1 1.32-4.654" fill="#e6e6e6"/><path d="M738.067 1.048c26.16-14.592 59.197-5.214 73.79 20.946 14.59 26.16 5.213 59.196-20.948 73.788-26.16 14.593-59.198 5.215-73.79-20.946-14.59-26.16-5.213-59.196 20.946-73.788" fill="#fff"/><path d="M740.69 5.75c23.564-13.143 53.32-4.696 66.463 18.868 13.143 23.562 4.696 53.317-18.866 66.46-23.564 13.144-53.32 4.697-66.46-18.865-13.145-23.564-4.7-53.318 18.864-66.462" fill="#b3b3b3"/><path d="M744.252 12.133c20.038-11.176 45.34-3.994 56.52 16.044 11.176 20.038 3.992 45.342-16.045 56.52-20.038 11.176-45.342 3.992-56.517-16.045-11.18-20.038-3.995-45.342 16.042-56.52" fill="#886734"/><path d="M749.874 22.212c14.472-8.072 32.746-2.884 40.82 11.586 8.07 14.473 2.883 32.747-11.59 40.82-14.468 8.072-32.746 2.885-40.818-11.587-8.072-14.47-2.885-32.745 11.588-40.817" fill="#694f28"/><path d="M778.665 14.315a36.767 36.767 0 0 1 18.074 16.11c9.935 17.813 3.55 40.305-14.26 50.24a36.782 36.782 0 0 1-23.846 4.212 37.33 37.33 0 0 0 20.723-4.674c18.09-10.09 24.574-32.934 14.486-51.023a37.334 37.334 0 0 0-15.18-14.865" fill="#bd9d6e"/><path d="M728.337 136.376l30.39 32.464c5.764 6.16 5.444 15.912-.713 21.676l-87.322 81.743c-6.157 5.76-15.91 5.44-21.675-.718l-30.39-32.465c-5.765-6.158-5.442-15.91.714-21.675l87.323-81.742c6.156-5.763 15.91-5.44 21.675.716" fill="#fff"/><path d="M710.162 139.93l43.864 46.858-83.013 77.71-43.866-46.856 83.015-77.71z"/><path d="M727.627 147.764l19.733 21.08a1.43 1.43 0 0 0 2.016.066 1.43 1.43 0 0 0 .066-2.016l-19.73-21.08a1.43 1.43 0 0 0-2.018-.065 1.43 1.43 0 0 0-.067 2.013" fill="#b3b3b3"/><path d="M710.16 139.93L671.014 264.5l83.013-77.712-43.865-46.857z" fill="#4d4d4d"/><path d="M647.628 242.386a8.656 8.656 0 1 1-12.638 11.83 8.656 8.656 0 0 1 12.638-11.83" fill="#fff"/><path d="M645.763 244.132a6.1 6.1 0 1 1-8.905 8.34 6.1 6.1 0 0 1 8.905-8.34" fill="#b3b3b3"/><path d="M25.22 286.47l-16.98 3.027 9.222-14.576 106.858-71.79a3.805 3.805 0 0 1 5.264 1.033l3.527 5.25a3.807 3.807 0 0 1-1.03 5.267L25.22 286.47z" fill="#f85a68"/><path d="M25.22 286.47l-16.98 3.027 13.625-9.153 109.483-73.558 1.763 2.625a3.807 3.807 0 0 1-1.03 5.268L25.22 286.47z" fill="#c62229"/><path d="M25.22 286.47l-16.98 3.027 9.222-14.576 102.218-68.675c3.424 3.602 5.962 7.447 7.76 11.55L25.22 286.468z" fill="#fff"/><path d="M25.22 286.47l-16.98 3.027 13.625-9.153 102.202-68.666a38.437 38.437 0 0 1 3.372 6.115L25.22 286.47z" fill="#d0d0d0"/><path d="M25.22 286.47l-16.98 3.027 9.222-14.576 98.534-66.2c3.488 3.59 6.023 7.436 7.76 11.55l-98.536 66.2z" fill="#fab867"/><path d="M25.22 286.47l-16.98 3.027 13.625-9.153 98.554-66.214a35.757 35.757 0 0 1 3.335 6.138l-98.536 66.2z" fill="#f6931d"/><path d="M25.22 286.47l-16.98 3.027 9.22-14.575a37.936 37.936 0 0 1 4.404 5.422 38.07 38.07 0 0 1 3.356 6.125" fill="#f0b16c"/><path d="M25.22 286.47l-16.98 3.027 13.625-9.153a38.14 38.14 0 0 1 3.355 6.125" fill="#c78b4c"/><path d="M13.85 288.496l-5.608 1 3.045-4.815a12.75 12.75 0 0 1 2.563 3.816" fill="#1e1e1e"/><path d="M430.937 647.164l7.366 18.678c.285.722-.256 1.08-1.204.793l-6.893-2.083c-.948-.287-1.956-1.112-2.242-1.834l-7.365-18.68c-.283-.72.258-1.076 1.205-.79l6.892 2.083c.95.29 1.957 1.113 2.24 1.835" fill="#f6931d"/><path d="M434.172 650.934l10.193 25.846c.395 1-.1 2.14-1.1 2.534l-7.268 2.867c-1 .396-2.14-.1-2.535-1.1l-10.194-25.844a1.958 1.958 0 0 1 1.1-2.534l7.27-2.867c1-.394 2.14.1 2.534 1.1" fill="#fff"/><path d="M447.635 662.648l34.1 86.45a4.714 4.714 0 0 1-2.647 6.092l-17.475 6.892c-2.403.947-5.144-.243-6.09-2.646l-34.098-86.45c-1.965-4.984 2.415-10.515 4.017-11.148l11.65-4.595c1.6-.63 8.578.42 10.543 5.405" fill="#f6931d"/><path d="M452.306 664.383l31.655 80.26a3.337 3.337 0 0 1-1.873 4.315l-26.918 10.616a3.334 3.334 0 0 1-4.316-1.872l-31.656-80.26a3.34 3.34 0 0 1 1.875-4.317l26.92-10.617a3.336 3.336 0 0 1 4.314 1.875" fill="#fbd4a5"/><path d="M452.845 665.75l30.576 77.525-33.106 13.06-30.576-77.527 33.108-13.058z" fill="#f6931d"/><path d="M425.215 595.693l11.752 29.8a3.334 3.334 0 0 1-1.874 4.313l-26.92 10.617a3.333 3.333 0 0 1-4.313-1.872l-11.754-29.8a3.337 3.337 0 0 1 1.875-4.315l26.92-10.616a3.338 3.338 0 0 1 4.316 1.874" fill="#fbd4a5"/><path d="M431.936 622.232l-11.285-28.61a2.682 2.682 0 0 0-3.47-1.507l-21.646 8.54a2.68 2.68 0 0 0-1.506 3.47l11.283 28.608a2.686 2.686 0 0 0 3.47 1.508l21.648-8.537a2.685 2.685 0 0 0 1.51-3.47" fill="#f6931d"/><path d="M734.44 592.358l3.522 19.768c.135.764-.465 1.005-1.337.537l-6.343-3.408c-.872-.468-1.698-1.474-1.834-2.24l-3.523-19.766c-.135-.767.467-1.007 1.34-.54l6.342 3.406c.87.47 1.696 1.476 1.832 2.24" fill="#bd1d2d"/><path d="M736.864 596.694l4.873 27.35a1.957 1.957 0 0 1-1.58 2.267l-7.692 1.373a1.958 1.958 0 0 1-2.266-1.58l-4.876-27.353a1.96 1.96 0 0 1 1.58-2.268l7.692-1.37a1.96 1.96 0 0 1 2.267 1.582" fill="#fff"/><path d="M747.742 610.84l16.305 91.49c.452 2.543-1.258 4.994-3.798 5.447l-18.496 3.296c-2.542.454-4.992-1.257-5.448-3.798l-16.302-91.49c-.942-5.275 4.448-9.83 6.14-10.132l12.33-2.2c1.696-.298 8.326 2.113 9.267 7.388" fill="#f2675d"/><path d="M751.976 613.467l15.138 84.938a3.34 3.34 0 0 1-2.692 3.86l-28.488 5.075a3.336 3.336 0 0 1-3.86-2.69l-15.137-84.94a3.336 3.336 0 0 1 2.692-3.858l28.486-5.078a3.338 3.338 0 0 1 3.86 2.693" fill="#f9b3af"/><path d="M752.233 614.914l14.62 82.045-35.038 6.242-14.62-82.045 35.038-6.244z" fill="#f2675d"/><path d="M746.613 583.377l5.62 31.537c.32 1.8-.89 3.536-2.69 3.857l-28.49 5.08a3.342 3.342 0 0 1-3.86-2.69l-5.62-31.538a3.34 3.34 0 0 1 2.693-3.86l28.488-5.074a3.335 3.335 0 0 1 3.86 2.69" fill="#f9b3af"/><path d="M747.947 610.72l-5.396-30.278a2.684 2.684 0 0 0-3.102-2.164l-22.91 4.085a2.68 2.68 0 0 0-2.163 3.102l5.395 30.277a2.685 2.685 0 0 0 3.102 2.167l22.91-4.086a2.685 2.685 0 0 0 2.165-3.104" fill="#f2675d"/><path d="M196.555 60.39l71.104 13.18-9.437 50.903-23.942 16.456-50.904-9.436 13.178-71.104z" fill="#fff"/><path d="M238.026 120.73l20.198 3.743-23.943 16.455 3.747-20.198zm-41.47-60.34l71.103 13.18-1.96 10.57-71.106-13.176 1.96-10.573z" fill="#f48c85"/><path d="M254.48 144.673l-20.198-3.744 23.942-16.458-3.743 20.2z" fill="#f9b3af"/><path d="M191.508 712.64l11.946-19.098-9.324-5.835-11.948 19.097 9.326 5.835z" fill="#fff"/><path d="M202.5 705.73l-16.302 26.054c-2.578 4.12-8.057 5.382-12.178 2.803l-2.81-1.757c-4.12-2.578-5.382-8.058-2.803-12.178l16.3-26.055L202.5 705.73z" fill="#fff"/><path d="M199.608 703.92l-15.216 24.32c-1.74 2.783-5.44 3.633-8.22 1.893l-1.897-1.187c-2.782-1.74-3.633-5.438-1.893-8.22l15.217-24.32 12.007 7.515z" fill="#fab867"/><path d="M217.94 681.052l-4.905 7.84-17.793-11.13 4.904-7.843c2.578-4.12 8.06-5.38 12.178-2.805l2.812 1.76c4.12 2.575 5.382 8.055 2.803 12.176" fill="#fff"/><path d="M213.963 680.978l-3.82 6.107-12.012-7.515 3.823-6.108c1.74-2.78 5.44-3.633 8.22-1.893l1.898 1.185c2.78 1.74 3.634 5.44 1.894 8.222" fill="#fab867"/><path d="M200.18 694.51a.893.893 0 1 1-1.515-.945.89.89 0 0 1 1.23-.283c.418.26.546.812.285 1.23m-3.975-2.487a.893.893 0 1 1-.283-1.23.89.89 0 0 1 .283 1.23" fill="#909faf"/><path d="M149.546 81.767a.844.844 0 1 1 .935 1.404L133.67 94.365c-2.264 1.506-4.574 1.182-6.308-.044a6.635 6.635 0 0 1-2.632-3.952c-.46-2.073.132-4.328 2.397-5.835l24.6-16.374c1.93-1.286 3.86-1.074 5.294-.108a5.162 5.162 0 0 1 2.143 3.23c.34 1.713-.215 3.6-2.16 4.895L135.48 90.505c-1.494.992-2.986.834-4.093.09a3.857 3.857 0 0 1-1.067-1.077 3.925 3.925 0 0 1-.58-1.404c-.26-1.326.175-2.79 1.68-3.792l14.102-9.385a.845.845 0 0 1 1.17.235.845.845 0 0 1-.235 1.17l-14.1 9.385c-.852.566-1.103 1.357-.966 2.062.057.285.17.56.33.796.16.24.365.45.604.61.58.39 1.387.46 2.22-.097L156.07 74.77c1.288-.857 1.66-2.07 1.445-3.162a3.45 3.45 0 0 0-1.435-2.163c-.907-.61-2.148-.73-3.42.117l-24.602 16.373c-1.59 1.06-2.01 2.63-1.688 4.067a4.91 4.91 0 0 0 .714 1.648c.338.51.763.954 1.243 1.294 1.204.85 2.816 1.07 4.405.012l16.814-11.19z" fill="#fff" fill-rule="nonzero"/><path d="M592.97 275.79l87.48 56.095-32.578 50.8-87.477-56.093 32.575-50.8z" fill="#fff"/><path d="M611.955 308.07l6.796 4.356-2.583 4.032-6.795-4.357 2.585-4.03zm8.953 5.74l12.253 7.857-2.584 4.03-12.25-7.856 2.583-4.03zm14.192 9.1l6.87 4.404-2.586 4.032-6.87-4.404 2.587-4.032zm-14.513 19.658l2.31 1.482-1.532 2.39-2.31-1.483 1.532-2.39zm3.795 2.434l5.438 3.486-1.534 2.39-5.436-3.487 1.532-2.387zm6.83 4.38l2.313 1.482-1.534 2.39-2.31-1.483 1.533-2.387zm3.796 2.433l5.438 3.487-1.534 2.388-5.436-3.486 1.532-2.39zm-31.09-29.985l6.12 3.924-1.535 2.39-6.118-3.925 1.532-2.39zm7.642 4.902l2.563 1.642-1.532 2.39-2.56-1.644 1.53-2.39zm3.633 2.328l2.562 1.644-1.532 2.39-2.56-1.643 1.53-2.39zm3.787 2.427l6.118 3.924-1.532 2.39-6.12-3.922 1.533-2.39zm7.643 4.903l2.562 1.643-1.533 2.388-2.56-1.64 1.53-2.39zm3.633 2.33l2.563 1.642-1.535 2.39-2.563-1.644 1.533-2.39zm-43.1-17.588l6.833 4.38-1.533 2.39-6.833-4.38 1.532-2.39zm8.536 5.473l2.86 1.835-1.53 2.39-2.862-1.836 1.532-2.39zm4.056 2.6l2.862 1.836-1.533 2.39-2.86-1.834 1.53-2.39zm4.227 2.71l6.833 4.38-1.533 2.39-6.832-4.38 1.532-2.39zm8.535 5.475l2.86 1.834-1.53 2.39-2.862-1.835 1.53-2.39zm4.057 2.6l2.86 1.835-1.533 2.39-2.86-1.836 1.533-2.39zm-25.28-9.81l-2.91-1.867-1.53 2.39 2.91 1.867 1.53-2.39zm42.123 27.01l-8.61-5.52-1.533 2.39 8.61 5.52 1.532-2.39zm-10.756-6.895l-3.604-2.313-1.534 2.39 3.606 2.312 1.532-2.39zm-5.11-3.278l-3.604-2.312-1.534 2.39 3.606 2.31 1.532-2.388zm-5.324-3.414l-8.61-5.52-1.533 2.388 8.612 5.523 1.53-2.39zm-10.755-6.896l-3.606-2.313-1.533 2.39 3.604 2.312 1.534-2.39zm-5.11-3.277l-3.606-2.313-1.535 2.39 3.605 2.31 1.534-2.388z" fill="#ccc"/><path d="M253.785 593.128l74.35-.49.013 1.95-74.35.488-.013-1.948zm.055 8.222l74.35-.49.013 1.95-74.35.487-.013-1.946zm.054 8.222l74.35-.49.012 1.948-74.35.488-.012-1.946zm.054 8.223l74.35-.49.014 1.948-74.35.488-.014-1.944zm.054 8.222l74.35-.49.012 1.946-74.35.49-.012-1.946zm.054 8.22l74.35-.49.013 1.948-74.35.49-.015-1.947zm.054 8.223l74.35-.49.012 1.948-74.35.488-.012-1.947zm.055 8.222l74.35-.49.012 1.948-74.35.49-.012-1.948zm.055 8.22l74.35-.488.012 1.947-74.35.49-.013-1.947zm.052 8.224l74.35-.49.014 1.948-74.35.49-.014-1.948zm.055 8.22l74.35-.49.012 1.95-74.35.49-.014-1.95zm.053 8.224l74.35-.49.014 1.947-74.35.49-.013-1.948zm.055 8.22l74.35-.49.013 1.95-74.35.49-.013-1.95zm.055 8.223l74.35-.49.012 1.95-74.35.488-.013-1.946zm.053 8.222l74.35-.49.013 1.947-74.35.49-.013-1.947zm.055 8.222l74.35-.49.013 1.948-74.35.49-.01-1.948z" fill="#fff"/><path d="M245.23 576.82l14.043-.094-2.46 6.773a2.646 2.646 0 1 0-1.807 4.976l-9.526 26.23-.25-37.888zm14.043-.094l10.002-.065-2.46 6.775a2.647 2.647 0 0 0-1.808 4.975l-19.35 53.275-.177-26.978 9.527-26.23a2.645 2.645 0 0 0 3.55-2.507 2.65 2.65 0 0 0-1.743-2.47l2.46-6.774zm10.002-.065l10-.064-2.46 6.773a2.645 2.645 0 0 0-3.55 2.505 2.65 2.65 0 0 0 1.744 2.47l-29.176 80.322-.178-26.982 19.35-53.275a2.646 2.646 0 0 0 1.808-4.975l2.46-6.774zm10-.064l10.002-.066-2.46 6.772a2.648 2.648 0 0 0-1.807 4.977l-38.997 107.365-.178-26.98 29.174-80.32a2.648 2.648 0 0 0 3.55-2.506 2.648 2.648 0 0 0-1.745-2.47l2.46-6.776zm10.002-.066l10-.066-2.46 6.77a2.648 2.648 0 0 0-1.807 4.98l-48.82 134.412-.177-26.98L285.01 588.28c.286.1.596.157.92.154a2.646 2.646 0 0 0 .887-5.133l2.46-6.772zm10-.066l10-.067-2.458 6.773a2.647 2.647 0 1 0-1.808 4.977L254.226 727.97l-8 .053-.037-5.397 48.82-134.412a2.65 2.65 0 0 0 3.55-2.508 2.653 2.653 0 0 0-1.744-2.47l2.46-6.77zm10-.067l10.002-.065-2.46 6.772a2.646 2.646 0 1 0-1.808 4.976l-50.785 139.825-10 .065 50.784-139.823a2.647 2.647 0 0 0 1.808-4.977l2.458-6.773zm10.002-.065l10-.066-2.46 6.773a2.647 2.647 0 1 0-1.81 4.975l-50.78 139.823-10 .065 50.785-139.825a2.648 2.648 0 0 0 1.807-4.976l2.46-6.772zm10-.066l7.194-.048.996 151.205-63.242.416 50.785-139.826a2.647 2.647 0 0 0 1.808-4.976l2.46-6.773z" fill="#36485c"/><path d="M247.465 579.026l11-.074-1.65 4.547a2.647 2.647 0 1 0-1.808 4.976l-7.347 20.226-.195-29.678zm11-.073l10.002-.067-1.65 4.548a2.647 2.647 0 0 0-1.81 4.976l-17.17 47.274-.177-26.98 7.347-20.227c.287.105.597.16.92.156a2.643 2.643 0 0 0 2.63-2.663 2.65 2.65 0 0 0-1.742-2.47l1.65-4.547zm10.002-.067l10-.066-1.65 4.548a2.646 2.646 0 0 0-1.808 4.977l-26.994 74.322-.178-26.983 17.17-47.274a2.646 2.646 0 0 0 1.81-4.975l1.65-4.55zm10-.066l10.002-.066-1.654 4.548a2.648 2.648 0 0 0-1.807 4.977L248.19 689.642l-.177-26.977 26.993-74.322a2.647 2.647 0 1 0 1.808-4.976l1.65-4.548zm10.002-.065l10-.067-1.653 4.548a2.648 2.648 0 0 0-3.55 2.506 2.653 2.653 0 0 0 1.742 2.47l-46.64 128.412-.178-26.98L285.01 588.28c.286.1.596.157.92.154a2.646 2.646 0 0 0 .886-5.132l1.652-4.548zm10-.066l10-.068-1.65 4.548a2.646 2.646 0 1 0-1.808 4.976l-49.98 137.6-6.602.044-.06-9.165 46.64-128.41a2.65 2.65 0 0 0 1.808-4.978l1.652-4.55zm10-.068l10-.068-1.65 4.55a2.646 2.646 0 1 0-1.808 4.976l-49.977 137.597-10.002.067 49.978-137.598a2.647 2.647 0 0 0 1.808-4.977l1.65-4.548zm10-.068l10-.064-1.65 4.55a2.648 2.648 0 0 0-1.807 4.976l-49.98 137.597-10 .065L315.01 588.08a2.648 2.648 0 0 0 1.808-4.976l1.652-4.55zm10-.063l5.8-.037.966 146.764-60.2.395 49.976-137.597a2.646 2.646 0 1 0 1.808-4.977l1.652-4.548z" fill="#fff"/><path d="M247.613 601.522l86.806-.57.005 1.133-86.805.57-.007-1.133zm.057 8.618l86.806-.57.006 1.134-86.805.57-.008-1.134zm.056 8.618l86.807-.572.006 1.135-86.807.573-.008-1.134zm.057 8.617l86.806-.572.005 1.135-86.806.572-.008-1.135zm.057 8.615l86.806-.57.007 1.134-86.806.572-.007-1.135zm.057 8.62l86.805-.573.008 1.135-86.806.572-.007-1.135zm.057 8.616l86.806-.572.007 1.135-86.806.57-.005-1.135zm.056 8.617l86.807-.57.007 1.134-86.806.572-.007-1.138zm.057 8.617l86.806-.57.007 1.134-86.806.572-.007-1.135zm.057 8.617l86.805-.57.006 1.133-86.806.573-.006-1.136zm.056 8.618l86.806-.572.008 1.135-86.806.572-.007-1.135zm.057 8.617l86.806-.57.007 1.133-86.806.573-.007-1.136zm.056 8.618l86.806-.57.006 1.133-86.806.57-.007-1.133zm.057 8.617l86.806-.57.008 1.132-86.806.572-.007-1.136z" fill="#bdcad9"/><path d="M265.82 571.962a1.73 1.73 0 0 1 1.738 1.715l.076 11.764a1.73 1.73 0 0 1-1.714 1.74 1.733 1.733 0 0 1-1.738-1.714l-.077-11.765a1.73 1.73 0 0 1 1.714-1.737m10-.067a1.73 1.73 0 0 1 1.737 1.716l.077 11.763a1.73 1.73 0 0 1-1.714 1.738 1.73 1.73 0 0 1-1.737-1.715l-.078-11.764a1.73 1.73 0 0 1 1.715-1.738m10-.066a1.73 1.73 0 0 1 1.738 1.715l.078 11.764c.006.95-.764 1.73-1.715 1.737a1.733 1.733 0 0 1-1.736-1.716l-.078-11.764a1.73 1.73 0 0 1 1.716-1.737m9.998-.066a1.73 1.73 0 0 1 1.74 1.715l.076 11.762a1.73 1.73 0 0 1-1.714 1.738 1.73 1.73 0 0 1-1.738-1.714l-.078-11.764a1.732 1.732 0 0 1 1.715-1.738m10.002-.066a1.73 1.73 0 0 1 1.737 1.715l.076 11.764a1.73 1.73 0 0 1-1.714 1.74 1.735 1.735 0 0 1-1.74-1.717l-.076-11.765a1.732 1.732 0 0 1 1.715-1.737m10.003-.068c.95-.005 1.73.767 1.738 1.718l.08 11.762a1.73 1.73 0 0 1-1.716 1.74 1.735 1.735 0 0 1-1.74-1.716l-.076-11.763a1.734 1.734 0 0 1 1.716-1.74m10-.064a1.73 1.73 0 0 1 1.737 1.715l.08 11.766a1.73 1.73 0 0 1-1.715 1.74 1.734 1.734 0 0 1-1.738-1.717l-.077-11.765a1.73 1.73 0 0 1 1.714-1.738m-70.004.46a1.73 1.73 0 0 1 1.736 1.715l.077 11.763a1.73 1.73 0 0 1-1.714 1.738 1.73 1.73 0 0 1-1.74-1.714l-.078-11.767a1.734 1.734 0 0 1 1.716-1.738" fill="#f48c85"/><path d="M314.63 612.022l1.394-1 .03.014.028.013.026.012.024.016.02.015.02.018.017.02.014.02.012.02.01.02.01.02.006.024.004.024.002.022v.022l-.002.027-.005.024-.006.025-.008.024-.01.027-.012.028-.015.024-.017.028-.02.026-.02.027-.022.026-.023.027-.028.027-.03.025-.03.026-.034.026-.035.027-.035.024-.038.024-.04.023-.04.024-.04.02-.04.022-.042.02-.042.018-.044.017-.044.017-.043.014-.044.018-.045.013-.044.013-.044.01-.045.01-.042.01-.046.006-.042.007-.044.005-.042.005-.042.002h-.122l-.04-.005-.038-.004-.037-.005-.036-.006-.035-.01-.033-.007-.032-.012zm1.394-1l-1.393 1-.22-.22-.006-.09.008-.05.01-.04.01-.036.012-.036.013-.04.013-.035.016-.044.017-.044.02-.046.018-.047.02-.052.02-.05.023-.055.022-.053.023-.056.023-.056.024-.057.024-.057.023-.057.024-.057.023-.053.022-.06.02-.05.02-.054.02-.05.02-.047.017-.05.016-.04.013-.04.013-.035 1.806-.244-.016.044-.017.048-.018.05-.02.048-.02.05-.02.055-.022.055-.023.057-.02.053-.024.06-.024.058-.024.057-.023.057-.023.057-.023.056-.024.055-.02.054-.022.053-.02.05-.02.048-.016.046-.017.044-.015.038-.012.034-.012.03-.007.027-.006.018-.004.01.003-.02-.005-.07-.215-.21zm.304-.573l-.958-.62.04-.023.043-.022.042-.02.044-.02.04-.02.045-.017.044-.015.044-.017.044-.012.043-.014.046-.013.044-.01.045-.008.044-.01.044-.007.042-.005.043-.003.04-.004h.123l.04.003.037.003.04.005.034.007.035.007.03.01.034.007.03.013.03.013.026.014.027.017.024.016.023.015.02.02.016.02.013.02.012.02.01.023.007.02.007.026.003.022.002.025v.025l-.005.024-.005.027-.007.024-.01.026-.01.026-.015.024-.015.028-.018.026-.018.027-.024.027-.023.025-.025.028-.028.027-.03.025-.03.027-.032.024-.035.025-.037.023-.037.025-.04.024zm.425-.433l-1.807.243 1.382.188-.14.08-.162.09-.184.1-.205.11-.224.12-.244.125-.263.135-.277.137-.29.143-.303.146-.316.148-.323.148-.336.15-.342.15-.347.145-.354.14-.358.14-.36.133-.365.124-.365.12-.364.107-.364.097-.365.086-.362.072-.36.058-.353.038-.348.018-.336-.01-.32-.033-.294-.064-.264-.094-.228-.124 1.587-.9.094.05.104.037.112.023.127.015h.146l.164-.007.188-.02.21-.033.228-.046.246-.057.262-.072.275-.08.286-.09.292-.104.3-.112.302-.117.305-.122.304-.127.302-.128.3-.135.292-.134.285-.133.277-.134.266-.13.25-.125.24-.12.22-.116.204-.107.185-.1.16-.086.138-.077.11-.063 1.383.188zm-10.255 2.845l1.81-.26-.01.027-.01.027-.015.027-.017.027-.02.03-.02.025-.02.027-.024.026-.026.025-.028.027-.03.026-.03.024-.03.026-.035.023-.035.023-.035.023-.038.023-.038.022-.04.02-.04.02-.04.02-.043.016-.043.018-.042.015-.044.017-.045.014-.046.015-.045.01-.047.012-.047.01-.047.01-.048.007-.045.005-.045.003-.044.004-.044.003-.042-.003h-.04l-.04-.002-.037-.004-.037-.003-.036-.005-.033-.01-.033-.007-.032-.01-.028-.012-.027-.01-.027-.013-.022-.016-.022-.015-.02-.017-.02-.018-.015-.018-.015-.02-.012-.018-.012-.02-.007-.024-.006-.024-.003-.023-.002-.026.002-.025.003-.026.005-.028.008-.027zm1.7-.58l-1.588.9-.112-.32.066-.205.066-.194.062-.18.06-.17.06-.16.06-.15.057-.14.056-.135.06-.13.06-.12.06-.116.06-.11.066-.11.066-.104.066-.1.072-.1.074-.097.076-.093.078-.097.08-.092.08-.09.085-.093.09-.094.087-.096.092-.1.097-.104.1-.11.107-.114.11-.124.12-.13.125-.142.13-.15 1.584.12-.138.16-.134.15-.125.14-.118.13-.114.123-.106.112-.097.108-.09.1-.088.092-.08.085-.072.08-.07.078-.062.074-.06.07-.052.07-.052.068-.05.07-.048.07-.048.076-.048.08-.048.085-.048.093-.048.1-.05.108-.05.117-.053.127-.054.137-.054.148-.057.164-.06.172-.064.187-.066.2-.113-.32zm2.393-3.225l-1.534-.173.028-.028.028-.028.032-.028.032-.024.034-.026.034-.026.035-.023.037-.022.038-.023.04-.02.04-.02.038-.02.044-.02.04-.018.044-.017.045-.016.043-.017.044-.012.043-.013.044-.012.044-.012.045-.008.043-.007.045-.008.044-.005.043-.006.044-.002.042-.002h.084l.04.003.04.005.04.004.036.007.035.007.034.01.03.01.03.012.028.01.026.014.024.015.02.016.022.015.016.018.016.02.014.018.012.02.01.022.007.02.005.023.005.024v.048l-.003.026-.005.024-.007.026-.01.027-.01.027-.015.025-.017.026-.018.027-.02.03-.024.028-.025.028zm.026-.027l-1.584-.118 1.56.146-.147.146-.168.144-.193.154-.217.166-.245.177-.27.192-.294.204-.317.213-.34.22-.356.23-.374.232-.392.237-.402.24-.416.24-.425.24-.432.235-.44.23-.443.228-.446.216-.448.208-.448.197-.448.185-.447.17-.445.153-.443.135-.442.114-.44.09-.432.058-.42.025-.4-.02-.37-.062-.32-.11 1.454-.97.114.037.122.02.138.007.17-.01.202-.028.236-.05.268-.07.3-.09.322-.113.343-.13.357-.15.375-.164.383-.177.39-.19.393-.2.394-.206.394-.215.388-.22.382-.22.37-.22.362-.218.347-.217.33-.21.31-.203.29-.194.264-.182.237-.167.208-.15.175-.134.135-.108.093-.08.037-.034 1.56.146zm-12.04 4.87l1.843-.484v.026l-.003.025-.005.026-.006.028-.008.028-.012.027-.013.027-.014.026-.018.027-.022.027-.02.025-.022.028-.026.025-.026.027-.028.025-.03.025-.03.025-.033.023-.035.026-.034.02-.037.025-.04.022-.04.02-.04.02-.04.022-.043.017-.044.018-.044.018-.047.017-.045.013-.047.014-.046.014-.048.013-.047.01-.047.01-.046.007-.044.006-.045.003-.042.004h-.043l-.04.002-.04-.002h-.04l-.04-.003-.036-.005-.036-.005-.033-.006-.033-.007-.03-.01-.03-.01-.03-.01-.026-.015-.025-.01-.023-.017-.023-.017-.02-.017-.018-.015-.017-.02-.014-.02-.013-.02-.01-.024-.007-.02-.003-.026-.003-.023zm1.648-.73l-1.455.974-.195-.244-.003-.143.008-.15.014-.16.022-.17.03-.18.034-.185.043-.194.05-.2.052-.208.06-.21.064-.216.067-.217.075-.22.076-.222.082-.22.085-.223.09-.22.09-.216.096-.215.097-.207.1-.207.102-.198.103-.194.108-.186.11-.178.11-.173.118-.164.12-.158.13-.15.144-.147.167-.15.21-.152 1.103.528.02-.012-.03.027-.055.054-.07.082-.08.105-.087.12-.09.14-.09.15-.093.16-.092.173-.094.182-.09.19-.09.193-.09.2-.086.203-.082.21-.08.208-.078.21-.074.21-.07.208-.065.207-.06.203-.056.198-.05.194-.046.186-.04.18-.03.17-.028.16-.02.147-.01.136-.005.122v.106l-.193-.245zm2.476-5.225l-1.84.37.006-.026.007-.03.01-.027.012-.027.014-.027.014-.03.018-.025.02-.027.022-.027.023-.027.026-.026.027-.026.03-.025.03-.025.032-.025.033-.023.034-.024.034-.02.037-.023.04-.022.04-.02.04-.022.04-.017.043-.02.043-.017.044-.016.046-.016.045-.015.047-.014.048-.013.046-.01.05-.01.046-.01.046-.01.047-.003.043-.005.046-.003h.122l.038.002.038.003.037.005.036.006.066.016.03.01.03.008.027.013.026.014.024.012.022.014.02.018.02.016.017.02.028.04.01.02.01.022.007.023.004.023.003.025v.025l-.003.027zm-.37.45l-1.102-.53 1.47.08-.15.283-.126.128-.134.122-.16.135-.187.154-.216.17-.245.19-.274.205-.297.22-.323.232-.345.24-.364.253-.382.26-.4.263-.414.267-.427.267-.438.27-.45.263-.456.26-.463.253-.47.247-.472.235-.477.223-.48.21-.48.193-.48.175-.486.155-.483.13-.485.1-.48.068-.466.028-.447-.014.973-1.09.198.006.217-.013.244-.034.272-.06.3-.08.326-.104.35-.127.368-.15.384-.167.395-.186.403-.2.407-.215.412-.224.41-.236.408-.24.402-.245.396-.25.384-.247.372-.245.358-.24.34-.238.322-.226.3-.216.277-.203.25-.187.22-.173.19-.15.157-.125.116-.1.07-.062h.002l-.103.21 1.47.08zm-11.975 5.568l1.744-.755.013.02.012.022.008.023.008.02.006.026.003.022v.024l-.003.025-.004.025-.007.028-.01.025-.01.024-.01.03-.016.023-.016.027-.018.024-.02.03-.023.025-.024.026-.027.027-.028.025-.03.024-.03.027-.033.024-.034.025-.037.023-.037.023-.038.024-.04.02-.043.024-.042.02-.045.02-.044.018-.045.02-.046.015-.046.014-.045.017-.047.013-.044.01-.047.01-.044.01-.046.005-.044.01-.04.002-.045.003-.042.002-.04.002h-.08l-.04-.005-.035-.004-.036-.005-.035-.006-.034-.01-.033-.007-.03-.01-.028-.01-.028-.014-.027-.014-.024-.015-.022-.017-.02-.018-.02-.018-.014-.02zm1.358-.922l-.972 1.09-.384-.167-.084-.127-.066-.136-.054-.142-.04-.15-.03-.154-.02-.16-.006-.165v-.17l.007-.173.017-.175.022-.18.027-.182.032-.182.04-.185.042-.184.047-.188.05-.185.05-.182.056-.182.057-.177.057-.175.058-.17.058-.17.06-.16.055-.157.057-.152.054-.142.05-.134.05-.128.042-.116.04-.108.035-.096 1.805-.24-.037.103-.04.112-.045.117-.048.127-.05.134-.053.14-.055.15-.055.15-.056.16-.056.16-.056.167-.055.168-.055.172-.05.17-.05.173-.05.173-.042.174-.04.17-.035.17-.03.166-.025.164-.02.16-.014.152-.006.147v.142l.006.134.015.128.02.117.03.107.038.1.043.084.05.077-.386-.167zm.28-3.775l.05-1.012.046-.01.046-.01.045-.006.046-.007.045-.004.044-.005h.124l.038.003.038.003.038.005.035.005.033.008.032.01.032.007.03.01.054.024.025.014.023.016.022.015.02.014.017.02.014.018.014.02.01.022.01.022.007.022.006.024.002.024v.026l-.004.027-.004.026-.008.027-.01.027-.01.027-.014.027-.015.027-.018.03-.02.026-.02.026-.025.027-.024.025-.027.026-.028.026-.03.024-.03.024-.035.024-.033.024-.037.023-.037.023-.036.02-.04.023-.04.023-.04.018-.043.02-.042.018-.044.018-.045.015-.046.017-.047.013-.047.012-.048.012zm.927-.626l-1.805.24.877.385.112-.034-.024.014-.114.063-.17.106-.212.142-.245.176-.275.2-.297.223-.32.243-.338.26-.357.272-.374.284-.39.295-.405.3-.42.303-.433.308-.447.305-.46.305-.47.3-.484.292-.494.284-.507.27-.52.258-.53.243-.546.222-.558.2-.566.174-.576.145-.58.108-.58.068-.574.028-.56-.018.94-1.092.367.012.36-.017.362-.04.363-.07.373-.092.38-.116.393-.142.402-.163.41-.19.415-.206.42-.226.422-.24.42-.255.42-.267.414-.274.41-.283.404-.285.395-.288.386-.285.377-.285.366-.278.353-.27.34-.26.33-.25.313-.237.302-.222.29-.204.284-.192.283-.174.296-.165.338-.152.427-.136.88.386zm-14.055 6.772l1.77-.72.013.02.01.024.007.024.005.023.003.025v.05l-.006.026-.006.027-.007.025-.01.028-.012.025-.014.026-.016.027-.02.026-.02.028-.023.025-.024.025-.025.028-.027.025-.027.026-.03.023-.033.025-.035.025-.036.024-.038.023-.04.023-.04.02-.04.023-.043.02-.045.02-.045.02-.046.017-.045.016-.048.014-.046.015-.046.012-.044.01-.045.01-.043.012-.045.006-.043.006-.043.005-.044.006h-.16l-.04-.002-.036-.004-.037-.004-.035-.006-.033-.007-.033-.01-.03-.01-.03-.01-.03-.012-.026-.013-.024-.015-.024-.018-.02-.016-.02-.02-.016-.02-.015-.02zm1.356-.907l-.94 1.092-.414-.185-.1-.2-.066-.203-.03-.21.005-.22.038-.22.066-.224.09-.222.118-.226.137-.224.158-.22.175-.22.188-.22.202-.216.212-.213.22-.21.23-.207.235-.204.238-.2.24-.194.242-.192.24-.186.24-.18.234-.175.23-.168.22-.16.212-.157.2-.143.19-.137.173-.126.156-.115.14-.103.113-.094 1.323.37-.154.12-.166.127-.176.13-.184.135-.195.14-.2.145-.21.152-.21.155-.218.16-.22.163-.22.166-.22.17-.216.17-.214.176-.21.174-.2.175-.193.174-.185.173-.173.174-.158.17-.145.167-.133.166-.114.162-.096.157-.08.15-.06.146-.042.143-.025.137-.003.133.018.13.04.127.063.123-.414-.187zm4.543-4.485l-.572-.81.046-.02.046-.016.047-.016.044-.015.046-.013.045-.01.045-.012.045-.01.045-.01.044-.005.044-.005.042-.005.043-.003.043-.003h.08l.04.002.037.002.037.004.036.004.034.007.033.008.032.01.03.01.03.012.026.013.026.013.024.016.02.016.02.02.02.018.016.02.013.022.01.023.01.02.005.024.004.023v.049l-.002.026-.005.025-.007.026-.01.024-.01.028-.014.024-.016.026-.018.026-.018.025-.02.028-.024.025-.025.025-.026.027-.03.026-.028.025-.03.027-.035.024-.033.027-.037.023-.038.023-.04.02-.04.024-.043.02-.044.022-.045.02zm.375-.22l-1.323-.37.948.59-.353.14-.403.15-.45.158-.502.168-.55.178-.594.187-.635.196-.674.2-.71.21-.737.21-.766.216-.786.218-.803.215-.818.217-.828.215-.83.213-.833.205-.83.2-.82.195-.81.184-.794.174-.774.164-.75.15-.724.138-.69.123-.658.107-.618.088-.58.068-.538.048-.495.024-.454-.005-.41-.037 1.09-1.075.195.02h.283l.365-.02.432-.037.495-.058.552-.08.6-.096.643-.114.682-.13.714-.142.743-.158.763-.167.784-.18.797-.187.808-.196.812-.202.812-.207.81-.21.798-.21.786-.214.77-.212.746-.21.72-.206.687-.2.653-.195.61-.185.566-.178.514-.166.46-.152.393-.14.32-.118.24-.096.946.588zm-21.964 4.764l1.83-.335-.005.024-.01.03-.01.026-.015.027-.015.027-.018.027-.02.028-.02.025-.024.028-.025.026-.026.026-.028.027-.03.025-.034.024-.032.024-.033.024-.035.022-.037.023-.04.022-.038.02-.04.02-.04.024-.042.016-.043.018-.043.018-.045.016-.046.015-.045.013-.045.012-.047.013-.047.01-.048.01-.046.008-.047.007-.047.006-.044.004-.044.003-.042.002h-.04l-.04-.004-.038-.004-.038-.005-.035-.005-.035-.006-.033-.008-.033-.008-.03-.01-.028-.014-.027-.012-.026-.014-.023-.015-.02-.013-.02-.018-.018-.017-.016-.02-.014-.02-.01-.02-.01-.022-.008-.022-.005-.022-.003-.025v-.055l.006-.028zm1.46-.704l-1.09 1.075-.37-.37.003-.02.003-.018v-.018l.002-.016.002-.018v-.04l.003-.02.002-.025v-.027l.005-.03.008-.043.015-.05.02-.048.03-.058.035-.053.042-.056.053-.06.052-.052.054-.05.058-.05.054-.042.05-.038.055-.04.06-.04.06-.04.06-.04.06-.037.064-.043.068-.04.073-.048.078-.048 1.044.566-.07.043-.064.04-.057.037-.05.03-.043.03-.037.025-.025.016-.017.013-.015.01-.01.007.012-.008.013-.015.018-.018.024-.027.02-.025.015-.025.013-.026.008-.02.007-.02.003-.01v.016l-.002.013v.042l-.003.03-.002.033-.004.035-.01.038-.007.042-.37-.37zm.655.062l-1.045-.567 1.887-1.183 1.675-1.088 1.47-.99 1.267-.898 1.077-.805.89-.715.714-.623.543-.53.378-.44.228-.345.098-.245.005-.16-.052-.09-.102-.064-.183-.043-.298-.014-.425.024-.538.072-.64.124-.732.172-.81.22-.875.27-.934.31-.98.355-1.02.39-1.052.423-1.073.46-1.085.487-1.093.514-1.09.54-1.08.564-1.065.58-.922-.64 1.126-.614 1.144-.592 1.15-.57 1.155-.543 1.15-.518 1.135-.484 1.118-.452 1.092-.416 1.057-.378 1.02-.34.976-.3.924-.253.87-.206.81-.156.75-.1.687-.04.617.036.525.13.383.236.192.34-.006.407-.18.456-.335.508-.485.565-.638.624-.796.697-.964.77-1.138.85-1.323.938-1.513 1.023-1.715 1.114-1.922 1.207zm-5.944-3.297l-1.898 1.06-.92-.638 1.896-1.062.922.64zm-2.82.423l.922.637-.04.022-.044.022-.043.02-.042.02-.044.017-.043.015-.044.018-.045.015-.043.012-.045.012-.044.01-.044.01-.044.008-.044.007-.044.007-.042.007-.043.003-.042.002h-.04l-.04.003-.04-.004h-.04l-.037-.005-.036-.006-.035-.006-.035-.007-.032-.01-.03-.01-.03-.012-.03-.012-.026-.014-.024-.017-.024-.015-.02-.02-.017-.018-.017-.02-.013-.02-.01-.02-.01-.024-.006-.02-.003-.024-.002-.025v-.024l.002-.026.004-.024.007-.027.01-.025.01-.024.013-.027.013-.024.016-.03.018-.024.02-.026.023-.027.025-.025.026-.027.03-.025.03-.027.03-.025.035-.025.033-.025.036-.027.04-.02.04-.024zm66.597 17.277l.944-1.093.04.005.038.005.037.008.035.007.033.008.03.01.03.013.03.01.024.015.024.015.022.017.02.016.017.02.016.017.014.02.012.02.007.02.008.023.007.022.003.022v.05l-.002.022-.005.026-.01.025-.008.028-.01.026-.015.03-.017.03-.018.025-.02.027-.025.03-.025.027-.027.026-.028.028-.03.027-.032.025-.034.024-.033.024-.036.024-.036.023-.038.024-.04.02-.04.023-.04.018-.04.018-.042.017-.043.018-.042.016-.045.014-.044.015-.044.012-.045.012-.043.01-.045.01-.044.008-.046.01-.044.003-.043.004-.045.005-.043.003h-.044l-.04-.002-.043-.003zm.944-1.093l-.944 1.093-.14-.008-.134-.004h-.128l-.12.008-.115.01-.107.01-.104.014-.1.02-.097.02-.097.022-.094.025-.095.03-.094.03-.096.035-.096.036-.1.04-.1.043-.105.048-.106.05-.11.054-.107.053-.114.06-.117.058-.12.064-.12.063-.124.066-.125.066-.13.07-.13.068-.136.07-.142.072-.144.072-.74-.734.106-.05.11-.056.11-.06.117-.06.12-.063.12-.064.126-.067.128-.068.132-.07.136-.07.14-.073.146-.07.148-.073.154-.073.16-.072.164-.07.17-.07.177-.066.18-.064.188-.062.192-.058.196-.05.202-.05.204-.042.207-.036.21-.03.212-.024.21-.016.214-.008.216-.002.215.005.217.012zm-5.326 1.62l.743.735-.813.383-.814.365-.812.345-.806.326-.798.303-.787.28-.772.26-.754.237-.735.214-.71.187-.69.162-.66.135-.627.106-.598.078-.564.043-.525.01-.488-.027-.44-.07-.382-.12-.31-.172-.224-.224-.12-.27-.02-.31.075-.343.17-.37.256-.397.343-.43.43-.458.52-.493.608-.53.706-.57.803-.606 1.234.436-.745.565-.64.518-.54.467-.446.423-.35.374-.26.325-.178.274-.105.23-.04.18.01.14.05.107.08.084.123.067.172.052.227.037.29.016.346-.008.404-.03.46-.06.503-.084.55-.113.585-.138.622-.164.65-.19.677-.21.696-.236.717-.258.73-.278.74-.298.745-.317.75-.337.746-.354zm-7.267-1.17l-1.832.335.008-.027.01-.027.01-.028.013-.027.017-.028.018-.026.018-.026.022-.028.023-.027.025-.025.026-.026.027-.026.03-.025.03-.022.034-.025.035-.023.036-.025.038-.022.037-.022.04-.02.04-.02.04-.02.042-.018.043-.018.042-.016.045-.016.045-.015.045-.015.046-.01.047-.014.046-.01.048-.01.046-.007.047-.007.045-.007h.045l.042-.003.04-.002.08.003.04.003.036.004.036.005.034.006.033.01.032.01.028.01.03.01.027.014.024.014.025.015.02.015.02.017.02.02.015.017.012.02.012.022.01.02.006.023.005.024.003.024v.05l-.006.027zm-.3.385l-1.234-.436 1.533.05-.002.015v.01l-.005.02-.006.022-.006.02-.008.028-.01.027-.01.03-.02.04-.022.04-.023.037-.023.034-.033.044-.03.034-.03.037-.033.032-.03.03-.04.04-.033.03-.034.032-.037.03-.035.032-.04.035-.042.033-.045.036-.045.035-.05.04-.05.04-.052.04-.06.046-.06.05-.066.05-1.283-.403.062-.048.055-.044.052-.04.05-.04.046-.035.04-.032.035-.028.03-.026.028-.024.022-.018.023-.02.017-.013.012-.014.01-.008v-.005l-.002.004-.004.004-.006.008-.01.017-.01.01-.005.01-.01.018-.008.016-.002.006-.002.007v.004-.003l.004-.01.002-.014.003-.013 1.532.05zm-1.965.28l1.282.4-1.215.895-1.158.774-1.107.656-1.06.547-1.016.443-.976.34-.93.235-.875.135-.802.037-.72-.054-.63-.135-.544-.2-.464-.255-.39-.305-.322-.342-.26-.373-.196-.397-.14-.418-.083-.428-.03-.435.026-.438.078-.435.135-.423.19-.413.26-.4.34-.387.448-.37.578-.336.686-.256.713-.134.678-.02.643.083-1.18 1.06-.362-.05-.248.005-.135.025-.08.03-.106.065-.152.128-.17.198-.165.254-.14.298-.104.332-.065.354-.02.366.024.37.07.367.12.358.166.335.215.31.26.276.303.235.342.19.38.142.41.087.443.036.48-.024.535-.082.604-.153.685-.24.776-.337.867-.45.954-.566 1.04-.692 1.12-.825zm-6.542-2.176l-1.823.606-.006-.024-.004-.023v-.05l.003-.026.006-.026.008-.027.01-.027.012-.024.014-.03.016-.025.017-.027.02-.026.022-.025.023-.026.025-.027.026-.025.03-.026.03-.024.03-.024.034-.024.035-.024.036-.023.038-.02.04-.023.04-.02.04-.022.043-.02.044-.02.045-.017.044-.016.047-.015.048-.016.047-.013.046-.013.047-.01.046-.01.045-.007.045-.008.044-.005.043-.004.04-.003.042-.002h.082l.038.003.038.004.036.005.035.005.036.01.064.017.028.01.028.012.026.012.025.014.023.015.02.02.02.015.017.02.015.02.012.02.012.022.01.024zm-1.5.834l1.178-1.06.322.228.016.056.017.05.016.045.015.045.014.042.014.038.012.038.012.038.01.04.01.04.008.04.007.04.003.045v.047l-.005.05-.01.053-.016.056-.02.055-.025.055-.028.053-.03.05-.03.05-.036.05-.034.05-.037.048-.04.05-.04.052-.043.054-.045.055-.05.06-.05.064-.055.067-1.616-.082.057-.07.053-.063.048-.057.042-.054.04-.046.03-.04.03-.036.023-.03.017-.024.013-.02.008-.013.007-.007.002-.004v.002l-.003.006v.002-.012l-.002-.01-.004-.01-.003-.022-.008-.023-.01-.03-.01-.033-.014-.036-.014-.042-.015-.046-.016-.05-.02-.053-.017-.06.322.228zm-.553.655l1.616.08-.71.8-.76.72-.813.646-.856.57-.892.496-.92.42-.93.344-.93.273-.922.204-.902.14-.878.086-.85.034-.816-.008-.78-.053-.74-.085-.696-.116-.648-.147-.596-.17-.54-.186-.477-.207-.415-.218-.344-.232-.27-.245-.187-.263-.086-.294.067-.347.305-.402.545-.37.64-.26.668-.163.714-.104.794-.056-.65 1.095-.613.042-.442.065-.25.06-.047.015.077-.052.04-.045v.033l.032.105.106.148.187.17.266.177.34.18.404.174.464.164.518.145.566.126.606.102.638.073.666.044.683.007.696-.03.7-.065.7-.11.692-.155.685-.2.673-.248.666-.305.66-.366.656-.438.647-.512.632-.6.612-.69zm-11.06 1.37l-1.752.123.018-.027.017-.03.02-.027.022-.027.024-.028.026-.026.026-.028.03-.025.03-.024.032-.023.034-.026.034-.02.035-.026.038-.022.037-.023.04-.022.04-.02.04-.02.042-.016.042-.016.043-.018.043-.014.045-.015.045-.015.044-.01.045-.012.045-.01.046-.01.047-.006.045-.008.045-.005.046-.003.045-.004h.086l.04.002.04.003.038.005.038.005.034.006.033.007.03.01.03.012.028.01.027.014.025.01.023.016.02.016.02.017.018.017.016.02.013.02.01.02.01.02.007.024.006.023.003.024v.024l-.003.026-.003.025-.007.03-.01.024-.01.03-.014.025zm-1.2.61l.65-1.095.55.486-.654 1.11-.73.974-.807.85-.88.73-.958.616-1.02.49-1.053.36-1.045.228-1.01.103-.962-.003-.91-.098-.858-.18-.8-.25-.744-.317-.678-.37-.61-.42-.53-.464-.448-.5-.353-.53-.25-.56-.135-.58-.01-.594.13-.612.295-.62.478-.626.674-.61.872-.572 1.05-.513 1.215-.444 1.372-.37 1.54-.295 1.715-.22-.48 1.083-1.534.197-1.306.25-1.085.29-.873.32-.684.332-.53.348-.405.37-.302.4-.202.43-.1.46.01.476.114.484.215.48.307.464.396.443.472.413.54.373.598.327.646.274.68.212.7.145.705.078.697.005.67-.067.643-.14.625-.214.63-.302.65-.417.662-.55.657-.697.636-.85.596-1.008.552.487zm-4.904-4.896l1.04-.105-.48 1.084-1.04.104.48-1.083zm1.71.128l-1.82.62-.006-.023-.004-.026-.003-.025v-.026l.003-.026.004-.025.008-.026.01-.024.01-.027.013-.027.015-.027.02-.027.017-.027.022-.028.02-.026.025-.026.026-.025.03-.027.03-.024.03-.025.033-.026.035-.023.034-.024.038-.022.038-.023.04-.02.04-.022.043-.02.044-.02.045-.016.045-.016.046-.018.05-.015.046-.013.046-.012.047-.01.045-.01.044-.01.044-.007.044-.005.04-.005h.044l.043-.005h.08l.04.003.038.002.036.004.035.007.036.007.033.01.03.008.032.01.027.012.027.012.024.015.025.014.02.015.02.018.017.02.015.02.015.02.01.02.01.023zm-1.15.853l.48-1.085.67.233.08.36v.37l-.07.384-.14.39-.204.397-.26.4-.313.4-.36.402-.402.4-.44.397-.473.394-.505.39-.53.388-.556.38-.575.375-.593.368-.606.358-.614.35-.623.338-.627.326-.627.315-.626.3-.62.287-.61.27-.597.25-.585.235-.566.214-.548.195-.527.173-.504.15-.48.126-.46.1.18-1.04.296-.065.35-.093.394-.116.434-.142.468-.165.495-.188.52-.21.54-.226.554-.245.564-.26.573-.275.576-.29.575-.3.57-.308.564-.32.55-.328.537-.332.518-.337.494-.34.47-.34.44-.34.405-.338.37-.335.33-.33.29-.32.245-.314.198-.304.15-.294.102-.282.05-.272v-.26l-.057-.255.668.234zm-13.233 8.288l-.182 1.04-1.794.3-1.585.178-1.386.056-1.193-.065-.998-.18-.8-.29-.6-.395-.4-.485-.21-.56-.037-.62.12-.667.264-.71.393-.745.508-.772.617-.79.715-.81.803-.815.884-.814.955-.812 1.017-.798 1.07-.78 1.12-.753 1.155-.72 1.19-.68 1.21-.634 1.23-.578 1.24-.515 1.242-.446 1.238-.36 1.224-.275 1.196-.17 1.154-.054-.774 1.1-.872.04-.92.133-.97.214-1.01.297-1.05.376-1.07.444-1.088.51-1.09.57-1.078.616-1.06.66-1.034.697-.993.72-.94.742-.886.75-.815.753-.74.75-.65.734-.555.714-.45.68-.34.644-.22.596-.098.542.028.478.154.413.283.344.423.282.576.21.752.133.948.05 1.162-.045 1.388-.156 1.626-.273zm11.898-14.37l-1.84.396.003-.027.006-.028.01-.025.01-.028.012-.028.015-.027.018-.027.02-.026.02-.026.023-.028.025-.025.026-.026.028-.026.03-.026.03-.026.033-.023.034-.025.036-.023.035-.022.04-.023.036-.02.043-.022.04-.02.042-.02.043-.016.043-.02.046-.017.045-.015.047-.015.047-.013.047-.013.048-.01.047-.01.046-.007.048-.007.045-.007.043-.003.044-.002h.12l.04.006.036.003.036.004.035.006.066.015.058.022.03.013.024.013.023.014.022.017.02.017.017.018.017.02.013.02.013.02.01.02.005.026.006.02.006.025v.05zm-1.308.748l.775-1.097.534.35-.1.32-.226.322-.316.31-.38.29-.43.274-.477.27-.52.263-.56.264-.598.265-.634.264-.67.268-.696.27-.724.274-.745.274-.766.277-.778.277-.79.28-.795.28-.797.283-.794.28-.788.28-.776.278-.76.278-.74.275-.714.274-.683.268-.65.265-.61.257-.56.25-.51.242-.453.23-.39.22-.987-.602.512-.288.557-.284.593-.28.633-.282.665-.283.696-.284.723-.283.744-.282.765-.284.78-.284.79-.285.796-.284.8-.28.8-.28.79-.283.782-.275.767-.274.746-.273.725-.265.694-.26.66-.257.62-.25.576-.24.526-.233.47-.222.406-.205.336-.19.26-.167.182-.137.106-.103.05-.07.02-.054.532.352zm-19.107 7.375l.985.6-.04.026-.042.02-.04.02-.045.024-.043.02-.043.017-.044.017-.044.016-.045.013-.047.013-.044.01-.045.01-.045.01-.043.01-.044.007-.043.007-.043.003-.042.006-.042.002h-.082l-.037-.003-.038-.004-.038-.003-.036-.005-.034-.007-.034-.007-.032-.01-.03-.01-.03-.012-.03-.014-.025-.013-.024-.016-.022-.02-.02-.015-.017-.018-.015-.02-.013-.02-.01-.02-.007-.023-.007-.024-.004-.022v-.078l.005-.024.006-.025.01-.024.01-.025.012-.027.015-.025.018-.027.02-.025.02-.026.023-.028.025-.026.026-.026.03-.025.03-.026.032-.027.034-.025.037-.024.037-.024.04-.024zm34.812 23.46l1.256-1.043.035.01.032.01.03.014.026.013.028.012.024.015.022.017.02.017.017.018.015.018.013.022.01.02.01.02.007.022.004.024.003.022v.025l-.002.024-.002.027-.006.024-.007.025-.01.03-.012.023-.014.027-.017.027-.02.028-.02.028-.022.027-.024.026-.028.03-.03.024-.03.027-.033.028-.035.024-.036.024-.036.025-.037.02-.04.024-.04.02-.04.02-.04.02-.042.02-.043.018-.042.017-.044.015-.044.012-.043.015-.045.012-.043.01-.045.01-.045.01-.044.01-.043.005-.044.004-.042.003-.04.003-.043.002h-.082l-.04-.003-.04-.006-.036-.004-.038-.007-.035-.01zm1.256-1.043l-1.256 1.042-.222-.066-.198-.08-.174-.088-.15-.1-.128-.11-.103-.12-.08-.123-.06-.13-.04-.135-.023-.137-.006-.14.01-.14.024-.144.036-.14.047-.144.057-.14.066-.142.074-.137.08-.137.09-.138.09-.13.098-.128.1-.125.105-.12.107-.118.11-.113.11-.11.115-.103.116-.098.12-.094.13-.094.144-.093 1.025.576-.007.006-.03.02-.045.037-.056.045-.062.056-.067.065-.07.073-.07.077-.072.08-.07.09-.07.09-.065.092-.06.093-.057.095-.05.097-.045.096-.038.096-.03.09-.023.09-.014.088-.007.085.003.077.012.077.02.07.032.07.04.06.05.06.06.05.074.05.085.044.1.04.117.035zm.797-2.826l-1.79.683-.01-.024-.008-.022-.006-.024V647.896l.004-.025.005-.023.007-.026.01-.027.013-.025.013-.025.016-.027.016-.025.02-.027.022-.026.024-.026.025-.026.025-.026.03-.023.03-.026.033-.026.033-.023.036-.023.037-.024.04-.023.04-.022.04-.02.042-.022.043-.02.045-.02.047-.017.046-.02.046-.015.045-.014.046-.014.046-.01.045-.01.047-.01.044-.01.046-.004.043-.004.042-.006.043-.003h.04l.04-.003.04.003.038.004.038.004.037.003.036.01.032.007.034.007.03.01.03.01.027.013.026.014.024.016.023.015.022.018.018.018.016.02.017.02.012.02zm-.383.63l-1.025-.576 1.408-.054.073.177.045.183.016.19-.01.195-.037.2-.057.2-.08.202-.096.204-.116.205-.132.203-.146.204-.162.2-.173.2-.183.2-.194.196-.205.192-.21.188-.22.185-.227.182-.23.175-.235.17-.24.164-.244.16-.245.15-.247.146-.248.136-.253.13-.256.123-.252.113-.26.102-.264.093-.268.082-.093-.976.087-.026.106-.037.127-.052.142-.062.153-.075.164-.084.173-.095.177-.107.182-.11.183-.12.184-.127.185-.132.18-.14.178-.14.174-.146.167-.15.16-.152.153-.152.14-.15.133-.155.12-.153.11-.15.095-.147.082-.142.068-.142.052-.138.04-.13.02-.127.008-.12-.01-.114-.027-.11-.043-.106 1.407-.053zm-5.07 3.845l.093.978-1.22.286-1.14.178-1.052.067-.957-.037-.86-.13-.756-.21-.663-.284-.57-.348-.482-.4-.4-.448-.322-.486-.25-.515-.177-.54-.11-.56-.045-.57.02-.574.08-.574.143-.565.2-.556.263-.533.326-.51.396-.49.476-.46.573-.425.68-.37.773-.29.813-.174.8-.05.778.065.76.17.757.276.765.384-1.54.93-.668-.336-.62-.226-.554-.125-.472-.04-.377.024-.29.063-.254.095-.264.147-.286.213-.294.286-.28.35-.255.4-.216.443-.172.472-.123.495-.072.508-.016.516.04.51.098.5.16.483.22.457.28.426.345.384.404.338.465.285.523.226.585.162.642.095.705.03.778-.05.86-.133.956-.226zm-.16-7.48l-1.844.49v-.025l.002-.027.004-.025.006-.026.01-.028.01-.026.013-.027.015-.026.017-.026.02-.028.02-.026.023-.026.024-.028.026-.025.028-.024.03-.025.03-.024.033-.025.03-.02.037-.025.037-.023.037-.02.04-.023.04-.02.04-.02.044-.02.043-.018.045-.018.045-.016.046-.015.046-.014.047-.014.048-.012.047-.01.045-.01.046-.006.046-.007.042-.004.044-.004.042-.002h.08l.08.003.035.005.037.005.034.006.064.015.03.01.03.012.026.013.026.012.023.014.042.034.018.018.016.018.013.02.012.02.01.024.008.022.005.025.002.025zm-1.69.71l1.537-.93.15.22-.01.304-.072.314-.128.317-.18.32-.224.32-.268.32-.305.313-.34.312-.37.307-.396.304-.42.3-.443.295-.46.288-.48.283-.49.275-.502.27-.514.26-.518.253-.524.24-.525.236-.525.222-.522.213-.52.2-.512.187-.5.174-.493.16-.48.146-.466.13-.45.113-.432.097-.417.077-.4.056.427-1.077.245-.036.287-.055.32-.07.354-.09.38-.106.402-.122.42-.136.437-.154.45-.164.458-.177.467-.19.47-.197.47-.208.466-.218.462-.222.453-.232.443-.235.43-.24.41-.243.393-.247.37-.246.347-.244.318-.244.29-.24.256-.238.224-.23.19-.226.155-.218.118-.212.083-.205.047-.2.006-.193.153.22zm-10.773 5.818l-.427 1.077-1.92.19-1.74.092h-1.57l-1.405-.08-1.244-.163-1.087-.234-.938-.302-.79-.36-.65-.41-.517-.46-.388-.493-.267-.525-.154-.547-.05-.56.05-.57.137-.572.223-.566.298-.556.37-.54.434-.516.496-.49.556-.457.618-.418.676-.37.733-.305.773-.226.784-.128.757-.018.705.093.645.2.584.3.53.41-1.675.83-.428-.33-.434-.224-.423-.13-.398-.056-.364.01-.343.056-.346.103-.365.153-.383.21-.393.265-.388.32-.368.364-.337.404-.294.43-.244.453-.184.47-.115.476-.04.474.04.47.13.458.223.437.324.414.433.384.548.347.672.306.804.258.946.203 1.097.143 1.258.073h1.427l1.605-.087 1.792-.176zm-3.707-7.23l-1.818.277.01-.027.012-.03.012-.025.015-.027.018-.03.02-.026.022-.028.023-.027.024-.024.027-.025.03-.025.03-.026.03-.026.033-.023.034-.024.035-.022.038-.02.04-.024.037-.02.04-.02.04-.02.043-.02.042-.015.044-.02.045-.017.046-.014.045-.013.047-.014.046-.012.046-.01.046-.01.047-.005.047-.006.044-.006.044-.002.045-.004h.083l.04.002.037.004.037.003.037.006.033.01.033.006.032.01.03.01.028.01.026.014.023.015.023.013.02.015.02.017.017.02.015.018.012.02.01.02.01.022.008.022.004.023.003.023v.026l-.002.026-.004.027-.007.026zm-1.746.554l1.674-.83.073.276-.02.062-.015.058-.016.054-.013.046-.01.045-.013.04-.01.035-.01.036-.012.035-.01.032-.014.038-.015.035-.017.04-.024.044-.026.042-.027.04-.026.04-.03.036-.028.034-.03.035-.024.026-.025.03-.03.03-.027.032-.03.034-.036.037-.037.043-.04.047-.044.053-.05.06-.055.066-.06.073-1.613-.086.065-.08.062-.072.054-.066.053-.063.05-.054.04-.05.04-.046.034-.038.032-.035.025-.026.023-.025.018-.02.01-.01.004-.007-.003.004-.004.01-.003.007.002-.008.003-.01.005-.014.006-.022.007-.026.01-.033.01-.037.012-.04.013-.05.016-.055.016-.06.02-.068.07.277zm-.69.718l1.613.085-.023.027-.026.028-.025.027-.03.028-.03.025-.032.024-.033.026-.035.024-.036.024-.038.022-.04.022-.04.02-.04.022-.04.02-.04.018-.043.016-.044.017-.043.017-.043.013-.043.014-.045.013-.045.012-.044.01-.045.008-.045.01-.044.005-.046.005-.044.006h-.043l-.044.003h-.042l-.04-.003-.04-.003-.04-.005-.038-.005-.035-.006-.034-.01-.03-.007-.03-.012-.03-.012-.027-.012-.025-.013-.02-.015-.023-.016-.02-.016-.017-.018-.015-.02-.013-.018-.013-.022-.01-.02-.007-.022-.004-.023-.004-.022v-.048l.004-.025.005-.027.008-.027.01-.024.013-.028.015-.028.018-.027.02-.028.022-.03z" fill="#4d4d4d" fill-rule="nonzero"/><path d="M313.335 663.065l-3.113-.2.09-.056.09-.054.093-.05.096-.05.1-.05.1-.048.103-.05.104-.044.105-.044.11-.042.105-.04.11-.04.11-.037.108-.036.11-.034.11-.032.11-.03.108-.03.11-.028.107-.025.106-.023.106-.02.103-.017.102-.018.1-.014.1-.012.097-.01.093-.006.09-.004h.176l.083.004.077.007.074.01.066.01.062.015.057.016.05.02.046.023.04.023.036.025.03.026.025.03.02.03.013.034.01.035.004.037v.035l-.008.04-.013.04-.017.043-.023.043-.027.045-.033.048-.038.047-.043.048-.05.05-.052.05-.058.05-.064.052-.07.05-.073.054-.078.054-.085.052zm-3.113-.2l3.113.2-1.723 1.125-1.724 1.238-1.713 1.337-1.693 1.42-1.664 1.492-1.63 1.55-1.59 1.594-1.55 1.634-1.503 1.65-1.456 1.665-1.41 1.662-1.352 1.654-1.302 1.63-1.242 1.597-1.185 1.557-1.125 1.496-1.064 1.435-1 1.36-.935 1.274-.87 1.178-.802 1.07-.737.954-.67.836-.616.712-.584.605-.713.582-2.15.996-2.27.143-.356-.36-.113-.48-.007-.662.083-.872 4.567-1.308-.08.827.006.583.075.333v.04l-1.748.15-1.462.637.135-.124.416-.43.54-.628.634-.79.716-.93.793-1.055.864-1.17.935-1.27 1.003-1.363 1.068-1.442 1.134-1.51 1.195-1.567 1.257-1.615 1.314-1.652 1.375-1.675 1.43-1.694 1.486-1.7 1.542-1.69 1.594-1.68 1.65-1.652 1.7-1.62 1.758-1.572 1.812-1.52 1.876-1.465 1.943-1.393 2.02-1.316zm-28.985 31.96l-4.567 1.306.1-.782.096-.772.09-.76.084-.75.077-.74.068-.73.062-.722.05-.715.045-.708.033-.7.023-.695.012-.69v-.685l-.01-.68-.026-.68-.038-.677-.05-.675-.067-.673-.083-.676-.096-.675-.113-.676-.13-.68-.146-.68-.164-.688-.183-.687-.204-.694-.224-.7-.242-.707-.264-.714-.285-.72-.308-.73-.33-.74 4.53-1.585.333.748.312.74.29.73.267.725.244.716.226.71.208.706.186.7.167.695.15.692.133.69.115.686.1.687.08.684.07.688.05.685.038.686.025.688.013.696v.693l-.012.697-.022.704-.034.71-.044.712-.054.724-.06.726-.07.738-.078.745-.084.754-.09.762-.096.776-.1.788zm-2.26-22.88l-4.53 1.582-.013-.034-.008-.038v-.04l.004-.04.01-.04.016-.044.02-.042.028-.046.03-.044.038-.048.04-.048.047-.048.05-.048.055-.048.06-.05.064-.05.067-.05.072-.05.075-.05.08-.05.084-.05.086-.05.09-.048.095-.05.098-.047.1-.046.103-.047.107-.047.107-.044.112-.045.113-.043.115-.042.116-.04.117-.038.115-.036.114-.03.115-.034.11-.028.11-.026.11-.025.107-.02.106-.02.1-.015.102-.014.097-.012.096-.01.092-.007.09-.004.086-.003.082.002h.078l.076.005.072.006.068.01.063.013.06.014.054.017.05.018.045.02.04.026.036.026.03.03.025.03.02.034z" fill="#f6931d" fill-rule="nonzero"/><path d="M112.85 60.158a.845.845 0 0 1-1.316-1.056l12.64-15.755c1.7-2.12 4-2.51 6.025-1.867a6.632 6.632 0 0 1 3.7 2.97c1.07 1.835 1.184 4.165-.517 6.287l-18.492 23.05c-1.45 1.808-3.354 2.19-5.014 1.703a5.155 5.155 0 0 1-3.02-2.43c-.842-1.53-.886-3.497.576-5.317l16.18-20.17c1.123-1.4 2.592-1.698 3.872-1.327.488.142.946.386 1.344.705.397.323.734.72.977 1.166.648 1.185.677 2.71-.456 4.123l-10.597 13.21a.844.844 0 0 1-1.316-1.056l10.6-13.213c.64-.794.64-1.626.296-2.255a2.236 2.236 0 0 0-1.315-1.062c-.67-.194-1.46-.016-2.087.766L108.75 68.8c-.966 1.204-.954 2.476-.418 3.45.213.39.507.734.853 1.012.348.28.747.494 1.17.617 1.046.307 2.267.046 3.223-1.147l18.492-23.05c1.195-1.49 1.12-3.114.38-4.387a4.93 4.93 0 0 0-1.18-1.354 4.94 4.94 0 0 0-1.577-.86c-1.403-.445-3.006-.166-4.2 1.323L112.85 60.16z" fill="#f48c85" fill-rule="nonzero"/></svg>