<svg viewBox="0 0 800 800" xmlns="http://www.w3.org/2000/svg" fill-rule="evenodd" clip-rule="evenodd" stroke-linejoin="round" stroke-miterlimit="1.414"><path d="M151.542 530.137l21.3-80.813 62.837-14.817 38.465 31.785-79.216 73.847-43.388-10.003z" fill="#d4b194"/><path d="M242.817 533.728c5.863-4.002 7.562-12.216 3.385-17.934l-39.87-54.572c-4.175-5.72-12.067-7.387-17.93-3.386-5.863 4-7.373 12.057-3.383 17.93l39.868 54.576c4.187 5.735 12.066 7.387 17.93 3.386" fill="#d4b194"/><path d="M146.062 542.894c6.444 2.974 15.538.586 17.122-6.31l19.34-84.153c1.583-6.893.136-14.148-6.31-17.123-6.445-2.973-14.132-.13-17.12 6.31l-19.34 84.156c-1.592 6.92-.138 14.146 6.307 17.12" fill="#ffd7b7"/><path d="M236.826 422.613c-2.64-6.588-10.15-9.662-16.776-7.18l-52.94 19.816c-6.627 2.48-9.82 10.186-7.18 16.776 2.64 6.59 10.18 9.803 16.775 7.178l52.942-19.817c6.648-2.487 9.82-10.185 7.18-16.774" fill="#ffd7b7"/><path d="M195.385 452.213c-4.43 11.322-18.522 60.148 12.064 56.975 30.585-3.175-33.882 43.455-33.882 43.455l-23.214-44.738s2.093-50.072 45.03-55.692" fill="#ffd7b7"/><path d="M149.293 509.83l48.244 44.386-22.672 33.553-52.964-39.006 27.392-38.933z" fill="#ffd7b7"/><path d="M262.873 201.71l239.374 38.125-53.92 338.544-239.373-38.128 53.92-338.542z" fill="#fff"/><path d="M331.435 324.004c-4.936-29.59-1.643-28.09-28.855-32.822-26.998-4.696-24.088-3.45-37.57 22.242l66.425 10.58z" fill="#2e5b78"/><path d="M266.273 310.997c-.345.86-.708 1.68-1.094 2.455l33.108 5.273 4.383-27.527-.043-.008-.162.71c-1.123-.194-2.325-.698-3.61-1.357-22.24-3.745-21.125-1.713-32.582 20.454" fill="#21445c"/><path d="M291.816 289.306l10.833 1.725-4.41 27.688-6-.957-3.542-8.88 3.118-19.574z" fill="#e6e6e6"/><path d="M298.268 265.28l16.5 2.627-3.8 23.867c-1.283 8.056-17.932 6.355-16.502-2.627l3.802-23.868z" fill="#ffddb8"/><path d="M312.065 284.876l.486-3.05-16.5-2.63-1.79 11.235 17.805-5.554z" fill="#e8c5a0"/><path d="M311.036 238.228c34.945 5.566 13.427 49.47-7.352 46.16-20.78-3.308-27.594-51.726 7.352-46.16" fill="#f0ceaa"/><path d="M311.036 238.228c34.945 5.566 13.427 49.47-7.352 46.16l7.352-46.16z" fill="#ffddb8"/><path d="M320.054 244.415c5.27 3.304 6.42 10.923 6.948 16.02.77 7.4-.204 6.622 3.19 1.616 3.397-5.005.904-29.32-17.218-32.207-18.125-2.887-28.402 13.877-27.43 24.085.972 10.208 1.343 7.88 4.112.694 7.12-18.48 20.13-7.82 30.398-10.207" fill="#7d5f54"/><path d="M330.96 257.688c1.23.486 1.31 3.18.187 6.022-1.124 2.84-3.03 4.75-4.258 4.265-1.228-.485-1.31-3.183-.186-6.022 1.125-2.84 3.03-4.75 4.257-4.265" fill="#ffddb8"/><path d="M286.072 250.538c-1.317.08-2.233 2.618-2.047 5.668.186 3.05 1.405 5.456 2.722 5.376 1.316-.08 2.233-2.618 2.047-5.668-.186-3.048-1.405-5.456-2.722-5.376" fill="#f7d6b2"/><path d="M313.482 292.756l-10.834-1.726-4.41 27.687 6.002.955 6.124-7.342 3.118-19.574z" fill="#fff"/><path d="M285.58 316.7c-1.752-1.774-3.693-2.9-5.773-2.955-.516-4.388 1.02-7.492 3.402-10.965-2.088-.725-5.35-.922-8.28.046 4.665-9.114 14.518-14.816 21.493-16-.626 3.918-6.82 12.858-4.012 18.473 1.18 2.357 2.343 7.335 2.98 12.963l-9.81-1.562z" fill="#142c3d"/><path d="M288.44 317.156c-2.08-3.28-4.46-5.71-6.886-6.097.823-4.448 1.524-6.508 4.465-9.484-3.222-1.087-6.64-1.1-9.57-.133 3.042-5.242 11.72-12.628 17.197-14.052-.623 3.922-1.17 12.568-.056 18.19.533 2.68 1.427 7.45 1.985 12.712l-7.136-1.136zM310.872 320.73c2.218-1.144 4.415-1.612 6.408-1.016 1.853-4.01 1.36-7.44.17-11.48 2.212-.04 5.196.762 8.398 2.708-1.965-6.272-6.523-16.536-12.785-19.83-.624 3.92 4.21 13.247-1.4 16.395-3.4 1.908-7.815 6.32-11.2 11.564l10.41 1.66z" fill="#21445c"/><path d="M308.015 320.273c2.994-2.472 6.012-4.042 8.438-3.656.6-4.482.575-6.657-1.297-10.4 3.4-.033 6.764 1.168 9.248 3-2.102-5.79-7.458-14.98-12.223-18.035-.624 3.92-2.32 11.612-5.51 16.764-1.96 3.168-4.184 6.907-6.14 11.135l7.485 1.193z" fill="#2e5b78"/><path d="M298.592 304.727l-3.155 13.542 5.535.882 1.208-13.852 8.052-13.034c-5.44-.968-9.81-1.65-15.244-2.43l3.604 14.89z" fill="#21445c"/><path d="M300.972 319.152l1.208-13.853 8.05-13.035a396.05 396.05 0 0 0-7.625-1.285l-4.416 27.728 2.782.444z" fill="#2e5b78"/><path d="M295.138 284.778l-6.023 4.328-2.59 10.14 15.89-8.252-7.277-6.216z" fill="#e6e6e6"/><path d="M311.63 287.405l4.38 5.985-.687 10.443-12.542-12.78 8.85-3.648z" fill="#fff"/><path d="M248.593 416.495l197.913 31.52-2.345 14.73-197.913-31.52 2.346-14.73z" fill="#36485c"/><path d="M245.063 438.658l197.914 31.52-1.116 7-197.912-31.523 1.115-6.997zM243.2 450.347l197.914 31.52-1.114 7-197.913-31.522 1.114-6.998zM241.34 462.035l197.915 31.52-1.116 7-197.915-31.524 1.115-6.995zM239.48 473.722l197.91 31.523-1.113 6.997-197.913-31.52 1.114-7zM237.617 485.41l197.914 31.522-1.114 6.998-197.914-31.522 1.115-6.998z" fill="#ccc"/><path d="M236.186 523.747l43.55-34.91c16.468-13.2-1.47-35.78-17.24-24.917L205.13 509.9c-11.792-2.815-28.196-3.244-44.195 1.99-25.55 8.36-25.966 50.334-12.666 64.35 13.3 14.015 38.492 9.89 59.13-7.63 21.618-18.348 16.9-35.336 28.785-44.863" fill="#ffd7b7"/><path d="M120.533 539.512l67.868 49.072-15.16 20.97-67.87-49.074 15.163-20.968z" fill="#fff"/><path d="M-85.38 810.04l81.406 58.858L180.01 614.444l-81.406-58.86L-85.38 810.04z" fill="#666"/><path d="M-44.676 839.47l-40.702-29.432L98.605 555.585l40.702 29.43L-44.676 839.47zM813.208 918.034l-85.46 52.8-165.043-267.127 85.46-52.8 165.043 267.127z" fill="#4d4d4d"/><path d="M770.48 944.435l42.728-26.4-165.044-267.128-42.73 26.4 165.044 267.128z" fill="#666"/><path d="M461.113 580.245c-3.18-6.347-.675-14.35 5.753-17.318l61.363-28.33c6.428-2.967 14.136-.59 17.316 5.755 3.18 6.346.585 14.12-5.754 17.315l-61.365 28.33c-6.444 2.977-14.134.594-17.314-5.752" fill="#d4b194"/><path d="M482.226 599.647c-4.15-5.76-2.95-14.06 2.924-18.014l56.074-37.73c5.874-3.952 13.862-2.835 18.012 2.926 4.15 5.756 2.825 13.845-2.925 18.008l-56.074 37.733c-5.89 3.967-13.86 2.836-18.01-2.923" fill="#d4b194"/><path d="M597.212 621.687l-15.385-82.146-65.624-13.816-36.64 23.393 73.653 79.4 43.996-6.83z" fill="#d4b194"/><path d="M505.917 618.647c-5.558-4.416-6.655-12.73-2.076-18.13l43.723-51.54c4.58-5.4 12.573-6.49 18.13-2.075 5.558 4.417 6.478 12.56 2.073 18.13l-43.72 51.54c-4.594 5.414-12.573 6.49-18.13 2.075" fill="#d4b194"/><path d="M601.754 634.806c-6.646 2.5-15.542-.543-16.62-7.533l-13.187-85.335c-1.08-6.99.89-14.123 7.535-16.622 6.644-2.498 14.104.895 16.618 7.535l13.187 85.338c1.084 7.016-.89 14.12-7.533 16.618" fill="#ffd7b7"/><path d="M517.327 517.26c2.252-6.73 9.57-10.235 16.33-8.144l53.345 15.737c6.786 2.002 10.394 9.598 8.14 16.33-2.252 6.732-9.59 10.38-16.33 8.14L525.47 533.59c-6.81-2.01-10.396-9.598-8.143-16.33" fill="#ffd7b7"/><path d="M450.936 547.402c-2.48-6.652.873-14.34 7.58-16.6l64.052-21.573c6.71-2.26 14.12.93 16.598 7.58 2.48 6.652-.934 14.103-7.58 16.597l-64.05 21.574c-6.732 2.27-14.12-.93-16.6-7.578M556.21 543.565c3.6 11.616 17.035 58.556-13.24 53.172-30.274-5.387 30.642 45.798 30.642 45.798L600.01 599.6s-1.38-47.314-43.8-56.036" fill="#ffd7b7"/><path d="M442.104 546.73l-14.618 3.85c-2.23.587-2.467 2.1 0 2.803l14.302 4.074.315-10.728z" fill="#2e93db"/><path d="M442.104 546.73l-12.606 3.32a4.15 4.15 0 0 1-.178 3.855l12.468 3.552.315-10.728z" fill="#fca71f"/><path d="M437.548 545.002l227.255.333.384 15.42-227.856-.283.218-15.47z" fill="#4b6480"/><path d="M664.994 553.045l.192 7.71-227.855-.283.11-7.76 227.554.333z" fill="#36485c"/><path d="M600.928 601.597l-51.336 40.77 20.178 35.107 55.652-35.06-24.494-40.817z" fill="#ffd7b7"/><path d="M589.166 602.806c24.877 10.19 22.246 52.084 7.965 65.1-14.28 13.013-43.74 10.85-58.42-11.898-16.575-25.68-4.816-27.67-29.27-50.377l-37.088-34.43c-6.094-5.66-7.528-14.814-2.3-21.306 5.226-6.49 14.798-7.51 21.3-2.297l53.878 50.02c11.966-1.953 28.357-1.192 43.936 5.19" fill="#ffd7b7"/><path d="M627.46 633.284l-71.25 44.02 13.602 22.013 71.248-44.02-13.6-22.013z" fill="#fff"/><path d="M613.898 539.477l57.745-2.887.54 21.748-3.133-.005-.476-19.13-54.612 2.89-.064-2.616z" fill="#36485c"/><path d="M608.334 542.084l67.665.103.54 21.747-67.665-.083-.54-21.766z" fill="#4b6480"/><path d="M676.27 553.06l.27 10.874-67.665-.083-.27-10.892 67.666.1z" fill="#36485c"/><path d="M603.198 545.207l5.215.058.384 15.42-5.817-.008.218-15.47z" fill="#fca71f"/><path d="M378.977 236.1l98.776 15.733-4.693 29.458-98.776-15.73 4.693-29.46z" fill="#36485c"/><path d="M423.59 262.467l.01.078c-.276 1.947-1.104 3.396-2.482 4.346-1.38.95-3.132 1.256-5.258.918-2.133-.34-3.754-1.314-4.863-2.923-1.11-1.608-1.488-3.512-1.137-5.71l.57-3.583c.348-2.19 1.284-3.885 2.806-5.083 1.523-1.2 3.323-1.633 5.4-1.302 2.19.35 3.812 1.194 4.863 2.535 1.05 1.342 1.402 2.997 1.056 4.967l-.036.07-3.457-.55c.19-1.19.054-2.146-.406-2.867-.46-.722-1.28-1.177-2.465-1.366-1.064-.17-1.977.137-2.743.916-.765.78-1.257 1.85-1.473 3.214l-.575 3.604c-.218 1.38-.07 2.56.448 3.545.516.984 1.336 1.565 2.455 1.743 1.112.178 1.982.005 2.61-.518.628-.523 1.038-1.384 1.23-2.582l3.444.55zM431.942 265.183l.063 1.014.074.012.357-.923 5.974-12.662 3.75.597-8.9 17.09-3.652-.582-3.14-19.007 3.75.597 1.724 13.863z" fill="#fff" fill-rule="nonzero"/><path d="M372.706 275.464l98.776 15.733-1.113 6.997-98.778-15.732 1.114-6.998zM370.845 287.15l98.777 15.733-1.114 6.998-98.778-15.73 1.115-7zM368.983 298.84l98.778 15.732-1.114 6.998-98.777-15.733 1.113-6.997zM367.122 310.528L465.9 326.26l-1.115 6.997-98.778-15.73 1.115-7zM365.26 322.216l98.777 15.732-1.114 6.998-98.777-15.732 1.114-6.998z" fill="#ccc"/><path d="M262.308 330.385l197.914 31.522-2.348 14.73-197.91-31.522 2.344-14.73z" fill="#36485c"/><path d="M258.777 352.55l197.913 31.52-1.113 7-197.914-31.523 1.114-6.997zM256.915 364.237L454.83 395.76l-1.116 6.997L255.8 371.234l1.115-6.997zM255.055 375.925l197.913 31.522-1.114 6.998-197.913-31.522 1.115-6.998zM253.193 387.614l197.914 31.522-1.115 6.996-197.913-31.52 1.113-6.998zM251.332 399.302l197.914 31.52-1.116 7L250.216 406.3l1.116-6.998z" fill="#ccc"/></svg>