<?xml version="1.0" standalone="no"?><!DOCTYPE svg PUBLIC "-//W3C//DTD SVG 1.1//EN" "http://www.w3.org/Graphics/SVG/1.1/DTD/svg11.dtd"><svg width="100%" height="100%" viewBox="0 0 800 800" version="1.1" xmlns="http://www.w3.org/2000/svg" xmlns:xlink="http://www.w3.org/1999/xlink" xml:space="preserve" style="fill-rule:evenodd;clip-rule:evenodd;stroke-linejoin:round;stroke-miterlimit:1.41421;"><g id="Background"><path d="M151.542,530.137l21.301,-80.813l62.836,-14.817l38.466,31.785l-79.216,73.847l-43.387,-10.002l0,0Z" style="fill:#d4b194;"/><path d="M242.817,533.728c5.863,-4.002 7.562,-12.216 3.385,-17.934l-39.869,-54.572c-4.176,-5.719 -12.068,-7.387 -17.931,-3.386c-5.863,4.001 -7.373,12.057 -3.383,17.931l39.869,54.575c4.187,5.735 12.066,7.387 17.929,3.386" style="fill:#d4b194;"/><path d="M146.062,542.894c6.444,2.974 15.538,0.586 17.122,-6.309l19.34,-84.154c1.583,-6.894 0.136,-14.149 -6.31,-17.124c-6.445,-2.973 -14.132,-0.129 -17.12,6.311l-19.341,84.155c-1.591,6.919 -0.137,14.146 6.308,17.121" style="fill:#ffd7b7;"/><path d="M236.826,422.613c-2.64,-6.588 -10.15,-9.662 -16.776,-7.18l-52.94,19.816c-6.627,2.481 -9.82,10.187 -7.18,16.777c2.64,6.589 10.179,9.803 16.775,7.178l52.942,-19.817c6.648,-2.487 9.819,-10.185 7.179,-16.774" style="fill:#ffd7b7;"/><path d="M195.385,452.213c-4.431,11.322 -18.522,60.148 12.064,56.975c30.586,-3.175 -33.881,43.455 -33.881,43.455l-23.214,-44.738c0,0 2.093,-50.072 45.031,-55.692" style="fill:#ffd7b7;"/><path d="M149.293,509.831l48.244,44.385l-22.672,33.553l-52.964,-39.005l27.391,-38.933l0.001,0Z" style="fill:#ffd7b7;"/><path d="M262.873,201.71l239.374,38.125l-53.919,338.544l-239.374,-38.127l53.919,-338.542l0,0Z" style="fill:#fff;"/><path d="M331.435,324.004c-4.936,-29.59 -1.643,-28.09 -28.855,-32.822c-26.998,-4.696 -24.088,-3.449 -37.571,22.242l66.426,10.58Z" style="fill:#2e5b78;"/><path d="M266.273,310.997c-0.345,0.859 -0.708,1.68 -1.094,2.455l33.109,5.273l4.383,-27.527l-0.044,-0.008l-0.162,0.71c-1.123,-0.194 -2.325,-0.698 -3.609,-1.357c-22.242,-3.745 -21.126,-1.713 -32.583,20.454" style="fill:#21445c;"/><path d="M291.816,289.306l10.833,1.725l-4.41,27.687l-6,-0.957l-3.541,-8.882l3.118,-19.573l0,0Z" style="fill:#e6e6e6;"/><path d="M298.268,265.279l16.5,2.628l-3.801,23.867c-1.282,8.056 -17.931,6.355 -16.501,-2.627l3.802,-23.868l0,0Z" style="fill:#ffddb8;"/><path d="M312.065,284.876l0.486,-3.05l-16.501,-2.629l-1.789,11.234l17.804,-5.555l0,0Z" style="fill:#e8c5a0;"/><path d="M311.036,238.228c34.945,5.566 13.427,49.471 -7.352,46.161c-20.78,-3.309 -27.594,-51.727 7.352,-46.161" style="fill:#f0ceaa;"/><path d="M311.036,238.228c34.945,5.566 13.427,49.471 -7.352,46.161l7.352,-46.161Z" style="fill:#ffddb8;"/><path d="M320.054,244.415c5.271,3.304 6.419,10.923 6.948,16.02c0.77,7.401 -0.204,6.622 3.191,1.616c3.396,-5.006 0.903,-29.322 -17.219,-32.208c-18.125,-2.887 -28.402,13.877 -27.43,24.085c0.972,10.208 1.343,7.88 4.112,0.694c7.12,-18.48 20.131,-7.821 30.398,-10.207" style="fill:#7d5f54;"/><path d="M330.961,257.688c1.228,0.486 1.31,3.181 0.186,6.022c-1.124,2.841 -3.031,4.751 -4.258,4.265c-1.227,-0.485 -1.309,-3.183 -0.185,-6.022c1.125,-2.841 3.03,-4.751 4.257,-4.265" style="fill:#ffddb8;"/><path d="M286.072,250.538c-1.317,0.081 -2.233,2.618 -2.047,5.668c0.186,3.049 1.405,5.456 2.722,5.376c1.316,-0.08 2.233,-2.618 2.047,-5.668c-0.186,-3.048 -1.405,-5.456 -2.722,-5.376" style="fill:#f7d6b2;"/><path d="M313.482,292.756l-10.834,-1.726l-4.409,27.687l6.001,0.955l6.124,-7.342l3.118,-19.574Z" style="fill:#fff;"/><path d="M285.581,316.701c-1.753,-1.775 -3.694,-2.902 -5.774,-2.956c-0.516,-4.388 1.019,-7.492 3.402,-10.965c-2.087,-0.725 -5.349,-0.922 -8.28,0.046c4.666,-9.114 14.519,-14.816 21.494,-16.001c-0.626,3.919 -6.819,12.859 -4.012,18.474c1.179,2.358 2.342,7.336 2.979,12.964l-9.809,-1.562l0,0Z" style="fill:#142c3d;"/><path d="M288.439,317.156c-2.079,-3.281 -4.458,-5.71 -6.885,-6.097c0.823,-4.447 1.524,-6.507 4.465,-9.483c-3.221,-1.087 -6.638,-1.101 -9.568,-0.133c3.041,-5.242 11.718,-12.628 17.196,-14.052c-0.623,3.921 -1.171,12.567 -0.056,18.19c0.532,2.68 1.426,7.45 1.984,12.711l-7.136,-1.136Z" style="fill:#21445c;"/><path d="M310.872,320.729c2.218,-1.143 4.415,-1.611 6.408,-1.015c1.853,-4.011 1.359,-7.439 0.171,-11.48c2.211,-0.041 5.195,0.762 8.397,2.708c-1.965,-6.272 -6.523,-16.536 -12.785,-19.83c-0.624,3.92 4.211,13.247 -1.401,16.395c-3.399,1.908 -7.814,6.319 -11.2,11.564l10.41,1.658Z" style="fill:#21445c;"/><path d="M308.015,320.273c2.994,-2.472 6.012,-4.042 8.438,-3.656c0.6,-4.482 0.575,-6.657 -1.297,-10.4c3.399,-0.033 6.764,1.168 9.248,3c-2.102,-5.79 -7.458,-14.979 -12.223,-18.035c-0.625,3.921 -2.321,11.612 -5.511,16.764c-1.96,3.168 -4.184,6.907 -6.139,11.135l7.484,1.192Z" style="fill:#2e5b78;"/><path d="M298.592,304.727l-3.155,13.542l5.535,0.883l1.208,-13.852l8.052,-13.034c-5.44,-0.968 -9.81,-1.651 -15.244,-2.429l3.604,14.89Z" style="fill:#21445c;"/><path d="M300.972,319.152l1.208,-13.853l8.051,-13.034c-2.72,-0.484 -5.173,-0.897 -7.626,-1.285l-4.416,27.728l2.783,0.444Z" style="fill:#2e5b78;"/><path d="M295.138,284.778l-6.023,4.328l-2.591,10.14l15.891,-8.252l-7.277,-6.216l0,0Z" style="fill:#e6e6e6;"/><path d="M311.63,287.405l4.381,5.985l-0.688,10.443l-12.542,-12.781l8.849,-3.647Z" style="fill:#fff;"/><path d="M248.593,416.495l197.913,31.521l-2.345,14.729l-197.914,-31.521l2.346,-14.729l0,0Z" style="fill:#36485c;"/><path d="M245.063,438.658l197.914,31.521l-1.116,6.998l-197.913,-31.522l1.115,-6.997Z" style="fill:#ccc;"/><path d="M243.201,450.347l197.913,31.521l-1.114,6.998l-197.913,-31.521l1.114,-6.998l0,0Z" style="fill:#ccc;"/><path d="M241.34,462.035l197.915,31.521l-1.116,6.998l-197.914,-31.523l1.115,-6.996l0,0Z" style="fill:#ccc;"/><path d="M239.479,473.722l197.912,31.523l-1.114,6.997l-197.913,-31.521l1.114,-6.999l0.001,0Z" style="fill:#ccc;"/><path d="M237.617,485.41l197.914,31.522l-1.115,6.998l-197.914,-31.522l1.115,-6.998l0,0Z" style="fill:#ccc;"/><path d="M236.186,523.747l43.549,-34.911c16.469,-13.2 -1.468,-35.778 -17.24,-24.916l-57.363,45.98c-11.792,-2.815 -28.196,-3.244 -44.195,1.991c-25.551,8.358 -25.966,50.333 -12.666,64.349c13.299,14.015 38.491,9.891 59.129,-7.629c21.618,-18.349 16.899,-35.337 28.785,-44.864" style="fill:#ffd7b7;"/><path d="M120.533,539.512l67.868,49.072l-15.161,20.969l-67.869,-49.073l15.162,-20.968l0,0Z" style="fill:#fff;"/><path d="M-85.379,810.039l81.405,58.859l183.983,-254.454l-81.405,-58.859l-183.983,254.454l0,0Z" style="fill:#666;"/><path d="M-44.676,839.47l-40.702,-29.432l183.983,-254.453l40.702,29.431l-183.983,254.454l0,0Z" style="fill:#4d4d4d;"/><path d="M813.208,918.034l-85.459,52.8l-165.044,-267.127l85.46,-52.801l165.043,267.128Z" style="fill:#4d4d4d;"/><path d="M770.479,944.435l42.729,-26.4l-165.044,-267.128l-42.73,26.4l165.044,267.128l0.001,0Z" style="fill:#666;"/><path d="M461.113,580.245c-3.181,-6.347 -0.675,-14.351 5.753,-17.318l61.363,-28.33c6.429,-2.967 14.137,-0.591 17.317,5.755c3.179,6.346 0.585,14.12 -5.754,17.315l-61.365,28.33c-6.444,2.977 -14.134,0.594 -17.314,-5.752" style="fill:#d4b194;"/><path d="M482.226,599.647c-4.15,-5.759 -2.949,-14.061 2.924,-18.014l56.074,-37.73c5.874,-3.952 13.862,-2.835 18.012,2.926c4.149,5.757 2.825,13.846 -2.925,18.009l-56.075,37.733c-5.89,3.966 -13.861,2.835 -18.01,-2.924" style="fill:#d4b194;"/><path d="M597.212,621.687l-15.385,-82.146l-65.624,-13.817l-36.64,23.393l73.653,79.399l43.996,-6.829l0,0Z" style="fill:#d4b194;"/><path d="M505.917,618.647c-5.558,-4.416 -6.655,-12.73 -2.076,-18.13l43.722,-51.539c4.58,-5.4 12.573,-6.492 18.13,-2.076c5.558,4.417 6.478,12.56 2.073,18.13l-43.721,51.54c-4.593,5.414 -12.572,6.491 -18.128,2.075" style="fill:#d4b194;"/><path d="M601.754,634.806c-6.646,2.501 -15.542,-0.543 -16.621,-7.533l-13.186,-85.335c-1.079,-6.991 0.89,-14.123 7.535,-16.622c6.644,-2.498 14.104,0.895 16.618,7.535l13.187,85.337c1.084,7.016 -0.889,14.12 -7.533,16.618" style="fill:#ffd7b7;"/><path d="M517.327,517.259c2.252,-6.73 9.57,-10.234 16.33,-8.143l53.345,15.737c6.786,2.002 10.394,9.598 8.141,16.331c-2.253,6.731 -9.591,10.379 -16.33,8.14l-53.344,-15.734c-6.808,-2.009 -10.395,-9.598 -8.142,-16.331" style="fill:#ffd7b7;"/><path d="M450.936,547.402c-2.479,-6.652 0.873,-14.341 7.581,-16.601l64.051,-21.572c6.71,-2.259 14.119,0.93 16.598,7.58c2.48,6.653 -0.934,14.104 -7.581,16.598l-64.05,21.574c-6.731,2.268 -14.119,-0.93 -16.599,-7.579" style="fill:#ffd7b7;"/><path d="M556.211,543.565c3.599,11.616 17.034,58.556 -13.24,53.172c-30.275,-5.387 30.641,45.798 30.641,45.798l26.397,-42.936c0,0 -1.379,-47.313 -43.798,-56.035" style="fill:#ffd7b7;"/><path d="M442.104,546.729l-14.618,3.852c-2.231,0.586 -2.467,2.1 0,2.802l14.302,4.074l0.315,-10.728l0.001,0Z" style="fill:#2e93db;"/><path d="M442.104,546.729l-12.606,3.321c0.567,1.215 0.524,2.661 -0.178,3.855l12.468,3.552l0.315,-10.728l0.001,0Z" style="fill:#fca71f;"/><path d="M437.548,545.002l227.255,0.333l0.384,15.42l-227.856,-0.283l0.217,-15.47l0,0Z" style="fill:#4b6480;"/><path d="M664.994,553.045l0.192,7.71l-227.855,-0.283l0.109,-7.761l227.554,0.334Z" style="fill:#36485c;"/><path d="M600.928,601.597l-51.336,40.77l20.178,35.107l55.652,-35.061l-24.494,-40.816l0,0Z" style="fill:#ffd7b7;"/><path d="M589.166,602.806c24.877,10.191 22.246,52.084 7.965,65.099c-14.282,13.014 -43.741,10.85 -58.421,-11.897c-16.575,-25.68 -4.816,-27.671 -29.27,-50.377l-37.088,-34.432c-6.094,-5.659 -7.528,-14.813 -2.3,-21.305c5.226,-6.491 14.798,-7.511 21.301,-2.297l53.877,50.02c11.966,-1.953 28.357,-1.192 43.936,5.189" style="fill:#ffd7b7;"/><path d="M627.46,633.284l-71.249,44.021l13.601,22.012l71.248,-44.019l-13.6,-22.014Z" style="fill:#fff;"/><path d="M613.898,539.477l57.745,-2.887l0.541,21.748l-3.134,-0.005l-0.476,-19.131l-54.612,2.891l-0.064,-2.616l0,0Z" style="fill:#36485c;"/><path d="M608.334,542.084l67.665,0.103l0.541,21.747l-67.665,-0.083l-0.541,-21.767l0,0Z" style="fill:#4b6480;"/><path d="M676.271,553.059l0.27,10.875l-67.666,-0.083l-0.27,-10.893l67.666,0.101Z" style="fill:#36485c;"/><path d="M603.198,545.207l5.215,0.058l0.384,15.42l-5.817,-0.008l0.218,-15.47l0,0Z" style="fill:#fca71f;"/><path d="M378.977,236.1l98.776,15.733l-4.693,29.458l-98.776,-15.731l4.693,-29.46Z" style="fill:#36485c;"/><path d="M423.589,262.467l0.012,0.078c-0.277,1.947 -1.105,3.396 -2.483,4.346c-1.379,0.95 -3.132,1.255 -5.258,0.917c-2.133,-0.34 -3.754,-1.314 -4.863,-2.923c-1.109,-1.608 -1.488,-3.512 -1.137,-5.71l0.57,-3.583c0.348,-2.19 1.284,-3.885 2.806,-5.083c1.523,-1.198 3.323,-1.632 5.4,-1.301c2.191,0.349 3.812,1.194 4.863,2.535c1.051,1.342 1.403,2.997 1.057,4.967l-0.036,0.07l-3.457,-0.55c0.189,-1.19 0.054,-2.146 -0.406,-2.867c-0.459,-0.722 -1.281,-1.177 -2.465,-1.366c-1.064,-0.169 -1.977,0.137 -2.743,0.916c-0.764,0.78 -1.256,1.851 -1.472,3.214l-0.575,3.604c-0.218,1.379 -0.07,2.56 0.448,3.544c0.516,0.984 1.336,1.565 2.455,1.743c1.112,0.178 1.982,0.005 2.61,-0.518c0.628,-0.523 1.038,-1.384 1.229,-2.582l3.445,0.549Z" style="fill:#fff;fill-rule:nonzero;"/><path d="M431.942,265.183l0.063,1.014l0.074,0.012l0.358,-0.922l5.974,-12.662l3.749,0.597l-8.901,17.09l-3.651,-0.582l-3.139,-19.007l3.749,0.597l1.724,13.863Z" style="fill:#fff;fill-rule:nonzero;"/><path d="M372.706,275.464l98.776,15.733l-1.113,6.997l-98.777,-15.732l1.114,-6.998Z" style="fill:#ccc;"/><path d="M370.845,287.151l98.777,15.732l-1.114,6.998l-98.778,-15.732l1.115,-6.998Z" style="fill:#ccc;"/><path d="M368.983,298.84l98.778,15.732l-1.115,6.998l-98.777,-15.733l1.114,-6.997Z" style="fill:#ccc;"/><path d="M367.122,310.528l98.777,15.732l-1.114,6.997l-98.778,-15.731l1.115,-6.998Z" style="fill:#ccc;"/><path d="M365.26,322.216l98.777,15.732l-1.114,6.998l-98.777,-15.732l1.114,-6.998l0,0Z" style="fill:#ccc;"/><path d="M262.308,330.385l197.914,31.522l-2.348,14.73l-197.911,-31.522l2.345,-14.73Z" style="fill:#36485c;"/><path d="M258.777,352.55l197.913,31.521l-1.113,6.998l-197.914,-31.522l1.114,-6.997Z" style="fill:#ccc;"/><path d="M256.915,364.237l197.915,31.522l-1.116,6.998l-197.913,-31.523l1.114,-6.997l0,0Z" style="fill:#ccc;"/><path d="M255.055,375.925l197.913,31.522l-1.114,6.998l-197.913,-31.522l1.114,-6.998l0,0Z" style="fill:#ccc;"/><path d="M253.193,387.614l197.914,31.522l-1.115,6.996l-197.913,-31.521l1.114,-6.997l0,0Z" style="fill:#ccc;"/><path d="M251.332,399.302l197.914,31.521l-1.116,6.999l-197.914,-31.522l1.116,-6.998l0,0Z" style="fill:#ccc;"/></g></svg>