<svg viewBox="0 0 800 800" xmlns="http://www.w3.org/2000/svg" fill-rule="evenodd" clip-rule="evenodd" stroke-linejoin="round" stroke-miterlimit="1.414"><path d="M672.008 365.003l99.407 63.125-1.615 2.544-99.408-63.125 1.616-2.544z" fill="#f6931d"/><path d="M795.506 446.996l4.413 2.804v-3.57l-2.8-1.777-1.615 2.543z" fill="#f6931d" fill-rule="nonzero"/><path d="M644.14 621.344l-7.74-3.29 61.626-145.07-35.483 97.692-2.682 6.31a1.846 1.846 0 0 0-.067 1.256l-2.03 5.59a1.86 1.86 0 0 0-1.266 1.073l-2.777 6.538a1.857 1.857 0 0 0 .507 2.132l-1.712 4.712a1.865 1.865 0 0 0-2.16 1.073l-2.774 6.537a1.857 1.857 0 0 0 1.255 2.52l-4.695 12.927zm17.865-41.836l-2.03 5.59a1.85 1.85 0 0 0-2.21-1.267l2.028-5.588a1.853 1.853 0 0 0 2.212 1.266m36.02-106.524l18.418-43.356-35.482 97.69-2.677 6.303a1.846 1.846 0 0 0-.068 1.258l-2.03 5.59a1.863 1.863 0 0 0-1.268 1.072l-2.774 6.536a1.857 1.857 0 0 0 .504 2.134l-1.712 4.712a1.86 1.86 0 0 0-2.156 1.073L666 562.53a1.858 1.858 0 0 0 1.253 2.522l-1.71 4.713a1.857 1.857 0 0 0-2.906.685l-.096.225 35.483-97.692zm-51.572 149.342l-2.313-.982 4.695-12.927a1.857 1.857 0 0 0 2.155-1.072l2.778-6.536a1.86 1.86 0 0 0-1.253-2.523l1.712-4.712c.14.12.297.22.476.296a1.856 1.856 0 0 0 2.428-.98l.097-.227-10.774 29.663zm33.974-86.182l-2.03 5.59a1.852 1.852 0 0 0-2.212-1.267l2.03-5.59c.154.51.523.95 1.047 1.175.382.16.788.185 1.165.092m-31.66 87.165l-2.314-.984 10.774-29.663 2.68-6.31c.176-.412.188-.853.068-1.254l2.03-5.592a1.852 1.852 0 0 0 1.268-1.073l2.775-6.536a1.86 1.86 0 0 0-.504-2.135l1.71-4.713a1.862 1.862 0 0 0 2.158-1.07l2.777-6.538a1.857 1.857 0 0 0-1.255-2.522l1.712-4.712a1.86 1.86 0 0 0 2.906-.684l.096-.225-26.88 74.01zm82.404-228.35l.465.196-32.25 88.796-2.68 6.307a1.843 1.843 0 0 0-.068 1.253l-2.03 5.59a1.854 1.854 0 0 0-1.267 1.074l-2.776 6.535a1.86 1.86 0 0 0 .504 2.135l-1.71 4.712a1.86 1.86 0 0 0-2.16 1.07l-2.775 6.538a1.858 1.858 0 0 0 1.254 2.52l-1.712 4.713a1.858 1.858 0 0 0-2.905.685l-.1.232 35.483-97.69 14.728-34.668zm-32.322 97.82l-2.03 5.59a1.85 1.85 0 0 0-2.21-1.267l2.03-5.59c.15.51.522.95 1.046 1.175.382.16.79.184 1.164.092M651.08 624.29l-2.312-.98 26.88-74.01 2.68-6.31a1.84 1.84 0 0 0 .07-1.256l2.03-5.59a1.855 1.855 0 0 0 1.266-1.073l2.775-6.535a1.857 1.857 0 0 0-.505-2.134l1.712-4.712a1.86 1.86 0 0 0 2.157-1.072l2.776-6.536a1.858 1.858 0 0 0-1.253-2.52l1.71-4.713a1.856 1.856 0 0 0 2.906-.687l.1-.23-42.992 118.36zm80.555-229.134l2.315.983-16.14 44.437-2.684 6.315c-.176.414-.19.857-.067 1.257l-2.032 5.59a1.85 1.85 0 0 0-1.267 1.073l-2.775 6.536a1.863 1.863 0 0 0 .505 2.133l-1.712 4.712a1.86 1.86 0 0 0-2.157 1.07l-2.775 6.538a1.857 1.857 0 0 0 1.254 2.52l-1.713 4.713a1.856 1.856 0 0 0-2.906.685l-.097.232 32.25-88.796zm-14.364 54.258l-2.03 5.592a1.853 1.853 0 0 0-1.05-1.176 1.844 1.844 0 0 0-1.162-.09l2.03-5.59c.154.51.523.95 1.047 1.173.383.162.79.185 1.166.09m-63.874 175.863l-2.315-.985 42.993-118.36 2.677-6.304a1.85 1.85 0 0 0 .068-1.256l2.03-5.59a1.86 1.86 0 0 0 1.268-1.073l2.775-6.538c.324-.76.095-1.622-.503-2.134l1.712-4.713a1.857 1.857 0 0 0 2.154-1.073l2.78-6.534a1.862 1.862 0 0 0-1.256-2.52l1.712-4.713c.138.12.3.22.476.295a1.86 1.86 0 0 0 2.432-.982l.096-.23-59.098 162.71zM733.95 396.14l2.313.98-4.813 13.253c-.548.137-1.03.52-1.267 1.075l-2.776 6.536a1.858 1.858 0 0 0 .504 2.133l-1.71 4.713a1.862 1.862 0 0 0-2.158 1.073l-2.775 6.535a1.86 1.86 0 0 0 1.253 2.52l-1.71 4.713a1.857 1.857 0 0 0-2.907.686l-.094.22 16.14-44.437zm2.313.98l151.428 64.33-94.77 223.095-139.524-59.27 59.098-162.708 2.68-6.307c.172-.412.185-.854.065-1.254l2.03-5.592a1.85 1.85 0 0 0 1.266-1.072l2.778-6.536a1.864 1.864 0 0 0-.505-2.135l1.71-4.71a1.856 1.856 0 0 0 2.155-1.073l2.778-6.537a1.856 1.856 0 0 0-1.253-2.52l1.71-4.713a1.855 1.855 0 0 0 2.905-.686l2.778-6.534c.4-.94-.04-2.03-.98-2.43a1.842 1.842 0 0 0-1.163-.093l4.813-13.252z" fill="#2e93db"/><path d="M730.79 411.82l-13.88-5.896a1.152 1.152 0 0 0-1.506.608c-.247.58.028 1.26.608 1.505l13.88 5.896a1.15 1.15 0 0 0 1.505-.605v-.002a1.152 1.152 0 0 0-.607-1.506M728.996 416.047l-13.88-5.896a1.15 1.15 0 0 0-1.507.61c-.248.58.026 1.258.606 1.505l13.882 5.895a1.147 1.147 0 0 0 1.502-.607h.002a1.153 1.153 0 0 0-.606-1.506M724.658 426.26l-13.882-5.898a1.15 1.15 0 1 0-.898 2.114l13.88 5.895a1.15 1.15 0 0 0 1.506-.605 1.152 1.152 0 0 0-.606-1.506M722.862 430.485l-13.88-5.897a1.153 1.153 0 0 0-1.507.608c-.246.582.027 1.26.608 1.507l13.88 5.894a1.15 1.15 0 0 0 1.506-.607h-.003a1.15 1.15 0 0 0-.605-1.505M718.523 440.695l-13.88-5.896a1.15 1.15 0 0 0-1.506.607 1.15 1.15 0 0 0 .61 1.505l13.88 5.897a1.152 1.152 0 0 0 1.504-.608 1.153 1.153 0 0 0-.607-1.507M716.73 444.923l-13.882-5.896a1.15 1.15 0 0 0-1.505.607 1.15 1.15 0 0 0 .607 1.505l13.88 5.896a1.148 1.148 0 1 0 .9-2.113M712.39 455.133l-13.878-5.896a1.155 1.155 0 0 0-1.508.608c-.245.58.03 1.26.61 1.506l13.88 5.896a1.148 1.148 0 1 0 .897-2.113M710.596 459.36l-13.88-5.896a1.15 1.15 0 0 0-1.505.607v.002c-.247.58.027 1.257.61 1.505l13.877 5.895a1.15 1.15 0 0 0 1.505-.606v-.002a1.15 1.15 0 0 0-.606-1.504M706.258 469.57l-13.88-5.896a1.153 1.153 0 0 0-1.506.608c-.246.58.026 1.258.608 1.507l13.88 5.894a1.15 1.15 0 0 0 1.504-.607 1.152 1.152 0 0 0-.606-1.507M704.462 473.8l-13.88-5.898a1.15 1.15 0 0 0-1.506.607c-.247.58.028 1.258.61 1.505l13.878 5.895a1.15 1.15 0 0 0 1.505-.607 1.15 1.15 0 0 0-.608-1.504M700.123 484.008l-13.88-5.896a1.152 1.152 0 0 0-1.504.608 1.15 1.15 0 0 0 .607 1.505l13.88 5.896a1.148 1.148 0 0 0 1.504-.605h.002a1.154 1.154 0 0 0-.61-1.507M698.33 488.234l-13.88-5.896a1.15 1.15 0 0 0-1.506.61l-.003-.002c-.244.582.03 1.26.612 1.506l13.88 5.896a1.15 1.15 0 0 0 1.504-.607 1.155 1.155 0 0 0-.606-1.506M693.99 498.445l-13.88-5.896a1.153 1.153 0 0 0-1.505.606c-.247.582.027 1.26.608 1.507l13.88 5.895a1.15 1.15 0 0 0 1.505-.606v-.002a1.152 1.152 0 0 0-.607-1.505M692.196 502.673l-13.88-5.896a1.148 1.148 0 1 0-.898 2.114l13.88 5.896a1.15 1.15 0 0 0 1.504-.606v-.002a1.152 1.152 0 0 0-.606-1.505M687.858 512.885l-13.88-5.897a1.153 1.153 0 0 0-1.507.607c-.245.58.028 1.26.61 1.506l13.88 5.896a1.148 1.148 0 1 0 .898-2.11M686.062 517.11l-13.88-5.897a1.15 1.15 0 0 0-1.506.61c-.246.58.027 1.257.608 1.504l13.88 5.896a1.152 1.152 0 0 0 1.505-.608 1.15 1.15 0 0 0-.608-1.505M681.725 527.32l-13.88-5.895a1.15 1.15 0 0 0-1.506.608 1.15 1.15 0 0 0 .607 1.504l13.88 5.896a1.15 1.15 0 0 0 1.505-.606 1.15 1.15 0 0 0-.607-1.506M679.93 531.547l-13.88-5.896a1.153 1.153 0 0 0-1.507.61c-.247.58.027 1.26.608 1.506l13.882 5.894a1.15 1.15 0 0 0 1.505-.606 1.154 1.154 0 0 0-.608-1.507M675.592 541.76l-13.882-5.896a1.147 1.147 0 1 0-.896 2.11l13.88 5.898a1.153 1.153 0 0 0 1.506-.608 1.15 1.15 0 0 0-.608-1.504M673.796 545.985l-13.88-5.896a1.15 1.15 0 0 0-1.505.606c-.246.582.028 1.26.61 1.506l13.88 5.897a1.15 1.15 0 0 0 1.503-.61 1.153 1.153 0 0 0-.607-1.505M669.46 556.196l-13.88-5.896a1.15 1.15 0 0 0-1.507.607 1.15 1.15 0 0 0 .608 1.506l13.882 5.895a1.146 1.146 0 0 0 1.502-.608 1.15 1.15 0 0 0-.605-1.504M667.664 560.423l-13.88-5.897a1.153 1.153 0 0 0-1.507.608 1.152 1.152 0 0 0 .61 1.506l13.88 5.896a1.147 1.147 0 0 0 1.502-.608 1.152 1.152 0 0 0-.606-1.505M663.327 570.633l-13.882-5.896a1.15 1.15 0 0 0-1.505.608 1.15 1.15 0 0 0 .607 1.506l13.88 5.897a1.15 1.15 0 0 0 1.505-.607 1.154 1.154 0 0 0-.605-1.507M661.53 574.86l-13.88-5.896a1.15 1.15 0 0 0-1.506.607v.002c-.247.58.026 1.258.607 1.506l13.883 5.895a1.15 1.15 0 0 0 1.502-.607h.002a1.153 1.153 0 0 0-.607-1.506M657.192 585.07l-13.88-5.895a1.148 1.148 0 0 0-1.505.607c-.247.582.025 1.26.607 1.505l13.88 5.898a1.153 1.153 0 0 0 1.506-.608 1.152 1.152 0 0 0-.608-1.506M655.397 589.3l-13.882-5.898a1.15 1.15 0 0 0-1.505.608 1.152 1.152 0 0 0 .608 1.505l13.88 5.897a1.148 1.148 0 1 0 .897-2.113M651.06 599.51l-13.88-5.897a1.15 1.15 0 0 0-1.506.607c-.247.58.028 1.26.608 1.507l13.88 5.895a1.152 1.152 0 0 0 1.505-.607 1.152 1.152 0 0 0-.608-1.506M649.264 603.735l-13.88-5.897a1.154 1.154 0 0 0-1.507.61c-.245.58.03 1.257.61 1.504l13.88 5.896a1.15 1.15 0 0 0 1.504-.608 1.15 1.15 0 0 0-.606-1.505" fill="#9a57b4"/><path d="M332.96 296.364l-56.31-235.76 333.432-79.638 56.31 235.758-333.432 79.64z" fill="#fab867"/><path d="M258.315-84.997l147.68 153.104c7.943 8.236 7.706 21.474-.53 29.417l-34.942 33.703-12.64 12.192c-3.08 2.97-4.983 3.852-8.292 2.3l-7.374-3.456c-3.66-1.716-7.61-.606-11.332 2.986l-43.7 42.15c-3.722 3.59-4.973 7.496-3.39 11.217l3.188 7.494c1.43 3.366.48 5.236-2.6 8.208l-12.64 12.19-95.217 91.847c-8.236 7.943-21.473 7.704-29.416-.53L-.573 164.718c-7.944-8.236-7.706-21.472.53-29.417l228.94-220.83c8.236-7.944 21.473-7.705 29.417.53" fill="#36485c"/><path d="M-104.06 228.554l239.322 38.455-54.385 338.467-239.32-38.453 54.383-338.47z" fill="#fff"/><path d="M-48.317 274.702L67.87 293.37l-.958 5.96-116.186-18.67.957-5.958zM-90.315 283.233L105.08 314.63l-.958 5.957-195.394-31.395.957-5.96zM-91.99 293.66l195.394 31.396-.957 5.96-195.394-31.398.958-5.958zM-93.665 304.088l195.394 31.395-.958 5.958-195.394-31.394.957-5.96zM-95.34 314.513l195.394 31.396-.958 5.958-195.393-31.396.957-5.96zM-97.016 324.942l195.394 31.394-.958 5.96L-97.973 330.9l.957-5.96zM-98.69 335.367l195.393 31.396-.958 5.958-195.393-31.395.958-5.958zM-100.366 345.794L95.027 377.19l-.957 5.958-195.394-31.395.958-5.96zM-102.042 356.222l195.395 31.396-.958 5.957L-103 362.18l.958-5.958z" fill="#ccc"/><path d="M45.543 523.382c13.994 2.248 23.516 15.416 21.267 29.41-2.248 13.994-15.416 23.516-29.41 21.27-13.994-2.252-23.516-15.418-21.267-29.41 2.25-13.998 15.416-23.518 29.41-21.27" fill="#f2675d"/><path d="M24.127 567.638a25.792 25.792 0 0 1-7.074-11.002l24.42-7.915-17.346 18.918z" fill="#fcd8d6"/><path d="M17.053 556.636a25.554 25.554 0 0 1-.92-11.984c1.302-8.105 6.263-14.707 12.927-18.396l12.41 22.465-24.417 7.916z" fill="#f9b3af"/><path d="M29.06 526.256a25.566 25.566 0 0 1 16.483-2.874l-4.07 25.34-12.413-22.466z" fill="#f48c85"/><path d="M45.543 523.382l-4.07 25.34 20.912-14.872c-3.846-5.408-9.773-9.333-16.842-10.468" fill="#f2675d"/><path d="M12.982 574.554l10.43 1.675-.477 2.973-10.43-1.675.477-2.974zM28.243 577.004l30.987 4.98-.478 2.974-30.987-4.98.478-2.974z" fill="#ccc"/><path d="M24.488 419.783l8.758 1.407-1.254 7.8-8.756-1.408 1.252-7.8z" fill="#ffae00"/><path d="M22.42 432.657l8.756 1.406-1.252 7.8-8.756-1.408 1.252-7.798z" fill="#f7837b"/><path d="M20.352 445.53l8.757 1.408-1.254 7.8-8.757-1.408 1.252-7.8z" fill="#ffcda1"/><path d="M18.282 458.405l8.758 1.406-1.254 7.8-8.757-1.407 1.252-7.798z" fill="#596273"/><path d="M16.214 471.28l8.757 1.405-1.252 7.8-8.757-1.408 1.254-7.798z" fill="#6db4c2"/><path d="M41.443 422.508l10.66 1.712-1.254 7.8-10.66-1.713 1.253-7.8zM39.376 435.382l24.38 3.916-1.253 7.8-24.38-3.917 1.253-7.798zM37.307 448.256l32.702 5.255-1.254 7.8-32.703-5.254 1.254-7.8zM55.968 424.842l27.314 4.39-1.253 7.798-27.315-4.39 1.253-7.798zM66.856 439.797l7.67 1.23-1.255 7.802-7.667-1.232 1.253-7.8zM77.3 441.474l18.89 3.037-1.252 7.8-18.893-3.036 1.254-7.8zM92.054 470.258l-10.658-1.712-1.253 7.8 10.658 1.71 1.254-7.798zM77.53 467.925l-27.315-4.39-1.253 7.8 27.314 4.39 1.254-7.8zM45.896 462.84l-10.657-1.71-1.255 7.8 10.658 1.712 1.253-7.8zM62.504 478.718l-7.667-1.233-1.254 7.797 7.668 1.234 1.254-7.798zM52.063 477.04l-18.893-3.037-1.253 7.8 18.892 3.035 1.253-7.8z" fill="#ccc"/><path d="M-115.088 468.84L.892 487.474l-.25 1.565-115.98-18.637.25-1.564z" fill="#ccc" fill-rule="nonzero"/><path d="M8 413.852L-3.84 487.518l-1.565-.253L6.434 413.6l1.564.252z" fill="#ccc" fill-rule="nonzero"/><path d="M-112.31 451.553L3.67 470.19l-.25 1.562-115.982-18.636.252-1.563zM-109.53 434.272l115.825 19.47-.256 1.556-115.826-19.47.256-1.556zM-106.755 416.983L9.225 435.62l-.25 1.563-115.98-18.637.25-1.563zM-103.978 399.697l115.98 18.636-.25 1.564-115.98-18.636.25-1.563z" fill="#ccc" fill-rule="nonzero"/><path d="M-83.675 420.975l-33.133 47.872 1.954 1.352L-83 424.177l13.692 35.693.487 1.274 1.195-.66 24.084-13.282 18.708 20.16 1.063 1.143.82-1.33 23.91-38.79 4.274 2.636.637-12.87-11.21 6.354 4.277 2.635-23.09 37.458-18.28-19.692-.63-.682-.815.45-23.7 13.072-14.01-36.52-.807-2.1-1.28 1.85z" fill="#6db4c2" fill-rule="nonzero"/><path d="M423.273 111.308c26.023 1.743 116.813 17.378 130.555 21.82 13.745 4.443 13.774 21.856 13.15 28.9-.623 7.046-9.11 8.287-8.054-3.635 1.054-11.922.587-18.473-7.66-19.942-8.25-1.467-119.945-17.52-127.718-18.423-7.774-.903-5.442-9.5-.274-8.72" fill="#254659"/><path d="M572.185 124.487c-25.927-2.854-118.05-3.408-132.36-1.448-14.31 1.958-17.4 19.095-18.022 26.14-.623 7.045 7.515 9.757 8.57-2.166 1.054-11.92 2.665-18.29 11.042-18.285 8.377 0 121.157 3.814 128.968 4.29 7.812.478 7.027-8.396 1.802-8.533" fill="#254659"/><path d="M462.66 111.837a92.714 92.714 0 0 0-2.07-.383c-13.43-2.308-33.645-2.418-37.208-1.612-4.26.963-4.41 1.29-4.874 4.425-.464 3.134-.187 5.883 2.188 6.916 3.238 1.406 2.895 5.623 4.018 17.91.915 10.01 4.29 18.383 19.876 22.496l1.068-2.948c-6.72-1.977-12.706-5.663-14.995-10.805-4.502-10.113-4.108-29.706 3.12-33.152 3.548-1.69 16.07-1.86 27.76.224l1.116-3.073zm34.633 9.03c-4.405-.294-21.44-6.436-34.634-9.03l-1.118 3.072c9.496 1.693 18.442 4.872 21.58 9.93 5.884 9.485-6.783 30.215-17.4 34.13-5.26 1.94-13.06 1.732-20.064-.328l-1.068 2.947c1.837.484 3.84.91 6.033 1.273 20.403 3.37 28.458-9.248 31.057-13.312 4.638-7.247 4.347-17.83 14.722-16.912 10.376.918 8.432 11.116 11.722 19.067 1.476 3.564 5.3 13.23 17.338 17.098l1.056-2.912c-1.68-.52-3.215-1.167-4.536-1.94-9.765-5.72-18.594-28.352-11.136-36.656 5.188-5.776 19.536-6.67 31.72-5.59l1.182-3.25c-2.913-.224-5.757-.364-8.37-.38-12.18-.077-27.167 3.517-38.085 2.792m28.17 47.937c3.017.97 6.55 1.577 10.698 1.63 21.073.27 26.71-8.01 29.682-18.85 3.264-11.9 3.666-16.11 7.1-16.925 2.52-.6 3.277-3.258 3.37-6.425.094-3.166.005-3.516-4.02-5.212-2.72-1.145-16.258-3.616-28.544-4.565l-1.18 3.25c8.66.77 16.227 2.534 18.632 4.257 6.51 4.662 3.458 24.02-2.75 33.185-5.548 8.19-21.54 9.95-31.932 6.744l-1.056 2.913z"/><clipPath id="a"><path d="M427.725 113.38h137.11V167.4h-137.11z"/></clipPath><g opacity=".5" clip-path="url(#a)"><clipPath id="b"><path d="M427.725 113.38h137.11V167.4h-137.11z"/></clipPath><g clip-path="url(#b)"><path d="M561.2 125.962c-5.79-4.147-41.48-8.55-50.354 1.332-7.46 8.305 1.37 30.937 11.136 36.655 9.476 5.55 30.023 4.71 36.468-4.804 6.208-9.165 9.26-28.522 2.75-33.185m-127.416-11.275c6.428-3.064 42.335-1.133 49.338 10.154 5.884 9.486-6.783 30.214-17.4 34.13-10.304 3.8-30.385-.635-35.06-11.132-4.5-10.114-4.108-29.706 3.122-33.153" fill="#fff"/></g></g><clipPath id="c"><path d="M437.32 113.38h47.296v38.33H437.32z"/></clipPath><g opacity=".5" clip-path="url(#c)"><clipPath id="d"><path d="M437.32 113.38h47.296v38.33H437.32z"/></clipPath><g clip-path="url(#d)"><path d="M437.32 113.798c11.173-1.57 39.647 1.123 45.802 11.042 4.126 6.652-.873 18.835-7.89 26.87l-37.913-37.912z" fill="#fff"/></g></g><clipPath id="e"><path d="M516.944 121.308h47.89V162.2h-47.89z"/></clipPath><g opacity=".5" clip-path="url(#e)"><clipPath id="f"><path d="M516.944 121.308h47.89V162.2h-47.89z"/></clipPath><g clip-path="url(#f)"><path d="M516.944 123.587L555.56 162.2c1.137-.897 2.115-1.912 2.89-3.054 6.208-9.165 9.26-28.522 2.75-33.185-4.86-3.48-30.81-7.142-44.256-2.374" fill="#fff"/></g></g><path d="M546.31 329.293l243.683 29.142-14.573 121.842-243.682-29.143 14.57-121.84z" fill="#fff"/><path d="M672.325 399.415l85.24 10.194c2.468.294 4.248 2.558 3.953 5.03l-4.56 38.125c-.295 2.47-2.558 4.25-5.027 3.955l-85.24-10.193a4.538 4.538 0 0 1-3.953-5.03l4.56-38.127a4.54 4.54 0 0 1 5.028-3.955" fill="#98e6d6"/><path d="M730.948-11.718c33.21-18.525 75.15-6.62 93.674 26.59 18.526 33.212 6.62 75.15-26.593 93.676-33.21 18.525-75.15 6.62-93.674-26.592-18.524-33.21-6.62-75.15 26.592-93.674" fill="#fff"/><path d="M733.01-8.023c31.17-17.386 70.53-6.212 87.918 24.958 17.385 31.17 6.212 70.53-24.958 87.917-31.17 17.387-70.532 6.212-87.918-24.957-17.387-31.17-6.213-70.532 24.957-87.918" fill="#e6e6e6"/><path d="M720.693-21.414l4.033-2.25c2.586-1.44 5.882-.506 7.324 2.08L748.542 7.98c1.442 2.586.506 5.883-2.08 7.326l-4.032 2.25c-2.587 1.442-5.883.506-7.326-2.08l-16.49-29.563c-1.442-2.587-.508-5.885 2.08-7.327" fill="#fff"/><path d="M722.737-19.48l2.56-1.43a3.43 3.43 0 0 1 4.654 1.323l15.48 27.752a3.428 3.428 0 0 1-1.32 4.653l-2.56 1.43a3.432 3.432 0 0 1-4.654-1.322l-15.48-27.753a3.434 3.434 0 0 1 1.32-4.654" fill="#e6e6e6"/><path d="M738.067 1.048c26.16-14.592 59.197-5.214 73.79 20.946 14.59 26.16 5.213 59.196-20.948 73.788-26.16 14.593-59.197 5.215-73.788-20.946-14.592-26.16-5.214-59.196 20.945-73.788" fill="#fff"/><path d="M740.69 5.75c23.564-13.143 53.32-4.696 66.463 18.868 13.143 23.562 4.696 53.317-18.866 66.46-23.564 13.144-53.32 4.697-66.46-18.865-13.145-23.564-4.7-53.318 18.864-66.462" fill="#b3b3b3"/><path d="M744.252 12.133c20.038-11.176 45.34-3.994 56.52 16.044 11.176 20.038 3.992 45.342-16.045 56.52-20.038 11.176-45.342 3.992-56.517-16.045-11.18-20.038-3.995-45.342 16.042-56.52" fill="#886734"/><path d="M749.874 22.212c14.472-8.072 32.746-2.884 40.82 11.586 8.07 14.473 2.883 32.747-11.59 40.82-14.468 8.072-32.746 2.885-40.818-11.587-8.072-14.47-2.885-32.746 11.588-40.818" fill="#694f28"/><path d="M778.665 14.315a36.767 36.767 0 0 1 18.074 16.11c9.936 17.813 3.55 40.305-14.26 50.24a36.782 36.782 0 0 1-23.845 4.212 37.33 37.33 0 0 0 20.723-4.674c18.09-10.09 24.574-32.934 14.486-51.023a37.334 37.334 0 0 0-15.18-14.865" fill="#bd9d6e"/><path d="M728.337 136.376l30.39 32.464c5.764 6.16 5.444 15.912-.713 21.676l-87.322 81.743c-6.157 5.762-15.91 5.44-21.675-.717l-30.39-32.465c-5.765-6.158-5.442-15.91.714-21.675l87.322-81.742c6.156-5.763 15.91-5.44 21.675.716" fill="#fff"/><path d="M710.162 139.93l43.864 46.858-83.013 77.71-43.866-46.856 83.015-77.71z"/><path d="M727.627 147.764l19.733 21.08a1.43 1.43 0 0 0 2.016.066 1.43 1.43 0 0 0 .066-2.016l-19.73-21.08a1.43 1.43 0 0 0-2.018-.065 1.43 1.43 0 0 0-.067 2.014" fill="#b3b3b3"/><path d="M710.16 139.93L671.014 264.5l83.013-77.712-43.865-46.857z" fill="#4d4d4d"/><path d="M647.628 242.386a8.656 8.656 0 1 1-12.638 11.83 8.656 8.656 0 0 1 12.638-11.83" fill="#fff"/><path d="M645.763 244.132a6.1 6.1 0 1 1-8.905 8.34 6.1 6.1 0 0 1 8.905-8.34" fill="#b3b3b3"/><path d="M25.22 286.47l-16.98 3.027 9.222-14.576L124.32 203.13a3.805 3.805 0 0 1 5.264 1.033l3.527 5.25a3.807 3.807 0 0 1-1.032 5.267L25.22 286.47z" fill="#f85a68"/><path d="M25.22 286.47l-16.98 3.027 13.625-9.153 109.483-73.558 1.763 2.625a3.807 3.807 0 0 1-1.032 5.267L25.22 286.47z" fill="#c62229"/><path d="M25.22 286.47l-16.98 3.027 9.222-14.576 102.218-68.676c3.424 3.602 5.962 7.447 7.76 11.55L25.22 286.468z" fill="#fff"/><path d="M25.22 286.47l-16.98 3.027 13.625-9.153 102.202-68.666a38.437 38.437 0 0 1 3.372 6.115L25.22 286.47z" fill="#d0d0d0"/><path d="M25.22 286.47l-16.98 3.027 9.222-14.576 98.534-66.2c3.488 3.59 6.023 7.435 7.76 11.548l-98.536 66.2z" fill="#fab867"/><path d="M25.22 286.47l-16.98 3.027 13.625-9.153 98.554-66.214a35.757 35.757 0 0 1 3.336 6.138l-98.536 66.2z" fill="#f6931d"/><path d="M25.22 286.47l-16.98 3.027 9.22-14.575a37.936 37.936 0 0 1 4.404 5.422 38.07 38.07 0 0 1 3.356 6.125" fill="#f0b16c"/><path d="M25.22 286.47l-16.98 3.027 13.625-9.153a38.14 38.14 0 0 1 3.355 6.125" fill="#c78b4c"/><path d="M13.85 288.496l-5.608 1 3.045-4.815a12.75 12.75 0 0 1 2.563 3.815" fill="#1e1e1e"/><path d="M430.937 647.164l7.366 18.678c.285.722-.256 1.08-1.204.793l-6.892-2.083c-.948-.287-1.956-1.112-2.242-1.834l-7.365-18.68c-.283-.72.258-1.076 1.205-.79l6.892 2.083c.95.288 1.957 1.112 2.24 1.834" fill="#f6931d"/><path d="M434.172 650.934l10.193 25.846c.395 1-.1 2.14-1.1 2.534l-7.268 2.867c-1 .395-2.14-.1-2.535-1.1l-10.194-25.845a1.958 1.958 0 0 1 1.1-2.534l7.27-2.867c1-.394 2.14.1 2.534 1.1" fill="#fff"/><path d="M447.635 662.648l34.1 86.45c.945 2.404-.246 5.144-2.647 6.092l-17.475 6.892c-2.403.947-5.144-.243-6.09-2.646l-34.098-86.45c-1.965-4.984 2.415-10.515 4.017-11.148l11.65-4.595c1.6-.63 8.578.42 10.543 5.405" fill="#f6931d"/><path d="M452.306 664.383l31.655 80.26a3.337 3.337 0 0 1-1.874 4.315l-26.918 10.616a3.334 3.334 0 0 1-4.315-1.872l-31.656-80.26a3.34 3.34 0 0 1 1.875-4.317l26.92-10.617a3.336 3.336 0 0 1 4.314 1.875" fill="#fbd4a5"/><path d="M452.845 665.75l30.576 77.525-33.107 13.06-30.576-77.527 33.108-13.058z" fill="#f6931d"/><path d="M425.215 595.693l11.752 29.8a3.334 3.334 0 0 1-1.874 4.313l-26.92 10.617a3.333 3.333 0 0 1-4.313-1.872l-11.754-29.8a3.337 3.337 0 0 1 1.875-4.316l26.92-10.616a3.338 3.338 0 0 1 4.315 1.875" fill="#fbd4a5"/><path d="M431.936 622.232l-11.285-28.61a2.682 2.682 0 0 0-3.47-1.507l-21.647 8.54a2.68 2.68 0 0 0-1.506 3.47l11.283 28.608a2.686 2.686 0 0 0 3.47 1.508l21.647-8.538a2.685 2.685 0 0 0 1.51-3.47" fill="#f6931d"/><path d="M734.44 592.358l3.522 19.768c.135.764-.465 1.005-1.337.537l-6.343-3.408c-.872-.468-1.698-1.474-1.834-2.24l-3.523-19.766c-.135-.766.467-1.006 1.34-.538l6.342 3.405c.87.47 1.696 1.476 1.832 2.24" fill="#bd1d2d"/><path d="M736.864 596.694l4.873 27.35a1.957 1.957 0 0 1-1.58 2.267l-7.692 1.372a1.958 1.958 0 0 1-2.266-1.58l-4.875-27.353a1.96 1.96 0 0 1 1.58-2.268l7.692-1.37a1.96 1.96 0 0 1 2.267 1.582" fill="#fff"/><path d="M747.742 610.84l16.305 91.49c.452 2.543-1.258 4.994-3.798 5.447l-18.495 3.296c-2.542.454-4.992-1.257-5.448-3.798l-16.302-91.49c-.942-5.275 4.448-9.83 6.14-10.132l12.33-2.2c1.696-.298 8.326 2.113 9.267 7.388" fill="#f2675d"/><path d="M751.976 613.467l15.138 84.938a3.34 3.34 0 0 1-2.692 3.86l-28.488 5.075a3.336 3.336 0 0 1-3.86-2.69l-15.137-84.94a3.336 3.336 0 0 1 2.692-3.858l28.487-5.078a3.338 3.338 0 0 1 3.86 2.693" fill="#f9b3af"/><path d="M752.233 614.914l14.62 82.045-35.038 6.243-14.62-82.045 35.038-6.244z" fill="#f2675d"/><path d="M746.613 583.377l5.62 31.537c.32 1.8-.89 3.536-2.69 3.857l-28.49 5.08c-1.8.32-3.537-.892-3.86-2.692l-5.62-31.537a3.34 3.34 0 0 1 2.693-3.86l28.488-5.074a3.335 3.335 0 0 1 3.86 2.69" fill="#f9b3af"/><path d="M747.947 610.72l-5.396-30.278a2.684 2.684 0 0 0-3.103-2.164l-22.91 4.085a2.68 2.68 0 0 0-2.163 3.102l5.395 30.277a2.685 2.685 0 0 0 3.102 2.167l22.91-4.085a2.685 2.685 0 0 0 2.165-3.104" fill="#f2675d"/><path d="M196.555 60.39l71.104 13.18-9.436 50.903-23.942 16.456-50.905-9.435 13.178-71.104z" fill="#fff"/><path d="M238.026 120.73l20.198 3.743-23.943 16.455 3.746-20.198zM196.555 60.39l71.104 13.18-1.96 10.57-71.105-13.176 1.96-10.573z" fill="#f48c85"/><path d="M254.48 144.673l-20.198-3.744 23.942-16.457-3.743 20.2z" fill="#f9b3af"/><path d="M191.508 712.64l11.946-19.098-9.324-5.835-11.948 19.097 9.326 5.835z" fill="#fff"/><path d="M202.5 705.73l-16.302 26.054c-2.578 4.12-8.057 5.382-12.178 2.803l-2.81-1.757c-4.12-2.578-5.382-8.058-2.803-12.178l16.3-26.055 17.792 11.133z" fill="#fff"/><path d="M199.608 703.92l-15.216 24.32c-1.74 2.783-5.44 3.633-8.22 1.893l-1.897-1.187c-2.782-1.74-3.633-5.438-1.893-8.22l15.217-24.32 12.008 7.515z" fill="#fab867"/><path d="M217.94 681.052l-4.905 7.84-17.793-11.13 4.904-7.843c2.578-4.12 8.06-5.38 12.178-2.804l2.812 1.76c4.12 2.575 5.382 8.055 2.803 12.176" fill="#fff"/><path d="M213.963 680.978l-3.82 6.107-12.012-7.515 3.822-6.108c1.74-2.78 5.44-3.633 8.22-1.893l1.898 1.186c2.78 1.74 3.633 5.44 1.893 8.222" fill="#fab867"/><path d="M200.18 694.51a.893.893 0 1 1-1.515-.945.89.89 0 0 1 1.23-.283c.418.26.546.812.285 1.23M196.205 692.025a.893.893 0 1 1-.283-1.23.89.89 0 0 1 .283 1.23" fill="#909faf"/><path d="M149.546 81.767a.844.844 0 1 1 .935 1.404l-16.813 11.193c-2.264 1.506-4.574 1.182-6.308-.044a6.635 6.635 0 0 1-2.632-3.952c-.46-2.073.132-4.328 2.397-5.835l24.6-16.374c1.93-1.285 3.86-1.073 5.294-.107a5.162 5.162 0 0 1 2.144 3.23c.34 1.713-.215 3.6-2.16 4.895L135.48 90.505c-1.494.992-2.986.834-4.093.09a3.857 3.857 0 0 1-1.067-1.077 3.925 3.925 0 0 1-.58-1.404c-.26-1.326.175-2.79 1.68-3.792l14.102-9.385a.845.845 0 0 1 1.17.235.845.845 0 0 1-.235 1.17l-14.1 9.385c-.852.566-1.103 1.357-.966 2.062.056.286.17.56.33.797.158.24.364.45.603.61.58.39 1.387.46 2.22-.097l21.527-14.327c1.287-.857 1.66-2.07 1.444-3.162a3.45 3.45 0 0 0-1.435-2.163c-.907-.61-2.148-.73-3.42.117l-24.602 16.373c-1.59 1.06-2.01 2.63-1.688 4.067a4.91 4.91 0 0 0 .714 1.648c.338.51.763.954 1.243 1.294 1.204.85 2.816 1.07 4.405.012l16.814-11.19z" fill="#fff" fill-rule="nonzero"/><path d="M592.97 275.79l87.48 56.095-32.578 50.8-87.477-56.093 32.575-50.8z" fill="#fff"/><path d="M611.955 308.07l6.796 4.356-2.584 4.032-6.795-4.357 2.585-4.03zM620.908 313.81l12.253 7.857-2.585 4.03-12.25-7.856 2.583-4.03zM635.1 322.91l6.87 4.404-2.586 4.032-6.87-4.404 2.587-4.032zM620.587 342.568l2.31 1.482-1.532 2.39-2.31-1.483 1.532-2.39zM624.382 345.002l5.438 3.486-1.534 2.39-5.436-3.487 1.532-2.388zM631.212 349.382l2.313 1.482-1.534 2.39-2.31-1.483 1.532-2.388zM635.008 351.815l5.438 3.487-1.534 2.388-5.436-3.486 1.532-2.39zM603.917 321.83l6.12 3.924-1.534 2.39-6.118-3.925 1.532-2.39zM611.56 326.732l2.563 1.642-1.532 2.39-2.56-1.644 1.53-2.39zM615.193 329.06l2.562 1.644-1.532 2.39-2.56-1.643 1.53-2.39zM618.98 331.487l6.118 3.924-1.532 2.39-6.12-3.923 1.533-2.39zM626.623 336.39l2.562 1.643-1.533 2.388-2.56-1.642 1.53-2.39zM630.256 338.72l2.563 1.642-1.534 2.39-2.563-1.644 1.533-2.39zM587.157 321.132l6.832 4.38-1.532 2.39-6.833-4.38 1.532-2.39zM595.692 326.605l2.86 1.835-1.53 2.39-2.862-1.836 1.532-2.39zM599.748 329.206l2.862 1.835-1.533 2.39-2.86-1.835 1.53-2.39zM603.975 331.916l6.833 4.38-1.533 2.39-6.832-4.38 1.532-2.39zM612.51 337.39l2.86 1.834-1.53 2.39-2.862-1.835 1.53-2.39zM616.567 339.99l2.86 1.835-1.533 2.39-2.86-1.836 1.533-2.39zM591.288 330.18l-2.912-1.867-1.53 2.39 2.91 1.867 1.532-2.39zM633.41 357.19l-8.61-5.52-1.533 2.39 8.61 5.52 1.532-2.39zM622.654 350.295l-3.604-2.313-1.534 2.39 3.606 2.312 1.532-2.39zM617.544 347.017l-3.604-2.312-1.534 2.39 3.606 2.31 1.532-2.388zM612.22 343.603l-8.61-5.52-1.533 2.388 8.612 5.522 1.53-2.39zM601.465 336.707l-3.606-2.313-1.532 2.39 3.604 2.312 1.533-2.39zM596.354 333.43l-3.605-2.313-1.534 2.39 3.605 2.31 1.534-2.388z" fill="#ccc"/><path d="M253.785 593.128l74.35-.49.013 1.95-74.35.488-.013-1.948zM253.84 601.35l74.35-.49.013 1.95-74.35.487-.013-1.946zM253.894 609.572l74.35-.49.012 1.948-74.35.488-.012-1.946zM253.948 617.795l74.35-.49.014 1.948-74.35.488-.014-1.945zM254.002 626.017l74.35-.49.012 1.946-74.35.49-.012-1.946zM254.056 634.238l74.35-.49.013 1.947-74.35.49-.014-1.947zM254.11 642.46l74.35-.49.012 1.948-74.35.488-.012-1.947zM254.165 650.682l74.35-.49.012 1.948-74.35.49-.012-1.948zM254.22 658.902l74.35-.488.012 1.947-74.35.49-.013-1.948zM254.272 667.126l74.35-.49.014 1.948-74.35.49-.014-1.948zM254.327 675.347l74.35-.49.012 1.95-74.35.488-.013-1.948zM254.38 683.57l74.35-.49.014 1.947-74.35.49-.013-1.948zM254.435 691.79l74.35-.49.013 1.95-74.35.49-.013-1.95zM254.49 700.013l74.35-.49.012 1.95-74.35.488-.013-1.947zM254.543 708.235l74.35-.49.013 1.947-74.35.49-.013-1.947zM254.598 716.457l74.35-.49.013 1.948-74.35.49-.012-1.948z" fill="#fff"/><path d="M245.23 576.82l14.043-.094-2.46 6.773a2.646 2.646 0 1 0-1.807 4.977l-9.526 26.23-.25-37.888zm14.043-.094l10.002-.065-2.46 6.774a2.647 2.647 0 0 0-1.808 4.975l-19.35 53.275-.177-26.978 9.527-26.23a2.645 2.645 0 0 0 3.55-2.507 2.65 2.65 0 0 0-1.743-2.47l2.46-6.774zm10.002-.065l10-.065-2.46 6.773a2.645 2.645 0 0 0-3.55 2.506 2.65 2.65 0 0 0 1.744 2.47l-29.175 80.322-.178-26.982 19.35-53.275a2.646 2.646 0 0 0 1.808-4.975l2.46-6.774zm10-.065l10.002-.066-2.46 6.772a2.648 2.648 0 0 0-1.807 4.977l-38.997 107.366-.178-26.98 29.174-80.32a2.648 2.648 0 0 0 3.55-2.506 2.648 2.648 0 0 0-1.744-2.47l2.46-6.775zm10.002-.066l10-.066-2.46 6.77a2.648 2.648 0 0 0-1.807 4.98l-48.82 134.412-.177-26.98 38.997-107.367c.286.102.596.158.92.155a2.646 2.646 0 0 0 .887-5.133l2.46-6.773zm10-.066l10-.067-2.458 6.773a2.647 2.647 0 1 0-1.807 4.977L254.226 727.97l-8 .053-.037-5.397 48.82-134.412a2.65 2.65 0 0 0 3.55-2.508 2.653 2.653 0 0 0-1.743-2.47l2.46-6.77zm10-.067l10.002-.065-2.46 6.772a2.646 2.646 0 1 0-1.807 4.976l-50.785 139.825-10 .065 50.784-139.823a2.647 2.647 0 0 0 1.807-4.977l2.458-6.773zm10.002-.065l10-.066-2.46 6.773a2.647 2.647 0 1 0-1.808 4.976L274.23 727.838l-10 .065 50.785-139.825a2.648 2.648 0 0 0 1.807-4.976l2.46-6.772zm10-.066l7.195-.048.996 151.205-63.242.416 50.785-139.825a2.647 2.647 0 0 0 1.808-4.976l2.46-6.773z" fill="#36485c"/><path d="M247.465 579.026l11-.074-1.65 4.547a2.647 2.647 0 1 0-1.808 4.977l-7.347 20.226-.195-29.678zm11-.073l10.002-.067-1.65 4.548a2.647 2.647 0 0 0-1.81 4.976l-17.17 47.274-.177-26.98 7.347-20.227c.287.105.597.16.92.156a2.643 2.643 0 0 0 2.63-2.663 2.65 2.65 0 0 0-1.742-2.47l1.65-4.547zm10.002-.067l10-.066-1.65 4.548a2.646 2.646 0 0 0-1.808 4.977l-26.993 74.322-.178-26.983 17.17-47.274a2.646 2.646 0 0 0 1.81-4.975l1.65-4.55zm10-.066l10.002-.066-1.653 4.548a2.648 2.648 0 0 0-1.807 4.977l-36.817 101.364-.177-26.977 26.993-74.322a2.647 2.647 0 1 0 1.808-4.976l1.65-4.548zm10.002-.065l10-.067-1.652 4.548a2.648 2.648 0 0 0-3.55 2.506 2.653 2.653 0 0 0 1.742 2.47l-46.64 128.412-.177-26.98 36.817-101.365c.287.1.597.158.92.155a2.646 2.646 0 0 0 .887-5.132l1.652-4.548zm10-.066l10-.067-1.65 4.548a2.646 2.646 0 1 0-1.807 4.976l-49.98 137.6-6.602.044-.06-9.165 46.64-128.41a2.65 2.65 0 0 0 1.808-4.978l1.652-4.55zm10-.067l10.002-.068-1.652 4.55a2.646 2.646 0 1 0-1.807 4.976l-49.977 137.597-10.002.067 49.978-137.598a2.647 2.647 0 0 0 1.807-4.977l1.65-4.547zm10.002-.068l10-.064-1.65 4.55a2.648 2.648 0 0 0-1.808 4.976l-49.98 137.597-10 .065 49.978-137.598a2.648 2.648 0 0 0 1.807-4.976l1.652-4.55zm10-.063l5.8-.038.965 146.764-60.2.395 49.976-137.597a2.646 2.646 0 1 0 1.808-4.977l1.652-4.548z" fill="#fff"/><path d="M247.613 601.522l86.806-.57.006 1.133-86.805.57-.007-1.133zM247.67 610.14l86.806-.57.006 1.134-86.805.57-.008-1.134zM247.726 618.758l86.807-.572.006 1.135-86.806.572-.008-1.134zM247.783 627.375l86.806-.572.006 1.135-86.806.572-.007-1.135zM247.84 635.99l86.806-.57.007 1.134-86.806.572-.007-1.135zM247.897 644.61l86.805-.573.008 1.135-86.806.572-.007-1.135zM247.954 653.226l86.806-.572.007 1.135-86.806.572-.006-1.136zM248.01 661.843l86.807-.57.007 1.134-86.806.572-.007-1.137zM248.067 670.46l86.806-.57.007 1.134-86.806.572-.007-1.135zM248.124 679.077l86.805-.57.007 1.133-86.806.573-.006-1.136zM248.18 687.695l86.806-.572.008 1.135-86.806.572-.007-1.135zM248.237 696.312l86.806-.57.007 1.133-86.806.573-.007-1.136zM248.293 704.93l86.806-.57.007 1.133-86.806.57-.007-1.133zM248.35 713.547l86.806-.57.008 1.132-86.806.573-.007-1.136z" fill="#bdcad9"/><path d="M265.82 571.962a1.73 1.73 0 0 1 1.738 1.715l.076 11.764a1.73 1.73 0 0 1-1.714 1.74 1.733 1.733 0 0 1-1.738-1.715l-.077-11.765a1.73 1.73 0 0 1 1.714-1.738M275.82 571.896a1.73 1.73 0 0 1 1.737 1.716l.077 11.763a1.73 1.73 0 0 1-1.714 1.738 1.73 1.73 0 0 1-1.737-1.715l-.078-11.764a1.73 1.73 0 0 1 1.715-1.738M285.82 571.83a1.73 1.73 0 0 1 1.738 1.715l.078 11.764c.006.95-.764 1.73-1.715 1.738a1.733 1.733 0 0 1-1.737-1.716l-.078-11.765a1.73 1.73 0 0 1 1.716-1.737M295.82 571.764a1.73 1.73 0 0 1 1.74 1.715l.076 11.763a1.73 1.73 0 0 1-1.714 1.738 1.73 1.73 0 0 1-1.738-1.714l-.078-11.764a1.732 1.732 0 0 1 1.715-1.738M305.822 571.698a1.73 1.73 0 0 1 1.737 1.715l.077 11.764a1.73 1.73 0 0 1-1.714 1.74 1.735 1.735 0 0 1-1.74-1.717l-.076-11.765a1.732 1.732 0 0 1 1.715-1.737M315.823 571.63c.95-.005 1.73.767 1.738 1.718l.078 11.762a1.73 1.73 0 0 1-1.715 1.74 1.735 1.735 0 0 1-1.74-1.716l-.076-11.763a1.734 1.734 0 0 1 1.716-1.74M325.824 571.566a1.73 1.73 0 0 1 1.737 1.715l.08 11.765a1.73 1.73 0 0 1-1.716 1.74 1.734 1.734 0 0 1-1.738-1.717l-.077-11.764a1.73 1.73 0 0 1 1.714-1.738M255.82 572.026a1.73 1.73 0 0 1 1.736 1.716l.077 11.763a1.73 1.73 0 0 1-1.714 1.738 1.73 1.73 0 0 1-1.74-1.714l-.077-11.766a1.734 1.734 0 0 1 1.716-1.738" fill="#f48c85"/><path d="M314.63 612.022l1.394-1 .03.014.028.013.026.013.024.016.02.015.02.018.017.018.015.02.012.02.01.02.01.022.006.023.004.024.002.022v.022l-.002.027-.005.025-.007.025-.008.025-.01.027-.012.027-.015.024-.016.028-.02.026-.02.027-.022.026-.024.028-.028.027-.03.025-.03.027-.033.026-.035.027-.036.025-.038.024-.04.023-.04.023-.04.02-.04.022-.042.02-.042.018-.044.017-.043.016-.043.014-.044.017-.044.013-.044.012-.045.01-.045.01-.043.01-.046.006-.042.008-.044.005-.042.005-.042.002h-.122l-.04-.004-.038-.004-.037-.006-.036-.006-.034-.008-.033-.008-.032-.012zm1.394-1l-1.393 1-.222-.22-.005-.09.008-.05.01-.04.01-.036.012-.036.013-.04.013-.035.016-.044.017-.045.02-.046.018-.047.02-.052.02-.05.022-.056.022-.053.023-.056.023-.056.023-.057.024-.057.023-.057.023-.056.023-.053.022-.06.02-.05.022-.054.02-.05.02-.047.016-.048.016-.042.013-.038.013-.036 1.807-.244-.016.043-.017.048-.018.05-.02.048-.02.05-.02.055-.022.055-.023.057-.02.053-.024.06-.024.058-.024.057-.023.057-.023.057-.023.057-.023.055-.02.053-.022.053-.02.05-.02.048-.016.046-.017.043-.016.038-.012.034-.012.03-.008.027-.006.018-.004.01.003-.02-.005-.072-.216-.21zm.304-.573l-.958-.62.04-.022.043-.022.042-.02.044-.02.042-.02.044-.017.044-.015.045-.017.044-.012.043-.014.045-.013.044-.01.045-.008.044-.008.045-.008.042-.005.043-.003.042-.004.042-.002h.04l.04.002.04.002.037.003.04.005.034.006.035.007.032.01.033.007.03.012.03.013.026.014.027.017.024.016.022.015.02.02.016.02.014.02.012.02.01.023.007.02.007.025.004.022.002.025v.025l-.005.024-.005.027-.007.025-.01.026-.01.026-.015.024-.015.028-.018.026-.018.027-.024.026-.023.025-.025.028-.028.027-.03.025-.03.027-.032.025-.035.025-.037.024-.037.025-.042.024zm.425-.432l-1.807.243 1.382.188-.14.08-.162.09-.184.1-.205.11-.224.12-.244.125-.262.135-.277.137-.29.143-.303.146-.316.148-.324.148-.336.15-.343.15-.347.145-.355.14-.358.14-.36.133-.365.124-.365.12-.364.107-.364.098-.365.086-.362.072-.36.058-.353.038-.348.017-.336-.01-.32-.033-.294-.064-.264-.095-.228-.124 1.587-.9.094.05.103.037.112.024.127.015h.146l.165-.007.188-.02.21-.034.228-.046.246-.058.262-.072.275-.082.286-.09.293-.103.3-.112.302-.117.305-.122.305-.127.302-.128.3-.135.292-.134.285-.134.277-.134.266-.13.25-.125.24-.12.22-.116.204-.107.185-.1.16-.086.138-.076.11-.063 1.383.188zm-10.255 2.845l1.81-.26-.01.027-.01.028-.015.027-.017.027-.02.028-.02.026-.02.027-.024.026-.026.025-.028.027-.03.026-.03.024-.03.026-.035.023-.035.024-.035.023-.038.023-.038.023-.04.02-.04.02-.04.02-.043.016-.043.018-.043.015-.044.016-.045.014-.045.014-.045.01-.046.012-.047.01-.047.01-.047.007-.045.005-.045.004-.044.004-.044.003-.042-.003h-.04l-.04-.002-.037-.004-.037-.004-.036-.005-.033-.01-.032-.007-.032-.01-.028-.012-.027-.01-.027-.013-.022-.016-.023-.015-.02-.016-.02-.018-.015-.018-.015-.02-.012-.018-.012-.02-.007-.023-.006-.024-.004-.023-.002-.025.002-.025.003-.025.005-.028.008-.027zm1.7-.58l-1.588.9-.112-.32.066-.205.066-.194.062-.18.06-.17.06-.16.06-.15.057-.14.057-.135.06-.13.06-.12.06-.116.06-.11.066-.11.066-.104.066-.1.072-.1.074-.097.076-.094.078-.097.08-.092.08-.09.085-.093.09-.094.088-.097.092-.1.098-.104.1-.11.107-.114.11-.124.12-.13.125-.142.13-.15 1.585.12-.138.16-.134.15-.125.14-.118.13-.113.123-.106.112-.097.108-.09.1-.088.092-.08.085-.072.08-.07.078-.062.074-.06.07-.053.07-.052.068-.05.07-.048.07-.048.076-.048.08-.048.085-.048.092-.048.1-.05.108-.05.116-.053.127-.054.137-.055.147-.057.164-.06.172-.063.187-.066.2-.113-.32zm2.393-3.225l-1.535-.173.028-.028.028-.028.032-.028.032-.024.034-.026.034-.026.035-.023.038-.023.038-.023.04-.02.04-.02.038-.02.044-.02.04-.018.044-.017.044-.016.043-.017.044-.012.043-.013.044-.012.045-.012.045-.008.044-.007.045-.008.044-.005.043-.006.044-.002.043-.002h.084l.04.003.04.005.04.004.036.007.035.008.034.01.03.01.03.012.027.012.026.013.024.015.02.017.022.015.016.017.016.02.014.018.012.02.01.022.007.02.005.023.005.023v.048l-.003.026-.005.024-.007.026-.01.027-.01.027-.015.025-.017.026-.018.027-.02.03-.024.028-.025.028zm.025-.027l-1.584-.118 1.56.146-.147.146-.168.144-.193.154-.217.166-.245.177-.27.192-.294.204-.317.212-.34.22-.357.23-.374.232-.392.237-.402.24-.416.24-.425.24-.432.235-.44.23-.443.228-.446.216-.448.207-.448.197-.448.185-.447.17-.445.153-.443.135-.442.114-.44.09-.432.058-.42.025-.402-.02-.37-.062-.32-.11 1.455-.97.114.037.122.02.138.007.17-.01.202-.028.236-.05.268-.07.3-.09.322-.112.343-.13.358-.15.375-.164.383-.177.39-.19.393-.2.394-.206.394-.215.388-.22.382-.22.37-.22.362-.218.347-.217.33-.21.31-.203.29-.194.264-.182.238-.168.208-.15.175-.134.135-.107.093-.08.037-.034 1.56.146zm-12.04 4.87l1.843-.484v.026l-.002.025-.005.026-.006.028-.008.027-.012.027-.013.027-.014.026-.017.027-.022.027-.02.025-.022.028-.026.025-.026.027-.028.025-.03.025-.03.025-.033.023-.035.026-.034.02-.037.024-.038.022-.04.02-.04.02-.042.022-.042.018-.044.018-.044.018-.046.017-.045.013-.047.014-.047.014-.048.012-.047.01-.046.01-.046.007-.044.006-.045.003-.042.005h-.043l-.04.002-.04-.002h-.04l-.04-.003-.036-.006-.036-.005-.034-.006-.033-.007-.03-.01-.03-.01-.03-.01-.026-.015-.025-.01-.023-.017-.023-.017-.02-.017-.018-.016-.016-.02-.014-.02-.012-.02-.01-.024-.007-.02-.003-.027-.003-.023zm1.648-.73l-1.455.974-.194-.244-.003-.143.008-.15.014-.16.022-.17.03-.18.034-.185.043-.194.05-.2.052-.208.06-.21.064-.216.068-.217.075-.22.076-.222.082-.22.085-.223.09-.22.09-.216.096-.215.096-.208.1-.207.102-.198.104-.194.108-.186.11-.178.11-.173.117-.164.12-.158.13-.15.144-.147.167-.15.21-.152 1.104.528.02-.012-.03.027-.055.055-.07.082-.08.105-.087.12-.09.138-.09.15-.094.162-.092.172-.094.182-.09.19-.09.193-.09.2-.087.203-.082.21-.08.207-.078.21-.074.21-.07.208-.065.207-.06.203-.056.198-.05.194-.045.186-.04.18-.03.17-.028.16-.02.147-.01.135-.005.122v.106l-.194-.245zm2.476-5.225l-1.84.37.006-.026.007-.03.01-.026.012-.027.014-.027.015-.028.018-.026.02-.027.022-.027.023-.028.026-.026.027-.026.03-.026.03-.025.032-.025.033-.023.034-.024.035-.02.037-.023.04-.022.038-.02.04-.022.042-.018.042-.02.043-.017.044-.016.046-.016.045-.015.046-.013.048-.013.046-.01.048-.01.047-.01.046-.01.047-.003.044-.005.046-.003h.123l.038.002.038.003.037.005.036.006.065.016.03.01.03.008.027.013.026.014.025.013.022.014.02.018.02.016.017.02.028.04.01.02.01.022.006.023.004.023.002.025v.025l-.003.027zm-.37.45l-1.102-.53 1.47.08-.15.283-.126.128-.134.122-.16.135-.187.154-.217.17-.245.19-.273.205-.297.22-.322.232-.345.24-.364.253-.382.26-.4.263-.414.267-.427.267-.438.27-.45.263-.456.26-.464.253-.47.247-.472.235-.477.223-.48.21-.48.193-.48.175-.486.155-.483.13-.484.1-.48.068-.466.028-.446-.014.973-1.09.198.006.217-.013.243-.034.272-.058.3-.08.326-.105.35-.127.368-.15.384-.166.395-.186.404-.2.407-.215.412-.224.41-.236.408-.24.402-.245.396-.25.384-.247.372-.245.358-.24.34-.238.322-.226.3-.217.277-.203.25-.188.22-.173.19-.15.156-.125.116-.1.07-.062h.002l-.103.21 1.47.08zm-11.975 5.568l1.744-.755.014.02.012.022.008.023.008.02.005.026.003.023v.024l-.002.025-.004.024-.007.028-.01.025-.01.024-.01.03-.016.023-.016.027-.018.024-.02.03-.023.025-.024.025-.026.027-.028.025-.03.024-.03.027-.033.025-.034.025-.037.024-.038.023-.038.024-.04.02-.043.024-.042.02-.045.02-.044.018-.046.02-.046.015-.045.014-.045.016-.046.013-.044.01-.046.01-.044.01-.045.005-.044.01-.04.002-.045.003-.042.002-.04.002h-.08l-.04-.005-.035-.003-.036-.005-.035-.007-.034-.01-.033-.007-.03-.01-.028-.01-.028-.014-.027-.014-.024-.014-.022-.017-.02-.018-.02-.018-.015-.02zm1.358-.922l-.972 1.09-.385-.168-.084-.127-.066-.136-.054-.142-.04-.15-.03-.154-.02-.16-.006-.165v-.17l.007-.172.017-.175.022-.18.027-.182.033-.182.04-.185.042-.184.047-.187.05-.185.05-.182.055-.182.057-.177.057-.175.058-.172.058-.168.06-.16.055-.158.056-.152.054-.143.05-.134.048-.128.043-.116.04-.108.035-.096 1.805-.24-.037.103-.04.113-.045.117-.048.128-.05.134-.053.14-.054.15-.055.15-.056.16-.056.16-.056.166-.055.168-.055.172-.05.17-.05.173-.05.173-.042.174-.04.17-.035.17-.03.166-.025.164-.02.16-.014.152-.006.148v.142l.006.135.015.128.02.117.03.108.037.1.043.084.05.076-.387-.167zm.28-3.776l.05-1.012.046-.01.047-.01.045-.006.045-.007.045-.004.043-.005h.124l.038.002.038.003.038.005.035.004.033.008.032.01.032.007.03.01.054.024.025.014.023.016.022.015.02.015.017.02.014.018.015.02.01.022.01.022.007.022.005.024.002.024v.026l-.004.027-.004.027-.008.027-.01.027-.01.027-.014.027-.015.027-.018.028-.02.027-.02.026-.025.027-.024.026-.027.026-.027.025-.03.024-.03.024-.035.024-.033.024-.037.023-.037.023-.036.02-.04.023-.04.022-.04.018-.043.02-.043.017-.044.018-.045.015-.045.016-.047.013-.047.012-.048.012zm.927-.626l-1.805.24.877.386.112-.034-.024.013-.114.063-.17.106-.212.142-.245.176-.274.2-.297.222-.32.243-.338.26-.357.272-.374.284-.39.295-.404.3-.42.303-.433.308-.447.305-.46.305-.47.3-.484.292-.495.284-.507.27-.52.258-.53.243-.545.222-.558.2-.566.174-.576.144-.58.108-.58.068-.574.027-.56-.018.94-1.092.367.012.36-.017.362-.04.364-.07.373-.092.38-.117.393-.142.403-.163.41-.188.415-.207.42-.226.422-.24.42-.255.42-.267.415-.274.41-.283.404-.284.395-.288.386-.285.378-.285.366-.278.353-.27.34-.26.33-.25.313-.236.303-.222.29-.205.284-.192.283-.174.297-.165.338-.152.427-.136.878.386zm-14.055 6.773l1.77-.72.013.02.01.024.007.024.005.023.003.025v.05l-.006.026-.006.027-.008.024-.01.028-.012.025-.015.026-.016.027-.02.025-.02.028-.023.025-.024.026-.025.028-.027.025-.028.026-.03.023-.033.025-.035.025-.036.024-.037.022-.04.023-.04.02-.04.023-.043.02-.044.02-.045.02-.046.018-.045.016-.047.014-.046.015-.046.012-.044.01-.045.01-.044.012-.045.006-.043.006-.042.005-.044.006-.04.002h-.12l-.04-.003-.036-.004-.037-.004-.035-.006-.033-.007-.033-.01-.03-.01-.03-.01-.028-.012-.027-.013-.024-.015-.024-.018-.02-.015-.02-.02-.016-.02-.015-.02zm1.356-.907l-.94 1.092-.415-.185-.1-.2-.066-.203-.03-.21.005-.218.038-.222.066-.223.092-.222.117-.226.137-.224.158-.22.175-.22.188-.22.202-.216.212-.213.22-.21.23-.207.235-.204.238-.2.24-.194.242-.192.24-.186.24-.18.234-.175.23-.168.22-.16.213-.156.2-.143.19-.137.173-.126.156-.115.138-.103.114-.093 1.323.37-.154.12-.166.127-.176.13-.184.135-.195.14-.2.145-.21.152-.212.155-.217.16-.22.163-.22.166-.22.17-.216.172-.214.175-.21.174-.2.175-.193.174-.184.174-.173.174-.158.17-.145.167-.132.166-.114.162-.096.157-.08.15-.06.147-.042.143-.025.138-.003.133.018.13.04.127.063.123-.414-.187zm4.542-4.485l-.572-.81.045-.02.046-.016.047-.016.045-.015.046-.013.045-.01.045-.012.045-.01.045-.01.044-.005.044-.005.042-.005.043-.003.043-.003h.08l.04.002.037.003.037.004.036.004.034.007.033.008.032.01.03.01.03.012.026.013.025.013.024.016.02.017.02.02.02.018.016.02.013.022.01.023.01.02.006.025.004.023.002.025v.024l-.003.026-.005.025-.007.026-.01.024-.01.028-.014.024-.016.027-.018.026-.018.025-.02.028-.024.025-.025.025-.027.027-.03.026-.028.025-.03.027-.035.024-.034.027-.037.022-.038.023-.04.02-.04.024-.043.02-.043.022-.045.02zm.375-.22l-1.323-.37.948.59-.353.14-.403.15-.45.158-.502.168-.55.178-.594.187-.636.195-.674.2-.71.21-.738.21-.766.216-.786.218-.804.215-.818.217-.827.215-.83.213-.833.205-.83.2-.82.195-.81.184-.793.174-.774.164-.75.15-.724.138-.69.123-.658.107-.618.088-.58.068-.538.048-.495.024-.453-.005-.41-.037 1.09-1.075.195.02h.282l.365-.02.432-.038.495-.058.552-.08.6-.096.643-.113.682-.13.714-.142.743-.158.764-.167.784-.178.797-.188.808-.196.812-.202.812-.207.81-.21.798-.21.786-.214.77-.212.746-.21.72-.206.687-.2.653-.195.61-.186.566-.178.514-.166.46-.153.393-.14.32-.118.24-.096.947.588zm-21.964 4.764l1.83-.335-.005.025-.01.03-.01.026-.014.027-.015.027-.018.027-.02.027-.02.025-.024.028-.025.025-.026.026-.028.027-.03.026-.033.024-.032.025-.033.024-.036.022-.037.023-.04.022-.038.02-.04.02-.04.024-.042.017-.043.018-.043.018-.045.016-.046.015-.046.013-.045.012-.047.013-.047.01-.048.01-.046.007-.047.007-.047.006-.044.003-.044.003-.042.002h-.04l-.04-.003-.038-.004-.038-.005-.035-.005-.035-.006-.033-.008-.032-.008-.03-.01-.028-.014-.026-.012-.026-.014-.023-.015-.02-.013-.02-.018-.018-.017-.016-.02-.014-.02-.01-.02-.01-.022-.008-.022-.005-.022-.003-.026V614.59l.006-.028zm1.46-.704l-1.09 1.075-.37-.37.003-.02.003-.018v-.018l.002-.015.002-.018V614.437l.003-.022.002-.024v-.028l.006-.03.008-.043.015-.05.02-.048.03-.058.035-.053.042-.057.053-.06.052-.052.054-.05.058-.05.054-.042.05-.038.055-.04.058-.04.06-.04.06-.04.06-.037.065-.043.068-.04.073-.048.078-.048 1.044.566-.07.043-.064.04-.057.037-.05.03-.043.03-.037.025-.025.016-.018.013-.015.01-.01.007.012-.008.013-.015.018-.018.023-.027.02-.025.015-.025.014-.026.008-.018.006-.02.003-.01v.015l-.002.013v.043l-.003.03-.002.033-.004.035-.008.038-.008.042-.37-.37zm.655.062l-1.044-.567 1.887-1.183 1.675-1.088 1.47-.99 1.267-.898 1.077-.805.89-.716.713-.623.543-.53.378-.44.228-.345.098-.245.004-.16-.052-.09-.102-.064-.184-.043-.298-.014-.424.023-.538.072-.64.124-.732.172-.81.22-.875.27-.934.31-.98.355-1.02.39-1.052.423-1.073.46-1.086.487-1.093.514-1.09.54-1.08.563-1.065.58-.922-.64 1.126-.614 1.143-.592 1.15-.57 1.155-.543 1.15-.518 1.136-.484 1.118-.452 1.092-.417 1.057-.378 1.02-.34.976-.3.924-.253.87-.206.81-.156.75-.1.687-.04.618.035.525.13.383.236.192.34-.006.407-.18.457-.336.508-.485.565-.638.625-.796.697-.964.77-1.138.85-1.323.937-1.514 1.023-1.715 1.113-1.922 1.207zm-5.943-3.297l-1.898 1.06-.92-.638 1.896-1.062.922.64zm-2.82.423l.922.637-.04.022-.044.022-.043.02-.043.02-.044.018-.043.015-.045.018-.045.015-.044.012-.045.012-.044.012-.044.01-.044.007-.044.007-.044.007-.042.007-.043.004-.042.002h-.04l-.04.003-.04-.004h-.04l-.037-.005-.036-.005-.035-.006-.035-.007-.032-.01-.03-.01-.03-.013-.03-.012-.026-.014-.024-.017-.024-.015-.02-.02-.017-.018-.016-.02-.013-.02-.01-.02-.01-.024-.006-.02-.003-.024-.003-.025v-.023l.002-.026.004-.024.007-.027.01-.024.01-.024.012-.028.013-.024.016-.03.018-.023.02-.026.023-.027.025-.025.026-.027.03-.026.03-.027.03-.025.035-.025.034-.025.036-.027.04-.02.04-.024zM323.123 628.325l.944-1.093.04.005.038.005.037.008.035.007.033.008.03.01.03.013.03.01.024.015.024.015.022.017.02.016.017.018.016.018.014.02.012.02.008.02.008.023.007.022.003.022v.049l-.002.023-.005.026-.01.025-.008.028-.01.026-.015.028-.017.03-.018.026-.02.027-.025.03-.025.027-.027.027-.028.028-.03.027-.032.024-.034.024-.032.025-.036.024-.037.023-.038.023-.04.02-.04.023-.04.018-.04.018-.042.017-.043.018-.043.016-.045.014-.044.015-.043.012-.045.012-.044.01-.045.01-.044.008-.046.01-.044.003-.043.004-.045.005-.043.003h-.044l-.04-.002-.043-.003zm.944-1.093l-.944 1.093-.14-.008-.134-.004h-.127l-.12.008-.115.008-.107.012-.104.013-.1.02-.097.02-.096.022-.094.025-.094.03-.094.03-.097.034-.096.036-.1.04-.1.042-.105.048-.106.05-.11.053-.107.053-.114.06-.117.058-.118.064-.12.064-.125.066-.125.067-.13.07-.132.068-.135.07-.142.072-.144.072-.74-.734.106-.05.11-.056.11-.06.117-.06.118-.063.122-.064.125-.068.128-.068.132-.07.136-.07.14-.073.146-.07.148-.073.154-.072.16-.072.164-.07.17-.07.177-.066.18-.063.187-.062.192-.058.196-.05.202-.05.204-.042.207-.036.21-.03.213-.024.21-.016.214-.008.216-.002.215.005.217.012zm-5.326 1.62l.742.735-.813.383-.814.365-.812.345-.806.326-.798.303-.787.282-.772.26-.755.236-.735.214-.71.186-.69.162-.66.136-.628.106-.598.077-.564.043-.526.01-.488-.028-.44-.07-.382-.12-.31-.172-.224-.225-.122-.27-.02-.31.076-.343.17-.37.256-.397.342-.43.43-.458.52-.493.608-.53.705-.57.803-.606 1.235.437-.745.565-.64.517-.54.467-.445.423-.35.374-.26.325-.178.274-.105.23-.04.18.008.14.05.106.08.084.124.066.172.052.227.038.29.016.346-.008.404-.03.46-.06.503-.084.55-.114.585-.138.622-.163.65-.19.677-.21.697-.236.717-.258.73-.278.74-.298.745-.317.75-.336.746-.354zm-7.268-1.17l-1.832.335.007-.027.01-.027.01-.028.013-.027.016-.028.018-.026.018-.026.022-.028.023-.027.025-.025.026-.026.028-.026.03-.025.03-.023.034-.025.034-.023.036-.025.037-.022.037-.022.04-.02.04-.022.04-.02.042-.017.043-.018.042-.016.045-.016.045-.015.045-.015.046-.01.047-.014.046-.01.048-.01.046-.007.047-.008.045-.007h.045l.042-.003.042-.002.08.002.038.003.037.004.036.005.034.006.033.01.033.01.028.01.03.01.027.013.024.014.024.015.02.015.02.017.02.02.015.017.012.02.012.022.01.02.006.023.005.024.003.023v.05l-.006.027zm-.3.385l-1.234-.436 1.534.05-.002.014-.002.01-.004.02-.006.022-.005.02-.008.028-.01.027-.01.03-.02.04-.022.04-.023.037-.024.035-.033.044-.03.034-.03.037-.033.033-.03.03-.04.04-.034.03-.034.032-.037.03-.035.032-.04.035-.043.032-.045.036-.045.036-.05.04-.05.04-.052.04-.06.046-.06.05-.066.048-1.283-.402.062-.048.056-.043.052-.04.05-.04.046-.035.04-.033.035-.028.03-.026.028-.024.022-.018.023-.02.016-.013.012-.013.01-.008.002-.005-.003.004-.004.004-.006.007-.01.017-.01.01-.005.01-.01.018-.008.016-.002.007-.002.007-.002.004.002-.003.003-.01.002-.014.003-.013 1.533.05zm-1.965.28l1.282.4-1.215.895-1.158.774-1.107.656-1.06.547-1.016.444-.976.34-.93.235-.875.135-.802.037-.72-.054-.63-.135-.545-.2-.464-.256-.39-.305-.322-.342-.26-.373-.196-.397-.14-.418-.083-.428-.03-.435.025-.438.078-.434.135-.423.192-.413.26-.4.34-.386.447-.37.578-.336.686-.256.713-.135.678-.02.643.083-1.18 1.06-.362-.048-.248.004-.135.025-.08.03-.107.065-.152.128-.17.198-.165.253-.14.298-.104.332-.065.354-.02.366.024.37.07.367.12.357.166.335.215.31.26.276.303.236.342.19.38.142.41.087.443.036.48-.024.534-.082.604-.153.686-.24.776-.338.866-.45.954-.566 1.04-.692 1.12-.825zm-6.542-2.176l-1.823.605-.006-.024-.004-.023v-.05l.003-.025.006-.026.008-.027.01-.028.012-.024.014-.03.016-.024.017-.027.02-.026.023-.025.023-.026.025-.028.026-.025.03-.026.03-.024.03-.024.034-.024.035-.024.036-.023.037-.02.04-.023.04-.02.04-.022.043-.02.043-.02.045-.017.045-.017.047-.015.047-.015.047-.013.046-.014.046-.01.046-.01.045-.007.045-.008.044-.005.043-.004.04-.003.042-.002h.082l.038.003.038.003.036.005.035.006.035.01.064.017.028.01.028.012.026.012.025.014.023.015.02.02.02.015.017.02.015.02.012.02.012.022.01.024zm-1.5.833l1.178-1.06.322.228.016.056.017.05.017.045.015.045.013.042.014.038.012.038.012.038.01.04.01.04.008.04.007.04.003.045v.048l-.005.05-.01.053-.016.056-.02.055-.024.054-.028.053-.03.05-.03.05-.036.05-.035.05-.037.048-.038.05-.042.052-.042.054-.045.055-.05.06-.05.064-.055.066-1.616-.082.056-.07.053-.063.048-.057.042-.054.04-.047.03-.04.03-.036.023-.03.017-.024.013-.02.008-.013.006-.008.002-.004v.003l-.002.006v.002-.012l-.002-.01-.004-.01-.004-.022-.008-.023-.008-.03-.012-.033-.013-.036-.014-.042-.015-.046-.016-.05-.02-.053-.018-.06.322.228zm-.553.655l1.616.082-.708.8-.762.72-.812.645-.856.57-.893.496-.92.42-.93.344-.93.273-.922.205-.902.14-.878.086-.85.034-.816-.008-.78-.053-.74-.085-.696-.116-.648-.147-.596-.17-.54-.186-.477-.206-.415-.218-.344-.232-.27-.245-.187-.263-.086-.294.066-.348.305-.402.545-.37.64-.26.668-.164.714-.104.795-.056-.65 1.095-.613.042-.443.065-.25.06-.047.016.076-.052.04-.045v.033l.032.104.107.148.187.17.266.177.34.18.405.174.464.164.518.145.566.126.606.103.638.073.666.044.683.008.696-.03.7-.065.698-.11.693-.155.685-.2.673-.248.666-.304.66-.366.656-.437.647-.512.633-.6.612-.69zm-11.06 1.372l-1.752.122.017-.027.017-.03.02-.027.022-.026.024-.028.025-.026.026-.027.03-.025.03-.024.032-.023.034-.026.034-.02.035-.026.038-.022.037-.023.04-.022.04-.02.04-.02.042-.017.042-.016.043-.018.044-.014.045-.015.045-.016.044-.01.045-.012.045-.01.046-.01.047-.006.045-.008.045-.004.046-.003.045-.004h.085l.04.002.04.003.038.005.038.005.034.006.033.008.032.01.03.012.027.01.027.015.025.01.023.016.02.016.02.017.018.017.015.02.013.02.012.02.008.02.008.024.006.023.003.024v.023l-.003.026-.003.025-.007.03-.01.024-.01.03-.014.026zm-1.2.61l.65-1.096.55.486-.654 1.108-.73.975-.806.85-.88.73-.958.616-1.02.49-1.053.36-1.045.228-1.01.103-.962-.004-.91-.098-.858-.178-.8-.25-.744-.318-.678-.37-.61-.42-.53-.464-.448-.5-.353-.53-.25-.558-.135-.58-.01-.595.132-.612.294-.62.478-.626.674-.61.872-.572 1.05-.513 1.216-.444 1.372-.368 1.54-.296 1.715-.22-.48 1.083-1.534.197-1.306.25-1.085.29-.873.32-.684.332-.53.348-.405.37-.302.4-.202.43-.1.46.01.476.113.483.215.48.308.464.396.443.472.412.54.373.598.327.646.274.68.212.7.146.706.078.697.005.67-.067.643-.14.625-.215.63-.302.65-.417.662-.55.657-.697.637-.85.596-1.008.552.487zm-4.904-4.897l1.04-.105-.48 1.085-1.04.104.48-1.083zm1.71.128l-1.818.62-.007-.023-.004-.025-.003-.025v-.025l.003-.026.004-.025.008-.026.01-.024.01-.027.013-.027.015-.026.02-.027.017-.027.022-.027.022-.026.024-.026.026-.025.03-.027.028-.024.03-.025.034-.025.035-.023.034-.025.038-.022.038-.023.04-.02.04-.023.043-.02.043-.02.045-.016.046-.016.046-.018.048-.015.047-.013.046-.012.047-.01.046-.01.044-.01.045-.007.044-.006.04-.005h.044l.043-.005h.08l.04.003.038.002.036.004.036.007.036.006.032.01.03.008.032.01.027.012.027.012.025.016.025.014.02.016.02.018.018.02.015.02.015.02.01.02.01.023zm-1.15.853l.48-1.085.67.233.08.36.002.37-.072.384-.14.39-.203.397-.26.4-.313.4-.36.402-.402.4-.44.397-.474.394-.505.39-.53.388-.556.38-.575.375-.594.368-.606.358-.615.35-.623.338-.627.326-.627.315-.625.3-.62.287-.61.27-.597.25-.585.235-.566.214-.548.194-.527.173-.505.15-.48.126-.46.1.18-1.04.296-.065.35-.092.394-.116.434-.143.468-.165.495-.188.52-.21.54-.226.554-.244.564-.26.572-.275.576-.29.576-.3.57-.308.564-.32.552-.328.536-.332.518-.337.494-.34.47-.34.44-.34.406-.338.37-.335.33-.33.29-.32.245-.314.198-.304.15-.294.102-.282.05-.272v-.26l-.057-.255.668.233zm-13.232 8.288l-.182 1.04-1.794.3-1.586.178-1.386.055-1.192-.065-.998-.18-.8-.292-.598-.394-.4-.485-.21-.56-.038-.62.12-.667.264-.71.393-.745.508-.772.617-.79.715-.81.803-.815.884-.815.955-.812 1.017-.798 1.07-.78 1.12-.753 1.156-.72 1.19-.68 1.21-.634 1.23-.577 1.24-.515 1.242-.446 1.238-.362 1.224-.274 1.197-.17 1.154-.054-.774 1.098-.872.04-.92.134-.97.214-1.01.297-1.05.376-1.07.444-1.088.51-1.09.57-1.078.616-1.06.66-1.034.697-.993.72-.94.742-.887.752-.815.752-.738.75-.65.734-.556.714-.45.68-.34.643-.22.596-.098.542.028.478.154.413.284.344.423.282.576.21.752.134.948.05 1.162-.045 1.388-.156 1.626-.273zm11.898-14.37l-1.84.396.003-.026.006-.028.01-.025.01-.028.012-.028.015-.027.017-.027.02-.026.02-.026.023-.028.024-.025.026-.026.027-.025.03-.026.03-.026.033-.023.033-.024.036-.023.035-.022.04-.023.036-.02.042-.022.04-.02.042-.02.043-.016.043-.018.045-.018.045-.015.046-.015.047-.013.047-.013.047-.01.047-.01.046-.007.047-.007.045-.007.043-.003.044-.002h.12l.04.005.036.003.036.005.035.006.066.015.058.022.028.013.025.013.023.014.022.017.02.017.018.017.017.02.013.02.013.02.01.02.005.026.006.02.005.025V619.64zm-1.308.748l.775-1.098.534.35-.1.32-.226.322-.316.31-.38.29-.43.274-.477.27-.52.264-.56.264-.598.265-.633.264-.67.268-.696.27-.724.274-.745.274-.767.277-.778.278-.79.28-.795.28-.798.283-.794.28-.787.28-.776.278-.76.278-.74.275-.714.273-.683.268-.648.265-.61.257-.56.25-.512.242-.452.23-.39.22-.987-.602.512-.288.557-.284.594-.28.633-.282.665-.283.695-.284.723-.283.745-.282.765-.284.78-.284.79-.285.797-.284.8-.282.8-.28.79-.282.782-.275.767-.274.746-.273.724-.265.694-.26.66-.257.62-.25.577-.24.526-.233.47-.222.406-.205.336-.19.26-.167.182-.137.106-.102.05-.07.02-.054.532.352zm-19.107 7.374l.985.6-.04.026-.042.02-.04.02-.045.023-.043.02-.043.017-.044.016-.044.016-.045.013-.046.013-.044.01-.044.012-.045.01-.043.01-.044.006-.043.007-.043.003-.042.006-.042.002h-.082l-.038-.003-.038-.004-.038-.003-.036-.005-.035-.007-.034-.007-.032-.01-.03-.01-.03-.012-.03-.014-.025-.013-.024-.016-.023-.02-.02-.016-.017-.018-.016-.02-.013-.02-.01-.02-.007-.023-.007-.024-.004-.022V628.25l.005-.024.007-.025.01-.025.01-.025.012-.028.015-.025.018-.027.02-.026.02-.026.022-.027.025-.026.026-.026.03-.025.03-.026.032-.026.034-.025.037-.024.037-.024.04-.024zM297.072 651.224l1.256-1.042.035.01.032.01.03.014.026.013.027.013.024.015.022.017.02.017.017.017.014.018.013.022.01.02.01.02.007.022.004.024.004.022v.025l-.002.023-.003.027-.006.023-.007.025-.01.03-.012.024-.014.027-.016.027-.02.028-.02.028-.022.027-.025.026-.028.03-.03.024-.03.027-.033.028-.035.024-.036.025-.036.025-.037.022-.04.023-.04.02-.04.02-.04.02-.043.02-.043.018-.042.017-.044.016-.043.012-.043.015-.045.012-.043.01-.045.01-.045.01-.044.01-.044.005-.044.005-.042.003-.042.003-.042.002h-.082l-.04-.003-.04-.005-.036-.004-.037-.007-.035-.01zm1.256-1.042l-1.256 1.042-.222-.066-.198-.08-.174-.088-.15-.1-.128-.11-.103-.12-.08-.123-.06-.13-.04-.135-.023-.137-.006-.14.01-.14.024-.144.036-.142.047-.143.057-.14.066-.142.074-.137.08-.137.09-.138.09-.13.098-.128.1-.125.105-.12.107-.117.11-.113.11-.108.115-.104.116-.098.12-.093.13-.094.144-.093 1.025.577-.007.006-.03.02-.045.037-.056.046-.062.056-.067.064-.07.073-.07.077-.072.08-.07.09-.07.09-.065.092-.06.093-.057.095-.05.097-.046.096-.038.096-.03.09-.023.09-.014.088-.007.085.003.077.012.077.02.07.032.07.04.06.05.058.06.052.074.05.085.043.1.04.118.035zm.797-2.826l-1.79.683-.01-.023-.008-.022-.006-.024-.002-.024v-.05l.005-.025.005-.024.008-.026.01-.028.013-.025.013-.025.016-.027.017-.025.02-.028.022-.026.024-.026.025-.027.025-.026.03-.023.03-.026.033-.025.033-.023.036-.024.037-.024.038-.023.04-.022.04-.02.043-.022.043-.02.045-.02.047-.017.046-.02.046-.014.046-.014.046-.015.045-.01.045-.01.046-.01.044-.01.045-.004.043-.004.043-.006.043-.003h.04l.04-.002.04.003.038.004.038.004.036.003.036.008.032.008.034.007.03.01.03.01.028.013.026.014.024.015.023.015.022.017.018.018.016.02.017.02.012.02zm-.383.63l-1.025-.576 1.408-.054.073.177.045.183.016.19-.01.195-.036.198-.057.2-.08.203-.096.204-.116.205-.132.202-.146.204-.162.2-.173.2-.184.2-.194.196-.205.192-.21.188-.22.185-.227.182-.23.175-.236.17-.24.164-.244.16-.246.152-.247.145-.248.136-.253.13-.256.123-.253.113-.26.102-.264.093-.268.082-.093-.976.087-.025.106-.037.127-.052.142-.062.153-.075.164-.084.173-.095.177-.106.182-.11.183-.12.184-.127.184-.132.18-.14.178-.14.174-.146.167-.15.16-.152.153-.152.14-.15.133-.155.12-.152.11-.15.095-.147.082-.142.068-.142.052-.138.04-.13.02-.127.008-.12-.01-.115-.027-.11-.043-.106 1.407-.053zm-5.07 3.845l.093.977-1.22.286-1.14.178-1.052.067-.957-.036-.86-.13-.756-.21-.663-.284-.57-.347-.482-.4-.4-.448-.322-.486-.25-.515-.177-.54-.11-.56-.045-.57.02-.574.08-.573.142-.565.2-.557.263-.533.326-.512.396-.49.476-.458.573-.426.68-.37.773-.29.813-.174.8-.05.778.064.76.17.756.276.765.383-1.54.93-.668-.336-.62-.226-.554-.125-.472-.04-.377.024-.292.062-.253.095-.264.147-.286.213-.294.286-.28.35-.255.4-.216.443-.173.472-.123.496-.072.508-.016.516.04.51.098.502.16.482.22.457.28.426.345.384.404.338.465.285.524.226.585.163.642.095.705.03.778-.05.86-.133.956-.226h.002zm-.16-7.48l-1.844.49v-.026l.002-.027.004-.025.006-.026.01-.028.01-.025.013-.027.015-.026.017-.027.02-.028.02-.026.023-.026.024-.028.026-.025.028-.025.03-.025.03-.025.033-.025.032-.022.036-.024.037-.023.037-.02.04-.023.04-.02.04-.02.043-.02.043-.017.045-.018.045-.016.046-.015.046-.014.048-.013.048-.012.047-.01.045-.01.046-.006.046-.007.043-.005.044-.004.042-.002h.08l.08.003.035.005.037.005.034.006.064.016.03.01.03.012.026.013.026.012.023.014.042.034.018.018.016.018.014.02.012.02.01.024.008.022.005.025.002.025zm-1.69.71l1.537-.93.152.22-.01.303-.073.314-.128.317-.18.32-.224.32-.268.32-.305.313-.34.312-.37.307-.396.304-.42.3-.443.294-.46.288-.48.283-.49.275-.502.268-.514.262-.518.252-.524.24-.525.236-.526.223-.522.213-.52.2-.512.187-.502.174-.492.16-.48.146-.466.13-.45.113-.433.097-.417.077-.4.057.426-1.077.245-.035.287-.055.322-.07.353-.09.38-.105.402-.122.42-.136.437-.154.45-.164.458-.177.466-.19.47-.198.47-.208.466-.218.462-.222.453-.232.443-.235.43-.24.41-.243.392-.247.37-.246.347-.244.318-.244.29-.24.256-.238.224-.23.19-.226.155-.218.118-.212.082-.205.047-.2.006-.193.153.22zm-10.773 5.817l-.426 1.077-1.92.19-1.74.092h-1.57l-1.405-.08-1.244-.163-1.087-.234-.938-.302-.79-.36-.65-.41-.516-.46-.388-.493-.267-.525-.154-.547-.05-.56.05-.57.137-.572.222-.567.298-.556.37-.54.433-.516.496-.49.556-.457.618-.418.676-.37.733-.305.773-.226.784-.128.757-.018.705.093.645.2.584.3.528.41-1.674.83-.428-.33-.434-.224-.423-.13-.398-.055-.364.01-.343.056-.346.103-.364.153-.383.21-.393.265-.387.32-.368.363-.337.404-.294.43-.244.453-.183.47-.115.475-.04.474.04.47.13.458.222.437.324.414.433.385.548.347.672.305.804.258.946.203 1.097.143 1.258.073h1.427l1.605-.087 1.792-.176zm-3.706-7.23l-1.818.277.01-.027.012-.03.012-.025.016-.027.018-.03.02-.026.022-.028.023-.027.024-.024.027-.026.03-.025.03-.026.03-.026.034-.023.034-.024.035-.023.038-.02.04-.024.037-.02.04-.02.04-.02.043-.02.042-.015.044-.02.045-.016.045-.014.045-.012.046-.014.046-.012.046-.01.047-.01.047-.006.047-.006.044-.005.044-.002.045-.004h.083l.04.002.037.004.037.003.037.006.033.01.033.006.032.01.03.01.028.012.026.013.024.015.023.014.02.015.02.017.017.02.015.018.012.02.01.02.01.022.008.022.004.023.003.023v.026l-.002.027-.004.027-.006.026zm-1.746.554l1.674-.83.072.276-.02.062-.015.058-.016.054-.013.046-.01.045-.012.04-.01.035-.01.036-.012.035-.01.033-.014.038-.016.035-.017.04-.024.044-.026.043-.027.04-.027.04-.03.036-.028.034-.03.035-.024.026-.025.03-.03.03-.027.032-.03.034-.036.038-.037.043-.04.047-.044.053-.05.06-.055.066-.06.073-1.613-.085.065-.08.062-.072.054-.066.053-.063.05-.054.042-.05.038-.045.035-.038.032-.035.025-.027.022-.025.018-.02.008-.01.005-.006-.003.004-.005.01-.003.007.002-.008.003-.01.005-.014.006-.022.008-.026.01-.033.01-.038.012-.04.014-.05.016-.055.017-.06.02-.068.07.277zm-.69.718l1.613.085-.023.027-.026.028-.026.027-.03.028-.03.025-.032.024-.033.026-.035.024-.036.024-.037.022-.04.022-.04.02-.04.022-.04.02-.04.018-.043.016-.043.017-.043.017-.043.013-.043.014-.045.014-.045.012-.044.01-.045.008-.045.01-.044.005-.045.005-.044.006-.043.002-.044.002h-.042l-.04-.003-.042-.003-.04-.005-.037-.005-.035-.006-.034-.01-.03-.008-.03-.012-.03-.013-.027-.012-.025-.013-.022-.015-.022-.016-.02-.016-.017-.018-.015-.02-.013-.018-.013-.022-.01-.02-.006-.022-.004-.023-.003-.022v-.049l.004-.025.005-.027.008-.027.01-.024.013-.027.015-.028.017-.027.02-.028.022-.03z" fill="#4d4d4d" fill-rule="nonzero"/><path d="M313.335 663.065l-3.113-.2.09-.056.09-.053.093-.05.096-.05.1-.05.1-.048.102-.05.104-.044.105-.044.11-.042.105-.04.11-.04.11-.037.108-.037.11-.034.11-.032.11-.03.108-.03.11-.028.107-.025.106-.023.106-.02.103-.017.102-.018.1-.014.1-.012.097-.01.093-.007.09-.004h.176l.083.004.077.007.074.01.066.01.062.014.057.016.05.02.046.022.04.023.036.025.03.025.025.03.02.03.014.034.01.035.004.037v.035l-.008.04-.012.04-.017.043-.023.043-.027.045-.033.048-.038.047-.042.048-.05.05-.052.048-.058.05-.064.053-.07.05-.073.054-.078.054-.085.052zm-3.113-.2l3.113.2-1.723 1.125-1.724 1.238-1.713 1.337-1.693 1.42-1.664 1.492-1.63 1.55-1.59 1.594-1.55 1.633-1.503 1.65-1.456 1.665-1.408 1.663-1.353 1.654-1.302 1.63-1.242 1.597-1.185 1.557-1.124 1.496-1.064 1.435-1 1.36-.936 1.273-.87 1.178-.802 1.07-.737.954-.67.836-.616.712-.584.605-.713.583-2.15.996-2.27.143-.356-.36-.113-.48-.007-.663.083-.872 4.567-1.308-.08.827.006.583.075.333v.04l-1.748.15-1.462.636.135-.124.416-.43.54-.628.635-.79.716-.93.793-1.055.864-1.17.935-1.27 1.003-1.363 1.068-1.442 1.134-1.51 1.195-1.567 1.257-1.615 1.315-1.652 1.375-1.676 1.43-1.694 1.487-1.7 1.542-1.69 1.594-1.68 1.65-1.653 1.7-1.62 1.758-1.572 1.812-1.52 1.876-1.465 1.943-1.394 2.02-1.316zm-28.985 31.96l-4.567 1.306.1-.783.096-.772.09-.76.084-.75.077-.74.068-.73.062-.722.05-.715.045-.707.033-.7.023-.695.012-.69v-.685l-.01-.68-.026-.68-.038-.677-.05-.675-.067-.673-.082-.676-.096-.676-.114-.676-.13-.68-.146-.68-.165-.687-.183-.687-.204-.694-.223-.702-.242-.706-.264-.714-.285-.72-.308-.73-.33-.74 4.53-1.584.333.748.312.74.29.73.267.725.245.716.226.71.208.706.186.7.167.695.15.692.132.69.115.686.1.687.08.684.07.688.05.685.038.686.025.688.012.695v.693l-.012.698-.023.704-.034.708-.044.713-.054.724-.06.726-.07.738-.078.745-.084.754-.09.763-.096.776-.1.788zm-2.26-22.88l-4.53 1.582-.013-.034-.008-.038v-.04l.004-.04.01-.04.016-.044.02-.043.028-.046.03-.044.038-.048.04-.048.047-.048.05-.048.056-.048.06-.05.064-.05.068-.05.072-.05.076-.05.08-.05.084-.05.087-.05.09-.048.095-.05.097-.047.1-.046.103-.047.106-.047.107-.044.112-.044.113-.043.116-.042.116-.04.116-.038.115-.036.114-.03.115-.034.11-.028.11-.026.11-.025.106-.02.106-.02.1-.015.102-.014.097-.012.096-.01.092-.007.09-.004.086-.004.082.002.078.002.076.004.072.006.068.01.063.012.06.014.054.017.05.018.046.02.04.026.036.026.03.03.024.03.02.034z" fill="#f6931d" fill-rule="nonzero"/><path d="M112.85 60.158a.845.845 0 0 1-1.316-1.056l12.64-15.755c1.7-2.12 4-2.51 6.025-1.867a6.632 6.632 0 0 1 3.7 2.97c1.07 1.835 1.185 4.165-.516 6.287l-18.492 23.05c-1.452 1.808-3.355 2.19-5.015 1.703a5.155 5.155 0 0 1-3.02-2.43c-.842-1.53-.886-3.497.576-5.317l16.18-20.17c1.123-1.4 2.592-1.698 3.872-1.327.488.142.946.386 1.344.705.397.322.734.72.977 1.165.648 1.185.677 2.71-.456 4.123L118.753 65.45a.844.844 0 0 1-1.316-1.056l10.6-13.213c.64-.795.64-1.627.296-2.256a2.236 2.236 0 0 0-1.315-1.062c-.67-.194-1.46-.016-2.087.766l-16.183 20.17c-.966 1.205-.954 2.477-.418 3.45.213.39.507.735.853 1.013.348.28.747.494 1.17.617 1.046.308 2.267.047 3.223-1.146l18.492-23.05c1.195-1.49 1.12-3.114.38-4.387a4.93 4.93 0 0 0-1.18-1.354 4.94 4.94 0 0 0-1.577-.86c-1.404-.445-3.007-.166-4.2 1.323l-12.64 15.755z" fill="#f48c85" fill-rule="nonzero"/></svg>