<?xml version="1.0" standalone="no"?><!DOCTYPE svg PUBLIC "-//W3C//DTD SVG 1.1//EN" "http://www.w3.org/Graphics/SVG/1.1/DTD/svg11.dtd"><svg width="100%" height="100%" viewBox="0 0 720 662" version="1.1" xmlns="http://www.w3.org/2000/svg" xmlns:xlink="http://www.w3.org/1999/xlink" xml:space="preserve" style="fill-rule:evenodd;clip-rule:evenodd;stroke-linejoin:round;stroke-miterlimit:1.41421;"><path d="M315.987,240.628l179.531,28.594l-40.439,253.908l-179.531,-28.595l40.439,-253.907Z" style="fill:#fff;"/><path d="M367.409,332.349c-3.702,-22.193 -1.232,-21.068 -21.641,-24.617c-20.248,-3.522 -18.066,-2.586 -28.178,16.682l49.819,7.935Z" style="fill:#2e5b78;"/><path d="M318.538,322.593c-0.259,0.645 -0.531,1.26 -0.821,1.842l24.832,3.954l3.287,-20.645l-0.033,-0.006l-0.121,0.533c-0.842,-0.146 -1.744,-0.524 -2.707,-1.018c-16.681,-2.809 -15.844,-1.285 -24.437,15.34" style="fill:#21445c;"/><path d="M337.695,306.325l8.124,1.294l-3.307,20.765l-4.5,-0.718l-2.656,-6.661l2.339,-14.68Z" style="fill:#e6e6e6;"/><path d="M342.533,288.306l12.375,1.971l-2.85,17.9c-0.962,6.042 -13.449,4.766 -12.376,-1.97l2.851,-17.901Z" style="fill:#ffddb8;"/><path d="M352.882,303.003l0.364,-2.287l-12.375,-1.972l-1.342,8.425l13.353,-4.166Z" style="fill:#e8c5a0;"/><path d="M352.109,268.017c26.209,4.175 10.071,37.103 -5.514,34.621c-15.585,-2.482 -20.695,-38.795 5.514,-34.621" style="fill:#f0ceaa;"/><path d="M352.109,268.017c26.209,4.175 10.071,37.103 -5.514,34.621l5.514,-34.621Z" style="fill:#ffddb8;"/><path d="M358.873,272.657c3.954,2.478 4.815,8.193 5.211,12.015c0.578,5.551 -0.153,4.967 2.394,1.212c2.547,-3.754 0.677,-21.991 -12.915,-24.156c-13.593,-2.165 -21.301,10.408 -20.572,18.064c0.729,7.656 1.007,5.91 3.084,0.521c5.34,-13.86 15.098,-5.866 22.798,-7.656" style="fill:#7d5f54;"/><path d="M367.053,282.612c0.921,0.365 0.983,2.386 0.14,4.517c-0.843,2.13 -2.273,3.563 -3.194,3.198c-0.92,-0.363 -0.981,-2.387 -0.138,-4.516c0.843,-2.131 2.272,-3.563 3.192,-3.199" style="fill:#ffddb8;"/><path d="M333.387,277.249c-0.988,0.061 -1.675,1.964 -1.536,4.251c0.14,2.287 1.054,4.092 2.042,4.032c0.987,-0.06 1.675,-1.963 1.535,-4.251c-0.139,-2.286 -1.054,-4.092 -2.041,-4.032" style="fill:#f7d6b2;"/><path d="M353.945,308.913l-8.126,-1.294l-3.307,20.765l4.501,0.716l4.593,-5.506l2.339,-14.681Z" style="fill:#fff;"/><path d="M333.019,326.872c-1.315,-1.332 -2.771,-2.177 -4.331,-2.217c-0.387,-3.291 0.765,-5.619 2.552,-8.224c-1.565,-0.544 -4.012,-0.692 -6.21,0.034c3.499,-6.835 10.889,-11.112 16.12,-12c-0.469,2.939 -5.114,9.644 -3.009,13.855c0.885,1.769 1.757,5.502 2.235,9.723l-7.357,-1.171Z" style="fill:#142c3d;"/><path d="M335.162,327.213c-1.559,-2.461 -3.344,-4.282 -5.164,-4.573c0.617,-3.335 1.143,-4.88 3.349,-7.112c-2.416,-0.815 -4.979,-0.826 -7.176,-0.1c2.281,-3.931 8.788,-9.471 12.897,-10.539c-0.467,2.941 -0.878,9.426 -0.042,13.643c0.399,2.01 1.069,5.587 1.488,9.533l-5.352,-0.852Z" style="fill:#21445c;"/><path d="M351.987,329.892c1.663,-0.857 3.311,-1.208 4.806,-0.761c1.39,-3.008 1.019,-5.579 0.128,-8.61c1.658,-0.031 3.896,0.572 6.298,2.031c-1.474,-4.704 -4.892,-12.402 -9.589,-14.872c-0.468,2.94 3.158,9.935 -1.051,12.296c-2.549,1.431 -5.86,4.739 -8.4,8.673l7.808,1.243Z" style="fill:#21445c;"/><path d="M349.844,329.551c2.246,-1.854 4.509,-3.031 6.329,-2.742c0.45,-3.361 0.431,-4.993 -0.973,-7.8c2.549,-0.025 5.073,0.876 6.936,2.25c-1.577,-4.342 -5.594,-11.234 -9.167,-13.526c-0.469,2.941 -1.741,8.709 -4.134,12.573c-1.47,2.376 -3.138,5.18 -4.604,8.351l5.613,0.894Z" style="fill:#2e5b78;"/><path d="M342.777,317.891l-2.367,10.157l4.152,0.662l0.906,-10.389l6.039,-9.775c-4.08,-0.726 -7.358,-1.239 -11.433,-1.822l2.703,11.167Z" style="fill:#21445c;"/><path d="M344.562,328.71l0.906,-10.389l6.038,-9.776c-2.04,-0.363 -3.88,-0.673 -5.719,-0.964l-3.312,20.796l2.087,0.333Z" style="fill:#2e5b78;"/><path d="M340.186,302.93l-4.517,3.246l-1.943,7.605l11.918,-6.189l-5.458,-4.662Z" style="fill:#e6e6e6;"/><path d="M352.555,304.9l3.286,4.488l-0.516,7.833l-9.407,-9.586l6.637,-2.735Z" style="fill:#fff;"/><path d="M305.278,401.717l148.434,23.641l-1.758,11.047l-148.436,-23.641l1.76,-11.047Z" style="fill:#36485c;"/><path d="M302.63,418.34l148.435,23.64l-0.837,5.249l-148.434,-23.642l0.836,-5.247Z" style="fill:#ccc;"/><path d="M301.234,427.106l148.434,23.641l-0.835,5.248l-148.435,-23.64l0.836,-5.249Z" style="fill:#ccc;"/><path d="M299.838,435.872l148.436,23.641l-0.837,5.249l-148.436,-23.643l0.837,-5.247Z" style="fill:#ccc;"/><path d="M298.442,444.637l148.434,23.643l-0.835,5.247l-148.435,-23.64l0.836,-5.25Z" style="fill:#ccc;"/><path d="M297.045,453.404l148.436,23.641l-0.837,5.249l-148.435,-23.642l0.836,-5.248Z" style="fill:#ccc;"/><path d="M403.065,266.421l74.082,11.799l-3.52,22.094l-74.082,-11.798l3.52,-22.095Z" style="fill:#36485c;"/><path d="M436.524,286.196l0.009,0.059c-0.207,1.46 -0.828,2.547 -1.862,3.259c-1.034,0.713 -2.349,0.941 -3.943,0.688c-1.6,-0.255 -2.816,-0.986 -3.648,-2.192c-0.831,-1.206 -1.116,-2.634 -0.852,-4.283l0.427,-2.687c0.261,-1.643 0.963,-2.914 2.105,-3.812c1.142,-0.899 2.492,-1.224 4.05,-0.976c1.643,0.262 2.859,0.895 3.647,1.901c0.788,1.007 1.052,2.248 0.793,3.725l-0.027,0.053l-2.593,-0.413c0.142,-0.892 0.04,-1.609 -0.305,-2.15c-0.344,-0.541 -0.96,-0.883 -1.848,-1.024c-0.798,-0.127 -1.483,0.102 -2.058,0.687c-0.573,0.585 -0.942,1.388 -1.104,2.41l-0.431,2.703c-0.163,1.034 -0.052,1.92 0.336,2.658c0.387,0.738 1.002,1.174 1.841,1.307c0.834,0.134 1.487,0.004 1.958,-0.388c0.471,-0.392 0.778,-1.038 0.922,-1.937l2.583,0.412Z" style="fill:#fff;fill-rule:nonzero;"/><path d="M442.79,288.233l0.047,0.76l0.055,0.009l0.269,-0.691l4.48,-9.497l2.812,0.448l-6.676,12.818l-2.738,-0.437l-2.354,-14.255l2.811,0.448l1.293,10.397Z" style="fill:#fff;fill-rule:nonzero;"/><path d="M398.362,295.944l74.082,11.799l-0.834,5.248l-74.083,-11.799l0.835,-5.248Z" style="fill:#ccc;"/><path d="M396.966,304.71l74.083,11.799l-0.836,5.248l-74.083,-11.799l0.836,-5.248Z" style="fill:#ccc;"/><path d="M395.57,313.476l74.083,11.799l-0.836,5.248l-74.083,-11.799l0.836,-5.248Z" style="fill:#ccc;"/><path d="M394.174,322.242l74.083,11.799l-0.836,5.248l-74.083,-11.798l0.836,-5.249Z" style="fill:#ccc;"/><path d="M392.778,331.008l74.082,11.799l-0.835,5.249l-74.083,-11.799l0.836,-5.249Z" style="fill:#ccc;"/><path d="M315.563,337.135l148.436,23.641l-1.761,11.048l-148.433,-23.642l1.758,-11.047Z" style="fill:#36485c;"/><path d="M312.916,353.758l148.434,23.641l-0.834,5.249l-148.436,-23.642l0.836,-5.248Z" style="fill:#ccc;"/><path d="M311.519,362.524l148.437,23.642l-0.837,5.248l-148.435,-23.642l0.835,-5.248Z" style="fill:#ccc;"/><path d="M310.124,371.29l148.434,23.641l-0.835,5.249l-148.435,-23.642l0.836,-5.248Z" style="fill:#ccc;"/><path d="M308.727,380.057l148.436,23.641l-0.836,5.247l-148.435,-23.641l0.835,-5.247Z" style="fill:#ccc;"/><path d="M307.331,388.822l148.436,23.641l-0.837,5.249l-148.435,-23.641l0.836,-5.249Z" style="fill:#ccc;"/></svg>