<?xml version="1.0" standalone="no"?><!DOCTYPE svg PUBLIC "-//W3C//DTD SVG 1.1//EN" "http://www.w3.org/Graphics/SVG/1.1/DTD/svg11.dtd"><svg width="100%" height="100%" viewBox="0 0 105 104" version="1.1" xmlns="http://www.w3.org/2000/svg" xmlns:xlink="http://www.w3.org/1999/xlink" xml:space="preserve" style="fill-rule:evenodd;clip-rule:evenodd;stroke-linejoin:round;stroke-miterlimit:1.41421;"><path d="M31.417,56.901l-11.184,-18.512l63.083,-38.113l11.185,18.513l-63.084,38.112Z" style="fill:#fcfcfc;fill-rule:nonzero;"/><path d="M42.845,49.997l-11.184,-18.513l10.97,-6.628l11.186,18.514l-10.972,6.627Z" style="fill:#52161c;fill-rule:nonzero;"/><path d="M56.559,41.712l-11.184,-18.513l10.971,-6.628l11.184,18.513l-10.971,6.628Z" style="fill:#791c26;fill-rule:nonzero;"/><path d="M70.273,33.427l-11.185,-18.514l10.972,-6.628l11.184,18.513l-10.971,6.629Z" style="fill:#a12330;fill-rule:nonzero;"/><path d="M83.987,25.142l-11.185,-18.514l10.971,-6.628l11.185,18.513l-10.971,6.629Z" style="fill:#af4c56;fill-rule:nonzero;"/><path d="M29.743,56.186l-5.834,-20.827l70.972,-19.88l5.834,20.829l-70.972,19.878Z" style="fill:#fcfcfc;fill-rule:nonzero;"/><path d="M42.601,52.585l-5.834,-20.828l12.342,-3.457l5.834,20.828l-12.342,3.457Z" style="fill:#ce4339;fill-rule:nonzero;"/><path d="M58.029,48.264l-5.834,-20.829l12.342,-3.456l5.834,20.828l-12.342,3.457Z" style="fill:#d4675e;fill-rule:nonzero;"/><path d="M73.457,43.943l-5.833,-20.829l12.343,-3.456l5.834,20.827l-12.344,3.458Z" style="fill:#db8a83;fill-rule:nonzero;"/><path d="M88.886,39.62l-5.834,-20.827l12.343,-3.458l5.834,20.829l-12.343,3.456Z" style="fill:#e6b1ad;fill-rule:nonzero;"/><path d="M28.322,55.051l-0.06,-21.631l73.703,-0.2l0.059,21.63l-73.702,0.201Z" style="fill:#fcfcfc;fill-rule:nonzero;"/><path d="M41.674,55.014l-0.06,-21.631l12.819,-0.034l0.057,21.63l-12.816,0.035Z" style="fill:#de912f;fill-rule:nonzero;"/><path d="M57.695,54.97l-0.058,-21.63l12.817,-0.035l0.06,21.631l-12.819,0.034Z" style="fill:#e4a552;fill-rule:nonzero;"/><path d="M73.717,54.927l-0.059,-21.63l12.819,-0.035l0.058,21.629l-12.818,0.036Z" style="fill:#e9bd7a;fill-rule:nonzero;"/><path d="M89.74,54.882l-0.059,-21.63l12.818,-0.034l0.06,21.631l-12.819,0.033Z" style="fill:#efd2a5;fill-rule:nonzero;"/><path d="M27.254,53.574l5.72,-20.858l71.079,19.491l-5.72,20.861l-71.079,-19.494Z" style="fill:#fcfcfc;fill-rule:nonzero;"/><path d="M40.131,57.107l5.72,-20.862l12.362,3.393l-5.721,20.859l-12.361,-3.39Z" style="fill:#9dc44d;fill-rule:nonzero;"/><path d="M55.582,61.344l5.721,-20.861l12.362,3.391l-5.721,20.86l-12.362,-3.39Z" style="fill:#afcf6b;fill-rule:nonzero;"/><path d="M71.034,65.581l5.72,-20.861l12.363,3.391l-5.721,20.86l-12.362,-3.39Z" style="fill:#c2db8e;fill-rule:nonzero;"/><path d="M86.487,69.818l5.72,-20.86l12.362,3.391l-5.721,20.86l-12.361,-3.391Z" style="fill:#d6e6b1;fill-rule:nonzero;"/><path d="M26.62,51.868l11.084,-18.573l63.291,37.769l-11.084,18.574l-63.291,-37.77Z" style="fill:#fcfcfc;fill-rule:nonzero;"/><path d="M38.086,58.711l11.084,-18.575l11.007,6.569l-11.084,18.574l-11.007,-6.568Z" style="fill:#5ea49a;fill-rule:nonzero;"/><path d="M51.845,66.922l11.084,-18.574l11.007,6.567l-11.084,18.575l-11.007,-6.568Z" style="fill:#6fb6af;fill-rule:nonzero;"/><path d="M65.603,75.131l11.084,-18.574l11.008,6.569l-11.085,18.574l-11.007,-6.569Z" style="fill:#8ac8c1;fill-rule:nonzero;"/><path d="M79.363,83.343l11.083,-18.576l11.007,6.57l-11.083,18.575l-11.007,-6.569Z" style="fill:#add9d6;fill-rule:nonzero;"/><path d="M26.465,50.054l15.642,-14.938l50.904,53.301l-15.642,14.939l-50.904,-53.302Z" style="fill:#fcfcfc;fill-rule:nonzero;"/><path d="M35.686,59.711l15.643,-14.94l8.853,9.271l-15.642,14.938l-8.854,-9.269Z" style="fill:#4674b7;fill-rule:nonzero;"/><path d="M46.752,71.298l15.643,-14.939l8.852,9.27l-15.642,14.939l-8.853,-9.27Z" style="fill:#648ec4;fill-rule:nonzero;"/><path d="M57.818,82.886l15.643,-14.94l8.852,9.271l-15.641,14.937l-8.854,-9.268Z" style="fill:#87a9d2;fill-rule:nonzero;"/><path d="M68.885,94.472l15.642,-14.94l8.853,9.271l-15.642,14.939l-8.853,-9.27Z" style="fill:#acc6e1;fill-rule:nonzero;"/><path d="M33.202,49.377c-8.853,2.432 -18.394,1.755 -26.397,-2.935c-2.784,-1.631 -8.696,-6.917 -3,-9.038c2.484,-0.927 5.649,-0.52 8.208,-0.201c2.511,0.315 5.236,0.72 7.675,1.409c0.919,0.259 1.271,-1.178 0.355,-1.437c-2.782,-0.785 -5.894,-1.25 -8.773,-1.543c-2.735,-0.278 -6.102,-0.61 -8.671,0.658c-3.363,1.66 -3.213,5.203 -0.973,7.846c3.486,4.111 9.227,6.304 14.357,7.413c5.804,1.254 11.925,0.815 17.618,-0.748c0.923,-0.252 0.519,-1.676 -0.399,-1.424" style="fill:#f6e6bd;fill-rule:nonzero;"/></svg>