<svg viewBox="0 0 105 104" xmlns="http://www.w3.org/2000/svg" fill-rule="evenodd" clip-rule="evenodd" stroke-linejoin="round" stroke-miterlimit="1.414"><path d="M31.417 56.9L20.233 38.39 83.316.275 94.5 18.79 31.418 56.9z" fill="#fcfcfc" fill-rule="nonzero"/><path d="M42.845 49.997L31.66 31.484l10.97-6.628L53.818 43.37l-10.972 6.627z" fill="#52161c" fill-rule="nonzero"/><path d="M56.56 41.712L45.374 23.2l10.97-6.63L67.53 35.085l-10.97 6.628z" fill="#791c26" fill-rule="nonzero"/><path d="M70.273 33.427L59.088 14.913 70.06 8.285l11.184 18.513-10.97 6.63z" fill="#a12330" fill-rule="nonzero"/><path d="M83.987 25.142L72.802 6.628 83.772 0 94.96 18.513l-10.97 6.63z" fill="#af4c56" fill-rule="nonzero"/><path d="M29.743 56.186L23.91 35.36l70.97-19.88 5.835 20.828-70.972 19.878z" fill="#fcfcfc" fill-rule="nonzero"/><path d="M42.6 52.585l-5.833-20.828L49.11 28.3l5.833 20.828L42.6 52.585z" fill="#ce4339" fill-rule="nonzero"/><path d="M58.03 48.264l-5.835-20.83 12.342-3.455 5.834 20.826-12.34 3.457z" fill="#d4675e" fill-rule="nonzero"/><path d="M73.457 43.943l-5.833-20.83 12.343-3.455L85.8 40.485l-12.343 3.458z" fill="#db8a83" fill-rule="nonzero"/><path d="M88.886 39.62l-5.834-20.827 12.343-3.458 5.834 20.83-12.345 3.455z" fill="#e6b1ad" fill-rule="nonzero"/><path d="M28.322 55.05l-.06-21.63 73.703-.2.06 21.63-73.703.2z" fill="#fcfcfc" fill-rule="nonzero"/><path d="M41.674 55.014l-.06-21.63 12.82-.035.056 21.63-12.816.033z" fill="#de912f" fill-rule="nonzero"/><path d="M57.695 54.97l-.058-21.63 12.817-.035.06 21.63-12.82.035z" fill="#e4a552" fill-rule="nonzero"/><path d="M73.717 54.927l-.06-21.63 12.82-.035.058 21.63-12.818.035z" fill="#e9bd7a" fill-rule="nonzero"/><path d="M89.74 54.882l-.06-21.63 12.82-.034.06 21.63-12.82.034z" fill="#efd2a5" fill-rule="nonzero"/><path d="M27.254 53.574l5.72-20.858 71.08 19.49-5.72 20.862-71.08-19.494z" fill="#fcfcfc" fill-rule="nonzero"/><path d="M40.13 57.107l5.72-20.862 12.363 3.393-5.72 20.86-12.362-3.39z" fill="#9dc44d" fill-rule="nonzero"/><path d="M55.582 61.344l5.72-20.86 12.363 3.39-5.72 20.86-12.363-3.39z" fill="#afcf6b" fill-rule="nonzero"/><path d="M71.034 65.58l5.72-20.86 12.363 3.39-5.72 20.86-12.363-3.39z" fill="#c2db8e" fill-rule="nonzero"/><path d="M86.487 69.818l5.72-20.86 12.362 3.39-5.723 20.86-12.36-3.39z" fill="#d6e6b1" fill-rule="nonzero"/><path d="M26.62 51.868l11.084-18.573 63.29 37.77L89.91 89.638l-63.29-37.77z" fill="#fcfcfc" fill-rule="nonzero"/><path d="M38.086 58.71L49.17 40.137l11.007 6.57L49.093 65.28l-11.007-6.57z" fill="#5ea49a" fill-rule="nonzero"/><path d="M51.845 66.922L62.93 48.348l11.006 6.567L62.852 73.49l-11.007-6.568z" fill="#6fb6af" fill-rule="nonzero"/><path d="M65.603 75.13l11.084-18.573 11.008 6.57L76.61 81.7l-11.007-6.57z" fill="#8ac8c1" fill-rule="nonzero"/><path d="M79.363 83.343l11.083-18.576 11.007 6.57L90.37 89.912l-11.007-6.57z" fill="#add9d6" fill-rule="nonzero"/><path d="M26.465 50.054l15.642-14.938 50.904 53.3-15.64 14.94-50.904-53.302z" fill="#fcfcfc" fill-rule="nonzero"/><path d="M35.686 59.71L51.33 44.77l8.852 9.272L44.54 68.98l-8.854-9.27z" fill="#4674b7" fill-rule="nonzero"/><path d="M46.752 71.298l15.643-14.94 8.852 9.27-15.642 14.94-8.853-9.27z" fill="#648ec4" fill-rule="nonzero"/><path d="M57.818 82.886l15.643-14.94 8.854 9.27-15.64 14.938-8.855-9.268z" fill="#87a9d2" fill-rule="nonzero"/><path d="M68.885 94.472l15.642-14.94 8.853 9.27-15.642 14.94-8.853-9.27z" fill="#acc6e1" fill-rule="nonzero"/><path d="M33.202 49.377c-8.853 2.432-18.394 1.755-26.397-2.935-2.784-1.63-8.696-6.917-3-9.038 2.484-.927 5.65-.52 8.208-.2 2.51.314 5.236.72 7.675 1.408.92.26 1.27-1.178.355-1.437-2.782-.785-5.894-1.25-8.773-1.543-2.735-.278-6.102-.61-8.67.658-3.364 1.66-3.214 5.203-.974 7.846 3.486 4.11 9.227 6.304 14.357 7.413 5.804 1.252 11.925.813 17.618-.75.925-.25.52-1.676-.397-1.424" fill="#f6e6bd" fill-rule="nonzero"/></svg>