<svg viewBox="0 0 472 416" xmlns="http://www.w3.org/2000/svg" fill-rule="evenodd" clip-rule="evenodd" stroke-linecap="round"><path d="M359.317 243.356s28.204-17.52 40.686.96c0 0 13.492-31.74 44.302-12.004 0 0-.51-28.027 20.847-28.427 0 0-19.36-24.748 2.015-40.143 0 0-40.114 2.552-38.308-27.296 0 0-26.81 37.44-44.06 3.563 0 0-9.054 41.1-41.68 22.616 0 0 15.703 22.472-21.023 49.914 0 0 42.008-5.026 37.22 30.816" fill-rule="nonzero"/><path d="M394.662 241.51c-4.832-7.156-12.752-9.495-23.54-6.953-8.39 1.977-15.423 6.3-15.493 6.344l-2.196 1.363.342-2.558c1.232-9.218-.636-16.422-5.553-21.41-10.147-10.295-30.112-8.056-30.313-8.03l-4.52.535 3.647-2.726c14.65-10.948 22.876-22.772 23.785-34.195.68-8.56-2.996-13.993-3.034-14.047l-3.023-4.376 4.626 2.62c7.207 4.08 13.76 5.464 19.49 4.115 7.923-1.868 13.03-8.753 15.92-14.2 3.195-6.022 4.47-11.68 4.48-11.738l.736-3.32 1.543 3.03c5.39 10.592 12.244 14.992 20.367 13.078 11.398-2.686 21.51-16.655 21.61-16.796l2.467-3.442-.257 4.225c-.42 6.96 1.523 12.64 5.778 16.885 10.332 10.308 31.028 9.132 31.236 9.12l4.223-.266-3.432 2.47c-5.385 3.88-8.525 8.72-9.332 14.393-1.707 11.992 7.472 23.89 7.565 24.01l1.506 1.924-2.445.046c-1.488.027-2.916.2-4.244.513-15.616 3.68-15.41 26.444-15.406 26.674l.04 2.276-1.917-1.226c-8.5-5.446-16.407-7.36-23.5-5.687-12.89 3.037-18.96 17-19.02 17.14l-.878 2.064-1.257-1.858z" fill="#fff" fill-rule="nonzero"/><path d="M379.554 129.342l-1.465 6.652c-.075.325-4.996 21.596-19.493 25.013-5.418 1.276-11.678-.067-18.605-3.992l-9.37-5.308 6.168 8.828c1.21 1.772 3.365 6.872 2.803 13.41-.946 11.012-8.998 22.476-23.286 33.153l-7.307 5.46 9.057-1.085c.193-.023 19.588-2.184 29.304 7.682 4.636 4.706 6.388 11.565 5.21 20.388l-.685 5.12 4.39-2.725c.066-.043 6.947-4.267 15.128-6.195 10.244-2.413 17.73-.244 22.25 6.45l2.51 3.715 1.755-4.128c.056-.13 5.94-13.547 18.178-16.43 6.76-1.594 14.352.266 22.563 5.526l3.836 2.458-.083-4.556c0-.054-.07-5.77 1.808-11.808 2.377-7.64 6.635-12.236 12.66-13.656a18.972 18.972 0 0 1 3.988-.48l4.887-.093-3.01-3.847c-.09-.114-8.96-11.663-7.317-23.108.764-5.32 3.737-9.88 8.835-13.552l6.875-4.95-8.455.537c-.2.01-20.37 1.144-30.3-8.772-3.994-3.987-5.817-9.35-5.42-15.944l.514-8.45-4.93 6.882c-.097.137-9.972 13.745-20.9 16.32-7.61 1.793-13.826-2.277-19-12.444l-3.092-6.07zm.917 7.177c6.534 12.827 14.437 15.43 21.737 13.71 11.974-2.823 22.323-17.274 22.323-17.274-1.808 29.848 38.307 27.295 38.307 27.295-21.374 15.396-2.015 40.143-2.015 40.143-1.625.03-3.12.22-4.502.546-16.778 3.953-16.346 27.88-16.346 27.88-9.89-6.334-17.99-7.365-24.44-5.845-13.638 3.213-19.862 17.85-19.862 17.85-6.194-9.17-16.26-9.476-24.83-7.457-8.697 2.05-15.856 6.495-15.856 6.495 4.79-35.842-37.22-30.813-37.22-30.813 36.727-27.443 21.024-49.914 21.024-49.914 8.203 4.646 14.914 5.527 20.368 4.242 16.238-3.827 21.313-26.86 21.313-26.86" fill-rule="nonzero"/><path d="M395.413 238.06c-5.546-6.547-14.1-8.66-24.906-6.114-5.805 1.368-10.89 3.742-13.778 5.26.614-8.743-1.6-15.732-6.603-20.802-4.613-4.676-11.718-7.68-20.548-8.685a59.967 59.967 0 0 0-7.26-.374c9.81-8.04 20.177-19.67 21.19-33.436.357-4.874-.54-8.804-1.523-11.503 6.313 2.844 12.186 3.65 17.505 2.397 7.063-1.665 13.185-7.06 17.704-15.606 1.776-3.357 2.975-6.557 3.718-8.862 5.77 9.536 13.034 13.343 21.627 11.318 8.827-2.08 16.64-9.972 20.547-14.54.437 5.868 2.63 10.802 6.547 14.708 4.728 4.713 11.783 7.81 20.97 9.203 3.137.475 5.968.66 8.124.722-4.028 3.822-6.435 8.352-7.17 13.51-1.43 10.046 3.853 19.68 6.584 23.867-.74.097-1.46.227-2.16.392-7.394 1.742-12.765 7.42-15.53 16.418-1.247 4.066-1.697 7.912-1.858 10.334-8.33-4.828-16.19-6.415-23.397-4.717-11.072 2.61-17.408 12.143-19.787 16.51" fill="#fff" fill-rule="nonzero"/><path d="M380.47 136.52s-5.074 23.034-21.312 26.86c-5.454 1.285-12.165.404-20.368-4.242 0 0 15.703 22.47-21.024 49.914 0 0 42.01-5.03 37.22 30.813 0 0 7.158-4.446 15.857-6.496 8.57-2.02 18.635-1.716 24.83 7.455 0 0 6.223-14.637 19.862-17.85 6.448-1.52 14.55-.49 24.44 5.846 0 0-.434-23.927 16.345-27.88a21.374 21.374 0 0 1 4.5-.547s-19.357-24.747 2.017-40.142c0 0-40.115 2.553-38.308-27.295 0 0-10.35 14.452-22.325 17.273-7.3 1.72-15.203-.882-21.735-13.71m.86 7.082c4.674 6.514 11.648 11.81 21.547 9.477 7.785-1.836 14.765-7.94 19.174-12.627.93 4.828 3.12 8.98 6.553 12.405 7.51 7.485 19.24 9.632 26.888 10.196-2.94 3.52-4.764 7.44-5.4 11.903-1.31 9.205 2.77 18.204 5.638 22.918l-.123.03c-7.93 1.87-13.644 7.984-16.57 17.507-.947 3.082-1.438 6.095-1.704 8.447-7.933-4.157-15.47-5.405-22.47-3.754-10.286 2.423-16.66 10.51-19.717 15.5-5.898-5.815-14.432-7.572-24.972-5.088-4.647 1.095-8.847 2.824-11.877 4.27.08-8.015-2.306-14.528-7.122-19.41-6.987-7.084-17.51-9.018-24.952-9.414 5.425-4.804 9.72-9.742 12.818-14.745 3.517-5.683 5.514-11.47 5.935-17.197.26-3.53-.114-6.6-.716-9.11 5.54 2.01 10.757 2.456 15.576 1.32 12.198-2.874 18.602-14.96 21.5-22.626" fill="#29abe2" fill-rule="nonzero"/><path d="M398.528 211.378l-3.318-.3 2.255-2.45-.74-3.25 3.027 1.39 2.86-1.71-.383 3.31 2.506 2.192-3.265.657-1.31 3.063-1.633-2.902z" fill="#ed1c24" fill-rule="nonzero" stroke-width="1.5" stroke="#000"/><path d="M386.81 222.564l-4.57 1.04 1.956-4.26-2.4-4.025 4.655.54 3.09-3.526.92 4.595 4.31 1.845-4.087 2.296-.423 4.668-3.45-3.176z" fill="#fcee21" fill-rule="nonzero" stroke-width="1.5" stroke-linecap="butt" stroke-miterlimit="10" stroke="#000"/><path d="M381.29 160.375l-2.95-3.136 4.282-.436 2.07-3.777 1.737 3.938 4.23.8-3.21 2.872.546 4.27-3.72-2.165-3.895 1.84.91-4.208z" fill="#ed1c24" fill-rule="nonzero" stroke-width="1.5" stroke="#000"/><path d="M423.222 208.575l-4.11-2.253 4.29-1.89.874-4.605 3.123 3.494 4.65-.59-2.36 4.05 1.997 4.24-4.58-.99-3.414 3.21-.472-4.664z" fill="#29abe2" fill-rule="nonzero" stroke-width="1.5" stroke-linecap="butt" stroke-miterlimit="10" stroke="#000"/><path d="M361.517 176.627l.274 2.83-2.41-1.504-2.605 1.135.684-2.76-1.885-2.126 2.834-.2 1.44-2.45 1.07 2.633 2.773.613-2.175 1.83z" fill="#fcee21" fill-rule="nonzero" stroke-width="1.5" stroke-linecap="butt" stroke-miterlimit="10" stroke="#000"/><path d="M454.212 166.073l2.835 2.124c1.74 1.285.113 3.468-1.515 2.287l-4.17-2.984-.09 3.67c-.065 2.372-2.81 3.24-2.834.7-.115-1.373.23-12.244.283-14.277.02-3.205 2.987-3.11 2.91-.41l-.218 8.33 1.864-2.897c1.57-2.42 3.697-.806 2.368 1.265l-1.43 2.194zm-109.607 28.682c.59-1.83.107-3.157-.426-4.9-.684-1.57-1.47-2.5-2.894-3.4-.766-.316-1.385-.616-2.232-.68-1.96-.146-4.31.598-5.6 2.137-1.093 1.307-1.636 2.62-1.558 4.37.107 2.418 1.374 5.134 3.634 6.213-.464.13-.965.27-1.513.425-2.12 3.298-1.973 7.455 1.223 10.02-.08.286-.11.673-.438.793-4.888 2.238-3.745 8.922 2.17 8.874 1.62.14 13.973-4.296 19.442-7.227 4.814-3.045.98-10.364-4.04-8.2-.29.15-.572-.08-.822-.204.806-3.95-1.767-7.52-5.597-8.515-.56.29-1.073.55-1.55.786-.004.012.146-.323.2-.49zm78.676-14.35l1.368-.515c1.623-.61 2.423.675 1.74 1.76-.595.96-4.1 2.197-4.996 1.868-.956-.344-1.04-1.34-1.015-2.213.02-.638.192-3.048.02-3.504-.436-1.16-1.617-.26-2 .508-.598 1.183-.454 4.013-.49 5.406-.032 1.187-.455 1.933-1.26 2.236-.59.222-1.302-.006-1.533-.62-.436-1.16.594-6.616-1.102-5.977-1.71.617-1.334 2.885-1.396 6.343-.035 1.192-.45 1.94-1.246 2.24-1.39.523-1.682-.8-1.657-1.82l.17-6.495c.16-2.274 1.708-2.53 2.6-1.255 1.014-1.842 2.93-3.167 4.875-1.557.73-1.71 2.57-3.198 4.48-2.493 1.153.42 1.565 1.44 1.536 2.59l-.09 3.5zm6.157-9.682c4.652-1.75 6.92 3.956 4.854 7.456-1.515 2.52-6.62 3.94-8.132-.08-1.13-3.004.364-6.135 3.28-7.38zm15.376 1.577c.93-.35 2.736-1.353 3.228-.045.736 1.953-2.503 2.637-3.787 3.12-3.05 1.148-2.098-3.013-2.273-5.052-.515-1.998-2.312-1.313-2.383 1.448l-.104 3.846c-.047 2.374-2.315 2.95-2.818 1.612-.35-.93.043-6.68.072-7.8.06-1.976 1.594-2.4 2.67-1.385.584-.938 1.247-1.546 1.99-1.825 1.308-.493 2.785-.137 3.31 1.26.368.976.124 3.686.095 4.823z" fill-rule="nonzero"/><path d="M335.455 209.848c.32-.037.642-.057.964-.064a29.03 29.03 0 0 1-.78-.482c-.06.183-.12.364-.186.546zm65.574-27.685c.64-.738 1.22-1.208 1.737-1.403 1.315-.495 2.81-.183 3.343 1.234.382 1.012.15 3.66.123 4.826l1.323-.498c1.62-.61 2.417.68 1.735 1.764-.535.866-2.62 1.434-3.596 1.802-.848.32-1.93.134-2.28-.796-.282-.748-.082-3.25-.058-4.155.01-.836-.15-1.545-1.207-1.147-.783.295-1.19 1.21-1.22 2.746l-.1 3.646c-.063 2.41-2.537 3.245-2.867.41l.356-14.226c.175-3.132 2.784-3.137 2.867-.407l-.157 6.202zm-34.49 12.417l1.585-.597c.52-.196.937-.242 1.252-.14l.022-.81c.022-.892.32-1.448.892-1.663.57-.215 1.02-.08 1.35.41.123.175.346.567.563.586.112.012.344-.05.706-.185l2.694-1.01c1-.378 1.637-.214 1.9.49.368.972-.085 1.7-1.357 2.18l-.083.16c-.782 1.624-1.05 2.756-.81 3.392.477 1.27 1.945.358 2.867.01 1.636-.614 2.43.673 1.747 1.76-.534.862-2.57 1.416-3.542 1.782-1.653.62-3.093-.296-3.686-1.872-.515-1.367-.02-2.803.484-4.096l-1.198.45c-.024.933.11 2.532-.922 2.92-1.615.61-1.72-.952-1.692-2.037-.787.406-2.056.866-2.842 1.162l-.37 14.676c-.185 2.965-2.945 2.83-2.92.413l.37-13.99-.786.296c-.973.366-1.586.216-1.837-.452-.18-.475-.15-.907.092-1.303.24-.39.67-.704 1.282-.935l1.312-.493.11-4.15c.04-1.383.305-2.45.803-3.213.864-1.32 2.387-1.76 3.784-2.285.98-.37 1.6-.217 1.854.458.428 1.138-.386 1.89-1.38 2.265-.65.244-1.315.49-1.72 1.096-.277.4-.425.958-.442 1.677l-.084 3.054zm15.984.182c.216.573.756.697 1.623.37l3.416-1.285c1.765-.642 2.95 1.776.45 2.695-1.766.665-4.577 2.12-6.36 1.372-2.364-1-2.745-4.555-1.88-6.662.876-2.122 3.386-3.924 5.687-3.076 1.795.66 2.512 3 1.3 4.51-.756.958-3.045 1.628-4.235 2.076zm9.57-6.215c-.032.888-.034 1.913-1.03 2.288-.582.22-1.39-.002-1.624-.622-.264-.705.202-3.96.29-4.874.1-.886.426-1.434.987-1.646 1.652-.34 1.427.824 1.688 1.517.346.92 1.312 1.423 2.095 1.947 1.758 1.17 2.91 3.073 1.844 5.138-.928 1.78-2.99 2.237-4.73 2.89-1.62.61-2.43-.632-1.737-1.757.495-.79 1.757-1.115 2.61-1.436 1.064-.4 1.452-.99 1.16-1.764-.222-.592-1.07-1.246-1.552-1.683zm-54.52 17.278c.467.785 1.036 1.524 1.766 2.082.796.632 1.75 1.03 2.727 1.288 2.744-3.254 4.744-9.93 3.056-14.02-.347.23-.698.45-1.055.662a5.5 5.5 0 0 1-.817 1.047c-.697 3.298-2.96 6.94-5.673 8.94zm8.365-6.845c-.137 3.684-1.363 7.38-3.73 10.238.76.168 1.55.19 2.32.09 1.565-1.232 2.992-6.342 2.654-8.113-.053-.455-.825-1.96-1.245-2.215zm-1.165 10.294c.32-.084.696-.1.923-.376 1.973-1.884 2.556-4.937 1.674-7.483-.013 2.943-1.374 6.606-2.598 7.86zm4.743-12.057c-1.082-1.19-2.514-1.923-4.07-2.285-.054.044-.16.13-.212.17.163.377.8 2.155.683 3.483a7.615 7.615 0 0 1 2.105 5.048c1.47-1.45 2-4.478 1.493-6.416zm.09.1c.503 2.036-.044 4.964-1.56 6.437-.053.798-.13 1.6-.36 2.37 1.225.035 3.415-1.82 3.435-3.315.355-1.907-.2-4.05-1.515-5.493zm1.07 6.983c-.732.958-1.92 1.97-3.055 1.926-.006.946 2.6.19 3.056-1.926zm.802-.832a21.69 21.69 0 0 1-.226.71c.224-.157.45-.31.682-.458-.04-.02-.456-.25-.456-.252zm2.337 8.693c.76-.315 1.513-.66 2.188-1.136.995-.726 1.87-1.746 2.113-2.983.308-1.825-.842-3.71-2.483-4.485-1.03-.485-2.248-.322-3.232.194 4.082.457 4.32 5.91 1.414 8.412zm-2.506-7.706c.63 4.054-4.7 9.665-7.68 11.74 3.36-1.27 6.978-2.54 9.71-3.792 3.553-2.356 2.915-8.53-1.167-8.552-.194.125-.866.613-.862.605zm-.12.063c-1.48 3.078-3.824 5.605-8.67 6.343-2.127 2.08-6.555 5.163-9.676 5.228.32.544.748 1.035 1.307 1.34 2.056 1.163 4.176.634 9.277-1.196 2.854-1.953 8.434-7.836 7.764-11.716zm-8.81 6.356c-1.407.113-2.846.077-4.204-.346-.53-.15-1.025-.43-1.583-.47-1.41-.146-2.875.588-3.597 1.81-.715 1.24-.82 2.84-.17 4.127 3.133-.07 7.383-3.064 9.553-5.12z" fill="#00a0e3"/><path d="M347.464 206.536c-.444 1.21-1.255 2.262-2.282 3.04a10.27 10.27 0 0 0 4.37-3.363c-.613.34-1.433.854-2.088.323zm-12.955-8.996c3.675 3.207 10.404.144 10.146-4.967-.264-1.702-.544-3.102-2.05-4.077-1.424-.923-2.427-.913-3.897-.024-.634.383-.93 1.028-1.72 1.23-.717.185-1.44-.015-2.117.23-.868.31-1.737 1.24-2.01 2.122-.71 2.3.037 3.827 1.645 5.486zm10.332 11.95c-3.25.393-6.288-.766-7.73-3.915-.496-1.163-.723-2.478-.45-3.725.01-.196.17-.305.325-.395-.32 1.673-.268 2.648.458 4.232 2.587-1.855 4.797-5.44 5.528-8.54-1.75 1.567-4.603 2.42-6.853 1.6-.497.087-1 .16-1.502.215-1.974 2.196-2.26 6.628.35 9.175 2.334 2.03 7.12 3.298 9.875 1.354z" fill="#fff"/></svg>