<svg viewBox="0 0 472 416" xmlns="http://www.w3.org/2000/svg" fill-rule="evenodd" clip-rule="evenodd" stroke-linejoin="round" stroke-miterlimit="1.414"><path d="M277.96 294.15c-.042-.882-.084-1.763-.11-2.643-.015-.504-.093-1.108-.01-1.63 1.234.986 2.46 1.976 3.7 2.957 1.036.823 2.01 1.716 2.988 2.602a.15.15 0 0 0-.028.03c-.95 1.205-2.202 2.207-3.378 3.185-.862.714-1.84 1.37-2.6 2.198-.04-.006-.078-.008-.116-.016-.247-2.227-.337-4.445-.445-6.684m3.673-4.404c1.578.066 3.16.11 4.74.165 1.596.052 3.192.044 4.786.097 1.294.044 2.526.033 3.802-.12a490.5 490.5 0 0 0-4.345 3.556c-.833.688-1.663 1.378-2.482 2.082-.466.4-.993.79-1.387 1.264a.15.15 0 0 0-.027.038c-1.67-1.386-3.2-2.926-4.9-4.274-1.14-.904-2.275-1.817-3.41-2.726 1.07.02 2.15-.13 3.223-.084m13.416 3.236c-.062 1.058-.044 2.12-.07 3.178-.04 1.587.017 3.167.034 4.754-1.788-2.03-3.622-4.148-5.728-5.846.498-.417.994-.832 1.492-1.245a494.796 494.796 0 0 1 4.316-3.53c.087.893.008 1.794-.045 2.69m-12.56 8.113c-1.144-.038-2.324-.072-3.473-.19.693-.692 1.532-1.272 2.282-1.887 1.215-.998 2.505-2.033 3.48-3.27a.383.383 0 0 0 .032-.055c.57.513 1.145 1.022 1.737 1.51.117.098.27.034.324-.068a.165.165 0 0 0 .154-.064c.37-.443.86-.81 1.298-1.186.215-.187.436-.372.654-.557 2.173 1.748 4.057 3.945 5.898 6.03a344.46 344.46 0 0 1-8.065-.127c-1.44-.034-2.882-.087-4.322-.135m-.246.388c1.437.052 2.874.105 4.31.14 2.888.07 5.774.134 8.664.134.057 0 .1-.02.132-.052l.01-.01a.184.184 0 0 0 .055-.137c-.005-1.8-.08-3.597-.04-5.397.028-1.137.017-2.275.085-3.41.06-1.02.127-2.032-.047-3.047.01-.115-.093-.256-.248-.235-1.44.2-2.81.186-4.256.137-1.513-.05-3.027-.044-4.538-.09-1.497-.044-2.994-.104-4.49-.155-1.39-.045-2.805.174-4.184.035a.157.157 0 0 0-.18.12c-.004.01-.01.016-.01.026-.148.526-.073 1.156-.062 1.694.02.926.068 1.853.11 2.778.113 2.348.204 4.676.474 7.017.017.15.164.21.275.182a.2.2 0 0 0 .055.015c1.273.17 2.6.21 3.884.256M229.01 213.58c-.33.225-.626.487-.95.726.235-.176.434-.488.598-.73.12 0 .238 0 .353.004m.982 1.16c.024-.015.048-.03.07-.046l-.07.046m1.583-1.1c-.508.28-.943.667-1.42.993.35-.242.748-.58.95-.927.032-.054-.034-.094-.076-.062-.576.45-1.143.902-1.793 1.236.024-.013.382-.457.49-.554.232-.21.482-.395.71-.61.034-.033 0-.104-.048-.084-.432.18-.794.45-1.158.737-.146.117-.296.228-.45.335-.42.294.102-.175.152-.23.233-.257.482-.498.71-.76.044-.05-.022-.11-.07-.07-.443.344-1.03.83-1.357 1.075.41-.306.72-.692.965-1.135.797.024 1.595.04 2.393.055M231.248 215.082c-.092 0-.183-.004-.274-.005.62-.424 1.273-.794 1.898-1.213-.267.18-.493.455-.764.643-.212.148-.42.296-.617.46-.046.04.014.098.06.078.68-.288 1.234-.76 1.855-1.15.21-.143.218-.117.027.076-.156.19-.375.348-.57.49-.26.193-.528.366-.776.573-.025.02-.018.05.002.07l-.84-.02m1.096-1.36a.053.053 0 0 0 .012-.073l.64.003c-.59.414-1.214.772-1.82 1.16-.024.005-.045.013-.066.02.09-.1.184-.194.278-.29.294-.3.623-.566.956-.82m.743-.07l.555.006c-.546.276-1.02.666-1.54.99.388-.25.75-.568.988-.944a.05.05 0 0 0-.003-.052m-.798 1.315c.547-.222 1.137-.783 1.46-1.264.01-.017.01-.033.003-.047.196.002.39.005.588.01-.74.347-1.29.99-2.05 1.3m3.033-.996c-.32.185-.63.38-.94.582-.126.08-.252.163-.38.24l-.055.042c.386-.346.807-.59 1.06-1.067.02-.04-.026-.097-.07-.066-.606.428-1.196.876-1.852 1.227.14-.074.42-.397.598-.545.266-.222.535-.432.786-.67.013-.014.017-.03.013-.042.282.007.562.018.842.034 0 .09 0 .18-.002.267m-2.384 1.137c.668-.323 1.262-.758 1.863-1.19l-.165.214c-.113.13-.256.236-.39.34-.223.18-.445.35-.642.56-.038.04.01.105.06.077.454-.26.888-.55 1.33-.827.458-.288.007.092-.068.17-.19.204-.397.387-.595.58-.033.033 0 .102.05.083.113-.044.7-.394.6-.06-.02.06.076.087.095.026.065-.22.065-.138 0-.358-.01-.03-.046-.046-.074-.03-.105.07-.216.134-.33.19-.363.195.134-.17.176-.21.17-.165.322-.337.466-.523-.018.34-.053.676-.08 1.018-1.024-.006-2.047-.036-3.07-.063.684-.21 1.19-.71 1.773-1.11.61-.418.106-.03-.16.186-.327.264-.636.528-.9.853-.037.044.006.102.06.078m-1.18-1.46c0-.003.002-.006.003-.008l.51.006c-.563.33-1.064.746-1.606 1.108-.47.31.246-.226.343-.314.27-.247.52-.506.75-.792m-2.126 1.395c.606-.28 1.09-.72 1.63-1.106.443-.32.272-.16-.008.13-.302.315-.643.593-.955.897-.04.04.012.104.06.078.43-.23.817-.525 1.21-.81a6.732 6.732 0 0 0-.784.837c-.565-.01-1.128-.02-1.693-.026h.012a6.1 6.1 0 0 0 1.028-.6c-.208.167-.41.343-.56.52-.036.044.01.103.06.08m-1.61-.002l.004-.193c.004 0 .005.003.008 0 .335-.07.602-.25.85-.464-.154.17-.303.342-.442.525-.033.043.027.09.067.068.563-.308 1.02-.762 1.568-1.094.21-.16.217-.162.024 0-.145.126-.297.247-.446.372-.25.212-.454.44-.62.72-.017.034.003.06.03.07h-.088c-.308-.004-.64-.028-.955-.002m.07-1.113c.01-.127.023-.254.035-.382.12.014.243.022.367.026a2.16 2.16 0 0 0-.402.357m-.01.13c.012.004.027 0 .04-.014.1-.143.223-.26.372-.355-.1.088-.193.182-.277.286-.05.057-.096.115-.144.17l.008-.085m.508.19c-.164.18-.363.338-.558.484l.02-.313c.322-.22.613-.476.928-.708.14-.104-.258.38-.39.54m-.82 1.204c.03.01.064.012.1.006.384-.078.83-.022 1.22-.02.77.006 1.537.024 2.306.04 1.34.03 2.682.082 4.024.085.09 0 .148-.05.175-.113a.04.04 0 0 1 .004-.008v-.005a.216.216 0 0 0 .018-.07c.042-.622.127-1.226.1-1.852a.186.186 0 0 0-.077-.15.192.192 0 0 0-.12-.048c-1.247-.076-2.505-.05-3.753-.073-.82-.015-1.644-.03-2.464-.055-.417-.013-.89.027-1.3-.064a.196.196 0 0 0-.2.07.22.22 0 0 0-.052.122c-.056.65-.127 1.296-.13 1.95 0 .107.068.17.15.186M218.77 179.973c.3-.177.51-.43.744-.692.346-.383.108-.125-.08.114-.136.173-.26.352-.38.536a.052.052 0 0 0-.003.042h-.28m.637-1.115a.054.054 0 0 0-.015.007c-.29.23-.495.53-.753.79-.42.422.216-.39.152-.315.11-.133.2-.26.282-.416.02-.04-.024-.095-.068-.067-.157.1-.27.207-.4.346-.344.368-.042-.193.01-.356v-.013c.263 0 .527.01.79.023m1.642-2.28c-.183.13-.37.25-.567.35.007-.116.014-.233.025-.35.18-.01.36-.008.543 0m1.982 2.443c.092.004.185.008.277.016-.306.236-.657.507-.897.79.23-.27.46-.5.62-.806m-1.294 1.166a.194.194 0 0 0-.068.012c.32-.24.59-.538.867-.832.184-.194.576-.503.08.087-.173.204-.36.395-.52.61-.03.044.028.095.068.07.292-.188.538-.416.787-.656.095-.09.394-.327.176.01-.132.198-.302.377-.437.577-.023.035.015.09.056.074.164-.064.605-.415.534-.127-.016.062.08.09.095.026l.04-.154c-.01.106-.015.21-.018.316-.555.028-1.106-.007-1.66-.012m-1.34 1.977c.002-.063.003-.127.003-.19.304-.125.552-.34.823-.52-.15.175-.332.325-.45.53-.02.033.014.088.056.07a2.88 2.88 0 0 0 .254-.116c.08-.043.162-.08.246-.116.152-.058.096.11.096.186 0 .03.022.045.045.047.004.052.01.103.013.155-.362-.016-.726-.055-1.086-.045m1.247-3.956a.044.044 0 0 0 .014-.024c0 .114 0 .226.003.34-.003 0-.006 0-.01.002-.56.417-1.122.816-1.596 1.33-.044.048.026.118.07.072.19-.21.39-.397.606-.58.156-.13.318-.254.48-.375.01-.005.015-.01.022-.014-.295.353-.542.75-.883 1.07a.175.175 0 0 0-.064-.055.194.194 0 0 0-.105-.03l-.35.007c.54-.648 1.158-1.21 1.814-1.742m-.662.318c-.468.452-.948.83-1.266 1.404a.054.054 0 0 0-.006.025c-.183.004-.365.01-.548.016.614-.454 1.295-.936 1.82-1.444m.288-.82c.5-.315-.05.25-.15.343a3.572 3.572 0 0 1-.628.445c-.004-.096-.008-.193-.01-.29.278-.14.52-.333.788-.5m.027-.653c.387-.297-.283.426-.367.505-.15.147-.305.28-.456.423a48.42 48.42 0 0 1-.005-.33c.304-.146.55-.385.827-.598m-.5-.093c-.107.113-.22.218-.327.327l.007-.245c.15-.074.295-.152.438-.246.42-.27-.054.095-.12.164m.4 1.468a.05.05 0 0 0-.02-.03c.092-.037.182-.076.273-.115-.085.036-.17.087-.254.145m-.222 1.67a2.74 2.74 0 0 1-.486.404c-.13.087-.097.042.1-.132.11-.112.222-.223.336-.333.35-.342.698-.683 1.018-1.054l.094.01c-.41.3-.714.727-1.062 1.104m.33.232c-.016.022-.007.046.01.06-.327.143-.623.35-.936.522a6.765 6.765 0 0 1-.006-.246c.504-.258.846-.695 1.216-1.124.103-.117.212-.228.326-.335.015-.013.14-.127.237-.206.02.003.044.004.068.005-.314.436-.627.872-.916 1.324m.08.137c-.304.327-.697.555-.992.893-.005-.112-.008-.225-.01-.337.335-.18.648-.407 1-.556m.174-.16a.038.038 0 0 0-.024-.002l-.035.014c.03-.02.06-.04.088-.062v.002a.152.152 0 0 0-.03.047m-1.158 1.204c.33-.18.606-.437.95-.59-.26.354-.62.61-.945.91 0-.108-.002-.213-.005-.32m1.126-.712c-.01-.02-.03-.036-.057-.03-.313.104-.565.3-.832.48.295-.278.644-.497.906-.81-.003.12-.008.24-.015.36m.324-1.826c-.24.162-.45.465-.658.67-.274.27-.55.537-.816.815 0-.1.003-.2.008-.297.567-.3.93-.84 1.466-1.188m-.18-.324l.005.127.002.02a.156.156 0 0 0 .06.138c-.44.294-.77.72-1.205 1.03.425-.326.734-.912 1.138-1.314m-.706 3.238c.157-.2.363-.36.493-.583.026-.045-.024-.092-.067-.068-.254.136-.473.327-.713.48.31-.266.627-.522.843-.873-.017.284-.042.566-.048.85-.186.023-.345.114-.51.194m2.47-2.166c-.013-.01-.03-.018-.048-.01-.142.055-.568.33-.29-.02.162-.2.28-.396.35-.64.01 0 .02 0 .03.003-.01.223-.025.445-.043.667m-.666-.706c-.296.265-.56.567-.844.85-.133.13-.278.25-.435.352.11-.074.226-.322.3-.43.18-.264.37-.52.555-.777.142.004.285.004.426.006m-1.1-2.405c.023.52 0 1.037-.002 1.556-.005-.027-.033-.052-.06-.043-.247.09-.482.195-.722.296-.137.057-.574.312-.176.063.387-.243.737-.54.95-.948.02-.036-.01-.087-.053-.072-.2.067-.36.145-.542.258-.108.07-.81.613-.475.288.375-.365.76-.66 1.005-1.133a.05.05 0 0 0-.067-.068c-.385.198-.675.528-1.05.737v-.055c.144-.15.306-.37.398-.46.14-.137.252-.284.36-.443.144.01.29.018.433.024m-1.73 2.268c.125.004.25.007.373.008.044 0 .08-.01.11-.03.054-.03.092-.085.09-.17l-.004-.04c.17-.05.335-.107.497-.173-.355.225-.693.472-1.023.734-.216.17-.576.372-.725.604.2-.308.444-.59.676-.876a.055.055 0 0 0 .005-.056m-1 .727c.14-.237.357-.458.533-.67.025-.03.01-.063-.013-.077l.392.017c-.25.172-.443.385-.642.61-.108.124-.583.66-.27.12m-.567-.69v-.078l.117-.003-.117.08m-.013.468c.004-.122.01-.242.013-.365.006 0 .012 0 .02-.003.226-.095.045.165-.033.368m-.003.155c.016.01.038.01.058-.007.132-.114.81-.864.316-.26a2.742 2.742 0 0 0-.37.548 3.902 3.902 0 0 1-.003-.28m.304.433a9.074 9.074 0 0 1-.287-.013c0-.006-.003-.01-.003-.018.01 0 .022 0 .035-.006.205-.113.364-.266.514-.43-.097.128-.187.272-.258.44a.044.044 0 0 0 0 .027m1.343 2.353c-.004.078.03.132.077.162.03.052.085.087.165.08.486-.033.976.04 1.46.046.143.002.205-.118.19-.224a.214.214 0 0 0 .003-.063c-.072-.578.014-1.158.037-1.737.555.01 1.104.04 1.66-.003a.188.188 0 0 0 .086-.026.18.18 0 0 0 .112-.172c.006-.502.084-.997.088-1.5a.17.17 0 0 0-.003-.03v-.013c-.008-.07-.053-.13-.143-.146-.552-.108-1.112-.032-1.667-.094-.022-.728.038-1.457-.013-2.184a.223.223 0 0 0-.027-.088.184.184 0 0 0-.172-.11c-.51-.006-1.02-.087-1.527-.024a.22.22 0 0 0-.115.052.206.206 0 0 0-.082.147c-.07.684-.06 1.4-.027 2.09-.628-.014-1.26-.07-1.886-.04a.194.194 0 0 0-.096.03c-.09.01-.166.072-.157.19.04.51-.047 1.02.04 1.53.017.106.095.147.176.142.006 0 .01.002.016.003.59.06 1.19.015 1.786.003-.015.66.055 1.32.02 1.98" fill="#40c5e4" fill-rule="nonzero"/><path d="M268.262 229.74H182.32l-23.2 27.52-13.483 131.48h124.357l-1.732-159z" fill="#2e3e52" fill-rule="nonzero"/><path d="M214.118 229.74h85.943l23.2 27.52 13.483 131.48H212.386l1.732-159z" fill="#2e3e52" fill-rule="nonzero"/><path d="M224.387 222.99v20.593l17.25 2.655v-23.25h-17.25z" fill="#f0d6c1" fill-rule="nonzero"/><path d="M227.61 162.99h-13.85s-4.373-.394-4.373 3.525v11.76s2.25 6.27-6 6.27V198.1l18.488 24.89h19.762v-62.904c-3.75 1.54-8.5 2.903-14.028 2.903" fill="#fee1c9" fill-rule="nonzero"/><path d="M219.51 128.614c-11.998 0-16.123 18.47-16.123 18.47v37.462c8.25 0 6-6.272 6-6.272v-11.76c0-3.918 4.373-3.525 4.373-3.525h13.85c5.528 0 10.277-1.363 14.027-2.904v-31.473H219.51z" fill="#2e3e52" fill-rule="nonzero"/><path d="M257.387 243.583V222.99h-15.75v23.248l15.75-2.655z" fill="#ddc0ac" fill-rule="nonzero"/><path d="M272.387 180.103V155.28s.167-5.04-2.968-5.04h-18.032s-1.5 6.144-9.75 9.846v62.903h21.088l17.16-24.892v-13.552s-7.5-2.303-7.5-4.443" fill="#f0d6c1" fill-rule="nonzero"/><path d="M262.886 128.614h-21.25v31.472c8.25-3.702 9.752-9.847 9.752-9.847h18.03c3.136 0 2.97 5.04 2.97 5.04v24.823c0 2.14 7.5 4.443 7.5 4.443v-38.422c0-13.76-17.002-17.51-17.002-17.51" fill="#212d3a" fill-rule="nonzero"/><path fill="#c7b299" fill-rule="nonzero" d="M9.887 387.24h461.25v14.25H9.887z"/><path d="M224.387 224.704l-9.268 5.035 17.892 31.157 8.625-14.66-17.25-21.533zM258.137 224.704l10.86 9.507-19.485 26.687-7.875-14.66 16.5-21.533z" fill="#f5fffe" fill-rule="nonzero"/><path d="M241.637 246.238l-10.634 18.073 5.5 5.18-4.382 39.75h8.767l.75-63.002z" fill="#ee4a3b" fill-rule="nonzero"/><path d="M241.637 246.238l9.89 17.86-6.357 5.39 4.35 39.75h-8.633l.75-63z" fill="#e23a33" fill-rule="nonzero"/><path d="M241.637 276.24h-64.363c-8.163 0-14.387 6.455-14.387 14.618v76.568c0 8.163 6.224 15.313 14.387 15.313h64.363v-106.5z" fill="#fff" fill-rule="nonzero"/><path d="M177.944 382.74h-13.276c-.744 0-1.348.968-1.348 2.25 0 1.28.604 2.25 1.348 2.25h76.97v-4.5h-63.694z" fill="#f2f2f2" fill-rule="nonzero"/><path d="M304.38 382.74c8.162 0 16.007-7.15 16.007-15.314v-76.568c0-8.163-7.845-14.62-16.008-14.62h-62.743v106.5h62.742zM318.333 384.99c0-1.282-.602-2.25-1.348-2.25h-75.347v4.5h75.347c.746 0 1.348-.97 1.348-2.25" fill="#fff" fill-rule="nonzero"/><path d="M231.41 324.68c0 5.69 4.56 10.31 10.227 10.424v-20.85c-5.667.112-10.227 4.732-10.227 10.425" fill="#e6e6e6" fill-rule="nonzero"/><path d="M252.28 324.68c0-5.765-4.67-10.437-10.434-10.437-.07 0-.14.01-.21.01v20.85c.07.002.14.01.21.01 5.764 0 10.435-4.67 10.435-10.434" fill="#b3b3b3" fill-rule="nonzero"/><path d="M238.637 187.477c0 .973-.672 1.762-1.5 1.762h-22.5c-.828 0-1.5-.79-1.5-1.763V177.5c0-.973.672-1.76 1.5-1.76h22.5c.828 0 1.5.787 1.5 1.76v9.977zM269.387 186.8c0 .933-.66 1.69-1.473 1.69H246.11c-.814 0-1.473-.757-1.473-1.69v-9.373c0-.932.66-1.688 1.472-1.688h21.804c.813 0 1.473.755 1.473 1.687v9.374z" fill="#fff" fill-rule="nonzero" opacity=".6"/><path d="M237.137 188.49h-22.5c-.407 0-.75-.464-.75-1.013v-9.975c0-.55.343-1.013.75-1.013h22.125c.62 0 1.125.62 1.125 1.387v9.6c0 .55-.344 1.012-.75 1.012m0-13.5h-22.5c-1.24 0-2.25 1.126-2.25 2.512v10.35c0 1.18.84 2.137 1.875 2.137h22.875c1.24 0 2.25-1.127 2.25-2.513v-9.975c0-1.386-1.01-2.513-2.25-2.513M267.887 188.49h-22.5c-.407 0-.75-.464-.75-1.013v-9.975c0-.55.343-1.013.75-1.013h22.125c.62 0 1.125.62 1.125 1.387v9.6c0 .55-.344 1.012-.75 1.012m0-13.5h-22.5c-1.24 0-2.25 1.126-2.25 2.512v10.35c0 1.18.84 2.137 1.875 2.137h22.875c1.24 0 2.25-1.127 2.25-2.513v-9.975c0-1.386-1.01-2.513-2.25-2.513" fill="#5b5959" fill-rule="nonzero"/><path d="M213.887 182.317c0 .51-.315.922-.703.922h-9.095c-.388 0-.703-.413-.703-.923v-.405c0-.51.315-.923.702-.923h9.094c.388 0 .703.412.703.922v.405zM279.887 182.317c0 .51-.315.922-.703.922h-9.095c-.388 0-.703-.413-.703-.923v-.405c0-.51.315-.923.702-.923h9.094c.388 0 .703.412.703.922v.405zM244.637 182.317c0 .51-.18.922-.402.922h-5.197c-.222 0-.4-.413-.4-.923v-.405c0-.51.178-.923.4-.923h5.197c.222 0 .402.412.402.922v.405z" fill="#5b5959" fill-rule="nonzero"/></svg>