<svg viewBox="0 0 472 416" xmlns="http://www.w3.org/2000/svg" fill-rule="evenodd" clip-rule="evenodd" stroke-linejoin="round" stroke-miterlimit="1.414"><path d="M277.96 294.15c-.042-.882-.084-1.763-.11-2.643-.015-.504-.093-1.108-.01-1.63 1.234.986 2.46 1.976 3.7 2.957 1.036.823 2.01 1.716 2.988 2.602a.15.15 0 0 0-.028.03c-.95 1.205-2.202 2.207-3.378 3.185-.862.715-1.84 1.37-2.6 2.2-.04-.007-.078-.01-.116-.017-.247-2.227-.337-4.445-.445-6.684m3.674-4.405c1.578.066 3.16.11 4.74.165 1.596.052 3.192.044 4.786.097 1.294.044 2.526.033 3.802-.12a490.5 490.5 0 0 0-4.345 3.556c-.833.688-1.663 1.378-2.482 2.082-.466.4-.993.79-1.387 1.264a.15.15 0 0 0-.027.037c-1.67-1.386-3.2-2.926-4.9-4.274-1.14-.904-2.274-1.817-3.41-2.726 1.07.02 2.15-.13 3.224-.084m13.416 3.236c-.062 1.057-.044 2.12-.07 3.177-.04 1.587.017 3.167.034 4.754-1.788-2.03-3.622-4.147-5.728-5.845.498-.417.994-.832 1.492-1.245a494.796 494.796 0 0 1 4.316-3.53c.087.893.008 1.794-.045 2.69m-12.56 8.113c-1.145-.038-2.325-.072-3.474-.19.693-.692 1.532-1.272 2.282-1.887 1.215-.998 2.505-2.033 3.48-3.27a.383.383 0 0 0 .032-.055 53.03 53.03 0 0 0 1.737 1.51c.117.1.27.035.324-.067a.165.165 0 0 0 .155-.064c.37-.444.86-.81 1.298-1.187.215-.187.436-.372.654-.557 2.173 1.748 4.057 3.945 5.898 6.03a344.46 344.46 0 0 1-8.065-.127c-1.44-.035-2.882-.088-4.322-.136m-.246.388c1.437.052 2.874.105 4.31.14 2.888.07 5.774.134 8.664.134.057 0 .1-.02.132-.052l.01-.01a.184.184 0 0 0 .055-.137c-.005-1.8-.08-3.597-.04-5.397.028-1.137.017-2.275.085-3.41.06-1.02.127-2.032-.047-3.047.01-.115-.092-.256-.247-.235-1.44.2-2.81.186-4.256.137-1.513-.05-3.027-.044-4.538-.09-1.498-.044-2.995-.104-4.49-.155-1.39-.045-2.806.174-4.185.035a.157.157 0 0 0-.18.12c-.004.01-.01.016-.01.026-.148.527-.073 1.157-.062 1.695.02.926.068 1.853.11 2.778.113 2.348.204 4.676.474 7.017.017.15.164.21.275.182a.2.2 0 0 0 .055.015c1.273.17 2.6.21 3.884.256m-53.23-87.903c-.33.225-.626.487-.95.726.235-.176.434-.488.598-.73.12 0 .238 0 .353.004m.983 1.16c.024-.015.048-.03.07-.046l-.07.046m1.583-1.1c-.508.28-.943.667-1.42.993.35-.242.748-.58.95-.927.032-.054-.034-.094-.076-.062-.576.45-1.143.902-1.793 1.236.024-.013.382-.457.49-.554.232-.21.482-.395.71-.61.034-.033 0-.104-.048-.084-.433.18-.795.45-1.16.737a8.2 8.2 0 0 1-.45.334c-.42.294.103-.175.153-.23.233-.257.482-.498.71-.76.044-.05-.022-.11-.07-.07-.443.344-1.03.83-1.357 1.075.41-.307.72-.693.965-1.136.798.024 1.596.04 2.394.055m-.326 1.442c-.092 0-.183-.004-.274-.005.62-.424 1.273-.794 1.898-1.213-.267.18-.493.455-.764.643-.212.148-.42.296-.617.46-.045.04.015.098.06.078.68-.288 1.235-.76 1.856-1.15.21-.143.218-.117.027.076-.156.19-.375.35-.57.49-.26.194-.528.367-.776.574-.025.02-.018.05.002.07l-.84-.02m1.095-1.36a.053.053 0 0 0 .012-.073l.64.004c-.59.414-1.214.772-1.82 1.16-.024.005-.045.013-.066.02.09-.1.185-.194.28-.29.293-.3.622-.566.955-.82m.743-.07l.555.006c-.546.276-1.02.666-1.54.99.388-.25.75-.568.988-.944a.05.05 0 0 0-.002-.052m-.798 1.315c.547-.223 1.137-.784 1.46-1.265a.047.047 0 0 0 .003-.047c.196.002.39.005.588.01-.74.347-1.29.99-2.05 1.3m3.034-.996c-.32.185-.63.38-.94.582-.126.08-.252.163-.38.24l-.055.042c.385-.346.806-.59 1.06-1.067.02-.04-.027-.098-.07-.067-.607.428-1.197.876-1.853 1.227.14-.074.42-.397.598-.545.266-.222.535-.432.786-.67.014-.014.018-.03.014-.042.282.007.562.018.842.034 0 .09 0 .18-.002.267m-2.384 1.137c.668-.322 1.262-.757 1.863-1.19l-.165.215c-.113.13-.256.236-.39.34-.223.18-.445.35-.642.56-.038.04.01.105.06.077.454-.26.888-.55 1.33-.827.458-.288.007.092-.068.17-.19.204-.397.387-.595.58-.033.033 0 .102.05.083.113-.044.7-.394.6-.06-.02.06.076.087.095.026.065-.22.065-.138 0-.358-.01-.03-.046-.046-.074-.03a2.91 2.91 0 0 1-.33.19c-.363.195.134-.17.176-.21.17-.165.322-.337.466-.523-.018.34-.053.676-.08 1.018-1.024-.005-2.047-.035-3.07-.062.684-.21 1.19-.71 1.773-1.11.61-.418.105-.03-.16.186-.328.264-.637.528-.9.853-.038.044.005.102.06.078m-1.18-1.46c0-.003 0-.006.002-.008l.51.006c-.563.33-1.064.746-1.606 1.108-.47.31.246-.225.343-.313.27-.247.52-.506.75-.792m-2.127 1.395c.606-.28 1.09-.72 1.63-1.106.443-.32.272-.16-.008.13-.302.315-.643.593-.955.897-.04.04.012.105.06.08.43-.23.817-.526 1.21-.81a6.732 6.732 0 0 0-.784.836c-.565-.01-1.128-.02-1.693-.026h.012a6.1 6.1 0 0 0 1.028-.6c-.208.167-.41.343-.56.52-.036.044.01.103.06.08m-1.61-.002l.004-.193c.004 0 .005.003.008 0 .335-.07.602-.25.85-.464-.154.17-.303.343-.442.526-.033.043.027.09.067.068.563-.308 1.02-.762 1.568-1.094.21-.16.217-.162.024 0-.145.126-.297.247-.446.372-.25.212-.454.44-.62.72-.017.034.003.06.03.07h-.088c-.308-.004-.64-.028-.955-.002m.07-1.113c.01-.127.023-.254.035-.382a4.4 4.4 0 0 0 .367.026 2.16 2.16 0 0 0-.402.358m-.01.13c.012.004.027 0 .04-.014.1-.143.223-.26.372-.355a2.34 2.34 0 0 0-.277.285c-.05.057-.096.115-.144.17l.008-.085m.508.19c-.164.18-.363.338-.558.484l.02-.313c.322-.22.613-.475.928-.707.14-.104-.258.38-.39.54m-.82 1.204c.03.01.064.012.1.006.384-.078.83-.022 1.22-.02.77.006 1.537.024 2.306.04 1.34.03 2.682.082 4.024.085.09 0 .148-.05.175-.113a.04.04 0 0 1 .004-.008v-.005a.216.216 0 0 0 .017-.07c.042-.622.127-1.226.1-1.852a.186.186 0 0 0-.077-.15.192.192 0 0 0-.12-.048c-1.247-.076-2.505-.05-3.753-.073-.82-.016-1.644-.03-2.464-.056-.417-.013-.89.027-1.3-.064a.196.196 0 0 0-.2.07.22.22 0 0 0-.052.122c-.055.65-.126 1.296-.13 1.95 0 .107.07.17.15.186m-9-35.495c.3-.177.51-.43.744-.692.346-.382.108-.124-.08.115-.136.173-.26.352-.38.536a.052.052 0 0 0-.003.043h-.28m.638-1.115a.054.054 0 0 0-.015.007c-.29.23-.495.53-.753.79-.42.422.216-.39.152-.315.11-.133.2-.26.282-.416.02-.04-.024-.095-.068-.067-.157.1-.27.207-.4.346-.344.368-.042-.193.01-.356v-.013c.263 0 .527.01.79.023m1.642-2.28c-.183.13-.37.25-.567.35.008-.116.015-.233.026-.35.18-.01.36-.008.543 0m1.98 2.443c.093.004.186.008.278.016-.306.236-.657.507-.897.79.23-.27.46-.5.62-.806m-1.293 1.166a.194.194 0 0 0-.068.012c.32-.24.59-.538.866-.832.184-.194.576-.503.08.087-.173.204-.36.395-.52.61-.03.044.028.095.068.07.292-.188.538-.416.787-.656.096-.09.395-.327.177.01-.132.198-.302.377-.437.577-.023.035.015.09.056.074.164-.064.605-.415.534-.127-.016.063.08.09.095.027l.04-.154a4.78 4.78 0 0 0-.018.316c-.555.027-1.106-.008-1.66-.013m-1.34 1.977a6.02 6.02 0 0 0 .003-.19c.304-.125.552-.34.823-.52-.15.175-.332.325-.45.53-.02.033.014.088.056.07a2.88 2.88 0 0 0 .253-.116c.08-.043.162-.08.246-.116.15-.058.095.11.095.186 0 .03.022.045.045.047.004.052.01.103.013.155-.362-.016-.726-.055-1.086-.045m1.247-3.956a.044.044 0 0 0 .014-.025c0 .114 0 .226.003.34a.02.02 0 0 0-.01.002c-.56.417-1.12.816-1.595 1.33-.044.048.026.118.07.072.19-.21.39-.398.606-.58.157-.13.32-.255.48-.376l.023-.014c-.295.353-.542.75-.883 1.07a.175.175 0 0 0-.064-.055.194.194 0 0 0-.105-.03l-.35.007c.54-.648 1.16-1.21 1.815-1.742m-.662.318c-.468.452-.948.83-1.266 1.404a.054.054 0 0 0-.006.025c-.182.004-.364.01-.547.016.614-.454 1.295-.936 1.82-1.444m.288-.82c.5-.316-.05.25-.15.342a3.572 3.572 0 0 1-.627.445 13.804 13.804 0 0 1-.01-.29c.278-.14.52-.333.788-.5m.028-.653c.387-.297-.283.426-.367.505-.15.146-.304.28-.455.422a48.42 48.42 0 0 1-.005-.33c.304-.146.55-.385.827-.598m-.5-.093c-.107.114-.22.22-.327.328l.007-.245c.15-.074.295-.152.438-.246.42-.27-.054.095-.12.164m.4 1.47a.05.05 0 0 0-.02-.03c.092-.038.182-.077.273-.116-.085.036-.17.087-.254.145m-.222 1.67a2.74 2.74 0 0 1-.486.403c-.13.087-.097.042.1-.132.11-.11.222-.222.336-.332.35-.342.698-.683 1.018-1.054l.094.01c-.41.3-.714.727-1.062 1.104m.33.232c-.016.022-.007.046.01.06-.327.143-.623.35-.936.522a6.765 6.765 0 0 1-.006-.246c.504-.258.846-.695 1.216-1.124.103-.117.212-.228.326-.335.015-.013.14-.127.237-.206.02.004.043.005.067.006-.314.436-.627.872-.916 1.324m.08.137c-.303.327-.696.555-.99.893a12.636 12.636 0 0 1-.01-.337c.334-.18.647-.407 1-.556m.173-.16a.038.038 0 0 0-.024-.002l-.036.014c.03-.02.06-.04.088-.063v.002a.152.152 0 0 0-.03.046m-1.158 1.204c.33-.18.606-.437.95-.59-.26.354-.62.61-.945.91 0-.108-.003-.213-.006-.32m1.126-.712c-.01-.02-.03-.036-.057-.03-.313.104-.565.3-.832.48.296-.278.645-.497.907-.81-.003.12-.008.24-.015.36m.324-1.826c-.24.162-.45.465-.658.67-.274.27-.55.537-.816.815 0-.1.003-.2.008-.297.567-.3.93-.84 1.466-1.188m-.18-.324l.005.127.003.02a.156.156 0 0 0 .06.138c-.44.294-.77.72-1.205 1.03.425-.326.734-.912 1.138-1.314m-.706 3.237c.157-.2.363-.36.493-.583.026-.045-.024-.092-.067-.068-.254.136-.473.327-.713.48.31-.266.627-.522.843-.873-.017.284-.042.566-.048.85-.186.023-.345.114-.51.194m2.47-2.166c-.013-.01-.03-.017-.048-.01-.142.056-.568.33-.29-.02.162-.2.28-.395.35-.64.01 0 .02 0 .03.004-.01.223-.025.445-.043.667m-.666-.705c-.295.265-.56.567-.843.85-.133.13-.278.25-.435.352.11-.074.226-.322.3-.43.18-.264.37-.52.555-.777.142.004.285.004.426.006m-1.1-2.405c.023.52 0 1.038-.002 1.557-.004-.027-.032-.052-.06-.043-.246.09-.48.195-.72.296-.138.057-.575.312-.177.063.387-.243.737-.54.95-.948.02-.036-.01-.087-.053-.072-.2.067-.36.145-.542.258-.108.07-.81.614-.475.29.375-.366.76-.66 1.005-1.134a.05.05 0 0 0-.067-.068c-.384.198-.674.528-1.05.737v-.055c.145-.15.307-.37.4-.46.14-.137.25-.284.36-.443.143.01.29.018.432.024m-1.73 2.27c.125.003.25.006.373.007.044 0 .08-.01.11-.03.054-.03.092-.085.09-.17l-.004-.04c.17-.05.336-.107.498-.173-.355.225-.693.472-1.023.734-.216.17-.576.372-.725.604.2-.308.444-.59.676-.876a.055.055 0 0 0 .005-.056m-1 .727c.14-.237.358-.458.534-.67.025-.03.01-.063-.013-.077l.393.017c-.25.172-.443.385-.642.61-.107.124-.582.66-.27.12m-.566-.69v-.078l.117-.004-.116.08m-.013.468l.014-.365c.006 0 .012 0 .02-.004.226-.095.045.165-.033.368m-.002.155c.016.01.038.01.058-.008.132-.114.81-.864.316-.26a2.742 2.742 0 0 0-.37.548 3.902 3.902 0 0 1-.003-.28m.303.433a9.074 9.074 0 0 1-.287-.013c0-.006-.003-.01-.003-.018.01 0 .022 0 .035-.006.205-.113.364-.266.514-.43a2.04 2.04 0 0 0-.258.44.044.044 0 0 0 0 .027m1.343 2.353a.172.172 0 0 0 .077.162c.03.052.085.087.165.08.485-.033.975.04 1.46.046.142.002.204-.118.19-.224a.214.214 0 0 0 .002-.063c-.072-.578.014-1.158.037-1.737.554.01 1.103.04 1.66-.003a.188.188 0 0 0 .085-.026.18.18 0 0 0 .112-.17c.006-.503.084-.998.088-1.5a.17.17 0 0 0-.003-.03v-.014c-.008-.07-.053-.13-.143-.146-.553-.108-1.113-.032-1.668-.094-.022-.728.038-1.457-.013-2.184a.223.223 0 0 0-.028-.088.184.184 0 0 0-.172-.11c-.51-.006-1.02-.087-1.527-.024a.22.22 0 0 0-.115.052.206.206 0 0 0-.082.147c-.07.683-.06 1.4-.027 2.09-.63-.015-1.26-.07-1.887-.04a.194.194 0 0 0-.096.03c-.09.01-.166.07-.157.19.04.51-.047 1.02.04 1.53.017.105.095.146.176.14.006 0 .01.003.016.004.59.06 1.19.015 1.786.003-.015.66.055 1.32.02 1.98" fill="#40c5e4" fill-rule="nonzero"/><path d="M268.262 229.74H182.32l-23.2 27.52-13.483 131.48h124.357l-1.732-159z" fill="#2e3e52" fill-rule="nonzero"/><path d="M214.118 229.74h85.943l23.2 27.52 13.484 131.48H212.386l1.732-159z" fill="#2e3e52" fill-rule="nonzero"/><path d="M224.387 222.99v20.593l17.25 2.655v-23.25h-17.25z" fill="#f0d6c1" fill-rule="nonzero"/><path d="M227.61 162.99h-13.85s-4.373-.394-4.373 3.525v11.76s2.25 6.27-6 6.27V198.1l18.488 24.89h19.762v-62.904c-3.75 1.54-8.5 2.903-14.028 2.903" fill="#fee1c9" fill-rule="nonzero"/><path d="M219.51 128.614c-11.998 0-16.123 18.47-16.123 18.47v37.462c8.25 0 6-6.272 6-6.272v-11.76c0-3.918 4.373-3.525 4.373-3.525h13.85c5.528 0 10.277-1.364 14.027-2.905v-31.473H219.51z" fill="#2e3e52" fill-rule="nonzero"/><path d="M257.387 243.583V222.99h-15.75v23.248l15.75-2.655z" fill="#ddc0ac" fill-rule="nonzero"/><path d="M272.387 180.103V155.28s.167-5.04-2.968-5.04h-18.033s-1.5 6.144-9.75 9.846v62.903h21.088l17.16-24.893v-13.552s-7.5-2.303-7.5-4.443" fill="#f0d6c1" fill-rule="nonzero"/><path d="M262.886 128.614h-21.25v31.472c8.25-3.702 9.752-9.847 9.752-9.847h18.03c3.136 0 2.97 5.04 2.97 5.04V180.1c0 2.14 7.5 4.443 7.5 4.443v-38.422c0-13.76-17.002-17.51-17.002-17.51" fill="#212d3a" fill-rule="nonzero"/><path fill="#c7b299" fill-rule="nonzero" d="M9.887 387.24h461.25v14.25H9.887z"/><path d="M224.387 224.704l-9.268 5.035 17.89 31.156 8.626-14.66-17.25-21.533zm33.75 0l10.86 9.507-19.485 26.688-7.875-14.66 16.5-21.533z" fill="#f5fffe" fill-rule="nonzero"/><path d="M241.637 246.238l-10.634 18.073 5.5 5.18-4.382 39.75h8.768l.75-63z" fill="#ee4a3b" fill-rule="nonzero"/><path d="M241.637 246.238l9.89 17.86-6.357 5.39 4.35 39.75h-8.633l.75-63z" fill="#e23a33" fill-rule="nonzero"/><path d="M241.637 276.24h-64.363c-8.163 0-14.387 6.455-14.387 14.618v76.568c0 8.163 6.224 15.313 14.387 15.313h64.363v-106.5z" fill="#fff" fill-rule="nonzero"/><path d="M177.944 382.74h-13.276c-.744 0-1.348.968-1.348 2.25 0 1.28.604 2.25 1.348 2.25h76.97v-4.5h-63.694z" fill="#f2f2f2" fill-rule="nonzero"/><path d="M304.38 382.74c8.162 0 16.007-7.15 16.007-15.314v-76.568c0-8.163-7.845-14.62-16.008-14.62h-62.744v106.5h62.742zm13.953 2.25c0-1.282-.602-2.25-1.348-2.25h-75.347v4.5h75.347c.746 0 1.348-.97 1.348-2.25" fill="#fff" fill-rule="nonzero"/><path d="M231.41 324.68c0 5.69 4.56 10.31 10.227 10.424v-20.85c-5.667.112-10.227 4.732-10.227 10.425" fill="#e6e6e6" fill-rule="nonzero"/><path d="M252.28 324.68c0-5.765-4.67-10.437-10.434-10.437-.07 0-.14.01-.21.01v20.85c.07.002.14.01.21.01 5.764 0 10.435-4.67 10.435-10.434" fill="#b3b3b3" fill-rule="nonzero"/><path d="M238.637 187.477c0 .973-.672 1.762-1.5 1.762h-22.5c-.828 0-1.5-.79-1.5-1.764V177.5c0-.973.672-1.76 1.5-1.76h22.5c.828 0 1.5.787 1.5 1.76v9.977zm30.75-.677c0 .933-.66 1.69-1.473 1.69H246.11c-.814 0-1.473-.757-1.473-1.69v-9.373c0-.932.66-1.688 1.472-1.688h21.803c.813 0 1.473.754 1.473 1.686v9.374z" fill="#fff" fill-rule="nonzero" opacity=".6"/><path d="M237.137 188.49h-22.5c-.407 0-.75-.464-.75-1.013v-9.975c0-.55.343-1.013.75-1.013h22.125c.62 0 1.125.62 1.125 1.386v9.6c0 .55-.344 1.012-.75 1.012m0-13.5h-22.5c-1.24 0-2.25 1.126-2.25 2.512v10.35c0 1.18.84 2.137 1.875 2.137h22.875c1.24 0 2.25-1.127 2.25-2.513V177.5c0-1.387-1.01-2.514-2.25-2.514m30.75 13.504h-22.5c-.407 0-.75-.464-.75-1.013v-9.975c0-.55.343-1.013.75-1.013h22.125c.62 0 1.125.62 1.125 1.386v9.6c0 .55-.344 1.012-.75 1.012m0-13.5h-22.5c-1.24 0-2.25 1.126-2.25 2.512v10.35c0 1.18.84 2.137 1.875 2.137h22.875c1.24 0 2.25-1.127 2.25-2.513V177.5c0-1.387-1.01-2.514-2.25-2.514" fill="#5b5959" fill-rule="nonzero"/><path d="M213.887 182.317c0 .51-.315.922-.703.922h-9.095c-.39 0-.704-.414-.704-.924v-.405c0-.51.315-.922.702-.922h9.094c.388 0 .703.412.703.922v.405zm66 0c0 .51-.315.922-.703.922h-9.095c-.39 0-.704-.414-.704-.924v-.405c0-.51.315-.922.702-.922h9.094c.388 0 .703.412.703.922v.405zm-35.25 0c0 .51-.18.922-.402.922h-5.197c-.222 0-.4-.414-.4-.924v-.405c0-.51.178-.922.4-.922h5.197c.222 0 .402.412.402.922v.405z" fill="#5b5959" fill-rule="nonzero"/></svg>