<?xml version="1.0" standalone="no"?>
<!DOCTYPE svg PUBLIC "-//W3C//DTD SVG 1.1//EN" "http://www.w3.org/Graphics/SVG/1.1/DTD/svg11.dtd">
<svg width="100%" height="100%" viewBox="0 0 472 416" version="1.1" xmlns="http://www.w3.org/2000/svg" xmlns:xlink="http://www.w3.org/1999/xlink" xml:space="preserve" style="fill-rule:evenodd;clip-rule:evenodd;stroke-linejoin:round;stroke-miterlimit:1.41421;">
    <g transform="matrix(0.75,0,0,0.75,-0,-0)">
        <g transform="matrix(1,0,0,1,-89.8179,-123.681)">
            <path d="M460.432,515.879C460.375,514.705 460.319,513.53 460.284,512.357C460.264,511.685 460.161,510.88 460.27,510.183C461.916,511.498 463.553,512.819 465.203,514.127C466.586,515.224 467.883,516.414 469.188,517.596C469.176,517.606 469.162,517.619 469.151,517.635C467.885,519.242 466.215,520.579 464.647,521.882C463.498,522.833 462.192,523.707 461.18,524.812C461.129,524.804 461.077,524.801 461.026,524.791C460.696,521.821 460.577,518.864 460.432,515.879M465.328,510.007C467.432,510.095 469.541,510.155 471.647,510.227C473.776,510.297 475.905,510.287 478.03,510.357C479.756,510.416 481.399,510.401 483.1,510.196C481.161,511.765 479.229,513.346 477.307,514.938C476.196,515.856 475.09,516.776 473.998,517.715C473.377,518.246 472.674,518.768 472.149,519.4C472.133,519.416 472.121,519.434 472.112,519.452C469.885,517.604 467.846,515.551 465.577,513.753C464.057,512.548 462.545,511.331 461.032,510.118C462.459,510.144 463.899,509.947 465.328,510.007M483.217,514.321C483.135,515.732 483.159,517.148 483.123,518.558C483.073,520.674 483.147,522.781 483.17,524.897C480.786,522.192 478.34,519.366 475.532,517.103C476.196,516.546 476.858,515.993 477.522,515.442C479.43,513.859 481.352,512.293 483.276,510.733C483.393,511.925 483.287,513.126 483.217,514.321M466.473,525.138C464.946,525.088 463.373,525.042 461.84,524.886C462.764,523.963 463.883,523.189 464.883,522.369C466.504,521.039 468.225,519.659 469.526,518.01C469.543,517.984 469.557,517.959 469.567,517.936C470.327,518.619 471.094,519.297 471.883,519.949C472.041,520.079 472.243,519.993 472.317,519.857C472.385,519.867 472.459,519.846 472.522,519.772C473.016,519.181 473.67,518.691 474.252,518.19C474.539,517.941 474.834,517.694 475.125,517.448C478.022,519.778 480.534,522.708 482.989,525.488C479.403,525.483 475.823,525.408 472.235,525.319C470.315,525.273 468.393,525.202 466.473,525.138M466.143,525.656C468.059,525.724 469.975,525.794 471.891,525.841C475.741,525.935 479.588,526.02 483.442,526.02C483.518,526.02 483.577,525.993 483.618,525.95C483.623,525.944 483.627,525.942 483.633,525.937C483.676,525.895 483.705,525.835 483.705,525.755C483.698,523.354 483.596,520.959 483.653,518.558C483.688,517.043 483.674,515.525 483.764,514.013C483.846,512.651 483.934,511.303 483.702,509.949C483.715,509.794 483.578,509.606 483.371,509.634C481.453,509.901 479.623,509.882 477.696,509.817C475.68,509.75 473.662,509.758 471.647,509.696C469.651,509.639 467.655,509.558 465.659,509.49C463.809,509.431 461.92,509.722 460.082,509.537C459.948,509.523 459.868,509.6 459.842,509.698C459.836,509.709 459.83,509.719 459.828,509.732C459.631,510.433 459.731,511.273 459.746,511.99C459.772,513.225 459.836,514.461 459.893,515.695C460.043,518.825 460.164,521.929 460.524,525.05C460.547,525.249 460.743,525.33 460.891,525.293C460.912,525.302 460.938,525.312 460.965,525.315C462.662,525.54 464.43,525.595 466.143,525.656" style="fill:rgb(64,197,228);fill-rule:nonzero;"/>
        </g>
        <g transform="matrix(1,0,0,1,-89.8179,-123.681)">
            <path d="M395.166,408.454C394.725,408.754 394.33,409.103 393.899,409.422C394.211,409.188 394.476,408.772 394.695,408.449C394.854,408.45 395.012,408.45 395.166,408.454M396.474,410.001C396.506,409.981 396.538,409.962 396.569,409.939C396.538,409.96 396.507,409.98 396.474,410.001M398.584,408.534C397.907,408.907 397.327,409.423 396.69,409.858C397.158,409.535 397.689,409.084 397.959,408.622C398,408.55 397.912,408.497 397.856,408.54C397.09,409.138 396.334,409.742 395.467,410.187C395.499,410.17 395.977,409.578 396.12,409.449C396.43,409.17 396.763,408.922 397.067,408.634C397.113,408.592 397.066,408.497 397.003,408.524C396.428,408.763 395.946,409.122 395.461,409.506C395.266,409.664 395.066,409.811 394.859,409.954C394.301,410.346 394.997,409.721 395.063,409.647C395.374,409.305 395.706,408.983 396.01,408.634C396.068,408.568 395.981,408.489 395.917,408.54C395.326,408.999 394.543,409.648 394.107,409.974C394.652,409.566 395.069,409.051 395.394,408.461C396.457,408.493 397.52,408.514 398.584,408.534M399.218,409.921C399.164,409.954 399.111,409.985 399.056,410.016C399.111,409.986 399.164,409.954 399.218,409.921M398.148,410.457C398.026,410.455 397.904,410.452 397.783,410.45C398.609,409.885 399.481,409.391 400.314,408.833C399.958,409.071 399.657,409.439 399.295,409.69C399.013,409.888 398.737,410.085 398.472,410.303C398.41,410.356 398.49,410.434 398.552,410.408C399.459,410.024 400.197,409.394 401.024,408.876C401.303,408.684 401.315,408.718 401.06,408.975C400.853,409.229 400.56,409.438 400.301,409.629C399.954,409.885 399.597,410.116 399.266,410.392C399.233,410.419 399.242,410.46 399.269,410.486C398.895,410.476 398.521,410.466 398.148,410.457M399.61,408.644C399.645,408.617 399.645,408.575 399.626,408.547C399.91,408.549 400.196,408.55 400.48,408.552C399.694,409.104 398.861,409.581 398.053,410.1C398.02,410.105 397.992,410.116 397.965,410.125C398.085,409.993 398.21,409.866 398.335,409.739C398.727,409.338 399.166,408.983 399.61,408.644M400.601,408.553C400.847,408.555 401.094,408.557 401.341,408.559C400.612,408.929 399.979,409.449 399.287,409.879C399.805,409.548 400.286,409.123 400.604,408.622C400.617,408.599 400.613,408.573 400.601,408.553M399.536,410.306C400.267,410.011 401.054,409.264 401.485,408.622C401.499,408.6 401.499,408.578 401.489,408.56C401.75,408.564 402.01,408.568 402.272,408.575C401.284,409.037 400.552,409.895 399.536,410.306M403.582,408.98C403.155,409.226 402.741,409.488 402.328,409.756C402.161,409.864 401.993,409.973 401.823,410.076C401.803,410.09 401.776,410.11 401.748,410.132C402.263,409.67 402.825,409.343 403.16,408.709C403.188,408.654 403.127,408.578 403.069,408.619C402.26,409.19 401.474,409.787 400.599,410.255C400.787,410.155 401.16,409.725 401.397,409.527C401.751,409.232 402.11,408.952 402.444,408.634C402.462,408.616 402.467,408.596 402.462,408.578C402.838,408.588 403.211,408.602 403.584,408.623C403.586,408.742 403.584,408.863 403.582,408.98M400.403,410.496C401.295,410.064 402.087,409.483 402.889,408.909C402.841,408.97 402.767,409.063 402.668,409.193C402.518,409.366 402.327,409.507 402.15,409.647C401.851,409.888 401.555,410.112 401.292,410.392C401.242,410.446 401.306,410.533 401.374,410.496C401.978,410.147 402.557,409.761 403.147,409.391C403.756,409.008 403.155,409.514 403.055,409.62C402.803,409.89 402.526,410.134 402.262,410.392C402.218,410.435 402.263,410.527 402.327,410.502C402.479,410.444 403.26,409.977 403.127,410.421C403.102,410.502 403.23,410.538 403.255,410.457C403.342,410.164 403.342,410.273 403.255,409.98C403.241,409.941 403.194,409.918 403.157,409.941C403.016,410.033 402.868,410.118 402.717,410.193C402.233,410.453 402.895,409.965 402.951,409.912C403.177,409.693 403.381,409.463 403.573,409.216C403.549,409.669 403.502,410.116 403.467,410.572C402.101,410.564 400.736,410.524 399.371,410.488C400.285,410.209 400.96,409.54 401.737,409.009C402.551,408.45 401.879,408.967 401.523,409.255C401.089,409.606 400.676,409.958 400.324,410.392C400.275,410.45 400.333,410.528 400.403,410.496M398.831,408.547C398.832,408.544 398.834,408.54 398.835,408.537C399.062,408.54 399.29,408.544 399.517,408.545C398.765,408.985 398.097,409.54 397.374,410.022C396.746,410.437 397.702,409.721 397.831,409.603C398.192,409.274 398.525,408.929 398.831,408.547M395.997,410.408C396.804,410.035 397.451,409.446 398.168,408.933C398.761,408.509 398.533,408.721 398.159,409.109C397.756,409.527 397.302,409.898 396.886,410.303C396.831,410.357 396.901,410.442 396.966,410.408C397.538,410.1 398.054,409.708 398.578,409.328C398.197,409.67 397.849,410.043 397.532,410.444C396.779,410.43 396.028,410.417 395.275,410.409C395.281,410.408 395.286,410.409 395.291,410.408C395.78,410.191 396.229,409.914 396.662,409.61C396.384,409.831 396.117,410.066 395.917,410.303C395.867,410.361 395.928,410.439 395.997,410.408M393.848,410.406C393.851,410.32 393.852,410.235 393.854,410.149C393.859,410.149 393.861,410.151 393.865,410.149C394.311,410.056 394.667,409.815 394.999,409.529C394.793,409.755 394.594,409.985 394.408,410.229C394.365,410.285 394.445,410.349 394.498,410.318C395.248,409.908 395.858,409.302 396.589,408.86C396.867,408.645 396.878,408.644 396.621,408.859C396.427,409.028 396.224,409.189 396.026,409.356C395.693,409.638 395.42,409.942 395.2,410.316C395.176,410.361 395.203,410.397 395.24,410.409C395.2,410.409 395.162,410.408 395.122,410.408C394.711,410.404 394.27,410.371 393.848,410.406M393.942,408.922C393.957,408.752 393.973,408.582 393.988,408.411C394.149,408.43 394.312,408.441 394.478,408.446C394.278,408.588 394.105,408.733 393.942,408.922M393.927,409.095C393.945,409.1 393.965,409.095 393.983,409.075C394.115,408.885 394.279,408.728 394.478,408.602C394.343,408.718 394.22,408.843 394.109,408.982C394.042,409.058 393.98,409.135 393.917,409.21C393.92,409.172 393.924,409.135 393.927,409.095M394.605,409.349C394.386,409.589 394.121,409.798 393.861,409.993C393.87,409.853 393.879,409.714 393.889,409.576C394.316,409.28 394.705,408.94 395.124,408.63C395.311,408.492 394.78,409.135 394.605,409.349M393.511,410.956C393.55,410.969 393.596,410.972 393.645,410.963C394.157,410.86 394.752,410.934 395.271,410.936C396.296,410.945 397.32,410.969 398.346,410.99C400.133,411.03 401.922,411.1 403.711,411.103C403.833,411.103 403.909,411.038 403.944,410.953C403.946,410.948 403.948,410.945 403.95,410.942C403.95,410.939 403.95,410.936 403.952,410.935C403.964,410.906 403.973,410.875 403.975,410.84C404.031,410.011 404.145,409.206 404.107,408.371C404.104,408.279 404.062,408.215 404.006,408.173C403.964,408.137 403.911,408.11 403.844,408.108C402.182,408.006 400.504,408.039 398.84,408.01C397.746,407.99 396.649,407.969 395.555,407.937C394.999,407.92 394.367,407.973 393.822,407.851C393.705,407.826 393.612,407.873 393.554,407.946C393.519,407.987 393.493,408.041 393.486,408.108C393.41,408.975 393.315,409.835 393.311,410.707C393.31,410.85 393.402,410.933 393.511,410.956" style="fill:rgb(64,197,228);fill-rule:nonzero;"/>
        </g>
        <g transform="matrix(1,0,0,1,-89.8179,-123.681)">
            <path d="M381.512,363.645C381.913,363.409 382.192,363.07 382.503,362.722C382.964,362.21 382.647,362.554 382.396,362.873C382.215,363.103 382.048,363.342 381.889,363.588C381.879,363.608 381.88,363.626 381.886,363.644C381.761,363.645 381.637,363.645 381.512,363.645M382.361,362.157C382.354,362.159 382.347,362.162 382.341,362.166C381.954,362.471 381.681,362.874 381.337,363.22C380.779,363.782 381.626,362.698 381.54,362.799C381.688,362.623 381.809,362.453 381.916,362.246C381.945,362.191 381.884,362.119 381.826,362.157C381.616,362.291 381.464,362.433 381.291,362.618C380.834,363.109 381.237,362.361 381.306,362.143C381.307,362.137 381.304,362.132 381.304,362.126C381.657,362.126 382.008,362.14 382.361,362.157M384.548,359.118C384.304,359.291 384.057,359.45 383.793,359.585C383.8,359.429 383.81,359.273 383.824,359.117C384.065,359.102 384.306,359.106 384.548,359.118M387.191,362.374C387.314,362.379 387.438,362.385 387.56,362.395C387.152,362.71 386.685,363.072 386.365,363.45C386.67,363.09 386.978,362.781 387.191,362.374M385.466,363.929C385.431,363.929 385.403,363.935 385.375,363.945C385.803,363.624 386.16,363.228 386.531,362.835C386.777,362.577 387.299,362.165 386.638,362.951C386.407,363.224 386.159,363.478 385.945,363.766C385.904,363.823 385.982,363.891 386.035,363.857C386.424,363.608 386.752,363.304 387.084,362.983C387.211,362.863 387.61,362.548 387.319,362.995C387.143,363.261 386.917,363.499 386.737,363.766C386.707,363.813 386.758,363.885 386.813,363.865C387.031,363.779 387.619,363.311 387.524,363.695C387.503,363.777 387.632,363.813 387.651,363.729C387.669,363.662 387.686,363.593 387.703,363.524C387.692,363.665 387.685,363.803 387.68,363.945C386.94,363.982 386.206,363.935 385.466,363.929M383.681,366.565C383.683,366.481 383.685,366.395 383.685,366.311C384.09,366.145 384.421,365.859 384.782,365.618C384.581,365.851 384.339,366.052 384.181,366.323C384.155,366.369 384.2,366.442 384.257,366.419C384.373,366.373 384.484,366.321 384.597,366.263C384.703,366.206 384.813,366.155 384.925,366.109C385.127,366.03 385.053,366.254 385.053,366.356C385.053,366.395 385.082,366.416 385.113,366.418C385.116,366.488 385.123,366.556 385.128,366.625C384.646,366.603 384.161,366.552 383.681,366.565M385.343,361.291C385.353,361.282 385.359,361.272 385.362,361.258C385.361,361.41 385.362,361.56 385.366,361.71C385.361,361.71 385.356,361.71 385.351,361.715C384.605,362.27 383.855,362.802 383.223,363.489C383.164,363.551 383.258,363.645 383.316,363.583C383.571,363.305 383.837,363.054 384.124,362.81C384.333,362.638 384.548,362.471 384.766,362.31C384.776,362.304 384.785,362.297 384.794,362.291C384.4,362.763 384.071,363.291 383.617,363.719C383.595,363.686 383.566,363.664 383.532,363.645C383.494,363.621 383.447,363.606 383.392,363.606C383.235,363.608 383.079,363.611 382.923,363.614C383.645,362.75 384.469,362 385.343,361.291M384.461,361.716C383.837,362.318 383.197,362.821 382.772,363.588C382.766,363.6 382.764,363.611 382.764,363.621C382.521,363.626 382.278,363.636 382.034,363.642C382.852,363.035 383.761,362.393 384.461,361.716M384.845,360.621C385.512,360.203 384.776,360.957 384.646,361.079C384.399,361.311 384.102,361.499 383.807,361.674C383.802,361.546 383.797,361.417 383.792,361.289C384.164,361.103 384.487,360.844 384.845,360.621M384.88,359.75C385.397,359.354 384.503,360.318 384.391,360.424C384.191,360.619 383.984,360.798 383.783,360.988C383.78,360.841 383.778,360.695 383.776,360.548C384.183,360.353 384.51,360.034 384.88,359.75M384.213,359.627C384.071,359.778 383.922,359.919 383.778,360.064C383.78,359.955 383.783,359.846 383.787,359.737C383.988,359.638 384.18,359.534 384.371,359.409C384.932,359.047 384.299,359.536 384.213,359.627M384.743,361.585C384.741,361.571 384.732,361.557 384.719,361.546C384.84,361.496 384.96,361.444 385.082,361.392C384.969,361.439 384.855,361.508 384.743,361.585M384.447,363.81C384.253,364.018 384.036,364.191 383.799,364.35C383.625,364.466 383.67,364.407 383.932,364.174C384.079,364.025 384.229,363.877 384.38,363.731C384.847,363.274 385.311,362.82 385.738,362.325C385.781,362.33 385.823,362.335 385.863,362.339C385.315,362.737 384.911,363.308 384.447,363.81M384.887,364.12C384.866,364.15 384.878,364.183 384.901,364.202C384.465,364.392 384.07,364.667 383.652,364.897C383.648,364.787 383.645,364.678 383.645,364.569C384.316,364.225 384.773,363.643 385.266,363.07C385.403,362.914 385.549,362.767 385.7,362.624C385.72,362.607 385.887,362.455 386.016,362.349C386.046,362.352 386.077,362.353 386.108,362.354C385.69,362.936 385.273,363.517 384.887,364.12M384.993,364.304C384.589,364.74 384.065,365.044 383.671,365.494C383.665,365.345 383.661,365.195 383.656,365.045C384.104,364.804 384.522,364.502 384.993,364.304M385.223,364.091C385.212,364.087 385.201,364.085 385.191,364.088C385.175,364.093 385.159,364.102 385.144,364.106C385.183,364.082 385.224,364.054 385.262,364.025L385.262,364.028C385.246,364.046 385.232,364.067 385.223,364.091M383.678,365.696C384.119,365.455 384.486,365.112 384.944,364.907C384.597,365.38 384.116,365.722 383.685,366.119C383.685,365.977 383.682,365.837 383.678,365.696M385.179,364.745C385.165,364.717 385.137,364.697 385.102,364.706C384.684,364.843 384.348,365.105 383.993,365.345C384.385,364.974 384.85,364.682 385.199,364.264C385.195,364.424 385.189,364.585 385.179,364.745M385.61,362.31L385.611,362.31C385.291,362.527 385.008,362.931 384.733,363.205C384.367,363.565 384,363.92 383.645,364.29C383.645,364.157 383.649,364.025 383.655,363.895C384.411,363.496 384.896,362.773 385.61,362.31M385.371,361.879C385.373,361.936 385.374,361.993 385.377,362.048C385.377,362.058 385.381,362.065 385.381,362.075C385.377,362.145 385.402,362.215 385.46,362.258C384.873,362.65 384.433,363.22 383.854,363.631C384.42,363.197 384.833,362.416 385.371,361.879M384.43,366.198C384.641,365.932 384.915,365.718 385.089,365.421C385.123,365.361 385.056,365.298 384.999,365.33C384.66,365.511 384.369,365.766 384.049,365.972C384.461,365.616 384.884,365.275 385.173,364.806C385.15,365.185 385.117,365.561 385.108,365.939C384.861,365.97 384.649,366.091 384.43,366.198M387.72,363.311C387.704,363.296 387.683,363.287 387.658,363.296C387.469,363.37 386.9,363.737 387.271,363.272C387.487,363.003 387.643,362.743 387.738,362.416C387.751,362.416 387.764,362.418 387.778,362.421C387.766,362.718 387.744,363.014 387.72,363.311M386.833,362.369C386.436,362.722 386.086,363.125 385.706,363.502C385.529,363.676 385.335,363.834 385.126,363.972C385.27,363.873 385.426,363.543 385.525,363.398C385.765,363.046 386.016,362.705 386.264,362.362C386.454,362.367 386.645,362.367 386.833,362.369M385.363,359.162C385.395,359.854 385.365,360.544 385.362,361.236C385.355,361.2 385.318,361.166 385.28,361.179C384.953,361.299 384.639,361.438 384.319,361.573C384.136,361.65 383.554,361.99 384.085,361.659C384.601,361.335 385.067,360.938 385.353,360.395C385.378,360.347 385.337,360.279 385.28,360.299C385.012,360.388 384.799,360.492 384.558,360.643C384.414,360.733 383.477,361.459 383.924,361.025C384.424,360.539 384.938,360.145 385.265,359.514C385.296,359.455 385.235,359.392 385.175,359.424C384.662,359.688 384.275,360.128 383.775,360.406L383.775,360.333C383.967,360.136 384.183,359.84 384.306,359.721C384.492,359.539 384.642,359.342 384.785,359.13C384.978,359.143 385.171,359.155 385.363,359.162M383.059,362.185C383.225,362.191 383.391,362.195 383.555,362.196C383.614,362.196 383.662,362.181 383.701,362.156C383.774,362.116 383.825,362.043 383.82,361.931C383.819,361.912 383.819,361.893 383.817,361.874C384.044,361.811 384.265,361.733 384.481,361.645C384.007,361.945 383.557,362.275 383.116,362.624C382.829,362.852 382.348,363.12 382.15,363.429C382.416,363.017 382.743,362.642 383.052,362.26C383.069,362.237 383.07,362.208 383.059,362.185M381.726,363.154C381.911,362.838 382.2,362.544 382.435,362.26C382.468,362.221 382.45,362.177 382.418,362.159C382.592,362.166 382.765,362.174 382.941,362.181C382.609,362.411 382.35,362.694 382.084,362.996C381.94,363.16 381.307,363.874 381.726,363.154M380.968,362.234L380.968,362.13C381.019,362.129 381.073,362.126 381.125,362.126C381.073,362.162 381.019,362.198 380.968,362.234M380.951,362.857C380.957,362.695 380.965,362.534 380.968,362.371C380.976,362.371 380.985,362.37 380.994,362.366C381.297,362.24 381.055,362.587 380.951,362.857M380.947,363.064C380.969,363.078 380.998,363.078 381.024,363.054C381.2,362.903 382.103,361.902 381.446,362.706C381.254,362.942 381.084,363.165 380.953,363.438C380.946,363.311 380.945,363.189 380.947,363.064M381.353,363.643C381.224,363.639 381.095,363.632 380.968,363.624C380.967,363.616 380.965,363.609 380.964,363.6C380.979,363.603 380.994,363.601 381.011,363.593C381.285,363.443 381.497,363.238 381.697,363.019C381.568,363.191 381.449,363.382 381.354,363.606C381.349,363.621 381.35,363.632 381.353,363.643M383.144,366.779C383.139,366.882 383.183,366.954 383.247,366.994C383.287,367.064 383.36,367.111 383.467,367.103C384.115,367.057 384.769,367.156 385.415,367.162C385.604,367.164 385.687,367.004 385.668,366.862C385.672,366.835 385.675,366.809 385.671,366.779C385.575,366.008 385.69,365.234 385.721,364.462C386.46,364.476 387.192,364.515 387.932,364.458C387.978,364.456 388.016,364.443 388.049,364.424C388.132,364.388 388.196,364.313 388.198,364.195C388.206,363.525 388.31,362.865 388.315,362.196C388.315,362.181 388.313,362.167 388.311,362.156C388.311,362.148 388.311,362.143 388.31,362.137C388.3,362.044 388.241,361.964 388.121,361.942C387.384,361.799 386.638,361.9 385.898,361.817C385.869,360.847 385.948,359.875 385.88,358.905C385.876,358.859 385.862,358.822 385.844,358.788C385.806,358.706 385.731,358.643 385.615,358.641C384.936,358.633 384.256,358.525 383.579,358.609C383.516,358.618 383.465,358.644 383.425,358.679C383.368,358.722 383.324,358.787 383.315,358.874C383.223,359.787 383.237,360.74 383.279,361.662C382.442,361.643 381.6,361.566 380.764,361.609C380.714,361.612 380.671,361.626 380.636,361.649C380.517,361.662 380.415,361.744 380.427,361.9C380.482,362.582 380.364,363.261 380.479,363.942C380.503,364.082 380.607,364.137 380.715,364.131C380.723,364.131 380.729,364.133 380.736,364.135C381.526,364.214 382.324,364.154 383.119,364.139C383.099,365.019 383.192,365.9 383.144,366.779" style="fill:rgb(64,197,228);fill-rule:nonzero;"/>
        </g>
        <g transform="matrix(1,0,0,1,-89.8179,-123.681)">
            <path d="M447.5,430L332.91,430L301.978,466.695L284,642L449.81,642L447.5,430Z" style="fill:rgb(46,62,82);fill-rule:nonzero;"/>
        </g>
        <g transform="matrix(1,0,0,1,-89.8179,-123.681)">
            <path d="M375.309,430L489.899,430L520.831,466.695L538.809,642L372.999,642L375.309,430Z" style="fill:rgb(46,62,82);fill-rule:nonzero;"/>
        </g>
        <g transform="matrix(1,0,0,1,-89.8179,-123.681)">
            <path d="M389,421L389,448.458L412,451.998L412,421L389,421Z" style="fill:rgb(240,214,193);fill-rule:nonzero;"/>
        </g>
        <g transform="matrix(1,0,0,1,-89.8179,-123.681)">
            <path d="M393.296,341L374.831,341C374.831,341 369,340.476 369,345.701L369,361.38C369,361.38 372,369.743 361,369.743L361,387.813L385.651,421L412,421L412,396L412,337.129C407,339.184 400.669,341 393.296,341" style="fill:rgb(254,225,201);fill-rule:nonzero;"/>
        </g>
        <g transform="matrix(1,0,0,1,-89.8179,-123.681)">
            <path d="M382.497,295.167C366.5,295.167 361,319.793 361,319.793L361,369.743C372,369.743 369,361.38 369,361.38L369,345.701C369,340.476 374.831,341 374.831,341L393.296,341C400.669,341 407,339.184 412,337.129L412,315L412,295.167L382.497,295.167Z" style="fill:rgb(46,62,82);fill-rule:nonzero;"/>
        </g>
        <g transform="matrix(1,0,0,1,-89.8179,-123.681)">
            <path d="M433,448.458L433,421L412,421L412,451.998L433,448.458Z" style="fill:rgb(221,192,172);fill-rule:nonzero;"/>
        </g>
        <g transform="matrix(1,0,0,1,-89.8179,-123.681)">
            <path d="M453,363.818L453,330.72C453,330.72 453.223,324 449.043,324L425.002,324C425.002,324 423,332.193 412,337.129L412,421L440.119,421L463,387.812L463,369.743C463,369.743 453,366.672 453,363.818" style="fill:rgb(240,214,193);fill-rule:nonzero;"/>
        </g>
        <g transform="matrix(1,0,0,1,-89.8179,-123.681)">
            <path d="M440.332,295.167L412,295.167L412,337.129C423,332.193 425.002,324 425.002,324L449.043,324C453.223,324 453,330.721 453,330.721L453,363.818C453,366.672 463,369.743 463,369.743L463,324.691L463,318.513C463,300.166 440.332,295.167 440.332,295.167" style="fill:rgb(33,45,58);fill-rule:nonzero;"/>
        </g>
        <g transform="matrix(1,0,0,1,-89.8179,-123.681)">
            <rect x="103" y="640" width="615" height="19" style="fill:rgb(199,178,153);fill-rule:nonzero;"/>
        </g>
        <g transform="matrix(1,0,0,1,-89.8179,-123.681)">
            <path d="M389,423.286L376.643,430L400.5,471.544L412,451.998L389,423.286Z" style="fill:rgb(245,255,254);fill-rule:nonzero;"/>
        </g>
        <g transform="matrix(1,0,0,1,-89.8179,-123.681)">
            <path d="M434,423.286L448.482,435.963L422.5,471.544L412,451.998L434,423.286Z" style="fill:rgb(245,255,254);fill-rule:nonzero;"/>
        </g>
        <g transform="matrix(1,0,0,1,-89.8179,-123.681)">
            <path d="M412,451.998L397.822,476.095L405.156,483L399.312,536L411,536L412,451.998Z" style="fill:rgb(238,74,59);fill-rule:nonzero;"/>
        </g>
        <g transform="matrix(1,0,0,1,-89.8179,-123.681)">
            <path d="M412,451.998L425.188,475.812L416.711,483L422.51,536L411,536L412,451.998Z" style="fill:rgb(226,58,51);fill-rule:nonzero;"/>
        </g>
        <g transform="matrix(1,0,0,1,-89.8179,-123.681)">
            <path d="M412,492L326.183,492C315.299,492 307,500.608 307,511.492L307,613.583C307,624.467 315.299,634 326.183,634L412,634L412,492Z" style="fill:white;fill-rule:nonzero;"/>
        </g>
        <g transform="matrix(1,0,0,1,-89.8179,-123.681)">
            <path d="M327.077,634L309.375,634C308.383,634 307.578,635.292 307.578,637C307.578,638.708 308.383,640 309.375,640L412,640L412,634L327.077,634Z" style="fill:rgb(242,242,242);fill-rule:nonzero;"/>
        </g>
        <g transform="matrix(1,0,0,1,-89.8179,-123.681)">
            <path d="M495.656,634C506.541,634 517,624.467 517,613.583L517,511.492C517,500.608 506.541,492 495.656,492L412,492L412,634L495.656,634Z" style="fill:white;fill-rule:nonzero;"/>
        </g>
        <g transform="matrix(1,0,0,1,-89.8179,-123.681)">
            <path d="M514.262,637C514.262,635.292 513.459,634 512.465,634L494.762,634L412,634L412,640L512.465,640C513.459,640 514.262,638.708 514.262,637" style="fill:white;fill-rule:nonzero;"/>
        </g>
        <g transform="matrix(1,0,0,1,-89.8179,-123.681)">
            <path d="M398.365,556.586C398.365,564.176 404.445,570.336 412,570.486L412,542.686C404.445,542.836 398.365,548.996 398.365,556.586" style="fill:rgb(230,230,230);fill-rule:nonzero;"/>
        </g>
        <g transform="matrix(1,0,0,1,-89.8179,-123.681)">
            <path d="M426.193,556.586C426.193,548.901 419.964,542.672 412.279,542.672C412.184,542.672 412.093,542.684 412,542.686L412,570.486C412.093,570.488 412.184,570.5 412.279,570.5C419.964,570.5 426.193,564.271 426.193,556.586" style="fill:rgb(179,179,179);fill-rule:nonzero;"/>
        </g>
        <g transform="matrix(1,0,0,1,-89.8179,-123.681)">
            <g opacity="0.600006">
                <path d="M408,373.65C408,374.948 407.104,376 406,376L376,376C374.896,376 374,374.948 374,373.65L374,360.349C374,359.051 374.896,358 376,358L406,358C407.104,358 408,359.051 408,360.349L408,373.65Z" style="fill:white;fill-rule:nonzero;"/>
            </g>
        </g>
        <g transform="matrix(1,0,0,1,-89.8179,-123.681)">
            <g opacity="0.600006">
                <path d="M449,372.749C449,373.992 448.121,375 447.037,375L417.963,375C416.879,375 416,373.992 416,372.749L416,360.251C416,359.008 416.879,358 417.963,358L447.037,358C448.121,358 449,359.008 449,360.251L449,372.749Z" style="fill:white;fill-rule:nonzero;"/>
            </g>
        </g>
        <g transform="matrix(1,0,0,1,-89.8179,-123.681)">
            <path d="M406,375L376,375C375.458,375 375,374.382 375,373.65L375,360.35C375,359.618 375.458,359 376,359L405.5,359C406.328,359 407,359.828 407,360.85L407,373.65C407,374.382 406.542,375 406,375M406,357L376,357C374.346,357 373,358.502 373,360.35L373,374.15C373,375.724 374.119,377 375.5,377L406,377C407.654,377 409,375.498 409,373.65L409,360.35C409,358.502 407.654,357 406,357" style="fill:rgb(91,89,89);fill-rule:nonzero;"/>
        </g>
        <g transform="matrix(1,0,0,1,-89.8179,-123.681)">
            <path d="M447,375L417,375C416.458,375 416,374.382 416,373.65L416,360.35C416,359.618 416.458,359 417,359L446.5,359C447.328,359 448,359.828 448,360.85L448,373.65C448,374.382 447.542,375 447,375M447,357L417,357C415.346,357 414,358.502 414,360.35L414,374.15C414,375.724 415.119,377 416.5,377L447,377C448.654,377 450,375.498 450,373.65L450,360.35C450,358.502 448.654,357 447,357" style="fill:rgb(91,89,89);fill-rule:nonzero;"/>
        </g>
        <g transform="matrix(1,0,0,1,-89.8179,-123.681)">
            <path d="M375,366.77C375,367.45 374.58,368 374.063,368L361.937,368C361.42,368 361,367.45 361,366.77L361,366.231C361,365.551 361.42,365 361.937,365L374.063,365C374.58,365 375,365.551 375,366.231L375,366.77Z" style="fill:rgb(91,89,89);fill-rule:nonzero;"/>
        </g>
        <g transform="matrix(1,0,0,1,-89.8179,-123.681)">
            <path d="M463,366.77C463,367.45 462.58,368 462.063,368L449.937,368C449.42,368 449,367.45 449,366.77L449,366.231C449,365.551 449.42,365 449.937,365L462.063,365C462.58,365 463,365.551 463,366.231L463,366.77Z" style="fill:rgb(91,89,89);fill-rule:nonzero;"/>
        </g>
        <g transform="matrix(1,0,0,1,-89.8179,-123.681)">
            <path d="M416,366.77C416,367.45 415.761,368 415.465,368L408.535,368C408.239,368 408,367.45 408,366.77L408,366.231C408,365.551 408.239,365 408.535,365L415.465,365C415.761,365 416,365.551 416,366.231L416,366.77Z" style="fill:rgb(91,89,89);fill-rule:nonzero;"/>
        </g>
    </g>
</svg>
