<?xml version="1.0" standalone="no"?><!DOCTYPE svg PUBLIC "-//W3C//DTD SVG 1.1//EN" "http://www.w3.org/Graphics/SVG/1.1/DTD/svg11.dtd"><svg width="100%" height="100%" viewBox="0 0 472 416" version="1.1" xmlns="http://www.w3.org/2000/svg" xmlns:xlink="http://www.w3.org/1999/xlink" xml:space="preserve" style="fill-rule:evenodd;clip-rule:evenodd;stroke-linecap:round;"><path d="M359.317,243.356c0,0 28.204,-17.52 40.686,0.96c0,0 13.492,-31.741 44.302,-12.004c0,0 -0.509,-28.027 20.847,-28.427c0,0 -19.359,-24.748 2.015,-40.143c0,0 -40.114,2.552 -38.308,-27.296c0,0 -26.81,37.44 -44.057,3.563c0,0 -9.055,41.101 -41.681,22.618c0,0 15.703,22.472 -21.023,49.914c0,0 42.008,-5.027 37.219,30.815" style="fill:#000;fill-rule:nonzero;"/><path d="M394.662,241.509c-4.832,-7.155 -12.752,-9.494 -23.539,-6.952c-8.39,1.977 -15.424,6.301 -15.494,6.344l-2.194,1.361l0.342,-2.558c1.232,-9.218 -0.636,-16.422 -5.553,-21.41c-10.147,-10.295 -30.112,-8.056 -30.313,-8.031l-4.521,0.536l3.647,-2.725c14.651,-10.948 22.876,-22.772 23.785,-34.195c0.681,-8.56 -2.996,-13.991 -3.034,-14.045l-3.023,-4.376l4.626,2.619c7.205,4.08 13.76,5.465 19.487,4.116c7.924,-1.868 13.032,-8.753 15.921,-14.199c3.195,-6.023 4.469,-11.681 4.481,-11.739l0.735,-3.32l1.543,3.03c5.392,10.592 12.245,14.992 20.368,13.078c11.398,-2.686 21.511,-16.655 21.611,-16.796l2.466,-3.442l-0.257,4.225c-0.421,6.96 1.523,12.641 5.778,16.886c10.332,10.308 31.028,9.132 31.236,9.119l4.222,-0.265l-3.432,2.472c-5.386,3.879 -8.526,8.721 -9.333,14.392c-1.707,11.992 7.472,23.89 7.565,24.009l1.506,1.925l-2.444,0.046c-1.488,0.027 -2.916,0.2 -4.244,0.513c-15.617,3.68 -15.411,26.444 -15.407,26.674l0.039,2.275l-1.916,-1.226c-8.5,-5.446 -16.407,-7.359 -23.501,-5.687c-12.89,3.037 -18.96,16.999 -19.02,17.141l-0.877,2.063l-1.256,-1.858Z" style="fill:#fff;fill-rule:nonzero;"/><path d="M379.554,129.342l-1.465,6.652c-0.073,0.325 -4.994,21.596 -19.491,25.013c-5.418,1.276 -11.678,-0.067 -18.605,-3.992l-9.371,-5.308l6.169,8.828c1.209,1.772 3.364,6.872 2.802,13.411c-0.946,11.011 -8.998,22.475 -23.286,33.152l-7.307,5.459l9.057,-1.084c0.193,-0.023 19.588,-2.184 29.304,7.682c4.634,4.706 6.386,11.565 5.208,20.388l-0.685,5.121l4.389,-2.726c0.067,-0.043 6.948,-4.267 15.129,-6.195c10.244,-2.413 17.729,-0.244 22.249,6.449l2.511,3.716l1.755,-4.128c0.056,-0.131 5.94,-13.547 18.178,-16.431c6.76,-1.593 14.352,0.267 22.563,5.527l3.837,2.458l-0.083,-4.556c0,-0.054 -0.069,-5.769 1.808,-11.808c2.376,-7.641 6.634,-12.236 12.66,-13.656c1.243,-0.293 2.586,-0.455 3.987,-0.481l4.887,-0.092l-3.011,-3.849c-0.089,-0.114 -8.959,-11.663 -7.316,-23.108c0.764,-5.32 3.737,-9.88 8.835,-13.552l6.875,-4.951l-8.455,0.538c-0.201,0.012 -20.37,1.145 -30.301,-8.771c-3.993,-3.987 -5.816,-9.351 -5.418,-15.944l0.513,-8.451l-4.929,6.883c-0.098,0.137 -9.973,13.745 -20.901,16.32c-7.61,1.793 -13.826,-2.277 -19.001,-12.444l-3.091,-6.07ZM380.471,136.519c6.532,12.829 14.435,15.431 21.735,13.71c11.974,-2.821 22.323,-17.272 22.323,-17.272c-1.807,29.848 38.308,27.295 38.308,27.295c-21.374,15.395 -2.015,40.142 -2.015,40.142c-1.625,0.031 -3.121,0.221 -4.502,0.546c-16.778,3.954 -16.346,27.882 -16.346,27.882c-9.89,-6.335 -17.991,-7.366 -24.439,-5.846c-13.639,3.213 -19.863,17.85 -19.863,17.85c-6.194,-9.171 -16.259,-9.476 -24.829,-7.457c-8.698,2.05 -15.857,6.496 -15.857,6.496c4.79,-35.842 -37.219,-30.813 -37.219,-30.813c36.726,-27.443 21.023,-49.914 21.023,-49.914c8.203,4.646 14.914,5.527 20.368,4.242c16.238,-3.827 21.313,-26.861 21.313,-26.861" style="fill:#000;fill-rule:nonzero;"/><path d="M395.413,238.06c-5.546,-6.547 -14.099,-8.661 -24.906,-6.114c-5.805,1.368 -10.889,3.742 -13.778,5.261c0.616,-8.744 -1.599,-15.733 -6.601,-20.803c-4.613,-4.676 -11.718,-7.679 -20.548,-8.685c-2.752,-0.313 -5.258,-0.39 -7.26,-0.372c9.812,-8.039 20.178,-19.671 21.19,-33.436c0.358,-4.875 -0.541,-8.805 -1.522,-11.504c6.313,2.844 12.186,3.651 17.505,2.397c7.063,-1.665 13.185,-7.061 17.704,-15.606c1.776,-3.357 2.975,-6.557 3.718,-8.862c5.771,9.536 13.034,13.343 21.627,11.318c8.826,-2.08 16.638,-9.972 20.546,-14.541c0.437,5.869 2.631,10.803 6.547,14.709c4.728,4.713 11.783,7.809 20.969,9.203c3.138,0.475 5.969,0.661 8.125,0.722c-4.027,3.822 -6.434,8.352 -7.169,13.51c-1.43,10.046 3.853,19.679 6.584,23.867c-0.739,0.097 -1.461,0.227 -2.159,0.392c-7.395,1.742 -12.766,7.42 -15.53,16.418c-1.248,4.066 -1.698,7.912 -1.859,10.334c-8.329,-4.828 -16.191,-6.415 -23.397,-4.717c-11.071,2.609 -17.407,12.141 -19.786,16.509" style="fill:#fff;fill-rule:nonzero;"/><path d="M380.471,136.519c0,0 -5.075,23.035 -21.313,26.861c-5.454,1.285 -12.165,0.404 -20.368,-4.242c0,0 15.703,22.471 -21.024,49.914c0,0 42.01,-5.029 37.22,30.813c0,0 7.158,-4.446 15.857,-6.496c8.57,-2.019 18.635,-1.714 24.829,7.457c0,0 6.224,-14.637 19.863,-17.85c6.448,-1.52 14.549,-0.489 24.439,5.846c0,0 -0.433,-23.928 16.346,-27.882c1.381,-0.325 2.877,-0.515 4.501,-0.546c0,0 -19.358,-24.747 2.016,-40.142c0,0 -40.115,2.552 -38.308,-27.296c0,0 -10.349,14.452 -22.323,17.273c-7.3,1.72 -15.203,-0.881 -21.735,-13.71M381.33,143.602c4.674,6.514 11.648,11.809 21.547,9.477c7.785,-1.835 14.765,-7.939 19.174,-12.626c0.927,4.828 3.117,8.981 6.551,12.405c7.509,7.485 19.241,9.632 26.888,10.196c-2.941,3.519 -4.765,7.438 -5.401,11.902c-1.31,9.205 2.771,18.204 5.638,22.918c-0.042,0.009 -0.082,0.019 -0.123,0.028c-7.929,1.869 -13.644,7.985 -16.569,17.508c-0.948,3.082 -1.439,6.095 -1.705,8.447c-7.934,-4.157 -15.472,-5.405 -22.472,-3.754c-10.285,2.423 -16.659,10.509 -19.716,15.499c-5.898,-5.814 -14.432,-7.571 -24.972,-5.087c-4.648,1.095 -8.848,2.824 -11.878,4.271c0.079,-8.016 -2.306,-14.529 -7.122,-19.412c-6.988,-7.083 -17.512,-9.017 -24.953,-9.413c5.425,-4.805 9.721,-9.743 12.818,-14.746c3.517,-5.683 5.514,-11.469 5.935,-17.197c0.259,-3.53 -0.115,-6.601 -0.717,-9.11c5.54,2.011 10.757,2.456 15.576,1.321c12.199,-2.875 18.603,-14.96 21.501,-22.627" style="fill:#29abe2;fill-rule:nonzero;"/><path d="M398.528,211.378l-3.318,-0.3l2.255,-2.451l-0.74,-3.248l3.027,1.388l2.861,-1.708l-0.384,3.309l2.508,2.192l-3.265,0.657l-1.311,3.063l-1.633,-2.902Z" style="fill:#ed1c24;fill-rule:nonzero;stroke-width:1.5px;stroke:#000;"/><path d="M386.811,222.564l-4.57,1.039l1.955,-4.258l-2.4,-4.026l4.655,0.542l3.087,-3.526l0.922,4.595l4.308,1.846l-4.086,2.296l-0.423,4.667l-3.448,-3.175Z" style="fill:#fcee21;fill-rule:nonzero;stroke-width:1.5px;stroke-linecap:butt;stroke-miterlimit:10;stroke:#000;"/><path d="M381.291,160.375l-2.951,-3.136l4.282,-0.434l2.069,-3.777l1.738,3.938l4.23,0.801l-3.209,2.871l0.547,4.27l-3.721,-2.165l-3.894,1.839l0.909,-4.207Z" style="fill:#ed1c24;fill-rule:nonzero;stroke-width:1.5px;stroke:#000;"/><path d="M423.222,208.575l-4.109,-2.253l4.289,-1.89l0.874,-4.605l3.123,3.494l4.65,-0.59l-2.359,4.05l1.998,4.239l-4.58,-0.992l-3.414,3.211l-0.472,-4.664Z" style="fill:#29abe2;fill-rule:nonzero;stroke-width:1.5px;stroke-linecap:butt;stroke-miterlimit:10;stroke:#000;"/><path d="M361.517,176.627l0.274,2.829l-2.412,-1.503l-2.605,1.135l0.684,-2.759l-1.884,-2.127l2.834,-0.201l1.441,-2.45l1.069,2.634l2.774,0.613l-2.175,1.829Z" style="fill:#fcee21;fill-rule:nonzero;stroke-width:1.5px;stroke-linecap:butt;stroke-miterlimit:10;stroke:#000;"/><path id="_234504504_" d="M454.212,166.073l2.835,2.124c1.741,1.285 0.113,3.468 -1.515,2.287l-4.171,-2.984l-0.09,3.669c-0.064,2.373 -2.81,3.241 -2.833,0.702c-0.115,-1.374 0.231,-12.245 0.283,-14.278c0.019,-3.205 2.985,-3.109 2.907,-0.409l-0.217,8.33l1.863,-2.898c1.57,-2.42 3.697,-0.806 2.368,1.265l-1.43,2.192l0,0ZM344.605,194.755c0.591,-1.829 0.107,-3.157 -0.426,-4.901c-0.682,-1.57 -1.47,-2.5 -2.892,-3.4c-0.766,-0.315 -1.385,-0.615 -2.232,-0.679c-1.959,-0.146 -4.31,0.598 -5.599,2.137c-1.094,1.307 -1.637,2.621 -1.559,4.37c0.107,2.418 1.374,5.134 3.634,6.213c-0.465,0.129 -0.966,0.269 -1.514,0.425c-2.12,3.298 -1.973,7.455 1.223,10.02c-0.08,0.286 -0.11,0.673 -0.438,0.793c-4.888,2.238 -3.745,8.922 2.171,8.874c1.619,0.139 13.972,-4.296 19.441,-7.227c4.814,-3.045 0.979,-10.364 -4.041,-8.201c-0.29,0.15 -0.571,-0.078 -0.821,-0.203c0.806,-3.951 -1.767,-7.521 -5.597,-8.515c-0.56,0.288 -1.073,0.548 -1.55,0.784c-0.004,0.012 0.146,-0.323 0.2,-0.49l0,0ZM423.281,180.404l1.366,-0.514c1.623,-0.611 2.423,0.675 1.739,1.761c-0.594,0.959 -4.099,2.196 -4.995,1.867c-0.957,-0.344 -1.04,-1.339 -1.016,-2.213c0.019,-0.638 0.192,-3.048 0.021,-3.504c-0.437,-1.16 -1.618,-0.262 -2.001,0.506c-0.598,1.183 -0.454,4.013 -0.489,5.406c-0.033,1.187 -0.456,1.933 -1.261,2.236c-0.591,0.223 -1.302,-0.005 -1.533,-0.62c-0.436,-1.158 0.594,-6.615 -1.102,-5.976c-1.71,0.617 -1.334,2.885 -1.396,6.343c-0.035,1.192 -0.449,1.939 -1.246,2.239c-1.39,0.524 -1.682,-0.8 -1.657,-1.819l0.168,-6.495c0.162,-2.276 1.709,-2.533 2.602,-1.257c1.013,-1.842 2.928,-3.167 4.874,-1.557c0.729,-1.711 2.569,-3.198 4.48,-2.493c1.153,0.419 1.565,1.441 1.536,2.591l-0.09,3.499l0,0ZM429.436,170.723c4.652,-1.751 6.921,3.956 4.854,7.456c-1.516,2.523 -6.621,3.94 -8.133,-0.077c-1.131,-3.005 0.364,-6.136 3.279,-7.379l0,0ZM444.812,172.3c0.931,-0.351 2.736,-1.353 3.228,-0.045c0.735,1.953 -2.504,2.637 -3.788,3.12c-3.051,1.148 -2.098,-3.013 -2.273,-5.052c-0.514,-1.998 -2.311,-1.313 -2.382,1.448l-0.104,3.844c-0.047,2.374 -2.315,2.949 -2.818,1.612c-0.35,-0.93 0.043,-6.681 0.072,-7.8c0.061,-1.976 1.594,-2.4 2.67,-1.385c0.584,-0.938 1.247,-1.546 1.989,-1.825c1.309,-0.493 2.786,-0.137 3.312,1.259c0.367,0.977 0.123,3.687 0.094,4.824l0,0Z" style="fill:#000;fill-rule:nonzero;"/><path id="_25685480_" d="M335.455,209.848c0.32,-0.037 0.642,-0.057 0.964,-0.064c-0.263,-0.158 -0.523,-0.317 -0.779,-0.482c-0.058,0.183 -0.119,0.364 -0.185,0.546l0,0ZM401.029,182.163c0.64,-0.738 1.221,-1.208 1.739,-1.403c1.315,-0.495 2.809,-0.183 3.343,1.234c0.381,1.012 0.148,3.66 0.122,4.826l1.323,-0.498c1.62,-0.609 2.417,0.68 1.735,1.764c-0.537,0.866 -2.62,1.434 -3.598,1.802c-0.848,0.319 -1.931,0.134 -2.28,-0.796c-0.282,-0.748 -0.082,-3.251 -0.058,-4.155c0.011,-0.836 -0.149,-1.545 -1.207,-1.147c-0.782,0.295 -1.19,1.21 -1.221,2.746l-0.099,3.646c-0.062,2.409 -2.536,3.245 -2.866,0.411l0.356,-14.227c0.176,-3.132 2.785,-3.137 2.868,-0.407l-0.157,6.204l0,0ZM366.539,194.58l1.587,-0.597c0.519,-0.196 0.937,-0.242 1.252,-0.139l0.022,-0.811c0.023,-0.892 0.32,-1.448 0.893,-1.663c0.569,-0.215 1.019,-0.079 1.351,0.41c0.122,0.175 0.345,0.567 0.562,0.586c0.112,0.012 0.344,-0.049 0.706,-0.185l2.693,-1.013c1.001,-0.377 1.637,-0.213 1.901,0.49c0.367,0.973 -0.086,1.7 -1.358,2.179l-0.083,0.161c-0.782,1.625 -1.051,2.757 -0.811,3.393c0.478,1.27 1.946,0.357 2.868,0.01c1.635,-0.615 2.431,0.672 1.746,1.759c-0.534,0.862 -2.571,1.416 -3.542,1.782c-1.653,0.621 -3.093,-0.296 -3.686,-1.872c-0.514,-1.367 -0.02,-2.803 0.485,-4.096l-1.198,0.451l0,0c-0.024,0.932 0.111,2.531 -0.922,2.92c-1.615,0.608 -1.721,-0.953 -1.692,-2.038c-0.787,0.407 -2.056,0.867 -2.842,1.163l-0.371,14.676c-0.185,2.965 -2.945,2.831 -2.919,0.413l0.369,-13.99l-0.786,0.296c-0.973,0.366 -1.586,0.216 -1.837,-0.452c-0.179,-0.475 -0.149,-0.907 0.092,-1.303c0.243,-0.391 0.672,-0.705 1.284,-0.936l1.312,-0.493l0.109,-4.152c0.04,-1.382 0.306,-2.45 0.804,-3.212c0.864,-1.321 2.387,-1.759 3.784,-2.284c0.981,-0.37 1.599,-0.217 1.853,0.458c0.428,1.137 -0.386,1.89 -1.38,2.264c-0.649,0.244 -1.315,0.491 -1.721,1.096c-0.276,0.399 -0.424,0.957 -0.441,1.676l-0.084,3.053l0,0ZM382.525,194.762c0.216,0.573 0.756,0.697 1.623,0.371l3.416,-1.286c1.765,-0.642 2.949,1.776 0.449,2.695c-1.765,0.665 -4.576,2.119 -6.359,1.372c-2.364,-1 -2.745,-4.555 -1.88,-6.662c0.876,-2.122 3.386,-3.924 5.687,-3.076c1.794,0.66 2.511,3 1.298,4.509c-0.755,0.959 -3.044,1.629 -4.234,2.077l0,0ZM392.095,188.547c-0.032,0.888 -0.034,1.913 -1.03,2.288c-0.582,0.219 -1.391,-0.002 -1.624,-0.622c-0.265,-0.705 0.201,-3.96 0.29,-4.874c0.098,-0.884 0.425,-1.432 0.986,-1.644c1.652,-0.339 1.427,0.824 1.688,1.517c0.346,0.92 1.312,1.422 2.095,1.946c1.758,1.169 2.91,3.073 1.844,5.138c-0.928,1.781 -2.991,2.237 -4.73,2.891c-1.619,0.609 -2.431,-0.633 -1.737,-1.758c0.495,-0.79 1.757,-1.114 2.61,-1.435c1.064,-0.4 1.452,-0.99 1.161,-1.764c-0.223,-0.592 -1.07,-1.246 -1.553,-1.683l0,0ZM337.576,205.825c0.466,0.785 1.035,1.524 1.765,2.082c0.795,0.632 1.75,1.029 2.726,1.288c2.744,-3.254 4.744,-9.931 3.056,-14.02c-0.347,0.229 -0.698,0.451 -1.055,0.662c-0.229,0.383 -0.505,0.732 -0.817,1.047c-0.699,3.298 -2.961,6.939 -5.675,8.941l0,0ZM345.94,198.98c-0.136,3.684 -1.362,7.381 -3.73,10.238c0.759,0.168 1.551,0.19 2.321,0.091c1.565,-1.233 2.992,-6.343 2.654,-8.114c-0.053,-0.455 -0.825,-1.959 -1.245,-2.215l0,0ZM344.776,209.274c0.32,-0.084 0.696,-0.101 0.923,-0.376c1.974,-1.884 2.557,-4.937 1.675,-7.483c-0.013,2.943 -1.374,6.606 -2.598,7.859l0,0ZM349.519,197.217c-1.081,-1.189 -2.513,-1.923 -4.07,-2.285c-0.053,0.044 -0.158,0.129 -0.211,0.171c0.163,0.376 0.8,2.154 0.683,3.482c1.297,1.346 2.058,3.18 2.105,5.048c1.47,-1.449 2,-4.478 1.493,-6.416l0,0ZM349.61,197.318c0.503,2.035 -0.044,4.963 -1.56,6.436c-0.053,0.798 -0.13,1.599 -0.36,2.37c1.225,0.035 3.415,-1.82 3.435,-3.315c0.355,-1.905 -0.201,-4.049 -1.515,-5.491l0,0ZM350.681,204.3c-0.733,0.958 -1.921,1.971 -3.056,1.926c-0.006,0.946 2.6,0.189 3.056,-1.926ZM351.482,203.468c-0.072,0.238 -0.146,0.475 -0.226,0.71c0.224,-0.157 0.451,-0.311 0.682,-0.458c-0.039,-0.021 -0.456,-0.251 -0.456,-0.252l0,0ZM353.819,212.161c0.76,-0.317 1.514,-0.663 2.189,-1.138c0.995,-0.726 1.869,-1.746 2.113,-2.983c0.307,-1.826 -0.843,-3.71 -2.484,-4.486c-1.029,-0.485 -2.248,-0.322 -3.232,0.194c4.082,0.458 4.319,5.911 1.414,8.413l0,0ZM351.314,204.453c0.629,4.054 -4.702,9.665 -7.679,11.741c3.358,-1.271 6.976,-2.542 9.708,-3.793c3.553,-2.357 2.915,-8.531 -1.167,-8.553c-0.194,0.125 -0.866,0.613 -0.862,0.605l0,0ZM351.194,204.516c-1.479,3.078 -3.825,5.605 -8.669,6.343c-2.129,2.082 -6.557,5.164 -9.678,5.229c0.319,0.544 0.748,1.035 1.307,1.341c2.055,1.162 4.175,0.633 9.276,-1.197c2.854,-1.953 8.434,-7.836 7.764,-11.716l0,0ZM342.383,210.872c-1.407,0.113 -2.846,0.077 -4.204,-0.346c-0.53,-0.149 -1.024,-0.431 -1.582,-0.469c-1.411,-0.147 -2.875,0.587 -3.597,1.81c-0.715,1.238 -0.819,2.838 -0.171,4.126c3.134,-0.07 7.384,-3.064 9.554,-5.121l0,0Z" style="fill:#00a0e3;"/><path id="_25685288_" d="M347.464,206.536c-0.444,1.211 -1.255,2.262 -2.282,3.039c1.727,-0.699 3.258,-1.867 4.371,-3.362c-0.614,0.339 -1.434,0.854 -2.089,0.323l0,0ZM334.509,197.54c3.677,3.207 10.406,0.144 10.148,-4.967c-0.264,-1.702 -0.544,-3.102 -2.049,-4.077c-1.425,-0.923 -2.428,-0.913 -3.898,-0.024c-0.633,0.383 -0.929,1.028 -1.718,1.231c-0.718,0.184 -1.44,-0.016 -2.118,0.228c-0.868,0.312 -1.737,1.242 -2.009,2.123c-0.712,2.3 0.036,3.827 1.644,5.486l0,0ZM344.843,209.491c-3.249,0.392 -6.288,-0.767 -7.729,-3.916c-0.497,-1.163 -0.724,-2.478 -0.452,-3.725c0.011,-0.196 0.172,-0.305 0.326,-0.395c-0.321,1.673 -0.268,2.648 0.458,4.232c2.587,-1.855 4.797,-5.441 5.528,-8.54c-1.751,1.567 -4.603,2.421 -6.853,1.599c-0.498,0.088 -1,0.161 -1.503,0.216c-1.974,2.196 -2.261,6.628 0.351,9.175c2.333,2.029 7.118,3.298 9.874,1.354l0,0Z" style="fill:#fff;"/></svg>