<?xml version="1.0" standalone="no"?><!DOCTYPE svg PUBLIC "-//W3C//DTD SVG 1.1//EN" "http://www.w3.org/Graphics/SVG/1.1/DTD/svg11.dtd"><svg width="100%" height="100%" viewBox="0 0 1658 1421" version="1.1" xmlns="http://www.w3.org/2000/svg" xmlns:xlink="http://www.w3.org/1999/xlink" xml:space="preserve" style="fill-rule:evenodd;clip-rule:evenodd;stroke-linejoin:round;stroke-miterlimit:1.41421;"><path d="M743.484,389.369l0,75.681l83.443,54.334l87.325,-54.334l0,-75.681l-170.768,0Z" style="fill:#fed39e;fill-rule:nonzero;"/><path d="M743.484,389.369l0,75.681l46.046,29.985l124.722,-77.529l0,-28.137l-170.768,0Z" style="fill:#f8ba81;fill-rule:nonzero;"/><path d="M980.23,221.509c0,0 -11.64,-13.584 -17.462,1.941c0,0 36.869,-174.65 -133.9,-174.65c-170.769,0 -133.9,174.65 -133.9,174.65c-5.822,-15.525 -17.463,-1.941 -17.463,-1.941c-9.703,87.325 29.107,95.088 29.107,95.088c0,0 0,48.512 44.634,93.147c44.631,44.631 77.622,44.631 77.622,44.631c0,0 34.931,-5.819 79.562,-50.453c44.635,-44.634 42.694,-87.325 42.694,-87.325c0,0 38.809,-7.763 29.106,-95.088Z" style="fill:#fed39e;fill-rule:nonzero;"/><path d="M697.665,252.272l11.643,-52.394c0,0 11.644,-42.693 17.466,-52.397c5.819,-9.703 16.71,-21.347 16.71,-21.347c0,0 31.721,13.585 95.799,27.169c64.082,13.585 79.607,11.644 79.607,11.644l-17.466,-21.347l34.928,0c0,0 1.941,31.05 11.644,40.753c9.703,9.703 13.584,67.919 13.584,67.919l15.525,-15.525l9.703,-32.991l0,-106.728c0,0 -40.753,-97.028 -157.187,-97.028c-116.431,0 -155.244,106.728 -155.244,106.728c0,0 -7.762,91.21 0,100.91c7.763,9.703 23.288,44.634 23.288,44.634Z" style="fill:#404243;fill-rule:nonzero;"/><path d="M113.315,749.45c0,0 55.459,18.025 69.325,19.875c13.865,1.847 44.368,6.009 61.006,24.494c16.637,18.487 11.094,17.562 17.1,22.184c6.009,4.622 25.881,20.8 25.881,20.8l-59.156,55.922c0,0 -20.797,-12.941 -27.5,-14.79c-6.7,-1.847 -106.069,-21.722 -113.925,-26.807c-7.856,-5.081 -81.344,-90.122 -82.269,-92.897c-0.922,-2.772 -0.459,-7.856 2.775,-8.781c3.235,-0.922 16.175,-1.384 30.041,14.791c13.865,16.175 46.219,46.219 46.219,46.219l-44.369,-52.229c0,0 -1.85,-9.059 0,-9.15c1.847,-0.093 15.25,-1.015 30.965,14.235c15.713,15.253 47.141,55 80.416,51.765c33.278,-3.237 15.716,-21.725 15.716,-21.725c0,0 -27.732,-8.781 -34.663,-8.781c-6.934,0 -26.344,-16.637 -17.562,-35.125Z" style="fill:#fed39e;fill-rule:nonzero;"/><path d="M184.643,366.194c0,0 -47.316,-7.763 -51.05,-18.356c-0.535,-1.522 -0.616,-3.4 -0.381,-5.488c0,-0.003 19.859,-38.106 22.309,-42.059c3.819,-5.447 6.681,-11.81 2.087,-14.741c0,0 -8.462,-10.153 -19.668,6.566l-0.013,0.018c-0.484,0.56 -0.931,1.16 -1.328,1.816c-0.319,0.531 -0.634,1.053 -0.953,1.569c-3.891,5.75 -7.247,10.578 -9.888,14.312c0.85,-3.609 6.269,-27.506 2.057,-31.868c0,0 -9.557,-12.972 -14.091,-3.588c-4.531,9.381 -14.306,56.184 -14.306,56.184c0,0 22.331,76.413 52.084,68.988c29.753,-7.425 33.141,-33.353 33.141,-33.353Z" style="fill:#f8ba81;fill-rule:nonzero;"/><path d="M67.783,307.503l-11.906,-41.609c0,0 12.388,-10.775 21.131,5.381c8.744,16.156 41.16,90.85 50.71,95.425c9.553,4.575 43.034,7.744 53.194,-11.1c10.156,-18.847 20.806,-60.666 46.512,-52.212c0,0 7.341,4.847 0.222,20.178c-7.119,15.331 -29.997,85.59 -23.925,96.781c6.072,11.191 14.362,16.516 14.362,16.516l-20.246,79.5c0,0 -59.647,-9.832 -74.375,-40.372c-14.725,-30.541 -55.679,-168.488 -55.679,-168.488Z" style="fill:#fed39e;fill-rule:nonzero;"/><path d="M1473.09,366.194c0,0 47.315,-7.763 51.05,-18.356c0.534,-1.522 0.616,-3.4 0.381,-5.488c0,-0.003 -19.859,-38.106 -22.309,-42.059c-3.819,-5.447 -6.682,-11.81 -2.088,-14.741c0,0 8.463,-10.153 19.669,6.566l0.012,0.018c0.485,0.56 0.932,1.16 1.329,1.816c0.318,0.531 0.634,1.053 0.953,1.569c3.89,5.75 7.247,10.578 9.887,14.312c-0.847,-3.609 -6.269,-27.506 -2.056,-31.868c0,0 9.556,-12.972 14.091,-3.588c4.531,9.381 14.306,56.184 14.306,56.184c0,0 -22.331,76.413 -52.085,68.988c-29.753,-7.425 -33.14,-33.353 -33.14,-33.353Z" style="fill:#f8ba81;fill-rule:nonzero;"/><path d="M1589.95,307.503l11.907,-41.609c0,0 -12.388,-10.775 -21.132,5.381c-8.743,16.156 -41.159,90.85 -50.709,95.425c-9.553,4.575 -43.034,7.744 -53.194,-11.1c-10.156,-18.847 -20.806,-60.666 -46.512,-52.212c0,0 -7.341,4.847 -0.222,20.178c7.118,15.331 29.997,85.59 23.925,96.781c-6.072,11.191 -14.363,16.516 -14.363,16.516l20.247,79.5c0,0 59.647,-9.832 74.375,-40.372c14.725,-30.541 55.678,-168.488 55.678,-168.488Z" style="fill:#fed39e;fill-rule:nonzero;"/><path d="M1422.17,451.713l17.709,-16.216l83.641,53.766l-22.191,18.778l-79.159,-56.328Z" style="fill:#fdf2f7;fill-rule:nonzero;"/><path d="M235.565,451.713l-17.71,-16.216l-83.64,53.766l22.19,18.778l79.16,-56.328Z" style="fill:#fdf2f7;fill-rule:nonzero;"/><path d="M748.13,677.756l-126.859,-156.112l-228.309,44.422l-159.013,-123.866l-96.962,61.934c0,0 220.634,209.294 260.412,208.085c0.672,-0.022 1.316,-0.091 1.941,-0.191l348.79,-34.272Z" style="fill:#497098;fill-rule:nonzero;"/><path d="M909.605,677.756l126.86,-156.112l228.306,44.422l159.016,-123.866l96.962,61.934c0,0 -220.634,209.294 -260.412,208.085c-0.672,-0.022 -1.316,-0.091 -1.941,-0.191l-348.791,-34.272Z" style="fill:#375574;fill-rule:nonzero;"/><path d="M109.955,749.45c0,0 55.463,18.025 69.325,19.875c13.866,1.847 44.369,6.009 61.01,24.494c16.637,18.487 11.09,17.562 17.1,22.184c6.006,4.622 25.881,20.8 25.881,20.8l-59.159,55.922c0,0 -20.797,-12.941 -27.497,-14.79c-6.703,-1.847 -106.069,-21.722 -113.928,-26.807c-7.857,-5.081 -81.341,-90.122 -82.266,-92.897c-0.925,-2.772 -0.463,-7.856 2.772,-8.781c3.237,-0.922 16.178,-1.384 30.044,14.791c13.862,16.175 46.215,46.219 46.215,46.219l-44.369,-52.229c0,0 -1.846,-9.059 0,-9.15c1.85,-0.093 15.254,-1.015 30.966,14.235c15.716,15.253 47.141,55 80.419,51.765c33.275,-3.237 15.712,-21.725 15.712,-21.725c0,0 -27.728,-8.781 -34.662,-8.781c-6.931,0 -26.344,-16.637 -17.563,-35.125Z" style="fill:#fed39e;fill-rule:nonzero;"/><path d="M1547.78,749.45c0,0 -55.462,18.025 -69.325,19.875c-13.865,1.847 -44.368,6.009 -61.009,24.494c-16.637,18.487 -11.091,17.562 -17.1,22.184c-6.006,4.622 -25.881,20.8 -25.881,20.8l59.159,55.922c0,0 20.797,-12.941 27.497,-14.79c6.703,-1.847 106.069,-21.722 113.928,-26.807c7.856,-5.081 81.341,-90.122 82.266,-92.897c0.925,-2.772 0.462,-7.856 -2.772,-8.781c-3.238,-0.922 -16.178,-1.384 -30.041,14.791c-13.865,16.175 -46.218,46.219 -46.218,46.219l44.368,-52.229c0,0 1.85,-9.059 0,-9.15c-1.85,-0.093 -15.253,-1.015 -30.965,14.235c-15.716,15.253 -47.141,55 -80.419,51.765c-33.275,-3.237 -15.713,-21.725 -15.713,-21.725c0,0 27.728,-8.781 34.663,-8.781c6.931,0 26.344,-16.637 17.562,-35.125Z" style="fill:#fed39e;fill-rule:nonzero;"/><path d="M1334.2,833.31l47.463,-27.219l67.003,97.715l-44.669,26.522l-69.797,-97.018Z" style="fill:#fdf2f7;fill-rule:nonzero;"/><path d="M914.252,465.05l207.766,89.766l129.825,305.715l94.925,-54.443l78.172,122.847c0,0 -177.285,99.112 -185.663,99.112c-8.375,0 -8.375,4.188 -33.5,-19.544c-25.128,-23.731 -136.806,-166.119 -136.806,-166.119l0,361.554l-240.103,0l0,-397.85l85.384,-341.038Z" style="fill:#497098;fill-rule:nonzero;"/><path d="M325.521,833.31l-47.463,-27.219l-67.006,97.715l44.672,26.522l69.797,-97.018Z" style="fill:#fdf2f7;fill-rule:nonzero;"/><path d="M743.484,465.05l-214.526,93.416l-121.078,302.065l-94.925,-54.443l-78.172,122.847c0,0 177.288,99.112 185.663,99.112c8.375,0 8.375,4.188 33.503,-19.544c25.128,-23.731 136.803,-166.119 136.803,-166.119l0,361.554l238.116,0l0,-397.85l-85.384,-341.038Z" style="fill:#375574;fill-rule:nonzero;"/><path d="M743.484,459.819l82.965,54.622l2.419,291.647l-85.384,-341.038l0,-5.231Z" style="fill:#e0e1e1;fill-rule:nonzero;"/><path d="M914.252,461.953l-89.881,51.122l4.497,293.013l85.384,-341.038l0,-3.097Z" style="fill:#edeeed;fill-rule:nonzero;"/><path d="M828.868,806.088l-65.391,-261.182l60.894,-31.831l4.497,293.013Z" style="fill:#ced1d1;fill-rule:nonzero;"/><path d="M828.868,806.088l-4.497,-293.013l71.162,26.747l-66.665,266.266Z" style="fill:#d5d7d6;fill-rule:nonzero;"/><path d="M828.868,806.091l-4.497,-234.894l0,-58.122l-30.534,15.96l19.009,26.246l-14.563,135.828l30.585,114.982Z" style="fill:#ef4d3f;fill-rule:nonzero;"/><path d="M828.868,806.091l-4.497,-234.894l0,-58.122l30.534,15.96l-19.006,26.246l22.128,140.094l-29.159,110.716Z" style="fill:#f26e64;fill-rule:nonzero;"/><path d="M828.868,802.675l0,3.416l-30.585,-114.982l26.088,-178.034l4.497,289.6Z" style="fill:#ef4d3f;fill-rule:nonzero;"/><path d="M743.484,459.819l-84.172,38.953l51.065,53.65l-23.897,46.084l142.388,207.585l-85.384,-346.272Z" style="fill:#497098;fill-rule:nonzero;"/><path d="M914.252,461.953l83.96,35.81l-52.025,54.659l23.896,46.084l-142.387,207.585l86.556,-344.138Z" style="fill:#375574;fill-rule:nonzero;"/><rect x="633.699" y="1018.41" width="105.828" height="25.606" style="fill:#497098;fill-rule:nonzero;"/><rect x="918.208" y="1018.41" width="105.828" height="25.606" style="fill:#375574;fill-rule:nonzero;"/><path d="M554.318,1063.24c51.5,0 97.859,21.981 130.231,57.065c13.409,-13.828 32.172,-22.434 52.956,-22.434c40.747,0 73.778,33.031 73.778,73.775c0,2.4 -0.125,4.766 -0.35,7.106c5.21,-0.69 10.51,-1.081 15.907,-1.081c66.247,0 119.953,53.703 119.953,119.95c0,66.247 -53.706,119.95 -119.953,119.95l-272.522,0c-97.847,0 -177.166,-79.319 -177.166,-177.166c0,-97.847 79.319,-177.165 177.166,-177.165Z" style="fill:#c8caca;fill-rule:nonzero;"/><path d="M554.318,1057.22c51.5,0 97.859,21.981 130.231,57.065c13.409,-13.828 32.172,-22.434 52.956,-22.434c40.747,0 73.778,33.031 73.778,73.775c0,2.397 -0.125,4.766 -0.35,7.106c5.21,-0.69 10.51,-1.084 15.907,-1.084c66.247,0 119.953,53.706 119.953,119.953c0,66.247 -53.706,119.95 -119.953,119.95l-272.522,0c-97.847,0 -177.166,-79.319 -177.166,-177.166c0,-97.846 79.319,-177.165 177.166,-177.165Z" style="fill:#fff;fill-rule:nonzero;"/><path d="M1103.42,1066.25c-51.5,0 -97.86,21.981 -130.231,57.066c-13.41,-13.828 -32.172,-22.435 -52.957,-22.435c-40.747,0 -73.778,33.029 -73.778,73.775c0,2.397 0.125,4.766 0.35,7.107c-5.209,-0.691 -10.509,-1.085 -15.906,-1.085c-66.247,0 -119.953,53.707 -119.953,119.953c0,66.247 53.706,119.95 119.953,119.95l272.522,0c97.847,0 177.165,-79.318 177.165,-177.165c0,-97.847 -79.318,-177.166 -177.165,-177.166Z" style="fill:#c8caca;fill-rule:nonzero;"/><path d="M1103.42,1060.23c-51.5,0 -97.86,21.981 -130.231,57.066c-13.41,-13.828 -32.172,-22.438 -52.957,-22.438c-40.747,0 -73.778,33.032 -73.778,73.779c0,2.396 0.125,4.765 0.35,7.103c-5.209,-0.691 -10.509,-1.082 -15.906,-1.082c-66.247,0 -119.953,53.704 -119.953,119.95c0,66.247 53.706,119.954 119.953,119.954l272.522,0c97.847,0 177.165,-79.322 177.165,-177.166c0,-97.847 -79.318,-177.166 -177.165,-177.166Z" style="fill:#fff;fill-rule:nonzero;"/><path d="M951.199,272.731c-11.237,32.747 -23.119,31.144 -43.347,33.713c-20.228,2.569 -36.603,-5.138 -36.603,-5.138c-27.291,-18.621 -25.044,-56.509 -20.869,-64.215c4.175,-7.706 12.2,-17.982 53.941,-17.982c41.741,0 47.519,12.844 47.519,12.844c7.706,15.091 -0.641,40.778 -0.641,40.778ZM786.487,301.306c0,0 -16.375,7.707 -36.604,5.138c-20.228,-2.569 -32.109,-0.966 -43.346,-33.713c0,0 -8.347,-25.687 -0.641,-40.778c0,0 5.778,-12.844 47.519,-12.844c41.74,0 49.765,10.276 53.94,17.982c4.175,7.706 6.422,45.594 -20.868,64.215ZM949.271,213.65c0,0 -35.959,-5.456 -60.681,-1.603c-24.725,3.853 -45.288,8.991 -51.863,8.669c-6.575,-0.322 -7.859,0.012 -7.859,0.012c0,0 -1.285,-0.334 -7.86,-0.012c-6.575,0.322 -27.137,-4.816 -51.862,-8.669c-24.722,-3.853 -60.681,1.603 -60.681,1.603l-22.157,2.569l0,21.512c0,0 5.782,4.497 7.066,7.066c1.284,2.569 9.309,32.428 14.125,44.306c4.819,11.881 22.478,29.541 64.216,22.156c41.74,-7.384 46.556,-59.4 49.293,-62.29c2.735,-2.888 7.86,-3.853 7.86,-3.853c0,0 5.125,0.965 7.859,3.853c2.738,2.89 7.553,54.906 49.294,62.29c41.737,7.385 59.397,-10.275 64.216,-22.156c4.815,-11.878 12.84,-41.737 14.125,-44.306c1.284,-2.569 7.065,-7.066 7.065,-7.066l0,-21.512l-22.156,-2.569Z" style="fill:#282b2f;fill-rule:nonzero;"/><path d="M827.696,806.091l-0.856,365.553l10,0l-9.144,-365.553Z" style="fill:#497098;fill-rule:nonzero;"/></svg>