<?xml version="1.0" standalone="no"?><!DOCTYPE svg PUBLIC "-//W3C//DTD SVG 1.1//EN" "http://www.w3.org/Graphics/SVG/1.1/DTD/svg11.dtd"><svg width="100%" height="100%" viewBox="0 0 1524 894" version="1.1" xmlns="http://www.w3.org/2000/svg" xmlns:xlink="http://www.w3.org/1999/xlink" xml:space="preserve" style="fill-rule:evenodd;clip-rule:evenodd;stroke-linejoin:round;stroke-miterlimit:1.41421;"><path d="M797.325,98.209c21.299,-21.075 42.499,-42.425 66.218,-60.631c-27.353,30.337 -56.772,58.787 -84.778,88.655c-2.737,2.813 -8.343,8.494 -11.128,11.353c-108.586,103.815 -212.676,212.305 -319.9,317.66l-4.1,-2.306c117.065,-119.077 236.139,-236.142 353.688,-354.731Z" style="fill:#813b1b;fill-rule:nonzero;"/><path d="M767.637,137.586c-9.203,15.166 -20.843,28.966 -31.065,43.734c-25.047,25.572 -51.375,50.034 -79.196,72.562c-10.456,9.788 -17.809,28.322 -6.719,36.906c-4.294,13.981 -13.7,25.625 -28.14,34.925c-4.972,-4.794 -10.088,-9.369 -15.425,-13.722c-36.594,37.044 -80.299,65.99 -113.524,106.668l-3.988,4.434c-25.812,23.728 -49.987,49.541 -76.433,72.634c4.834,-8.337 10.209,-16.397 15.996,-24.047c6.353,-5.384 12.547,-10.834 18.594,-16.434c107.224,-105.355 211.314,-213.845 319.9,-317.66Z" style="fill:#ad5d26;fill-rule:nonzero;"/><path d="M797.325,98.209c21.299,-21.075 42.499,-42.425 66.218,-60.631c-27.353,30.337 -56.772,58.787 -84.778,88.655c-2.737,2.813 -8.343,8.494 -11.128,11.353c-108.586,103.815 -212.676,212.305 -319.9,317.66l-4.1,-2.306c117.065,-119.077 236.139,-236.142 353.688,-354.731Z" style="fill:#813b1b;fill-rule:nonzero;"/><path d="M767.637,137.586c-9.203,15.166 -20.843,28.966 -31.065,43.734c-25.047,25.572 -51.375,50.034 -79.196,72.562c-10.456,9.788 -17.809,28.322 -6.719,36.906c-4.294,13.981 -13.7,25.625 -28.14,34.925c-4.972,-4.794 -10.088,-9.369 -15.425,-13.722c-36.594,37.044 -80.299,65.99 -113.524,106.668l-3.988,4.434c-25.812,23.728 -49.987,49.541 -76.433,72.634c4.834,-8.337 10.209,-16.397 15.996,-24.047c6.353,-5.384 12.547,-10.834 18.594,-16.434c107.224,-105.355 211.314,-213.845 319.9,-317.66Z" style="fill:#ad5d26;fill-rule:nonzero;"/><path d="M447.737,455.246l-4.1,-2.306c117.065,-119.077 236.139,-236.142 353.688,-354.731c21.299,-21.075 42.499,-42.425 66.218,-60.631c-27.353,30.337 -56.772,58.787 -84.778,88.655c-2.737,2.813 -8.343,8.494 -11.128,11.353c-108.586,103.815 -212.676,212.305 -319.9,317.66Z" style="fill:#6d3f28;fill-rule:nonzero;"/><path d="M413.147,495.727c4.834,-8.337 10.209,-16.397 15.996,-24.047c6.353,-5.384 12.547,-10.834 18.594,-16.434c107.224,-105.355 211.314,-213.845 319.9,-317.66c-9.203,15.166 -20.843,28.966 -31.065,43.734c-25.047,25.572 -51.375,50.034 -79.196,72.562c-6.781,6.347 -12.256,16.372 -12.244,24.975c0.006,4.666 1.625,8.912 5.525,11.931c-4.294,13.981 -13.7,25.625 -28.14,34.925c-4.972,-4.794 -10.088,-9.369 -15.425,-13.722c-36.594,37.044 -80.299,65.99 -113.524,106.668l-3.988,4.434c-25.812,23.728 -49.987,49.541 -76.433,72.634Z" style="fill:#976241;fill-rule:nonzero;"/><rect x="10.797" y="13.416" width="1506.49" height="867.812" style="fill:#fff;fill-rule:nonzero;"/><g><clipPath id="_clip1"><rect x="10.794" y="13.416" width="1506.49" height="867.808"/></clipPath><g clip-path="url(#_clip1)"><rect x="-63.015" y="-15.612" width="624.21" height="925.867" style="fill:#252525;fill-rule:nonzero;"/><path d="M346.225,523.755c-12.631,-22.125 -32.468,-39.803 -57.446,-49.034c4.678,-26.775 -0.656,-53.162 -13.094,-75.293l-42.753,-75.024l-42.718,75.024c-12.375,22.131 -17.45,48.518 -12.931,75.293c-25.106,9.231 -45.14,26.909 -57.615,49.034l-42.456,74.965l85.015,0c25.106,0 50.277,-8.709 70.705,-25.925c20.428,17.216 45.638,25.925 70.744,25.925l85.04,0l-42.491,-74.965Z" style="fill:#252525;fill-rule:nonzero;"/><rect x="454.668" y="-33.49" width="160.699" height="980.648" style="fill:#febf32;fill-rule:nonzero;"/></g></g></svg>