<svg viewBox="0 0 173 136" xmlns="http://www.w3.org/2000/svg" fill-rule="evenodd" clip-rule="evenodd" stroke-linejoin="round" stroke-miterlimit="1.414"><path d="M161.973 46.942a13.6 13.6 0 0 0 2-7.095c0-7.55-6.122-13.674-13.672-13.674-2.29 0-4.45.57-6.346 1.568.06-.513.097-1.035.097-1.566 0-7.55-6.12-13.675-13.673-13.675a13.6 13.6 0 0 0-7.96 2.57C120.247 6.414 112.417 0 103.09 0c-9.01 0-16.623 5.99-19.082 14.202a13.61 13.61 0 0 0-6.606-1.704c-4.347 0-8.213 2.038-10.718 5.204a11.45 11.45 0 0 0-7.77-3.037c-4.68 0-8.703 2.8-10.5 6.814a19.84 19.84 0 0 0-11.586-3.72c-11.002 0-19.923 8.92-19.923 19.922 0 7.52 4.17 14.064 10.32 17.457C22.925 57.442 20 61.974 20 67.193c0 7.553 6.12 13.676 13.674 13.676 1.93 0 3.764-.405 5.43-1.127a19.98 19.98 0 0 0-.113 2.116c0 11 8.92 19.92 19.923 19.92 4.95 0 9.475-1.81 12.96-4.796 2.462 3.603 6.602 5.972 11.297 5.972 3.93 0 7.465-1.67 9.96-4.327 2.494 2.656 6.03 4.326 9.96 4.326 5.48 0 10.197-3.233 12.378-7.89 3.65 4.116 8.975 6.713 14.908 6.713 11.004 0 19.925-8.92 19.925-19.92 0-.884-.06-1.75-.173-2.6 1.24.28 2.527.434 3.852.434 9.58 0 17.352-7.77 17.352-17.354 0-6.696-3.8-12.506-9.357-15.397M41.63 102.517l-.008.002a5.84 5.84 0 0 0-5.833-5.65 5.84 5.84 0 0 0-5.553 4.03 8.058 8.058 0 0 0-10.564 7.654c0 4.447 3.61 8.054 8.06 8.054a8 8 0 0 0 3.36-.742 6.02 6.02 0 0 0 4.888 2.508 6.03 6.03 0 0 0 5.6-3.79c.017 0 .033.003.05.003a6.035 6.035 0 0 0 6.034-6.036c0-3.334-2.7-6.036-6.034-6.036M15.683 122.41h-.007a4.167 4.167 0 0 0-8.13-1.156 5.758 5.758 0 0 0-1.79-.29A5.756 5.756 0 0 0 0 126.724a5.754 5.754 0 0 0 5.755 5.755 5.75 5.75 0 0 0 2.4-.53 4.305 4.305 0 0 0 3.496 1.79 4.312 4.312 0 0 0 4-2.707h.034a4.312 4.312 0 0 0 4.314-4.308 4.313 4.313 0 0 0-4.314-4.313" fill="#f2f2f2" fill-rule="nonzero"/></svg>