<?xml version="1.0" standalone="no"?><!DOCTYPE svg PUBLIC "-//W3C//DTD SVG 1.1//EN" "http://www.w3.org/Graphics/SVG/1.1/DTD/svg11.dtd"><svg width="100%" height="100%" viewBox="0 0 173 136" version="1.1" xmlns="http://www.w3.org/2000/svg" xmlns:xlink="http://www.w3.org/1999/xlink" xml:space="preserve" style="fill-rule:evenodd;clip-rule:evenodd;stroke-linejoin:round;stroke-miterlimit:1.41421;"><path d="M161.973,46.942c1.261,-2.069 2.001,-4.494 2.001,-7.095c0,-7.551 -6.123,-13.674 -13.673,-13.674c-2.293,0 -4.45,0.57 -6.348,1.568c0.06,-0.515 0.097,-1.037 0.097,-1.568c0,-7.551 -6.122,-13.675 -13.674,-13.675c-2.973,0 -5.716,0.961 -7.96,2.572c-2.169,-8.657 -9.998,-15.07 -19.325,-15.07c-9.013,0 -16.625,5.989 -19.084,14.202c-1.959,-1.083 -4.209,-1.704 -6.606,-1.704c-4.348,0 -8.214,2.038 -10.719,5.204c-2.048,-1.88 -4.77,-3.037 -7.77,-3.037c-4.681,0 -8.703,2.8 -10.501,6.814c-3.266,-2.337 -7.263,-3.719 -11.585,-3.719c-11.002,0 -19.923,8.919 -19.923,19.923c0,7.519 4.169,14.064 10.32,17.457c-4.299,2.304 -7.226,6.836 -7.226,12.055c0,7.553 6.122,13.676 13.675,13.676c1.93,0 3.764,-0.406 5.43,-1.128c-0.074,0.696 -0.113,1.401 -0.113,2.116c0,11.002 8.922,19.921 19.923,19.921c4.95,0 9.475,-1.809 12.96,-4.795c2.462,3.603 6.602,5.972 11.297,5.972c3.931,0 7.466,-1.67 9.961,-4.327c2.494,2.657 6.03,4.327 9.961,4.327c5.48,0 10.196,-3.233 12.377,-7.89c3.649,4.116 8.975,6.713 14.908,6.713c11.004,0 19.925,-8.919 19.925,-19.921c0,-0.882 -0.063,-1.748 -0.175,-2.599c1.239,0.281 2.527,0.435 3.852,0.435c9.582,0 17.353,-7.771 17.353,-17.354c0,-6.697 -3.8,-12.507 -9.358,-15.398" style="fill:#f2f2f2;fill-rule:nonzero;"/><path d="M41.631,102.517c-0.003,0 -0.006,0.002 -0.009,0.002c-0.102,-3.137 -2.672,-5.65 -5.833,-5.65c-2.594,0 -4.789,1.692 -5.551,4.03c-0.79,-0.258 -1.63,-0.402 -2.505,-0.402c-4.449,0 -8.059,3.606 -8.059,8.057c0,4.448 3.61,8.055 8.059,8.055c1.201,0 2.336,-0.269 3.36,-0.741c1.096,1.517 2.874,2.508 4.889,2.508c2.539,0 4.707,-1.569 5.598,-3.79c0.018,0 0.034,0.003 0.051,0.003c3.333,0 6.034,-2.703 6.034,-6.035c0,-3.335 -2.701,-6.037 -6.034,-6.037" style="fill:#f2f2f2;fill-rule:nonzero;"/><path d="M15.683,122.411l-0.007,0c-0.072,-2.241 -1.907,-4.035 -4.164,-4.035c-1.852,0 -3.42,1.207 -3.966,2.878c-0.564,-0.184 -1.164,-0.289 -1.791,-0.289c-3.179,0 -5.755,2.577 -5.755,5.759c0,3.178 2.576,5.754 5.755,5.754c0.858,0 1.67,-0.194 2.401,-0.529c0.783,1.082 2.054,1.79 3.495,1.79c1.813,0 3.362,-1.121 4,-2.707c0.011,0 0.021,0.001 0.032,0.001c2.382,0 4.314,-1.93 4.314,-4.309c0,-2.384 -1.932,-4.313 -4.314,-4.313" style="fill:#f2f2f2;fill-rule:nonzero;"/></svg>