<svg viewBox="0 0 173 136" xmlns="http://www.w3.org/2000/svg" fill-rule="evenodd" clip-rule="evenodd" stroke-linejoin="round" stroke-miterlimit="1.414"><path d="M161.973 46.942c1.26-2.07 2-4.494 2-7.095 0-7.55-6.122-13.674-13.672-13.674-2.292 0-4.45.57-6.347 1.568.06-.514.097-1.036.097-1.567 0-7.55-6.122-13.675-13.674-13.675a13.6 13.6 0 0 0-7.96 2.572C120.246 6.413 112.418 0 103.09 0 94.08 0 86.467 5.99 84.008 14.202a13.61 13.61 0 0 0-6.606-1.704c-4.347 0-8.213 2.038-10.718 5.204a11.45 11.45 0 0 0-7.77-3.037c-4.68 0-8.703 2.8-10.5 6.814a19.84 19.84 0 0 0-11.586-3.72c-11.002 0-19.923 8.92-19.923 19.923 0 7.52 4.17 14.064 10.32 17.457-4.3 2.304-7.226 6.836-7.226 12.055 0 7.553 6.122 13.676 13.675 13.676 1.93 0 3.764-.405 5.43-1.127-.074.696-.113 1.4-.113 2.116 0 11 8.92 19.92 19.922 19.92 4.95 0 9.475-1.81 12.96-4.795 2.462 3.603 6.602 5.972 11.297 5.972 3.93 0 7.465-1.67 9.96-4.327 2.494 2.657 6.03 4.327 9.96 4.327 5.48 0 10.197-3.233 12.378-7.89 3.65 4.116 8.975 6.713 14.908 6.713 11.004 0 19.925-8.92 19.925-19.92 0-.883-.062-1.75-.174-2.6 1.24.28 2.527.435 3.852.435 9.582 0 17.353-7.77 17.353-17.354 0-6.696-3.8-12.506-9.357-15.397M41.63 102.517l-.008.002a5.84 5.84 0 0 0-5.833-5.65 5.84 5.84 0 0 0-5.552 4.03 8.058 8.058 0 0 0-10.564 7.655c0 4.447 3.61 8.054 8.06 8.054a8 8 0 0 0 3.36-.742 6.02 6.02 0 0 0 4.888 2.508 6.03 6.03 0 0 0 5.598-3.79c.018 0 .034.003.05.003a6.035 6.035 0 0 0 6.035-6.036c0-3.335-2.7-6.037-6.034-6.037M15.683 122.41h-.007a4.167 4.167 0 0 0-8.13-1.156 5.758 5.758 0 0 0-1.79-.29A5.756 5.756 0 0 0 0 126.725a5.754 5.754 0 0 0 5.755 5.754 5.75 5.75 0 0 0 2.4-.53 4.305 4.305 0 0 0 3.496 1.79 4.312 4.312 0 0 0 4-2.706h.033a4.312 4.312 0 0 0 4.314-4.308 4.313 4.313 0 0 0-4.314-4.313" fill="#f2f2f2" fill-rule="nonzero"/></svg>