<svg viewBox="0 0 800 801" xmlns="http://www.w3.org/2000/svg" fill-rule="evenodd" clip-rule="evenodd" stroke-linejoin="round" stroke-miterlimit="1.414"><path d="M613.852 468.258h-19.92a7.708 7.708 0 0 0-7.708 7.708v2.567c0 .108.013.214.02.32h17.01l10.598-10.595z" fill="#fcb" fill-rule="nonzero"/><path d="M610.998 461.613l-12.936 12.945a7.674 7.674 0 0 0-2.17 4.346h12.81l17.29-17.29h-14.994zM550.052 447.64a5.224 5.224 0 0 1 5.222-5.22h38.443a5.218 5.218 0 0 1 5.22 5.22 5.22 5.22 0 0 1-5.22 5.22h-38.443a5.225 5.225 0 0 1-5.222-5.22" fill="#fcb" fill-rule="nonzero"/><path d="M615.796 465.85c7.49 0 13.564-6.074 13.56-13.564v-22.04c.004-7.487-6.07-13.56-13.56-13.56h-22.034c-7.49 0-13.565 6.073-13.565 13.56v22.04c0 7.49 6.07 13.563 13.565 13.563h22.034z" fill="#fcb" fill-rule="nonzero"/><path d="M565.948 421.905a5.22 5.22 0 0 1 5.22-5.22h24.62a5.22 5.22 0 0 1 0 10.44h-24.62a5.22 5.22 0 0 1-5.22-5.22M559.036 434.683a5.222 5.222 0 0 1 5.222-5.222H602.7a5.223 5.223 0 0 1 5.223 5.223c0 2.882-2.34 5.22-5.222 5.22H564.26a5.222 5.222 0 0 1-5.222-5.22M559.036 460.597a5.22 5.22 0 0 1 5.222-5.22h30.56a5.22 5.22 0 0 1 0 10.44h-30.56a5.224 5.224 0 0 1-5.222-5.22" fill="#fcb" fill-rule="nonzero"/><path d="M665.744 422.142h-54.04c-5.08 0-9.198 4.12-9.198 9.205v14.945a9.2 9.2 0 0 0 9.2 9.2h54.038v-33.35z" fill="#fcb" fill-rule="nonzero"/><path fill="#fff" fill-rule="nonzero" d="M642.956 416.133h23.117v45.37h-23.117z"/><path fill="#2f4962" fill-rule="nonzero" d="M650.765 414.423H800v48.79H650.765z"/><path d="M660.354 419.655a2.324 2.324 0 1 1 0 4.648 2.324 2.324 0 0 1 0-4.648" fill="#103754" fill-rule="nonzero"/><path d="M491.2 459.868h113.67c4.575 0 8.28-3.716 8.28-8.292v-149.64a8.28 8.28 0 0 0-8.28-8.28H491.2a8.28 8.28 0 0 0-8.277 8.28v149.64c0 4.576 3.706 8.292 8.278 8.292" fill="#fff" fill-rule="nonzero"/><path d="M482.923 301.936v76.048H613.15v-76.048a8.28 8.28 0 0 0-8.28-8.28H491.2a8.28 8.28 0 0 0-8.277 8.28" fill="#f1f2f2" fill-rule="nonzero"/><path d="M548.036 297.884a3.337 3.337 0 0 1 3.333 3.333 3.325 3.325 0 0 1-3.334 3.325 3.324 3.324 0 0 1-3.335-3.325 3.335 3.335 0 0 1 3.336-3.333M548.036 448.13a1.88 1.88 0 0 1 1.877 1.88c0 1.04-.84 1.874-1.877 1.874a1.874 1.874 0 0 1-1.878-1.875 1.88 1.88 0 0 1 1.878-1.88M497.7 309.72H598.38V443.8H497.7z" fill="#2c465f" fill-rule="nonzero"/><path d="M559.31 429.28l-4.367 3.223-29.497-39.995 17.772-25.998-28.43-41.515 4.48-3.065 30.524 44.578-17.69 25.877 27.207 36.894z" fill="#fec00f" fill-rule="nonzero"/><path d="M528.77 321.553v4.342h-9.573v9.577h-4.343v-13.92h13.917z" fill="#fec00f" fill-rule="nonzero"/><path d="M545.483 360.886a5.968 5.968 0 0 0-5.97 5.97 5.97 5.97 0 1 0 5.97-5.97M528.77 386.39a5.967 5.967 0 0 0-5.967 5.967 5.966 5.966 0 0 0 5.968 5.967 5.97 5.97 0 0 0 5.974-5.967 5.97 5.97 0 0 0-5.973-5.968" fill="#15b0bf" fill-rule="nonzero"/><path fill="#a6dae9" fill-rule="nonzero" d="M562.846 385.774h27.756v48.792h-27.756z"/><path fill="#f07549" fill-rule="nonzero" d="M562.846 321.553h7.5v55.21h-7.5zM583.102 321.553h7.5v55.21h-7.5zM572.974 321.553h7.503v55.21h-7.503z"/><path d="M610.75 367.512h-20.136a7.796 7.796 0 0 0-7.795 7.795v2.595c0 .11.013.217.02.324h17.2l10.71-10.714z" fill="#fcb" fill-rule="nonzero"/><path d="M607.866 360.797l-13.08 13.083a7.81 7.81 0 0 0-2.195 4.395h12.955l17.48-17.478h-15.16zM563.017 346.67a5.28 5.28 0 0 1 5.277-5.28h38.866a5.278 5.278 0 1 1 0 10.557h-38.866a5.28 5.28 0 0 1-5.277-5.278" fill="#fcb" fill-rule="nonzero"/><path d="M612.717 365.077c7.572 0 13.713-6.14 13.71-13.713v-22.28c.003-7.57-6.138-13.71-13.71-13.71H590.44c-7.573 0-13.714 6.14-13.714 13.71v22.28c0 7.573 6.138 13.713 13.713 13.713h22.277z" fill="#fcb" fill-rule="nonzero"/><path d="M567.405 320.65a5.28 5.28 0 0 1 5.278-5.276h24.89a5.277 5.277 0 0 1 0 10.554h-24.89a5.275 5.275 0 0 1-5.278-5.278M563.013 333.567a5.28 5.28 0 0 1 5.278-5.278h38.867a5.278 5.278 0 0 1 0 10.555H568.29a5.277 5.277 0 0 1-5.277-5.278M550.052 359.77a5.28 5.28 0 0 1 5.28-5.278h36.175a5.278 5.278 0 0 1 0 10.554h-36.174a5.282 5.282 0 0 1-5.28-5.275" fill="#fcb" fill-rule="nonzero"/><path d="M663.848 320.892H608.58c-5.136 0-9.298 4.165-9.298 9.302v15.113c0 5.135 4.162 9.303 9.298 9.303h55.268v-33.718z" fill="#fcb" fill-rule="nonzero"/><path fill="#fff" fill-rule="nonzero" d="M640.81 314.813h23.37v45.87h-23.37z"/><path fill="#2f4962" fill-rule="nonzero" d="M648.704 313.087H800v49.325H648.704z"/><path d="M658.397 318.378a2.35 2.35 0 1 1 .004 4.696 2.35 2.35 0 0 1-.004-4.696" fill="#103754" fill-rule="nonzero"/></svg>