<?xml version="1.0" standalone="no"?><!DOCTYPE svg PUBLIC "-//W3C//DTD SVG 1.1//EN" "http://www.w3.org/Graphics/SVG/1.1/DTD/svg11.dtd"><svg width="100%" height="100%" viewBox="0 0 231 139" version="1.1" xmlns="http://www.w3.org/2000/svg" xmlns:xlink="http://www.w3.org/1999/xlink" xml:space="preserve" style="fill-rule:evenodd;clip-rule:evenodd;stroke-linejoin:round;stroke-miterlimit:1.41421;"><path d="M98.197,130.951l-14.939,0c-3.192,0 -5.782,2.586 -5.782,5.781l0,1.925c0,0.081 0.01,0.16 0.016,0.24l12.756,0l7.949,-7.946Z" style="fill:#fcb;fill-rule:nonzero;"/><path d="M96.056,125.967l-9.702,9.709c-0.917,0.916 -1.454,2.065 -1.628,3.259l9.608,0l12.967,-12.968l-11.245,0Z" style="fill:#fcb;fill-rule:nonzero;"/><path d="M50.347,115.488c0,-2.162 1.756,-3.915 3.916,-3.915l28.832,0c2.161,-0.003 3.915,1.753 3.915,3.915c0,2.16 -1.754,3.914 -3.915,3.914l-28.832,0c-2.16,0 -3.916,-1.754 -3.916,-3.914" style="fill:#fcb;fill-rule:nonzero;"/><path d="M99.655,129.144c5.617,0 10.173,-4.555 10.17,-10.173l0,-16.53c0.003,-5.615 -4.553,-10.17 -10.17,-10.17l-16.526,0c-5.617,0 -10.173,4.555 -10.173,10.17l0,16.53c0,5.618 4.553,10.173 10.173,10.173l16.526,0Z" style="fill:#fcb;fill-rule:nonzero;"/><path d="M62.269,96.186c0,-2.161 1.753,-3.915 3.914,-3.915l18.466,0c2.163,0 3.917,1.754 3.917,3.915c0,2.163 -1.754,3.915 -3.917,3.915l-18.466,0c-2.161,0 -3.914,-1.752 -3.914,-3.915" style="fill:#fcb;fill-rule:nonzero;"/><path d="M57.085,105.769c0,-2.163 1.753,-3.916 3.916,-3.916l28.833,0c2.162,0 3.916,1.753 3.916,3.916c0,2.162 -1.754,3.915 -3.916,3.915l-28.833,0c-2.163,0 -3.916,-1.753 -3.916,-3.915" style="fill:#fcb;fill-rule:nonzero;"/><path d="M57.085,125.205c0,-2.163 1.756,-3.914 3.916,-3.914l22.92,0c2.161,0 3.916,1.751 3.916,3.914c0,2.161 -1.755,3.915 -3.916,3.915l-22.92,0c-2.16,0 -3.916,-1.754 -3.916,-3.915" style="fill:#fcb;fill-rule:nonzero;"/><path d="M137.116,96.363l-40.529,0c-3.812,0 -6.9,3.09 -6.9,6.904l0,11.209c0,3.811 3.088,6.901 6.9,6.901l40.529,0l0,-25.014Z" style="fill:#fcb;fill-rule:nonzero;"/><rect x="120.025" y="91.857" width="17.338" height="34.027" style="fill:#fff;fill-rule:nonzero;"/><rect x="125.882" y="90.575" width="104.327" height="36.593" style="fill:#2f4962;fill-rule:nonzero;"/><path d="M133.074,94.499c0.961,0 1.743,0.781 1.743,1.743c0,0.963 -0.782,1.743 -1.743,1.743c-0.961,0 -1.742,-0.78 -1.742,-1.743c0,-0.962 0.779,-1.743 1.742,-1.743" style="fill:#103754;fill-rule:nonzero;"/><path d="M6.209,124.658l85.251,0c3.432,0 6.21,-2.787 6.21,-6.219l0,-112.23c0,-3.427 -2.778,-6.209 -6.21,-6.209l-85.251,0c-3.429,0 -6.209,2.782 -6.209,6.209l0,112.23c0,3.432 2.78,6.219 6.209,6.219" style="fill:#fff;fill-rule:nonzero;"/><path d="M0,6.209l0,57.036l97.671,0l0,-57.036c0,-3.427 -2.779,-6.209 -6.212,-6.209l-85.25,0c-3.429,0 -6.209,2.782 -6.209,6.209" style="fill:#f1f2f2;fill-rule:nonzero;"/><path d="M48.835,3.17c1.377,0 2.5,1.12 2.5,2.5c0,1.385 -1.123,2.494 -2.5,2.494c-1.381,0 -2.501,-1.109 -2.501,-2.494c0,-1.38 1.12,-2.5 2.501,-2.5" style="fill:#2c465f;fill-rule:nonzero;"/><path d="M48.835,115.854c0.777,0 1.408,0.632 1.408,1.41c0,0.78 -0.631,1.406 -1.408,1.406c-0.777,0 -1.409,-0.626 -1.409,-1.406c0,-0.778 0.632,-1.41 1.409,-1.41" style="fill:#2c465f;fill-rule:nonzero;"/><rect x="11.084" y="12.047" width="75.508" height="100.562" style="fill:#2c465f;fill-rule:nonzero;"/><path d="M57.289,101.717l-3.274,2.418l-22.123,-29.997l13.329,-19.498l-21.322,-31.136l3.359,-2.299l22.894,33.433l-13.267,19.408l20.404,27.671Z" style="fill:#fec00f;fill-rule:nonzero;"/><path d="M34.386,20.922l0,3.256l-7.181,0l0,7.183l-3.257,0l0,-10.439l10.438,0Z" style="fill:#fec00f;fill-rule:nonzero;"/><path d="M46.92,50.422c-2.473,0 -4.476,2.004 -4.476,4.476c0,2.472 2.003,4.477 4.476,4.477c2.473,0 4.478,-2.005 4.478,-4.477c0,-2.472 -2.005,-4.476 -4.478,-4.476" style="fill:#15b0bf;fill-rule:nonzero;"/><path d="M34.386,69.549c-2.474,0 -4.476,2.004 -4.476,4.476c0,2.472 2.002,4.475 4.476,4.475c2.473,0 4.479,-2.003 4.479,-4.475c0,-2.472 -2.006,-4.476 -4.479,-4.476" style="fill:#15b0bf;fill-rule:nonzero;"/><rect x="59.942" y="69.088" width="20.817" height="36.594" style="fill:#a6dae9;fill-rule:nonzero;"/><rect x="59.942" y="20.922" width="5.626" height="41.407" style="fill:#f07549;fill-rule:nonzero;"/><rect x="75.134" y="20.922" width="5.625" height="41.407" style="fill:#f07549;fill-rule:nonzero;"/><rect x="67.538" y="20.922" width="5.627" height="41.407" style="fill:#f07549;fill-rule:nonzero;"/><path d="M95.871,55.391l-15.103,0c-3.227,0 -5.846,2.617 -5.846,5.846l0,1.947c0,0.081 0.011,0.162 0.016,0.243l12.899,0l8.034,-8.036Z" style="fill:#fcb;fill-rule:nonzero;"/><path d="M93.707,50.355l-9.809,9.812c-0.925,0.93 -1.471,2.093 -1.647,3.296l9.716,0l13.109,-13.108l-11.369,0Z" style="fill:#fcb;fill-rule:nonzero;"/><path d="M60.07,39.759c0,-2.184 1.773,-3.959 3.958,-3.959l29.15,0c2.184,-0.001 3.956,1.775 3.956,3.959c0,2.184 -1.772,3.958 -3.956,3.958l-29.15,0c-2.185,0 -3.958,-1.774 -3.958,-3.958" style="fill:#fcb;fill-rule:nonzero;"/><path d="M97.345,53.565c5.679,0 10.285,-4.605 10.283,-10.285l0,-16.71c0.002,-5.677 -4.604,-10.283 -10.283,-10.283l-16.708,0c-5.679,0 -10.285,4.606 -10.285,10.283l0,16.71c0,5.68 4.604,10.285 10.285,10.285l16.708,0Z" style="fill:#fcb;fill-rule:nonzero;"/><path d="M63.362,20.245c0,-2.183 1.771,-3.957 3.958,-3.957l18.668,0c2.187,0 3.96,1.774 3.96,3.957c0,2.188 -1.773,3.958 -3.96,3.958l-18.668,0c-2.187,0 -3.958,-1.77 -3.958,-3.958" style="fill:#fcb;fill-rule:nonzero;"/><path d="M60.067,29.933c0,-2.185 1.773,-3.959 3.959,-3.959l29.149,0c2.187,0 3.961,1.774 3.961,3.959c0,2.187 -1.774,3.958 -3.961,3.958l-29.149,0c-2.186,0 -3.959,-1.771 -3.959,-3.958" style="fill:#fcb;fill-rule:nonzero;"/><path d="M50.347,49.585c0,-2.189 1.776,-3.959 3.96,-3.959l27.131,0c2.185,0 3.959,1.77 3.959,3.959c0,2.183 -1.774,3.956 -3.959,3.956l-27.131,0c-2.184,0 -3.96,-1.773 -3.96,-3.956" style="fill:#fcb;fill-rule:nonzero;"/><path d="M135.694,20.426l-41.451,0c-3.852,0 -6.974,3.124 -6.974,6.976l0,11.335c0,3.851 3.122,6.977 6.974,6.977l41.451,0l0,-25.288Z" style="fill:#fcb;fill-rule:nonzero;"/><rect x="118.415" y="15.867" width="17.527" height="34.402" style="fill:#fff;fill-rule:nonzero;"/><rect x="124.336" y="14.573" width="105.873" height="36.994" style="fill:#2f4962;fill-rule:nonzero;"/><path d="M131.605,18.541c0.973,0 1.763,0.79 1.763,1.761c0,0.975 -0.79,1.761 -1.763,1.761c-0.968,0 -1.76,-0.786 -1.76,-1.761c0,-0.971 0.79,-1.761 1.76,-1.761" style="fill:#103754;fill-rule:nonzero;"/></svg>