<?xml version="1.0" standalone="no"?>
<!DOCTYPE svg PUBLIC "-//W3C//DTD SVG 1.1//EN" "http://www.w3.org/Graphics/SVG/1.1/DTD/svg11.dtd">
<svg width="100%" height="100%" viewBox="0 0 800 801" version="1.1" xmlns="http://www.w3.org/2000/svg" xmlns:xlink="http://www.w3.org/1999/xlink" xml:space="preserve" style="fill-rule:evenodd;clip-rule:evenodd;stroke-linejoin:round;stroke-miterlimit:1.41421;">
    <path d="M317.529,342.171L317.458,471.684L134.287,471.582L134.36,342.068L317.529,342.171Z" style="fill:white;"/>
    <rect x="300.469" y="355.56" width="4.716" height="16.206" style="fill:rgb(249,155,28);fill-rule:nonzero;"/>
    <rect x="289.72" y="355.56" width="4.716" height="16.206" style="fill:rgb(21,176,191);fill-rule:nonzero;"/>
    <rect x="278.973" y="355.56" width="4.715" height="16.206" style="fill:rgb(166,218,233);fill-rule:nonzero;"/>
    <rect x="268.224" y="355.56" width="4.714" height="16.206" style="fill:rgb(76,142,180);fill-rule:nonzero;"/>
    <rect x="299.643" y="382.737" width="5.306" height="75.454" style="fill:rgb(204,204,204);fill-rule:nonzero;"/>
    <rect x="283.788" y="382.737" width="5.303" height="75.454" style="fill:rgb(204,204,204);fill-rule:nonzero;"/>
    <rect x="267.932" y="382.737" width="5.299" height="75.454" style="fill:rgb(204,204,204);fill-rule:nonzero;"/>
    <rect x="275.862" y="382.737" width="5.297" height="75.454" style="fill:rgb(204,204,204);fill-rule:nonzero;"/>
    <rect x="291.719" y="382.737" width="5.298" height="75.454" style="fill:rgb(204,204,204);fill-rule:nonzero;"/>
    <rect x="180.898" y="354.497" width="5.306" height="103.694" style="fill:rgb(204,204,204);fill-rule:nonzero;"/>
    <rect x="165.043" y="354.497" width="5.301" height="103.694" style="fill:rgb(204,204,204);fill-rule:nonzero;"/>
    <rect x="149.186" y="354.497" width="5.301" height="103.694" style="fill:rgb(204,204,204);fill-rule:nonzero;"/>
    <rect x="157.116" y="354.497" width="5.297" height="103.694" style="fill:rgb(204,204,204);fill-rule:nonzero;"/>
    <rect x="172.974" y="354.497" width="5.298" height="103.694" style="fill:rgb(204,204,204);fill-rule:nonzero;"/>
    <rect x="202.632" y="355.561" width="36.442" height="3.429" style="fill:rgb(204,204,204);fill-rule:nonzero;"/>
    <rect x="199.203" y="355.56" width="3.429" height="102.632" style="fill:rgb(204,204,204);fill-rule:nonzero;"/>
    <rect x="202.632" y="367.995" width="16.206" height="9.187" style="fill:rgb(21,176,191);fill-rule:nonzero;"/>
    <rect x="218.837" y="367.995" width="8.101" height="9.187" style="fill:rgb(166,218,233);fill-rule:nonzero;"/>
    <rect x="202.632" y="385.128" width="23.223" height="9.186" style="fill:rgb(21,176,191);fill-rule:nonzero;"/>
    <rect x="225.856" y="385.128" width="4.642" height="9.186" style="fill:rgb(166,218,233);fill-rule:nonzero;"/>
    <rect x="202.632" y="402.26" width="11.791" height="9.191" style="fill:rgb(21,176,191);fill-rule:nonzero;"/>
    <rect x="214.423" y="402.26" width="8.465" height="9.191" style="fill:rgb(166,218,233);fill-rule:nonzero;"/>
    <rect x="202.632" y="419.397" width="6.754" height="9.186" style="fill:rgb(21,176,191);fill-rule:nonzero;"/>
    <rect x="209.386" y="419.397" width="6.751" height="9.186" style="fill:rgb(166,218,233);fill-rule:nonzero;"/>
    <g>
        <clipPath id="_clip1">
            <rect x="173.149" y="388.451" width="44.681" height="44.679"/>
        </clipPath>
        <g clip-path="url(#_clip1)">
            <g opacity="0.100006">
                <clipPath id="_clip2">
                    <rect x="173.149" y="388.451" width="44.681" height="44.679"/>
                </clipPath>
                <g clip-path="url(#_clip2)">
                    <path d="M203.805,390.076C209.335,392.294 213.673,396.525 216.016,401.983C220.877,413.297 215.626,426.452 204.307,431.31C198.819,433.668 192.737,433.737 187.166,431.505C181.64,429.286 177.307,425.062 174.967,419.608C172.615,414.133 172.543,408.064 174.76,402.516C176.973,396.965 181.208,392.618 186.682,390.265C192.163,387.914 198.246,387.846 203.805,390.076" style="fill:white;fill-rule:nonzero;"/>
                </g>
            </g>
        </g>
    </g>
    <path d="M188.419,389.606C188.252,389.662 188.085,389.72 187.92,389.779C188.086,389.721 188.252,389.662 188.419,389.606" style="fill:rgb(166,218,233);fill-rule:nonzero;"/>
    <path d="M187.815,389.817C187.666,389.872 187.52,389.926 187.373,389.984C187.52,389.926 187.666,389.871 187.815,389.817" style="fill:rgb(166,218,233);fill-rule:nonzero;"/>
    <path d="M187.237,390.038C187.052,390.111 186.867,390.186 186.682,390.265C186.867,390.186 187.052,390.111 187.237,390.038" style="fill:rgb(166,218,233);fill-rule:nonzero;"/>
</svg>
