<?xml version="1.0" standalone="no"?>
<!DOCTYPE svg PUBLIC "-//W3C//DTD SVG 1.1//EN" "http://www.w3.org/Graphics/SVG/1.1/DTD/svg11.dtd">
<svg width="100%" height="100%" viewBox="0 0 800 801" version="1.1" xmlns="http://www.w3.org/2000/svg" xmlns:xlink="http://www.w3.org/1999/xlink" xml:space="preserve" style="fill-rule:evenodd;clip-rule:evenodd;stroke-linejoin:round;stroke-miterlimit:1.41421;">
    <path d="M692.499,400C692.499,238.458 561.542,107.501 400,107.501C238.457,107.501 107.501,238.458 107.501,400C107.501,561.542 238.457,692.499 400,692.499C561.542,692.499 692.499,561.542 692.499,400" style="fill:rgb(167,192,216);"/>
    <path d="M674.111,400C674.111,248.612 551.386,125.889 400,125.889C248.612,125.889 125.888,248.612 125.888,400C125.888,551.387 248.612,674.111 400,674.111C551.386,674.111 674.111,551.387 674.111,400" style="fill:rgb(150,179,209);"/>
    <path d="M562.611,566.91C539.471,566.91 520.711,548.149 520.711,525.01C520.711,501.862 539.471,483.103 562.611,483.103C585.755,483.103 604.516,501.862 604.516,525.01C604.516,548.149 585.755,566.91 562.611,566.91" style="fill:rgb(230,231,232);fill-rule:nonzero;"/>
    <path d="M550.808,568.258C549.691,567.95 548.687,567.218 548.067,566.129C547.45,565.047 547.326,563.811 547.635,562.694L551.21,549.582L559.951,551.968L556.371,565.078C556.069,566.195 555.331,567.198 554.247,567.82C553.164,568.441 551.929,568.563 550.808,568.258" style="fill:white;fill-rule:nonzero;"/>
    <path d="M559.95,551.968L551.21,549.582L549.875,554.468C552.612,555.655 555.549,556.468 558.616,556.853L559.95,551.968Z" style="fill:rgb(224,222,220);fill-rule:nonzero;"/>
    <path d="M562.611,553.319C546.975,553.319 534.301,540.646 534.301,525.009C534.301,509.368 546.975,496.696 562.611,496.696C578.247,496.696 590.926,509.368 590.926,525.009C590.926,540.646 578.247,553.319 562.611,553.319" style="fill:white;fill-rule:nonzero;"/>
    <path d="M562.611,548.792C549.476,548.792 538.829,538.142 538.829,525.01C538.829,511.873 549.476,501.224 562.611,501.224C575.748,501.224 586.395,511.873 586.395,525.01C586.395,538.142 575.748,548.792 562.611,548.792" style="fill:rgb(141,66,32);fill-rule:nonzero;"/>
    <path d="M555.815,508.021C568.952,508.021 579.599,518.668 579.599,531.801C579.599,536.632 578.158,541.124 575.682,544.875C582.137,540.62 586.395,533.315 586.395,525.01C586.395,511.874 575.748,501.224 562.611,501.224C554.307,501.224 546.997,505.485 542.746,511.937C546.496,509.461 550.987,508.021 555.815,508.021" style="fill:rgb(81,40,18);fill-rule:nonzero;"/>
    <rect x="322.179" y="305.544" width="161.659" height="111.882" style="fill:white;fill-rule:nonzero;"/>
    <path d="M437.131,348.285C437.131,336.939 427.932,327.743 416.59,327.743C405.247,327.743 396.049,336.939 396.049,348.285C396.049,359.629 405.247,368.825 416.59,368.825C427.932,368.825 437.131,359.629 437.131,348.285" style="fill:rgb(57,181,74);fill-rule:nonzero;"/>
    <path d="M412.027,363.186C412.027,351.846 402.834,342.647 391.488,342.647C380.142,342.647 370.948,351.846 370.948,363.186C370.948,374.532 380.142,383.726 391.488,383.726C402.834,383.726 412.027,374.532 412.027,363.186" style="fill:rgb(238,42,123);fill-rule:nonzero;"/>
    <g>
        <g opacity="0.699997">
            <path d="M396.676,343.332C396.283,344.92 396.05,346.576 396.05,348.285C396.05,357.834 402.574,365.835 411.401,368.138C411.797,366.551 412.028,364.9 412.028,363.186C412.028,353.641 405.502,345.636 396.676,343.332" style="fill:rgb(218,28,92);fill-rule:nonzero;"/>
        </g>
    </g>
    <path d="M433.67,374.685C433.67,363.339 424.473,354.143 413.131,354.143C401.787,354.143 392.589,363.339 392.589,374.685C392.589,386.024 401.787,395.225 413.131,395.225C424.473,395.225 433.67,386.024 433.67,374.685" style="fill:rgb(39,170,225);fill-rule:nonzero;"/>
    <g>
        <g opacity="0.699997">
            <path d="M392.589,374.685C392.589,377.832 393.316,380.804 394.583,383.473C404.455,381.974 412.027,373.475 412.027,363.185C412.027,360.039 411.298,357.068 410.033,354.399C400.16,355.897 392.589,364.394 392.589,374.685" style="fill:rgb(102,45,145);fill-rule:nonzero;"/>
        </g>
    </g>
    <g>
        <g opacity="0.699997">
            <path d="M430.348,363.507C426.686,357.873 420.352,354.143 413.131,354.143C407.828,354.143 403.016,356.164 399.373,359.462C403.035,365.095 409.369,368.824 416.59,368.824C421.891,368.824 426.705,366.799 430.348,363.507" style="fill:rgb(28,117,188);fill-rule:nonzero;"/>
        </g>
    </g>
    <rect x="333.085" y="321.846" width="8.646" height="79.271" style="fill:rgb(230,231,232);fill-rule:nonzero;"/>
    <rect x="349.836" y="321.846" width="8.648" height="79.271" style="fill:rgb(230,231,232);fill-rule:nonzero;"/>
    <rect x="457.821" y="321.846" width="8.65" height="79.271" style="fill:rgb(230,231,232);fill-rule:nonzero;"/>
    <path d="M474.188,344.81C473.891,344.81 473.586,344.741 473.309,344.584L457.686,336.191C454.68,334.575 451.481,333.337 448.174,332.503C444.87,331.666 441.461,331.247 438.047,331.247L369.383,331.247L369.383,327.522L438.047,327.522C441.768,327.522 445.479,327.987 449.084,328.892C452.684,329.8 456.174,331.153 459.448,332.917L475.071,341.31C475.977,341.795 476.315,342.926 475.829,343.829C475.493,344.454 474.85,344.81 474.188,344.81" style="fill:rgb(80,102,126);fill-rule:nonzero;"/>
    <path d="M367.418,344.81C367.715,344.81 368.018,344.741 368.3,344.584L383.917,336.191C386.922,334.575 390.122,333.337 393.428,332.503C396.736,331.666 400.143,331.247 403.554,331.247L472.224,331.247L472.224,327.522L403.554,327.522C399.838,327.522 396.124,327.987 392.522,328.892C388.917,329.8 385.434,331.153 382.155,332.917L366.534,341.31C365.628,341.795 365.289,342.926 365.774,343.829C366.113,344.454 366.756,344.81 367.418,344.81" style="fill:rgb(80,102,126);fill-rule:nonzero;"/>
    <path d="M415.908,330.486C415.908,327.788 418.105,325.597 420.801,325.597C423.502,325.597 425.695,327.788 425.695,330.486L429.416,330.486C429.416,325.729 425.562,321.874 420.801,321.874C416.047,321.874 412.187,325.729 412.187,330.486L415.908,330.486Z" style="fill:rgb(32,54,77);fill-rule:nonzero;"/>
    <path d="M412.188,336.312C412.188,340.234 408.983,343.441 405.061,343.441L380.23,343.441C376.313,343.441 373.105,340.234 373.105,336.312L373.105,322.927C373.105,319.008 376.313,315.798 380.23,315.798L405.061,315.798C408.983,315.798 412.188,319.008 412.188,322.927L412.188,336.312Z" style="fill:rgb(225,239,250);fill-rule:nonzero;"/>
    <path d="M405.061,315.798L391.402,315.798L391.402,343.441L405.061,343.441C408.983,343.441 412.188,340.234 412.188,336.312L412.188,322.926C412.188,319.007 408.983,315.798 405.061,315.798" style="fill:rgb(206,226,242);fill-rule:nonzero;"/>
    <path d="M468.395,336.312C468.395,340.234 465.184,343.441 461.264,343.441L436.432,343.441C432.516,343.441 429.309,340.234 429.309,336.312L429.309,322.927C429.309,319.008 432.516,315.798 436.432,315.798L461.264,315.798C465.184,315.798 468.395,319.008 468.395,322.927L468.395,336.312Z" style="fill:rgb(225,239,250);fill-rule:nonzero;"/>
    <path d="M461.264,315.798L447.606,315.798L447.606,343.441L461.264,343.441C465.184,343.441 468.395,340.234 468.395,336.312L468.395,322.926C468.395,319.007 465.184,315.798 461.264,315.798" style="fill:rgb(206,226,242);fill-rule:nonzero;"/>
    <path d="M412.188,336.312C412.188,340.234 408.983,343.441 405.061,343.441L380.23,343.441C376.313,343.441 373.105,340.234 373.105,336.312L373.105,322.927C373.105,319.008 376.313,315.798 380.23,315.798L405.061,315.798C408.983,315.798 412.188,319.008 412.188,322.927L412.188,336.312ZM406.911,312.171L378.382,312.171C373.432,312.171 369.383,316.22 369.383,321.17L369.383,338.071C369.383,343.02 373.432,347.07 378.382,347.07L406.911,347.07C411.858,347.07 415.909,343.02 415.909,338.071L415.909,321.17C415.909,316.22 411.858,312.171 406.911,312.171" style="fill:rgb(42,68,94);fill-rule:nonzero;"/>
    <path d="M468.395,336.312C468.395,340.234 465.184,343.441 461.264,343.441L436.432,343.441C432.516,343.441 429.309,340.234 429.309,336.312L429.309,322.927C429.309,319.008 432.516,315.798 436.432,315.798L461.264,315.798C465.184,315.798 468.395,319.008 468.395,322.927L468.395,336.312ZM463.114,312.171L434.586,312.171C429.635,312.171 425.586,316.22 425.586,321.17L425.586,338.071C425.586,343.02 429.635,347.07 434.586,347.07L463.114,347.07C468.065,347.07 472.116,343.02 472.116,338.071L472.116,321.17C472.116,316.22 468.065,312.171 463.114,312.171" style="fill:rgb(42,68,94);fill-rule:nonzero;"/>
    <path d="M317.943,298.703L243.782,298.705C244.053,299.831 245.415,300.717 247.129,300.857L317.94,300.857L317.943,298.703Z" style="fill:rgb(249,168,24);fill-rule:nonzero;"/>
    <path d="M317.939,305.982L317.94,300.857L247.129,300.857C247.114,300.86 247.106,300.862 247.091,300.864C247.106,300.864 247.122,300.864 247.14,300.867C245.221,301.023 243.735,302.103 243.73,303.42C243.735,304.736 245.221,305.817 247.14,305.973C247.122,305.973 247.106,305.973 247.091,305.975C247.106,305.975 247.114,305.981 247.129,305.981L247.129,305.982L317.939,305.982Z" style="fill:rgb(245,230,182);fill-rule:nonzero;"/>
    <path d="M247.129,305.982C245.415,306.123 244.049,307.006 243.782,308.136L317.94,308.136L317.939,305.982L247.129,305.982Z" style="fill:rgb(249,168,24);fill-rule:nonzero;"/>
    <path d="M243.782,308.14C244.045,307.012 245.413,306.123 247.129,305.982L247.129,305.981C247.114,305.981 247.107,305.975 247.091,305.975C247.107,305.973 247.122,305.973 247.14,305.973C245.221,305.818 243.736,304.737 243.73,303.42C243.736,302.103 245.221,301.023 247.14,300.867C247.122,300.865 247.107,300.865 247.091,300.865C247.107,300.863 247.114,300.86 247.129,300.858C245.413,300.717 244.047,299.831 243.782,298.698L234.751,303.421L243.782,308.14Z" style="fill:rgb(240,177,108);fill-rule:nonzero;"/>
    <path d="M239.184,301.102L234.752,303.421L239.184,305.738C239.453,304.993 239.603,304.219 239.602,303.421C239.602,302.622 239.453,301.846 239.184,301.102" style="fill:rgb(16,55,84);fill-rule:nonzero;"/>
    <path d="M317.996,298.703L317.996,300.857L322.27,300.857L322.267,298.705L317.996,298.703Z" style="fill:rgb(198,34,41);fill-rule:nonzero;"/>
    <path d="M317.996,300.857L317.996,305.982L322.268,305.982L322.27,300.857L317.996,300.857Z" style="fill:rgb(248,90,104);fill-rule:nonzero;"/>
    <path d="M317.996,305.982L317.996,308.136L322.27,308.136L322.268,305.983L317.996,305.982Z" style="fill:rgb(198,34,41);fill-rule:nonzero;"/>
    <path d="M437.537,500.06L363.375,500.062C363.646,501.189 365.008,502.076 366.723,502.215L437.535,502.215L437.537,500.06Z" style="fill:rgb(249,168,24);fill-rule:nonzero;"/>
    <path d="M437.533,507.339L437.535,502.215L366.723,502.215C366.707,502.217 366.7,502.22 366.685,502.222C366.7,502.222 366.715,502.222 366.733,502.225C364.814,502.381 363.329,503.461 363.324,504.777C363.329,506.094 364.814,507.175 366.732,507.331C366.715,507.331 366.7,507.331 366.685,507.333C366.7,507.333 366.707,507.338 366.723,507.338L366.723,507.339L437.533,507.339Z" style="fill:rgb(245,230,182);fill-rule:nonzero;"/>
    <path d="M366.723,507.339C365.008,507.482 363.642,508.364 363.375,509.493L437.535,509.493L437.533,507.339L366.723,507.339Z" style="fill:rgb(249,168,24);fill-rule:nonzero;"/>
    <path d="M363.375,509.497C363.638,508.37 365.006,507.481 366.723,507.339L366.723,507.338C366.708,507.338 366.7,507.333 366.685,507.333C366.7,507.331 366.715,507.331 366.732,507.331C364.814,507.175 363.33,506.094 363.324,504.777C363.33,503.461 364.814,502.381 366.733,502.225C366.715,502.222 366.7,502.222 366.685,502.222C366.7,502.22 366.708,502.217 366.723,502.215C365.006,502.075 363.64,501.188 363.376,500.056L354.344,504.778L363.375,509.497Z" style="fill:rgb(240,177,108);fill-rule:nonzero;"/>
    <path d="M358.777,502.459L354.344,504.778L358.777,507.095C359.047,506.35 359.197,505.576 359.195,504.778C359.195,503.979 359.047,503.204 358.777,502.459" style="fill:rgb(16,55,84);fill-rule:nonzero;"/>
    <path d="M437.589,500.06L437.589,502.215L441.862,502.215L441.86,500.062L437.589,500.06Z" style="fill:rgb(198,34,41);fill-rule:nonzero;"/>
    <path d="M437.589,502.215L437.589,507.339L441.86,507.34L441.862,502.215L437.589,502.215Z" style="fill:rgb(248,90,104);fill-rule:nonzero;"/>
    <path d="M437.589,507.339L437.589,509.493L441.862,509.493L441.86,507.34L437.589,507.339Z" style="fill:rgb(198,34,41);fill-rule:nonzero;"/>
    <path d="M201.73,578.306C200.475,578.306 199.456,577.287 199.456,576.033L199.456,530.404C199.456,529.149 200.475,528.129 201.73,528.129L288.114,528.129C289.369,528.129 290.388,529.149 290.388,530.404L290.388,576.033C290.388,577.287 289.369,578.306 288.114,578.306L201.73,578.306Z" style="fill:white;fill-rule:nonzero;"/>
    <rect x="209.351" y="529.709" width="71.421" height="47.016" style="fill:rgb(0,62,87);fill-rule:nonzero;"/>
    <path d="M204.766,556.106C206.361,556.106 207.656,554.813 207.656,553.216C207.656,551.623 206.361,550.329 204.766,550.329C203.173,550.329 201.879,551.623 201.879,553.216C201.879,554.813 203.173,556.106 204.766,556.106" style="fill:rgb(0,62,87);fill-rule:nonzero;"/>
    <path d="M285.66,554.536C286.388,554.536 286.976,553.947 286.976,553.217C286.976,552.489 286.388,551.9 285.66,551.9C284.931,551.9 284.34,552.489 284.34,553.217C284.34,553.947 284.931,554.536 285.66,554.536" style="fill:rgb(0,62,87);fill-rule:nonzero;"/>
    <path d="M262.745,274.591L262.745,226.618C262.745,224.186 260.772,222.214 258.343,222.214L193.48,222.214C191.045,222.214 189.072,224.186 189.072,226.618L189.072,274.591C189.072,277.022 191.045,278.995 193.48,278.995L258.343,278.995C260.772,278.995 262.745,277.022 262.745,274.591" style="fill:rgb(63,122,147);fill-rule:nonzero;"/>
    <path d="M262.745,274.591L262.745,226.618C262.745,224.186 260.772,222.214 258.343,222.214L237.239,222.214L237.239,278.995L258.343,278.995C260.772,278.995 262.745,277.022 262.745,274.591" style="fill:rgb(16,55,84);fill-rule:nonzero;"/>
    <path d="M209.855,273.116C209.04,273.116 208.388,272.463 208.388,271.648L208.388,263.089C208.388,262.283 209.04,261.622 209.855,261.622L215.489,261.622C216.301,261.622 216.959,262.283 216.959,263.089L216.959,271.648C216.959,272.463 216.301,273.116 215.489,273.116L209.855,273.116Z" style="fill:rgb(16,55,84);fill-rule:nonzero;"/>
    <path d="M197.634,239.587C196.821,239.587 196.164,238.926 196.164,238.117L196.164,229.555C196.164,228.743 196.821,228.085 197.634,228.085L203.27,228.085C204.082,228.085 204.743,228.743 204.743,229.555L204.743,238.117C204.743,238.926 204.082,239.587 203.27,239.587L197.634,239.587Z" style="fill:white;fill-rule:nonzero;"/>
    <path d="M211.338,239.587C210.523,239.587 209.873,238.926 209.873,238.117L209.873,229.555C209.873,228.743 210.523,228.085 211.338,228.085L216.974,228.085C217.786,228.085 218.444,228.743 218.444,229.555L218.444,238.117C218.444,238.926 217.786,239.587 216.974,239.587L211.338,239.587Z" style="fill:white;fill-rule:nonzero;"/>
    <path d="M225.043,239.587C224.233,239.587 223.573,238.926 223.573,238.117L223.573,229.555C223.573,228.743 224.233,228.085 225.043,228.085L230.676,228.085C231.487,228.085 232.147,228.743 232.147,229.555L232.147,238.117C232.147,238.926 231.487,239.587 230.676,239.587L225.043,239.587Z" style="fill:white;fill-rule:nonzero;"/>
    <path d="M197.634,256.351C196.821,256.351 196.164,255.696 196.164,254.881L196.164,246.32C196.164,245.512 196.821,244.85 197.634,244.85L203.27,244.85C204.082,244.85 204.743,245.512 204.743,246.32L204.743,254.881C204.743,255.696 204.082,256.351 203.27,256.351L197.634,256.351Z" style="fill:white;fill-rule:nonzero;"/>
    <path d="M211.338,256.351C210.523,256.351 209.873,255.696 209.873,254.881L209.873,246.32C209.873,245.512 210.523,244.85 211.338,244.85L216.974,244.85C217.786,244.85 218.444,245.512 218.444,246.32L218.444,254.881C218.444,255.696 217.786,256.351 216.974,256.351L211.338,256.351Z" style="fill:white;fill-rule:nonzero;"/>
    <path d="M225.043,256.351C224.233,256.351 223.573,255.696 223.573,254.881L223.573,246.32C223.573,245.512 224.233,244.85 225.043,244.85L230.676,244.85C231.487,244.85 232.147,245.512 232.147,246.32L232.147,254.881C232.147,255.696 231.487,256.351 230.676,256.351L225.043,256.351Z" style="fill:white;fill-rule:nonzero;"/>
    <path d="M197.634,273.116C196.821,273.116 196.164,272.463 196.164,271.648L196.164,263.089C196.164,262.283 196.821,261.622 197.634,261.622L213.367,261.622C214.179,261.622 214.841,262.283 214.841,263.089L214.841,271.648C214.841,272.463 214.179,273.116 213.367,273.116L197.634,273.116Z" style="fill:rgb(253,97,32);fill-rule:nonzero;"/>
    <path d="M211.338,273.116C210.523,273.116 209.873,272.463 209.873,271.648L209.873,263.089C209.873,262.283 210.523,261.622 211.338,261.622L216.974,261.622C217.786,261.622 218.444,262.283 218.444,263.089L218.444,271.648C218.444,272.463 217.786,273.116 216.974,273.116L211.338,273.116Z" style="fill:rgb(253,97,32);fill-rule:nonzero;"/>
    <path d="M225.043,273.116C224.233,273.116 223.573,272.463 223.573,271.648L223.573,263.089C223.573,262.283 224.233,261.622 225.043,261.622L230.676,261.622C231.487,261.622 232.147,262.283 232.147,263.089L232.147,271.648C232.147,272.463 231.487,273.116 230.676,273.116L225.043,273.116Z" style="fill:white;fill-rule:nonzero;"/>
    <path d="M243.334,273.116C242.517,273.116 241.867,272.463 241.867,271.648L241.867,229.555C241.867,228.744 242.517,228.085 243.334,228.085L255.403,228.085C256.213,228.085 256.869,228.744 256.869,229.555L256.869,271.648C256.869,272.463 256.213,273.116 255.403,273.116L243.334,273.116Z" style="fill:rgb(209,236,251);fill-rule:nonzero;"/>
</svg>
