<svg viewBox="0 0 800 801" xmlns="http://www.w3.org/2000/svg" fill-rule="evenodd" clip-rule="evenodd" stroke-linejoin="round" stroke-miterlimit="1.414"><path d="M692.5 400c0-161.542-130.958-292.5-292.5-292.5-161.543 0-292.5 130.958-292.5 292.5S238.458 692.5 400 692.5 692.5 561.542 692.5 400" fill="#a7c0d8"/><path d="M674.11 400c0-151.388-122.724-274.11-274.11-274.11-151.388 0-274.112 122.722-274.112 274.11 0 151.387 122.724 274.11 274.112 274.11 151.386 0 274.11-122.723 274.11-274.11" fill="#96b3d1"/><path d="M562.61 566.91c-23.14 0-41.9-18.76-41.9-41.9 0-23.148 18.76-41.907 41.9-41.907 23.145 0 41.906 18.76 41.906 41.907 0 23.14-18.76 41.9-41.905 41.9" fill="#e6e7e8" fill-rule="nonzero"/><path d="M550.808 568.258a4.528 4.528 0 0 1-2.74-2.13 4.5 4.5 0 0 1-.433-3.434l3.575-13.112 8.74 2.386-3.58 13.11a4.524 4.524 0 0 1-2.123 2.742 4.51 4.51 0 0 1-3.44.438" fill="#fff" fill-rule="nonzero"/><path d="M559.95 551.968l-8.74-2.386-1.335 4.886a31.96 31.96 0 0 0 8.74 2.385l1.335-4.885z" fill="#e0dedc" fill-rule="nonzero"/><path d="M562.61 553.32c-15.635 0-28.31-12.674-28.31-28.31 0-15.642 12.675-28.314 28.31-28.314 15.637 0 28.316 12.672 28.316 28.313 0 15.635-12.68 28.31-28.315 28.31" fill="#fff" fill-rule="nonzero"/><path d="M562.61 548.792c-13.134 0-23.78-10.65-23.78-23.782 0-13.137 10.646-23.786 23.78-23.786 13.138 0 23.785 10.65 23.785 23.786 0 13.132-10.647 23.782-23.784 23.782" fill="#8d4220" fill-rule="nonzero"/><path d="M555.815 508.02c13.137 0 23.784 10.648 23.784 23.78a23.65 23.65 0 0 1-3.92 13.075c6.456-4.255 10.714-11.56 10.714-19.865 0-13.136-10.647-23.786-23.784-23.786-8.303 0-15.613 4.26-19.864 10.713a23.636 23.636 0 0 1 13.07-3.916" fill="#512812" fill-rule="nonzero"/><path fill="#fff" fill-rule="nonzero" d="M322.18 305.544h161.658v111.882h-161.66z"/><path d="M437.13 348.285c0-11.346-9.198-20.542-20.54-20.542-11.343 0-20.54 9.196-20.54 20.542 0 11.344 9.197 20.54 20.54 20.54 11.342 0 20.54-9.196 20.54-20.54" fill="#39b54a" fill-rule="nonzero"/><path d="M412.027 363.186c0-11.34-9.193-20.54-20.54-20.54-11.345 0-20.54 9.2-20.54 20.54 0 11.346 9.195 20.54 20.54 20.54 11.347 0 20.54-9.194 20.54-20.54" fill="#ee2a7b" fill-rule="nonzero"/><path d="M396.676 343.332a20.584 20.584 0 0 0-.626 4.953c0 9.55 6.524 17.55 15.35 19.853a20.39 20.39 0 0 0 .628-4.952c0-9.545-6.526-17.55-15.352-19.854" fill="#da1c5c" fill-rule="nonzero" opacity=".7"/><path d="M433.67 374.685c0-11.346-9.197-20.542-20.54-20.542s-20.54 9.196-20.54 20.542c0 11.34 9.197 20.54 20.54 20.54s20.54-9.2 20.54-20.54" fill="#27aae1" fill-rule="nonzero"/><path d="M392.59 374.685c0 3.147.726 6.12 1.993 8.788 9.872-1.5 17.444-9.998 17.444-20.288 0-3.146-.73-6.117-1.994-8.786-9.873 1.496-17.444 9.993-17.444 20.284" fill="#662d91" fill-rule="nonzero" opacity=".7"/><path d="M430.348 363.507c-3.662-5.634-9.996-9.364-17.217-9.364-5.3 0-10.113 2.02-13.756 5.32 3.662 5.632 9.996 9.36 17.217 9.36 5.3 0 10.116-2.024 13.76-5.316" fill="#1c75bc" fill-rule="nonzero" opacity=".7"/><path fill="#e6e7e8" fill-rule="nonzero" d="M333.085 321.846h8.646v79.27h-8.644zm16.75 0h8.65v79.27h-8.65zm107.985 0h8.65v79.27h-8.65z"/><path d="M474.188 344.81c-.297 0-.602-.07-.88-.226l-15.622-8.393a41.56 41.56 0 0 0-9.512-3.686 41.277 41.277 0 0 0-10.127-1.256h-68.664v-3.725h68.664a45.157 45.157 0 0 1 21.4 5.395l15.624 8.393a1.86 1.86 0 0 1-.88 3.5" fill="#50667e" fill-rule="nonzero"/><path d="M367.418 344.81c.297 0 .6-.07.882-.226l15.617-8.393a41.553 41.553 0 0 1 9.51-3.686 41.31 41.31 0 0 1 10.127-1.256h68.67v-3.725h-68.67a45.18 45.18 0 0 0-21.4 5.395l-15.62 8.393a1.86 1.86 0 0 0 .884 3.5" fill="#50667e" fill-rule="nonzero"/><path d="M415.908 330.486a4.894 4.894 0 0 1 9.787 0h3.722a8.61 8.61 0 0 0-8.615-8.612c-4.753 0-8.613 3.855-8.613 8.612h3.72z" fill="#20364d" fill-rule="nonzero"/><path d="M412.188 336.312c0 3.922-3.205 7.13-7.127 7.13h-24.83c-3.916 0-7.124-3.208-7.124-7.13v-13.385c0-3.92 3.208-7.13 7.125-7.13h24.83c3.924 0 7.13 3.21 7.13 7.13v13.385z" fill="#e1effa" fill-rule="nonzero"/><path d="M405.06 315.798h-13.658v27.643h13.66c3.92 0 7.126-3.205 7.126-7.127v-13.386c0-3.92-3.205-7.128-7.127-7.128" fill="#cee2f2" fill-rule="nonzero"/><path d="M468.395 336.312c0 3.922-3.21 7.13-7.13 7.13H436.43c-3.916 0-7.123-3.208-7.123-7.13v-13.385c0-3.92 3.206-7.13 7.122-7.13h24.83c3.92 0 7.13 3.21 7.13 7.13v13.385z" fill="#e1effa" fill-rule="nonzero"/><path d="M461.264 315.798h-13.658v27.643h13.658c3.92 0 7.13-3.205 7.13-7.127v-13.386c0-3.92-3.21-7.128-7.13-7.128" fill="#cee2f2" fill-rule="nonzero"/><path d="M412.188 336.312c0 3.922-3.205 7.13-7.127 7.13h-24.83c-3.916 0-7.124-3.208-7.124-7.13v-13.385c0-3.92 3.208-7.13 7.125-7.13h24.83c3.924 0 7.13 3.21 7.13 7.13v13.385zm-5.277-24.14h-28.527c-4.95 0-9 4.048-9 8.998v16.9c0 4.95 4.05 9 9 9h28.53c4.946 0 8.997-4.05 8.997-9v-16.9c0-4.95-4.052-9-9-9m61.485 24.142c0 3.922-3.21 7.13-7.13 7.13H436.43c-3.916 0-7.123-3.208-7.123-7.13v-13.385c0-3.92 3.206-7.13 7.122-7.13h24.83c3.92 0 7.13 3.21 7.13 7.13v13.385zm-5.28-24.14h-28.53c-4.95 0-9 4.048-9 8.998v16.9c0 4.95 4.05 9 9 9h28.53c4.95 0 9-4.05 9-9v-16.9c0-4.95-4.05-9-9-9" fill="#2a445e" fill-rule="nonzero"/><path d="M317.943 298.703l-74.16.002c.27 1.126 1.632 2.012 3.346 2.152h70.81l.002-2.154z" fill="#f9a818" fill-rule="nonzero"/><path d="M317.94 305.982v-5.125h-70.81l-.04.007a.29.29 0 0 1 .05.003c-1.92.156-3.405 1.236-3.41 2.553.005 1.316 1.49 2.397 3.41 2.553-.018 0-.034 0-.05.002.016 0 .024.006.04.006v.003h70.81z" fill="#f5e6b6" fill-rule="nonzero"/><path d="M247.13 305.982c-1.715.14-3.08 1.024-3.348 2.154h74.158v-2.154h-70.81z" fill="#f9a818" fill-rule="nonzero"/><path d="M243.782 308.14c.263-1.128 1.63-2.017 3.347-2.158-.017 0-.024-.007-.04-.007.016-.002.03-.002.05-.002-1.92-.155-3.405-1.236-3.41-2.553.005-1.317 1.49-2.397 3.41-2.553-.02-.002-.034-.002-.05-.002l.04-.007c-1.718-.14-3.084-1.027-3.35-2.16l-9.03 4.723 9.03 4.72z" fill="#f0b16c" fill-rule="nonzero"/><path d="M239.184 301.102l-4.432 2.32 4.432 2.316c.27-.745.42-1.52.418-2.317 0-.797-.15-1.573-.418-2.317" fill="#103754" fill-rule="nonzero"/><path d="M317.996 298.703v2.154h4.274l-.003-2.152-4.27-.002z" fill="#c62229" fill-rule="nonzero"/><path d="M317.996 300.857v5.125h4.272l.002-5.125h-4.274z" fill="#f85a68" fill-rule="nonzero"/><path d="M317.996 305.982v2.154h4.274l-.002-2.153h-4.272z" fill="#c62229" fill-rule="nonzero"/><path d="M437.537 500.06l-74.162.002c.27 1.127 1.633 2.014 3.348 2.153h70.812l.002-2.155z" fill="#f9a818" fill-rule="nonzero"/><path d="M437.533 507.34l.002-5.125h-70.812l-.038.007c.015 0 .03 0 .048.003-1.92.156-3.404 1.236-3.41 2.552.006 1.317 1.49 2.398 3.41 2.554-.018 0-.033 0-.048.004.015 0 .022.005.038.005h70.81z" fill="#f5e6b6" fill-rule="nonzero"/><path d="M366.723 507.34c-1.715.142-3.08 1.024-3.348 2.153h74.16l-.002-2.154h-70.81z" fill="#f9a818" fill-rule="nonzero"/><path d="M363.375 509.497c.263-1.127 1.63-2.016 3.348-2.158v-.003c-.015 0-.023-.005-.038-.005.015-.002.03-.002.047-.002-1.918-.155-3.402-1.236-3.408-2.553.006-1.316 1.49-2.396 3.41-2.552-.02-.003-.034-.003-.05-.003l.04-.007c-1.718-.14-3.084-1.027-3.348-2.16l-9.032 4.723 9.03 4.72z" fill="#f0b16c" fill-rule="nonzero"/><path d="M358.777 502.46l-4.433 2.318 4.433 2.317c.27-.745.42-1.52.418-2.317 0-.8-.148-1.574-.418-2.32" fill="#103754" fill-rule="nonzero"/><path d="M437.59 500.06v2.155h4.272l-.002-2.153-4.27-.002z" fill="#c62229" fill-rule="nonzero"/><path d="M437.59 502.215v5.124h4.27l.002-5.126h-4.273z" fill="#f85a68" fill-rule="nonzero"/><path d="M437.59 507.34v2.153h4.272l-.002-2.153h-4.27z" fill="#c62229" fill-rule="nonzero"/><path d="M201.73 578.306a2.275 2.275 0 0 1-2.274-2.273v-45.63a2.276 2.276 0 0 1 2.274-2.274h86.384a2.276 2.276 0 0 1 2.274 2.273v45.63a2.275 2.275 0 0 1-2.274 2.272H201.73z" fill="#fff" fill-rule="nonzero"/><path fill="#003e57" fill-rule="nonzero" d="M209.35 529.71h71.422v47.015h-71.42zm-4.584 26.396a2.89 2.89 0 0 0 2.89-2.89 2.89 2.89 0 1 0-2.89 2.89m80.894-1.57c.728 0 1.316-.59 1.316-1.32a1.318 1.318 0 1 0-1.316 1.32"/><path d="M262.745 274.59v-47.97a4.405 4.405 0 0 0-4.402-4.404H193.48a4.406 4.406 0 0 0-4.408 4.404v47.973a4.406 4.406 0 0 0 4.408 4.405h64.863a4.405 4.405 0 0 0 4.402-4.404" fill="#3f7a93" fill-rule="nonzero"/><path d="M262.745 274.59v-47.97a4.405 4.405 0 0 0-4.402-4.404H237.24v56.78h21.103a4.405 4.405 0 0 0 4.402-4.403m-52.89-1.477a1.462 1.462 0 0 1-1.467-1.468v-8.56c0-.805.652-1.466 1.467-1.466h5.634c.81 0 1.47.66 1.47 1.467v8.557c0 .815-.66 1.468-1.47 1.468h-5.636z" fill="#103754" fill-rule="nonzero"/><path d="M197.634 239.587a1.47 1.47 0 0 1-1.47-1.47v-8.562c0-.812.657-1.47 1.47-1.47h5.636c.812 0 1.473.658 1.473 1.47v8.562c0 .81-.66 1.47-1.473 1.47h-5.636zm13.704 0c-.815 0-1.465-.66-1.465-1.47v-8.562c0-.812.65-1.47 1.465-1.47h5.636c.812 0 1.47.658 1.47 1.47v8.562c0 .81-.658 1.47-1.47 1.47h-5.636zm13.705 0c-.81 0-1.47-.66-1.47-1.47v-8.562c0-.812.66-1.47 1.47-1.47h5.633c.81 0 1.47.658 1.47 1.47v8.562c0 .81-.66 1.47-1.47 1.47h-5.633zm-27.41 16.763c-.812 0-1.47-.654-1.47-1.47v-8.56c0-.808.658-1.47 1.47-1.47h5.637c.812 0 1.473.662 1.473 1.47v8.56c0 .816-.66 1.47-1.473 1.47h-5.636zm13.705 0a1.462 1.462 0 0 1-1.465-1.47v-8.56c0-.808.65-1.47 1.465-1.47h5.636c.812 0 1.47.662 1.47 1.47v8.56c0 .816-.658 1.47-1.47 1.47h-5.636zm13.705 0a1.47 1.47 0 0 1-1.47-1.47v-8.56c0-.808.66-1.47 1.47-1.47h5.633c.81 0 1.47.662 1.47 1.47v8.56c0 .816-.66 1.47-1.47 1.47h-5.633z" fill="#fff" fill-rule="nonzero"/><path d="M197.634 273.116c-.813 0-1.47-.653-1.47-1.468v-8.56a1.47 1.47 0 0 1 1.47-1.466h15.733c.812 0 1.474.66 1.474 1.467v8.557a1.47 1.47 0 0 1-1.472 1.468h-15.733z" fill="#fd6120" fill-rule="nonzero"/><path d="M211.338 273.116a1.46 1.46 0 0 1-1.465-1.468v-8.56c0-.805.65-1.466 1.465-1.466h5.636c.812 0 1.47.66 1.47 1.467v8.557c0 .815-.658 1.468-1.47 1.468h-5.636z" fill="#fd6120" fill-rule="nonzero"/><path d="M225.043 273.116c-.81 0-1.47-.653-1.47-1.468v-8.56c0-.805.66-1.466 1.47-1.466h5.633c.81 0 1.47.66 1.47 1.467v8.557c0 .815-.66 1.468-1.47 1.468h-5.633z" fill="#fff" fill-rule="nonzero"/><path d="M243.334 273.116a1.46 1.46 0 0 1-1.467-1.468v-42.093c0-.81.65-1.47 1.467-1.47h12.07c.81 0 1.465.66 1.465 1.47v42.093c0 .815-.658 1.468-1.468 1.468h-12.07z" fill="#d1ecfb" fill-rule="nonzero"/></svg>