<svg viewBox="0 0 800 801" xmlns="http://www.w3.org/2000/svg" fill-rule="evenodd" clip-rule="evenodd" stroke-linejoin="round" stroke-miterlimit="1.414"><path d="M317.53 342.17l-.072 129.514-183.17-.102.072-129.514 183.17.103z" fill="#fff"/><path fill="#f99b1c" fill-rule="nonzero" d="M300.47 355.56h4.715v16.206h-4.716z"/><path fill="#15b0bf" fill-rule="nonzero" d="M289.72 355.56h4.716v16.206h-4.716z"/><path fill="#a6dae9" fill-rule="nonzero" d="M278.973 355.56h4.715v16.206h-4.715z"/><path fill="#4c8eb4" fill-rule="nonzero" d="M268.224 355.56h4.714v16.206h-4.714z"/><path fill="#ccc" fill-rule="nonzero" d="M299.643 382.737h5.306v75.454h-5.308zm-15.855 0h5.303v75.454h-5.3zm-15.856 0h5.3v75.454h-5.3zm7.93 0h5.297v75.454h-5.3zm15.858 0h5.297v75.454h-5.298zm-110.822-28.24h5.306V458.19h-5.306zm-15.855 0h5.3V458.19h-5.3zm-15.857 0h5.3V458.19h-5.3zm7.93 0h5.297V458.19h-5.297zm15.858 0h5.298V458.19h-5.298zm29.658 1.063h36.442v3.43h-36.442z"/><path fill="#ccc" fill-rule="nonzero" d="M199.203 355.56h3.43v102.632h-3.43z"/><path fill="#15b0bf" fill-rule="nonzero" d="M202.632 367.995h16.206v9.187h-16.206z"/><path fill="#a6dae9" fill-rule="nonzero" d="M218.837 367.995h8.1v9.187h-8.1z"/><path fill="#15b0bf" fill-rule="nonzero" d="M202.632 385.128h23.223v9.186h-23.223z"/><path fill="#a6dae9" fill-rule="nonzero" d="M225.856 385.128h4.642v9.186h-4.642z"/><path fill="#15b0bf" fill-rule="nonzero" d="M202.632 402.26h11.79v9.19h-11.79z"/><path fill="#a6dae9" fill-rule="nonzero" d="M214.423 402.26h8.465v9.19h-8.465z"/><path fill="#15b0bf" fill-rule="nonzero" d="M202.632 419.397h6.754v9.186h-6.754z"/><path fill="#a6dae9" fill-rule="nonzero" d="M209.386 419.397h6.75v9.186h-6.75z"/><clipPath id="a"><path d="M173.15 388.45h44.68v44.68h-44.68z"/></clipPath><g opacity=".1" clip-path="url(#a)"><clipPath id="b"><path d="M173.15 388.45h44.68v44.68h-44.68z"/></clipPath><g clip-path="url(#b)"><path d="M203.805 390.076c5.53 2.218 9.868 6.45 12.21 11.907 4.862 11.314-.39 24.47-11.708 29.327-5.488 2.358-11.57 2.427-17.14.195-5.527-2.22-9.86-6.443-12.2-11.897-2.352-5.475-2.424-11.544-.207-17.092 2.213-5.55 6.448-9.898 11.922-12.25 5.48-2.352 11.564-2.42 17.123-.19" fill="#fff" fill-rule="nonzero"/></g></g><path d="M187.237 390.038" fill="#a6dae9" fill-rule="nonzero"/></svg>