<?xml version="1.0" standalone="no"?>
<!DOCTYPE svg PUBLIC "-//W3C//DTD SVG 1.1//EN" "http://www.w3.org/Graphics/SVG/1.1/DTD/svg11.dtd">
<svg width="100%" height="100%" viewBox="0 0 800 801" version="1.1" xmlns="http://www.w3.org/2000/svg" xmlns:xlink="http://www.w3.org/1999/xlink" xml:space="preserve" style="fill-rule:evenodd;clip-rule:evenodd;stroke-linejoin:round;stroke-miterlimit:1.41421;">
    <path d="M347.549,484.562L347.613,368.638L511.564,368.729L511.498,484.653L347.549,484.562Z" style="fill:white;"/>
    <path d="M432.298,470.013L432.305,460.003L441.412,460.018L441.405,470.033L432.298,470.013Z" style="fill:rgb(76,142,180);"/>
    <path d="M428.377,458.445L428.382,448.431L441.416,448.445L441.412,458.455L428.377,458.445Z" style="fill:rgb(96,157,193);"/>
    <path d="M419.251,446.872L419.255,436.86L441.425,436.867L441.418,446.879L419.251,446.872Z" style="fill:rgb(115,172,205);"/>
    <path d="M422.33,435.291L422.337,425.282L441.429,425.292L441.425,435.302L422.33,435.291Z" style="fill:rgb(135,187,218);"/>
    <path d="M431.874,423.72L431.878,413.709L441.438,413.716L441.431,423.727L431.874,423.72Z" style="fill:rgb(154,202,230);"/>
    <path d="M428.257,412.439L428.263,402.426L441.425,402.433L441.418,412.444L428.257,412.439Z" style="fill:rgb(115,172,205);"/>
    <path d="M422.326,400.856L422.332,390.847L441.429,390.858L441.425,400.87L422.326,400.856Z" style="fill:rgb(135,187,218);"/>
    <path d="M409.718,389.286L409.722,379.274L441.439,379.281L441.431,389.293L409.718,389.286Z" style="fill:rgb(154,202,230);"/>
    <path d="M454.898,473.985L454.92,430.551L457.807,430.551L457.78,473.987L454.898,473.985Z" style="fill:rgb(204,204,204);"/>
    <path d="M459.946,473.988L459.968,430.551L462.856,430.553L462.833,473.988L459.946,473.988Z" style="fill:rgb(204,204,204);"/>
    <path d="M464.996,473.992L465.02,430.557L467.908,430.557L467.882,473.992L464.996,473.992Z" style="fill:rgb(204,204,204);"/>
    <path d="M470.049,473.994L470.07,430.558L472.958,430.559L472.936,473.995L470.049,473.994Z" style="fill:rgb(204,204,204);"/>
    <path d="M475.097,473.996L475.124,430.559L478.007,430.562L477.986,473.998L475.097,473.996Z" style="fill:rgb(204,204,204);"/>
    <path d="M480.147,473.998L480.173,430.562L483.061,430.566L483.035,474.002L480.147,473.998Z" style="fill:rgb(204,204,204);"/>
    <path d="M485.199,474.004L485.221,430.566L488.113,430.568L488.087,474.006L485.199,474.004Z" style="fill:rgb(204,204,204);"/>
    <path d="M490.249,474.006L490.261,452.288L493.148,452.288L493.136,474.007L490.249,474.006Z" style="fill:rgb(204,204,204);"/>
    <path d="M454.927,422.776L454.948,379.339L457.836,379.342L457.811,422.777L454.927,422.776Z" style="fill:rgb(204,204,204);"/>
    <path d="M459.976,422.779L460,379.342L462.885,379.344L462.863,422.78L459.976,422.779Z" style="fill:rgb(204,204,204);"/>
    <path d="M465.025,422.781L465.05,379.346L467.937,379.348L467.912,422.784L465.025,422.781Z" style="fill:rgb(204,204,204);"/>
    <path d="M470.076,422.784L470.099,379.348L472.987,379.35L472.961,422.787L470.076,422.784Z" style="fill:rgb(204,204,204);"/>
    <path d="M475.126,422.787L475.152,379.351L478.036,379.353L478.014,422.79L475.126,422.787Z" style="fill:rgb(204,204,204);"/>
    <path d="M480.179,422.79L480.201,379.355L483.088,379.356L483.064,422.793L480.179,422.79Z" style="fill:rgb(204,204,204);"/>
    <path d="M485.228,422.794L485.25,379.357L488.137,379.36L488.113,422.794L485.228,422.794Z" style="fill:rgb(204,204,204);"/>
    <path d="M490.277,422.797L490.297,392.222L493.181,392.223L493.164,422.797L490.277,422.797Z" style="fill:rgb(204,204,204);"/>
    <path d="M402.23,467.739L398.621,470.402L374.241,437.347L388.929,415.863L365.434,381.551L369.133,379.019L394.364,415.861L379.742,437.248L402.23,467.739Z" style="fill:rgb(254,192,15);fill-rule:nonzero;"/>
    <path d="M376.991,378.708L376.991,382.297L369.077,382.297L369.077,390.208L365.489,390.208L365.489,378.708L376.991,378.708Z" style="fill:rgb(254,192,15);fill-rule:nonzero;"/>
    <path d="M390.803,411.212C388.079,411.212 385.869,413.424 385.869,416.148C385.869,418.871 388.079,421.08 390.803,421.08C393.527,421.08 395.736,418.871 395.736,416.148C395.736,413.424 393.527,411.212 390.803,411.212" style="fill:rgb(21,176,191);fill-rule:nonzero;"/>
    <path d="M376.991,432.29C374.266,432.29 372.057,434.499 372.057,437.225C372.057,439.95 374.266,442.157 376.991,442.157C379.717,442.157 381.925,439.95 381.925,437.225C381.925,434.499 379.717,432.29 376.991,432.29" style="fill:rgb(21,176,191);fill-rule:nonzero;"/>
</svg>
