<?xml version="1.0" standalone="no"?><!DOCTYPE svg PUBLIC "-//W3C//DTD SVG 1.1//EN" "http://www.w3.org/Graphics/SVG/1.1/DTD/svg11.dtd"><svg width="100%" height="100%" viewBox="0 0 148 125" version="1.1" xmlns="http://www.w3.org/2000/svg" xmlns:xlink="http://www.w3.org/1999/xlink" xml:space="preserve" style="fill-rule:evenodd;clip-rule:evenodd;stroke-linejoin:round;stroke-miterlimit:1.41421;"><path d="M147.185,18.997l0.684,104.07l-147.184,0.968l-0.685,-104.07l147.185,-0.968Z" style="fill:#fff;"/><path d="M131.596,45.874l0.332,50.524l-2.591,0.017l-0.333,-50.524l2.592,-0.017Z" style="fill:#ccc;"/><path d="M125.005,28.694l0.559,84.968l-2.591,0.018l-0.559,-84.969l2.591,-0.017Z" style="fill:#ccc;"/><path d="M120.471,28.724l0.559,84.968l-2.591,0.017l-0.559,-84.968l2.591,-0.017Z" style="fill:#ccc;"/><path d="M115.937,28.754l0.559,84.968l-2.591,0.017l-0.559,-84.968l2.591,-0.017Z" style="fill:#ccc;"/><path d="M111.403,28.784l0.558,84.968l-2.59,0.017l-0.56,-84.968l2.592,-0.017Z" style="fill:#ccc;"/><path d="M106.869,28.814l0.558,84.967l-2.591,0.017l-0.559,-84.967l2.592,-0.017Z" style="fill:#ccc;"/><path d="M102.334,28.844l0.559,84.967l-2.59,0.018l-0.56,-84.969l2.591,-0.016Z" style="fill:#ccc;"/><path d="M97.801,28.873l0.558,84.968l-2.591,0.018l-0.559,-84.968l2.592,-0.018Z" style="fill:#ccc;"/><path d="M93.266,28.903l0.559,84.968l-2.591,0.017l-0.559,-84.968l2.591,-0.017Z" style="fill:#ccc;"/><path d="M88.732,28.933l0.279,42.484l-2.591,0.017l-0.279,-42.484l2.591,-0.017Z" style="fill:#ccc;"/><path d="M75.163,102.974c0.039,6.086 -4.861,11.051 -10.947,11.091c-6.085,0.04 -11.05,-4.861 -11.091,-10.946c-0.039,-6.086 4.861,-11.051 10.947,-11.091c6.085,-0.041 11.051,4.861 11.091,10.946" style="fill:#4c8eb4;"/><path d="M54.903,97.043c1.035,-1.588 2.467,-2.895 4.158,-3.775l5.083,9.778l-9.241,-6.003Z" style="fill:#db8a83;"/><path d="M59.061,93.268c1.5,-0.782 3.203,-1.228 5.01,-1.24c3.524,-0.023 6.672,1.61 8.706,4.17l-8.633,6.848l-5.083,-9.778Z" style="fill:#c2db8e;"/><path d="M72.776,96.198c1.479,1.862 2.37,4.214 2.386,6.776l-11.018,0.072l8.632,-6.848Z" style="fill:#73accd;"/><path d="M75.163,102.974l-11.019,0.073l7.78,7.801c2.018,-2.012 3.259,-4.8 3.239,-7.874" style="fill:#e9bd7a;"/><path d="M50.767,29.182l0.332,50.559l-1.293,0.009l-0.333,-50.559l1.294,-0.009Z" style="fill:#ccc;"/><path d="M77.842,29.005l0.059,8.988l-27.075,0.178l-0.06,-8.989l27.076,-0.177Z" style="fill:#c2db8e;"/><path d="M67.701,39.464l0.06,8.988l-16.867,0.111l-0.059,-8.988l16.866,-0.111Z" style="fill:#4674b7;"/><path d="M62.058,49.895l0.059,8.988l-11.155,0.073l-0.059,-8.988l11.155,-0.073Z" style="fill:#db8a83;"/><path d="M67.356,60.253l0.06,8.988l-16.386,0.107l-0.059,-8.987l16.385,-0.108Z" style="fill:#e9bd7a;"/><path d="M62.756,70.676l0.06,8.988l-11.717,0.077l-0.059,-8.988l11.716,-0.077Z" style="fill:#9acae6;"/><path d="M51.185,92.814l0.03,4.536l-1.294,0.008l-0.03,-4.536l1.294,-0.008Z" style="fill:#ccc;"/><path d="M51.229,99.451l0.089,13.474l-1.294,0.008l-0.088,-13.474l1.293,-0.008Z" style="fill:#ccc;"/><path d="M45.378,29.219l0.257,38.994l-2.591,0.017l-0.257,-38.995l2.591,-0.016Z" style="fill:#ccc;"/><path d="M40.844,29.248l0.257,38.995l-2.592,0.017l-0.256,-38.995l2.591,-0.017Z" style="fill:#ccc;"/><path d="M36.31,29.278l0.257,38.995l-2.591,0.017l-0.257,-38.995l2.591,-0.017Z" style="fill:#ccc;"/><path d="M31.776,29.308l0.256,38.994l-2.59,0.017l-0.257,-38.995l2.591,-0.016Z" style="fill:#ccc;"/><path d="M27.242,29.337l0.256,38.996l-2.591,0.016l-0.256,-38.994l2.591,-0.018Z" style="fill:#ccc;"/><path d="M22.708,29.368l0.256,38.994l-2.59,0.017l-0.257,-38.995l2.591,-0.016Z" style="fill:#ccc;"/><path d="M18.174,29.397l0.256,38.995l-2.591,0.017l-0.256,-38.995l2.591,-0.017Z" style="fill:#ccc;"/><path d="M13.639,29.427l0.129,19.497l-2.591,0.018l-0.128,-19.497l2.59,-0.018Z" style="fill:#ccc;"/><path d="M45.681,75.191l0.256,38.996l-2.591,0.016l-0.256,-38.995l2.591,-0.017Z" style="fill:#ccc;"/><path d="M41.146,75.221l0.257,38.995l-2.591,0.016l-0.256,-38.994l2.59,-0.017Z" style="fill:#ccc;"/><path d="M36.613,75.251l0.256,38.995l-2.591,0.017l-0.257,-38.995l2.592,-0.017Z" style="fill:#ccc;"/><path d="M32.078,75.281l0.257,38.995l-2.591,0.016l-0.257,-38.994l2.591,-0.017Z" style="fill:#ccc;"/><path d="M27.544,75.31l0.257,38.995l-2.592,0.017l-0.256,-38.994l2.591,-0.018Z" style="fill:#ccc;"/><path d="M23.01,75.34l0.257,38.996l-2.591,0.016l-0.257,-38.995l2.591,-0.017Z" style="fill:#ccc;"/><path d="M18.476,75.37l0.257,38.995l-2.592,0.017l-0.255,-38.995l2.59,-0.017Z" style="fill:#ccc;"/><path d="M13.942,75.4l0.18,27.447l-2.59,0.018l-0.181,-27.448l2.591,-0.017Z" style="fill:#ccc;"/><path d="M88.349,8.475c-0.229,-0.48 -0.805,-0.684 -1.285,-0.454l-26.148,12.484c-0.48,0.229 -0.684,0.804 -0.455,1.285c0.23,0.481 0.806,0.684 1.286,0.455l26.148,-12.483c0.48,-0.231 0.684,-0.806 0.454,-1.287" style="fill:#485066;fill-rule:nonzero;"/><path d="M18.917,39.766l-1.317,-2.758c-0.264,-0.555 -0.935,-0.789 -1.497,-0.52l-1.266,0.604c-0.561,0.268 -0.801,0.936 -0.537,1.491l1.317,2.759c0.266,0.555 0.936,0.787 1.497,0.52l1.266,-0.605c0.562,-0.268 0.803,-0.936 0.537,-1.491" style="fill:#51596e;fill-rule:nonzero;"/><path d="M18.917,39.766l-0.503,-1.054l-3.3,1.575l0.503,1.055c0.266,0.555 0.936,0.787 1.497,0.52l1.266,-0.605c0.562,-0.268 0.803,-0.936 0.537,-1.491" style="fill:#3e475e;fill-rule:nonzero;"/><path d="M15.726,36.668l2.277,4.769l60.049,-28.67l-2.277,-4.769l-60.049,28.67Z" style="fill:#fff;fill-rule:nonzero;"/><path d="M16.905,39.137l1.098,2.3l60.05,-28.67l-1.098,-2.3l-60.05,28.67Z" style="fill:#f1f1f1;fill-rule:nonzero;"/><path d="M16.709,38.727l0.311,0.651l60.049,-28.671l-0.31,-0.65l-60.05,28.67Z" style="fill:#51596e;fill-rule:nonzero;"/><path d="M94.343,4.454l-1.82,-3.813c-0.269,-0.561 -0.941,-0.799 -1.502,-0.531l-22.317,10.655c-0.216,-0.132 -0.491,-0.156 -0.736,-0.039c-0.386,0.185 -0.55,0.647 -0.365,1.033l0.303,0.635l1.82,3.813l0.304,0.636c0.183,0.386 0.646,0.549 1.032,0.365c0.246,-0.117 0.4,-0.347 0.434,-0.597l22.316,-10.655c0.561,-0.267 0.799,-0.94 0.531,-1.502" style="fill:#51596e;fill-rule:nonzero;"/><path d="M94.343,4.454l-0.775,-1.624l-24.617,11.754l0.775,1.623l0.304,0.636c0.183,0.386 0.646,0.549 1.032,0.365c0.246,-0.117 0.4,-0.347 0.434,-0.597l22.316,-10.655c0.561,-0.267 0.799,-0.94 0.531,-1.502" style="fill:#3e475e;fill-rule:nonzero;"/></svg>