<svg viewBox="0 0 148 125" xmlns="http://www.w3.org/2000/svg" fill-rule="evenodd" clip-rule="evenodd" stroke-linejoin="round" stroke-miterlimit="1.414"><path d="M147.185 18.997l.684 104.07-147.186.968L0 19.965l147.185-.968z" fill="#fff"/><path d="M131.596 45.874l.332 50.524-2.59.017-.334-50.524 2.592-.015zm-6.59-17.18l.56 84.968-2.593.018-.56-84.97 2.592-.016zm-4.536.03l.56 84.968-2.59.017-.56-84.97 2.59-.017zm-4.533.03l.56 84.968-2.592.017-.56-84.97 2.592-.017zm-4.534.03l.558 84.968-2.59.017-.56-84.97 2.594-.017zm-4.533.03l.557 84.967-2.59.02-.56-84.968 2.592-.016zm-4.536.03l.56 84.967-2.59.02-.56-84.97 2.59-.015zm-4.534.03l.56 84.967-2.592.02-.56-84.97 2.593-.016zm-4.534.03l.56 84.967-2.592.02-.56-84.97 2.592-.016zm-4.534.03l.28 42.483-2.592.017-.28-42.484 2.592-.017z" fill="#ccc"/><path d="M75.163 102.974c.04 6.086-4.86 11.05-10.947 11.09-6.085.04-11.05-4.86-11.09-10.945-.04-6.088 4.86-11.053 10.946-11.093 6.085-.04 11.05 4.86 11.09 10.946" fill="#4c8eb4"/><path d="M54.903 97.043a11.074 11.074 0 0 1 4.158-3.775l5.085 9.778-9.24-6.003z" fill="#db8a83"/><path d="M59.06 93.268a10.964 10.964 0 0 1 5.01-1.24 11.002 11.002 0 0 1 8.707 4.17l-8.633 6.848-5.083-9.778z" fill="#c2db8e"/><path d="M72.776 96.198a10.968 10.968 0 0 1 2.386 6.776l-11.018.072 8.632-6.848z" fill="#73accd"/><path d="M75.163 102.974l-11.02.073 7.78 7.8a10.983 10.983 0 0 0 3.24-7.873" fill="#e9bd7a"/><path d="M50.767 29.182l.332 50.56-1.295.008-.333-50.56 1.294-.008z" fill="#ccc"/><path d="M77.842 29.005l.06 8.988-27.076.178-.06-8.987 27.076-.177z" fill="#c2db8e"/><path d="M67.7 39.464l.06 8.988-16.866.11-.06-8.987 16.867-.11z" fill="#4674b7"/><path d="M62.058 49.895l.06 8.988-11.156.073-.06-8.988 11.156-.073z" fill="#db8a83"/><path d="M67.356 60.253l.06 8.988-16.386.11-.06-8.988 16.386-.107z" fill="#e9bd7a"/><path d="M62.756 70.676l.06 8.988-11.717.077-.06-8.986 11.715-.077z" fill="#9acae6"/><path d="M51.185 92.814l.03 4.536-1.294.008-.03-4.536 1.296-.008zm.045 6.636l.088 13.475-1.294.008-.088-13.474 1.293-.01zm-5.852-70.23l.257 38.993-2.59.017-.258-38.995 2.59-.016zm-4.534.028l.257 38.995-2.59.017-.256-38.995 2.59-.017zm-4.534.03l.257 38.995-2.59.017-.258-38.995 2.59-.017zm-4.534.03l.256 38.994-2.59.017-.257-38.997 2.59-.016zm-4.534.03l.256 38.995-2.59.016-.257-38.996 2.593-.018zm-4.534.03l.256 38.994-2.59.017-.257-38.997 2.59-.016zm-4.534.03l.256 38.994-2.59.017-.257-38.997 2.59-.017zm-4.534.03l.128 19.496-2.59.018-.13-19.497 2.59-.018zM45.68 75.19l.257 38.997-2.59.016-.257-38.995 2.59-.017zm-4.534.03l.257 38.996-2.59.016-.257-38.994 2.59-.017zm-4.533.03l.256 38.996-2.593.017-.257-38.995 2.593-.017zm-4.535.03l.257 38.996-2.59.016-.258-38.994 2.59-.017zm-4.534.03l.257 38.995-2.59.017-.256-38.994 2.59-.018zm-4.534.03l.257 38.996-2.59.016-.258-38.995 2.59-.017zm-4.534.03l.257 38.995-2.592.017-.253-38.995 2.59-.017zm-4.534.03l.18 27.447-2.59.018-.18-27.448 2.59-.017z" fill="#ccc"/><path d="M88.35 8.475a.963.963 0 0 0-1.286-.454L60.916 20.507a.964.964 0 0 0 .83 1.74l26.15-12.483a.966.966 0 0 0 .453-1.287" fill="#485066" fill-rule="nonzero"/><path d="M18.917 39.766L17.6 37.008a1.12 1.12 0 0 0-1.497-.52l-1.266.604c-.56.268-.8.936-.537 1.49l1.317 2.76c.266.555.936.787 1.497.52l1.266-.605a1.12 1.12 0 0 0 .537-1.49" fill="#51596e" fill-rule="nonzero"/><path d="M18.917 39.766l-.503-1.054-3.3 1.575.503 1.055c.266.555.936.787 1.497.52l1.266-.605a1.12 1.12 0 0 0 .537-1.49" fill="#3e475e" fill-rule="nonzero"/><path d="M15.726 36.668l2.277 4.77 60.05-28.67-2.278-4.77-60.05 28.67z" fill="#fff" fill-rule="nonzero"/><path d="M16.905 39.137l1.098 2.3 60.05-28.67-1.098-2.3-60.05 28.67z" fill="#f1f1f1" fill-rule="nonzero"/><path d="M16.71 38.727l.31.65 60.05-28.67-.31-.65-60.05 28.67z" fill="#51596e" fill-rule="nonzero"/><path d="M94.343 4.454L92.523.64c-.27-.56-.94-.798-1.502-.53L68.706 10.765a.774.774 0 0 0-1.1.994l.302.634 1.82 3.813.304.636a.774.774 0 0 0 1.467-.232L93.812 5.958c.56-.267.8-.94.53-1.502" fill="#51596e" fill-rule="nonzero"/><path d="M94.343 4.454l-.775-1.624L68.95 14.584l.776 1.623.304.636a.774.774 0 0 0 1.466-.232L93.812 5.958c.56-.267.8-.94.53-1.502" fill="#3e475e" fill-rule="nonzero"/></svg>