<svg viewBox="0 0 800 801" xmlns="http://www.w3.org/2000/svg" fill-rule="evenodd" clip-rule="evenodd" stroke-linejoin="round" stroke-miterlimit="1.414"><path d="M347.55 484.562l.063-115.924 163.95.09-.065 115.925-163.95-.09z" fill="#fff"/><path d="M432.298 470.013l.007-10.01 9.107.015-.007 10.015-9.107-.02z" fill="#4c8eb4"/><path d="M428.377 458.445l.005-10.014 13.034.015-.004 10.01-13.035-.01z" fill="#609dc1"/><path d="M419.25 446.872l.005-10.012 22.17.007-.007 10.012-22.167-.008z" fill="#73accd"/><path d="M422.33 435.29l.007-10.008 19.092.01-.005 10.01-19.095-.01z" fill="#87bbda"/><path d="M431.874 423.72l.004-10.01 9.56.006-.007 10.01-9.556-.006z" fill="#9acae6"/><path d="M428.257 412.44l.006-10.014 13.162.007-.007 10.01-13.16-.004z" fill="#73accd"/><path d="M422.326 400.856l.006-10.01 19.097.012-.005 10.012-19.1-.014z" fill="#87bbda"/><path d="M409.718 389.286l.004-10.012 31.717.007-.01 10.013-31.712-.007z" fill="#9acae6"/><path d="M454.898 473.985l.022-43.434h2.887l-.027 43.437-2.882-.002zM459.946 473.988l.022-43.437 2.888.003-.023 43.435h-2.887zM464.996 473.992l.024-43.435h2.888l-.026 43.435h-2.886zM470.05 473.994l.02-43.436h2.888l-.022 43.437h-2.887zM475.097 473.996l.027-43.437 2.883.002-.02 43.436-2.89-.002zM480.147 473.998l.026-43.436 2.888.004-.025 43.436-2.888-.004zM485.2 474.004l.02-43.438 2.893.002-.026 43.438-2.888-.002zM490.25 474.006l.01-21.718h2.888l-.012 21.72-2.887-.002zM454.927 422.776l.02-43.437 2.89.002-.026 43.435h-2.883zM459.976 422.78L460 379.34l2.885.002-.022 43.436h-2.887zM465.025 422.78l.025-43.434 2.887.002-.025 43.436-2.887-.003zM470.076 422.784l.023-43.436 2.887.002-.026 43.437-2.884-.003zM475.126 422.787l.026-43.436 2.884.003-.022 43.437-2.888-.003zM480.18 422.79l.02-43.435h2.888l-.024 43.438-2.885-.003zM485.228 422.794l.022-43.437 2.887.003-.024 43.434h-2.885zM490.277 422.797l.02-30.575h2.884l-.016 30.575h-2.887z" fill="#ccc"/><path d="M402.23 467.74l-3.61 2.662-24.38-33.055 14.69-21.484-23.496-34.312 3.7-2.53 25.23 36.84-14.622 21.388 22.488 30.49z" fill="#fec00f" fill-rule="nonzero"/><path d="M376.99 378.708v3.59h-7.913v7.91h-3.588v-11.5h11.5z" fill="#fec00f" fill-rule="nonzero"/><path d="M390.803 411.212a4.934 4.934 0 1 0 0 9.868 4.934 4.934 0 0 0 0-9.868M376.99 432.29a4.934 4.934 0 1 0 0 9.868 4.934 4.934 0 0 0 0-9.868" fill="#15b0bf" fill-rule="nonzero"/></svg>