<svg viewBox="0 0 800 801" xmlns="http://www.w3.org/2000/svg" fill-rule="evenodd" clip-rule="evenodd" stroke-linejoin="round" stroke-miterlimit="1.414"><path d="M347.55 484.562l.063-115.924 163.95.09-.065 115.925-163.95-.09z" fill="#fff"/><path d="M432.298 470.013l.007-10.01 9.107.015-.007 10.015-9.107-.02z" fill="#4c8eb4"/><path d="M428.377 458.445l.005-10.014 13.034.016-.004 10.01-13.035-.01z" fill="#609dc1"/><path d="M419.25 446.872l.005-10.012 22.17.007-.007 10.012-22.167-.01z" fill="#73accd"/><path d="M422.33 435.29l.007-10.008 19.092.01-.006 10.01-19.095-.01z" fill="#87bbda"/><path d="M431.874 423.72l.004-10.01 9.56.006-.007 10.01-9.555-.006z" fill="#9acae6"/><path d="M428.257 412.44l.006-10.014 13.162.007-.007 10.01-13.16-.004z" fill="#73accd"/><path d="M422.326 400.856l.006-10.01 19.097.012-.006 10.012-19.1-.014z" fill="#87bbda"/><path d="M409.718 389.286l.004-10.012 31.717.007-.01 10.014-31.713-.007z" fill="#9acae6"/><path d="M454.898 473.985l.022-43.434h2.887l-.027 43.438-2.882-.002zm5.048.003l.022-43.437 2.888.004-.023 43.435h-2.887zm5.05.004l.024-43.435h2.888l-.026 43.435h-2.886zm5.054.002l.02-43.436h2.888l-.022 43.437h-2.887zm5.047.002l.027-43.437h2.883l-.02 43.437-2.89-.002zm5.05.002l.026-43.436 2.888.004-.024 43.436-2.888-.004zm5.053.006l.02-43.438 2.893.002-.026 43.438-2.888-.002zm5.05.002l.01-21.718h2.888l-.012 21.72-2.887-.002zm-35.323-51.23l.02-43.437h2.89l-.026 43.436h-2.882zm5.05.004l.023-43.44 2.885.002-.022 43.436h-2.887zm5.048 0l.025-43.434 2.887.002-.025 43.436-2.887-.003zm5.05.004l.024-43.436 2.886.002-.026 43.437-2.884-.003zm5.05.003l.027-43.436 2.884.004-.022 43.437-2.888-.002zm5.055.003l.02-43.435h2.888l-.024 43.438-2.885-.003zm5.048.004l.022-43.437 2.887.003-.024 43.434h-2.885zm5.05.003l.02-30.575h2.883l-.015 30.575h-2.887z" fill="#ccc"/><path d="M402.23 467.74l-3.61 2.662-24.38-33.055 14.69-21.484-23.496-34.312 3.7-2.53 25.23 36.84-14.622 21.39 22.488 30.49z" fill="#fec00f" fill-rule="nonzero"/><path d="M376.99 378.708v3.59h-7.913v7.91h-3.588v-11.5h11.5z" fill="#fec00f" fill-rule="nonzero"/><path d="M390.803 411.212a4.934 4.934 0 1 0 0 9.868 4.934 4.934 0 0 0 0-9.868M376.99 432.29a4.934 4.934 0 1 0 0 9.868 4.934 4.934 0 0 0 0-9.868" fill="#15b0bf" fill-rule="nonzero"/></svg>