<?xml version="1.0" standalone="no"?><!DOCTYPE svg PUBLIC "-//W3C//DTD SVG 1.1//EN" "http://www.w3.org/Graphics/SVG/1.1/DTD/svg11.dtd"><svg width="100%" height="100%" viewBox="0 0 439 439" version="1.1" xmlns="http://www.w3.org/2000/svg" xmlns:xlink="http://www.w3.org/1999/xlink" xml:space="preserve" style="fill-rule:evenodd;clip-rule:evenodd;stroke-linejoin:round;stroke-miterlimit:1.41421;"><path d="M438.749,219.374c0,-121.156 -98.218,-219.374 -219.375,-219.374c-121.157,0 -219.374,98.218 -219.374,219.374c0,121.157 98.217,219.375 219.374,219.375c121.157,0 219.375,-98.218 219.375,-219.375" style="fill:#a7c0d8;"/><path d="M424.958,219.374c0,-113.541 -92.044,-205.583 -205.584,-205.583c-113.541,0 -205.584,92.042 -205.584,205.583c0,113.54 92.043,205.584 205.584,205.584c113.54,0 205.584,-92.044 205.584,-205.584" style="fill:#96b3d1;"/><path d="M341.333,344.557c-17.355,0 -31.425,-14.071 -31.425,-31.425c0,-17.361 14.07,-31.43 31.425,-31.43c17.358,0 31.428,14.069 31.428,31.43c0,17.354 -14.07,31.425 -31.428,31.425" style="fill:#e6e7e8;fill-rule:nonzero;"/><path d="M332.48,345.568c-0.838,-0.231 -1.591,-0.78 -2.056,-1.597c-0.463,-0.812 -0.556,-1.739 -0.324,-2.576l2.681,-9.834l6.556,1.789l-2.685,9.833c-0.226,0.837 -0.78,1.59 -1.593,2.056c-0.812,0.466 -1.738,0.557 -2.579,0.329" style="fill:#fff;fill-rule:nonzero;"/><path d="M339.337,333.35l-6.555,-1.789l-1.001,3.664c2.052,0.89 4.255,1.5 6.555,1.789l1.001,-3.664Z" style="fill:#e0dedc;fill-rule:nonzero;"/><path d="M341.333,334.364c-11.727,0 -21.233,-9.505 -21.233,-21.233c0,-11.731 9.506,-21.235 21.233,-21.235c11.727,0 21.236,9.504 21.236,21.235c0,11.728 -9.509,21.233 -21.236,21.233" style="fill:#fff;fill-rule:nonzero;"/><path d="M341.333,330.968c-9.852,0 -17.837,-7.987 -17.837,-17.836c0,-9.853 7.985,-17.84 17.837,-17.84c9.852,0 17.838,7.987 17.838,17.84c0,9.849 -7.986,17.836 -17.838,17.836" style="fill:#8d4220;fill-rule:nonzero;"/><path d="M336.236,300.39c9.853,0 17.838,7.985 17.838,17.835c0,3.623 -1.081,6.992 -2.938,9.805c4.841,-3.191 8.035,-8.67 8.035,-14.899c0,-9.852 -7.985,-17.839 -17.838,-17.839c-6.228,0 -11.711,3.196 -14.899,8.035c2.813,-1.857 6.181,-2.937 9.802,-2.937" style="fill:#512812;fill-rule:nonzero;"/><rect x="161.009" y="148.532" width="121.244" height="83.911" style="fill:#fff;fill-rule:nonzero;"/><path d="M247.222,180.588c0,-8.509 -6.899,-15.406 -15.405,-15.406c-8.508,0 -15.406,6.897 -15.406,15.406c0,8.508 6.898,15.405 15.406,15.405c8.506,0 15.405,-6.897 15.405,-15.405" style="fill:#39b54a;fill-rule:nonzero;"/><path d="M228.395,191.763c0,-8.505 -6.895,-15.404 -15.405,-15.404c-8.509,0 -15.405,6.899 -15.405,15.404c0,8.51 6.896,15.405 15.405,15.405c8.51,0 15.405,-6.895 15.405,-15.405" style="fill:#ee2a7b;fill-rule:nonzero;"/><g><g opacity="0.699997"><path d="M216.881,176.873c-0.295,1.191 -0.469,2.433 -0.469,3.715c0,7.162 4.893,13.162 11.513,14.89c0.297,-1.191 0.47,-2.429 0.47,-3.714c0,-7.159 -4.894,-13.163 -11.514,-14.891" style="fill:#da1c5c;fill-rule:nonzero;"/></g></g><path d="M244.627,200.388c0,-8.509 -6.898,-15.406 -15.405,-15.406c-8.508,0 -15.406,6.897 -15.406,15.406c0,8.504 6.898,15.405 15.406,15.405c8.507,0 15.405,-6.901 15.405,-15.405" style="fill:#27aae1;fill-rule:nonzero;"/><g><g opacity="0.699997"><path d="M213.816,200.388c0,2.36 0.546,4.589 1.496,6.591c7.404,-1.124 13.083,-7.498 13.083,-15.216c0,-2.359 -0.547,-4.588 -1.496,-6.589c-7.404,1.123 -13.083,7.496 -13.083,15.214" style="fill:#662d91;fill-rule:nonzero;"/></g></g><g><g opacity="0.699997"><path d="M242.135,192.005c-2.746,-4.226 -7.497,-7.023 -12.913,-7.023c-3.977,0 -7.586,1.515 -10.318,3.989c2.746,4.225 7.497,7.021 12.913,7.021c3.975,0 7.586,-1.518 10.318,-3.987" style="fill:#1c75bc;fill-rule:nonzero;"/></g></g><rect x="169.188" y="160.759" width="6.484" height="59.453" style="fill:#e6e7e8;fill-rule:nonzero;"/><rect x="181.751" y="160.759" width="6.486" height="59.453" style="fill:#e6e7e8;fill-rule:nonzero;"/><rect x="262.74" y="160.759" width="6.487" height="59.453" style="fill:#e6e7e8;fill-rule:nonzero;"/><path d="M180.036,282.795l0.048,-86.943l122.963,0.069l-0.049,86.943l-122.962,-0.069Z" style="fill:#fff;"/><path d="M243.598,271.884l0.005,-7.508l6.83,0.012l-0.005,7.511l-6.83,-0.015Z" style="fill:#4c8eb4;"/><path d="M240.657,263.208l0.004,-7.51l9.775,0.01l-0.003,7.508l-9.776,-0.008Z" style="fill:#609dc1;"/><path d="M233.813,254.528l0.002,-7.509l16.628,0.006l-0.005,7.509l-16.626,-0.006Z" style="fill:#73accd;"/><path d="M236.122,245.842l0.005,-7.506l14.319,0.007l-0.003,7.508l-14.321,-0.009Z" style="fill:#87bbda;"/><path d="M243.28,237.164l0.003,-7.508l7.17,0.005l-0.005,7.508l-7.168,-0.005Z" style="fill:#9acae6;"/><path d="M240.567,228.703l0.004,-7.51l9.872,0.006l-0.005,7.508l-9.871,-0.004Z" style="fill:#73accd;"/><path d="M236.119,220.017l0.004,-7.507l14.323,0.008l-0.003,7.509l-14.324,-0.01Z" style="fill:#87bbda;"/><path d="M226.663,211.339l0.003,-7.509l23.787,0.005l-0.006,7.509l-23.784,-0.005Z" style="fill:#9acae6;"/><path d="M260.547,274.863l0.017,-32.575l2.165,0l-0.019,32.577l-2.163,-0.002Z" style="fill:#ccc;"/><path d="M264.334,274.865l0.016,-32.577l2.166,0.001l-0.017,32.576l-2.165,0Z" style="fill:#ccc;"/><path d="M268.121,274.868l0.018,-32.576l2.166,0l-0.019,32.576l-2.165,0Z" style="fill:#ccc;"/><path d="M271.911,274.87l0.016,-32.577l2.166,0.001l-0.017,32.577l-2.165,-0.001Z" style="fill:#ccc;"/><path d="M275.697,274.871l0.02,-32.577l2.162,0.002l-0.015,32.577l-2.167,-0.002Z" style="fill:#ccc;"/><path d="M279.484,274.873l0.02,-32.577l2.166,0.003l-0.02,32.577l-2.166,-0.003Z" style="fill:#ccc;"/><path d="M283.274,274.877l0.016,-32.578l2.169,0.001l-0.019,32.579l-2.166,-0.002Z" style="fill:#ccc;"/><path d="M287.061,274.879l0.009,-16.289l2.165,0l-0.009,16.289l-2.165,0Z" style="fill:#ccc;"/><path d="M260.569,236.457l0.016,-32.578l2.166,0.002l-0.019,32.576l-2.163,0Z" style="fill:#ccc;"/><path d="M264.356,236.459l0.018,-32.578l2.164,0.001l-0.017,32.577l-2.165,0Z" style="fill:#ccc;"/><path d="M268.143,236.46l0.019,-32.576l2.165,0.001l-0.018,32.577l-2.166,-0.002Z" style="fill:#ccc;"/><path d="M271.931,236.462l0.018,-32.577l2.166,0.002l-0.02,32.578l-2.164,-0.003Z" style="fill:#ccc;"/><path d="M275.719,236.465l0.019,-32.577l2.163,0.001l-0.016,32.578l-2.166,-0.002Z" style="fill:#ccc;"/><path d="M279.508,236.467l0.017,-32.577l2.165,0.001l-0.018,32.578l-2.164,-0.002Z" style="fill:#ccc;"/><path d="M283.296,236.47l0.016,-32.578l2.165,0.002l-0.018,32.576l-2.163,0Z" style="fill:#ccc;"/><path d="M287.082,236.472l0.015,-22.931l2.163,0l-0.013,22.931l-2.165,0Z" style="fill:#ccc;"/><path d="M221.046,270.179l-2.706,1.997l-18.285,-24.791l11.016,-16.113l-17.621,-25.734l2.774,-1.899l18.923,27.631l-10.966,16.04l16.865,22.869Z" style="fill:#fec00f;fill-rule:nonzero;"/><path d="M202.118,203.405l0,2.692l-5.936,0l0,5.933l-2.691,0l0,-8.625l8.627,0Z" style="fill:#fec00f;fill-rule:nonzero;"/><path d="M212.477,227.783c-2.043,0 -3.701,1.659 -3.701,3.702c0,2.042 1.658,3.699 3.701,3.699c2.043,0 3.699,-1.657 3.699,-3.699c0,-2.043 -1.656,-3.702 -3.699,-3.702" style="fill:#15b0bf;fill-rule:nonzero;"/><path d="M202.118,243.592c-2.044,0 -3.701,1.656 -3.701,3.701c0,2.044 1.657,3.699 3.701,3.699c2.044,0 3.7,-1.655 3.7,-3.699c0,-2.045 -1.656,-3.701 -3.7,-3.701" style="fill:#15b0bf;fill-rule:nonzero;"/><path d="M275.015,177.982c-0.223,0 -0.452,-0.052 -0.659,-0.17l-11.718,-6.294c-2.254,-1.212 -4.653,-2.141 -7.134,-2.766c-2.478,-0.628 -5.034,-0.942 -7.595,-0.942l-51.498,0l0,-2.794l51.498,0c2.791,0 5.574,0.349 8.278,1.027c2.7,0.681 5.317,1.696 7.773,3.019l11.717,6.295c0.68,0.364 0.933,1.212 0.569,1.889c-0.252,0.469 -0.735,0.736 -1.231,0.736" style="fill:#50667e;fill-rule:nonzero;"/><path d="M194.938,177.982c0.223,0 0.45,-0.052 0.662,-0.17l11.712,-6.294c2.254,-1.212 4.654,-2.141 7.134,-2.766c2.481,-0.628 5.036,-0.942 7.594,-0.942l51.503,0l0,-2.794l-51.503,0c-2.787,0 -5.572,0.349 -8.274,1.027c-2.704,0.681 -5.316,1.696 -7.775,3.019l-11.716,6.295c-0.679,0.364 -0.934,1.212 -0.57,1.889c0.254,0.469 0.737,0.736 1.233,0.736" style="fill:#50667e;fill-rule:nonzero;"/><path d="M231.305,167.239c0,-2.024 1.648,-3.667 3.67,-3.667c2.026,0 3.671,1.643 3.671,3.667l2.79,0c0,-3.568 -2.89,-6.459 -6.461,-6.459c-3.565,0 -6.46,2.891 -6.46,6.459l2.79,0Z" style="fill:#20364d;fill-rule:nonzero;"/><path d="M228.515,171.608c0,2.941 -2.404,5.347 -5.345,5.347l-18.624,0c-2.937,0 -5.343,-2.406 -5.343,-5.347l0,-10.039c0,-2.939 2.406,-5.347 5.343,-5.347l18.624,0c2.941,0 5.345,2.408 5.345,5.347l0,10.039Z" style="fill:#e1effa;fill-rule:nonzero;"/><path d="M223.17,156.223l-10.245,0l0,20.732l10.245,0c2.941,0 5.345,-2.405 5.345,-5.347l0,-10.039c0,-2.94 -2.404,-5.346 -5.345,-5.346" style="fill:#cee2f2;fill-rule:nonzero;"/><path d="M270.67,171.608c0,2.941 -2.408,5.347 -5.348,5.347l-18.624,0c-2.937,0 -5.342,-2.406 -5.342,-5.347l0,-10.039c0,-2.939 2.405,-5.347 5.342,-5.347l18.624,0c2.94,0 5.348,2.408 5.348,5.347l0,10.039Z" style="fill:#e1effa;fill-rule:nonzero;"/><path d="M265.322,156.223l-10.243,0l0,20.732l10.243,0c2.94,0 5.348,-2.405 5.348,-5.347l0,-10.039c0,-2.94 -2.408,-5.346 -5.348,-5.346" style="fill:#cee2f2;fill-rule:nonzero;"/><path d="M228.515,171.608c0,2.941 -2.404,5.347 -5.345,5.347l-18.624,0c-2.937,0 -5.343,-2.406 -5.343,-5.347l0,-10.039c0,-2.939 2.406,-5.347 5.343,-5.347l18.624,0c2.941,0 5.345,2.408 5.345,5.347l0,10.039ZM224.557,153.502l-21.397,0c-3.712,0 -6.749,3.037 -6.749,6.749l0,12.676c0,3.712 3.037,6.749 6.749,6.749l21.397,0c3.71,0 6.749,-3.037 6.749,-6.749l0,-12.676c0,-3.712 -3.039,-6.749 -6.749,-6.749" style="fill:#2a445e;fill-rule:nonzero;"/><path d="M270.67,171.608c0,2.941 -2.408,5.347 -5.348,5.347l-18.624,0c-2.937,0 -5.342,-2.406 -5.342,-5.347l0,-10.039c0,-2.939 2.405,-5.347 5.342,-5.347l18.624,0c2.94,0 5.348,2.408 5.348,5.347l0,10.039ZM266.709,153.502l-21.396,0c-3.713,0 -6.75,3.037 -6.75,6.749l0,12.676c0,3.712 3.037,6.749 6.75,6.749l21.396,0c3.714,0 6.752,-3.037 6.752,-6.749l0,-12.676c0,-3.712 -3.038,-6.749 -6.752,-6.749" style="fill:#2a445e;fill-rule:nonzero;"/><path d="M157.832,143.402l-55.621,0.001c0.203,0.845 1.225,1.509 2.51,1.614l53.109,0l0.002,-1.615Z" style="fill:#f9a818;fill-rule:nonzero;"/><path d="M157.829,148.861l0.001,-3.844l-53.109,0c-0.011,0.002 -0.017,0.004 -0.028,0.005c0.011,0 0.023,0 0.037,0.002c-1.44,0.117 -2.554,0.927 -2.558,1.915c0.004,0.987 1.118,1.798 2.558,1.915c-0.014,0 -0.026,0 -0.037,0.001c0.011,0 0.017,0.005 0.028,0.005l0,0.001l53.108,0Z" style="fill:#f5e6b6;fill-rule:nonzero;"/><path d="M104.721,148.861c-1.285,0.105 -2.31,0.768 -2.51,1.615l55.619,0l-0.001,-1.615l-53.108,0Z" style="fill:#f9a818;fill-rule:nonzero;"/><path d="M102.211,150.479c0.197,-0.846 1.223,-1.513 2.51,-1.619l0,0c-0.011,0 -0.016,-0.005 -0.028,-0.005c0.012,-0.001 0.023,-0.001 0.036,-0.001c-1.439,-0.117 -2.553,-0.927 -2.557,-1.915c0.004,-0.988 1.118,-1.798 2.557,-1.915c-0.013,-0.001 -0.024,-0.001 -0.036,-0.001c0.012,-0.002 0.017,-0.004 0.028,-0.006c-1.287,-0.105 -2.311,-0.77 -2.51,-1.62l-6.773,3.543l6.773,3.539Z" style="fill:#f0b16c;fill-rule:nonzero;"/><path d="M98.762,145.2l-3.324,1.74l3.324,1.737c0.202,-0.558 0.314,-1.139 0.313,-1.737c0,-0.6 -0.111,-1.182 -0.313,-1.74" style="fill:#103754;fill-rule:nonzero;"/><path d="M157.871,143.402l0,1.615l3.205,0l-0.002,-1.614l-3.203,-0.001Z" style="fill:#c62229;fill-rule:nonzero;"/><path d="M157.871,145.017l0,3.844l3.204,0l0.001,-3.844l-3.205,0Z" style="fill:#f85a68;fill-rule:nonzero;"/><path d="M157.871,148.861l0,1.615l3.205,0l-0.001,-1.615l-3.204,0Z" style="fill:#c62229;fill-rule:nonzero;"/><path d="M247.527,294.419l-55.621,0.001c0.203,0.846 1.224,1.511 2.511,1.615l53.109,0l0.001,-1.616Z" style="fill:#f9a818;fill-rule:nonzero;"/><path d="M247.524,299.878l0.002,-3.843l-53.109,0c-0.012,0.002 -0.018,0.004 -0.029,0.006c0.011,0 0.023,0 0.036,0.002c-1.439,0.117 -2.553,0.927 -2.557,1.914c0.004,0.988 1.118,1.798 2.556,1.915c-0.012,0 -0.024,0 -0.035,0.002c0.011,0 0.017,0.004 0.029,0.004l0,0l53.107,0Z" style="fill:#f5e6b6;fill-rule:nonzero;"/><path d="M194.417,299.878c-1.287,0.108 -2.311,0.769 -2.511,1.616l55.62,0l-0.002,-1.616l-53.107,0Z" style="fill:#f9a818;fill-rule:nonzero;"/><path d="M191.906,301.497c0.197,-0.845 1.223,-1.512 2.511,-1.618l0,-0.001c-0.012,0 -0.018,-0.004 -0.029,-0.004c0.011,-0.001 0.023,-0.001 0.035,-0.001c-1.438,-0.117 -2.551,-0.928 -2.556,-1.916c0.005,-0.987 1.118,-1.797 2.557,-1.914c-0.013,-0.002 -0.025,-0.002 -0.036,-0.002c0.011,-0.002 0.017,-0.004 0.029,-0.005c-1.288,-0.105 -2.313,-0.771 -2.511,-1.62l-6.774,3.542l6.774,3.539Z" style="fill:#f0b16c;fill-rule:nonzero;"/><path d="M188.457,296.218l-3.325,1.74l3.325,1.737c0.202,-0.558 0.315,-1.139 0.313,-1.737c0,-0.6 -0.111,-1.181 -0.313,-1.74" style="fill:#103754;fill-rule:nonzero;"/><path d="M247.566,294.419l0,1.616l3.205,0l-0.002,-1.615l-3.203,-0.001Z" style="fill:#c62229;fill-rule:nonzero;"/><path d="M247.566,296.035l0,3.843l3.203,0.001l0.002,-3.844l-3.205,0Z" style="fill:#f85a68;fill-rule:nonzero;"/><path d="M247.566,299.878l0,1.616l3.205,0l-0.002,-1.615l-3.203,-0.001Z" style="fill:#c62229;fill-rule:nonzero;"/><path d="M157.521,176.003l-0.053,97.135l-137.378,-0.077l0.054,-97.135l137.377,0.077Z" style="fill:#fff;"/><rect x="144.726" y="186.044" width="3.537" height="12.154" style="fill:#f99b1c;fill-rule:nonzero;"/><rect x="136.664" y="186.044" width="3.537" height="12.154" style="fill:#15b0bf;fill-rule:nonzero;"/><rect x="128.604" y="186.044" width="3.536" height="12.154" style="fill:#a6dae9;fill-rule:nonzero;"/><rect x="120.542" y="186.044" width="3.535" height="12.154" style="fill:#4c8eb4;fill-rule:nonzero;"/><rect x="144.107" y="206.427" width="3.979" height="56.591" style="fill:#ccc;fill-rule:nonzero;"/><rect x="132.215" y="206.427" width="3.977" height="56.591" style="fill:#ccc;fill-rule:nonzero;"/><rect x="120.323" y="206.427" width="3.974" height="56.591" style="fill:#ccc;fill-rule:nonzero;"/><rect x="126.271" y="206.427" width="3.973" height="56.591" style="fill:#ccc;fill-rule:nonzero;"/><rect x="138.164" y="206.427" width="3.974" height="56.591" style="fill:#ccc;fill-rule:nonzero;"/><rect x="55.048" y="185.247" width="3.98" height="77.77" style="fill:#ccc;fill-rule:nonzero;"/><rect x="43.156" y="185.247" width="3.976" height="77.77" style="fill:#ccc;fill-rule:nonzero;"/><rect x="31.264" y="185.247" width="3.976" height="77.77" style="fill:#ccc;fill-rule:nonzero;"/><rect x="37.211" y="185.247" width="3.973" height="77.77" style="fill:#ccc;fill-rule:nonzero;"/><rect x="49.105" y="185.247" width="3.974" height="77.77" style="fill:#ccc;fill-rule:nonzero;"/><rect x="71.348" y="186.045" width="27.332" height="2.572" style="fill:#ccc;fill-rule:nonzero;"/><rect x="68.777" y="186.044" width="2.572" height="76.974" style="fill:#ccc;fill-rule:nonzero;"/><rect x="71.348" y="195.371" width="12.155" height="6.89" style="fill:#15b0bf;fill-rule:nonzero;"/><rect x="83.502" y="195.371" width="6.076" height="6.89" style="fill:#a6dae9;fill-rule:nonzero;"/><rect x="71.348" y="208.22" width="17.417" height="6.889" style="fill:#15b0bf;fill-rule:nonzero;"/><rect x="88.766" y="208.22" width="3.481" height="6.889" style="fill:#a6dae9;fill-rule:nonzero;"/><rect x="71.348" y="221.069" width="8.843" height="6.893" style="fill:#15b0bf;fill-rule:nonzero;"/><rect x="80.192" y="221.069" width="6.349" height="6.893" style="fill:#a6dae9;fill-rule:nonzero;"/><rect x="71.348" y="233.922" width="5.066" height="6.889" style="fill:#15b0bf;fill-rule:nonzero;"/><rect x="76.414" y="233.922" width="5.063" height="6.889" style="fill:#a6dae9;fill-rule:nonzero;"/><path d="M60.688,211.578c-0.125,0.042 -0.25,0.086 -0.374,0.13c0.124,-0.043 0.249,-0.088 0.374,-0.13" style="fill:#a6dae9;fill-rule:nonzero;"/><path d="M60.236,211.737c-0.112,0.042 -0.221,0.082 -0.332,0.126c0.111,-0.044 0.22,-0.085 0.332,-0.126" style="fill:#a6dae9;fill-rule:nonzero;"/><path d="M59.802,211.903c-0.139,0.055 -0.277,0.111 -0.416,0.17c0.139,-0.059 0.277,-0.115 0.416,-0.17" style="fill:#a6dae9;fill-rule:nonzero;"/><path d="M70.672,353.104c-0.941,0 -1.706,-0.765 -1.706,-1.705l0,-34.222c0,-0.941 0.765,-1.706 1.706,-1.706l64.788,0c0.941,0 1.705,0.765 1.705,1.706l0,34.222c0,0.94 -0.764,1.705 -1.705,1.705l-64.788,0Z" style="fill:#fff;fill-rule:nonzero;"/><rect x="76.388" y="316.656" width="53.566" height="35.262" style="fill:#003e57;fill-rule:nonzero;"/><path d="M72.949,336.454c1.196,0 2.167,-0.97 2.167,-2.167c0,-1.195 -0.971,-2.166 -2.167,-2.166c-1.195,0 -2.165,0.971 -2.165,2.166c0,1.197 0.97,2.167 2.165,2.167" style="fill:#003e57;fill-rule:nonzero;"/><path d="M133.619,335.276c0.546,0 0.987,-0.441 0.987,-0.989c0,-0.546 -0.441,-0.988 -0.987,-0.988c-0.546,0 -0.99,0.442 -0.99,0.988c0,0.548 0.444,0.989 0.99,0.989" style="fill:#003e57;fill-rule:nonzero;"/><path d="M116.433,125.317l0,-35.979c0,-1.824 -1.48,-3.303 -3.302,-3.303l-48.647,0c-1.826,0 -3.306,1.479 -3.306,3.303l0,35.979c0,1.824 1.48,3.303 3.306,3.303l48.647,0c1.822,0 3.302,-1.479 3.302,-3.303" style="fill:#3f7a93;fill-rule:nonzero;"/><path d="M116.433,125.317l0,-35.979c0,-1.824 -1.48,-3.303 -3.302,-3.303l-15.828,0l0,42.585l15.828,0c1.822,0 3.302,-1.479 3.302,-3.303" style="fill:#103754;fill-rule:nonzero;"/><path d="M76.766,124.211c-0.612,0 -1.101,-0.49 -1.101,-1.101l0,-6.419c0,-0.605 0.489,-1.1 1.101,-1.1l4.225,0c0.609,0 1.103,0.495 1.103,1.1l0,6.419c0,0.611 -0.494,1.101 -1.103,1.101l-4.225,0Z" style="fill:#103754;fill-rule:nonzero;"/><path d="M67.6,99.065c-0.61,0 -1.103,-0.496 -1.103,-1.103l0,-6.421c0,-0.609 0.493,-1.103 1.103,-1.103l4.227,0c0.609,0 1.104,0.494 1.104,1.103l0,6.421c0,0.607 -0.495,1.103 -1.104,1.103l-4.227,0Z" style="fill:#fff;fill-rule:nonzero;"/><path d="M77.878,99.065c-0.611,0 -1.099,-0.496 -1.099,-1.103l0,-6.421c0,-0.609 0.488,-1.103 1.099,-1.103l4.227,0c0.609,0 1.103,0.494 1.103,1.103l0,6.421c0,0.607 -0.494,1.103 -1.103,1.103l-4.227,0Z" style="fill:#fff;fill-rule:nonzero;"/><path d="M88.156,99.065c-0.607,0 -1.102,-0.496 -1.102,-1.103l0,-6.421c0,-0.609 0.495,-1.103 1.102,-1.103l4.226,0c0.608,0 1.102,0.494 1.102,1.103l0,6.421c0,0.607 -0.494,1.103 -1.102,1.103l-4.226,0Z" style="fill:#fff;fill-rule:nonzero;"/><path d="M67.6,111.638c-0.61,0 -1.103,-0.492 -1.103,-1.103l0,-6.421c0,-0.606 0.493,-1.102 1.103,-1.102l4.227,0c0.609,0 1.104,0.496 1.104,1.102l0,6.421c0,0.611 -0.495,1.103 -1.104,1.103l-4.227,0Z" style="fill:#fff;fill-rule:nonzero;"/><path d="M77.878,111.638c-0.611,0 -1.099,-0.492 -1.099,-1.103l0,-6.421c0,-0.606 0.488,-1.102 1.099,-1.102l4.227,0c0.609,0 1.103,0.496 1.103,1.102l0,6.421c0,0.611 -0.494,1.103 -1.103,1.103l-4.227,0Z" style="fill:#fff;fill-rule:nonzero;"/><path d="M88.156,111.638c-0.607,0 -1.102,-0.492 -1.102,-1.103l0,-6.421c0,-0.606 0.495,-1.102 1.102,-1.102l4.226,0c0.608,0 1.102,0.496 1.102,1.102l0,6.421c0,0.611 -0.494,1.103 -1.102,1.103l-4.226,0Z" style="fill:#fff;fill-rule:nonzero;"/><path d="M67.6,124.211c-0.61,0 -1.103,-0.49 -1.103,-1.101l0,-6.419c0,-0.605 0.493,-1.1 1.103,-1.1l11.799,0c0.609,0 1.106,0.495 1.106,1.1l0,6.419c0,0.611 -0.497,1.101 -1.106,1.101l-11.799,0Z" style="fill:#fd6120;fill-rule:nonzero;"/><path d="M77.878,124.211c-0.611,0 -1.099,-0.49 -1.099,-1.101l0,-6.419c0,-0.605 0.488,-1.1 1.099,-1.1l4.227,0c0.609,0 1.103,0.495 1.103,1.1l0,6.419c0,0.611 -0.494,1.101 -1.103,1.101l-4.227,0Z" style="fill:#fd6120;fill-rule:nonzero;"/><path d="M88.156,124.211c-0.607,0 -1.102,-0.49 -1.102,-1.101l0,-6.419c0,-0.605 0.495,-1.1 1.102,-1.1l4.226,0c0.608,0 1.102,0.495 1.102,1.1l0,6.419c0,0.611 -0.494,1.101 -1.102,1.101l-4.226,0Z" style="fill:#fff;fill-rule:nonzero;"/><path d="M101.875,124.211c-0.613,0 -1.1,-0.49 -1.1,-1.101l0,-31.57c0,-0.608 0.487,-1.102 1.1,-1.102l9.052,0c0.607,0 1.099,0.494 1.099,1.102l0,31.57c0,0.611 -0.492,1.101 -1.099,1.101l-9.052,0Z" style="fill:#d1ecfb;fill-rule:nonzero;"/></svg>