<svg viewBox="0 0 617 656" xmlns="http://www.w3.org/2000/svg" fill-rule="evenodd" clip-rule="evenodd" stroke-miterlimit="10"><path d="M277.836 104.865l-6.69-.907 1.08-7.962 6.69.907-1.08 7.962z" fill="#979797" fill-rule="nonzero"/><path d="M276.18 128.46a1.155 1.155 0 0 1-1.308.978l-7.998-1.155a1.152 1.152 0 0 1-.977-1.307l3.514-24.554c.092-.63.677-1.07 1.308-.977l7.998 1.153c.63.09 1.07.677.978 1.307l-3.515 24.555z" fill="#afcf6b" fill-rule="nonzero"/><path d="M274.14 121.148a3.066 3.066 0 1 1-4.927 3.65 3.066 3.066 0 0 1 4.927-3.65" fill="#4e4e4e" fill-rule="nonzero"/><path d="M274.226 98.38l-.97-.125.126-.97.97.126-.126.97zM277.374 98.848l-.97-.125.125-.97.968.126-.124.968z" fill="#202020" fill-rule="nonzero"/><path d="M275.656 96.46l-.625 3.97" fill="none" stroke-width=".19" stroke="#202020"/><path d="M366.527 264.48l-78.474-9.977-4.308 51.893 78.474 9.976 4.307-51.89z" fill="#e2e2e2" fill-rule="nonzero"/><path d="M283.746 306.396l43.528-46.72 34.946 56.696-78.474-9.976z" fill="#efefef" fill-rule="nonzero"/><path d="M366.527 264.48L323.83 301.2l-35.777-46.697 78.474 9.978z" fill="#fff" fill-rule="nonzero"/><path d="M322.347 239.185l-72.514 29.162 19.645 48.848 72.514-29.164-19.645-48.845z" fill="#e2e2e2" fill-rule="nonzero"/><path d="M269.478 317.195l16.683-63.254 55.832 34.09-72.514 29.165z" fill="#efefef" fill-rule="nonzero"/><path d="M322.347 239.185l-20.467 53.843-52.047-24.68 72.514-29.163z" fill="#fff" fill-rule="nonzero"/><path d="M320.815 56.578l-26.43 133.274 208.96 41.44 26.43-133.275-208.96-41.44z" fill="#8ac8c1" fill-rule="nonzero"/><path d="M329.612 59.382L303.627 190.41l93.85 18.61L423.46 77.994l-93.848-18.61z" fill="#fff" fill-rule="nonzero"/><path d="M397.716 186.648a2.48 2.48 0 0 0-2.913 1.954 2.478 2.478 0 1 0 4.862.964 2.483 2.483 0 0 0-1.95-2.918" fill="#6e6658" fill-rule="nonzero"/><path d="M399.288 187.696c.103.37.13.767.05 1.168a2.483 2.483 0 0 1-2.914 1.952 2.485 2.485 0 0 1-1.573-1.043c.254.86.96 1.56 1.9 1.746a2.482 2.482 0 0 0 2.538-3.824" fill="#8b8d8f" fill-rule="nonzero"/><path d="M399.652 176.884a2.48 2.48 0 0 0-2.913 1.953 2.48 2.48 0 1 0 4.86.964 2.48 2.48 0 0 0-1.948-2.916" fill="#6e6658" fill-rule="nonzero"/><path d="M401.225 177.93a2.477 2.477 0 0 1-4.437 2.076c.253.862.958 1.56 1.898 1.747a2.48 2.48 0 0 0 2.54-3.824" fill="#8b8d8f" fill-rule="nonzero"/><path d="M401.588 167.118a2.48 2.48 0 0 0-2.912 1.952 2.48 2.48 0 0 0 1.946 2.917 2.48 2.48 0 1 0 .966-4.87" fill="#6e6658" fill-rule="nonzero"/><path d="M403.16 168.163a2.48 2.48 0 0 1-4.437 2.077c.253.863.96 1.56 1.9 1.748a2.483 2.483 0 0 0 2.538-3.825" fill="#8b8d8f" fill-rule="nonzero"/><path d="M403.525 157.353a2.48 2.48 0 0 0-2.912 1.952 2.478 2.478 0 1 0 4.862.964 2.482 2.482 0 0 0-1.95-2.917" fill="#6e6658" fill-rule="nonzero"/><path d="M405.098 158.4a2.478 2.478 0 0 1-4.436 2.076 2.48 2.48 0 0 0 1.898 1.745 2.48 2.48 0 0 0 2.538-3.82" fill="#8b8d8f" fill-rule="nonzero"/><path d="M405.462 147.588a2.478 2.478 0 0 0-2.912 1.952 2.478 2.478 0 0 0 4.86.964 2.48 2.48 0 0 0-1.948-2.916" fill="#6e6658" fill-rule="nonzero"/><path d="M407.035 148.632a2.48 2.48 0 0 1-4.437 2.076c.252.863.96 1.56 1.898 1.747a2.482 2.482 0 0 0 2.54-3.823" fill="#8b8d8f" fill-rule="nonzero"/><path d="M407.398 137.822a2.48 2.48 0 0 0-2.912 1.954 2.478 2.478 0 0 0 4.862.963 2.48 2.48 0 0 0-1.95-2.918" fill="#6e6658" fill-rule="nonzero"/><path d="M408.97 138.868a2.482 2.482 0 0 1-2.865 3.12 2.468 2.468 0 0 1-1.57-1.045c.252.862.958 1.56 1.898 1.746a2.48 2.48 0 0 0 2.538-3.822" fill="#8b8d8f" fill-rule="nonzero"/><path d="M409.335 128.058a2.478 2.478 0 0 0-2.912 1.95 2.48 2.48 0 0 0 4.862.965 2.48 2.48 0 0 0-1.95-2.915" fill="#6e6658" fill-rule="nonzero"/><path d="M410.908 129.103a2.48 2.48 0 0 1-4.437 2.075c.252.863.96 1.562 1.9 1.748a2.482 2.482 0 0 0 2.538-3.823" fill="#8b8d8f" fill-rule="nonzero"/><path d="M411.272 118.29a2.48 2.48 0 0 0-2.913 1.955 2.478 2.478 0 0 0 4.86.964 2.48 2.48 0 0 0-1.948-2.92" fill="#6e6658" fill-rule="nonzero"/><path d="M412.845 119.336c.102.37.13.767.05 1.17a2.482 2.482 0 0 1-4.487.907c.252.862.958 1.56 1.898 1.746a2.48 2.48 0 0 0 2.54-3.824" fill="#8b8d8f" fill-rule="nonzero"/><path d="M413.208 108.526a2.48 2.48 0 0 0-2.912 1.95 2.48 2.48 0 0 0 1.947 2.918 2.482 2.482 0 1 0 .965-4.868" fill="#6e6658" fill-rule="nonzero"/><path d="M414.78 109.57a2.48 2.48 0 0 1-2.864 3.12 2.475 2.475 0 0 1-1.57-1.044 2.48 2.48 0 0 0 1.897 1.747 2.48 2.48 0 0 0 2.538-3.822" fill="#8b8d8f" fill-rule="nonzero"/><path d="M415.145 98.76a2.48 2.48 0 0 0-.966 4.867 2.48 2.48 0 0 0 .965-4.866" fill="#6e6658" fill-rule="nonzero"/><path d="M416.717 99.807a2.48 2.48 0 0 1-4.436 2.076 2.48 2.48 0 0 0 1.898 1.744 2.482 2.482 0 0 0 2.915-1.95 2.49 2.49 0 0 0-.378-1.87" fill="#8b8d8f" fill-rule="nonzero"/><path d="M417.08 88.996a2.477 2.477 0 0 0-2.91 1.95 2.478 2.478 0 1 0 4.86.965 2.48 2.48 0 0 0-1.95-2.914" fill="#6e6658" fill-rule="nonzero"/><path d="M418.654 90.04a2.48 2.48 0 0 1-2.864 3.12 2.475 2.475 0 0 1-1.572-1.045c.252.863.958 1.56 1.898 1.748a2.482 2.482 0 0 0 2.538-3.822" fill="#8b8d8f" fill-rule="nonzero"/><path d="M422.61 91.57l-2.253-.446-.135.678 2.252.447c.16.03.285.332.214.685-.07.355-.3.584-.46.552l-2.25-.446-.136.68 2.25.447c.57.113 1.132-.366 1.276-1.097.145-.728-.19-1.387-.76-1.5M417.73 92.595c-.162-.032-.29-.332-.22-.687.07-.353.303-.584.465-.55l2.247.444.135-.68-2.248-.444c-.574-.114-1.134.367-1.278 1.096-.146.73.19 1.387.762 1.5l2.248.447.135-.68-2.248-.445zM420.685 101.27l-2.252-.447-.135.68 2.252.447c.158.03.284.334.215.685-.07.356-.303.586-.46.554l-2.252-.447-.135.678 2.252.448c.568.113 1.13-.368 1.275-1.098.144-.73-.19-1.39-.76-1.5" fill="#373737" fill-rule="nonzero"/><path d="M415.805 102.297c-.16-.03-.29-.333-.218-.688.07-.353.302-.584.464-.552l2.248.446.135-.68-2.247-.447c-.574-.114-1.134.368-1.278 1.097-.145.73.19 1.39.763 1.503l2.248.445.135-.68-2.248-.445zM418.76 110.972l-2.25-.447-.136.68 2.253.445c.158.032.284.333.213.687-.07.353-.3.585-.46.554l-2.252-.445-.134.678 2.252.446c.568.11 1.13-.37 1.275-1.098.145-.73-.19-1.387-.76-1.5" fill="#373737" fill-rule="nonzero"/><path d="M413.88 112c-.16-.033-.287-.336-.217-.69.07-.354.303-.584.464-.552l2.248.446.134-.68-2.248-.444c-.574-.114-1.133.367-1.278 1.096-.145.73.19 1.387.763 1.5l2.247.446.135-.678-2.25-.445zM416.838 120.67l-2.252-.445-.135.678 2.253.447c.158.03.284.334.214.688-.07.353-.3.584-.46.554l-2.252-.447-.134.678 2.252.446c.57.11 1.13-.37 1.275-1.097.145-.73-.19-1.39-.76-1.502" fill="#373737" fill-rule="nonzero"/><path d="M411.958 121.7c-.162-.033-.29-.336-.22-.69.07-.353.304-.585.466-.552l2.247.445.136-.68-2.247-.444c-.575-.115-1.135.367-1.28 1.097-.144.727.19 1.386.763 1.5l2.247.445.135-.678-2.247-.445zM414.914 130.372l-2.252-.446-.135.68 2.252.446c.157.03.284.332.213.686-.07.355-.3.584-.46.552l-2.252-.446-.133.68 2.25.446c.57.113 1.132-.366 1.276-1.097.145-.728-.19-1.388-.76-1.5" fill="#373737" fill-rule="nonzero"/><path d="M410.034 131.398c-.16-.032-.29-.332-.218-.687.07-.352.302-.583.463-.55l2.247.445.135-.68-2.248-.446c-.573-.114-1.133.368-1.278 1.097-.145.73.19 1.387.763 1.5l2.247.447.135-.68-2.248-.446zM412.99 140.072l-2.252-.446-.135.678 2.253.447c.158.033.284.334.213.688-.07.354-.302.584-.46.552l-2.253-.446-.134.68 2.252.446c.568.112 1.13-.366 1.275-1.097.144-.727-.192-1.388-.76-1.5" fill="#373737" fill-rule="nonzero"/><path d="M408.11 141.098c-.16-.032-.29-.333-.218-.687.07-.353.303-.583.464-.55l2.248.445.134-.68-2.248-.445c-.573-.113-1.134.37-1.278 1.097-.144.73.19 1.387.764 1.5l2.247.446.135-.68-2.248-.445zM411.066 149.773l-2.25-.447-.137.68 2.25.448c.16.03.285.332.216.686-.07.354-.302.583-.46.552l-2.252-.446-.135.678 2.25.447c.57.114 1.13-.368 1.276-1.095.144-.73-.19-1.39-.76-1.502" fill="#373737" fill-rule="nonzero"/><path d="M406.186 150.8c-.16-.032-.29-.333-.218-.687.07-.354.302-.584.464-.55l2.247.444.134-.68-2.247-.446c-.574-.113-1.134.37-1.28 1.1-.143.726.19 1.385.765 1.5l2.247.445.134-.68-2.248-.445zM409.142 159.474l-2.25-.446-.136.68 2.252.445c.158.033.284.332.214.687-.07.355-.302.585-.46.553l-2.252-.446-.135.68 2.252.445c.568.113 1.13-.368 1.275-1.097.145-.73-.19-1.388-.76-1.5" fill="#373737" fill-rule="nonzero"/><path d="M404.262 160.5c-.16-.03-.288-.332-.218-.687.07-.355.303-.583.464-.552l2.247.447.135-.68-2.247-.445c-.573-.114-1.133.367-1.278 1.096-.144.73.19 1.388.763 1.502l2.248.446.134-.68-2.248-.445zM407.22 169.175l-2.254-.447-.135.68 2.254.448c.158.03.284.33.214.684-.07.355-.3.585-.46.554l-2.252-.447-.134.68 2.25.446c.57.112 1.132-.368 1.276-1.098.144-.728-.19-1.388-.76-1.5" fill="#373737" fill-rule="nonzero"/><path d="M402.34 170.2c-.162-.03-.29-.332-.22-.686.07-.354.303-.583.465-.55l2.247.445.135-.682-2.247-.446c-.574-.114-1.134.368-1.278 1.097-.146.73.19 1.386.762 1.5l2.248.446.135-.68-2.248-.445zM400.415 179.903c-.16-.032-.29-.332-.218-.69.07-.352.302-.58.464-.55l2.248.446.136-.682-2.248-.446c-.574-.113-1.134.37-1.278 1.098-.146.73.19 1.387.762 1.5l2.248.446.134-.678-2.247-.445z" fill="#373737" fill-rule="nonzero"/><path d="M405.295 178.875l-2.25-.447-.136.68 2.25.448c.158.03.284.332.214.686-.07.355-.3.584-.46.553l-2.25-.447-.136.678 2.252.447c.568.113 1.13-.366 1.274-1.097.145-.727-.19-1.388-.76-1.5M398.49 189.603c-.16-.032-.287-.333-.217-.688.07-.354.302-.583.464-.55l2.247.446.135-.68-2.248-.446c-.573-.114-1.134.368-1.278 1.097-.145.73.19 1.388.762 1.502l2.248.446.135-.68-2.25-.445zM403.37 188.576l-2.25-.446-.135.68 2.25.447c.16.032.286.33.216.685-.07.355-.3.585-.46.553l-2.25-.446-.136.678 2.252.446c.568.113 1.13-.366 1.275-1.097.146-.728-.19-1.388-.76-1.5" fill="#373737" fill-rule="nonzero"/><path d="M334.817 81.8l-.04.2 76.68 15.208.04-.202-76.68-15.206zM333.895 86.45l-.04.198 76.68 15.207.04-.2-76.68-15.206zM332.974 91.095l-.04.2 76.68 15.206.04-.2-76.68-15.205zM332.052 95.743l-.04.198 76.68 15.207.04-.198-76.68-15.207zM331.13 100.39l-.04.202 76.68 15.206.04-.202-76.68-15.206zM330.21 105.035l-.04.203 76.68 15.207.038-.204-76.68-15.205zM329.287 109.684l-.04.2 76.68 15.207.04-.2-76.68-15.206zM328.366 114.33l-.04.202 76.68 15.207.04-.204-76.68-15.207zM327.444 118.978l-.04.198 76.68 15.206.04-.197-76.68-15.207zM326.522 123.625l-.04.2 76.68 15.208.04-.2-76.68-15.208zM325.6 128.27l-.038.2 76.68 15.207.04-.2-76.68-15.207zM324.68 132.92l-.04.2 76.68 15.205.038-.198-76.68-15.206zM323.758 137.567l-.04.2 76.68 15.206.04-.2-76.68-15.206zM322.837 142.21l-.04.203 76.68 15.207.04-.203-76.68-15.206zM321.915 146.86l-.04.2 76.68 15.207.04-.2-76.68-15.208zM320.993 151.507l-.04.198 76.68 15.206.04-.196-76.68-15.207zM320.07 156.155l-.038.2 76.68 15.205.04-.198-76.68-15.207zM319.15 160.8l-.04.2 76.68 15.207.04-.202-76.68-15.206zM318.228 165.448l-.04.2 76.68 15.207.04-.2-76.68-15.207zM317.306 170.097l-.04.2 76.68 15.206.04-.2-76.68-15.206zM331.1 177.66l-.04.2 61.965 12.288.04-.2-61.965-12.29z" fill="#5b543f" fill-rule="nonzero"/><path d="M525.214 103.936c.608-3.063-1.8-6.12-5.376-6.83l-2.295-.455-5.982 30.16 2.298.457c3.575.71 6.967-1.2 7.574-4.26l3.782-19.07z" fill="#afcf6b" fill-rule="nonzero"/><path d="M520.95 125.437c.607-3.063-1.8-6.123-5.375-6.83l-2.296-.457-5.982 30.16 2.296.456c3.575.71 6.967-1.198 7.574-4.26l3.782-19.07z" fill="#ad3d2b" fill-rule="nonzero"/><path d="M516.714 146.795c.607-3.063-1.8-6.12-5.375-6.83l-2.297-.455-5.98 30.16 2.295.456c3.576.71 6.967-1.2 7.574-4.26l3.782-19.07z" fill="#e9bd7a" fill-rule="nonzero"/><path d="M424.974 78.294L398.99 209.32l93.847 18.61L518.82 96.906l-93.846-18.61z" fill="#bbbcbd" fill-rule="nonzero"/><path d="M424.974 78.294L398.99 209.32l69.365 13.757 27.63-11.016L518.82 96.906l-93.846-18.61z" fill="#fff" fill-rule="nonzero"/><path d="M483.562 207.325c-.63 9.787-15.207 15.752-15.207 15.752l27.63-11.016c-8.796 1.143-12.423-4.735-12.423-4.735" fill="#c7c9cc" fill-rule="nonzero"/><path d="M407.306 188.55a2.483 2.483 0 0 0-.966 4.87 2.483 2.483 0 0 0 .966-4.87" fill="#6e6658" fill-rule="nonzero"/><path d="M406.91 192.895a2.483 2.483 0 0 1-1.95-2.916c.08-.402.254-.758.49-1.062a2.48 2.48 0 0 0 .89 4.502 2.48 2.48 0 0 0 2.42-.89 2.48 2.48 0 0 1-1.85.365" fill="#8b8d8f" fill-rule="nonzero"/><path d="M409.242 178.786a2.48 2.48 0 1 0-.965 4.87 2.48 2.48 0 0 0 .965-4.87" fill="#6e6658" fill-rule="nonzero"/><path d="M408.847 183.13a2.48 2.48 0 0 1-1.46-3.98 2.48 2.48 0 0 0 .89 4.504c.94.187 1.86-.19 2.42-.89a2.476 2.476 0 0 1-1.85.365" fill="#8b8d8f" fill-rule="nonzero"/><path d="M411.18 169.02a2.482 2.482 0 1 0-.966 4.87 2.48 2.48 0 0 0 2.912-1.955 2.48 2.48 0 0 0-1.947-2.915" fill="#6e6658" fill-rule="nonzero"/><path d="M410.784 173.362a2.48 2.48 0 0 1-1.46-3.976c-.526.353-.927.91-1.06 1.585a2.477 2.477 0 0 0 4.37 2.028 2.473 2.473 0 0 1-1.85.364" fill="#8b8d8f" fill-rule="nonzero"/><path d="M413.116 159.255a2.48 2.48 0 1 0-.966 4.868 2.48 2.48 0 0 0 2.913-1.953 2.48 2.48 0 0 0-1.947-2.915" fill="#6e6658" fill-rule="nonzero"/><path d="M412.72 163.597a2.48 2.48 0 0 1-1.46-3.976c-.526.354-.927.91-1.06 1.586a2.478 2.478 0 0 0 4.37 2.027 2.485 2.485 0 0 1-1.85.364" fill="#8b8d8f" fill-rule="nonzero"/><path d="M415.052 149.49a2.48 2.48 0 1 0-.965 4.866 2.48 2.48 0 0 0 2.912-1.95 2.48 2.48 0 0 0-1.948-2.916" fill="#6e6658" fill-rule="nonzero"/><path d="M414.657 153.83a2.48 2.48 0 0 1-1.46-3.975 2.483 2.483 0 0 0 .89 4.502c.94.188 1.86-.188 2.42-.89a2.472 2.472 0 0 1-1.85.365" fill="#8b8d8f" fill-rule="nonzero"/><path d="M416.99 139.724a2.48 2.48 0 1 0-.967 4.868 2.48 2.48 0 0 0 .966-4.868" fill="#6e6658" fill-rule="nonzero"/><path d="M416.593 144.068a2.483 2.483 0 0 1-1.46-3.978 2.48 2.48 0 0 0 .89 4.5c.94.188 1.86-.187 2.42-.89-.526.35-1.183.5-1.85.368" fill="#8b8d8f" fill-rule="nonzero"/><path d="M418.925 129.96a2.48 2.48 0 0 0-2.916 1.95 2.483 2.483 0 0 0 1.95 2.918 2.483 2.483 0 0 0 .965-4.868" fill="#6e6658" fill-rule="nonzero"/><path d="M418.53 134.3a2.48 2.48 0 0 1-1.46-3.974 2.483 2.483 0 0 0 .89 4.502c.94.187 1.86-.19 2.42-.892a2.477 2.477 0 0 1-1.85.364" fill="#8b8d8f" fill-rule="nonzero"/><path d="M420.862 120.192a2.482 2.482 0 0 0-.965 4.87 2.48 2.48 0 0 0 .965-4.87" fill="#6e6658" fill-rule="nonzero"/><path d="M420.467 124.536a2.48 2.48 0 0 1-1.46-3.978 2.48 2.48 0 0 0 .89 4.503c.94.186 1.86-.19 2.42-.89a2.47 2.47 0 0 1-1.85.366" fill="#8b8d8f" fill-rule="nonzero"/><path d="M422.8 110.428a2.482 2.482 0 1 0-.966 4.868 2.483 2.483 0 0 0 2.912-1.953 2.48 2.48 0 0 0-1.947-2.915" fill="#6e6658" fill-rule="nonzero"/><path d="M422.403 114.77a2.48 2.48 0 0 1-1.46-3.977 2.48 2.48 0 0 0 .89 4.502c.94.186 1.86-.19 2.42-.892a2.472 2.472 0 0 1-1.85.366" fill="#8b8d8f" fill-rule="nonzero"/><path d="M424.735 100.662a2.482 2.482 0 0 0-2.916 1.953 2.48 2.48 0 1 0 4.862.964 2.483 2.483 0 0 0-1.947-2.918" fill="#6e6658" fill-rule="nonzero"/><path d="M424.34 105.003a2.478 2.478 0 0 1-1.46-3.974 2.48 2.48 0 1 0 3.31 3.612 2.476 2.476 0 0 1-1.85.36" fill="#8b8d8f" fill-rule="nonzero"/><path d="M426.672 90.897a2.48 2.48 0 0 0-.965 4.868 2.482 2.482 0 0 0 .965-4.868" fill="#6e6658" fill-rule="nonzero"/><path d="M426.276 95.24a2.48 2.48 0 0 1-1.458-3.977 2.482 2.482 0 0 0 .888 4.502c.94.186 1.86-.19 2.42-.89a2.47 2.47 0 0 1-1.85.365" fill="#8b8d8f" fill-rule="nonzero"/><path d="M420.2 93.085c-.158-.032-.285-.332-.215-.686.07-.354.303-.585.46-.553l2.252.446.135-.68-2.252-.445c-.57-.113-1.133.367-1.278 1.096-.145.73.194 1.388.763 1.5l2.25.447.136-.68-2.25-.445zM425.077 92.06l-2.245-.446-.135.68 2.246.445c.162.03.29.333.22.686-.07.355-.304.583-.466.55l-2.246-.445-.134.68 2.246.447c.574.114 1.135-.366 1.28-1.097.144-.727-.19-1.387-.765-1.5M423.154 101.76l-2.246-.447-.135.68 2.246.447c.16.032.29.334.22.686-.07.356-.305.585-.467.553l-2.246-.447-.135.68 2.246.445c.574.114 1.135-.367 1.28-1.097.145-.727-.19-1.387-.764-1.5" fill="#373737" fill-rule="nonzero"/><path d="M418.276 102.787c-.158-.03-.285-.332-.215-.688.07-.352.304-.583.462-.552l2.25.446.136-.68-2.25-.447c-.57-.113-1.135.368-1.28 1.097-.144.73.194 1.39.764 1.502l2.25.447.135-.68-2.25-.446zM416.352 112.49c-.158-.033-.284-.336-.215-.688.07-.355.303-.585.46-.554l2.252.446.134-.678-2.25-.447c-.57-.114-1.134.367-1.28 1.096-.144.73.194 1.387.764 1.5l2.25.447.135-.677-2.25-.447z" fill="#373737" fill-rule="nonzero"/><path d="M421.23 111.46l-2.246-.444-.135.68 2.245.444c.16.032.29.334.22.688-.07.353-.304.585-.466.552l-2.247-.444-.134.677 2.244.445c.575.114 1.136-.366 1.28-1.095.144-.73-.19-1.388-.765-1.502M414.428 122.19c-.157-.033-.284-.335-.214-.688.07-.354.303-.586.46-.554l2.252.446.134-.68-2.25-.445c-.57-.114-1.135.367-1.28 1.096-.144.728.194 1.388.764 1.5l2.25.447.136-.678-2.252-.446zM419.306 121.16l-2.245-.445-.134.68 2.246.444c.16.03.29.334.22.69-.07.352-.305.583-.467.55l-2.245-.444-.135.677 2.246.445c.575.114 1.136-.366 1.28-1.095.145-.73-.19-1.39-.764-1.503M412.505 131.888c-.158-.03-.285-.33-.215-.686.07-.353.303-.584.46-.552l2.252.446.135-.68-2.252-.446c-.57-.113-1.133.37-1.278 1.097-.145.73.194 1.388.763 1.5l2.25.448.136-.68-2.25-.447z" fill="#373737" fill-rule="nonzero"/><path d="M417.382 130.862l-2.245-.446-.135.68 2.245.446c.162.03.29.333.22.687-.07.354-.303.582-.465.55l-2.246-.445-.135.68 2.247.445c.574.114 1.135-.366 1.28-1.097.144-.727-.19-1.387-.765-1.5M415.458 140.562l-2.245-.445-.134.678 2.244.446c.162.033.29.335.22.69-.07.353-.304.582-.466.55l-2.245-.445-.135.68 2.245.444c.575.113 1.136-.366 1.28-1.096.144-.727-.19-1.388-.765-1.502" fill="#373737" fill-rule="nonzero"/><path d="M410.58 141.588c-.156-.03-.284-.332-.213-.686.07-.353.302-.584.46-.553l2.25.446.136-.68-2.252-.445c-.568-.113-1.133.37-1.277 1.097-.144.73.194 1.388.764 1.5l2.25.447.136-.68-2.252-.446zM408.657 151.29c-.157-.032-.285-.333-.214-.687.07-.354.302-.583.46-.552l2.25.448.136-.68-2.252-.448c-.57-.113-1.134.37-1.28 1.098-.143.73.195 1.388.765 1.5l2.25.447.136-.678-2.253-.447z" fill="#373737" fill-rule="nonzero"/><path d="M413.535 150.262l-2.246-.446-.136.682 2.246.445c.162.032.29.334.22.688-.07.355-.303.583-.466.55l-2.246-.444-.134.68 2.246.445c.573.115 1.135-.367 1.28-1.095.144-.728-.19-1.39-.765-1.503M411.61 159.963l-2.245-.445-.135.68 2.246.446c.162.03.29.332.22.687-.07.355-.303.585-.466.553l-2.245-.446-.135.68 2.246.445c.573.113 1.135-.367 1.28-1.097.144-.73-.19-1.388-.765-1.502M406.733 160.99c-.157-.03-.285-.33-.214-.686.07-.355.3-.583.46-.553l2.25.448.135-.68-2.25-.446c-.57-.113-1.135.367-1.28 1.096-.143.73.194 1.39.764 1.502l2.25.446.135-.68-2.252-.445zM404.81 170.692c-.158-.032-.285-.333-.215-.688.07-.353.303-.582.46-.55l2.252.446.135-.68-2.25-.448c-.57-.113-1.135.37-1.28 1.097-.145.73.194 1.387.764 1.5l2.25.447.135-.68-2.25-.445z" fill="#373737" fill-rule="nonzero"/><path d="M409.687 169.664l-2.245-.446-.135.68 2.245.447c.162.03.29.332.22.686-.07.356-.304.585-.466.553l-2.245-.445-.134.678 2.246.446c.574.114 1.135-.366 1.28-1.097.144-.727-.19-1.387-.765-1.5M407.763 179.364l-2.245-.445-.135.68 2.245.445c.162.033.29.333.22.687-.07.357-.304.585-.466.552l-2.245-.444-.134.677 2.245.445c.574.114 1.135-.365 1.28-1.095.144-.728-.19-1.39-.765-1.503" fill="#373737" fill-rule="nonzero"/><path d="M402.886 180.393c-.158-.032-.286-.33-.215-.688.07-.353.304-.583.462-.552l2.25.447.136-.68-2.25-.447c-.57-.113-1.135.37-1.28 1.097-.145.73.194 1.388.763 1.5l2.252.447.135-.678-2.25-.447zM405.84 189.065l-2.246-.445-.135.68 2.245.446c.162.033.29.333.22.687-.07.354-.304.584-.466.552l-2.247-.446-.134.678 2.244.445c.574.114 1.135-.365 1.28-1.096.145-.728-.19-1.388-.764-1.502" fill="#373737" fill-rule="nonzero"/><path d="M400.962 190.093c-.157-.032-.285-.332-.214-.687.07-.354.302-.583.46-.55l2.25.445.136-.68-2.25-.446c-.57-.114-1.135.368-1.28 1.096-.144.732.194 1.39.763 1.502l2.252.446.133-.68-2.25-.445z" fill="#373737" fill-rule="nonzero"/><path d="M428.776 100.433l-.04.2 76.68 15.208.04-.2-76.68-15.207zM427.854 105.082l-.04.2 76.68 15.206.04-.2-76.68-15.206zM426.933 109.728l-.04.2 76.68 15.206.038-.2-76.677-15.206zM426.01 114.376l-.038.198 76.68 15.206.038-.198-76.68-15.206zM425.09 119.023l-.04.202 76.678 15.206.04-.2-76.678-15.207zM424.168 123.668l-.04.203 76.678 15.208.04-.203-76.678-15.207zM423.247 128.317l-.04.2 76.678 15.208.04-.2-76.678-15.208zM422.325 132.962l-.04.203 76.68 15.206.04-.2-76.68-15.208zM421.403 137.612l-.04.197 76.68 15.205.04-.197-76.68-15.206zM420.482 142.26l-.04.2 76.68 15.206.038-.2-76.678-15.207zM419.56 146.903l-.04.2 76.68 15.207.04-.2-76.68-15.207zM418.638 151.554l-.04.198 76.68 15.206.04-.197-76.68-15.206zM417.717 156.2l-.04.2 76.68 15.206.038-.2-76.678-15.206zM416.796 160.844l-.04.203 76.68 15.206.04-.202-76.68-15.206zM415.874 165.492l-.04.202 76.68 15.206.04-.202-76.68-15.206zM414.952 170.14l-.04.198 76.68 15.206.04-.197-76.68-15.207zM414.03 174.788l-.038.2 76.678 15.205.04-.198-76.68-15.207zM413.11 179.432l-.04.202 76.678 15.206.04-.2-76.678-15.208zM412.188 184.082l-.04.2 76.678 15.206.04-.2-76.678-15.206zM411.266 188.73l-.04.2 76.68 15.206.038-.2-76.678-15.206zM410.345 193.375l-.04.2 61.963 12.288.04-.2-61.963-12.288z" fill="#5b543f" fill-rule="nonzero"/><path d="M414.43 512.487a5.685 5.685 0 0 0-3.768 1.832l-6.34 6.88a.527.527 0 0 0 .022.755c.218.194.564.17.77-.057l6.34-6.88a4.528 4.528 0 0 1 3.008-1.46c1.15-.086 2.242.274 3.077 1.01a3.97 3.97 0 0 1 1.344 2.894c.03 1.13-.386 2.22-1.175 3.08l-10.613 11.515c-1.226 1.33-3.28 1.483-4.58.337-1.297-1.147-1.354-3.163-.127-4.495l9.375-10.175c.39-.424.922-.682 1.492-.724a2.052 2.052 0 0 1 1.527.504c.414.365.65.875.667 1.435.017.558-.19 1.1-.582 1.526l-8.833 9.586a.527.527 0 0 0 .022.756c.218.193.563.167.77-.057l8.833-9.585c.592-.642.905-1.46.88-2.307a2.973 2.973 0 0 0-1.006-2.168 3.106 3.106 0 0 0-2.307-.76 3.404 3.404 0 0 0-2.255 1.095l-9.374 10.175c-1.64 1.78-1.565 4.474.17 6.007 1.5 1.325 3.758 1.352 5.4.183.258-.182.5-.393.72-.634l10.613-11.516c.99-1.074 1.513-2.445 1.474-3.858a4.972 4.972 0 0 0-1.686-3.626c-1.047-.925-2.416-1.375-3.857-1.27" fill="#ad3d2b" fill-rule="nonzero"/><path d="M422.1 534.144a5.682 5.682 0 0 0-.77 4.12l1.76 9.188c.057.3.334.494.62.433a.554.554 0 0 0 .413-.653l-1.758-9.19a4.528 4.528 0 0 1 .614-3.286c.614-.974 1.553-1.64 2.643-1.87a3.968 3.968 0 0 1 3.126.64c.924.644 1.554 1.63 1.774 2.775l2.944 15.38c.34 1.78-.76 3.52-2.454 3.883-1.694.36-3.348-.792-3.69-2.57l-2.6-13.59c-.108-.567 0-1.146.306-1.63a2.06 2.06 0 0 1 1.313-.93 1.972 1.972 0 0 1 1.55.32c.46.32.772.808.88 1.377l2.45 12.802c.058.3.336.494.622.433a.556.556 0 0 0 .412-.654l-2.45-12.8a3.26 3.26 0 0 0-1.33-2.082 2.967 2.967 0 0 0-2.342-.48 3.102 3.102 0 0 0-1.982 1.403c-.462.73-.626 1.606-.462 2.464l2.602 13.588c.454 2.377 2.666 3.92 4.93 3.437 1.957-.42 3.322-2.217 3.36-4.233a4.576 4.576 0 0 0-.082-.956l-2.943-15.38c-.274-1.435-1.065-2.67-2.225-3.48a4.97 4.97 0 0 0-3.916-.8c-1.367.29-2.544 1.123-3.315 2.344" fill="#6fb6af" fill-rule="nonzero"/><path d="M424.504 498.068a5.686 5.686 0 0 0 1.41 3.947l6.147 7.052c.202.23.54.257.755.06a.553.553 0 0 0 .028-.77l-6.147-7.053a4.534 4.534 0 0 1-1.126-3.15c.04-1.15.518-2.198 1.343-2.948a3.964 3.964 0 0 1 3.02-1.02c1.126.09 2.167.624 2.934 1.503l10.29 11.803c1.19 1.364 1.116 3.423-.165 4.59-1.28 1.164-3.292 1-4.482-.365l-9.09-10.428a2.246 2.246 0 0 1-.557-1.562c.02-.572.257-1.092.666-1.464.407-.372.94-.55 1.498-.506.558.045 1.074.31 1.454.747l8.566 9.825c.2.23.538.257.754.06a.554.554 0 0 0 .027-.77l-8.566-9.826a3.252 3.252 0 0 0-2.197-1.128 2.97 2.97 0 0 0-2.265.765 3.104 3.104 0 0 0-1.006 2.21c-.03.864.268 1.703.842 2.36l9.09 10.43c1.59 1.824 4.278 2.043 5.99.486 1.48-1.348 1.755-3.588.772-5.35a4.567 4.567 0 0 0-.552-.784l-10.29-11.805c-.96-1.1-2.265-1.77-3.675-1.884a4.966 4.966 0 0 0-3.787 1.28c-1.034.94-1.63 2.25-1.682 3.695" fill="#e4a552" fill-rule="nonzero"/><path d="M368.616 516.227a5.68 5.68 0 0 0 3.91 1.51l9.354-.046c.306 0 .547-.238.54-.53a.556.556 0 0 0-.567-.525l-9.355.046a4.53 4.53 0 0 1-3.12-1.204c-.845-.783-1.326-1.828-1.355-2.942a3.965 3.965 0 0 1 1.2-2.955 4.353 4.353 0 0 1 3.055-1.24l15.66-.078c1.808-.01 3.32 1.392 3.367 3.123.044 1.73-1.393 3.147-3.204 3.156l-13.833.07a2.252 2.252 0 0 1-1.547-.598c-.42-.39-.66-.908-.673-1.46a1.966 1.966 0 0 1 .596-1.467c.4-.393.936-.61 1.515-.613l13.035-.067a.526.526 0 0 0 .54-.53.556.556 0 0 0-.568-.526l-13.034.065a3.26 3.26 0 0 0-2.288.927 2.965 2.965 0 0 0-.9 2.215c.02.835.38 1.618 1.015 2.205.634.588 1.463.91 2.337.904l13.835-.07c2.42-.01 4.34-1.903 4.28-4.217-.053-2.002-1.57-3.673-3.546-4.08a4.557 4.557 0 0 0-.955-.094l-15.66.08c-1.46.006-2.82.557-3.828 1.55a4.97 4.97 0 0 0-1.505 3.704c.037 1.396.64 2.706 1.7 3.687" fill="#4674b7" fill-rule="nonzero"/><path d="M465.78 258.684a.185.185 0 0 1 .314-.194c.053.09.027.2-.06.257a.188.188 0 0 1-.255-.063" fill="#b2b2b2" fill-rule="nonzero"/><path d="M464.617 260.44l-.928-1.508-7.548 2.645 2.712 4.406 5.763-5.542z" fill="#7f8082" fill-rule="nonzero"/><path d="M464.41 260.107l-.078-.13-6.41 4.492.637 1.037 5.85-5.4z" fill="#f1f1f1" fill-rule="nonzero"/><path d="M464.325 259.97l-.334-.546-6.962 3.59.894 1.456 6.403-4.5z" fill="#7f7f7f" fill-rule="nonzero"/><path d="M464.217 259.792l-.192-.312-6.94 3.63.5.813 6.632-4.13z" fill="#7f7f7f" fill-rule="nonzero"/><path d="M464.108 259.615l-.047-.08-6.914 3.672.105.17 6.858-3.762z" fill="#7f7f7f" fill-rule="nonzero"/><g opacity=".4" fill-rule="nonzero"><path d="M463.757 259.043l.233.38-6.962 3.59-.695-1.123 7.424-2.847z" fill="#f1f1f1"/><path d="M463.76 259.048l.23.375-6.964 3.588-.684-1.108 7.418-2.854z" fill="#f0f0f0"/><path d="M463.763 259.053l.226.37-6.965 3.586-.676-1.096 7.413-2.86z" fill="#efefef"/><path d="M463.766 259.058l.222.363-6.965 3.586-.667-1.08 7.41-2.868z" fill="#eee"/><path d="M463.77 259.062l.218.358-6.966 3.584-.657-1.065 7.404-2.878z" fill="#ededed"/><path d="M463.772 259.067l.216.352L457.02 263l-.648-1.05 7.4-2.885z" fill="#ececec"/><path d="M463.774 259.072l.213.346-6.97 3.582-.638-1.036 7.394-2.892z" fill="#ebebeb"/><path d="M463.777 259.077l.21.34-6.97 3.58-.63-1.02 7.39-2.9z" fill="#eaeaea"/><path d="M463.78 259.08l.206.336-6.97 3.58-.62-1.007 7.384-2.91z" fill="#e9e9e9"/><path d="M463.783 259.086l.202.33-6.97 3.576-.613-.99 7.38-2.916z" fill="#e8e8e8"/><path d="M463.786 259.09l.198.324-6.97 3.576-.604-.976 7.376-2.923z" fill="#e7e7e7"/><path d="M463.79 259.096l.193.317-6.972 3.574-.592-.96 7.37-2.93z" fill="#e6e6e6"/><path d="M463.792 259.1l.19.312-6.972 3.573-.585-.946 7.367-2.94z" fill="#e5e5e5"/><path d="M463.795 259.105l.187.306-6.974 3.573-.575-.932 7.362-2.945z" fill="#e4e4e4"/><path d="M463.798 259.11l.184.3-6.975 3.57-.566-.917 7.358-2.953z" fill="#e3e3e3"/><path d="M463.8 259.115l.18.294-6.974 3.568-.558-.902 7.353-2.96z" fill="#e2e2e2"/><path d="M463.804 259.12l.177.288-6.976 3.567-.548-.887 7.348-2.97z" fill="#e1e1e1"/><path d="M463.807 259.124l.173.283-6.977 3.566-.54-.872 7.344-2.976z" fill="#e0e0e0"/><path d="M463.81 259.13l.17.276-6.98 3.564-.528-.857 7.338-2.984z" fill="#dfdfdf"/><path d="M463.812 259.134l.167.27-6.98 3.564-.52-.843 7.332-2.99z" fill="#dedede"/><path d="M463.815 259.138l.163.266-6.98 3.562-.51-.828 7.327-3z" fill="#ddd"/><path d="M463.818 259.143l.16.26-6.982 3.56-.502-.812 7.324-3.007z" fill="#dcdcdc"/><path d="M463.82 259.148l.156.254-6.98 3.56-.494-.8 7.32-3.014z" fill="#dbdbdb"/><path d="M463.824 259.153l.152.248-6.982 3.56-.484-.785 7.314-3.022z" fill="#dadada"/><path d="M463.827 259.157l.15.243-6.985 3.556-.474-.77 7.31-3.03z" fill="#d9d9d9"/><path d="M463.83 259.162l.145.236-6.984 3.555-.465-.753 7.305-3.038z" fill="#d8d8d8"/><path d="M463.833 259.167l.14.23-6.984 3.554-.457-.737 7.3-3.046z" fill="#d7d7d7"/><path d="M463.836 259.172l.138.225-6.986 3.552-.447-.725 7.296-3.053z" fill="#d6d6d6"/><path d="M463.84 259.176l.133.22-6.987 3.55-.438-.71 7.29-3.06z" fill="#d5d5d5"/><path d="M463.842 259.18l.13.215-6.988 3.55-.43-.695 7.288-3.07z" fill="#d4d4d4"/><path d="M463.845 259.186l.127.208-6.988 3.548-.42-.68 7.28-3.076z" fill="#d3d3d3"/><path d="M463.847 259.19l.124.202-6.988 3.547-.41-.665 7.275-3.084z" fill="#d2d2d2"/><path d="M463.85 259.195l.12.197-6.99 3.545-.402-.65 7.272-3.092z" fill="#d2d2d2"/><path d="M463.853 259.2l.117.19-6.99 3.544-.393-.634 7.266-3.1z" fill="#d1d1d1"/><path d="M463.856 259.205l.113.184-6.993 3.542-.383-.62 7.262-3.107z" fill="#d0d0d0"/><path d="M463.86 259.21l.11.18-6.994 3.54-.375-.606 7.26-3.114z" fill="#cfcfcf"/><path d="M463.862 259.214l.106.174-6.994 3.54-.364-.59 7.252-3.124z" fill="#cecece"/><path d="M463.865 259.22l.102.166-6.994 3.54-.356-.577 7.248-3.13z" fill="#cdcdcd"/><path d="M463.868 259.224l.1.162-6.996 3.536-.348-.56 7.244-3.138z" fill="#ccc"/><path d="M463.87 259.23l.096.155-6.996 3.535-.337-.546 7.238-3.145z" fill="#cbcbcb"/><path d="M463.874 259.233l.09.15-6.996 3.534-.328-.53 7.234-3.154z" fill="#cacaca"/><path d="M463.877 259.238l.088.144-6.998 3.533-.32-.516 7.23-3.162z" fill="#c9c9c9"/><path d="M463.88 259.243l.084.14-7 3.53-.308-.5 7.224-3.17z" fill="#c8c8c8"/><path d="M463.882 259.248l.08.132-6.998 3.53-.3-.486 7.218-3.176z" fill="#c7c7c7"/><path d="M463.885 259.252l.078.127-7 3.528-.293-.472 7.215-3.184z" fill="#c6c6c6"/><path d="M463.888 259.257l.075.122-7.002 3.526-.28-.458 7.208-3.19z" fill="#c5c5c5"/><path d="M463.89 259.262l.072.115-7.002 3.526-.274-.442 7.205-3.198z" fill="#c4c4c4"/><path d="M463.894 259.267l.067.11-7.002 3.524-.265-.426 7.2-3.207z" fill="#c3c3c3"/><path d="M463.897 259.27l.063.106-7.003 3.522-.255-.412 7.195-3.215z" fill="#c2c2c2"/><path d="M463.9 259.276l.06.098-7.005 3.522-.246-.398 7.19-3.222z" fill="#c1c1c1"/><path d="M463.903 259.28l.056.093-7.007 3.52-.237-.383 7.187-3.23z" fill="silver"/><path d="M463.906 259.286l.052.087-7.006 3.518-.228-.367 7.182-3.237z" fill="#bfbfbf"/><path d="M463.91 259.29l.048.08-7.008 3.52-.218-.354 7.177-3.246z" fill="#bebebe"/><path d="M463.912 259.295l.045.075-7.008 3.516-.21-.338 7.172-3.253z" fill="#bdbdbd"/><path d="M463.915 259.3l.042.07-7.01 3.514-.2-.324 7.168-3.26z" fill="#bcbcbc"/><path d="M463.918 259.305l.038.063-7.01 3.513-.19-.307 7.162-3.268z" fill="#bbb"/><path d="M463.92 259.31l.036.057-7.01 3.512-.184-.295 7.158-3.276z" fill="#bababa"/><path d="M463.923 259.314l.032.052-7.012 3.51-.173-.278 7.153-3.284z" fill="#b9b9b9"/><path d="M463.926 259.32l.028.045-7.012 3.51-.164-.265 7.148-3.29z" fill="#b8b8b8"/><path d="M463.93 259.324l.023.04-7.013 3.508-.155-.25 7.144-3.298z" fill="#b7b7b7"/><path d="M463.932 259.328l.02.035-7.014 3.507-.145-.235 7.14-3.307z" fill="#b6b6b6"/><path d="M463.935 259.333l.017.03-7.014 3.504-.137-.22 7.135-3.314z" fill="#b5b5b5"/><path d="M463.938 259.338l.013.023-7.014 3.505-.128-.205 7.13-3.322z" fill="#b4b4b4"/><path d="M463.94 259.343l.01.017-7.016 3.502-.118-.19 7.125-3.33z" fill="#b3b3b3"/><path d="M463.944 259.347l.007.012-7.017 3.5-.11-.175 7.12-3.338z" fill="#b2b2b2"/></g><path d="M410.367 296.647c4.767-2.932 29.028-17.86 34.875-21.456 5.847-3.598 13.932-8.687 13.61-9.207l-1.354-2.203-1.356-2.203c-.32-.52-8.508 4.403-14.354 8-5.848 3.6-30.11 18.524-34.873 21.455-3.334 2.052-5.243 4.515-4.09 6.387 1.15 1.87 4.21 1.278 7.542-.773" fill="#73caca" fill-rule="nonzero"/><path d="M408.6 292.23c.98-1.472 4.217-3.462 10.905-7.578.858-1.632-.07-1.286-.07-1.286l-10.346 6.074-1.7 2.125 1.21.666z" fill="#363636" fill-rule="nonzero"/><path d="M418.97 283.615l6.945-4.273a35.1 35.1 0 0 0 3.454 5.614l-6.945 4.27a35.243 35.243 0 0 1-3.454-5.61" fill="#363636" fill-rule="nonzero"/><path d="M418.987 283.642a3.13 3.13 0 0 0-.076.047 34.93 34.93 0 0 0 3.44 5.585 1.73 1.73 0 0 1 .078-.048 35.015 35.015 0 0 1-3.44-5.585" fill="#424243" fill-rule="nonzero"/><clipPath id="a"><path d="M424.736 280.067a34.92 34.92 0 0 0 3.455 5.614c.05-.03.1-.06.15-.092a34.793 34.793 0 0 1-3.452-5.614l-.152.093z"/></clipPath><g clip-path="url(#a)"><path d="M424.887 279.973l3.455 5.615-.328.202-3.455-5.615.327-.202z" fill="url(#b)" fill-rule="nonzero"/></g><clipPath id="c"><path d="M419.07 284.01c.03.063.138.268.203.397.07.13.156.292.232.245.077-.047 1.273-.695 1.838-1.043l-.98-.59s-1.32.928-1.292.99z"/></clipPath><g clip-path="url(#c)"><path d="M420.81 282.744l.534.865-1.876 1.153-.532-.865 1.875-1.154z" fill="url(#d)" fill-rule="nonzero"/></g><path d="M419.46 283.768c.673.553 2.003-.06 2.667-.76.664-.703.728-1.013.394-1.64-4.142 1.963-12.067 6.708-15.377 9.278-2.786 2.165-3 2.762-2.862 3.29.112.422.474.663.474.663l3.847-2.368s-.844-.987.848-2.154c1.692-1.17 10.013-6.31 10.013-6.31" fill="#7f7f7f" fill-rule="nonzero"/><path d="M404.404 294.222h.002-.002zM404.28 293.936c-.138-.528.077-1.125 2.862-3.29 3.31-2.57 11.235-7.315 15.38-9.28-.403-.65-.53-.692-.57-.673-4.15 1.983-11.98 6.674-15.26 9.222-2.785 2.164-2.943 2.626-2.805 3.156.087.33.352.842.465 1.057a1.347 1.347 0 0 1-.07-.19" fill="#363636" fill-rule="nonzero"/><path d="M414.105 286.21c2.707-1.666 5.475-3.265 8.343-4.636.365.77-.48 1.47-1.073 1.835-.407.25-.93.478-1.42.406-.168-.026-.43-.27-.6-.165l-2.407 1.495c-1.365.85-3.9 2.424-5.258 3.29-1.013.64-2.767 1.513-3.394 2.575-.305.514.178 1.116-.23 1.367-.533.328-.96.59-1.49.918-.505.31-.892.55-1.396.858-.404.248-.712.097-.702-.428.02-1.054 1.79-2.193 2.472-2.73 1.893-1.493 5.103-3.524 7.155-4.785 2.954-1.818 0 0 0 0" fill="#4e4e4e" fill-rule="nonzero"/><clipPath id="e"><path d="M463.633 258.95l.94 1.53.044-.04-.93-1.508-.054.018z"/></clipPath><g clip-path="url(#e)"><path d="M463.68 258.92l.943 1.53-.05.03-.94-1.53.048-.03z" fill="url(#f)" fill-rule="nonzero"/></g><path d="M466.04 258.755l-.206-.335-2.108.575.85 1.38 1.465-1.62z" fill="#7f8082" fill-rule="nonzero"/><path d="M465.994 258.68l-.015-.027-1.696 1.25.2.325 1.51-1.547z" fill="#7f8082" fill-rule="nonzero"/><path d="M465.994 258.68l-.015-.026-1.688 1.26.19.31 1.512-1.543z" fill="#868789" fill-rule="nonzero"/><path d="M465.994 258.68l-.014-.025-1.68 1.27.18.293 1.514-1.538z" fill="#8c8d8f" fill-rule="nonzero"/><path d="M465.994 258.68l-.014-.024-1.675 1.28.17.277 1.52-1.533z" fill="#939496" fill-rule="nonzero"/><path d="M465.993 258.68l-.012-.023-1.667 1.29.16.26 1.52-1.528z" fill="#9a9b9c" fill-rule="nonzero"/><path d="M465.993 258.68l-.012-.022-1.66 1.3.15.246 1.523-1.525z" fill="#a1a1a3" fill-rule="nonzero"/><path d="M465.993 258.678l-.01-.02-1.657 1.312.14.228 1.527-1.52z" fill="#a7a8a9" fill-rule="nonzero"/><path d="M465.993 258.678l-.01-.02-1.65 1.323.13.213 1.53-1.515z" fill="#aeafb0" fill-rule="nonzero"/><path d="M465.992 258.677l-.01-.017-1.642 1.333.12.195 1.532-1.51z" fill="#b5b5b7" fill-rule="nonzero"/><path d="M465.992 258.677l-.01-.016-1.635 1.344.11.18 1.535-1.507z" fill="#bcbcbd" fill-rule="nonzero"/><path d="M465.992 258.676l-.008-.014-1.63 1.354.1.162 1.538-1.502z" fill="#c2c3c4" fill-rule="nonzero"/><path d="M465.992 258.676l-.008-.013-1.623 1.363.093.147 1.54-1.497z" fill="#c9caca" fill-rule="nonzero"/><path d="M465.99 258.675l-.005-.01-1.617 1.373.08.13 1.543-1.493z" fill="#d0d0d1" fill-rule="nonzero"/><path d="M465.99 258.675l-.005-.01-1.61 1.384.07.114 1.546-1.49z" fill="#d7d7d8" fill-rule="nonzero"/><path d="M465.99 258.674l-.004-.008-1.604 1.394.062.1 1.547-1.486z" fill="#dddede" fill-rule="nonzero"/><path d="M465.99 258.674l-.004-.007-1.597 1.405.05.082 1.55-1.48z" fill="#e4e4e5" fill-rule="nonzero"/><path d="M465.99 258.673l-.003-.005-1.59 1.415.04.066 1.553-1.477z" fill="#ebebeb" fill-rule="nonzero"/><path d="M465.99 258.672l-.003-.004-1.585 1.426.033.05 1.555-1.472z" fill="#f2f2f2" fill-rule="nonzero"/><path d="M465.99 258.672l-.002-.003-1.578 1.435.022.035 1.558-1.468z" fill="#f8f8f8" fill-rule="nonzero"/><path d="M465.99 258.67h-.002l-1.57 1.447.01.018 1.562-1.464z" fill="#fff" fill-rule="nonzero"/><path d="M466.01 258.707l-.032-.054-1.693 1.25.235.38 1.49-1.576zM465.976 258.65l-.074-.12-1.898.916.28.457 1.692-1.252z" fill="#7f8082" fill-rule="nonzero"/><path d="M465.974 258.647l-.07-.117-1.898.92.27.437 1.698-1.24z" fill="#7d7e80" fill-rule="nonzero"/><path d="M465.972 258.644l-.07-.113-1.895.92.258.42 1.707-1.226z" fill="#7c7d7f" fill-rule="nonzero"/><path d="M465.97 258.64l-.066-.108-1.895.922.246.402 1.713-1.216z" fill="#7a7b7d" fill-rule="nonzero"/><path d="M465.967 258.636l-.063-.102-1.893.923.237.383 1.72-1.204z" fill="#78797b" fill-rule="nonzero"/><path d="M465.965 258.633l-.06-.1-1.892.926.224.364 1.728-1.19z" fill="#77787a" fill-rule="nonzero"/><path d="M465.963 258.63l-.057-.095-1.892.927.213.347 1.736-1.18z" fill="#757678" fill-rule="nonzero"/><path d="M465.96 258.626l-.053-.09-1.89.93.2.327 1.744-1.167z" fill="#747476" fill-rule="nonzero"/><path d="M465.958 258.622l-.05-.084-1.89.93.19.31 1.75-1.156z" fill="#727375" fill-rule="nonzero"/><path d="M465.956 258.618l-.05-.08-1.886.932.18.292 1.756-1.144z" fill="#707173" fill-rule="nonzero"/><path d="M465.954 258.615l-.046-.075-1.887.933.17.273 1.764-1.13z" fill="#6f6f71" fill-rule="nonzero"/><path d="M465.952 258.61l-.043-.07-1.887.936.157.255 1.772-1.12z" fill="#6d6e6f" fill-rule="nonzero"/><path d="M465.95 258.607l-.04-.064-1.886.935.146.237 1.78-1.108z" fill="#6b6c6e" fill-rule="nonzero"/><path d="M465.947 258.604l-.037-.06-1.884.937.135.22 1.787-1.096z" fill="#6a6a6c" fill-rule="nonzero"/><path d="M465.945 258.6l-.034-.055-1.883.94.124.2 1.795-1.085z" fill="#68686a" fill-rule="nonzero"/><path d="M465.943 258.596l-.032-.05-1.88.94.112.182 1.8-1.072z" fill="#666769" fill-rule="nonzero"/><path d="M465.94 258.593l-.028-.046-1.88.942.1.163 1.81-1.06z" fill="#656567" fill-rule="nonzero"/><path d="M465.938 258.59l-.025-.042-1.88.944.09.145 1.815-1.048z" fill="#636365" fill-rule="nonzero"/><path d="M465.936 258.586l-.023-.036-1.88.945.08.126 1.823-1.034z" fill="#626264" fill-rule="nonzero"/><path d="M465.934 258.582l-.02-.03-1.878.946.068.108 1.83-1.024z" fill="#606062" fill-rule="nonzero"/><path d="M465.932 258.578l-.017-.027-1.877.95.056.09 1.838-1.012z" fill="#5e5e60" fill-rule="nonzero"/><path d="M465.93 258.575l-.015-.022-1.875.95.045.072 1.845-1z" fill="#5d5d5f" fill-rule="nonzero"/><path d="M465.927 258.57l-.012-.016-1.874.952.036.053 1.85-.99z" fill="#5b5b5d" fill-rule="nonzero"/><path d="M616.065 604.248l-101.072 51.078-63.727-126.104 101.072-51.078 63.727 126.104z" fill="#fff" fill-rule="nonzero"/><path d="M546.27 508.097l-68.892 34.816-1.107-2.192 68.893-34.815 1.108 2.192zM557.396 526.91l-70.182 35.466-1.107-2.19 70.18-35.468 1.11 2.19zM553.96 533.89l-64.634 32.665-1.107-2.19 64.634-32.665 1.107 2.19zM563.455 552.677L498.82 585.34l-1.108-2.19 64.635-32.665 1.108 2.192zM561.384 535.087l-70.066 35.41-1.108-2.193 70.066-35.408 1.108 2.19zM499.69 541.43l-18.37 9.284-1.107-2.192 18.37-9.283 1.107 2.19zM509.118 536.666l-6.973 3.525-1.108-2.192 6.974-3.523 1.108 2.19zM523.4 529.448l-11.555 5.84-1.108-2.192 11.556-5.84 1.108 2.192zM531.302 525.455l-5.778 2.92-1.107-2.19 5.778-2.92 1.107 2.19zM551.813 515.09l-18.237 9.216-1.107-2.192 18.236-9.216 1.107 2.192zM493.353 539.837l-13.963 7.056-1.108-2.192 13.963-7.055 1.108 2.192zM509.458 531.698l-13.962 7.056-1.108-2.192 13.963-7.056 1.108 2.192zM518.887 526.933l-7.446 3.763-1.107-2.192 7.446-3.763 1.107 2.193zM510.973 574.703l-13.963 7.057-1.108-2.192 13.963-7.056 1.108 2.19zM526.768 566.72l-13.964 7.058-1.108-2.192 13.964-7.056 1.108 2.19zM551.76 554.09l-23.01 11.63-1.107-2.192 23.01-11.63 1.108 2.193zM529.37 521.635l-8.5 4.296-1.108-2.19 8.5-4.297 1.11 2.192zM543.805 514.34l-12.763 6.45-1.107-2.19 12.763-6.45 1.107 2.19zM508.982 570.763l-13.964 7.057-1.107-2.193 13.964-7.056 1.108 2.193zM524.776 562.78l-13.963 7.058-1.108-2.192 13.964-7.057 1.106 2.19zM534.205 558.016l-7.446 3.763-1.11-2.193 7.447-3.762 1.108 2.19zM544.687 552.72l-8.5 4.295-1.108-2.192 8.5-4.296 1.107 2.192zM565.057 542.425l-19.153 9.68-1.108-2.192 19.153-9.68 1.107 2.192zM497.215 547.478l-13.964 7.057-1.106-2.19 13.963-7.058 1.108 2.19zM513.084 539.46l-13.962 7.055-1.108-2.19 13.963-7.058 1.107 2.192zM522.057 534.924l-7.446 3.763-1.107-2.192 7.446-3.762 1.107 2.19zM507.11 567.06l-13.962 7.058-1.108-2.192 13.964-7.057 1.107 2.19zM523.096 558.983l-13.963 7.057-1.108-2.192 13.963-7.057 1.108 2.193zM532.07 554.45l-7.447 3.762-1.108-2.193 7.446-3.763 1.11 2.192zM547.9 546.45l-13.964 7.056-1.108-2.193 13.964-7.056 1.107 2.192zM563.002 538.817l-13.964 7.057-1.108-2.193 13.964-7.055 1.108 2.192zM499.305 551.615l-13.963 7.057-1.108-2.193 13.964-7.057 1.107 2.192zM515.175 543.595l-13.963 7.056-1.108-2.19 13.963-7.056 1.108 2.19zM524.148 539.06l-7.446 3.763-1.108-2.19 7.446-3.764 1.108 2.19zM534.175 533.993l-8.5 4.296-1.108-2.193 8.5-4.295 1.108 2.19zM555.38 523.277l-19.532 9.87-1.108-2.19 19.533-9.872 1.108 2.192zM570.082 554.676l-68.893 34.816-1.11-2.192 68.894-34.815 1.108 2.19zM559.858 584.276l-48.834 24.678-1.107-2.19 48.834-24.68 1.108 2.192zM523.5 588.01l-18.37 9.282-1.107-2.19 18.37-9.285 1.108 2.192zM532.93 583.244l-6.975 3.525-1.108-2.193 6.974-3.524 1.11 2.19zM547.21 576.027l-11.555 5.84-1.107-2.192 11.555-5.84 1.108 2.192zM555.113 572.033l-5.78 2.92-1.107-2.19 5.78-2.92 1.107 2.19zM574.024 562.477l-16.637 8.407-1.108-2.19 16.636-8.41 1.108 2.193zM517.163 586.415l-13.963 7.057-1.108-2.193 13.964-7.057 1.107 2.192zM533.27 578.276l-13.964 7.057-1.108-2.193 13.963-7.056 1.11 2.192zM542.698 573.51l-7.446 3.764-1.108-2.192 7.446-3.762 1.108 2.19zM553.18 568.213l-8.5 4.296-1.108-2.193 8.5-4.296 1.11 2.193zM571.877 558.765l-17.025 8.603-1.107-2.19 17.024-8.604 1.107 2.19zM536.895 586.038l-13.963 7.056-1.107-2.192 13.962-7.056 1.108 2.192zM545.867 581.503l-7.445 3.763-1.108-2.192 7.446-3.762 1.107 2.19zM538.985 590.174l-13.962 7.056-1.108-2.192 13.963-7.056 1.107 2.192zM547.958 585.64l-7.446 3.762-1.107-2.192 7.445-3.762 1.108 2.19zM557.986 580.572l-8.5 4.296-1.108-2.192 8.5-4.296 1.108 2.192z" fill="#ccc" fill-rule="nonzero"/><path d="M581.997 602.187l-7.324 3.7-9.43-18.657 7.325-3.7 9.43 18.657z" fill="#e9bd7a" fill-rule="nonzero"/><path d="M545.604 25.806s-.56.002-2.654-.078c-2.095-.077 2.403 8.738 2.403 8.738s-2.626-1.034-2.653-.077c-.028.955.524 6.025.492 7.14-.033 1.117 4.468.13 4.59-4.06.12-4.19-2.178-11.664-2.178-11.664M522.818 43.895s.363-.426 1.66-2.073c1.295-1.65 5.104 7.482 5.104 7.482s.91-2.67 1.658-2.073c.747.6 4.254 4.3 5.127 5 .873.698-2.793 3.49-6.066.87-3.27-2.617-7.482-9.205-7.482-9.205" fill="#df6666" fill-rule="nonzero"/><path d="M510.186 24.2c.054-1.867-.204-3.817-1.122-5.42-.922-1.61-2.42-2.69-4.463-3.227.147 5.542 2.257 10.252 4.612 14.348.37-1.24.908-3.407.974-5.7m-.923 7.443c-.878.664-4.116 3.225-6.922 6.897.72.827 1.45 1.76 2.206 2.724 2.364 3.022 4.81 6.148 6.99 6.02.97-.058 1.857-.767 2.71-2.17 1.688-2.777-.53-6.325-3.342-10.815-.535-.858-1.09-1.742-1.64-2.657m5.024 33.055c.056-1.948-.442-3.952-1.48-5.645-1.965-3.204-5.542-4.886-10.074-4.733-1.638.053-3.18.055-4.632.018l.06 1.004c.548 9.145 1.02 17.044 9.406 16.937 2.43-.03 4.428-1.243 5.627-3.414.687-1.247 1.05-2.69 1.093-4.168m-10.535-49.33a5.093 5.093 0 0 1-.13-.024c-3.88-.645-6.964.678-8.458 3.63-2.034 4.025-1.023 11.475 6.012 18.323.19.184.378.38.567.58 2.922-3.78 6.26-6.35 7.087-6.962-2.577-4.38-4.974-9.464-5.077-15.548m-23.673 35.42l.403-.735c.063.033 5.57 2.96 16.724 3.414-.05-.784-.107-1.57-.17-2.358-.384-4.75 1.677-9.102 4.195-12.55a18.425 18.425 0 0 0-.64-.66c-7.338-7.144-8.346-15.014-6.174-19.302 1.67-3.3 5.073-4.787 9.336-4.08.03-1.71.246-3.492.69-5.36 1.176-4.972 2.68-7.744 4.73-8.725 2.442-1.164 5.318.214 8.96 1.96 3.8 1.823 8.534 4.09 14.3 4.045 4.6-.04 7.778.944 9.72 3.004 2.796 2.964 2.49 7.543 2.193 11.967-.117 1.738-.228 3.38-.15 4.883l-.836.044c-.08-1.555.033-3.22.15-4.983.285-4.245.58-8.64-1.966-11.337-1.773-1.88-4.75-2.776-9.104-2.742-5.96.052-10.79-2.264-14.67-4.125-3.438-1.65-6.153-2.95-8.234-1.955-1.804.86-3.165 3.453-4.278 8.16a24.507 24.507 0 0 0-.664 5.337c2.38.57 4.126 1.806 5.198 3.678 2.506 4.377.568 10.836-.008 12.515.613 1.03 1.233 2.02 1.83 2.974 2.966 4.735 5.306 8.474 3.347 11.697-1.004 1.654-2.11 2.494-3.373 2.57-2.618.153-5.202-3.146-7.7-6.337-.708-.904-1.39-1.776-2.06-2.552-2.383 3.307-4.313 7.418-3.955 11.808.068.822.125 1.64.176 2.456 1.46.042 3.013.04 4.658-.014 4.846-.16 8.688 1.66 10.816 5.134 1.98 3.227 2.142 7.51.407 10.658-1.352 2.445-3.606 3.812-6.352 3.846-9.183.116-9.702-8.552-10.254-17.726-.02-.357-.042-.718-.065-1.08-11.392-.43-16.917-3.383-17.18-3.526" fill="#efefef" fill-rule="nonzero"/><path d="M500.012 40.483c.822-.555 2.56-.29 5.562.222 3.995.683 8.968 1.535 11.164-.548.95-.898 1.3-2.277 1.076-4.21-.577-4.977-2.832-4.93-5.685-4.87-2.872.06-6.445.137-8.09-5.9-1.983-7.28 3.033-15.565 8.53-17.242 3.333-1.017 6.015.676 7.36 4.648 1.71 5.055 1.33 9.237.963 13.28-.484 5.326-.94 10.355 3.662 16.724l-.68.492c-4.786-6.623-4.318-11.805-3.817-17.293.36-3.956.73-8.05-.924-12.936-1.196-3.53-3.44-4.992-6.32-4.113-4.498 1.37-9.943 8.96-7.964 16.22 1.47 5.404 4.284 5.346 7.26 5.283 2.887-.06 5.87-.122 6.537 5.61.256 2.182-.195 3.838-1.332 4.918-2.5 2.368-7.703 1.478-11.882.764-2.148-.367-4.368-.747-4.953-.354l-.468-.695z" fill="#efefef" fill-rule="nonzero"/><path d="M476.184 52.6a1.727 1.727 0 0 1-1.18-2.14l.705-2.435a1.73 1.73 0 0 1 2.14-1.182l5.236 1.516a1.728 1.728 0 0 1 1.18 2.14l-.705 2.437a1.73 1.73 0 0 1-2.14 1.178l-5.236-1.515z" fill="#dddad1" fill-rule="nonzero"/><path d="M419.588 61.43l7.88-32.604 48.82 11.802-7.882 32.604-48.818-11.8z" fill="#4d4d4d" fill-rule="nonzero"/><path d="M471.354 73.946l7.88-32.606A3.03 3.03 0 0 0 477 37.68l-48.82-11.8a3.036 3.036 0 0 0-3.66 2.234l-7.88 32.606a3.034 3.034 0 0 0 2.233 3.66l48.82 11.8a3.032 3.032 0 0 0 3.66-2.234m-2.947-.713L419.588 61.43l7.88-32.603 48.82 11.8-7.882 32.606" fill="#e5e5e5" fill-rule="nonzero"/><path d="M426.505 63.783l8.193-33.89-8.99-2.17-8.194 33.89 8.99 2.17z" fill="#e5e5e5" fill-rule="nonzero"/><path d="M425.022 50.562c-1.384-.338-1.987-2.75-1.347-5.396.64-2.643 2.28-4.52 3.663-4.183 1.383.333 1.985 2.75 1.346 5.392-.64 2.645-2.28 4.518-3.662 4.187" fill="#c9c9c9" fill-rule="nonzero"/><path d="M472.59 289.382l38.018-14.808 14.808 38.016L487.4 327.4l-14.81-38.018z" fill="#d8817a"/><path d="M520.492 299.95l4.925 12.64-8.13 3.167 3.205-15.808z" fill="#d26359"/><path d="M520.492 299.95c-2.86 3.13-6.075 5.287-9.884 5.784 3.527 2.35 5.544 5.85 6.68 10.023l3.204-15.808zM472.59 289.382l38.018-14.808 1.775 4.557-38.016 14.81-1.776-4.558z" fill="#e4a39e"/><defs><linearGradient id="b" x2="1" gradientUnits="userSpaceOnUse" gradientTransform="scale(6.59162) rotate(58.395 -5.797 78.898)"><stop offset="0%" stop-color="#bebfc4"/><stop offset="100%" stop-color="#e0e1e5"/></linearGradient><linearGradient id="d" x2="1" gradientUnits="userSpaceOnUse" gradientTransform="matrix(.5322 .86488 -.86488 .5322 419.88 283.317)"><stop offset="0%" stop-color="#332f2e"/><stop offset="100%" stop-color="#4a484a"/></linearGradient><linearGradient id="f" x2="1" gradientUnits="userSpaceOnUse" gradientTransform="scale(1.79742) rotate(58.395 .083 302.835)"><stop offset="0%" stop-color="#bebfc4"/><stop offset="100%" stop-color="#e0e1e5"/></linearGradient></defs></svg>