<?xml version="1.0" standalone="no"?><!DOCTYPE svg PUBLIC "-//W3C//DTD SVG 1.1//EN" "http://www.w3.org/Graphics/SVG/1.1/DTD/svg11.dtd"><svg width="100%" height="100%" viewBox="0 0 617 656" version="1.1" xmlns="http://www.w3.org/2000/svg" xmlns:xlink="http://www.w3.org/1999/xlink" xml:space="preserve" style="fill-rule:evenodd;clip-rule:evenodd;stroke-miterlimit:10;"><path d="M277.836,104.865l-6.689,-0.907l1.08,-7.962l6.689,0.907l-1.08,7.962Z" style="fill:#979797;fill-rule:nonzero;"/><path d="M276.179,128.46c-0.091,0.631 -0.676,1.068 -1.307,0.978l-7.998,-1.155c-0.631,-0.09 -1.069,-0.676 -0.977,-1.307l3.514,-24.554c0.091,-0.631 0.676,-1.069 1.307,-0.977l7.998,1.153c0.631,0.091 1.069,0.677 0.978,1.307l-3.515,24.555Z" style="fill:#afcf6b;fill-rule:nonzero;"/><path d="M274.14,121.148c1.008,1.36 0.723,3.281 -0.638,4.289c-1.361,1.009 -3.281,0.722 -4.289,-0.637c-1.009,-1.362 -0.723,-3.282 0.637,-4.29c1.361,-1.008 3.281,-0.723 4.29,0.638" style="fill:#4e4e4e;fill-rule:nonzero;"/><path d="M274.226,98.38l-0.969,-0.125l0.125,-0.969l0.969,0.125l-0.125,0.969Z" style="fill:#202020;fill-rule:nonzero;"/><path d="M277.374,98.848l-0.969,-0.125l0.124,-0.969l0.969,0.125l-0.124,0.969Z" style="fill:#202020;fill-rule:nonzero;"/><path d="M275.656,96.461l-0.625,3.969" style="fill:none;stroke-width:0.19px;stroke:#202020;"/><path d="M366.527,264.481l-78.474,-9.978l-4.308,51.893l78.474,9.976l4.308,-51.891Z" style="fill:#e2e2e2;fill-rule:nonzero;"/><path d="M283.746,306.396l43.528,-46.72l34.946,56.696l-78.474,-9.976Z" style="fill:#efefef;fill-rule:nonzero;"/><path d="M366.527,264.481l-42.698,36.72l-35.776,-46.698l78.474,9.978Z" style="fill:#fff;fill-rule:nonzero;"/><path d="M322.347,239.185l-72.514,29.162l19.645,48.848l72.514,-29.164l-19.645,-48.846Z" style="fill:#e2e2e2;fill-rule:nonzero;"/><path d="M269.478,317.195l16.683,-63.254l55.831,34.09l-72.514,29.164Z" style="fill:#efefef;fill-rule:nonzero;"/><path d="M322.347,239.185l-20.467,53.843l-52.047,-24.681l72.514,-29.162Z" style="fill:#fff;fill-rule:nonzero;"/><path d="M320.815,56.578l-26.43,133.274l208.96,41.439l26.43,-133.274l-208.96,-41.439Z" style="fill:#8ac8c1;fill-rule:nonzero;"/><path d="M329.612,59.382l-25.985,131.027l93.849,18.612l25.984,-131.028l-93.848,-18.611Z" style="fill:#fff;fill-rule:nonzero;"/><path d="M397.716,186.648c-1.344,-0.266 -2.646,0.611 -2.913,1.954c-0.266,1.344 0.603,2.65 1.947,2.916c1.343,0.267 2.648,-0.607 2.915,-1.952c0.266,-1.343 -0.606,-2.651 -1.949,-2.918" style="fill:#6e6658;fill-rule:nonzero;"/><path d="M399.288,187.696c0.103,0.371 0.13,0.767 0.05,1.168c-0.266,1.341 -1.573,2.218 -2.914,1.952c-0.669,-0.133 -1.217,-0.522 -1.573,-1.043c0.253,0.86 0.959,1.559 1.899,1.746c1.343,0.266 2.648,-0.609 2.915,-1.953c0.134,-0.677 -0.023,-1.344 -0.377,-1.87" style="fill:#8b8d8f;fill-rule:nonzero;"/><path d="M399.652,176.884c-1.344,-0.266 -2.646,0.609 -2.913,1.953c-0.266,1.343 0.604,2.649 1.947,2.915c1.344,0.267 2.649,-0.608 2.915,-1.951c0.267,-1.344 -0.606,-2.651 -1.949,-2.917" style="fill:#6e6658;fill-rule:nonzero;"/><path d="M401.225,177.929c0.103,0.369 0.13,0.768 0.049,1.171c-0.266,1.344 -1.572,2.216 -2.913,1.949c-0.669,-0.132 -1.217,-0.522 -1.573,-1.044c0.253,0.863 0.958,1.561 1.898,1.748c1.343,0.266 2.649,-0.608 2.915,-1.952c0.135,-0.677 -0.023,-1.344 -0.376,-1.872" style="fill:#8b8d8f;fill-rule:nonzero;"/><path d="M401.588,167.118c-1.343,-0.266 -2.646,0.611 -2.912,1.952c-0.266,1.345 0.604,2.651 1.946,2.917c1.344,0.267 2.649,-0.607 2.916,-1.953c0.266,-1.342 -0.606,-2.65 -1.95,-2.916" style="fill:#6e6658;fill-rule:nonzero;"/><path d="M403.161,168.163c0.103,0.369 0.13,0.768 0.05,1.171c-0.266,1.343 -1.572,2.215 -2.914,1.949c-0.668,-0.133 -1.216,-0.52 -1.573,-1.043c0.252,0.863 0.959,1.561 1.899,1.748c1.343,0.266 2.649,-0.609 2.916,-1.954c0.133,-0.674 -0.024,-1.343 -0.378,-1.871" style="fill:#8b8d8f;fill-rule:nonzero;"/><path d="M403.525,157.353c-1.343,-0.266 -2.645,0.608 -2.912,1.952c-0.267,1.344 0.603,2.649 1.947,2.916c1.343,0.267 2.648,-0.608 2.915,-1.952c0.266,-1.343 -0.607,-2.65 -1.95,-2.916" style="fill:#6e6658;fill-rule:nonzero;"/><path d="M405.098,158.399c0.103,0.371 0.13,0.767 0.049,1.17c-0.266,1.344 -1.572,2.215 -2.913,1.949c-0.669,-0.133 -1.216,-0.523 -1.572,-1.043c0.251,0.862 0.958,1.56 1.898,1.746c1.343,0.267 2.648,-0.608 2.915,-1.952c0.134,-0.675 -0.024,-1.343 -0.377,-1.87" style="fill:#8b8d8f;fill-rule:nonzero;"/><path d="M405.462,147.588c-1.344,-0.266 -2.646,0.609 -2.912,1.952c-0.266,1.343 0.603,2.648 1.946,2.915c1.344,0.267 2.649,-0.609 2.915,-1.951c0.267,-1.343 -0.606,-2.65 -1.949,-2.916" style="fill:#6e6658;fill-rule:nonzero;"/><path d="M407.035,148.632c0.102,0.37 0.129,0.769 0.049,1.172c-0.266,1.341 -1.572,2.214 -2.914,1.947c-0.668,-0.132 -1.216,-0.521 -1.572,-1.043c0.252,0.863 0.959,1.561 1.898,1.747c1.343,0.266 2.649,-0.609 2.915,-1.952c0.134,-0.675 -0.023,-1.341 -0.376,-1.871" style="fill:#8b8d8f;fill-rule:nonzero;"/><path d="M407.398,137.822c-1.343,-0.266 -2.646,0.61 -2.912,1.954c-0.266,1.342 0.604,2.646 1.947,2.913c1.343,0.266 2.648,-0.607 2.915,-1.95c0.267,-1.344 -0.606,-2.651 -1.95,-2.917" style="fill:#6e6658;fill-rule:nonzero;"/><path d="M408.971,138.868c0.103,0.37 0.13,0.768 0.05,1.169c-0.265,1.342 -1.573,2.217 -2.915,1.951c-0.668,-0.132 -1.216,-0.521 -1.571,-1.045c0.252,0.862 0.958,1.56 1.898,1.746c1.343,0.267 2.648,-0.607 2.914,-1.949c0.135,-0.677 -0.022,-1.345 -0.376,-1.872" style="fill:#8b8d8f;fill-rule:nonzero;"/><path d="M409.335,128.058c-1.344,-0.266 -2.646,0.608 -2.912,1.951c-0.267,1.344 0.603,2.65 1.946,2.917c1.344,0.267 2.649,-0.609 2.916,-1.953c0.266,-1.344 -0.607,-2.649 -1.95,-2.915" style="fill:#6e6658;fill-rule:nonzero;"/><path d="M410.908,129.103c0.103,0.367 0.129,0.768 0.05,1.169c-0.266,1.343 -1.572,2.214 -2.915,1.948c-0.667,-0.133 -1.215,-0.521 -1.572,-1.042c0.252,0.863 0.959,1.562 1.899,1.748c1.343,0.267 2.648,-0.609 2.915,-1.953c0.133,-0.675 -0.023,-1.344 -0.377,-1.87" style="fill:#8b8d8f;fill-rule:nonzero;"/><path d="M411.272,118.291c-1.344,-0.266 -2.646,0.608 -2.913,1.954c-0.266,1.342 0.604,2.648 1.947,2.914c1.344,0.266 2.649,-0.608 2.915,-1.95c0.267,-1.345 -0.606,-2.652 -1.949,-2.918" style="fill:#6e6658;fill-rule:nonzero;"/><path d="M412.845,119.336c0.102,0.371 0.129,0.767 0.05,1.17c-0.267,1.343 -1.573,2.216 -2.915,1.95c-0.668,-0.133 -1.217,-0.52 -1.572,-1.043c0.252,0.862 0.958,1.56 1.898,1.746c1.343,0.266 2.649,-0.608 2.915,-1.95c0.134,-0.677 -0.023,-1.346 -0.376,-1.873" style="fill:#8b8d8f;fill-rule:nonzero;"/><path d="M413.208,108.526c-1.343,-0.266 -2.645,0.608 -2.912,1.951c-0.266,1.344 0.604,2.65 1.947,2.917c1.343,0.266 2.648,-0.61 2.914,-1.952c0.267,-1.344 -0.606,-2.65 -1.949,-2.916" style="fill:#6e6658;fill-rule:nonzero;"/><path d="M414.781,109.571c0.103,0.369 0.13,0.768 0.05,1.17c-0.266,1.342 -1.573,2.216 -2.914,1.95c-0.669,-0.133 -1.217,-0.522 -1.572,-1.045c0.252,0.863 0.957,1.561 1.898,1.747c1.343,0.267 2.648,-0.609 2.914,-1.951c0.135,-0.677 -0.023,-1.343 -0.376,-1.871" style="fill:#8b8d8f;fill-rule:nonzero;"/><path d="M415.145,98.761c-1.344,-0.266 -2.646,0.61 -2.913,1.953c-0.266,1.342 0.604,2.647 1.947,2.913c1.344,0.266 2.649,-0.608 2.915,-1.949c0.266,-1.343 -0.606,-2.651 -1.949,-2.917" style="fill:#6e6658;fill-rule:nonzero;"/><path d="M416.717,99.807c0.103,0.37 0.13,0.766 0.051,1.168c-0.267,1.345 -1.573,2.215 -2.915,1.949c-0.667,-0.133 -1.216,-0.519 -1.572,-1.041c0.252,0.862 0.959,1.558 1.898,1.744c1.344,0.266 2.649,-0.607 2.916,-1.95c0.133,-0.673 -0.024,-1.344 -0.378,-1.87" style="fill:#8b8d8f;fill-rule:nonzero;"/><path d="M417.081,88.996c-1.343,-0.267 -2.645,0.608 -2.911,1.95c-0.267,1.344 0.603,2.65 1.946,2.916c1.343,0.267 2.649,-0.607 2.915,-1.951c0.266,-1.343 -0.607,-2.649 -1.95,-2.915" style="fill:#6e6658;fill-rule:nonzero;"/><path d="M418.654,90.041c0.103,0.369 0.131,0.765 0.05,1.169c-0.266,1.342 -1.572,2.217 -2.914,1.951c-0.668,-0.133 -1.217,-0.522 -1.572,-1.046c0.252,0.863 0.958,1.561 1.898,1.748c1.343,0.266 2.648,-0.609 2.915,-1.953c0.134,-0.675 -0.024,-1.341 -0.377,-1.869" style="fill:#8b8d8f;fill-rule:nonzero;"/><path d="M422.609,91.57l-2.252,-0.446l-0.135,0.678l2.252,0.447c0.159,0.031 0.285,0.333 0.214,0.686c-0.07,0.355 -0.301,0.584 -0.46,0.552l-2.251,-0.446l-0.135,0.679l2.251,0.447c0.569,0.113 1.131,-0.366 1.275,-1.097c0.145,-0.728 -0.191,-1.387 -0.759,-1.5" style="fill:#373737;fill-rule:nonzero;"/><path d="M417.729,92.595c-0.161,-0.032 -0.289,-0.332 -0.218,-0.687c0.069,-0.353 0.302,-0.584 0.464,-0.551l2.247,0.445l0.135,-0.679l-2.248,-0.445c-0.573,-0.114 -1.133,0.367 -1.277,1.096c-0.146,0.731 0.189,1.387 0.762,1.501l2.248,0.446l0.135,-0.68l-2.248,-0.446Z" style="fill:#373737;fill-rule:nonzero;"/><path d="M420.685,101.269l-2.252,-0.446l-0.135,0.681l2.252,0.446c0.158,0.031 0.284,0.334 0.215,0.685c-0.071,0.356 -0.303,0.586 -0.461,0.554l-2.251,-0.446l-0.135,0.678l2.252,0.447c0.568,0.113 1.129,-0.368 1.275,-1.098c0.144,-0.729 -0.191,-1.389 -0.76,-1.501" style="fill:#373737;fill-rule:nonzero;"/><path d="M415.805,102.297c-0.161,-0.031 -0.289,-0.333 -0.218,-0.688c0.069,-0.352 0.302,-0.583 0.464,-0.551l2.247,0.446l0.135,-0.681l-2.247,-0.446c-0.574,-0.114 -1.134,0.368 -1.278,1.097c-0.145,0.73 0.189,1.389 0.763,1.503l2.247,0.445l0.135,-0.679l-2.248,-0.446Z" style="fill:#373737;fill-rule:nonzero;"/><path d="M418.761,110.972l-2.252,-0.447l-0.135,0.679l2.253,0.446c0.158,0.032 0.284,0.333 0.213,0.687c-0.069,0.353 -0.301,0.585 -0.46,0.554l-2.252,-0.446l-0.134,0.678l2.252,0.446c0.568,0.112 1.13,-0.368 1.275,-1.097c0.144,-0.729 -0.192,-1.387 -0.76,-1.5" style="fill:#373737;fill-rule:nonzero;"/><path d="M413.881,111.999c-0.161,-0.032 -0.288,-0.335 -0.218,-0.689c0.07,-0.354 0.303,-0.584 0.464,-0.552l2.248,0.446l0.134,-0.679l-2.247,-0.445c-0.574,-0.114 -1.133,0.367 -1.278,1.096c-0.145,0.729 0.19,1.387 0.763,1.501l2.247,0.445l0.135,-0.678l-2.248,-0.445Z" style="fill:#373737;fill-rule:nonzero;"/><path d="M416.838,120.671l-2.252,-0.446l-0.135,0.678l2.252,0.447c0.158,0.031 0.284,0.334 0.214,0.688c-0.07,0.353 -0.301,0.584 -0.46,0.554l-2.252,-0.447l-0.134,0.678l2.251,0.446c0.569,0.112 1.131,-0.368 1.275,-1.096c0.145,-0.73 -0.191,-1.39 -0.759,-1.502" style="fill:#373737;fill-rule:nonzero;"/><path d="M411.958,121.699c-0.162,-0.032 -0.289,-0.335 -0.219,-0.688c0.07,-0.354 0.303,-0.586 0.465,-0.553l2.247,0.445l0.135,-0.679l-2.247,-0.445c-0.574,-0.114 -1.134,0.368 -1.279,1.098c-0.144,0.727 0.19,1.386 0.763,1.5l2.247,0.445l0.135,-0.678l-2.247,-0.445Z" style="fill:#373737;fill-rule:nonzero;"/><path d="M414.914,130.372l-2.252,-0.446l-0.135,0.68l2.252,0.446c0.158,0.031 0.285,0.332 0.214,0.686c-0.07,0.355 -0.301,0.584 -0.46,0.552l-2.252,-0.446l-0.134,0.679l2.251,0.447c0.569,0.113 1.131,-0.366 1.275,-1.097c0.145,-0.728 -0.191,-1.388 -0.759,-1.501" style="fill:#373737;fill-rule:nonzero;"/><path d="M410.034,131.398c-0.161,-0.032 -0.289,-0.332 -0.218,-0.687c0.069,-0.353 0.302,-0.584 0.463,-0.551l2.248,0.445l0.135,-0.679l-2.248,-0.447c-0.573,-0.113 -1.133,0.369 -1.278,1.098c-0.145,0.729 0.19,1.387 0.763,1.501l2.248,0.446l0.135,-0.68l-2.248,-0.446Z" style="fill:#373737;fill-rule:nonzero;"/><path d="M412.99,140.072l-2.252,-0.446l-0.135,0.678l2.253,0.447c0.158,0.032 0.284,0.333 0.213,0.687c-0.07,0.354 -0.301,0.584 -0.459,0.552l-2.253,-0.446l-0.134,0.679l2.252,0.447c0.568,0.112 1.13,-0.366 1.275,-1.097c0.144,-0.727 -0.192,-1.388 -0.76,-1.501" style="fill:#373737;fill-rule:nonzero;"/><path d="M408.11,141.098c-0.161,-0.032 -0.289,-0.333 -0.218,-0.687c0.07,-0.354 0.303,-0.584 0.464,-0.552l2.248,0.446l0.134,-0.679l-2.248,-0.446c-0.573,-0.113 -1.134,0.37 -1.278,1.097c-0.144,0.73 0.19,1.387 0.764,1.5l2.247,0.446l0.135,-0.679l-2.248,-0.446Z" style="fill:#373737;fill-rule:nonzero;"/><path d="M411.066,149.773l-2.251,-0.447l-0.136,0.681l2.252,0.447c0.158,0.031 0.284,0.332 0.215,0.686c-0.071,0.354 -0.302,0.583 -0.461,0.552l-2.251,-0.446l-0.135,0.678l2.252,0.447c0.568,0.113 1.13,-0.369 1.275,-1.096c0.144,-0.729 -0.191,-1.389 -0.76,-1.502" style="fill:#373737;fill-rule:nonzero;"/><path d="M406.186,150.8c-0.161,-0.032 -0.289,-0.333 -0.218,-0.687c0.07,-0.354 0.302,-0.584 0.464,-0.551l2.247,0.445l0.135,-0.681l-2.247,-0.445c-0.574,-0.114 -1.134,0.369 -1.279,1.098c-0.144,0.727 0.19,1.386 0.764,1.5l2.247,0.446l0.135,-0.68l-2.248,-0.445Z" style="fill:#373737;fill-rule:nonzero;"/><path d="M409.142,159.474l-2.251,-0.446l-0.135,0.679l2.252,0.446c0.158,0.033 0.284,0.332 0.214,0.687c-0.071,0.355 -0.302,0.585 -0.461,0.553l-2.251,-0.446l-0.135,0.679l2.252,0.446c0.568,0.113 1.13,-0.368 1.275,-1.097c0.145,-0.729 -0.191,-1.388 -0.76,-1.501" style="fill:#373737;fill-rule:nonzero;"/><path d="M404.262,160.501c-0.161,-0.032 -0.288,-0.333 -0.218,-0.688c0.071,-0.355 0.303,-0.583 0.464,-0.552l2.247,0.446l0.135,-0.68l-2.247,-0.445c-0.573,-0.114 -1.133,0.367 -1.278,1.096c-0.144,0.73 0.189,1.388 0.763,1.502l2.248,0.446l0.134,-0.679l-2.248,-0.446Z" style="fill:#373737;fill-rule:nonzero;"/><path d="M407.219,169.175l-2.253,-0.447l-0.135,0.681l2.253,0.447c0.158,0.031 0.284,0.33 0.214,0.684c-0.07,0.355 -0.301,0.585 -0.46,0.554l-2.252,-0.447l-0.134,0.679l2.251,0.447c0.569,0.112 1.131,-0.368 1.275,-1.098c0.144,-0.728 -0.191,-1.388 -0.759,-1.5" style="fill:#373737;fill-rule:nonzero;"/><path d="M402.339,170.201c-0.161,-0.032 -0.289,-0.333 -0.218,-0.687c0.069,-0.354 0.302,-0.583 0.464,-0.551l2.247,0.446l0.135,-0.681l-2.247,-0.446c-0.574,-0.114 -1.134,0.368 -1.278,1.097c-0.146,0.73 0.189,1.387 0.762,1.501l2.248,0.446l0.135,-0.679l-2.248,-0.446Z" style="fill:#373737;fill-rule:nonzero;"/><path d="M400.415,179.903c-0.161,-0.032 -0.289,-0.332 -0.218,-0.689c0.069,-0.353 0.302,-0.582 0.464,-0.551l2.247,0.446l0.136,-0.681l-2.248,-0.446c-0.574,-0.113 -1.134,0.37 -1.278,1.098c-0.146,0.73 0.189,1.387 0.762,1.501l2.248,0.445l0.134,-0.678l-2.247,-0.445Z" style="fill:#373737;fill-rule:nonzero;"/><path d="M405.295,178.875l-2.251,-0.447l-0.135,0.681l2.251,0.447c0.158,0.031 0.284,0.332 0.214,0.686c-0.071,0.355 -0.301,0.584 -0.46,0.553l-2.251,-0.447l-0.135,0.678l2.252,0.447c0.568,0.113 1.129,-0.366 1.274,-1.097c0.145,-0.727 -0.19,-1.388 -0.759,-1.501" style="fill:#373737;fill-rule:nonzero;"/><path d="M398.491,189.603c-0.161,-0.032 -0.288,-0.333 -0.218,-0.688c0.07,-0.354 0.302,-0.583 0.464,-0.55l2.247,0.446l0.135,-0.681l-2.247,-0.446c-0.573,-0.114 -1.134,0.368 -1.278,1.097c-0.145,0.73 0.189,1.387 0.762,1.501l2.248,0.446l0.135,-0.679l-2.248,-0.446Z" style="fill:#373737;fill-rule:nonzero;"/><path d="M403.371,188.576l-2.251,-0.446l-0.135,0.681l2.251,0.446c0.158,0.032 0.285,0.331 0.215,0.685c-0.071,0.355 -0.302,0.585 -0.46,0.553l-2.252,-0.446l-0.135,0.679l2.252,0.446c0.568,0.113 1.13,-0.366 1.275,-1.097c0.145,-0.728 -0.191,-1.388 -0.76,-1.501" style="fill:#373737;fill-rule:nonzero;"/><path d="M334.817,81.8l-0.04,0.201l76.679,15.207l0.041,-0.202l-76.68,-15.206Z" style="fill:#5b543f;fill-rule:nonzero;"/><path d="M333.895,86.449l-0.04,0.199l76.68,15.207l0.039,-0.199l-76.679,-15.207Z" style="fill:#5b543f;fill-rule:nonzero;"/><path d="M332.974,91.095l-0.04,0.199l76.68,15.207l0.039,-0.2l-76.679,-15.206Z" style="fill:#5b543f;fill-rule:nonzero;"/><path d="M332.052,95.743l-0.039,0.198l76.679,15.206l0.039,-0.198l-76.679,-15.206Z" style="fill:#5b543f;fill-rule:nonzero;"/><path d="M331.13,100.39l-0.039,0.202l76.679,15.206l0.04,-0.202l-76.68,-15.206Z" style="fill:#5b543f;fill-rule:nonzero;"/><path d="M330.209,105.035l-0.04,0.203l76.68,15.207l0.039,-0.204l-76.679,-15.206Z" style="fill:#5b543f;fill-rule:nonzero;"/><path d="M329.287,109.684l-0.04,0.201l76.68,15.206l0.04,-0.201l-76.68,-15.206Z" style="fill:#5b543f;fill-rule:nonzero;"/><path d="M328.366,114.329l-0.041,0.203l76.68,15.207l0.04,-0.203l-76.679,-15.207Z" style="fill:#5b543f;fill-rule:nonzero;"/><path d="M327.444,118.978l-0.039,0.198l76.679,15.206l0.04,-0.197l-76.68,-15.207Z" style="fill:#5b543f;fill-rule:nonzero;"/><path d="M326.522,123.625l-0.039,0.201l76.679,15.207l0.04,-0.201l-76.68,-15.207Z" style="fill:#5b543f;fill-rule:nonzero;"/><path d="M325.601,128.27l-0.039,0.2l76.679,15.207l0.04,-0.201l-76.68,-15.206Z" style="fill:#5b543f;fill-rule:nonzero;"/><path d="M324.679,132.921l-0.04,0.198l76.68,15.206l0.039,-0.198l-76.679,-15.206Z" style="fill:#5b543f;fill-rule:nonzero;"/><path d="M323.758,137.567l-0.04,0.2l76.679,15.206l0.04,-0.2l-76.679,-15.206Z" style="fill:#5b543f;fill-rule:nonzero;"/><path d="M322.837,142.211l-0.041,0.202l76.68,15.207l0.04,-0.203l-76.679,-15.206Z" style="fill:#5b543f;fill-rule:nonzero;"/><path d="M321.915,146.859l-0.04,0.202l76.679,15.206l0.04,-0.201l-76.679,-15.207Z" style="fill:#5b543f;fill-rule:nonzero;"/><path d="M320.993,151.507l-0.039,0.198l76.679,15.206l0.039,-0.197l-76.679,-15.207Z" style="fill:#5b543f;fill-rule:nonzero;"/><path d="M320.071,156.155l-0.039,0.199l76.68,15.206l0.039,-0.198l-76.68,-15.207Z" style="fill:#5b543f;fill-rule:nonzero;"/><path d="M319.15,160.799l-0.039,0.202l76.679,15.206l0.04,-0.202l-76.68,-15.206Z" style="fill:#5b543f;fill-rule:nonzero;"/><path d="M318.228,165.448l-0.039,0.201l76.68,15.206l0.039,-0.2l-76.68,-15.207Z" style="fill:#5b543f;fill-rule:nonzero;"/><path d="M317.306,170.097l-0.039,0.2l76.68,15.206l0.039,-0.2l-76.68,-15.206Z" style="fill:#5b543f;fill-rule:nonzero;"/><path d="M331.1,177.659l-0.04,0.201l61.965,12.288l0.04,-0.201l-61.965,-12.288Z" style="fill:#5b543f;fill-rule:nonzero;"/><path d="M525.214,103.936c0.608,-3.063 -1.8,-6.12 -5.376,-6.83l-2.295,-0.455l-5.982,30.16l2.297,0.456c3.575,0.709 6.967,-1.199 7.574,-4.26l3.782,-19.071Z" style="fill:#afcf6b;fill-rule:nonzero;"/><path d="M520.95,125.437c0.607,-3.063 -1.799,-6.123 -5.375,-6.831l-2.296,-0.456l-5.981,30.161l2.296,0.455c3.575,0.709 6.967,-1.198 7.574,-4.261l3.782,-19.068Z" style="fill:#ad3d2b;fill-rule:nonzero;"/><path d="M516.714,146.795c0.607,-3.063 -1.799,-6.12 -5.375,-6.829l-2.296,-0.456l-5.981,30.16l2.296,0.456c3.576,0.709 6.967,-1.2 7.574,-4.261l3.782,-19.07Z" style="fill:#e9bd7a;fill-rule:nonzero;"/><path d="M424.974,78.294l-25.985,131.026l93.848,18.611l25.984,-131.026l-93.847,-18.611Z" style="fill:#bbbcbd;fill-rule:nonzero;"/><path d="M424.974,78.294l-25.985,131.026l69.366,13.757l27.63,-11.016l22.836,-115.156l-93.847,-18.611Z" style="fill:#fff;fill-rule:nonzero;"/><path d="M483.562,207.325c-0.63,9.787 -15.207,15.752 -15.207,15.752l27.63,-11.016c-8.796,1.142 -12.423,-4.736 -12.423,-4.736" style="fill:#c7c9cc;fill-rule:nonzero;"/><path d="M407.306,188.55c-1.345,-0.267 -2.65,0.61 -2.917,1.953c-0.266,1.344 0.607,2.651 1.951,2.918c1.341,0.265 2.646,-0.609 2.913,-1.953c0.266,-1.344 -0.606,-2.652 -1.947,-2.918" style="fill:#6e6658;fill-rule:nonzero;"/><path d="M406.91,192.895c-1.343,-0.266 -2.217,-1.575 -1.951,-2.916c0.08,-0.401 0.255,-0.757 0.492,-1.061c-0.527,0.352 -0.927,0.908 -1.062,1.586c-0.266,1.344 0.606,2.649 1.951,2.916c0.94,0.187 1.86,-0.189 2.42,-0.889c-0.526,0.346 -1.184,0.496 -1.85,0.364" style="fill:#8b8d8f;fill-rule:nonzero;"/><path d="M409.242,178.786c-1.344,-0.267 -2.649,0.608 -2.916,1.952c-0.267,1.343 0.606,2.65 1.951,2.917c1.34,0.265 2.646,-0.609 2.912,-1.952c0.267,-1.345 -0.606,-2.65 -1.947,-2.917" style="fill:#6e6658;fill-rule:nonzero;"/><path d="M408.847,183.129c-1.343,-0.266 -2.218,-1.57 -1.952,-2.914c0.081,-0.404 0.256,-0.762 0.493,-1.065c-0.527,0.355 -0.928,0.911 -1.062,1.588c-0.266,1.343 0.606,2.649 1.951,2.916c0.94,0.187 1.86,-0.189 2.42,-0.89c-0.526,0.347 -1.183,0.497 -1.85,0.365" style="fill:#8b8d8f;fill-rule:nonzero;"/><path d="M411.179,169.02c-1.345,-0.267 -2.65,0.61 -2.916,1.952c-0.267,1.344 0.606,2.651 1.951,2.917c1.34,0.266 2.645,-0.608 2.912,-1.954c0.266,-1.341 -0.606,-2.649 -1.947,-2.915" style="fill:#6e6658;fill-rule:nonzero;"/><path d="M410.784,173.362c-1.343,-0.266 -2.218,-1.57 -1.952,-2.913c0.081,-0.403 0.256,-0.761 0.492,-1.063c-0.526,0.353 -0.927,0.911 -1.061,1.585c-0.267,1.346 0.606,2.652 1.951,2.918c0.939,0.187 1.859,-0.189 2.419,-0.89c-0.526,0.347 -1.182,0.495 -1.849,0.363" style="fill:#8b8d8f;fill-rule:nonzero;"/><path d="M413.116,159.255c-1.345,-0.267 -2.65,0.608 -2.916,1.951c-0.267,1.345 0.606,2.65 1.95,2.917c1.341,0.266 2.646,-0.608 2.913,-1.953c0.266,-1.343 -0.606,-2.649 -1.947,-2.915" style="fill:#6e6658;fill-rule:nonzero;"/><path d="M412.72,163.597c-1.343,-0.266 -2.217,-1.57 -1.951,-2.913c0.08,-0.403 0.255,-0.76 0.492,-1.063c-0.527,0.353 -0.928,0.91 -1.061,1.585c-0.267,1.344 0.606,2.65 1.95,2.917c0.94,0.187 1.86,-0.189 2.42,-0.89c-0.526,0.345 -1.183,0.496 -1.85,0.364" style="fill:#8b8d8f;fill-rule:nonzero;"/><path d="M415.052,149.49c-1.344,-0.267 -2.65,0.607 -2.916,1.951c-0.266,1.342 0.606,2.649 1.951,2.915c1.341,0.267 2.646,-0.609 2.912,-1.951c0.267,-1.343 -0.606,-2.649 -1.947,-2.915" style="fill:#6e6658;fill-rule:nonzero;"/><path d="M414.657,153.831c-1.343,-0.266 -2.218,-1.571 -1.952,-2.912c0.08,-0.404 0.256,-0.762 0.492,-1.064c-0.527,0.354 -0.927,0.91 -1.062,1.586c-0.265,1.342 0.607,2.65 1.952,2.916c0.94,0.187 1.86,-0.189 2.419,-0.89c-0.525,0.347 -1.182,0.496 -1.849,0.364" style="fill:#8b8d8f;fill-rule:nonzero;"/><path d="M416.989,139.724c-1.344,-0.267 -2.65,0.609 -2.917,1.953c-0.266,1.342 0.607,2.647 1.952,2.914c1.341,0.266 2.646,-0.607 2.912,-1.95c0.266,-1.344 -0.606,-2.651 -1.947,-2.917" style="fill:#6e6658;fill-rule:nonzero;"/><path d="M416.593,144.068c-1.343,-0.266 -2.217,-1.574 -1.951,-2.916c0.08,-0.401 0.255,-0.759 0.492,-1.062c-0.526,0.353 -0.927,0.91 -1.062,1.587c-0.266,1.342 0.607,2.648 1.952,2.914c0.94,0.187 1.859,-0.188 2.419,-0.89c-0.526,0.349 -1.183,0.499 -1.85,0.367" style="fill:#8b8d8f;fill-rule:nonzero;"/><path d="M418.925,129.96c-1.345,-0.267 -2.65,0.607 -2.916,1.95c-0.266,1.344 0.606,2.651 1.951,2.918c1.34,0.266 2.646,-0.61 2.913,-1.954c0.266,-1.343 -0.607,-2.648 -1.948,-2.914" style="fill:#6e6658;fill-rule:nonzero;"/><path d="M418.53,134.3c-1.343,-0.266 -2.217,-1.57 -1.951,-2.913c0.079,-0.401 0.256,-0.762 0.492,-1.061c-0.527,0.351 -0.928,0.909 -1.062,1.584c-0.266,1.344 0.607,2.652 1.951,2.918c0.939,0.187 1.86,-0.189 2.42,-0.892c-0.527,0.347 -1.183,0.496 -1.85,0.364" style="fill:#8b8d8f;fill-rule:nonzero;"/><path d="M420.862,120.192c-1.345,-0.267 -2.65,0.608 -2.917,1.953c-0.266,1.343 0.607,2.649 1.952,2.916c1.341,0.266 2.646,-0.609 2.912,-1.951c0.267,-1.346 -0.606,-2.651 -1.947,-2.918" style="fill:#6e6658;fill-rule:nonzero;"/><path d="M420.467,124.536c-1.344,-0.267 -2.217,-1.572 -1.951,-2.915c0.079,-0.403 0.255,-0.759 0.492,-1.063c-0.527,0.352 -0.928,0.911 -1.062,1.588c-0.266,1.342 0.607,2.648 1.951,2.915c0.939,0.186 1.86,-0.189 2.419,-0.89c-0.526,0.348 -1.183,0.497 -1.849,0.365" style="fill:#8b8d8f;fill-rule:nonzero;"/><path d="M422.799,110.428c-1.345,-0.267 -2.65,0.607 -2.916,1.95c-0.267,1.344 0.606,2.651 1.95,2.918c1.341,0.265 2.646,-0.61 2.913,-1.953c0.267,-1.343 -0.606,-2.649 -1.947,-2.915" style="fill:#6e6658;fill-rule:nonzero;"/><path d="M422.403,114.77c-1.343,-0.266 -2.218,-1.572 -1.951,-2.913c0.08,-0.404 0.255,-0.761 0.492,-1.064c-0.527,0.354 -0.927,0.909 -1.062,1.586c-0.266,1.343 0.607,2.65 1.951,2.916c0.94,0.187 1.86,-0.189 2.42,-0.891c-0.526,0.348 -1.183,0.498 -1.85,0.366" style="fill:#8b8d8f;fill-rule:nonzero;"/><path d="M424.735,100.662c-1.345,-0.267 -2.65,0.61 -2.916,1.953c-0.267,1.341 0.607,2.647 1.951,2.913c1.341,0.267 2.646,-0.607 2.912,-1.949c0.266,-1.342 -0.606,-2.651 -1.947,-2.917" style="fill:#6e6658;fill-rule:nonzero;"/><path d="M424.34,105.003c-1.343,-0.266 -2.218,-1.569 -1.951,-2.913c0.08,-0.402 0.255,-0.759 0.492,-1.061c-0.527,0.352 -0.928,0.911 -1.062,1.586c-0.267,1.342 0.606,2.647 1.951,2.914c0.94,0.186 1.859,-0.187 2.42,-0.888c-0.527,0.347 -1.183,0.494 -1.85,0.362" style="fill:#8b8d8f;fill-rule:nonzero;"/><path d="M426.672,90.897c-1.345,-0.266 -2.65,0.608 -2.916,1.95c-0.266,1.345 0.606,2.651 1.951,2.918c1.341,0.265 2.646,-0.609 2.913,-1.953c0.265,-1.343 -0.607,-2.648 -1.948,-2.915" style="fill:#6e6658;fill-rule:nonzero;"/><path d="M426.276,95.24c-1.343,-0.266 -2.217,-1.572 -1.951,-2.915c0.08,-0.404 0.256,-0.76 0.493,-1.062c-0.528,0.354 -0.928,0.91 -1.062,1.584c-0.267,1.345 0.606,2.651 1.95,2.918c0.941,0.186 1.86,-0.19 2.421,-0.891c-0.527,0.349 -1.184,0.498 -1.851,0.366" style="fill:#8b8d8f;fill-rule:nonzero;"/><path d="M420.2,93.085c-0.158,-0.032 -0.285,-0.332 -0.215,-0.686c0.07,-0.353 0.303,-0.584 0.46,-0.552l2.252,0.446l0.135,-0.679l-2.252,-0.446c-0.57,-0.113 -1.133,0.367 -1.278,1.096c-0.145,0.73 0.194,1.388 0.763,1.501l2.251,0.446l0.135,-0.68l-2.251,-0.446Z" style="fill:#373737;fill-rule:nonzero;"/><path d="M425.077,92.059l-2.245,-0.445l-0.135,0.679l2.246,0.446c0.162,0.031 0.29,0.334 0.22,0.687c-0.07,0.355 -0.304,0.583 -0.466,0.55l-2.246,-0.445l-0.135,0.68l2.246,0.446c0.574,0.114 1.135,-0.366 1.28,-1.097c0.144,-0.727 -0.191,-1.387 -0.765,-1.501" style="fill:#373737;fill-rule:nonzero;"/><path d="M423.154,101.759l-2.246,-0.446l-0.135,0.681l2.246,0.446c0.162,0.032 0.29,0.334 0.22,0.686c-0.07,0.356 -0.304,0.585 -0.466,0.553l-2.246,-0.446l-0.135,0.68l2.246,0.445c0.574,0.114 1.135,-0.367 1.28,-1.097c0.145,-0.728 -0.191,-1.388 -0.764,-1.502" style="fill:#373737;fill-rule:nonzero;"/><path d="M418.276,102.787c-0.158,-0.031 -0.285,-0.332 -0.215,-0.688c0.07,-0.351 0.303,-0.582 0.461,-0.551l2.251,0.446l0.135,-0.681l-2.251,-0.446c-0.57,-0.113 -1.134,0.368 -1.278,1.097c-0.145,0.73 0.193,1.389 0.763,1.502l2.25,0.447l0.135,-0.68l-2.251,-0.446Z" style="fill:#373737;fill-rule:nonzero;"/><path d="M416.352,112.489c-0.158,-0.032 -0.284,-0.335 -0.215,-0.687c0.071,-0.355 0.303,-0.585 0.461,-0.554l2.251,0.446l0.135,-0.678l-2.251,-0.447c-0.57,-0.113 -1.133,0.368 -1.278,1.097c-0.145,0.73 0.193,1.387 0.763,1.501l2.25,0.446l0.135,-0.677l-2.251,-0.447Z" style="fill:#373737;fill-rule:nonzero;"/><path d="M421.229,111.461l-2.245,-0.445l-0.135,0.679l2.246,0.445c0.161,0.032 0.29,0.334 0.22,0.688c-0.07,0.353 -0.304,0.585 -0.466,0.552l-2.246,-0.444l-0.134,0.677l2.245,0.445c0.575,0.114 1.136,-0.366 1.28,-1.095c0.144,-0.729 -0.19,-1.388 -0.765,-1.502" style="fill:#373737;fill-rule:nonzero;"/><path d="M414.428,122.189c-0.157,-0.032 -0.284,-0.334 -0.214,-0.687c0.069,-0.354 0.303,-0.586 0.46,-0.554l2.252,0.446l0.134,-0.679l-2.251,-0.446c-0.57,-0.113 -1.134,0.368 -1.278,1.097c-0.145,0.728 0.193,1.388 0.763,1.501l2.251,0.446l0.135,-0.678l-2.252,-0.446Z" style="fill:#373737;fill-rule:nonzero;"/><path d="M419.306,121.16l-2.245,-0.445l-0.135,0.679l2.246,0.445c0.161,0.032 0.289,0.335 0.22,0.69c-0.071,0.353 -0.305,0.584 -0.467,0.552l-2.245,-0.445l-0.135,0.677l2.246,0.445c0.574,0.114 1.135,-0.366 1.279,-1.095c0.145,-0.729 -0.19,-1.389 -0.764,-1.503" style="fill:#373737;fill-rule:nonzero;"/><path d="M412.505,131.888c-0.158,-0.031 -0.285,-0.331 -0.215,-0.686c0.07,-0.353 0.303,-0.584 0.46,-0.552l2.252,0.446l0.135,-0.68l-2.252,-0.446c-0.57,-0.113 -1.133,0.369 -1.278,1.097c-0.145,0.73 0.194,1.388 0.763,1.501l2.251,0.447l0.135,-0.681l-2.251,-0.446Z" style="fill:#373737;fill-rule:nonzero;"/><path d="M417.382,130.862l-2.245,-0.446l-0.135,0.68l2.245,0.446c0.162,0.031 0.291,0.333 0.221,0.687c-0.071,0.355 -0.304,0.583 -0.466,0.55l-2.246,-0.444l-0.135,0.679l2.246,0.446c0.574,0.114 1.135,-0.366 1.279,-1.097c0.145,-0.727 -0.19,-1.387 -0.764,-1.501" style="fill:#373737;fill-rule:nonzero;"/><path d="M415.458,140.562l-2.245,-0.445l-0.134,0.678l2.245,0.446c0.162,0.032 0.29,0.334 0.22,0.688c-0.07,0.354 -0.304,0.583 -0.466,0.552l-2.245,-0.446l-0.135,0.679l2.245,0.445c0.575,0.114 1.136,-0.365 1.28,-1.095c0.144,-0.727 -0.191,-1.388 -0.765,-1.502" style="fill:#373737;fill-rule:nonzero;"/><path d="M410.581,141.588c-0.157,-0.03 -0.285,-0.332 -0.214,-0.686c0.069,-0.353 0.302,-0.584 0.46,-0.553l2.251,0.447l0.135,-0.679l-2.252,-0.446c-0.569,-0.114 -1.134,0.369 -1.278,1.096c-0.144,0.731 0.194,1.388 0.764,1.5l2.251,0.447l0.135,-0.679l-2.252,-0.447Z" style="fill:#373737;fill-rule:nonzero;"/><path d="M408.657,151.29c-0.157,-0.032 -0.285,-0.333 -0.214,-0.687c0.069,-0.354 0.302,-0.583 0.459,-0.552l2.252,0.447l0.135,-0.681l-2.251,-0.447c-0.57,-0.113 -1.134,0.37 -1.279,1.098c-0.144,0.729 0.194,1.388 0.764,1.501l2.251,0.446l0.135,-0.678l-2.252,-0.447Z" style="fill:#373737;fill-rule:nonzero;"/><path d="M413.535,150.262l-2.246,-0.446l-0.135,0.682l2.246,0.445c0.162,0.032 0.29,0.334 0.22,0.688c-0.07,0.354 -0.303,0.582 -0.466,0.55l-2.246,-0.445l-0.134,0.679l2.246,0.446c0.573,0.114 1.135,-0.368 1.279,-1.096c0.145,-0.728 -0.19,-1.389 -0.764,-1.503" style="fill:#373737;fill-rule:nonzero;"/><path d="M411.611,159.963l-2.246,-0.445l-0.135,0.68l2.246,0.446c0.162,0.031 0.291,0.332 0.22,0.687c-0.07,0.354 -0.303,0.584 -0.466,0.552l-2.245,-0.446l-0.135,0.68l2.246,0.445c0.573,0.113 1.135,-0.367 1.279,-1.097c0.145,-0.729 -0.19,-1.388 -0.764,-1.502" style="fill:#373737;fill-rule:nonzero;"/><path d="M406.733,160.991c-0.157,-0.031 -0.285,-0.332 -0.214,-0.687c0.07,-0.355 0.302,-0.583 0.46,-0.553l2.251,0.447l0.135,-0.68l-2.251,-0.446c-0.57,-0.113 -1.134,0.367 -1.278,1.096c-0.144,0.73 0.193,1.389 0.763,1.502l2.251,0.446l0.135,-0.679l-2.252,-0.446Z" style="fill:#373737;fill-rule:nonzero;"/><path d="M404.81,170.692c-0.158,-0.032 -0.285,-0.333 -0.215,-0.688c0.07,-0.353 0.303,-0.582 0.461,-0.551l2.251,0.447l0.135,-0.681l-2.251,-0.447c-0.57,-0.113 -1.134,0.369 -1.278,1.097c-0.146,0.73 0.193,1.388 0.763,1.501l2.25,0.447l0.135,-0.679l-2.251,-0.446Z" style="fill:#373737;fill-rule:nonzero;"/><path d="M409.687,169.664l-2.245,-0.446l-0.135,0.681l2.245,0.446c0.162,0.031 0.291,0.332 0.221,0.686c-0.071,0.355 -0.305,0.584 -0.467,0.552l-2.245,-0.445l-0.135,0.678l2.246,0.446c0.574,0.114 1.135,-0.366 1.28,-1.097c0.144,-0.727 -0.191,-1.387 -0.765,-1.501" style="fill:#373737;fill-rule:nonzero;"/><path d="M407.763,179.364l-2.245,-0.445l-0.135,0.681l2.245,0.445c0.162,0.033 0.291,0.333 0.221,0.687c-0.071,0.357 -0.305,0.585 -0.467,0.552l-2.245,-0.444l-0.134,0.677l2.245,0.445c0.574,0.114 1.135,-0.365 1.28,-1.095c0.144,-0.728 -0.191,-1.389 -0.765,-1.503" style="fill:#373737;fill-rule:nonzero;"/><path d="M402.886,180.393c-0.158,-0.032 -0.286,-0.331 -0.215,-0.688c0.07,-0.353 0.303,-0.583 0.461,-0.552l2.251,0.447l0.135,-0.681l-2.251,-0.446c-0.57,-0.113 -1.134,0.369 -1.279,1.097c-0.145,0.731 0.194,1.388 0.763,1.501l2.251,0.446l0.135,-0.678l-2.251,-0.446Z" style="fill:#373737;fill-rule:nonzero;"/><path d="M405.84,189.065l-2.246,-0.445l-0.135,0.681l2.246,0.445c0.162,0.033 0.291,0.333 0.22,0.687c-0.07,0.354 -0.304,0.584 -0.466,0.552l-2.246,-0.446l-0.134,0.679l2.245,0.445c0.574,0.114 1.135,-0.365 1.28,-1.096c0.145,-0.728 -0.191,-1.388 -0.764,-1.502" style="fill:#373737;fill-rule:nonzero;"/><path d="M400.962,190.093c-0.157,-0.032 -0.285,-0.332 -0.214,-0.687c0.07,-0.354 0.302,-0.583 0.46,-0.551l2.251,0.446l0.135,-0.68l-2.251,-0.447c-0.57,-0.114 -1.134,0.368 -1.278,1.096c-0.145,0.732 0.193,1.389 0.762,1.502l2.252,0.446l0.134,-0.679l-2.251,-0.446Z" style="fill:#373737;fill-rule:nonzero;"/><path d="M428.776,100.433l-0.04,0.201l76.679,15.207l0.04,-0.201l-76.679,-15.207Z" style="fill:#5b543f;fill-rule:nonzero;"/><path d="M427.854,105.082l-0.04,0.2l76.68,15.206l0.039,-0.199l-76.679,-15.207Z" style="fill:#5b543f;fill-rule:nonzero;"/><path d="M426.933,109.728l-0.04,0.2l76.679,15.206l0.039,-0.199l-76.678,-15.207Z" style="fill:#5b543f;fill-rule:nonzero;"/><path d="M426.011,114.376l-0.039,0.198l76.679,15.206l0.039,-0.198l-76.679,-15.206Z" style="fill:#5b543f;fill-rule:nonzero;"/><path d="M425.09,119.023l-0.04,0.202l76.678,15.206l0.04,-0.202l-76.678,-15.206Z" style="fill:#5b543f;fill-rule:nonzero;"/><path d="M424.168,123.668l-0.04,0.203l76.678,15.207l0.041,-0.203l-76.679,-15.207Z" style="fill:#5b543f;fill-rule:nonzero;"/><path d="M423.247,128.317l-0.04,0.201l76.678,15.207l0.041,-0.201l-76.679,-15.207Z" style="fill:#5b543f;fill-rule:nonzero;"/><path d="M422.325,132.962l-0.04,0.203l76.679,15.206l0.04,-0.202l-76.679,-15.207Z" style="fill:#5b543f;fill-rule:nonzero;"/><path d="M421.403,137.612l-0.039,0.197l76.679,15.206l0.039,-0.197l-76.679,-15.206Z" style="fill:#5b543f;fill-rule:nonzero;"/><path d="M420.482,142.259l-0.04,0.201l76.679,15.206l0.039,-0.201l-76.678,-15.206Z" style="fill:#5b543f;fill-rule:nonzero;"/><path d="M419.56,146.903l-0.039,0.201l76.678,15.206l0.04,-0.2l-76.679,-15.207Z" style="fill:#5b543f;fill-rule:nonzero;"/><path d="M418.638,151.554l-0.039,0.198l76.678,15.206l0.04,-0.197l-76.679,-15.207Z" style="fill:#5b543f;fill-rule:nonzero;"/><path d="M417.717,156.2l-0.04,0.2l76.679,15.206l0.039,-0.199l-76.678,-15.207Z" style="fill:#5b543f;fill-rule:nonzero;"/><path d="M416.796,160.844l-0.04,0.203l76.679,15.206l0.04,-0.202l-76.679,-15.207Z" style="fill:#5b543f;fill-rule:nonzero;"/><path d="M415.874,165.492l-0.04,0.202l76.679,15.206l0.04,-0.202l-76.679,-15.206Z" style="fill:#5b543f;fill-rule:nonzero;"/><path d="M414.952,170.14l-0.039,0.198l76.679,15.206l0.04,-0.197l-76.68,-15.207Z" style="fill:#5b543f;fill-rule:nonzero;"/><path d="M414.031,174.788l-0.039,0.199l76.678,15.206l0.039,-0.198l-76.678,-15.207Z" style="fill:#5b543f;fill-rule:nonzero;"/><path d="M413.11,179.432l-0.04,0.202l76.678,15.206l0.04,-0.201l-76.678,-15.207Z" style="fill:#5b543f;fill-rule:nonzero;"/><path d="M412.188,184.082l-0.04,0.2l76.678,15.206l0.04,-0.2l-76.678,-15.206Z" style="fill:#5b543f;fill-rule:nonzero;"/><path d="M411.266,188.73l-0.04,0.2l76.679,15.206l0.039,-0.199l-76.678,-15.207Z" style="fill:#5b543f;fill-rule:nonzero;"/><path d="M410.345,193.375l-0.04,0.2l61.963,12.288l0.04,-0.2l-61.963,-12.288Z" style="fill:#5b543f;fill-rule:nonzero;"/><path d="M414.431,512.487c-1.441,0.107 -2.78,0.758 -3.769,1.832l-6.34,6.88c-0.207,0.224 -0.197,0.563 0.022,0.756c0.218,0.194 0.564,0.169 0.77,-0.057l6.34,-6.879c0.79,-0.858 1.858,-1.378 3.008,-1.462c1.149,-0.085 2.242,0.275 3.077,1.012c0.835,0.738 1.313,1.765 1.345,2.893c0.031,1.129 -0.386,2.221 -1.175,3.079l-10.612,11.516c-1.226,1.33 -3.281,1.483 -4.58,0.337c-1.297,-1.147 -1.354,-3.163 -0.127,-4.495l9.375,-10.174c0.391,-0.424 0.922,-0.682 1.492,-0.724c0.57,-0.042 1.113,0.136 1.527,0.503c0.414,0.365 0.651,0.875 0.667,1.435c0.016,0.559 -0.191,1.101 -0.583,1.527l-8.833,9.586c-0.207,0.224 -0.197,0.563 0.022,0.756c0.218,0.193 0.563,0.167 0.771,-0.057l8.832,-9.586c0.592,-0.642 0.905,-1.461 0.881,-2.307c-0.023,-0.845 -0.382,-1.615 -1.007,-2.168c-0.627,-0.553 -1.446,-0.823 -2.307,-0.759c-0.862,0.064 -1.662,0.452 -2.255,1.094l-9.374,10.175c-1.64,1.779 -1.565,4.474 0.169,6.007c1.502,1.325 3.759,1.352 5.402,0.183c0.257,-0.182 0.499,-0.393 0.72,-0.634l10.612,-11.516c0.99,-1.074 1.512,-2.445 1.473,-3.858c-0.04,-1.414 -0.639,-2.701 -1.686,-3.626c-1.047,-0.925 -2.416,-1.375 -3.857,-1.269" style="fill:#ad3d2b;fill-rule:nonzero;"/><path d="M422.101,534.144c-0.772,1.222 -1.045,2.685 -0.77,4.12l1.758,9.188c0.058,0.3 0.335,0.494 0.62,0.433c0.286,-0.061 0.473,-0.353 0.414,-0.653l-1.758,-9.189c-0.22,-1.145 -0.002,-2.313 0.614,-3.287c0.615,-0.974 1.554,-1.639 2.644,-1.871c1.09,-0.233 2.199,-0.005 3.126,0.64c0.925,0.645 1.555,1.631 1.775,2.776l2.944,15.38c0.339,1.778 -0.761,3.52 -2.454,3.882c-1.694,0.361 -3.348,-0.792 -3.689,-2.571l-2.601,-13.588c-0.108,-0.568 0,-1.147 0.306,-1.631c0.305,-0.483 0.772,-0.813 1.313,-0.929c0.54,-0.115 1.091,-0.002 1.551,0.318c0.458,0.32 0.771,0.809 0.879,1.378l2.451,12.802c0.057,0.3 0.335,0.494 0.621,0.433c0.285,-0.061 0.469,-0.354 0.412,-0.654l-2.45,-12.802c-0.164,-0.858 -0.636,-1.597 -1.33,-2.081c-0.694,-0.484 -1.525,-0.654 -2.342,-0.479c-0.817,0.174 -1.521,0.672 -1.982,1.402c-0.462,0.73 -0.626,1.605 -0.462,2.463l2.601,13.588c0.454,2.377 2.666,3.92 4.929,3.437c1.958,-0.418 3.323,-2.216 3.361,-4.232c0.006,-0.315 -0.02,-0.635 -0.082,-0.956l-2.943,-15.38c-0.274,-1.436 -1.065,-2.671 -2.225,-3.48c-1.16,-0.809 -2.551,-1.093 -3.916,-0.802c-1.367,0.292 -2.544,1.124 -3.315,2.345" style="fill:#6fb6af;fill-rule:nonzero;"/><path d="M424.504,498.068c-0.051,1.444 0.45,2.846 1.41,3.947l6.147,7.052c0.201,0.23 0.538,0.257 0.754,0.061c0.216,-0.196 0.23,-0.543 0.028,-0.772l-6.147,-7.052c-0.767,-0.879 -1.167,-1.998 -1.126,-3.15c0.041,-1.151 0.518,-2.198 1.343,-2.948c0.824,-0.75 1.897,-1.112 3.021,-1.021c1.125,0.091 2.166,0.625 2.933,1.504l10.289,11.804c1.19,1.364 1.117,3.423 -0.164,4.59c-1.281,1.164 -3.292,1.001 -4.482,-0.365l-9.09,-10.428c-0.38,-0.436 -0.578,-0.991 -0.557,-1.562c0.02,-0.572 0.257,-1.092 0.666,-1.464c0.408,-0.372 0.941,-0.551 1.499,-0.506c0.558,0.045 1.074,0.31 1.454,0.747l8.566,9.825c0.2,0.23 0.538,0.257 0.754,0.061c0.216,-0.196 0.228,-0.542 0.027,-0.772l-8.565,-9.825c-0.574,-0.66 -1.354,-1.06 -2.197,-1.128c-0.843,-0.069 -1.648,0.203 -2.265,0.765c-0.618,0.561 -0.975,1.347 -1.006,2.21c-0.031,0.863 0.268,1.702 0.842,2.36l9.091,10.428c1.589,1.825 4.277,2.044 5.99,0.487c1.48,-1.348 1.754,-3.588 0.771,-5.349c-0.153,-0.275 -0.337,-0.539 -0.552,-0.785l-10.29,-11.805c-0.96,-1.101 -2.265,-1.77 -3.675,-1.884c-1.409,-0.115 -2.754,0.34 -3.787,1.28c-1.034,0.94 -1.631,2.251 -1.682,3.695" style="fill:#e4a552;fill-rule:nonzero;"/><path d="M368.616,516.227c1.06,0.983 2.449,1.519 3.91,1.511l9.354,-0.047c0.306,-0.001 0.547,-0.239 0.54,-0.531c-0.009,-0.291 -0.262,-0.528 -0.567,-0.525l-9.355,0.046c-1.166,0.007 -2.275,-0.421 -3.12,-1.205c-0.845,-0.783 -1.326,-1.828 -1.355,-2.942c-0.03,-1.114 0.397,-2.163 1.2,-2.955c0.805,-0.792 1.889,-1.232 3.055,-1.238l15.659,-0.079c1.809,-0.009 3.321,1.392 3.368,3.123c0.044,1.731 -1.393,3.147 -3.204,3.156l-13.834,0.069c-0.578,0.003 -1.128,-0.21 -1.547,-0.598c-0.42,-0.389 -0.659,-0.908 -0.673,-1.461c-0.015,-0.552 0.197,-1.073 0.596,-1.466c0.399,-0.393 0.936,-0.61 1.515,-0.613l13.035,-0.067c0.306,-0.001 0.546,-0.238 0.539,-0.53c-0.008,-0.292 -0.261,-0.527 -0.567,-0.526l-13.034,0.066c-0.873,0.005 -1.687,0.333 -2.289,0.927c-0.603,0.593 -0.923,1.38 -0.9,2.215c0.021,0.835 0.381,1.618 1.015,2.205c0.634,0.588 1.463,0.909 2.337,0.904l13.835,-0.069c2.42,-0.012 4.341,-1.904 4.281,-4.218c-0.053,-2.001 -1.571,-3.672 -3.546,-4.078c-0.308,-0.064 -0.628,-0.097 -0.955,-0.095l-15.659,0.079c-1.461,0.007 -2.82,0.558 -3.828,1.55c-1.008,0.993 -1.542,2.308 -1.505,3.705c0.037,1.396 0.64,2.706 1.699,3.687" style="fill:#4674b7;fill-rule:nonzero;"/><path d="M465.779,258.684c-0.053,-0.087 -0.026,-0.201 0.061,-0.254c0.087,-0.053 0.201,-0.025 0.254,0.06c0.053,0.089 0.027,0.201 -0.06,0.257c-0.087,0.052 -0.201,0.024 -0.255,-0.063" style="fill:#b2b2b2;fill-rule:nonzero;"/><path d="M464.617,260.441l-0.928,-1.509l-7.547,2.645l2.712,4.406l5.763,-5.542Z" style="fill:#7f8082;fill-rule:nonzero;"/><path d="M464.41,260.107l-0.078,-0.129l-6.411,4.491l0.638,1.038l5.851,-5.4Z" style="fill:#f1f1f1;fill-rule:nonzero;"/><path d="M464.325,259.97l-0.334,-0.546l-6.963,3.59l0.894,1.456l6.403,-4.5Z" style="fill:#7f7f7f;fill-rule:nonzero;"/><path d="M464.217,259.792l-0.192,-0.312l-6.939,3.63l0.5,0.813l6.631,-4.131Z" style="fill:#7f7f7f;fill-rule:nonzero;"/><path d="M464.108,259.615l-0.047,-0.08l-6.915,3.672l0.105,0.17l6.857,-3.762Z" style="fill:#7f7f7f;fill-rule:nonzero;"/><g><g opacity="0.399994"><path d="M463.757,259.043l0.233,0.381l-6.962,3.59l-0.695,-1.124l7.424,-2.847Z" style="fill:#f1f1f1;fill-rule:nonzero;"/><path d="M463.76,259.048l0.23,0.375l-6.964,3.588l-0.684,-1.109l7.418,-2.854Z" style="fill:#f0f0f0;fill-rule:nonzero;"/><path d="M463.763,259.053l0.226,0.369l-6.964,3.587l-0.676,-1.095l7.414,-2.861Z" style="fill:#efefef;fill-rule:nonzero;"/><path d="M463.766,259.058l0.222,0.363l-6.965,3.585l-0.667,-1.08l7.41,-2.868Z" style="fill:#eee;fill-rule:nonzero;"/><path d="M463.769,259.062l0.219,0.358l-6.966,3.584l-0.657,-1.065l7.404,-2.877Z" style="fill:#ededed;fill-rule:nonzero;"/><path d="M463.772,259.067l0.216,0.352l-6.968,3.583l-0.648,-1.05l7.4,-2.885Z" style="fill:#ececec;fill-rule:nonzero;"/><path d="M463.774,259.072l0.213,0.346l-6.969,3.582l-0.639,-1.036l7.395,-2.892Z" style="fill:#ebebeb;fill-rule:nonzero;"/><path d="M463.777,259.077l0.209,0.34l-6.968,3.58l-0.63,-1.021l7.389,-2.899Z" style="fill:#eaeaea;fill-rule:nonzero;"/><path d="M463.78,259.081l0.206,0.335l-6.97,3.579l-0.621,-1.006l7.385,-2.908Z" style="fill:#e9e9e9;fill-rule:nonzero;"/><path d="M463.783,259.086l0.202,0.329l-6.971,3.577l-0.612,-0.991l7.381,-2.915Z" style="fill:#e8e8e8;fill-rule:nonzero;"/><path d="M463.786,259.091l0.198,0.323l-6.971,3.576l-0.603,-0.976l7.376,-2.923Z" style="fill:#e7e7e7;fill-rule:nonzero;"/><path d="M463.789,259.096l0.194,0.317l-6.972,3.574l-0.593,-0.961l7.371,-2.93Z" style="fill:#e6e6e6;fill-rule:nonzero;"/><path d="M463.792,259.1l0.191,0.312l-6.973,3.573l-0.585,-0.946l7.367,-2.939Z" style="fill:#e5e5e5;fill-rule:nonzero;"/><path d="M463.795,259.105l0.187,0.306l-6.974,3.572l-0.575,-0.932l7.362,-2.946Z" style="fill:#e4e4e4;fill-rule:nonzero;"/><path d="M463.798,259.11l0.184,0.3l-6.975,3.57l-0.566,-0.917l7.357,-2.953Z" style="fill:#e3e3e3;fill-rule:nonzero;"/><path d="M463.801,259.115l0.18,0.294l-6.975,3.569l-0.558,-0.902l7.353,-2.961Z" style="fill:#e2e2e2;fill-rule:nonzero;"/><path d="M463.804,259.119l0.177,0.289l-6.977,3.567l-0.548,-0.887l7.348,-2.969Z" style="fill:#e1e1e1;fill-rule:nonzero;"/><path d="M463.807,259.124l0.173,0.283l-6.977,3.566l-0.539,-0.872l7.343,-2.977Z" style="fill:#e0e0e0;fill-rule:nonzero;"/><path d="M463.81,259.129l0.169,0.277l-6.978,3.564l-0.529,-0.857l7.338,-2.984Z" style="fill:#dfdfdf;fill-rule:nonzero;"/><path d="M463.812,259.134l0.167,0.271l-6.98,3.563l-0.52,-0.843l7.333,-2.991Z" style="fill:#dedede;fill-rule:nonzero;"/><path d="M463.815,259.138l0.163,0.266l-6.98,3.562l-0.511,-0.828l7.328,-3Z" style="fill:#ddd;fill-rule:nonzero;"/><path d="M463.818,259.143l0.159,0.26l-6.981,3.561l-0.502,-0.813l7.324,-3.008Z" style="fill:#dcdcdc;fill-rule:nonzero;"/><path d="M463.821,259.148l0.155,0.254l-6.981,3.559l-0.493,-0.798l7.319,-3.015Z" style="fill:#dbdbdb;fill-rule:nonzero;"/><path d="M463.824,259.153l0.152,0.248l-6.982,3.558l-0.484,-0.784l7.314,-3.022Z" style="fill:#dadada;fill-rule:nonzero;"/><path d="M463.827,259.157l0.149,0.243l-6.984,3.556l-0.474,-0.769l7.309,-3.03Z" style="fill:#d9d9d9;fill-rule:nonzero;"/><path d="M463.83,259.162l0.145,0.236l-6.984,3.555l-0.466,-0.753l7.305,-3.038Z" style="fill:#d8d8d8;fill-rule:nonzero;"/><path d="M463.833,259.167l0.141,0.231l-6.985,3.553l-0.456,-0.738l7.3,-3.046Z" style="fill:#d7d7d7;fill-rule:nonzero;"/><path d="M463.836,259.172l0.138,0.225l-6.986,3.552l-0.447,-0.724l7.295,-3.053Z" style="fill:#d6d6d6;fill-rule:nonzero;"/><path d="M463.839,259.176l0.134,0.219l-6.987,3.552l-0.438,-0.71l7.291,-3.061Z" style="fill:#d5d5d5;fill-rule:nonzero;"/><path d="M463.842,259.181l0.13,0.214l-6.988,3.549l-0.429,-0.694l7.287,-3.069Z" style="fill:#d4d4d4;fill-rule:nonzero;"/><path d="M463.845,259.186l0.127,0.208l-6.988,3.548l-0.42,-0.68l7.281,-3.076Z" style="fill:#d3d3d3;fill-rule:nonzero;"/><path d="M463.847,259.191l0.124,0.201l-6.989,3.547l-0.411,-0.664l7.276,-3.084Z" style="fill:#d2d2d2;fill-rule:nonzero;"/><path d="M463.85,259.195l0.12,0.197l-6.99,3.545l-0.402,-0.65l7.272,-3.092Z" style="fill:#d2d2d2;fill-rule:nonzero;"/><path d="M463.853,259.2l0.117,0.191l-6.991,3.543l-0.392,-0.634l7.266,-3.1Z" style="fill:#d1d1d1;fill-rule:nonzero;"/><path d="M463.856,259.205l0.113,0.184l-6.992,3.543l-0.383,-0.62l7.262,-3.107Z" style="fill:#d0d0d0;fill-rule:nonzero;"/><path d="M463.859,259.21l0.11,0.179l-6.993,3.541l-0.375,-0.606l7.258,-3.114Z" style="fill:#cfcfcf;fill-rule:nonzero;"/><path d="M463.862,259.214l0.106,0.174l-6.994,3.54l-0.364,-0.591l7.252,-3.123Z" style="fill:#cecece;fill-rule:nonzero;"/><path d="M463.865,259.219l0.102,0.167l-6.994,3.539l-0.356,-0.576l7.248,-3.13Z" style="fill:#cdcdcd;fill-rule:nonzero;"/><path d="M463.868,259.224l0.099,0.162l-6.995,3.536l-0.348,-0.56l7.244,-3.138Z" style="fill:#ccc;fill-rule:nonzero;"/><path d="M463.871,259.229l0.095,0.156l-6.996,3.535l-0.337,-0.546l7.238,-3.145Z" style="fill:#cbcbcb;fill-rule:nonzero;"/><path d="M463.874,259.233l0.091,0.15l-6.997,3.534l-0.328,-0.531l7.234,-3.153Z" style="fill:#cacaca;fill-rule:nonzero;"/><path d="M463.877,259.238l0.088,0.144l-6.998,3.533l-0.32,-0.516l7.23,-3.161Z" style="fill:#c9c9c9;fill-rule:nonzero;"/><path d="M463.88,259.243l0.084,0.139l-6.999,3.531l-0.309,-0.501l7.224,-3.169Z" style="fill:#c8c8c8;fill-rule:nonzero;"/><path d="M463.882,259.248l0.081,0.132l-6.999,3.531l-0.301,-0.487l7.219,-3.176Z" style="fill:#c7c7c7;fill-rule:nonzero;"/><path d="M463.885,259.252l0.078,0.127l-7.001,3.529l-0.292,-0.472l7.215,-3.184Z" style="fill:#c6c6c6;fill-rule:nonzero;"/><path d="M463.888,259.257l0.075,0.122l-7.002,3.527l-0.282,-0.458l7.209,-3.191Z" style="fill:#c5c5c5;fill-rule:nonzero;"/><path d="M463.891,259.262l0.071,0.115l-7.002,3.526l-0.274,-0.442l7.205,-3.199Z" style="fill:#c4c4c4;fill-rule:nonzero;"/><path d="M463.894,259.267l0.067,0.109l-7.003,3.525l-0.265,-0.427l7.201,-3.207Z" style="fill:#c3c3c3;fill-rule:nonzero;"/><path d="M463.897,259.271l0.063,0.105l-7.003,3.522l-0.255,-0.412l7.195,-3.215Z" style="fill:#c2c2c2;fill-rule:nonzero;"/><path d="M463.9,259.276l0.06,0.098l-7.005,3.522l-0.246,-0.398l7.191,-3.222Z" style="fill:#c1c1c1;fill-rule:nonzero;"/><path d="M463.903,259.281l0.056,0.092l-7.006,3.521l-0.237,-0.384l7.187,-3.229Z" style="fill:#c0c0c0;fill-rule:nonzero;"/><path d="M463.906,259.286l0.052,0.087l-7.006,3.518l-0.228,-0.368l7.182,-3.237Z" style="fill:#bfbfbf;fill-rule:nonzero;"/><path d="M463.909,259.29l0.049,0.081l-7.008,3.518l-0.218,-0.353l7.177,-3.246Z" style="fill:#bebebe;fill-rule:nonzero;"/><path d="M463.912,259.295l0.045,0.075l-7.008,3.516l-0.21,-0.338l7.173,-3.253Z" style="fill:#bdbdbd;fill-rule:nonzero;"/><path d="M463.915,259.3l0.042,0.069l-7.009,3.515l-0.201,-0.324l7.168,-3.26Z" style="fill:#bcbcbc;fill-rule:nonzero;"/><path d="M463.918,259.305l0.038,0.063l-7.01,3.513l-0.191,-0.308l7.163,-3.268Z" style="fill:#bbb;fill-rule:nonzero;"/><path d="M463.92,259.309l0.036,0.058l-7.011,3.512l-0.183,-0.294l7.158,-3.276Z" style="fill:#bababa;fill-rule:nonzero;"/><path d="M463.923,259.314l0.032,0.052l-7.012,3.511l-0.173,-0.279l7.153,-3.284Z" style="fill:#b9b9b9;fill-rule:nonzero;"/><path d="M463.926,259.319l0.028,0.046l-7.012,3.51l-0.164,-0.265l7.148,-3.291Z" style="fill:#b8b8b8;fill-rule:nonzero;"/><path d="M463.929,259.324l0.024,0.04l-7.013,3.508l-0.155,-0.249l7.144,-3.299Z" style="fill:#b7b7b7;fill-rule:nonzero;"/><path d="M463.932,259.328l0.021,0.035l-7.015,3.507l-0.145,-0.235l7.139,-3.307Z" style="fill:#b6b6b6;fill-rule:nonzero;"/><path d="M463.935,259.333l0.017,0.029l-7.014,3.505l-0.137,-0.22l7.134,-3.314Z" style="fill:#b5b5b5;fill-rule:nonzero;"/><path d="M463.938,259.338l0.013,0.023l-7.015,3.504l-0.128,-0.205l7.13,-3.322Z" style="fill:#b4b4b4;fill-rule:nonzero;"/><path d="M463.941,259.343l0.01,0.017l-7.017,3.502l-0.118,-0.189l7.125,-3.33Z" style="fill:#b3b3b3;fill-rule:nonzero;"/><path d="M463.944,259.347l0.007,0.012l-7.018,3.501l-0.109,-0.175l7.12,-3.338Z" style="fill:#b2b2b2;fill-rule:nonzero;"/></g></g><path d="M410.367,296.647c4.767,-2.932 29.028,-17.86 34.875,-21.456c5.847,-3.599 13.932,-8.688 13.611,-9.208c-0.096,-0.155 -1.355,-2.203 -1.355,-2.203c0,0 -1.259,-2.048 -1.356,-2.203c-0.319,-0.521 -8.508,4.403 -14.354,8c-5.848,3.599 -30.11,18.524 -34.873,21.455c-3.334,2.052 -5.243,4.515 -4.09,6.387c1.149,1.871 4.211,1.279 7.542,-0.772" style="fill:#73caca;fill-rule:nonzero;"/><path d="M408.6,292.231c0.981,-1.473 4.217,-3.463 10.905,-7.579c0.858,-1.632 -0.071,-1.286 -0.071,-1.286l-10.345,6.074l-1.698,2.125l1.209,0.666Z" style="fill:#363636;fill-rule:nonzero;"/><path d="M418.971,283.615c2.313,-1.424 4.629,-2.848 6.944,-4.273c0.973,1.976 2.129,3.855 3.454,5.614c-2.314,1.423 -4.629,2.847 -6.944,4.271c-1.325,-1.758 -2.48,-3.639 -3.454,-5.612" style="fill:#363636;fill-rule:nonzero;"/><path d="M418.987,283.642c-0.025,0.015 -0.051,0.031 -0.076,0.047c0.968,1.966 2.121,3.835 3.44,5.586c0.024,-0.016 0.05,-0.032 0.077,-0.048c-1.32,-1.751 -2.472,-3.621 -3.441,-5.585" style="fill:#424243;fill-rule:nonzero;"/><clipPath id="_clip1"><path d="M424.736,280.067c0.972,1.976 2.129,3.856 3.455,5.614c0.049,-0.031 0.1,-0.061 0.15,-0.093c-1.326,-1.757 -2.482,-3.638 -3.453,-5.614c-0.051,0.03 -0.102,0.062 -0.152,0.093Z"/></clipPath><g clip-path="url(#_clip1)"><path d="M424.887,279.973l3.455,5.615l-0.328,0.202l-3.455,-5.615l0.328,-0.202Z" style="fill:url(#_Linear2);fill-rule:nonzero;"/></g><clipPath id="_clip3"><path d="M419.071,284.009c0.028,0.064 0.137,0.269 0.202,0.398c0.069,0.13 0.156,0.292 0.232,0.245c0.077,-0.047 1.273,-0.695 1.838,-1.043l-0.981,-0.589c0,0 -1.32,0.928 -1.291,0.989Z"/></clipPath><g clip-path="url(#_clip3)"><path d="M420.811,282.744l0.533,0.865l-1.876,1.154l-0.532,-0.865l1.875,-1.154Z" style="fill:url(#_Linear4);fill-rule:nonzero;"/></g><path d="M419.461,283.768c0.672,0.553 2.002,-0.06 2.666,-0.761c0.664,-0.702 0.728,-1.012 0.394,-1.64c-4.143,1.964 -12.068,6.709 -15.378,9.279c-2.786,2.165 -3,2.762 -2.862,3.29c0.111,0.422 0.473,0.663 0.473,0.663l3.847,-2.367c0,0 -0.845,-0.987 0.847,-2.154c1.692,-1.17 10.013,-6.31 10.013,-6.31" style="fill:#7f7f7f;fill-rule:nonzero;"/><path d="M404.404,294.222l0.002,0.001l-0.002,-0.001Z" style="fill:#363636;fill-rule:nonzero;"/><path d="M404.281,293.936c-0.139,-0.528 0.076,-1.125 2.861,-3.289c3.311,-2.571 11.235,-7.316 15.379,-9.28c-0.402,-0.652 -0.53,-0.693 -0.569,-0.674c-4.151,1.983 -11.981,6.674 -15.259,9.222c-2.786,2.164 -2.944,2.626 -2.806,3.156c0.087,0.328 0.352,0.841 0.465,1.056c-0.028,-0.061 -0.051,-0.122 -0.071,-0.191" style="fill:#363636;fill-rule:nonzero;"/><path d="M414.105,286.21c2.707,-1.666 5.475,-3.265 8.343,-4.636c0.365,0.77 -0.481,1.471 -1.073,1.835c-0.407,0.251 -0.929,0.479 -1.42,0.407c-0.168,-0.026 -0.43,-0.27 -0.6,-0.165c-0.803,0.497 -1.605,0.995 -2.407,1.494c-1.365,0.851 -3.9,2.424 -5.258,3.29c-1.013,0.641 -2.767,1.513 -3.394,2.575c-0.305,0.514 0.178,1.116 -0.23,1.367c-0.533,0.328 -0.959,0.591 -1.491,0.918c-0.504,0.31 -0.891,0.55 -1.395,0.858c-0.404,0.248 -0.712,0.097 -0.702,-0.428c0.019,-1.054 1.791,-2.193 2.472,-2.73c1.893,-1.493 5.103,-3.524 7.155,-4.785c2.954,-1.818 0,0 0,0" style="fill:#4e4e4e;fill-rule:nonzero;"/><clipPath id="_clip5"><path d="M463.633,258.95l0.941,1.531l0.043,-0.04l-0.929,-1.509l-0.055,0.018Z"/></clipPath><g clip-path="url(#_clip5)"><path d="M463.681,258.92l0.942,1.531l-0.049,0.03l-0.942,-1.531l0.049,-0.03Z" style="fill:url(#_Linear6);fill-rule:nonzero;"/></g><path d="M466.041,258.755l-0.207,-0.335l-2.108,0.575l0.85,1.381l1.465,-1.621Z" style="fill:#7f8082;fill-rule:nonzero;"/><path d="M465.994,258.681l-0.015,-0.028l-1.695,1.249l0.201,0.326l1.509,-1.547Z" style="fill:#7f8082;fill-rule:nonzero;"/><path d="M465.994,258.681l-0.015,-0.027l-1.687,1.26l0.189,0.309l1.513,-1.542Z" style="fill:#868789;fill-rule:nonzero;"/><path d="M465.994,258.68l-0.014,-0.025l-1.681,1.27l0.18,0.293l1.515,-1.538Z" style="fill:#8c8d8f;fill-rule:nonzero;"/><path d="M465.994,258.68l-0.014,-0.024l-1.675,1.28l0.171,0.277l1.518,-1.533Z" style="fill:#939496;fill-rule:nonzero;"/><path d="M465.993,258.679l-0.012,-0.022l-1.668,1.291l0.16,0.26l1.52,-1.529Z" style="fill:#9a9b9c;fill-rule:nonzero;"/><path d="M465.993,258.679l-0.012,-0.021l-1.662,1.301l0.151,0.245l1.523,-1.525Z" style="fill:#a1a1a3;fill-rule:nonzero;"/><path d="M465.993,258.678l-0.011,-0.019l-1.656,1.311l0.141,0.228l1.526,-1.52Z" style="fill:#a7a8a9;fill-rule:nonzero;"/><path d="M465.993,258.678l-0.011,-0.019l-1.649,1.322l0.131,0.212l1.529,-1.515Z" style="fill:#aeafb0;fill-rule:nonzero;"/><path d="M465.992,258.677l-0.009,-0.017l-1.643,1.333l0.121,0.195l1.531,-1.511Z" style="fill:#b5b5b7;fill-rule:nonzero;"/><path d="M465.992,258.677l-0.009,-0.016l-1.636,1.343l0.111,0.179l1.534,-1.506Z" style="fill:#bcbcbd;fill-rule:nonzero;"/><path d="M465.992,258.676l-0.008,-0.014l-1.63,1.354l0.101,0.162l1.537,-1.502Z" style="fill:#c2c3c4;fill-rule:nonzero;"/><path d="M465.992,258.676l-0.008,-0.013l-1.623,1.363l0.092,0.147l1.539,-1.497Z" style="fill:#c9caca;fill-rule:nonzero;"/><path d="M465.991,258.675l-0.006,-0.011l-1.617,1.374l0.081,0.131l1.542,-1.494Z" style="fill:#d0d0d1;fill-rule:nonzero;"/><path d="M465.991,258.675l-0.006,-0.01l-1.61,1.384l0.071,0.115l1.545,-1.489Z" style="fill:#d7d7d8;fill-rule:nonzero;"/><path d="M465.991,258.674l-0.005,-0.008l-1.604,1.394l0.062,0.099l1.547,-1.485Z" style="fill:#dddede;fill-rule:nonzero;"/><path d="M465.991,258.674l-0.005,-0.007l-1.597,1.405l0.051,0.082l1.551,-1.48Z" style="fill:#e4e4e5;fill-rule:nonzero;"/><path d="M465.99,258.673l-0.003,-0.005l-1.591,1.415l0.042,0.066l1.552,-1.476Z" style="fill:#ebebeb;fill-rule:nonzero;"/><path d="M465.99,258.672l-0.003,-0.004l-1.585,1.426l0.033,0.05l1.555,-1.472Z" style="fill:#f2f2f2;fill-rule:nonzero;"/><path d="M465.99,258.672l-0.002,-0.003l-1.578,1.436l0.022,0.035l1.558,-1.468Z" style="fill:#f8f8f8;fill-rule:nonzero;"/><path d="M465.99,258.671l-0.002,-0.001l-1.571,1.447l0.012,0.018l1.561,-1.464Z" style="fill:#fff;fill-rule:nonzero;"/><path d="M466.011,258.707l-0.033,-0.054l-1.693,1.25l0.235,0.379l1.491,-1.575Z" style="fill:#7f8082;fill-rule:nonzero;"/><path d="M465.976,258.651l-0.074,-0.122l-1.898,0.917l0.281,0.457l1.691,-1.252Z" style="fill:#7f8082;fill-rule:nonzero;"/><path d="M465.974,258.647l-0.071,-0.117l-1.897,0.919l0.269,0.438l1.699,-1.24Z" style="fill:#7d7e80;fill-rule:nonzero;"/><path d="M465.972,258.644l-0.069,-0.113l-1.896,0.92l0.258,0.42l1.707,-1.227Z" style="fill:#7c7d7f;fill-rule:nonzero;"/><path d="M465.969,258.64l-0.065,-0.108l-1.895,0.922l0.247,0.402l1.713,-1.216Z" style="fill:#7a7b7d;fill-rule:nonzero;"/><path d="M465.967,258.636l-0.063,-0.102l-1.893,0.923l0.236,0.383l1.72,-1.204Z" style="fill:#78797b;fill-rule:nonzero;"/><path d="M465.965,258.633l-0.06,-0.099l-1.892,0.925l0.224,0.365l1.728,-1.191Z" style="fill:#77787a;fill-rule:nonzero;"/><path d="M465.963,258.629l-0.057,-0.094l-1.892,0.927l0.213,0.347l1.736,-1.18Z" style="fill:#757678;fill-rule:nonzero;"/><path d="M465.961,258.626l-0.054,-0.089l-1.891,0.928l0.202,0.328l1.743,-1.167Z" style="fill:#747476;fill-rule:nonzero;"/><path d="M465.958,258.622l-0.051,-0.084l-1.89,0.93l0.192,0.31l1.749,-1.156Z" style="fill:#727375;fill-rule:nonzero;"/><path d="M465.956,258.618l-0.049,-0.079l-1.887,0.931l0.179,0.292l1.757,-1.144Z" style="fill:#707173;fill-rule:nonzero;"/><path d="M465.954,258.615l-0.046,-0.075l-1.887,0.933l0.168,0.273l1.765,-1.131Z" style="fill:#6f6f71;fill-rule:nonzero;"/><path d="M465.952,258.611l-0.043,-0.07l-1.886,0.935l0.157,0.255l1.772,-1.12Z" style="fill:#6d6e6f;fill-rule:nonzero;"/><path d="M465.949,258.607l-0.039,-0.064l-1.886,0.935l0.146,0.237l1.779,-1.108Z" style="fill:#6b6c6e;fill-rule:nonzero;"/><path d="M465.947,258.604l-0.037,-0.06l-1.884,0.937l0.135,0.219l1.786,-1.096Z" style="fill:#6a6a6c;fill-rule:nonzero;"/><path d="M465.945,258.6l-0.034,-0.055l-1.884,0.939l0.124,0.2l1.794,-1.084Z" style="fill:#68686a;fill-rule:nonzero;"/><path d="M465.943,258.596l-0.032,-0.05l-1.881,0.941l0.112,0.181l1.801,-1.072Z" style="fill:#666769;fill-rule:nonzero;"/><path d="M465.941,258.593l-0.029,-0.046l-1.881,0.942l0.101,0.164l1.809,-1.06Z" style="fill:#656567;fill-rule:nonzero;"/><path d="M465.938,258.589l-0.025,-0.041l-1.88,0.944l0.09,0.145l1.815,-1.048Z" style="fill:#636365;fill-rule:nonzero;"/><path d="M465.936,258.586l-0.023,-0.036l-1.879,0.945l0.08,0.126l1.822,-1.035Z" style="fill:#626264;fill-rule:nonzero;"/><path d="M465.934,258.582l-0.02,-0.031l-1.878,0.947l0.068,0.108l1.83,-1.024Z" style="fill:#606062;fill-rule:nonzero;"/><path d="M465.932,258.578l-0.017,-0.027l-1.877,0.949l0.056,0.09l1.838,-1.012Z" style="fill:#5e5e60;fill-rule:nonzero;"/><path d="M465.93,258.575l-0.015,-0.022l-1.875,0.95l0.045,0.072l1.845,-1Z" style="fill:#5d5d5f;fill-rule:nonzero;"/><path d="M465.927,258.571l-0.012,-0.017l-1.874,0.952l0.035,0.053l1.851,-0.988Z" style="fill:#5b5b5d;fill-rule:nonzero;"/><path d="M616.065,604.248l-101.072,51.078l-63.727,-126.104l101.072,-51.078l63.727,126.104Z" style="fill:#fff;fill-rule:nonzero;"/><path d="M546.271,508.097l-68.893,34.816l-1.107,-2.192l68.892,-34.816l1.108,2.192Z" style="fill:#ccc;fill-rule:nonzero;"/><path d="M557.396,526.909l-70.182,35.467l-1.107,-2.191l70.181,-35.467l1.108,2.191Z" style="fill:#ccc;fill-rule:nonzero;"/><path d="M553.961,533.891l-64.635,32.664l-1.107,-2.191l64.635,-32.664l1.107,2.191Z" style="fill:#ccc;fill-rule:nonzero;"/><path d="M563.455,552.677l-64.636,32.664l-1.107,-2.192l64.635,-32.664l1.108,2.192Z" style="fill:#ccc;fill-rule:nonzero;"/><path d="M561.384,535.087l-70.066,35.409l-1.108,-2.192l70.066,-35.408l1.108,2.191Z" style="fill:#ccc;fill-rule:nonzero;"/><path d="M499.69,541.431l-18.369,9.283l-1.108,-2.192l18.37,-9.283l1.107,2.192Z" style="fill:#ccc;fill-rule:nonzero;"/><path d="M509.118,536.666l-6.973,3.525l-1.108,-2.193l6.974,-3.523l1.107,2.191Z" style="fill:#ccc;fill-rule:nonzero;"/><path d="M523.401,529.448l-11.556,5.84l-1.108,-2.192l11.556,-5.839l1.108,2.191Z" style="fill:#ccc;fill-rule:nonzero;"/><path d="M531.302,525.455l-5.778,2.92l-1.107,-2.191l5.778,-2.92l1.107,2.191Z" style="fill:#ccc;fill-rule:nonzero;"/><path d="M551.813,515.09l-18.237,9.216l-1.107,-2.192l18.237,-9.216l1.107,2.192Z" style="fill:#ccc;fill-rule:nonzero;"/><path d="M493.353,539.837l-13.963,7.056l-1.108,-2.192l13.963,-7.056l1.108,2.192Z" style="fill:#ccc;fill-rule:nonzero;"/><path d="M509.458,531.698l-13.962,7.056l-1.108,-2.192l13.963,-7.056l1.107,2.192Z" style="fill:#ccc;fill-rule:nonzero;"/><path d="M518.887,526.933l-7.446,3.763l-1.108,-2.192l7.446,-3.763l1.108,2.192Z" style="fill:#ccc;fill-rule:nonzero;"/><path d="M510.973,574.703l-13.963,7.057l-1.108,-2.192l13.963,-7.056l1.108,2.191Z" style="fill:#ccc;fill-rule:nonzero;"/><path d="M526.768,566.721l-13.964,7.057l-1.108,-2.192l13.964,-7.056l1.108,2.191Z" style="fill:#ccc;fill-rule:nonzero;"/><path d="M551.761,554.091l-23.011,11.628l-1.107,-2.191l23.01,-11.629l1.108,2.192Z" style="fill:#ccc;fill-rule:nonzero;"/><path d="M529.371,521.635l-8.502,4.296l-1.107,-2.192l8.501,-4.296l1.108,2.192Z" style="fill:#ccc;fill-rule:nonzero;"/><path d="M543.805,514.34l-12.763,6.45l-1.107,-2.191l12.763,-6.45l1.107,2.191Z" style="fill:#ccc;fill-rule:nonzero;"/><path d="M508.982,570.763l-13.964,7.057l-1.107,-2.193l13.963,-7.056l1.108,2.192Z" style="fill:#ccc;fill-rule:nonzero;"/><path d="M524.776,562.781l-13.963,7.057l-1.108,-2.192l13.964,-7.057l1.107,2.192Z" style="fill:#ccc;fill-rule:nonzero;"/><path d="M534.205,558.016l-7.446,3.763l-1.108,-2.192l7.446,-3.762l1.108,2.191Z" style="fill:#ccc;fill-rule:nonzero;"/><path d="M544.687,552.719l-8.501,4.296l-1.107,-2.192l8.5,-4.296l1.108,2.192Z" style="fill:#ccc;fill-rule:nonzero;"/><path d="M565.057,542.425l-19.153,9.679l-1.108,-2.191l19.153,-9.68l1.108,2.192Z" style="fill:#ccc;fill-rule:nonzero;"/><path d="M497.215,547.478l-13.964,7.057l-1.107,-2.191l13.963,-7.057l1.108,2.191Z" style="fill:#ccc;fill-rule:nonzero;"/><path d="M513.084,539.459l-13.962,7.056l-1.108,-2.191l13.963,-7.057l1.107,2.192Z" style="fill:#ccc;fill-rule:nonzero;"/><path d="M522.057,534.924l-7.446,3.763l-1.108,-2.192l7.446,-3.762l1.108,2.191Z" style="fill:#ccc;fill-rule:nonzero;"/><path d="M507.111,567.061l-13.963,7.057l-1.108,-2.192l13.964,-7.057l1.107,2.192Z" style="fill:#ccc;fill-rule:nonzero;"/><path d="M523.096,558.983l-13.963,7.057l-1.108,-2.192l13.963,-7.057l1.108,2.192Z" style="fill:#ccc;fill-rule:nonzero;"/><path d="M532.069,554.449l-7.446,3.763l-1.108,-2.193l7.446,-3.762l1.108,2.192Z" style="fill:#ccc;fill-rule:nonzero;"/><path d="M547.899,546.449l-13.963,7.057l-1.108,-2.193l13.964,-7.056l1.107,2.192Z" style="fill:#ccc;fill-rule:nonzero;"/><path d="M563.002,538.817l-13.964,7.057l-1.108,-2.193l13.964,-7.056l1.108,2.192Z" style="fill:#ccc;fill-rule:nonzero;"/><path d="M499.305,551.615l-13.963,7.057l-1.108,-2.193l13.964,-7.056l1.107,2.192Z" style="fill:#ccc;fill-rule:nonzero;"/><path d="M515.175,543.595l-13.963,7.056l-1.108,-2.191l13.963,-7.056l1.108,2.191Z" style="fill:#ccc;fill-rule:nonzero;"/><path d="M524.148,539.061l-7.446,3.762l-1.108,-2.191l7.446,-3.763l1.108,2.192Z" style="fill:#ccc;fill-rule:nonzero;"/><path d="M534.175,533.993l-8.501,4.296l-1.107,-2.192l8.5,-4.295l1.108,2.191Z" style="fill:#ccc;fill-rule:nonzero;"/><path d="M555.381,523.277l-19.533,9.871l-1.108,-2.192l19.533,-9.871l1.108,2.192Z" style="fill:#ccc;fill-rule:nonzero;"/><path d="M570.082,554.676l-68.893,34.816l-1.108,-2.192l68.893,-34.815l1.108,2.191Z" style="fill:#ccc;fill-rule:nonzero;"/><path d="M559.858,584.276l-48.834,24.678l-1.107,-2.191l48.834,-24.678l1.107,2.191Z" style="fill:#ccc;fill-rule:nonzero;"/><path d="M523.501,588.009l-18.371,9.283l-1.107,-2.191l18.37,-9.284l1.108,2.192Z" style="fill:#ccc;fill-rule:nonzero;"/><path d="M532.929,583.244l-6.974,3.525l-1.108,-2.192l6.974,-3.524l1.108,2.191Z" style="fill:#ccc;fill-rule:nonzero;"/><path d="M547.211,576.027l-11.556,5.839l-1.107,-2.191l11.555,-5.84l1.108,2.192Z" style="fill:#ccc;fill-rule:nonzero;"/><path d="M555.113,572.033l-5.779,2.921l-1.108,-2.192l5.779,-2.92l1.108,2.191Z" style="fill:#ccc;fill-rule:nonzero;"/><path d="M574.024,562.477l-16.637,8.407l-1.108,-2.191l16.637,-8.408l1.108,2.192Z" style="fill:#ccc;fill-rule:nonzero;"/><path d="M517.163,586.415l-13.963,7.057l-1.108,-2.193l13.964,-7.056l1.107,2.192Z" style="fill:#ccc;fill-rule:nonzero;"/><path d="M533.269,578.276l-13.963,7.057l-1.108,-2.193l13.963,-7.056l1.108,2.192Z" style="fill:#ccc;fill-rule:nonzero;"/><path d="M542.698,573.511l-7.446,3.763l-1.108,-2.192l7.446,-3.762l1.108,2.191Z" style="fill:#ccc;fill-rule:nonzero;"/><path d="M553.181,568.213l-8.501,4.296l-1.108,-2.192l8.501,-4.296l1.108,2.192Z" style="fill:#ccc;fill-rule:nonzero;"/><path d="M571.877,558.765l-17.025,8.603l-1.107,-2.191l17.024,-8.603l1.108,2.191Z" style="fill:#ccc;fill-rule:nonzero;"/><path d="M536.895,586.038l-13.963,7.056l-1.107,-2.192l13.962,-7.056l1.108,2.192Z" style="fill:#ccc;fill-rule:nonzero;"/><path d="M545.867,581.503l-7.445,3.763l-1.108,-2.192l7.446,-3.762l1.107,2.191Z" style="fill:#ccc;fill-rule:nonzero;"/><path d="M538.985,590.174l-13.962,7.056l-1.108,-2.192l13.963,-7.056l1.107,2.192Z" style="fill:#ccc;fill-rule:nonzero;"/><path d="M547.958,585.639l-7.446,3.763l-1.107,-2.192l7.445,-3.762l1.108,2.191Z" style="fill:#ccc;fill-rule:nonzero;"/><path d="M557.986,580.572l-8.501,4.296l-1.107,-2.192l8.5,-4.296l1.108,2.192Z" style="fill:#ccc;fill-rule:nonzero;"/><path d="M581.997,602.187l-7.324,3.701l-9.429,-18.658l7.324,-3.701l9.429,18.658Z" style="fill:#e9bd7a;fill-rule:nonzero;"/><path d="M545.604,25.806c0,0 -0.559,0.002 -2.654,-0.078c-2.095,-0.077 2.403,8.738 2.403,8.738c0,0 -2.626,-1.034 -2.653,-0.077c-0.028,0.956 0.524,6.026 0.492,7.141c-0.033,1.117 4.468,0.13 4.59,-4.06c0.121,-4.189 -2.178,-11.664 -2.178,-11.664" style="fill:#df6666;fill-rule:nonzero;"/><path d="M522.818,43.895c0,0 0.363,-0.426 1.659,-2.073c1.296,-1.649 5.105,7.482 5.105,7.482c0,0 0.911,-2.67 1.658,-2.073c0.747,0.599 4.254,4.3 5.127,4.998c0.873,0.699 -2.793,3.49 -6.066,0.872c-3.272,-2.618 -7.483,-9.206 -7.483,-9.206" style="fill:#df6666;fill-rule:nonzero;"/><path d="M510.186,24.201c0.054,-1.868 -0.204,-3.818 -1.122,-5.422c-0.922,-1.608 -2.421,-2.69 -4.463,-3.226c0.146,5.542 2.256,10.252 4.611,14.348c0.371,-1.241 0.908,-3.408 0.974,-5.7M509.263,31.643c-0.878,0.664 -4.116,3.225 -6.922,6.897c0.719,0.827 1.448,1.761 2.205,2.724c2.364,3.022 4.811,6.148 6.991,6.019c0.97,-0.057 1.856,-0.766 2.708,-2.168c1.689,-2.778 -0.528,-6.326 -3.341,-10.816c-0.535,-0.857 -1.09,-1.741 -1.641,-2.656M514.288,64.698c0.056,-1.948 -0.442,-3.952 -1.48,-5.645c-1.965,-3.204 -5.542,-4.886 -10.074,-4.733c-1.638,0.053 -3.18,0.055 -4.632,0.018c0.021,0.336 0.039,0.67 0.06,1.004c0.548,9.145 1.021,17.044 9.406,16.937c2.431,-0.029 4.428,-1.242 5.627,-3.413c0.687,-1.247 1.05,-2.69 1.093,-4.168M503.753,15.367c-0.044,-0.007 -0.088,-0.015 -0.131,-0.023c-3.88,-0.645 -6.963,0.678 -8.457,3.629c-2.034,4.026 -1.023,11.476 6.012,18.324c0.189,0.184 0.378,0.379 0.567,0.58c2.922,-3.78 6.26,-6.351 7.087,-6.962c-2.578,-4.379 -4.975,-9.464 -5.078,-15.548M480.08,50.786l0.403,-0.734c0.063,0.033 5.569,2.961 16.724,3.414c-0.05,-0.784 -0.107,-1.57 -0.17,-2.358c-0.384,-4.749 1.677,-9.102 4.195,-12.551c-0.215,-0.232 -0.428,-0.452 -0.64,-0.659c-7.338,-7.144 -8.346,-15.014 -6.174,-19.302c1.67,-3.3 5.073,-4.787 9.336,-4.08c0.03,-1.71 0.246,-3.492 0.689,-5.361c1.177,-4.971 2.68,-7.743 4.732,-8.724c2.441,-1.165 5.317,0.213 8.958,1.958c3.802,1.824 8.535,4.092 14.301,4.046c4.599,-0.04 7.778,0.944 9.719,3.004c2.797,2.965 2.491,7.544 2.194,11.968c-0.117,1.738 -0.228,3.379 -0.149,4.883l-0.837,0.044c-0.08,-1.555 0.032,-3.221 0.149,-4.983c0.285,-4.246 0.579,-8.64 -1.966,-11.338c-1.773,-1.881 -4.75,-2.776 -9.104,-2.742c-5.96,0.051 -10.789,-2.265 -14.67,-4.126c-3.438,-1.65 -6.153,-2.95 -8.234,-1.955c-1.804,0.861 -3.165,3.453 -4.278,8.159c-0.439,1.859 -0.642,3.636 -0.664,5.338c2.379,0.571 4.126,1.806 5.198,3.678c2.506,4.377 0.568,10.836 -0.008,12.515c0.613,1.03 1.233,2.02 1.83,2.974c2.966,4.735 5.306,8.474 3.347,11.697c-1.005,1.653 -2.11,2.493 -3.374,2.568c-2.618,0.154 -5.202,-3.145 -7.701,-6.336c-0.707,-0.904 -1.39,-1.776 -2.058,-2.552c-2.384,3.306 -4.314,7.417 -3.956,11.807c0.068,0.822 0.125,1.641 0.176,2.456c1.461,0.042 3.013,0.041 4.658,-0.014c4.846,-0.16 8.688,1.661 10.816,5.134c1.98,3.227 2.142,7.511 0.407,10.658c-1.351,2.445 -3.605,3.812 -6.351,3.846c-9.183,0.116 -9.702,-8.552 -10.254,-17.726c-0.021,-0.357 -0.042,-0.718 -0.065,-1.08c-11.391,-0.431 -16.916,-3.383 -17.179,-3.526" style="fill:#efefef;fill-rule:nonzero;"/><path d="M500.012,40.483c0.822,-0.555 2.561,-0.291 5.562,0.222c3.995,0.683 8.968,1.535 11.164,-0.548c0.949,-0.898 1.301,-2.277 1.076,-4.21c-0.577,-4.977 -2.832,-4.929 -5.685,-4.869c-2.871,0.059 -6.444,0.136 -8.088,-5.9c-1.984,-7.281 3.032,-15.566 8.529,-17.243c3.333,-1.017 6.015,0.676 7.359,4.648c1.712,5.055 1.331,9.237 0.964,13.279c-0.484,5.327 -0.941,10.356 3.662,16.725l-0.68,0.492c-4.786,-6.622 -4.318,-11.804 -3.817,-17.292c0.359,-3.956 0.731,-8.05 -0.924,-12.936c-1.196,-3.532 -3.441,-4.993 -6.321,-4.114c-4.497,1.371 -9.942,8.959 -7.963,16.221c1.47,5.403 4.284,5.345 7.261,5.282c2.886,-0.061 5.87,-0.122 6.536,5.611c0.256,2.181 -0.195,3.837 -1.332,4.917c-2.501,2.368 -7.703,1.478 -11.882,0.764c-2.148,-0.367 -4.368,-0.747 -4.953,-0.354l-0.468,-0.695Z" style="fill:#efefef;fill-rule:nonzero;"/><path d="M476.184,52.6c-0.916,-0.264 -1.445,-1.222 -1.18,-2.139l0.705,-2.436c0.266,-0.917 1.222,-1.446 2.14,-1.182l5.237,1.516c0.918,0.266 1.444,1.223 1.18,2.14l-0.705,2.438c-0.265,0.914 -1.224,1.443 -2.14,1.178l-5.237,-1.515Z" style="fill:#dddad1;fill-rule:nonzero;"/><path d="M419.588,61.431l7.88,-32.605l48.82,11.802l-7.882,32.604l-48.818,-11.801Z" style="fill:#4d4d4d;fill-rule:nonzero;"/><path d="M471.354,73.946l7.881,-32.606c0.394,-1.627 -0.606,-3.265 -2.235,-3.659l-48.819,-11.801c-1.627,-0.392 -3.266,0.609 -3.66,2.234l-7.881,32.606c-0.394,1.628 0.608,3.264 2.233,3.66l48.821,11.8c1.628,0.394 3.266,-0.607 3.66,-2.234M468.406,73.233l-48.818,-11.802l7.88,-32.604l48.821,11.801l-7.883,32.605" style="fill:#e5e5e5;fill-rule:nonzero;"/><path d="M426.505,63.783l8.193,-33.889l-8.991,-2.171l-8.193,33.89l8.991,2.17Z" style="fill:#e5e5e5;fill-rule:nonzero;"/><path d="M425.022,50.562c-1.384,-0.338 -1.987,-2.751 -1.347,-5.396c0.64,-2.643 2.281,-4.519 3.663,-4.183c1.383,0.333 1.985,2.749 1.346,5.392c-0.639,2.645 -2.279,4.518 -3.662,4.187" style="fill:#c9c9c9;fill-rule:nonzero;"/><path d="M472.591,289.382l38.017,-14.808l14.808,38.016l-38.016,14.809l-14.809,-38.017Z" style="fill:#d8817a;"/><path d="M520.492,299.949l4.925,12.641l-8.129,3.167l3.204,-15.808Z" style="fill:#d26359;"/><path d="M520.492,299.949c-2.861,3.13 -6.075,5.288 -9.884,5.785c3.527,2.349 5.544,5.849 6.68,10.023l3.204,-15.808Z" style="fill:#e4a39e;"/><path d="M472.591,289.382l38.017,-14.808l1.775,4.557l-38.016,14.808l-1.776,-4.557Z" style="fill:#e4a39e;"/><defs><linearGradient id="_Linear2" x1="0" y1="0" x2="1" y2="0" gradientUnits="userSpaceOnUse" gradientTransform="matrix(3.45443,5.61394,-5.61394,3.45443,424.746,280.061)"><stop offset="0%" style="stop-color:#bebfc4;stop-opacity:1"/><stop offset="100%" style="stop-color:#e0e1e5;stop-opacity:1"/></linearGradient><linearGradient id="_Linear4" x1="0" y1="0" x2="1" y2="0" gradientUnits="userSpaceOnUse" gradientTransform="matrix(0.53219,0.864883,-0.864883,0.53219,419.88,283.317)"><stop offset="0%" style="stop-color:#332f2e;stop-opacity:1"/><stop offset="100%" style="stop-color:#4a484a;stop-opacity:1"/></linearGradient><linearGradient id="_Linear6" x1="0" y1="0" x2="1" y2="0" gradientUnits="userSpaceOnUse" gradientTransform="matrix(0.941963,1.53082,-1.53082,0.941963,463.657,258.935)"><stop offset="0%" style="stop-color:#bebfc4;stop-opacity:1"/><stop offset="100%" style="stop-color:#e0e1e5;stop-opacity:1"/></linearGradient></defs></svg>