<svg viewBox="0 0 278 357" xmlns="http://www.w3.org/2000/svg" fill-rule="evenodd" clip-rule="evenodd" stroke-linejoin="round" stroke-miterlimit="1.414"><path fill="#6d6e70" fill-rule="nonzero" d="M129.595 167.825h79.917v51.48h-79.917z"/><path d="M250.62 204.47h-65.793a4.436 4.436 0 0 0-4.436 4.438v38.974h74.668v-38.974a4.437 4.437 0 0 0-4.437-4.437" fill="#404041" fill-rule="nonzero"/><path d="M250.62 207.51h-65.793a1.4 1.4 0 0 0-1.397 1.398v35.936h68.588v-35.936a1.4 1.4 0 0 0-1.398-1.398" fill="#58595b" fill-rule="nonzero"/><path fill="#6d6e70" fill-rule="nonzero" d="M106.92 167.825h19.388v51.48H106.92z"/><path fill="#e5e6e7" fill-rule="nonzero" d="M108.866 171.443h15.876v1.233h-15.876zm24.918 0h4.23v1.233h-4.23zm-2.918 0h1.044v1.233h-1.044zm2.917 2.91h18.398v1.23h-18.396zm-2.917 0h1.044v1.23h-1.044zm2.917 2.91h14.955v1.23h-14.955zm-2.917 0h1.044v1.23h-1.044zm2.917 2.907h22.47v1.234h-22.47zm-2.917 0h1.044v1.234h-1.044zm2.917 2.91h28.27v1.233h-28.27zm-2.917 0h1.044v1.233h-1.044zm0 2.91h1.044v1.233h-1.044zm0 2.91h1.044v1.233h-1.044zm2.918 2.91h35.355v1.232h-35.357zm-2.918 0h1.044v1.232h-1.044zm2.917 2.91h24.537v1.23h-24.537zm-2.917 0h1.044v1.23h-1.044zm2.917 2.908h19.565v1.233h-19.565zm-2.917 0h1.044v1.233h-1.044zm2.917 2.91h27.868v1.233h-27.866zm-2.917 0h1.044v1.233h-1.044zm2.917 2.91h23.21v1.232h-23.21zm-2.917 0h1.044v1.232h-1.044zm2.917 2.91h46.608v1.232h-46.606zm-2.917 0h1.044v1.232h-1.044zm2.917 2.908h8.46v1.233h-8.46zm-2.917 0h1.044v1.233h-1.044zm2.917 2.91h17.678v1.232h-17.676zm-2.917 0h1.044v1.232h-1.044zm2.917 2.91h1.308v1.232h-1.306zm-2.917 0h1.044v1.232h-1.044zm-22-40.734h15.876v1.232h-15.876zm0 2.91h15.876v1.232h-15.876zm0 2.908h15.876v1.234h-15.876zm0 2.91h15.876v1.233h-15.876zm0 2.91h15.876v1.233h-15.876zm0 2.91h15.876v1.233h-15.876zm0 2.91h15.876v1.232h-15.876zm0 2.91h15.876v1.23h-15.876zm0 2.908h15.876v1.233h-15.876zm0 2.91h15.876v1.233h-15.876zm0 2.91h15.876v1.232h-15.876zm0 2.91h15.876v1.232h-15.876zm0 2.908h15.876v1.233h-15.876zm0 2.91h15.876v1.232h-15.876zm0 2.91h15.876v1.232h-15.876zm96.664 8.457l-10.355 4.276 10.354 4.245v3.432l-14.633-6.225v-2.908l14.63-6.254v3.433zm14.73-8.26h3.257l-6.108 21.785h-3.2l6.05-21.784zm11.903 16.783l10.354-4.275-10.354-4.246v-3.432l14.632 6.255v2.88l-14.632 6.253v-3.432z"/><path fill="#6d6e70" fill-rule="nonzero" d="M6.238 185.782h11.818v36.563H6.238zm13.822 0h48.717v36.563H20.06z"/><path fill="#e5e6e7" fill-rule="nonzero" d="M7.424 188.352h9.678v.876H7.424zm15.19 0h2.58v.876h-2.58zm-1.778 0h.636v.876h-.636zm1.777 2.066H33.83v.876H22.612zm-1.777 0h.636v.876h-.636zm1.777 2.066h9.116v.876H22.61zm-1.777 0h.636v.876h-.636zm1.777 2.066H36.31v.877H22.614zm-1.777 0h.636v.877h-.636zm1.778 2.067h17.233v.876H22.614zm-1.778 0h.636v.876h-.636zm0 2.067h.636v.876h-.636zm0 2.066h.636v.876h-.636zm1.777 2.066h21.553v.876H22.613zm-1.777 0h.636v.876h-.636zm1.777 2.067H37.57v.876H22.614zm-1.777 0h.636v.876h-.636zm1.777 2.067H34.54v.875H22.613zm-1.777 0h.636v.875h-.636zm1.777 2.066H39.6v.876H22.614zm-1.777 0h.636v.876h-.636zm1.778 2.066h14.15v.876h-14.15zm-1.778 0h.636v.876h-.636zm1.777 2.066h28.412v.876H22.613zm-1.777 0h.636v.876h-.636zm1.777 2.067h5.158v.876h-5.156zm-1.777 0h.636v.876h-.636zm1.777 2.065H33.39v.877H22.612zm-1.777 0h.636v.877h-.636zm1.777 2.068h.798v.876h-.796zm-1.777 0h.636v.876h-.636zm-13.412-28.93h9.678v.876H7.424zm0 2.066h9.678v.876H7.424zm0 2.066h9.678v.877H7.424zm0 2.067h9.678v.876H7.424zm0 2.067h9.678v.876H7.424zm0 2.066h9.678v.876H7.424zm0 2.066h9.678v.876H7.424zm0 2.067h9.678v.876H7.424zm0 2.067h9.678v.875H7.424zm0 2.066h9.678v.876H7.424zm0 2.066h9.678v.876H7.424zm0 2.066h9.678v.876H7.424zm0 2.067h9.678v.876H7.424zm0 2.065h9.678v.877H7.424zm0 2.068h9.678v.876H7.424z"/><path fill="#404041" fill-rule="nonzero" d="M48.496 193.644h37.348v20.096H48.496z"/><path fill="#e5e6e7" fill-rule="nonzero" d="M53.508 198.877h2.578v.875h-2.578zm0 2.066H64.72v.875H53.507zm-5.012-5.957h37.348v.875H48.496zm5.012 8.024h9.116v.875h-9.116zm0 2.066h13.697v.875H53.508zm0 2.067H70.74v.875H53.51z"/></svg>