<?xml version="1.0" standalone="no"?>
<!DOCTYPE svg PUBLIC "-//W3C//DTD SVG 1.1//EN" "http://www.w3.org/Graphics/SVG/1.1/DTD/svg11.dtd">
<svg width="100%" height="100%" viewBox="0 0 278 357" version="1.1" xmlns="http://www.w3.org/2000/svg" xmlns:xlink="http://www.w3.org/1999/xlink" xml:space="preserve" style="fill-rule:evenodd;clip-rule:evenodd;stroke-linejoin:round;stroke-miterlimit:1.41421;">
    <g transform="matrix(1,0,0,1,-599.337,-408.979)">
        <path d="M634.761,542.423L620.745,541.345L621.822,527.329L635.838,528.407L634.761,542.423Z" style="fill:rgb(239,90,40);fill-rule:nonzero;"/>
    </g>
    <g transform="matrix(1,0,0,1,-599.337,-408.979)">
        <path d="M633.823,532.649L623.609,531.863L623.667,531.104L633.882,531.89L633.823,532.649Z" style="fill:rgb(250,227,237);fill-rule:nonzero;"/>
    </g>
    <g transform="matrix(1,0,0,1,-599.337,-408.979)">
        <path d="M633.562,536.044L623.348,535.259L623.406,534.501L633.62,535.286L633.562,536.044Z" style="fill:rgb(250,227,237);fill-rule:nonzero;"/>
    </g>
    <g transform="matrix(1,0,0,1,-599.337,-408.979)">
        <path d="M633.302,539.44L623.087,538.654L623.146,537.895L633.36,538.681L633.302,539.44Z" style="fill:rgb(250,227,237);fill-rule:nonzero;"/>
    </g>
    <g transform="matrix(1,0,0,1,-599.337,-408.979)">
        <path d="M633.351,521.286L633.494,522.519L634.59,521.958L634.796,523.225L635.838,522.634L629.41,534.501L629.438,533.325L628.122,533.804L627.984,532.537L626.921,533.153L633.351,521.286Z" style="fill:rgb(249,174,64);fill-rule:nonzero;"/>
    </g>
    <g transform="matrix(1,0,0,1,-599.337,-408.979)">
        <path d="M702.823,539.214L689.27,542.944L685.541,529.391L699.094,525.661L702.823,539.214Z" style="fill:rgb(239,90,40);fill-rule:nonzero;"/>
    </g>
    <g transform="matrix(1,0,0,1,-599.337,-408.979)">
        <path d="M698.634,530.334L688.757,533.052L688.556,532.319L698.433,529.601L698.634,530.334Z" style="fill:rgb(250,227,237);fill-rule:nonzero;"/>
    </g>
    <g transform="matrix(1,0,0,1,-599.337,-408.979)">
        <path d="M699.538,533.617L689.661,536.335L689.459,535.602L699.336,532.884L699.538,533.617Z" style="fill:rgb(250,227,237);fill-rule:nonzero;"/>
    </g>
    <g transform="matrix(1,0,0,1,-599.337,-408.979)">
        <path d="M700.441,536.901L690.564,539.619L690.362,538.885L700.239,536.167L700.441,536.901Z" style="fill:rgb(250,227,237);fill-rule:nonzero;"/>
    </g>
    <g transform="matrix(1,0,0,1,-599.337,-408.979)">
        <path d="M688.819,521.534L689.768,522.334L690.182,521.174L691.202,521.954L691.554,520.809L695.01,533.856L694.225,532.98L693.594,534.231L692.626,533.404L692.275,534.581L688.819,521.534Z" style="fill:rgb(249,174,64);fill-rule:nonzero;"/>
    </g>
    <g transform="matrix(1,0,0,1,-62.2489,-5.032)">
        <path d="M91.781,276.773L83.873,268.863L91.784,260.956L99.691,268.866L91.781,276.773Z" style="fill:rgb(240,141,111);fill-rule:nonzero;"/>
    </g>
    <g transform="matrix(1,0,0,1,-62.2489,-5.032)">
        <path d="M96.277,270.385L90.514,264.62L90.943,264.193L96.706,269.957L96.277,270.385Z" style="fill:rgb(250,227,237);fill-rule:nonzero;"/>
    </g>
    <g transform="matrix(1,0,0,1,-62.2489,-5.032)">
        <path d="M94.361,272.301L88.598,266.535L89.026,266.108L94.789,271.873L94.361,272.301Z" style="fill:rgb(250,227,237);fill-rule:nonzero;"/>
    </g>
    <g transform="matrix(1,0,0,1,-62.2489,-5.032)">
        <path d="M92.444,274.216L86.682,268.451L87.11,268.024L92.873,273.788L92.444,274.216Z" style="fill:rgb(250,227,237);fill-rule:nonzero;"/>
    </g>
    <g transform="matrix(1,0,0,1,-62.2489,-5.032)">
        <path d="M337.494,273.823L326.797,277.086L323.533,266.387L334.231,263.125L337.494,273.823Z" style="fill:rgb(238,156,194);fill-rule:nonzero;"/>
    </g>
    <g transform="matrix(1,0,0,1,-62.2489,-5.032)">
        <path d="M333.968,266.852L326.172,269.23L325.995,268.652L333.791,266.273L333.968,266.852Z" style="fill:rgb(250,227,237);fill-rule:nonzero;"/>
    </g>
    <g transform="matrix(1,0,0,1,-62.2489,-5.032)">
        <path d="M334.759,269.443L326.962,271.821L326.785,271.243L334.582,268.864L334.759,269.443Z" style="fill:rgb(250,227,237);fill-rule:nonzero;"/>
    </g>
    <g transform="matrix(1,0,0,1,-62.2489,-5.032)">
        <path d="M335.549,272.035L327.753,274.413L327.576,273.835L335.372,271.456L335.549,272.035Z" style="fill:rgb(250,227,237);fill-rule:nonzero;"/>
    </g>
</svg>
