<svg viewBox="0 0 308 239" xmlns="http://www.w3.org/2000/svg" fill-rule="evenodd" clip-rule="evenodd" stroke-linejoin="round" stroke-miterlimit="1.414"><g fill-rule="nonzero"><path d="M246.72 126.65l23.23 40.13-28.01-17.48-8.54 15.44-14.71-2.22-2.02-.3V197l-13.66-33.81-20.04-16.9 2.18 27.85-23.18-19.53-12.99 32.69-5.63-37.81-10.04 12.36-8.22-11.2-33.56 28.2 6.83-14.17-9.72-20.75-18.48 11.84v-10.85l-20.94 15.6-15.91-1.55 21.48-28.14-24.26-10.03 27.71-14.58L28 88.15h30.59l3.4-15.9 12.76 2.72-9.06-17.75 17.23 9.34 23.54 3.8-7.03-20.4 19.79 9.7 9.03-7.96 6.24 11.59 12.25-6.57-1.29 25.5 26.36-56.3.36 41.1 17.76-17.73v11.66l11.96-1.39-3.35 16.01 24.29-11.88-2.59 9.5 15.86 4.33L230 102l27.31-16.28-13.77 22.15 20.61 8.15-17.43 10.63z" fill="#ed1c24"/><path d="M296.1 176.06l1.03.3-.64.36-.39-.66zm-12.79 5.25l.6.89-1.66-.38 1.06-.51z"/><path d="M296.49 176.72L283.46 184l-.95.54-.71-.92-8.1-10.49 6.14 3.83-3.45-5.96 6.92 10.31-1.06.51 1.66.38-.6-.89 13.1-6.25.71-.34.33.64 10.26 20.03-11.22-18.67.64-.36-1.03-.3.39.66zM281.07 73.74l.21.49-.69-.16.48-.33z"/><path d="M276.39 171l3.45 5.96-6.14-3.83-.23-.3 2.86-1.92.06.09zm-1.56-107.16l-.79-1.52 1.66.11-.87 1.41z"/><path d="M275.76 61.55l5.31 12.19-.48.33.69.16-.21-.49 10.23-7.01-10.16 8.03-.43.34-.26-.5-5.62-10.76.87-1.41-1.66-.11.79 1.52-7.26 11.82-6.35 3.78 12.88-18 1-1.4.66 1.51z"/><path d="M267.57 75.66l-3.63 5.9-2.94-1.81.22-.31 6.35-3.78zm-27.29 138.87l-.95-.71.23.72-19.4.37v-3.67l20.17 1.38.76.05.15.66 5.74 24.85-7.42-23.64.72-.01z"/><path d="M239.33 213.82l.95.71-.72.01-.23-.72zM234.8 39.06l.47-.39-.11.29-.36.1zm.41-1.45v.81l-1.16-.02.02-.41.08-.17.31-.06.75-.15z"/><path d="M234.05 38.4l1.16.02v-.81l15.33-3.04-15.38 4.39.11-.29-.47.39.36-.1L228 57.95l.18-.65-4.41 2.16 10.22-21.31.08-.16-.02.41zm.02-.41l1.06-24.54.08 24.16-.75.15-.31.06-.08.17z"/><path d="M228.18 57.3l-.18.65-1.2 3.19-3.22-1.29.19-.39 4.41-2.16z"/><path d="M218.69 162.52l14.71 2.22 8.54-15.44 28.01 17.48-23.23-40.13 17.43-10.63-20.61-8.15 13.77-22.15L230 102l6.1-24.48-15.86-4.33 2.59-9.5-24.29 11.88 3.35-16.01-11.96 1.39V49.29l-17.76 17.73-.36-41.1-26.36 56.3 1.29-25.5-12.25 6.57-6.24-11.59-9.03 7.96-19.79-9.7 7.03 20.4-23.54-3.8-17.23-9.34 9.06 17.75-12.76-2.72-3.4 15.9H28l30.24 18.07-27.71 14.58 24.26 10.03-21.48 28.14 15.91 1.55 20.94-15.6v10.85l18.48-11.84 9.72 20.75-6.83 14.17 33.56-28.2 8.22 11.2 10.04-12.36 5.63 37.81 12.99-32.69 23.18 19.53-2.18-27.85 20.04 16.9L216.67 197v-34.78l2.02.3zm-.54 3.33l2.01.3v48.76l-20.08-49.73-12.99-10.94 2.18 27.84-25.83-21.76-13.53 34.06-.04-.63-3.39.4-5.42-36.38-7.89 9.72-8.7-11.85-43.01 36.13 13.06-27.11-7.37-15.74-20.48 13.13v-10.28l-16.42 12.24L29.62 162l-.55-3.15 20.3-26.59-26.83-11.1 28.76-15.13-35.57-21.24h40.02l3.54-16.56 9.12 1.94-10.82-21.21L84.1 63.34l17.22 2.78L94.73 47l.15.32 3.12-1.5-.27-.47 20.92 10.25 10.6-9.34 6.68 12.4 14.6-7.83-.7 13.86 21.97-46.93-.06.4 3.49.18.36 40.43 17.83-17.8v16.18l12.85-1.49-2.88 13.76 20.38-9.96-.19.39 3.22 1.29 1.2-3.19-3.51 12.89 15.79 4.31-4.91 19.69 25.85-15.4-.22.31 2.94 1.81 3.63-5.9.11-.07-19.06 30.65 23.12 9.14-20.36 12.41L276.39 171l-.06-.09-2.86 1.92.23.3-30.47-19.02-7.92 14.33-15.15-2.29v-1.96h-1.74l-.27 1.66z"/><path d="M220.16 166.15l-2.01-.3.27-1.66h1.74v1.96zM175.23 18.32l-.3-7.25.23-.49.07 7.74z"/><path d="M174.93 11.07l.3 7.25v.02l-3.49-.18.06-.4 3.13-6.69zM174.48 0l.45 11.07-3.13 6.69L174.48 0zm-24.57 194.38l1.71 27.18-4.05-21.28 2.34-5.9z"/><path d="M149.87 193.75l.04.63-2.34 5.9-.8-4.18-.29-1.95 3.39-.4z"/><path d="M147.57 200.28l-.13.32-.67-4.5.8 4.18zm-.8-4.18l-.37-1.94.08-.01.29 1.95zM97.73 45.35l.27.47-3.12 1.5-.15-.32-1.29-3.75 4.29 2.1zm-7.62-13.27l-.17.46-.04-.82.21.36z"/><path d="M89.9 31.72l.04.82.17-.46 7.62 13.27-4.29-2.1L94.73 47l-6.67-14.39-.21-.44.17-.37 9.91-21.23-7.82 21.51-.21-.36zM29.62 162v.01L0 165.15l29.04-6.46.03.16-2.2 2.88 2.75.27z"/><path d="M29.07 158.85l.55 3.15-2.75-.27 2.2-2.88zM7.83 58.15l11.96 26.64h-4.02L7.83 58.15z"/></g><g fill="#fcee21" fill-rule="nonzero" stroke-width="3.33" stroke="#000"><path d="M30.04 121.5c1.088-.544 2.032-1.112 2.832-1.704.8-.592 1.584-1.176 2.352-1.752a20.53 20.53 0 0 0 1.968-1.944 11.08 11.08 0 0 0 1.536-2.232c.416-.8.712-1.632.888-2.496.176-.864.184-1.76.024-2.688-.352-1.696-.904-3.184-1.656-4.464a17.95 17.95 0 0 0-2.808-3.6c-.864-.832-1.968-1.464-3.312-1.896-1.344-.432-2.824-.696-4.44-.792a30.843 30.843 0 0 0-5.112.144c-1.792.192-3.56.496-5.304.912a46.98 46.98 0 0 0-5.016 1.488c-1.6.576-3.008 1.2-4.224 1.872a127.26 127.26 0 0 1-.456 7.8c-.24 2.736-.512 5.456-.816 8.16a757.735 757.735 0 0 0-.84 7.824 128.5 128.5 0 0 0-.528 6.744c-.064.608-.064 1.104 0 1.488.064.384.176.728.336 1.032.16.304.376.592.648.864s.584.6.936.984c.96.736 1.8 1.336 2.52 1.8.72.464 1.56.904 2.52 1.32.512.288.96.496 1.344.624.384.128.776.208 1.176.24.4.032.816.016 1.248-.048.432-.064.952-.176 1.56-.336a50.504 50.504 0 0 0 7.464-2.544 31.587 31.587 0 0 0 3.6-1.824c1.136-.672 2.12-1.376 2.952-2.112 1.216-.96 2.096-1.944 2.64-2.952s.736-2.232.576-3.672c-.256-1.216-.776-2.4-1.56-3.552a8.098 8.098 0 0 0-3.048-2.688zm-12.672-3.408a101.87 101.87 0 0 0 1.152-4.8c.32-1.504.704-2.944 1.152-4.32 1.376-.64 2.656-1.12 3.84-1.44 1.184-.32 2.232-.504 3.144-.552.912-.048 1.656.032 2.232.24.576.208.928.52 1.056.936.128.512-.064 1.192-.576 2.04-.512.848-1.32 1.744-2.424 2.688-1.104.944-2.464 1.88-4.08 2.808-1.616.928-3.448 1.728-5.496 2.4zm-1.824 7.968c1.28-.416 2.448-.696 3.504-.84 1.056-.144 1.984-.168 2.784-.072.8.096 1.44.272 1.92.528s.8.544.96.864c.128.544-.04 1.144-.504 1.8-.464.656-1.176 1.312-2.136 1.968-.96.656-2.128 1.28-3.504 1.872-1.376.592-2.896 1.096-4.56 1.512.224-1.28.472-2.536.744-3.768.272-1.232.536-2.52.792-3.864zm50.736-24.096c-1.088-.864-2.456-1.6-4.104-2.208a27.316 27.316 0 0 0-5.208-1.344c-1.408-.224-2.888-.112-4.44.336-1.552.448-2.888 1.104-4.008 1.968a26.49 26.49 0 0 0-4.392 4.872 31.956 31.956 0 0 0-3.192 5.736 33.004 33.004 0 0 0-1.968 6.216 32.86 32.86 0 0 0-.72 6.264c-.032 2.048.144 4 .528 5.856.384 1.856.96 3.52 1.728 4.992a8.222 8.222 0 0 0 1.968 2.4c.832.704 1.68 1.28 2.544 1.728a13.94 13.94 0 0 0 3.504 1.224c1.28.272 2.528.472 3.744.6 1.824.192 3.44.12 4.848-.216 1.408-.336 2.752-1 4.032-1.992 1.888-1.664 3.48-3.696 4.776-6.096a36.814 36.814 0 0 0 3.072-7.656 41.134 41.134 0 0 0 1.416-8.16c.192-2.736.112-5.272-.24-7.608-.256-1.408-.664-2.664-1.224-3.768-.56-1.104-1.448-2.152-2.664-3.144zm-7.728 4.8c.64.192 1.112.856 1.416 1.992.304 1.136.456 2.504.456 4.104 0 1.568-.128 3.256-.384 5.064a39.407 39.407 0 0 1-1.008 4.968 37.547 37.547 0 0 1-1.704 5.064c-.656 1.552-1.352 2.856-2.088 3.912s-1.472 1.84-2.208 2.352c-.736.512-1.44.656-2.112.432-.736-.224-1.296-.832-1.68-1.824-.384-.992-.608-2.184-.672-3.576-.064-1.392 0-2.896.192-4.512.192-1.616.512-3.176.96-4.68a39.8 39.8 0 0 1 1.752-4.776 35.6 35.6 0 0 1 2.328-4.488c.832-1.344 1.664-2.408 2.496-3.192.832-.784 1.584-1.064 2.256-.84zm41.04-4.8c-1.088-.864-2.456-1.6-4.104-2.208a27.316 27.316 0 0 0-5.208-1.344c-1.408-.224-2.888-.112-4.44.336-1.552.448-2.888 1.104-4.008 1.968a26.49 26.49 0 0 0-4.392 4.872 31.956 31.956 0 0 0-3.192 5.736 33.004 33.004 0 0 0-1.968 6.216 32.86 32.86 0 0 0-.72 6.264c-.032 2.048.144 4 .528 5.856.384 1.856.96 3.52 1.728 4.992a8.222 8.222 0 0 0 1.968 2.4c.832.704 1.68 1.28 2.544 1.728a13.94 13.94 0 0 0 3.504 1.224c1.28.272 2.528.472 3.744.6 1.824.192 3.44.12 4.848-.216 1.408-.336 2.752-1 4.032-1.992 1.888-1.664 3.48-3.696 4.776-6.096a36.814 36.814 0 0 0 3.072-7.656 41.134 41.134 0 0 0 1.416-8.16c.192-2.736.112-5.272-.24-7.608-.256-1.408-.664-2.664-1.224-3.768-.56-1.104-1.448-2.152-2.664-3.144zm-7.728 4.8c.64.192 1.112.856 1.416 1.992.304 1.136.456 2.504.456 4.104 0 1.568-.128 3.256-.384 5.064a39.407 39.407 0 0 1-1.008 4.968 37.547 37.547 0 0 1-1.704 5.064c-.656 1.552-1.352 2.856-2.088 3.912s-1.472 1.84-2.208 2.352c-.736.512-1.44.656-2.112.432-.736-.224-1.296-.832-1.68-1.824-.384-.992-.608-2.184-.672-3.576-.064-1.392 0-2.896.192-4.512.192-1.616.512-3.176.96-4.68a39.8 39.8 0 0 1 1.752-4.776 35.6 35.6 0 0 1 2.328-4.488c.832-1.344 1.664-2.408 2.496-3.192.832-.784 1.584-1.064 2.256-.84zm45.888-.576c.992-.064 1.576-.232 1.752-.504.176-.272.168-.776-.024-1.512a14.66 14.66 0 0 0-.96-2.544 10.754 10.754 0 0 0-1.584-2.4c-.32-.416-.696-.712-1.128-.888-.432-.176-1.144-.264-2.136-.264a162.91 162.91 0 0 0-6.408.36 251.186 251.186 0 0 0-14.592 1.512c-2.384.32-4.52.672-6.408 1.056-.608.16-1.008.36-1.2.6-.192.24-.096.728.288 1.464.352.704.808 1.568 1.368 2.592s1.176 1.872 1.848 2.544c.64.672 1.216 1.08 1.728 1.224.512.144 1.168.12 1.968-.072.576-.16 1.296-.296 2.16-.408.864-.112 1.76-.248 2.688-.408-.48 2.176-.96 4.536-1.44 7.08-.48 2.544-.92 5.064-1.32 7.56a231.85 231.85 0 0 0-1.032 7.104c-.288 2.24-.48 4.128-.576 5.664-.128.608-.112 1.128.048 1.56.16.432.424.808.792 1.128.368.32.824.592 1.368.816.544.224 1.152.432 1.824.624.672.192 1.28.368 1.824.528.544.16 1.024.248 1.44.264.416.016.744-.048.984-.192.24-.144.392-.44.456-.888a283.05 283.05 0 0 1 1.56-7.536 524.585 524.585 0 0 1 1.896-8.28 734.983 734.983 0 0 1 2.088-8.568l2.088-8.352c1.568-.16 3.088-.312 4.56-.456 1.472-.144 2.832-.28 4.08-.408zm-2.928 24c-.672.32-.976.784-.912 1.392.064.64.8 1.552 2.208 2.736 2.592 2.432 5.112 4.144 7.56 5.136a18.7 18.7 0 0 0 7.56 1.392c1.92-.032 3.568-.272 4.944-.72 1.376-.448 2.544-1.008 3.504-1.68.96-.672 1.728-1.4 2.304-2.184.576-.784 1.024-1.512 1.344-2.184.512-.96.68-1.856.504-2.688-.176-.832-.592-1.624-1.248-2.376-.656-.752-1.488-1.488-2.496-2.208a85.824 85.824 0 0 0-3.216-2.184 181.796 181.796 0 0 1-3.432-2.28 23.562 23.562 0 0 1-3.12-2.52c-.736-.672-1.2-1.432-1.392-2.28a6.42 6.42 0 0 1-.048-2.592c.16-.88.464-1.752.912-2.616.448-.864.968-1.672 1.56-2.424a16.22 16.22 0 0 1 1.872-2.016c.656-.592 1.256-1.032 1.8-1.32.608-.448 1.048-.632 1.32-.552.272.08.432.32.48.72.048.4.008.936-.12 1.608s-.28 1.384-.456 2.136c-.176.752-.352 1.496-.528 2.232a16.337 16.337 0 0 0-.36 1.968c-.352 2.752 1.664 4.864 6.048 6.336.8.352 1.4.44 1.8.264.4-.176.792-.584 1.176-1.224.352-.672.696-1.504 1.032-2.496a60.38 60.38 0 0 0 .96-3.12c.304-1.088.568-2.16.792-3.216.224-1.056.4-2 .528-2.832 0-.48-.008-1-.024-1.56a7.95 7.95 0 0 0-.24-1.704 6.907 6.907 0 0 0-.744-1.776c-.352-.608-.848-1.216-1.488-1.824-.992-.896-2.216-1.728-3.672-2.496a33.055 33.055 0 0 0-4.344-1.92 11.904 11.904 0 0 0-2.784-.504 11.46 11.46 0 0 0-2.496.12 8.44 8.44 0 0 0-2.064.6c-.608.272-1.104.552-1.488.84a23.7 23.7 0 0 0-3.48 2.664 28.127 28.127 0 0 0-3.12 3.36c-.944 1.2-1.76 2.44-2.448 3.72-.688 1.28-1.176 2.496-1.464 3.648-.416 1.312-.608 2.56-.576 3.744.032 1.184.24 2.304.624 3.36s.92 2.04 1.608 2.952a13.11 13.11 0 0 0 2.376 2.424c.8.672 1.696 1.336 2.688 1.992a102.53 102.53 0 0 0 2.976 1.896c.992.608 1.928 1.2 2.808 1.776a27.23 27.23 0 0 1 2.208 1.584c.592.48.992.904 1.2 1.272.208.368.12.68-.264.936-.896.736-2.352.864-4.368.384-2.016-.48-4.384-1.568-7.104-3.264a5.92 5.92 0 0 0-1.608-.744 7.834 7.834 0 0 0-1.848-.312 9.66 9.66 0 0 0-1.92.096 7.04 7.04 0 0 0-1.824.528z"/><path d="M198.472 106.188c.992-.064 1.576-.232 1.752-.504.176-.272.168-.776-.024-1.512a14.66 14.66 0 0 0-.96-2.544 10.754 10.754 0 0 0-1.584-2.4c-.32-.416-.696-.712-1.128-.888-.432-.176-1.144-.264-2.136-.264a162.91 162.91 0 0 0-6.408.36 251.186 251.186 0 0 0-14.592 1.512c-2.384.32-4.52.672-6.408 1.056-.608.16-1.008.36-1.2.6-.192.24-.096.728.288 1.464.352.704.808 1.568 1.368 2.592s1.176 1.872 1.848 2.544c.64.672 1.216 1.08 1.728 1.224.512.144 1.168.12 1.968-.072.576-.16 1.296-.296 2.16-.408.864-.112 1.76-.248 2.688-.408-.48 2.176-.96 4.536-1.44 7.08-.48 2.544-.92 5.064-1.32 7.56a231.85 231.85 0 0 0-1.032 7.104c-.288 2.24-.48 4.128-.576 5.664-.128.608-.112 1.128.048 1.56.16.432.424.808.792 1.128.368.32.824.592 1.368.816.544.224 1.152.432 1.824.624.672.192 1.28.368 1.824.528.544.16 1.024.248 1.44.264.416.016.744-.048.984-.192.24-.144.392-.44.456-.888a283.05 283.05 0 0 1 1.56-7.536 524.585 524.585 0 0 1 1.896-8.28 734.983 734.983 0 0 1 2.088-8.568l2.088-8.352c1.568-.16 3.088-.312 4.56-.456 1.472-.144 2.832-.28 4.08-.408zm9.744 22.464A37.246 37.246 0 0 0 211 131.7a102.465 102.465 0 0 0 3.072 2.904 63.803 63.803 0 0 0 2.976 2.544c.96.768 1.808 1.408 2.544 1.92 1.12.672 2.104 1.048 2.952 1.128.848.08 1.624.024 2.328-.168a47.256 47.256 0 0 0 1.464-.264c.4-.08.888-.344 1.464-.792.48-.352.752-.688.816-1.008.064-.32-.224-.752-.864-1.296-.8-.64-1.656-1.392-2.568-2.256a146.446 146.446 0 0 1-5.472-5.472c-.88-.928-1.688-1.808-2.424-2.64 3.584-1.6 6.664-3.328 9.24-5.184 2.576-1.856 4.424-3.888 5.544-6.096.736-1.376.896-3.136.48-5.28-.512-2.016-1.224-3.72-2.136-5.112a30.163 30.163 0 0 0-3.048-3.912c-1.408-1.376-3.048-2.216-4.92-2.52-1.872-.304-3.856-.272-5.952.096s-4.224.984-6.384 1.848c-2.16.864-4.232 1.744-6.216 2.64-.416.224-.816.792-1.2 1.704-.384.912-.736 2.064-1.056 3.456a77.565 77.565 0 0 0-.912 4.704 155.744 155.744 0 0 0-.792 5.4c-.24 1.856-.464 3.712-.672 5.568a406.997 406.997 0 0 0-.96 9.552c-.112 1.28-.2 2.256-.264 2.928-.064.832.016 1.496.24 1.992.224.496.64.92 1.248 1.272.608.32 1.248.544 1.92.672.672.128 1.44.304 2.304.528.736.16 1.24.16 1.512 0s.488-.496.648-1.008c.352-1.728.712-3.488 1.08-5.28.368-1.792.776-3.664 1.224-5.616zm5.136-19.488c1.248-.608 2.432-1.024 3.552-1.248 1.12-.224 2.144-.336 3.072-.336 1.888 0 3.024.448 3.408 1.344.192.544.032 1.312-.48 2.304-.512.992-1.344 2.04-2.496 3.144s-2.584 2.192-4.296 3.264c-1.712 1.072-3.672 1.976-5.88 2.712a227.492 227.492 0 0 0 1.632-5.952c.48-1.856.976-3.6 1.488-5.232zm41.088 21.648c.096 1.312.192 2.52.288 3.624a61.25 61.25 0 0 0 .336 3.048c.128.896.344 1.52.648 1.872.304.352.84.64 1.608.864a8.282 8.282 0 0 0 2.16.456 34.03 34.03 0 0 0 2.304.072c.832 0 1.368-.112 1.608-.336.24-.224.36-.624.36-1.2-.032-2.752-.04-5.736-.024-8.952a640.7 640.7 0 0 1 .12-9.624c.064-3.2.16-6.272.288-9.216.128-2.944.288-5.552.48-7.824.096-.928.008-1.68-.264-2.256-.272-.576-.904-1.04-1.896-1.392-.736-.192-1.464-.4-2.184-.624a30.932 30.932 0 0 0-2.352-.624 34.58 34.58 0 0 0-2.808-.504 39.082 39.082 0 0 0-3.504-.312c-1.504-.128-2.64.08-3.408.624a6.286 6.286 0 0 0-1.872 2.112c-1.344 2.4-2.76 5.144-4.248 8.232a389.12 389.12 0 0 0-4.368 9.384 335.75 335.75 0 0 0-3.984 9.216c-1.232 2.976-2.232 5.568-3 7.776-.192.672-.28 1.208-.264 1.608.016.4.104.728.264.984.16.256.384.472.672.648.288.176.624.392 1.008.648a25.02 25.02 0 0 0 1.512.696c.496.208.952.392 1.368.552.736.256 1.288.336 1.656.24.368-.096.68-.416.936-.96a400.92 400.92 0 0 1 1.392-3.144 73.532 73.532 0 0 1 1.68-3.48c1.824-.48 3.928-.888 6.312-1.224a970.18 970.18 0 0 1 7.176-.984zm-9.168-6.72c1.504-3.04 3-5.976 4.488-8.808a506.104 506.104 0 0 1 4.152-7.752 208.04 208.04 0 0 0-.048 7.752c.032 2.608.08 5.224.144 7.848a99.46 99.46 0 0 0-8.736.96zm32.496 5.472a67.905 67.905 0 0 0 5.832-1.848 54.37 54.37 0 0 0 5.64-2.424 44.498 44.498 0 0 0 4.968-2.88c1.52-1.024 2.824-2.08 3.912-3.168a24.43 24.43 0 0 0 1.848-2.064 11.59 11.59 0 0 0 1.392-2.208 8.01 8.01 0 0 0 .72-2.448c.112-.864.056-1.792-.168-2.784-.512-2.016-1.224-3.72-2.136-5.112a32.876 32.876 0 0 0-3-3.912 7.797 7.797 0 0 0-3.288-1.896c-1.264-.368-2.632-.536-4.104-.504-1.472.032-3 .232-4.584.6-1.584.368-3.16.832-4.728 1.392a52.325 52.325 0 0 0-4.56 1.872 95.666 95.666 0 0 0-4.032 1.992c-.32.16-.6.952-.84 2.376s-.456 3.192-.648 5.304a502.002 502.002 0 0 0-.576 6.912c-.192 2.496-.384 4.904-.576 7.224-.192 2.32-.408 4.392-.648 6.216-.24 1.824-.504 3.12-.792 3.888-.192.832-.136 1.504.168 2.016.304.512.76.936 1.368 1.272a9.16 9.16 0 0 0 2.088.816c.784.208 1.592.424 2.424.648.832.16 1.392.16 1.68 0 .288-.16.512-.496.672-1.008.256-1.632.552-3.296.888-4.992.336-1.696.696-3.456 1.08-5.28zm2.064-9.024c.48-2.016.952-3.952 1.416-5.808.464-1.856.952-3.648 1.464-5.376a19.68 19.68 0 0 1 3.48-1.152c1.136-.256 2.16-.4 3.072-.432.912-.032 1.664.056 2.256.264.592.208.936.504 1.032.888.256.704.16 1.568-.288 2.592-.448 1.024-1.216 2.088-2.304 3.192-1.088 1.104-2.48 2.176-4.176 3.216-1.696 1.04-3.68 1.912-5.952 2.616z"/></g></svg>