<svg viewBox="0 0 220 566" xmlns="http://www.w3.org/2000/svg" fill-rule="evenodd" clip-rule="evenodd" stroke-linejoin="round" stroke-miterlimit="1.414"><path d="M219.3 465.23s-1.06.35-2.89.98c-1.84.63-4.45 1.56-7.55 2.72-3.1 1.17-6.67 2.6-10.41 4.31-1.87.82-3.75 1.81-5.66 2.78-.96.49-1.87 1.04-2.82 1.55-.92.57-1.87 1.1-2.75 1.71-.91.59-1.83 1.16-2.67 1.8-.43.32-.88.62-1.29.95l-1.22 1.01c-.41.33-.8.68-1.17 1.04-.38.34-.76.69-1.14 1.04-.68.75-1.42 1.46-2.02 2.24-.6.76-1.2 1.52-1.69 2.34-.24.4-.53.78-.74 1.18-.2.42-.4.82-.6 1.22l-.29.6-.21.62c-.15.41-.29.81-.44 1.21-.25.82-.36 1.63-.55 2.4-.1.78-.12 1.54-.2 2.26-.04.73.05 1.43.06 2.09-.01.65.15 1.27.23 1.83.08.57.17 1.09.25 1.56.51 1.88.81 2.95.81 2.95s-.53-.97-1.41-2.74c-.17-.48-.35-1-.55-1.55-.2-.57-.43-1.18-.52-1.87-.13-.69-.32-1.41-.39-2.2-.05-.79-.1-1.63-.09-2.5.1-.87.13-1.79.31-2.72.11-.46.23-.93.35-1.41.06-.24.12-.48.19-.72l.27-.71c.18-.46.37-.95.56-1.43.2-.48.47-.92.72-1.39.45-.97 1.1-1.83 1.72-2.73.64-.9 1.4-1.71 2.11-2.57.79-.78 1.55-1.65 2.44-2.34l1.29-1.11c.45-.36.91-.7 1.36-1.05.9-.7 1.86-1.32 2.8-1.96.96-.63 1.96-1.17 2.93-1.75 1-.52 1.97-1.08 2.97-1.57 1-.49 1.99-.98 2.99-1.39 1.01-.44 2-.85 2.98-1.23 1.96-.79 3.89-1.42 5.72-2.02 1.85-.57 3.6-1.05 5.23-1.46 3.25-.81 6.01-1.31 7.94-1.6 1.93-.29 3.04-.37 3.04-.37" fill-rule="nonzero"/><path d="M205.6 458.2l-3.37.84-1.08.26-3.97 1c-1.69.42-3.32.98-4.99 1.46-.84.23-1.65.51-2.47.81l-2.43.88-1.22.44-1.18.51-2.39 1.01c-1.58.67-3.07 1.52-4.62 2.26l-2.22 1.3c-.75.43-1.48.87-2.17 1.37l-2.11 1.46-1.98 1.6c-.67.51-1.27 1.12-1.88 1.71-.61.59-1.24 1.16-1.77 1.82-.52.65-1.13 1.25-1.62 1.94-.47.68-.99 1.36-1.45 2.07l-1.27 2.18-1.06 2.27-.85 2.39c-.2.81-.43 1.62-.61 2.44-.31 1.66-.56 3.33-.59 5.02-.02.85-.04 1.7.02 2.54.02.85.12 1.7.21 2.55.09.85.28 1.68.4 2.52.2.83.34 1.68.59 2.5.43 1.67.99 3.29 1.64 4.88.59 1.46 1.26 2.92 2.03 4.26.07.11.13.22.19.34l1.67 2.79-2.83-1.59-5.86-3.32c-.99-.54-2-1.01-3-1.52l-3.03-1.49-2.67-1.12c.08 1.02.17 2.48.29 4.23.06.88.13 1.83.19 2.83.09 1 .09 2.08.14 3.18.07 2.22.14 4.57.22 6.93 0 2.34.01 4.69.01 6.89.02 2.2-.04 4.26-.11 6.02-.09 3.29-.84 13.96-.93 15.29.07-1.3.62-12 .44-15.29-.09-1.75-.19-3.79-.4-5.98-.19-2.19-.39-4.52-.59-6.85-.27-2.31-.54-4.63-.79-6.8-.14-1.08-.23-2.13-.4-3.12-.15-1-.3-1.94-.43-2.81-.53-3.47-.88-5.79-.88-5.79l.05-.01c-.13-.04-.24-.08-.37-.12l-3.18-1.07c-1.07-.32-2.16-.55-3.25-.82-1.07-.31-2.18-.42-3.29-.58-.55-.08-1.09-.17-1.64-.23l-1.65-.06c-.49-.01-.97-.05-1.46-.04.04 1.01.09 2.15.15 3.41.05 1.22.1 2.55.15 3.94.1 1.4.04 2.89.05 4.43-.02 3.06-.04 6.34-.05 9.61-.03 1.63-.12 3.27-.19 4.87-.06 1.6-.12 3.18-.18 4.71-.07 1.53-.13 3-.19 4.41-.1 1.39-.19 2.72-.28 3.93-.35 4.88-1.16 14.06-1.16 14.06s.61-9.19.67-14.07l.03-3.94c-.02-1.41-.05-2.88-.08-4.4l-.09-4.7c-.03-1.6-.04-3.24-.11-4.85-.19-3.24-.37-6.47-.53-9.51-.11-1.52-.13-2.97-.3-4.37-.15-1.4-.28-2.71-.41-3.92-.13-1.25-.24-2.39-.35-3.39-.2.02-.43.09-.64.12-.54.1-1.09.18-1.6.36-.53.15-1.07.28-1.56.5-.52.19-1.03.39-1.51.66-.98.47-1.88 1.11-2.72 1.79-.82.71-1.57 1.51-2.2 2.4-.63.88-1.17 1.88-1.49 2.85l-.56 1.69-.39-1.74-.04-.21-.33-1.46c-.17-.55-.31-1.1-.51-1.64-.42-1.05-.88-2.09-1.49-3.05-.58-.99-1.31-1.87-2.07-2.7a16.8 16.8 0 0 0-2.2-1.93c.01.27.03.58.05.91.07.89.14 1.97.22 3.21.07 1.25.21 2.63.24 4.18.03 1.54.08 3.21.12 4.97.02.89.04 1.79.08 2.72-.01.93-.03 1.87-.04 2.83-.02 1.91-.04 3.9-.07 5.92-.08 2-.18 4.05-.26 6.09-.07 2.05-.25 4.08-.39 6.09-.17 2-.27 3.98-.49 5.88-.2 1.91-.39 3.75-.57 5.49-.19 1.75-.43 3.38-.62 4.9-.2 1.52-.35 2.91-.56 4.14-.18 1.23-.35 2.3-.48 3.18-.24 1.55-.38 2.51-.41 2.72.02-.22.11-1.19.27-2.73.1-.89.21-1.96.34-3.21.15-1.23.22-2.62.36-4.15.11-1.52.26-3.16.38-4.91.09-1.75.19-3.6.29-5.5.13-1.9.14-3.88.2-5.88.05-2 .13-4.02.1-6.06-.01-2.03-.03-4.07-.04-6.06-.07-2-.13-3.96-.21-5.87-.04-.95-.07-1.88-.1-2.79-.08-.91-.14-1.81-.2-2.67-.13-1.73-.26-3.38-.37-4.88-.09-1.51-.3-2.9-.43-4.13-.14-1.24-.27-2.31-.37-3.2-.2-1.77-.32-2.78-.32-2.78l.67-.07.47-.89c.43.23.86.47 1.28.73l.72-.07s.02.2.05.57c.1.08.2.14.29.21.99.68 1.88 1.49 2.72 2.35.8.9 1.57 1.84 2.17 2.88.64 1.01 1.13 2.12 1.56 3.24.2.57.36 1.14.55 1.71l.05.24c.3-.59.63-1.15 1.01-1.7.68-.95 1.47-1.82 2.35-2.59.91-.75 1.86-1.45 2.91-1.95.52-.29 1.06-.51 1.61-.72.52-.24 1.09-.38 1.65-.55.55-.19 1.13-.27 1.7-.39.24-.04.45-.1.73-.13l.15-.03.85-.07 1.68-.15.25-.01c.49-.01 1 .03 1.49.03l1.74.06c.58.05 1.14.14 1.71.22 1.14.16 2.29.26 3.39.57 1.11.27 2.24.48 3.34.79l3.26 1.02c.98.29 1.91.65 2.85 1.03l.19-.02.01.11.17.06 3.18 1.26 3.09 1.44c1.02.5 2.07.96 3.08 1.48l3.39 1.82c-.37-.72-.69-1.44-1.02-2.19-.71-1.65-1.34-3.32-1.83-5.06-.28-.86-.46-1.74-.68-2.61-.16-.88-.38-1.76-.48-2.66-.13-.89-.26-1.79-.3-2.69-.08-.91-.08-1.82-.08-2.72 0-1.82.2-3.64.5-5.43.18-.9.41-1.78.63-2.67l.87-2.6 1.12-2.51 1.34-2.39c.49-.77 1.03-1.51 1.55-2.26.51-.76 1.15-1.41 1.71-2.12.56-.72 1.23-1.35 1.87-1.99.63-.64 1.26-1.3 1.98-1.86l2.08-1.73 2.2-1.59a25.6 25.6 0 0 1 2.26-1.46l2.31-1.4c1.6-.8 3.16-1.69 4.79-2.41l2.46-1.07 1.23-.54 1.26-.46 2.49-.93c.84-.33 1.68-.61 2.53-.87 1.7-.5 3.39-1.09 5.11-1.53l1.93-.51c-.25-.18-.5-.37-.74-.56-1.11-.87-2.21-1.77-3.26-2.71-1.06-.93-2.09-1.91-3.09-2.91-1-1-1.97-2.03-2.9-3.12-.92-1.07-1.83-2.18-2.66-3.34-.44-.57-.84-1.17-1.23-1.77-.4-.59-.79-1.2-1.14-1.83-.35-.63-.72-1.24-1.04-1.9-.31-.65-.66-1.29-.93-1.97a29.44 29.44 0 0 1-1.45-4.14c-.17-.71-.35-1.43-.5-2.15l-.29-2.2c-.04-.74-.05-1.48-.09-2.22-.02-.75.09-1.49.13-2.23.02-.75.21-1.47.33-2.21l.21-1.1.31-1.05c.37-1.46 1.02-2.78 1.59-4.14.72-1.27 1.37-2.61 2.25-3.77.42-.58.8-1.21 1.28-1.76l1.39-1.66c.44-.57.96-1.08 1.46-1.57l1.16-1.15c-1.59 0-3.18-.01-4.77-.12-1.59-.07-3.18-.22-4.76-.39-1.58-.18-3.16-.42-4.73-.7a63.09 63.09 0 0 1-4.68-1.04c-1.54-.41-3.08-.86-4.59-1.42-.75-.24-1.5-.55-2.24-.87-.75-.29-1.49-.6-2.21-.97-1.47-.66-2.87-1.45-4.26-2.28l-2.04-1.32-1.93-1.48c-1.24-1.03-2.48-2.09-3.57-3.3l-.83-.88c-.28-.31-.52-.63-.77-.95-.49-.64-1.05-1.24-1.48-1.94l-1.34-2.03c-.4-.7-.77-1.43-1.15-2.14-.41-.71-.69-1.46-1.01-2.21-.29-.75-.66-1.47-.87-2.25l-.73-2.31c-.24-.76-.37-1.56-.56-2.34-.4-1.56-.55-3.15-.77-4.73-.05-.45-.09-.88-.12-1.32-.12.16-.24.3-.35.46-.82 1.08-1.69 2.12-2.6 3.12-.43.51-.9 1-1.38 1.48-.47.48-.94.98-1.44 1.42-.43.4-.86.81-1.3 1.19.51 2.33 1.03 4.67 1.55 7 1.28 5.64 2.27 11.31 3.33 16.9.26 1.39.54 2.77.77 4.16.2 1.31.4 2.62.6 3.9.35.24.7.48 1.06.7.71.46 1.43.95 2.19 1.36.75.43 1.5.85 2.28 1.23.76.41 1.54.78 2.34 1.13.78.37 1.58.7 2.39 1.01.8.33 1.61.62 2.44.92.81.29 1.63.58 2.47.83.82.27 1.66.53 2.5.75.84.22 1.69.46 2.53.66.85.2 1.7.44 2.55.62l2.57.54 1.28.27-.21 1.27-.33 1.94c-.11.66-.16 1.31-.24 1.96-.1.66-.11 1.31-.15 1.97-.05.66-.05 1.31-.05 1.98l.01.94.06 1.03c.06.66.06 1.37.15 2.01l.25 1.94c.08.65.26 1.31.37 1.96.13.64.25 1.3.44 1.94l.53 1.93.64 1.9c.21.63.45 1.25.71 1.87l.77 1.86.88 1.8c.55 1.22 1.29 2.35 1.94 3.53l.29.55-.52.27-.49.27-2.23 1.2c-.91.47-1.82.97-2.67 1.54l-2.62 1.66c-.86.56-1.66 1.21-2.5 1.81-.2.16-.41.31-.62.46l-.57-.76c.21-.16.41-.31.61-.46.86-.61 1.66-1.29 2.53-1.86l2.63-1.71c.86-.6 1.78-1.09 2.69-1.61l2.18-1.25c-.6-1.01-1.26-2-1.79-3.03l-.99-1.81-.89-1.87c-.3-.62-.58-1.25-.82-1.89l-.77-1.93-.64-1.98c-.24-.66-.39-1.33-.56-2.01-.16-.67-.38-1.33-.49-2.02l-.38-2.09c-.12-.69-.17-1.36-.25-2.03l-.11-1.02c-.04-.42-.04-.71-.06-1.08-.04-.7-.07-1.4-.05-2.1.01-.69 0-1.4.06-2.1.05-.7.06-1.4.16-2.09l.11-.79-1.42-.25c-.88-.17-1.76-.38-2.64-.57-.89-.18-1.75-.44-2.63-.66-.87-.22-1.74-.5-2.6-.76-.87-.26-1.73-.55-2.57-.86-.87-.29-1.71-.61-2.54-.97-.86-.34-1.69-.7-2.5-1.1-.84-.37-1.66-.77-2.46-1.21-.81-.4-1.6-.87-2.38-1.33-.44-.25-.88-.53-1.31-.8.26 1.61.5 3.2.74 4.77.79 5.35 1.36 10.54 1.98 15.46.53 4.92.94 9.59 1.34 13.89.36 4.3.56 8.26.78 11.76.24 3.5.31 6.56.42 9.08.11 2.52.14 4.49.18 5.84.01.24.01.46.01.66l-.11.01c-.03-.2-.06-.42-.08-.66-.13-1.34-.38-3.3-.62-5.81-.26-2.5-.52-5.54-.97-9.02-.42-3.47-.9-7.39-1.41-11.67-.58-4.27-1.21-8.9-1.88-13.78-.76-4.88-1.56-10.01-2.39-15.32-.43-2.5-.89-5.03-1.33-7.59v-.02l.01.02-.09-.49c-.2-1.15-.4-2.31-.61-3.47h-.01c-.27-1.59-.56-3.18-.89-4.78-1.09-5.55-2.12-11.19-3.42-16.76-.39-1.84-.78-3.66-1.18-5.49-.14-.68-.28-1.36-.43-2.03-.06-.3-.13-.58-.19-.87-.67-2.79-1.35-5.56-2.01-8.31-.67-2.74-1.34-5.49-1.95-8.17-.63-2.71-1.25-5.39-1.85-8.02-1.2-5.27-2.35-10.37-3.44-15.19-1.06-4.84-2.2-9.39-2.86-13.64-1.52-8.5-2.65-15.6-3.5-20.57-.39-2.28-.67-4.12-.88-5.43l.2-.03c.32 1.29.76 3.09 1.28 5.34 1.12 4.91 2.8 11.91 4.67 20.33.24 1.05.47 2.13.72 3.22.25 1.1.57 2.2.86 3.31.58 2.26 1.18 4.58 1.8 6.97 1.23 4.78 2.51 9.82 3.85 15.03 1.32 5.23 2.68 10.63 4.06 16.12.62 2.49 1.24 5 1.88 7.53.13-.14.27-.28.42-.41.47-.45.9-.93 1.34-1.41.45-.47.88-.94 1.29-1.45.85-.98 1.65-2 2.41-3.05.63-.87 1.25-1.79 1.79-2.69.1-.17.21-.34.3-.51l1.83-3.15.33 3.7c.15 1.52.18 3.04.39 4.54.24 1.5.4 3.01.81 4.47.19.74.3 1.49.54 2.2l.72 2.14c.2.73.57 1.39.84 2.08.31.7.58 1.39.97 2.03.37.65.72 1.32 1.1 1.95l1.25 1.86c.42.63.93 1.17 1.4 1.76.24.28.46.58.71.85l.78.8c1.02 1.1 2.17 2.05 3.33 3l1.81 1.33 1.91 1.19c1.3.75 2.62 1.46 4 2.06.68.33 1.38.62 2.09.88.69.28 1.4.56 2.12.78 1.43.5 2.88.91 4.36 1.27 1.47.37 2.95.69 4.45.95 1.51.27 3.01.48 4.53.65 1.51.14 3.04.27 4.56.33 1.52.09 3.05.1 4.57.08 1.51-.02 3.07-.09 4.51-.22l5.14-.5-3.91 3.45c-.23.2-.45.39-.68.58-.79.68-1.59 1.36-2.35 2.06l-1.4 1.43c-.47.46-.94.93-1.34 1.45l-1.28 1.51c-.43.5-.77 1.07-1.15 1.6-.8 1.05-1.36 2.21-2.01 3.34-.49 1.18-1.06 2.35-1.37 3.6l-.28.92-.18.93c-.11.62-.28 1.25-.29 1.89-.03.63-.13 1.27-.1 1.91.02.64.03 1.27.06 1.92l.26 1.9.43 1.89c.34 1.25.74 2.48 1.27 3.68.22.61.54 1.19.82 1.78.28.6.61 1.17.94 1.74.32.58.67 1.15 1.03 1.7.35.56.72 1.12 1.12 1.65.77 1.09 1.6 2.13 2.47 3.15.86 1.03 1.78 2.02 2.72 2.99.94.96 1.91 1.9 2.92 2.79 1 .91 2.03 1.77 3.09 2.62 1.04.84 2.15 1.66 3.21 2.38l2.89 1.95z" fill-rule="nonzero"/><path d="M80.04 430.75v-.02l-.25-.01.25.03zm22.58 51.88l.04-.06.35.05 2.6.74c.43.14.87.23 1.29.39l1.26.5 2.5 1 2.39 1.24 1.19.62 1.13.74 2.23 1.5.63.42.68-.2 2.51-.74 2.73-.57.17-.04.03-.02.04.02.35-.04.68-.09 1.39-.18.34-.04c.02-.01.2-.01.3-.02l.67-.03 1.35-.07c.91-.09 1.81-.01 2.72-.01l1.35.03 1.36.11c.91.1 1.82.12 2.72.28l2.71.39 1.03.14.21-.99.62-2.95.31-1.47.47-1.49.97-2.96.05-.12h.01v.37h.01l.03-.25.04-.25.03-.03.12-.02.23-.02v-.01l-.06-.03.06-.29.16-.71.54-1.43c.21-.46.37-1 .59-1.39l.71-1.35.72-1.35c.24-.45.49-.89.79-1.31l1.69-2.56c.59-.84 1.27-1.61 1.91-2.42l.97-1.19 1.07-1.12c.71-.73 1.4-1.48 2.15-2.19l2.33-2.03c.56-.53 1.18-1 1.79-1.47.21-.15.42-.3.62-.46.84-.6 1.64-1.25 2.5-1.81l2.62-1.66c.85-.57 1.76-1.07 2.67-1.54l2.23-1.2.49-.27.52-.27-.29-.55c-.65-1.18-1.39-2.31-1.94-3.53l-.88-1.8-.77-1.86c-.26-.62-.5-1.24-.71-1.87l-.64-1.9-.53-1.93c-.19-.64-.31-1.3-.44-1.94-.11-.65-.29-1.31-.37-1.96l-.25-1.94c-.09-.64-.09-1.35-.15-2.01l-.06-1.03-.01-.94c0-.67 0-1.32.05-1.98.04-.66.05-1.31.15-1.97.08-.65.13-1.3.24-1.96l.33-1.94.21-1.27-1.28-.27-2.57-.54c-.85-.18-1.7-.42-2.55-.62-.84-.2-1.69-.44-2.53-.66-.84-.22-1.68-.48-2.5-.75-.84-.25-1.66-.54-2.47-.83-.83-.3-1.64-.59-2.44-.92a34 34 0 0 1-2.39-1.01c-.8-.35-1.58-.72-2.34-1.13-.78-.38-1.53-.8-2.28-1.23-.76-.41-1.48-.9-2.19-1.36-.36-.22-.71-.46-1.06-.7-.2-1.28-.4-2.59-.6-3.9-.23-1.39-.51-2.77-.77-4.16-1.06-5.59-2.05-11.26-3.33-16.9-.52-2.33-1.04-4.67-1.55-7 .44-.38.87-.79 1.3-1.19.5-.44.97-.94 1.44-1.42.48-.48.95-.97 1.38-1.48.91-1 1.78-2.04 2.6-3.12.11-.16.23-.3.35-.46.03.44.07.87.12 1.32.22 1.58.37 3.17.77 4.73.19.78.32 1.58.56 2.34l.73 2.31c.21.78.58 1.5.87 2.25.32.75.6 1.5 1.01 2.21.38.71.75 1.44 1.15 2.14l1.34 2.03c.43.7.99 1.3 1.48 1.94.25.32.49.64.77.95l.83.88c1.09 1.21 2.33 2.27 3.57 3.3l1.93 1.48 2.04 1.32c1.39.83 2.79 1.62 4.26 2.28.72.37 1.46.68 2.21.97.74.32 1.49.63 2.24.87 1.51.56 3.05 1.01 4.59 1.42 1.55.41 3.11.75 4.68 1.04 1.57.28 3.15.52 4.73.7 1.58.17 3.17.32 4.76.39 1.59.11 3.18.12 4.77.12l-1.16 1.15c-.5.49-1.02 1-1.46 1.57l-1.39 1.66c-.48.55-.86 1.18-1.28 1.76-.88 1.16-1.53 2.5-2.25 3.77-.57 1.36-1.22 2.68-1.59 4.14l-.31 1.05-.21 1.1c-.12.74-.31 1.46-.33 2.21-.04.74-.15 1.48-.13 2.23.04.74.05 1.48.09 2.22l.29 2.2c.15.72.33 1.44.5 2.15.39 1.42.86 2.81 1.45 4.14.27.68.62 1.32.93 1.97.32.66.69 1.27 1.04 1.9.35.63.74 1.24 1.14 1.83.39.6.79 1.2 1.23 1.77.83 1.16 1.74 2.27 2.66 3.34.93 1.09 1.9 2.12 2.9 3.12s2.03 1.98 3.09 2.91c1.05.94 2.15 1.84 3.26 2.71.24.19.49.38.74.56l-1.93.51c-1.72.44-3.41 1.03-5.11 1.53-.85.26-1.69.54-2.53.87l-2.49.93-1.26.46-1.23.54-2.46 1.07c-1.63.72-3.19 1.61-4.79 2.41l-2.31 1.4c-.77.45-1.54.93-2.26 1.46l-2.2 1.59-2.08 1.73c-.72.56-1.35 1.22-1.98 1.86-.64.64-1.31 1.27-1.87 1.99-.56.71-1.2 1.36-1.71 2.12-.52.75-1.06 1.49-1.55 2.26l-1.34 2.39-1.12 2.51-.87 2.6c-.22.89-.45 1.77-.63 2.67-.3 1.79-.5 3.61-.5 5.43 0 .9 0 1.81.08 2.72.04.9.17 1.8.3 2.69.1.9.32 1.78.48 2.66.22.87.4 1.75.68 2.61.49 1.74 1.12 3.41 1.83 5.06.33.75.65 1.47 1.02 2.19l-3.39-1.82c-1.01-.52-2.06-.98-3.08-1.48l-3.09-1.44-3.18-1.26-.17-.06-.01-.11-.19.02c-.94-.38-1.87-.74-2.85-1.03l-3.26-1.02c-1.1-.31-2.23-.52-3.34-.79-1.1-.31-2.25-.41-3.39-.57-.57-.08-1.13-.17-1.71-.22l-1.74-.06c-.49 0-1-.04-1.49-.03-.1-2.26-.15-3.61-.15-3.61l-3.16.23s.13 1.36.38 3.64c-.28.03-.49.09-.73.13-.57.12-1.15.2-1.7.39-.56.17-1.13.31-1.65.55-.55.21-1.09.43-1.61.72-1.05.5-2 1.2-2.91 1.95-.88.77-1.67 1.64-2.35 2.59-.38.55-.71 1.11-1.01 1.7l-.05-.24c-.19-.57-.35-1.14-.55-1.71-.43-1.12-.92-2.23-1.56-3.24-.6-1.04-1.37-1.98-2.17-2.88-.84-.86-1.73-1.67-2.72-2.35-.09-.07-.19-.13-.29-.21-.03-.37-.05-.57-.05-.57l-.72.07c-.42-.26-.85-.5-1.28-.73l-.75-.39a26.24 26.24 0 0 0-3.31-1.35 29.88 29.88 0 0 0-3.44-.94 42.84 42.84 0 0 0-3.5-.61c-4.71-.59-9.45-.56-14.15-.16-1.17.1-2.35.22-3.52.37-1.15.13-2.33.37-3.49.56l-3.29.58.16-.14c.99-.85 1.92-1.79 2.89-2.69.93-.92 1.8-1.92 2.69-2.88l1.24-1.57c.41-.53.84-1.05 1.18-1.63l1.08-1.7c.34-.57.63-1.2.94-1.8.33-.6.56-1.24.78-1.89.23-.65.49-1.29.6-1.99.68-2.68.6-5.65-.31-8.33-.26-.65-.47-1.33-.83-1.93-.31-.63-.63-1.26-1.04-1.82-.38-.59-.77-1.16-1.22-1.67-.42-.54-.88-1.07-1.36-1.54-.47-.5-.96-.97-1.48-1.42-.49-.45-1.01-.89-1.55-1.29-.52-.42-1.06-.82-1.62-1.2a25.9 25.9 0 0 0-1.68-1.1c-.57-.36-1.14-.7-1.71-1.02-.58-.33-1.18-.64-1.76-.94a61.41 61.41 0 0 0-3.6-1.7c-1.21-.51-2.43-1-3.68-1.45-.56-.2-1.12-.39-1.68-.58l.76-.89c.67-.92 1.37-1.81 2.02-2.76.59-.98 1.27-1.9 1.77-2.95l.8-1.53.66-1.61.32-.8.26-.85c.15-.56.36-1.1.47-1.68l.33-1.73c.09-.58.11-1.17.17-1.76.08-.59.01-1.18.01-1.77.01-.59-.05-1.18-.13-1.76-.07-.59-.15-1.18-.31-1.75-.14-.57-.24-1.15-.45-1.71-.35-1.12-.81-2.2-1.33-3.25a29.56 29.56 0 0 0-1.8-2.97l-1.05-1.39-1.1-1.31-1.18-1.24-1.25-1.18a42.5 42.5 0 0 0-2.61-2.2c-.9-.68-1.82-1.35-2.76-1.96-.87-.58-1.76-1.1-2.66-1.62l.26-.04c1.3-.24 2.6-.47 3.87-.74 1.28-.33 2.57-.57 3.83-.96 1.26-.38 2.53-.73 3.76-1.2.62-.23 1.25-.44 1.86-.69l1.82-.78c.61-.24 1.19-.55 1.78-.84.59-.31 1.19-.57 1.76-.91 1.15-.65 2.3-1.3 3.38-2.07.55-.36 1.09-.74 1.61-1.15.51-.42 1.06-.78 1.55-1.24.49-.44 1-.86 1.48-1.31l1.41-1.41c.88-.98 1.75-1.97 2.54-3.03 1.58-2.11 2.91-4.41 3.96-6.81.53-1.2.99-2.43 1.38-3.68.39-1.25.72-2.52.96-3.81.46-2.45.71-4.95.58-7.46l.11.09c.84 3.7 1.75 7.4 2.63 11.1 1.37 5.74 2.94 11.55 4.09 17.24.12.55.23 1.1.36 1.65l-.08.11-.39.49-.75.94c-.36.49-.8.92-1.2 1.38l-1.23 1.36c-.41.44-.86.85-1.29 1.27l-1.31 1.27c-.43.43-.92.8-1.37 1.2l-1.39 1.17c-.46.4-.96.74-1.45 1.09-1 .69-1.93 1.47-2.97 2.08l-3.1 1.89-.81.48.39.92.64 1.52c.22.5.38 1.02.57 1.54.19.51.38 1.03.52 1.55l.45 1.53.38 1.66.09.42.43.09.05.01.46.03v.03l-.42.2-.2.52-.01-.51-.1.8c.1.54.16 1.08.22 1.62s.12 1.08.13 1.63c.03.54.08 1.08.08 1.62l-.02 1.64c0 .13-.01.27-.02.4-.02.4-.07.82-.09 1.22-.01.28-.03.55-.06.82-.03.27-.07.54-.11.8-.04.27-.07.54-.11.81-.03.27-.07.54-.12.81l-.34 1.59c-.2 1.06-.56 2.1-.83 3.14l-.28 1.08.91.66c.64.45 1.28.87 1.89 1.35.63.45 1.24.93 1.85 1.41 1.2.96 2.35 1.98 3.43 3.07.56.52 1.08 1.08 1.59 1.65.53.55.98 1.16 1.49 1.74.44.61.94 1.2 1.35 1.84.43.62.85 1.25 1.23 1.9.41.64.75 1.31 1.12 1.98.35.67.64 1.35.96 2.05.25.7.58 1.4.78 2.1.23.69.46 1.38.64 2.18.09.36.21.83.27 1.1l.2 1.11c.15.74.21 1.49.3 2.24.11.75.09 1.51.14 2.26.02.74-.02 1.5-.03 2.26l-.01 1.46 1.31.25 2.75.54 1.38.3.69.2.04.04v.42h.14l-.01-.28-.01-.01-.01-.01-.08-.16.09-.06h.02l.01.03.01.04zm0 .01l-.02.03h.02v-.03z" fill="#f7931e" fill-rule="nonzero"/><path d="M190.7 212.08l-.06.4s-.49.16-1.33.36c-.83.2-2 .43-3.37.61-1.37.19-2.95.38-4.63.41-.83.01-1.7-.05-2.59-.09-.89-.05-1.79-.06-2.69-.01-.9.05-1.79.14-2.67.24-.87.13-1.74.24-2.57.41-1.65.32-3.17.75-4.45 1.22-.31.13-.62.25-.91.36-.28.13-.55.25-.8.36-.51.23-.93.48-1.29.66-.7.41-1.09.65-1.09.65l-.27-.31.93-.93c.32-.27.69-.63 1.16-.97.23-.18.48-.37.74-.57.28-.18.57-.37.87-.57a26.5 26.5 0 0 1 2.04-1.16c.74-.38 1.55-.72 2.4-1.06.85-.33 1.74-.63 2.66-.89.92-.26 1.86-.49 2.81-.69.95-.2 1.9-.4 2.85-.57.94-.19 1.87-.32 2.78-.35 1.81-.05 3.5.23 4.91.58 1.42.35 2.57.81 3.36 1.2.78.4 1.21.71 1.21.71M178.4 93.16l-6.18-.47-.54-.05-2.63-.21c-1.05-.01-2.11-.1-3.16-.06-1.05.03-2.12.02-3.16.14-.53.04-1.04.07-1.57.13l-1.56.22c-1.05.12-2.06.39-3.09.56-1.01.28-2.05.5-3.03.84-1.01.29-1.98.68-2.96 1.05-.95.43-1.92.83-2.83 1.34-.94.45-1.83 1.01-2.72 1.55l-1.31.86-1.27.94a40.447 40.447 0 0 0-4.67 4.21 38.886 38.886 0 0 0-3.93 4.92c-.6.87-1.14 1.76-1.65 2.68-.51.9-1 1.87-1.37 2.76l-.67 1.61-1.26-1.16c-.56-.5-1.2-1.04-1.84-1.54-.65-.5-1.3-.98-1.99-1.43-1.36-.91-2.78-1.72-4.26-2.39-2.95-1.35-6.16-2.18-9.38-2-.1.02-.21.02-.32.03-.18 1.03-.4 2.08-.61 3.16-.4 2.17-.86 4.42-1.27 6.77-.37 2.35-.75 4.77-1.15 7.27-.43 2.5-.72 5.08-1.03 7.72-.3 2.64-.69 5.32-.97 8.07-.24 2.74-.48 5.55-.73 8.37-.12 1.41-.24 2.84-.37 4.27-.08 1.43-.17 2.87-.24 4.32-.31 5.79-.73 11.66-.73 17.55l-.21 8.83c-.05 1.46-.02 2.93 0 4.38l.06 4.37c.08 3.45.07 6.88.12 10.25.73-.17 1.45-.34 2.14-.67.74-.26 1.42-.65 2.12-1.02.69-.37 1.31-.87 1.98-1.3.61-.52 1.26-.97 1.83-1.54.59-.54 1.15-1.11 1.7-1.7.55-.58 1.06-1.2 1.57-1.82.9-1.11 1.74-2.29 2.48-3.52l.29.18c-1.43 2.73-3.23 5.28-5.43 7.5-.55.62-1.21 1.12-1.82 1.69-.66.5-1.3 1.04-2.01 1.47-.72.44-1.44.89-2.22 1.21-.74.39-1.57.63-2.38.88l-.22.07c.04 1.8.1 3.59.22 5.35.12 2.77.23 5.48.35 8.13.05 1.09.08 2.16.13 3.22v.01l.32-.01.98-.05c.33-.03.65-.06.97-.11l1.95-.21.04.3-.07-.11-1.79.54c-.64.22-1.3.35-1.96.47l-.41.07c.04 1.24.09 2.47.2 3.67.36 5.06.69 9.84 1.01 14.26.16 2.2.31 4.32.44 6.34.19 2 .38 3.91.55 5.7.35 3.58.64 6.7.9 9.29.1 1.11.2 2.14.28 3.04l-.4.07c-.15-.9-.32-1.92-.49-3.04-.41-2.55-.9-5.66-1.46-9.22-.27-1.79-.58-3.68-.9-5.67-.26-2.02-.47-4.13-.72-6.34-.49-4.41-1.02-9.19-1.57-14.25-.11-1.15-.2-2.31-.29-3.49-.04-.39-.07-.78-.09-1.18-.28-3.65-.5-7.43-.75-11.3-.13-1.68-.23-3.37-.31-5.07l-.06-1.51c-.14-3.47-.2-6.99-.27-10.54-.04-1.46-.06-2.92-.09-4.4-.04-1.46-.07-2.94-.02-4.41.04-2.96.09-5.92.15-8.89.04-5.92.49-11.85.84-17.68.1-1.45.16-2.91.29-4.35.14-1.44.3-2.87.45-4.29.29-2.85.6-5.66.88-8.42.35-2.77.77-5.48 1.17-8.12.39-2.65.76-5.24 1.28-7.74.48-2.51.95-4.94 1.4-7.29.51-2.35 1.08-4.6 1.58-6.76.2-.87.4-1.72.6-2.54-2.46.48-4.82 1.57-6.85 3.15-1.31 1-2.49 2.17-3.56 3.45-.26.3-.52.62-.78.95l-.25-.19c13.31-18.36 31.81-1.13 31.81-1.13s10.02-26.6 42.73-22.84c0 0-45.49-26.09-21.35-45.45 0 0-8.03.86-16.72-1.38l.13-.46c1.08.28 2.18.52 3.29.71 2.19.38 4.4.62 6.61.72 2.12.09 4.26.09 6.34-.1.11 0 .2-.02.3-.03l1.72-.18-1.33 1.14c-.93.79-1.85 1.6-2.66 2.52-.8.91-1.55 1.87-2.16 2.9-1.21 2.08-1.88 4.44-1.85 6.81.02 2.37.68 4.72 1.7 6.9 1.02 2.19 2.36 4.24 3.88 6.15 3.05 3.83 6.72 7.16 10.58 10.23 1.94 1.53 3.95 2.96 5.98 4.37 1.02.7 2.04 1.38 3.09 2.04.87.55 1.78 1.11 2.67 1.63.15.11.31.19.47.28l5.33 3.05zm-8.37 182.62c-.1-.06-.94-.58-2.34-1.5-.73-.49-1.66-1.06-2.63-1.83-.99-.75-2.14-1.55-3.3-2.55-1.15-1.01-2.47-2.04-3.69-3.3-.63-.62-1.3-1.25-1.94-1.91-.63-.67-1.25-1.4-1.9-2.12-1.22-1.5-2.53-3.02-3.62-4.76-.59-.84-1.1-1.74-1.62-2.65-.55-.88-.98-1.84-1.44-2.79-.47-.94-.78-1.96-1.17-2.93-.31-1.02-.65-2.01-.87-3.04-.51-2.03-.64-4.12-.65-6.11.03-2.01.37-3.92.84-5.7.48-1.76 1.2-3.33 1.94-4.71.73-1.39 1.6-2.55 2.4-3.53.78-.99 1.58-1.74 2.23-2.35.66-.62 1.25-1.02 1.63-1.31.39-.28.6-.41.6-.41s-.72.73-1.76 2.14c-.52.71-1.12 1.58-1.72 2.62-.59 1.05-1.22 2.25-1.74 3.61-.53 1.36-.98 2.87-1.29 4.48-.28 1.62-.39 3.35-.36 5.14.11 1.78.37 3.6.85 5.41.21.92.53 1.82.82 2.72.38.89.67 1.8 1.13 2.66.42.88.78 1.76 1.28 2.59.47.86.92 1.71 1.47 2.5a68.64 68.64 0 0 0 3.21 4.67c.58.73 1.16 1.43 1.7 2.14.56.71 1.14 1.36 1.69 2.01 1.09 1.32 2.23 2.47 3.22 3.6 1.01 1.11 2.01 2.07 2.85 2.97.84.89 1.61 1.62 2.23 2.26 1.16 1.15 1.85 1.87 1.95 1.98" fill-rule="nonzero"/><path d="M165.87 89.56c.41-.02.81-.02 1.22 0-.59-.42-1.18-.83-1.76-1.25a89.38 89.38 0 0 1-6-4.65c-3.86-3.26-7.53-6.81-10.59-10.92-1.53-2.04-2.88-4.26-3.9-6.64-1.02-2.37-1.66-4.96-1.59-7.6.04-2.63.89-5.22 2.24-7.43.69-1.11 1.5-2.11 2.37-3.06.5-.54 1.04-1.04 1.59-1.52-1.73.07-3.44.05-5.16-.04-2.25-.11-4.5-.37-6.72-.78-4.44-.8-8.85-2.16-12.77-4.51a25.868 25.868 0 0 1-5.39-4.23 24.074 24.074 0 0 1-4-5.56c-1.1-2.03-1.87-4.21-2.41-6.43-.25-1.12-.47-2.25-.6-3.39-.04-.33-.08-.67-.11-1.02-.19.26-.37.52-.56.77-.65.9-1.36 1.75-2.09 2.58a33.44 33.44 0 0 1-4.89 4.54 26.29 26.29 0 0 1-5.83 3.36c-1.05.42-2.13.79-3.23 1.05-.57.15-1.09.23-1.71.35-.5.07-1.18.15-1.74.15-2.33.04-4.56-.33-6.73-.81a51.5 51.5 0 0 1-6.36-1.94c-2.07-.78-4.11-1.67-6.08-2.7-1.27-.68-2.54-1.39-3.75-2.2-.03.14-.07.29-.1.44-.24.92-.54 1.81-.9 2.69-.37.87-.77 1.71-1.24 2.54-.46.81-.97 1.6-1.53 2.35-1.11 1.5-2.4 2.88-3.79 4.11-.69.62-1.42 1.19-2.17 1.74-.76.53-1.52 1.06-2.32 1.52-.77.49-1.59.9-2.4 1.34-.83.38-1.65.81-2.5 1.14-.83.36-1.69.69-2.55.98-.85.33-1.73.56-2.59.84-.87.26-1.75.47-2.63.7l-2.64.57-1.98.35c.53.56 1.03 1.13 1.5 1.71a40.01 40.01 0 0 1 3.33 4.61c2.02 3.23 3.6 6.81 4.32 10.66.73 3.84.47 7.92-.84 11.63-.98 2.85-2.51 5.43-4.33 7.74.18.04.35.09.53.13 1.03.27 2.05.56 3.07.87 2.05.61 4.07 1.3 6.07 2.1 1.99.79 3.95 1.67 5.85 2.72 1.89 1.06 3.74 2.26 5.4 3.77 1.66 1.5 3.17 3.34 3.95 5.63.39 1.14.57 2.36.51 3.55-.05 1.2-.32 2.37-.75 3.45-.71 1.85-1.78 3.45-3 4.9.19-.09.37-.17.56-.25.81-.38 1.66-.67 2.49-.99.84-.33 1.7-.57 2.55-.86.87-.22 1.73-.47 2.61-.64.89-.17 1.76-.34 2.67-.42.88-.14 1.8-.13 2.7-.16l1.35.04c.45.03.9.1 1.35.15.89.11 1.79.28 2.65.55.44.1.87.26 1.29.42.43.14.84.32 1.25.52.82.36 1.61.83 2.35 1.33.75.5 1.45 1.07 2.1 1.68.65.62 1.26 1.27 1.8 1.98 1.03 1.33 1.88 2.76 2.49 4.32l.15-.27c.69-1.3 1.47-2.58 2.36-3.79l.01-.01c1.02-1.37 2.15-2.65 3.46-3.78 1.3-1.14 2.77-2.13 4.37-2.85 1.13-.52 2.33-.9 3.57-1.14.5-.1 1.01-.17 1.52-.22l.18-.01c3.48-.3 6.96.47 10.12 1.76 1.62.67 3.18 1.47 4.65 2.38.75.45 1.48.93 2.18 1.44.28.2.55.4.82.6a35.087 35.087 0 0 1 2.52-4.49c1.22-1.89 2.59-3.66 4.11-5.31 1.5-1.67 3.15-3.2 4.92-4.58l1.36-1.01 1.39-.94c.96-.6 1.92-1.2 2.92-1.71.98-.54 2.02-.99 3.05-1.45 1.04-.41 2.08-.84 3.16-1.16 1.06-.38 2.16-.63 3.25-.93 1.1-.21 2.2-.48 3.31-.61l1.66-.23c.56-.05 1.12-.09 1.68-.14 1.11-.1 2.23-.1 3.35-.12m6.51 1.75c-32.71-3.76-42.73 22.84-42.73 22.84s-18.5-17.23-31.81 1.13c-.7.97-1.39 2.03-2.06 3.21 0 0-7.6-21.31-36.21-3.75a42.74 42.74 0 0 0 1.75-2.99c.68-.68 1.34-1.36 1.94-2.08.66-.76 1.23-1.57 1.77-2.39.52-.83.95-1.69 1.28-2.58.65-1.76.71-3.61.09-5.29-.61-1.68-1.84-3.19-3.31-4.47-.69-.59-1.43-1.14-2.2-1.65-6.35-7.4-19.85-8.98-19.85-8.98C58.72 65.1 36.43 45.8 36.43 45.8c.92-.09 1.81-.21 2.68-.34 14.33-2.14 21.63-7.72 25.33-12.76 3.71-5.04 3.83-9.55 3.83-9.55 6.89 5.5 19.47 9.81 25.59 8.89 12.15-1.82 19.04-13.92 19.04-13.92.41 17.03 11.35 23.77 21.41 26.36 8.69 2.24 16.72 1.38 16.72 1.38-24.14 19.36 21.35 45.45 21.35 45.45" fill-rule="nonzero"/><path d="M167.09 89.56c-.41-.02-.81-.02-1.22 0-1.12.02-2.24.02-3.35.12-.56.05-1.12.09-1.68.14l-1.66.23c-1.11.13-2.21.4-3.31.61-1.09.3-2.19.55-3.25.93-1.08.32-2.12.75-3.16 1.16-1.03.46-2.07.91-3.05 1.45-1 .51-1.96 1.11-2.92 1.71l-1.39.94-1.36 1.01a38.085 38.085 0 0 0-4.92 4.58 39.188 39.188 0 0 0-4.11 5.31 35.087 35.087 0 0 0-2.52 4.49c-.27-.2-.54-.4-.82-.6-.7-.51-1.43-.99-2.18-1.44-1.47-.91-3.03-1.71-4.65-2.38-3.16-1.29-6.64-2.06-10.12-1.76l-.18.01c-.51.05-1.02.12-1.52.22-1.24.24-2.44.62-3.57 1.14-1.6.72-3.07 1.71-4.37 2.85-1.31 1.13-2.44 2.41-3.46 3.78l-.01.01a30.61 30.61 0 0 0-2.36 3.79l-.15.27c-.61-1.56-1.46-2.99-2.49-4.32-.54-.71-1.15-1.36-1.8-1.98-.65-.61-1.35-1.18-2.1-1.68-.74-.5-1.53-.97-2.35-1.33-.41-.2-.82-.38-1.25-.52-.42-.16-.85-.32-1.29-.42-.86-.27-1.76-.44-2.65-.55-.45-.05-.9-.12-1.35-.15l-1.35-.04c-.9.03-1.82.02-2.7.16-.91.08-1.78.25-2.67.42-.88.17-1.74.42-2.61.64-.85.29-1.71.53-2.55.86-.83.32-1.68.61-2.49.99-.19.08-.37.16-.56.25 1.22-1.45 2.29-3.05 3-4.9.43-1.08.7-2.25.75-3.45a9.56 9.56 0 0 0-.51-3.55c-.78-2.29-2.29-4.13-3.95-5.63-1.66-1.51-3.51-2.71-5.4-3.77-1.9-1.05-3.86-1.93-5.85-2.72-2-.8-4.02-1.49-6.07-2.1-1.02-.31-2.04-.6-3.07-.87-.18-.04-.35-.09-.53-.13 1.82-2.31 3.35-4.89 4.33-7.74 1.31-3.71 1.57-7.79.84-11.63-.72-3.85-2.3-7.43-4.32-10.66-1-1.62-2.12-3.16-3.33-4.61-.47-.58-.97-1.15-1.5-1.71l1.98-.35 2.64-.57c.88-.23 1.76-.44 2.63-.7.86-.28 1.74-.51 2.59-.84.86-.29 1.72-.62 2.55-.98.85-.33 1.67-.76 2.5-1.14.81-.44 1.63-.85 2.4-1.34.8-.46 1.56-.99 2.32-1.52.75-.55 1.48-1.12 2.17-1.74 1.39-1.23 2.68-2.61 3.79-4.11.56-.75 1.07-1.54 1.53-2.35.47-.83.87-1.67 1.24-2.54.36-.88.66-1.77.9-2.69.03-.15.07-.3.1-.44 1.21.81 2.48 1.52 3.75 2.2 1.97 1.03 4.01 1.92 6.08 2.7a51.5 51.5 0 0 0 6.36 1.94c2.17.48 4.4.85 6.73.81.56 0 1.24-.08 1.74-.15.62-.12 1.14-.2 1.71-.35 1.1-.26 2.18-.63 3.23-1.05 2.1-.87 4.05-2.01 5.83-3.36a33.44 33.44 0 0 0 4.89-4.54c.73-.83 1.44-1.68 2.09-2.58.19-.25.37-.51.56-.77.03.35.07.69.11 1.02.13 1.14.35 2.27.6 3.39.54 2.22 1.31 4.4 2.41 6.43a24.1 24.1 0 0 0 4 5.56c1.61 1.65 3.42 3.07 5.39 4.23 3.92 2.35 8.33 3.71 12.77 4.51 2.22.41 4.47.67 6.72.78 1.72.09 3.43.11 5.16.04-.55.48-1.09.98-1.59 1.52-.87.95-1.68 1.95-2.37 3.06-1.35 2.21-2.2 4.8-2.24 7.43-.07 2.64.57 5.23 1.59 7.6 1.02 2.38 2.37 4.6 3.9 6.64 3.06 4.11 6.73 7.66 10.59 10.92a89.38 89.38 0 0 0 6 4.65c.58.42 1.17.83 1.76 1.25" fill="#fcee21" fill-rule="nonzero"/><path d="M124.29 488.12l-.01-.02h-.01l.02.02zm35.02-31.22l.57.76c-.61.47-1.23.94-1.79 1.47l-2.33 2.03c-.75.71-1.44 1.46-2.15 2.19l-1.07 1.12-.97 1.19c-.64.81-1.32 1.58-1.91 2.42l-1.7 2.56c-.3.42-.55.86-.79 1.31l-.73 1.35-.73 1.35c-.22.39-.42.93-.63 1.39l-.61 1.43-.31.71.08.25-.06.06-.16.05-.02.06-.04.05-.05.18-.96 2.96-.46 1.49-.31 1.47-.61 2.95-.21.99-1.03-.14-2.71-.39c-.9-.16-1.81-.18-2.72-.28l-1.36-.11-1.35-.03c-.91 0-1.81-.08-2.72.01l-1.35.07-.67.03c-.1.01-.28.01-.3.02l-.34.04-1.39.18-.68.09-.35.04-.04-.02-.03.02-.17.04-2.73.57-2.51.74-.68.2-.63-.42-2.23-1.5-1.13-.74-1.19-.62-2.39-1.24-2.5-1-1.26-.5c-.42-.16-.86-.25-1.29-.39l-2.6-.74-.33-.09-.01.03-.01.01-.06-.01v-.01l-.01-.01-.17-.05-.68-.14-1.38-.27-2.76-.51-1.31-.24.01-1.46c.01-.76.05-1.52.03-2.26-.05-.75-.03-1.51-.14-2.26-.09-.75-.15-1.5-.3-2.24l-.2-1.11c-.06-.27-.18-.74-.27-1.1-.18-.8-.41-1.49-.64-2.18-.2-.7-.53-1.4-.78-2.1-.32-.7-.61-1.38-.96-2.05-.37-.67-.71-1.34-1.12-1.98-.38-.65-.8-1.28-1.23-1.9-.41-.64-.91-1.23-1.35-1.84-.51-.58-.96-1.19-1.49-1.74a24.77 24.77 0 0 0-1.59-1.65 39.794 39.794 0 0 0-3.43-3.07c-.61-.48-1.22-.96-1.85-1.41-.61-.48-1.25-.9-1.89-1.35l-.91-.66.28-1.08c.27-1.04.63-2.08.83-3.14l.34-1.59c.05-.27.09-.54.12-.81.04-.27.07-.54.12-.81.08-.53.15-1.07.17-1.62l.06-.81c.02-.27.04-.55.05-.81l.04-1.64c0-.54-.03-1.08-.05-1.62-.01-.55-.02-1.09-.08-1.63-.05-.54 0-1.08-.11-1.62l.09-.81.42-.2v-.05l-.46-.01-.05-.01-.32-.09-.15-.42-.4-1.66-.47-1.53c-.14-.52-.33-1.04-.52-1.55-.19-.52-.35-1.04-.57-1.54l-.65-1.52-.39-.92.81-.48 3.1-1.89c1.04-.61 1.97-1.39 2.97-2.08.49-.35.99-.69 1.45-1.09l1.39-1.17c.45-.4.94-.77 1.37-1.2l1.31-1.27c.43-.42.88-.83 1.29-1.27l1.23-1.36c.4-.46.84-.89 1.2-1.38l.75-.94.73.59-.67.98c-.34.52-.75.99-1.13 1.48l-1.15 1.48c-.39.49-.83.93-1.24 1.39l-1.27 1.38c-.42.47-.9.87-1.36 1.3l-1.37 1.28c-.44.45-.94.82-1.42 1.21-.99.76-1.93 1.61-2.97 2.3l-2.28 1.55.35.73c.27.52.47 1.07.69 1.6.24.54.46 1.08.62 1.66l.56 1.69.43 1.64.1.41.06.24.05.22.17.87c.12.57.21 1.15.29 1.73.08.58.17 1.16.2 1.75.04.58.12 1.17.13 1.75l.04 1.76c.01.59-.04 1.18-.05 1.76-.02.59-.07 1.18-.14 1.76-.06.59-.12 1.17-.2 1.75l-.31 1.74c-.11.78-.31 1.54-.51 2.3 2.42 1.61 4.73 3.42 6.84 5.47.61.56 1.18 1.16 1.75 1.77.58.59 1.08 1.24 1.64 1.86.5.67 1.05 1.3 1.51 2 .48.67.96 1.36 1.38 2.08.45.71.83 1.46 1.22 2.2.39.74.73 1.51 1.07 2.27.29.8.63 1.54.88 2.37.27.84.53 1.66.7 2.42.09.41.18.7.28 1.22l.23 1.23c.17.84.23 1.67.31 2.51.1.84.08 1.68.12 2.51 0 .37-.01.73-.02 1.1l2.74.56.68.15.17.03.12.02.04.02.08.02.35.11 1.06.31h.12v.04l1.58.49c.47.15.93.26 1.38.44l1.33.55 2.68 1.12 2.55 1.39 1.27.69c.41.27.8.57 1.2.84l1.78 1.25 2.15-.52 2.75-.42.17.1.19.23h.08l.35-.33.7-.35.93-.13.46-.05.04-.02.31-.12h.4l.71.07.32.02 1.13.08c.95-.05 1.91.03 2.86.07l1.43.06 1.41.17c.23.03.47.06.71.08.47.06.95.11 1.41.19.24.04.47.08.7.14l1.81.34.54-2.09.4-1.55.53-1.46 1.09-2.92.17-.43.17-.36.34-.7.68-1.4c.23-.47.41-.92.71-1.42l.4-.68-.02-.16.11-.01.32-.51.81-1.36c.25-.46.54-.91.85-1.32l1.86-2.56c.62-.84 1.34-1.61 2-2.41l1.02-1.21 1.11-1.11c.76-.73 1.47-1.5 2.24-2.22l2.37-2.04c.58-.55 1.22-1.02 1.85-1.48m-10.25-192.27l5.75 6.05-7.68-3.51c-.15-.06-.3-.13-.44-.2-.87-.43-1.72-.9-2.63-1.19-.51-.2-1.04-.43-1.54-.55l-1.5-.4-1.76-.2-.11.14-.06.31h-.14l-.4-.33-.78-.34c-.53-.01-1.04.08-1.55.11-.51.07-.99.23-1.49.34-.47.18-.95.36-1.41.57-.44.26-.92.46-1.33.78-.84.59-1.65 1.26-2.35 2.07-.37.4-.72.81-1.02 1.26l-.49.66-.44.7c-.31.46-.58.95-.83 1.44-.28.49-.52.99-.74 1.51-.24.52-.48 1.03-.68 1.56-.21.53-.42 1.07-.6 1.6a47.96 47.96 0 0 0-1.01 3.29c-.61 2.23-1.11 4.5-1.49 6.8-.39 2.3-.67 4.62-.88 6.95a68.2 68.2 0 0 0-.25 3.49c-.05.87-.09 1.75-.1 2.6-.01.3-.02.59-.02.88l-.03 4.61-2.81-3.7-1.77-2.34c-.65-.71-1.29-1.45-1.96-2.15-.51-.45-1-.96-1.53-1.41l-.2.03-.03-.22c-.12-.11-.25-.21-.39-.31l-1.14-.85c-.38-.28-.81-.48-1.21-.74-.79-.51-1.67-.82-2.52-1.21-.75-.21-1.43-.48-2.31-.63-.13-.02-.25-.04-.39-.06l-.73-.12h-.03l-.09-.02v.01l-.01.07c.15.03.06.1.06.1h-.05l-.18-.1-.35-.06-1.39-.06c-.25-.02-.5.01-.76.04-.21.03-.43.06-.64.07-.46.06-.94.04-1.39.18-.92.24-1.86.38-2.75.76-.45.17-.91.32-1.35.49l-1.32.62c-.89.38-1.7.94-2.56 1.4-.81.56-1.66 1.06-2.43 1.67l-1.18.9-1.14.96c-.75.63-1.47 1.32-2.2 2-.7.7-1.4 1.42-2.06 2.15-.66.74-1.34 1.5-1.92 2.25l-1.61 2.06-.45-2.55-.15-.81-.51-2.91-.59.03c-.07-1.26-.1-2.38-.13-3.36-.03-.16-.07-.32-.11-.47-.26-1.27-.63-2.48-.99-3.7-.32-1.25-.76-2.44-1.2-3.64-.4-1.21-.94-2.36-1.44-3.53l-.39-.87-.45-.84-.89-1.68c-.32-.55-.68-1.07-1.01-1.61-.35-.52-.68-1.07-1.08-1.56l-1.16-1.5-1.28-1.39c-.41-.47-.92-.86-1.38-1.28l-.71-.62-.76-.56c-1-.76-2.1-1.41-3.23-1.95s-2.33-.97-3.53-1.3c-1.17-.31-2.51-.57-3.73-.63-1.26-.04-2.53-.17-3.79 0-.64.06-1.28.05-1.9.18l-1.88.32c-.63.11-1.23.32-1.85.47-.62.14-1.23.36-1.83.57-.6.2-1.2.42-1.78.67l-.37-.88c.59-.28 1.2-.51 1.83-.72.62-.22 1.24-.44 1.87-.6.65-.16 1.27-.38 1.92-.5l1.94-.37c.64-.12 1.31-.12 1.96-.2 1.32-.18 2.65-.07 3.97-.03 1.36.06 2.58.3 3.92.61 1.29.34 2.55.78 3.75 1.34 1.2.58 2.38 1.2 3.46 1.98l.82.57.77.65c.5.43 1.04.82 1.49 1.31l1.4 1.43 1.25 1.54c.44.49.8 1.05 1.17 1.6.37.55.77 1.08 1.11 1.65l.98 1.72.48.87.43.88c.56 1.19 1.16 2.37 1.6 3.62.49 1.21.98 2.43 1.36 3.7.4 1.24.83 2.48 1.14 3.76.31 1.27.71 2.53.96 3.82l.29 1.41c.15-.18.3-.35.44-.53.69-.78 1.4-1.55 2.13-2.3.74-.73 1.48-1.47 2.27-2.16l1.18-1.03 1.23-.98c.83-.66 1.71-1.23 2.58-1.85.46-.26.91-.54 1.36-.82.45-.28.91-.54 1.4-.77l1.44-.71c.5-.21 1-.39 1.51-.59.37-.16.76-.29 1.15-.41.65-.19 1.31-.34 1.97-.51.52-.16 1.08-.17 1.62-.25.55-.04 1.09-.16 1.65-.14l1.66.06.41-.01.21.03h.29l.75.11c.96.09 2.13.46 3.22.77 1.02.45 2.07.81 3 1.4.12.07.24.14.36.2.24.13.48.26.71.41.12.07.23.15.34.23l1.32.95c.22.16.44.32.64.5.42.35.81.72 1.21 1.08.19.18.39.36.6.54.49.49.94.99 1.41 1.5.04-.99.1-2.01.18-3 .18-2.4.46-4.8.83-7.2.38-2.4.85-4.78 1.49-7.14.32-1.18.67-2.36 1.09-3.52.19-.59.41-1.17.64-1.74.22-.58.47-1.15.74-1.72a19 19 0 0 1 .83-1.69c.28-.56.59-1.11.94-1.64l.51-.81.57-.78c.37-.53.79-1.03 1.22-1.51.85-.98 1.88-1.86 2.97-2.63.54-.39 1.17-.67 1.75-1.01.62-.27 1.27-.51 1.91-.74.65-.14 1.32-.33 1.98-.43.68-.04 1.35-.16 2.02-.14l.99.05.49.03.25.01.32.04 1.76.31 1.25.36c-1.11-1.62-2.1-3.33-3-5.08-.46-.9-.89-1.83-1.31-2.77-.39-.94-.75-1.9-1.08-2.87-.32-.96-.61-1.95-.84-2.95-.14-.49-.25-1-.33-1.5-.1-.52-.2-1.02-.25-1.53a29.09 29.09 0 0 1-.29-3.09c-.01-1.03-.02-2.07.09-3.1.03-.53.08-1.04.16-1.55.1-.52.14-1.03.27-1.54l.35-1.51c.13-.5.31-.99.46-1.48.15-.5.34-.98.54-1.46.21-.47.38-.97.61-1.42.47-.92.92-1.85 1.48-2.71.52-.9 1.13-1.71 1.74-2.53.18-.23.36-.46.55-.69-.24-.03-.47-.06-.74-.11-1.01-.18-1.97-.42-2.93-.69-.93-.31-1.88-.6-2.79-1.01-.92-.36-1.79-.83-2.67-1.29-.87-.47-1.68-1.05-2.52-1.58-.75-.63-1.57-1.19-2.28-1.87-.7-.71-1.47-1.33-2.08-2.11-.6-.77-1.3-1.48-1.81-2.31-.53-.83-1.1-1.63-1.56-2.49l-1.3-2.62c-.37-.9-.67-1.82-1.01-2.73-.38-.9-.56-1.86-.8-2.78-.21-.95-.54-1.87-.65-2.83l-.42-2.86c-.18-.94-.17-1.9-.24-2.86l-.13-2.32-.29-.18c.1-.15.19-.3.28-.45l.24-.43.38 3.34c.13.93.17 1.89.4 2.81l.55 2.79c.15.94.51 1.83.76 2.73.29.9.51 1.83.91 2.68.37.86.72 1.74 1.11 2.58l1.36 2.46c.47.8 1.06 1.53 1.58 2.31.51.77 1.2 1.41 1.79 2.12.6.71 1.35 1.26 2.01 1.9.69.62 1.48 1.12 2.21 1.68.79.46 1.56.98 2.39 1.38.82.4 1.64.82 2.52 1.12.84.35 1.74.58 2.62.85.9.21 1.78.4 2.67.53.43.07.98.13 1.38.16l1.31.06 2.22.1-1.38 1.78-.51.63c-.43.53-.86 1.04-1.24 1.61-.54.78-1.11 1.54-1.55 2.36-.5.81-.89 1.66-1.31 2.5-.21.42-.34.88-.52 1.31-.17.43-.34.86-.46 1.32-.12.45-.27.89-.39 1.35l-.28 1.36c-.11.46-.14.92-.2 1.39-.07.45-.12.92-.13 1.39-.08.93-.04 1.86-.02 2.79.08.93.15 1.87.32 2.79.05.46.16.92.26 1.38.09.46.19.91.33 1.37.22.91.52 1.81.83 2.7.32.89.68 1.77 1.07 2.63.39.87.81 1.72 1.26 2.55a45.6 45.6 0 0 0 3.01 4.85c.55.78 1.12 1.54 1.71 2.29.49.6 1 1.21 1.5 1.76.1.12.22.23.33.35" fill-rule="nonzero"/><path d="M149.66 468.08l-1.69 2.56c-.3.42-.55.86-.79 1.31l-.72 1.35-.71 1.35c-.22.39-.38.93-.59 1.39l-.54 1.43-.16.71-.22.25-.08-.25.31-.71.61-1.43c.21-.46.41-1 .63-1.39l.73-1.35.73-1.35c.24-.45.49-.89.79-1.31l1.7-2.56z" fill-rule="nonzero"/><path d="M147.91 538.66c.18 3.29-.37 13.99-.44 15.29l-.01.13-19.53 3.67s.81-9.18 1.16-14.06c.09-1.21.18-2.54.28-3.93.06-1.41.12-2.88.19-4.41.06-1.53.12-3.11.18-4.71.07-1.6.16-3.24.19-4.87.01-3.27.03-6.55.05-9.61-.01-1.54.05-3.03-.05-4.43-.05-1.39-.1-2.72-.15-3.94-.06-1.26-.11-2.4-.15-3.41.49-.01.97.03 1.46.04l1.65.06c.55.06 1.09.15 1.64.23 1.11.16 2.22.27 3.29.58 1.09.27 2.18.5 3.25.82l3.18 1.07c.13.04.24.08.37.12l-.05.01s.35 2.32.88 5.79c.13.87.28 1.81.43 2.81.17.99.26 2.04.4 3.12.25 2.17.52 4.49.79 6.8.2 2.33.4 4.66.59 6.85.21 2.19.31 4.23.4 5.98m-3.14-65.53l.02.16-.4.68c-.3.5-.48.95-.71 1.42l-.68 1.4-.34.7-.17.36-.17.43-1.09 2.92-.53 1.46-.4 1.55-.54 2.09-1.81-.35c-.23-.05-.46-.1-.7-.13-.46-.08-.94-.13-1.41-.19l-.71-.09-1.41-.17-1.43-.07c-.95-.04-1.91-.14-2.86-.08l-1.13-.05-.32-.02-.71-.07h-.23c-.06-1-.14-3.35-.26-6.28-.06-1.22-.12-2.53-.19-3.99-.1-1.48-.21-3.04-.31-4.74-.25-3.4-.45-7.22-.89-11.4-.2-2.09-.4-4.25-.61-6.5-.24-2.25-.53-4.57-.81-6.95-.55-4.78-1.28-9.79-2.04-14.98-.37-2.6-.83-5.23-1.28-7.88-.47-2.66-.93-5.36-1.4-8.07-.54-2.71-1.08-5.44-1.62-8.17-.24-1.27-.5-2.55-.78-3.82l.28-.03 1.88-.29c.63-.07 1.27-.2 1.91-.34l1.92-.41 1.88-.49c.54-.14 1.09-.3 1.63-.47.38 1.8.75 3.5 1.11 5.13.45 2.37.86 4.54 1.23 6.46.38 1.93.72 3.6.99 4.98.57 2.77.92 4.35.92 4.35s-.09-1.61-.3-4.43c-.11-1.4-.25-3.11-.41-5.07-.18-1.96-.33-4.19-.64-6.58-.15-1.07-.11-2.17-.25-3.32.41.61.85 1.21 1.35 1.84.58.74 1.19 1.37 1.8 2.06h.01c.65.67 1.29 1.29 1.96 1.92.65.54 1.29 1.13 1.97 1.65v.02c.44 2.56.9 5.09 1.33 7.59.83 5.31 1.63 10.44 2.39 15.32.67 4.88 1.3 9.51 1.88 13.78.51 4.28.99 8.2 1.41 11.67.45 3.48.71 6.52.97 9.02.24 2.51.49 4.47.62 5.81.02.24.05.46.08.66" fill="#fff" fill-rule="nonzero"/><path d="M144.46 478.18l-.06.29.06.03-.21-.03-.01-.04.22-.25zm-.38.4l-.04.25-.03.25H144v-.37l.02-.06.06-.07z" fill="#f7931e" fill-rule="nonzero"/><path d="M144.02 156.13c.02 1.16-.07 1.84-.07 1.84l-.4.09-.26-.4c-.16-.27-.4-.65-.69-1.14-.28-.5-.63-1.1-.99-1.78-.38-.69-.78-1.47-1.21-2.31-.44-.85-.87-1.77-1.34-2.74-.45-.97-.93-1.99-1.37-3.07-.41-1.1-.86-2.21-1.25-3.38a59.34 59.34 0 0 0-1.4-3.45c-.56-1.11-1.06-2.27-1.66-3.34-.6-1.06-1.12-2.17-1.75-3.16-.61-.99-1.17-1.99-1.8-2.86-.3-.45-.6-.88-.88-1.3-.28-.43-.57-.83-.87-1.19-.59-.74-1.13-1.42-1.6-2.02-.5-.59-.98-1.05-1.35-1.47l-1.18-1.29.26-.31s.51.39 1.41 1.06c.45.35 1.01.75 1.61 1.26.57.54 1.23 1.14 1.94 1.8.37.33.72.69 1.07 1.08.36.38.73.78 1.12 1.19.79.8 1.48 1.75 2.25 2.69.8.94 1.49 1.99 2.23 3.05.75 1.04 1.39 2.18 2.09 3.27.67 1.13 1.33 2.25 1.99 3.36.62 1.13 1.25 2.23 1.72 3.36s.86 2.25 1.15 3.33c.32 1.08.54 2.12.73 3.08.19.97.3 1.86.38 2.66.07.81.12 1.5.12 2.09M144 478.6l.01.02H144v-.02z" fill-rule="nonzero"/><path d="M64.46 241.76v.06l.11.01-.04.05-.15.29-.37.57.11.71c.06.46.13.92.2 1.37.07.46.14.92.19 1.38l.09 1.38c.02.46.06.93.06 1.39-.02.93-.03 1.87-.07 2.8l-.3 2.79-.12 1.2 1.08.43 1.74.71c.59.23 1.17.45 1.73.76l1.69.84c.58.25 1.09.62 1.64.94l1.62.97c.53.35 1.03.75 1.54 1.12l1.53 1.13 2.88 2.5 1.32 1.39 1.34 1.39c.44.46.8.99 1.21 1.48l1.19 1.52.59.77.53.81 2.1 3.26.28.43.44-.18 2.04-.81c.69-.23 1.39-.46 2.08-.68.7-.2 1.42-.37 2.12-.56.71-.16 1.44-.29 2.15-.43.72-.1 1.45-.16 2.18-.26.72-.05 1.45-.08 2.18-.13.72 0 1.45.04 2.18.06l2.17.19.48.04.17-.47c.39-1.05.81-2.09 1.21-3.12l.68-1.52.04-.09c.1.56.15.92.18 1.07-.01-.17-.05-.59-.1-1.24.19-.42.37-.85.59-1.25.52-.97.99-1.98 1.56-2.92l.85-1.41c.28-.48.59-.93.91-1.37l.94-1.35 1.02-1.28c.34-.42.65-.87 1.02-1.25l1.07-1.17c.32-.4.78-.78 1.16-1.18l.61-.59.29-.3.12-.1.16-.13c.83-.67 1.68-1.33 2.5-2.02l.71-.61h.01l-.14-.85-.75-4.24c-.08-.71-.07-1.43-.14-2.15l-.35-2.15c-.02-.36-.06-.71-.06-1.07v-1.08l.08-2.16.5-4.27v-.04l.07-.67v-.02l-.48-.39c-.8-.61-1.61-1.25-2.42-1.87-.27-.21-.54-.41-.81-.61-.25-.23-.51-.46-.76-.69-.49-.47-.98-.96-1.48-1.42-.25-.24-.5-.47-.76-.69l-2.78-3.13c-.1-.14-.21-.28-.32-.43-.42-.59-.85-1.24-1.28-1.86-.19-.28-.39-.55-.59-.81l.03-.02v-.45h-.41c.13.15.25.3.38.47l-.31.25-.25-.16-1.95.28c-.32.04-.64.12-.97.15l-.98.06-.32.02c-.05-1.06-.08-2.13-.13-3.22-.12-2.65-.23-5.36-.35-8.13-.12-1.76-.18-3.55-.22-5.35l.22-.07c.81-.25 1.64-.49 2.38-.88.78-.32 1.5-.77 2.22-1.21.71-.43 1.35-.97 2.01-1.47.61-.57 1.27-1.07 1.82-1.69 2.2-2.22 4-4.77 5.43-7.5l.13 2.32c.07.96.06 1.92.24 2.86l.42 2.86c.11.96.44 1.88.65 2.83.24.92.42 1.88.8 2.78.34.91.64 1.83 1.01 2.73l1.3 2.62c.46.86 1.03 1.66 1.56 2.49.51.83 1.21 1.54 1.81 2.31.61.78 1.38 1.4 2.08 2.11.71.68 1.53 1.24 2.28 1.87.84.53 1.65 1.11 2.52 1.58.88.46 1.75.93 2.67 1.29.91.41 1.86.7 2.79 1.01.96.27 1.92.51 2.93.69.27.05.5.08.74.11-.19.23-.37.46-.55.69-.61.82-1.22 1.63-1.74 2.53-.56.86-1.01 1.79-1.48 2.71-.23.45-.4.95-.61 1.42-.2.48-.39.96-.54 1.46-.15.49-.33.98-.46 1.48l-.35 1.51c-.13.51-.17 1.02-.27 1.54-.08.51-.13 1.02-.16 1.55-.11 1.03-.1 2.07-.09 3.1.05 1.03.13 2.07.29 3.09.05.51.15 1.01.25 1.53.08.5.19 1.01.33 1.5.23 1 .52 1.99.84 2.95.33.97.69 1.93 1.08 2.87.42.94.85 1.87 1.31 2.77.9 1.75 1.89 3.46 3 5.08l-1.25-.36-1.76-.31-.32-.04-.25-.01-.49-.03-.99-.05c-.67-.02-1.34.1-2.02.14-.66.1-1.33.29-1.98.43-.64.23-1.29.47-1.91.74-.58.34-1.21.62-1.75 1.01-1.09.77-2.12 1.65-2.97 2.63-.43.48-.85.98-1.22 1.51l-.57.78-.51.81c-.35.53-.66 1.08-.94 1.64a19 19 0 0 0-.83 1.69c-.27.57-.52 1.14-.74 1.72-.23.57-.45 1.15-.64 1.74-.42 1.16-.77 2.34-1.09 3.52-.64 2.36-1.11 4.74-1.49 7.14a92.8 92.8 0 0 0-.83 7.2 75.3 75.3 0 0 0-.18 3c-.47-.51-.92-1.01-1.41-1.5-.21-.18-.41-.36-.6-.54-.4-.37-.79-.74-1.21-1.08-.2-.18-.42-.34-.64-.5l-1.32-.96c-.11-.08-.22-.15-.34-.22-.23-.15-.47-.28-.71-.41l-.36-.21c-.93-.59-1.98-.96-3-1.4-1.09-.32-2.26-.7-3.22-.79l-.75-.14-.1.05-.11.01h-.08l-.21-.03-.41-.04-1.66-.03c-.56-.02-1.1.1-1.65.14-.54.09-1.1.1-1.62.26-.66.18-1.32.32-1.97.52-.39.12-.78.25-1.15.41-.51.2-1.01.38-1.51.59l-1.44.71c-.49.22-.95.49-1.4.77-.45.27-.9.56-1.36.82-.87.62-1.75 1.19-2.58 1.85l-1.23.98-1.18 1.03c-.79.69-1.53 1.43-2.27 2.16-.73.75-1.44 1.52-2.13 2.3-.14.18-.29.35-.44.53l-.29-1.41c-.25-1.29-.65-2.55-.96-3.82-.31-1.28-.74-2.52-1.14-3.76-.38-1.27-.87-2.49-1.36-3.7-.44-1.25-1.04-2.43-1.6-3.62l-.43-.88-.48-.87-.98-1.72c-.34-.57-.74-1.1-1.11-1.65-.37-.55-.73-1.11-1.17-1.6l-1.25-1.54-1.4-1.43c-.45-.49-.99-.88-1.49-1.31l-.77-.65-.82-.57c-1.08-.78-2.26-1.4-3.46-1.98-1.2-.56-2.46-1-3.75-1.34-1.34-.31-2.56-.55-3.92-.61-1.32-.04-2.65-.15-3.97.03-.65.08-1.32.08-1.96.2l-1.94.37c-.65.12-1.27.34-1.92.5-.63.16-1.25.38-1.87.6-.63.21-1.24.44-1.83.72l-.27.11.6-.94c.51-.79.94-1.62 1.41-2.42.49-.8.87-1.66 1.3-2.49.44-.82.77-1.71 1.16-2.56.37-.87.66-1.76.99-2.65.24-.9.58-1.79.75-2.73l.29-1.39.18-1.41c.09-.46.09-.95.11-1.42.02-.48.04-.96.01-1.44-.01-.96-.14-1.92-.3-2.86-.11-.48-.21-.95-.33-1.42l-.47-1.38c-.2-.44-.38-.89-.59-1.33-.24-.42-.45-.86-.72-1.27a16.42 16.42 0 0 0-1.74-2.33c-.64-.74-1.35-1.39-2.1-2.01-.74-.62-1.53-1.19-2.35-1.69-.68-.42-1.37-.8-2.08-1.14.74-.21 1.46-.52 2.17-.8l1.3-.63c.42-.23.82-.5 1.23-.74.42-.23.78-.55 1.17-.82.4-.28.77-.57 1.12-.9.74-.6 1.4-1.29 2.05-1.97.64-.71 1.25-1.42 1.81-2.18.57-.75 1.09-1.53 1.59-2.33.49-.79.94-1.62 1.38-2.44a52.6 52.6 0 0 0 2.27-5.09c.32-.86.63-1.73.91-2.61.28-.88.55-1.76.78-2.65.49-1.78.91-3.57 1.26-5.38.13-.68.25-1.37.37-2.06.5.62 1.07 1.22 1.6 1.83.62.76 1.39 1.4 2.09 2.11.69.71 1.54 1.3 2.29 1.94.4.31.85.57 1.28.85.42.29.84.57 1.32.79l1.4.68 1.58.53c.27.09.52.14.75.18l.71.12.34.06.28.04.21.01.8.04c1.09-.02 2.17-.14 3.19-.46.59-.17 1.16-.39 1.71-.65-.03 1-.05 2.01-.07 2.99-.12 3.93-.18 7.73-.23 11.34 0 .4-.02.8-.03 1.19l-.54.08-.74.12-.76.05-1.5.1-1.13.07-.39 1.1-.5 1.38c-.17.46-.32.93-.51 1.38l-.57 1.34c-.2.44-.37.92-.59 1.33l-.68 1.25c-.23.42-.4.83-.71 1.27l-.85 1.29-.47.65-.2.11.2-.07-.09.07-.14.01z" fill="#f7931e" fill-rule="nonzero"/><path d="M139.76 486.3l-1.81-.34c-.23-.06-.46-.1-.7-.14.24.03.47.08.7.13l1.81.35z" fill-rule="nonzero"/><path d="M136.01 408.79l.09.49-.01-.02c-.68-.52-1.32-1.11-1.97-1.65-.67-.63-1.31-1.25-1.96-1.92-.61-.69-1.21-1.32-1.79-2.06-.52-.65-.95-1.28-1.38-1.91l.01.07-.05-.07c-.2-1.39-.49-2.85-.49-4.35v-.03l.06-.04.01.04.13-.1.36.74.71 1.05c.2.3.52.7.77 1.03.54.74 1.09 1.38 1.64 2.02.51.64 1.17 1.23 1.75 1.85.48.47 1 .94 1.5 1.39h.01c.21 1.16.41 2.32.61 3.47" fill="#fff" fill-rule="nonzero"/><path d="M135.84 485.63c-.24-.02-.48-.05-.71-.08l-1.41-.17-1.43-.06c-.95-.04-1.91-.12-2.86-.07l-1.13-.08 1.13.05c.95-.06 1.91.04 2.86.08l1.43.07 1.41.17.71.09" fill-rule="nonzero"/><path d="M134.5 400.54c.33 1.6.62 3.19.89 4.78-.5-.45-1.02-.92-1.5-1.39-.58-.62-1.24-1.21-1.75-1.85-.55-.64-1.1-1.28-1.64-2.02-.25-.33-.57-.73-.77-1.03l-.71-1.05-.33-.76-.03.02-.01-.02-.13.08c-1.04-2.72-1-5.59-1.51-8.55-.47-2.46-1-4.99-1.5-7.54l-.01-.04.33-.18 1.73-1.06c.58-.35 1.14-.74 1.68-1.15.22-.16.44-.32.66-.49.4 1.83.79 3.65 1.18 5.49 1.3 5.57 2.33 11.21 3.42 16.76" fill="#fff" fill-rule="nonzero"/><path d="M134.44 44.02l-.13.46c-10.06-2.59-21-9.33-21.41-26.36 0 0-6.89 12.1-19.04 13.92-6.12.92-18.7-3.39-25.59-8.89 0 0-.12 4.51-3.83 9.55-3.7 5.04-11 10.62-25.33 12.76-.87.13-1.76.25-2.68.34 0 0 22.29 19.3 4.61 38.51 0 0 13.5 1.58 19.85 8.98a32.7 32.7 0 0 0-2.75-1.64c-1.8-.94-3.67-1.74-5.58-2.45-1.92-.72-3.88-1.34-5.85-1.9-.99-.27-1.99-.53-2.99-.77-.55-.13-1.12-.26-1.67-.38-.44-.11-.88-.19-1.31-.27l-2.8-.53 1.93-2.12c2.33-2.57 4.25-5.49 5.31-8.7 1.09-3.18 1.28-6.62.62-9.94-.62-3.33-2.01-6.54-3.85-9.49a38.72 38.72 0 0 0-3.06-4.26 46.8 46.8 0 0 0-1.73-1.97c-.59-.63-1.23-1.28-1.82-1.81l-2.74-2.48 3.62-.44 1.25-.14 1.38-.17 2.49-.4 2.52-.52c.83-.22 1.66-.4 2.48-.63.81-.26 1.65-.47 2.44-.76.81-.27 1.6-.56 2.38-.89.8-.29 1.55-.68 2.32-1.02.74-.4 1.49-.76 2.21-1.2.73-.41 1.41-.89 2.11-1.36.67-.49 1.34-.99 1.96-1.53a23.44 23.44 0 0 0 3.39-3.59c.5-.67.96-1.34 1.37-2.06.42-.71.77-1.44 1.11-2.18.31-.76.58-1.53.79-2.31.21-.75.38-1.62.42-2.27l.19-2.77 2.13 1.7c.3.23.59.46.9.68 3 2.24 6.47 4.01 10.02 5.43 1.96.77 3.98 1.44 6.01 1.95 2.04.51 4.11.88 6.12.89.52.01.91-.02 1.49-.09.45-.07.99-.13 1.48-.25 1-.21 1.99-.51 2.96-.86 1.93-.73 3.76-1.73 5.47-2.95 1.71-1.2 3.29-2.6 4.74-4.14.72-.77 1.41-1.57 2.06-2.4.64-.82 1.28-1.71 1.8-2.56l1.45-2.34.03 2.71c0 .13 0 .26.01.4.1 4.23.89 8.5 2.78 12.3 1.94 3.92 5.11 7.17 8.87 9.44 1.88 1.14 3.88 2.07 5.97 2.81 1.02.36 2.06.68 3.12.96m-1.54 108.23c.04.96.02 1.9-.08 2.8-.23 1.8-.77 3.43-1.32 4.77-.57 1.35-1.2 2.42-1.71 3.13-.51.72-.88 1.09-.88 1.09l-.39-.12s-.08-.51-.15-1.36c-.07-.86-.12-2.05-.09-3.43.03-1.39.07-2.97.31-4.64.11-.83.3-1.68.48-2.55.18-.87.33-1.76.42-2.65.09-.9.14-1.79.17-2.68.01-.88.03-1.75-.01-2.6-.06-1.68-.25-3.25-.53-4.58-.07-.33-.14-.66-.21-.96-.08-.3-.16-.58-.24-.85-.14-.54-.33-.99-.45-1.37-.3-.75-.48-1.18-.48-1.18l.36-.22s.28.39.77 1.06c.22.36.51.78.79 1.29.14.26.28.54.44.83.14.3.28.61.43.94.29.67.58 1.4.83 2.2.27.79.48 1.64.68 2.53.2.89.36 1.82.48 2.77.11.94.2 1.91.25 2.88.05.97.1 1.94.13 2.9" fill-rule="nonzero"/><path d="M132.16 405.69h-.01c-.61-.69-1.22-1.32-1.8-2.06-.5-.63-.94-1.23-1.35-1.84l-.01-.07c.43.63.86 1.26 1.38 1.91.58.74 1.18 1.37 1.79 2.06" fill="#fff" fill-rule="nonzero"/><path d="M130.3 416.76c.21 2.82.3 4.43.3 4.43s-.35-1.58-.92-4.35c-.27-1.38-.61-3.05-.99-4.98-.37-1.92-.78-4.09-1.23-6.46-.36-1.63-.73-3.33-1.11-5.13-.15-.69-.3-1.4-.45-2.12-.58-2.8-1.19-5.78-1.82-8.87-.47-2.17-.98-4.4-1.47-6.66-.12-.55-.23-1.11-.35-1.68-.05-.24-.11-.49-.16-.74-.66-3.09-1.27-6.24-2.01-9.37-1.35-6.28-2.71-12.56-3.98-18.46-.65-2.94-1.23-5.79-1.79-8.5-.57-2.71-1.09-5.27-1.59-7.64-.47-2.36-.91-4.53-1.3-6.46-.38-1.93-.7-3.6-.98-4.98-.51-2.79-.81-4.37-.81-4.37s2.17 6.08 4.84 15.38c.68 2.32 1.43 4.83 2.13 7.51.71 2.67 1.48 5.5 2.22 8.43.75 2.92 1.53 5.95 2.21 9.05.71 3.08 1.43 6.24 2.15 9.38.69 3.08 1.26 6.19 1.88 9.24l-.02.01.03.17c.12.54.23 1.09.33 1.62l.08-.04v.04c.5 2.55 1.01 5.08 1.49 7.54.5 2.97.48 5.86 1.48 8.59v.03c0 1.5.29 2.96.49 4.35.16 1.17.15 2.3.3 3.39.31 2.39.46 4.62.64 6.58.16 1.96.3 3.67.41 5.07" fill-rule="nonzero"/><path d="M129.47 376.26c.15.67.29 1.35.43 2.03-.22.17-.44.33-.66.49-.54.41-1.1.8-1.68 1.15l-1.73 1.06-.33.18h-.01l-.08.04c-.1-.53-.21-1.08-.33-1.62l-.03-.17.02-.01 1.5-.99c.55-.34 1.07-.73 1.57-1.13.44-.34.9-.67 1.33-1.03" fill="#fff" fill-rule="nonzero"/><path d="M129.59 503.26l-.25.01-1.68.15-.85.07-.15.03c-.25-2.28-.38-3.64-.38-3.64l3.16-.23s.05 1.35.15 3.61" fill="#f7931e" fill-rule="nonzero"/><path d="M129.28 375.39c.06.29.13.57.19.87-.43.36-.89.69-1.33 1.03-.5.4-1.02.79-1.57 1.13l-1.5.99c-.62-3.05-1.19-6.16-1.88-9.24-.72-3.14-1.44-6.3-2.15-9.38-.68-3.1-1.46-6.13-2.21-9.05-.74-2.93-1.51-5.76-2.22-8.43-.7-2.68-1.45-5.19-2.13-7.51-2.67-9.3-4.84-15.38-4.84-15.38s.3 1.58.81 4.37c.28 1.38.6 3.05.98 4.98.39 1.93.83 4.1 1.3 6.46.5 2.37 1.02 4.93 1.59 7.64.56 2.71 1.14 5.56 1.79 8.5 1.27 5.9 2.63 12.18 3.98 18.46.74 3.13 1.35 6.28 2.01 9.37.05.25.11.5.16.74-.24.13-.5.23-.75.34-.59.25-1.17.54-1.77.77l-1.83.61c-.31.09-.62.21-.92.29l-.95.21-1.89.42-1.52.2c-.17-.7-.34-1.4-.51-2.09-1.28-5.33-2.53-10.6-3.74-15.68-1.2-5.08-2.33-10-3.38-14.67-.53-2.34-1.02-4.61-1.46-6.82-.43-2.2-.93-4.32-1.32-6.38-.77-4.1-1.52-7.86-2.11-11.2-.6-3.34-1.14-6.26-1.52-8.68-.37-2.41-.72-4.3-.94-5.6-.24-1.28-.35-1.97-.35-1.97s.05.7.16 2.01c.1 1.29.24 3.21.47 5.65.21 2.43.54 5.38.91 8.77.31 3.39.88 7.2 1.46 11.36.29 2.08.66 4.23 1.02 6.46.36 2.24.77 4.53 1.23 6.9.84 4.74 1.92 9.68 2.99 14.82 1.11 5.11 2.31 10.39 3.56 15.75.13.53.26 1.07.37 1.62l-1.15.03c-.64.04-1.28-.03-1.93-.07l-1.94-.14c-1.29-.21-2.58-.43-3.85-.71-1.25-.4-2.52-.68-3.74-1.17l-1.81-.76c-.6-.26-1.23-.47-1.79-.81-.94-.53-1.92-1.02-2.86-1.58-.72-2.99-1.42-6-2.02-8.98-1.29-5.69-2.33-11.35-3.4-16.81-.47-2.74-.94-5.44-1.4-8.08-.46-2.63-.91-5.23-1.26-7.75-.76-5.05-1.51-9.82-2.07-14.25-.29-2.2-.58-4.32-.85-6.33-.24-2.03-.48-3.94-.7-5.74-.44-3.59-.82-6.73-1.05-9.33-.01-.13-.03-.27-.04-.41l.51 2.91.15.81.45 2.55 1.61-2.06c.58-.75 1.26-1.51 1.92-2.25.66-.73 1.36-1.45 2.06-2.15.73-.68 1.45-1.37 2.2-2l1.14-.96 1.18-.9c.77-.61 1.62-1.11 2.43-1.67.86-.46 1.67-1.02 2.56-1.4l1.32-.62c.44-.17.9-.32 1.35-.49.89-.38 1.83-.52 2.75-.76.45-.13.93-.11 1.39-.18.21-.01.43-.04.64-.07.26-.03.51-.05.76-.04l1.39.07.35.05.18.1h.05s.09-.07-.06-.1l.01-.07.09.01h.03l.73.13c.14.01.26.03.39.05.88.15 1.56.42 2.31.63.85.39 1.73.7 2.52 1.21.4.26.83.46 1.21.74l1.14.85c.14.1.27.2.39.31l.03.22c.21 1.31.49 3.15.88 5.43.85 4.97 1.98 12.07 3.5 20.57.66 4.25 1.8 8.8 2.86 13.64 1.09 4.82 2.24 9.92 3.44 15.19.6 2.63 1.22 5.31 1.85 8.02.61 2.68 1.28 5.43 1.95 8.17.66 2.75 1.34 5.52 2.01 8.31m-.63 21.83l.01.02-.13.1-.01-.04.13-.08zm-.02 142.52l-.03 3.94c-.06 4.88-.67 14.07-.67 14.07l-23.67 7.77.01-.05c.03-.21.17-1.17.41-2.72.13-.88.3-1.95.48-3.18.21-1.23.36-2.62.56-4.14.19-1.52.43-3.15.62-4.9.18-1.74.37-3.58.57-5.49.22-1.9.32-3.88.49-5.88.14-2.01.32-4.04.39-6.09.08-2.04.18-4.09.26-6.09.03-2.02.05-4.01.07-5.92.01-.96.03-1.9.04-2.83-.04-.93-.06-1.83-.08-2.72-.04-1.76-.09-3.43-.12-4.97-.03-1.55-.17-2.93-.24-4.18-.08-1.24-.15-2.32-.22-3.21-.02-.33-.04-.64-.05-.91a16.8 16.8 0 0 1 2.2 1.93c.76.83 1.49 1.71 2.07 2.7.61.96 1.07 2 1.49 3.05.2.54.34 1.09.51 1.64l.33 1.46.04.21.39 1.74.56-1.69c.32-.97.86-1.97 1.49-2.85.63-.89 1.38-1.69 2.2-2.4.84-.68 1.74-1.32 2.72-1.79.48-.27.99-.47 1.51-.66.49-.22 1.03-.35 1.56-.5.51-.18 1.06-.26 1.6-.36.21-.03.44-.1.64-.12.11 1 .22 2.14.35 3.39.13 1.21.26 2.52.41 3.92.17 1.4.19 2.85.3 4.37.16 3.04.34 6.27.53 9.51.07 1.61.08 3.25.11 4.85l.09 4.7c.03 1.52.06 2.99.08 4.4" fill="#fff" fill-rule="nonzero"/><path d="M127.04 485.08h-.11c-.15-1-.39-3.33-.72-6.24-.12-1.22-.27-2.46-.42-3.92-.18-1.46-.38-3.04-.59-4.73-.41-3.37-.89-7.17-1.49-11.32-.28-2.06-.58-4.22-.89-6.45-.34-2.22-.7-4.53-1.07-6.89-.67-4.75-1.57-9.71-2.46-14.86-.4-2.58-.92-5.18-1.43-7.82-.5-2.63-1.01-5.3-1.53-8-.89-4.06-1.68-8.18-2.58-12.3-.1-.51-.22-1-.33-1.51-.18-.81-.37-1.61-.56-2.42-1.04-4.46-2.07-8.92-3.09-13.33-.1-.42-.19-.84-.3-1.26-.11-.55-.24-1.09-.37-1.62-1.25-5.36-2.45-10.64-3.56-15.75-1.07-5.14-2.15-10.08-2.99-14.82-.46-2.37-.87-4.66-1.23-6.9-.36-2.23-.73-4.38-1.02-6.46-.58-4.16-1.15-7.97-1.46-11.36-.37-3.39-.7-6.34-.91-8.77-.23-2.44-.37-4.36-.47-5.65-.11-1.31-.16-2.01-.16-2.01s.11.69.35 1.97c.22 1.3.57 3.19.94 5.6.38 2.42.92 5.34 1.52 8.68.59 3.34 1.34 7.1 2.11 11.2.39 2.06.89 4.18 1.32 6.38.44 2.21.93 4.48 1.46 6.82 1.05 4.67 2.18 9.59 3.38 14.67 1.21 5.08 2.46 10.35 3.74 15.68.17.69.34 1.39.51 2.09.1.45.22.9.32 1.36l1.11 4.61c.61 2.72 1.21 5.45 1.82 8.18.2.9.41 1.8.61 2.7.12.56.25 1.11.36 1.67.28 1.27.54 2.55.78 3.82.54 2.73 1.08 5.46 1.62 8.17.47 2.71.93 5.41 1.4 8.07.45 2.65.91 5.28 1.28 7.88.76 5.19 1.49 10.2 2.04 14.98.28 2.38.57 4.7.81 6.95.21 2.25.41 4.41.61 6.5.44 4.18.64 8 .89 11.4.1 1.7.21 3.26.31 4.74.07 1.46.13 2.77.19 3.99.12 2.93.2 5.28.26 6.28" fill-rule="nonzero"/><path d="M126.93 485.08h-.06l-.31.12-.04.01-.46.06-.93.11-.7.35-.35.35H124l-.19-.23-.17-.12-2.75.43-2.15.53-1.78-1.25c-.4-.27-.79-.57-1.2-.84l-1.27-.69-2.55-1.39-2.68-1.12-1.33-.55c-.45-.18-.91-.29-1.38-.44l-1.58-.49v-.04c0-.15-.01-.31-.01-.5-.04-1.4-.07-3.45-.17-6.05-.07-2.61-.25-5.77-.46-9.4-.11-1.81-.22-3.75-.34-5.78-.17-2.03-.36-4.17-.55-6.39-.21-2.23-.37-4.56-.65-6.96-.28-2.39-.57-4.87-.87-7.42-.28-2.54-.66-5.16-1.05-7.82s-.77-5.39-1.23-8.15c-.98-5.51-1.9-11.23-3.2-16.98l-.04-.2.01-.01c.6-1.05 1.1-2.13 1.65-3.2l3.61.81c.62.16 1.26.25 1.9.31l1.93.22c.64.06 1.29.17 1.93.21l1.93.04 1.94.05c.65.04 1.28-.03 1.94-.07l.51-.04c.9 4.12 1.69 8.24 2.58 12.3.52 2.7 1.03 5.37 1.53 8 .51 2.64 1.03 5.24 1.43 7.82.89 5.15 1.79 10.11 2.46 14.86.37 2.36.73 4.67 1.07 6.89.31 2.23.61 4.39.89 6.45.6 4.15 1.08 7.95 1.49 11.32.21 1.69.41 3.27.59 4.73.15 1.46.3 2.7.42 3.92.33 2.91.57 5.24.72 6.24" fill="#fff" fill-rule="nonzero"/><path d="M126.56 485.2l-.04.02-.46.05.46-.06.04-.01z" fill-rule="nonzero"/><path d="M125.9 398.15c.15.72.3 1.43.45 2.12-.54.17-1.09.33-1.63.47l-1.88.49-1.92.41c-.64.14-1.28.27-1.91.34l-1.88.29-.28.03c-.11-.56-.24-1.11-.36-1.67.11-.01.23-.03.33-.05l1.88-.39c.63-.12 1.23-.28 1.83-.43l1.8-.47 1.8-.56c.6-.16 1.18-.36 1.77-.58" fill="#fff" fill-rule="nonzero"/><path d="M125.9 398.15c-.59.22-1.17.42-1.77.58l-1.8.56-1.8.47c-.6.15-1.2.31-1.83.43l-1.88.39c-.1.02-.22.04-.33.05-.2-.9-.41-1.8-.61-2.7-.61-2.73-1.21-5.46-1.82-8.18l-1.11-4.61c.46-.05.91-.08 1.41-.14l2.01-.38 1-.2c.33-.07.65-.19.97-.29l1.95-.59c.64-.23 1.26-.5 1.89-.75.14-.06.28-.12.43-.17.49 2.26 1 4.49 1.47 6.66.63 3.09 1.24 6.07 1.82 8.87" fill="#fff" fill-rule="nonzero"/><path d="M122.26 380.94c.12.57.23 1.13.35 1.68-.15.05-.29.11-.43.17-.63.25-1.25.52-1.89.75l-1.95.59c-.32.1-.64.22-.97.29l-1 .2-2.01.38c-.5.06-.95.09-1.41.14-.1-.46-.22-.91-.32-1.36l1.52-.2 1.89-.42.95-.21c.3-.08.61-.2.92-.29l1.83-.61c.6-.23 1.18-.52 1.77-.77.25-.11.51-.21.75-.34" fill="#fff" fill-rule="nonzero"/><path d="M120.36 237.44l.58-3.68-.4 3.69-.08 2.16v1.08c0 .36.04.71.06 1.07l.26 2.15c.07.72.11 1.44.18 2.15l.77 4.24.16.85-.71.61c-.82.69-1.67 1.35-2.5 2.02l-.16.13-.12.1-.29.3-.61.59c-.38.4-.84.78-1.16 1.18l-1.07 1.17c-.37.38-.68.83-1.02 1.25l-1.02 1.28-.94 1.35c-.32.44-.63.89-.91 1.37l-.85 1.41c-.57.94-1.04 1.95-1.56 2.92-.22.4-.4.83-.59 1.25.05.65.09 1.07.1 1.24-.03-.15-.08-.51-.18-1.07l-.04.09-.68 1.52c-.4 1.03-.82 2.07-1.21 3.12l-.17.47-.48-.04-2.17-.19c-.73-.02-1.46-.06-2.18-.06-.73.05-1.46.08-2.18.13-.73.1-1.46.16-2.18.26l-.13-.93c.72-.12 1.47-.2 2.21-.31.74-.07 1.5-.11 2.25-.17l2.24-.05 1.75.06.83-2.81.58-1.63c.19-.52.36-1.07.58-1.6.15-.34.3-.69.45-1.04-.04-.21-.07-.42-.11-.65l.4-.07c.2-.47.4-.95.63-1.4l.78-1.55c.25-.53.54-1.02.84-1.52l.87-1.49c.32-.5.64-.97.98-1.45.35-.47.64-.97 1.05-1.41l1.14-1.38c.38-.49.78-.85 1.17-1.25l.61-.6.3-.29.19-.19.17-.14c.68-.56 1.36-1.13 2.04-1.66l-.58-3.62c-.07-.76-.1-1.53-.15-2.29l-.12-2.28c-.01-.38.03-.76.04-1.14l.07-1.15.11-2.28c.18-1.31.42-2.6.64-3.9-.89-.78-1.79-1.56-2.66-2.35-.95-1.04-1.91-2.08-2.84-3.13-.83-1.14-1.65-2.29-2.47-3.42a77.17 77.17 0 0 1-1.96-3.38h.14c.87 1 1.73 1.97 2.57 3.07l2.77 2.78h.01c1.03.91 2 1.84 3 2.73 1.08.8 2.15 1.63 3.22 2.44h.01l.23.18.19.17-.13.69-.56 4.3z" fill-rule="nonzero"/><path d="M120.86 232.28l.24.19-.09.68-.07.61-.58 3.68.56-4.3.13-.69-.19-.17zm-6 61.37c.42.34.81.71 1.21 1.08-.4-.36-.79-.73-1.21-1.08m-.64-.5l-1.32-.95c-.11-.08-.22-.16-.34-.23.12.07.23.14.34.22l1.32.96z" fill-rule="nonzero"/><path d="M113.75 402.55l-.51.04c-.66.04-1.29.11-1.94.07l-1.94-.05-1.93-.04c-.64-.04-1.29-.15-1.93-.21l-1.93-.22c-.64-.06-1.28-.15-1.9-.31l-3.61-.81c-.55 1.07-1.05 2.15-1.65 3.2l-.01.01c-.05-.3-.11-.58-.18-.88.57-.83 1.07-1.72 1.61-2.58l.14.07.02-.16 3.81.49c.63.1 1.25.14 1.89.16l1.88.07c.64.02 1.26.08 1.89.06l1.89-.09 1.88-.08c.64-.02 1.26-.12 1.88-.21l.31-.04c.11.51.23 1 .33 1.51" fill="#fff" fill-rule="nonzero"/><path d="M112.86 398.62c.19.81.38 1.61.56 2.42l-.31.04c-.62.09-1.24.19-1.88.21l-1.88.08-1.89.09c-.63.02-1.25-.04-1.89-.06l-1.88-.07c-.64-.02-1.26-.06-1.89-.16l-3.81-.49-.02.16-.14-.07c-.54.86-1.04 1.75-1.61 2.58-1.11-5.43-2.51-10.79-3.79-16.27-.61-2.51-1.24-5.02-1.85-7.53.78.48 1.58.95 2.38 1.43.55.37 1.19.61 1.79.9l1.81.84c1.23.54 2.53.89 3.8 1.33 1.29.34 2.61.61 3.94.87l2 .22c.66.07 1.34.16 2.02.14.48 0 .96.01 1.45.01 1.02 4.41 2.05 8.87 3.09 13.33" fill="#fff" fill-rule="nonzero"/><path d="M111.85 291.56c-.12-.06-.24-.13-.36-.2-.93-.59-1.98-.95-3-1.4-1.09-.31-2.26-.68-3.22-.77l-.75-.11h-.21l.11-.01.1-.05.75.14c.96.09 2.13.47 3.22.79 1.02.44 2.07.81 3 1.4l.36.21z" fill-rule="nonzero"/><path d="M109.77 385.29c-.49 0-.97-.01-1.45-.01-.68.02-1.36-.07-2.02-.14l-2-.22c-1.33-.26-2.65-.53-3.94-.87-1.27-.44-2.57-.79-3.8-1.33l-1.81-.84c-.6-.29-1.24-.53-1.79-.9-.8-.48-1.6-.95-2.38-1.43-.06-.24-.11-.49-.18-.73.94.56 1.92 1.05 2.86 1.58.56.34 1.19.55 1.79.81l1.81.76c1.22.49 2.49.77 3.74 1.17 1.27.28 2.56.5 3.85.71l1.94.14c.65.04 1.29.11 1.93.07l1.15-.03c.11.42.2.84.3 1.26" fill="#fff" fill-rule="nonzero"/><path d="M109.46 220.08v.45l-.03.02c-.12-.17-.25-.32-.38-.47h.41z" fill="#f7931e" fill-rule="nonzero"/><path d="M109.05 220.08c.13.15.26.3.38.47-.13-.17-.25-.32-.38-.47" fill="#f7931e" fill-rule="nonzero"/><path d="M109.28 107.92c-.2.82-.4 1.67-.6 2.54-.5 2.16-1.07 4.41-1.58 6.76-.45 2.35-.92 4.78-1.4 7.29-.52 2.5-.89 5.09-1.28 7.74-.4 2.64-.82 5.35-1.17 8.12-.28 2.76-.59 5.57-.88 8.42-.15 1.42-.31 2.85-.45 4.29-.13 1.44-.19 2.9-.29 4.35-.35 5.83-.8 11.76-.84 17.68-.06 2.97-.11 5.93-.15 8.89-.05 1.47-.02 2.95.02 4.41.03 1.48.05 2.94.09 4.4.07 3.55.13 7.07.27 10.54-.59-.02-1.19-.04-1.73-.1l-1.2-.21-1.08-.3c-.36-.09-.71-.28-1.07-.4-.36-.14-.72-.28-1.06-.47l-1.03-.53-.99-.63a7.78 7.78 0 0 1-.8-.52c-.05-4.26.14-8.66.13-13.12.01-1.19.03-2.38.04-3.58l.12-3.61c.09-2.4.17-4.82.27-7.24.04-2.42.2-4.84.32-7.24.14-2.4.28-4.81.42-7.18.38-4.75.67-9.43 1.1-13.94.5-4.52.85-8.89 1.4-13 .48-4.14 1.05-8.03 1.56-11.63.19-1.45.46-2.85.67-4.18.26-.33.52-.65.78-.95 1.07-1.28 2.25-2.45 3.56-3.45 2.03-1.58 4.39-2.67 6.85-3.15m-1.62 156.5c.04.23.07.44.11.65-.15.35-.3.7-.45 1.04-.22.53-.39 1.08-.58 1.6l-.58 1.63-.83 2.81-1.75-.06-2.24.05c-.75.06-1.51.1-2.25.17-.74.11-1.49.19-2.21.31h-.02c-.74.13-1.48.26-2.21.41-.73.18-1.46.35-2.18.54l-2.16.64-1.63.58-1.7-3.03-.49-.86-.54-.82-1.13-1.66c-.38-.54-.72-1.12-1.14-1.63l-1.27-1.55-1.27-1.55-1.41-1.44-1.43-1.42-1.56-1.28c-.38-.3-.74-.62-1.11-.91.18-2.94.6-10.02.92-19.42.08-1.95.14-4 .23-6.14.36-.1.72-.2 1.07-.3.54-.17 1.09-.29 1.61-.49l1.55-.64c.52-.22 1.06-.38 1.54-.66l1.48-.8c.48-.28 1-.5 1.44-.82l1.37-.96 1.35-.96 1.24-1.1 1.21-1.06c.01.24.03.48.05.71.15 1.83.29 3.57.42 5.22.16 1.66.37 3.23.53 4.69.36 2.94.66 5.52.91 7.62.55 4.22.86 6.63.86 6.63s-.09-2.43-.23-6.68c-.09-2.12-.2-4.7-.34-7.65-.17-2.95-.24-6.3-.34-9.93l-.06-2.52 1.18-1.33 1.38.23c.34.06.69.08 1.02.11l1.01.1.54.05.5.01.99.01.99.01c.33.02.67-.02 1.02-.06l1.16-.1c.09 1.18.18 2.34.29 3.49.55 5.06 1.08 9.84 1.57 14.25.25 2.21.46 4.32.72 6.34.32 1.99.63 3.88.9 5.67.56 3.56 1.05 6.67 1.46 9.22.17 1.12.34 2.14.49 3.04" fill="#fff" fill-rule="nonzero"/><path d="M105.31 499.69l-.47.89c-.25-.12-.48-.24-.72-.36-1.05-.48-2.1-.91-3.21-1.25-1.08-.37-2.2-.63-3.33-.86-1.13-.24-2.26-.41-3.41-.55-2.3-.25-4.61-.36-6.93-.32a73.2 73.2 0 0 0-6.93.48c-1.15.11-2.3.27-3.45.45-1.16.16-2.28.42-3.42.63l-3.41.69c-1.01.18-2.01.47-3 .72-.11.04-.24.06-.35.09l-3.63.86 2.8-2.45 2.87-2.53c.95-.87 1.82-1.79 2.73-2.68.88-.91 1.68-1.89 2.52-2.82l1.13-1.52c.37-.51.76-.99 1.06-1.54l.96-1.59c.31-.54.54-1.11.8-1.66.3-.55.49-1.13.67-1.7.19-.57.4-1.14.47-1.73.52-2.33.39-4.75-.42-6.94-.22-.55-.39-1.11-.71-1.62-.27-.52-.53-1.06-.9-1.53-.33-.5-.68-.99-1.09-1.45-.38-.46-.77-.91-1.22-1.33-.42-.45-.87-.87-1.34-1.26-.46-.41-.94-.8-1.43-1.17-.5-.38-.99-.74-1.52-1.09-.51-.34-1.03-.69-1.57-1.01a23.9 23.9 0 0 0-1.63-.95 23.6 23.6 0 0 0-1.65-.88 48.51 48.51 0 0 0-3.43-1.6c-1.17-.5-2.34-.96-3.53-1.38-1.18-.44-2.41-.83-3.57-1.15l-2.19-.62 1.5-1.72.81-.93 1.3-1.5c.63-.85 1.31-1.68 1.91-2.55.55-.91 1.2-1.75 1.65-2.7l.74-1.39.61-1.43.31-.73.22-.74c.15-.49.35-.98.44-1.48l.31-1.52c.07-.51.09-1.01.16-1.52.07-.52.02-1.02.02-1.54a7.78 7.78 0 0 0-.11-1.52c-.05-.5-.1-1.02-.24-1.52-.11-.49-.2-1-.38-1.48-.29-.98-.69-1.93-1.15-2.87-.46-.93-1-1.81-1.58-2.68l-.94-1.27-1.01-1.21-1.07-1.16-1.15-1.12c-.78-.72-1.6-1.41-2.44-2.08a55.78 55.78 0 0 0-2.6-1.89c-.89-.6-1.8-1.15-2.73-1.7a37.97 37.97 0 0 0-2.81-1.5l-3.64-1.72 3.96-.45.58-.06 3.25-.38c1.25-.22 2.52-.39 3.77-.64 1.24-.28 2.51-.49 3.73-.84 1.22-.34 2.47-.64 3.66-1.08.6-.2 1.21-.38 1.8-.61l1.77-.7c.6-.22 1.17-.5 1.74-.77.57-.29 1.16-.53 1.72-.84 1.12-.61 2.24-1.21 3.29-1.91.54-.33 1.06-.69 1.57-1.07.5-.39 1.04-.73 1.52-1.15l1.45-1.22 1.39-1.3c.89-.9 1.75-1.83 2.56-2.82a33.88 33.88 0 0 0 4.08-6.44 40.4 40.4 0 0 0 1.47-3.53c.42-1.22.78-2.44 1.08-3.69.57-2.39.94-4.86.93-7.32h.32c.13 2.51-.12 5.01-.58 7.46a33.18 33.18 0 0 1-.96 3.81 34.75 34.75 0 0 1-1.38 3.68c-1.05 2.4-2.38 4.7-3.96 6.81-.79 1.06-1.66 2.05-2.54 3.03l-1.41 1.41c-.48.45-.99.87-1.48 1.31-.49.46-1.04.82-1.55 1.24-.52.41-1.06.79-1.61 1.15-1.08.77-2.23 1.42-3.38 2.07-.57.34-1.17.6-1.76.91-.59.29-1.17.6-1.78.84l-1.82.78c-.61.25-1.24.46-1.86.69-1.23.47-2.5.82-3.76 1.2-1.26.39-2.55.63-3.83.96-1.27.27-2.57.5-3.87.74l-.26.04c.9.52 1.79 1.04 2.66 1.62.94.61 1.86 1.28 2.76 1.96.9.7 1.77 1.43 2.61 2.2l1.25 1.18L59.3 423l1.1 1.31 1.05 1.39c.65.95 1.26 1.94 1.8 2.97.52 1.05.98 2.13 1.33 3.25.21.56.31 1.14.45 1.71.16.57.24 1.16.31 1.75.08.58.14 1.17.13 1.76 0 .59.07 1.18-.01 1.77-.06.59-.08 1.18-.17 1.76l-.33 1.73c-.11.58-.32 1.12-.47 1.68l-.26.85-.32.8-.66 1.61-.8 1.53c-.5 1.05-1.18 1.97-1.77 2.95-.65.95-1.35 1.84-2.02 2.76l-.76.89c.56.19 1.12.38 1.68.58 1.25.45 2.47.94 3.68 1.45 1.21.53 2.42 1.09 3.6 1.7.58.3 1.18.61 1.76.94.57.32 1.14.66 1.71 1.02.57.34 1.13.71 1.68 1.1.56.38 1.1.78 1.62 1.2.54.4 1.06.84 1.55 1.29.52.45 1.01.92 1.48 1.42.48.47.94 1 1.36 1.54.45.51.84 1.08 1.22 1.67.41.56.73 1.19 1.04 1.82.36.6.57 1.28.83 1.93.91 2.68.99 5.65.31 8.33-.11.7-.37 1.34-.6 1.99-.22.65-.45 1.29-.78 1.89-.31.6-.6 1.23-.94 1.8l-1.08 1.7c-.34.58-.77 1.1-1.18 1.63l-1.24 1.57c-.89.96-1.76 1.96-2.69 2.88-.97.9-1.9 1.84-2.89 2.69l-.16.14 3.29-.58c1.16-.19 2.34-.43 3.49-.56 1.17-.15 2.35-.27 3.52-.37 4.7-.4 9.44-.43 14.15.16 1.17.16 2.34.35 3.5.61 1.16.25 2.31.55 3.44.94 1.13.37 2.24.83 3.31 1.35l.75.39m-.12-207.59c-.13-.02-.25-.04-.39-.05l-.73-.13.73.12c.14.02.26.04.39.06" fill-rule="nonzero"/><path d="M104.96 479.38c0 .19.01.35.01.5h-.12c-.03-.16-.04-.31-.06-.49-.13-1.39-.38-3.43-.62-6.02-.22-2.6-.59-5.74-1.02-9.34-.21-1.79-.43-3.71-.68-5.74-.26-2.01-.54-4.13-.84-6.33-.54-4.43-1.3-9.2-2.04-14.24-.36-2.53-.83-5.12-1.29-7.75-.49-2.64-.88-5.35-1.41-8.08-.53-2.73-1.08-5.51-1.63-8.31a75.47 75.47 0 0 0-.87-4.23c-.11-.48-.21-.94-.31-1.41l-.73-.59.39-.49.08-.11c-.13-.55-.24-1.1-.36-1.65-1.15-5.69-2.72-11.5-4.09-17.24-.88-3.7-1.79-7.4-2.63-11.1l-.11-.09h-.32v-.3l-.01-.32.33.22c-.44-1.93-.85-3.87-1.23-5.8-1.29-5.73-2.16-11.46-3.15-16.97-.45-2.76-.85-5.48-1.23-8.15-.39-2.66-.76-5.28-1.03-7.82-.31-2.55-.59-5.03-.88-7.42-.27-2.4-.44-4.72-.65-6.95-.2-2.23-.39-4.36-.57-6.4-.13-2.03-.24-3.96-.35-5.77-.23-3.63-.42-6.79-.5-9.39-.01-.15-.02-.29-.02-.43l.59-.03c.01.14.03.28.04.41.23 2.6.61 5.74 1.05 9.33.22 1.8.46 3.71.7 5.74.27 2.01.56 4.13.85 6.33.56 4.43 1.31 9.2 2.07 14.25.35 2.52.8 5.12 1.26 7.75.46 2.64.93 5.34 1.4 8.08 1.07 5.46 2.11 11.12 3.4 16.81.6 2.98 1.3 5.99 2.02 8.98.07.24.12.49.18.73.61 2.51 1.24 5.02 1.85 7.53 1.28 5.48 2.68 10.84 3.79 16.27.07.3.13.58.18.88l.04.2c1.3 5.75 2.22 11.47 3.2 16.98.46 2.76.84 5.49 1.23 8.15s.77 5.28 1.05 7.82c.3 2.55.59 5.03.87 7.42.28 2.4.44 4.73.65 6.96.19 2.22.38 4.36.55 6.39.12 2.03.23 3.97.34 5.78.21 3.63.39 6.79.46 9.4.1 2.6.13 4.65.17 6.05m-.92-187.46l-.09-.01v-.01l.09.02zm-1.38 190.65l-.04.06-.01-.04-.01-.03.06.01zm-.04.07v.03h-.02l.02-.03z" fill-rule="nonzero"/><path d="M102.59 482.8l.01.28h-.01l-.01-.28v-.01l.01.01z" fill="#f7931e" fill-rule="nonzero"/><path d="M102.58 482.8l.01.28h-.13v-.41l.12.12v.01z" fill="#f7931e" fill-rule="nonzero"/><path d="M102.49 482.62l.08.16-.11-.11v-.03l.03-.02z" fill="#f7931e" fill-rule="nonzero"/><path d="M102.14 221.23c.02.4.05.79.09 1.18l-1.16.1c-.35.04-.69.08-1.02.06l-.99-.01-.99-.01-.5-.01-.54-.05-1.01-.1c-.33-.03-.68-.05-1.02-.11l-1.38-.23-1.18 1.33c-.03-.97-.06-1.96-.1-2.96-.05-2.02-.1-4.1-.17-6.26-.02-3.77-.04-7.71-.08-11.8-.01-.43-.01-.86-.02-1.29-.01-.29-.01-.59-.01-.88.26.19.53.37.8.52l.99.63 1.03.53c.34.19.7.33 1.06.47.36.12.71.31 1.07.4l1.08.3 1.2.21c.54.06 1.14.08 1.73.1l.06 1.51c.08 1.7.18 3.39.31 5.07.25 3.87.47 7.65.75 11.3" fill="#fff" fill-rule="nonzero"/><path d="M97.84 115.28l.25.19c-.21 1.33-.48 2.73-.67 4.18-.51 3.6-1.08 7.49-1.56 11.63-.55 4.11-.9 8.48-1.4 13-.43 4.51-.72 9.19-1.1 13.94-.14 2.37-.28 4.78-.42 7.18-.12 2.4-.28 4.82-.32 7.24-.1 2.42-.18 4.84-.27 7.24l-.12 3.61c-.01 1.2-.03 2.39-.04 3.58.01 4.46-.18 8.86-.13 13.12 0 .29 0 .59.01.88.01.43.01.86.02 1.29.04 4.09.06 8.03.08 11.8.07 2.16.12 4.24.17 6.26.04 1 .07 1.99.1 2.96l.06 2.52c.1 3.63.17 6.98.34 9.93.14 2.95.25 5.53.34 7.65.14 4.25.23 6.68.23 6.68s-.31-2.41-.86-6.63c-.25-2.1-.55-4.68-.91-7.62-.16-1.46-.37-3.03-.53-4.69-.13-1.65-.27-3.39-.42-5.22-.02-.23-.04-.47-.05-.71-.05-.58-.1-1.17-.14-1.76-.04-.42-.07-.84-.1-1.26-.2-2.55-.4-5.23-.58-8.01-.17-4.18-.37-8.59-.52-13.14-.01-.24 0-.48 0-.71-.05-.84-.02-1.7-.03-2.56-.02-1.22.06-2.45.05-3.68-.01-2.35.14-4.73.14-7.13v-3.6c0-1.22-.09-2.43-.06-3.64.08-2.42-.02-4.86.06-7.29.06-2.44.24-4.86.39-7.29.15-2.41.31-4.83.46-7.22.17-2.39.43-4.76.65-7.09.26-2.34.42-4.66.74-6.93.57-4.53 1.12-8.91 1.83-13.04.35-2.07.63-4.08 1.02-6.01.38-1.94.73-3.8 1.09-5.6.03-.17.08-.35.11-.52l-.12-.27c-.68-1.58-1.66-3.03-2.79-4.34-.57-.64-1.17-1.25-1.82-1.81-.5-.42-1-.82-1.53-1.18-.18-.11-.36-.23-.54-.34-.74-.44-1.49-.84-2.28-1.16-.4-.16-.79-.32-1.2-.43-.4-.13-.81-.25-1.22-.34-.82-.21-1.67-.33-2.51-.4-.43-.02-.86-.07-1.28-.07l-1.27.01c-.85.06-1.7.1-2.54.26-.85.11-1.68.29-2.51.49-.83.18-1.65.46-2.47.69-.81.31-1.62.56-2.41.9-.79.34-1.59.64-2.36 1.03-.77.39-1.56.73-2.32 1.16-.75.42-1.52.81-2.26 1.27l-2.11 1.27-.1.06-1.19-1.68c.78-.67 1.54-1.34 2.27-2.05l.13-.13a42.5 42.5 0 0 1-1.75 2.99c28.61-17.56 36.21 3.75 36.21 3.75a34.96 34.96 0 0 1 2.06-3.21" fill-rule="nonzero"/><path d="M75.16 258.28l.28.21c-.15-3.02-.48-10.01-.71-19.29-.03-1.58-.07-3.21-.12-4.91-.01-.26-.02-.52-.01-.78l-.04.01-.83.15-.83.07-.52.04-.15.45c-.17.5-.32 1.01-.51 1.5l-.63 1.48c-.22.48-.4.98-.66 1.46l-.77 1.45c-.25.47-.5 1-.79 1.4l-.82 1.29-.43.64-.1.16-.01.02c.08.77.17 1.54.25 2.31l.04 1.52c.01.51.04 1.02.02 1.52-.05 1.02-.09 2.04-.16 3.04l-.26 1.85.76.33c.62.28 1.25.54 1.84.88l1.78.98c.6.3 1.14.72 1.7 1.08l1.68 1.14zm21.72 14.34l.13.93c-.71.14-1.44.27-2.15.43-.7.19-1.42.36-2.12.56-.69.22-1.39.45-2.08.68l-2.04.81-.44.18-.28-.43-2.1-3.26-.53-.81-.59-.77-1.19-1.52c-.41-.49-.77-1.02-1.21-1.48l-1.34-1.39-1.32-1.39-1.44-1.25-1.44-1.25-1.53-1.13c-.51-.37-1.01-.77-1.54-1.12l-1.62-.97c-.55-.32-1.06-.69-1.64-.94l-1.69-.84c-.56-.31-1.14-.53-1.73-.76l-1.74-.71-1.08-.43.12-1.2.3-2.79c.04-.93.05-1.87.07-2.8 0-.46-.04-.93-.06-1.39l-.09-1.38c-.05-.46-.12-.92-.19-1.38-.06-.45-.13-.91-.19-1.37l-.1-.71.38-.57.17-.29-.01-.05-.11-.01v-.06l.14-.01.21-.11.41-.65.82-1.29c.31-.44.47-.85.7-1.27l.66-1.25c.22-.41.39-.89.59-1.33l.57-1.34c.19-.45.34-.92.51-1.38l.5-1.38.39-1.1 1.13-.07 1.5-.1.76-.05.74-.12.54-.08c.01-.39.03-.79.03-1.19.05-3.61.11-7.41.23-11.34.02-.98.04-1.99.07-2.99-.55.26-1.12.48-1.71.65-1.02.32-2.1.44-3.19.46l-.8-.04-.21-.01-.28-.04-.34-.06-.71-.12a5.17 5.17 0 0 1-.75-.18l-1.58-.53-1.4-.68c-.48-.22-.9-.5-1.32-.79-.43-.28-.88-.54-1.28-.85-.75-.64-1.6-1.23-2.29-1.94-.7-.71-1.47-1.35-2.09-2.11-.53-.61-1.1-1.21-1.6-1.83-.12.69-.24 1.38-.37 2.06-.35 1.81-.77 3.6-1.26 5.38-.23.89-.5 1.77-.78 2.65-.28.88-.59 1.75-.91 2.61a52.6 52.6 0 0 1-2.27 5.09 44.6 44.6 0 0 1-1.38 2.44c-.5.8-1.02 1.58-1.59 2.33-.56.76-1.17 1.47-1.81 2.18-.65.68-1.31 1.37-2.05 1.97-.35.33-.72.62-1.12.9-.39.27-.75.59-1.17.82-.41.24-.81.51-1.23.74l-1.3.63c-.71.28-1.43.59-2.17.8.71.34 1.4.72 2.08 1.14.82.5 1.61 1.07 2.35 1.69.75.62 1.46 1.27 2.1 2.01.65.72 1.23 1.51 1.74 2.33.27.41.48.85.72 1.27.21.44.39.89.59 1.33l.47 1.38c.12.47.22.94.33 1.42.16.94.29 1.9.3 2.86.03.48.01.96-.01 1.44-.02.47-.02.96-.11 1.42l-.18 1.41-.29 1.39c-.17.94-.51 1.83-.75 2.73-.33.89-.62 1.78-.99 2.65-.39.85-.72 1.74-1.16 2.56-.43.83-.81 1.69-1.3 2.49-.47.8-.9 1.63-1.41 2.42l-.6.94.27-.11.37.88c-.59.25-1.16.51-1.72.8l-1.57.8.94-1.48.12-.19 1.36-2.15c.49-.78.91-1.59 1.38-2.39.46-.79.83-1.63 1.25-2.45.42-.81.74-1.68 1.11-2.51.35-.84.61-1.72.92-2.58.21-.89.51-1.74.66-2.64l.25-1.34.15-1.35c.06-.44.05-.89.06-1.33.03-.46.04-.91-.02-1.35-.03-.9-.18-1.77-.35-2.65-.12-.42-.23-.85-.35-1.28l-.47-1.24c-.2-.4-.38-.8-.58-1.19-.23-.37-.43-.76-.68-1.13-.5-.73-1.04-1.42-1.66-2.05-.6-.65-1.27-1.23-1.97-1.78a18.36 18.36 0 0 0-2.21-1.46c-.77-.45-1.57-.83-2.38-1.18-.7-.29-1.44-.56-2.12-.76-.12-.03-.23-.06-.35-.1l-4.24-1.08 4.36-.9c.83-.17 1.68-.28 2.48-.56.83-.22 1.6-.58 2.36-.91l1.12-.59 1.07-.7c.37-.21.68-.51 1.02-.76.34-.25.66-.54.97-.83.64-.56 1.21-1.2 1.78-1.83.55-.67 1.1-1.33 1.58-2.05.5-.71.96-1.43 1.4-2.18.45-.75.86-1.52 1.25-2.3.77-1.56 1.45-3.18 2.05-4.84.3-.82.57-1.66.84-2.5.26-.84.51-1.68.74-2.54.46-1.7.86-3.43 1.18-5.17.17-.87.32-1.74.45-2.62.12-.86.25-1.76.33-2.59l.36-3.62 2.21 2.91.54.73 1.13 1.5c.56.75 1.2 1.41 1.79 2.12.58.72 1.28 1.3 1.91 1.97.65.66 1.38 1.17 2.06 1.77.36.26.74.49 1.11.75.36.24.72.5 1.12.67l1.16.59 1.13.38c.17.09.4.12.64.16l.71.12.34.02.07-.05h.01l.09.08.54.07c.83 0 1.51-.04 2.31-.28.86-.23 1.2-.59 2.2-1.06v-.08c0-2.02.38-4.07.54-6.14.26-4.12.83-8.3 1.1-12.49.3-4.18.57-8.37 1.02-12.48.4-4.11.88-8.15 1.29-12.06.37-3.91.99-7.67 1.46-11.25.52-3.56.96-6.94 1.51-10.04.54-3.1 1.04-5.94 1.48-8.46.42-2.51.92-4.7 1.28-6.5.36-1.79.68-3.2.91-4.16.06-.26.4-1.63.84-3.45-.21 1.06-.43 2.22-.67 3.48-.18.97-.27 2.41-.46 4.24-.19 1.82-.47 4.02-.71 6.56-.26 2.54-.56 5.41-.88 8.53-.34 3.11-.59 6.51-.96 10.09-.32 3.57-.75 7.34-1.04 11.25-.33 3.91-.62 7.95-1 12.04-.42 4.09-.65 8.27-.92 12.44-.3 4.17-.61 8.34-.92 12.44-.08 1.21-.15 2.41-.22 3.6-.06 1.18-.12 2.35-.19 3.51-.08 1.68-.16 3.33-.25 4.95-.2 3.92-.44 7.71-.66 11.29-.01.22-.04.44-.05.66-.07 1.12-.13 2.23-.18 3.32-.09 2.14-.15 4.19-.23 6.14-.32 9.4-.74 16.48-.92 19.42.37.29.73.61 1.11.91l1.56 1.28 1.43 1.42 1.41 1.44 2.54 3.1c.42.51.76 1.09 1.14 1.63l1.13 1.66.54.82.49.86 1.7 3.03 1.63-.58 2.16-.64c.72-.19 1.45-.36 2.18-.54.73-.15 1.47-.28 2.21-.41h.02z" fill-rule="nonzero"/><path d="M95.63 118.54l.12.27c-.03.17-.08.35-.11.52-.36 1.8-.71 3.66-1.09 5.6-.39 1.93-.67 3.94-1.02 6.01-.71 4.13-1.26 8.51-1.83 13.04-.32 2.27-.48 4.59-.74 6.93-.22 2.33-.48 4.7-.65 7.09-.15 2.39-.31 4.81-.46 7.22-.15 2.43-.33 4.85-.39 7.29-.08 2.43.02 4.87-.06 7.29-.03 1.21.06 2.42.06 3.64v3.6c0 2.4-.15 4.78-.14 7.13.01 1.23-.07 2.46-.05 3.68.01.86-.02 1.72.03 2.56 0 .23-.01.47 0 .71.15 4.55.35 8.96.52 13.14.18 2.78.38 5.46.58 8.01.03.42.06.84.1 1.26-.04-.42-.07-.84-.11-1.26-.2-2.55-.4-5.23-.58-8.01-.18-4.18-.38-8.59-.53-13.14-.01-.24-.02-.48-.02-.71-.05-.84-.06-1.7-.07-2.56l-.03-.03-1.68-1.68-1.13-1.15-.56 1.53c-.3.84-.67 1.73-1.05 2.57-.38.85-.78 1.69-1.21 2.52-.85 1.66-1.82 3.24-2.9 4.73-.77 1.08-1.6 2.09-2.52 3.01.07-1.19.14-2.39.22-3.6.31-4.1.62-8.27.92-12.44.27-4.17.5-8.35.92-12.44.38-4.09.67-8.13 1-12.04.29-3.91.72-7.68 1.04-11.25.37-3.58.62-6.98.96-10.09.32-3.12.62-5.99.88-8.53.24-2.54.52-4.74.71-6.56.19-1.83.28-3.27.46-4.24.24-1.26.46-2.42.67-3.48l.01-.04c1.11-4.5 2.91-11.76 3.02-12.21l.01-.02.56-1.2c.53.36 1.03.76 1.53 1.18.65.56 1.25 1.17 1.82 1.81 1.13 1.31 2.11 2.76 2.79 4.34" fill="#fff" fill-rule="nonzero"/><path d="M90.64 225.29l-1.21 1.06-1.24 1.1-1.35.96-1.37.96c-.44.32-.96.54-1.44.82l-1.48.8c-.48.28-1.02.44-1.54.66l-1.55.64c-.52.2-1.07.32-1.61.49-.35.1-.71.2-1.07.3.05-1.09.11-2.2.18-3.32.01-.22.04-.44.05-.66.22-3.58.46-7.37.66-11.29.09-1.62.17-3.27.25-4.95.07-1.16.13-2.33.19-3.51.92-.92 1.75-1.93 2.52-3.01 1.08-1.49 2.05-3.07 2.9-4.73.43-.83.83-1.67 1.21-2.52.38-.84.75-1.73 1.05-2.57l.56-1.53 1.13 1.15 1.71 1.71c.01.86.02 1.72.07 2.56 0 .23.01.47.02.71.15 4.55.35 8.96.53 13.14.18 2.78.38 5.46.58 8.01.04.42.07.84.11 1.26.04.59.09 1.18.14 1.76" fill="#fff" fill-rule="nonzero"/><path d="M85.9 124.64c2.04-10.35 2.91-12.03 3.02-12.21-.11.45-1.91 7.71-3.02 12.21" fill-rule="nonzero"/><path d="M80.04 430.73v.02l-.25-.03.25.01z" fill="#f7931e" fill-rule="nonzero"/><path d="M79.95 430.71l-.43-.09-.09-.42-.38-1.66-.45-1.53c-.14-.52-.33-1.04-.52-1.55-.19-.52-.35-1.04-.57-1.54l-.64-1.52.65 1.52c.22.5.38 1.02.57 1.54.19.51.38 1.03.52 1.55l.47 1.53.4 1.66.15.42.32.09z" fill-rule="nonzero"/><path d="M79.83 430.99l.01.51-.11.29.1-.8z" fill="#f7931e" fill-rule="nonzero"/><path d="M69.41 212.98h-.08v-.01h.05l.03.01zm-.1-.01h.01v.01h-.01zm-.54 78.14c.53 1.41.68 2.26.68 2.26s-.41-.76-1.24-1.98c-.81-1.22-2.05-2.92-3.76-4.69-.86-.86-1.83-1.75-2.94-2.56-1.12-.79-2.36-1.48-3.69-2.05-1.35-.53-2.81-.82-4.3-.98-1.5-.12-3.05.04-4.58.33-.75.18-1.51.35-2.27.59-.73.29-1.5.47-2.22.81a41.92 41.92 0 0 0-4.2 2.06c-.66.4-1.3.8-1.94 1.17-.63.39-1.23.81-1.82 1.2-.61.39-1.18.78-1.71 1.19-.55.4-1.08.78-1.59 1.15-1.01.75-1.9 1.47-2.72 2.1-.84.61-1.51 1.2-2.09 1.66-1.16.93-1.86 1.45-1.86 1.45s.49-.7 1.41-1.89c.46-.59.99-1.34 1.69-2.1.7-.78 1.46-1.69 2.37-2.59.93-.89 1.89-1.93 3.06-2.85.57-.47 1.15-.98 1.77-1.46.62-.48 1.3-.92 1.96-1.39 1.38-.89 2.84-1.79 4.45-2.51.78-.4 1.65-.67 2.48-.98.85-.29 1.74-.51 2.62-.71 1.8-.31 3.65-.45 5.47-.26 1.83.2 3.58.75 5.14 1.47 1.56.75 2.91 1.74 4.06 2.78 1.16 1.02 2.06 2.15 2.84 3.21a22.79 22.79 0 0 1 2.93 5.57" fill-rule="nonzero"/><path d="M67.4 237.18l-.67 1.25c-.23.42-.4.83-.7 1.27l-.84 1.29-.45.65-.05.04-.2.07.2-.11.47-.65.85-1.29c.31-.44.48-.85.71-1.27l.68-1.25z" fill="#f7931e" fill-rule="nonzero"/><path d="M67.23 190.92c.02.79-.05 1.48-.07 2.04-.06 1.12-.1 1.77-.1 1.77l-.41-.01-.22-1.74c-.08-.55-.12-1.21-.25-1.97-.15-.75-.32-1.6-.51-2.53-.07-.46-.2-.94-.34-1.43s-.28-.99-.43-1.51c-.25-1.04-.65-2.12-1.02-3.23-.34-1.11-.85-2.23-1.28-3.38-.42-1.14-.99-2.27-1.48-3.41-.53-1.13-1.13-2.23-1.72-3.31-.65-1.05-1.2-2.12-1.77-3.13a58.67 58.67 0 0 1-1.46-3.04c-.44-.98-.87-1.91-1.23-2.79-.37-.87-.7-1.67-.98-2.41-.29-.72-.52-1.37-.71-1.91-.2-.54-.34-.96-.43-1.26-.09-.3-.15-.46-.15-.46l.33-.25s.58.37 1.46 1.14c.45.38.94.87 1.51 1.44.56.58 1.17 1.24 1.79 2.01.61.76 1.26 1.6 1.88 2.54.64.93 1.24 1.95 1.79 3.04.57 1.08 1 2.28 1.46 3.48.42 1.22.85 2.45 1.28 3.68.38 1.25.83 2.47 1.15 3.72.32 1.24.68 2.45.88 3.66.22 1.21.5 2.35.6 3.47.07.56.13 1.1.19 1.62.07.52.12 1.02.13 1.51.04.97.08 1.86.11 2.65m-.83-91.51c.62 1.68.56 3.53-.09 5.29-.33.89-.76 1.75-1.28 2.58-.54.82-1.11 1.63-1.77 2.39-.6.72-1.26 1.4-1.94 2.08 4.44-8.44 3.11-14.35-.43-18.46.77.51 1.51 1.06 2.2 1.65 1.47 1.28 2.7 2.79 3.31 4.47M60.41 184l-.39.13s-.22-.41-.59-1.13c-.22-.34-.45-.77-.76-1.23-.16-.23-.32-.47-.5-.73-.19-.25-.39-.51-.59-.78-.84-1.07-1.92-2.23-3.16-3.37-.62-.57-1.3-1.11-1.98-1.68-.69-.55-1.41-1.09-2.15-1.59-.74-.52-1.51-.98-2.3-1.4-.77-.43-1.55-.84-2.26-1.28-1.42-.9-2.66-1.89-3.73-2.76a35.08 35.08 0 0 1-2.56-2.28c-.61-.61-.95-1-.95-1l.16-.38s.53-.04 1.4.04c.88.07 2.1.28 3.49.71 1.39.45 2.98 1.09 4.5 2.08.76.5 1.49 1.1 2.19 1.75.72.64 1.42 1.31 2.13 1.97.71.66 1.39 1.35 2.04 2.05.65.7 1.25 1.43 1.8 2.15.55.73 1.06 1.44 1.5 2.16.44.71.81 1.4 1.14 2.05.15.33.3.64.44.94.12.31.23.6.34.87.22.54.35 1.04.48 1.44.19.81.31 1.27.31 1.27m-5.94 211.07l-.29.3s-.51-.39-1.4-1.05c-.46-.32-.97-.75-1.61-1.19-.64-.4-1.38-.87-2.17-1.38-.39-.26-.82-.5-1.27-.74-.45-.24-.91-.48-1.39-.74-.93-.53-1.98-.99-3.04-1.49-1.04-.53-2.19-.93-3.32-1.42-1.12-.49-2.32-.86-3.49-1.3-1.18-.39-2.39-.72-3.58-1.03-1.2-.27-2.36-.61-3.49-.9-1.12-.32-2.18-.69-3.2-1.04-1.01-.37-1.97-.7-2.86-1.05-.88-.34-1.7-.65-2.42-.96-.72-.29-1.35-.58-1.87-.8-.52-.24-.93-.43-1.21-.57-.28-.14-.43-.21-.43-.21l.05-.41s.67-.16 1.83-.27c.58-.06 1.28-.08 2.08-.1.81 0 1.71.02 2.69.11.98.08 2.04.2 3.14.4 1.11.18 2.26.45 3.43.81 1.17.34 2.34.86 3.52 1.36 1.17.53 2.36 1.08 3.55 1.62 1.16.59 2.36 1.11 3.47 1.74 1.13.63 2.24 1.21 3.26 1.9 1.02.67 2.04 1.26 2.92 1.97.44.34.88.66 1.3.98.42.31.82.62 1.18.95.73.64 1.4 1.23 1.99 1.75.58.54 1.03 1.06 1.42 1.47l1.21 1.29m-1.89 43.61l.02.52c-.01.17-.04.35-.05.52-.05.34-.09.66-.14.99-.12.63-.35 1.2-.52 1.75-.24.53-.52.98-.75 1.42-.5.88-1.09 1.51-1.51 2.06-.99 1-1.57 1.52-1.57 1.52s.38-.71 1.05-1.88c.16-.29.29-.64.46-1.01.13-.38.38-.74.47-1.19.12-.45.29-.9.39-1.37.04-.5.17-1 .18-1.53l-.03-.79c0-.14 0-.28-.01-.4l-.1-.41c-.07-.27-.11-.54-.17-.82-.1-.26-.21-.52-.31-.8-.09-.27-.23-.52-.39-.79-.17-.25-.3-.51-.48-.77-.41-.48-.73-1.02-1.23-1.47-.88-.98-2.04-1.82-3.21-2.65-1.22-.8-2.47-1.58-3.82-2.25-1.32-.73-2.7-1.36-4.07-1.97-1.38-.57-2.73-1.18-4.08-1.68-1.35-.51-2.65-1.02-3.89-1.47-1.25-.44-2.44-.86-3.53-1.25-4.44-1.54-7.39-2.56-7.39-2.56s.79 0 2.17.09c1.37.11 3.34.31 5.66.72 1.17.19 2.44.42 3.76.75 1.31.3 2.7.65 4.13 1.09 1.41.45 2.89.91 4.34 1.5 1.46.6 2.93 1.23 4.37 1.97a31.5 31.5 0 0 1 4.13 2.56c1.29.97 2.52 2.06 3.52 3.31.52.59.96 1.28 1.36 1.95.2.34.33.72.49 1.07.16.35.31.7.39 1.08.09.37.18.73.28 1.09.03.37.06.74.08 1.1m-10.46-46.22l-.18.37-1.22-.36c-.4-.08-.86-.21-1.41-.3-.28-.05-.57-.1-.87-.15-.31-.03-.64-.07-.98-.11-1.35-.14-2.93-.16-4.61-.05-.84.05-1.71.16-2.59.26-.87.12-1.76.27-2.64.45-.88.18-1.75.42-2.6.69-.84.27-1.67.54-2.48.75-1.63.4-3.21.61-4.58.78-1.38.17-2.56.25-3.42.27-.85.02-1.37-.01-1.37-.01l-.17-.37s.34-.41 1-.99c.66-.58 1.65-1.32 2.93-2.02 1.29-.7 2.84-1.4 4.61-1.82.89-.19 1.82-.31 2.78-.37.96-.07 1.93-.12 2.9-.16.96-.06 1.94-.07 2.89-.06.96.02 1.89.08 2.8.19.91.11 1.77.23 2.59.41.82.17 1.58.38 2.27.6.34.11.67.22.98.33.31.13.6.24.87.36.54.21.99.46 1.37.64.72.42 1.13.67 1.13.67m-7.23-287.05l.06.4s-.61.18-1.68.51c-.52.17-1.17.33-1.9.57-.72.28-1.53.59-2.41.93-.44.15-.89.36-1.35.58-.46.21-.93.44-1.42.67-.99.43-1.98 1-3.01 1.55-1.05.52-2.06 1.21-3.12 1.82-1.06.61-2.08 1.36-3.12 2.03-1.02.71-2.01 1.49-2.97 2.25-.93.81-1.89 1.54-2.8 2.27-.93.71-1.86 1.34-2.74 1.95-.9.59-1.74 1.17-2.55 1.67-.8.51-1.53.97-2.21 1.37-.67.41-1.27.74-1.77 1.02s-.89.49-1.17.64c-.28.14-.43.21-.43.21l-.3-.28s.27-.63.88-1.62c.3-.5.7-1.08 1.16-1.74.48-.64 1.04-1.36 1.69-2.09.65-.73 1.37-1.52 2.2-2.28.8-.79 1.7-1.55 2.69-2.27.97-.74 2.08-1.37 3.19-2.02 1.13-.62 2.27-1.25 3.42-1.88 1.17-.58 2.29-1.24 3.47-1.75 1.17-.53 2.3-1.08 3.46-1.49 1.15-.41 2.23-.88 3.32-1.16.54-.16 1.06-.32 1.56-.46.5-.16.99-.29 1.47-.38.95-.21 1.82-.39 2.59-.56.78-.14 1.47-.2 2.03-.27l1.76-.19m-9.47 8.35l.2.36-1.02.77c-.3.27-.68.56-1.08.96-.2.19-.42.39-.64.61-.21.22-.44.46-.67.71-.92 1-1.88 2.26-2.79 3.68-.46.7-.89 1.46-1.33 2.23-.43.77-.84 1.57-1.22 2.39-.38.81-.71 1.65-.99 2.49-.29.84-.56 1.67-.89 2.45-.64 1.55-1.41 2.94-2.09 4.14a30.88 30.88 0 0 1-1.83 2.9c-.49.7-.82 1.1-.82 1.1l-.4-.09s-.13-.51-.2-1.39c-.07-.87-.07-2.11.13-3.56.2-1.44.56-3.11 1.29-4.78.37-.83.84-1.65 1.36-2.45.51-.81 1.05-1.62 1.59-2.43.53-.81 1.1-1.6 1.68-2.35.58-.76 1.2-1.47 1.82-2.14.63-.66 1.24-1.29 1.88-1.83.62-.56 1.24-1.04 1.83-1.47.29-.21.58-.4.85-.59.28-.17.55-.33.8-.48.5-.31.97-.52 1.34-.72.76-.32 1.2-.51 1.2-.51" fill-rule="nonzero"/><path d="M61.32 111.75l-4.416-2.345c-.447.843-.96 1.725-1.544 2.638l-11.774 18.374 18.6-11.415c3.9-2.396 7.286-3.954 10.17-4.904 2.888-.95 5.268-1.296 7.225-1.296 2.38.005 4.15.493 5.605 1.182a11.408 11.408 0 0 1 2.77 1.868 13.133 13.133 0 0 1 3.03 4.12c.05.113.082.19.096.225l.01.022 2.596-.984-2.615.933.02.05 2.596-.984-2.615.933 3.667 10.276 5.39-9.486a29.877 29.877 0 0 1 1.77-2.754l.025-.036-.032.045c1.944-2.675 3.825-4.215 5.568-5.136 1.748-.917 3.412-1.258 5.15-1.265 1.623-.002 3.303.33 4.926.88 2.433.822 4.703 2.14 6.303 3.248a28.3 28.3 0 0 1 1.855 1.394c.21.172.364.305.458.388l.095.084.042-.047-.043.046.043-.047-.043.046 5.458 5.082 2.63-6.98-2.643-.995 2.633 1.017.01-.022-2.643-.995 2.634 1.017.02-.05c.222-.57 2.456-5.746 7.442-10.55 2.493-2.41 5.654-4.74 9.638-6.48 3.988-1.736 8.81-2.905 14.775-2.91 1.77 0 3.636.105 5.612.332l24.125 2.78-21.065-12.083-.74 1.288.742-1.286h-.002l-.74 1.287.742-1.286c-.057-.028-6.954-4.027-13.588-9.784-3.316-2.866-6.552-6.177-8.823-9.475-1.14-1.646-2.034-3.28-2.62-4.817-.59-1.54-.873-2.962-.872-4.274.008-1.408.298-2.71 1.053-4.15.76-1.435 2.034-3.024 4.138-4.713l13.33-10.687-16.99 1.817.18 1.687-.172-1.69-.01.002.18 1.686-.17-1.69c-.04.005-1.352.135-3.417.135-2.866.004-7.192-.26-11.532-1.382-2.22-.573-4.44-1.364-6.486-2.42a22.193 22.193 0 0 1-4.263-2.836 18.283 18.283 0 0 1-4.78-6.3C118.817 25.46 118.003 22.2 117.9 18l-.435-18-8.91 15.646 2.747 1.564-2.738-1.58-.01.016 2.748 1.564-2.738-1.58v.003c-.055.1-1.666 2.797-4.43 5.494-1.38 1.35-3.04 2.698-4.893 3.77-1.856 1.07-3.892 1.864-6.12 2.2h-.002c-.26.038-.63.067-1.083.067-1.127.004-2.728-.187-4.507-.586-2.676-.593-5.77-1.633-8.655-2.937-2.888-1.295-5.585-2.875-7.483-4.397l-7.85-6.265-.268 10.04 2.962.08-2.96-.155-.002.075 2.962.08-2.96-.155.236.012-.235-.015v.002l.235.012-.235-.015c-.002.036-.062.862-.45 2.105-.39 1.247-1.098 2.904-2.412 4.69l-.003.005c-1.446 1.964-3.623 4.11-7.1 6.07-3.474 1.952-8.276 3.71-14.938 4.705-.823.123-1.627.23-2.427.308l-11.593 1.132 8.805 7.625 1.838-2.122-1.848 2.112.01.01 1.838-2.122-1.848 2.112.107.097c.55.496 3.096 2.926 5.38 6.388 1.143 1.728 2.22 3.71 2.988 5.8.772 2.094 1.237 4.286 1.236 6.512a15.75 15.75 0 0 1-1.164 5.944c-.835 2.07-2.184 4.278-4.333 6.616l-6.636 7.213 9.736 1.137c.192.022 3.342.44 6.964 1.628 1.81.59 3.73 1.37 5.44 2.333 1.714.96 3.196 2.096 4.232 3.31l.006.006c.664.773 1.157 1.566 1.496 2.42.336.858.533 1.784.535 2.926 0 1.827-.538 4.288-2.238 7.522l.01-.017 4.415 2.345 4.425 2.328c2.262-4.298 3.387-8.36 3.388-12.18a17.82 17.82 0 0 0-1.237-6.603c-.792-2.006-1.92-3.765-3.217-5.268l.004.007c-2.107-2.448-4.63-4.25-7.163-5.65-3.807-2.09-7.69-3.296-10.677-4.038-2.984-.736-5.07-.983-5.223-1l-.58 4.965 3.68 3.387c2.87-3.118 4.93-6.37 6.25-9.652a25.748 25.748 0 0 0 1.888-9.677c0-3.925-.882-7.54-2.136-10.71-1.89-4.76-4.6-8.572-6.837-11.26-2.242-2.687-4.032-4.247-4.182-4.377L36.43 45.8l.486 4.976a56.91 56.91 0 0 0 2.932-.37c7.668-1.144 13.68-3.248 18.363-5.88 4.684-2.627 8.007-5.79 10.26-8.867l-.002.003c2.264-3.075 3.464-6.036 4.093-8.276.63-2.244.7-3.776.71-4.106l-5-.13-3.12 3.91c1.868 1.485 3.965 2.815 6.19 4.01a58.048 58.048 0 0 0 10.51 4.346c1.772.534 3.524.964 5.226 1.267 1.703.3 3.35.48 4.96.48.86 0 1.712-.052 2.568-.18l.19-.03-.192.03c3.778-.565 7.1-1.924 9.903-3.582 4.21-2.493 7.31-5.634 9.418-8.156 2.105-2.528 3.216-4.463 3.325-4.65L112.9 18.12l-4.998.12c.113 4.782.978 9.018 2.466 12.694a28.6 28.6 0 0 0 4.273 7.287c2.55 3.154 5.608 5.538 8.784 7.316 3.18 1.78 6.48 2.973 9.64 3.787 5.493 1.41 10.577 1.697 14.028 1.7 2.648 0 4.33-.175 4.47-.19l-.53-4.972-3.128-3.9c-2.958 2.37-5.214 4.988-6.72 7.835a18.713 18.713 0 0 0-2.214 8.83c0 2.775.6 5.435 1.556 7.91 1.683 4.335 4.413 8.174 7.472 11.624 4.598 5.16 10.01 9.45 14.308 12.53 4.298 3.07 7.485 4.9 7.588 4.96l2.488-4.338.572-4.966a58.797 58.797 0 0 0-6.757-.398c-7.647-.005-14.168 1.613-19.53 4.083a42.48 42.48 0 0 0-10.167 6.586 45.283 45.283 0 0 0-8.81 10.454c-1.82 2.976-2.63 5.088-2.717 5.318l4.68 1.762 3.408-3.66c-.18-.163-2.382-2.21-5.954-4.315-1.79-1.052-3.926-2.12-6.36-2.948-2.432-.824-5.175-1.41-8.137-1.41a20.88 20.88 0 0 0-9.81 2.414c-3.264 1.717-6.323 4.41-9.005 8.117l-.013.017.005-.01a40.144 40.144 0 0 0-2.352 3.667l4.347 2.47 4.71-1.68c-.073-.2-.41-1.107-1.118-2.4-1.065-1.926-2.97-4.76-6.206-7.214a21.335 21.335 0 0 0-5.844-3.13c-2.278-.794-4.88-1.265-7.74-1.263-3.147 0-6.6.56-10.354 1.8-3.758 1.237-7.826 3.148-12.274 5.877l2.616 4.26 4.21 2.697a47.443 47.443 0 0 0 1.956-3.342l.01-.017-4.426-2.328z" fill-rule="nonzero"/><g fill="#ed1c24" fill-rule="nonzero" stroke-width="2.67" stroke="#000"><path d="M14.913 31.627L2.87 72.9c-.247 1.127-.227 2.12.06 2.98.286.86.746 1.638 1.38 2.332.778.887 1.46 1.62 2.045 2.2a38.73 38.73 0 0 0 1.856 1.72c.575.513 1.278.946 2.11 1.303.83.356 2.124.444 3.874.263 2.6-.102 5.334-.23 8.2-.38a934.49 934.49 0 0 1 8.463-.406c1.17-.048 1.884-.216 2.14-.502.257-.287.34-.868.25-1.743a38.44 38.44 0 0 1-.597-2.38c-.17-.78-.448-1.627-.834-2.544-.356-.826-.843-1.413-1.46-1.76-.62-.347-1.527-.563-2.72-.648a104.33 104.33 0 0 0-5.934-.33c-1.826-.046-3.755-.04-5.788.013.507-1.135.994-2.283 1.462-3.444a726.76 726.76 0 0 1 1.498-3.697 173.17 173.17 0 0 1 7.834-.303c2.7-.045 5.35-.12 7.95-.22 1.22-.085 1.99-.277 2.314-.575.322-.3.384-.96.185-1.98a34.836 34.836 0 0 0-.37-2.607 12.82 12.82 0 0 0-.815-2.67c-.344-.91-.836-1.542-1.475-1.892-.64-.35-1.554-.587-2.742-.714a112.084 112.084 0 0 0-4.082-.39 58.03 58.03 0 0 0-3.856-.163 219.212 219.212 0 0 0 2.757-6.168c.84-1.97 1.715-3.86 2.62-5.67 3.06.006 5.962.055 8.707.146 2.747.09 5.41.17 7.985.237 1.25.006 2.07-.157 2.462-.49.392-.33.582-1.058.57-2.18-.072-1-.155-1.93-.248-2.783-.095-.854-.344-1.827-.747-2.92-.405-1.997-1.813-3.146-4.227-3.448a85.796 85.796 0 0 0-7.72-.49 157.23 157.23 0 0 0-7.635.04 137.5 137.5 0 0 0-7.167.398c-2.29.19-4.377.388-6.26.592zM66.28 87.91c1.346-.065 2.114-.235 2.305-.51.19-.275.2-.877.032-1.806a15.586 15.586 0 0 0-.407-2.353 13.073 13.073 0 0 0-.905-2.487c-.392-.876-.88-1.472-1.457-1.792-.58-.32-1.467-.52-2.66-.606a155.19 155.19 0 0 0-5.577-.345 77.246 77.246 0 0 0-5.555-.02 739.618 739.618 0 0 1 3.494-8.842 429.497 429.497 0 0 1 3.842-9.245 690.68 690.68 0 0 1 3.94-9.005c1.3-2.918 2.553-5.583 3.76-7.996.538-1.043.71-1.88.52-2.51-.19-.63-.776-1.426-1.76-2.386-1.03-.923-2.263-1.8-3.696-2.63-1.433-.83-2.78-1.507-4.04-2.032-1.256-.567-2.228-.782-2.915-.643-.69.14-1.332.79-1.93 1.955-.9 2.07-1.84 4.348-2.82 6.838a344.34 344.34 0 0 0-2.954 7.788c-.99 2.704-1.94 5.424-2.847 8.16a443 443 0 0 0-2.56 7.94 248.064 248.064 0 0 0-2.122 7.166c-.62 2.217-1.11 4.14-1.47 5.77-.322 1.032-.344 1.944-.07 2.737.275.794.728 1.538 1.362 2.232.862.9 1.554 1.633 2.076 2.204.522.57 1.108 1.14 1.76 1.705.266.253.545.487.838.7.292.216.663.408 1.113.58.45.173.994.283 1.634.33.64.05 1.444.013 2.41-.107a702.6 702.6 0 0 1 8.236-.407c2.884-.125 5.693-.252 8.426-.38zM98.95 43.9c-1.032-.924-2.26-1.832-3.683-2.726-1.424-.893-2.767-1.602-4.028-2.127-1.257-.567-2.23-.76-2.925-.58-.695.18-1.32.858-1.874 2.028a286.112 286.112 0 0 0-2.51 6.72 302.65 302.65 0 0 0-2.817 8.164c-.95 2.88-1.9 5.824-2.847 8.836-.948 3.01-1.822 5.88-2.62 8.61a290.567 290.567 0 0 0-2.115 7.554c-.61 2.306-1.062 4.192-1.357 5.658-.284 1.08-.31 1.95-.082 2.607.23.658.797 1.288 1.7 1.89a15.95 15.95 0 0 0 2.66 1.545c.95.438 1.95.882 3.01 1.335 1.06.41 1.785.535 2.175.376.388-.16.74-.582 1.054-1.27a399.04 399.04 0 0 1 2.29-6.3 552.267 552.267 0 0 1 2.847-7.48c1.023-2.633 2.076-5.327 3.16-8.082a485.526 485.526 0 0 1 3.254-8.068 304.822 304.822 0 0 1 6.066-13.713c.458-1.098.614-1.96.467-2.584-.15-.624-.757-1.422-1.824-2.394z"/><path d="M119.684 59.858c-.58-2.28-1.14-4.463-1.682-6.544a240.1 240.1 0 0 1-1.457-5.865c-.417-1.31-.974-2.393-1.67-3.247-.697-.855-1.77-1.493-3.217-1.915a74.558 74.558 0 0 0-2.077-.395 64.626 64.626 0 0 0-1.96-.312l-1.835-.262-.95-.136a7.69 7.69 0 0 0-.96-.072c-1.25-.006-2.035.215-2.358.665-.323.45-.327 1.386-.014 2.81.356 1.43.797 3.088 1.326 4.974a851.86 851.86 0 0 0 1.72 6.064 462.25 462.25 0 0 0 1.98 6.716c.702 2.32 1.407 4.63 2.112 6.93a303.71 303.71 0 0 0-9.756 9.692c-2.963 3.09-5.353 5.71-7.17 7.865-.41.46-.696.87-.855 1.235-.16.365-.26.696-.303.992-.013.386.153.883.497 1.493a13.8 13.8 0 0 0 1.313 1.9c.53.658 1.097 1.29 1.7 1.893a18.514 18.514 0 0 0 1.72 1.538c1.497 1.292 2.843 1.376 4.037.254a175.44 175.44 0 0 0 5.875-5.593 220.96 220.96 0 0 1 7.286-6.88 295.39 295.39 0 0 0 2.48 7.757c.71 2.106 1.27 3.554 1.673 4.345.572 1.116 1.144 1.94 1.714 2.475.57.534 1.416.946 2.54 1.236 2.25.537 4.445.85 6.588.942 1.895.012 2.462-.79 1.702-2.408-.82-3.005-1.74-6.444-2.76-10.318a7144.42 7144.42 0 0 1-3.284-12.528c3.7-3.264 7.26-6.386 10.68-9.367 3.423-2.98 6.464-5.638 9.125-7.973.887-.778 1.505-1.638 1.856-2.58.35-.94.247-2.033-.307-3.276-.46-1.014-1.076-2.125-1.85-3.335-.777-1.21-1.596-2.263-2.458-3.162a7.26 7.26 0 0 0-1.294-.898 4.092 4.092 0 0 0-1.357-.452c-.887-.127-1.823.235-2.806 1.086-2.057 1.73-4.397 3.853-7.02 6.366a903.34 903.34 0 0 0-8.522 8.286zm43.89-6.72c-1.033-.925-2.26-1.83-3.684-2.726-1.424-.893-2.767-1.603-4.028-2.127-1.255-.568-2.23-.76-2.923-.58-.697.18-1.32.857-1.876 2.027a286.112 286.112 0 0 0-2.512 6.72 302.65 302.65 0 0 0-2.816 8.164c-.95 2.882-1.9 5.827-2.847 8.838a435.296 435.296 0 0 0-2.62 8.612 287.27 287.27 0 0 0-2.116 7.553c-.61 2.303-1.063 4.19-1.358 5.655-.284 1.08-.31 1.948-.082 2.606.23.66.796 1.29 1.7 1.893.822.59 1.707 1.106 2.658 1.544.95.437 1.953.882 3.01 1.335 1.06.41 1.786.535 2.176.376.387-.16.74-.586 1.053-1.273a399.04 399.04 0 0 1 2.29-6.3 552.267 552.267 0 0 1 2.85-7.48c1.023-2.633 2.076-5.327 3.16-8.082a485.526 485.526 0 0 1 3.254-8.068 304.822 304.822 0 0 1 6.065-13.712c.457-1.098.613-1.96.466-2.584-.148-.624-.757-1.42-1.824-2.394zm9.753 37.597a49.536 49.536 0 0 0 3.1 4.55c1.16 1.522 2.33 2.993 3.506 4.41a85.1 85.1 0 0 0 3.448 3.92 64.582 64.582 0 0 0 2.998 3.015c1.35 1.098 2.58 1.78 3.683 2.046 1.105.266 2.14.338 3.106.217a62.378 62.378 0 0 0 1.982-.072c.543-.03 1.237-.285 2.082-.767.7-.374 1.12-.766 1.266-1.177.145-.41-.154-1.035-.896-1.873a54.707 54.707 0 0 1-2.964-3.462 190.202 190.202 0 0 1-3.135-4.07c-1.05-1.4-2.067-2.794-3.053-4.185a136.765 136.765 0 0 1-2.7-3.94c5.03-1.437 9.422-3.137 13.173-5.1 3.75-1.965 6.57-4.298 8.467-7 1.23-1.678 1.773-3.97 1.63-6.88-.296-2.757-.914-5.14-1.855-7.15a40.224 40.224 0 0 0-3.285-5.738c-1.6-2.083-3.605-3.5-6.02-4.255-2.412-.753-5.038-1.086-7.873-.995-2.836.09-5.76.502-8.775 1.235a205.586 205.586 0 0 0-8.705 2.31c-.59.22-1.226.893-1.905 2.024-.678 1.13-1.36 2.585-2.045 4.362a103.213 103.213 0 0 0-2.09 6.037 207.422 207.422 0 0 0-2.066 6.978 436.63 436.63 0 0 0-1.94 7.224 525.205 525.205 0 0 0-3.07 12.427c-.39 1.67-.69 2.94-.9 3.815-.242 1.085-.26 1.977-.06 2.674.203.697.67 1.335 1.41 1.914a9.13 9.13 0 0 0 2.406 1.25 48.79 48.79 0 0 1 2.942 1.13c.94.35 1.605.446 1.994.287.39-.16.737-.562 1.046-1.208.79-2.214 1.597-4.47 2.422-6.765.823-2.296 1.714-4.69 2.675-7.182zm10.456-24.753c1.762-.568 3.402-.893 4.924-.977 1.52-.085 2.892-.04 4.118.136 2.49.358 3.907 1.163 4.245 2.42.15.753-.206 1.736-1.07 2.95-.862 1.212-2.158 2.44-3.886 3.68-1.73 1.24-3.825 2.404-6.287 3.496-2.462 1.09-5.22 1.916-8.272 2.47 1.2-2.673 2.293-5.19 3.277-7.548a142.28 142.28 0 0 1 2.95-6.625z"/></g></svg>