<?xml version="1.0" standalone="no"?>
<!DOCTYPE svg PUBLIC "-//W3C//DTD SVG 1.1//EN" "http://www.w3.org/Graphics/SVG/1.1/DTD/svg11.dtd">
<svg width="100%" height="100%" viewBox="0 0 61 89" version="1.1" xmlns="http://www.w3.org/2000/svg" xmlns:xlink="http://www.w3.org/1999/xlink" xml:space="preserve" style="fill-rule:evenodd;clip-rule:evenodd;stroke-linejoin:round;stroke-miterlimit:1.41421;">
    <g transform="matrix(1,0,0,1,-637.95,-73.4)">
        <rect x="637.95" y="73.4" width="60.396" height="88.775" style="fill:rgb(255,247,226);fill-rule:nonzero;"/>
    </g>
    <g transform="matrix(1,0,0,1,-637.95,-73.4)">
        <path d="M687.236,106.992C687.236,118.688 677.755,128.169 666.058,128.169C654.363,128.169 644.882,118.688 644.882,106.992C644.882,95.296 654.363,85.815 666.058,85.815C677.755,85.815 687.236,95.296 687.236,106.992" style="fill:rgb(86,195,238);fill-rule:nonzero;"/>
    </g>
    <g transform="matrix(1,0,0,1,-637.95,-73.4)">
        <rect x="647.406" y="122.336" width="18.653" height="18.654" style="fill:rgb(255,209,68);fill-rule:nonzero;"/>
    </g>
    <g transform="matrix(1,0,0,1,-637.95,-73.4)">
        <path d="M691.129,106.992L691.129,136.38L656.733,136.38L691.129,106.992Z" style="fill:rgb(224,96,161);fill-rule:nonzero;"/>
    </g>
    <g transform="matrix(1,0,0,1,-637.95,-73.4)">
        <path d="M696.736,75.657C696.736,76.248 696.257,76.726 695.667,76.726C695.076,76.726 694.597,76.248 694.597,75.657C694.597,75.066 695.076,74.588 695.667,74.588C696.257,74.588 696.736,75.066 696.736,75.657" style="fill:rgb(86,195,238);fill-rule:nonzero;"/>
    </g>
    <g transform="matrix(1,0,0,1,-637.95,-73.4)">
        <path d="M641.424,75.657C641.424,76.248 640.945,76.726 640.354,76.726C639.764,76.726 639.285,76.248 639.285,75.657C639.285,75.066 639.764,74.588 640.354,74.588C640.945,74.588 641.424,75.066 641.424,75.657" style="fill:rgb(86,195,238);fill-rule:nonzero;"/>
    </g>
    <g transform="matrix(1,0,0,1,-637.95,-73.4)">
        <path d="M641.424,159.696C641.424,160.286 640.945,160.765 640.354,160.765C639.764,160.765 639.285,160.286 639.285,159.696C639.285,159.105 639.764,158.626 640.354,158.626C640.945,158.626 641.424,159.105 641.424,159.696" style="fill:rgb(86,195,238);fill-rule:nonzero;"/>
    </g>
    <g transform="matrix(1,0,0,1,-637.95,-73.4)">
        <path d="M696.736,159.696C696.736,160.286 696.257,160.765 695.667,160.765C695.076,160.765 694.597,160.286 694.597,159.696C694.597,159.105 695.076,158.626 695.667,158.626C696.257,158.626 696.736,159.105 696.736,159.696" style="fill:rgb(86,195,238);fill-rule:nonzero;"/>
    </g>
</svg>
