<?xml version="1.0" standalone="no"?>
<!DOCTYPE svg PUBLIC "-//W3C//DTD SVG 1.1//EN" "http://www.w3.org/Graphics/SVG/1.1/DTD/svg11.dtd">
<svg width="100%" height="100%" viewBox="0 0 278 357" version="1.1" xmlns="http://www.w3.org/2000/svg" xmlns:xlink="http://www.w3.org/1999/xlink" xml:space="preserve" style="fill-rule:evenodd;clip-rule:evenodd;stroke-linejoin:round;stroke-miterlimit:1.41421;">
    <g transform="matrix(1,0,0,1,-67.3402,-389)">
        <rect x="196.935" y="556.825" width="79.917" height="51.48" style="fill:rgb(109,110,112);fill-rule:nonzero;"/>
    </g>
    <g transform="matrix(1,0,0,1,-67.3402,-389)">
        <path d="M317.96,593.471L252.167,593.471C249.717,593.471 247.731,595.457 247.731,597.908L247.731,636.882L322.397,636.882L322.397,597.908C322.397,595.457 320.41,593.471 317.96,593.471" style="fill:rgb(64,64,65);fill-rule:nonzero;"/>
    </g>
    <g transform="matrix(1,0,0,1,-67.3402,-389)">
        <path d="M317.96,596.51L252.167,596.51C251.397,596.51 250.77,597.137 250.77,597.908L250.77,633.844L319.358,633.844L319.358,597.908C319.358,597.137 318.731,596.51 317.96,596.51" style="fill:rgb(88,89,91);fill-rule:nonzero;"/>
    </g>
    <g transform="matrix(1,0,0,1,-67.3402,-389)">
        <rect x="174.26" y="556.825" width="19.388" height="51.48" style="fill:rgb(109,110,112);fill-rule:nonzero;"/>
    </g>
    <g transform="matrix(1,0,0,1,-67.3402,-389)">
        <rect x="176.206" y="560.443" width="15.876" height="1.233" style="fill:rgb(229,230,231);fill-rule:nonzero;"/>
    </g>
    <g transform="matrix(1,0,0,1,-67.3402,-389)">
        <rect x="201.124" y="560.443" width="4.23" height="1.233" style="fill:rgb(229,230,231);fill-rule:nonzero;"/>
    </g>
    <g transform="matrix(1,0,0,1,-67.3402,-389)">
        <rect x="198.206" y="560.443" width="1.044" height="1.233" style="fill:rgb(229,230,231);fill-rule:nonzero;"/>
    </g>
    <g transform="matrix(1,0,0,1,-67.3402,-389)">
        <rect x="201.123" y="563.352" width="18.398" height="1.232" style="fill:rgb(229,230,231);fill-rule:nonzero;"/>
    </g>
    <g transform="matrix(1,0,0,1,-67.3402,-389)">
        <rect x="198.206" y="563.352" width="1.044" height="1.232" style="fill:rgb(229,230,231);fill-rule:nonzero;"/>
    </g>
    <g transform="matrix(1,0,0,1,-67.3402,-389)">
        <rect x="201.123" y="566.262" width="14.955" height="1.232" style="fill:rgb(229,230,231);fill-rule:nonzero;"/>
    </g>
    <g transform="matrix(1,0,0,1,-67.3402,-389)">
        <rect x="198.206" y="566.262" width="1.044" height="1.232" style="fill:rgb(229,230,231);fill-rule:nonzero;"/>
    </g>
    <g transform="matrix(1,0,0,1,-67.3402,-389)">
        <rect x="201.123" y="569.171" width="22.47" height="1.233" style="fill:rgb(229,230,231);fill-rule:nonzero;"/>
    </g>
    <g transform="matrix(1,0,0,1,-67.3402,-389)">
        <rect x="198.206" y="569.171" width="1.044" height="1.233" style="fill:rgb(229,230,231);fill-rule:nonzero;"/>
    </g>
    <g transform="matrix(1,0,0,1,-67.3402,-389)">
        <rect x="201.123" y="572.081" width="28.271" height="1.232" style="fill:rgb(229,230,231);fill-rule:nonzero;"/>
    </g>
    <g transform="matrix(1,0,0,1,-67.3402,-389)">
        <rect x="198.206" y="572.081" width="1.044" height="1.232" style="fill:rgb(229,230,231);fill-rule:nonzero;"/>
    </g>
    <g transform="matrix(1,0,0,1,-67.3402,-389)">
        <rect x="198.206" y="574.991" width="1.044" height="1.232" style="fill:rgb(229,230,231);fill-rule:nonzero;"/>
    </g>
    <g transform="matrix(1,0,0,1,-67.3402,-389)">
        <rect x="198.206" y="577.9" width="1.044" height="1.233" style="fill:rgb(229,230,231);fill-rule:nonzero;"/>
    </g>
    <g transform="matrix(1,0,0,1,-67.3402,-389)">
        <rect x="201.124" y="580.809" width="35.355" height="1.233" style="fill:rgb(229,230,231);fill-rule:nonzero;"/>
    </g>
    <g transform="matrix(1,0,0,1,-67.3402,-389)">
        <rect x="198.206" y="580.809" width="1.044" height="1.233" style="fill:rgb(229,230,231);fill-rule:nonzero;"/>
    </g>
    <g transform="matrix(1,0,0,1,-67.3402,-389)">
        <rect x="201.123" y="583.719" width="24.537" height="1.232" style="fill:rgb(229,230,231);fill-rule:nonzero;"/>
    </g>
    <g transform="matrix(1,0,0,1,-67.3402,-389)">
        <rect x="198.206" y="583.719" width="1.044" height="1.232" style="fill:rgb(229,230,231);fill-rule:nonzero;"/>
    </g>
    <g transform="matrix(1,0,0,1,-67.3402,-389)">
        <rect x="201.123" y="586.628" width="19.565" height="1.233" style="fill:rgb(229,230,231);fill-rule:nonzero;"/>
    </g>
    <g transform="matrix(1,0,0,1,-67.3402,-389)">
        <rect x="198.206" y="586.628" width="1.044" height="1.233" style="fill:rgb(229,230,231);fill-rule:nonzero;"/>
    </g>
    <g transform="matrix(1,0,0,1,-67.3402,-389)">
        <rect x="201.123" y="589.538" width="27.868" height="1.233" style="fill:rgb(229,230,231);fill-rule:nonzero;"/>
    </g>
    <g transform="matrix(1,0,0,1,-67.3402,-389)">
        <rect x="198.206" y="589.538" width="1.044" height="1.233" style="fill:rgb(229,230,231);fill-rule:nonzero;"/>
    </g>
    <g transform="matrix(1,0,0,1,-67.3402,-389)">
        <rect x="201.123" y="592.448" width="23.21" height="1.232" style="fill:rgb(229,230,231);fill-rule:nonzero;"/>
    </g>
    <g transform="matrix(1,0,0,1,-67.3402,-389)">
        <rect x="198.206" y="592.448" width="1.044" height="1.232" style="fill:rgb(229,230,231);fill-rule:nonzero;"/>
    </g>
    <g transform="matrix(1,0,0,1,-67.3402,-389)">
        <rect x="201.123" y="595.357" width="46.608" height="1.233" style="fill:rgb(229,230,231);fill-rule:nonzero;"/>
    </g>
    <g transform="matrix(1,0,0,1,-67.3402,-389)">
        <rect x="198.206" y="595.357" width="1.044" height="1.233" style="fill:rgb(229,230,231);fill-rule:nonzero;"/>
    </g>
    <g transform="matrix(1,0,0,1,-67.3402,-389)">
        <rect x="201.123" y="598.266" width="8.46" height="1.233" style="fill:rgb(229,230,231);fill-rule:nonzero;"/>
    </g>
    <g transform="matrix(1,0,0,1,-67.3402,-389)">
        <rect x="198.206" y="598.266" width="1.044" height="1.233" style="fill:rgb(229,230,231);fill-rule:nonzero;"/>
    </g>
    <g transform="matrix(1,0,0,1,-67.3402,-389)">
        <rect x="201.123" y="601.176" width="17.678" height="1.232" style="fill:rgb(229,230,231);fill-rule:nonzero;"/>
    </g>
    <g transform="matrix(1,0,0,1,-67.3402,-389)">
        <rect x="198.206" y="601.176" width="1.044" height="1.232" style="fill:rgb(229,230,231);fill-rule:nonzero;"/>
    </g>
    <g transform="matrix(1,0,0,1,-67.3402,-389)">
        <rect x="201.123" y="604.085" width="1.308" height="1.233" style="fill:rgb(229,230,231);fill-rule:nonzero;"/>
    </g>
    <g transform="matrix(1,0,0,1,-67.3402,-389)">
        <rect x="198.206" y="604.085" width="1.044" height="1.233" style="fill:rgb(229,230,231);fill-rule:nonzero;"/>
    </g>
    <g transform="matrix(1,0,0,1,-67.3402,-389)">
        <rect x="176.206" y="563.352" width="15.876" height="1.232" style="fill:rgb(229,230,231);fill-rule:nonzero;"/>
    </g>
    <g transform="matrix(1,0,0,1,-67.3402,-389)">
        <rect x="176.206" y="566.262" width="15.876" height="1.232" style="fill:rgb(229,230,231);fill-rule:nonzero;"/>
    </g>
    <g transform="matrix(1,0,0,1,-67.3402,-389)">
        <rect x="176.206" y="569.171" width="15.876" height="1.233" style="fill:rgb(229,230,231);fill-rule:nonzero;"/>
    </g>
    <g transform="matrix(1,0,0,1,-67.3402,-389)">
        <rect x="176.206" y="572.081" width="15.876" height="1.232" style="fill:rgb(229,230,231);fill-rule:nonzero;"/>
    </g>
    <g transform="matrix(1,0,0,1,-67.3402,-389)">
        <rect x="176.206" y="574.991" width="15.876" height="1.232" style="fill:rgb(229,230,231);fill-rule:nonzero;"/>
    </g>
    <g transform="matrix(1,0,0,1,-67.3402,-389)">
        <rect x="176.206" y="577.9" width="15.876" height="1.233" style="fill:rgb(229,230,231);fill-rule:nonzero;"/>
    </g>
    <g transform="matrix(1,0,0,1,-67.3402,-389)">
        <rect x="176.206" y="580.809" width="15.876" height="1.233" style="fill:rgb(229,230,231);fill-rule:nonzero;"/>
    </g>
    <g transform="matrix(1,0,0,1,-67.3402,-389)">
        <rect x="176.206" y="583.719" width="15.876" height="1.232" style="fill:rgb(229,230,231);fill-rule:nonzero;"/>
    </g>
    <g transform="matrix(1,0,0,1,-67.3402,-389)">
        <rect x="176.206" y="586.628" width="15.876" height="1.233" style="fill:rgb(229,230,231);fill-rule:nonzero;"/>
    </g>
    <g transform="matrix(1,0,0,1,-67.3402,-389)">
        <rect x="176.206" y="589.538" width="15.876" height="1.233" style="fill:rgb(229,230,231);fill-rule:nonzero;"/>
    </g>
    <g transform="matrix(1,0,0,1,-67.3402,-389)">
        <rect x="176.206" y="592.448" width="15.876" height="1.232" style="fill:rgb(229,230,231);fill-rule:nonzero;"/>
    </g>
    <g transform="matrix(1,0,0,1,-67.3402,-389)">
        <rect x="176.206" y="595.357" width="15.876" height="1.233" style="fill:rgb(229,230,231);fill-rule:nonzero;"/>
    </g>
    <g transform="matrix(1,0,0,1,-67.3402,-389)">
        <rect x="176.206" y="598.266" width="15.876" height="1.233" style="fill:rgb(229,230,231);fill-rule:nonzero;"/>
    </g>
    <g transform="matrix(1,0,0,1,-67.3402,-389)">
        <rect x="176.206" y="601.176" width="15.876" height="1.232" style="fill:rgb(229,230,231);fill-rule:nonzero;"/>
    </g>
    <g transform="matrix(1,0,0,1,-67.3402,-389)">
        <rect x="176.206" y="604.085" width="15.876" height="1.233" style="fill:rgb(229,230,231);fill-rule:nonzero;"/>
    </g>
    <g transform="matrix(1,0,0,1,-67.3402,-389)">
        <path d="M272.869,612.543L262.515,616.819L272.869,621.066L272.869,624.498L258.238,618.273L258.238,615.365L272.869,609.111L272.869,612.543Z" style="fill:rgb(229,230,231);fill-rule:nonzero;"/>
    </g>
    <g transform="matrix(1,0,0,1,-67.3402,-389)">
        <path d="M287.6,604.284L290.857,604.284L284.749,626.068L281.549,626.068L287.6,604.284Z" style="fill:rgb(229,230,231);fill-rule:nonzero;"/>
    </g>
    <g transform="matrix(1,0,0,1,-67.3402,-389)">
        <path d="M299.503,621.066L309.857,616.791L299.503,612.543L299.503,609.111L314.135,615.365L314.135,618.245L299.503,624.498L299.503,621.066Z" style="fill:rgb(229,230,231);fill-rule:nonzero;"/>
    </g>
    <g transform="matrix(1,0,0,1,-67.3402,-389)">
        <rect x="73.578" y="574.782" width="11.818" height="36.563" style="fill:rgb(109,110,112);fill-rule:nonzero;"/>
    </g>
    <g transform="matrix(1,0,0,1,-67.3402,-389)">
        <rect x="87.4" y="574.782" width="48.717" height="36.563" style="fill:rgb(109,110,112);fill-rule:nonzero;"/>
    </g>
    <g transform="matrix(1,0,0,1,-67.3402,-389)">
        <rect x="74.764" y="577.352" width="9.678" height="0.876" style="fill:rgb(229,230,231);fill-rule:nonzero;"/>
    </g>
    <g transform="matrix(1,0,0,1,-67.3402,-389)">
        <rect x="89.953" y="577.352" width="2.579" height="0.876" style="fill:rgb(229,230,231);fill-rule:nonzero;"/>
    </g>
    <g transform="matrix(1,0,0,1,-67.3402,-389)">
        <rect x="88.176" y="577.352" width="0.636" height="0.876" style="fill:rgb(229,230,231);fill-rule:nonzero;"/>
    </g>
    <g transform="matrix(1,0,0,1,-67.3402,-389)">
        <rect x="89.953" y="579.418" width="11.216" height="0.876" style="fill:rgb(229,230,231);fill-rule:nonzero;"/>
    </g>
    <g transform="matrix(1,0,0,1,-67.3402,-389)">
        <rect x="88.176" y="579.418" width="0.636" height="0.876" style="fill:rgb(229,230,231);fill-rule:nonzero;"/>
    </g>
    <g transform="matrix(1,0,0,1,-67.3402,-389)">
        <rect x="89.953" y="581.484" width="9.116" height="0.876" style="fill:rgb(229,230,231);fill-rule:nonzero;"/>
    </g>
    <g transform="matrix(1,0,0,1,-67.3402,-389)">
        <rect x="88.176" y="581.484" width="0.636" height="0.876" style="fill:rgb(229,230,231);fill-rule:nonzero;"/>
    </g>
    <g transform="matrix(1,0,0,1,-67.3402,-389)">
        <rect x="89.953" y="583.551" width="13.698" height="0.876" style="fill:rgb(229,230,231);fill-rule:nonzero;"/>
    </g>
    <g transform="matrix(1,0,0,1,-67.3402,-389)">
        <rect x="88.176" y="583.551" width="0.636" height="0.876" style="fill:rgb(229,230,231);fill-rule:nonzero;"/>
    </g>
    <g transform="matrix(1,0,0,1,-67.3402,-389)">
        <rect x="89.954" y="585.617" width="17.233" height="0.876" style="fill:rgb(229,230,231);fill-rule:nonzero;"/>
    </g>
    <g transform="matrix(1,0,0,1,-67.3402,-389)">
        <rect x="88.176" y="585.617" width="0.636" height="0.876" style="fill:rgb(229,230,231);fill-rule:nonzero;"/>
    </g>
    <g transform="matrix(1,0,0,1,-67.3402,-389)">
        <rect x="88.176" y="587.684" width="0.636" height="0.876" style="fill:rgb(229,230,231);fill-rule:nonzero;"/>
    </g>
    <g transform="matrix(1,0,0,1,-67.3402,-389)">
        <rect x="88.176" y="589.75" width="0.636" height="0.876" style="fill:rgb(229,230,231);fill-rule:nonzero;"/>
    </g>
    <g transform="matrix(1,0,0,1,-67.3402,-389)">
        <rect x="89.953" y="591.816" width="21.553" height="0.876" style="fill:rgb(229,230,231);fill-rule:nonzero;"/>
    </g>
    <g transform="matrix(1,0,0,1,-67.3402,-389)">
        <rect x="88.176" y="591.816" width="0.636" height="0.876" style="fill:rgb(229,230,231);fill-rule:nonzero;"/>
    </g>
    <g transform="matrix(1,0,0,1,-67.3402,-389)">
        <rect x="89.953" y="593.883" width="14.958" height="0.876" style="fill:rgb(229,230,231);fill-rule:nonzero;"/>
    </g>
    <g transform="matrix(1,0,0,1,-67.3402,-389)">
        <rect x="88.176" y="593.883" width="0.636" height="0.876" style="fill:rgb(229,230,231);fill-rule:nonzero;"/>
    </g>
    <g transform="matrix(1,0,0,1,-67.3402,-389)">
        <rect x="89.953" y="595.949" width="11.927" height="0.876" style="fill:rgb(229,230,231);fill-rule:nonzero;"/>
    </g>
    <g transform="matrix(1,0,0,1,-67.3402,-389)">
        <rect x="88.176" y="595.949" width="0.636" height="0.876" style="fill:rgb(229,230,231);fill-rule:nonzero;"/>
    </g>
    <g transform="matrix(1,0,0,1,-67.3402,-389)">
        <rect x="89.953" y="598.016" width="16.988" height="0.876" style="fill:rgb(229,230,231);fill-rule:nonzero;"/>
    </g>
    <g transform="matrix(1,0,0,1,-67.3402,-389)">
        <rect x="88.176" y="598.016" width="0.636" height="0.876" style="fill:rgb(229,230,231);fill-rule:nonzero;"/>
    </g>
    <g transform="matrix(1,0,0,1,-67.3402,-389)">
        <rect x="89.954" y="600.082" width="14.149" height="0.876" style="fill:rgb(229,230,231);fill-rule:nonzero;"/>
    </g>
    <g transform="matrix(1,0,0,1,-67.3402,-389)">
        <rect x="88.176" y="600.082" width="0.636" height="0.876" style="fill:rgb(229,230,231);fill-rule:nonzero;"/>
    </g>
    <g transform="matrix(1,0,0,1,-67.3402,-389)">
        <rect x="89.953" y="602.148" width="28.412" height="0.876" style="fill:rgb(229,230,231);fill-rule:nonzero;"/>
    </g>
    <g transform="matrix(1,0,0,1,-67.3402,-389)">
        <rect x="88.176" y="602.148" width="0.636" height="0.876" style="fill:rgb(229,230,231);fill-rule:nonzero;"/>
    </g>
    <g transform="matrix(1,0,0,1,-67.3402,-389)">
        <rect x="89.953" y="604.215" width="5.158" height="0.876" style="fill:rgb(229,230,231);fill-rule:nonzero;"/>
    </g>
    <g transform="matrix(1,0,0,1,-67.3402,-389)">
        <rect x="88.176" y="604.215" width="0.636" height="0.876" style="fill:rgb(229,230,231);fill-rule:nonzero;"/>
    </g>
    <g transform="matrix(1,0,0,1,-67.3402,-389)">
        <rect x="89.953" y="606.281" width="10.776" height="0.876" style="fill:rgb(229,230,231);fill-rule:nonzero;"/>
    </g>
    <g transform="matrix(1,0,0,1,-67.3402,-389)">
        <rect x="88.176" y="606.281" width="0.636" height="0.876" style="fill:rgb(229,230,231);fill-rule:nonzero;"/>
    </g>
    <g transform="matrix(1,0,0,1,-67.3402,-389)">
        <rect x="89.953" y="608.348" width="0.798" height="0.876" style="fill:rgb(229,230,231);fill-rule:nonzero;"/>
    </g>
    <g transform="matrix(1,0,0,1,-67.3402,-389)">
        <rect x="88.176" y="608.348" width="0.636" height="0.876" style="fill:rgb(229,230,231);fill-rule:nonzero;"/>
    </g>
    <g transform="matrix(1,0,0,1,-67.3402,-389)">
        <rect x="74.764" y="579.418" width="9.678" height="0.876" style="fill:rgb(229,230,231);fill-rule:nonzero;"/>
    </g>
    <g transform="matrix(1,0,0,1,-67.3402,-389)">
        <rect x="74.764" y="581.484" width="9.678" height="0.876" style="fill:rgb(229,230,231);fill-rule:nonzero;"/>
    </g>
    <g transform="matrix(1,0,0,1,-67.3402,-389)">
        <rect x="74.764" y="583.551" width="9.678" height="0.876" style="fill:rgb(229,230,231);fill-rule:nonzero;"/>
    </g>
    <g transform="matrix(1,0,0,1,-67.3402,-389)">
        <rect x="74.764" y="585.617" width="9.678" height="0.876" style="fill:rgb(229,230,231);fill-rule:nonzero;"/>
    </g>
    <g transform="matrix(1,0,0,1,-67.3402,-389)">
        <rect x="74.764" y="587.684" width="9.678" height="0.876" style="fill:rgb(229,230,231);fill-rule:nonzero;"/>
    </g>
    <g transform="matrix(1,0,0,1,-67.3402,-389)">
        <rect x="74.764" y="589.75" width="9.678" height="0.876" style="fill:rgb(229,230,231);fill-rule:nonzero;"/>
    </g>
    <g transform="matrix(1,0,0,1,-67.3402,-389)">
        <rect x="74.764" y="591.816" width="9.678" height="0.876" style="fill:rgb(229,230,231);fill-rule:nonzero;"/>
    </g>
    <g transform="matrix(1,0,0,1,-67.3402,-389)">
        <rect x="74.764" y="593.883" width="9.678" height="0.876" style="fill:rgb(229,230,231);fill-rule:nonzero;"/>
    </g>
    <g transform="matrix(1,0,0,1,-67.3402,-389)">
        <rect x="74.764" y="595.949" width="9.678" height="0.876" style="fill:rgb(229,230,231);fill-rule:nonzero;"/>
    </g>
    <g transform="matrix(1,0,0,1,-67.3402,-389)">
        <rect x="74.764" y="598.016" width="9.678" height="0.876" style="fill:rgb(229,230,231);fill-rule:nonzero;"/>
    </g>
    <g transform="matrix(1,0,0,1,-67.3402,-389)">
        <rect x="74.764" y="600.082" width="9.678" height="0.876" style="fill:rgb(229,230,231);fill-rule:nonzero;"/>
    </g>
    <g transform="matrix(1,0,0,1,-67.3402,-389)">
        <rect x="74.764" y="602.148" width="9.678" height="0.876" style="fill:rgb(229,230,231);fill-rule:nonzero;"/>
    </g>
    <g transform="matrix(1,0,0,1,-67.3402,-389)">
        <rect x="74.764" y="604.215" width="9.678" height="0.876" style="fill:rgb(229,230,231);fill-rule:nonzero;"/>
    </g>
    <g transform="matrix(1,0,0,1,-67.3402,-389)">
        <rect x="74.764" y="606.281" width="9.678" height="0.876" style="fill:rgb(229,230,231);fill-rule:nonzero;"/>
    </g>
    <g transform="matrix(1,0,0,1,-67.3402,-389)">
        <rect x="74.764" y="608.348" width="9.678" height="0.876" style="fill:rgb(229,230,231);fill-rule:nonzero;"/>
    </g>
    <g transform="matrix(1,0,0,1,-67.3402,-389)">
        <rect x="115.836" y="582.644" width="37.348" height="20.096" style="fill:rgb(64,64,65);fill-rule:nonzero;"/>
    </g>
    <g transform="matrix(1,0,0,1,-67.3402,-389)">
        <rect x="120.848" y="587.877" width="2.578" height="0.875" style="fill:rgb(229,230,231);fill-rule:nonzero;"/>
    </g>
    <g transform="matrix(1,0,0,1,-67.3402,-389)">
        <rect x="120.847" y="589.943" width="11.215" height="0.875" style="fill:rgb(229,230,231);fill-rule:nonzero;"/>
    </g>
    <g transform="matrix(1,0,0,1,-67.3402,-389)">
        <rect x="115.836" y="583.986" width="37.348" height="0.875" style="fill:rgb(229,230,231);fill-rule:nonzero;"/>
    </g>
    <g transform="matrix(1,0,0,1,-67.3402,-389)">
        <rect x="120.848" y="592.01" width="9.116" height="0.875" style="fill:rgb(229,230,231);fill-rule:nonzero;"/>
    </g>
    <g transform="matrix(1,0,0,1,-67.3402,-389)">
        <rect x="120.848" y="594.076" width="13.697" height="0.875" style="fill:rgb(229,230,231);fill-rule:nonzero;"/>
    </g>
    <g transform="matrix(1,0,0,1,-67.3402,-389)">
        <rect x="120.848" y="596.143" width="17.233" height="0.875" style="fill:rgb(229,230,231);fill-rule:nonzero;"/>
    </g>
</svg>
