<svg viewBox="0 0 465 201" xmlns="http://www.w3.org/2000/svg" fill-rule="evenodd" clip-rule="evenodd" stroke-linejoin="round" stroke-miterlimit="1.414"><path d="M376.482 74.295l2.617-4.92 2.312 5.068 5.49.97-4.108 3.767.777 5.52-4.853-2.743-5.01 2.444 1.11-5.46-3.87-4.01 5.535-.635z" fill="#ed1c24" fill-rule="nonzero"/><path d="M378.75 80.828l3.548 2.004-.567-4.034 3.002-2.752-4.01-.71-1.692-3.703-1.913 3.595-4.045.464 2.83 2.93-.81 3.99 3.66-1.784zm6.093 5.738l-6.16-3.48-6.358 3.103 1.407-6.934-4.913-5.09 7.025-.805 3.322-6.243 2.937 6.433 6.966 1.23-5.212 4.78.985 7.006z" fill-rule="nonzero"/><path d="M379.844 23.963l1.366-7.72 5.296 5.78 7.768-1.085-3.862 6.824 3.433 7.05-7.685-1.563-5.642 5.443-.89-7.792-6.92-3.683 7.136-3.254z" fill="#fcee21" fill-rule="nonzero"/><path d="M374.966 27.286l5.596 2.98.72 6.3 4.56-4.402 6.216 1.265-2.775-5.704 3.122-5.518-6.28.88-4.284-4.676-1.103 6.242-5.77 2.632zm4.788 13.534l-1.06-9.283-8.245-4.39 8.5-3.876 1.628-9.198 6.31 6.888 9.253-1.293-4.6 8.13 4.09 8.4-9.154-1.863-6.722 6.486z" fill-rule="nonzero"/><path d="M383.76 148.193l6.145-4.87.127 7.84 6.534 4.338-7.417 2.547-2.11 7.552-4.714-6.27-7.834.328 4.504-6.418-2.733-7.35 7.497 2.303z" fill="#29abe2" fill-rule="nonzero"/><path d="M382.81 158.31l3.812 5.068 1.706-6.107 5.997-2.058-5.284-3.508-.102-6.34-4.97 3.94-6.06-1.863 2.21 5.944-3.643 5.19 6.335-.265zm4.647 9.51l-5.614-7.468-9.333.39 5.366-7.647-3.256-8.756 8.93 2.742 7.322-5.803.152 9.34 7.783 5.168-8.837 3.034-2.513 8.998z" fill-rule="nonzero"/><path d="M99.815 15.975l-5.55-.502 3.773-4.1-1.24-5.435 5.066 2.322 4.786-2.857-.642 5.537 4.197 3.667-5.464 1.1-2.192 5.123-2.733-4.855z" fill="#ed1c24" fill-rule="nonzero"/><path d="M96.372 14.66l4.057.366 1.996 3.548 1.603-3.745 3.99-.804-3.065-2.68.47-4.046-3.5 2.088-3.7-1.697.904 3.973-2.758 2.996zm6.3 8.426l-3.47-6.163-7.046-.637 4.79-5.203-1.573-6.9 6.43 2.95 6.074-3.628-.815 7.027 5.327 4.654-6.936 1.397-2.783 6.503z" fill-rule="nonzero"/><path d="M17.952 149.27l-5.735 1.304 2.454-5.344-3.01-5.052 5.84.68 3.873-4.424 1.158 5.766 5.406 2.315-5.127 2.883-.532 5.856-4.326-3.984z" fill="#fcee21" fill-rule="nonzero"/><path d="M18.243 148.178l3.222 2.968.396-4.363 3.82-2.147-4.026-1.725-.863-4.294-2.884 3.296-4.35-.506 2.243 3.763-1.828 3.98 4.27-.972zm4.847 7.185l-5.43-5-7.197 1.635 3.08-6.708-3.78-6.34 7.33.855 4.86-5.554 1.455 7.238 6.785 2.906-6.435 3.618-.668 7.35z" fill-rule="nonzero"/><path d="M9.133 67.286l-6.875-3.77 7.175-3.163 1.463-7.705 5.226 5.847 7.78-.988-3.948 6.776 3.343 7.093-7.663-1.66-5.71 5.373-.79-7.804z" fill="#29abe2" fill-rule="nonzero"/><path d="M4.516 63.613l5.56 3.05.637 6.31 4.618-4.344 6.2 1.34-2.705-5.735 3.19-5.48-6.29.8-4.225-4.73-1.183 6.232-5.8 2.556zM9.13 77.207l-.94-9.296L0 63.42l8.55-3.767 1.74-9.178 6.227 6.965 9.267-1.177-4.702 8.073 3.983 8.45-9.13-1.977-6.804 6.4z" fill-rule="nonzero"/><path d="M70.64 47.34c1.358 1.188 2.722 2.37 4.04 3.606.824.746 1.624 1.52 2.42 2.295.804.772 1.602 1.547 2.368 2.355 1.56 1.59 3.075 3.225 4.53 4.916a64.27 64.27 0 0 1 2.145 2.57c.71.864 1.39 1.752 2.046 2.657a62.387 62.387 0 0 1 3.71 5.61 46.822 46.822 0 0 1 2.97 6.078c.823 2.112 1.445 4.32 1.786 6.59.343 2.27.362 4.61-.007 6.906a20.93 20.93 0 0 1-2.222 6.584c-1.1 2.05-2.508 3.912-4.096 5.577-3.186 3.34-7.035 5.894-11.047 7.982-4.025 2.084-8.246 3.722-12.546 5.053a99.1 99.1 0 0 1-6.514 1.774c-2.2.514-4.375.968-6.662 1.316l-.25-2.94c3.097-.154 6.2-.222 9.307-.223 3.108.008 6.22.108 9.333.318a97.9 97.9 0 0 1 4.666.41 87.65 87.65 0 0 1 4.655.622c3.1.49 6.187 1.152 9.226 2.073 3.04.91 6.033 2.098 8.866 3.68 2.817 1.594 5.495 3.612 7.633 6.21 2.147 2.577 3.682 5.744 4.316 9.08.322 1.664.438 3.363.353 5.048-.043.842-.135 1.68-.275 2.518-.152.86-.306 1.614-.63 2.58l-3.315-1.895a56.237 56.237 0 0 1 2.88-3.277c1.022-1.047 2.07-2.08 3.225-3.02a26.86 26.86 0 0 1 3.662-2.613 21.046 21.046 0 0 1 4.167-1.958c2.935-1.03 6.24-1.305 9.333-.657 3.102.63 5.924 2.047 8.366 3.792 2.453 1.752 4.584 3.82 6.51 6.016 1.922 2.2 3.63 4.544 5.2 6.955a86.03 86.03 0 0 1 4.31 7.448 96.163 96.163 0 0 1 1.885 3.86 68.602 68.602 0 0 1 1.706 3.995l-3.243-.992c1.608-1.12 3.224-2.23 4.877-3.29a114.12 114.12 0 0 1 5.04-3.06 97.514 97.514 0 0 1 5.218-2.786 86.106 86.106 0 0 1 5.414-2.443c1.847-.727 3.708-1.43 5.623-2 1.904-.6 3.85-1.084 5.82-1.478 1.97-.404 3.976-.65 5.99-.808 2.02-.16 4.057-.137 6.086.012 4.058.3 8.1 1.245 11.86 2.854 3.765 1.593 7.24 3.82 10.295 6.474 3.066 2.65 5.728 5.706 8.014 8.996a55.273 55.273 0 0 1 3.14 5.115c.957 1.783 1.804 3.522 2.558 5.53l-3.04-.904c1.21-.903 2.423-1.8 3.666-2.663a94.224 94.224 0 0 1 3.784-2.51 78.496 78.496 0 0 1 7.974-4.43c5.5-2.617 11.48-4.566 17.746-4.927 3.122-.17 6.297.055 9.37.802 3.07.737 6.03 1.962 8.705 3.62 2.684 1.647 5.096 3.69 7.197 5.992a36.637 36.637 0 0 1 2.922 3.64c.9 1.297 1.7 2.556 2.445 4.082l-3.21.935c-.124-1.145-.237-2.296-.215-3.473.006-1.172.093-2.36.328-3.543.437-2.357 1.458-4.733 3.126-6.592 1.65-1.876 3.8-3.173 5.998-4.007 2.21-.836 4.49-1.278 6.748-1.495 4.527-.436 8.99-.043 13.36.627 2.184.345 4.35.777 6.495 1.282a90.59 90.59 0 0 1 3.206.814 72.01 72.01 0 0 1 3.194.945l-1.53 1.82a64.755 64.755 0 0 1-1.926-4.106c-.578-1.4-1.13-2.815-1.576-4.27-.93-2.897-1.538-5.918-1.715-8.988-.16-3.068.136-6.184 1.013-9.148.85-2.97 2.283-5.754 4.086-8.225 1.804-2.475 3.972-4.652 6.34-6.536 2.367-1.888 4.924-3.506 7.577-4.913a65.27 65.27 0 0 1 8.222-3.626c1.406-.508 2.83-.972 4.262-1.4a54.72 54.72 0 0 1 4.366-1.127l-.07 1.42c-1.698-.537-3.397-1.07-5.08-1.66a115.05 115.05 0 0 1-5.017-1.85 99.072 99.072 0 0 1-4.933-2.073c-1.63-.73-3.242-1.5-4.824-2.33a77.14 77.14 0 0 1-4.677-2.624 64.298 64.298 0 0 1-4.474-2.968c-2.904-2.1-5.624-4.472-8.026-7.155-2.376-2.697-4.465-5.683-5.982-8.97a30.868 30.868 0 0 1-2.76-10.452c-.304-3.612.04-7.262.885-10.774.428-1.756.974-3.482 1.645-5.16.68-1.686 1.43-3.3 2.41-4.898l.864 1.124a93.912 93.912 0 0 1-4.47 1.357l-2.266.574-2.29.49a60.203 60.203 0 0 1-4.642.704c-1.557.193-3.13.25-4.706.275-1.576-.023-3.16-.086-4.73-.313-1.57-.222-3.135-.54-4.663-1.006-3.05-.94-5.962-2.424-8.482-4.425-2.52-2.002-4.638-4.473-6.337-7.172-1.704-2.703-3.005-5.626-4.003-8.628-.998-3.004-1.695-6.092-2.16-9.207a63.145 63.145 0 0 1-.52-4.695c-.11-1.583-.178-3.124-.14-4.773l2.527.877c-3.61 5.12-7.426 10.12-11.683 14.79a85.472 85.472 0 0 1-3.28 3.433 63.67 63.67 0 0 1-3.488 3.254c-2.402 2.096-4.99 4.025-7.818 5.655-2.84 1.592-5.956 2.908-9.367 3.345a17.522 17.522 0 0 1-5.174-.096c-1.72-.31-3.39-.907-4.915-1.73-3.062-1.66-5.48-4.15-7.38-6.845a32.99 32.99 0 0 1-2.52-4.242c-.732-1.487-1.357-2.93-1.89-4.6l3.295.354c-1.374 2.482-3.276 4.84-5.815 6.447-2.52 1.626-5.515 2.385-8.38 2.448-2.88.072-5.662-.44-8.305-1.203-2.64-.783-5.166-1.816-7.59-3.002-4.852-2.376-9.357-5.283-13.655-8.427a133.4 133.4 0 0 1-6.29-4.91c-1.022-.85-2.033-1.71-3.032-2.59a99.887 99.887 0 0 1-2.968-2.706l2.635-.8c-.918 4.04-1.99 8.06-3.438 11.99-.725 1.967-1.544 3.91-2.52 5.802-.972 1.89-2.114 3.734-3.56 5.403-1.436 1.658-3.23 3.186-5.46 4.023-1.107.412-2.3.652-3.486.653a11.055 11.055 0 0 1-3.443-.54c-2.192-.694-4.075-1.91-5.742-3.278a26.585 26.585 0 0 1-2.352-2.206 26.19 26.19 0 0 1-2.092-2.484l2.27-.7c-.083 1.778-.28 3.56-.676 5.32a19.806 19.806 0 0 1-1.92 5.092 16.38 16.38 0 0 1-3.403 4.3c-1.363 1.23-2.925 2.213-4.567 2.96-3.297 1.495-6.847 2.097-10.335 2.296-3.5.2-6.98-.083-10.408-.535-6.86-.952-13.528-2.746-20.05-4.89a163.18 163.18 0 0 1-9.668-3.534 168.138 168.138 0 0 1-8.27-3.62m-.984-.867c3.13 1.362 6.322 2.595 9.533 3.756 3.216 1.152 6.45 2.246 9.72 3.22 6.532 1.945 13.19 3.53 19.924 4.27 3.364.356 6.747.5 10.08.26 3.324-.25 6.63-.893 9.558-2.288 2.93-1.375 5.368-3.604 6.833-6.43 1.506-2.814 2.05-6.1 2.13-9.376l.088-3.56 2.18 2.86c.552.722 1.23 1.485 1.904 2.172a24.1 24.1 0 0 0 2.16 1.953c1.504 1.196 3.158 2.193 4.89 2.703 1.73.526 3.505.493 5.107-.155 1.61-.632 3.038-1.846 4.24-3.292 1.2-1.453 2.234-3.11 3.117-4.863.89-1.754 1.65-3.592 2.326-5.47 1.355-3.76 2.37-7.674 3.236-11.622l.595-2.713 2.04 1.916a98.5 98.5 0 0 0 2.876 2.584 134.748 134.748 0 0 0 9.153 7.252c4.203 3.028 8.592 5.805 13.202 8.02 2.303 1.106 4.67 2.047 7.073 2.74 2.403.678 4.86 1.092 7.24 1.012 2.378-.075 4.655-.696 6.56-1.94 1.916-1.236 3.417-3.09 4.597-5.18l2.04-3.613 1.257 3.967c.41 1.294 1.01 2.723 1.654 4.025a29.294 29.294 0 0 0 2.235 3.784c1.667 2.378 3.723 4.456 6.15 5.774 2.422 1.328 5.19 1.815 7.972 1.477 2.788-.32 5.538-1.42 8.125-2.838 2.582-1.455 5.03-3.23 7.334-5.2a71.13 71.13 0 0 0 3.386-3.06 80.685 80.685 0 0 0 3.23-3.255c4.217-4.454 8.062-9.296 11.72-14.278l2.717-3.704-.19 4.582c-.06 1.433-.028 2.978.052 4.472.082 1.505.216 3.01.413 4.505.387 2.992 1 5.954 1.89 8.82.89 2.866 2.066 5.64 3.603 8.187 1.535 2.546 3.444 4.858 5.722 6.74 2.28 1.882 4.924 3.3 7.747 4.232 1.413.464 2.874.79 4.35 1.028 1.48.244 2.983.333 4.487.384 1.507.006 3.02-.018 4.528-.177 1.51-.122 3.012-.364 4.51-.628l2.234-.462 2.22-.545a92.7 92.7 0 0 0 4.392-1.297l1.96-.627-1.094 1.75c-.887 1.42-1.657 3.022-2.312 4.62a37.25 37.25 0 0 0-1.623 4.955c-.836 3.372-1.194 6.87-.93 10.33a29.57 29.57 0 0 0 2.568 10.034c1.437 3.165 3.41 6.085 5.75 8.68 2.347 2.59 5.012 4.89 7.867 6.928a62.776 62.776 0 0 0 4.404 2.885 74.965 74.965 0 0 0 4.613 2.553 82.8 82.8 0 0 0 4.766 2.27c1.61.715 3.238 1.39 4.885 2.018 1.64.645 3.304 1.233 4.974 1.8 1.667.575 3.354 1.095 5.04 1.616l2.672.826-2.74.594a53.62 53.62 0 0 0-4.224 1.12c-1.4.422-2.783.91-4.153 1.426a63.792 63.792 0 0 0-7.96 3.657c-5.09 2.806-9.82 6.42-13.124 11.11-1.645 2.333-2.922 4.917-3.66 7.654a24.936 24.936 0 0 0-.762 4.175 28.678 28.678 0 0 0-.03 4.258c.215 2.84.83 5.657 1.76 8.38.446 1.368.995 2.704 1.57 4.03a63.276 63.276 0 0 0 1.914 3.896l1.44 2.72-2.97-.9c-.99-.3-2.042-.583-3.074-.843a90.38 90.38 0 0 0-3.13-.73 86.25 86.25 0 0 0-6.315-1.12c-4.222-.568-8.5-.832-12.633-.388-2.06.223-4.08.655-5.928 1.384-1.845.726-3.5 1.783-4.71 3.2-1.227 1.406-1.974 3.174-2.307 5.082-.18.952-.24 1.943-.23 2.942-.01 1 .105 2.014.226 3.026l1.153 9.638-4.364-8.702c-.57-1.136-1.365-2.393-2.175-3.52a32.93 32.93 0 0 0-2.682-3.266c-1.922-2.06-4.105-3.864-6.497-5.295a26.61 26.61 0 0 0-7.69-3.132c-2.703-.64-5.512-.822-8.31-.654-5.616.354-11.14 2.164-16.313 4.668a75.256 75.256 0 0 0-7.554 4.26 92.588 92.588 0 0 0-3.62 2.434 124.35 124.35 0 0 0-3.52 2.592l-2.09 1.58-.95-2.483c-.612-1.6-1.455-3.34-2.338-4.945a51.037 51.037 0 0 0-2.942-4.72c-2.135-3.03-4.6-5.817-7.392-8.195-2.783-2.384-5.9-4.347-9.25-5.74-3.347-1.404-6.924-2.217-10.558-2.462a38.06 38.06 0 0 0-5.476.013c-1.827.146-3.657.368-5.468.743a51.32 51.32 0 0 0-5.39 1.372c-1.782.53-3.53 1.196-5.27 1.882a82.053 82.053 0 0 0-5.13 2.32 93.907 93.907 0 0 0-4.986 2.665c-1.64.937-3.253 1.928-4.847 2.95a149.705 149.705 0 0 0-4.714 3.187l-2.247 1.565-.998-2.56a77.56 77.56 0 0 0-1.586-3.727 90.837 90.837 0 0 0-1.78-3.695 81.843 81.843 0 0 0-4.06-7.105c-1.472-2.284-3.06-4.483-4.81-6.51-1.753-2.02-3.663-3.88-5.762-5.393-2.093-1.516-4.395-2.654-6.79-3.152-2.393-.508-4.864-.322-7.215.478a17.13 17.13 0 0 0-3.423 1.593 24.416 24.416 0 0 0-3.184 2.23c-1.03.815-1.988 1.74-2.93 2.684a52.09 52.09 0 0 0-2.698 2.997l-6.856 8.136 3.54-10.03c.174-.494.36-1.247.477-1.9.12-.682.206-1.374.25-2.068.087-1.39.007-2.786-.24-4.145-.486-2.724-1.682-5.29-3.446-7.466-1.754-2.19-4.047-3.983-6.56-5.445-2.527-1.452-5.276-2.592-8.122-3.48-2.845-.9-5.782-1.573-8.758-2.08a85.095 85.095 0 0 0-4.49-.653 97.584 97.584 0 0 0-4.527-.454c-3.03-.24-6.073-.377-9.123-.42-3.05-.045-6.104.01-9.16.09l-.25-2.94c2.107-.28 4.29-.685 6.42-1.14a95.96 95.96 0 0 0 6.365-1.6c4.2-1.21 8.318-2.717 12.217-4.638 3.888-1.924 7.582-4.286 10.596-7.325 1.504-1.515 2.826-3.2 3.865-5.043a18.92 18.92 0 0 0 2.132-5.93c.76-4.175.085-8.552-1.377-12.628a45.5 45.5 0 0 0-2.71-5.95 61.22 61.22 0 0 0-3.483-5.586 53.82 53.82 0 0 0-1.944-2.672 64.534 64.534 0 0 0-2.05-2.597 100.606 100.606 0 0 0-4.358-4.996 85.022 85.022 0 0 0-2.278-2.413 85.25 85.25 0 0 0-2.333-2.363c-1.564-1.57-3.19-3.076-4.807-4.593l-.845-.793 1.063.463z" fill="#fcee21" fill-rule="nonzero"/><path d="M74.364 80.395s.323.047.93.097c.605.05 1.498.087 2.617.057 1.098-.055 2.517-.166 3.766-.81.618-.326 1.075-.836 1.217-1.482.147-.65.02-1.46-.286-2.283-.623-1.656-1.787-3.362-3.108-5.074-1.338-1.71-2.898-3.42-4.54-5.17-1.645-1.75-3.448-3.468-5.264-5.233a210.41 210.41 0 0 0-5.64-5.23 311.772 311.772 0 0 0-5.74-5.148l-5.62-4.935-10.01-8.734a548.545 548.545 0 0 1-7.046-6.247c-1.69-1.525-2.64-2.42-2.64-2.42s1.103.694 3.006 1.948c1.898 1.26 4.59 3.087 7.754 5.373 1.58 1.144 3.296 2.38 5.068 3.742 1.785 1.348 3.663 2.776 5.56 4.31 1.898 1.534 3.884 3.093 5.823 4.773a292.562 292.562 0 0 1 5.862 5.12 212.633 212.633 0 0 1 5.646 5.38c1.84 1.804 3.56 3.677 5.19 5.527a56.884 56.884 0 0 1 4.398 5.636c1.286 1.895 2.38 3.823 2.942 5.886.262 1.023.4 2.146.022 3.21-.378 1.075-1.293 1.788-2.113 2.088-1.676.625-3.123.46-4.268.368-1.153-.12-2.03-.346-2.624-.49-.593-.154-.902-.257-.902-.257M354.267 30.05s-2.004 3.67-5.22 9.004c-.8 1.337-1.662 2.787-2.6 4.302l-2.927 4.776-3.132 5.096a266.622 266.622 0 0 0-3.195 5.268 149.667 149.667 0 0 0-3.106 5.29c-.963 1.766-1.945 3.49-2.687 5.19-.37.835-.692 1.712-.83 2.4-.12.358.037.63-.15.378-.035-.052-.135-.11-.185-.11-.007-.025-.068-.005-.043 0a.38.38 0 0 1 .12.002c.06-.006.142-.03.21-.043.63-.142 1.392-.558 2.08-.93.7-.395 1.373-.813 2.01-1.236 1.276-.847 2.43-1.68 3.46-2.41 1.02-.75 1.908-1.4 2.64-1.94l2.316-1.69-.497.562c-.328.36-.787.917-1.42 1.573a71.722 71.722 0 0 1-2.297 2.37c-.916.888-1.944 1.898-3.167 2.913a35.23 35.23 0 0 1-1.965 1.55c-.74.5-1.467 1.016-2.552 1.393-.145.042-.277.09-.438.123a7.783 7.783 0 0 1-.553.056c-.2.005-.48-.055-.71-.116-.25-.09-.55-.282-.747-.484-.407-.468-.517-.942-.565-1.312a7.733 7.733 0 0 1-.03-.525l.034-.452c.122-1.167.483-2.1.833-3.068.742-1.9 1.6-3.76 2.59-5.582.977-1.83 2.015-3.65 3.08-5.45a265.74 265.74 0 0 1 3.32-5.27c1.104-1.73 2.27-3.38 3.373-4.99 1.1-1.615 2.22-3.134 3.277-4.578 1.05-1.45 2.082-2.79 3.038-4.025 3.814-4.95 6.637-8.038 6.637-8.038M350.213 147.91s-1.115.073-2.896.67c-.882.302-1.927.763-2.918 1.508-.987.748-1.853 1.836-2.255 3.213-.41 1.38-.306 3.024.113 4.713.064.425.25.85.374 1.28.133.43.272.865.473 1.295l.543 1.31.648 1.313c.864 1.77 1.988 3.502 3.112 5.27a83.912 83.912 0 0 0 3.725 5.192 61.43 61.43 0 0 0 1.967 2.554c.676.835 1.312 1.693 2.01 2.496 1.39 1.612 2.67 3.27 4.03 4.782 1.326 1.537 2.6 3.034 3.848 4.424l3.486 3.947 5.235 5.928c1.253 1.445 1.952 2.294 1.952 2.294s-.872-.664-2.366-1.864a121.35 121.35 0 0 1-6.044-5.144c-.61-.55-1.247-1.122-1.907-1.715l-1.977-1.9c-.677-.655-1.374-1.328-2.086-2.014-.7-.7-1.386-1.443-2.1-2.183a111.08 111.08 0 0 1-4.287-4.69c-.723-.804-1.39-1.673-2.096-2.515-.7-.846-1.4-1.698-2.058-2.59a85.872 85.872 0 0 1-3.77-5.44 45.078 45.078 0 0 1-3.06-5.707c-.914-1.905-1.492-3.932-1.844-5.895-.344-1.962-.266-4.002.46-5.713.7-1.727 2.013-2.922 3.25-3.597 1.245-.7 2.437-.968 3.4-1.125a12.088 12.088 0 0 1 2.246-.144c.517.017.79.05.79.05M246.885 21.12s-.268.916-.63 2.523c-.184.802-.37 1.784-.555 2.9-.17 1.117-.312 2.385-.31 3.724.01 1.322.193 2.8.858 3.848.337.514.78.877 1.345 1.095l.103.044.026.01c.076.028-.09-.03-.065-.023l.02.007.077.02.31.085c.097-.013.154.017.315.008a2.76 2.76 0 0 0 .895-.147c1.303-.39 2.662-1.518 3.94-2.68 1.285-1.193 2.5-2.566 3.66-3.994a79.606 79.606 0 0 0 3.393-4.36c1.066-1.49 2.148-2.94 3.138-4.39l2.864-4.18 2.543-3.777 3.817-5.68c.94-1.37 1.475-2.153 1.475-2.153s-1.266 3.596-3.802 8.695a108.43 108.43 0 0 1-4.683 8.536c-.942 1.517-1.9 3.1-2.995 4.632a79.543 79.543 0 0 1-3.44 4.587c-1.246 1.478-2.562 2.916-4.024 4.225a17.015 17.015 0 0 1-2.358 1.803c-.85.536-1.772 1.014-2.846 1.28-.53.134-1.11.207-1.704.16-.275-.007-.64-.08-.967-.167l-.302-.112-.075-.03-.02-.007c.013.006-.164-.06-.1-.038l-.047-.023-.182-.097a5.132 5.132 0 0 1-2.254-2.233c-.91-1.835-.782-3.578-.626-5.046.173-1.487.548-2.773.912-3.89a27.71 27.71 0 0 1 1.103-2.82c.694-1.52 1.192-2.333 1.192-2.333M64.778 34.247s3.587 1.313 8.87 3.39l9.018 3.52c1.65.63 3.353 1.284 5.084 1.948 1.728.666 3.492 1.32 5.263 1.946 1.763.65 3.53 1.286 5.28 1.862 1.757.564 3.467 1.178 5.15 1.662 1.682.5 3.307.974 4.86 1.37a83.7 83.7 0 0 0 4.405.99c1.373.246 2.64.443 3.77.55.567.084 1.093.068 1.586.11.495.04.947.045 1.355.022l1.098-.028.81-.09.68-.076-.643.234-.783.284c-.312.1-.68.172-1.093.268-.413.106-.874.194-1.38.252-.505.068-1.058.156-1.645.173a29.9 29.9 0 0 1-3.962.01 43.092 43.092 0 0 1-4.647-.505c-1.636-.26-3.355-.573-5.1-1.014a73.406 73.406 0 0 1-2.656-.675 46.46 46.46 0 0 1-2.693-.78c-1.8-.557-3.613-1.168-5.417-1.8-1.79-.67-3.567-1.366-5.306-2.074-1.742-.7-3.42-1.478-5.047-2.214-1.63-.728-3.173-1.507-4.636-2.24a108.52 108.52 0 0 1-4.08-2.15c-5.015-2.74-8.142-4.945-8.142-4.945M33 128.896s1.55-.234 4.28-.52c2.73-.282 6.638-.616 11.344-.79 2.353-.085 4.905-.148 7.606-.124 2.702.016 5.555.078 8.504.273 2.948.196 6.002.427 9.09.883 3.086.45 6.22 1.033 9.32 1.876 3.085.88 6.16 2.006 8.956 3.797 1.407.863 2.71 1.998 3.722 3.32.27.383.578.734.76 1.17.192.427.436.807.524 1.305l.167.71c.05.237.026.496.036.742-.01.248.012.5-.035.74l-.168.712c-.56 1.88-1.838 3.093-3.044 4.01-1.236.916-2.508 1.623-3.768 2.216-2.517 1.194-4.985 1.97-7.27 2.62-4.568 1.28-8.452 1.912-11.17 2.313-2.718.386-4.283.5-4.283.5s1.526-.364 4.164-1.086c2.634-.726 6.397-1.782 10.76-3.367 2.17-.81 4.5-1.755 6.786-2.98 1.14-.613 2.25-1.327 3.236-2.146.97-.818 1.826-1.793 2.04-2.775.023-.12.05-.24.08-.36.025-.12-.013-.243-.01-.362-.013-.12.017-.24-.02-.364l-.112-.37c-.027-.25-.22-.496-.337-.748-.105-.268-.327-.467-.49-.7-.86-1.036-1.912-1.922-3.128-2.66-2.41-1.516-5.28-2.552-8.207-3.35-2.925-.832-5.943-1.432-8.94-1.903-3-.456-5.975-.848-8.87-1.118-2.895-.264-5.7-.51-8.37-.67-2.67-.15-5.197-.29-7.534-.39-4.672-.18-8.578-.28-11.315-.334L33 128.896" fill="#fcee21" fill-rule="nonzero"/><path d="M67.573 42.654s68.082 31.925 69.115-6.735c0 0 19.406 26.94 29.535-18.97 0 0 40.04 38.468 53.368 14.217 0 0 13.216 44.625 54.663-13.268 0 0-2.454 52.707 47.78 36.038 0 0-25.964 39.7 40.418 59.803 0 0-51.197 10.2-29.658 51.024 0 0-43.93-14.206-40.17 14 0 0-16.933-36.483-61.083-2.76 0 0-18.856-53.138-76.85-12.024 0 0-20.26-53.71-47.742-20.07 0 0 12.142-32.928-55.574-30.17 0 0 84.02-10.907 16.2-71.086" fill="#fff" fill-rule="nonzero"/><path d="M68.64 43.34c1.358 1.188 2.722 2.37 4.04 3.606.824.746 1.624 1.52 2.42 2.295.804.772 1.602 1.547 2.368 2.355 1.56 1.59 3.075 3.225 4.53 4.916a64.27 64.27 0 0 1 2.145 2.57c.71.864 1.39 1.752 2.046 2.657a62.387 62.387 0 0 1 3.71 5.61 46.822 46.822 0 0 1 2.97 6.078c.823 2.112 1.445 4.32 1.786 6.59.343 2.27.362 4.61-.007 6.906a20.93 20.93 0 0 1-2.222 6.584c-1.1 2.05-2.508 3.912-4.096 5.577-3.186 3.34-7.035 5.894-11.047 7.982-4.025 2.084-8.246 3.722-12.546 5.053a99.1 99.1 0 0 1-6.514 1.774c-2.2.514-4.375.968-6.662 1.316l-.25-2.94c3.097-.154 6.2-.222 9.307-.223 3.108.008 6.22.108 9.333.318a97.9 97.9 0 0 1 4.666.41 87.65 87.65 0 0 1 4.655.622c3.1.49 6.187 1.152 9.226 2.073 3.04.91 6.033 2.098 8.866 3.68 2.817 1.594 5.495 3.612 7.633 6.21 2.147 2.577 3.682 5.744 4.316 9.08.322 1.664.438 3.363.353 5.048-.043.842-.135 1.68-.275 2.518-.152.86-.306 1.614-.63 2.58l-3.315-1.895a56.237 56.237 0 0 1 2.88-3.277c1.022-1.047 2.07-2.08 3.225-3.02a26.86 26.86 0 0 1 3.662-2.613 21.046 21.046 0 0 1 4.167-1.958c2.935-1.03 6.24-1.305 9.333-.657 3.102.63 5.924 2.047 8.366 3.792 2.453 1.752 4.584 3.82 6.51 6.016 1.922 2.2 3.63 4.544 5.2 6.955a86.03 86.03 0 0 1 4.31 7.448 96.163 96.163 0 0 1 1.885 3.86 68.602 68.602 0 0 1 1.706 3.995l-3.243-.992c1.608-1.12 3.224-2.23 4.877-3.29a114.12 114.12 0 0 1 5.04-3.06 97.514 97.514 0 0 1 5.218-2.786 86.106 86.106 0 0 1 5.414-2.443c1.847-.727 3.708-1.43 5.623-2 1.904-.6 3.85-1.084 5.82-1.478 1.97-.404 3.976-.65 5.99-.808 2.02-.16 4.057-.137 6.086.012 4.058.3 8.1 1.245 11.86 2.854 3.765 1.593 7.24 3.82 10.295 6.474 3.066 2.65 5.728 5.706 8.014 8.996a55.273 55.273 0 0 1 3.14 5.115c.957 1.783 1.804 3.522 2.558 5.53l-3.04-.904c1.21-.903 2.423-1.8 3.666-2.663a94.224 94.224 0 0 1 3.784-2.51 78.496 78.496 0 0 1 7.974-4.43c5.5-2.617 11.48-4.566 17.746-4.927 3.122-.17 6.297.055 9.37.802 3.07.737 6.03 1.962 8.705 3.62 2.684 1.647 5.096 3.69 7.197 5.992a36.637 36.637 0 0 1 2.922 3.64c.9 1.297 1.7 2.556 2.445 4.082l-3.21.935c-.124-1.145-.237-2.296-.215-3.473.006-1.172.093-2.36.328-3.543.437-2.357 1.458-4.733 3.126-6.592 1.65-1.876 3.8-3.173 5.998-4.007 2.21-.836 4.49-1.278 6.748-1.495 4.527-.436 8.99-.043 13.36.627 2.184.345 4.35.777 6.495 1.282a90.59 90.59 0 0 1 3.206.814 72.01 72.01 0 0 1 3.194.945l-1.53 1.82a64.755 64.755 0 0 1-1.926-4.106c-.578-1.4-1.13-2.815-1.576-4.27-.93-2.897-1.538-5.918-1.715-8.988-.16-3.068.136-6.184 1.013-9.148.85-2.97 2.283-5.754 4.086-8.225 1.804-2.475 3.972-4.652 6.34-6.536 2.367-1.888 4.924-3.506 7.577-4.913a65.27 65.27 0 0 1 8.222-3.626c1.406-.508 2.83-.972 4.262-1.4a54.72 54.72 0 0 1 4.366-1.127l-.07 1.42c-1.698-.537-3.397-1.07-5.08-1.66a115.05 115.05 0 0 1-5.017-1.85 99.072 99.072 0 0 1-4.933-2.073c-1.63-.73-3.242-1.5-4.824-2.33a77.14 77.14 0 0 1-4.677-2.624 64.298 64.298 0 0 1-4.474-2.968c-2.904-2.1-5.624-4.472-8.026-7.155-2.376-2.697-4.465-5.683-5.982-8.97a30.868 30.868 0 0 1-2.76-10.452c-.304-3.612.04-7.262.885-10.774.428-1.756.974-3.482 1.645-5.16.68-1.686 1.43-3.3 2.41-4.898l.864 1.124a93.912 93.912 0 0 1-4.47 1.357l-2.266.574-2.29.49a60.203 60.203 0 0 1-4.642.704c-1.557.193-3.13.25-4.706.275-1.576-.023-3.16-.086-4.73-.313-1.57-.222-3.135-.54-4.663-1.006-3.05-.94-5.962-2.424-8.482-4.425-2.52-2.002-4.638-4.473-6.337-7.172-1.704-2.703-3.005-5.626-4.003-8.628-.998-3.004-1.695-6.092-2.16-9.207a63.145 63.145 0 0 1-.52-4.695c-.11-1.583-.178-3.124-.14-4.773l2.527.877c-3.61 5.12-7.426 10.12-11.683 14.79a85.472 85.472 0 0 1-3.28 3.433 63.67 63.67 0 0 1-3.488 3.254c-2.402 2.096-4.99 4.025-7.818 5.655-2.84 1.592-5.956 2.908-9.367 3.345a17.522 17.522 0 0 1-5.174-.096c-1.72-.31-3.39-.907-4.915-1.73-3.062-1.66-5.48-4.15-7.38-6.845a32.99 32.99 0 0 1-2.52-4.242c-.732-1.487-1.357-2.93-1.89-4.6l3.295.354c-1.374 2.482-3.276 4.84-5.815 6.447-2.52 1.626-5.515 2.385-8.38 2.448-2.88.072-5.662-.44-8.305-1.203-2.64-.783-5.166-1.816-7.59-3.002-4.852-2.376-9.357-5.283-13.655-8.427a133.4 133.4 0 0 1-6.29-4.91c-1.022-.85-2.033-1.71-3.032-2.59a99.887 99.887 0 0 1-2.968-2.706l2.635-.8c-.918 4.04-1.99 8.06-3.438 11.99-.725 1.967-1.544 3.91-2.52 5.802-.972 1.89-2.114 3.734-3.56 5.403-1.436 1.658-3.23 3.186-5.46 4.023-1.107.412-2.3.652-3.486.653a11.055 11.055 0 0 1-3.443-.54c-2.192-.694-4.075-1.91-5.742-3.278a26.585 26.585 0 0 1-2.352-2.206 26.19 26.19 0 0 1-2.092-2.484l2.27-.7c-.083 1.778-.28 3.56-.676 5.32a19.806 19.806 0 0 1-1.92 5.092 16.38 16.38 0 0 1-3.403 4.3c-1.363 1.23-2.925 2.213-4.567 2.96-3.297 1.495-6.847 2.097-10.335 2.296-3.5.2-6.98-.083-10.408-.535-6.86-.952-13.528-2.746-20.05-4.89a163.18 163.18 0 0 1-9.668-3.534 168.138 168.138 0 0 1-8.27-3.62m-.984-.867c3.13 1.362 6.322 2.595 9.533 3.756 3.216 1.152 6.45 2.246 9.72 3.22 6.532 1.945 13.19 3.53 19.924 4.27 3.364.356 6.747.5 10.08.26 3.324-.25 6.63-.893 9.558-2.288 2.93-1.375 5.368-3.604 6.833-6.43 1.506-2.814 2.05-6.1 2.13-9.376l.088-3.56 2.18 2.86c.552.722 1.23 1.485 1.904 2.172a24.1 24.1 0 0 0 2.16 1.953c1.504 1.196 3.158 2.193 4.89 2.703 1.73.526 3.505.493 5.107-.155 1.61-.632 3.038-1.846 4.24-3.292 1.2-1.453 2.234-3.11 3.117-4.863.89-1.754 1.65-3.592 2.326-5.47 1.355-3.76 2.37-7.674 3.236-11.622l.595-2.713 2.04 1.916a98.5 98.5 0 0 0 2.876 2.584 134.748 134.748 0 0 0 9.153 7.252c4.203 3.028 8.592 5.805 13.202 8.02 2.303 1.106 4.67 2.047 7.073 2.74 2.403.678 4.86 1.092 7.24 1.012 2.378-.075 4.655-.696 6.56-1.94 1.916-1.236 3.417-3.09 4.597-5.18l2.04-3.613 1.257 3.967c.41 1.294 1.01 2.723 1.654 4.025a29.294 29.294 0 0 0 2.235 3.784c1.667 2.378 3.723 4.456 6.15 5.774 2.422 1.328 5.19 1.815 7.972 1.477 2.788-.32 5.538-1.42 8.125-2.838 2.582-1.455 5.03-3.23 7.334-5.2a71.13 71.13 0 0 0 3.386-3.06 80.685 80.685 0 0 0 3.23-3.255c4.217-4.454 8.062-9.296 11.72-14.278l2.717-3.704-.19 4.582c-.06 1.433-.028 2.978.052 4.472.082 1.505.216 3.01.413 4.505.387 2.992 1 5.954 1.89 8.82.89 2.866 2.066 5.64 3.603 8.187 1.535 2.546 3.444 4.858 5.722 6.74 2.28 1.882 4.924 3.3 7.747 4.232 1.413.464 2.874.79 4.35 1.028 1.48.244 2.983.333 4.487.384 1.507.006 3.02-.018 4.528-.177 1.51-.122 3.012-.364 4.51-.628l2.234-.462 2.22-.545a92.7 92.7 0 0 0 4.392-1.297l1.96-.627-1.094 1.75c-.887 1.42-1.657 3.022-2.312 4.62a37.25 37.25 0 0 0-1.623 4.955c-.836 3.372-1.194 6.87-.93 10.33a29.57 29.57 0 0 0 2.568 10.034c1.437 3.165 3.41 6.085 5.75 8.68 2.347 2.59 5.012 4.89 7.867 6.928a62.776 62.776 0 0 0 4.404 2.885 74.965 74.965 0 0 0 4.613 2.553 82.8 82.8 0 0 0 4.766 2.27c1.61.715 3.238 1.39 4.885 2.018 1.64.645 3.304 1.233 4.974 1.8 1.667.575 3.354 1.095 5.04 1.616l2.672.826-2.74.594a53.62 53.62 0 0 0-4.224 1.12c-1.4.422-2.783.91-4.153 1.426a63.792 63.792 0 0 0-7.96 3.657c-5.09 2.806-9.82 6.42-13.124 11.11-1.645 2.333-2.922 4.917-3.66 7.654a24.936 24.936 0 0 0-.762 4.175 28.678 28.678 0 0 0-.03 4.258c.215 2.84.83 5.657 1.76 8.38.446 1.368.995 2.704 1.57 4.03a63.276 63.276 0 0 0 1.914 3.896l1.44 2.72-2.97-.9c-.99-.3-2.042-.583-3.074-.843a90.38 90.38 0 0 0-3.13-.73 86.25 86.25 0 0 0-6.315-1.12c-4.222-.568-8.5-.832-12.633-.388-2.06.223-4.08.655-5.928 1.384-1.845.726-3.5 1.783-4.71 3.2-1.227 1.406-1.974 3.174-2.307 5.082-.18.952-.24 1.943-.23 2.942-.01 1 .105 2.014.226 3.026l1.153 9.638-4.364-8.702c-.57-1.136-1.365-2.393-2.175-3.52a32.93 32.93 0 0 0-2.682-3.266c-1.922-2.06-4.105-3.864-6.497-5.295a26.61 26.61 0 0 0-7.69-3.132c-2.703-.64-5.512-.822-8.31-.654-5.616.354-11.14 2.164-16.313 4.668a75.256 75.256 0 0 0-7.554 4.26 92.588 92.588 0 0 0-3.62 2.434 124.35 124.35 0 0 0-3.52 2.592l-2.09 1.58-.95-2.483c-.612-1.6-1.455-3.34-2.338-4.945a51.037 51.037 0 0 0-2.942-4.72c-2.135-3.03-4.6-5.817-7.392-8.195-2.783-2.384-5.9-4.347-9.25-5.74-3.347-1.404-6.924-2.217-10.558-2.462a38.06 38.06 0 0 0-5.476.013c-1.827.146-3.657.368-5.468.743a51.32 51.32 0 0 0-5.39 1.372c-1.782.53-3.53 1.196-5.27 1.882a82.053 82.053 0 0 0-5.13 2.32 93.907 93.907 0 0 0-4.986 2.665c-1.64.937-3.253 1.928-4.847 2.95a149.705 149.705 0 0 0-4.714 3.187l-2.247 1.565-.998-2.56a77.56 77.56 0 0 0-1.586-3.727 90.837 90.837 0 0 0-1.78-3.695 81.843 81.843 0 0 0-4.06-7.105c-1.472-2.284-3.06-4.483-4.81-6.51-1.753-2.02-3.663-3.88-5.762-5.393-2.093-1.516-4.395-2.654-6.79-3.152-2.393-.508-4.864-.322-7.215.478a17.13 17.13 0 0 0-3.423 1.593 24.416 24.416 0 0 0-3.184 2.23c-1.03.815-1.988 1.74-2.93 2.684a52.09 52.09 0 0 0-2.698 2.997l-6.856 8.136 3.54-10.03c.174-.494.36-1.247.477-1.9.12-.682.206-1.374.25-2.068.087-1.39.007-2.786-.24-4.145-.486-2.724-1.682-5.29-3.446-7.466-1.754-2.19-4.047-3.983-6.56-5.445-2.527-1.452-5.276-2.592-8.122-3.48-2.845-.9-5.782-1.573-8.758-2.08a85.095 85.095 0 0 0-4.49-.653 97.584 97.584 0 0 0-4.527-.454c-3.03-.24-6.073-.377-9.123-.42-3.05-.045-6.104.01-9.16.09l-.25-2.94c2.107-.28 4.29-.685 6.42-1.14a95.96 95.96 0 0 0 6.365-1.6c4.2-1.21 8.318-2.717 12.217-4.638 3.888-1.924 7.582-4.286 10.596-7.325 1.504-1.515 2.826-3.2 3.865-5.043a18.92 18.92 0 0 0 2.132-5.93c.76-4.175.085-8.552-1.377-12.628a45.5 45.5 0 0 0-2.71-5.95 61.22 61.22 0 0 0-3.483-5.586 53.82 53.82 0 0 0-1.944-2.672 64.534 64.534 0 0 0-2.05-2.597 100.606 100.606 0 0 0-4.358-4.996 85.022 85.022 0 0 0-2.278-2.413 85.25 85.25 0 0 0-2.333-2.363c-1.564-1.57-3.19-3.076-4.807-4.593l-.845-.793 1.063.463z" fill-rule="nonzero"/><path d="M72.364 76.395s.323.047.93.097c.605.05 1.498.087 2.617.057 1.098-.055 2.517-.166 3.766-.81.618-.326 1.075-.836 1.217-1.482.147-.65.02-1.46-.286-2.283-.623-1.656-1.787-3.362-3.108-5.074-1.338-1.71-2.898-3.42-4.54-5.17-1.645-1.75-3.448-3.468-5.264-5.233a210.41 210.41 0 0 0-5.64-5.23 311.772 311.772 0 0 0-5.74-5.148l-5.62-4.935-10.01-8.734a548.545 548.545 0 0 1-7.046-6.247c-1.69-1.525-2.64-2.42-2.64-2.42s1.103.694 3.006 1.948c1.898 1.26 4.59 3.087 7.754 5.373 1.58 1.144 3.296 2.38 5.068 3.742 1.785 1.348 3.663 2.776 5.56 4.31 1.898 1.534 3.884 3.093 5.823 4.773a292.562 292.562 0 0 1 5.862 5.12 212.633 212.633 0 0 1 5.646 5.38c1.84 1.804 3.56 3.677 5.19 5.527a56.884 56.884 0 0 1 4.398 5.636c1.286 1.895 2.38 3.823 2.942 5.886.262 1.023.4 2.146.022 3.21-.378 1.075-1.293 1.788-2.113 2.088-1.676.625-3.123.46-4.268.368-1.153-.12-2.03-.346-2.624-.49-.593-.154-.902-.257-.902-.257M352.267 26.05s-2.004 3.67-5.22 9.004c-.8 1.337-1.662 2.787-2.6 4.302l-2.927 4.776-3.132 5.096a266.622 266.622 0 0 0-3.195 5.268 149.667 149.667 0 0 0-3.106 5.29c-.963 1.766-1.945 3.49-2.687 5.19-.37.835-.692 1.712-.83 2.4-.12.358.037.63-.15.378-.035-.052-.135-.11-.185-.11-.007-.025-.068-.005-.043 0a.38.38 0 0 1 .12.002c.06-.006.142-.03.21-.043.63-.142 1.392-.558 2.08-.93.7-.395 1.373-.813 2.01-1.236 1.276-.847 2.43-1.68 3.46-2.41 1.02-.75 1.908-1.4 2.64-1.94l2.316-1.69-.497.562c-.328.36-.787.917-1.42 1.573a71.722 71.722 0 0 1-2.297 2.37c-.916.888-1.944 1.898-3.167 2.913a35.23 35.23 0 0 1-1.965 1.55c-.74.5-1.467 1.016-2.552 1.393-.145.042-.277.09-.438.123a7.783 7.783 0 0 1-.553.056c-.2.005-.48-.055-.71-.116-.25-.09-.55-.282-.747-.484-.407-.468-.517-.942-.565-1.312a7.733 7.733 0 0 1-.03-.525l.034-.452c.122-1.167.483-2.1.833-3.068.742-1.9 1.6-3.76 2.59-5.582.977-1.83 2.015-3.65 3.08-5.45a265.74 265.74 0 0 1 3.32-5.27c1.104-1.73 2.27-3.38 3.373-4.99 1.1-1.615 2.22-3.134 3.277-4.578 1.05-1.45 2.082-2.79 3.038-4.025 3.814-4.95 6.637-8.038 6.637-8.038M348.213 143.91s-1.115.073-2.896.67c-.882.302-1.927.763-2.918 1.508-.987.748-1.853 1.836-2.255 3.213-.41 1.38-.306 3.024.113 4.713.064.425.25.85.374 1.28.133.43.272.865.473 1.295l.543 1.31.648 1.313c.864 1.77 1.988 3.502 3.112 5.27a83.912 83.912 0 0 0 3.725 5.192 61.43 61.43 0 0 0 1.967 2.554c.676.835 1.312 1.693 2.01 2.496 1.39 1.612 2.67 3.27 4.03 4.782 1.326 1.537 2.6 3.034 3.848 4.424l3.486 3.947 5.235 5.928c1.253 1.445 1.952 2.294 1.952 2.294s-.872-.664-2.366-1.864a121.35 121.35 0 0 1-6.044-5.144c-.61-.55-1.247-1.122-1.907-1.715l-1.977-1.9c-.677-.655-1.374-1.328-2.086-2.014-.7-.7-1.386-1.443-2.1-2.183a111.08 111.08 0 0 1-4.287-4.69c-.723-.804-1.39-1.673-2.096-2.515-.7-.846-1.4-1.698-2.058-2.59a85.872 85.872 0 0 1-3.77-5.44 45.078 45.078 0 0 1-3.06-5.707c-.914-1.905-1.492-3.932-1.844-5.895-.344-1.962-.266-4.002.46-5.713.7-1.727 2.013-2.922 3.25-3.597 1.245-.7 2.437-.968 3.4-1.125a12.088 12.088 0 0 1 2.246-.144c.517.017.79.05.79.05M244.885 17.12s-.268.916-.63 2.523c-.184.802-.37 1.784-.555 2.9-.17 1.117-.312 2.385-.31 3.724.01 1.322.193 2.8.858 3.848.337.514.78.877 1.345 1.095l.103.044.026.01c.076.028-.09-.03-.065-.023l.02.007.077.02.31.085c.097-.013.154.017.315.008a2.76 2.76 0 0 0 .895-.147c1.303-.39 2.662-1.518 3.94-2.68 1.285-1.193 2.5-2.566 3.66-3.994a79.606 79.606 0 0 0 3.393-4.36c1.066-1.49 2.148-2.94 3.138-4.39l2.864-4.18 2.543-3.777 3.817-5.68C271.57.782 272.105 0 272.105 0s-1.266 3.596-3.802 8.695a108.43 108.43 0 0 1-4.683 8.536c-.942 1.517-1.9 3.1-2.995 4.632a79.543 79.543 0 0 1-3.44 4.587c-1.246 1.478-2.562 2.916-4.024 4.225a17.015 17.015 0 0 1-2.358 1.803c-.85.536-1.772 1.014-2.846 1.28-.53.134-1.11.207-1.704.16-.275-.007-.64-.08-.967-.167l-.302-.112-.075-.03-.02-.007c.013.006-.164-.06-.1-.038l-.047-.023-.182-.097a5.132 5.132 0 0 1-2.254-2.233c-.91-1.835-.782-3.578-.626-5.046.173-1.487.548-2.773.912-3.89a27.71 27.71 0 0 1 1.103-2.82c.694-1.52 1.192-2.333 1.192-2.333M62.778 30.247s3.587 1.313 8.87 3.39l9.018 3.52c1.65.63 3.353 1.284 5.084 1.948 1.728.666 3.492 1.32 5.263 1.946 1.763.65 3.53 1.286 5.28 1.862 1.757.564 3.467 1.178 5.15 1.662 1.682.5 3.307.974 4.86 1.37a83.7 83.7 0 0 0 4.405.99c1.373.246 2.64.443 3.77.55.567.084 1.093.068 1.586.11.495.04.947.045 1.355.022l1.098-.028.81-.09.68-.076-.643.234-.783.284c-.312.1-.68.172-1.093.268-.413.106-.874.194-1.38.252-.505.068-1.058.156-1.645.173a29.9 29.9 0 0 1-3.962.01 43.092 43.092 0 0 1-4.647-.505c-1.636-.26-3.355-.573-5.1-1.014a73.406 73.406 0 0 1-2.656-.675 46.46 46.46 0 0 1-2.693-.78c-1.8-.557-3.613-1.168-5.417-1.8-1.79-.67-3.567-1.366-5.306-2.074-1.742-.7-3.42-1.478-5.047-2.214-1.63-.728-3.173-1.507-4.636-2.24a108.52 108.52 0 0 1-4.08-2.15c-5.015-2.74-8.142-4.945-8.142-4.945M31 124.896s1.55-.234 4.28-.52c2.73-.282 6.638-.616 11.344-.79 2.353-.085 4.905-.148 7.606-.124 2.702.016 5.555.078 8.504.273 2.948.196 6.002.427 9.09.883 3.086.45 6.22 1.033 9.32 1.876 3.085.88 6.16 2.006 8.956 3.797 1.407.863 2.71 1.998 3.722 3.32.27.383.578.734.76 1.17.192.427.436.807.524 1.305l.167.71c.05.237.026.496.036.742-.01.248.012.5-.035.74l-.168.712c-.56 1.88-1.838 3.093-3.044 4.01-1.236.916-2.508 1.623-3.768 2.216-2.517 1.194-4.985 1.97-7.27 2.62-4.568 1.28-8.452 1.912-11.17 2.313-2.718.386-4.283.5-4.283.5s1.526-.364 4.164-1.086c2.634-.726 6.397-1.782 10.76-3.367 2.17-.81 4.5-1.755 6.786-2.98 1.14-.613 2.25-1.327 3.236-2.146.97-.818 1.826-1.793 2.04-2.775.023-.12.05-.24.08-.36.025-.12-.013-.243-.01-.362-.013-.12.017-.24-.02-.364l-.112-.37c-.027-.25-.22-.496-.337-.748-.105-.268-.327-.467-.49-.7-.86-1.036-1.912-1.922-3.128-2.66-2.41-1.516-5.28-2.552-8.207-3.35-2.925-.832-5.943-1.432-8.94-1.903-3-.456-5.975-.848-8.87-1.118-2.895-.264-5.7-.51-8.37-.67-2.67-.15-5.197-.29-7.534-.39-4.672-.18-8.578-.28-11.315-.334L31 124.896" fill-rule="nonzero"/><g fill="#fcee21" fill-rule="nonzero" stroke-width="3.5" stroke="#000"><path d="M20.68 105.864a37.246 37.246 0 0 0 2.783 3.048 102.465 102.465 0 0 0 3.072 2.904 63.803 63.803 0 0 0 2.976 2.544c.96.768 1.81 1.408 2.545 1.92 1.12.672 2.104 1.048 2.952 1.128.848.08 1.624.024 2.328-.168a47.256 47.256 0 0 0 1.464-.264c.4-.08.887-.344 1.463-.792.48-.352.752-.688.816-1.008.063-.32-.225-.752-.865-1.296-.8-.64-1.656-1.392-2.568-2.256a146.446 146.446 0 0 1-5.472-5.472c-.88-.928-1.688-1.808-2.424-2.64 3.585-1.6 6.665-3.328 9.24-5.184 2.577-1.856 4.425-3.888 5.545-6.096.736-1.376.896-3.136.48-5.28-.512-2.016-1.224-3.72-2.136-5.112a30.163 30.163 0 0 0-3.05-3.912c-1.407-1.376-3.047-2.216-4.92-2.52-1.87-.304-3.855-.272-5.95.096-2.097.368-4.225.984-6.385 1.848-2.16.864-4.232 1.744-6.216 2.64-.417.224-.817.792-1.2 1.704-.385.912-.737 2.064-1.057 3.456a77.565 77.565 0 0 0-.912 4.704 155.744 155.744 0 0 0-.79 5.4c-.24 1.856-.465 3.712-.673 5.568a406.997 406.997 0 0 0-.96 9.552c-.112 1.28-.2 2.256-.264 2.928-.064.832.016 1.496.24 1.992.224.496.64.92 1.248 1.272.61.32 1.25.544 1.92.672.673.128 1.44.304 2.305.528.736.16 1.24.16 1.512 0s.488-.496.648-1.008c.352-1.728.712-3.488 1.08-5.28.368-1.792.776-3.664 1.224-5.616zm5.135-19.488c1.248-.608 2.432-1.024 3.552-1.248 1.12-.224 2.144-.336 3.072-.336 1.887 0 3.023.448 3.407 1.344.192.544.032 1.312-.48 2.304-.512.992-1.344 2.04-2.496 3.144-1.15 1.104-2.583 2.192-4.295 3.264-1.712 1.072-3.672 1.976-5.88 2.712a227.492 227.492 0 0 0 1.632-5.952c.48-1.856.976-3.6 1.488-5.232zM46.647 107.2c.512.896 1.12 1.648 1.824 2.256a13.644 13.644 0 0 0 2.257 1.584c1.856 1.024 4.224 1.632 7.104 1.824 1.44.096 2.72.04 3.84-.168a13.2 13.2 0 0 0 3.36-1.128c1.57-.896 2.993-2.336 4.273-4.32 1.28-1.984 2.464-4.448 3.552-7.392s2.12-6.328 3.096-10.152a301.59 301.59 0 0 0 2.905-12.6c.096-.416.16-.776.192-1.08a1.82 1.82 0 0 0-.096-.84 2.117 2.117 0 0 0-.503-.744c-.24-.24-.584-.504-1.032-.792a50.14 50.14 0 0 0-2.856-1.56c-1.04-.528-2.017-.912-2.93-1.152-.91-.24-1.687-.264-2.327-.072-.64.192-.992.768-1.056 1.728-.384 1.984-.816 4.24-1.296 6.768a221.3 221.3 0 0 1-1.607 7.704 159.94 159.94 0 0 1-1.92 7.608c-.688 2.464-1.408 4.632-2.16 6.504-.752 1.872-1.544 3.336-2.376 4.392-.832 1.056-1.68 1.472-2.544 1.248-.704-.192-1.176-.784-1.416-1.776s-.32-2.24-.24-3.744c.08-1.504.288-3.2.624-5.088a96.967 96.967 0 0 1 1.225-5.808c.48-1.984 1-3.944 1.56-5.88s1.096-3.736 1.608-5.4c.544-1.952-.048-3.552-1.776-4.8a18.832 18.832 0 0 0-2.568-1.584c-.88-.448-1.8-.816-2.76-1.104-1.025-.352-1.785-.432-2.28-.24-.497.192-.873.752-1.13 1.68a189.63 189.63 0 0 0-1.655 6.312c-.528 2.16-1 4.312-1.416 6.456a92.75 92.75 0 0 0-1.01 6.336 48.432 48.432 0 0 0-.383 5.904c0 1.856.152 3.56.456 5.112.304 1.552.792 2.888 1.464 4.008zM102.375 98.712c1.088-.544 2.032-1.112 2.832-1.704.8-.592 1.584-1.176 2.352-1.752a20.53 20.53 0 0 0 1.967-1.944 11.08 11.08 0 0 0 1.536-2.232c.416-.8.712-1.632.888-2.496.177-.864.185-1.76.025-2.688-.352-1.696-.904-3.184-1.656-4.464a17.95 17.95 0 0 0-2.81-3.6c-.863-.832-1.967-1.464-3.31-1.896-1.345-.432-2.825-.696-4.44-.792a30.843 30.843 0 0 0-5.113.144c-1.792.192-3.56.496-5.304.912a46.98 46.98 0 0 0-5.016 1.488c-1.6.576-3.008 1.2-4.224 1.872a127.26 127.26 0 0 1-.456 7.8c-.24 2.736-.512 5.456-.816 8.16a757.735 757.735 0 0 0-.84 7.824 128.5 128.5 0 0 0-.527 6.744c-.064.608-.064 1.104 0 1.488.064.384.176.728.336 1.032.16.304.375.592.647.864s.584.6.936.984c.96.736 1.8 1.336 2.52 1.8.72.464 1.56.904 2.52 1.32.512.288.96.496 1.344.624.384.128.776.208 1.176.24.4.032.816.016 1.248-.048.433-.064.953-.176 1.56-.336a50.504 50.504 0 0 0 7.464-2.544 31.587 31.587 0 0 0 3.6-1.824c1.137-.672 2.12-1.376 2.953-2.112 1.216-.96 2.096-1.944 2.64-2.952s.736-2.232.576-3.672c-.256-1.216-.776-2.4-1.56-3.552a8.098 8.098 0 0 0-3.048-2.688zm-12.672-3.408a101.87 101.87 0 0 0 1.152-4.8c.32-1.504.704-2.944 1.152-4.32 1.376-.64 2.656-1.12 3.84-1.44 1.184-.32 2.232-.504 3.144-.552.913-.048 1.657.032 2.233.24.576.208.928.52 1.056.936.127.512-.065 1.192-.577 2.04-.512.848-1.32 1.744-2.424 2.688-1.105.944-2.465 1.88-4.08 2.808-1.617.928-3.45 1.728-5.497 2.4zm-1.824 7.968c1.28-.416 2.447-.696 3.503-.84 1.056-.144 1.984-.168 2.784-.072.8.096 1.44.272 1.92.528s.8.544.96.864c.128.544-.04 1.144-.504 1.8-.464.656-1.176 1.312-2.136 1.968-.96.656-2.128 1.28-3.504 1.872-1.376.592-2.896 1.096-4.56 1.512.224-1.28.472-2.536.744-3.768.272-1.232.536-2.52.792-3.864zM143.56 77.824c.223-.512.4-.952.527-1.32a2.73 2.73 0 0 0 .168-1.032 2.232 2.232 0 0 0-.264-.936 6.004 6.004 0 0 0-.67-.984 48.29 48.29 0 0 0-1.85-1.632 11.09 11.09 0 0 0-2.183-1.464c-.736-.368-1.424-.528-2.064-.48-.64.048-1.104.472-1.392 1.272a717.34 717.34 0 0 1-4.99 8.784 268.24 268.24 0 0 1-5.09 8.448 845.89 845.89 0 0 0-2.495-7.824 135.03 135.03 0 0 0-2.304-6.576c-.51-1.024-.983-1.784-1.415-2.28-.432-.496-1.128-.856-2.088-1.08a10.003 10.003 0 0 0-2.808-.264c-.913.048-1.865.104-2.857.168-.832.16-1.336.392-1.512.696-.175.304-.087.888.265 1.752a248.68 248.68 0 0 0 1.944 5.784c.72 2.064 1.463 4.176 2.23 6.336.77 2.16 1.537 4.312 2.305 6.456a888.754 888.754 0 0 1 2.16 6.096 92.408 92.408 0 0 0-.864 6.024c-.19 1.808-.4 3.4-.623 4.776-.064.832.016 1.464.24 1.896.224.432.688.872 1.392 1.32.703.288 1.47.568 2.303.84.832.272 1.632.504 2.4.696.832.192 1.392.224 1.68.096.288-.128.512-.512.672-1.152.352-1.728.72-3.512 1.104-5.352.383-1.84.847-3.832 1.39-5.976a659.12 659.12 0 0 0 4.37-6.336 318.062 318.062 0 0 0 4.27-6.432 199.158 199.158 0 0 0 3.625-5.808c1.072-1.792 1.88-3.296 2.424-4.512zM138.855 91.656c-1.568.288-1.776 1.296-.624 3.024.45.736.92 1.448 1.417 2.136a20.28 20.28 0 0 0 1.8 2.136c.672.736 1.296 1.216 1.872 1.44.575.224 1.2.24 1.87.048 2.433-.64 5.08-1.112 7.945-1.416a230.56 230.56 0 0 1 8.472-.744c.8-.032 1.312-.176 1.536-.432.224-.256.176-.784-.144-1.584-.32-.64-.633-1.312-.937-2.016a22.575 22.575 0 0 0-1.176-2.304c-.512-.704-1.048-1.232-1.608-1.584-.56-.352-1.21-.528-1.945-.528-1.6 0-3.256.056-4.968.168-1.712.112-3.4.248-5.064.408-1.664.16-3.224.352-4.68.576a69.13 69.13 0 0 0-3.768.672zM206.935 71.536c-1.45-1.152-3.275-2.133-5.472-2.944a36.39 36.39 0 0 0-6.944-1.792c-1.878-.3-3.852-.15-5.92.448-2.07.597-3.852 1.472-5.345 2.624a35.285 35.285 0 0 0-5.856 6.496 42.64 42.64 0 0 0-4.257 7.648 43.99 43.99 0 0 0-2.624 8.288 43.86 43.86 0 0 0-.96 8.352c-.044 2.73.19 5.333.703 7.808.512 2.475 1.28 4.693 2.304 6.656.64 1.195 1.515 2.26 2.624 3.2 1.11.94 2.24 1.707 3.393 2.304 1.408.725 2.965 1.27 4.672 1.632 1.707.363 3.37.63 4.992.8 2.432.256 4.587.16 6.464-.288 1.878-.448 3.67-1.333 5.377-2.656 2.517-2.22 4.64-4.928 6.368-8.128a49.112 49.112 0 0 0 4.096-10.208 54.817 54.817 0 0 0 1.89-10.88c.255-3.648.148-7.03-.32-10.144-.342-1.877-.886-3.552-1.633-5.024s-1.93-2.87-3.552-4.192zm-10.304 6.4c.854.256 1.484 1.14 1.89 2.656.404 1.515.607 3.34.607 5.472 0 2.09-.17 4.34-.512 6.752-.34 2.41-.79 4.62-1.344 6.624-.64 2.432-1.396 4.683-2.27 6.752-.876 2.07-1.804 3.808-2.785 5.216-.98 1.408-1.963 2.453-2.944 3.136-.98.683-1.92.875-2.815.576-.98-.3-1.728-1.11-2.24-2.432-.512-1.323-.81-2.912-.896-4.768-.086-1.856 0-3.86.255-6.016a37.204 37.204 0 0 1 1.28-6.24 52.987 52.987 0 0 1 2.336-6.368c.96-2.197 1.996-4.192 3.105-5.984 1.11-1.792 2.22-3.21 3.328-4.256 1.11-1.045 2.112-1.42 3.008-1.12zM241.815 96.168c-.47-2.176-.94-4.448-1.408-6.816-.47-2.368-.917-4.672-1.344-6.912-.427-2.24-.81-4.32-1.152-6.24-.34-1.92-.618-3.5-.83-4.736-.257-1.62-.662-2.848-1.217-3.68-.555-.832-1.493-1.525-2.816-2.08a36.53 36.53 0 0 0-4.672-1.856c-1.493-.47-3.03-.94-4.608-1.408-1.323-.34-2.368-.352-3.136-.032-.767.32-1.3 1.12-1.6 2.4-.468 2.22-.948 4.757-1.44 7.616-.49 2.86-.97 5.824-1.44 8.896-.468 3.072-.906 6.155-1.31 9.248a697.802 697.802 0 0 0-1.09 8.704c-.32 2.71-.575 5.13-.767 7.264-.192 2.133-.33 3.776-.416 4.928-.085 1.11.032 1.973.352 2.592.32.62.948 1.163 1.887 1.632.98.597 1.995 1.035 3.04 1.312 1.045.277 2.08.544 3.104.8 1.11.3 1.857.352 2.24.16.385-.192.662-.65.833-1.376.213-1.536.5-3.34.864-5.408.363-2.07.768-4.31 1.216-6.72l1.408-7.584c.492-2.645.972-5.29 1.44-7.936.556 2.22 1.153 4.427 1.793 6.624.64 2.197 1.28 4.31 1.92 6.336.64 2.027 1.27 3.915 1.888 5.664a59.852 59.852 0 0 0 1.825 4.608c.768 1.835 2.09 3.115 3.968 3.84a42.48 42.48 0 0 0 6.016 1.664c2.303.512 3.583-.043 3.84-1.664a785.806 785.806 0 0 1 2.463-10.4c.96-3.947 1.963-7.99 3.008-12.128a995.2 995.2 0 0 1 3.17-12.224c1.066-4.01 2.09-7.595 3.07-10.752.342-1.11.438-2.06.29-2.848-.15-.79-.844-1.568-2.08-2.336a28.496 28.496 0 0 0-1.92-1.152c-.556-.3-1.078-.555-1.57-.768a9.662 9.662 0 0 0-1.503-.512 111.45 111.45 0 0 1-1.728-.448c-1.366-.34-2.4-.363-3.105-.064-.704.3-1.227 1.067-1.568 2.304a426.89 426.89 0 0 0-3.744 14.976 218.824 218.824 0 0 0-3.168 16.512z"/><path d="M256.615 91.656c-1.568.288-1.776 1.296-.624 3.024.45.736.92 1.448 1.417 2.136a20.28 20.28 0 0 0 1.8 2.136c.672.736 1.296 1.216 1.872 1.44.575.224 1.2.24 1.87.048 2.433-.64 5.08-1.112 7.945-1.416a230.56 230.56 0 0 1 8.472-.744c.8-.032 1.312-.176 1.536-.432.224-.256.176-.784-.144-1.584-.32-.64-.633-1.312-.937-2.016a22.575 22.575 0 0 0-1.176-2.304c-.512-.704-1.048-1.232-1.608-1.584-.56-.352-1.21-.528-1.945-.528-1.6 0-3.256.056-4.968.168-1.712.112-3.4.248-5.064.408-1.664.16-3.224.352-4.68.576a69.13 69.13 0 0 0-3.768.672zM298.76 100.864a37.246 37.246 0 0 0 2.783 3.048 102.465 102.465 0 0 0 3.072 2.904 63.803 63.803 0 0 0 2.976 2.544c.96.768 1.81 1.408 2.545 1.92 1.12.672 2.104 1.048 2.952 1.128.848.08 1.624.024 2.328-.168a47.256 47.256 0 0 0 1.464-.264c.4-.08.887-.344 1.463-.792.48-.352.752-.688.816-1.008.063-.32-.225-.752-.865-1.296-.8-.64-1.656-1.392-2.568-2.256a146.446 146.446 0 0 1-5.472-5.472c-.88-.928-1.688-1.808-2.424-2.64 3.585-1.6 6.665-3.328 9.24-5.184 2.577-1.856 4.425-3.888 5.545-6.096.736-1.376.896-3.136.48-5.28-.512-2.016-1.224-3.72-2.136-5.112a30.163 30.163 0 0 0-3.05-3.912c-1.407-1.376-3.047-2.216-4.92-2.52-1.87-.304-3.855-.272-5.95.096-2.097.368-4.225.984-6.385 1.848-2.16.864-4.232 1.744-6.216 2.64-.417.224-.817.792-1.2 1.704-.385.912-.737 2.064-1.057 3.456a77.565 77.565 0 0 0-.912 4.704 155.744 155.744 0 0 0-.79 5.4c-.24 1.856-.465 3.712-.673 5.568a406.997 406.997 0 0 0-.96 9.552c-.112 1.28-.2 2.256-.264 2.928-.064.832.016 1.496.24 1.992.224.496.64.92 1.248 1.272.61.32 1.25.544 1.92.672.673.128 1.44.304 2.305.528.736.16 1.24.16 1.512 0s.488-.496.648-1.008c.352-1.728.712-3.488 1.08-5.28.368-1.792.776-3.664 1.224-5.616zm5.135-19.488c1.248-.608 2.432-1.024 3.552-1.248 1.12-.224 2.144-.336 3.072-.336 1.887 0 3.023.448 3.407 1.344.192.544.032 1.312-.48 2.304-.512.992-1.344 2.04-2.496 3.144-1.15 1.104-2.583 2.192-4.295 3.264-1.712 1.072-3.672 1.976-5.88 2.712a227.492 227.492 0 0 0 1.632-5.952c.48-1.856.976-3.6 1.488-5.232zM344.983 108.024c.096 1.312.192 2.52.288 3.624a61.25 61.25 0 0 0 .337 3.048c.128.896.344 1.52.648 1.872.304.352.84.64 1.608.864a8.282 8.282 0 0 0 2.16.456 34.03 34.03 0 0 0 2.304.072c.832 0 1.368-.112 1.608-.336.24-.224.36-.624.36-1.2-.032-2.752-.04-5.736-.024-8.952a640.7 640.7 0 0 1 .12-9.624c.065-3.2.16-6.272.29-9.216.127-2.944.287-5.552.48-7.824.095-.928.007-1.68-.265-2.256-.272-.576-.904-1.04-1.896-1.392-.737-.192-1.465-.4-2.185-.624a30.932 30.932 0 0 0-2.352-.624 34.58 34.58 0 0 0-2.808-.504 39.082 39.082 0 0 0-3.504-.312c-1.503-.128-2.64.08-3.407.624a6.286 6.286 0 0 0-1.872 2.112c-1.343 2.4-2.76 5.144-4.247 8.232a389.12 389.12 0 0 0-4.368 9.384 335.75 335.75 0 0 0-3.984 9.216c-1.23 2.976-2.23 5.568-3 7.776-.19.672-.28 1.208-.263 1.608.016.4.104.728.264.984.16.256.385.472.673.648.288.176.624.392 1.008.648a25.02 25.02 0 0 0 1.513.696c.496.208.952.392 1.368.552.737.256 1.29.336 1.657.24.368-.096.68-.416.936-.96a400.92 400.92 0 0 1 1.392-3.144 73.532 73.532 0 0 1 1.68-3.48c1.824-.48 3.928-.888 6.312-1.224a970.18 970.18 0 0 1 7.176-.984zm-9.168-6.72c1.504-3.04 3-5.976 4.488-8.808a506.104 506.104 0 0 1 4.152-7.752 208.04 208.04 0 0 0-.048 7.752c.032 2.608.08 5.224.144 7.848a99.46 99.46 0 0 0-8.735.96zM371.863 73.984c-.864-.576-1.872-1.12-3.024-1.632-1.153-.512-2.225-.896-3.217-1.152-.992-.288-1.736-.328-2.232-.12-.495.208-.887.776-1.175 1.704A228.813 228.813 0 0 0 359.84 84.4c-.4 2.24-.792 4.528-1.176 6.864-.384 2.336-.728 4.56-1.032 6.672-.303 2.112-.56 4.056-.767 5.832-.208 1.776-.344 3.224-.408 4.344-.096.832-.024 1.48.216 1.944.24.464.73.872 1.465 1.224.672.352 1.384.64 2.136.864.753.224 1.545.448 2.377.672.832.192 1.384.208 1.656.048.272-.16.488-.512.648-1.056.29-1.44.633-3.08 1.033-4.92.4-1.84.84-3.792 1.32-5.856.48-2.064.976-4.176 1.488-6.336.513-2.16 1.033-4.272 1.56-6.336a228.34 228.34 0 0 1 3.05-10.824c.223-.864.247-1.52.07-1.968-.175-.448-.71-.976-1.607-1.584zM392.79 115.128c.993-.192 1.545-.4 1.657-.624.112-.224.056-.672-.168-1.344a11.66 11.66 0 0 0-.553-1.704 9.796 9.796 0 0 0-.936-1.752c-.383-.608-.807-1-1.27-1.176-.465-.176-1.145-.232-2.04-.168-1.505.096-2.897.208-4.177.336-1.28.128-2.656.32-4.128.576.512-2.208 1.064-4.52 1.656-6.936a324.12 324.12 0 0 1 1.873-7.272c.656-2.432 1.312-4.8 1.968-7.104a150.167 150.167 0 0 1 1.945-6.336c.288-.832.328-1.472.12-1.92-.208-.448-.728-.976-1.56-1.584-.864-.576-1.872-1.096-3.024-1.56a26.2 26.2 0 0 0-3.215-1.08c-.992-.288-1.736-.344-2.232-.168-.496.176-.904.728-1.224 1.656a161.492 161.492 0 0 0-1.37 5.376c-.463 1.952-.92 3.984-1.367 6.096a212.546 212.546 0 0 0-1.248 6.36 336.47 336.47 0 0 0-1.056 6.168c-.32 1.984-.593 3.832-.817 5.544a85.374 85.374 0 0 0-.48 4.44c-.128.8-.048 1.48.24 2.04s.704 1.064 1.248 1.512a100.33 100.33 0 0 1 1.777 1.416c.448.368.944.728 1.488 1.08.224.16.456.304.696.432.24.128.537.232.89.312.35.08.767.104 1.247.072.48-.032 1.072-.144 1.776-.336 1.92-.384 3.944-.776 6.072-1.176 2.128-.4 4.2-.792 6.216-1.176zM395.96 102.4c-.673.32-.977.784-.913 1.392.064.64.8 1.552 2.208 2.736 2.592 2.432 5.112 4.144 7.56 5.136a18.7 18.7 0 0 0 7.56 1.392c1.92-.032 3.568-.272 4.944-.72 1.375-.448 2.543-1.008 3.503-1.68.96-.672 1.728-1.4 2.304-2.184.576-.784 1.024-1.512 1.344-2.184.513-.96.68-1.856.505-2.688-.176-.832-.592-1.624-1.248-2.376-.656-.752-1.488-1.488-2.496-2.208a85.824 85.824 0 0 0-3.215-2.184 181.796 181.796 0 0 1-3.432-2.28 23.562 23.562 0 0 1-3.12-2.52c-.736-.672-1.2-1.432-1.392-2.28a6.42 6.42 0 0 1-.047-2.592c.16-.88.464-1.752.912-2.616.448-.864.968-1.672 1.56-2.424a16.22 16.22 0 0 1 1.872-2.016c.656-.592 1.256-1.032 1.8-1.32.608-.448 1.048-.632 1.32-.552.272.08.432.32.48.72.048.4.008.936-.12 1.608s-.28 1.384-.456 2.136c-.175.752-.35 1.496-.527 2.232a16.337 16.337 0 0 0-.36 1.968c-.352 2.752 1.664 4.864 6.048 6.336.8.352 1.4.44 1.8.264.4-.176.793-.584 1.177-1.224.352-.672.696-1.504 1.032-2.496a60.38 60.38 0 0 0 .96-3.12c.303-1.088.567-2.16.79-3.216.225-1.056.4-2 .53-2.832 0-.48-.01-1-.025-1.56a7.95 7.95 0 0 0-.24-1.704 6.907 6.907 0 0 0-.744-1.776c-.35-.608-.847-1.216-1.487-1.824-.992-.896-2.216-1.728-3.672-2.496a33.055 33.055 0 0 0-4.343-1.92 11.904 11.904 0 0 0-2.784-.504 11.46 11.46 0 0 0-2.496.12 8.44 8.44 0 0 0-2.064.6c-.608.272-1.104.552-1.488.84a23.7 23.7 0 0 0-3.48 2.664 28.127 28.127 0 0 0-3.12 3.36c-.944 1.2-1.76 2.44-2.448 3.72-.688 1.28-1.176 2.496-1.464 3.648-.416 1.312-.608 2.56-.576 3.744.032 1.184.24 2.304.624 3.36.385 1.056.92 2.04 1.61 2.952a13.11 13.11 0 0 0 2.375 2.424c.8.672 1.696 1.336 2.688 1.992a102.53 102.53 0 0 0 2.976 1.896c.99.608 1.927 1.2 2.807 1.776a27.23 27.23 0 0 1 2.208 1.584c.592.48.992.904 1.2 1.272.208.368.12.68-.264.936-.895.736-2.35.864-4.367.384-2.016-.48-4.384-1.568-7.104-3.264a5.92 5.92 0 0 0-1.61-.744 7.834 7.834 0 0 0-1.847-.312 9.66 9.66 0 0 0-1.92.096 7.04 7.04 0 0 0-1.824.528z"/></g></svg>