<?xml version="1.0" standalone="no"?>
<!DOCTYPE svg PUBLIC "-//W3C//DTD SVG 1.1//EN" "http://www.w3.org/Graphics/SVG/1.1/DTD/svg11.dtd">
<svg width="100%" height="100%" viewBox="0 0 465 201" version="1.1" xmlns="http://www.w3.org/2000/svg" xmlns:xlink="http://www.w3.org/1999/xlink" xml:space="preserve" style="fill-rule:evenodd;clip-rule:evenodd;stroke-linejoin:round;stroke-miterlimit:1.41421;">
    <g transform="matrix(1,0,0,1,-23.0821,-26.3673)">
        <path d="M399.564,100.662L402.181,95.742L404.494,100.81L409.984,101.78L405.876,105.547L406.653,111.066L401.799,108.324L396.79,110.768L397.898,105.307L394.028,101.297L399.564,100.662Z" style="fill:rgb(237,28,36);fill-rule:nonzero;"/>
    </g>
    <g transform="matrix(1,0,0,1,-23.0821,-26.3673)">
        <path d="M401.833,107.195L405.38,109.199L404.813,105.165L407.814,102.413L403.803,101.704L402.112,98L400.199,101.595L396.154,102.059L398.983,104.99L398.173,108.98L401.833,107.195ZM407.925,112.933L401.765,109.453L395.407,112.556L396.814,105.623L391.901,100.534L398.927,99.728L402.249,93.484L405.186,99.917L412.152,101.147L406.94,105.928L407.925,112.933Z" style="fill:black;fill-rule:nonzero;"/>
    </g>
    <g transform="matrix(1,0,0,1,-23.0821,-26.3673)">
        <path d="M402.926,50.33L404.292,42.609L409.588,48.391L417.356,47.305L413.494,54.129L416.927,61.18L409.242,59.616L403.6,65.06L402.711,57.268L395.79,53.584L402.926,50.33Z" style="fill:rgb(252,238,33);fill-rule:nonzero;"/>
    </g>
    <g transform="matrix(1,0,0,1,-23.0821,-26.3673)">
        <path d="M398.048,53.653L403.644,56.632L404.363,62.933L408.925,58.531L415.14,59.796L412.365,54.093L415.487,48.575L409.206,49.454L404.923,44.779L403.819,51.021L398.048,53.653ZM402.836,67.187L401.777,57.904L393.531,53.514L402.032,49.638L403.66,40.439L409.969,47.327L419.223,46.034L414.623,54.164L418.713,62.563L409.558,60.701L402.836,67.187Z" style="fill:black;fill-rule:nonzero;"/>
    </g>
    <g transform="matrix(1,0,0,1,-23.0821,-26.3673)">
        <path d="M406.842,174.56L412.987,169.689L413.114,177.529L419.648,181.868L412.231,184.414L410.121,191.966L405.408,185.698L397.574,186.025L402.078,179.607L399.345,172.257L406.842,174.56Z" style="fill:rgb(41,171,226);fill-rule:nonzero;"/>
    </g>
    <g transform="matrix(1,0,0,1,-23.0821,-26.3673)">
        <path d="M405.892,184.676L409.704,189.745L411.41,183.638L417.407,181.579L412.123,178.071L412.02,171.732L407.051,175.67L400.989,173.808L403.199,179.751L399.557,184.941L405.892,184.676ZM410.539,194.187L404.925,186.719L395.592,187.109L400.958,179.462L397.702,170.706L406.633,173.449L413.954,167.646L414.106,176.987L421.889,182.155L413.052,185.189L410.539,194.187Z" style="fill:black;fill-rule:nonzero;"/>
    </g>
    <g transform="matrix(1,0,0,1,-23.0821,-26.3673)">
        <path d="M122.897,42.342L117.346,41.84L121.12,37.74L119.881,32.305L124.946,34.627L129.732,31.77L129.09,37.307L133.287,40.974L127.823,42.073L125.63,47.197L122.897,42.342Z" style="fill:rgb(237,28,36);fill-rule:nonzero;"/>
    </g>
    <g transform="matrix(1,0,0,1,-23.0821,-26.3673)">
        <path d="M119.454,41.026L123.511,41.393L125.508,44.941L127.111,41.196L131.102,40.393L128.037,37.713L128.506,33.667L125.007,35.755L121.306,34.058L122.211,38.03L119.454,41.026ZM125.753,49.453L122.283,43.29L115.238,42.653L120.028,37.45L118.455,30.55L124.885,33.499L130.959,29.872L130.144,36.899L135.471,41.553L128.536,42.95L125.753,49.453Z" style="fill:black;fill-rule:nonzero;"/>
    </g>
    <g transform="matrix(1,0,0,1,-23.0821,-26.3673)">
        <path d="M41.034,175.637L35.299,176.941L37.753,171.597L34.741,166.545L40.582,167.226L44.455,162.801L45.613,168.567L51.018,170.882L45.891,173.765L45.36,179.621L41.034,175.637Z" style="fill:rgb(252,238,33);fill-rule:nonzero;"/>
    </g>
    <g transform="matrix(1,0,0,1,-23.0821,-26.3673)">
        <path d="M41.325,174.545L44.547,177.513L44.943,173.15L48.762,171.003L44.736,169.278L43.873,164.983L40.988,168.279L36.637,167.773L38.881,171.536L37.054,175.516L41.325,174.545ZM46.172,181.73L40.743,176.729L33.545,178.365L36.625,171.657L32.844,165.317L40.176,166.172L45.036,160.618L46.49,167.855L53.275,170.761L46.84,174.379L46.172,181.73Z" style="fill:black;fill-rule:nonzero;"/>
    </g>
    <g transform="matrix(1,0,0,1,-23.0821,-26.3673)">
        <path d="M32.215,93.653L25.34,89.882L32.515,86.72L33.978,79.015L39.204,84.862L46.983,83.874L43.036,90.65L46.379,97.743L38.716,96.084L33.005,101.456L32.215,93.653Z" style="fill:rgb(41,171,226);fill-rule:nonzero;"/>
    </g>
    <g transform="matrix(1,0,0,1,-23.0821,-26.3673)">
        <path d="M27.598,89.98L33.157,93.03L33.795,99.339L38.413,94.996L44.611,96.337L41.907,90.602L45.098,85.122L38.808,85.921L34.582,81.193L33.399,87.424L27.598,89.98ZM32.213,103.574L31.273,94.278L23.082,89.785L31.631,86.018L33.373,76.839L39.599,83.804L48.866,82.627L44.164,90.7L48.147,99.15L39.018,97.173L32.213,103.574Z" style="fill:black;fill-rule:nonzero;"/>
    </g>
    <g transform="matrix(1,0,0,1,-23.0821,-26.3673)">
        <path d="M93.723,73.707C95.08,74.895 96.444,76.078 97.761,77.313C98.586,78.059 99.386,78.832 100.182,79.608C100.986,80.379 101.784,81.154 102.55,81.962C104.111,83.551 105.625,85.187 107.08,86.878C107.811,87.721 108.538,88.567 109.225,89.448C109.935,90.311 110.614,91.199 111.271,92.104C112.611,93.897 113.837,95.778 114.981,97.713C116.111,99.658 117.106,101.687 117.951,103.792C118.775,105.904 119.397,108.112 119.738,110.383C120.081,112.652 120.1,114.993 119.731,117.288C119.362,119.581 118.613,121.824 117.51,123.871C116.41,125.92 115.002,127.783 113.414,129.448C110.228,132.787 106.379,135.341 102.367,137.429C98.342,139.513 94.121,141.151 89.821,142.482C87.67,143.147 85.499,143.739 83.308,144.256C81.108,144.771 78.933,145.225 76.646,145.573L76.396,142.633C79.493,142.479 82.596,142.411 85.703,142.41C88.81,142.418 91.923,142.518 95.035,142.728C96.59,142.829 98.146,142.962 99.701,143.138C101.255,143.301 102.808,143.512 104.357,143.759C107.457,144.248 110.544,144.911 113.583,145.832C116.622,146.742 119.615,147.93 122.448,149.513C125.265,151.106 127.943,153.124 130.081,155.723C132.229,158.299 133.764,161.466 134.398,164.801C134.72,166.466 134.836,168.165 134.751,169.85C134.709,170.692 134.617,171.531 134.477,172.368C134.325,173.228 134.171,173.981 133.847,174.946L130.532,173.052C131.452,171.933 132.398,170.83 133.412,169.775C134.434,168.728 135.481,167.694 136.637,166.756C137.774,165.802 138.988,164.911 140.299,164.142C141.596,163.357 142.988,162.682 144.466,162.184C147.401,161.155 150.705,160.879 153.799,161.527C156.901,162.156 159.723,163.574 162.165,165.319C164.618,167.071 166.749,169.14 168.674,171.335C170.597,173.535 172.304,175.879 173.876,178.29C175.446,180.705 176.872,183.194 178.185,185.738C178.841,187.011 179.471,188.295 180.07,189.597C180.673,190.908 181.233,192.188 181.776,193.592L178.533,192.6C180.14,191.48 181.756,190.37 183.409,189.311C185.061,188.252 186.737,187.225 188.448,186.249C190.155,185.269 191.897,184.342 193.667,183.464C195.438,182.587 197.246,181.777 199.081,181.021C200.929,180.294 202.79,179.59 204.705,179.02C206.609,178.42 208.556,177.937 210.526,177.543C212.494,177.139 214.501,176.894 216.516,176.735C218.534,176.575 220.572,176.598 222.601,176.747C226.66,177.047 230.701,177.992 234.461,179.601C238.227,181.194 241.701,183.422 244.757,186.075C247.823,188.725 250.485,191.781 252.771,195.071C253.91,196.72 254.96,198.426 255.912,200.186C256.869,201.97 257.716,203.709 258.47,205.716L255.431,204.813C256.64,203.91 257.853,203.013 259.096,202.15C260.338,201.288 261.595,200.444 262.88,199.641C265.445,198.024 268.099,196.529 270.854,195.211C276.355,192.593 282.333,190.644 288.6,190.283C291.722,190.114 294.897,190.338 297.969,191.085C301.039,191.822 303.999,193.047 306.675,194.704C309.359,196.352 311.771,198.395 313.872,200.697C314.922,201.849 315.899,203.062 316.794,204.338C317.695,205.634 318.494,206.893 319.239,208.419L316.029,209.354C315.905,208.209 315.792,207.058 315.814,205.881C315.82,204.709 315.907,203.521 316.142,202.338C316.579,199.98 317.6,197.604 319.268,195.745C320.917,193.869 323.068,192.572 325.266,191.738C327.476,190.901 329.756,190.459 332.014,190.242C336.541,189.806 341.004,190.199 345.373,190.869C347.558,191.214 349.723,191.646 351.869,192.151C352.943,192.403 354.011,192.674 355.075,192.965C356.143,193.258 357.186,193.559 358.269,193.91L356.739,195.73C356.056,194.383 355.402,193.02 354.813,191.624C354.234,190.224 353.682,188.809 353.236,187.353C352.306,184.457 351.698,181.436 351.521,178.366C351.361,175.299 351.658,172.183 352.535,169.219C353.386,166.248 354.818,163.465 356.621,160.994C358.426,158.519 360.594,156.342 362.961,154.458C365.329,152.569 367.886,150.951 370.539,149.544C373.194,148.138 375.949,146.942 378.761,145.918C380.168,145.409 381.591,144.945 383.024,144.518C384.463,144.09 385.893,143.705 387.39,143.39L387.321,144.81C385.622,144.273 383.923,143.739 382.241,143.149C380.557,142.565 378.879,141.962 377.223,141.3C375.56,140.654 373.915,139.962 372.289,139.227C370.66,138.498 369.047,137.728 367.465,136.897C365.874,136.084 364.321,135.196 362.788,134.273C361.26,133.345 359.763,132.36 358.314,131.305C355.41,129.206 352.69,126.833 350.288,124.15C347.912,121.453 345.823,118.467 344.306,115.179C342.781,111.898 341.843,108.339 341.546,104.728C341.242,101.115 341.587,97.465 342.431,93.953C342.86,92.197 343.406,90.471 344.077,88.792C344.756,87.107 345.507,85.492 346.486,83.895L347.351,85.019C345.874,85.505 344.386,85.963 342.883,86.376L340.616,86.951L338.326,87.442C336.789,87.728 335.244,87.979 333.684,88.145C332.127,88.338 330.553,88.396 328.978,88.42C327.402,88.397 325.819,88.334 324.247,88.107C322.677,87.885 321.113,87.568 319.585,87.101C316.534,86.161 313.623,84.677 311.103,82.676C308.583,80.675 306.464,78.204 304.765,75.505C303.061,72.802 301.76,69.879 300.762,66.877C299.764,63.873 299.067,60.785 298.603,57.67C298.369,56.112 298.2,54.547 298.083,52.975C297.971,51.392 297.904,49.851 297.941,48.202L300.469,49.079C296.858,54.198 293.043,59.198 288.786,63.87C287.727,65.041 286.635,66.186 285.507,67.302C284.386,68.423 283.228,69.515 282.018,70.556C279.616,72.653 277.027,74.582 274.2,76.212C271.361,77.804 268.244,79.12 264.833,79.557C263.136,79.772 261.38,79.759 259.658,79.461C257.938,79.151 256.267,78.554 254.743,77.731C251.68,76.071 249.262,73.582 247.361,70.886C246.405,69.532 245.577,68.109 244.842,66.645C244.11,65.158 243.485,63.716 242.951,62.045L246.247,62.399C244.873,64.881 242.971,67.238 240.432,68.846C237.913,70.473 234.917,71.232 232.053,71.295C229.173,71.367 226.39,70.855 223.747,70.092C221.106,69.309 218.581,68.276 216.156,67.09C211.305,64.714 206.8,61.807 202.502,58.663C200.353,57.091 198.261,55.448 196.213,53.753C195.19,52.904 194.179,52.042 193.18,51.163C192.177,50.28 191.202,49.401 190.212,48.457L192.847,47.658C191.929,51.696 190.857,55.716 189.409,59.648C188.684,61.614 187.865,63.558 186.89,65.449C185.917,67.338 184.775,69.183 183.328,70.852C181.893,72.51 180.099,74.038 177.868,74.875C176.762,75.287 175.569,75.527 174.383,75.528C173.197,75.534 172.028,75.34 170.939,74.988C168.747,74.293 166.864,73.078 165.197,71.709C164.363,71.019 163.581,70.28 162.845,69.503C162.103,68.715 161.428,67.936 160.753,67.019L163.022,66.319C162.939,68.097 162.743,69.879 162.346,71.64C161.941,73.397 161.31,75.125 160.427,76.731C159.544,78.337 158.39,79.808 157.023,81.032C155.659,82.262 154.097,83.244 152.455,83.991C149.158,85.486 145.608,86.088 142.12,86.287C138.619,86.488 135.14,86.204 131.712,85.752C124.853,84.8 118.184,83.006 111.662,80.862C108.404,79.779 105.174,78.613 101.994,77.328C99.202,76.199 96.45,74.984 93.723,73.707M92.74,72.84C95.869,74.202 99.062,75.435 102.273,76.596C105.488,77.749 108.723,78.843 111.992,79.817C118.524,81.762 125.182,83.347 131.916,84.086C135.28,84.443 138.663,84.586 141.997,84.346C145.32,84.098 148.626,83.454 151.554,82.059C154.483,80.684 156.922,78.455 158.387,75.628C159.893,72.815 160.437,69.528 160.517,66.253L160.605,62.692L162.786,65.554C163.337,66.275 164.014,67.038 164.689,67.725C165.372,68.421 166.094,69.076 166.848,69.678C168.353,70.873 170.007,71.87 171.739,72.38C173.468,72.906 175.244,72.873 176.846,72.225C178.457,71.593 179.884,70.379 181.085,68.933C182.287,67.48 183.32,65.823 184.203,64.07C185.091,62.316 185.852,60.478 186.528,58.599C187.883,54.839 188.898,50.926 189.764,46.978L190.359,44.264L192.399,46.18C193.316,47.042 194.299,47.917 195.275,48.764C196.256,49.613 197.25,50.449 198.256,51.27C200.269,52.911 202.324,54.501 204.428,56.016C208.631,59.045 213.02,61.822 217.63,64.036C219.933,65.143 222.299,66.084 224.703,66.777C227.105,67.455 229.561,67.869 231.942,67.789C234.32,67.714 236.597,67.093 238.501,65.848C240.418,64.613 241.919,62.759 243.099,60.669L245.139,57.056L246.396,61.024C246.806,62.318 247.405,63.747 248.05,65.049C248.708,66.367 249.447,67.643 250.285,68.833C251.952,71.211 254.008,73.289 256.436,74.607C258.857,75.935 261.625,76.422 264.407,76.084C267.195,75.763 269.945,74.664 272.532,73.246C275.114,71.792 277.561,70.018 279.866,68.046C281.02,67.065 282.155,66.049 283.252,64.988C284.357,63.937 285.434,62.85 286.483,61.732C290.699,57.278 294.544,52.436 298.201,47.454L300.919,43.75L300.728,48.332C300.669,49.765 300.701,51.31 300.781,52.804C300.864,54.309 300.998,55.813 301.195,57.309C301.582,60.301 302.194,63.263 303.085,66.13C303.976,68.995 305.151,71.769 306.688,74.316C308.223,76.863 310.132,79.175 312.41,81.058C314.689,82.939 317.334,84.357 320.157,85.289C321.57,85.753 323.031,86.078 324.508,86.317C325.986,86.561 327.49,86.65 328.994,86.701C330.501,86.707 332.014,86.683 333.522,86.524C335.033,86.402 336.534,86.16 338.031,85.896L340.266,85.435L342.487,84.89C343.961,84.497 345.423,84.059 346.878,83.593L348.837,82.966L347.744,84.717C346.857,86.137 346.087,87.739 345.432,89.338C344.774,90.947 344.236,92.606 343.809,94.292C342.973,97.664 342.615,101.163 342.879,104.623C343.137,108.082 344.007,111.493 345.447,114.656C346.884,117.822 348.858,120.742 351.198,123.336C353.544,125.927 356.209,128.227 359.064,130.265C360.487,131.29 361.961,132.246 363.468,133.15C364.977,134.048 366.51,134.912 368.081,135.703C369.643,136.514 371.237,137.263 372.848,137.973C374.457,138.688 376.086,139.363 377.733,139.991C379.373,140.636 381.036,141.224 382.706,141.792C384.373,142.366 386.06,142.886 387.746,143.407L390.418,144.233L387.677,144.827C386.279,145.13 384.849,145.521 383.454,145.946C382.053,146.369 380.671,146.857 379.301,147.373C376.567,148.417 373.897,149.626 371.341,151.03C366.253,153.836 361.523,157.449 358.218,162.14C356.573,164.473 355.296,167.057 354.559,169.794C354.185,171.16 353.933,172.558 353.796,173.969C353.675,175.383 353.676,176.807 353.766,178.227C353.981,181.067 354.597,183.884 355.526,186.607C355.972,187.975 356.521,189.311 357.096,190.636C357.682,191.956 358.332,193.251 359.01,194.533L360.449,197.254L357.479,196.353C356.489,196.053 355.438,195.77 354.406,195.51C353.368,195.248 352.324,195.005 351.277,194.78C349.183,194.331 347.075,193.952 344.961,193.661C340.74,193.092 336.462,192.828 332.329,193.272C330.268,193.495 328.249,193.927 326.401,194.656C324.557,195.383 322.903,196.44 321.691,197.857C320.465,199.263 319.718,201.031 319.385,202.939C319.206,203.891 319.145,204.882 319.154,205.881C319.145,206.88 319.26,207.895 319.381,208.907L320.535,218.545L316.171,209.843C315.602,208.707 314.807,207.45 313.997,206.324C313.175,205.179 312.276,204.086 311.315,203.057C309.393,200.996 307.21,199.193 304.818,197.762C302.43,196.324 299.834,195.259 297.129,194.63C294.425,193.99 291.616,193.808 288.817,193.976C283.202,194.331 277.678,196.141 272.505,198.645C269.914,199.906 267.397,201.343 264.951,202.905C263.725,203.684 262.523,204.501 261.332,205.339C260.141,206.176 258.975,207.051 257.812,207.931L255.723,209.51L254.773,207.028C254.16,205.427 253.317,203.687 252.434,202.082C251.541,200.456 250.556,198.879 249.492,197.361C247.357,194.331 244.891,191.545 242.1,189.167C239.317,186.783 236.201,184.82 232.85,183.428C229.503,182.023 225.926,181.21 222.292,180.965C220.476,180.847 218.645,180.833 216.816,180.978C214.989,181.123 213.159,181.345 211.348,181.72C209.536,182.084 207.734,182.53 205.959,183.092C204.176,183.623 202.427,184.288 200.687,184.974C198.956,185.689 197.243,186.457 195.557,187.293C193.873,188.131 192.208,189.018 190.572,189.959C188.931,190.896 187.319,191.887 185.725,192.91C184.131,193.934 182.568,195.01 181.011,196.096L178.765,197.662L177.767,195.103C177.297,193.897 176.74,192.61 176.181,191.375C175.617,190.131 175.021,188.898 174.401,187.68C173.16,185.242 171.811,182.862 170.342,180.575C168.87,178.291 167.282,176.092 165.531,174.066C163.779,172.046 161.869,170.186 159.77,168.672C157.677,167.156 155.375,166.018 152.98,165.52C150.587,165.012 148.116,165.198 145.765,165.998C144.587,166.386 143.441,166.932 142.342,167.59C141.237,168.233 140.174,168.988 139.158,169.821C138.129,170.635 137.17,171.561 136.227,172.504C135.289,173.456 134.4,174.469 133.53,175.501L126.674,183.637L130.214,173.606C130.388,173.113 130.574,172.36 130.691,171.706C130.813,171.025 130.898,170.333 130.941,169.639C131.029,168.25 130.949,166.853 130.703,165.494C130.216,162.77 129.02,160.204 127.256,158.028C125.502,155.838 123.209,154.044 120.696,152.582C118.169,151.13 115.42,149.99 112.574,149.102C109.729,148.201 106.792,147.529 103.816,147.023C102.328,146.768 100.832,146.545 99.327,146.369C97.824,146.181 96.313,146.033 94.799,145.915C91.77,145.674 88.726,145.538 85.676,145.494C82.626,145.45 79.572,145.505 76.516,145.584L76.266,142.644C78.373,142.366 80.557,141.96 82.686,141.504C84.825,141.044 86.949,140.511 89.051,139.906C93.253,138.696 97.37,137.188 101.269,135.267C105.157,133.343 108.851,130.981 111.865,127.942C113.369,126.427 114.691,124.743 115.73,122.899C116.77,121.059 117.485,119.047 117.862,116.968C118.622,112.794 117.947,108.417 116.485,104.341C115.73,102.305 114.823,100.315 113.775,98.392C112.711,96.478 111.562,94.603 110.292,92.805C109.67,91.896 109.026,91.004 108.348,90.133C107.694,89.246 106.998,88.39 106.298,87.536C104.904,85.825 103.447,84.16 101.94,82.541C101.198,81.721 100.436,80.919 99.662,80.128C98.896,79.329 98.126,78.533 97.329,77.764C95.765,76.194 94.14,74.688 92.522,73.171L91.677,72.378L92.74,72.84Z" style="fill:rgb(252,238,33);fill-rule:nonzero;"/>
    </g>
    <g transform="matrix(1,0,0,1,-23.0821,-26.3673)">
        <path d="M97.446,106.762C97.446,106.762 97.769,106.809 98.375,106.859C98.981,106.908 99.874,106.946 100.993,106.916C102.09,106.862 103.509,106.751 104.758,106.106C105.376,105.781 105.833,105.271 105.975,104.625C106.122,103.975 105.995,103.166 105.689,102.342C105.066,100.686 103.902,98.98 102.581,97.268C101.244,95.557 99.684,93.846 98.043,92.096C96.397,90.348 94.594,88.629 92.778,86.864C90.95,85.108 89.063,83.352 87.137,81.633C85.236,79.888 83.315,78.16 81.398,76.486C79.485,74.806 77.601,73.152 75.778,71.552C72.116,68.357 68.698,65.374 65.769,62.818C62.833,60.262 60.413,58.093 58.722,56.57C57.031,55.045 56.082,54.151 56.082,54.151C56.082,54.151 57.185,54.844 59.088,56.098C60.986,57.358 63.678,59.184 66.842,61.47C68.423,62.614 70.138,63.85 71.91,65.212C73.695,66.56 75.573,67.988 77.47,69.523C79.368,71.056 81.354,72.615 83.293,74.295C85.246,75.957 87.212,77.67 89.154,79.414C91.078,81.178 92.967,82.985 94.8,84.794C96.639,86.599 98.359,88.472 99.99,90.322C101.625,92.17 103.098,94.065 104.388,95.958C105.674,97.852 106.768,99.78 107.33,101.843C107.592,102.866 107.73,103.989 107.352,105.053C106.974,106.128 106.059,106.841 105.239,107.141C103.563,107.766 102.116,107.601 100.971,107.509C99.819,107.388 98.943,107.163 98.348,107.018C97.755,106.865 97.446,106.762 97.446,106.762" style="fill:rgb(252,238,33);fill-rule:nonzero;"/>
    </g>
    <g transform="matrix(1,0,0,1,-23.0821,-26.3673)">
        <path d="M377.349,56.416C377.349,56.416 375.345,60.086 372.129,65.421C371.329,66.758 370.467,68.208 369.528,69.723C368.598,71.241 367.617,72.843 366.602,74.499C365.586,76.152 364.536,77.859 363.47,79.595C362.396,81.323 361.322,83.088 360.275,84.863C359.201,86.622 358.147,88.391 357.169,90.152C356.206,91.919 355.224,93.642 354.482,95.344C354.111,96.178 353.79,97.055 353.651,97.744C353.531,98.101 353.689,98.372 353.501,98.121C353.467,98.069 353.367,98.011 353.317,98.012C353.31,97.986 353.249,98.006 353.274,98.01C353.314,98.004 353.352,98.006 353.395,98.013C353.453,98.007 353.536,97.982 353.605,97.97C354.233,97.828 354.996,97.412 355.683,97.04C356.384,96.645 357.057,96.227 357.695,95.804C358.97,94.957 360.124,94.124 361.153,93.395C362.173,92.645 363.062,91.993 363.794,91.455C365.268,90.379 366.11,89.764 366.11,89.764C366.11,89.764 365.937,89.959 365.613,90.326C365.284,90.687 364.825,91.244 364.191,91.9C363.568,92.569 362.805,93.377 361.895,94.27C360.979,95.158 359.951,96.168 358.728,97.183C358.121,97.695 357.472,98.216 356.763,98.733C356.023,99.234 355.295,99.749 354.21,100.126C354.065,100.169 353.933,100.216 353.772,100.25C353.59,100.275 353.404,100.294 353.219,100.306C353.019,100.312 352.738,100.252 352.508,100.191C352.259,100.1 351.958,99.909 351.762,99.707C351.355,99.239 351.245,98.765 351.197,98.395C351.182,98.222 351.17,98.042 351.167,97.87L351.201,97.418C351.324,96.25 351.685,95.316 352.035,94.349C352.777,92.45 353.635,90.589 354.626,88.767C355.602,86.937 356.64,85.118 357.705,83.318C358.797,81.536 359.913,79.771 361.026,78.047C362.129,76.316 363.295,74.667 364.398,73.056C365.497,71.442 366.619,69.923 367.675,68.479C368.724,67.03 369.757,65.688 370.713,64.454C374.526,59.505 377.349,56.416 377.349,56.416" style="fill:rgb(252,238,33);fill-rule:nonzero;"/>
    </g>
    <g transform="matrix(1,0,0,1,-23.0821,-26.3673)">
        <path d="M373.295,174.276C373.295,174.276 372.18,174.35 370.399,174.948C369.517,175.249 368.472,175.71 367.481,176.455C366.495,177.203 365.629,178.291 365.227,179.668C364.818,181.047 364.921,182.691 365.34,184.38C365.404,184.805 365.59,185.229 365.714,185.66C365.847,186.091 365.986,186.525 366.187,186.955C366.366,187.387 366.547,187.825 366.73,188.265C366.944,188.699 367.16,189.136 367.378,189.578C368.242,191.346 369.366,193.079 370.49,194.846C371.653,196.595 372.891,198.344 374.215,200.039C374.843,200.91 375.509,201.756 376.182,202.593C376.858,203.428 377.494,204.286 378.193,205.089C379.581,206.701 380.863,208.358 382.221,209.871C383.548,211.408 384.823,212.905 386.07,214.295C387.307,215.695 388.477,217.019 389.556,218.242C391.722,220.695 393.527,222.739 394.791,224.17C396.045,225.615 396.744,226.464 396.744,226.464C396.744,226.464 395.872,225.8 394.378,224.6C392.88,223.404 390.762,221.667 388.334,219.456C387.723,218.906 387.087,218.335 386.427,217.742C385.789,217.129 385.128,216.494 384.45,215.841C383.773,215.187 383.076,214.514 382.364,213.828C381.664,213.128 380.978,212.384 380.263,211.644C378.833,210.166 377.391,208.595 375.977,206.955C375.254,206.15 374.586,205.281 373.881,204.439C373.181,203.593 372.481,202.741 371.824,201.848C370.492,200.086 369.237,198.254 368.055,196.41C366.887,194.55 365.853,192.641 364.995,190.702C364.08,188.797 363.502,186.77 363.15,184.807C362.806,182.845 362.884,180.805 363.611,179.094C364.309,177.367 365.623,176.172 366.859,175.497C368.105,174.797 369.297,174.529 370.259,174.372C371.225,174.214 371.991,174.22 372.506,174.228C373.023,174.244 373.295,174.276 373.295,174.276" style="fill:rgb(252,238,33);fill-rule:nonzero;"/>
    </g>
    <g transform="matrix(1,0,0,1,-23.0821,-26.3673)">
        <path d="M269.967,47.488C269.967,47.488 269.699,48.403 269.338,50.01C269.153,50.812 268.967,51.794 268.782,52.91C268.613,54.027 268.47,55.295 268.472,56.634C268.483,57.956 268.665,59.435 269.33,60.482C269.667,60.996 270.11,61.359 270.675,61.577L270.778,61.621L270.804,61.632C270.88,61.659 270.715,61.6 270.739,61.608L270.759,61.614L270.836,61.634L271.146,61.719C271.243,61.706 271.3,61.736 271.461,61.727C271.734,61.734 272.037,61.682 272.357,61.58C273.66,61.189 275.019,60.062 276.297,58.901C277.582,57.707 278.798,56.334 279.956,54.906C281.14,53.498 282.272,52.026 283.35,50.546C284.416,49.057 285.498,47.606 286.488,46.158C287.481,44.709 288.441,43.307 289.352,41.978C290.254,40.637 291.107,39.37 291.895,38.2C293.474,35.849 294.791,33.89 295.712,32.519C296.651,31.149 297.187,30.367 297.187,30.367C297.187,30.367 295.921,33.963 293.385,39.062C292.129,41.617 290.56,44.55 288.702,47.598C287.76,49.114 286.802,50.697 285.707,52.229C284.626,53.771 283.488,55.317 282.267,56.816C281.021,58.295 279.705,59.733 278.243,61.042C277.515,61.7 276.736,62.31 275.884,62.845C275.035,63.381 274.112,63.859 273.038,64.125C272.507,64.259 271.929,64.332 271.334,64.285C271.059,64.278 270.694,64.204 270.367,64.118L270.065,64.005L269.99,63.976L269.971,63.968C269.983,63.973 269.806,63.907 269.87,63.929L269.823,63.906L269.64,63.81C268.652,63.324 267.84,62.477 267.386,61.577C266.476,59.742 266.604,57.999 266.76,56.531C266.933,55.044 267.308,53.758 267.672,52.64C268.035,51.523 268.433,50.585 268.775,49.822C269.469,48.3 269.967,47.488 269.967,47.488" style="fill:rgb(252,238,33);fill-rule:nonzero;"/>
    </g>
    <g transform="matrix(1,0,0,1,-23.0821,-26.3673)">
        <path d="M87.86,60.614C87.86,60.614 91.447,61.927 96.729,64.005C99.369,65.035 102.448,66.236 105.748,67.523C107.397,68.155 109.101,68.808 110.832,69.472C112.56,70.138 114.324,70.791 116.095,71.418C117.858,72.066 119.624,72.703 121.376,73.279C123.132,73.843 124.842,74.457 126.526,74.941C128.207,75.44 129.832,75.915 131.386,76.311C132.941,76.699 134.417,77.037 135.79,77.301C137.163,77.547 138.429,77.744 139.56,77.851C140.127,77.935 140.653,77.919 141.146,77.96C141.641,78.002 142.093,78.006 142.501,77.983C142.912,77.972 143.28,77.963 143.6,77.955C143.918,77.92 144.189,77.889 144.409,77.865C144.854,77.815 145.091,77.789 145.091,77.789C145.091,77.789 144.867,77.871 144.447,78.023C144.235,78.1 143.973,78.195 143.664,78.307C143.352,78.406 142.984,78.479 142.571,78.575C142.159,78.681 141.698,78.769 141.192,78.827C140.687,78.895 140.134,78.983 139.547,79C138.368,79.086 137.033,79.099 135.585,79.011C134.136,78.929 132.571,78.777 130.938,78.505C129.302,78.246 127.583,77.932 125.838,77.491C124.961,77.286 124.074,77.06 123.182,76.816C122.284,76.591 121.388,76.321 120.489,76.037C118.688,75.48 116.876,74.869 115.072,74.236C113.283,73.566 111.505,72.871 109.766,72.163C108.024,71.462 106.346,70.685 104.719,69.949C103.088,69.221 101.546,68.442 100.083,67.708C98.616,66.983 97.256,66.244 96.003,65.558C90.987,62.82 87.86,60.614 87.86,60.614" style="fill:rgb(252,238,33);fill-rule:nonzero;"/>
    </g>
    <g transform="matrix(1,0,0,1,-23.0821,-26.3673)">
        <path d="M56.082,155.263C56.082,155.263 57.633,155.029 60.362,154.742C63.091,154.461 67,154.127 71.706,153.954C74.059,153.868 76.611,153.805 79.312,153.829C82.014,153.845 84.867,153.907 87.816,154.102C90.764,154.298 93.818,154.529 96.905,154.985C99.992,155.434 103.125,156.018 106.226,156.861C109.311,157.74 112.387,158.867 115.182,160.658C116.589,161.52 117.892,162.655 118.904,163.976C119.173,164.36 119.482,164.711 119.663,165.146C119.856,165.574 120.1,165.954 120.188,166.452L120.355,167.162C120.405,167.399 120.381,167.658 120.391,167.904C120.381,168.152 120.404,168.405 120.357,168.643L120.189,169.356C119.628,171.237 118.351,172.45 117.145,173.367C115.909,174.283 114.637,174.99 113.377,175.583C110.86,176.777 108.392,177.553 106.108,178.202C101.539,179.483 97.655,180.115 94.938,180.516C92.219,180.903 90.654,181.018 90.654,181.018C90.654,181.018 92.18,180.653 94.818,179.931C97.452,179.205 101.215,178.149 105.578,176.564C107.748,175.753 110.078,174.809 112.364,173.585C113.503,172.971 114.614,172.257 115.6,171.438C116.571,170.619 117.426,169.644 117.641,168.662C117.663,168.541 117.689,168.421 117.719,168.302C117.745,168.181 117.707,168.059 117.711,167.94C117.697,167.819 117.727,167.7 117.689,167.576L117.578,167.207C117.551,166.958 117.357,166.711 117.241,166.459C117.137,166.191 116.915,165.992 116.753,165.758C115.892,164.723 114.84,163.837 113.624,163.099C111.213,161.583 108.343,160.547 105.417,159.748C102.492,158.917 99.474,158.317 96.477,157.846C93.477,157.391 90.502,156.999 87.607,156.729C84.712,156.465 81.906,156.22 79.237,156.059C76.568,155.908 74.04,155.77 71.703,155.669C67.03,155.489 63.124,155.388 60.387,155.335C57.646,155.289 56.082,155.263 56.082,155.263" style="fill:rgb(252,238,33);fill-rule:nonzero;"/>
    </g>
    <g transform="matrix(1,0,0,1,-23.0821,-26.3673)">
        <path d="M90.655,69.021C90.655,69.021 158.737,100.946 159.77,62.286C159.77,62.286 179.176,89.226 189.305,43.318C189.305,43.318 229.345,81.785 242.673,57.534C242.673,57.534 255.888,102.159 297.335,44.266C297.335,44.266 294.881,96.974 345.115,80.305C345.115,80.305 319.151,120.004 385.533,140.108C385.533,140.108 334.335,150.306 355.874,191.131C355.874,191.131 311.943,176.925 315.705,205.13C315.705,205.13 298.771,168.648 254.621,202.372C254.621,202.372 235.766,149.233 177.772,190.347C177.772,190.347 157.513,136.637 130.03,170.276C130.03,170.276 142.172,137.349 74.456,140.108C74.456,140.108 158.475,129.2 90.655,69.021" style="fill:white;fill-rule:nonzero;"/>
    </g>
    <g transform="matrix(1,0,0,1,-23.0821,-26.3673)">
        <path d="M91.723,69.707C93.08,70.895 94.444,72.078 95.761,73.313C96.586,74.059 97.386,74.832 98.182,75.608C98.986,76.379 99.784,77.154 100.55,77.962C102.111,79.551 103.625,81.187 105.08,82.878C105.811,83.721 106.538,84.567 107.225,85.448C107.935,86.311 108.614,87.199 109.271,88.104C110.611,89.897 111.837,91.778 112.981,93.713C114.111,95.658 115.106,97.687 115.951,99.792C116.775,101.904 117.397,104.112 117.738,106.383C118.081,108.652 118.1,110.993 117.731,113.288C117.362,115.581 116.613,117.824 115.51,119.871C114.41,121.92 113.002,123.783 111.414,125.448C108.228,128.787 104.379,131.341 100.367,133.429C96.342,135.513 92.121,137.151 87.821,138.482C85.67,139.147 83.499,139.739 81.308,140.256C79.108,140.771 76.933,141.225 74.646,141.573L74.396,138.633C77.493,138.479 80.596,138.411 83.703,138.41C86.81,138.418 89.923,138.518 93.035,138.728C94.59,138.829 96.146,138.962 97.701,139.138C99.255,139.301 100.808,139.512 102.357,139.759C105.457,140.248 108.544,140.911 111.583,141.832C114.622,142.742 117.615,143.93 120.448,145.513C123.265,147.106 125.943,149.124 128.081,151.723C130.229,154.299 131.764,157.466 132.398,160.801C132.72,162.466 132.836,164.165 132.751,165.85C132.709,166.692 132.617,167.531 132.477,168.368C132.325,169.228 132.171,169.981 131.847,170.946L128.532,169.052C129.452,167.933 130.398,166.83 131.412,165.775C132.434,164.728 133.481,163.694 134.637,162.756C135.774,161.802 136.988,160.911 138.299,160.142C139.596,159.357 140.988,158.682 142.466,158.184C145.401,157.155 148.705,156.879 151.799,157.527C154.901,158.156 157.723,159.574 160.165,161.319C162.618,163.071 164.749,165.14 166.674,167.335C168.597,169.535 170.304,171.879 171.876,174.29C173.446,176.705 174.872,179.194 176.185,181.738C176.841,183.011 177.471,184.295 178.07,185.597C178.673,186.908 179.233,188.188 179.776,189.592L176.533,188.6C178.14,187.48 179.756,186.37 181.409,185.311C183.061,184.252 184.737,183.225 186.448,182.249C188.155,181.269 189.897,180.342 191.667,179.464C193.438,178.587 195.246,177.777 197.081,177.021C198.929,176.294 200.79,175.59 202.705,175.02C204.609,174.42 206.556,173.937 208.526,173.543C210.494,173.139 212.501,172.894 214.516,172.735C216.534,172.575 218.572,172.598 220.601,172.747C224.66,173.047 228.701,173.992 232.461,175.601C236.227,177.194 239.701,179.422 242.757,182.075C245.823,184.725 248.485,187.781 250.771,191.071C251.91,192.72 252.96,194.426 253.912,196.186C254.869,197.97 255.716,199.709 256.47,201.716L253.431,200.813C254.64,199.91 255.853,199.013 257.096,198.15C258.338,197.288 259.595,196.444 260.88,195.641C263.445,194.024 266.099,192.529 268.854,191.211C274.355,188.593 280.333,186.644 286.6,186.283C289.722,186.114 292.897,186.338 295.969,187.085C299.039,187.822 301.999,189.047 304.675,190.704C307.359,192.352 309.771,194.395 311.872,196.697C312.922,197.849 313.899,199.062 314.794,200.338C315.695,201.634 316.494,202.893 317.239,204.419L314.029,205.354C313.905,204.209 313.792,203.058 313.814,201.881C313.82,200.709 313.907,199.521 314.142,198.338C314.579,195.98 315.6,193.604 317.268,191.745C318.917,189.869 321.068,188.572 323.266,187.738C325.476,186.901 327.756,186.459 330.014,186.242C334.541,185.806 339.004,186.199 343.373,186.869C345.558,187.214 347.723,187.646 349.869,188.151C350.943,188.403 352.011,188.674 353.075,188.965C354.143,189.258 355.186,189.559 356.269,189.91L354.739,191.73C354.056,190.383 353.402,189.02 352.813,187.624C352.234,186.224 351.682,184.809 351.236,183.353C350.306,180.457 349.698,177.436 349.521,174.366C349.361,171.299 349.658,168.183 350.535,165.219C351.386,162.248 352.818,159.465 354.621,156.994C356.426,154.519 358.594,152.342 360.961,150.458C363.329,148.569 365.886,146.951 368.539,145.544C371.194,144.138 373.949,142.942 376.761,141.918C378.168,141.409 379.591,140.945 381.024,140.518C382.463,140.09 383.893,139.705 385.39,139.39L385.321,140.81C383.622,140.273 381.923,139.739 380.241,139.149C378.557,138.565 376.879,137.962 375.223,137.3C373.56,136.654 371.915,135.962 370.289,135.227C368.66,134.498 367.047,133.728 365.465,132.897C363.874,132.084 362.321,131.196 360.788,130.273C359.26,129.345 357.763,128.36 356.314,127.305C353.41,125.206 350.69,122.833 348.288,120.15C345.912,117.453 343.823,114.467 342.306,111.179C340.781,107.898 339.843,104.339 339.546,100.728C339.242,97.115 339.587,93.465 340.431,89.953C340.86,88.197 341.406,86.471 342.077,84.792C342.756,83.107 343.507,81.492 344.486,79.895L345.351,81.019C343.874,81.505 342.386,81.963 340.883,82.376L338.616,82.951L336.326,83.442C334.789,83.728 333.244,83.979 331.684,84.145C330.127,84.338 328.553,84.396 326.978,84.42C325.402,84.397 323.819,84.334 322.247,84.107C320.677,83.885 319.113,83.568 317.585,83.101C314.534,82.161 311.623,80.677 309.103,78.676C306.583,76.675 304.464,74.204 302.765,71.505C301.061,68.802 299.76,65.879 298.762,62.877C297.764,59.873 297.067,56.785 296.603,53.67C296.369,52.112 296.2,50.547 296.083,48.975C295.971,47.392 295.904,45.851 295.941,44.202L298.469,45.079C294.858,50.198 291.043,55.198 286.786,59.87C285.727,61.041 284.635,62.186 283.507,63.302C282.386,64.423 281.228,65.515 280.018,66.556C277.616,68.653 275.027,70.582 272.2,72.212C269.361,73.804 266.244,75.12 262.833,75.557C261.136,75.772 259.38,75.759 257.658,75.461C255.938,75.151 254.267,74.554 252.743,73.731C249.68,72.071 247.262,69.582 245.361,66.886C244.405,65.532 243.577,64.109 242.842,62.645C242.11,61.158 241.485,59.716 240.951,58.045L244.247,58.399C242.873,60.881 240.971,63.238 238.432,64.846C235.913,66.473 232.917,67.232 230.053,67.295C227.173,67.367 224.39,66.855 221.747,66.092C219.106,65.309 216.581,64.276 214.156,63.09C209.305,60.714 204.8,57.807 200.502,54.663C198.353,53.091 196.261,51.448 194.213,49.753C193.19,48.904 192.179,48.042 191.18,47.163C190.177,46.28 189.202,45.401 188.212,44.457L190.847,43.658C189.929,47.696 188.857,51.716 187.409,55.648C186.684,57.614 185.865,59.558 184.89,61.449C183.917,63.338 182.775,65.183 181.328,66.852C179.893,68.51 178.099,70.038 175.868,70.875C174.762,71.287 173.569,71.527 172.383,71.528C171.197,71.534 170.028,71.34 168.939,70.988C166.747,70.293 164.864,69.078 163.197,67.709C162.363,67.019 161.581,66.28 160.845,65.503C160.103,64.715 159.428,63.936 158.753,63.019L161.022,62.319C160.939,64.097 160.743,65.879 160.346,67.64C159.941,69.397 159.31,71.125 158.427,72.731C157.544,74.337 156.39,75.808 155.023,77.032C153.659,78.262 152.097,79.244 150.455,79.991C147.158,81.486 143.608,82.088 140.12,82.287C136.619,82.488 133.14,82.204 129.712,81.752C122.853,80.8 116.184,79.006 109.662,76.862C106.404,75.779 103.174,74.613 99.994,73.328C97.202,72.199 94.45,70.984 91.723,69.707M90.74,68.84C93.869,70.202 97.062,71.435 100.273,72.596C103.488,73.749 106.723,74.843 109.992,75.817C116.524,77.762 123.182,79.347 129.916,80.086C133.28,80.443 136.663,80.586 139.997,80.346C143.32,80.098 146.626,79.454 149.554,78.059C152.483,76.684 154.922,74.455 156.387,71.628C157.893,68.815 158.437,65.528 158.517,62.253L158.605,58.692L160.786,61.554C161.337,62.275 162.014,63.038 162.689,63.725C163.372,64.421 164.094,65.076 164.848,65.678C166.353,66.873 168.007,67.87 169.739,68.38C171.468,68.906 173.244,68.873 174.846,68.225C176.457,67.593 177.884,66.379 179.085,64.933C180.287,63.48 181.32,61.823 182.203,60.07C183.091,58.316 183.852,56.478 184.528,54.599C185.883,50.839 186.898,46.926 187.764,42.978L188.359,40.264L190.399,42.18C191.316,43.042 192.299,43.917 193.275,44.764C194.256,45.613 195.25,46.449 196.256,47.27C198.269,48.911 200.324,50.501 202.428,52.016C206.631,55.045 211.02,57.822 215.63,60.036C217.933,61.143 220.299,62.084 222.703,62.777C225.105,63.455 227.561,63.869 229.942,63.789C232.32,63.714 234.597,63.093 236.501,61.848C238.418,60.613 239.919,58.759 241.099,56.669L243.139,53.056L244.396,57.024C244.806,58.318 245.405,59.747 246.05,61.049C246.708,62.367 247.447,63.643 248.285,64.833C249.952,67.211 252.008,69.289 254.436,70.607C256.857,71.935 259.625,72.422 262.407,72.084C265.195,71.763 267.945,70.664 270.532,69.246C273.114,67.792 275.561,66.018 277.866,64.046C279.02,63.065 280.155,62.049 281.252,60.988C282.357,59.937 283.434,58.85 284.483,57.732C288.699,53.278 292.544,48.436 296.201,43.454L298.919,39.75L298.728,44.332C298.669,45.765 298.701,47.31 298.781,48.804C298.864,50.309 298.998,51.813 299.195,53.309C299.582,56.301 300.194,59.263 301.085,62.13C301.976,64.995 303.151,67.769 304.688,70.316C306.223,72.863 308.132,75.175 310.41,77.058C312.689,78.939 315.334,80.357 318.157,81.289C319.57,81.753 321.031,82.078 322.508,82.317C323.986,82.561 325.49,82.65 326.994,82.701C328.501,82.707 330.014,82.683 331.522,82.524C333.033,82.402 334.534,82.16 336.031,81.896L338.266,81.435L340.487,80.89C341.961,80.497 343.423,80.059 344.878,79.593L346.837,78.966L345.744,80.717C344.857,82.137 344.087,83.739 343.432,85.338C342.774,86.947 342.236,88.606 341.809,90.292C340.973,93.664 340.615,97.163 340.879,100.623C341.137,104.082 342.007,107.493 343.447,110.656C344.884,113.822 346.858,116.742 349.198,119.336C351.544,121.927 354.209,124.227 357.064,126.265C358.487,127.29 359.961,128.246 361.468,129.15C362.977,130.048 364.51,130.912 366.081,131.703C367.643,132.514 369.237,133.263 370.848,133.973C372.457,134.688 374.086,135.363 375.733,135.991C377.373,136.636 379.036,137.224 380.706,137.792C382.373,138.366 384.06,138.886 385.746,139.407L388.418,140.233L385.677,140.827C384.279,141.13 382.849,141.521 381.454,141.946C380.053,142.369 378.671,142.857 377.301,143.373C374.567,144.417 371.897,145.626 369.341,147.03C364.253,149.836 359.523,153.449 356.218,158.14C354.573,160.473 353.296,163.057 352.559,165.794C352.185,167.16 351.933,168.558 351.796,169.969C351.675,171.383 351.676,172.807 351.766,174.227C351.981,177.067 352.597,179.884 353.526,182.607C353.972,183.975 354.521,185.311 355.096,186.636C355.682,187.956 356.332,189.251 357.01,190.533L358.449,193.254L355.479,192.353C354.489,192.053 353.438,191.77 352.406,191.51C351.368,191.248 350.324,191.005 349.277,190.78C347.183,190.331 345.075,189.952 342.961,189.661C338.74,189.092 334.462,188.828 330.329,189.272C328.268,189.495 326.249,189.927 324.401,190.656C322.557,191.383 320.903,192.44 319.691,193.857C318.465,195.263 317.718,197.031 317.385,198.939C317.206,199.891 317.145,200.882 317.154,201.881C317.145,202.88 317.26,203.895 317.381,204.907L318.535,214.545L314.171,205.843C313.602,204.707 312.807,203.45 311.997,202.324C311.175,201.179 310.276,200.086 309.315,199.057C307.393,196.996 305.21,195.193 302.818,193.762C300.43,192.324 297.834,191.259 295.129,190.63C292.425,189.99 289.616,189.808 286.817,189.976C281.202,190.331 275.678,192.141 270.505,194.645C267.914,195.906 265.397,197.343 262.951,198.905C261.725,199.684 260.523,200.501 259.332,201.339C258.141,202.176 256.975,203.051 255.812,203.931L253.723,205.51L252.773,203.028C252.16,201.427 251.317,199.687 250.434,198.082C249.541,196.456 248.556,194.879 247.492,193.361C245.357,190.331 242.891,187.545 240.1,185.167C237.317,182.783 234.201,180.82 230.85,179.428C227.503,178.023 223.926,177.21 220.292,176.965C218.476,176.847 216.645,176.833 214.816,176.978C212.989,177.123 211.159,177.345 209.348,177.72C207.536,178.084 205.734,178.53 203.959,179.092C202.176,179.623 200.427,180.288 198.687,180.974C196.956,181.689 195.243,182.457 193.557,183.293C191.873,184.131 190.208,185.018 188.572,185.959C186.931,186.896 185.319,187.887 183.725,188.91C182.131,189.934 180.568,191.01 179.011,192.096L176.765,193.662L175.767,191.103C175.297,189.897 174.74,188.61 174.181,187.375C173.617,186.131 173.021,184.898 172.401,183.68C171.16,181.242 169.811,178.862 168.342,176.575C166.87,174.291 165.282,172.092 163.531,170.066C161.779,168.046 159.869,166.186 157.77,164.672C155.677,163.156 153.375,162.018 150.98,161.52C148.587,161.012 146.116,161.198 143.765,161.998C142.587,162.386 141.441,162.932 140.342,163.59C139.237,164.233 138.174,164.988 137.158,165.821C136.129,166.635 135.17,167.561 134.227,168.504C133.289,169.456 132.4,170.469 131.53,171.501L124.674,179.637L128.214,169.606C128.388,169.113 128.574,168.36 128.691,167.706C128.813,167.025 128.898,166.333 128.941,165.639C129.029,164.25 128.949,162.853 128.703,161.494C128.216,158.77 127.02,156.204 125.256,154.028C123.502,151.838 121.209,150.044 118.696,148.582C116.169,147.13 113.42,145.99 110.574,145.102C107.729,144.201 104.792,143.529 101.816,143.023C100.328,142.768 98.832,142.545 97.327,142.369C95.824,142.181 94.313,142.033 92.799,141.915C89.77,141.674 86.726,141.538 83.676,141.494C80.626,141.45 77.572,141.505 74.516,141.584L74.266,138.644C76.373,138.366 78.557,137.96 80.686,137.504C82.825,137.044 84.949,136.511 87.051,135.906C91.253,134.696 95.37,133.188 99.269,131.267C103.157,129.343 106.851,126.981 109.865,123.942C111.369,122.427 112.691,120.743 113.73,118.899C114.77,117.059 115.485,115.047 115.862,112.968C116.622,108.794 115.947,104.417 114.485,100.341C113.73,98.305 112.823,96.315 111.775,94.392C110.711,92.478 109.562,90.603 108.292,88.805C107.67,87.896 107.026,87.004 106.348,86.133C105.694,85.246 104.998,84.39 104.298,83.536C102.904,81.825 101.447,80.16 99.94,78.541C99.198,77.721 98.436,76.919 97.662,76.128C96.896,75.329 96.126,74.533 95.329,73.764C93.765,72.194 92.14,70.688 90.522,69.171L89.677,68.378L90.74,68.84Z" style="fill:black;fill-rule:nonzero;"/>
    </g>
    <g transform="matrix(1,0,0,1,-23.0821,-26.3673)">
        <path d="M95.446,102.762C95.446,102.762 95.769,102.809 96.375,102.859C96.981,102.908 97.874,102.946 98.993,102.916C100.09,102.862 101.509,102.751 102.758,102.106C103.376,101.781 103.833,101.271 103.975,100.625C104.122,99.975 103.995,99.166 103.689,98.342C103.066,96.686 101.902,94.98 100.581,93.268C99.244,91.557 97.684,89.846 96.043,88.096C94.397,86.348 92.594,84.629 90.778,82.864C88.95,81.108 87.063,79.352 85.137,77.633C83.236,75.888 81.315,74.16 79.398,72.486C77.485,70.806 75.601,69.152 73.778,67.552C70.116,64.357 66.698,61.374 63.769,58.818C60.833,56.262 58.413,54.093 56.722,52.57C55.031,51.045 54.082,50.151 54.082,50.151C54.082,50.151 55.185,50.844 57.088,52.098C58.986,53.358 61.678,55.184 64.842,57.47C66.423,58.614 68.138,59.85 69.91,61.212C71.695,62.56 73.573,63.988 75.47,65.523C77.368,67.056 79.354,68.615 81.293,70.295C83.246,71.957 85.212,73.67 87.154,75.414C89.078,77.178 90.967,78.985 92.8,80.794C94.639,82.599 96.359,84.472 97.99,86.322C99.625,88.17 101.098,90.065 102.388,91.958C103.674,93.852 104.768,95.78 105.33,97.843C105.592,98.866 105.73,99.989 105.352,101.053C104.974,102.128 104.059,102.841 103.239,103.141C101.563,103.766 100.116,103.601 98.971,103.509C97.819,103.388 96.943,103.163 96.348,103.018C95.755,102.865 95.446,102.762 95.446,102.762" style="fill:black;fill-rule:nonzero;"/>
    </g>
    <g transform="matrix(1,0,0,1,-23.0821,-26.3673)">
        <path d="M375.349,52.416C375.349,52.416 373.345,56.086 370.129,61.421C369.329,62.758 368.467,64.208 367.528,65.723C366.598,67.241 365.617,68.843 364.602,70.499C363.586,72.152 362.536,73.859 361.47,75.595C360.396,77.323 359.322,79.088 358.275,80.863C357.201,82.622 356.147,84.391 355.169,86.152C354.206,87.919 353.224,89.642 352.482,91.344C352.111,92.178 351.79,93.055 351.651,93.744C351.531,94.101 351.689,94.372 351.501,94.121C351.467,94.069 351.367,94.011 351.317,94.012C351.31,93.986 351.249,94.006 351.274,94.01C351.314,94.004 351.352,94.006 351.395,94.013C351.453,94.007 351.536,93.982 351.605,93.97C352.233,93.828 352.996,93.412 353.683,93.04C354.384,92.645 355.057,92.227 355.695,91.804C356.97,90.957 358.124,90.124 359.153,89.395C360.173,88.645 361.062,87.993 361.794,87.455C363.268,86.379 364.11,85.764 364.11,85.764C364.11,85.764 363.937,85.959 363.613,86.326C363.284,86.687 362.825,87.244 362.191,87.9C361.568,88.569 360.805,89.377 359.895,90.27C358.979,91.158 357.951,92.168 356.728,93.183C356.121,93.695 355.472,94.216 354.763,94.733C354.023,95.234 353.295,95.749 352.21,96.126C352.065,96.169 351.933,96.216 351.772,96.25C351.59,96.275 351.404,96.294 351.219,96.306C351.019,96.312 350.738,96.252 350.508,96.191C350.259,96.1 349.958,95.909 349.762,95.707C349.355,95.239 349.245,94.765 349.197,94.395C349.182,94.222 349.17,94.042 349.167,93.87L349.201,93.418C349.324,92.25 349.685,91.316 350.035,90.349C350.777,88.45 351.635,86.589 352.626,84.767C353.602,82.937 354.64,81.118 355.705,79.318C356.797,77.536 357.913,75.771 359.026,74.047C360.129,72.316 361.295,70.667 362.398,69.056C363.497,67.442 364.619,65.923 365.675,64.479C366.724,63.03 367.757,61.688 368.713,60.454C372.526,55.505 375.349,52.416 375.349,52.416" style="fill:black;fill-rule:nonzero;"/>
    </g>
    <g transform="matrix(1,0,0,1,-23.0821,-26.3673)">
        <path d="M371.295,170.276C371.295,170.276 370.18,170.35 368.399,170.948C367.517,171.249 366.472,171.71 365.481,172.455C364.495,173.203 363.629,174.291 363.227,175.668C362.818,177.047 362.921,178.691 363.34,180.38C363.404,180.805 363.59,181.229 363.714,181.66C363.847,182.091 363.986,182.525 364.187,182.955C364.366,183.387 364.547,183.825 364.73,184.265C364.944,184.699 365.16,185.136 365.378,185.578C366.242,187.346 367.366,189.079 368.49,190.846C369.653,192.595 370.891,194.344 372.215,196.039C372.843,196.91 373.509,197.756 374.182,198.593C374.858,199.428 375.494,200.286 376.193,201.089C377.581,202.701 378.863,204.358 380.221,205.871C381.548,207.408 382.823,208.905 384.07,210.295C385.307,211.695 386.477,213.019 387.556,214.242C389.722,216.695 391.527,218.739 392.791,220.17C394.045,221.615 394.744,222.464 394.744,222.464C394.744,222.464 393.872,221.8 392.378,220.6C390.88,219.404 388.762,217.667 386.334,215.456C385.723,214.906 385.087,214.335 384.427,213.742C383.789,213.129 383.128,212.494 382.45,211.841C381.773,211.187 381.076,210.514 380.364,209.828C379.664,209.128 378.978,208.384 378.263,207.644C376.833,206.166 375.391,204.595 373.977,202.955C373.254,202.15 372.586,201.281 371.881,200.439C371.181,199.593 370.481,198.741 369.824,197.848C368.492,196.086 367.237,194.254 366.055,192.41C364.887,190.55 363.853,188.641 362.995,186.702C362.08,184.797 361.502,182.77 361.15,180.807C360.806,178.845 360.884,176.805 361.611,175.094C362.309,173.367 363.623,172.172 364.859,171.497C366.105,170.797 367.297,170.529 368.259,170.372C369.225,170.214 369.991,170.22 370.506,170.228C371.023,170.244 371.295,170.276 371.295,170.276" style="fill:black;fill-rule:nonzero;"/>
    </g>
    <g transform="matrix(1,0,0,1,-23.0821,-26.3673)">
        <path d="M267.967,43.488C267.967,43.488 267.699,44.403 267.338,46.01C267.153,46.812 266.967,47.794 266.782,48.91C266.613,50.027 266.47,51.295 266.472,52.634C266.483,53.956 266.665,55.435 267.33,56.482C267.667,56.996 268.11,57.359 268.675,57.577L268.778,57.621L268.804,57.632C268.88,57.659 268.715,57.6 268.739,57.608L268.759,57.614L268.836,57.634L269.146,57.719C269.243,57.706 269.3,57.736 269.461,57.727C269.734,57.734 270.037,57.682 270.357,57.58C271.66,57.189 273.019,56.062 274.297,54.901C275.582,53.707 276.798,52.334 277.956,50.906C279.14,49.498 280.272,48.026 281.35,46.546C282.416,45.057 283.498,43.606 284.488,42.158C285.481,40.709 286.441,39.307 287.352,37.978C288.254,36.637 289.107,35.37 289.895,34.2C291.474,31.849 292.791,29.89 293.712,28.519C294.651,27.149 295.187,26.367 295.187,26.367C295.187,26.367 293.921,29.963 291.385,35.062C290.129,37.617 288.56,40.55 286.702,43.598C285.76,45.114 284.802,46.697 283.707,48.229C282.626,49.771 281.488,51.317 280.267,52.816C279.021,54.295 277.705,55.733 276.243,57.042C275.515,57.7 274.736,58.31 273.884,58.845C273.035,59.381 272.112,59.859 271.038,60.125C270.507,60.259 269.929,60.332 269.334,60.285C269.059,60.278 268.694,60.204 268.367,60.118L268.065,60.005L267.99,59.976L267.971,59.968C267.983,59.973 267.806,59.907 267.87,59.929L267.823,59.906L267.64,59.81C266.652,59.324 265.84,58.477 265.386,57.577C264.476,55.742 264.604,53.999 264.76,52.531C264.933,51.044 265.308,49.758 265.672,48.64C266.035,47.523 266.433,46.585 266.775,45.822C267.469,44.3 267.967,43.488 267.967,43.488" style="fill:black;fill-rule:nonzero;"/>
    </g>
    <g transform="matrix(1,0,0,1,-23.0821,-26.3673)">
        <path d="M85.86,56.614C85.86,56.614 89.447,57.927 94.729,60.005C97.369,61.035 100.448,62.236 103.748,63.523C105.397,64.155 107.101,64.808 108.832,65.472C110.56,66.138 112.324,66.791 114.095,67.418C115.858,68.066 117.624,68.703 119.376,69.279C121.132,69.843 122.842,70.457 124.526,70.941C126.207,71.44 127.832,71.915 129.386,72.311C130.941,72.699 132.417,73.037 133.79,73.301C135.163,73.547 136.429,73.744 137.56,73.851C138.127,73.935 138.653,73.919 139.146,73.96C139.641,74.002 140.093,74.006 140.501,73.983C140.912,73.972 141.28,73.963 141.6,73.955C141.918,73.92 142.189,73.889 142.409,73.865C142.854,73.815 143.091,73.789 143.091,73.789C143.091,73.789 142.867,73.871 142.447,74.023C142.235,74.1 141.973,74.195 141.664,74.307C141.352,74.406 140.984,74.479 140.571,74.575C140.159,74.681 139.698,74.769 139.192,74.827C138.687,74.895 138.134,74.983 137.547,75C136.368,75.086 135.033,75.099 133.585,75.011C132.136,74.929 130.571,74.777 128.938,74.505C127.302,74.246 125.583,73.932 123.838,73.491C122.961,73.286 122.074,73.06 121.182,72.816C120.284,72.591 119.388,72.321 118.489,72.037C116.688,71.48 114.876,70.869 113.072,70.236C111.283,69.566 109.505,68.871 107.766,68.163C106.024,67.462 104.346,66.685 102.719,65.949C101.088,65.221 99.546,64.442 98.083,63.708C96.616,62.983 95.256,62.244 94.003,61.558C88.987,58.82 85.86,56.614 85.86,56.614" style="fill:black;fill-rule:nonzero;"/>
    </g>
    <g transform="matrix(1,0,0,1,-23.0821,-26.3673)">
        <path d="M54.082,151.263C54.082,151.263 55.633,151.029 58.362,150.742C61.091,150.461 65,150.127 69.706,149.954C72.059,149.868 74.611,149.805 77.312,149.829C80.014,149.845 82.867,149.907 85.816,150.102C88.764,150.298 91.818,150.529 94.905,150.985C97.992,151.434 101.125,152.018 104.226,152.861C107.311,153.74 110.387,154.867 113.182,156.658C114.589,157.52 115.892,158.655 116.904,159.976C117.173,160.36 117.482,160.711 117.663,161.146C117.856,161.574 118.1,161.954 118.188,162.452L118.355,163.162C118.405,163.399 118.381,163.658 118.391,163.904C118.381,164.152 118.404,164.405 118.357,164.643L118.189,165.356C117.628,167.237 116.351,168.45 115.145,169.367C113.909,170.283 112.637,170.99 111.377,171.583C108.86,172.777 106.392,173.553 104.108,174.202C99.539,175.483 95.655,176.115 92.938,176.516C90.219,176.903 88.654,177.018 88.654,177.018C88.654,177.018 90.18,176.653 92.818,175.931C95.452,175.205 99.215,174.149 103.578,172.564C105.748,171.753 108.078,170.809 110.364,169.585C111.503,168.971 112.614,168.257 113.6,167.438C114.571,166.619 115.426,165.644 115.641,164.662C115.663,164.541 115.689,164.421 115.719,164.302C115.745,164.181 115.707,164.059 115.711,163.94C115.697,163.819 115.727,163.7 115.689,163.576L115.578,163.207C115.551,162.958 115.357,162.711 115.241,162.459C115.137,162.191 114.915,161.992 114.753,161.758C113.892,160.723 112.84,159.837 111.624,159.099C109.213,157.583 106.343,156.547 103.417,155.748C100.492,154.917 97.474,154.317 94.477,153.846C91.477,153.391 88.502,152.999 85.607,152.729C82.712,152.465 79.906,152.22 77.237,152.059C74.568,151.908 72.04,151.77 69.703,151.669C65.03,151.489 61.124,151.388 58.387,151.335C55.646,151.289 54.082,151.263 54.082,151.263" style="fill:black;fill-rule:nonzero;"/>
    </g>
    <g transform="matrix(1,0,0,1,-48.34,-42.349)">
        <g>
            <path d="M69.019,148.213C69.851,149.237 70.779,150.253 71.803,151.261C72.827,152.269 73.851,153.237 74.875,154.165C75.899,155.093 76.891,155.941 77.851,156.709C78.811,157.477 79.659,158.117 80.395,158.629C81.515,159.301 82.499,159.677 83.347,159.757C84.195,159.837 84.971,159.781 85.675,159.589C86.251,159.493 86.739,159.405 87.139,159.325C87.539,159.245 88.027,158.981 88.603,158.533C89.083,158.181 89.355,157.845 89.419,157.525C89.483,157.205 89.195,156.773 88.555,156.229C87.755,155.589 86.899,154.837 85.987,153.973C85.075,153.109 84.155,152.213 83.227,151.285C82.299,150.357 81.395,149.429 80.515,148.501C79.635,147.573 78.827,146.693 78.091,145.861C81.675,144.261 84.755,142.533 87.331,140.677C89.907,138.821 91.755,136.789 92.875,134.581C93.611,133.205 93.771,131.445 93.355,129.301C92.843,127.285 92.131,125.581 91.219,124.189C90.307,122.797 89.291,121.493 88.171,120.277C86.763,118.901 85.123,118.061 83.251,117.757C81.379,117.453 79.395,117.485 77.299,117.853C75.203,118.221 73.075,118.837 70.915,119.701C68.755,120.565 66.683,121.445 64.699,122.341C64.283,122.565 63.883,123.133 63.499,124.045C63.115,124.957 62.763,126.109 62.443,127.501C62.123,128.893 61.819,130.461 61.531,132.205C61.243,133.949 60.979,135.749 60.739,137.605C60.499,139.461 60.275,141.317 60.067,143.173C59.859,145.029 59.675,146.765 59.515,148.381C59.355,149.997 59.219,151.445 59.107,152.725C58.995,154.005 58.907,154.981 58.843,155.653C58.779,156.485 58.859,157.149 59.083,157.645C59.307,158.141 59.723,158.565 60.331,158.917C60.939,159.237 61.579,159.461 62.251,159.589C62.923,159.717 63.691,159.893 64.555,160.117C65.291,160.277 65.795,160.277 66.067,160.117C66.339,159.957 66.555,159.621 66.715,159.109C67.067,157.381 67.427,155.621 67.795,153.829C68.163,152.037 68.571,150.165 69.019,148.213ZM74.155,128.725C75.403,128.117 76.587,127.701 77.707,127.477C78.827,127.253 79.851,127.141 80.779,127.141C82.667,127.141 83.803,127.589 84.187,128.485C84.379,129.029 84.219,129.797 83.707,130.789C83.195,131.781 82.363,132.829 81.211,133.933C80.059,135.037 78.627,136.125 76.915,137.197C75.203,138.269 73.243,139.173 71.035,139.909C71.643,137.797 72.187,135.813 72.667,133.957C73.147,132.101 73.643,130.357 74.155,128.725Z" style="fill:rgb(252,238,33);fill-rule:nonzero;stroke-width:3.5px;stroke:black;"/>
            <path d="M94.987,149.549C95.499,150.445 96.107,151.197 96.811,151.805C97.515,152.413 98.267,152.941 99.067,153.389C100.923,154.413 103.291,155.021 106.171,155.213C107.611,155.309 108.891,155.253 110.011,155.045C111.131,154.837 112.251,154.461 113.371,153.917C114.939,153.021 116.363,151.581 117.643,149.597C118.923,147.613 120.107,145.149 121.195,142.205C122.283,139.261 123.315,135.877 124.291,132.053C125.267,128.229 126.235,124.029 127.195,119.453C127.291,119.037 127.355,118.677 127.387,118.373C127.419,118.069 127.387,117.789 127.291,117.533C127.195,117.277 127.027,117.029 126.787,116.789C126.547,116.549 126.203,116.285 125.755,115.997C124.891,115.485 123.939,114.965 122.899,114.437C121.859,113.909 120.883,113.525 119.971,113.285C119.059,113.045 118.283,113.021 117.643,113.213C117.003,113.405 116.651,113.981 116.587,114.941C116.203,116.925 115.771,119.181 115.291,121.709C114.811,124.237 114.275,126.805 113.683,129.413C113.091,132.021 112.451,134.557 111.763,137.021C111.075,139.485 110.355,141.653 109.603,143.525C108.851,145.397 108.059,146.861 107.227,147.917C106.395,148.973 105.547,149.389 104.683,149.165C103.979,148.973 103.507,148.381 103.267,147.389C103.027,146.397 102.947,145.149 103.027,143.645C103.107,142.141 103.315,140.445 103.651,138.557C103.987,136.669 104.395,134.733 104.875,132.749C105.355,130.765 105.875,128.805 106.435,126.869C106.995,124.933 107.531,123.133 108.043,121.469C108.587,119.517 107.995,117.917 106.267,116.669C105.435,116.061 104.579,115.533 103.699,115.085C102.819,114.637 101.899,114.269 100.939,113.981C99.915,113.629 99.155,113.549 98.659,113.741C98.163,113.933 97.787,114.493 97.531,115.421C96.955,117.469 96.403,119.573 95.875,121.733C95.347,123.893 94.875,126.045 94.459,128.189C94.043,130.333 93.707,132.445 93.451,134.525C93.195,136.605 93.067,138.573 93.067,140.429C93.067,142.285 93.219,143.989 93.523,145.541C93.827,147.093 94.315,148.429 94.987,149.549Z" style="fill:rgb(252,238,33);fill-rule:nonzero;stroke-width:3.5px;stroke:black;"/>
            <path d="M150.715,141.061C151.803,140.517 152.747,139.949 153.547,139.357C154.347,138.765 155.131,138.181 155.899,137.605C156.603,136.997 157.259,136.349 157.867,135.661C158.475,134.973 158.987,134.229 159.403,133.429C159.819,132.629 160.115,131.797 160.291,130.933C160.467,130.069 160.475,129.173 160.315,128.245C159.963,126.549 159.411,125.061 158.659,123.781C157.907,122.501 156.971,121.301 155.851,120.181C154.987,119.349 153.883,118.717 152.539,118.285C151.195,117.853 149.715,117.589 148.099,117.493C146.483,117.397 144.779,117.445 142.987,117.637C141.195,117.829 139.427,118.133 137.683,118.549C135.939,118.965 134.267,119.461 132.667,120.037C131.067,120.613 129.659,121.237 128.443,121.909C128.379,124.373 128.227,126.973 127.987,129.709C127.747,132.445 127.475,135.165 127.171,137.869C126.867,140.573 126.587,143.181 126.331,145.693C126.075,148.205 125.899,150.453 125.803,152.437C125.739,153.045 125.739,153.541 125.803,153.925C125.867,154.309 125.979,154.653 126.139,154.957C126.299,155.261 126.515,155.549 126.787,155.821C127.059,156.093 127.371,156.421 127.723,156.805C128.683,157.541 129.523,158.141 130.243,158.605C130.963,159.069 131.803,159.509 132.763,159.925C133.275,160.213 133.723,160.421 134.107,160.549C134.491,160.677 134.883,160.757 135.283,160.789C135.683,160.821 136.099,160.805 136.531,160.741C136.963,160.677 137.483,160.565 138.091,160.405C139.243,160.117 140.459,159.757 141.739,159.325C143.019,158.893 144.291,158.405 145.555,157.861C146.819,157.317 148.019,156.709 149.155,156.037C150.291,155.365 151.275,154.661 152.107,153.925C153.323,152.965 154.203,151.981 154.747,150.973C155.291,149.965 155.483,148.741 155.323,147.301C155.067,146.085 154.547,144.901 153.763,143.749C152.979,142.597 151.963,141.701 150.715,141.061ZM138.043,137.653C138.491,135.957 138.875,134.357 139.195,132.853C139.515,131.349 139.899,129.909 140.347,128.533C141.723,127.893 143.003,127.413 144.187,127.093C145.371,126.773 146.419,126.589 147.331,126.541C148.243,126.493 148.987,126.573 149.563,126.781C150.139,126.989 150.491,127.301 150.619,127.717C150.747,128.229 150.555,128.909 150.043,129.757C149.531,130.605 148.723,131.501 147.619,132.445C146.515,133.389 145.155,134.325 143.539,135.253C141.923,136.181 140.091,136.981 138.043,137.653ZM136.219,145.621C137.499,145.205 138.667,144.925 139.723,144.781C140.779,144.637 141.707,144.613 142.507,144.709C143.307,144.805 143.947,144.981 144.427,145.237C144.907,145.493 145.227,145.781 145.387,146.101C145.515,146.645 145.347,147.245 144.883,147.901C144.419,148.557 143.707,149.213 142.747,149.869C141.787,150.525 140.619,151.149 139.243,151.741C137.867,152.333 136.347,152.837 134.683,153.253C134.907,151.973 135.155,150.717 135.427,149.485C135.699,148.253 135.963,146.965 136.219,145.621Z" style="fill:rgb(252,238,33);fill-rule:nonzero;stroke-width:3.5px;stroke:black;"/>
            <path d="M191.899,120.173C192.123,119.661 192.299,119.221 192.427,118.853C192.555,118.485 192.611,118.141 192.595,117.821C192.579,117.501 192.491,117.189 192.331,116.885C192.171,116.581 191.947,116.253 191.659,115.901C191.147,115.421 190.531,114.877 189.811,114.269C189.091,113.661 188.363,113.173 187.627,112.805C186.891,112.437 186.203,112.277 185.563,112.325C184.923,112.373 184.459,112.797 184.171,113.597C182.507,116.573 180.843,119.501 179.179,122.381C177.515,125.261 175.819,128.077 174.091,130.829C173.227,128.077 172.395,125.469 171.595,123.005C170.795,120.541 170.027,118.349 169.291,116.429C168.779,115.405 168.307,114.645 167.875,114.149C167.443,113.653 166.747,113.293 165.787,113.069C164.827,112.845 163.891,112.757 162.979,112.805C162.067,112.853 161.115,112.909 160.123,112.973C159.291,113.133 158.787,113.365 158.611,113.669C158.435,113.973 158.523,114.557 158.875,115.421C159.451,117.213 160.099,119.141 160.819,121.205C161.539,123.269 162.283,125.381 163.051,127.541C163.819,129.701 164.587,131.853 165.355,133.997C166.123,136.141 166.843,138.173 167.515,140.093C167.131,142.301 166.843,144.309 166.651,146.117C166.459,147.925 166.251,149.517 166.027,150.893C165.963,151.725 166.043,152.357 166.267,152.789C166.491,153.221 166.955,153.661 167.659,154.109C168.363,154.397 169.131,154.677 169.963,154.949C170.795,155.221 171.595,155.453 172.363,155.645C173.195,155.837 173.755,155.869 174.043,155.741C174.331,155.613 174.555,155.229 174.715,154.589C175.067,152.861 175.435,151.077 175.819,149.237C176.203,147.397 176.667,145.405 177.211,143.261C178.619,141.245 180.075,139.133 181.579,136.925C183.083,134.717 184.507,132.573 185.851,130.493C187.195,128.413 188.403,126.477 189.475,124.685C190.547,122.893 191.355,121.389 191.899,120.173Z" style="fill:rgb(252,238,33);fill-rule:nonzero;stroke-width:3.5px;stroke:black;"/>
            <path d="M187.195,134.005C185.627,134.293 185.419,135.301 186.571,137.029C187.019,137.765 187.491,138.477 187.987,139.165C188.483,139.853 189.083,140.565 189.787,141.301C190.459,142.037 191.083,142.517 191.659,142.741C192.235,142.965 192.859,142.981 193.531,142.789C195.963,142.149 198.611,141.677 201.475,141.373C204.339,141.069 207.163,140.821 209.947,140.629C210.747,140.597 211.259,140.453 211.483,140.197C211.707,139.941 211.659,139.413 211.339,138.613C211.019,137.973 210.707,137.301 210.403,136.597C210.099,135.893 209.707,135.125 209.227,134.293C208.715,133.589 208.179,133.061 207.619,132.709C207.059,132.357 206.411,132.181 205.675,132.181C204.075,132.181 202.419,132.237 200.707,132.349C198.995,132.461 197.307,132.597 195.643,132.757C193.979,132.917 192.419,133.109 190.963,133.333C189.507,133.557 188.251,133.781 187.195,134.005Z" style="fill:rgb(252,238,33);fill-rule:nonzero;stroke-width:3.5px;stroke:black;"/>
            <path d="M255.275,113.885C253.824,112.733 252,111.752 249.803,110.941C247.606,110.13 245.291,109.533 242.859,109.149C240.982,108.85 239.008,109 236.939,109.597C234.87,110.194 233.088,111.069 231.595,112.221C229.376,114.141 227.424,116.306 225.739,118.717C224.054,121.128 222.635,123.677 221.483,126.365C220.331,129.053 219.456,131.816 218.859,134.653C218.262,137.49 217.942,140.274 217.899,143.005C217.856,145.736 218.091,148.338 218.603,150.813C219.115,153.288 219.883,155.506 220.907,157.469C221.547,158.664 222.422,159.73 223.531,160.669C224.64,161.608 225.771,162.376 226.923,162.973C228.331,163.698 229.888,164.242 231.595,164.605C233.302,164.968 234.966,165.234 236.587,165.405C239.019,165.661 241.174,165.565 243.051,165.117C244.928,164.669 246.72,163.784 248.427,162.461C250.944,160.242 253.067,157.533 254.795,154.333C256.523,151.133 257.888,147.73 258.891,144.125C259.894,140.52 260.523,136.893 260.779,133.245C261.035,129.597 260.928,126.216 260.459,123.101C260.118,121.224 259.574,119.549 258.827,118.077C258.08,116.605 256.896,115.208 255.275,113.885ZM244.971,120.285C245.824,120.541 246.454,121.426 246.859,122.941C247.264,124.456 247.467,126.28 247.467,128.413C247.467,130.504 247.296,132.754 246.955,135.165C246.614,137.576 246.166,139.784 245.611,141.789C244.971,144.221 244.214,146.472 243.339,148.541C242.464,150.61 241.536,152.349 240.555,153.757C239.574,155.165 238.592,156.21 237.611,156.893C236.63,157.576 235.691,157.768 234.795,157.469C233.814,157.17 233.067,156.36 232.555,155.037C232.043,153.714 231.744,152.125 231.659,150.269C231.574,148.413 231.659,146.408 231.915,144.253C232.171,142.098 232.598,140.018 233.195,138.013C233.792,135.965 234.571,133.842 235.531,131.645C236.491,129.448 237.526,127.453 238.635,125.661C239.744,123.869 240.854,122.45 241.963,121.405C243.072,120.36 244.075,119.986 244.971,120.285Z" style="fill:rgb(252,238,33);fill-rule:nonzero;stroke-width:3.5px;stroke:black;"/>
            <path d="M290.155,138.517C289.686,136.341 289.216,134.069 288.747,131.701C288.278,129.333 287.83,127.029 287.403,124.789C286.976,122.549 286.592,120.469 286.251,118.549C285.91,116.629 285.632,115.05 285.419,113.813C285.163,112.192 284.758,110.965 284.203,110.133C283.648,109.301 282.71,108.608 281.387,108.053C279.766,107.285 278.208,106.666 276.715,106.197C275.222,105.728 273.686,105.258 272.107,104.789C270.784,104.448 269.739,104.437 268.971,104.757C268.203,105.077 267.67,105.877 267.371,107.157C266.902,109.376 266.422,111.914 265.931,114.773C265.44,117.632 264.96,120.597 264.491,123.669C264.022,126.741 263.584,129.824 263.179,132.917C262.774,136.01 262.411,138.912 262.091,141.621C261.771,144.33 261.515,146.752 261.323,148.885C261.131,151.018 260.992,152.661 260.907,153.813C260.822,154.922 260.939,155.786 261.259,156.405C261.579,157.024 262.208,157.568 263.147,158.037C264.128,158.634 265.142,159.072 266.187,159.349C267.232,159.626 268.267,159.893 269.291,160.149C270.4,160.448 271.147,160.501 271.531,160.309C271.915,160.117 272.192,159.658 272.363,158.933C272.576,157.397 272.864,155.594 273.227,153.525C273.59,151.456 273.995,149.216 274.443,146.805C274.891,144.394 275.36,141.866 275.851,139.221C276.342,136.576 276.822,133.93 277.291,131.285C277.846,133.504 278.443,135.712 279.083,137.909C279.723,140.106 280.363,142.218 281.003,144.245C281.643,146.272 282.272,148.16 282.891,149.909C283.51,151.658 284.118,153.194 284.715,154.517C285.483,156.352 286.806,157.632 288.683,158.357C290.731,159.082 292.736,159.637 294.699,160.021C297.003,160.533 298.283,159.978 298.539,158.357C299.222,155.37 300.043,151.904 301.003,147.957C301.963,144.01 302.966,139.968 304.011,135.829C305.056,131.69 306.112,127.616 307.179,123.605C308.246,119.594 309.27,116.01 310.251,112.853C310.592,111.744 310.688,110.794 310.539,110.005C310.39,109.216 309.696,108.437 308.459,107.669C307.734,107.2 307.094,106.816 306.539,106.517C305.984,106.218 305.462,105.962 304.971,105.749C304.48,105.536 303.979,105.365 303.467,105.237C302.955,105.109 302.379,104.96 301.739,104.789C300.374,104.448 299.339,104.426 298.635,104.725C297.931,105.024 297.408,105.792 297.067,107.029C295.83,111.594 294.582,116.586 293.323,122.005C292.064,127.424 291.008,132.928 290.155,138.517Z" style="fill:rgb(252,238,33);fill-rule:nonzero;stroke-width:3.5px;stroke:black;"/>
            <path d="M304.955,134.005C303.387,134.293 303.179,135.301 304.331,137.029C304.779,137.765 305.251,138.477 305.747,139.165C306.243,139.853 306.843,140.565 307.547,141.301C308.219,142.037 308.843,142.517 309.419,142.741C309.995,142.965 310.619,142.981 311.291,142.789C313.723,142.149 316.371,141.677 319.235,141.373C322.099,141.069 324.923,140.821 327.707,140.629C328.507,140.597 329.019,140.453 329.243,140.197C329.467,139.941 329.419,139.413 329.099,138.613C328.779,137.973 328.467,137.301 328.163,136.597C327.859,135.893 327.467,135.125 326.987,134.293C326.475,133.589 325.939,133.061 325.379,132.709C324.819,132.357 324.171,132.181 323.435,132.181C321.835,132.181 320.179,132.237 318.467,132.349C316.755,132.461 315.067,132.597 313.403,132.757C311.739,132.917 310.179,133.109 308.723,133.333C307.267,133.557 306.011,133.781 304.955,134.005Z" style="fill:rgb(252,238,33);fill-rule:nonzero;stroke-width:3.5px;stroke:black;"/>
            <path d="M347.099,143.213C347.931,144.237 348.859,145.253 349.883,146.261C350.907,147.269 351.931,148.237 352.955,149.165C353.979,150.093 354.971,150.941 355.931,151.709C356.891,152.477 357.739,153.117 358.475,153.629C359.595,154.301 360.579,154.677 361.427,154.757C362.275,154.837 363.051,154.781 363.755,154.589C364.331,154.493 364.819,154.405 365.219,154.325C365.619,154.245 366.107,153.981 366.683,153.533C367.163,153.181 367.435,152.845 367.499,152.525C367.563,152.205 367.275,151.773 366.635,151.229C365.835,150.589 364.979,149.837 364.067,148.973C363.155,148.109 362.235,147.213 361.307,146.285C360.379,145.357 359.475,144.429 358.595,143.501C357.715,142.573 356.907,141.693 356.171,140.861C359.755,139.261 362.835,137.533 365.411,135.677C367.987,133.821 369.835,131.789 370.955,129.581C371.691,128.205 371.851,126.445 371.435,124.301C370.923,122.285 370.211,120.581 369.299,119.189C368.387,117.797 367.371,116.493 366.251,115.277C364.843,113.901 363.203,113.061 361.331,112.757C359.459,112.453 357.475,112.485 355.379,112.853C353.283,113.221 351.155,113.837 348.995,114.701C346.835,115.565 344.763,116.445 342.779,117.341C342.363,117.565 341.963,118.133 341.579,119.045C341.195,119.957 340.843,121.109 340.523,122.501C340.203,123.893 339.899,125.461 339.611,127.205C339.323,128.949 339.059,130.749 338.819,132.605C338.579,134.461 338.355,136.317 338.147,138.173C337.939,140.029 337.755,141.765 337.595,143.381C337.435,144.997 337.299,146.445 337.187,147.725C337.075,149.005 336.987,149.981 336.923,150.653C336.859,151.485 336.939,152.149 337.163,152.645C337.387,153.141 337.803,153.565 338.411,153.917C339.019,154.237 339.659,154.461 340.331,154.589C341.003,154.717 341.771,154.893 342.635,155.117C343.371,155.277 343.875,155.277 344.147,155.117C344.419,154.957 344.635,154.621 344.795,154.109C345.147,152.381 345.507,150.621 345.875,148.829C346.243,147.037 346.651,145.165 347.099,143.213ZM352.235,123.725C353.483,123.117 354.667,122.701 355.787,122.477C356.907,122.253 357.931,122.141 358.859,122.141C360.747,122.141 361.883,122.589 362.267,123.485C362.459,124.029 362.299,124.797 361.787,125.789C361.275,126.781 360.443,127.829 359.291,128.933C358.139,130.037 356.707,131.125 354.995,132.197C353.283,133.269 351.323,134.173 349.115,134.909C349.723,132.797 350.267,130.813 350.747,128.957C351.227,127.101 351.723,125.357 352.235,123.725Z" style="fill:rgb(252,238,33);fill-rule:nonzero;stroke-width:3.5px;stroke:black;"/>
            <path d="M393.323,150.373C393.419,151.685 393.515,152.893 393.611,153.997C393.707,155.101 393.819,156.117 393.947,157.045C394.075,157.941 394.291,158.565 394.595,158.917C394.899,159.269 395.435,159.557 396.203,159.781C396.939,160.037 397.659,160.189 398.363,160.237C399.067,160.285 399.835,160.309 400.667,160.309C401.499,160.309 402.035,160.197 402.275,159.973C402.515,159.749 402.635,159.349 402.635,158.773C402.603,156.021 402.595,153.037 402.611,149.821C402.627,146.605 402.667,143.397 402.731,140.197C402.795,136.997 402.891,133.925 403.019,130.981C403.147,128.037 403.307,125.429 403.499,123.157C403.595,122.229 403.507,121.477 403.235,120.901C402.963,120.325 402.331,119.861 401.339,119.509C400.603,119.317 399.875,119.109 399.155,118.885C398.435,118.661 397.651,118.453 396.803,118.261C395.955,118.069 395.019,117.901 393.995,117.757C392.971,117.613 391.803,117.509 390.491,117.445C388.987,117.317 387.851,117.525 387.083,118.069C386.315,118.613 385.691,119.317 385.211,120.181C383.867,122.581 382.451,125.325 380.963,128.413C379.475,131.501 378.019,134.629 376.595,137.797C375.171,140.965 373.843,144.037 372.611,147.013C371.379,149.989 370.379,152.581 369.611,154.789C369.419,155.461 369.331,155.997 369.347,156.397C369.363,156.797 369.451,157.125 369.611,157.381C369.771,157.637 369.995,157.853 370.283,158.029C370.571,158.205 370.907,158.421 371.291,158.677C371.803,158.933 372.307,159.165 372.803,159.373C373.299,159.581 373.755,159.765 374.171,159.925C374.907,160.181 375.459,160.261 375.827,160.165C376.195,160.069 376.507,159.749 376.763,159.205C377.211,158.181 377.675,157.133 378.155,156.061C378.635,154.989 379.195,153.829 379.835,152.581C381.659,152.101 383.763,151.693 386.147,151.357C388.531,151.021 390.923,150.693 393.323,150.373ZM384.155,143.653C385.659,140.613 387.155,137.677 388.643,134.845C390.131,132.013 391.515,129.429 392.795,127.093C392.731,129.653 392.715,132.237 392.747,134.845C392.779,137.453 392.827,140.069 392.891,142.693C391.419,142.789 389.955,142.917 388.499,143.077C387.043,143.237 385.595,143.429 384.155,143.653Z" style="fill:rgb(252,238,33);fill-rule:nonzero;stroke-width:3.5px;stroke:black;"/>
            <path d="M420.203,116.333C419.339,115.757 418.331,115.213 417.179,114.701C416.027,114.189 414.955,113.805 413.963,113.549C412.971,113.261 412.227,113.221 411.731,113.429C411.235,113.637 410.843,114.205 410.555,115.133C410.203,116.637 409.819,118.389 409.403,120.389C408.987,122.389 408.579,124.509 408.179,126.749C407.779,128.989 407.387,131.277 407.003,133.613C406.619,135.949 406.275,138.173 405.971,140.285C405.667,142.397 405.411,144.341 405.203,146.117C404.995,147.893 404.859,149.341 404.795,150.461C404.699,151.293 404.771,151.941 405.011,152.405C405.251,152.869 405.739,153.277 406.475,153.629C407.147,153.981 407.859,154.269 408.611,154.493C409.363,154.717 410.155,154.941 410.987,155.165C411.819,155.357 412.371,155.373 412.643,155.213C412.915,155.053 413.131,154.701 413.291,154.157C413.579,152.717 413.923,151.077 414.323,149.237C414.723,147.397 415.163,145.445 415.643,143.381C416.123,141.317 416.619,139.205 417.131,137.045C417.643,134.885 418.163,132.773 418.691,130.709C419.219,128.645 419.747,126.685 420.275,124.829C420.803,122.973 421.291,121.325 421.739,119.885C421.963,119.021 421.987,118.365 421.811,117.917C421.635,117.469 421.099,116.941 420.203,116.333Z" style="fill:rgb(252,238,33);fill-rule:nonzero;stroke-width:3.5px;stroke:black;"/>
            <path d="M441.131,157.477C442.123,157.285 442.675,157.077 442.787,156.853C442.899,156.629 442.843,156.181 442.619,155.509C442.491,154.965 442.307,154.397 442.067,153.805C441.827,153.213 441.515,152.629 441.131,152.053C440.747,151.445 440.323,151.053 439.859,150.877C439.395,150.701 438.715,150.645 437.819,150.709C436.315,150.805 434.923,150.917 433.643,151.045C432.363,151.173 430.987,151.365 429.515,151.621C430.027,149.413 430.579,147.101 431.171,144.685C431.763,142.269 432.387,139.845 433.043,137.413C433.699,134.981 434.355,132.613 435.011,130.309C435.667,128.005 436.315,125.893 436.955,123.973C437.243,123.141 437.283,122.501 437.075,122.053C436.867,121.605 436.347,121.077 435.515,120.469C434.651,119.893 433.643,119.373 432.491,118.909C431.339,118.445 430.267,118.085 429.275,117.829C428.283,117.541 427.539,117.485 427.043,117.661C426.547,117.837 426.139,118.389 425.819,119.317C425.371,120.949 424.915,122.741 424.451,124.693C423.987,126.645 423.531,128.677 423.083,130.789C422.635,132.901 422.219,135.021 421.835,137.149C421.451,139.277 421.099,141.333 420.779,143.317C420.459,145.301 420.187,147.149 419.963,148.861C419.739,150.573 419.579,152.053 419.483,153.301C419.355,154.101 419.435,154.781 419.723,155.341C420.011,155.901 420.427,156.405 420.971,156.853C421.707,157.429 422.299,157.901 422.747,158.269C423.195,158.637 423.691,158.997 424.235,159.349C424.459,159.509 424.691,159.653 424.931,159.781C425.171,159.909 425.467,160.013 425.819,160.093C426.171,160.173 426.587,160.197 427.067,160.165C427.547,160.133 428.139,160.021 428.843,159.829C430.763,159.445 432.787,159.053 434.915,158.653C437.043,158.253 439.115,157.861 441.131,157.477Z" style="fill:rgb(252,238,33);fill-rule:nonzero;stroke-width:3.5px;stroke:black;"/>
            <path d="M444.299,144.749C443.627,145.069 443.323,145.533 443.387,146.141C443.451,146.781 444.187,147.693 445.595,148.877C448.187,151.309 450.707,153.021 453.155,154.013C455.603,155.005 458.123,155.469 460.715,155.405C462.635,155.373 464.283,155.133 465.659,154.685C467.035,154.237 468.203,153.677 469.163,153.005C470.123,152.333 470.891,151.605 471.467,150.821C472.043,150.037 472.491,149.309 472.811,148.637C473.323,147.677 473.491,146.781 473.315,145.949C473.139,145.117 472.723,144.325 472.067,143.573C471.411,142.821 470.579,142.085 469.571,141.365C468.563,140.645 467.491,139.917 466.355,139.181C465.219,138.445 464.075,137.685 462.923,136.901C461.771,136.117 460.731,135.277 459.803,134.381C459.067,133.709 458.603,132.949 458.411,132.101C458.219,131.253 458.203,130.389 458.363,129.509C458.523,128.629 458.827,127.757 459.275,126.893C459.723,126.029 460.243,125.221 460.835,124.469C461.427,123.717 462.051,123.045 462.707,122.453C463.363,121.861 463.963,121.421 464.507,121.133C465.115,120.685 465.555,120.501 465.827,120.581C466.099,120.661 466.259,120.901 466.307,121.301C466.355,121.701 466.315,122.237 466.187,122.909C466.059,123.581 465.907,124.293 465.731,125.045C465.555,125.797 465.379,126.541 465.203,127.277C465.027,128.013 464.907,128.669 464.843,129.245C464.491,131.997 466.507,134.109 470.891,135.581C471.691,135.933 472.291,136.021 472.691,135.845C473.091,135.669 473.483,135.261 473.867,134.621C474.219,133.949 474.563,133.117 474.899,132.125C475.235,131.133 475.555,130.093 475.859,129.005C476.163,127.917 476.427,126.845 476.651,125.789C476.875,124.733 477.051,123.789 477.179,122.957C477.179,122.477 477.171,121.957 477.155,121.397C477.139,120.837 477.059,120.269 476.915,119.693C476.771,119.117 476.523,118.525 476.171,117.917C475.819,117.309 475.323,116.701 474.683,116.093C473.691,115.197 472.467,114.365 471.011,113.597C469.555,112.829 468.107,112.189 466.667,111.677C465.707,111.389 464.779,111.221 463.883,111.173C462.987,111.125 462.155,111.165 461.387,111.293C460.619,111.421 459.931,111.621 459.323,111.893C458.715,112.165 458.219,112.445 457.835,112.733C456.651,113.469 455.491,114.357 454.355,115.397C453.219,116.437 452.179,117.557 451.235,118.757C450.291,119.957 449.475,121.197 448.787,122.477C448.099,123.757 447.611,124.973 447.323,126.125C446.907,127.437 446.715,128.685 446.747,129.869C446.779,131.053 446.987,132.173 447.371,133.229C447.755,134.285 448.291,135.269 448.979,136.181C449.667,137.093 450.459,137.901 451.355,138.605C452.155,139.277 453.051,139.941 454.043,140.597C455.035,141.253 456.027,141.885 457.019,142.493C458.011,143.101 458.947,143.693 459.827,144.269C460.707,144.845 461.443,145.373 462.035,145.853C462.627,146.333 463.027,146.757 463.235,147.125C463.443,147.493 463.355,147.805 462.971,148.061C462.075,148.797 460.619,148.925 458.603,148.445C456.587,147.965 454.219,146.877 451.499,145.181C451.019,144.861 450.483,144.613 449.891,144.437C449.299,144.261 448.683,144.157 448.043,144.125C447.403,144.093 446.763,144.125 446.123,144.221C445.483,144.317 444.875,144.493 444.299,144.749Z" style="fill:rgb(252,238,33);fill-rule:nonzero;stroke-width:3.5px;stroke:black;"/>
        </g>
    </g>
</svg>
