<svg viewBox="0 0 452 276" xmlns="http://www.w3.org/2000/svg" fill-rule="evenodd" clip-rule="evenodd" stroke-linejoin="round" stroke-miterlimit="1.414"><path d="M31.855 109.293s.61.294 1.777.796c1.156.522 2.887 1.21 5.08 2.105 2.22.83 4.89 1.897 8.018 2.948 3.102 1.125 6.66 2.22 10.53 3.446 1.934.61 3.98 1.146 6.08 1.757 2.106.596 4.273 1.238 6.537 1.773 2.255.567 4.57 1.147 6.937 1.74 2.37.582 4.82 1.06 7.294 1.61 4.94 1.144 10.11 2.01 15.343 2.96 2.614.51 5.274.86 7.938 1.246l8.012 1.15c5.366.636 10.746 1.16 16.03 1.73l15.577 1.042 14.587.406c1.16.02 2.302.08 3.43.07 1.125-.015 2.235-.032 3.326-.05l6.313-.093c4.046-.087 7.756-.033 11.038-.296l8.5-.493 7.403-.43.272 3.99-7.48.264c-2.378.083-5.265.183-8.58.3-3.31.186-7.053.048-11.13.043l-6.363-.052c-1.097-.01-2.215-.02-3.35-.027-1.134-.017-2.285-.103-3.452-.152l-14.675-.748-15.646-1.41c-5.304-.693-10.7-1.347-16.074-2.108-2.678-.45-5.356-.898-8.024-1.344-2.667-.448-5.33-.86-7.94-1.436-5.235-1.076-10.4-2.063-15.333-3.326-2.47-.61-4.915-1.144-7.276-1.784l-6.918-1.903c-2.255-.59-4.416-1.284-6.512-1.93-2.09-.66-4.127-1.243-6.052-1.9-3.85-1.318-7.385-2.498-10.465-3.696-3.107-1.122-5.757-2.254-7.958-3.133-2.175-.948-3.89-1.675-5.035-2.226-1.154-.53-1.758-.836-1.758-.836m80.32 38.534l-1.36-.294c-.9-.195-2.204-.493-3.85-.89-1.65-.378-3.636-.907-5.922-1.48-2.273-.618-4.846-1.28-7.628-2.09-2.784-.804-5.8-1.67-8.96-2.683-3.175-.957-6.488-2.084-9.916-3.243-3.43-1.137-6.92-2.49-10.495-3.768-3.53-1.405-7.137-2.773-10.69-4.277-1.77-.765-3.54-1.53-5.302-2.294-.882-.38-1.76-.76-2.638-1.14l-2.582-1.228c-3.42-1.645-6.83-3.17-10-4.91-3.194-1.695-6.322-3.247-9.148-4.982-1.428-.837-2.818-1.65-4.16-2.438-.673-.393-1.333-.78-1.98-1.16-.638-.396-1.247-.814-1.853-1.208l-6.578-4.337c-1.93-1.332-3.526-2.615-4.884-3.61L0 98.623l4.33 3.035c1.388.948 3.02 2.176 4.988 3.442 1.995 1.222 4.245 2.603 6.7 4.11.616.37 1.234.767 1.882 1.142.658.358 1.33.72 2.01 1.092l4.224 2.292c2.863 1.634 6.032 3.078 9.26 4.66 3.205 1.628 6.65 3.035 10.1 4.56l2.604 1.134 2.66 1.05 5.34 2.106c3.576 1.378 7.204 2.62 10.75 3.9 3.593 1.153 7.094 2.382 10.54 3.4 3.437 1.038 6.757 2.05 9.937 2.898 3.165.903 6.18 1.663 8.963 2.37 2.78.713 5.35 1.285 7.616 1.824 2.276.49 4.255.95 5.894 1.268 1.64.34 2.918.588 3.787.747l1.35.247-.757 3.928z" fill-rule="nonzero"/><path d="M283.534 221.785c-7.29-31.09-21.003-28.432-25.51-27.558-14.115 2.738-28.386 18.363-28.53 18.52l-16.73 18.5 7.39-23.818c3.516-11.31 2.813-20.197-2.085-26.415-11.088-14.072-39.956-12.367-40.246-12.35l-34.172 2.218 31.746-12.81c12.73-5.135 20.392-11.76 22.778-19.688 2.98-9.9-3.29-19.174-3.353-19.27l-7.965-11.575 13.68 3.295c4.305.97 8.29 1.676 11.71.676h.005c19.11-5 21.75-32.9 21.775-33.194l.916-11.23 8.27 7.422c5.793 5.25 12.127 7.088 19.36 5.685 18.972-3.68 36.75-27.89 36.924-28.135l6.052-8.334 3.567 9.65c4.87 13.203 14.81 21.36 29.537 24.24 11.604 2.273 21.953.332 22.055.313l8.45-1.628-2.06 8.352c-4.453 17.95-.653 32.63 11.294 43.63 9.137 8.41 19.582 11.468 19.69 11.5l17.227 4.932-17.026 5.586c-45.454 14.912-39.234 42.44-39.166 42.715l2.507 10.172-9.798-3.706c-7.576-2.87-15.15-3.6-22.507-2.17-21.756 4.22-35.63 25.92-35.768 26.14l-7.012 11.143-3.01-12.807z" fill="#fcee21" fill-rule="nonzero"/><path d="M307.14 32.114l-12.098 16.704c-4.608 6.314-19.58 23.244-33.512 25.946-5.566 1.08-10.077-.275-14.617-4.388L230.31 55.333l-1.758 22.335c-.018.21-2.56 25.118-17.324 27.98-2.728.53-5.91.395-9.466-.41l-28.77-6.488 17.31 23.508c.42.65 4.733 7.634 2.583 14.617-2.383 7.75-11.943 13.032-19.543 16.096l-63.956 25.807 68.81-4.618c6.78-.425 27.913.55 35.56 10.276 3.7 4.706 4.084 11.896 1.146 21.363l-14.862 47.853 33.547-37.223c3.623-3.993 15.3-14.828 25.486-16.804 4.754-.92 7.29.577 8.963 1.982 2.906 2.436 7.025 8.132 10.142 21.435l6.04 25.756 14.008-22.448c.105-.164 12.82-19.896 32.144-23.642 6.43-1.247 12.812-.62 19.51 1.916l20.6 7.796-5.99-20.63c-.148-.855-.875-6.122 2.247-12.627 4.74-9.88 16.243-18.056 33.266-23.64l34.7-11.386-35.076-9.644c-.574-.178-10.085-3.203-17.996-10.727-10.104-9.615-13.024-21.538-9.1-37.357l4.236-16.3-16.93 3.282c-.077.016-9.75 1.334-20.333-.803-12.727-2.573-20.993-9.562-25.18-20.91l-7.18-19.57zm-3.058 23.754c13.482 36.54 57.466 28.642 57.93 28.642h.004c-12.483 46 34.682 61.15 34.682 61.15-50.828 16.68-42.857 48.967-42.857 48.967-9.324-3.528-17.905-4.052-25.534-2.573C303.83 196.8 288.91 220.6 288.91 220.6c-6.627-28.26-19.5-34.147-31.923-31.737-16.156 3.133-31.57 20.215-31.57 20.215 15.573-50.15-47.953-45.894-47.953-45.894 42.9-17.308 21.878-47.208 21.878-47.208 5.335 1.204 9.96 1.257 13.986.477 23.574-4.57 26.2-37.926 26.2-37.926 7.8 7.072 16.186 8.883 24.165 7.336 21.39-4.148 40.392-29.998 40.392-29.998" fill-rule="nonzero"/><path d="M291.15 208.66l.105-.117.178-.2.18-.2.183-.2.184-.202.187-.2.19-.205.19-.205.193-.207.195-.207.198-.207.2-.21.2-.21.205-.21.206-.21.208-.213.21-.213.213-.213.214-.213.215-.214.218-.215.22-.216.224-.216.225-.216.227-.216.23-.217.23-.22.233-.216.236-.217.237-.218.24-.218.24-.22.245-.217.246-.22.248-.217.25-.22.252-.218.255-.218.256-.22.26-.217.26-.218.263-.218.264-.218.268-.22.27-.216.27-.217.273-.216.274-.215.278-.216.28-.216.28-.214.284-.214.286-.214.288-.212.29-.213.292-.21.294-.21.296-.21.298-.21.3-.21.303-.206.305-.205.307-.206.308-.205.31-.202.314-.202.314-.202.317-.2.32-.198.32-.198.323-.196.325-.195.327-.193.33-.192.33-.19.334-.19.336-.188.337-.186.34-.184.34-.183.344-.18.346-.18.347-.18.35-.174.352-.174.353-.172.355-.17.358-.17.36-.166.363-.165.364-.16.366-.163.368-.158.37-.157.373-.154.374-.15.376-.15.38-.148.38-.145.38-.142.385-.14.386-.136.387-.136.39-.132.393-.13.393-.125.396-.124.397-.12.4-.12.4-.114.4-.11.207-.06.203-.053.203-.053.205-.053.205-.05.205-.053.205-.05.206-.05.205-.05.207-.047.206-.046.208-.047.208-.046.21-.043.208-.044.21-.043.21-.044.21-.04.212-.042.21-.04.213-.04.212-.038.212-.037.214-.04.213-.035.214-.034.214-.033.215-.033.217-.033.216-.03.216-.03.216-.03.217-.03.218-.026.22-.027.218-.026.22-.024.22-.024.22-.023.22-.023.22-.02.222-.02.22-.02.222-.02.223-.016.222-.015.223-.016.225-.015.224-.013.223-.013.225-.01.225-.01.226-.01.226-.01.227-.007.226-.007.227-.005.227-.003.23-.003.227-.002.23-.002h.23l.23.002.23.003.23.003.23.004.23.005.23.007.234.007.233.01.232.01.232.01.234.013.234.013.234.014.235.014.233.016.236.018.235.02.236.018.237.02.236.023.237.02.237.026.237.025.24.028.238.026.238.03.24.03.238.03.24.033.24.033.24.035.24.036.24.038.24.04.242.04.242.04.242.042.242.044.243.044.242.046.243.047.244.05.243.05.244.05.244.052.246.054.14.03.005-.055.015-.205.015-.207.018-.21.018-.21.02-.214.023-.214.02-.216.025-.218.025-.22.027-.22.03-.224.03-.225.03-.227.034-.228.035-.23.037-.23.038-.233.04-.235.04-.236.045-.238.045-.24.047-.24.048-.24.05-.244.053-.243.055-.246.056-.248.057-.248.06-.25.063-.252.064-.252.065-.253.07-.255.07-.256.07-.257.076-.26.077-.26.078-.26.083-.264.083-.263.086-.264.088-.266.09-.266.094-.27.095-.267.097-.27.1-.27.104-.27.105-.27.108-.273.11-.274.114-.274.116-.276.118-.276.12-.278.126-.278.126-.278.13-.278.132-.28.135-.28.136-.28.14-.282.144-.282.146-.283.148-.283.152-.283.155-.284.158-.283.16-.285.164-.285.167-.286.17-.284.172-.286.176-.287.18-.287.18-.287.186-.29.19-.287.19-.288.195-.288.197-.287.2-.287.206-.29.21-.287.21-.288.215-.288.218-.29.22-.287.225-.288.23-.29.23-.287.236-.287.238-.286.243-.288.246-.288.248-.287.253-.286.256-.287.26-.286.262-.286.266-.286.27-.285.275-.286.278-.285.283-.283.285-.285.29-.284.292-.283.296-.283.3-.282.305-.28.31-.283.31-.28.316-.28.32-.28.323-.28.326-.278.33-.278.336-.277.34-.277.342-.275.347-.275.35-.274.356-.274.36-.273.363-.273.366-.27.37-.27.377-.27.38-.27.384-.267.388-.267.393-.265.396-.265.4-.264.406-.264.41-.263.412-.26.418-.26.423-.26.426-.258.43-.258.435-.256.44-.254.444-.254.45-.253.452-.253.458-.25.463-.25.467-.248.47-.248.478-.246.477-.243.245-.123.244-.12.244-.122.246-.12.246-.122.248-.12.25-.12.25-.12.25-.12.254-.118.254-.12.22-.1-.188-.108-.248-.145-.25-.146-.25-.15-.25-.15-.253-.154-.254-.155-.254-.156-.258-.158-.256-.162-.258-.164-.26-.165-.258-.167-.26-.17-.26-.173-.26-.175-.262-.177-.263-.18-.262-.18-.264-.184-.264-.187-.264-.188-.265-.19-.265-.194-.265-.194-.266-.196-.265-.2-.266-.203-.267-.203-.267-.207-.267-.21-.267-.212-.267-.214-.267-.216-.267-.22-.267-.22-.266-.225-.265-.227-.266-.23-.268-.23-.265-.235-.265-.236-.265-.24-.264-.24-.264-.245-.264-.248-.263-.25-.262-.253-.26-.255-.26-.257-.26-.26-.26-.263-.26-.265-.257-.268-.256-.27-.256-.275-.254-.276-.254-.28-.253-.28-.25-.286-.253-.287-.25-.29-.247-.293-.246-.295-.245-.3-.247-.3-.242-.304-.24-.307-.24-.31-.24-.313-.235-.314-.235-.318-.232-.32-.23-.325-.23-.326-.23-.33-.225-.332-.224-.335-.224-.34-.22-.34-.218-.344-.214-.342-.11-.18-.106-.173-.106-.177-.106-.176-.105-.178-.103-.18-.105-.178-.103-.18-.103-.18-.103-.182-.1-.182-.102-.183-.1-.182-.1-.184-.098-.185-.1-.187-.096-.186-.096-.186-.097-.187-.095-.19-.096-.188-.094-.19-.094-.19-.093-.193-.092-.192-.09-.193-.09-.194-.09-.195-.09-.194-.09-.196-.088-.197-.088-.197-.086-.198-.087-.2-.084-.2-.085-.2-.083-.2-.084-.203-.082-.203-.08-.203-.08-.204-.08-.205-.08-.207-.08-.205-.076-.208-.077-.21-.076-.208-.074-.21-.075-.21-.073-.21-.07-.213-.073-.212-.07-.213-.07-.214-.07-.214-.07-.216-.066-.216-.066-.216-.066-.22-.065-.217-.063-.22-.064-.22-.062-.22-.06-.22-.06-.222-.06-.224-.06-.224-.056-.224-.057-.225-.056-.225-.054-.226-.054-.227-.053-.228-.053-.23-.05-.228-.05-.23-.05-.23-.048-.233-.048-.232-.046-.233-.046-.235-.044-.234-.043-.235-.042-.235-.04-.236-.04-.237-.04-.238-.038-.24-.037-.24-.037-.24-.035-.24-.034-.243-.034-.243-.03-.243-.03-.242-.03-.246-.03-.245-.027-.247-.027-.247-.026-.247-.023-.25-.023-.248-.02-.25-.02-.25-.02-.25-.02-.252-.02-.253-.015-.253-.015-.254-.015-.254-.013-.255-.012-.255-.01-.257-.01-.257-.01-.257-.006-.257-.007-.26-.005-.26-.004-.26-.002-.262v-.27l-.002-.262v-.263l.003-.265.002-.265.004-.266.005-.268.006-.267.007-.267.01-.27.01-.27.01-.27.014-.27.015-.27.015-.272.017-.273.017-.274.02-.273.02-.275.02-.276.025-.276.024-.275.024-.278.027-.278.03-.28.03-.28.03-.28.03-.28.033-.283.034-.283.035-.283.037-.282.037-.285.04-.286.008-.06-.444.025-.453.02-.463.02-.473.016-.48.015-.49.01-.497.01-.257.003-.256.002h-.257l-.26.002h-.523l-.265-.003-.268-.004-.27-.004-.27-.006-.273-.006-.275-.006-.278-.008-.278-.008-.28-.01-.28-.01-.285-.013-.286-.014-.286-.014-.29-.016-.29-.015-.29-.018-.293-.02-.294-.02-.295-.022-.298-.023-.3-.024-.3-.026-.302-.027-.303-.028-.305-.03-.306-.03-.306-.034-.31-.034-.31-.038-.31-.037-.313-.04-.313-.04-.315-.04-.316-.045-.317-.044-.32-.047-.32-.05-.32-.05-.32-.053-.32-.054-.325-.055-.323-.058-.325-.06-.326-.06-.325-.063-.328-.066-.328-.066-.33-.068-.33-.072-.33-.072-.33-.075-.334-.076-.332-.077-.333-.08-.333-.084-.333-.086-.335-.087-.336-.09-.336-.09-.336-.095-.337-.096-.337-.1-.337-.1-.337-.102-.34-.106-.337-.107-.34-.11-.338-.112-.34-.115-.34-.117-.338-.12-.34-.123-.34-.125-.34-.127-.34-.13-.34-.132-.34-.136-.34-.138-.34-.14-.338-.145-.34-.147-.34-.15-.338-.15-.34-.156-.337-.157-.34-.16-.337-.164-.338-.167-.337-.17-.337-.173-.335-.174-.336-.178-.336-.182-.333-.184-.334-.19-.334-.19-.333-.193-.332-.197-.33-.2-.332-.204-.33-.207-.328-.21-.328-.215-.327-.217-.326-.22-.325-.223-.32-.223-.166-.118-.16-.117-.162-.116-.16-.116-.162-.118-.16-.12-.16-.12-.16-.12-.158-.12-.16-.123-.158-.124-.158-.125-.16-.125-.157-.126-.158-.125-.157-.13-.158-.127-.156-.13-.155-.13-.155-.132-.156-.13-.155-.134-.156-.134-.154-.136-.154-.135-.153-.137-.154-.137-.153-.138-.152-.14-.152-.14-.15-.14-.152-.143-.15-.143-.15-.143-.15-.146-.15-.145-.147-.148-.148-.147-.148-.15-.148-.148-.148-.15-.147-.152-.146-.152-.146-.152-.145-.153-.146-.155-.144-.157-.143-.157-.143-.158-.143-.158-.142-.16-.14-.16-.142-.163-.14-.163-.14-.164-.14-.163-.14-.166-.137-.165-.14-.168-.136-.17-.137-.168-.136-.17-.135-.17-.134-.173-.134-.173-.134-.174-.132-.176-.133-.176-.132-.176-.13-.177-.132-.18-.13-.18-.13-.18-.128-.182-.128-.18-.128-.185-.128-.185-.127-.186-.126-.187-.127-.188-.123-.19-.124-.19-.123-.19-.123-.19-.122-.194-.12-.192-.122-.195-.12-.195-.12-.197-.118-.196-.118-.2-.117-.2-.007-.012-.313.352-.367.41-.377.416-.388.423-.396.428-.406.437-.414.44-.42.444-.218.23-.218.225-.22.227-.22.227-.225.23-.226.23-.23.23-.23.232-.233.233-.235.234-.235.234-.24.235-.24.235-.243.237-.245.237-.248.237-.25.238-.25.24-.254.238-.255.24-.257.24-.26.24-.26.24-.263.242-.265.24-.267.242-.27.24-.27.242-.272.24-.275.24-.276.24-.28.243-.28.24-.28.24-.285.24-.287.24-.287.24-.29.24-.29.237-.294.238-.295.238-.298.237-.298.236-.3.234-.302.236-.304.234-.305.234-.306.232-.31.232-.31.23-.312.23-.313.228-.317.228-.317.226-.32.225-.32.223-.322.222-.324.22-.325.22-.327.22-.33.217-.33.214-.33.214-.335.213-.335.212-.337.21-.337.206-.34.207-.34.203-.344.202-.346.2-.346.197-.348.195-.35.194-.35.19-.352.19-.354.187-.356.185-.357.184-.357.18-.36.178-.36.176-.365.172-.363.17-.366.168-.367.165-.37.163-.37.16-.37.156-.374.153-.37.148-.194.077-.19.073-.187.073-.19.072-.19.07-.19.07-.19.07-.19.07-.19.067-.193.067-.192.066-.192.065-.192.065-.192.063-.193.064-.193.062-.195.06-.194.06-.194.06-.196.057-.194.058-.195.056-.195.057-.196.054-.198.055-.197.052-.198.052-.198.05-.198.05-.198.05-.2.046-.198.047-.2.046-.2.043-.2.044-.2.043-.2.04-.2.042-.202.038-.2.04-.203.036-.2.036-.204.036-.202.034-.203.033-.203.03-.204.032-.204.03-.205.028-.206.027-.205.026-.206.025-.206.025-.205.022-.208.02-.206.02-.207.02-.207.018-.207.016-.21.016-.207.014-.207.013-.21.01-.207.01-.21.01-.21.007-.207.006-.21.005-.21.004h-.84l-.21-.004-.21-.004-.21-.006-.213-.007-.21-.01-.212-.01-.212-.01-.21-.016-.213-.014-.212-.016-.21-.018-.214-.02-.212-.02-.21-.022-.214-.023-.212-.024-.213-.026-.212-.028-.213-.03-.213-.03-.213-.033-.214-.036-.213-.035-.213-.038-.214-.04-.213-.04-.213-.04-.213-.045-.213-.044-.213-.046-.213-.05-.212-.048-.213-.053-.212-.053-.214-.054-.214-.057-.212-.058-.212-.06-.213-.06-.214-.063-.213-.064-.212-.065-.212-.068-.212-.07-.212-.07-.212-.073-.212-.075-.212-.077-.21-.077-.212-.08-.212-.08-.21-.083-.212-.085-.21-.086-.21-.09-.21-.09-.21-.09-.21-.092-.21-.094-.21-.096-.21-.098-.208-.1-.208-.1-.21-.104-.207-.105-.208-.106-.195-.1v.007l-.108.448-.114.455-.118.46-.12.465-.065.24-.064.24-.067.238-.067.24-.068.244-.07.244-.07.245-.072.246-.074.248-.075.25-.075.25-.078.252-.08.252-.08.253-.082.257-.083.255-.086.257-.086.257-.087.26-.09.26-.09.26-.093.263-.095.263-.096.263-.098.264-.1.265-.1.265-.102.266-.104.268-.105.268-.106.27-.11.268-.11.27-.112.27-.113.27-.116.27-.118.27-.12.273-.12.272-.124.27-.126.273-.127.273-.13.274-.13.27-.132.274-.135.273-.137.274-.137.273-.14.273-.144.273-.144.272-.147.273-.15.272-.15.273-.154.272-.155.27-.157.273-.16.27-.16.272-.165.27-.167.27-.17.27-.17.268-.17.268-.176.267-.178.267-.18.266-.182.266-.185.263-.188.264-.19.262-.192.262-.194.26-.197.26-.2.26-.204.258-.205.257-.206.255-.21.254-.213.252-.215.252-.218.25-.22.25-.224.247-.226.247-.23.244-.23.244-.235.242-.237.24-.24.238-.243.236-.246.233-.25.233-.25.23-.255.23-.257.226-.26.224-.258.218-.138.115-.134.107-.134.11-.136.108-.136.108-.137.108-.136.108-.138.105-.14.105-.138.105-.14.105-.142.104-.142.103-.142.102-.143.1-.144.102-.145.1-.145.1-.146.1-.148.097-.148.098-.148.097-.15.096-.15.097-.15.094-.152.094-.153.094-.152.092-.155.092-.154.09-.156.09-.156.09-.158.09-.158.088-.158.087-.16.085-.16.086-.16.085-.16.084-.164.082-.162.082-.164.08-.165.082-.165.08-.166.078-.168.078-.167.077-.168.076-.17.076-.17.073-.17.073-.17.072-.172.07-.173.072-.173.07-.175.07-.175.066-.175.067-.176.066-.18.064-.177.064-.178.063-.18.063-.18.06-.18.06-.18.06-.183.058-.183.058-.184.056-.184.055-.185.053-.186.052-.185.05-.186.052-.19.05-.187.048-.19.048-.19.046-.19.044-.19.044-.19.043-.194.043-.194.04-.193.04-.195.04-.196.036-.195.036-.197.035-.197.036-.198.033-.198.03-.2.03-.198.03-.2.03-.2.028-.204.026-.202.026-.203.024-.202.023-.204.022-.205.02-.206.02-.206.017-.206.017-.207.016-.21.014-.207.014-.21.012-.208.01-.21.01-.21.01-.212.007-.212.006-.21.004-.168.003.012.038.063.207.062.208.06.21.062.212.06.214.06.214.058.22.057.218.056.22.056.223.053.225.053.226.052.228.05.23.05.23.05.233.047.235.045.236.045.238.043.24.042.24.04.242.04.244.037.245.035.246.034.248.034.25.03.253.028.252.028.254.025.255.024.257.02.26.02.26.018.26.016.263.013.264.01.264.01.266.008.268.006.27.004.27v.273l-.002.273-.005.274-.006.275-.01.276-.01.278-.014.28-.017.28-.02.28-.02.28-.027.284-.03.284-.03.285-.032.285-.035.286-.04.29-.04.287-.045.29-.048.29-.052.29-.054.29-.057.293-.06.294-.065.293-.066.294-.07.297-.075.295-.076.296-.08.297-.085.296-.086.297-.09.297-.095.298-.098.3-.1.297-.105.3-.108.297-.112.3-.115.298-.12.3-.122.298-.127.3-.13.3-.135.3-.137.298-.14.3-.147.3-.15.3-.155.297-.154.292-.082.154-.082.15-.082.15-.082.148-.084.15-.085.147-.088.15-.087.147-.088.148-.09.15-.09.147-.09.15-.093.147-.094.146-.094.15-.096.147-.096.148-.097.148-.1.147-.097.146-.102.148-.1.147-.103.147-.104.146-.104.147-.107.146-.107.147-.107.146-.11.145-.11.146-.11.144-.113.146-.113.145-.114.143-.115.144-.115.145-.117.143-.12.144-.118.143-.12.144-.122.144-.123.144-.124.144-.123.143-.127.144-.126.142-.128.142-.13.142-.13.142-.13.142-.134.14-.133.142-.136.14-.136.14-.138.142-.138.14-.14.14-.14.14-.14.14-.142.138-.144.14-.145.138-.145.138-.147.138-.147.138-.15.138-.15.137-.15.136-.153.136-.153.137-.154.136-.156.135-.157.136-.158.136-.16.136-.16.134-.16.134-.163.135-.165.134-.166.133-.166.134-.138.11.33.056.343.06.344.06.346.062.348.065.35.066.35.068.35.07.352.073.352.074.353.076.355.078.356.08.356.08.357.085.358.085.358.09.36.09.36.09.36.096.36.097.36.1.362.1.362.104.36.107.364.108.362.11.363.114.36.114.364.117.362.12.363.125.362.127.363.128.362.132.362.133.36.137.363.14.36.14.362.146.36.148.36.152.36.153.358.158.358.16.358.163.355.166.356.17.355.172.353.175.347.176.18.092.177.09.175.094.174.093.176.093.174.094.174.097.174.096.174.098.173.1.172.098.173.1.172.1.172.102.17.103.172.104.17.105.17.105.17.106.17.108.17.107.17.11.168.11.168.11.167.112.166.112.167.112.165.115.166.115.166.117.165.117.165.118.164.12.162.12.163.122.16.122.163.123.16.124.16.125.16.127.16.127.158.128.16.13.157.13.157.132.157.133.157.133.155.135.154.137.154.137.153.138.152.14.15.14.152.14.15.142.15.144.15.144.147.146.148.146.146.148.146.15.145.15.143.15.142.152.143.153.14.154.142.155.14.157.14.158.137.16.137.16.138.16.135.163.134.163.135.164.133.166.132.167.13.167.13.17.13.17.127.17.126.173.126.173.124.175.122.178.122.177.122.178.12.18.12.18.117.18.117.183.116.184.115.184.114.186.11.187.113.188.11.19.108.19.11.19.105.194.105.192.104.195.1.196.103.197.1.2.098.198.1.2.095.202.094.203.093.203.092.205.09.208.09.207.087.208.087.21.085.21.083.21.082.213.08.213.08.214.078.215.077.216.076.217.073.22.072.22.07.22.07.22.067.223.066.224.065.224.063.226.062.226.06.228.06.23.057.23.057.23.054.23.052.234.052.234.05.234.047.236.047.237.045.235.043.24.042.238.04.24.04.242.036.243.036.242.034.244.032.245.03.246.03.248.027.248.026.25.025.25.022.25.02.25.02.254.018.253.016.254.015.255.012.256.01.257.01.258.008.26.006.26.004.26.003.263v.313l.12-.092.277-.208.28-.208.28-.21.284-.207.287-.21.29-.206.29-.207.292-.21.295-.206.297-.205.3-.207.3-.204.305-.206.304-.204.308-.204.31-.203.313-.203.315-.202.316-.2.32-.2.32-.198.323-.197.323-.196.326-.194.33-.194.33-.192.33-.19.334-.19.336-.188.338-.185.34-.184.34-.182.344-.18.346-.18.347-.175.348-.174.35-.172.353-.17.355-.167.357-.165.358-.163.36-.16.36-.16.363-.155.366-.154.366-.15.368-.148.363-.142.19-.073.188-.07.186-.07.187-.07.188-.067.187-.067.188-.068.188-.065.19-.065.188-.064.19-.063.19-.062.19-.06.19-.062.192-.06.19-.058.193-.058.192-.057.192-.056.192-.054.193-.054.194-.054.193-.053.195-.05.195-.052.195-.05.196-.046.197-.047.196-.045.197-.045.197-.044.197-.043.198-.042.198-.04.2-.04.198-.038.2-.037.2-.036.2-.036.2-.033.2-.033.202-.03.2-.03.203-.03.2-.028.204-.027.202-.027.2-.024.205-.023.204-.02.203-.02.203-.02.204-.017.205-.016.204-.014.204-.014.205-.012.205-.01.207-.01.207-.007.205-.005.207-.005.208-.003.207-.002h.415l.21.004.207.004.207.006.21.008.208.01.21.01.21.012.208.014.21.016.21.017.21.02.21.02.208.023.21.024.21.026.21.027.213.03.21.03.21.034.21.036.21.036.212.037.21.04.21.043.212.043.21.046.21.047.21.05.21.05.21.054.21.056.21.056.21.06.21.06.208.062.21.065.208.066.21.068.208.07.21.074.207.074.207.077.207.077.208.082.207.08.207.086.206.085.206.09.204.09.205.093.203.095.204.096.204.1.204.1.203.103.203.106.2.106.202.11.2.11.2.112.2.115.2.117.198.12.198.12.198.124.196.126.198.127.195.13.194.13.196.135.193.136.192.138.192.14.19.14.192.145.19.145.19.148.188.15.187.15.19.155.185.157.186.156.186.16.185.162.184.163.183.167.182.168.18.17.18.172.18.174.178.176.18.178.176.18.176.18.175.185.175.185.173.188.173.19.172.192.17.194.17.195.17.198.17.2.167.2.167.206.166.205.165.208.164.21.163.212.163.214.16.215.162.218.16.22.16.222.158.224.158.225.158.228.157.23.155.233.154.234.153.238.152.238.15.24.15.243.15.243.15.246.15.25.146.25.146.252.146.255.145.257.144.26.144.26.144.264.142.264.14.268.14.27.138.272.14.274.136.276.137.278.137.28.134.283.136.285.133.287.13.29.133.29.13.294.13.296.13.298.13.3.126.303.126.304.126.308.125.308.124.312.124.313.124.317.12.318.122.32.12.323.12.326.09.254zm-4.614 25.81l-3.083-13.048-.086-.358-.086-.355-.086-.355-.087-.35-.09-.346-.088-.345-.09-.34-.09-.34-.09-.334-.093-.332-.092-.33-.093-.328-.092-.324-.094-.322-.094-.32-.095-.315-.096-.313-.096-.31-.096-.308-.097-.306-.097-.302-.098-.3-.1-.297-.098-.294-.1-.29-.1-.29-.1-.286-.102-.284-.1-.28-.103-.278-.102-.275-.103-.273-.103-.27-.104-.268-.104-.265-.105-.26-.105-.26-.105-.258-.107-.254-.107-.252-.106-.25-.107-.246-.108-.245-.108-.242-.108-.238-.11-.237-.11-.234-.11-.23-.11-.23-.11-.227-.11-.224-.11-.223-.11-.22-.11-.217-.11-.214-.113-.213-.112-.21-.112-.207-.112-.205-.112-.202-.113-.2-.113-.198-.114-.195-.113-.193-.114-.19-.112-.19-.114-.184-.115-.184-.114-.18-.114-.18-.115-.178-.115-.175-.115-.172-.115-.17-.115-.168-.115-.165-.116-.164-.115-.16-.115-.16-.116-.156-.116-.155-.116-.152-.117-.15-.115-.15-.116-.144-.116-.144-.116-.142-.117-.14-.115-.138-.116-.136-.116-.134-.117-.132-.116-.13-.115-.127-.116-.126-.117-.122-.116-.12-.117-.122-.115-.118-.116-.116-.118-.113-.116-.114-.116-.11-.115-.11-.115-.106-.116-.105-.116-.104-.116-.102-.115-.1-.116-.098-.114-.098-.115-.095-.115-.093-.115-.092-.116-.09-.116-.088-.115-.087-.115-.085-.116-.084-.115-.082-.115-.08-.115-.08-.115-.077-.115-.078-.115-.075-.115-.073-.115-.072-.115-.07-.115-.07-.114-.067-.115-.066-.115-.066-.115-.063-.115-.06-.115-.06-.115-.06-.115-.06-.115-.057-.114-.056-.116-.054-.115-.054-.115-.053-.115-.05-.116-.05-.115-.05-.116-.046-.116-.045-.115-.045-.116-.043-.118-.043-.117-.042-.116-.04-.117-.04-.117-.038-.117-.037-.118-.037-.117-.035-.117-.034-.118-.03-.12-.033-.116-.03-.118-.03-.12-.03-.117-.027-.12-.028-.12-.026-.12-.025-.117-.022-.12-.023-.12-.022-.12-.02-.12-.02-.122-.02-.12-.017-.122-.017-.123-.017-.122-.015-.122-.014-.122-.013-.123-.012-.123-.01-.124-.01-.124-.01-.124-.01-.125-.006-.125-.006-.125-.005-.125-.005-.126-.004h-.127l-.127-.003h-.384l-.127.002-.13.002-.13.005-.127.004-.13.006-.128.007-.13.007-.13.007-.132.01-.13.01-.132.01-.13.013-.13.013-.134.014-.132.015-.132.015-.133.017-.134.017-.134.02-.134.02-.134.02-.135.02-.135.023-.136.023-.136.024-.137.023-.136.026-.135.024-.135.027-.137.03-.136.03-.137.03-.137.03-.138.03-.138.032-.137.033-.138.034-.14.034-.137.036-.14.037-.138.037-.14.04-.138.038-.14.04-.14.04-.14.04-.14.043-.14.043-.14.044-.14.045-.14.045-.14.046-.14.047-.14.048-.143.048-.14.05-.142.05-.14.05-.142.053-.14.052-.143.053-.14.054-.137.053-.288.113-.284.113-.282.117-.283.12-.284.12-.282.124-.283.128-.283.13-.283.13-.284.135-.28.137-.283.137-.282.14-.28.145-.28.145-.28.147-.28.15-.28.15-.28.154-.276.155-.278.157-.276.16-.275.16-.276.16-.275.164-.273.165-.272.164-.27.168-.27.17-.27.17-.267.17-.266.173-.265.174-.264.173-.262.176-.26.176-.26.177-.26.178-.256.18-.256.18-.254.18-.252.18-.25.18-.25.18-.247.184-.245.182-.245.182-.242.18-.24.183-.24.184-.236.182-.235.183-.233.182-.23.18-.23.183-.227.18-.224.182-.224.18-.22.18-.22.18-.215.178-.213.178-.213.177-.21.177-.207.175-.204.174-.203.174-.2.172-.195.17-.194.17-.188.166-.378.336-.365.326-.353.32-.343.314-.33.306-.32.298-.306.29-.295.28-.283.272-.27.262-.257.25-.244.24-.23.23-.216.216-.202.204-.188.192-.173.178-.158.164-.146.15-.125.13-.215.228-.146.157-.084.09-16.613 18.28 7.35-23.85.08-.27.08-.266.078-.266.077-.264.074-.263.074-.26.07-.26.07-.26.068-.255.066-.256.064-.255.063-.253.06-.25.06-.25.058-.248.056-.247.055-.246.052-.243.052-.243.05-.242.047-.238.047-.24.045-.236.042-.236.042-.234.04-.233.04-.23.037-.23.037-.23.035-.228.033-.225.03-.225.03-.223.03-.222.027-.22.026-.22.023-.217.024-.216.022-.216.02-.214.02-.212.016-.21.016-.21.015-.21.013-.206.012-.205.01-.205.01-.203.008-.2.007-.2.006-.2.004-.2.003-.196v-.196l.002-.193v-.193l-.004-.19-.003-.19-.004-.19-.007-.186-.006-.186-.008-.185-.01-.184-.01-.182-.01-.182-.015-.18-.013-.18-.015-.176-.016-.178-.016-.175-.018-.174-.02-.173-.02-.17-.02-.172-.022-.17-.024-.168-.023-.167-.025-.166-.027-.164-.027-.164-.03-.164-.028-.162-.03-.16-.032-.16-.032-.158-.033-.157-.035-.157-.035-.155-.036-.155-.037-.153-.038-.152-.04-.15-.04-.15-.04-.15-.04-.148-.044-.147-.043-.146-.044-.146-.044-.143-.046-.143-.047-.143-.048-.14-.05-.14-.048-.14-.05-.14-.052-.136-.052-.137-.053-.136-.053-.134-.055-.135-.055-.133-.056-.132-.055-.13-.058-.132-.058-.13-.06-.13-.06-.128-.06-.128-.063-.127-.063-.126-.063-.126-.064-.124-.064-.124-.065-.123-.066-.124-.07-.12-.066-.123-.07-.12-.068-.12-.07-.12-.07-.118-.073-.117-.073-.117-.074-.116-.074-.115-.075-.117-.076-.114-.074-.115-.078-.112-.078-.113-.08-.113-.08-.11-.08-.112-.08-.11-.082-.11-.082-.11-.083-.107-.084-.108-.087-.107-.085-.107-.087-.105-.086-.105-.088-.105-.088-.105-.09-.103-.09-.104-.09-.103-.09-.102-.093-.1-.093-.103-.094-.1-.094-.1-.095-.1-.096-.1-.096-.097-.098-.098-.098-.098-.1-.097-.098-.096-.1-.097-.1-.095-.102-.095-.102-.095-.103-.094-.105-.094-.104-.093-.104-.092-.106-.09-.106-.092-.107-.09-.107-.09-.11-.09-.108-.09-.11-.09-.11-.088-.11-.088-.113-.087-.113-.087-.114-.086-.113-.086-.115-.085-.115-.084-.115-.084-.117-.083-.116-.083-.12-.083-.117-.082-.12-.082-.12-.08-.118-.082-.12-.08-.123-.08-.12-.08-.124-.08-.122-.077-.123-.077-.125-.08-.125-.076-.125-.077-.126-.076-.126-.074-.127-.076-.128-.074-.128-.074-.13-.075-.128-.073-.13-.073-.13-.073-.13-.072-.132-.07-.132-.072-.132-.07-.132-.07-.133-.07-.13-.065-.273-.138-.27-.135-.274-.132-.274-.13-.276-.13-.278-.125-.28-.125-.28-.123-.283-.12-.284-.12-.285-.117-.287-.115-.286-.113-.29-.112-.29-.11-.292-.107-.29-.106-.295-.104-.295-.102-.296-.1-.296-.1-.298-.096-.298-.095-.3-.093-.3-.092-.3-.09-.3-.087-.3-.086-.302-.084-.302-.083-.303-.082-.302-.08-.303-.077-.303-.075-.304-.074-.303-.073-.303-.07-.303-.07-.303-.068-.3-.068-.304-.064-.302-.065-.302-.06-.302-.06-.3-.06-.3-.057-.3-.056-.3-.054-.3-.052-.297-.052-.298-.05-.297-.048-.297-.047-.294-.047-.295-.044-.292-.044-.29-.042-.292-.04-.288-.04-.287-.037-.287-.037-.284-.036-.283-.034-.282-.033-.28-.032-.28-.03-.275-.03-.276-.027-.275-.028-.27-.027-.27-.025-.27-.024-.266-.024-.264-.02-.262-.023-.26-.02-.257-.02-.255-.017-.253-.018-.25-.016-.246-.015-.493-.028-.48-.027-.465-.022-.456-.02-.446-.015-.434-.013-.42-.012-.408-.01-.395-.006-.38-.005-.367-.004-.352-.002h-.336l-.322.002-.306.002-.29.004-.27.005-.257.006-.238.006-.22.005-.198.007-.352.013-.268.012-.187.01-.1.005L144 170.807l31.636-12.825.234-.095.232-.096.23-.094.23-.096.228-.098.226-.096.225-.097.224-.1.222-.096.22-.097.218-.098.218-.098.216-.098.214-.098.213-.098.21-.1.21-.098.21-.1.207-.098.205-.1.203-.098.203-.1.2-.098.2-.1.2-.1.196-.1.195-.1.194-.1.192-.1.19-.1.19-.1.19-.1.187-.102.185-.1.184-.102.182-.1.182-.102.18-.1.18-.102.177-.102.177-.1.175-.103.173-.102.172-.1.17-.102.17-.102.17-.102.165-.102.166-.103.165-.1.163-.104.16-.103.162-.102.16-.102.156-.103.157-.103.156-.102.154-.103.152-.104.15-.103.152-.102.148-.102.148-.103.146-.103.145-.103.145-.104.142-.103.14-.103.14-.103.14-.103.137-.102.137-.102.136-.104.133-.102.132-.104.13-.103.132-.103.13-.103.127-.104.128-.103.126-.103.124-.103.124-.103.122-.102.12-.102.12-.103.12-.103.118-.103.117-.104.114-.103.115-.103.112-.102.112-.103.11-.103.112-.104.11-.103.106-.103.107-.102.105-.102.104-.103.103-.102.102-.102.102-.102.1-.102.1-.102.098-.102.098-.102.096-.102.095-.102.094-.102.092-.102.093-.1.09-.103.092-.1.09-.102.088-.1.088-.102.086-.1.085-.102.084-.1.083-.102.083-.1.083-.1.08-.1.08-.1.08-.102.08-.1.075-.1.076-.1.076-.1.076-.1.074-.1.073-.1.07-.1.073-.1.07-.1.07-.1.068-.1.07-.098.066-.1.067-.098.065-.1.065-.098.063-.1.063-.098.062-.1.06-.097.062-.1.06-.097.06-.1.057-.097.06-.098.055-.098.056-.098.056-.098.056-.098.053-.098.052-.098.05-.09.105-.202.1-.194.097-.193.093-.194.092-.193.09-.193.085-.192.083-.19.08-.193.08-.192.076-.19.072-.19.07-.19.07-.19.066-.19.064-.188.06-.19.06-.187.057-.188.054-.188.052-.187.05-.187.05-.187.045-.185.045-.186.043-.187.04-.185.04-.185.035-.185.034-.184.032-.185.03-.185.03-.183.024-.183.024-.184.023-.182.02-.182.02-.182.02-.182.015-.18.015-.182.013-.18.01-.18.01-.18.007-.18.006-.18.005-.18.004-.177v-.53l-.004-.177-.005-.176-.007-.176-.008-.174-.01-.175-.01-.173-.01-.174-.014-.174-.014-.174-.015-.172-.017-.172-.018-.17-.02-.17-.02-.17-.022-.17-.023-.17-.025-.168-.025-.168-.027-.166-.027-.166-.03-.166-.03-.165-.03-.163-.03-.163-.034-.162-.035-.162-.035-.16-.035-.16-.037-.16-.036-.16-.038-.156-.04-.156-.04-.155-.04-.155-.04-.153-.042-.153-.043-.15-.043-.15-.044-.15-.045-.15-.046-.147-.046-.146-.046-.144-.047-.145-.047-.142-.047-.14-.05-.142-.047-.14-.05-.137-.048-.138-.05-.136-.05-.135-.05-.132-.05-.13-.05-.132-.05-.13-.052-.127-.05-.127-.05-.12-.105-.25-.104-.24-.102-.234-.102-.228-.1-.22-.102-.216-.1-.207-.098-.2-.096-.195-.095-.187-.093-.18-.09-.17-.09-.166-.085-.156-.082-.15-.08-.14-.075-.133-.072-.123-.068-.116-.065-.107-.06-.098-.055-.09-.046-.076-.09-.142-.065-.097-.036-.053-7.906-11.564 13.804 3.08.187.04.186.04.187.038.184.04.185.035.183.037.184.035.18.033.18.032.18.03.18.03.177.03.177.027.176.027.175.027.173.025.175.023.172.023.17.022.17.02.17.02.17.02.168.016.167.017.166.016.167.014.165.014.163.01.163.013.162.01.16.01.162.01.16.01.158.007.158.006.157.005.156.003.156.005.154.002h.155l.153.002h.302l.152-.004.15-.004.15-.003.147-.005.145-.007.147-.006.146-.006.144-.007.144-.01.143-.01.143-.01.142-.01.142-.01.14-.014.14-.013.14-.014.137-.016.138-.015.137-.017.135-.017.136-.018.135-.018.134-.02.133-.02.132-.02.132-.02.132-.024.13-.022.13-.024.13-.024.127-.025.128-.024.128-.027.126-.028.125-.027.126-.03.125-.028.125-.03.124-.03.123-.03.123-.033.12-.033.122-.032.12-.033.12-.034.12-.033.12-.036.117-.035.116-.036.117-.04.117-.037.116-.038.116-.04.115-.04.114-.04.116-.04.113-.042.112-.042.113-.042.112-.043.11-.044.112-.044.11-.044.11-.046.11-.046.107-.047.108-.047.108-.048.108-.05.108-.048.106-.05.107-.05.107-.05.105-.052.104-.052.105-.053.104-.053.103-.054.103-.054.102-.054.103-.056.102-.056.1-.056.102-.057.1-.057.1-.06.1-.057.097-.06.1-.06.097-.06.097-.06.098-.06.097-.064.098-.062.096-.063.095-.062.095-.064.095-.065.095-.066.095-.065.094-.067.092-.067.093-.067.093-.068.093-.068.093-.07.09-.068.093-.07.092-.07.09-.07.09-.07.09-.073.09-.072.09-.072.09-.073.082-.07.18-.153.176-.15.173-.153.17-.155.17-.157.17-.158.17-.16.165-.162.164-.163.163-.166.162-.168.162-.17.16-.17.158-.172.157-.174.156-.175.154-.177.153-.18.152-.18.15-.182.15-.182.147-.186.146-.187.145-.19.145-.19.142-.19.142-.192.138-.194.14-.196.136-.197.136-.198.135-.2.132-.2.132-.2.13-.204.13-.203.128-.206.126-.205.126-.208.124-.207.122-.21.122-.208.12-.21.118-.21.118-.214.116-.212.115-.214.112-.214.112-.214.11-.215.11-.216.11-.217.106-.216.106-.218.104-.218.103-.217.1-.22.1-.218.1-.22.1-.218.095-.22.096-.22.095-.22.092-.22.09-.22.092-.22.09-.22.087-.22.088-.22.085-.22.083-.22.083-.22.08-.22.08-.22.08-.216.08-.218.076-.218.076-.218.073-.217.074-.217.07-.215.07-.214.07-.215.07-.213.068-.213.066-.212.066-.21.063-.212.063-.21.062-.21.06-.208.06-.207.06-.206.057-.207.057-.203.056-.203.054-.202.053-.197.105-.402.1-.393.095-.387.092-.38.088-.376.084-.37.08-.362.075-.355.073-.347.068-.34.066-.333.063-.324.06-.317.055-.307.052-.298.05-.288.047-.28.043-.267.04-.26.04-.246.034-.237.033-.226.03-.213.028-.202.025-.19.023-.178.02-.16.034-.3.027-.236.018-.182.012-.12.97-11.1 8.355 7.524.143.128.143.126.143.124.145.122.143.12.143.12.143.118.143.116.142.114.142.113.14.11.143.11.142.11.142.105.142.105.14.104.14.103.142.1.14.098.142.1.14.094.14.096.14.093.142.09.14.09.14.09.14.087.14.085.14.085.14.083.14.082.138.08.14.08.138.076.14.078.138.075.14.073.14.073.137.07.14.07.137.07.138.065.138.066.138.066.138.063.138.06.137.06.14.06.138.06.137.058.137.056.14.056.136.053.137.052.137.052.137.05.136.05.137.047.138.048.138.046.136.045.138.042.137.043.136.04.136.04.137.04.135.04.138.036.137.037.136.036.138.034.136.033.137.03.138.032.136.03.138.03.138.026.136.028.137.026.137.026.137.024.137.023.137.022.137.02.137.02.138.02.137.016.137.017.137.016.14.014.135.015.137.012.138.013.14.012.136.01.138.01.138.01.138.006.138.007.14.006.137.006.138.004.14.003h.138l.14.003h.28l.137-.002h.14l.14-.004.138-.004.14-.005.14-.005.14-.007.14-.007.14-.008.14-.01.14-.01.14-.01.14-.012.142-.013.14-.014.14-.013.142-.017.14-.016.142-.017.142-.018.142-.02.14-.02.143-.02.14-.02.14-.024.144-.024.142-.024.143-.024.14-.026.144-.026.142-.027.143-.03.142-.028.144-.03.143-.03.142-.032.144-.032.143-.033.143-.034.144-.033.144-.035.145-.037.144-.035.143-.04.144-.038.144-.04.145-.04.144-.04.143-.042.145-.042.144-.043.144-.044.145-.044.144-.045.145-.046.144-.046.145-.048.143-.05.145-.048.145-.05.145-.05.145-.053.145-.053.145-.053.145-.055.146-.054.145-.054.144-.055.145-.056.14-.055.295-.12.29-.12.29-.12.29-.126.29-.128.29-.13.29-.133.29-.135.29-.138.29-.14.29-.144.29-.145.287-.147.29-.15.288-.153.288-.154.287-.157.287-.16.286-.16.287-.166.285-.166.285-.167.285-.17.283-.17.285-.175.282-.176.283-.18.28-.18.282-.18.28-.182.28-.184.277-.187.277-.188.276-.19.276-.19.275-.193.275-.194.273-.196.272-.196.272-.197.27-.2.27-.2.267-.2.268-.203.267-.203.265-.205.264-.206.263-.207.262-.208.26-.21.26-.208.26-.21.256-.21.257-.21.255-.213.254-.213.252-.213.25-.213.25-.213.248-.215.246-.213.246-.216.243-.216.24-.215.243-.215.24-.216.237-.217.236-.216.234-.217.233-.215.232-.216.23-.217.228-.215.226-.216.223-.215.224-.216.22-.214.22-.214.22-.214.215-.213.215-.214.212-.212.21-.21.21-.212.207-.21.205-.21.203-.207.202-.208.2-.206.197-.206.194-.202.387-.408.377-.4.37-.398.36-.392.353-.386.344-.38.335-.373.326-.367.318-.36.307-.352.3-.345.288-.337.28-.328.27-.32.26-.31.25-.3.24-.29.23-.28.22-.27.21-.257.198-.247.19-.234.177-.223.166-.21.155-.198.14-.18.256-.333.206-.27.16-.21.107-.146 6.13-8.343 3.625 9.762.072.19.073.19.073.19.073.187.074.185.075.186.075.186.076.182.076.182.076.18.077.18.078.18.08.18.08.177.08.176.08.176.08.175.08.173.08.173.083.172.083.17.083.17.082.17.085.167.085.165.085.166.086.166.086.162.086.162.086.162.087.16.087.16.09.16.09.16.088.156.09.156.09.156.09.154.092.154.092.153.09.15.093.152.094.15.093.15.094.148.094.147.096.147.095.145.096.144.096.143.096.144.096.143.097.14.1.142.1.14.097.137.1.14.098.135.1.136.1.136.1.135.102.135.1.133.103.132.103.13.102.132.103.13.104.13.103.127.104.126.103.127.105.126.104.124.105.125.105.123.107.123.105.122.107.12.108.12.107.12.11.12.107.12.11.117.108.117.11.117.11.115.11.115.11.115.11.114.112.11.112.113.11.11.113.112.112.11.113.11.112.107.113.108.114.11.113.105.115.106.115.107.115.105.116.104.115.103.116.102.115.102.116.1.12.1.116.1.118.1.12.1.117.097.12.097.118.097.12.096.12.094.12.095.12.092.12.093.12.093.12.09.122.093.12.09.123.09.12.09.123.09.123.09.122.09.117.082.25.176.248.17.25.167.25.166.25.164.252.16.252.16.254.156.255.154.257.152.257.15.257.147.26.145.26.143.26.14.26.14.26.137.264.133.263.132.264.13.265.128.265.126.265.123.266.12.27.12.267.12.268.113.27.114.268.113.27.11.27.107.27.106.272.104.27.1.273.1.272.1.27.096.274.094.273.093.274.09.275.09.274.086.273.085.274.084.274.082.275.08.275.078.273.077.275.075.274.072.274.072.275.07.276.067.274.066.273.065.274.063.274.063.275.06.273.058.273.058.274.055.272.054.272.052.272.05.27.05.27.047.27.047.27.044.27.043.268.043.268.04.267.04.267.038.266.037.266.036.264.034.264.033.264.03.262.03.262.03.26.028.26.027.26.025.257.024.257.024.256.022.255.02.253.02.253.02.25.016.25.017.25.014.25.015.244.012.246.012.245.01.243.012.242.01.24.008.24.007.237.008.236.007.234.005.233.003.23.003.23.003h.23l.226.003h.45l.22-.002h.22l.214-.003.434-.008.423-.01.416-.01.407-.017.4-.016.39-.018.383-.02.374-.023.365-.023.355-.024.346-.027.336-.027.325-.027.316-.03.307-.03.295-.03.284-.03.273-.03.26-.03.25-.03.24-.027.228-.03.213-.028.204-.027.19-.028.176-.025.16-.024.292-.045.233-.038.176-.03.115-.02 8.495-1.59-2.106 8.563-.063.26-.062.262-.06.26-.06.258-.058.26-.057.256-.056.255-.055.256-.053.255-.053.255-.05.25-.05.253-.05.25-.046.25-.045.25-.045.25-.044.246-.043.246-.04.245-.04.246-.04.245-.038.244-.038.24-.035.24-.034.243-.033.24-.032.24-.03.236-.03.237-.03.236-.027.235-.026.235-.025.234-.025.233-.023.232-.022.23-.02.23-.02.23-.02.23-.018.228-.017.227-.015.227-.015.224-.014.224-.01.224-.013.223-.01.222-.01.22-.008.22-.01.22-.005.22-.006.22-.005.216-.005.217V98l-.003.216v.64l.003.212.004.21.003.212.005.21.006.208.006.208.007.208.01.206.01.206.01.205.01.205.013.202.013.203.014.2.015.202.014.2.017.2.02.2.017.198.02.197.02.197.02.195.023.194.022.194.024.194.023.193.025.193.026.192.028.19.028.19.028.19.03.19.03.187.03.187.03.186.034.186.033.185.035.186.034.184.035.183.035.18.038.183.037.18.04.182.038.18.04.18.04.177.04.178.043.177.044.176.043.177.044.174.046.175.045.173.047.173.047.173.048.17.048.173.05.17.05.17.05.17.05.17.052.167.052.166.053.167.054.166.055.164.056.165.057.164.056.164.057.16.057.164.058.162.06.162.058.16.06.16.06.16.062.16.062.157.062.158.062.16.064.157.065.155.065.156.065.154.065.154.067.154.067.154.066.152.07.152.068.152.07.15.07.15.07.15.07.15.072.15.072.147.073.147.074.147.073.147.075.146.075.146.075.143.076.145.077.144.076.143.08.144.077.142.078.14.08.143.078.14.08.14.08.14.08.14.08.137.083.138.082.138.08.137.084.136.08.133.17.275.17.27.173.265.173.263.175.262.177.26.178.258.18.256.182.255.183.252.184.25.185.246.188.246.19.244.19.242.19.24.194.238.194.236.197.234.197.233.198.23.2.227.2.227.2.224.204.223.204.22.204.22.206.216.207.215.207.214.21.212.208.21.21.206.21.207.213.203.213.203.213.2.214.198.214.197.214.196.216.192.216.19.217.19.218.187.218.186.217.184.22.18.217.18.22.18.22.175.218.173.22.17.22.172.22.17.22.166.218.166.22.164.22.16.22.16.22.16.22.156.218.154.22.153.218.15.22.15.217.148.217.146.218.144.217.143.216.14.215.14.215.136.215.134.214.135.213.13.212.13.212.13.21.126.212.124.208.124.21.12.206.12.207.12.207.116.204.115.205.114.202.11.2.11.2.11.2.104.198.104.196.103.195.103.193.1.19.097.192.097.188.095.188.092.186.092.184.09.183.09.176.084.36.17.35.164.342.156.332.15.326.145.317.138.308.133.3.126.29.12.28.113.27.108.26.104.25.096.236.09.226.086.215.08.202.072.19.067.18.062.164.058.152.052.133.044.24.08.18.057.12.038.06.018 17.01 4.967L398 150.39l-.282.093-.28.094-.28.095-.28.094-.278.096-.276.095-.275.096-.275.096-.272.095-.27.096-.27.098-.268.097-.267.097-.266.098-.264.098-.263.1-.26.097-.26.1-.26.1-.257.098-.256.1-.255.1-.255.1-.252.1-.25.102-.25.1-.248.102-.247.1-.246.102-.245.102-.243.102-.242.102-.24.102-.24.103-.238.104-.236.104-.237.103-.235.105-.234.104-.23.103-.23.104-.23.105-.228.105-.227.105-.225.106-.224.105-.222.106-.222.105-.22.106-.22.108-.218.106-.216.106-.216.107-.215.107-.208.106-.428.217-.418.216-.413.215-.407.217-.404.218-.4.22-.395.218-.39.22-.385.22-.38.22-.377.22-.372.224-.366.223-.363.223-.36.223-.352.223-.348.223-.345.224-.34.225-.338.225-.334.226-.328.226-.324.227-.32.227-.314.226-.313.227-.308.227-.304.227-.3.228-.294.228-.29.228-.288.228-.284.23-.28.227-.276.23-.272.227-.268.228-.265.228-.26.228-.258.23-.254.227-.25.228-.245.23-.243.228-.24.228-.235.228-.232.228-.228.228-.226.227-.22.227-.22.227-.214.228-.21.228-.21.227-.205.227-.2.226-.2.226-.195.226-.194.226-.19.225-.185.225-.183.225-.18.225-.178.224-.175.222-.173.223-.168.223-.167.222-.164.222-.16.222-.157.22-.155.222-.152.22-.15.22-.145.22-.142.22-.14.218-.14.218-.136.218-.134.217-.13.215-.13.216-.125.217-.122.215-.12.214-.12.214-.114.213-.114.213-.113.212-.11.212-.107.21-.103.21-.103.21-.1.207-.098.208-.097.207-.094.206-.093.205-.09.206-.087.204-.086.204-.083.203-.08.203-.08.2-.08.202-.073.2-.074.198-.073.198-.07.198-.07.196-.066.196-.064.195-.063.193-.06.193-.06.192-.06.19-.055.19-.055.19-.053.187-.05.186-.05.186-.05.185-.047.184-.045.184-.044.182-.042.18-.04.18-.04.18-.038.176-.037.177-.034.174-.034.174-.033.172-.03.172-.03.17-.03.17-.03.168-.025.167-.024.164-.023.165-.023.164-.023.16-.02.16-.02.16-.017.157-.018.157-.016.155-.017.152-.014.152-.014.15-.013.15-.01.148-.012.146-.01.146-.007.144-.008.14-.007.142-.006.138-.007.137-.005.136-.004.135-.003.132-.002.13v.13l-.002.126v.372l.003.238.006.232.007.225.01.217.01.21.01.2.014.195.014.185.016.178.016.17.015.16.017.153.017.145.017.134.017.125.017.117.017.106.015.097.016.088.013.08.013.067.01.05.018.098.01.045v.005l2.39 10.052-9.895-3.72-.207-.078-.206-.076-.205-.074-.205-.074-.206-.073-.204-.07-.205-.07-.204-.07-.202-.066-.203-.065-.202-.065-.203-.064-.203-.063-.2-.062-.203-.06-.2-.06-.202-.057-.2-.056-.2-.056-.2-.055-.198-.054-.198-.053-.2-.052-.2-.05-.195-.05-.197-.05-.197-.047-.195-.047-.196-.044-.196-.045-.195-.042-.196-.043-.194-.04-.195-.04-.194-.04-.19-.04-.194-.036-.192-.036-.192-.036-.19-.035-.192-.033-.19-.032-.192-.032-.19-.03-.19-.03-.19-.028-.19-.027-.187-.026-.19-.026-.187-.024-.188-.024-.187-.023-.187-.023-.186-.02-.186-.02-.186-.02-.185-.018-.185-.018-.185-.016-.184-.016-.184-.014-.185-.014-.183-.013-.185-.012-.182-.01-.183-.012-.182-.01-.182-.006-.18-.01-.183-.005-.18-.007-.18-.006-.18-.004-.18-.004-.18-.003-.18-.002h-.527l-.178.002-.178.002-.177.003-.177.004-.177.005-.174.004-.176.007-.177.008-.175.01-.175.01-.175.01-.174.01-.174.01-.174.01-.173.014-.173.014-.173.015-.173.014-.172.015-.172.016-.172.017-.17.018-.172.02-.17.02-.17.02-.17.02-.17.022-.17.022-.17.023-.17.024-.167.025-.17.024-.168.026-.168.027-.168.027-.167.028-.167.028-.167.03-.166.03-.165.03-.166.032-.167.032-.165.032-.166.034-.164.034-.164.034-.164.036-.164.036-.163.036-.163.037-.163.037-.163.04-.162.038-.162.04-.16.04-.162.04-.16.043-.16.043-.16.043-.156.042-.324.09-.32.092-.315.093-.316.096-.315.097-.314.1-.31.104-.312.106-.31.107-.308.11-.307.11-.305.115-.305.116-.304.12-.302.12-.3.12-.3.125-.3.125-.298.13-.296.13-.295.13-.294.134-.292.134-.29.137-.29.14-.29.14-.287.143-.286.143-.285.146-.283.146-.283.15-.28.15-.28.152-.28.154-.276.155-.276.155-.275.158-.274.16-.27.16-.272.164-.267.163-.268.164-.266.167-.266.168-.263.17-.26.168-.26.17-.26.172-.258.173-.256.174-.256.175-.253.174-.25.177-.25.178-.25.178-.247.18-.246.18-.244.18-.243.18-.24.183-.24.182-.24.183-.236.185-.234.184-.234.184-.232.186-.23.186-.23.186-.227.187-.225.186-.224.186-.223.188-.22.19-.22.187-.216.19-.216.188-.214.19-.213.188-.21.19-.21.188-.206.188-.206.19-.204.188-.202.188-.2.19-.2.187-.197.19-.197.187-.193.188-.193.187-.19.187-.188.185-.188.185-.185.187-.182.185-.182.185-.18.183-.177.184-.177.182-.175.182-.173.18-.17.18-.17.18-.166.18-.166.178-.162.178-.16.176-.16.176-.158.174-.156.174-.154.172-.15.17-.3.34-.29.336-.283.33-.274.324-.268.32-.26.312-.25.306-.244.3-.236.294-.228.287-.22.28-.21.27-.204.266-.195.256-.186.248-.18.238-.17.23-.16.22-.155.212-.146.2-.136.193-.128.18-.12.17-.11.16-.1.143-.18.266-.144.213-.108.163-.07.107-7.058 11.086z" fill="#f7931e"/><path d="M120.696 192.868s.74-.677 2.155-1.625c.706-.494 1.586-1.012 2.61-1.604a43.132 43.132 0 0 1 3.515-1.767c1.315-.58 2.753-1.186 4.31-1.7a37.156 37.156 0 0 1 4.972-1.39c1.75-.393 3.61-.555 5.478-.753 1.877-.136 3.786-.275 5.692-.416 1.914-.073 3.808-.253 5.69-.227 1.885.008 3.727-.034 5.518.13 1.787.14 3.507.172 5.13.46.81.118 1.598.23 2.36.342.762.1 1.493.21 2.19.386l3.79.838c1.118.278 2.072.63 2.86.875l2.46.8-.16.58s-.925-.124-2.538-.347c-.81-.094-1.77-.276-2.893-.384l-3.77-.24c-.684-.065-1.404-.065-2.152-.047-.74.01-1.51.017-2.3.026-1.57-.027-3.238.132-4.948.234-1.71.06-3.474.363-5.26.53-1.788.167-3.593.543-5.394.806-1.796.336-3.58.758-5.323 1.195-1.733.515-3.45.895-5.107 1.32-1.665.375-3.293.657-4.846.924-1.556.244-3.027.5-4.405.68a88.93 88.93 0 0 1-3.787.477c-1.13.134-2.138.22-2.966.292-.836.066-1.495.105-1.95.13l-.704.026-.224-.56zm89.86-162.443s.7.717 1.696 2.104c.512.682 1.06 1.55 1.683 2.55a44.022 44.022 0 0 1 1.876 3.46c.624 1.296 1.27 2.712 1.836 4.256a36.86 36.86 0 0 1 1.55 4.923c.444 1.733.662 3.59.92 5.45l.598 5.68c.132 1.91.374 3.8.406 5.68.05 1.88.154 3.722.04 5.52-.083 1.786-.06 3.51-.297 5.14-.09.815-.18 1.606-.265 2.37a19.594 19.594 0 0 1-.318 2.2l-.72 3.815c-.242 1.128-.56 2.09-.784 2.886l-.727 2.488-.584-.145s.1-.928.27-2.547c.063-.813.22-1.78.295-2.905.033-1.12.073-2.39.118-3.776a18.27 18.27 0 0 0-.023-2.15c-.03-.743-.065-1.51-.097-2.3-.023-1.57-.236-3.232-.39-4.94-.12-1.706-.477-3.46-.7-5.24-.222-1.78-.655-3.573-.972-5.367-.39-1.786-.87-3.555-1.363-5.284-.57-1.715-1.003-3.42-1.482-5.06-.425-1.655-.76-3.272-1.076-4.813-.293-1.55-.594-3.01-.817-4.385a98.344 98.344 0 0 1-.6-3.766c-.17-1.13-.284-2.134-.384-2.96a70.405 70.405 0 0 1-.19-1.943l-.05-.706.55-.24zm179.247-11.47s-.247.972-.91 2.543c-.316.796-.767 1.715-1.295 2.768a43.704 43.704 0 0 1-1.968 3.408c-.78 1.206-1.65 2.502-2.67 3.787a37.452 37.452 0 0 1-3.39 3.896c-1.247 1.285-2.713 2.44-4.168 3.634-1.495 1.146-3.01 2.312-4.527 3.475-1.56 1.11-3.045 2.303-4.635 3.316-1.577 1.03-3.09 2.077-4.68 2.92-1.57.865-3.026 1.78-4.54 2.433-.742.35-1.464.685-2.16 1.01-.69.337-1.366.642-2.044.88-1.33.505-2.547.97-3.626 1.38-1.09.38-2.08.615-2.87.84-1.593.43-2.5.68-2.5.68l-.18-.572 2.31-1.104c.726-.367 1.633-.74 2.628-1.265l3.283-1.87c.61-.32 1.21-.717 1.824-1.145.616-.41 1.255-.843 1.91-1.282 1.33-.842 2.635-1.89 4.007-2.915 1.397-.992 2.704-2.21 4.106-3.33 1.4-1.124 2.703-2.428 4.066-3.635 1.32-1.266 2.575-2.6 3.795-3.92 1.165-1.385 2.39-2.645 3.543-3.91 1.185-1.23 2.387-2.362 3.54-3.434 1.17-1.063 2.255-2.08 3.308-2.988a89.08 89.08 0 0 1 2.903-2.477c.87-.736 1.667-1.36 2.32-1.877.66-.513 1.19-.91 1.558-1.177l.574-.41.493.345zm8.707 217.548c-.002.002-.894-.46-2.277-1.457-.705-.487-1.497-1.13-2.406-1.885a44.638 44.638 0 0 1-2.88-2.68c-1-1.03-2.067-2.17-3.09-3.456a36.88 36.88 0 0 1-3.033-4.176c-.97-1.502-1.77-3.192-2.606-4.88-.783-1.71-1.577-3.447-2.372-5.19-.73-1.77-1.56-3.482-2.19-5.26-.644-1.765-1.328-3.478-1.793-5.213-.487-1.726-1.054-3.353-1.35-4.975-.173-.8-.34-1.578-.5-2.328-.173-.75-.32-1.478-.398-2.19-.193-1.41-.373-2.703-.53-3.847-.128-1.148-.13-2.16-.17-2.985l-.104-2.588.598-.047.557 2.5c.194.79.357 1.756.646 2.845.32 1.08.685 2.293 1.085 3.62.18.662.428 1.34.705 2.034.262.693.54 1.41.82 2.147.523 1.486 1.252 2.993 1.942 4.56.653 1.584 1.547 3.134 2.325 4.75.78 1.618 1.756 3.18 2.627 4.777.938 1.57 1.957 3.095 2.974 4.577 1.082 1.447 2.035 2.927 3.01 4.33.93 1.433 1.76 2.86 2.553 4.222.77 1.375 1.52 2.665 2.167 3.897.66 1.22 1.263 2.35 1.763 3.38a78.815 78.815 0 0 1 2.1 4.47l.276.65-.447.4zM187.573 36.43s.767.117 1.987.515c1.228.397 2.9 1.1 4.743 2.184 1.833 1.094 3.885 2.53 5.73 4.447.905.968 1.747 2.067 2.54 3.225.804 1.15 1.588 2.34 2.373 3.523a61.953 61.953 0 0 1 2.232 3.602 43.08 43.08 0 0 1 1.854 3.668c.54 1.22 1.032 2.41 1.414 3.57a37.56 37.56 0 0 1 .947 3.303c.11.518.212 1.015.312 1.488.07.477.14.93.2 1.357.133.845.15 1.6.205 2.208.008 1.22.015 1.918.015 1.918l-.6.055s-.167-.657-.467-1.802c-.197-.56-.372-1.246-.673-2.01l-.463-1.204c-.187-.415-.382-.853-.586-1.31-.837-1.804-1.992-3.814-3.384-5.85-.696-1.022-1.48-2.03-2.264-3.058a60.008 60.008 0 0 0-2.538-2.994 36.68 36.68 0 0 0-2.808-2.758c-.97-.87-1.938-1.7-2.8-2.575-1.725-1.75-3.17-3.57-4.412-5.176a49.995 49.995 0 0 1-2.887-4.106 28.348 28.348 0 0 1-1.02-1.73l.35-.49zm215.415 179.49s-.768-.107-1.99-.497c-1.233-.38-2.91-1.068-4.77-2.136-1.842-1.077-3.908-2.49-5.768-4.388-.92-.963-1.77-2.055-2.576-3.205-.81-1.142-1.608-2.325-2.406-3.5a62.09 62.09 0 0 1-2.268-3.58 42.81 42.81 0 0 1-1.89-3.647c-.555-1.214-1.057-2.4-1.45-3.56a36.895 36.895 0 0 1-.98-3.29c-.115-.518-.22-1.014-.326-1.485-.076-.477-.147-.93-.213-1.356-.14-.844-.164-1.6-.223-2.204l-.035-1.918.596-.06.487 1.794c.204.557.384 1.245.692 2.002l.477 1.203c.19.412.388.847.596 1.3.857 1.797 2.03 3.797 3.446 5.82.702 1.013 1.5 2.014 2.292 3.03a57.16 57.16 0 0 0 2.57 2.973 35.74 35.74 0 0 0 2.835 2.73c.974.86 1.952 1.68 2.822 2.547 1.745 1.732 3.204 3.54 4.466 5.13 1.257 1.594 2.257 3.02 2.928 4.08a27.38 27.38 0 0 1 1.034 1.72l-.342.494zm-269.536 4.963s.58-.82 1.758-2.054c.58-.633 1.325-1.328 2.198-2.124a44.594 44.594 0 0 1 3.056-2.48c1.158-.85 2.435-1.75 3.848-2.585a36.688 36.688 0 0 1 4.555-2.427c1.62-.755 3.405-1.314 5.192-1.908 1.8-.54 3.63-1.086 5.467-1.633 1.854-.48 3.663-1.063 5.51-1.445 1.838-.393 3.63-.833 5.412-1.055 1.774-.244 3.465-.58 5.112-.65.816-.06 1.61-.12 2.373-.174a18.84 18.84 0 0 1 2.224-.093l3.883.006c1.154.03 2.16.17 2.98.243l2.578.255-.035.598-2.553.206c-.81.084-1.788.11-2.907.247-1.113.17-2.366.36-3.733.574a19.34 19.34 0 0 0-2.113.417l-2.24.518c-1.544.313-3.136.827-4.785 1.294-1.658.428-3.316 1.1-5.024 1.647-1.71.55-3.39 1.3-5.093 1.943-1.686.712-3.336 1.51-4.944 2.314-1.58.872-3.18 1.612-4.704 2.384-1.548.723-3.077 1.35-4.535 1.946-1.467.57-2.85 1.137-4.158 1.606-1.3.487-2.502.928-3.592 1.28a77.222 77.222 0 0 1-2.838.922c-.8.248-1.435.426-1.877.543l-.682.183-.336-.497zm19.768 7.277s.212-.746.767-1.904c.546-1.168 1.46-2.735 2.773-4.428 1.32-1.677 3.007-3.528 5.144-5.108 1.078-.78 2.277-1.47 3.526-2.11 1.244-.645 2.525-1.27 3.798-1.9a61.465 61.465 0 0 1 3.858-1.752 42.557 42.557 0 0 1 3.875-1.367c1.28-.38 2.525-.715 3.726-.944a36.375 36.375 0 0 1 3.394-.515c.53-.043 1.035-.08 1.516-.12.482-.01.94-.016 1.37-.023.857-.024 1.607.057 2.215.08 1.214.148 1.906.23 1.906.23l-.02.6-1.846.234c-.583.126-1.288.21-2.08.41-.396.097-.816.198-1.258.307-.434.13-.893.266-1.37.41-1.898.6-4.04 1.487-6.24 2.61-1.1.555-2.2 1.206-3.317 1.852-1.11.67-2.22 1.377-3.3 2.132a36.096 36.096 0 0 0-3.094 2.434c-.984.846-1.93 1.7-2.91 2.442-1.955 1.49-3.947 2.686-5.7 3.716-1.75 1.024-3.297 1.818-4.443 2.335-1.133.525-1.844.786-1.844.786l-.443-.405zM20.2 179.297l8.848-7.09.246 11.333 9.474 6.225-10.702 3.734-2.99 10.936-6.86-9.027-11.325.535 6.466-9.314-4.008-10.603 10.853 3.27zm30.802 42.893l4.576 4.36-6.244.98-2.736 5.698-2.86-5.636-6.265-.84 4.478-4.46-1.136-6.22 5.627 2.877 5.56-3.005-.997 6.244zm16.1-134.272l-4.783-4.13 6.187-1.286 2.45-5.828 3.135 5.488 6.3.53-4.25 4.676 1.44 6.155-5.762-2.596-5.403 3.272.686-6.283zM133.2 73.87l-.587-9.674 8.035 5.42 9.02-3.55-2.67 9.315 6.16 7.48-9.686.343-5.206 8.17-3.32-9.105-9.38-2.43 7.634-5.966z" fill-rule="nonzero"/><path d="M451.884 663.484c2.4.544 4.376.664 5.928.36 1.552-.304 2.888-.792 4.008-1.464 1.408-.896 2.72-2.336 3.936-4.32 1.216-1.984 2.344-4.448 3.384-7.392s2.008-6.352 2.904-10.224c.896-3.872 1.744-8.16 2.544-12.864.096-.416.152-.776.168-1.08a1.827 1.827 0 0 0-.144-.84 2.3 2.3 0 0 0-.552-.744c-.256-.24-.624-.52-1.104-.84a18.54 18.54 0 0 0-3.144-1.536 32.133 32.133 0 0 0-3.192-1.056c-.992-.256-1.752-.28-2.28-.072-.528.208-.888.792-1.08 1.752a406.063 406.063 0 0 1-1.032 6.768c-.4 2.496-.84 5.032-1.32 7.608a223.35 223.35 0 0 1-1.536 7.536c-.544 2.448-1.12 4.624-1.728 6.528-.608 1.904-1.232 3.432-1.872 4.584-.64 1.152-1.296 1.712-1.968 1.68-.768-.096-1.248-.504-1.44-1.224-.192-.72-.352-1.88-.48-3.48-.096-2.496-2.016-4.496-5.76-6-1.12-.512-1.928-.504-2.424.024s-.84 1.352-1.032 2.472c-.192 1.472-.24 2.776-.144 3.912a9.27 9.27 0 0 0 .912 3.288c.32.736.704 1.44 1.152 2.112a9.175 9.175 0 0 0 1.68 1.872 11.252 11.252 0 0 0 2.376 1.536c.912.448 1.992.816 3.24 1.104zm43.488-9.696c.096 1.312.192 2.52.288 3.624a61.25 61.25 0 0 0 .336 3.048c.128.896.344 1.52.648 1.872.304.352.84.64 1.608.864a8.282 8.282 0 0 0 2.16.456 34.03 34.03 0 0 0 2.304.072c.832 0 1.368-.112 1.608-.336.24-.224.36-.624.36-1.2-.032-2.752-.04-5.736-.024-8.952a640.7 640.7 0 0 1 .12-9.624c.064-3.2.16-6.272.288-9.216.128-2.944.288-5.552.48-7.824.096-.928.008-1.68-.264-2.256-.272-.576-.904-1.04-1.896-1.392-.736-.192-1.464-.4-2.184-.624a30.932 30.932 0 0 0-2.352-.624 34.58 34.58 0 0 0-2.808-.504 39.082 39.082 0 0 0-3.504-.312c-1.504-.128-2.64.08-3.408.624a6.286 6.286 0 0 0-1.872 2.112c-1.344 2.4-2.76 5.144-4.248 8.232a389.12 389.12 0 0 0-4.368 9.384 335.75 335.75 0 0 0-3.984 9.216c-1.232 2.976-2.232 5.568-3 7.776-.192.672-.28 1.208-.264 1.608.016.4.104.728.264.984.16.256.384.472.672.648.288.176.624.392 1.008.648a25.02 25.02 0 0 0 1.512.696c.496.208.952.392 1.368.552.736.256 1.288.336 1.656.24.368-.096.68-.416.936-.96a400.92 400.92 0 0 1 1.392-3.144 73.532 73.532 0 0 1 1.68-3.48c1.824-.48 3.928-.888 6.312-1.224a970.18 970.18 0 0 1 7.176-.984zm-9.168-6.72c1.504-3.04 3-5.976 4.488-8.808a506.104 506.104 0 0 1 4.152-7.752 208.04 208.04 0 0 0-.048 7.752c.032 2.608.08 5.224.144 7.848a99.46 99.46 0 0 0-8.736.96zm57.216-18.672c.288-.704.424-1.328.408-1.872a2.855 2.855 0 0 0-.456-1.488c-.288-.448-.688-.856-1.2-1.224a16.995 16.995 0 0 0-1.728-1.08 15.49 15.49 0 0 0-1.8-.984 6.32 6.32 0 0 0-1.68-.528c-.528-.08-1-.016-1.416.192-.416.208-.752.6-1.008 1.176a1803.69 1803.69 0 0 0-6.024 15.312c-2 5.152-4.056 10.048-6.168 14.688-.352-2.336-.68-4.696-.984-7.08a609.08 609.08 0 0 1-.84-6.888c-.256-2.208-.504-4.304-.744-6.288s-.456-3.76-.648-5.328c-.288-2.048-1.488-3.456-3.6-4.224a11.485 11.485 0 0 0-2.472-.72 15.976 15.976 0 0 0-2.568-.192c-.96 0-1.544.176-1.752.528-.208.352-.28.96-.216 1.824.704 6.56 1.496 12.584 2.376 18.072.88 5.488 1.88 10.424 3 14.808.192.768.6 1.608 1.224 2.52.624.912 1.528 1.64 2.712 2.184 1.056.512 2.064.928 3.024 1.248.96.32 2 .64 3.12.96 1.12.288 1.984.328 2.592.12.608-.208 1.136-.696 1.584-1.464.704-1.312 1.504-2.88 2.4-4.704.896-1.824 1.84-3.776 2.832-5.856.992-2.08 1.984-4.224 2.976-6.432s1.936-4.36 2.832-6.456a243.368 243.368 0 0 0 2.448-5.928c.736-1.856 1.328-3.488 1.776-4.896zm19.968 25.392c.096 1.312.192 2.52.288 3.624a61.25 61.25 0 0 0 .336 3.048c.128.896.344 1.52.648 1.872.304.352.84.64 1.608.864a8.282 8.282 0 0 0 2.16.456 34.03 34.03 0 0 0 2.304.072c.832 0 1.368-.112 1.608-.336.24-.224.36-.624.36-1.2-.032-2.752-.04-5.736-.024-8.952a640.7 640.7 0 0 1 .12-9.624c.064-3.2.16-6.272.288-9.216.128-2.944.288-5.552.48-7.824.096-.928.008-1.68-.264-2.256-.272-.576-.904-1.04-1.896-1.392-.736-.192-1.464-.4-2.184-.624a30.932 30.932 0 0 0-2.352-.624 34.58 34.58 0 0 0-2.808-.504 39.082 39.082 0 0 0-3.504-.312c-1.504-.128-2.64.08-3.408.624a6.286 6.286 0 0 0-1.872 2.112c-1.344 2.4-2.76 5.144-4.248 8.232a389.12 389.12 0 0 0-4.368 9.384 335.75 335.75 0 0 0-3.984 9.216c-1.232 2.976-2.232 5.568-3 7.776-.192.672-.28 1.208-.264 1.608.016.4.104.728.264.984.16.256.384.472.672.648.288.176.624.392 1.008.648a25.02 25.02 0 0 0 1.512.696c.496.208.952.392 1.368.552.736.256 1.288.336 1.656.24.368-.096.68-.416.936-.96a400.92 400.92 0 0 1 1.392-3.144 73.532 73.532 0 0 1 1.68-3.48c1.824-.48 3.928-.888 6.312-1.224a970.18 970.18 0 0 1 7.176-.984zm-9.168-6.72c1.504-3.04 3-5.976 4.488-8.808a506.104 506.104 0 0 1 4.152-7.752 208.04 208.04 0 0 0-.048 7.752c.032 2.608.08 5.224.144 7.848a99.46 99.46 0 0 0-8.736.96zm19.632 6.24c-.608.352-.912.832-.912 1.44.064.576.784 1.456 2.16 2.64 2.592 2.4 5.104 4.088 7.536 5.064 2.432.976 4.928 1.432 7.488 1.368 1.92-.032 3.568-.272 4.944-.72 1.376-.448 2.544-1 3.504-1.656.96-.656 1.728-1.368 2.304-2.136.576-.768 1.024-1.488 1.344-2.16.512-.928.68-1.8.504-2.616-.176-.816-.592-1.6-1.248-2.352-.656-.752-1.488-1.48-2.496-2.184a86.39 86.39 0 0 0-3.216-2.136 137.774 137.774 0 0 1-3.408-2.232 25.444 25.444 0 0 1-3.096-2.448c-.736-.64-1.2-1.376-1.392-2.208a6.187 6.187 0 0 1-.048-2.544 8.9 8.9 0 0 1 .936-2.592c.464-.864.992-1.664 1.584-2.4a16.828 16.828 0 0 1 1.848-1.968c.64-.576 1.216-1.008 1.728-1.296.608-.416 1.04-.592 1.296-.528.256.064.408.304.456.72.048.416.008.952-.12 1.608-.128.656-.28 1.344-.456 2.064l-.528 2.16c-.176.72-.28 1.352-.312 1.896-.32 2.656 1.696 4.752 6.048 6.288.736.288 1.312.352 1.728.192.416-.16.8-.56 1.152-1.2a24.46 24.46 0 0 0 1.056-2.496c.352-.96.672-1.96.96-3a58.22 58.22 0 0 0 .768-3.096 27.61 27.61 0 0 0 .48-2.832c0-.48-.008-.984-.024-1.512a7.807 7.807 0 0 0-.24-1.656 6.997 6.997 0 0 0-.72-1.752c-.336-.592-.824-1.176-1.464-1.752-.96-.928-2.16-1.76-3.6-2.496a35.98 35.98 0 0 0-4.32-1.872c-.96-.288-1.88-.456-2.76-.504a11.018 11.018 0 0 0-2.448.12 8.454 8.454 0 0 0-2.04.6 9.598 9.598 0 0 0-1.536.84 22.33 22.33 0 0 0-3.408 2.592 27.302 27.302 0 0 0-3.072 3.312 27.214 27.214 0 0 0-2.424 3.648c-.688 1.248-1.176 2.416-1.464 3.504-.416 1.28-.608 2.512-.576 3.696.032 1.184.24 2.296.624 3.336s.92 2 1.608 2.88c.688.88 1.464 1.672 2.328 2.376.8.672 1.688 1.328 2.664 1.968.976.64 1.952 1.264 2.928 1.872.976.608 1.904 1.192 2.784 1.752.88.56 1.616 1.072 2.208 1.536.592.464.992.888 1.2 1.272.208.384.136.688-.216.912-.896.704-2.344.816-4.344.336-2-.48-4.344-1.536-7.032-3.168a5.92 5.92 0 0 0-1.608-.744 8.806 8.806 0 0 0-1.872-.336 7.893 7.893 0 0 0-1.944.096 9.57 9.57 0 0 0-1.824.504z" fill="#ed1c24" fill-rule="nonzero" stroke-width="4.28" stroke="#000" transform="matrix(.98083 -.19485 .21407 1.07758 -447.095 -437.677)"/><path d="M629.436 652.78c-3.04-.864-5.504-.336-7.392 1.584-2.624 2.688-4.576 3.824-5.856 3.408-.672-.192-1.184-.736-1.536-1.632-.352-.896-.56-1.992-.624-3.288-.064-1.296.008-2.736.216-4.32s.52-3.176.936-4.776c.448-1.536 1.064-3.2 1.848-4.992a42.755 42.755 0 0 1 2.52-4.92c.896-1.488 1.776-2.696 2.64-3.624.864-.928 1.616-1.296 2.256-1.104.64.256 1.024.8 1.152 1.632.128.832.176 1.76.144 2.784 0 .576.048 1.2.144 1.872.128.8.336 1.504.624 2.112a5.48 5.48 0 0 0 1.152 1.608c.48.464 1.088.864 1.824 1.2.736.336 1.616.6 2.64.792.544.096.976.128 1.296.096.32-.032.568-.112.744-.24.176-.128.312-.304.408-.528.096-.224.192-.464.288-.72.192-.576.368-1.224.528-1.944.16-.72.288-1.472.384-2.256.096-.784.168-1.576.216-2.376.048-.8.056-1.568.024-2.304-.032-.64-.096-1.24-.192-1.8a6.265 6.265 0 0 0-.504-1.608 7.464 7.464 0 0 0-.96-1.512c-.4-.496-.904-1-1.512-1.512-.64-.416-1.36-.824-2.16-1.224s-1.648-.768-2.544-1.104a25.615 25.615 0 0 0-2.784-.864 20.49 20.49 0 0 0-2.784-.504c-1.216-.096-2.512.032-3.888.384s-2.736 1.104-4.08 2.256a25.76 25.76 0 0 0-4.44 5.016 36.602 36.602 0 0 0-3.336 6.072 38.903 38.903 0 0 0-2.184 6.6c-.528 2.256-.84 4.448-.936 6.576-.096 2.128.024 4.128.36 6 .336 1.872.92 3.496 1.752 4.872.48.896 1.152 1.68 2.016 2.352.864.672 1.728 1.184 2.592 1.536.96.32 2.048.664 3.264 1.032 1.216.368 2.576.6 4.08.696.704.064 1.432.064 2.184 0a15.23 15.23 0 0 0 2.16-.336c.688-.16 1.344-.368 1.968-.624.624-.256 1.16-.528 1.608-.816.896-.64 1.792-1.44 2.688-2.4a13.42 13.42 0 0 0 2.208-3.168c.544-.992.792-1.824.744-2.496-.048-.672-.68-1.168-1.896-1.488zm16.752-1.152a37.246 37.246 0 0 0 2.784 3.048 102.465 102.465 0 0 0 3.072 2.904 63.803 63.803 0 0 0 2.976 2.544c.96.768 1.808 1.408 2.544 1.92 1.12.672 2.104 1.048 2.952 1.128.848.08 1.624.024 2.328-.168a47.256 47.256 0 0 0 1.464-.264c.4-.08.888-.344 1.464-.792.48-.352.752-.688.816-1.008.064-.32-.224-.752-.864-1.296-.8-.64-1.656-1.392-2.568-2.256a146.446 146.446 0 0 1-5.472-5.472c-.88-.928-1.688-1.808-2.424-2.64 3.584-1.6 6.664-3.328 9.24-5.184 2.576-1.856 4.424-3.888 5.544-6.096.736-1.376.896-3.136.48-5.28-.512-2.016-1.224-3.72-2.136-5.112a30.163 30.163 0 0 0-3.048-3.912c-1.408-1.376-3.048-2.216-4.92-2.52-1.872-.304-3.856-.272-5.952.096s-4.224.984-6.384 1.848c-2.16.864-4.232 1.744-6.216 2.64-.416.224-.816.792-1.2 1.704-.384.912-.736 2.064-1.056 3.456a77.565 77.565 0 0 0-.912 4.704 155.744 155.744 0 0 0-.792 5.4c-.24 1.856-.464 3.712-.672 5.568a406.997 406.997 0 0 0-.96 9.552c-.112 1.28-.2 2.256-.264 2.928-.064.832.016 1.496.24 1.992.224.496.64.92 1.248 1.272.608.32 1.248.544 1.92.672.672.128 1.44.304 2.304.528.736.16 1.24.16 1.512 0s.488-.496.648-1.008c.352-1.728.712-3.488 1.08-5.28.368-1.792.776-3.664 1.224-5.616zm5.136-19.488c1.248-.608 2.432-1.024 3.552-1.248 1.12-.224 2.144-.336 3.072-.336 1.888 0 3.024.448 3.408 1.344.192.544.032 1.312-.48 2.304-.512.992-1.344 2.04-2.496 3.144s-2.584 2.192-4.296 3.264c-1.712 1.072-3.672 1.976-5.88 2.712a227.492 227.492 0 0 0 1.632-5.952c.48-1.856.976-3.6 1.488-5.232zm33.504-7.392c-.864-.576-1.872-1.12-3.024-1.632-1.152-.512-2.224-.896-3.216-1.152-.992-.288-1.736-.328-2.232-.12-.496.208-.888.776-1.176 1.704a228.813 228.813 0 0 0-2.376 11.616c-.4 2.24-.792 4.528-1.176 6.864-.384 2.336-.728 4.56-1.032 6.672-.304 2.112-.56 4.056-.768 5.832-.208 1.776-.344 3.224-.408 4.344-.096.832-.024 1.48.216 1.944.24.464.728.872 1.464 1.224.672.352 1.384.64 2.136.864.752.224 1.544.448 2.376.672.832.192 1.384.208 1.656.048.272-.16.488-.512.648-1.056.288-1.44.632-3.08 1.032-4.92.4-1.84.84-3.792 1.32-5.856.48-2.064.976-4.176 1.488-6.336s1.032-4.272 1.56-6.336a228.34 228.34 0 0 1 3.048-10.824c.224-.864.248-1.52.072-1.968-.176-.448-.712-.976-1.608-1.584zm11.424 27.792a67.905 67.905 0 0 0 5.832-1.848 54.37 54.37 0 0 0 5.64-2.424 44.498 44.498 0 0 0 4.968-2.88c1.52-1.024 2.824-2.08 3.912-3.168a24.43 24.43 0 0 0 1.848-2.064 11.59 11.59 0 0 0 1.392-2.208 8.01 8.01 0 0 0 .72-2.448c.112-.864.056-1.792-.168-2.784-.512-2.016-1.224-3.72-2.136-5.112a32.876 32.876 0 0 0-3-3.912 7.797 7.797 0 0 0-3.288-1.896c-1.264-.368-2.632-.536-4.104-.504-1.472.032-3 .232-4.584.6-1.584.368-3.16.832-4.728 1.392a52.325 52.325 0 0 0-4.56 1.872 95.666 95.666 0 0 0-4.032 1.992c-.32.16-.6.952-.84 2.376s-.456 3.192-.648 5.304a502.002 502.002 0 0 0-.576 6.912c-.192 2.496-.384 4.904-.576 7.224-.192 2.32-.408 4.392-.648 6.216-.24 1.824-.504 3.12-.792 3.888-.192.832-.136 1.504.168 2.016.304.512.76.936 1.368 1.272a9.16 9.16 0 0 0 2.088.816c.784.208 1.592.424 2.424.648.832.16 1.392.16 1.68 0 .288-.16.512-.496.672-1.008.256-1.632.552-3.296.888-4.992.336-1.696.696-3.456 1.08-5.28zm2.064-9.024c.48-2.016.952-3.952 1.416-5.808.464-1.856.952-3.648 1.464-5.376a19.68 19.68 0 0 1 3.48-1.152c1.136-.256 2.16-.4 3.072-.432.912-.032 1.664.056 2.256.264.592.208.936.504 1.032.888.256.704.16 1.568-.288 2.592-.448 1.024-1.216 2.088-2.304 3.192-1.088 1.104-2.48 2.176-4.176 3.216-1.696 1.04-3.68 1.912-5.952 2.616zm53.856-14.352c.992-.064 1.576-.232 1.752-.504.176-.272.168-.776-.024-1.512a14.66 14.66 0 0 0-.96-2.544 10.754 10.754 0 0 0-1.584-2.4c-.32-.416-.696-.712-1.128-.888-.432-.176-1.144-.264-2.136-.264a162.91 162.91 0 0 0-6.408.36 251.186 251.186 0 0 0-14.592 1.512c-2.384.32-4.52.672-6.408 1.056-.608.16-1.008.36-1.2.6-.192.24-.096.728.288 1.464.352.704.808 1.568 1.368 2.592s1.176 1.872 1.848 2.544c.64.672 1.216 1.08 1.728 1.224.512.144 1.168.12 1.968-.072.576-.16 1.296-.296 2.16-.408.864-.112 1.76-.248 2.688-.408-.48 2.176-.96 4.536-1.44 7.08-.48 2.544-.92 5.064-1.32 7.56a231.85 231.85 0 0 0-1.032 7.104c-.288 2.24-.48 4.128-.576 5.664-.128.608-.112 1.128.048 1.56.16.432.424.808.792 1.128.368.32.824.592 1.368.816.544.224 1.152.432 1.824.624.672.192 1.28.368 1.824.528.544.16 1.024.248 1.44.264.416.016.744-.048.984-.192.24-.144.392-.44.456-.888a283.05 283.05 0 0 1 1.56-7.536 524.585 524.585 0 0 1 1.896-8.28 734.983 734.983 0 0 1 2.088-8.568l2.088-8.352c1.568-.16 3.088-.312 4.56-.456 1.472-.144 2.832-.28 4.08-.408z" fill="#ed1c24" fill-rule="nonzero" stroke-width="4.28" stroke="#000" transform="matrix(.98083 -.19485 .21407 1.07758 -447.095 -437.677)"/></svg>