<svg viewBox="0 0 278 357" xmlns="http://www.w3.org/2000/svg" fill-rule="evenodd" clip-rule="evenodd" stroke-linejoin="round" stroke-miterlimit="1.414"><path fill="#6d6e70" fill-rule="nonzero" d="M129.595 167.825h79.917v51.48h-79.917z"/><path d="M250.62 204.47h-65.793a4.436 4.436 0 0 0-4.436 4.438v38.974h74.667v-38.974a4.437 4.437 0 0 0-4.437-4.437" fill="#404041" fill-rule="nonzero"/><path d="M250.62 207.51h-65.793a1.4 1.4 0 0 0-1.397 1.398v35.936h68.588v-35.936a1.4 1.4 0 0 0-1.398-1.398" fill="#58595b" fill-rule="nonzero"/><path fill="#6d6e70" fill-rule="nonzero" d="M106.92 167.825h19.388v51.48H106.92z"/><path fill="#e5e6e7" fill-rule="nonzero" d="M108.866 171.443h15.876v1.233h-15.876zM133.784 171.443h4.23v1.233h-4.23zM130.866 171.443h1.044v1.233h-1.044zM133.783 174.352h18.398v1.232h-18.397zM130.866 174.352h1.044v1.232h-1.044zM133.783 177.262h14.955v1.232h-14.955zM130.866 177.262h1.044v1.232h-1.044zM133.783 180.17h22.47v1.234h-22.47zM130.866 180.17h1.044v1.234h-1.044zM133.783 183.08h28.27v1.233h-28.27zM130.866 183.08h1.044v1.233h-1.044zM130.866 185.99h1.044v1.233h-1.044zM130.866 188.9h1.044v1.233h-1.044zM133.784 191.81h35.355v1.232h-35.356zM130.866 191.81h1.044v1.232h-1.044zM133.783 194.72h24.537v1.23h-24.537zM130.866 194.72h1.044v1.23h-1.044zM133.783 197.628h19.565v1.233h-19.565zM130.866 197.628h1.044v1.233h-1.044zM133.783 200.538h27.868v1.233h-27.867zM130.866 200.538h1.044v1.233h-1.044zM133.783 203.448h23.21v1.232h-23.21zM130.866 203.448h1.044v1.232h-1.044zM133.783 206.357h46.608v1.233h-46.607zM130.866 206.357h1.044v1.233h-1.044zM133.783 209.266h8.46v1.233h-8.46zM130.866 209.266h1.044v1.233h-1.044zM133.783 212.176h17.678v1.232h-17.677zM130.866 212.176h1.044v1.232h-1.044zM133.783 215.085h1.308v1.233h-1.307zM130.866 215.085h1.044v1.233h-1.044zM108.866 174.352h15.876v1.232h-15.876zM108.866 177.262h15.876v1.232h-15.876zM108.866 180.17h15.876v1.234h-15.876zM108.866 183.08h15.876v1.233h-15.876zM108.866 185.99h15.876v1.233h-15.876zM108.866 188.9h15.876v1.233h-15.876zM108.866 191.81h15.876v1.232h-15.876zM108.866 194.72h15.876v1.23h-15.876zM108.866 197.628h15.876v1.233h-15.876zM108.866 200.538h15.876v1.233h-15.876zM108.866 203.448h15.876v1.232h-15.876zM108.866 206.357h15.876v1.233h-15.876zM108.866 209.266h15.876v1.233h-15.876zM108.866 212.176h15.876v1.232h-15.876zM108.866 215.085h15.876v1.233h-15.876zM205.53 223.543l-10.355 4.276 10.354 4.246v3.432l-14.632-6.225v-2.908l14.63-6.254v3.433zM220.26 215.284h3.257l-6.108 21.784h-3.2l6.05-21.784zM232.163 232.066l10.354-4.275-10.354-4.247v-3.432l14.632 6.255v2.88l-14.632 6.253v-3.432z"/><path fill="#6d6e70" fill-rule="nonzero" d="M6.238 185.782h11.818v36.563H6.238zM20.06 185.782h48.717v36.563H20.06z"/><path fill="#e5e6e7" fill-rule="nonzero" d="M7.424 188.352h9.678v.876H7.424zM22.613 188.352h2.58v.876h-2.58zM20.836 188.352h.636v.876h-.636zM22.613 190.418H33.83v.876H22.612zM20.836 190.418h.636v.876h-.636zM22.613 192.484h9.116v.876h-9.117zM20.836 192.484h.636v.876h-.636zM22.613 194.55H36.31v.877H22.614zM20.836 194.55h.636v.877h-.636zM22.614 196.617h17.233v.876H22.614zM20.836 196.617h.636v.876h-.636zM20.836 198.684h.636v.876h-.636zM20.836 200.75h.636v.876h-.636zM22.613 202.816h21.553v.876H22.613zM20.836 202.816h.636v.876h-.636zM22.613 204.883H37.57v.876H22.614zM20.836 204.883h.636v.876h-.636zM22.613 206.95H34.54v.875H22.613zM20.836 206.95h.636v.875h-.636zM22.613 209.016H39.6v.876H22.614zM20.836 209.016h.636v.876h-.636zM22.614 211.082h14.15v.876h-14.15zM20.836 211.082h.636v.876h-.636zM22.613 213.148h28.412v.876H22.613zM20.836 213.148h.636v.876h-.636zM22.613 215.215h5.158v.876h-5.157zM20.836 215.215h.636v.876h-.636zM22.613 217.28H33.39v.877H22.612zM20.836 217.28h.636v.877h-.636zM22.613 219.348h.798v.876h-.797zM20.836 219.348h.636v.876h-.636zM7.424 190.418h9.678v.876H7.424zM7.424 192.484h9.678v.876H7.424zM7.424 194.55h9.678v.877H7.424zM7.424 196.617h9.678v.876H7.424zM7.424 198.684h9.678v.876H7.424zM7.424 200.75h9.678v.876H7.424zM7.424 202.816h9.678v.876H7.424zM7.424 204.883h9.678v.876H7.424zM7.424 206.95h9.678v.875H7.424zM7.424 209.016h9.678v.876H7.424zM7.424 211.082h9.678v.876H7.424zM7.424 213.148h9.678v.876H7.424zM7.424 215.215h9.678v.876H7.424zM7.424 217.28h9.678v.877H7.424zM7.424 219.348h9.678v.876H7.424z"/><path fill="#404041" fill-rule="nonzero" d="M48.496 193.644h37.348v20.096H48.496z"/><path fill="#e5e6e7" fill-rule="nonzero" d="M53.508 198.877h2.578v.875h-2.578zM53.507 200.943h11.215v.875H53.507zM48.496 194.986h37.348v.875H48.496zM53.508 203.01h9.116v.875h-9.116zM53.508 205.076h13.697v.875H53.508zM53.508 207.143H70.74v.875H53.51z"/></svg>