<svg viewBox="0 0 61 89" xmlns="http://www.w3.org/2000/svg" fill-rule="evenodd" clip-rule="evenodd" stroke-linejoin="round" stroke-miterlimit="1.414"><path fill="#fff7e2" fill-rule="nonzero" d="M0 0h60.396v88.775H0z"/><path d="M49.286 33.592c0 11.696-9.48 21.177-21.178 21.177-11.695 0-21.176-9.483-21.176-21.18 0-11.695 9.48-21.176 21.176-21.176 11.697 0 21.178 9.48 21.178 21.177" fill="#56c3ee" fill-rule="nonzero"/><path fill="#ffd144" fill-rule="nonzero" d="M9.456 48.936H28.11V67.59H9.455z"/><path d="M53.18 33.592V62.98H18.782L53.18 33.592z" fill="#e060a1" fill-rule="nonzero"/><path d="M58.786 2.257a1.07 1.07 0 1 1-2.138 0 1.07 1.07 0 0 1 2.138 0m-55.312 0a1.07 1.07 0 1 1-2.138 0 1.07 1.07 0 0 1 2.138 0m0 84.04a1.07 1.07 0 1 1-2.14 0 1.07 1.07 0 0 1 2.14 0m55.312 0a1.07 1.07 0 1 1-2.14 0 1.07 1.07 0 0 1 2.14 0" fill="#56c3ee" fill-rule="nonzero"/></svg>