<?xml version="1.0" standalone="no"?>
<!DOCTYPE svg PUBLIC "-//W3C//DTD SVG 1.1//EN" "http://www.w3.org/Graphics/SVG/1.1/DTD/svg11.dtd">
<svg width="100%" height="100%" viewBox="0 0 308 239" version="1.1" xmlns="http://www.w3.org/2000/svg" xmlns:xlink="http://www.w3.org/1999/xlink" xml:space="preserve" style="fill-rule:evenodd;clip-rule:evenodd;stroke-linejoin:round;stroke-miterlimit:1.41421;">
    <g transform="matrix(1,0,0,1,-463.59,-39.2598)">
        <path d="M710.31,165.909L733.54,206.039L705.531,188.559L696.991,204L682.281,201.779L680.26,201.479L680.26,236.26L666.6,202.449L646.56,185.55L648.741,213.399L625.56,193.869L612.571,226.559L606.941,188.75L596.901,201.109L588.68,189.909L555.121,218.109L561.951,203.939L552.231,183.189L533.75,195.029L533.75,184.18L512.81,199.779L496.901,198.229L518.38,170.09L494.121,160.059L521.831,145.479L491.59,127.409L522.18,127.409L525.581,111.51L538.34,114.229L529.281,96.479L546.51,105.819L570.05,109.619L563.02,89.22L582.81,98.92L591.84,90.96L598.081,102.55L610.331,95.979L609.04,121.479L635.401,65.18L635.76,106.279L653.52,88.55L653.52,100.21L665.481,98.819L662.13,114.829L686.42,102.949L683.831,112.449L699.691,116.779L693.59,141.26L720.901,124.979L707.13,147.13L727.741,155.279L710.31,165.909Z" style="fill:rgb(237,28,36);fill-rule:nonzero;"/>
        <path d="M759.69,215.319L760.719,215.619L760.08,215.979L759.69,215.319Z" style="fill:black;fill-rule:nonzero;"/>
        <path d="M746.9,220.569L747.5,221.46L745.839,221.079L746.9,220.569Z" style="fill:black;fill-rule:nonzero;"/>
        <path d="M760.08,215.98L747.05,223.26L746.1,223.8L745.39,222.88L737.29,212.39L743.43,216.22L739.98,210.26L746.9,220.57L745.84,221.08L747.5,221.46L746.9,220.57L760,214.32L760.71,213.98L761.04,214.62L771.3,234.65L760.08,215.98L760.72,215.62L759.69,215.32L760.08,215.98Z" style="fill:black;fill-rule:nonzero;"/>
        <path d="M744.66,113L744.87,113.489L744.18,113.329L744.66,113Z" style="fill:black;fill-rule:nonzero;"/>
        <path d="M739.981,210.26L743.43,216.22L737.291,212.39L737.06,212.09L739.92,210.17L739.981,210.26Z" style="fill:black;fill-rule:nonzero;"/>
        <path d="M738.42,103.1L737.63,101.579L739.29,101.69L738.42,103.1Z" style="fill:black;fill-rule:nonzero;"/>
        <path d="M739.35,100.81L744.661,113L744.18,113.33L744.871,113.49L744.661,113L754.89,105.99L744.731,114.02L744.3,114.36L744.04,113.86L738.42,103.1L739.29,101.69L737.63,101.58L738.42,103.1L731.161,114.92L724.81,118.7L737.691,100.7L738.691,99.3L739.35,100.81Z" style="fill:black;fill-rule:nonzero;"/>
        <path d="M731.16,114.92L727.53,120.819L724.59,119.01L724.809,118.699L731.16,114.92Z" style="fill:black;fill-rule:nonzero;"/>
        <path d="M703.87,253.789L702.92,253.079L703.15,253.8L683.75,254.17L683.75,250.5L703.92,251.88L704.68,251.93L704.83,252.59L710.57,277.439L703.15,253.8L703.87,253.789Z" style="fill:black;fill-rule:nonzero;"/>
        <path d="M702.92,253.079L703.87,253.789L703.15,253.8L702.92,253.079Z" style="fill:black;fill-rule:nonzero;"/>
        <path d="M698.39,78.319L698.861,77.929L698.75,78.219L698.39,78.319Z" style="fill:black;fill-rule:nonzero;"/>
        <path d="M698.8,76.869L698.8,77.68L697.64,77.659L697.66,77.25L697.74,77.079L698.05,77.019L698.8,76.869Z" style="fill:black;fill-rule:nonzero;"/>
        <path d="M697.64,77.659L698.8,77.68L698.8,76.869L714.13,73.829L698.75,78.22L698.861,77.93L698.39,78.319L698.75,78.22L691.59,97.21L691.77,96.559L687.361,98.72L697.58,77.409L697.661,77.25L697.64,77.659Z" style="fill:black;fill-rule:nonzero;"/>
        <path d="M697.66,77.25L698.72,52.71L698.8,76.869L698.05,77.02L697.74,77.079L697.66,77.25Z" style="fill:black;fill-rule:nonzero;"/>
        <path d="M691.77,96.56L691.59,97.21L690.39,100.4L687.17,99.11L687.361,98.72L691.77,96.56Z" style="fill:black;fill-rule:nonzero;"/>
        <path d="M682.28,201.779L696.99,204L705.53,188.559L733.54,206.039L710.309,165.909L727.74,155.279L707.13,147.13L720.9,124.979L693.59,141.259L699.69,116.779L683.83,112.449L686.42,102.949L662.13,114.829L665.48,98.819L653.519,100.21L653.519,88.55L635.759,106.279L635.4,65.179L609.04,121.479L610.33,95.979L598.08,102.55L591.84,90.96L582.809,98.92L563.019,89.219L570.05,109.619L546.509,105.819L529.28,96.479L538.34,114.229L525.58,111.509L522.179,127.409L491.59,127.409L521.83,145.479L494.12,160.059L518.38,170.09L496.9,198.229L512.809,199.779L533.75,184.179L533.75,195.029L552.23,183.189L561.95,203.939L555.12,218.109L588.679,189.909L596.9,201.109L606.94,188.75L612.57,226.559L625.559,193.869L648.74,213.399L646.559,185.55L666.599,202.449L680.259,236.259L680.259,201.479L682.28,201.779ZM681.74,205.109L683.75,205.409L683.75,254.17L663.67,204.439L650.679,193.5L652.86,221.34L627.03,199.579L613.5,233.639L613.46,233.009L610.07,233.409L604.65,197.029L596.759,206.75L588.059,194.899L545.05,231.029L558.11,203.92L550.74,188.179L530.259,201.309L530.259,191.029L513.84,203.269L493.21,201.259L492.66,198.109L512.96,171.519L486.13,160.42L514.889,145.289L479.32,124.05L519.34,124.05L522.88,107.489L532,109.429L521.179,88.219L547.69,102.599L564.91,105.38L558.32,86.259L558.469,86.579L561.59,85.079L561.32,84.609L582.24,94.859L592.84,85.519L599.519,97.92L614.12,90.09L613.42,103.949L635.389,57.019L635.33,57.42L638.82,57.599L639.179,98.029L657.009,80.229L657.009,96.409L669.86,94.92L666.98,108.679L687.36,98.719L687.17,99.109L690.389,100.399L691.59,97.21L688.08,110.099L703.87,114.409L698.96,134.099L724.809,118.699L724.59,119.009L727.53,120.819L731.16,114.92L731.269,114.849L712.21,145.5L735.33,154.639L714.969,167.05L739.98,210.259L739.92,210.17L737.059,212.09L737.29,212.389L706.82,193.369L698.9,207.699L683.75,205.409L683.75,203.449L682.009,203.449L681.74,205.109Z" style="fill:black;fill-rule:nonzero;"/>
        <path d="M683.75,205.409L681.74,205.109L682.01,203.449L683.75,203.449L683.75,205.409Z" style="fill:black;fill-rule:nonzero;"/>
        <path d="M638.82,57.579L638.519,50.329L638.75,49.84L638.82,57.579Z" style="fill:black;fill-rule:nonzero;"/>
        <path d="M638.52,50.329L638.821,57.579L638.821,57.6L635.331,57.42L635.39,57.019L638.52,50.329Z" style="fill:black;fill-rule:nonzero;"/>
        <path d="M638.07,39.26L638.519,50.329L635.389,57.02L638.07,39.26Z" style="fill:black;fill-rule:nonzero;"/>
        <path d="M613.5,233.64L615.21,260.82L611.16,239.539L613.5,233.64Z" style="fill:black;fill-rule:nonzero;"/>
        <path d="M613.46,233.01L613.5,233.64L611.16,239.539L610.36,235.36L610.07,233.409L613.46,233.01Z" style="fill:black;fill-rule:nonzero;"/>
        <path d="M611.16,239.539L611.03,239.859L610.36,235.359L611.16,239.539Z" style="fill:black;fill-rule:nonzero;"/>
        <path d="M610.36,235.359L609.99,233.42L610.07,233.409L610.36,235.359Z" style="fill:black;fill-rule:nonzero;"/>
        <path d="M561.32,84.609L561.59,85.079L558.469,86.579L558.32,86.259L557.03,82.509L561.32,84.609Z" style="fill:black;fill-rule:nonzero;"/>
        <path d="M553.7,71.34L553.53,71.8L553.49,70.98L553.7,71.34Z" style="fill:black;fill-rule:nonzero;"/>
        <path d="M553.49,70.98L553.53,71.8L553.7,71.34L561.32,84.61L557.03,82.51L558.32,86.26L551.65,71.87L551.44,71.43L551.61,71.06L561.519,49.83L553.7,71.34L553.49,70.98Z" style="fill:black;fill-rule:nonzero;"/>
        <path d="M493.21,201.26L493.21,201.27L463.59,204.409L492.63,197.949L492.66,198.11L490.46,200.989L493.21,201.26Z" style="fill:black;fill-rule:nonzero;"/>
        <path d="M492.66,198.109L493.21,201.259L490.46,200.989L492.66,198.109Z" style="fill:black;fill-rule:nonzero;"/>
        <path d="M471.42,97.409L483.38,124.05L479.36,124.05L471.42,97.409Z" style="fill:black;fill-rule:nonzero;"/>
    </g>
    <g transform="matrix(1,0,0,1,-41,0)">
        <path d="M71.04,121.5C72.128,120.956 73.072,120.388 73.872,119.796C74.672,119.204 75.456,118.62 76.224,118.044C76.928,117.436 77.584,116.788 78.192,116.1C78.8,115.412 79.312,114.668 79.728,113.868C80.144,113.068 80.44,112.236 80.616,111.372C80.792,110.508 80.8,109.612 80.64,108.684C80.288,106.988 79.736,105.5 78.984,104.22C78.232,102.94 77.296,101.74 76.176,100.62C75.312,99.788 74.208,99.156 72.864,98.724C71.52,98.292 70.04,98.028 68.424,97.932C66.808,97.836 65.104,97.884 63.312,98.076C61.52,98.268 59.752,98.572 58.008,98.988C56.264,99.404 54.592,99.9 52.992,100.476C51.392,101.052 49.984,101.676 48.768,102.348C48.704,104.812 48.552,107.412 48.312,110.148C48.072,112.884 47.8,115.604 47.496,118.308C47.192,121.012 46.912,123.62 46.656,126.132C46.4,128.644 46.224,130.892 46.128,132.876C46.064,133.484 46.064,133.98 46.128,134.364C46.192,134.748 46.304,135.092 46.464,135.396C46.624,135.7 46.84,135.988 47.112,136.26C47.384,136.532 47.696,136.86 48.048,137.244C49.008,137.98 49.848,138.58 50.568,139.044C51.288,139.508 52.128,139.948 53.088,140.364C53.6,140.652 54.048,140.86 54.432,140.988C54.816,141.116 55.208,141.196 55.608,141.228C56.008,141.26 56.424,141.244 56.856,141.18C57.288,141.116 57.808,141.004 58.416,140.844C59.568,140.556 60.784,140.196 62.064,139.764C63.344,139.332 64.616,138.844 65.88,138.3C67.144,137.756 68.344,137.148 69.48,136.476C70.616,135.804 71.6,135.1 72.432,134.364C73.648,133.404 74.528,132.42 75.072,131.412C75.616,130.404 75.808,129.18 75.648,127.74C75.392,126.524 74.872,125.34 74.088,124.188C73.304,123.036 72.288,122.14 71.04,121.5ZM58.368,118.092C58.816,116.396 59.2,114.796 59.52,113.292C59.84,111.788 60.224,110.348 60.672,108.972C62.048,108.332 63.328,107.852 64.512,107.532C65.696,107.212 66.744,107.028 67.656,106.98C68.568,106.932 69.312,107.012 69.888,107.22C70.464,107.428 70.816,107.74 70.944,108.156C71.072,108.668 70.88,109.348 70.368,110.196C69.856,111.044 69.048,111.94 67.944,112.884C66.84,113.828 65.48,114.764 63.864,115.692C62.248,116.62 60.416,117.42 58.368,118.092ZM56.544,126.06C57.824,125.644 58.992,125.364 60.048,125.22C61.104,125.076 62.032,125.052 62.832,125.148C63.632,125.244 64.272,125.42 64.752,125.676C65.232,125.932 65.552,126.22 65.712,126.54C65.84,127.084 65.672,127.684 65.208,128.34C64.744,128.996 64.032,129.652 63.072,130.308C62.112,130.964 60.944,131.588 59.568,132.18C58.192,132.772 56.672,133.276 55.008,133.692C55.232,132.412 55.48,131.156 55.752,129.924C56.024,128.692 56.288,127.404 56.544,126.06Z" style="fill:rgb(252,238,33);fill-rule:nonzero;stroke-width:3.33px;stroke:black;"/>
        <path d="M107.28,101.964C106.192,101.1 104.824,100.364 103.176,99.756C101.528,99.148 99.792,98.7 97.968,98.412C96.56,98.188 95.08,98.3 93.528,98.748C91.976,99.196 90.64,99.852 89.52,100.716C87.856,102.156 86.392,103.78 85.128,105.588C83.864,107.396 82.8,109.308 81.936,111.324C81.072,113.34 80.416,115.412 79.968,117.54C79.52,119.668 79.28,121.756 79.248,123.804C79.216,125.852 79.392,127.804 79.776,129.66C80.16,131.516 80.736,133.18 81.504,134.652C81.984,135.548 82.64,136.348 83.472,137.052C84.304,137.756 85.152,138.332 86.016,138.78C87.072,139.324 88.24,139.732 89.52,140.004C90.8,140.276 92.048,140.476 93.264,140.604C95.088,140.796 96.704,140.724 98.112,140.388C99.52,140.052 100.864,139.388 102.144,138.396C104.032,136.732 105.624,134.7 106.92,132.3C108.216,129.9 109.24,127.348 109.992,124.644C110.744,121.94 111.216,119.22 111.408,116.484C111.6,113.748 111.52,111.212 111.168,108.876C110.912,107.468 110.504,106.212 109.944,105.108C109.384,104.004 108.496,102.956 107.28,101.964ZM99.552,106.764C100.192,106.956 100.664,107.62 100.968,108.756C101.272,109.892 101.424,111.26 101.424,112.86C101.424,114.428 101.296,116.116 101.04,117.924C100.784,119.732 100.448,121.388 100.032,122.892C99.552,124.716 98.984,126.404 98.328,127.956C97.672,129.508 96.976,130.812 96.24,131.868C95.504,132.924 94.768,133.708 94.032,134.22C93.296,134.732 92.592,134.876 91.92,134.652C91.184,134.428 90.624,133.82 90.24,132.828C89.856,131.836 89.632,130.644 89.568,129.252C89.504,127.86 89.568,126.356 89.76,124.74C89.952,123.124 90.272,121.564 90.72,120.06C91.168,118.524 91.752,116.932 92.472,115.284C93.192,113.636 93.968,112.14 94.8,110.796C95.632,109.452 96.464,108.388 97.296,107.604C98.128,106.82 98.88,106.54 99.552,106.764Z" style="fill:rgb(252,238,33);fill-rule:nonzero;stroke-width:3.33px;stroke:black;"/>
        <path d="M140.592,101.964C139.504,101.1 138.136,100.364 136.488,99.756C134.84,99.148 133.104,98.7 131.28,98.412C129.872,98.188 128.392,98.3 126.84,98.748C125.288,99.196 123.952,99.852 122.832,100.716C121.168,102.156 119.704,103.78 118.44,105.588C117.176,107.396 116.112,109.308 115.248,111.324C114.384,113.34 113.728,115.412 113.28,117.54C112.832,119.668 112.592,121.756 112.56,123.804C112.528,125.852 112.704,127.804 113.088,129.66C113.472,131.516 114.048,133.18 114.816,134.652C115.296,135.548 115.952,136.348 116.784,137.052C117.616,137.756 118.464,138.332 119.328,138.78C120.384,139.324 121.552,139.732 122.832,140.004C124.112,140.276 125.36,140.476 126.576,140.604C128.4,140.796 130.016,140.724 131.424,140.388C132.832,140.052 134.176,139.388 135.456,138.396C137.344,136.732 138.936,134.7 140.232,132.3C141.528,129.9 142.552,127.348 143.304,124.644C144.056,121.94 144.528,119.22 144.72,116.484C144.912,113.748 144.832,111.212 144.48,108.876C144.224,107.468 143.816,106.212 143.256,105.108C142.696,104.004 141.808,102.956 140.592,101.964ZM132.864,106.764C133.504,106.956 133.976,107.62 134.28,108.756C134.584,109.892 134.736,111.26 134.736,112.86C134.736,114.428 134.608,116.116 134.352,117.924C134.096,119.732 133.76,121.388 133.344,122.892C132.864,124.716 132.296,126.404 131.64,127.956C130.984,129.508 130.288,130.812 129.552,131.868C128.816,132.924 128.08,133.708 127.344,134.22C126.608,134.732 125.904,134.876 125.232,134.652C124.496,134.428 123.936,133.82 123.552,132.828C123.168,131.836 122.944,130.644 122.88,129.252C122.816,127.86 122.88,126.356 123.072,124.74C123.264,123.124 123.584,121.564 124.032,120.06C124.48,118.524 125.064,116.932 125.784,115.284C126.504,113.636 127.28,112.14 128.112,110.796C128.944,109.452 129.776,108.388 130.608,107.604C131.44,106.82 132.192,106.54 132.864,106.764Z" style="fill:rgb(252,238,33);fill-rule:nonzero;stroke-width:3.33px;stroke:black;"/>
        <path d="M178.752,106.188C179.744,106.124 180.328,105.956 180.504,105.684C180.68,105.412 180.672,104.908 180.48,104.172C180.256,103.34 179.936,102.492 179.52,101.628C179.104,100.764 178.576,99.964 177.936,99.228C177.616,98.812 177.24,98.516 176.808,98.34C176.376,98.164 175.664,98.076 174.672,98.076C172.784,98.14 170.648,98.26 168.264,98.436C165.88,98.612 163.448,98.828 160.968,99.084C158.488,99.34 156.056,99.628 153.672,99.948C151.288,100.268 149.152,100.62 147.264,101.004C146.656,101.164 146.256,101.364 146.064,101.604C145.872,101.844 145.968,102.332 146.352,103.068C146.704,103.772 147.16,104.636 147.72,105.66C148.28,106.684 148.896,107.532 149.568,108.204C150.208,108.876 150.784,109.284 151.296,109.428C151.808,109.572 152.464,109.548 153.264,109.356C153.84,109.196 154.56,109.06 155.424,108.948C156.288,108.836 157.184,108.7 158.112,108.54C157.632,110.716 157.152,113.076 156.672,115.62C156.192,118.164 155.752,120.684 155.352,123.18C154.952,125.676 154.608,128.044 154.32,130.284C154.032,132.524 153.84,134.412 153.744,135.948C153.616,136.556 153.632,137.076 153.792,137.508C153.952,137.94 154.216,138.316 154.584,138.636C154.952,138.956 155.408,139.228 155.952,139.452C156.496,139.676 157.104,139.884 157.776,140.076C158.448,140.268 159.056,140.444 159.6,140.604C160.144,140.764 160.624,140.852 161.04,140.868C161.456,140.884 161.784,140.82 162.024,140.676C162.264,140.532 162.416,140.236 162.48,139.788C162.928,137.452 163.448,134.94 164.04,132.252C164.632,129.564 165.264,126.804 165.936,123.972C166.608,121.14 167.304,118.284 168.024,115.404C168.744,112.524 169.44,109.74 170.112,107.052C171.68,106.892 173.2,106.74 174.672,106.596C176.144,106.452 177.504,106.316 178.752,106.188Z" style="fill:rgb(252,238,33);fill-rule:nonzero;stroke-width:3.33px;stroke:black;"/>
        <path d="M175.824,130.188C175.152,130.508 174.848,130.972 174.912,131.58C174.976,132.22 175.712,133.132 177.12,134.316C179.712,136.748 182.232,138.46 184.68,139.452C187.128,140.444 189.648,140.908 192.24,140.844C194.16,140.812 195.808,140.572 197.184,140.124C198.56,139.676 199.728,139.116 200.688,138.444C201.648,137.772 202.416,137.044 202.992,136.26C203.568,135.476 204.016,134.748 204.336,134.076C204.848,133.116 205.016,132.22 204.84,131.388C204.664,130.556 204.248,129.764 203.592,129.012C202.936,128.26 202.104,127.524 201.096,126.804C200.088,126.084 199.016,125.356 197.88,124.62C196.744,123.884 195.6,123.124 194.448,122.34C193.296,121.556 192.256,120.716 191.328,119.82C190.592,119.148 190.128,118.388 189.936,117.54C189.744,116.692 189.728,115.828 189.888,114.948C190.048,114.068 190.352,113.196 190.8,112.332C191.248,111.468 191.768,110.66 192.36,109.908C192.952,109.156 193.576,108.484 194.232,107.892C194.888,107.3 195.488,106.86 196.032,106.572C196.64,106.124 197.08,105.94 197.352,106.02C197.624,106.1 197.784,106.34 197.832,106.74C197.88,107.14 197.84,107.676 197.712,108.348C197.584,109.02 197.432,109.732 197.256,110.484C197.08,111.236 196.904,111.98 196.728,112.716C196.552,113.452 196.432,114.108 196.368,114.684C196.016,117.436 198.032,119.548 202.416,121.02C203.216,121.372 203.816,121.46 204.216,121.284C204.616,121.108 205.008,120.7 205.392,120.06C205.744,119.388 206.088,118.556 206.424,117.564C206.76,116.572 207.08,115.532 207.384,114.444C207.688,113.356 207.952,112.284 208.176,111.228C208.4,110.172 208.576,109.228 208.704,108.396C208.704,107.916 208.696,107.396 208.68,106.836C208.664,106.276 208.584,105.708 208.44,105.132C208.296,104.556 208.048,103.964 207.696,103.356C207.344,102.748 206.848,102.14 206.208,101.532C205.216,100.636 203.992,99.804 202.536,99.036C201.08,98.268 199.632,97.628 198.192,97.116C197.232,96.828 196.304,96.66 195.408,96.612C194.512,96.564 193.68,96.604 192.912,96.732C192.144,96.86 191.456,97.06 190.848,97.332C190.24,97.604 189.744,97.884 189.36,98.172C188.176,98.908 187.016,99.796 185.88,100.836C184.744,101.876 183.704,102.996 182.76,104.196C181.816,105.396 181,106.636 180.312,107.916C179.624,109.196 179.136,110.412 178.848,111.564C178.432,112.876 178.24,114.124 178.272,115.308C178.304,116.492 178.512,117.612 178.896,118.668C179.28,119.724 179.816,120.708 180.504,121.62C181.192,122.532 181.984,123.34 182.88,124.044C183.68,124.716 184.576,125.38 185.568,126.036C186.56,126.692 187.552,127.324 188.544,127.932C189.536,128.54 190.472,129.132 191.352,129.708C192.232,130.284 192.968,130.812 193.56,131.292C194.152,131.772 194.552,132.196 194.76,132.564C194.968,132.932 194.88,133.244 194.496,133.5C193.6,134.236 192.144,134.364 190.128,133.884C188.112,133.404 185.744,132.316 183.024,130.62C182.544,130.3 182.008,130.052 181.416,129.876C180.824,129.7 180.208,129.596 179.568,129.564C178.928,129.532 178.288,129.564 177.648,129.66C177.008,129.756 176.4,129.932 175.824,130.188Z" style="fill:rgb(252,238,33);fill-rule:nonzero;stroke-width:3.33px;stroke:black;"/>
        <path d="M239.472,106.188C240.464,106.124 241.048,105.956 241.224,105.684C241.4,105.412 241.392,104.908 241.2,104.172C240.976,103.34 240.656,102.492 240.24,101.628C239.824,100.764 239.296,99.964 238.656,99.228C238.336,98.812 237.96,98.516 237.528,98.34C237.096,98.164 236.384,98.076 235.392,98.076C233.504,98.14 231.368,98.26 228.984,98.436C226.6,98.612 224.168,98.828 221.688,99.084C219.208,99.34 216.776,99.628 214.392,99.948C212.008,100.268 209.872,100.62 207.984,101.004C207.376,101.164 206.976,101.364 206.784,101.604C206.592,101.844 206.688,102.332 207.072,103.068C207.424,103.772 207.88,104.636 208.44,105.66C209,106.684 209.616,107.532 210.288,108.204C210.928,108.876 211.504,109.284 212.016,109.428C212.528,109.572 213.184,109.548 213.984,109.356C214.56,109.196 215.28,109.06 216.144,108.948C217.008,108.836 217.904,108.7 218.832,108.54C218.352,110.716 217.872,113.076 217.392,115.62C216.912,118.164 216.472,120.684 216.072,123.18C215.672,125.676 215.328,128.044 215.04,130.284C214.752,132.524 214.56,134.412 214.464,135.948C214.336,136.556 214.352,137.076 214.512,137.508C214.672,137.94 214.936,138.316 215.304,138.636C215.672,138.956 216.128,139.228 216.672,139.452C217.216,139.676 217.824,139.884 218.496,140.076C219.168,140.268 219.776,140.444 220.32,140.604C220.864,140.764 221.344,140.852 221.76,140.868C222.176,140.884 222.504,140.82 222.744,140.676C222.984,140.532 223.136,140.236 223.2,139.788C223.648,137.452 224.168,134.94 224.76,132.252C225.352,129.564 225.984,126.804 226.656,123.972C227.328,121.14 228.024,118.284 228.744,115.404C229.464,112.524 230.16,109.74 230.832,107.052C232.4,106.892 233.92,106.74 235.392,106.596C236.864,106.452 238.224,106.316 239.472,106.188Z" style="fill:rgb(252,238,33);fill-rule:nonzero;stroke-width:3.33px;stroke:black;"/>
        <path d="M249.216,128.652C250.048,129.676 250.976,130.692 252,131.7C253.024,132.708 254.048,133.676 255.072,134.604C256.096,135.532 257.088,136.38 258.048,137.148C259.008,137.916 259.856,138.556 260.592,139.068C261.712,139.74 262.696,140.116 263.544,140.196C264.392,140.276 265.168,140.22 265.872,140.028C266.448,139.932 266.936,139.844 267.336,139.764C267.736,139.684 268.224,139.42 268.8,138.972C269.28,138.62 269.552,138.284 269.616,137.964C269.68,137.644 269.392,137.212 268.752,136.668C267.952,136.028 267.096,135.276 266.184,134.412C265.272,133.548 264.352,132.652 263.424,131.724C262.496,130.796 261.592,129.868 260.712,128.94C259.832,128.012 259.024,127.132 258.288,126.3C261.872,124.7 264.952,122.972 267.528,121.116C270.104,119.26 271.952,117.228 273.072,115.02C273.808,113.644 273.968,111.884 273.552,109.74C273.04,107.724 272.328,106.02 271.416,104.628C270.504,103.236 269.488,101.932 268.368,100.716C266.96,99.34 265.32,98.5 263.448,98.196C261.576,97.892 259.592,97.924 257.496,98.292C255.4,98.66 253.272,99.276 251.112,100.14C248.952,101.004 246.88,101.884 244.896,102.78C244.48,103.004 244.08,103.572 243.696,104.484C243.312,105.396 242.96,106.548 242.64,107.94C242.32,109.332 242.016,110.9 241.728,112.644C241.44,114.388 241.176,116.188 240.936,118.044C240.696,119.9 240.472,121.756 240.264,123.612C240.056,125.468 239.872,127.204 239.712,128.82C239.552,130.436 239.416,131.884 239.304,133.164C239.192,134.444 239.104,135.42 239.04,136.092C238.976,136.924 239.056,137.588 239.28,138.084C239.504,138.58 239.92,139.004 240.528,139.356C241.136,139.676 241.776,139.9 242.448,140.028C243.12,140.156 243.888,140.332 244.752,140.556C245.488,140.716 245.992,140.716 246.264,140.556C246.536,140.396 246.752,140.06 246.912,139.548C247.264,137.82 247.624,136.06 247.992,134.268C248.36,132.476 248.768,130.604 249.216,128.652ZM254.352,109.164C255.6,108.556 256.784,108.14 257.904,107.916C259.024,107.692 260.048,107.58 260.976,107.58C262.864,107.58 264,108.028 264.384,108.924C264.576,109.468 264.416,110.236 263.904,111.228C263.392,112.22 262.56,113.268 261.408,114.372C260.256,115.476 258.824,116.564 257.112,117.636C255.4,118.708 253.44,119.612 251.232,120.348C251.84,118.236 252.384,116.252 252.864,114.396C253.344,112.54 253.84,110.796 254.352,109.164Z" style="fill:rgb(252,238,33);fill-rule:nonzero;stroke-width:3.33px;stroke:black;"/>
        <path d="M295.44,130.812C295.536,132.124 295.632,133.332 295.728,134.436C295.824,135.54 295.936,136.556 296.064,137.484C296.192,138.38 296.408,139.004 296.712,139.356C297.016,139.708 297.552,139.996 298.32,140.22C299.056,140.476 299.776,140.628 300.48,140.676C301.184,140.724 301.952,140.748 302.784,140.748C303.616,140.748 304.152,140.636 304.392,140.412C304.632,140.188 304.752,139.788 304.752,139.212C304.72,136.46 304.712,133.476 304.728,130.26C304.744,127.044 304.784,123.836 304.848,120.636C304.912,117.436 305.008,114.364 305.136,111.42C305.264,108.476 305.424,105.868 305.616,103.596C305.712,102.668 305.624,101.916 305.352,101.34C305.08,100.764 304.448,100.3 303.456,99.948C302.72,99.756 301.992,99.548 301.272,99.324C300.552,99.1 299.768,98.892 298.92,98.7C298.072,98.508 297.136,98.34 296.112,98.196C295.088,98.052 293.92,97.948 292.608,97.884C291.104,97.756 289.968,97.964 289.2,98.508C288.432,99.052 287.808,99.756 287.328,100.62C285.984,103.02 284.568,105.764 283.08,108.852C281.592,111.94 280.136,115.068 278.712,118.236C277.288,121.404 275.96,124.476 274.728,127.452C273.496,130.428 272.496,133.02 271.728,135.228C271.536,135.9 271.448,136.436 271.464,136.836C271.48,137.236 271.568,137.564 271.728,137.82C271.888,138.076 272.112,138.292 272.4,138.468C272.688,138.644 273.024,138.86 273.408,139.116C273.92,139.372 274.424,139.604 274.92,139.812C275.416,140.02 275.872,140.204 276.288,140.364C277.024,140.62 277.576,140.7 277.944,140.604C278.312,140.508 278.624,140.188 278.88,139.644C279.328,138.62 279.792,137.572 280.272,136.5C280.752,135.428 281.312,134.268 281.952,133.02C283.776,132.54 285.88,132.132 288.264,131.796C290.648,131.46 293.04,131.132 295.44,130.812ZM286.272,124.092C287.776,121.052 289.272,118.116 290.76,115.284C292.248,112.452 293.632,109.868 294.912,107.532C294.848,110.092 294.832,112.676 294.864,115.284C294.896,117.892 294.944,120.508 295.008,123.132C293.536,123.228 292.072,123.356 290.616,123.516C289.16,123.676 287.712,123.868 286.272,124.092Z" style="fill:rgb(252,238,33);fill-rule:nonzero;stroke-width:3.33px;stroke:black;"/>
        <path d="M318.768,129.564C320.688,129.052 322.632,128.436 324.6,127.716C326.568,126.996 328.448,126.188 330.24,125.292C332.032,124.396 333.688,123.436 335.208,122.412C336.728,121.388 338.032,120.332 339.12,119.244C339.792,118.572 340.408,117.884 340.968,117.18C341.528,116.476 341.992,115.74 342.36,114.972C342.728,114.204 342.968,113.388 343.08,112.524C343.192,111.66 343.136,110.732 342.912,109.74C342.4,107.724 341.688,106.02 340.776,104.628C339.864,103.236 338.864,101.932 337.776,100.716C336.848,99.82 335.752,99.188 334.488,98.82C333.224,98.452 331.856,98.284 330.384,98.316C328.912,98.348 327.384,98.548 325.8,98.916C324.216,99.284 322.64,99.748 321.072,100.308C319.504,100.868 317.984,101.492 316.512,102.18C315.04,102.868 313.696,103.532 312.48,104.172C312.16,104.332 311.88,105.124 311.64,106.548C311.4,107.972 311.184,109.74 310.992,111.852C310.8,113.964 310.608,116.268 310.416,118.764C310.224,121.26 310.032,123.668 309.84,125.988C309.648,128.308 309.432,130.38 309.192,132.204C308.952,134.028 308.688,135.324 308.4,136.092C308.208,136.924 308.264,137.596 308.568,138.108C308.872,138.62 309.328,139.044 309.936,139.38C310.544,139.716 311.24,139.988 312.024,140.196C312.808,140.404 313.616,140.62 314.448,140.844C315.28,141.004 315.84,141.004 316.128,140.844C316.416,140.684 316.64,140.348 316.8,139.836C317.056,138.204 317.352,136.54 317.688,134.844C318.024,133.148 318.384,131.388 318.768,129.564ZM320.832,120.54C321.312,118.524 321.784,116.588 322.248,114.732C322.712,112.876 323.2,111.084 323.712,109.356C324.896,108.844 326.056,108.46 327.192,108.204C328.328,107.948 329.352,107.804 330.264,107.772C331.176,107.74 331.928,107.828 332.52,108.036C333.112,108.244 333.456,108.54 333.552,108.924C333.808,109.628 333.712,110.492 333.264,111.516C332.816,112.54 332.048,113.604 330.96,114.708C329.872,115.812 328.48,116.884 326.784,117.924C325.088,118.964 323.104,119.836 320.832,120.54Z" style="fill:rgb(252,238,33);fill-rule:nonzero;stroke-width:3.33px;stroke:black;"/>
    </g>
</svg>
