<svg viewBox="0 0 278 357" xmlns="http://www.w3.org/2000/svg" fill-rule="evenodd" clip-rule="evenodd" stroke-linejoin="round" stroke-miterlimit="1.414"><path d="M35.424 133.444l-14.016-1.078 1.077-14.016 14.016 1.078-1.075 14.016z" fill="#ef5a28" fill-rule="nonzero"/><path d="M34.486 123.67l-10.214-.786.058-.76 10.215.787-.06.76zm-.26 3.395l-10.215-.785.06-.758 10.214.785-.058.758zm-.26 3.395l-10.216-.785.06-.76 10.213.787-.058.76z" fill="#fae3ed" fill-rule="nonzero"/><path d="M34.014 112.307l.143 1.233 1.096-.56.206 1.266 1.04-.59-6.428 11.866.028-1.176-1.315.48-.138-1.268-1.063.616 6.43-11.867z" fill="#f9ae40" fill-rule="nonzero"/><path d="M103.486 130.235l-13.553 3.73-3.73-13.553 13.554-3.73 3.73 13.553z" fill="#ef5a28" fill-rule="nonzero"/><path d="M99.297 121.355l-9.877 2.718-.2-.733 9.876-2.718.2.733zm.903 3.283l-9.876 2.718-.202-.733 9.877-2.718.2.733zm.904 3.284l-9.877 2.718-.202-.734 9.877-2.718.202.734z" fill="#fae3ed" fill-rule="nonzero"/><path d="M89.482 112.555l.95.8.413-1.16 1.02.78.352-1.145 3.456 13.047-.785-.876-.63 1.253-.97-.827-.35 1.177-3.456-13.047z" fill="#f9ae40" fill-rule="nonzero"/><path d="M29.532 271.74l-7.908-7.91 7.91-7.906 7.908 7.91-7.91 7.907z" fill="#f08d6f" fill-rule="nonzero"/><path d="M34.028 265.353l-5.763-5.765.43-.427 5.762 5.766-.43.428zm-1.916 1.917l-5.763-5.767.426-.427 5.763 5.765-.43.43zm-1.917 1.914l-5.762-5.765.428-.43 5.765 5.765-.43.428z" fill="#fae3ed" fill-rule="nonzero"/><path d="M275.245 268.79l-10.697 3.264-3.264-10.7 10.698-3.26 3.263 10.697z" fill="#ee9cc2" fill-rule="nonzero"/><path d="M271.72 261.82l-7.797 2.378-.177-.578 7.796-2.38.177.58zm.79 2.59l-7.797 2.38-.177-.58 7.797-2.378.177.58zm.79 2.593l-7.796 2.378-.177-.576 7.796-2.38.177.58z" fill="#fae3ed" fill-rule="nonzero"/></svg>