<?xml version="1.0" standalone="no"?><!DOCTYPE svg PUBLIC "-//W3C//DTD SVG 1.1//EN" "http://www.w3.org/Graphics/SVG/1.1/DTD/svg11.dtd"><svg width="100%" height="100%" viewBox="0 0 924 503" version="1.1" xmlns="http://www.w3.org/2000/svg" xmlns:xlink="http://www.w3.org/1999/xlink" xml:space="preserve" style="fill-rule:evenodd;clip-rule:evenodd;stroke-linejoin:round;stroke-miterlimit:1.41421;"><rect x="611.519" y="112.976" width="108.106" height="48.917" style="fill:#fff;"/><path d="M712.049,155.351l-33.214,26.598l11.105,-26.904l22.109,0.306Z" style="fill:#fff;"/><rect x="618.391" y="118.831" width="17.593" height="5.331" style="fill:#e6615f;"/><rect x="643.714" y="118.831" width="48.249" height="5.331" style="fill:#ccc;"/><rect x="697.258" y="118.831" width="15.496" height="5.331" style="fill:#ccc;"/><rect x="643.714" y="129.493" width="21.302" height="5.331" style="fill:#ccc;"/><rect x="667.904" y="129.493" width="6.12" height="5.331" style="fill:#ccc;"/><rect x="676.393" y="129.493" width="5.625" height="5.331" style="fill:#ccc;"/><rect x="618.391" y="141.222" width="17.593" height="5.331" style="fill:#00806f;"/><rect x="643.714" y="141.222" width="15.438" height="5.331" style="fill:#ccc;"/><rect x="672.248" y="141.222" width="13.028" height="5.331" style="fill:#ccc;"/><rect x="643.714" y="151.885" width="23.797" height="5.331" style="fill:#ccc;"/><rect x="684.753" y="151.885" width="21.302" height="5.331" style="fill:#ccc;"/><rect x="662.773" y="141.222" width="7.106" height="5.331" style="fill:#ccc;"/><rect x="687.447" y="141.222" width="25.308" height="5.331" style="fill:#ccc;"/><rect x="670.364" y="151.885" width="11.752" height="5.331" style="fill:#ccc;"/><rect x="312.809" y="255.021" width="108.106" height="48.919" style="fill:#fff;"/><path d="M319.239,257.425l33.214,-26.598l-11.105,26.904l-22.109,-0.306Z" style="fill:#fff;"/><rect x="319.68" y="260.876" width="17.594" height="5.332" style="fill:#e6615f;"/><rect x="345.005" y="260.876" width="48.248" height="5.332" style="fill:#ccc;"/><rect x="398.547" y="260.876" width="15.497" height="5.332" style="fill:#ccc;"/><rect x="345.005" y="271.539" width="21.301" height="5.33" style="fill:#ccc;"/><rect x="369.194" y="271.539" width="6.119" height="5.33" style="fill:#ccc;"/><rect x="377.683" y="271.539" width="5.625" height="5.33" style="fill:#ccc;"/><rect x="319.68" y="283.268" width="17.594" height="5.33" style="fill:#00806f;"/><rect x="345.005" y="283.268" width="15.437" height="5.33" style="fill:#ccc;"/><rect x="373.537" y="283.268" width="13.028" height="5.33" style="fill:#ccc;"/><rect x="345.005" y="293.93" width="23.795" height="5.33" style="fill:#ccc;"/><rect x="386.043" y="293.93" width="21.301" height="5.33" style="fill:#ccc;"/><rect x="364.062" y="283.268" width="7.106" height="5.33" style="fill:#ccc;"/><rect x="388.736" y="283.268" width="25.308" height="5.33" style="fill:#ccc;"/><rect x="371.653" y="293.93" width="11.754" height="5.33" style="fill:#ccc;"/><rect x="205.5" y="324.879" width="108.107" height="48.917" style="fill:#fff;"/><path d="M310.336,330.419l-34.238,-27.419l11.447,27.734l22.791,-0.315Z" style="fill:#fff;"/><rect x="212.371" y="330.734" width="17.594" height="5.331" style="fill:#e6615f;"/><rect x="237.695" y="330.734" width="48.248" height="5.331" style="fill:#ccc;"/><rect x="291.238" y="330.734" width="15.497" height="5.331" style="fill:#ccc;"/><rect x="237.695" y="341.396" width="21.301" height="5.331" style="fill:#ccc;"/><rect x="261.885" y="341.396" width="6.119" height="5.331" style="fill:#ccc;"/><rect x="270.374" y="341.396" width="5.625" height="5.331" style="fill:#ccc;"/><rect x="212.371" y="353.125" width="17.594" height="5.331" style="fill:#00806f;"/><rect x="237.695" y="353.125" width="15.437" height="5.331" style="fill:#ccc;"/><rect x="266.228" y="353.125" width="13.028" height="5.331" style="fill:#ccc;"/><rect x="237.695" y="363.787" width="23.796" height="5.332" style="fill:#ccc;"/><rect x="278.734" y="363.787" width="21.302" height="5.332" style="fill:#ccc;"/><rect x="256.753" y="353.125" width="7.107" height="5.331" style="fill:#ccc;"/><rect x="281.428" y="353.125" width="25.308" height="5.331" style="fill:#ccc;"/><rect x="264.343" y="363.787" width="11.754" height="5.332" style="fill:#ccc;"/></svg>