<?xml version="1.0" standalone="no"?><!DOCTYPE svg PUBLIC "-//W3C//DTD SVG 1.1//EN" "http://www.w3.org/Graphics/SVG/1.1/DTD/svg11.dtd"><svg width="100%" height="100%" viewBox="0 0 924 503" version="1.1" xmlns="http://www.w3.org/2000/svg" xmlns:xlink="http://www.w3.org/1999/xlink" xml:space="preserve" style="fill-rule:evenodd;clip-rule:evenodd;stroke-linejoin:round;stroke-miterlimit:1.41421;"><g><clipPath id="_clip1"><rect x="0" y="39.874" width="923.722" height="462.781"/></clipPath><g clip-path="url(#_clip1)"><g opacity="0.5"><clipPath id="_clip2"><rect x="0" y="39.874" width="923.722" height="462.781"/></clipPath><g clip-path="url(#_clip2)"><path d="M133.611,126.735c-1.27,0.112 -2.725,0.259 -4.364,0.259c-5.607,0 -3.019,-4.744 -10.351,-4.744c-7.332,0 -3.882,1.725 -10.352,-2.588c-6.469,-4.313 -4.312,1.725 -12.938,1.725c-8.626,0 -10.352,1.726 -10.352,5.607c0,3.882 -12.075,-6.038 -24.582,-6.9c-12.508,-0.863 -25.878,-4.745 -33.641,-4.745c-7.763,0 -11.645,8.195 -20.702,9.489c-9.057,1.293 0.862,3.881 3.451,8.626c2.587,4.744 1.725,4.312 -6.902,5.175c-8.626,0.862 4.313,6.469 10.352,6.469c6.038,0 -0.432,4.313 -4.745,6.9c-4.312,2.589 -6.037,11.646 0.863,12.077c6.901,0.432 3.45,4.313 12.076,4.313c8.626,0 0.863,6.47 -4.744,10.782c-5.607,4.313 -5.175,9.92 -2.156,7.332c3.019,-2.587 10.782,-9.057 14.663,-10.351c3.882,-1.293 6.47,-8.194 9.92,-10.35c3.451,-2.157 6.038,4.313 8.194,0.862c2.157,-3.451 6.47,-0.432 10.352,-1.294c3.88,-0.862 12.076,0.862 15.526,1.725c3.45,0.863 7.332,4.313 12.507,3.882c5.175,-0.432 5.607,8.194 9.057,11.213c3.451,3.019 7.332,2.588 6.47,6.901c-0.863,4.313 6.038,10.35 12.508,12.939c6.468,2.587 9.057,10.35 3.88,7.763c-5.175,-2.588 -5.606,-1.725 -3.88,3.019c1.725,4.743 2.587,7.763 0,9.057c-2.589,1.293 -2.589,13.801 0.861,19.839c3.451,6.038 15.527,12.076 17.252,17.683c0.457,1.485 1.066,2.85 1.777,4.148l0,-136.813ZM133.611,120.684l0,1.993c-1.453,-0.681 -1.788,-1.202 0,-1.993M133.611,101.723l0,17.75c-2.05,-0.29 -5.589,-0.762 -6.09,-3.261c-0.863,-4.313 -13.369,0 -16.82,-4.313c-3.45,-4.312 -0.431,-13.369 6.9,-13.369c6.039,-0.432 9.057,3.018 14.233,3.018c0.598,0 1.189,0.064 1.777,0.175M133.611,90.559c-1.561,1.494 -1.956,3.858 -1.539,5.952c0.184,0.915 0.783,1.364 1.539,1.587l0,-7.539ZM133.611,81.805l0,3.77c-1.855,1.501 -4.894,2.86 -7.353,2.86c-5.49,0 -4.198,3.876 -8.398,3.876c-4.2,0 -6.784,-5.168 -0.323,-5.492c6.461,-0.322 6.783,-4.845 14.214,-5.167c0.75,0 1.364,0.054 1.86,0.153M133.611,85.575l0,-3.77c2.572,0.511 1.92,2.217 0,3.77M141.159,131.155l0,143.313l-0.267,-0.405c-2.537,-3.804 -5.306,-6.909 -7.281,-10.515l0,-136.813c3.076,-0.27 5.071,-0.331 5.986,2.416c0.345,1.035 0.874,1.64 1.562,2.004M141.159,104.666l0,21.354c-0.24,-0.093 -0.473,-0.199 -0.699,-0.32c-2.737,-1.474 -5.37,-2.33 -6.849,-3.023l0,-1.993c0.117,-0.053 0.243,-0.105 0.38,-0.159c1.814,-0.726 1.109,-0.841 -0.38,-1.052l0,-17.75c2.505,0.476 4.953,1.832 7.548,2.943M141.159,90.068l0,9.635c-1.753,0.75 -3.12,0.91 -2.949,-0.285c0.231,-1.62 -2.687,-0.753 -4.599,-1.32l0,-7.539c0.848,-0.81 2.039,-1.365 3.63,-1.479c1.289,-0.091 2.63,0.368 3.918,0.988M141.159,75.834l0,2.874c-0.456,-1.04 -0.506,-2.085 0,-2.874M141.159,78.708l0,-2.874c0.589,-0.914 1.925,-1.482 4.238,-1.289c4.791,0 8.212,8.214 2.053,8.214c-2.93,0 -5.394,-2.013 -6.291,-4.051M162.603,126.623c-0.456,-0.039 -0.935,-0.06 -1.441,-0.06c-6.901,0 -6.038,7.763 -11.213,6.038c-3.796,-1.266 -6.896,-0.443 -8.79,-1.446l0,143.313c3.318,5.016 5.849,9.494 8.79,8.653c3.018,-0.863 0,-5.606 -2.588,-9.488c-2.588,-3.882 9.056,6.901 12.507,9.488c1.213,0.91 2,2.887 2.735,5.086l0,-161.584ZM162.603,110.602l0,12.489c-6.597,-0.009 -15.912,5.073 -21.444,2.929l0,-21.354c2.082,0.892 4.257,1.626 6.633,1.626c6.039,0 12.507,-2.587 14.664,3.882c0.048,0.143 0.097,0.286 0.147,0.428M162.603,94.256c-0.156,-0.004 -0.319,-0.007 -0.489,-0.007c-5.49,0 -5.49,-7.106 -9.69,-7.106c-3.553,-0.324 -2.907,0.968 -4.2,4.522c-0.923,2.541 -3.83,-0.039 -7.065,-1.597l0,9.635c1.563,-0.668 3.435,-1.804 4.804,-2.869c2.908,-2.262 6.461,-0.646 13.244,-0.323c1.338,0.063 2.475,0.014 3.396,-0.106l0,-2.149ZM162.603,86.842l0,3.34c-3.124,-0.697 -4.338,-3.082 0,-3.34M162.603,71.807l0,6.885c-3.007,-3.209 -4.323,-8.108 -1.009,-6.903c0.341,0 0.677,0.006 1.009,0.018M162.603,90.182l0,-3.34c0.249,-0.015 0.517,-0.023 0.804,-0.023c4.522,0 5.491,3.554 0.969,3.554c-0.636,0 -1.233,-0.07 -1.773,-0.191M162.603,96.405l0,-2.149c3.901,0.119 3.603,1.677 0,2.149M170.919,129.091l0,168.74c-0.846,-0.243 -1.655,-0.413 -2.425,-0.478c-3.356,-0.278 -4.536,-5.092 -5.891,-9.146l0,-161.584c3.285,0.28 5.399,1.484 8.316,2.468M170.919,120.413c-3.092,-0.658 -6.353,-4.222 -8.316,-9.811l0,12.489c0.243,0 0.481,0.007 0.715,0.022c3.084,0.193 5.822,-0.304 7.601,-0.912l0,-1.788ZM170.919,108.449l0,4.628c-2.178,-2.15 -3.096,-4.614 -0.729,-4.614c0.249,0 0.491,-0.005 0.729,-0.014M170.919,73.078l0,8.28c-1.182,0.027 -2.403,0.021 -3.719,-0.08c-1.69,-0.13 -3.3,-1.201 -4.597,-2.586l0,-6.885c3.072,0.103 5.747,0.662 8.316,1.271M170.919,122.201l0,-1.788c0.344,0.074 0.687,0.112 1.025,0.112c1.909,0 1.177,0.923 -1.025,1.676M176.547,130.297l0,169.68c-2.021,-0.846 -3.901,-1.65 -5.628,-2.146l0,-168.74c1.55,0.522 3.327,0.981 5.628,1.206M176.547,122.5l0,3.266c-1.383,-1.181 -1.487,-2.56 0,-3.266M176.547,101.472l0,14.691c-2.032,-0.275 -4.129,-1.606 -5.628,-3.086l0,-4.628c3.796,-0.14 6.245,-1.374 4.117,-2.893c-1.89,-1.35 -1.072,-3.151 1.511,-4.084M176.547,88.425l0,7.191c-0.29,-0.03 -0.577,-0.055 -0.864,-0.074c-4.815,-0.321 -4.527,-7.657 0.864,-7.117M176.547,74.343l0,6.876c-1.929,-0.037 -3.728,0.094 -5.628,0.139l0,-8.28c1.895,0.45 3.732,0.925 5.628,1.265M176.547,64.93l0,2.654c-0.804,-1.004 -0.958,-2.063 0,-2.654M176.547,67.584l0,-2.654c0.474,-0.294 1.221,-0.473 2.298,-0.473c4.744,-0.43 7.763,5.606 3.019,5.606c-2.19,0 -4.286,-1.193 -5.317,-2.479M176.547,116.163l0,-14.691c0.508,-0.183 1.083,-0.333 1.719,-0.44c4.846,0 2.585,9.045 5.169,8.722c2.584,-0.322 -0.969,6.461 -6.138,6.461c-0.248,0 -0.498,-0.018 -0.75,-0.052M186.165,130.339l0,139.438c-3.288,4.931 -6.188,13.615 -3.006,16.795c0.918,0.919 1.934,2.032 3.006,3.138l0,13.39c-3.477,-0.591 -6.695,-1.9 -9.618,-3.123l0,-169.68c0.956,0.094 2.002,0.147 3.161,0.147c2.459,0 4.627,-0.026 6.457,-0.105M186.165,124.574l0,3.026c-0.579,0.155 -1.37,0.244 -2.407,0.244c-3.391,0 -5.887,-0.948 -7.211,-2.078l0,-3.266c0.616,-0.293 1.504,-0.47 2.688,-0.47c2.369,0 5.28,1.22 6.93,2.544M186.165,116.287l0,4.691c-1.18,-0.932 -1.518,-3.122 0,-4.691M186.165,93.5c-0.555,-0.139 -1.051,-0.22 -1.439,-0.22c-2.907,0 -3.553,-4.845 -8.074,-4.845c-0.036,-0.004 -0.07,-0.006 -0.105,-0.01l0,7.191c3.078,0.316 6.284,1.19 9.618,1.732l0,-3.848ZM186.165,82.861l0,6.22c-0.584,-0.196 -1,-0.599 -1.116,-1.293c-0.316,-1.898 0.221,-3.642 1.116,-4.927M186.165,76.825l0,5.193c-0.692,0.377 -1.688,0.474 -3.006,0.122c-2.51,-0.669 -4.629,-0.884 -6.612,-0.921l0,-6.876c1.566,0.279 3.173,0.466 4.885,0.466c2.137,0 3.735,0.868 4.733,2.016M192.157,101.356c-5.492,0.323 -5.169,3.876 -3.877,7.107c1.292,3.229 2.908,3.229 3.877,1.291c0.969,-1.938 6.137,-2.584 7.43,-5.814c1.291,-3.229 -3.554,-2.584 -7.43,-2.584M186.165,82.018l0,-5.193c1.567,1.803 1.65,4.295 0,5.193M186.165,89.081c2.681,0.899 8.909,-2.584 5.992,-2.584c-3.554,0 0.969,-5.814 -2.585,-5.814c-1.153,0 -2.474,0.84 -3.407,2.178l0,6.22ZM186.165,97.348c1.644,0.268 3.318,0.455 5.023,0.455c4.76,0 -1.404,-3.398 -5.023,-4.303l0,3.848ZM186.165,127.6c1.962,-0.527 1.506,-1.818 0,-3.026l0,3.026ZM202.083,288.774l0,20.341c-4.083,-2.067 -7.68,-5.427 -13.318,-5.724c-0.882,-0.045 -1.748,-0.147 -2.6,-0.291l0,-13.39c3.457,3.562 7.502,7.054 10.794,3.763c1.338,-1.339 3.197,-3.073 5.124,-4.699M202.083,127.462l0,21.576c-1.735,1.053 -0.891,3.496 -4.261,3.834c-4.313,0.431 -3.451,8.194 -5.607,9.488c-2.156,1.294 1.294,3.882 1.725,7.332c0.366,2.93 2.288,4.306 8.143,6.502l0,88.833c-4.306,1.68 -9.884,-1.299 -13.749,2.136c-0.702,0.624 -1.444,1.529 -2.169,2.614l0,-139.438c5.551,-0.241 7.995,-0.967 6.05,-2.913c-2.588,-2.588 -3.02,-5.607 -5.176,-6.039c-0.324,-0.064 -0.619,-0.207 -0.874,-0.409l0,-4.691c0.339,-0.35 0.771,-0.67 1.306,-0.938c3.449,-1.725 4.313,-4.744 6.469,-1.293c2.156,3.449 -1.293,8.195 3.45,7.763c4.717,-0.429 1.762,7.664 4.693,5.643M202.083,90.825l0,7.366c-2.124,0.623 -3.175,1.272 -5.124,-0.956c-3.019,-3.451 -6.039,-9.488 -0.431,-8.626c2.221,-1.11 3.191,0.817 5.555,2.216M202.083,81.02l0,3.76c-0.414,0.1 -0.92,0.142 -1.527,0.101c-4.846,-0.322 -4.846,-4.198 -0.324,-4.198c0.705,-0.065 1.333,0.075 1.851,0.337M202.083,64.951c-0.128,-0.027 -0.254,-0.048 -0.38,-0.063c-3.881,-0.431 -3.019,-6.9 -11.213,-6.038c-6.901,-0.43 2.587,8.626 1.725,13.802c-0.782,4.696 4.118,7.262 9.868,4.794l0,-12.495ZM202.083,54.119l0,5.615c-5.081,-2.192 -8.007,-5.394 0,-5.615M202.083,77.446c0.585,-0.252 1.179,-0.554 1.776,-0.913c6.261,-3.755 2.021,-10.742 -1.776,-11.582l0,12.495ZM202.083,84.78l0,-3.76c1.762,0.893 2.229,3.211 0,3.76M217.815,313.132l0,10.467c-1.931,-3.815 -2.634,-12.875 -9.642,-12.875c-2.288,0 -4.239,-0.672 -6.09,-1.609l0,-20.341c4.282,-3.614 8.904,-6.698 8.904,-3.722c0,4.312 -4.539,18.771 1.93,18.771c6.469,0 2.156,4.743 4.744,9.057c0.051,0.086 0.103,0.169 0.154,0.252M217.815,181.694l0,84.207c-5.102,-4.258 -11.89,-2.411 -15.681,-0.895l-0.051,0.021l0,-88.833c1.039,0.39 2.201,0.807 3.502,1.261c4.589,1.607 9.055,2.846 12.23,4.239M217.815,153.42l0,0.795c-0.118,-0.263 -0.129,-0.533 0,-0.795M217.815,141.545c-0.642,-0.202 -1.276,-0.319 -1.879,-0.319c-4.745,0.864 -7.763,3.451 -5.176,8.627c1.65,3.301 4.003,1.515 7.055,0.235l0,-8.543ZM217.815,123.49l0,14.587c-4.006,0.681 -7.486,2.287 -7.486,2.287c0,0 -1.294,8.195 -6.038,8.195c-1.038,0 -1.724,0.185 -2.208,0.479l0,-21.576l0.051,-0.036c3.02,-2.157 6.039,-0.432 6.47,3.018c0.431,3.45 3.451,2.588 3.451,-1.293c0,-3.557 1.809,-5.664 5.76,-5.661M217.815,101.205l0,19.249c-5.562,-0.66 -13.093,-5.82 -13.093,-9.849c0,-4.112 2.745,-8.616 13.093,-9.4M217.815,92.463c-3.766,-0.398 -7.589,-0.55 -10.074,-0.403c-2.613,0.154 -4.35,-0.46 -5.658,-1.235l0,7.366c1.166,-0.343 2.655,-0.678 4.795,-0.525c2.925,0.21 6.963,0.924 10.937,1.214l0,-6.417ZM217.815,66.686l0,23.202c-5.985,0.731 -12.89,1.816 -12.23,-2.141c0.862,-5.176 3.881,-9.058 9.056,-10.782c5.057,-1.685 -6.346,-9.131 3.174,-10.279M217.815,50.469l0,11.026c-7.164,0.224 -7.904,0.954 -13.524,-0.919c-0.762,-0.254 -1.506,-0.539 -2.208,-0.842l0,-5.615c0.291,-0.009 0.594,-0.013 0.915,-0.013c4.548,0 9.598,-1.749 14.817,-3.637M217.815,138.077l0,-14.587c0.363,0 0.742,0.018 1.14,0.054c4.744,0.431 7.332,14.232 2.156,14.232c-1.098,0 -2.216,0.117 -3.296,0.301M217.815,154.215l0,-0.795c0.261,-0.523 1.088,-1.013 2.768,-1.349c5.491,-1.291 4.846,2.907 2.262,3.876c-1.577,0.591 -4.472,-0.498 -5.03,-1.732M225.006,347.599l0,18.247c-0.526,-0.713 -0.974,-1.408 -1.307,-2.074c-2.509,-5.019 -2.99,-13.686 1.307,-16.173M225.006,319.065l0,6.753c-2.985,-0.005 -5.901,-0.104 -6.913,-1.724c-0.096,-0.153 -0.188,-0.319 -0.278,-0.495l0,-10.467c1.869,2.999 4.566,5.328 7.191,5.933M225.006,282.751l0,4.458c-3.973,-1.211 -6.085,-5.196 -1.325,-4.601c0.459,0 0.902,0.051 1.325,0.143M225.006,193.566l0,80.007c-1.183,-0.605 -2.886,-2.479 -5.189,-5.548c-0.627,-0.835 -1.298,-1.537 -2.002,-2.124l0,-84.207c2.795,1.226 4.59,2.57 4.59,4.387c0,1.921 1.269,5.427 2.601,7.485M225.006,147.009l0,2.609c-0.326,0.02 -0.756,-0.04 -1.307,-0.196c-2.188,-0.625 -4.149,-0.061 -5.884,0.666l0,-8.543c2.811,0.888 5.792,3.458 7.191,5.464M225.006,101.531l0,19.201c-2.279,-0.169 -4.377,-0.207 -6.051,-0.207c-0.368,0 -0.749,-0.025 -1.14,-0.071l0,-19.249c0.506,-0.038 1.029,-0.068 1.571,-0.088c1.473,-0.098 3.482,0.072 5.62,0.414M225.006,93.607l0,5.071c-2.17,0.397 -4.667,0.385 -7.191,0.202l0,-6.417c2.571,0.271 5.116,0.658 7.191,1.144M225.006,65.458l0,23.616c-0.685,0.253 -1.407,0.398 -2.169,0.398c-1.422,0 -3.179,0.191 -5.022,0.416l0,-23.202c0.226,-0.028 0.459,-0.052 0.709,-0.072c2.666,-0.214 4.856,-0.638 6.482,-1.156M225.006,47.96l0,13.673c-0.939,-0.125 -2.088,-0.195 -3.464,-0.195c-1.415,0 -2.644,0.023 -3.727,0.057l0,-11.026c2.373,-0.859 4.78,-1.745 7.191,-2.509M225.006,98.678l0,-5.071c3.855,0.902 6.092,2.145 3.869,3.628c-1.078,0.719 -2.399,1.174 -3.869,1.443M225.006,149.618l0,-2.609c0.984,1.408 1.185,2.537 0,2.609M225.006,287.209l0,-4.458c3.9,0.85 6.01,5.172 1.578,4.769c-0.549,-0.05 -1.078,-0.158 -1.578,-0.311M235.048,335.749l0,41.791c-1.916,-3.349 -7.164,-7.797 -10.042,-11.694l0,-18.247c0.135,-0.078 0.274,-0.15 0.418,-0.216c4.745,-2.156 2.588,-8.626 7.331,-9.919c1.245,-0.338 1.953,-0.945 2.293,-1.715M235.048,318.859l0,13.891c-0.473,-1.744 -1.514,-3.651 -2.293,-5.206c-0.914,-1.83 -4.377,-1.719 -7.749,-1.726l0,-6.753c1.032,0.239 2.052,0.211 3.006,-0.146c1.863,-0.699 4.48,-0.267 7.036,-0.06M235.048,287.977l0,3.33c-2.935,-1.008 -4.372,-3.34 -0.872,-3.34c0.295,-0.015 0.587,-0.011 0.872,0.01M235.048,275.832l0,5.396c-1.546,0.45 -2.848,1.235 -4.222,0.487c-2.455,-1.34 -1.785,-5.583 2.234,-6.252c0.679,0 1.347,0.136 1.988,0.369M235.048,153.264l0,97.699c-2.578,1.956 -6.15,3.741 -7.468,5.85c-2.156,3.45 -0.431,6.9 -0.431,12.938c0,3.353 -0.665,4.578 -2.143,3.822l0,-80.007c1.361,2.099 2.788,2.691 3.006,-1.447c0.431,-8.194 0.431,-13.369 3.882,-13.369c3.45,0 0.431,-4.314 -0.863,-10.352c-1.183,-5.516 -2.362,-13.189 4.017,-15.134M235.048,141.175l0,6.668c-5.572,-1.295 -6.391,-6.228 -0.567,-6.617c0.197,-0.012 0.386,-0.03 0.567,-0.051M235.048,127.864l0,5.603c-3.545,0.979 -5.478,-2.771 -1.544,-5.3c0.522,-0.173 1.043,-0.27 1.544,-0.303M235.048,104.291l0,2.94c-1.775,0.496 -1.488,1.24 0,2.093l0,13.155c-3.259,-1.012 -6.83,-1.509 -10.042,-1.747l0,-19.201c3.644,0.582 7.661,1.661 10.042,2.76M235.048,45.89l0,34.653c-2.782,0.949 -5.682,6.925 -10.042,8.531l0,-23.616c4.11,-1.309 4.6,-3.216 0,-3.825l0,-13.673c3.368,-1.066 6.744,-1.894 10.042,-2.07M235.048,107.231l0,-2.94c2.361,1.091 3.115,2.201 0.296,2.864c-0.105,0.025 -0.202,0.05 -0.296,0.076M235.048,133.467c0.531,-0.148 1.098,-0.399 1.686,-0.778c3.914,-2.515 1.538,-5.031 -1.686,-4.825l0,5.603ZM235.048,281.228l0,-5.396c4.423,1.609 7.579,7.832 4.265,5.883c-1.675,-0.985 -3.045,-0.841 -4.265,-0.487M235.048,291.307l0,-3.33c4.032,0.281 6.872,3.786 2.702,3.786c-0.967,0 -1.891,-0.177 -2.702,-0.456M250.658,418.043l0,82.273c-4.191,-4.657 -7.253,-15.186 -8.844,-18.371c-1.726,-3.449 0.43,-3.882 3.018,-8.194c2.588,-4.313 2.157,-7.763 -0.431,-15.526c-2.587,-7.763 -1.725,-13.801 2.157,-16.82c3.882,-3.02 1.725,-12.939 1.725,-18.545c0,-2.06 1.104,-3.537 2.375,-4.817M250.658,317.442l0,80.228c-2.92,-2.968 -6.587,-9.315 -11.001,-9.315c-4.745,0 -3.882,-4.743 -3.882,-8.625c0,-0.652 -0.269,-1.388 -0.727,-2.19l0,-41.791c0.373,-0.846 0.302,-1.889 0,-2.999l0,-13.891c2.18,0.177 4.315,0.189 5.903,-0.803c3.45,-2.156 6.9,-6.469 8.625,-2.156c0.256,0.638 0.625,1.144 1.082,1.542M250.658,293.379l0,5.915c-3.566,-0.592 -6.83,-5.361 0,-5.915M250.658,157.63l0,70.553c-1.238,2.16 -2.531,4.046 -5.395,4.046c-4.744,0 -7.332,10.782 -7.332,14.663c0,1.511 -1.24,2.826 -2.883,4.071l0,-97.699c0.605,-0.184 1.274,-0.318 2.021,-0.392c4,-0.501 9.594,1.898 13.589,4.758M250.658,114.418l0,36.874c-4.784,-1.557 -9.936,-2.95 -13.589,-3.165c-0.73,-0.043 -1.404,-0.142 -2.021,-0.284l0,-6.668c5.802,-0.692 4.295,-5.647 8.059,-8.574c3.882,-3.019 3.882,-3.019 -2.156,-7.332c-1.695,-1.21 -3.729,-2.115 -5.903,-2.79l0,-13.155c2.83,1.622 10.001,3.639 15.61,5.094M250.658,76.185c-0.716,0.828 -1.266,2.036 -1.944,3.799c-0.753,1.956 0.177,2.757 1.944,2.988l0,-6.787ZM250.658,47.786l0,19.219c-3.513,1.512 -7.285,2.416 -9.707,2.197c-4.745,-0.432 -1.726,11.212 -5.176,11.212c-0.242,0 -0.484,0.047 -0.727,0.129l0,-34.653c0.968,-0.052 1.931,-0.049 2.883,0.021c6.306,0 6.491,2.161 12.727,1.875M250.658,299.294l0,-5.915c0.422,-0.034 0.88,-0.053 1.381,-0.053c3.797,-0.224 3.35,6.03 -0.669,6.03c-0.237,0 -0.475,-0.022 -0.712,-0.062M261.471,318.514l0,171.365c-2.555,3.961 -5.426,9.318 -5.426,9.318c0,0 0.432,6.038 -4.312,2.156c-0.366,-0.298 -0.724,-0.647 -1.075,-1.037l0,-82.273c2.189,-2.206 4.869,-3.826 3.231,-6.829c-2.588,-4.745 0.431,-10.35 -2.588,-12.939c-0.21,-0.18 -0.424,-0.384 -0.643,-0.605l0,-80.228c2.392,2.088 7.197,1.244 10.813,1.072M261.471,297.112l0,2.635c-3.705,-0.802 -5.289,-2.956 0,-2.635M261.471,168.563l0,31.209c-2.971,1.156 -5.099,2.697 -2.838,2.697c0.84,0 1.827,0.247 2.838,0.686l0,16.268c-3.114,1.947 -6.03,2.627 -8.013,4.611c-1.197,1.197 -1.986,2.731 -2.8,4.149l0,-70.553c2.899,2.075 4.957,4.392 4.957,6.024c0,3.693 1.951,5.823 5.856,4.909M261.471,122.707l0,32.508c-2.325,-0.921 -6.413,-2.492 -10.813,-3.923l0,-36.874c2.129,0.552 4.033,1.023 5.387,1.363c3.363,0.84 4.472,3.831 5.426,6.926M261.471,85.954l0,4.528c-0.084,-0.048 -0.168,-0.097 -0.25,-0.148c-2.315,-1.424 -1.321,-2.995 0.25,-4.38M261.471,74.363l0,7.79c-3.582,0.225 -8.148,1.169 -10.813,0.819l0,-6.787c1.564,-1.808 3.922,-1.808 10.132,-1.808c0.234,0 0.46,-0.005 0.681,-0.014M261.471,47.662l0,10.483c-1.056,0.985 -1.981,2.069 -2.838,3.293c-1.476,2.111 -4.607,4.118 -7.975,5.567l0,-19.219c0.589,-0.027 1.231,-0.074 1.938,-0.149c2.338,-0.246 5.591,-0.211 8.875,0.025M265.872,318.361l0,154.283c-0.646,0.681 -1.464,1.107 -2.495,1.107c-3.88,0 3.451,10.783 1.295,12.076c-0.72,0.432 -1.921,2.067 -3.201,4.052l0,-171.365c0.36,-0.017 0.71,-0.027 1.044,-0.027c1.023,0 2.145,-0.072 3.357,-0.126M265.872,298.616l0,1.136c-0.378,0.209 -1.088,0.323 -2.22,0.273c-0.778,-0.033 -1.515,-0.135 -2.181,-0.278l0,-2.635l0.171,0.01c1.753,0 3.507,0.753 4.23,1.494M265.872,218.781c-0.194,0.011 -0.399,0.048 -0.617,0.115c-2.653,0.443 -1.63,3.54 0.617,4.011l0,-4.126ZM265.872,206.413l0,9.205c-1.461,1.716 -2.952,2.898 -4.401,3.805l0,-16.268c1.565,0.682 3.187,1.831 4.401,3.258M265.872,163.422l0,35.174c-1.406,0.17 -2.997,0.63 -4.401,1.176l0,-31.209c0.198,-0.048 0.403,-0.102 0.613,-0.165c3.514,-1.054 1.588,-4.113 3.788,-4.976M265.872,130.225l0,9.126c-3.881,-0.087 -5.613,2.115 -1.2,6.189c0.463,0.428 0.861,0.865 1.2,1.305l0,7.999c-1.002,0.865 -2.372,1.182 -3.788,0.616l-0.613,-0.245l0,-32.508c0.942,3.066 1.731,6.233 4.401,7.518M265.872,73.28l0,18.587c-1.607,-0.221 -3.093,-0.637 -4.401,-1.385l0,-4.528c2.232,-1.969 5.629,-3.561 2.338,-3.814c-0.699,-0.053 -1.492,-0.041 -2.338,0.013l0,-7.79c1.983,-0.076 3.418,-0.486 4.401,-1.083M265.872,59.611l0,7.62c-0.36,-0.261 -0.764,-0.472 -1.2,-0.617c-3.335,-1.112 -5.396,-5.725 1.2,-7.003M265.872,48.098l0,6.89c-1.715,0.956 -3.15,1.986 -4.401,3.157l0,-10.483c1.488,0.107 2.982,0.255 4.401,0.436M265.872,154.844l0,-7.999c2.414,3.136 1.798,6.449 0,7.999M265.872,215.618c0.175,-0.206 0.35,-0.419 0.525,-0.641c2.387,-3.039 1.497,-6.186 -0.525,-8.564l0,9.205ZM265.872,222.907c0.186,0.038 0.38,0.06 0.581,0.06c2.449,0 1.998,-4.35 -0.581,-4.186l0,4.126ZM265.872,299.752l0,-1.136c0.425,0.435 0.495,0.866 0,1.136M271.485,318.502l0,143.242c-0.276,-0.098 -0.536,-0.261 -0.775,-0.499c-3.02,-3.02 -2.588,0.43 -2.588,3.449c0,2.218 -0.465,6.063 -2.25,7.95l0,-154.283c1.697,-0.075 3.573,-0.111 5.613,0.141M271.485,215.228l0,5.567c-3.033,-0.634 -4.413,-4.813 -0.832,-5.41c0.292,-0.09 0.569,-0.14 0.832,-0.157M271.485,165.45l0,35.727c-0.657,-0.602 -1.448,-1.405 -2.501,-2.157c-0.687,-0.491 -1.822,-0.579 -3.112,-0.424l0,-35.174c0.5,-0.196 1.212,-0.279 2.25,-0.2c1.53,0.118 2.577,0.975 3.363,2.228M271.485,134.667l0,5.39c-0.513,0.148 -1.197,0.126 -2.07,-0.124c-1.286,-0.368 -2.493,-0.558 -3.543,-0.582l0,-9.126c0.167,0.081 0.342,0.154 0.525,0.219c2.188,0.782 3.98,2.47 5.088,4.223M271.485,59.224l0,32.839c-1.965,0.052 -3.861,0.044 -5.613,-0.196l0,-18.587c2.657,-1.615 2.013,-4.596 0,-6.049l0,-7.62c1.081,-0.209 2.395,-0.33 3.975,-0.33c0.582,0 1.124,-0.02 1.638,-0.057M271.485,49.125l0,3.328c-2.17,0.816 -4.014,1.643 -5.613,2.535l0,-6.89c2.136,0.275 4.1,0.624 5.613,1.027M271.485,52.453c0.446,-0.168 0.906,-0.335 1.381,-0.503c2.862,-1.011 1.649,-2.02 -1.381,-2.825l0,3.328ZM271.485,140.057l0,-5.39c1.506,2.384 1.746,4.885 0,5.39M271.485,201.177c1.225,1.122 1.983,1.534 3.106,-0.432c1.725,-3.02 5.176,-5.176 12.507,-5.176c7.332,0 -3.45,-7.332 -2.156,-10.351c1.294,-3.019 -5.175,-4.312 -8.626,-7.763c-2.509,-2.509 -2.737,-8.667 -4.831,-12.005l0,35.727ZM271.485,220.795l0,-5.567c3.48,-0.219 4.088,5.648 0.783,5.648c-0.271,0 -0.533,-0.029 -0.783,-0.081M290.184,328.2l0,113.323c-4.101,-1.96 -9.334,-4.209 -6.105,0.312c4.314,6.039 5.175,9.057 0.432,11.215c-4.368,1.985 -9.831,9.816 -13.026,8.694l0,-143.242c2.642,0.33 5.557,1.148 8.712,3.003c3.609,2.123 6.903,4.663 9.987,6.695M290.184,197.917l0,13.877c-5.936,-2.558 -9.084,-2.811 -6.611,-8.684c2.585,-6.138 -0.646,-5.814 3.554,-5.492c1.185,-0.055 2.19,0.056 3.057,0.299M290.184,52.973l0,45.577c-1.028,-2.516 -2.499,-5.162 -6.536,-6.059c-3.928,-0.873 -8.188,-0.531 -12.163,-0.428l0,-32.839c9.383,-0.681 7.933,-7.229 17.338,-6.411c0.476,0.04 0.929,0.095 1.361,0.16M384.17,254.995c1.448,-0.773 2.606,-0.097 2.317,1.35c-0.29,1.449 -1.545,3.186 -2.799,1.642c-1.255,-1.545 -1.158,-2.51 0.482,-2.992M290.184,211.794l0,-13.877c4.094,1.154 5.034,5.28 6.633,8.746c1.938,4.199 0.647,8.399 -5.814,5.492c-0.279,-0.126 -0.552,-0.246 -0.819,-0.361M290.184,441.523l0,-113.323c3.183,2.099 6.143,3.658 8.991,3.658c5.607,0 4.743,5.606 4.743,11.213c0,5.606 7.333,5.606 15.096,8.194c7.764,2.587 11.213,2.157 18.977,6.901c7.762,4.743 9.487,7.332 5.606,12.938c-3.88,5.607 -12.076,14.234 -12.506,22.428c-0.433,8.194 -5.608,15.957 -11.214,16.819c-5.607,0.863 -10.783,5.177 -10.783,9.057c0,3.882 -5.176,2.156 -5.607,9.49c-0.43,7.331 -6.9,15.526 -9.919,14.232c-0.759,-0.325 -2.007,-0.95 -3.384,-1.607M390.013,303.359l0,6.668c-1.59,-2.531 -2.077,-4.79 -0.361,-6.336c0.126,-0.114 0.246,-0.223 0.361,-0.332M390.013,286.837l0,9.715c-0.269,-0.324 -0.545,-0.668 -0.816,-1.046c-1.507,-2.109 -0.616,-5.616 0.816,-8.669M390.013,263.855l0,3.852c-0.389,0.095 -0.817,-0.049 -1.246,-0.577c-1.254,-1.544 -1.158,-2.509 0.483,-2.991c0.267,-0.142 0.524,-0.236 0.763,-0.284M390.013,138.617c-0.062,0.018 -0.124,0.036 -0.188,0.056c-3.598,-0.515 -5.139,0 -9.765,-2.056c-4.626,-2.056 -9.252,6.682 -2.057,12.335c4.125,3.241 8.419,3.104 12.01,1.622l0,-11.957ZM390.013,57.178l0,6.62c-3.823,0.53 -6.241,1.387 -4.149,3.247c3.882,3.45 -6.469,6.469 -0.862,9.488c5.606,3.019 3.881,9.92 -1.725,9.92c-5.607,0 0.43,3.881 -3.882,8.195c-4.314,4.313 -3.02,7.332 -9.057,7.332c-6.038,0 7.331,9.488 0.431,9.488c-6.901,0 -9.057,8.626 -2.156,7.763c6.9,-0.862 6.469,2.156 -0.863,5.607c-7.333,3.45 -18.977,3.45 -22.427,9.056c-3.45,5.607 -16.389,5.176 -16.389,10.353c0,5.174 -2.156,24.151 -12.077,20.7c-9.919,-3.449 -12.075,-13.369 -15.957,-19.407c-3.882,-6.039 2.157,-12.508 -1.725,-14.664c-3.882,-2.157 8.625,-12.075 4.312,-9.057c-4.312,3.019 -11.213,-1.294 -5.175,-2.588c6.038,-1.294 3.881,-7.332 -0.431,-6.038c-4.313,1.294 -9.058,-0.863 -3.45,-5.176c5.606,-4.312 3.018,-3.019 -0.863,-4.312c-1.863,-0.621 -2.435,-2.832 -3.384,-5.155l0,-45.577c8.611,1.304 9.238,7.109 14.166,5.877c5.176,-1.293 -6.038,-12.507 6.901,-4.744c12.938,7.764 3.45,-0.862 9.057,-0.862c5.606,0 -3.882,-8.195 6.038,-7.763c9.92,0.43 9.92,-5.607 22.427,-5.607c15.095,0 42.266,12.507 28.465,10.782c-13.801,-1.725 -32.346,-2.157 -23.721,3.019c8.626,5.175 10.351,-4.744 13.37,0c3.019,4.745 8.194,0 11.645,3.019c3.179,2.781 7.455,2.269 11.481,0.484M390.013,267.707l0,-3.852c1.062,-0.214 1.79,0.454 1.553,1.634c-0.19,0.954 -0.8,2.034 -1.553,2.218M392.81,282.066l0,31.595c-1.095,-1.24 -2.063,-2.467 -2.797,-3.634l0,-6.668c3.542,-3.347 1.94,-4.485 0,-6.807l0,-9.715c0.73,-1.554 1.601,-2.991 2.368,-4.065c0.146,-0.205 0.289,-0.442 0.429,-0.706M392.81,252.745l0,3.813c-0.319,-0.01 -0.657,-0.188 -0.995,-0.603c-1.254,-1.545 -1.158,-2.511 0.483,-2.993c0.175,-0.093 0.347,-0.166 0.512,-0.217M392.81,138.205l0,10.877c-0.867,0.572 -1.805,1.083 -2.797,1.492l0,-11.957c1.01,-0.292 1.947,-0.421 2.797,-0.412M392.81,56.304l0,7.174c-0.981,0.095 -1.925,0.199 -2.797,0.32l0,-6.62c0.344,-0.152 0.686,-0.314 1.026,-0.484c0.493,-0.246 1.097,-0.367 1.771,-0.39M392.81,63.478l0,-7.174c5.231,-0.177 14.645,5.664 8.149,6.428c-2.479,0.292 -5.451,0.485 -8.149,0.746M392.81,149.082l0,-10.877c4.673,0.049 6.713,4.217 3.697,7.663c-0.966,1.104 -2.228,2.245 -3.697,3.214M392.81,256.558c0.866,0.027 1.593,-1.186 1.804,-2.245c0.255,-1.272 -0.609,-1.948 -1.804,-1.568l0,3.813ZM413.311,250.966l0,82.55c-3.606,-2.608 -7.75,-7.093 -11.38,-10.723c-2.649,-2.65 -6.304,-5.94 -9.121,-9.132l0,-31.595c2.034,-3.839 3.502,-13.423 7.756,-13.847c4.549,-0.456 7.732,-5.457 7.732,-9.551c0,-3.216 1.965,-6.151 5.013,-7.702M413.311,221.834l0,21.087c-2.278,0.057 -4.103,-0.167 -4.103,-2.445c0,-4.547 -3.183,-6.367 -0.91,-10.459c2.274,-4.094 0,-8.187 4.547,-8.187c0.16,0 0.315,0.002 0.466,0.004M413.311,180.745l0,15.052c-2.252,0.688 -4.654,-1.031 -3.954,-4.183c0.994,-4.476 -2.338,-11.354 3.954,-10.869M413.311,112.456l0,5.36c-2.546,-1.601 -3.466,-5.043 0,-5.36M413.311,117.816l0,-5.36c0.35,-0.033 0.743,-0.033 1.186,0.003c3.598,0 6.167,6.168 1.542,6.168c-1.01,0 -1.945,-0.318 -2.728,-0.811M413.311,195.797c1.053,-0.322 2.073,-1.168 2.728,-2.641c2.056,-4.626 2.056,-12.851 -2.056,-12.337c-0.235,-0.033 -0.459,-0.057 -0.672,-0.074l0,15.052ZM425.643,246.255l0,87.22c-2.322,0.719 -4.43,1.386 -6.429,2.052c-1.581,0.526 -3.636,-0.37 -5.903,-2.011l0,-82.55c0.832,-0.423 1.744,-0.744 2.719,-0.939c3.663,-0.732 4.966,-2.94 9.613,-3.772M425.643,222.37l0,21.839c-1.709,0.586 -3.615,0.642 -5.52,-0.549c-1.817,-1.135 -4.54,-0.797 -6.812,-0.739l0,-21.087c4.151,0.059 5.168,0.906 9.995,0.906c0.814,0 1.603,-0.133 2.337,-0.37M425.643,169.951l0,28.078c-3.987,1.708 -6.814,4.006 -7.548,-0.762c-1.029,-6.682 -1.542,-6.169 4.626,-8.737c6.168,-2.571 -2.57,-19.018 2.056,-18.504c0.3,-0.043 0.589,-0.066 0.866,-0.075M425.643,198.029c1.601,-0.685 3.388,-1.276 5.301,-1.276c6.683,0 -0.513,-11.308 0.515,-14.906c0.985,-3.447 0.553,-12.084 -5.816,-11.896l0,28.078ZM436.033,244.971l0,85.611c-0.799,0.054 -1.56,0.178 -2.267,0.397c-3.023,0.93 -5.691,1.741 -8.123,2.496l0,-87.22c1.122,-0.2 2.438,-0.321 4.03,-0.321c2.579,0 4.571,-0.406 6.36,-0.963M436.033,197.935l0,35.873c-1.93,0.307 -3.505,1.182 -3.177,3.485c0.455,3.183 -0.91,2.729 -3.183,4.548c-1.083,0.866 -2.475,1.835 -4.03,2.368l0,-21.839c3.78,-1.222 6.093,-5.224 2.666,-8.271c-4.093,-3.638 -2.729,-8.64 -0.455,-12.734c2.142,-3.853 3.476,-2.467 8.179,-3.43M436.033,174.364l0,3.813c-0.319,-0.01 -0.656,-0.187 -0.994,-0.603c-1.256,-1.544 -1.159,-2.51 0.482,-2.992c0.175,-0.094 0.346,-0.166 0.512,-0.218M436.033,178.177l0,-3.813c1.195,-0.379 2.059,0.297 1.805,1.569c-0.212,1.059 -0.939,2.271 -1.805,2.244M439.02,243.901l0,86.761c-1.038,-0.108 -2.04,-0.145 -2.987,-0.08l0,-85.611c1.038,-0.323 2.009,-0.696 2.987,-1.07M439.02,197.084l0,36.458c-0.22,0.075 -0.456,0.114 -0.705,0.114c-0.756,0 -1.545,0.033 -2.282,0.152l0,-35.873c0.292,-0.06 0.597,-0.128 0.917,-0.208c0.691,-0.173 1.383,-0.389 2.07,-0.643M439.02,189.598l0,3.813c-0.319,-0.009 -0.657,-0.187 -0.994,-0.602c-1.256,-1.545 -1.159,-2.51 0.481,-2.993c0.177,-0.094 0.348,-0.165 0.513,-0.218M439.02,193.411l0,-3.813c1.196,-0.378 2.059,0.297 1.804,1.569c-0.211,1.059 -0.939,2.271 -1.804,2.244M480.636,259.364l0,179.816c-0.349,-0.381 -0.664,-0.819 -0.936,-1.326c-3.183,-5.913 2.273,-9.551 -3.183,-15.918c-5.458,-6.367 -2.274,-11.825 -6.368,-17.737c-4.093,-5.912 -8.186,-16.371 -4.093,-21.829c4.093,-5.458 5.913,-9.551 2.274,-10.915c-3.638,-1.365 1.819,-7.731 -3.183,-10.916c-5.004,-3.183 -8.187,-11.824 -6.367,-15.916c1.818,-4.093 2.273,-10.915 -3.639,-10.915c-4.366,0 -10.717,-2.48 -16.121,-3.046l0,-86.761c2.682,-1.028 5.415,-2.06 9.754,-2.06c8.641,0 15.009,-3.184 14.099,3.638c-0.91,6.822 7.731,8.186 12.279,10.915c1.686,1.012 3.622,2.148 5.484,2.97M480.636,181.681c-1.278,-0.423 -2.638,-0.781 -4.119,-0.781c-5.003,0 -6.368,2.274 -12.28,2.274c-5.913,0 -3.639,-4.093 -7.277,-4.093c-3.639,0 -2.729,6.822 -5.912,10.005c-2.78,2.78 -7.294,6.254 -12.028,7.998l0,36.458c2.17,-0.727 2.807,-4.895 1.568,-9.438c-1.365,-5.002 7.277,-3.183 14.553,-3.183c7.276,0 8.186,5.002 13.189,6.822c5.004,1.819 5.457,6.366 5.457,12.733c0,6.368 5.003,-2.273 5.913,-5.002c0.288,-0.866 0.668,-2.097 0.936,-3.375l0,-4.598c-0.32,-0.688 -0.897,-1.123 -1.846,-1.123c-3.638,0 -4.547,-1.364 -7.731,-4.548c-3.183,-3.183 -0.455,-5.002 2.728,-2.274c3.183,2.728 4.549,4.093 6.822,6.822l0.027,0.033l0,-44.73ZM480.636,122.684l0,48.21c-1.885,2.492 -3.228,4.548 -5.484,4.548c-3.183,0 -5.913,6.821 -7.276,2.275c-1.364,-4.549 -4.093,-9.551 -7.278,-7.278c-3.183,2.275 -2.728,10.006 -6.821,3.639c-4.093,-6.367 -7.731,-15.463 -3.183,-20.465c4.547,-5.003 10.914,-9.096 14.553,-14.099c3.064,-4.213 9.676,-13.264 15.489,-16.83M480.636,66.664l0,18.066c-0.566,0.043 -1.327,-0.246 -2.404,-1.053c-6.168,-4.627 -7.197,-8.225 -0.514,-8.739c6.683,-0.514 -6.169,-5.654 -9.252,-2.056c-3.084,3.598 -9.766,-8.738 -0.514,-8.738c8.048,0 7.541,0.39 12.684,2.52M480.636,84.73l0,-18.066c0.771,0.319 1.665,0.677 2.736,1.078c10.793,0 7.71,2.571 12.849,6.168c5.141,3.598 -1.542,12.336 -8.737,7.196c-5.94,-4.242 -4.176,3.421 -6.848,3.624M480.636,232.099c0.357,-1.699 0.517,-3.483 0,-4.598l0,4.598ZM547.599,396.522c-1.257,3.401 -1.704,7.889 0,9.861l0,-9.861ZM547.599,377.482c-0.163,0.051 -0.335,0.124 -0.51,0.218c-1.641,0.482 -1.738,1.447 -0.483,2.991c0.337,0.416 0.676,0.593 0.993,0.604l0,-3.813ZM547.599,138.145l0,168.402c-4.369,-9.081 -12.603,-18.827 -15.598,-26.959c-3.185,-8.64 -6.368,-14.099 -9.551,-13.644c-3.183,0.455 4.092,16.828 7.275,22.741c3.185,5.911 6.822,15.462 12.28,20.919c1.832,1.831 3.714,3.303 5.594,4.383l0,32.067c-0.361,0.31 -0.711,0.591 -1.045,0.843c-5.459,4.093 -6.822,13.644 -10.007,15.008c-3.183,1.363 0.91,3.637 2.73,7.276c1.818,3.638 2.274,15.462 0,20.01c-2.274,4.548 -6.367,10.005 -10.005,10.46c-3.639,0.455 -4.093,6.823 -1.364,8.642c2.727,1.818 -0.91,5.911 -6.368,6.366c-5.458,0.455 0.454,16.827 -4.548,17.282c-5.003,0.455 -10.915,6.822 -18.191,7.731c-6.653,0.831 -14.445,3.562 -18.165,-0.492l0,-179.816c3.159,1.394 6.105,1.88 7.249,-0.696c1.82,-4.093 7.732,-2.729 12.734,-1.819c5.003,0.909 13.644,2.729 18.192,2.274c4.548,-0.455 9.097,-4.548 9.551,-8.641c0.454,-4.094 -5.912,-5.003 -13.643,-5.003c-7.732,0 -10.915,-1.364 -9.552,-5.912c1.366,-4.548 3.639,-8.641 7.732,-10.46c4.093,-1.82 7.731,-2.729 11.824,-2.729c4.093,0 9.551,3.184 14.554,2.729c5.002,-0.455 3.183,-5.003 -1.82,-7.731c-5.002,-2.729 -5.912,-6.822 -3.637,-9.096c2.274,-2.274 0.909,-4.548 -3.185,-2.274c-4.093,2.274 -10.005,8.186 -11.368,4.548c-1.365,-3.638 -11.37,-0.455 -11.37,5.002c0,5.458 1.365,6.367 -0.455,10.006c-1.82,3.638 -5.913,6.367 -9.55,5.912c-3.639,-0.455 0.453,6.367 -3.185,8.186c-3.637,1.819 -5.456,-2.729 -7.732,-7.277c-2.264,-4.53 -4.077,-7.255 -6.339,-9.972l0,-44.73c3.036,1.005 5.598,2.369 8.159,0.129c3.639,-3.184 -2.729,-8.642 2.729,-8.642c5.458,0 10.005,0.455 5.912,-3.637c-4.092,-4.094 1.364,-1.82 5.912,-4.094c4.549,-2.274 4.093,-5.912 -1.364,-5.002c-5.457,0.909 -10.005,4.093 -12.279,-1.365c-2.274,-5.457 4.548,-11.824 8.187,-15.918c3.637,-4.092 -5.913,-5.911 -7.278,-0.909c-1.363,5.003 -6.822,7.277 -8.641,12.279c-1.819,5.003 5.002,9.551 1.366,13.189c-1.061,1.061 -1.929,2.159 -2.703,3.183l0,-48.21c1.089,-0.669 2.151,-1.146 3.156,-1.361c6.368,-1.364 15.463,-9.551 22.741,-6.367c7.276,3.184 10.003,2.274 15.461,6.367c5.458,4.093 5.004,6.367 10.916,7.276c5.912,0.91 7.276,8.642 0,8.642c-7.277,0 -11.825,-4.094 -14.553,-1.82c-2.729,2.274 2.729,4.548 5.457,7.731c2.728,3.184 7.731,5.457 10.006,4.094c2.274,-1.365 -4.548,-5.912 0.454,-4.548c5.003,1.364 10.005,1.819 6.821,-0.91c-3.183,-2.728 1.365,-3.638 6.367,-3.638c0.048,0 0.092,-0.003 0.137,-0.005M547.599,381.295l0,-3.813c1.197,-0.38 2.06,0.296 1.807,1.569c-0.213,1.057 -0.939,2.27 -1.807,2.244M556.651,384.373l0,32.356c-1.118,1.336 -2.332,2.35 -3.73,2.612c-4.695,0.88 -2.64,-9.978 -5.282,-12.912l-0.04,-0.046l0,-9.861c0.645,-1.739 1.499,-3.195 2.388,-3.887c1.47,-1.14 4.027,-5.007 6.664,-8.262M556.651,315.977c-2.863,0.5 -5.956,-0.215 -9.052,-1.99l0,32.067c2.625,-2.239 5.932,-5.942 9.052,-10.082l0,-19.995ZM556.651,134.626l0,83.109c-2.713,3.133 -3.026,6.342 0,9.861l0,84.061c-2.82,1.95 -5.726,2.539 -8.279,-3.417c-0.241,-0.561 -0.498,-1.126 -0.773,-1.693l0,-168.402c4.735,-0.204 -1.908,-10.91 3.048,-10.91c5.002,0 0.909,11.825 4.546,8.641c0.47,-0.411 0.956,-0.83 1.458,-1.25M556.651,335.972c3.489,-4.63 6.746,-9.807 8.547,-14.089c3.639,-8.64 -1.818,-8.187 -6.82,-6.367c-0.565,0.205 -1.141,0.359 -1.727,0.461l0,19.995ZM556.651,416.729l0,-32.356c2.106,-2.601 4.261,-4.812 5.954,-4.943c5.284,-0.293 5.284,6.163 1.761,9.098c-3.521,2.934 3.522,17.607 -0.293,19.075c-2.68,1.03 -4.781,5.972 -7.422,9.126M570.783,313.506l0,3.813c-0.318,-0.01 -0.656,-0.188 -0.994,-0.603c-1.254,-1.544 -1.157,-2.51 0.484,-2.992c0.175,-0.094 0.347,-0.165 0.51,-0.218M570.783,241.139l0,30.49c-0.531,-0.635 -1.029,-1.448 -1.491,-2.501c-3.184,-7.277 -9.096,-5.912 -6.367,-1.365c2.004,3.34 4.743,8.642 7.858,10.503l0,25.78c-3.559,1.271 -7.296,2.455 -9.222,3.738c-1.539,1.028 -3.21,2.699 -4.91,3.873l0,-84.061c0.495,0.575 1.079,1.158 1.757,1.752c6.144,5.376 -3.072,9.216 9.985,11.52c0.791,0.14 1.591,0.228 2.39,0.271M570.783,127.521l0,87.445c-1.452,-0.747 -4.542,-0.931 -10.839,-0.211c-1.321,0.991 -2.427,1.981 -3.293,2.98l0,-83.109c3.386,-2.835 7.551,-5.748 13.096,-6.936c0.398,-0.086 0.742,-0.14 1.036,-0.169M570.783,317.319l0,-3.813c1.196,-0.378 2.061,0.298 1.806,1.569c-0.212,1.059 -0.939,2.272 -1.806,2.244M576.066,327.299l0,3.813c-0.319,-0.01 -0.657,-0.187 -0.993,-0.604c-1.256,-1.543 -1.159,-2.508 0.482,-2.991c0.175,-0.093 0.347,-0.165 0.511,-0.218M576.066,278.136l0,23.751c-1.503,0.765 -3.368,1.475 -5.283,2.159l0,-25.78c1.127,0.672 2.304,0.897 3.512,0.414c0.579,-0.232 1.171,-0.412 1.771,-0.544M576.066,240.781l0,33.233c-1.944,-0.221 -3.749,-0.552 -5.283,-2.385l0,-30.49c1.791,0.095 3.581,-0.042 5.283,-0.358M576.066,129.761l0,96.333c-8.678,-3.556 -1.541,-9.206 -5.283,-11.128l0,-87.445c4.416,-0.432 -2.03,5.029 3.512,2.898c0.583,-0.224 1.175,-0.445 1.771,-0.658M576.066,99.847l0,17.826c-0.22,-0.174 -0.448,-0.369 -0.69,-0.588c-5.421,-4.928 -5.644,-15.053 0.69,-17.238M576.066,331.112l0,-3.813c1.195,-0.379 2.06,0.297 1.805,1.569c-0.212,1.059 -0.939,2.27 -1.805,2.244M579.002,357.232l0,3.813c-0.32,-0.009 -0.658,-0.188 -0.995,-0.603c-1.255,-1.543 -1.159,-2.508 0.482,-2.992c0.175,-0.094 0.347,-0.166 0.513,-0.218M579.002,277.871l0,21.824c-0.55,0.789 -1.6,1.512 -2.936,2.192l0,-23.751c0.969,-0.211 1.959,-0.296 2.936,-0.265M579.002,240.037l0,34.386c-1.002,-0.219 -1.985,-0.3 -2.936,-0.409l0,-33.233c1.015,-0.187 1.999,-0.439 2.936,-0.744M579.002,128.77l0,98.28l-0.026,-0.006c-1.128,-0.294 -2.088,-0.612 -2.91,-0.95l0,-96.333c0.969,-0.348 1.953,-0.68 2.936,-0.991M579.002,98.739l0,19.914c-0.692,0.302 -1.625,0.057 -2.936,-0.98l0,-17.826c0.273,-0.093 0.555,-0.174 0.851,-0.237c0.816,-0.175 1.498,-0.477 2.085,-0.871M579.002,118.653l0,-19.914c4.583,-3.09 3.191,-11.979 12.307,-11.979c10.281,0 4.112,-5.654 15.933,-2.57c6.683,-0.513 1.029,7.71 -4.626,7.71c-5.652,0 -19.017,11.307 -20.559,16.961c-1.083,3.972 -1.151,8.957 -3.055,9.792M579.002,299.695l0,-21.824c3.169,0.098 6.206,1.412 8.027,3.536c2.729,3.183 -6.368,14.099 -7.732,17.738c-0.07,0.187 -0.171,0.37 -0.295,0.55M579.002,361.045l0,-3.813c1.195,-0.378 2.058,0.297 1.804,1.57c-0.212,1.058 -0.939,2.27 -1.804,2.243M625.954,335.984l0,0.896c-0.117,-0.342 -0.118,-0.641 0,-0.896M625.954,325.831l0,3.813c-0.318,-0.01 -0.656,-0.187 -0.993,-0.602c-1.255,-1.545 -1.159,-2.509 0.482,-2.992c0.176,-0.094 0.347,-0.166 0.511,-0.219M625.954,313.212l0,3.063c-0.549,0.775 -1.358,1.144 -2.168,0.148c-1.253,-1.545 -1.157,-2.51 0.484,-2.991c0.657,-0.352 1.255,-0.403 1.684,-0.22M625.954,136.057c-0.549,0.417 -1.232,0.817 -2.087,1.184c-6.368,2.728 -8.642,-0.455 -5.459,-4.549c3.184,-4.093 5.003,-6.821 3.639,-14.098c-1.365,-7.277 0,-14.098 -4.548,-13.188c-4.547,0.909 -7.731,12.279 -7.731,16.372c0,4.093 3.184,5.457 -2.274,5.457c-5.458,0 -7.275,-5.457 -11.37,-5.457c-4.092,0 -0.909,4.547 -5.002,4.547c-3.034,0 -7.569,1.001 -12.12,2.445l0,98.28c12.735,3.333 8.341,10.264 0,12.987l0,34.386c1.144,0.25 2.311,0.678 3.478,1.527c5.004,3.638 3.639,0 11.826,0c8.186,0 7.73,-0.909 14.098,4.548c6.366,5.457 10.004,7.277 14.098,7.277c4.093,0 -1.818,13.643 2.275,18.646c0.387,0.476 0.782,1.005 1.177,1.575l0,-171.939ZM625.954,111.151l0,4.491c-0.379,-1.579 -0.593,-3.143 0,-4.491M625.954,316.275l0,-3.063c0.517,0.22 0.79,0.781 0.632,1.57c-0.103,0.514 -0.329,1.065 -0.632,1.493M627.568,334.981l0,3.744c-0.274,-0.053 -0.561,-0.234 -0.847,-0.586c-0.383,-0.473 -0.641,-0.89 -0.767,-1.259l0,-0.896c0.17,-0.364 0.581,-0.64 1.25,-0.838c0.124,-0.066 0.246,-0.12 0.364,-0.165M627.568,330.181l0,1.464c-0.31,-0.606 -0.316,-1.091 0,-1.464M627.568,326.176l0,1.881c-0.322,0.846 -0.924,1.609 -1.614,1.587l0,-3.813c0.71,-0.224 1.304,-0.078 1.614,0.345M627.568,134.265l0,176.215c-0.538,-0.878 -1.079,-1.717 -1.614,-2.484l0,-171.939c0.761,-0.578 1.266,-1.188 1.614,-1.792M627.568,109.291l0,15.214c-1.144,-0.337 -1.64,-0.937 -0.973,-2.272c0.888,-1.776 -0.065,-4.202 -0.641,-6.591l0,-4.491c0.302,-0.684 0.813,-1.312 1.614,-1.86M627.568,328.057l0,-1.881c0.215,0.29 0.295,0.707 0.192,1.224c-0.043,0.217 -0.108,0.44 -0.192,0.657M629.183,340.747l0,3.358c-0.135,-0.094 -0.272,-0.223 -0.407,-0.389c-1.236,-1.521 -1.161,-2.48 0.407,-2.969M629.183,335.113l0,2.379c-0.369,0.759 -0.96,1.36 -1.615,1.233l0,-3.744c0.674,-0.257 1.256,-0.188 1.615,0.132M629.183,329.353l0,3.813c-0.318,-0.009 -0.656,-0.188 -0.994,-0.603c-0.271,-0.332 -0.477,-0.638 -0.621,-0.918l0,-1.464c0.217,-0.254 0.582,-0.456 1.103,-0.61c0.176,-0.094 0.348,-0.165 0.512,-0.218M629.183,130.246l0,182.932c-0.536,-0.914 -1.076,-1.824 -1.615,-2.698l0,-176.215c0.998,-1.719 0.745,-3.375 1.615,-4.019M629.183,108.55l0,16.26c-0.617,-0.081 -1.165,-0.173 -1.615,-0.305l0,-15.214c0.125,-0.084 0.254,-0.167 0.392,-0.248c0.533,-0.31 0.93,-0.463 1.223,-0.493M629.183,333.166l0,-3.813c1.195,-0.378 2.059,0.297 1.804,1.569c-0.21,1.059 -0.939,2.271 -1.804,2.244M629.183,337.492l0,-2.379c0.319,0.282 0.463,0.762 0.338,1.386c-0.066,0.329 -0.183,0.675 -0.338,0.993M629.183,344.105l0,-3.358l0.076,-0.024c1.447,-0.772 2.606,-0.097 2.316,1.35c-0.258,1.293 -1.284,2.813 -2.392,2.032M644.887,321.053c-0.229,-0.031 -0.461,-0.029 -0.698,0.014c-4.002,-0.567 -2.666,7.389 0.698,7.734l0,-7.748ZM644.887,111.829l0,191.605c-1.111,1.961 -0.309,7.774 -1.465,11.628c-1.365,4.547 -3.639,8.186 -6.822,7.731c-2.064,-0.295 -4.701,-4.987 -7.417,-9.615l0,-182.932c0.244,-0.181 0.577,-0.282 1.05,-0.282c3.183,0 6.367,5.457 10.916,5.457c4.547,0 0.454,-6.822 -4.549,-9.096c-2.444,-1.11 -5.324,-1.245 -7.417,-1.515l0,-16.26c2.714,-0.277 -3.519,10.1 4.689,6.406c9.095,-4.093 1.819,-3.639 6.367,-4.548c2.158,-0.432 3.612,0.275 4.648,1.421M644.887,328.801l0,-7.748c2.88,0.388 4.869,6.255 1.062,7.608c-0.372,0.134 -0.727,0.173 -1.062,0.14M679.071,324.365l0,3.813c-0.318,-0.01 -0.657,-0.187 -0.993,-0.604c-1.256,-1.543 -1.159,-2.509 0.482,-2.992c0.175,-0.092 0.347,-0.166 0.511,-0.217M679.071,89.864l0,205.856c-0.356,-0.62 -0.847,-1.163 -1.539,-1.578c-4.549,-2.73 -9.552,-5.913 -15.919,-2.274c-6.366,3.638 -13.643,10.46 -15.917,10.914c-0.348,0.07 -0.609,0.299 -0.809,0.652l0,-191.605c1.146,1.27 1.778,3.08 2.279,4.484c0.954,2.672 6.777,7.826 8.971,11.357c2.196,3.532 3.819,4.581 3.819,1.337c0,-3.246 -2.863,-7.444 -4.772,-8.781c-1.909,-1.336 0.571,-8.876 -3.722,-10.689c-4.296,-1.814 -7.159,-7.159 -1.719,-7.827c5.441,-0.668 6.54,-1.209 9.157,-3.826c2.618,-2.617 11.07,-5.837 18.317,-7.649c0.669,-0.168 1.285,-0.288 1.854,-0.371M679.071,62.554l0,7.097c-2.767,-1.655 -2.883,-6.864 0,-7.097M679.071,69.651l0,-7.097c0.164,-0.013 0.337,-0.011 0.519,0.009c3.124,-2.232 15.177,-1.785 10.935,-0.893c-4.24,0.893 -4.909,8.482 -9.597,8.482c-0.711,0 -1.332,-0.188 -1.857,-0.501M679.071,328.178c0.867,0.026 1.593,-1.186 1.806,-2.244c0.253,-1.273 -0.609,-1.948 -1.806,-1.569l0,3.813ZM698.973,343.237l0,16.261c-1.236,-0.983 -2.367,-2.051 -3.257,-3.097c-4.459,-5.247 -12.328,-16.002 -5.508,-16.526c2.702,-0.262 5.811,1.129 8.765,3.362M698.973,88.231l0,228.238c-3.165,-2.862 -6.435,-4.678 -6.435,-1.863c0,3.639 0,10.46 3.183,11.825c0.902,0.386 2.059,1.246 3.252,2.425l0,10.365c-0.477,-0.392 -0.959,-0.729 -1.432,-0.965c-3.638,-1.819 -2.273,-9.551 -5.912,-11.825c-3.639,-2.274 -5.457,-4.548 -2.274,-10.915c3.183,-6.366 -0.455,-10.459 -5.912,-10.459c-4.626,0 -2.39,-5.883 -4.372,-9.337l0,-205.856c5.594,-0.814 6.677,2.034 9.416,0.573c3.019,-1.61 8.654,2.213 10.264,-1.61c0.082,-0.194 0.156,-0.392 0.222,-0.596M698.973,339.221c3.203,2.627 6.3,7.757 6.3,2.218c0,-4.565 -3.273,-9.597 -6.3,-12.583l0,10.365ZM698.973,359.498l0,-16.261c5.939,4.485 11.259,12.37 11.434,17.099c0.211,5.668 -6.47,3.102 -11.434,-0.838M721.335,363.829l0,3.579c-6.358,-0.227 -8.604,-3.917 -1.485,-3.662c0.518,0 1.014,0.031 1.485,0.083M721.335,342.982l0,7.518c-1.173,-2.147 -2.769,-4.783 0,-7.518M721.335,291.018c-0.074,-0.012 -0.148,-0.017 -0.225,-0.017c-2.625,0.375 -2.043,3.957 0.225,4.99l0,-4.973ZM721.335,87.173l0,8.301c-5.808,1.419 -11.562,5.009 -14.243,9.476c-2.729,4.549 2.729,5.913 6.368,2.274c2.466,-2.468 4.1,-4.935 7.875,-5.699l0,185.977c-5.931,0.809 -12.406,4.283 -9.24,9.823c3.638,6.366 6.367,10.915 6.821,13.644c0.456,2.727 -4.548,5.002 -7.276,10.005c-2.729,5.002 -6.367,2.274 -10.005,-1.819c-0.823,-0.925 -1.737,-1.849 -2.662,-2.686l0,-228.238c1.265,-3.806 0.276,-9.096 5.845,-9.658c8.186,0 -0.455,7.732 5.003,7.276c3.786,-0.315 7.575,0.683 11.514,1.324M721.335,95.474l0,-8.301c1.737,0.283 3.504,0.496 5.313,0.496c5.912,0 0.909,6.367 -5.003,7.732c-0.104,0.023 -0.208,0.048 -0.31,0.073M721.335,295.991l0,-4.973c2.191,0.356 2.852,5.878 0.367,5.113c-0.127,-0.039 -0.25,-0.086 -0.367,-0.14M721.335,350.5l0,-7.518c0.685,-0.678 1.638,-1.362 2.934,-2.046c7.106,-3.75 9.474,-11.053 14.014,-11.053c2.762,-0.197 2.96,3.948 2.171,8.881c-0.79,4.935 -8.29,17.765 -10.857,17.567c-2.565,-0.198 -6.512,-2.369 -7.895,-5.132c-0.112,-0.227 -0.237,-0.459 -0.367,-0.699M721.335,367.408l0,-3.579c4.77,0.546 6.824,3.589 0.615,3.589c-0.21,0 -0.415,-0.003 -0.615,-0.01M751.673,392.042l0,48.447c-1.666,0.447 -3.57,0.434 -5.351,0.297c-3.939,-0.303 -6.969,3.333 -9.695,1.515c-2.725,-1.818 2.12,-4.847 -0.909,-11.814c-3.029,-6.968 -2.725,-14.542 -4.846,-18.177c-2.121,-3.634 0.605,-11.511 8.178,-11.814c7.574,-0.304 12.117,-1.818 12.117,-4.544c0,-1.626 -0.537,-3.037 0.506,-3.91M751.673,351.381l0,4.21c-3.358,-0.951 -6.195,-6.186 -3.324,-6.365c0.76,0 2.134,0.965 3.324,2.155M751.673,306.743l0,4.752c-2.273,-0.23 -4.391,-4.932 -1.548,-5.099c0.509,0 1.044,0.127 1.548,0.347M751.673,294.772l0,5.885c-0.332,0.058 -0.716,0.067 -1.154,0.014c-4.934,-0.592 -5.724,-6.315 -0.592,-6.513c0.644,0 1.237,0.235 1.746,0.614M751.673,279.754c-0.054,-0.003 -0.11,-0.003 -0.167,-0.003c-3.539,-0.591 -2.572,5.871 0.167,6.31l0,-6.307ZM751.673,105.237l0,126.094c-0.993,-0.259 -2.195,-0.405 -3.65,-0.405c-7.276,0 -8.642,7.277 -4.093,7.277c4.546,0 -1.82,10.005 1.819,14.098c3.637,4.093 7.73,12.279 4.093,15.918c-3.639,3.637 -4.549,9.095 -8.187,10.914c-3.637,1.82 -11.369,8.186 -17.737,8.186c-0.825,0 -1.698,0.061 -2.583,0.183l0,-185.977c1.79,-0.363 4.06,-0.343 7.132,0.242c9.377,1.787 15.248,0.504 23.206,3.47M751.673,286.061l0,-6.307c3.751,0.188 2.754,6.701 0.031,6.311l-0.031,-0.004ZM751.673,300.657l0,-5.885c2.047,1.527 2.736,5.406 0,5.885M751.673,311.495l0,-4.752c1.837,0.804 3.23,2.84 1.214,4.39c-0.391,0.301 -0.805,0.403 -1.214,0.362M751.673,355.591l0,-4.21c1.898,1.896 3.324,4.358 1.018,4.358c-0.342,0 -0.683,-0.052 -1.018,-0.148M759.066,390.463l0,43.398c-1.464,0.168 -2.628,0.794 -3.051,2.382c-0.664,2.488 -2.326,3.704 -4.342,4.246l0,-48.447c0.706,-0.592 2.136,-0.937 4.948,-0.937c1.173,0 1.943,-0.242 2.445,-0.642M759.066,368.552l0,3.536c-0.192,-0.095 -0.385,-0.255 -0.58,-0.494c-1.254,-1.545 -1.159,-2.51 0.484,-2.992l0.096,-0.05ZM759.066,322.727l0,7.798c-0.652,-0.021 -1.344,-0.384 -2.033,-1.234c-2.566,-3.158 -2.369,-5.133 0.987,-6.118c0.357,-0.192 0.709,-0.339 1.046,-0.446M759.066,107.105l0,133.796c-1.184,-0.92 -2.217,-1.845 -2.403,-3.153c-0.364,-2.547 -1.019,-5.384 -4.99,-6.417l0,-126.094c0.146,0.055 0.295,0.11 0.442,0.169c2.271,0.882 4.645,1.344 6.951,1.699M759.066,99.299l0,5.933c-0.242,-0.153 -0.48,-0.317 -0.72,-0.49c-3.808,-2.749 -5.287,-5.71 -2.875,-5.651c1.029,-0.515 2.263,-0.321 3.595,0.208M759.066,330.525l0,-7.798c2.445,-0.775 4.212,0.607 3.69,3.209c-0.432,2.164 -1.919,4.643 -3.69,4.589M759.066,372.088l0,-3.536c1.402,-0.691 2.502,-0.015 2.219,1.4c-0.245,1.225 -1.179,2.655 -2.219,2.136M763.997,382.648l0,51.588c-1.647,-0.246 -3.444,-0.547 -4.931,-0.375l0,-43.398c2.475,-1.976 -1.573,-7.839 4.22,-7.839c0.247,0 0.484,0.008 0.711,0.024M763.997,107.837c-1.559,-0.268 -3.226,-0.47 -4.931,-0.732l0,133.796c1.693,1.317 3.697,2.622 3.964,5.033c0.142,1.273 0.46,2.502 0.967,3.564l0,-141.661ZM763.997,101.959l0,5.322c-1.72,-0.415 -3.333,-1.026 -4.931,-2.049l0,-5.933c1.569,0.623 3.273,1.712 4.931,2.66M767.697,384.172l0,50.216c-0.057,0.013 -0.114,0.025 -0.17,0.037c-0.895,0.178 -2.161,0.014 -3.53,-0.189l0,-51.588c1.841,0.126 2.959,0.747 3.7,1.524M767.697,273.302l0,3.813c-0.318,-0.01 -0.657,-0.187 -0.993,-0.604c-1.256,-1.543 -1.159,-2.509 0.482,-2.991c0.175,-0.093 0.347,-0.165 0.511,-0.218M767.697,108.741c-1.125,-0.401 -2.373,-0.677 -3.7,-0.904l0,141.661c0.775,1.622 1.992,2.854 3.7,3.256l0,-13.626c-2.344,-3.485 -5.498,-4.66 -1.029,-5.472c0.375,-0.069 0.717,-0.145 1.029,-0.229l0,-124.686ZM767.697,103.626l0,4.301c-1.304,-0.171 -2.527,-0.364 -3.7,-0.646l0,-5.322c1.288,0.738 2.551,1.388 3.7,1.667M767.697,107.927c1.055,0.137 2.16,0.262 3.334,0.409c5.075,0.634 2.027,-4.938 -1.921,-4.58c-0.445,0.042 -0.92,-0.01 -1.413,-0.13l0,4.301ZM767.697,252.754l0,-13.626c0.279,0.415 0.548,0.864 0.791,1.348c2.273,4.549 6.367,11.37 1.819,12.279c-0.972,0.195 -1.841,0.182 -2.61,-0.001M767.697,277.115l0,-3.813c1.197,-0.379 2.059,0.297 1.805,1.569c-0.212,1.058 -0.939,2.27 -1.805,2.244M776.395,380.743l0,52.406c-3.982,-0.49 -6.759,0.807 -8.698,1.239l0,-50.216c1.719,1.797 1.424,4.418 3.464,3.602c3.029,-1.213 0.607,-6.968 4.544,-6.968c0.251,0 0.479,-0.023 0.69,-0.063M776.395,254.005l0,4.152c-3.435,-1.968 -1.804,-4.935 0,-4.152M776.395,115.887l0,108.403c-1.38,0.099 -2.5,0.541 -3.359,2.088c-2.103,3.786 -1.484,6.016 -5.339,7.049l0,-124.686c2.211,0.787 3.948,2.057 4.884,4.396c1.12,2.802 2.319,3.225 3.814,2.75M776.395,258.157l0,-4.152c0.063,0.028 0.128,0.06 0.192,0.098c1.254,0.47 3.448,6.114 -0.157,4.076l-0.035,-0.022ZM781.773,377.035l0,57.725c-2.001,-0.936 -3.787,-1.416 -5.378,-1.611l0,-52.406c3.02,-0.581 2.315,-4.997 5.378,-3.708M781.773,352.45l0,4.236c-3.109,-1.239 -5.34,-4.697 -1.451,-4.697c0.401,0 0.911,0.176 1.451,0.461M781.773,113.333l0,110.876c-2.097,0.265 -3.888,-0.026 -5.378,0.081l0,-108.403c1.448,-0.458 3.173,-1.757 5.378,-2.554M781.773,356.686l0,-4.236c2.374,1.262 5.32,4.671 2.103,4.671c-0.708,0 -1.427,-0.166 -2.103,-0.435M789.901,389.539l0,50.097c-0.628,-0.31 -2.086,-1.331 -5.41,-3.393c-0.948,-0.589 -1.854,-1.079 -2.718,-1.483l0,-57.725c0.093,0.039 0.192,0.084 0.294,0.135c3.636,1.818 5.755,4.544 6.968,9.391c0.307,1.224 0.554,2.197 0.866,2.978M789.901,246.559l0,3.811c-0.19,0.246 -0.422,0.494 -0.699,0.741c-3.199,2.857 -4.106,-5.761 -1.377,-5.217c0.667,-0.229 1.49,0.061 2.076,0.665M789.901,241.097l0,2.312c-1.006,-0.186 -1.002,-1.319 0,-2.312M789.901,112.71l0,67.024c-4.149,1.219 -3.539,5.444 0,5.358l0,34.242c-1.258,1.634 -2.746,3.011 -4.587,3.86c-1.264,0.584 -2.444,0.876 -3.541,1.015l0,-110.876c1.062,-0.384 2.235,-0.651 3.541,-0.651c1.844,0 3.321,0.033 4.587,0.028M789.901,250.37l0,-3.811c0.819,0.842 1.175,2.296 0,3.811M793.845,392.448l0,47.545c-1.174,-2.916 -2.041,-4.729 -2.992,-3.146c-1.131,1.884 0.081,3.299 -0.952,2.789l0,-50.097c0.656,1.638 1.594,2.427 3.944,2.909M793.845,351.661l0,9.983c-2.937,-4.737 -4.992,-9.797 -2.075,-10.05c0.59,-0.066 1.295,-0.032 2.075,0.067M793.845,245.05l0,3.062l-0.069,0.076c-1.213,1.33 -1.706,-2.879 0.069,-3.138M793.845,239.742l0,3.276c-0.616,-0.226 -1.406,-0.221 -2.448,0.166c-0.633,0.234 -1.131,0.291 -1.496,0.225l0,-2.312c0.299,-0.295 0.686,-0.579 1.16,-0.82c0.957,-0.487 1.9,-0.54 2.784,-0.535M793.845,184.761l0,27.674c-1.113,2.336 -2.343,4.823 -3.944,6.899l0,-34.242c0.274,-0.006 0.564,-0.037 0.872,-0.099c1.082,-0.216 2.112,-0.304 3.072,-0.232M793.845,112.39l0,66.01c-0.936,0.554 -1.956,0.95 -3.072,1.136c-0.312,0.051 -0.601,0.119 -0.872,0.198l0,-67.024c1.538,-0.007 2.762,-0.071 3.944,-0.32M793.845,86.836l0,3.177c-0.721,-1.104 -0.906,-2.32 0,-3.177M793.845,212.435l0,-27.674c3.078,0.23 5.438,2.094 6.478,6.599c1.364,5.912 -1.365,11.825 -4.094,16.372c-0.798,1.331 -1.559,2.976 -2.384,4.703M793.845,248.112c1.281,-1.404 1.521,-1.76 0.635,-3.003c-0.237,-0.071 -0.448,-0.086 -0.635,-0.059l0,3.062ZM806.773,377.781l0,75.719c-3.444,-0.639 -6.11,-0.822 -8.65,-4.534c-1.878,-2.745 -3.205,-6.316 -4.278,-8.973l0,-47.545c0.963,0.198 2.16,0.343 3.672,0.475c4.847,-0.303 4.544,-7.877 4.544,-12.117c0,-2.57 2.446,-4.027 4.712,-3.025M806.773,353.921l0,14.096c-2.497,1.479 -5.282,3.837 -7.897,0.354c-1.482,-1.554 -3.393,-4.089 -5.031,-6.727l0,-9.983c3.893,0.495 9.673,2.631 12.436,2.301c0.157,-0.018 0.32,-0.032 0.492,-0.041M806.773,232.974l0,0.819c-0.043,0.238 -0.127,0.447 -0.265,0.612c-1.02,1.222 -1.338,3.233 -1.556,5.189c-0.218,1.955 -1.446,4.211 -3.066,4.592c-1.621,0.381 -3.092,0.581 -3.505,1.782c-0.413,1.202 -1.63,1.1 -2.394,-0.445c-0.489,-0.988 -1.047,-2.107 -2.142,-2.505l0,-3.276c1.571,0.009 2.963,0.202 3.931,-1.511c1.516,-2.679 3.362,-1.484 4.046,-3.895c0.684,-2.411 0.587,-5.631 2.532,-5.081c0.976,0.216 2.207,2.187 2.419,3.719M806.773,211.671c-1.049,-0.965 -2.24,-1.678 -3.069,-1.614c-2.585,0.225 0.636,3.837 3.069,5.341l0,-3.727ZM806.773,198.484l0,7.913c-2.754,-2.246 -2.737,-8.717 -0.404,-7.94c0.139,0 0.274,0.011 0.404,0.027M806.773,186.577l0,2.784c-2.284,-0.723 -3.916,-3.516 -0.561,-2.817c0.196,0 0.383,0.012 0.561,0.033M806.773,107.063l0,58.015c-2.234,-0.088 -4.093,0.45 -5.086,2.633c-1.809,3.98 -4.194,8.535 -7.842,10.689l0,-66.01c1.448,-0.305 2.834,-0.887 4.659,-1.982c1.962,-1.177 5.278,-2.524 8.269,-3.345M806.773,100.101l0,2.852c-0.52,0.368 -1.317,0.626 -2.428,0.674c-5.132,0.224 -5.802,-4.017 -1.116,-4.463c1.585,-0.151 2.811,0.285 3.544,0.937M806.773,85.702l0,5.33c-2.216,1.19 -5.88,1.378 -8.253,1.657c-1.601,0.188 -3.664,-1.134 -4.675,-2.676l0,-3.177c0.673,-0.636 1.944,-1.075 4.041,-1.125c3.369,-0.27 6.825,-0.711 8.887,-0.009M805.206,215.883c0.691,0.257 1.188,0.604 1.567,0.986l0,9.164c-1.186,-1.095 -3.404,-3.307 -2.326,-0.953c1.192,2.608 0.994,3.307 -0.239,3.209c-1.232,-0.097 -2.714,-2.87 -2.952,-4.701c-0.237,-1.833 2.422,0.35 3.185,-1.451c0.762,-1.8 -1.536,-7.326 0.765,-6.254M806.773,91.032l0,-5.33c1.173,0.399 1.895,1.167 1.895,2.547c0,1.293 -0.756,2.17 -1.895,2.783M806.773,102.953l0,-2.852c0.965,0.859 1.071,2.092 0,2.852M806.773,189.361l0,-2.784c2.813,0.329 3.357,3.093 0.85,2.946c-0.287,-0.018 -0.573,-0.075 -0.85,-0.162M806.773,206.397l0,-7.913c2.975,0.399 3.913,5.133 2.261,4.832c-1.723,-0.313 0.627,5.33 -2.195,3.136l-0.066,-0.055ZM806.773,215.398l0,-3.727c1.529,1.407 2.756,3.349 2.104,4.186c-0.31,0.398 -1.146,0.133 -2.104,-0.459M806.773,233.793l0,-0.819c0.041,0.295 0.044,0.572 0,0.819M817.708,457.975l0,9.273c-1.06,0.472 -2.266,0.237 -3.47,-1.248c-3.05,-3.75 -2.814,-6.096 1.171,-7.268c0.816,-0.435 1.593,-0.681 2.299,-0.757M817.708,397.429l0,58.114c-1.483,0.73 -2.981,0.847 -4.438,0.086c-2.473,-1.29 -4.603,-1.778 -6.497,-2.129l0,-75.719c1.474,0.652 2.87,2.344 3.467,5.449c0.696,3.618 3.822,9.026 7.468,14.199M817.708,363.616l0,6.137c-4.975,-1.09 -6.422,-3.308 -9.148,-2.566c-0.573,0.155 -1.172,0.467 -1.787,0.83l0,-14.096c3.437,-0.181 9.438,1.591 9.042,4.976c-0.139,1.197 0.803,2.953 1.893,4.719M817.708,111.128l0,55.176c-0.476,0.026 -0.964,0.042 -1.468,0.042c-3.076,0 -6.584,-1.155 -9.467,-1.268l0,-58.015c3.942,-1.084 7.319,-1.256 6.284,1.071c-1.819,4.093 1.364,7.732 3.183,5.003c0.474,-0.71 0.947,-1.419 1.468,-2.009M817.708,90.468l0,3.698c-3.867,-0.603 -5.299,-4.114 -0.195,-3.706c0.065,0 0.129,0.003 0.195,0.008M806.773,216.869c1.202,1.217 1.204,2.806 2.405,3.083c1.578,0.362 4.6,1.556 2.283,2.916c-2.319,1.359 -3.334,4.348 -4.347,3.473c-0.098,-0.086 -0.213,-0.19 -0.341,-0.308l0,-9.164ZM817.708,94.166l0,-3.698c2.639,0.174 5.717,3.786 1.144,3.786c-0.401,0 -0.782,-0.032 -1.144,-0.088M817.708,369.753l0,-6.137c2.144,3.476 4.859,6.988 1.01,6.333c-0.352,-0.06 -0.689,-0.126 -1.01,-0.196M817.708,467.248l0,-9.273c2.333,-0.256 3.869,1.338 3.329,4.04c-0.426,2.125 -1.707,4.509 -3.329,5.233M832.364,416.054l0,13.166c-0.386,2.046 -0.908,4.03 -1.525,5.81c-2.155,6.228 -7.531,17.758 -13.131,20.513l0,-58.114c4.289,6.084 9.299,11.844 11.919,13.973c1.303,1.057 2.19,2.686 2.737,4.652M832.364,355.67l0,4.364c-3.661,-1.991 -6.705,-6.127 -3.092,-5.676c0.67,0 1.851,0.539 3.092,1.312M832.364,115.036l0,52.224c-0.77,0.117 -1.591,-0.013 -2.48,-0.459c-4.128,-2.064 -7.507,-0.756 -12.176,-0.497l0,-55.176c1.482,-1.678 3.353,-2.384 6.718,0.644c2.118,1.906 5.024,2.826 7.938,3.264M832.364,429.22l0,-13.166c1.03,3.697 0.859,8.593 0,13.166M836.727,416.248l0,3.813c-0.318,-0.011 -0.656,-0.188 -0.993,-0.604c-1.255,-1.544 -1.158,-2.51 0.483,-2.991c0.175,-0.094 0.347,-0.166 0.51,-0.218M836.727,359.46l0,1.443c-0.207,0.106 -0.516,0.165 -0.943,0.165c-1.078,0 -2.279,-0.413 -3.42,-1.034l0,-4.364c1.743,1.085 3.607,2.63 4.363,3.79M836.727,115.4l0,48.475c-1.363,1.818 -2.757,3.141 -4.363,3.385l0,-52.224c1.486,0.224 2.977,0.324 4.363,0.364M836.727,360.903l0,-1.443c0.429,0.655 0.503,1.186 0,1.443M836.727,420.061l0,-3.813c1.197,-0.38 2.06,0.295 1.806,1.568c-0.212,1.058 -0.938,2.271 -1.806,2.245M846.274,366.649l0,3.801c-4.377,-0.971 -8.455,-3.241 -4.174,-4.335c1.095,-0.171 2.628,0.077 4.174,0.534M846.274,170.881l0,22.353c-2.932,0.701 -6.246,0.066 -6.466,-1.907c-0.341,-3.072 1.195,-6.826 0.171,-9.386c-1.023,-2.56 -1.878,-3.584 3.242,-8.021c1.192,-1.033 2.182,-2.067 3.053,-3.039M846.274,119.437l0,34.531c-1.784,0.131 -3.778,1.191 -5.476,3.737c-1.443,2.166 -2.743,4.401 -4.071,6.17l0,-48.475c1.735,0.051 3.311,0.011 4.527,0.011c1.89,0 3.488,1.938 5.02,4.026M846.274,370.45l0,-3.801c4.028,1.193 8.133,3.816 4.708,4.206c-1.311,0.147 -3.032,-0.033 -4.708,-0.405M856.245,375.136l0,3.649c-3.743,-0.506 -7.368,-5.086 -2.895,-5.086c0.758,0 1.898,0.624 2.895,1.437M856.245,166.496l0,20.645c-0.302,-0.021 -0.656,-0.152 -1.077,-0.422c-4.266,-2.73 -2.73,0.683 -4.949,4.096c-0.794,1.222 -2.311,2.029 -3.945,2.419l0,-22.353c2.87,-3.205 4.466,-5.756 7.871,-5.494c0.675,-0.068 1.397,0.367 2.1,1.109M856.245,123.879l0,33.142c-2.337,0.803 -4.652,0.9 -5.442,-0.679c-0.726,-1.457 -2.49,-2.524 -4.529,-2.374l0,-34.531c1.786,2.434 3.48,5.069 5.439,5.069c1.481,0 2.96,-0.301 4.532,-0.627M856.245,116.26l0,3.048c-2.308,-0.669 -4.115,-3.072 -0.735,-3.072c0.258,-0.014 0.502,-0.004 0.735,0.024M856.245,119.308l0,-3.048c2.698,0.327 3.655,3.219 1.141,3.219c-0.379,0 -0.767,-0.063 -1.141,-0.171M856.245,187.141c2.766,0.194 1.053,-8.988 3.36,-9.296c2.054,-0.274 -0.505,-8.343 -3.36,-11.349l0,20.645ZM856.245,378.785l0,-3.649c1.865,1.518 3.23,3.696 0.66,3.696c-0.22,0 -0.44,-0.018 -0.66,-0.047M862.745,400.006l0,5.412c-3.593,-1.731 -5.58,-5.527 -1.007,-5.527c0.323,0 0.661,0.041 1.007,0.115M862.745,167.491l0,3.392c-2.261,-0.635 -3.734,-3.298 -0.581,-3.448c0.201,0 0.395,0.02 0.581,0.056M862.745,157.651l0,4.998c-5.116,-0.928 -5.015,-2.718 -0.118,-4.944l0.118,-0.054ZM862.745,123.073l0,30.671c-0.635,0.031 -1.32,0.265 -1.935,0.778c-1.151,0.957 -2.864,1.915 -4.565,2.499l0,-33.142c1.965,-0.408 4.071,-0.855 6.5,-0.806M862.745,170.883l0,-3.392c2.352,0.45 3.487,3.528 0.956,3.528c-0.326,0 -0.649,-0.05 -0.956,-0.136M862.745,405.418l0,-5.412c3.893,0.837 8.848,5.967 3.841,6.245c-1.338,0.075 -2.674,-0.271 -3.841,-0.833M871.761,468.526l0,9.007c-1.806,1.546 -3.225,3.204 -3.661,5.059c-1.211,5.149 -2.423,-4.847 -3.332,-7.575c-0.806,-2.419 2.442,-5.076 6.993,-6.491M871.761,389.354l0,5.426c-3.583,-1.235 -6.257,-6.438 -3.054,-6.705c1.014,0.08 2.088,0.581 3.054,1.279M871.761,183.38l0,2.821c-2.172,-1.288 -3.834,-3.919 -2.258,-3.919c0.588,0.098 1.427,0.533 2.258,1.098M871.761,122.821l0,38.175c-2.946,0.495 -3.873,2.513 -8.678,1.712c-0.115,-0.02 -0.227,-0.039 -0.338,-0.059l0,-4.998c3.722,-1.753 2.155,-4.011 0,-3.907l0,-30.671c0.407,0.009 0.821,0.03 1.248,0.069c4.385,0.399 2.479,-1.649 7.768,-0.321M871.761,186.201l0,-2.821c2.067,1.409 4.08,3.632 2.01,3.51c-0.669,-0.039 -1.363,-0.304 -2.01,-0.689M871.761,394.78l0,-5.426c2.777,2.018 4.638,5.69 1.49,5.69c-0.506,0 -1.007,-0.097 -1.49,-0.264M875.2,467.335l0,7.588c-1.199,0.842 -2.386,1.708 -3.439,2.61l0,-9.007c0.577,-0.18 1.178,-0.339 1.791,-0.476c0.724,-0.161 1.253,-0.407 1.648,-0.715M875.2,325.973l0,3.813c-0.318,-0.01 -0.656,-0.187 -0.993,-0.601c-1.255,-1.546 -1.159,-2.511 0.482,-2.994c0.176,-0.093 0.347,-0.165 0.511,-0.218M875.2,123.831l0,37.513c-0.664,-0.273 -1.365,-0.455 -2.112,-0.455c-0.49,0 -0.928,0.04 -1.327,0.107l0,-38.175c0.742,0.186 1.627,0.44 2.692,0.775c0.257,0.083 0.507,0.16 0.747,0.235M875.2,329.786l0,-3.813c1.197,-0.379 2.06,0.296 1.805,1.569c-0.211,1.059 -0.938,2.271 -1.805,2.244M881.835,459.934l0,9.819c-0.034,0.039 -0.068,0.077 -0.103,0.115c-1.562,1.692 -4.076,3.329 -6.532,5.055l0,-7.588c2.587,-2.013 -0.643,-6.675 5.927,-7.464c0.25,0 0.486,0.021 0.708,0.063M881.835,440.08l0,9.636c-1.798,-4.461 -4.161,-9.087 -1.011,-9.536c0.365,-0.076 0.7,-0.109 1.011,-0.1M881.835,117.753l0,45.442c-1.974,1.701 -4.016,-0.778 -6.635,-1.851l0,-37.513c7.864,2.437 7.331,1.435 3.8,-3.418c-2.426,-3.336 -0.402,-3.637 2.835,-2.66M881.835,469.753c3.321,-3.704 3.483,-9.178 0,-9.819l0,9.819ZM886.119,445.39l0,15.36c-1.592,-1.185 -2.232,-3.008 -2.872,-6.635c-0.235,-1.326 -0.79,-2.852 -1.412,-4.399l0,-9.636c2.443,0.068 3.292,2.631 4.284,5.31M886.119,119.442l0,37.918c-1.33,1.481 -2.368,3.225 -3.48,4.893c-0.268,0.402 -0.537,0.711 -0.804,0.942l0,-45.442c1.302,0.394 2.8,0.995 4.284,1.689M892.468,453.337l0,5.467c-0.731,2.133 -2.193,3.713 -3.768,3.188c-1.075,-0.358 -1.912,-0.743 -2.581,-1.242l0,-15.36c0.869,2.341 1.846,4.77 4.096,5.696c1.1,0.452 1.825,1.265 2.253,2.251M892.468,390.499l0,3.813c-0.319,-0.011 -0.656,-0.188 -0.995,-0.604c-1.253,-1.544 -1.157,-2.51 0.484,-2.991c0.175,-0.094 0.345,-0.166 0.511,-0.218M892.468,121.849l0,20.802l-0.734,-0.408c-3.245,-1.803 -2.773,0.682 0.734,3.376l0,8.189c-2.886,0.486 -4.813,1.844 -6.349,3.552l0,-37.918c0.357,0.167 0.715,0.34 1.068,0.517c1.638,0.819 3.438,1.391 5.281,1.89M892.468,394.312l0,-3.813c1.195,-0.38 2.06,0.295 1.805,1.568c-0.211,1.059 -0.939,2.272 -1.805,2.245M892.468,458.804l0,-5.467c0.706,1.629 0.595,3.731 0,5.467M898.527,388.377l0,3.813c-0.32,-0.01 -0.657,-0.188 -0.995,-0.602c-1.254,-1.545 -1.157,-2.511 0.483,-2.993c0.176,-0.094 0.347,-0.165 0.512,-0.218M898.527,149.28l0,3.997c-0.893,0.216 -2.092,0.336 -3.61,0.336c-0.887,0 -1.7,0.068 -2.449,0.195l0,-8.189c0.917,0.704 2.04,1.422 3.359,2.081c1.086,0.544 1.989,1.074 2.7,1.58M898.527,123.458l0,22.039c-1.53,-0.341 -3.909,-1.649 -6.059,-2.846l0,-20.802c2.024,0.55 4.098,1.01 6.059,1.609M898.527,153.277l0,-3.997c2.586,1.839 2.658,3.352 0,3.997M898.527,392.19l0,-3.813c1.194,-0.379 2.059,0.298 1.804,1.569c-0.211,1.059 -0.939,2.272 -1.804,2.244M903.019,125.334l0,14.021c-2.329,0.214 -3.948,1.704 -3.098,4.252c0.589,1.769 -0.097,2.179 -1.394,1.89l0,-22.039c1.603,0.49 3.13,1.074 4.492,1.876M903.019,112.648l0,4.383c-4.302,-0.542 -5.302,-4.642 0,-4.383M903.019,117.031l0,-4.383l0.104,0.005c2.561,-0.171 5.973,4.437 0.854,4.437c-0.335,0 -0.655,-0.021 -0.958,-0.059M903.019,139.355l0,-14.021c0.507,0.298 0.992,0.626 1.449,0.991c4.548,3.639 9.551,7.277 16.373,7.277c6.821,0 0,10.915 -4.549,12.279c-4.547,1.365 -4.547,-3.183 -8.639,-5.457c-1.546,-0.859 -3.22,-1.199 -4.634,-1.069" style="fill:#35928d;"/></g></g></g></g></svg>