<svg viewBox="0 0 924 503" xmlns="http://www.w3.org/2000/svg" fill-rule="evenodd" clip-rule="evenodd" stroke-linejoin="round" stroke-miterlimit="1.414"><path d="M519.747 31.32a1.07 1.07 0 0 1-1.513 0l-.384-.382c-.416-.416-1.238-.757-1.828-.757h-8.326c-.59 0-1.235-.452-1.434-1.006l-3.526-9.787c-.465-1.29.277-2.345 1.648-2.345h6.93c.302-1.003.134-1.81-.155-2.246-.43-.644-1.598-1.832-1.384-3.616.07-.586.422-1.498.782-1.968 1.028-1.347 2.528-1.036 2.528.174 0 1.437-.76 2.874 1.944 4.65 2.704 1.774 4.553 5.25 4.553 5.26 0 .01.338.356.756.776l4.57 4.57a1.07 1.07 0 0 1 0 1.514l-5.163 5.165zM526.036 26.41l-6.122 6.122 1.402 1.403 6.12-6.123-1.4-1.4zM223.374 103.57l-.698-1.304 2.756-1.472.7 1.307a8.476 8.476 0 0 1 2.58-.4v2.238a6.32 6.32 0 1 0 0 12.64v2.238a8.46 8.46 0 0 1-.95-.054l-.432 1.417-2.988-.91.43-1.416a8.516 8.516 0 0 1-2.745-2.256l-1.306.698-1.47-2.756 1.306-.7a8.507 8.507 0 0 1-.346-3.534l-1.417-.43.91-2.99 1.416.43a8.524 8.524 0 0 1 2.254-2.745m5.34-1.87c.315 0 .633.02.952.055l.43-1.418 2.99.91-.43 1.417a8.502 8.502 0 0 1 2.744 2.254l1.306-.696 1.47 2.756-1.304.697a8.533 8.533 0 0 1 .345 3.537l1.417.43-.908 2.99-1.418-.432a8.503 8.503 0 0 1-2.255 2.745l.698 1.307-2.756 1.47-.698-1.305c-.826.262-1.696.4-2.583.4v-2.24a6.32 6.32 0 0 0 0-12.64v-2.236zM236.665 132.12l-.664.06-.088-1.01a5.838 5.838 0 0 1-1.953-.616l-.653.775-1.92-1.612.652-.775a5.805 5.805 0 0 1-.95-1.818l-1.006.087-.218-2.496 1.007-.088c.09-.686.297-1.342.618-1.955l-.775-.65 1.61-1.92.776.65a5.763 5.763 0 0 1 1.82-.946l-.088-1.01 1.833-.16v2.827a3.91 3.91 0 0 0-2.998 1.4 3.918 3.918 0 0 0 1.857 6.26c.376.115.76.17 1.14.17v2.827zm5.174-4.034l.775.65-1.612 1.92-.776-.65a5.773 5.773 0 0 1-1.817.946l.088 1.01-1.833.16v-2.828a3.91 3.91 0 0 0 2.998-1.398 3.918 3.918 0 0 0-2.998-6.432v-2.826l.663-.058.088 1.01a5.81 5.81 0 0 1 1.955.615l.652-.775 1.92 1.61-.65.777a5.77 5.77 0 0 1 .946 1.818l1.008-.09.22 2.498-1.01.088a5.73 5.73 0 0 1-.617 1.956" fill="#cbe3e2" fill-rule="nonzero"/><path d="M328.553 344.772h1.036v-.278a1.413 1.413 0 0 1 0-2.826v-.27l-1.037.002c-3.1.006-2.973 3.372 0 3.372m1.036 0h24.48v-.278a1.413 1.413 0 0 1 0-2.826v-.27c-8.16-.012-16.32-.012-24.48 0v.27a1.413 1.413 0 0 1 0 2.826v.278zm24.48 0h1.036c2.974 0 3.102-3.366 0-3.372l-1.035-.002v.27a1.413 1.413 0 0 1 0 2.826v.278zM343.706 329.9a1.412 1.412 0 1 0-.002 2.825 1.412 1.412 0 0 0 .002-2.824" fill="#cbe3e2"/><path d="M354.62 342.705l-9.64-10.78a.608.608 0 0 0-.857-.05.608.608 0 0 0-.048.857l9.64 10.783a.608.608 0 0 0 .905-.81M339.954 329.9a1.41 1.41 0 0 1 0 2.825 1.412 1.412 0 0 1 0-2.824" fill="#cbe3e2"/><path d="M329.04 342.705l10.515-11.76a.61.61 0 0 1 .857-.048c.25.223.27.61.048.858l-10.514 11.76a.61.61 0 0 1-.858.047.61.61 0 0 1-.048-.857M333.545 356.03c-2.462 0-3.246-1.206-3.524-2.81l-1.292-7.443h4.932v1.015a1.25 1.25 0 0 0-.39-.063c-.62 0-1.063.466-.986 1.036l.35 2.55.35 2.547c.054.4.327.75.676.922v2.244h-.115zm.115-10.253h4.062v.963a1.413 1.413 0 0 0-.174-.01c-.62 0-1.092.466-1.048 1.036.064.85.13 1.7.196 2.55.066.85.13 1.698.194 2.547.037.48.39.885.832 1.002v2.164h-4.062v-2.245c.15.073.31.114.476.114.558 0 .963-.467.903-1.037l-.268-2.548-.27-2.55c-.045-.444-.395-.828-.842-.973v-1.015zm4.062 0h4.105v.952c-.617 0-1.118.466-1.11 1.036.015.85.028 1.7.04 2.55.016.85.026 1.698.04 2.547.01.57.475 1.036 1.03 1.036v2.13h-4.105v-2.165a.99.99 0 0 0 .26.034c.556 0 .99-.467.965-1.037l-.112-2.548c-.038-.848-.078-1.7-.114-2.55-.022-.515-.455-.947-.998-1.025v-.963zm4.105 0h4.104v.965c-.54.08-.973.51-.996 1.024-.036.85-.077 1.7-.114 2.55-.037.85-.077 1.698-.114 2.547a.975.975 0 0 0 1.225 1.002v2.164h-4.103v-2.13c.558 0 1.02-.467 1.028-1.037.015-.85.027-1.698.04-2.548.014-.848.028-1.7.04-2.55.01-.57-.487-1.036-1.106-1.036h-.003v-.953zm4.104 0h4.066v1.015c-.447.146-.798.53-.844.974-.088.85-.18 1.7-.27 2.55-.088.85-.18 1.698-.268 2.547-.06.57.346 1.036.904 1.036.167 0 .33-.042.478-.115v2.244h-4.065v-2.165c.444-.115.796-.52.833-1.002.065-.85.132-1.698.196-2.548.063-.848.13-1.7.194-2.55.043-.57-.424-1.036-1.044-1.036-.06 0-.12.003-.18.012v-.965zm4.066 0h4.937l-1.293 7.444c-.278 1.604-1.062 2.81-3.524 2.81h-.12v-2.245a1.24 1.24 0 0 0 .677-.922l.35-2.548c.117-.848.235-1.7.35-2.55.08-.57-.363-1.036-.982-1.036-.136 0-.27.02-.394.062v-1.015z" fill="#cbe3e2"/><path d="M519.253 166.978a10.468 10.468 0 0 0-5.832 1.765c-4.835 3.223-6.142 9.755-2.92 14.59a10.51 10.51 0 0 0 8.753 4.685v-1.962a8.553 8.553 0 0 1-7.122-3.813c-2.62-3.93-1.554-9.245 2.38-11.867a8.522 8.522 0 0 1 4.743-1.437v-1.962zm8.754 4.684a10.504 10.504 0 0 0-8.754-4.684v1.96a8.56 8.56 0 1 1 0 17.117v1.963c2.01.003 4.04-.57 5.838-1.767 4.834-3.22 6.14-9.752 2.917-14.588" fill="#cbe3e2" fill-rule="nonzero"/><path d="M503.717 189.562l-1.576-2.367 8.52-5.677 1.575 2.367-8.518 5.677z" fill="#cbe3e2" fill-rule="nonzero"/><path d="M504.045 189.44l-1.678-2.52 5.77-3.844 1.678 2.518-5.77 3.847z" fill="#cbe3e2" fill-rule="nonzero"/><path d="M500.183 193.106a2.422 2.422 0 0 1-3.36-.672 2.418 2.418 0 0 1 .675-3.356l8.563-5.71a2.416 2.416 0 0 1 2.076-.292l1.68 2.518a2.413 2.413 0 0 1-1.07 1.805l-8.563 5.706z" fill="#cbe3e2" fill-rule="nonzero"/><path d="M500.09 193.004a2.274 2.274 0 1 1-2.523-3.783l8.044-5.36a2.274 2.274 0 0 1 2.524 3.783l-8.045 5.36z" fill="#cbe3e2" fill-rule="nonzero"/><path d="M199.734 237.497a5.962 5.962 0 0 0 5.95-5.95c0-3.277-2.673-5.95-5.95-5.95a5.96 5.96 0 0 0-5.95 5.95c0 3.277 2.674 5.95 5.95 5.95M206.766 210.54v4.16a18.203 18.203 0 0 0-7.032-1.403v-3.9c2.458 0 4.822.403 7.032 1.142m-7.032 10.94a10.04 10.04 0 0 1 7.032 2.86v-4.973a14.005 14.005 0 0 0-7.032-1.88v3.992zm7.032-6.78v-4.16c8.785 2.938 15.117 11.233 15.117 21.008h-3.898c0-7.587-4.63-14.094-11.22-16.847m0 9.64a10.04 10.04 0 0 1 3.038 7.208h3.993c0-5.205-2.827-9.75-7.03-12.18v4.973z" fill="#cbe3e2"/><path d="M582.528 153.69v-4.534c-1.413-.403-2.45-1.015-3.11-1.833-.66-.82-.99-1.812-.99-2.98 0-1.183.374-2.176 1.12-2.98.746-.805 1.74-1.268 2.98-1.39v-1.07h1.57v1.07c1.145.137 2.058.528 2.735 1.173.678.646 1.11 1.51 1.298 2.59l-2.735.358c-.166-.85-.6-1.428-1.298-1.73v4.23c1.73.467 2.91 1.075 3.537 1.82.627.748.94 1.705.94 2.873 0 1.306-.394 2.405-1.184 3.3-.79.894-1.887 1.442-3.293 1.644v2.024h-1.57v-1.97c-1.246-.15-2.26-.616-3.04-1.394-.777-.78-1.275-1.88-1.49-3.3l2.822-.303c.114.577.33 1.075.648 1.493.317.418.67.72 1.06.91zm0-11.36c-.425.145-.764.39-1.017.736-.25.346-.377.73-.377 1.147 0 .382.115.737.346 1.065.23.33.58.594 1.048.795v-3.742zm1.57 11.51c.54-.1.98-.35 1.318-.752.34-.4.51-.87.51-1.41 0-.484-.144-.9-.43-1.25-.283-.35-.75-.62-1.4-.806v4.218zM352.727 43.85v-4.532c-1.414-.404-2.45-1.015-3.11-1.834-.66-.818-.99-1.812-.99-2.98 0-1.183.373-2.176 1.12-2.98.746-.804 1.74-1.267 2.98-1.39v-1.07h1.568v1.07c1.147.137 2.06.528 2.737 1.174.678.645 1.11 1.51 1.298 2.59l-2.737.357c-.166-.85-.598-1.427-1.298-1.73v4.23c1.73.468 2.91 1.075 3.538 1.822.627.746.94 1.704.94 2.872 0 1.304-.394 2.404-1.184 3.298-.79.894-1.888 1.442-3.295 1.644v2.023h-1.568v-1.97c-1.248-.15-2.26-.615-3.04-1.394-.78-.778-1.276-1.878-1.493-3.298l2.824-.303a3.59 3.59 0 0 0 .65 1.492c.316.418.67.72 1.06.908zm0-11.358c-.426.144-.765.39-1.017.736-.252.346-.38.728-.38 1.146 0 .383.117.738.347 1.066.23.328.58.593 1.05.795v-3.743zm1.568 11.51c.54-.1.98-.352 1.32-.752.34-.4.508-.87.508-1.412 0-.483-.142-.9-.427-1.25-.285-.35-.752-.617-1.4-.805v4.22zM704.042 92.146v-4.533c-1.414-.404-2.45-1.015-3.11-1.833-.66-.82-.99-1.812-.99-2.98 0-1.183.373-2.177 1.12-2.98.746-.805 1.74-1.268 2.98-1.39v-1.072h1.568v1.07c1.147.138 2.06.53 2.737 1.175.678.645 1.11 1.51 1.298 2.59l-2.737.358c-.166-.85-.598-1.427-1.298-1.73v4.23c1.73.468 2.91 1.076 3.537 1.822.628.747.942 1.704.942 2.872 0 1.305-.396 2.405-1.186 3.3-.79.894-1.888 1.442-3.294 1.644v2.022h-1.568v-1.968c-1.248-.152-2.26-.617-3.04-1.396-.78-.78-1.276-1.878-1.493-3.3l2.823-.302c.115.577.33 1.075.65 1.493.316.418.67.72 1.06.91zm0-11.36c-.426.146-.765.39-1.017.737-.253.346-.38.728-.38 1.147 0 .382.117.737.347 1.065.23.328.58.593 1.05.795v-3.743zm1.568 11.51c.54-.1.98-.35 1.32-.75.34-.4.508-.872.508-1.412 0-.484-.142-.9-.427-1.25-.284-.35-.75-.618-1.4-.806v4.22z" fill="#cbe3e2" fill-rule="nonzero"/><path d="M413.028 182.544l-110.954-59.472 1.36-2.538 110.954 59.472-1.36 2.538z" fill="#63c7ba"/><path d="M601.28 238.947l-187.984-56.293.826-2.76 187.984 56.294-.826 2.76z" fill="#63c7ba"/><path d="M476.146 348.275l-1.03-2.69 2.69-1.03 1.03 2.69-2.69 1.03zm-3.09-8.068l-1.03-2.69 2.688-1.03 1.03 2.69-2.69 1.03zm-3.092-8.068l-1.03-2.69 2.69-1.03 1.03 2.69-2.69 1.03zm-3.09-8.07l-1.03-2.69 2.688-1.03 1.03 2.69-2.69 1.03zm-3.092-8.067l-1.03-2.69 2.69-1.03 1.03 2.69-2.69 1.03zm-3.09-8.07l-1.03-2.688 2.688-1.03 1.03 2.69-2.69 1.03zm-3.092-8.067l-1.03-2.69 2.69-1.03 1.03 2.69-2.69 1.03zm-3.09-8.068l-1.03-2.69 2.688-1.03 1.03 2.69-2.69 1.03zm-3.092-8.068l-1.03-2.69 2.69-1.03 1.03 2.69-2.69 1.03zm-3.09-8.068l-1.03-2.69 2.688-1.03 1.03 2.69-2.69 1.03zm-3.092-8.068l-1.03-2.69 2.69-1.03 1.03 2.69-2.69 1.03zm-3.09-8.07l-1.03-2.688 2.688-1.03 1.03 2.69-2.69 1.03zm-3.092-8.067l-1.03-2.69 2.69-1.03 1.03 2.69-2.69 1.03zm-3.09-8.068l-1.03-2.69 2.688-1.03 1.03 2.69-2.69 1.03zm-3.092-8.07l-1.03-2.688 2.69-1.03 1.03 2.69-2.69 1.03zm-3.09-8.067l-1.03-2.69 2.688-1.03 1.03 2.69-2.69 1.03zm-3.092-8.068l-1.03-2.69 2.69-1.03 1.03 2.69-2.69 1.03zm-3.09-8.07l-1.03-2.688 2.688-1.03 1.03 2.69-2.69 1.03zm-3.092-8.067l-1.03-2.69 2.69-1.03 1.03 2.69-2.69 1.03zm-3.09-8.068l-1.03-2.69 2.688-1.03 1.03 2.69-2.69 1.03zm-3.092-8.068l-1.03-2.69 2.69-1.03 1.03 2.69-2.69 1.03zM417.156 180.328l-1.817-2.235 2.234-1.816 1.817 2.235-2.234 1.816zm6.704-5.45l-1.816-2.234 2.235-1.816 1.815 2.234-2.235 1.817zm6.705-5.448l-1.816-2.235 2.234-1.817 1.816 2.235-2.235 1.817zm6.705-5.45l-1.816-2.235 2.235-1.816 1.815 2.234-2.235 1.816zm6.705-5.45l-1.817-2.234 2.235-1.817 1.817 2.234-2.235 1.817zm6.705-5.448l-1.817-2.235 2.235-1.817 1.817 2.235-2.235 1.817zm6.704-5.45l-1.816-2.235 2.235-1.816 1.816 2.236-2.236 1.816zm6.705-5.45l-1.817-2.234 2.235-1.817 1.816 2.236-2.235 1.817zm6.704-5.45l-1.816-2.233 2.234-1.818 1.817 2.235-2.236 1.816zm6.705-5.448l-1.818-2.235 2.235-1.817 1.817 2.235-2.235 1.816zm6.704-5.45l-1.817-2.234 2.235-1.817 1.816 2.235-2.234 1.817zm6.704-5.45l-1.816-2.234 2.235-1.816 1.816 2.235-2.235 1.815zm6.705-5.448l-1.816-2.235 2.235-1.815 1.816 2.235-2.235 1.816zm6.705-5.45l-1.817-2.234 2.236-1.817 1.817 2.235-2.235 1.817zm6.705-5.45l-1.817-2.234 2.235-1.816 1.818 2.235-2.235 1.817zm6.704-5.448l-1.816-2.235 2.236-1.816 1.816 2.235-2.235 1.816zm6.705-5.45l-1.816-2.234 2.235-1.817 1.817 2.235-2.235 1.817zm6.705-5.45l-1.816-2.234 2.236-1.816 1.816 2.235-2.235 1.816zm6.705-5.448l-1.817-2.235 2.235-1.816 1.817 2.234-2.235 1.816zm6.705-5.45l-1.817-2.234 2.235-1.817 1.817 2.234-2.235 1.817zm6.704-5.45l-1.815-2.234 2.235-1.816 1.816 2.235-2.235 1.816zm6.706-5.448l-1.816-2.235 2.235-1.816 1.816 2.235-2.234 1.817zm6.705-5.45l-1.815-2.234 2.234-1.817 1.816 2.236-2.235 1.817z" fill="#63c7ba"/><path d="M555.675 61.204l-.35-2.86 2.857-.35.35 2.86-2.857.35zm8.576-1.053l-.35-2.857 2.858-.35.35 2.857-2.857.35zm8.576-1.052l-.35-2.858 2.858-.35.35 2.858-2.858.35zm8.576-1.052l-.35-2.86 2.857-.35.35 2.86-2.858.35zm8.575-1.053l-.35-2.86 2.858-.35.35 2.86-2.858.35zm8.576-1.053l-.35-2.858 2.858-.35.352 2.857-2.86.35zm8.576-1.053l-.352-2.858 2.858-.352.35 2.858-2.857.35zm8.574-1.052l-.35-2.86 2.858-.35.35 2.86-2.858.35zm8.576-1.053l-.35-2.86 2.857-.35.35 2.86-2.857.35zm8.575-1.053l-.35-2.86 2.858-.35.35 2.858-2.858.35zm8.576-1.054l-.35-2.858 2.86-.35.35 2.857-2.86.35zm8.577-1.053l-.35-2.858 2.857-.35.35 2.857-2.857.35zm8.575-1.052l-.35-2.858 1.14-.14.35 2.86-1.14.14z" fill="#63c7ba"/><path d="M529.936 137.154l-1.623-2.38 130.42-88.962 1.623 2.38-130.42 88.962zM524.947 134.642L402.564 34.91l1.82-2.232 122.383 99.732-1.82 2.232zM618.03 267.254L525.484 139.35l2.333-1.687 92.547 127.903-2.334 1.688z" fill="#63c7ba"/><path d="M603.07 237.985l-2.755-.836.837-2.757 2.756.837-.837 2.755zm2.51-8.267l-2.755-.837.837-2.754 2.756.836-.837 2.756zm2.51-8.267l-2.755-.836.837-2.756 2.755.837-.836 2.756zm2.51-8.267l-2.755-.836.836-2.756 2.757.837-.836 2.756zm2.51-8.267l-2.755-.837.836-2.757 2.757.837-.837 2.756zm2.51-8.268l-2.756-.836.837-2.756 2.757.836-.837 2.756zm2.51-8.267l-2.756-.836.837-2.756 2.757.837-.837 2.756zm2.51-8.267l-2.756-.836.837-2.756 2.756.838-.836 2.755zm2.51-8.267l-2.756-.837.836-2.756 2.756.836-.836 2.756zm2.51-8.267l-2.756-.838.836-2.756 2.756.837-.837 2.756zm2.51-8.27l-2.757-.835.837-2.756 2.756.835-.837 2.756zm2.51-8.266l-2.757-.837.837-2.756 2.756.838-.837 2.756zm2.51-8.268l-2.757-.836.836-2.756 2.755.836-.836 2.756zm2.51-8.267l-2.757-.838.836-2.756 2.755.837-.836 2.756zm2.508-8.27l-2.756-.835.837-2.756 2.755.836-.837 2.755zm2.51-8.266l-2.756-.837.837-2.755 2.755.836-.837 2.756zm2.51-8.267l-2.756-.837.837-2.756 2.754.837-.836 2.757zm2.51-8.268l-2.756-.838.836-2.755 2.756.836-.836 2.756zm2.51-8.268l-2.756-.837.836-2.756 2.756.836-.837 2.756zm2.51-8.268L648 80.068l.838-2.756 2.756.836-.837 2.756zm2.51-8.267l-2.757-.837.838-2.756 2.756.837-.837 2.757zm2.51-8.268l-2.757-.837.838-2.756 2.755.837-.836 2.755zm2.51-8.268l-2.757-.837.837-2.756 2.756.836-.836 2.756zm2.508-8.268l-2.755-.836.127-.415 2.755.837-.126.414zM375.732 189.226l-.96-2.716 2.22-.784.96 2.716-2.22.784zm7.652-2.7l-.96-2.717 2.717-.96.96 2.716-2.716.96zm8.147-2.878l-.958-2.715 2.716-.96.958 2.717-2.715.958zm8.148-2.876l-.96-2.716 2.717-.958.96 2.715-2.717.96zm8.147-2.876l-.96-2.716 2.717-.96.96 2.717-2.717.96zm8.147-2.876l-.958-2.716 2.715-.96.958 2.717-2.716.96zm8.148-2.877l-.96-2.715 2.717-.96.958 2.717-2.715.958zm8.147-2.876l-.96-2.715 2.717-.96.96 2.717-2.717.957zm8.147-2.876l-.96-2.715 2.717-.958.96 2.715-2.716.96zm8.147-2.875l-.958-2.716 2.716-.96.96 2.716-2.717.96zm8.148-2.876l-.958-2.717 2.715-.96.96 2.717-2.717.96zm8.148-2.878l-.96-2.715 2.717-.96.958 2.717-2.714.958zm8.147-2.876l-.96-2.716 2.717-.958.96 2.715-2.717.96zm8.147-2.876l-.96-2.716 2.717-.958.96 2.715-2.717.96zm8.147-2.876l-.958-2.716 2.714-.96.96 2.717-2.717.96zm8.147-2.876l-.958-2.716 2.715-.96.96 2.717-2.716.958zm8.148-2.877l-.96-2.714 2.717-.96.957 2.717-2.715.958zm8.147-2.875l-.96-2.716 2.716-.96.96 2.716-2.717.96zm8.146-2.876l-.96-2.717 2.717-.96.96 2.717-2.717.96z" fill="#63c7ba"/><path d="M690.644 305.25l-89.808-66.525 1.714-2.314 89.808 66.524-1.714 2.315z" fill="#63c7ba"/><path d="M478.446 348.837l-1.91-2.154L600.737 236.49l1.91 2.155-124.202 110.192z" fill="#63c7ba"/><path d="M255.6 278.304l-.325-2.86 2.86-.326.326 2.86-2.86.326zm8.584-.974l-.324-2.862 2.86-.325.326 2.862-2.862.325zm8.585-.975l-.326-2.86 2.862-.326.325 2.86-2.86.325zm8.584-.974l-.325-2.86 2.86-.326.326 2.862-2.862.325zm8.585-.974l-.326-2.862 2.862-.324.325 2.86-2.86.326zm8.584-.974l-.325-2.862 2.86-.325.325 2.862-2.86.325zm8.585-.975l-.326-2.862 2.86-.324.326 2.862-2.86.325zm8.584-.974l-.325-2.862 2.86-.324.325 2.862-2.86.325zm8.584-.975l-.324-2.862 2.86-.324.326 2.86-2.862.326zm8.585-.975l-.325-2.86 2.862-.326.325 2.862-2.862.323zm8.585-.974l-.325-2.863 2.862-.325.325 2.862-2.862.325zm8.585-.976l-.325-2.86 2.862-.326.325 2.862-2.862.324zm8.585-.974l-.325-2.862 2.862-.325.324 2.862-2.862.325zm8.585-.975l-.325-2.86 2.862-.326.324 2.86-2.86.325zm8.585-.974l-.325-2.86 2.86-.326.326 2.862-2.862.325zm8.584-.974l-.324-2.86 2.86-.326.326 2.86-2.862.326zm8.585-.974l-.325-2.862 2.862-.325.325 2.862-2.863.325zm8.585-.975l-.325-2.86 2.862-.326.324 2.862-2.862.325zm8.585-.974l-.325-2.862 2.862-.324.325 2.862-2.863.325zm8.585-.975l-.325-2.862 2.862-.324.324 2.86-2.862.326zm8.585-.974l-.325-2.862 2.862-.325.324 2.862-2.86.324zm8.585-.975l-.325-2.863 2.86-.324.326 2.86-2.86.326zm8.584-.976l-.324-2.86 2.86-.326.326 2.862-2.862.324zm8.585-.974l-.323-2.862 2.86-.325.326 2.862-2.862.325zm8.586-.975l-.325-2.86 2.863-.326.325 2.86-2.862.325zm8.585-.974l-.324-2.86 2.862-.326.325 2.862-2.862.325zm8.586-.974l-.325-2.86 2.863-.326.325 2.86-2.862.326zm8.585-.974l-.324-2.862 2.862-.325.324 2.862-2.86.325zm8.586-.975l-.325-2.86 2.862-.326.325 2.862-2.86.325zm8.585-.974l-.324-2.862 2.86-.324.326 2.862-2.86.325zm8.585-.975l-.324-2.86 2.862-.326.325 2.86-2.862.326zm8.585-.974l-.325-2.862 2.862-.325.325 2.862-2.862.324zm8.585-.975l-.325-2.862 2.862-.325.325 2.86-2.862.326zm8.585-.975l-.325-2.862 2.862-.325.325 2.862-2.862.325zm8.585-.975l-.325-2.862 2.862-.324.324 2.86-2.86.326zm8.585-.974l-.325-2.862 2.862-.325.324 2.86-2.86.326zm8.585-.975l-.325-2.86 2.86-.325.326 2.86-2.86.326zm8.584-.974l-.325-2.86 2.86-.326.326 2.862-2.86.324zm8.584-.974l-.325-2.862 2.86-.325.326 2.862-2.862.325zm8.585-.975l-.326-2.86 2.862-.326.325 2.863-2.86.324zm8.584-.974l-.325-2.862 2.86-.324.326 2.862-2.862.325zM304.87 125.027l-1.904-2.16 2.16-1.905 1.905 2.162-2.16 1.903zm6.484-5.71l-1.904-2.16 2.162-1.905 1.903 2.162-2.16 1.903zm6.484-5.71l-1.903-2.16 2.16-1.904 1.904 2.16-2.162 1.904zm6.484-5.71l-1.903-2.16 2.16-1.904 1.904 2.16-2.162 1.904zm6.485-5.71l-1.904-2.16 2.162-1.904 1.903 2.16-2.16 1.905zm6.484-5.71l-1.902-2.16 2.16-1.904 1.905 2.16-2.162 1.905zm6.486-5.71l-1.904-2.16 2.162-1.904 1.903 2.162-2.16 1.903zm6.484-5.71l-1.903-2.16 2.16-1.904 1.904 2.162-2.16 1.903zm6.484-5.71l-1.903-2.16 2.162-1.904 1.904 2.162-2.162 1.903zm6.485-5.71l-1.905-2.16 2.162-1.903 1.903 2.16-2.16 1.904zm6.483-5.71l-1.903-2.16 2.16-1.903 1.904 2.16-2.16 1.904zm6.484-5.708l-1.903-2.163 2.162-1.903 1.903 2.16-2.163 1.905zm6.485-5.71l-1.904-2.163 2.162-1.903 1.903 2.16-2.16 1.905zm6.484-5.71l-1.903-2.163 2.16-1.903 1.905 2.162-2.162 1.903zm6.484-5.71l-1.903-2.162 2.162-1.904 1.902 2.162-2.162 1.903zm6.485-5.71l-1.903-2.162 2.16-1.904 1.904 2.162-2.16 1.903zM215.985 165.696l-1.176-2.628 86.644-38.786 1.177 2.63-86.645 38.784zM237.477 254.99l-.797-2.77 2.767-.796.797 2.767-2.767.8zm-2.392-8.304l-.797-2.767 2.767-.8.797 2.77-2.767.796zm-2.392-8.302l-.797-2.768 2.767-.797.797 2.767-2.767.797zm-2.392-8.302l-.796-2.768 2.767-.797.8 2.767-2.77.798zm-2.39-8.303l-.798-2.768 2.767-.797.797 2.767-2.768.797zm-2.393-8.303l-.797-2.767 2.767-.798.798 2.768-2.768.797zm-2.392-8.302l-.797-2.768 2.767-.797.798 2.767-2.768.798zm-2.392-8.303l-.797-2.767 2.767-.797.798 2.767-2.767.797zm-2.392-8.302l-.796-2.767 2.768-.798.797 2.768-2.77.797zm-2.39-8.302l-.798-2.768 2.768-.797.797 2.767-2.767.798zm-2.392-8.303l-.798-2.767 2.768-.797.797 2.768-2.767.797z" fill="#63c7ba"/><path d="M408.352 179.63l-2.874-.185.185-2.874 2.874.186-.185 2.874zm-8.623-.555l-2.875-.185.185-2.874 2.874.185-.185 2.875zm-8.623-.555l-2.874-.185.185-2.874 2.874.186-.185 2.874zm-8.622-.555l-2.874-.185.186-2.874 2.874.185-.185 2.875zm-8.622-.555l-2.874-.186.184-2.874 2.874.185-.185 2.875zm-8.622-.556l-2.873-.185.185-2.875 2.874.185-.185 2.874zm-8.62-.555l-2.875-.186.185-2.874 2.874.185-.185 2.874zm-8.623-.556l-2.874-.185.185-2.875 2.874.185-.185 2.874zm-8.623-.555l-2.874-.186.185-2.874 2.874.185-.186 2.874zm-8.622-.556l-2.874-.185.185-2.875 2.874.185-.185 2.874zm-8.622-.555l-2.874-.186.185-2.874 2.875.185-.185 2.874zm-8.622-.556l-2.874-.185.185-2.875 2.873.185-.185 2.874zm-8.622-.555l-2.874-.186.185-2.874 2.874.185-.184 2.874zm-8.622-.556l-2.874-.185.185-2.875 2.874.185-.186 2.874zm-8.622-.555l-2.875-.186.185-2.875 2.875.185-.185 2.874zm-8.623-.557l-2.875-.185.185-2.874 2.874.185-.185 2.873zm-8.623-.555l-2.874-.185.185-2.874 2.874.184-.185 2.874zm-8.622-.555l-2.874-.185.186-2.874 2.874.185-.185 2.873zm-8.622-.555l-2.874-.185.184-2.874 2.874.184-.185 2.874zm-8.622-.555l-2.873-.185.185-2.874 2.874.185-.185 2.873zm-8.62-.555l-2.875-.185.185-2.874 2.874.184-.185 2.874zm-8.624-.555l-2.874-.185.185-2.874 2.874.185-.184 2.873zm-8.622-.555l-2.874-.185.185-2.874 2.874.184-.186 2.874zM477.063 349.135L250.677 278.74l.855-2.75 226.386 70.395-.855 2.75z" fill="#63c7ba"/><path d="M477.793 349.168l-.605-2.816 2.816-.604.605 2.816-2.817.604zm8.447-1.813l-.604-2.816 2.816-.605.604 2.815-2.816.605zm8.448-1.813l-.604-2.816 2.816-.605.604 2.817-2.816.605zm8.448-1.813l-.605-2.817 2.817-.605.605 2.816-2.816.605zm8.447-1.815l-.604-2.815 2.815-.605.604 2.816-2.817.605zm8.448-1.813l-.603-2.816 2.815-.604.605 2.816-2.816.604zm8.448-1.813l-.604-2.817 2.816-.604.604 2.815-2.816.604zm8.448-1.814l-.604-2.816 2.816-.604.604 2.816-2.816.604zm8.448-1.813l-.605-2.816 2.815-.604.605 2.816-2.816.603zm8.447-1.813l-.603-2.816 2.816-.604.604 2.815-2.816.605zm8.45-1.813l-.605-2.816 2.815-.604.605 2.816-2.816.605zm8.447-1.814l-.605-2.815 2.816-.605.604 2.816-2.815.603zm8.447-1.813l-.604-2.816 2.816-.604.604 2.816-2.816.604zm8.448-1.813l-.605-2.816 2.816-.603.605 2.816-2.816.604zm8.447-1.813l-.605-2.816 2.816-.604.605 2.816-2.816.604zm8.447-1.813l-.604-2.815 2.815-.604.605 2.817-2.816.604zm8.448-1.812l-.605-2.816 2.816-.604.604 2.815-2.815.605zm8.447-1.813l-.604-2.816 2.816-.606.604 2.816-2.816.605zm8.448-1.813l-.605-2.816 2.816-.605.606 2.817-2.816.605zm8.447-1.814l-.604-2.815 2.816-.605.603 2.816-2.816.604zm8.448-1.813l-.604-2.816 2.817-.605.604 2.816-2.815.605zm8.448-1.813l-.605-2.816 2.816-.604.605 2.816-2.817.604zm8.447-1.813l-.604-2.817 2.816-.604.604 2.815-2.816.604zm8.448-1.814l-.604-2.816 2.815-.604.604 2.815-2.816.606zm8.447-1.813l-.604-2.816 2.817-.605.604 2.816-2.815.605zm8.448-1.813l-.604-2.816 2.815-.605.604 2.815-2.817.605zM248.39 283.003l-1.478-2.47 169.55-101.413 1.48 2.472-169.552 101.41z" fill="#63c7ba"/><path d="M414.11 192.432l-12.47-157.38 2.87-.228 12.472 157.38-2.87.228zM558.73 60.284l-2.84-.47.47-2.842 2.842.47-.47 2.842zm-8.522-1.413l-2.842-.47.47-2.84 2.843.47-.472 2.84zm-8.524-1.412l-2.84-.47.47-2.842 2.84.47-.47 2.842zm-8.524-1.413l-2.84-.47.47-2.842 2.84.47-.47 2.842zm-8.523-1.413l-2.842-.47.47-2.842 2.843.47-.47 2.842zm-8.524-1.413l-2.84-.472.47-2.84 2.84.47-.47 2.84zm-8.524-1.414l-2.842-.47.47-2.842 2.842.47-.47 2.842zm-8.524-1.413l-2.842-.47.47-2.842 2.843.472-.47 2.84zm-8.524-1.413l-2.84-.47.47-2.842 2.84.47-.47 2.842zm-8.524-1.413l-2.84-.47.47-2.842 2.84.47-.47 2.842zm-8.524-1.413l-2.84-.47.47-2.842 2.84.47-.47 2.842zm-8.523-1.413l-2.84-.47.47-2.84 2.842.47-.47 2.84zm-8.523-1.412l-2.84-.47.47-2.842 2.84.47-.47 2.842zm-8.524-1.413l-2.84-.47.47-2.842 2.84.47-.47 2.842zm-8.523-1.413l-2.84-.47.47-2.842 2.84.47-.47 2.842zm-8.524-1.413l-2.84-.472.47-2.84 2.84.47-.47 2.84zm-8.524-1.414l-2.84-.47.47-2.842 2.84.47-.47 2.842zm-8.523-1.413l-2.842-.47.47-2.842 2.842.472-.47 2.84zm-8.525-1.413l-2.322-.385.47-2.84 2.323.384-.47 2.84zM692.617 304.283L658.12 47.193l2.853-.383 34.5 257.09-2.856.383z" fill="#63c7ba"/><path d="M412.967 230.936c-32.1 0-58.124-26.022-58.124-58.123 0-32.1 26.023-58.123 58.124-58.123 32.1 0 58.122 26.023 58.122 58.123 0 32.1-26.024 58.123-58.124 58.123" fill="#cbe3e2"/><path d="M391.237 199.346c-5.727 3.718-8.1 11.707-11.458 21.17 9.412 6.566 20.86 10.42 33.21 10.42a57.86 57.86 0 0 0 33.164-10.388c-3.352-9.507-5.684-17.573-11.48-21.202-9.918-6.21-15.887-7.7-21.74-7.778-5.985-.08-11.85 1.385-21.697 7.778" fill="#e6615f"/><path d="M439.627 224.482v-19.91c2.577 4.148 4.333 9.753 6.527 15.975a58.192 58.192 0 0 1-6.527 3.935M434.68 199.35v27.4a57.657 57.657 0 0 1-7.147 2.35v-33.767c2.15 1.046 4.505 2.363 7.142 4.013l.004.003zM422.586 193.262v36.885a58.33 58.33 0 0 1-7.146.738v-39.19c2.225.205 4.54.67 7.146 1.567M410.492 191.63v39.253a58.313 58.313 0 0 1-7.145-.744v-37.047c2.585-.885 4.895-1.314 7.145-1.464M398.4 195.19v33.898a57.737 57.737 0 0 1-7.147-2.355v-27.398c2.643-1.715 4.998-3.074 7.146-4.144M386.306 204.643v19.815a57.836 57.836 0 0 1-6.527-3.943c2.193-6.18 3.966-11.73 6.526-15.872" fill="#d95957"/><path d="M389.725 200.49c-2.06 1.797-3.645 4.24-5.037 7.145h56.592c-1.39-2.92-2.976-5.366-5.053-7.145h-46.502zM382.61 212.583c-.843 2.234-1.667 4.635-2.552 7.146h65.81c-.88-2.51-1.694-4.91-2.53-7.147H382.61zM386.73 224.677c7.887 4.002 16.81 6.26 26.26 6.26 9.45 0 18.37-2.258 26.258-6.26H386.73z" fill="#d95957"/><path d="M439.627 207.635h1.653l-.066-.136-.132-.272-.065-.135a37.462 37.462 0 0 0-.268-.53l-.07-.13a40.44 40.44 0 0 0-.27-.512l-.004-.004-.07-.127-.065-.118-.006-.015-.067-.12-.072-.125-.008-.013-.05-.087-.013-.025-.07-.122-.073-.123-.012-.02-.06-.102-.073-.12-.064-.107-.025-.04-.048-.08v3.062zM439.627 219.73h6.24l-.02-.053-.022-.066-.04-.116-.038-.106-.003-.01-.04-.118-.083-.234-.04-.117-.032-.096-.008-.02-.04-.117-.04-.116-.012-.032-.028-.083-.04-.115-.082-.232-.04-.115-.007-.022-.03-.092-.24-.686-.022-.064-.135-.39-.04-.112-.02-.055-.02-.057-.04-.113-.036-.106-.002-.007-.04-.112-.04-.112-.014-.044-.176-.504-.003-.01-.01-.033-.028-.077-.04-.11-.03-.085-.008-.025-.04-.11-.038-.11-.01-.024-.068-.194-.027-.075-.01-.034-.08-.217-.005-.016-.033-.094-.04-.108-.023-.064-.016-.045-.04-.108-.038-.108-.002-.005-.037-.102-.04-.107-.02-.055-.018-.052-.04-.107-.038-.104v-.003l-.095-.258-.023-.06-.04-.106-.033-.094-.083-.223h-3.71v7.146zM427.533 200.49h7.146v7.145h-7.147zM427.533 212.583h7.146v7.146h-7.147zM427.602 229.082l.268-.07.007-.002.06-.015.055-.015.268-.072.146-.04.27-.075.076-.02.038-.012.013-.003.292-.083.125-.037.024-.006.114-.032.113-.033.155-.047.288-.086.01-.003.043-.015.07-.02.246-.077.198-.062.006-.002.11-.034.114-.036.112-.036.11-.037.114-.035.11-.038.06-.018.263-.09.16-.052.272-.093.11-.04.253-.087.17-.06.266-.095.044-.016.067-.025h.004l.255-.094.07-.027.11-.04.19-.07.14-.053.11-.042.108-.04.11-.043.076-.03.032-.013.11-.043.11-.043.03-.013.095-.036.2-.08.11-.043v-2.073h-7.147v4.423l.07-.018zM415.44 200.49h7.146v7.145h-7.146zM415.44 212.583h7.146v7.146h-7.146zM415.78 230.87l.114-.006.34-.017.113-.007.34-.02.11-.007.227-.015.113-.008.113-.008.225-.017.113-.008.112-.01.324-.026h.013l.112-.01.215-.02h.008l.112-.01.112-.012.162-.015.173-.017.112-.012.167-.018.235-.025.152-.016.287-.033.136-.016.358-.044.02-.002.014-.002.405-.053h.007l.01-.003.416-.057h.013c.442-.065.88-.133 1.32-.206v-5.47h-7.146v6.208l.34-.015zM403.347 200.49h7.145v7.145h-7.145zM403.347 212.583h7.145v7.146h-7.145zM403.347 230.14l.076.012.03.004h.003l.02.005.38.062.02.003.02.003.382.06.022.002.035.006.373.054.017.003.05.007.334.045.042.007.067.01.312.04.112.014.242.03.213.025.008.002.11.013.112.014.222.023.224.024.2.02.023.003.11.012.02.002.317.03.11.012c.972.09 1.95.156 2.935.197v-6.206h-7.145v5.462zM391.253 200.49h7.146v7.145h-7.147zM391.253 212.583h7.146v7.146h-7.147zM391.362 226.776l.108.044.11.042.217.086.11.043.028.012.19.074.218.084.013.005.173.064.032.012.11.04.11.042.193.07.026.01.11.04.187.068.26.093.106.038.11.04.112.038.222.077.11.038.112.04.025.008.085.028.112.038.11.037.114.037.1.034.01.004.113.036.11.036.017.005.144.047.253.08.147.046h.002l.112.035.113.036.044.013.146.045.262.078.068.02.046.014.227.067.112.033.064.018.28.08.11.032.115.032.114.03.114.033.106.03h.01l.113.032.114.03.102.028.013.003.03.008.315.082v-4.412h-7.147v2.056l.11.044zM386.306 204.643l-.024.04-.005.007-.074.12-.017.028-.055.093-.028.05-.044.073-.072.122-.064.11-.007.013-.07.123-.043.073-.052.092-.048.086-.07.127-.002.004-.06.107-.008.017-.07.127v.002l-.068.127-.07.128-.066.13-.002.002-.058.113-.014.025-.122.237-.012.025-.062.123-.067.134-.13.267-.066.136-.066.135h1.618v-2.992zM382.61 212.583l-.038.105-.04.105-.014.038-.025.07-.04.104-.03.085-.01.02-.04.106-.038.106-.01.027-.03.08-.04.105-.026.073-.013.035-.04.107-.04.107-.004.014-.035.095-.04.107-.02.06-.018.05-.04.107-.04.108-.038.108-.04.11-.016.047-.024.062-.04.11-.032.095-.006.014-.04.11-.038.11-.013.035-.026.075-.04.11-.03.084-.01.026-.04.11-.04.112-.006.022-.03.09-.04.11-.026.07-.015.042-.04.112-.04.113-.003.008-.036.103-.04.114-.02.057-.018.054-.04.113-.038.108-.002.006-.04.113-.04.114-.016.044-.024.07-.04.114-.034.095-.006.02-.16.457-.03.08-.012.035-.04.116-.04.115-.006.016-.035.098-.042.115-.023.068-.017.05-.04.117-.042.115v.002l-.04.115-.042.115-.018.054-.023.062-.04.117-.037.104-.005.012-.04.118-.042.117-.013.04-.027.08h6.248v-7.147h-3.695z" fill="#f0817f"/><path d="M404.74 169.743h16.43v23.762c0 8.02-16.43 8.94-16.43 0v-23.762z" fill="#ffddb8"/><path d="M421.17 184.66v-3.037h-16.428v11.183l16.428-8.145z" fill="#e8c5a0"/><path d="M412.594 145.047c11.668 0 17.83 6.843 18.453 14.08.622 7.237 1.67 5.953 4.193.567 2.524-5.384-3.657-28.608-21.7-28.608s-25.43 17.866-22.907 27.627c2.523 9.76 2.523 7.443 4.1.038 1.577-7.404 4.93-13.366 17.86-13.703" fill="#c48872"/><path d="M433.284 152.324c3.86 13.598-6.83 33.16-20.328 33.16-13.313 0-23.896-19.03-20.48-32.6 10.917-5.452 27.79-11.62 40.808-.56" fill="#ffddb8"/><path d="M430.114 157.564c-.075-3.81-3.27-7.888-5.59-9.047-2.32-1.16-14.045.29-20.1 4.14-6.547 4.165-7.754 7.328-8.19 11.063-.136 1.172-.454 2.363-1.088 2.132-2.004-.73-2.4-6.336-4.104-7.36-2.484-1.49-1.348-3.868-.353-7.676.992-3.81 12.2-5.9 21.475-6.232 9.274-.332 16.21 1.82 19.087 4.47 2.877 2.65 3.968 6.926 2.7 10.55-.91 2.6-1.82 5.77-3.684 5.23-.85-.248-.11-5.065-.154-7.27" fill="#c48872"/><path d="M435.31 155.34c1.267.282 1.765 2.887 1.112 5.82-.652 2.93-2.207 5.08-3.473 4.798-1.268-.282-1.765-2.887-1.113-5.82.652-2.932 2.208-5.08 3.474-4.798" fill="#ffddb8"/><path d="M390.622 155.34c-1.266.282-1.765 2.887-1.112 5.82.653 2.93 2.207 5.08 3.474 4.798 1.266-.282 1.763-2.887 1.112-5.82-.653-2.932-2.21-5.08-3.474-4.798" fill="#f7d6b2"/><path d="M397.728 194.945c-6.917 0-8.358.865-8.646 5.477-.288 4.61.864 15.564 5.188 21.616 4.323 6.052 2.017-.864 2.594-5.765.576-4.9 1.44 6.918 3.46 1.442 2.015-5.476-.578-9.223-2.596-22.77M432.15 197.107c3.148 0 7.037 2.038 4.26 6.483-2.778 4.445-4.26 14.63-4.445 18.89-.185 4.26-2.223 7.225-2.223 3.706 0-3.52-2.593-11.668-3.334-8.15-.74 3.52-3.52 7.038-3.148.37.37-6.666 1.85-25.002 8.89-21.3" fill="#ffcd61"/><path d="M431.7 197.986c-5.992 6.492-24.28 15.21-36.267-.272-1.322-4.025-.95-6.177 2.545-5.18-.25-3.744 3.128-5.14 6.374-3.392 4.745 4.994 15.307 2.424 17.304-.822 3.09-.84 5.016.404 5.016 4.65 6.242-2.997 7.526 1.77 5.03 5.016" fill="#ffcd61"/><path d="M395.784 198.2v1.365a3.594 3.594 0 0 1-.69-2.424c.177.34.416.7.69 1.06m0 13.328c-1.842-4.575-2.774-12.573-2.153-13.69-1.928 1.476-1.33 10.39 2.154 14.455v-.765zm0-11.963V198.2c.904 1.192 2.197 2.407 2.998 3.047-1.074-.064-2.265-.675-2.998-1.682m30.268 2.74l-.336.195c.108.02.22.028.336.03v-.224zm0-8.94v.08c-5.05 5.05-16.61 10.14-26.72-.01 10.312 8.364 21.812 3.71 26.72-.07m-29.567 19.645c-.247-.433-.48-.933-.7-1.482v.765c.22.26.454.5.7.717m29.567-19.565v-.08c.115-.088.227-.176.335-.263-.108.114-.22.228-.335.343m3.276 9.88v2.307c-1.358 3.208-2.567 6.966-2.567 9.605-.972-3.443.626-8.437 2.568-11.91m0-3.104v1.124c-1.12.787-2.34 1.213-3.276 1.184v-.224c.875-.51 2.115-1.24 3.276-2.083m0 1.124c1.287-.904 2.438-2.285 2.862-3.997-.533.998-1.654 1.996-2.862 2.873v1.124zm0 4.285v-2.306c1.18-2.108 2.484-3.656 3.418-3.957-.62.515-2.09 3.125-3.418 6.262" fill="#dea21f"/><path d="M396.235 160.004c-.824 3.294-.614 11.42 2.648 14.052 3.262 2.633 5.115 3.037 5.663.017 1.025-5.64 15.763-5.64 16.79 0 .547 3.02 2.4 2.616 5.662-.017 3.262-2.632 3.472-10.758 2.647-14.052.4-3.398 2.98-3.217 2.24-.762-.423 1.41.36 3.315.65 4.5 1.066 4.363.272 8.985-2.75 14.202-7.244 12.513-26.445 12.513-33.69 0-3.022-5.217-3.815-9.84-2.75-14.2.29-1.187 1.074-3.09.65-4.502-.74-2.455 1.84-2.636 2.24.762" fill="#c48872"/><path d="M412.967 171.33c4.13 0 7.48 2.28 7.48 5.094 0 2.035 0 4.608-3.08 4.608-3.03 0-2.147-2.575-4.326-2.543-2.392.033-1.74 2.507-4.7 2.507-2.794 0-2.855-2.58-2.855-4.573 0-2.863 3.35-5.094 7.482-5.094" fill="#f7d6b2"/><path d="M404.793 156.12c-2.703-.145-6.3.164-6.956.374-.84.27-.863.338-.9.976-.038.637.067 1.185.562 1.35.675.225.68 1.078 1.124 3.527.405 2.23 1.39 3.993 5.627 4.313.187.014.368.022.543.025v-.622c-1.92-.006-4.055-.693-4.818-2.066-1.084-1.952-1.354-5.894.038-6.715.606-.358 2.657-.6 4.78-.502v-.66zm8.087 1.275c-.938.02-4.805-1.014-7.54-1.238a17.62 17.62 0 0 0-.547-.037v.66c2.207.103 4.49.573 5.31 1.665 1.35 1.8-.825 6.19-2.888 7.165-.645.305-1.51.456-2.422.453v.622c3.74.054 5.03-2.426 5.46-3.25.804-1.54.557-3.66 2.657-3.66s1.89 2.083 2.694 3.622c.43.824 1.687 3.338 5.423 3.288v-.622c-.912.003-1.777-.148-2.422-.453-2.063-.975-4.24-5.365-2.89-7.165.82-1.092 3.105-1.562 5.312-1.665v-.66c-.187.01-.37.022-.546.037-2.448.2-5.394 1.19-7.6 1.238m8.147 9.29a9.32 9.32 0 0 0 .542-.025c4.237-.32 5.222-2.084 5.626-4.313.444-2.45.45-3.302 1.125-3.527.497-.165.602-.713.564-1.35-.037-.638-.062-.707-.9-.976-.657-.21-4.253-.52-6.957-.374v.66c2.123-.098 4.175.144 4.78.502 1.392.82 1.123 4.763.038 6.715-.762 1.373-2.897 2.06-4.818 2.066v.622z" fill="#00806f"/><path d="M403.348 52.85c-9.94 0-18-8.058-18-18 0-9.94 8.06-18 18-18s18 8.06 18 18c0 9.942-8.06 18-18 18" fill="#ffcd61"/><path d="M396.84 26.428c-1.018 1.88-3.065 13.036-.165 19.462 2.9 6.427 10.23 6.644 10.387 2.96.156-3.684-8.262-23.91-10.22-22.422" fill="#c48872"/><path d="M409.576 26.422c1.02 1.88 2.92 12.35.02 18.777-2.9 6.425-10.13 7.333-10.287 3.65-.158-3.684 8.307-23.917 10.266-22.428" fill="#c48872"/><path d="M396.62 43.067c-1.775 1.152-2.51 3.626-3.55 6.556a17.917 17.917 0 0 0 10.285 3.227 17.92 17.92 0 0 0 10.27-3.216c-1.037-2.945-1.76-5.442-3.554-6.567-3.07-1.923-4.92-2.384-6.732-2.41-1.853-.023-3.67.43-6.72 2.41" fill="#7e9c9b"/><path d="M400.8 33.9h5.088v7.36c0 2.482-5.087 2.768-5.087 0V33.9z" fill="#ffddb8"/><path d="M405.888 38.52v-.94H400.8v3.462l5.088-2.522z" fill="#e8c5a0"/><path d="M403.345 24.542c10.773 0 6.406 14.233 0 14.233-6.407 0-10.774-14.233 0-14.233" fill="#f0ceaa"/><path d="M403.345 24.542c10.773 0 6.406 14.233 0 14.233V24.542z" fill="#ffddb8"/><path d="M405.535 25.913c1.785.88 2.886 2.353 3.267 4.61.384 2.256.663 1.933 1.444.265.78-1.668-1.132-8.86-6.72-8.86s-7.876 5.533-7.095 8.556c.783 3.023 1.392 2.035 1.88-.26.49-2.292 2.883-4.545 7.225-4.31" fill="#c48872"/><path d="M408.393 43.286c3.135-10.66-1.8-17.32-2.9-17.398 2.116-.532 7.107 6.097 2.9 17.398" fill="#7d5f54"/><path d="M405.912 41.013c-.236 2.436-2.546 4.516-2.546 6.486 0-1.975-2.322-4.057-2.547-6.506l5.092.02z" fill="#ffddb8"/><path d="M403.366 46.598c1.11-1.662 2.27-2.618 3.67-3.054.69-.215 1.902-.445 2.55-.13-1.227-1.394-2.518-2.092-3.674-3.405-.013 3.787-2.57 4.45-2.546 6.588" fill="#e1e6f7"/><path d="M403.366 46.598c.832-1.77 2.12-3.264 3.518-3.7a2.595 2.595 0 0 1 1.99.15c-1.226-1.394-1.806-2.2-2.962-3.04-.013 3.79-2.57 4.453-2.546 6.59" fill="#fff"/><path d="M403.366 46.598c-1.112-1.662-2.27-2.618-3.67-3.054-.69-.215-1.903-.445-2.55-.13 1.227-1.394 2.518-2.092 3.674-3.405.013 3.787 2.57 4.45 2.546 6.588" fill="#e1e6f7"/><path d="M403.366 46.598c-.832-1.77-2.12-3.264-3.518-3.7a2.597 2.597 0 0 0-1.992.15c1.228-1.394 1.808-2.2 2.964-3.04.013 3.79 2.57 4.453 2.546 6.59" fill="#fff"/><path d="M398.637 45.362c-3.672-21.495 4.94-19.054 6.896-19.435-2.453-2.627-13.658-2.793-6.896 19.435" fill="#7d5f54"/><path d="M397.835 42.405c-.91.558-1.306 1.875-1.433 2.9 1.803-.39 3.812.685 4.15 1.174-1.354.758-1.736 1.464-2.485 2.442.642.86 1.997 2.136 3.2 3.81.16.017.322.033.483.047-1.08-1.77-2.39-3.05-3.057-3.943.748-.978 1.28-1.512 2.634-2.272-.34-.49-2.675-2.378-4.478-1.987.186-1.027.283-1.444.985-2.173M408.926 42.405c.912.558 1.307 1.875 1.434 2.9-1.803-.39-3.81.685-4.152 1.174 1.356.758 1.74 1.464 2.487 2.442-.64.86-1.997 2.132-3.202 3.8-.16.02-.322.037-.484.05 1.08-1.764 2.395-3.044 3.06-3.935-.75-.978-1.28-1.512-2.636-2.272.34-.49 2.676-2.378 4.48-1.987-.187-1.027-.285-1.444-.988-2.173M403.31 52.85c-.02-2.03.012-4.546.134-5.98-.435 1.564-.478 4.018-.363 5.977.078 0 .154.003.23.003" fill="#3c6634"/><path d="M215.398 182.382c-9.94 0-18-8.06-18-18s8.06-18 18-18 18 8.06 18 18-8.06 18-18 18" fill="#cbe3e2"/><path d="M208.67 175.826c-1.214.788-1.94 2.196-2.612 3.946a17.91 17.91 0 0 0 9.34 2.61c3.423 0 6.623-.956 9.348-2.615-.67-1.76-1.396-3.172-2.623-3.94-3.072-1.925-4.92-2.385-6.733-2.41-1.854-.025-3.67.428-6.72 2.41" fill="#fff"/><path d="M212.853 166.046h5.087v7.36c0 2.482-5.087 2.768-5.087 0v-7.36z" fill="#ffddb8"/><path d="M217.94 171.278v-.94h-5.087v3.463l5.087-2.522z" fill="#e8c5a0"/><path d="M215.396 157.3c10.774 0 6.407 14.233 0 14.233-6.406 0-10.774-14.232 0-14.232" fill="#ffddb8"/><path d="M218.404 158.278c2.007.564 2.454 3.428 2.857 4.935.587 2.19.255 2 1.037.333.78-1.667-1.132-8.86-6.72-8.86s-7.876 5.534-7.094 8.556c.78 3.023.78 2.305 1.27.012.486-2.283 1.334-4.424 2.503-4.876.92-.358 2.176.288 3.214.243 1.044-.045 1.983-.608 2.934-.342" fill="#7d5f54"/><path d="M222.32 162.198c.392.087.546.894.344 1.802-.203.908-.684 1.574-1.077 1.487-.39-.088-.546-.895-.344-1.803.203-.908.685-1.573 1.076-1.486" fill="#ffddb8"/><path d="M208.48 162.198c-.392.087-.547.894-.345 1.802.203.908.684 1.574 1.076 1.487.394-.088.547-.895.346-1.803-.203-.908-.685-1.573-1.077-1.486" fill="#f7d6b2"/><path d="M214.84 177.892l-.32 4.468a18.267 18.267 0 0 0 1.743 0l-.318-4.468 1.797-4.304c-1.682-.03-3.028-.026-4.7 0l1.797 4.304z" fill="#e6615f"/><path d="M212.933 172.046l-1.956 2.49 1.113 2.927 3.328-3.897-2.485-1.52z" fill="#bcc2d6"/><path d="M212.933 172.046l-1.956 2.49 1.216 2.273 3.225-3.244-2.485-1.52z" fill="#fff"/><path d="M218.02 172.046l1.955 2.49-1.114 2.927-3.326-3.897 2.485-1.52z" fill="#e1e6f7"/><path d="M218.02 172.046l1.955 2.49-1.216 2.273-3.226-3.244 2.485-1.52z" fill="#fff"/><path d="M302.862 157.045c-19.882 0-36-16.12-36-36 0-19.884 16.118-36 36-36 19.883 0 36 16.116 36 36 0 19.88-16.117 36-36 36" fill="#e6615f"/><path d="M288.513 119.57c1.098 7.145-2.133 15.48-3.594 9.966-3.056 3.836.515 19.502 13.34 11.906 12.827-7.596 2.32-36.5-9.747-21.873" fill="#ad4947"/><path d="M317.258 119.57c-1.32 8.473 2.132 15.48 3.594 9.966 3.055 3.836-.517 19.502-13.342 11.906-12.827-7.596-2.32-36.5 9.748-21.873" fill="#ad4947"/><path d="M289.407 143.932c-2.427 1.577-3.882 4.392-5.225 7.892a35.83 35.83 0 0 0 18.68 5.22c6.847 0 13.247-1.91 18.695-5.23-1.337-3.518-2.79-6.343-5.245-7.882-6.144-3.847-9.84-4.768-13.466-4.817-3.706-.05-7.34.857-13.44 4.817" fill="#ffcd61"/><path d="M297.772 125.597h10.174v14.718c0 4.966-10.174 5.538-10.174 0v-14.718z" fill="#ffddb8"/><path d="M307.947 134.836v-1.88h-10.175v6.926l10.175-5.046z" fill="#e8c5a0"/><path d="M302.86 106.882c21.548 0 12.812 28.464 0 28.464-12.814 0-21.55-28.464 0-28.464M302.866 153.273c0-1.867-5.03-8.588-5.03-12.218h10.06c0 3.63-5.03 10.35-5.03 12.218" fill="#ffddb8"/><path d="M300.548 156.97c-2-3.36-5.012-6.705-7.898-6.343-.646-2.145-.093-3.814.88-5.733-1.172-.196-1.906.01-3.38.723-.492-2.718 4.017-7.657 7.622-8.8 0 2.002-.208 5.84 1.76 8.414 1.344 1.762 2.404 7.17 2.94 11.81a37.106 37.106 0 0 1-1.924-.07" fill="#eda200"/><path d="M301.264 157.007c-1.924-3.633-5.226-7.857-7.914-7.857.06-2.28.258-3.363 1.57-5.08-1.803-.285-3.113.046-4.588.763.448-2.718 4.65-6.873 7.44-8.017 0 2.002-.208 5.84 1.758 8.415 1.44 1.885 2.552 7.41 3.045 11.81a35.62 35.62 0 0 1-1.31-.033" fill="#ffcd61"/><path d="M302.854 153.704c-3.19-4.736-6.67-6.277-8.797-6.282.45-2.113 1.602-4.44 2.426-5.338-3.427.03-4.498.73-5.973 1.808.448-2.718 4.472-5.932 7.262-7.076 0 2.002-.208 5.84 1.758 8.415 1.966 2.576 3.324 4.47 3.324 8.474" fill="#fff"/><path d="M305.16 156.97c2-3.36 5.013-6.704 7.9-6.343.645-2.145.092-3.814-.88-5.733 1.17-.196 1.904.01 3.38.723.49-2.718-4.018-7.657-7.623-8.8 0 2.002 1.732 6.145-1.447 8.503-2.192 1.627-3.69 7.023-3.995 11.72.122 0 .245.005.368.005.77 0 1.537-.028 2.297-.076" fill="#eda200"/><path d="M304.444 157.008c1.925-3.633 5.226-7.858 7.915-7.858-.062-2.28-.26-3.363-1.57-5.08 1.802-.285 3.112.046 4.587.763-.448-2.718-4.65-6.873-7.44-8.017 0 2.002.344 6.08-1.76 8.415-1.562 1.736-2.753 7.272-3.176 11.813.484-.003.966-.015 1.444-.035" fill="#ffcd61"/><path d="M302.854 153.704c3.19-4.736 6.67-6.277 8.797-6.282-.448-2.113-1.6-4.44-2.424-5.338 3.426.03 4.498.73 5.972 1.808-.448-2.718-4.47-5.932-7.26-7.076 0 2.002.207 5.84-1.76 8.415-1.966 2.576-3.324 4.47-3.324 8.474" fill="#fff"/><path d="M302.495 110.3c7.227 0 10.725 4.748 10.956 8.407.233 3.66 1.508 4.002 3.07.667 1.563-3.336-2.264-17.72-13.44-17.72-11.175 0-15.75 11.066-14.187 17.11 1.562 6.047 3.498 2.62 3.424.025-.075-2.596 2.17-8.28 10.178-8.49" fill="#ad4947"/><path d="M316.706 116.677c.784.174 1.092 1.788.688 3.604-.404 1.817-1.367 3.147-2.152 2.973-.783-.175-1.092-1.788-.688-3.604.404-1.818 1.368-3.148 2.152-2.973" fill="#ffddb8"/><path d="M289.026 116.677c-.784.174-1.093 1.788-.688 3.604.404 1.817 1.367 3.147 2.15 2.973.786-.175 1.093-1.788.69-3.604-.404-1.818-1.367-3.148-2.152-2.973" fill="#f7d6b2"/><path d="M293.73 107.686c-.7 4.274 11.01 9.24 20.404 9.65.85-11.106-13.05-13.782-20.404-9.65" fill="#ad4947"/><path d="M291.276 118.24c.116.56-.066 2.593.016 3.024.08.43 2.484 1.593 4.306 1.764.362.033.76.066 1.164.09v-.403c-.154-.014-.31-.03-.462-.05-1.48-.194-3.094-.63-3.576-1.126-.483-.498-.474-2.095-.477-2.414-.006-.586 2.862-.525 4.515-.348v-.48c-2.034-.224-5.47-.343-5.486-.06m5.486 4.88c1.632.105 3.41.117 3.717-.19.384-.38 1.125-1.765 1.21-2.1.112-.456 1.875-.374 1.978.034.084.335.83 1.716 1.215 2.097.31.304 2.08.287 3.707.178v-.404c-1.324.12-2.618.014-3.227-.273-.68-.32-1.503-1.93-1.234-2.415.267-.485 2.6-1.012 4.184-1.217l.276-.033v-.48c-.253.03-.485.06-.686.092-2.37.368-3.817.763-5.08.78-1.438.02-2.67-.39-5.38-.8-.2-.032-.43-.06-.682-.09v.48c.096.01.187.02.274.033 1.586.198 3.92.718 4.19 1.202.27.484-.55 2.098-1.228 2.42-.61.29-1.907.4-3.236.283v.404zm11.828.02c.41-.028.81-.06 1.177-.097 1.82-.174 4.22-1.345 4.3-1.776.08-.43-.11-2.464.005-3.025-.018-.284-3.447-.155-5.482.076v.48c1.653-.182 4.517-.253 4.514.333-.002.318.01 1.915-.47 2.414-.48.498-2.093.938-3.57 1.136-.158.02-.317.04-.474.054v.404z" fill="#e6615f"/><path d="M601.693 295.708c-32.11 0-58.14-26.03-58.14-58.14s26.03-58.14 58.14-58.14 58.14 26.03 58.14 58.14-26.03 58.14-58.14 58.14" fill="#ffcd61"/><path d="M580.674 220.67c-3.29 4.177-9.9 28.96-.533 43.235 1.925 2.934 4.456 5.284 7.264 7.097a83.563 83.563 0 0 0 14.29 1.217c4.054 0 8.012-.286 11.832-.83.087-.29.14-.595.162-.91.504-8.184-26.685-53.12-33.014-49.81" fill="#7d5f54"/><path d="M621.81 220.656c3.292 4.177 9.426 27.438.06 41.714-2.688 4.098-6.53 7.186-10.655 9.313-3.1.352-6.28.537-9.522.537-4.446 0-8.774-.345-12.934-.996-.06-.237-.1-.486-.117-.745-.505-8.184 26.838-53.132 33.167-49.824" fill="#7d5f54"/><path d="M579.956 274.5c-3.925 2.55-6.275 7.107-8.448 12.768 8.8 5.355 19.13 8.44 30.185 8.44 11.06 0 21.397-3.088 30.198-8.45-2.16-5.694-4.508-10.27-8.482-12.758-9.92-6.213-15.892-7.7-21.747-7.78-5.986-.082-11.852 1.384-21.704 7.78" fill="#cbe3e2"/><path d="M593.465 244.888H609.9v23.77c0 8.022-16.435 8.943-16.435 0v-23.77z" fill="#ffddb8"/><path d="M609.898 259.81v-3.038h-16.433v11.186l16.433-8.148z" fill="#e8c5a0"/><path d="M601.682 214.664c34.8 0 20.694 45.97 0 45.97-20.693 0-34.8-45.97 0-45.97" fill="#ffddb8"/><path d="M608.758 219.09c5.766 2.845 10.422 9.6 11.66 16.89 1.235 7.288 1.032 4.245 3.556-1.143 2.523-5.386-3.658-28.617-21.706-28.617-18.05 0-25.437 17.872-22.915 27.636 2.524 9.762 4.02 7.068 5.6-.34 1.575-7.406 7.998-16.067 23.805-14.425" fill="#7d5f54"/><path d="M617.99 259.147c10.126-24.312-5.822-39.508-9.365-39.687 6.83-1.213 22.952 13.908 9.366 39.687" fill="#c48872"/><path d="M609.974 267.863c-.763 7.87-8.224 14.592-8.224 20.952 0-6.378-7.498-13.102-8.226-21.014l16.45.063z" fill="#ffddb8"/><path d="M601.75 285.907c3.592-5.37 7.336-8.46 11.853-9.867 2.23-.694 6.144-1.437 8.24-.416-3.966-4.508-8.137-6.76-11.87-11.004-.043 12.238-8.3 14.383-8.223 21.287" fill="#478c76"/><path d="M601.75 285.907c2.687-5.72 6.85-10.547 11.364-11.954 2.233-.695 4.337-.533 6.433.487-3.966-4.507-5.84-7.107-9.573-9.82-.044 12.238-8.3 14.383-8.224 21.287" fill="#cbe3e2"/><path d="M601.75 285.907c-3.59-5.37-7.335-8.46-11.852-9.867-2.23-.694-6.145-1.437-8.24-.416 3.966-4.508 8.137-6.76 11.87-11.004.043 12.238 8.3 14.383 8.222 21.287" fill="#478c76"/><path d="M601.75 285.907c-2.686-5.72-6.848-10.547-11.364-11.954-2.232-.695-4.336-.533-6.432.487 3.967-4.507 5.84-7.107 9.573-9.82.044 12.238 8.3 14.383 8.223 21.287" fill="#cbe3e2"/><path d="M586.475 263.884c-11.39-49.52 16.96-44.513 22.276-44.334-7.92-5.993-44.113-6.372-22.275 44.334" fill="#c48872"/><path d="M691.504 319.825c-9.94 0-18-8.06-18-18 0-9.942 8.06-18 18-18 9.942 0 18 8.058 18 18 0 9.94-8.058 18-18 18" fill="#cbe3e2"/><path d="M688.957 304.092h5.087v7.893c0 2.485-5.087 2.77-5.087 0v-7.893z" fill="#ffddb8"/><path d="M684.775 313.26c-1.216.788-1.943 2.2-2.615 3.952a17.913 17.913 0 0 0 9.345 2.614c3.423 0 6.624-.957 9.35-2.616-.67-1.764-1.397-3.18-2.628-3.95-3.07-1.924-4.947-2.23-6.76-2.254-1.854-.027-3.643.273-6.692 2.253" fill="#e6615f"/><path d="M694.044 308.712v-.94h-5.087v3.462l5.087-2.522z" fill="#e8c5a0"/><path d="M691.5 294.734c10.775 0 6.407 14.233 0 14.233-6.406 0-10.772-14.233 0-14.233" fill="#ffddb8"/><path d="M690.95 315.336l-.316 4.468c.29.015.58.02.87.02.292 0 .584-.005.872-.02l-.318-4.468 1.796-4.305a133.89 133.89 0 0 0-4.7 0l1.797 4.306z" fill="#fff"/><path d="M688.957 309.503l-1.955 2.49 1.113 2.926 3.327-3.897-2.485-1.52z" fill="#c94341"/><path d="M688.957 309.503l-1.955 2.49 1.215 2.272 3.225-3.242-2.485-1.52z" fill="#e6615f"/><path d="M694.044 309.503l1.957 2.49-1.113 2.926-3.328-3.897 2.484-1.52z" fill="#c94341"/><path d="M694.044 309.503l1.957 2.49-1.216 2.272-3.225-3.242 2.484-1.52z" fill="#e6615f"/><path d="M696.814 299.16c-.02-1.18-1.012-2.442-1.73-2.8-.72-.36-4.35.088-6.225 1.28-2.03 1.29-2.402 2.27-2.537 3.427-.042.363-.14.73-.337.66-.62-.227-.744-1.302-1.27-1.618-.77-.463-.418-1.86-.11-3.04.307-1.18 2.014-4.4 6.694-4.528 2.334-.063 3.283 1.344 3.993 1.486 2.133.43 3.468 4.373 2.843 6.16-.28.805-.696 1.392-1.274 1.223-.263-.075-.034-1.566-.048-2.25" fill="#ad4947"/><path d="M698.42 299.63c.394.09.548.894.346 1.803-.203.908-.684 1.573-1.077 1.487-.392-.088-.547-.896-.346-1.802.203-.91.685-1.575 1.077-1.487" fill="#ffddb8"/><path d="M684.58 299.63c-.39.09-.545.894-.343 1.803.203.908.684 1.573 1.076 1.487.392-.088.546-.896.344-1.802-.203-.91-.683-1.575-1.076-1.487" fill="#f7d6b2"/><path d="M477.508 377.893c-16.65 0-30.15-13.498-30.15-30.15 0-16.65 13.5-30.148 30.15-30.148 16.653 0 30.15 13.498 30.15 30.15 0 16.65-13.497 30.148-30.15 30.148" fill="#e6615f"/><path d="M466.225 361.508c-2.97 1.927-4.202 6.072-5.944 10.98a30 30 0 0 0 17.228 5.406 29.996 29.996 0 0 0 17.203-5.39c-1.736-4.93-2.947-9.114-5.953-10.996-5.144-3.223-8.24-3.995-11.276-4.036-3.105-.04-6.146.72-11.255 4.036" fill="#ffd67d"/><path d="M484.24 359.047c-2.675-1.193-4.73-1.548-6.76-1.575-2.074-.028-4.12.302-6.772 1.513a6.94 6.94 0 0 0 13.53.062" fill="#ffae00"/><path d="M473.23 346.152h8.522v12.325c0 4.16-8.52 4.64-8.52 0v-12.325z" fill="#ffddb8"/><path d="M477.49 330.478c18.047 0 10.732 23.84 0 23.84-10.73 0-18.046-23.84 0-23.84" fill="#f0ceaa"/><path d="M477.49 330.478c18.047 0 10.732 23.84 0 23.84v-23.84z" fill="#ffddb8"/><path d="M477.303 333.34c2.02 0 2.877-.893 4.253-.256 2.743 1.272 5.105 4.854 5.758 7.298.98 3.664.428 3.35 1.737.558 1.31-2.794-1.896-14.84-11.256-14.84s-13.19 9.266-11.883 14.33c1.31 5.062 1.31 3.86 2.128.02.82-3.842 2.56-6.934 9.265-7.11" fill="#7d5f54"/><path d="M482.317 333.28c-1.328 1.15-5.834 3.746-8.46 3.816.688-.622 1.154-1.203 1.38-1.91.23-.704-3.572 2.663-5.106 2.808.794-.945.927-1.337.964-1.857-2.487 1.36-2.445 3.993-2.442 6.112.004 2.117-1.143 1.523-.987-.802.156-2.323-1.392-5.166-.615-7.002.777-1.837 11.016-4.378 14.265-4.378 3.25 0 5.933 3.247 6.71 4.66.776 1.413-.73 5.388-.69 6.66.043 1.27-.986 2.66-.998-.036-.013-2.7-1.573-5.507-4.02-8.073" fill="#7d5f54"/><path d="M489.088 338.68c.656.146.914 1.498.576 3.018-.34 1.52-1.145 2.636-1.802 2.49-.657-.146-.915-1.497-.576-3.018.34-1.522 1.144-2.635 1.802-2.49" fill="#ffddb8"/><path d="M465.905 338.68c-.656.146-.914 1.498-.576 3.018.338 1.52 1.145 2.636 1.802 2.49.656-.146.915-1.497.576-3.018-.338-1.522-1.145-2.635-1.803-2.49" fill="#f7d6b2"/><path d="M464.798 362.732c-1.995 2.196-3.083 5.717-4.517 9.756a30.125 30.125 0 0 0 6.3 3.362c.302-1.342.466-2.763.466-4.235 0-3.334-.836-6.41-2.248-8.883M488.417 375.86c2.24-.87 4.35-2.002 6.295-3.356-1.43-4.055-2.502-7.604-4.51-9.784-1.416 2.473-2.255 5.555-2.255 8.895 0 1.475.165 2.9.47 4.244" fill="#ffae00"/><path d="M561.072 78.16c-9.94 0-18-8.06-18-18 0-9.942 8.06-18 18-18 9.942 0 18 8.058 18 18 0 9.94-8.058 18-18 18" fill="#a8d0ce"/><path d="M554.284 68.376c-1.768 1.147-2.504 3.61-3.54 6.526a17.92 17.92 0 0 0 10.328 3.257c3.8 0 7.324-1.18 10.228-3.19-1.042-2.956-1.764-5.467-3.564-6.594-3.072-1.923-4.92-2.385-6.733-2.41-1.853-.024-3.67.43-6.72 2.41" fill="#e6615f"/><path d="M558.466 59.208h5.087v7.36c0 1.29-1.373 5.51-2.692 5.494-1.22-.015-2.394-4.165-2.394-5.495v-7.36z" fill="#ffddb8"/><path d="M563.553 63.828v-.94h-5.087v3.462l5.087-2.522z" fill="#e8c5a0"/><path d="M561.01 49.85c10.772 0 6.406 14.233 0 14.233-6.407 0-10.775-14.233 0-14.233" fill="#ffddb8"/><path d="M564.133 51.038c1.743.74 2.454 2.977 2.857 4.484.586 2.188.254 2 1.037.333.78-1.668-1.132-8.86-6.72-8.86-5.59 0-7.876 5.533-7.095 8.556.78 3.024.782 2.306 1.27.012 1.256-5.897 5.678-3.315 8.65-4.524" fill="#eb817f"/><path d="M564.542 52.196c-.97.42-4.343 2.57-5.735 2.613-1.39.04.253-.254.633-.676.38-.42-2.656.97-3.372 1.013-.718.04 0-.085.336-.548.338-.466-1.222.25-.97 1.517.253 1.264-1.043.79-1.127-.39-.085-1.18.03-1.382.495-2.478.465-1.097 6.577-2.614 8.517-2.614 1.938 0 3.54 1.938 4.005 2.782.463.843.567 1.757.356 2.516-.21.76-.862 1.11-.862.14 0-.97-1.56-2.108-2.276-3.878" fill="#eb817f"/><path d="M567.992 54.747c.392.087.546.894.344 1.803-.203.908-.684 1.573-1.076 1.486-.392-.087-.546-.895-.344-1.803.203-.907.683-1.573 1.076-1.486" fill="#ffddb8"/><path d="M554.152 54.747c-.392.087-.547.894-.344 1.803.202.908.684 1.573 1.077 1.486.39-.087.546-.895.344-1.803-.204-.907-.686-1.573-1.078-1.486" fill="#f7d6b2"/><path d="M553.44 69.137c-1.19 1.31-1.838 3.413-2.696 5.824a17.966 17.966 0 0 0 3.76 2.007c.182-.8.28-1.65.28-2.528 0-1.99-.5-3.828-1.343-5.303M567.542 76.973a17.94 17.94 0 0 0 3.76-2.003c-.855-2.42-1.495-4.54-2.694-5.842-.845 1.478-1.346 3.317-1.346 5.31 0 .882.098 1.732.28 2.535" fill="#ffaead"/><path d="M659.544 77.15c-16.65 0-30.15-13.497-30.15-30.15 0-16.65 13.5-30.15 30.15-30.15 16.653 0 30.15 13.5 30.15 30.15 0 16.653-13.497 30.15-30.15 30.15" fill="#ffcd61"/><path d="M668.798 44.353c-2.883 1.706-.88 5.125.36 3.16 1.21 1.85-2.018 7.5-7.854 3.04-5.834-4.46 2.677-13.296 7.494-6.2" fill="#7d5f54"/><path d="M650.335 44.12c2.883 1.705.88 5.125-.362 3.16-1.207 1.848 2.02 7.498 7.856 3.038 5.835-4.46-2.68-13.295-7.495-6.2" fill="#7d5f54"/><path d="M651.252 48.205c2.422 2.315-.305 5.192-1.068 2.997-1.594 1.527.27 7.76 6.964 4.737 6.693-3.023.4-13.557-5.896-7.735" fill="#7d5f54"/><path d="M667.87 48.205c-2.42 2.315.305 5.192 1.07 2.997 1.592 1.527-.273 7.76-6.965 4.737-6.695-3.023-.4-13.557 5.896-7.735" fill="#7d5f54"/><path d="M648.272 60.764c-2.97 1.928-4.2 6.074-5.943 10.982a30.018 30.018 0 0 0 17.228 5.406 30.01 30.01 0 0 0 17.202-5.39c-1.738-4.93-2.948-9.115-5.954-10.998-5.146-3.222-8.24-3.993-11.278-4.034-3.104-.043-6.147.718-11.256 4.034" fill="#ad4947"/><path d="M655.28 45.408h8.52v12.327c0 4.16-8.52 4.638-8.52 0V45.408z" fill="#ffddb8"/><path d="M663.8 53.146V51.57h-8.52v5.803l8.52-4.227z" fill="#e8c5a0"/><path d="M659.54 29.734c18.047 0 10.73 23.84 0 23.84-10.732 0-18.048-23.84 0-23.84M659.544 68.587c0-1.563-4.21-7.193-4.21-10.232h8.422c0 3.04-4.212 8.67-4.212 10.232" fill="#ffddb8"/><path d="M659.536 68.95c-2.673-3.968-5.586-5.26-7.368-5.263.376-1.77 1.34-3.718 2.03-4.47-2.868.025-3.767.612-5 1.514.374-2.276 3.744-4.967 6.08-5.925 0 1.677-.173 4.89 1.473 7.047 1.65 2.156 2.786 3.742 2.786 7.097" fill="#70a7cc"/><path d="M659.536 68.95c2.67-3.968 5.585-5.26 7.366-5.263-.376-1.77-1.342-3.718-2.03-4.47 2.87.025 3.766.612 5 1.514-.374-2.276-3.743-4.967-6.08-5.925 0 1.677.173 4.89-1.473 7.047-1.647 2.156-2.784 3.742-2.784 7.097" fill="#70a7cc"/><path d="M659.234 32.598c6.052 0 8.983 3.976 9.175 7.04.194 3.064 1.262 3.35 2.57.558 1.31-2.793-1.896-14.84-11.256-14.84-9.358 0-13.19 9.267-11.882 14.33 1.308 5.064 2.93 2.193 2.868.02-.063-2.172 1.817-6.934 8.524-7.108" fill="#7d5f54"/><path d="M671.136 37.937c.657.146.915 1.498.577 3.02-.34 1.52-1.146 2.634-1.802 2.49-.657-.148-.915-1.5-.576-3.02.338-1.52 1.145-2.636 1.802-2.49" fill="#ffddb8"/><path d="M647.955 37.937c-.658.146-.916 1.498-.578 3.02.34 1.52 1.146 2.634 1.802 2.49.657-.148.915-1.5.576-3.02-.338-1.52-1.145-2.636-1.8-2.49" fill="#f7d6b2"/><path d="M651.893 30.408c-.584 3.58 6.254 8.666 14.123 9.01.712-9.304-7.964-12.47-14.123-9.01" fill="#7d5f54"/><path d="M659.446 77.142c-.035-3.4.016-7.616.22-10.015-.727 2.618-.798 6.728-.605 10.01l.386.005" fill="#70a7cc"/><path d="M529.128 151.236c-9.942 0-18-8.06-18-18s8.058-18 18-18c9.94 0 18 8.06 18 18s-8.06 18-18 18" fill="#e6615f"/><path d="M522.398 141.453c-1.773 1.15-2.508 3.625-3.547 6.555a17.906 17.906 0 0 0 4.676 2.336c1.554-1.31 3.65-.84 5.61-.84 1.65-2.57 3.843-.778 5.608.84a17.928 17.928 0 0 0 4.66-2.326c-1.036-2.944-1.76-5.442-3.554-6.565-3.072-1.923-4.92-2.385-6.732-2.41-1.854-.025-3.67.43-6.72 2.41" fill="#fff"/><path d="M526.58 132.285h5.088v7.36c0 2.482-5.088 2.768-5.088 0v-7.36z" fill="#ffddb8"/><path d="M531.668 136.905v-.94h-5.087v3.463l5.088-2.523z" fill="#e8c5a0"/><path d="M529.125 122.928c10.774 0 6.406 14.232 0 14.232-6.407 0-10.775-14.232 0-14.232" fill="#ffddb8"/><path d="M528.942 124.19c3.613 0 5.362 2.372 5.48 4.202.114 1.83.752 2 1.534.333.78-1.668-1.133-8.86-6.72-8.86-5.588 0-7.876 5.533-7.095 8.556.783 3.024 1.75 1.31 1.713.013-.037-1.297 1.085-4.14 5.09-4.244" fill="#7d5f54"/><path d="M523.813 129.55c-.183 1.275-1.328.435-1.412-.746-.084-1.18.032-1.38.496-2.478.464-1.096 2.932-4.027 6.046-4.027 3.112 0 6.013 3.352 6.478 4.196.462.843.566 1.756.355 2.514-.21.76-.703 1.287-.97.355-.908-3.19-3.474-5.116-5.783-5.156-2.84-.05-4.875 3.012-5.21 5.34" fill="#7d5f54"/><path d="M536.048 127.825c.392.087.547.894.344 1.8-.202.91-.684 1.576-1.077 1.488-.39-.087-.546-.894-.344-1.802.203-.907.686-1.572 1.078-1.485" fill="#ffddb8"/><path d="M522.208 127.825c-.392.087-.547.894-.344 1.8.202.91.684 1.576 1.075 1.488.39-.087.545-.894.343-1.802-.202-.907-.683-1.572-1.075-1.485" fill="#f7d6b2"/><path d="M525.08 139.944v7.827h8.095v-7.777c.488.218 1.01.484 1.58.805v9.543c-1.813.596-3.72.896-5.628.896-1.92 0-3.808-.3-5.625-.9v-9.567c.567-.33 1.09-.603 1.578-.826" fill="#2e5b78"/><path d="M533.345 124.615c.35 2.137-3.734 5.173-8.43 5.378-.427-5.553 4.754-7.444 8.43-5.378" fill="#7d5f54"/><path d="M479.722 76.273a6.3 6.3 0 0 0-4.068 1.482 10.957 10.957 0 0 0-.46-2.92 10.982 10.982 0 0 0-7.66-7.45 10.913 10.913 0 0 0-2.836-.373c-.15 0-.302.006-.454.012-5.842.238-10.506 5.048-10.506 10.95 0 1.118.17 2.198.48 3.215a3.873 3.873 0 0 0 .088 7.743h25.416a6.328 6.328 0 0 0 6.33-6.33 6.33 6.33 0 0 0-6.33-6.33M503.977 275.62a6.3 6.3 0 0 0-4.068 1.482 10.885 10.885 0 0 0-.46-2.92 10.982 10.982 0 0 0-6.552-7.09 10.95 10.95 0 0 0-3.945-.735c-.152 0-.303.007-.454.014-5.843.24-10.507 5.048-10.507 10.95 0 1.12.17 2.2.48 3.216a3.873 3.873 0 0 0 .087 7.743h25.417a6.33 6.33 0 0 0 0-12.66M294.938 200.466a6.31 6.31 0 0 0-4.068 1.482 10.957 10.957 0 0 0-.46-2.92 10.982 10.982 0 0 0-7.66-7.45 10.954 10.954 0 0 0-2.835-.374c-.152 0-.303.006-.455.012-5.84.238-10.506 5.048-10.506 10.95 0 1.118.17 2.198.482 3.215a3.873 3.873 0 0 0 .086 7.743h25.416a6.328 6.328 0 0 0 6.33-6.33 6.33 6.33 0 0 0-6.33-6.33M727.113 210.43a6.3 6.3 0 0 0-4.068 1.482c-.01-.585-.07-1.157-.17-1.716a10.985 10.985 0 0 0-7.95-8.653 10.967 10.967 0 0 0-2.835-.372c-.152 0-.302.006-.455.012-5.84.237-10.506 5.048-10.506 10.95 0 1.118.17 2.198.482 3.215a3.872 3.872 0 0 0 .086 7.743h25.415a6.328 6.328 0 0 0 6.33-6.33 6.328 6.328 0 0 0-6.33-6.33" fill="#cbe3e2" fill-rule="nonzero"/><path d="M251.105 307.62c-16.71 0-30.254-13.545-30.254-30.254 0-16.708 13.546-30.254 30.255-30.254 16.708 0 30.253 13.546 30.253 30.254 0 16.71-13.545 30.253-30.253 30.253" fill="#ffcd61"/><path d="M239.782 291.176c-2.98 1.935-4.215 6.094-5.963 11.018a30.096 30.096 0 0 0 17.285 5.425c6.417 0 12.367-2 17.262-5.408-1.744-4.95-2.96-9.147-5.975-11.036-5.162-3.233-8.27-4.006-11.315-4.048-3.116-.043-6.17.72-11.295 4.048" fill="#eb817f"/><path d="M246.812 275.767h8.55v12.368c0 2.102-3.303 9.627-4.275 16.383-.71-4.112-4.275-14.072-4.275-16.383v-12.368z" fill="#ffddb8"/><path d="M253.29 295.53c-.864 2.78-1.767 5.96-2.202 8.988-.362-2.094-1.464-5.7-2.457-9.045.77.167 1.605.26 2.475.26.763 0 1.497-.07 2.186-.202" fill="#e6615f"/><path d="M255.362 283.533v-1.58h-8.55v5.82l8.55-4.24z" fill="#e8c5a0"/><path d="M251.087 260.04c18.11 0 10.768 23.92 0 23.92-10.767 0-18.108-23.92 0-23.92" fill="#ffddb8"/><path d="M250.9 262.913c6.073 0 9.06 3.386 10.045 7.065.984 3.68.43 3.364 1.742.56 1.313-2.804-1.904-14.892-11.295-14.892-9.392 0-13.236 9.3-11.923 14.38 1.312 5.08 1.312 3.875 2.133.02.82-3.853 2.566-6.957 9.297-7.133" fill="#c48872"/><path d="M262.724 268.27c.66.148.918 1.503.578 3.03-.34 1.526-1.15 2.645-1.808 2.497-.66-.147-.918-1.5-.578-3.028.34-1.527 1.15-2.646 1.808-2.5" fill="#ffddb8"/><path d="M239.462 268.27c-.658.148-.918 1.503-.578 3.03.34 1.526 1.15 2.645 1.808 2.497.66-.147.918-1.5.58-3.028-.34-1.527-1.15-2.646-1.81-2.5" fill="#f7d6b2"/><path d="M244.345 268.947c-.636.296-1.524 1.204-1.183 3.11.34 1.906 1.504 2.848 2.93 2.707 1.424-.14 3.148-1.182 3.89-2.306a2.59 2.59 0 0 0 .42-1.62h.703v-.3h-.746c-.122-.57-.452-1.06-.98-1.31a5.446 5.446 0 0 0-.892-.313h2.617v-.302h-4.792c-.728-.01-1.43.085-1.968.334m6.76 1.892h.703a2.592 2.592 0 0 0 .42 1.618c.742 1.124 2.467 2.167 3.892 2.306 1.424.14 2.587-.8 2.928-2.707.342-1.906-.547-2.814-1.184-3.11-.535-.25-1.24-.343-1.967-.334h-4.793v.302h2.618a5.48 5.48 0 0 0-.893.313c-.528.25-.858.74-.978 1.31h-.747v.3z" fill="#e6615f"/><path d="M244.473 269.22c-.355.165-.64.472-.818.817-.31.6-.313 1.315-.197 1.965.168.94.613 1.936 1.55 2.32.335.14.694.18 1.053.143 1.29-.127 2.956-1.09 3.67-2.174.467-.703.55-1.776-.026-2.445a1.376 1.376 0 0 0-.452-.345c-.715-.338-1.748-.518-2.532-.57-.705-.045-1.597-.012-2.247.29M257.738 269.22c.354.165.64.472.817.817.31.6.313 1.315.197 1.965-.168.94-.613 1.936-1.55 2.32a2.175 2.175 0 0 1-1.053.143c-1.292-.127-2.956-1.09-3.67-2.174-.467-.703-.55-1.776.026-2.445.126-.145.28-.263.452-.345.715-.338 1.748-.518 2.532-.57.705-.045 1.597-.012 2.248.29" fill="#ffaead"/><path d="M251.087 304.518c0-5.553-4.3-13.727-4.275-19.328-3.752 1.372-5.52 3.61-7.03 5.986 8.464.16 9.033 8.66 11.305 13.342" fill="#7e9c9b"/><path d="M251.087 304.518c0-8.012 4.32-13.91 4.275-19.64 2.903.35 6.866 4.832 7.294 6.472-8.464.16-9.295 8.485-11.57 13.168" fill="#7e9c9b"/><path d="M256.042 262.594c-1.328 1.15-5.833 3.747-8.46 3.817.69-.62 1.154-1.202 1.382-1.908.228-.705-3.573 2.664-5.107 2.807.793-.945.925-1.337.962-1.858-2.49 1.36-2.446 3.993-2.442 6.112.003 2.12-1.143 1.524-.988-.8.156-2.324-1.393-5.167-.615-7.003.777-1.835 11.017-4.378 14.265-4.378 3.25 0 5.933 3.25 6.71 4.662.777 1.412-.732 5.387-.69 6.66.045 1.27-.985 2.66-1-.037-.01-2.7-1.57-5.505-4.018-8.073" fill="#c48872"/></svg>