<svg viewBox="0 0 924 503" xmlns="http://www.w3.org/2000/svg" fill-rule="evenodd" clip-rule="evenodd" stroke-linejoin="round" stroke-miterlimit="1.414"><path fill="#fff" d="M611.52 112.976h108.105v48.917H611.52z"/><path d="M712.05 155.35l-33.215 26.6 11.105-26.905 22.11.306z" fill="#fff"/><path fill="#e6615f" d="M618.39 118.83h17.594v5.332H618.39z"/><path fill="#ccc" d="M643.714 118.83h48.25v5.332h-48.25zM697.258 118.83h15.496v5.332h-15.496zM643.714 129.493h21.302v5.33h-21.302zM667.904 129.493h6.12v5.33h-6.12zM676.393 129.493h5.625v5.33h-5.625z"/><path fill="#00806f" d="M618.39 141.222h17.594v5.33H618.39z"/><path fill="#ccc" d="M643.714 141.222h15.438v5.33h-15.438zM672.248 141.222h13.028v5.33h-13.028zM643.714 151.885h23.797v5.33h-23.796zM684.753 151.885h21.302v5.33h-21.302zM662.773 141.222h7.106v5.33h-7.107zM687.447 141.222h25.308v5.33h-25.308zM670.364 151.885h11.752v5.33h-11.752z"/><path fill="#fff" d="M312.81 255.02h108.105v48.92H312.81z"/><path d="M319.24 257.425l33.213-26.598-11.105 26.904-22.11-.305z" fill="#fff"/><path fill="#e6615f" d="M319.68 260.876h17.594v5.332H319.68z"/><path fill="#ccc" d="M345.005 260.876h48.248v5.332h-48.248zM398.547 260.876h15.497v5.332h-15.497zM345.005 271.54h21.3v5.33h-21.3zM369.194 271.54h6.12v5.33h-6.12zM377.683 271.54h5.625v5.33h-5.625z"/><path fill="#00806f" d="M319.68 283.268h17.594v5.33H319.68z"/><path fill="#ccc" d="M345.005 283.268h15.437v5.33h-15.437zM373.537 283.268h13.028v5.33h-13.028zM345.005 293.93H368.8v5.33h-23.795zM386.043 293.93h21.3v5.33h-21.3zM364.062 283.268h7.106v5.33h-7.106zM388.736 283.268h25.308v5.33h-25.308zM371.653 293.93h11.754v5.33h-11.754z"/><path fill="#fff" d="M205.5 324.88h108.107v48.916H205.5z"/><path d="M310.336 330.42L276.098 303l11.447 27.734 22.79-.315z" fill="#fff"/><path fill="#e6615f" d="M212.37 330.734h17.595v5.33H212.37z"/><path fill="#ccc" d="M237.695 330.734h48.248v5.33h-48.248zM291.238 330.734h15.497v5.33h-15.497zM237.695 341.396h21.3v5.33h-21.3zM261.885 341.396h6.12v5.33h-6.12zM270.374 341.396H276v5.33h-5.626z"/><path fill="#00806f" d="M212.37 353.125h17.595v5.33H212.37z"/><path fill="#ccc" d="M237.695 353.125h15.437v5.33h-15.437zM266.228 353.125h13.028v5.33h-13.028zM237.695 363.787h23.796v5.332h-23.795zM278.734 363.787h21.302v5.332h-21.302zM256.753 353.125h7.107v5.33h-7.107zM281.428 353.125h25.308v5.33h-25.308zM264.343 363.787h11.754v5.332h-11.754z"/></svg>