<?xml version="1.0" standalone="no"?><!DOCTYPE svg PUBLIC "-//W3C//DTD SVG 1.1//EN" "http://www.w3.org/Graphics/SVG/1.1/DTD/svg11.dtd"><svg width="100%" height="100%" viewBox="0 0 553 381" version="1.1" xmlns="http://www.w3.org/2000/svg" xmlns:xlink="http://www.w3.org/1999/xlink" xml:space="preserve" style="fill-rule:evenodd;clip-rule:evenodd;stroke-linejoin:round;stroke-miterlimit:1.41421;"><rect x="430.42" y="112.976" width="108.106" height="48.917" style="fill:#fff;"/><path d="M530.95,155.351l-33.214,26.598l11.104,-26.904l22.11,0.306Z" style="fill:#fff;"/><rect x="437.292" y="118.831" width="17.593" height="5.331" style="fill:#e6615f;"/><rect x="462.615" y="118.831" width="48.249" height="5.331" style="fill:#ccc;"/><rect x="516.159" y="118.831" width="15.497" height="5.331" style="fill:#ccc;"/><rect x="462.615" y="129.493" width="21.302" height="5.331" style="fill:#ccc;"/><rect x="486.805" y="129.493" width="6.12" height="5.331" style="fill:#ccc;"/><rect x="495.294" y="129.493" width="5.625" height="5.331" style="fill:#ccc;"/><rect x="437.292" y="141.222" width="17.593" height="5.331" style="fill:#00806f;"/><rect x="462.615" y="141.222" width="15.438" height="5.331" style="fill:#ccc;"/><rect x="491.148" y="141.222" width="13.028" height="5.331" style="fill:#ccc;"/><rect x="462.615" y="151.885" width="23.797" height="5.331" style="fill:#ccc;"/><rect x="503.654" y="151.885" width="21.302" height="5.331" style="fill:#ccc;"/><rect x="481.674" y="141.222" width="7.106" height="5.331" style="fill:#ccc;"/><rect x="506.348" y="141.222" width="25.308" height="5.331" style="fill:#ccc;"/><rect x="489.264" y="151.885" width="11.752" height="5.331" style="fill:#ccc;"/><rect x="131.71" y="255.021" width="108.106" height="48.919" style="fill:#fff;"/><path d="M138.14,257.425l33.214,-26.598l-11.105,26.904l-22.109,-0.306Z" style="fill:#fff;"/><rect x="138.581" y="260.876" width="17.594" height="5.332" style="fill:#e6615f;"/><rect x="163.905" y="260.876" width="48.248" height="5.332" style="fill:#ccc;"/><rect x="217.448" y="260.876" width="15.497" height="5.332" style="fill:#ccc;"/><rect x="163.905" y="271.539" width="21.301" height="5.33" style="fill:#ccc;"/><rect x="188.095" y="271.539" width="6.119" height="5.33" style="fill:#ccc;"/><rect x="196.584" y="271.539" width="5.625" height="5.33" style="fill:#ccc;"/><rect x="138.581" y="283.268" width="17.594" height="5.33" style="fill:#00806f;"/><rect x="163.905" y="283.268" width="15.437" height="5.33" style="fill:#ccc;"/><rect x="192.438" y="283.268" width="13.028" height="5.33" style="fill:#ccc;"/><rect x="163.905" y="293.93" width="23.795" height="5.33" style="fill:#ccc;"/><rect x="204.944" y="293.93" width="21.301" height="5.33" style="fill:#ccc;"/><rect x="182.963" y="283.268" width="7.106" height="5.33" style="fill:#ccc;"/><rect x="207.637" y="283.268" width="25.308" height="5.33" style="fill:#ccc;"/><rect x="190.554" y="293.93" width="11.754" height="5.33" style="fill:#ccc;"/><rect x="32.295" y="16.85" width="108.106" height="48.917" style="fill:#fff;"/><path d="M35.123,62.353l33.213,26.598l-11.105,-26.904l-22.108,0.306Z" style="fill:#fff;"/><rect x="39.167" y="22.705" width="17.594" height="5.331" style="fill:#e6615f;"/><rect x="64.491" y="22.705" width="48.248" height="5.331" style="fill:#ccc;"/><rect x="118.034" y="22.705" width="15.497" height="5.331" style="fill:#ccc;"/><rect x="64.491" y="33.367" width="21.301" height="5.331" style="fill:#ccc;"/><rect x="88.68" y="33.367" width="6.119" height="5.331" style="fill:#ccc;"/><rect x="97.169" y="33.367" width="5.625" height="5.331" style="fill:#ccc;"/><rect x="39.167" y="45.097" width="17.594" height="5.331" style="fill:#00806f;"/><rect x="64.491" y="45.097" width="15.437" height="5.331" style="fill:#ccc;"/><rect x="93.024" y="45.097" width="13.028" height="5.331" style="fill:#ccc;"/><rect x="64.491" y="55.759" width="23.796" height="5.332" style="fill:#ccc;"/><rect x="105.529" y="55.759" width="21.302" height="5.332" style="fill:#ccc;"/><rect x="83.548" y="45.097" width="7.107" height="5.331" style="fill:#ccc;"/><rect x="108.223" y="45.097" width="25.308" height="5.331" style="fill:#ccc;"/><rect x="91.139" y="55.759" width="11.754" height="5.332" style="fill:#ccc;"/></svg>