<?xml version="1.0" standalone="no"?><!DOCTYPE svg PUBLIC "-//W3C//DTD SVG 1.1//EN" "http://www.w3.org/Graphics/SVG/1.1/DTD/svg11.dtd"><svg width="100%" height="100%" viewBox="0 0 924 463" version="1.1" xmlns="http://www.w3.org/2000/svg" xmlns:xlink="http://www.w3.org/1999/xlink" xml:space="preserve" style="fill-rule:evenodd;clip-rule:evenodd;stroke-linejoin:round;stroke-miterlimit:1.41421;"><g><clipPath id="_clip1"><rect x="0" y="0" width="923.722" height="462.781"/></clipPath><g clip-path="url(#_clip1)"><g opacity="0.5"><clipPath id="_clip2"><rect x="0" y="0" width="923.722" height="462.781"/></clipPath><g clip-path="url(#_clip2)"><path d="M133.611,86.861c-1.27,0.112 -2.725,0.26 -4.364,0.26c-5.607,0 -3.019,-4.745 -10.351,-4.745c-7.332,0 -3.882,1.725 -10.352,-2.587c-6.469,-4.313 -4.312,1.725 -12.938,1.725c-8.626,0 -10.352,1.726 -10.352,5.607c0,3.881 -12.075,-6.038 -24.582,-6.9c-12.508,-0.863 -25.878,-4.745 -33.641,-4.745c-7.763,0 -11.645,8.194 -20.702,9.489c-9.057,1.293 0.862,3.881 3.451,8.625c2.587,4.744 1.725,4.313 -6.902,5.175c-8.626,0.863 4.313,6.47 10.352,6.47c6.038,0 -0.432,4.312 -4.745,6.9c-4.312,2.588 -6.037,11.646 0.863,12.076c6.901,0.432 3.45,4.314 12.076,4.314c8.626,0 0.863,6.469 -4.744,10.782c-5.607,4.313 -5.175,9.919 -2.156,7.332c3.019,-2.588 10.782,-9.057 14.663,-10.352c3.882,-1.293 6.47,-8.194 9.92,-10.35c3.451,-2.156 6.038,4.313 8.194,0.863c2.157,-3.451 6.47,-0.432 10.352,-1.295c3.88,-0.862 12.076,0.863 15.526,1.725c3.45,0.863 7.332,4.313 12.507,3.882c5.175,-0.431 5.607,8.195 9.057,11.213c3.451,3.02 7.332,2.589 6.47,6.901c-0.863,4.313 6.038,10.351 12.508,12.939c6.468,2.588 9.057,10.351 3.88,7.763c-5.175,-2.587 -5.606,-1.725 -3.88,3.019c1.725,4.744 2.587,7.763 0,9.057c-2.589,1.294 -2.589,13.802 0.861,19.84c3.451,6.037 15.527,12.076 17.252,17.683c0.457,1.485 1.066,2.85 1.777,4.148l0,-136.814ZM133.611,80.81l0,1.994c-1.453,-0.681 -1.788,-1.202 0,-1.994M133.611,61.85l0,17.749c-2.05,-0.289 -5.589,-0.761 -6.09,-3.26c-0.863,-4.313 -13.369,0 -16.82,-4.313c-3.45,-4.313 -0.431,-13.37 6.9,-13.37c6.039,-0.432 9.057,3.018 14.233,3.018c0.598,0 1.189,0.065 1.777,0.176M133.611,50.686c-1.561,1.493 -1.956,3.857 -1.539,5.951c0.184,0.916 0.783,1.364 1.539,1.588l0,-7.539ZM133.611,41.932l0,3.769c-1.855,1.501 -4.894,2.861 -7.353,2.861c-5.49,0 -4.198,3.876 -8.398,3.876c-4.2,0 -6.784,-5.168 -0.323,-5.492c6.461,-0.323 6.783,-4.845 14.214,-5.168c0.75,0 1.364,0.055 1.86,0.154M133.611,45.701l0,-3.769c2.572,0.511 1.92,2.216 0,3.769M141.159,91.282l0,143.313l-0.267,-0.405c-2.537,-3.804 -5.306,-6.91 -7.281,-10.515l0,-136.814c3.076,-0.27 5.071,-0.33 5.986,2.416c0.345,1.035 0.874,1.64 1.562,2.005M141.159,64.793l0,21.354c-0.24,-0.093 -0.473,-0.199 -0.699,-0.321c-2.737,-1.473 -5.37,-2.33 -6.849,-3.022l0,-1.994c0.117,-0.052 0.243,-0.105 0.38,-0.159c1.814,-0.726 1.109,-0.84 -0.38,-1.052l0,-17.749c2.505,0.476 4.953,1.831 7.548,2.943M141.159,50.195l0,9.635c-1.753,0.75 -3.12,0.91 -2.949,-0.286c0.231,-1.62 -2.687,-0.753 -4.599,-1.319l0,-7.539c0.848,-0.811 2.039,-1.365 3.63,-1.479c1.289,-0.092 2.63,0.367 3.918,0.988M141.159,35.96l0,2.874c-0.456,-1.039 -0.506,-2.085 0,-2.874M141.159,38.834l0,-2.874c0.589,-0.914 1.925,-1.482 4.238,-1.289c4.791,0 8.212,8.214 2.053,8.214c-2.93,0 -5.394,-2.013 -6.291,-4.051M162.603,86.75c-0.456,-0.039 -0.935,-0.06 -1.441,-0.06c-6.901,0 -6.038,7.763 -11.213,6.037c-3.796,-1.265 -6.896,-0.442 -8.79,-1.445l0,143.313c3.318,5.015 5.849,9.493 8.79,8.653c3.018,-0.864 0,-5.607 -2.588,-9.489c-2.588,-3.882 9.056,6.901 12.507,9.489c1.213,0.909 2,2.886 2.735,5.085l0,-161.583ZM162.603,70.728l0,12.49c-6.597,-0.009 -15.912,5.073 -21.444,2.929l0,-21.354c2.082,0.891 4.257,1.626 6.633,1.626c6.039,0 12.507,-2.588 14.664,3.882c0.048,0.143 0.097,0.285 0.147,0.427M162.603,54.383c-0.156,-0.005 -0.319,-0.007 -0.489,-0.007c-5.49,0 -5.49,-7.106 -9.69,-7.106c-3.553,-0.324 -2.907,0.968 -4.2,4.521c-0.923,2.541 -3.83,-0.039 -7.065,-1.596l0,9.635c1.563,-0.668 3.435,-1.805 4.804,-2.87c2.908,-2.262 6.461,-0.645 13.244,-0.323c1.338,0.064 2.475,0.014 3.396,-0.106l0,-2.148ZM162.603,46.969l0,3.34c-3.124,-0.698 -4.338,-3.083 0,-3.34M162.603,31.934l0,6.885c-3.007,-3.21 -4.323,-8.109 -1.009,-6.903c0.341,0 0.677,0.006 1.009,0.018M162.603,50.309l0,-3.34c0.249,-0.015 0.517,-0.023 0.804,-0.023c4.522,0 5.491,3.554 0.969,3.554c-0.636,0 -1.233,-0.071 -1.773,-0.191M162.603,56.531l0,-2.148c3.901,0.119 3.603,1.677 0,2.148M170.919,89.217l0,168.74c-0.846,-0.243 -1.655,-0.413 -2.425,-0.477c-3.356,-0.279 -4.536,-5.092 -5.891,-9.147l0,-161.583c3.285,0.279 5.399,1.483 8.316,2.467M170.919,80.54c-3.092,-0.659 -6.353,-4.223 -8.316,-9.812l0,12.49c0.243,0 0.481,0.007 0.715,0.022c3.084,0.192 5.822,-0.304 7.601,-0.912l0,-1.788ZM170.919,68.576l0,4.627c-2.178,-2.149 -3.096,-4.614 -0.729,-4.614c0.249,0 0.491,-0.004 0.729,-0.013M170.919,33.205l0,8.279c-1.182,0.027 -2.403,0.021 -3.719,-0.079c-1.69,-0.131 -3.3,-1.201 -4.597,-2.586l0,-6.885c3.072,0.102 5.747,0.662 8.316,1.271M170.919,82.328l0,-1.788c0.344,0.073 0.687,0.111 1.025,0.111c1.909,0 1.177,0.924 -1.025,1.677M176.547,90.424l0,169.679c-2.021,-0.845 -3.901,-1.649 -5.628,-2.146l0,-168.74c1.55,0.522 3.327,0.982 5.628,1.207M176.547,82.627l0,3.265c-1.383,-1.18 -1.487,-2.559 0,-3.265M176.547,61.598l0,14.691c-2.032,-0.275 -4.129,-1.605 -5.628,-3.086l0,-4.627c3.796,-0.141 6.245,-1.374 4.117,-2.894c-1.89,-1.35 -1.072,-3.151 1.511,-4.084M176.547,48.551l0,7.191c-0.29,-0.03 -0.577,-0.054 -0.864,-0.074c-4.815,-0.321 -4.527,-7.657 0.864,-7.117M176.547,34.469l0,6.876c-1.929,-0.036 -3.728,0.094 -5.628,0.139l0,-8.279c1.895,0.45 3.732,0.925 5.628,1.264M176.547,25.056l0,2.654c-0.804,-1.003 -0.958,-2.062 0,-2.654M176.547,27.71l0,-2.654c0.474,-0.293 1.221,-0.472 2.298,-0.472c4.744,-0.431 7.763,5.606 3.019,5.606c-2.19,0 -4.286,-1.193 -5.317,-2.48M176.547,76.289l0,-14.691c0.508,-0.183 1.083,-0.333 1.719,-0.439c4.846,0 2.585,9.045 5.169,8.722c2.584,-0.323 -0.969,6.461 -6.138,6.461c-0.248,0 -0.498,-0.019 -0.75,-0.053M186.165,90.465l0,139.439c-3.288,4.931 -6.188,13.614 -3.006,16.794c0.918,0.919 1.934,2.032 3.006,3.138l0,13.39c-3.477,-0.59 -6.695,-1.9 -9.618,-3.123l0,-169.679c0.956,0.094 2.002,0.147 3.161,0.147c2.459,0 4.627,-0.026 6.457,-0.106M186.165,84.701l0,3.025c-0.579,0.155 -1.37,0.245 -2.407,0.245c-3.391,0 -5.887,-0.948 -7.211,-2.079l0,-3.265c0.616,-0.293 1.504,-0.47 2.688,-0.47c2.369,0 5.28,1.22 6.93,2.544M186.165,76.413l0,4.691c-1.18,-0.932 -1.518,-3.121 0,-4.691M186.165,53.627c-0.555,-0.139 -1.051,-0.22 -1.439,-0.22c-2.907,0 -3.553,-4.845 -8.074,-4.845c-0.036,-0.005 -0.07,-0.007 -0.105,-0.011l0,7.191c3.078,0.316 6.284,1.191 9.618,1.733l0,-3.848ZM186.165,42.987l0,6.221c-0.584,-0.197 -1,-0.6 -1.116,-1.293c-0.316,-1.899 0.221,-3.642 1.116,-4.928M186.165,36.951l0,5.194c-0.692,0.376 -1.688,0.474 -3.006,0.121c-2.51,-0.669 -4.629,-0.884 -6.612,-0.921l0,-6.876c1.566,0.279 3.173,0.466 4.885,0.466c2.137,0 3.735,0.869 4.733,2.016M192.157,61.482c-5.492,0.323 -5.169,3.877 -3.877,7.107c1.292,3.23 2.908,3.23 3.877,1.292c0.969,-1.938 6.137,-2.584 7.43,-5.814c1.291,-3.23 -3.554,-2.585 -7.43,-2.585M186.165,42.145l0,-5.194c1.567,1.803 1.65,4.295 0,5.194M186.165,49.208c2.681,0.898 8.909,-2.585 5.992,-2.585c-3.554,0 0.969,-5.814 -2.585,-5.814c-1.153,0 -2.474,0.841 -3.407,2.178l0,6.221ZM186.165,57.475c1.644,0.268 3.318,0.454 5.023,0.454c4.76,0 -1.404,-3.398 -5.023,-4.302l0,3.848ZM186.165,87.726c1.962,-0.526 1.506,-1.818 0,-3.025l0,3.025ZM202.083,248.9l0,20.341c-4.083,-2.067 -7.68,-5.426 -13.318,-5.723c-0.882,-0.046 -1.748,-0.148 -2.6,-0.292l0,-13.39c3.457,3.563 7.502,7.055 10.794,3.763c1.338,-1.339 3.197,-3.073 5.124,-4.699M202.083,87.588l0,21.577c-1.735,1.052 -0.891,3.496 -4.261,3.833c-4.313,0.431 -3.451,8.195 -5.607,9.488c-2.156,1.295 1.294,3.882 1.725,7.332c0.366,2.931 2.288,4.306 8.143,6.503l0,88.832c-4.306,1.68 -9.884,-1.299 -13.749,2.136c-0.702,0.624 -1.444,1.529 -2.169,2.615l0,-139.439c5.551,-0.241 7.995,-0.967 6.05,-2.913c-2.588,-2.587 -3.02,-5.607 -5.176,-6.038c-0.324,-0.065 -0.619,-0.208 -0.874,-0.41l0,-4.691c0.339,-0.349 0.771,-0.67 1.306,-0.937c3.449,-1.725 4.313,-4.744 6.469,-1.293c2.156,3.449 -1.293,8.194 3.45,7.762c4.717,-0.428 1.762,7.664 4.693,5.643M202.083,50.951l0,7.366c-2.124,0.623 -3.175,1.272 -5.124,-0.955c-3.019,-3.451 -6.039,-9.489 -0.431,-8.626c2.221,-1.11 3.191,0.817 5.555,2.215M202.083,41.147l0,3.759c-0.414,0.101 -0.92,0.142 -1.527,0.102c-4.846,-0.323 -4.846,-4.199 -0.324,-4.199c0.705,-0.064 1.333,0.075 1.851,0.338M202.083,25.078c-0.128,-0.028 -0.254,-0.049 -0.38,-0.063c-3.881,-0.431 -3.019,-6.901 -11.213,-6.038c-6.901,-0.431 2.587,8.625 1.725,13.801c-0.782,4.697 4.118,7.262 9.868,4.795l0,-12.495ZM202.083,14.246l0,5.615c-5.081,-2.192 -8.007,-5.394 0,-5.615M202.083,37.573c0.585,-0.252 1.179,-0.554 1.776,-0.914c6.261,-3.755 2.021,-10.742 -1.776,-11.581l0,12.495ZM202.083,44.906l0,-3.759c1.762,0.892 2.229,3.21 0,3.759M217.815,273.259l0,10.466c-1.931,-3.814 -2.634,-12.874 -9.642,-12.874c-2.288,0 -4.239,-0.672 -6.09,-1.61l0,-20.341c4.282,-3.614 8.904,-6.697 8.904,-3.722c0,4.313 -4.539,18.772 1.93,18.772c6.469,0 2.156,4.743 4.744,9.057c0.051,0.085 0.103,0.169 0.154,0.252M217.815,141.821l0,84.207c-5.102,-4.259 -11.89,-2.412 -15.681,-0.895l-0.051,0.02l0,-88.832c1.039,0.39 2.201,0.806 3.502,1.261c4.589,1.606 9.055,2.846 12.23,4.239M217.815,113.546l0,0.795c-0.118,-0.263 -0.129,-0.533 0,-0.795M217.815,101.672c-0.642,-0.203 -1.276,-0.319 -1.879,-0.319c-4.745,0.863 -7.763,3.451 -5.176,8.626c1.65,3.301 4.003,1.515 7.055,0.236l0,-8.543ZM217.815,83.616l0,14.588c-4.006,0.681 -7.486,2.286 -7.486,2.286c0,0 -1.294,8.196 -6.038,8.196c-1.038,0 -1.724,0.185 -2.208,0.479l0,-21.577l0.051,-0.036c3.02,-2.156 6.039,-0.431 6.47,3.019c0.431,3.45 3.451,2.587 3.451,-1.294c0,-3.556 1.809,-5.664 5.76,-5.661M217.815,61.331l0,19.249c-5.562,-0.66 -13.093,-5.819 -13.093,-9.848c0,-4.112 2.745,-8.617 13.093,-9.401M217.815,52.589c-3.766,-0.398 -7.589,-0.549 -10.074,-0.402c-2.613,0.153 -4.35,-0.46 -5.658,-1.236l0,7.366c1.166,-0.343 2.655,-0.677 4.795,-0.524c2.925,0.209 6.963,0.924 10.937,1.213l0,-6.417ZM217.815,26.813l0,23.202c-5.985,0.73 -12.89,1.815 -12.23,-2.142c0.862,-5.175 3.881,-9.057 9.056,-10.782c5.057,-1.685 -6.346,-9.131 3.174,-10.278M217.815,10.595l0,11.026c-7.164,0.224 -7.904,0.954 -13.524,-0.919c-0.762,-0.254 -1.506,-0.538 -2.208,-0.841l0,-5.615c0.291,-0.009 0.594,-0.013 0.915,-0.013c4.548,0 9.598,-1.75 14.817,-3.638M217.815,98.204l0,-14.588c0.363,0.001 0.742,0.018 1.14,0.054c4.744,0.431 7.332,14.233 2.156,14.233c-1.098,0 -2.216,0.117 -3.296,0.301M217.815,114.341l0,-0.795c0.261,-0.522 1.088,-1.012 2.768,-1.348c5.491,-1.292 4.846,2.907 2.262,3.876c-1.577,0.591 -4.472,-0.499 -5.03,-1.733M225.006,307.725l0,18.248c-0.526,-0.714 -0.974,-1.408 -1.307,-2.074c-2.509,-5.019 -2.99,-13.686 1.307,-16.174M225.006,279.191l0,6.753c-2.985,-0.005 -5.901,-0.103 -6.913,-1.723c-0.096,-0.153 -0.188,-0.32 -0.278,-0.496l0,-10.466c1.869,2.998 4.566,5.328 7.191,5.932M225.006,242.878l0,4.458c-3.973,-1.211 -6.085,-5.196 -1.325,-4.601c0.459,0 0.902,0.051 1.325,0.143M225.006,153.692l0,80.007c-1.183,-0.604 -2.886,-2.478 -5.189,-5.547c-0.627,-0.835 -1.298,-1.537 -2.002,-2.124l0,-84.207c2.795,1.225 4.59,2.57 4.59,4.386c0,1.922 1.269,5.427 2.601,7.485M225.006,107.135l0,2.61c-0.326,0.02 -0.756,-0.04 -1.307,-0.197c-2.188,-0.625 -4.149,-0.061 -5.884,0.667l0,-8.543c2.811,0.888 5.792,3.458 7.191,5.463M225.006,61.658l0,19.2c-2.279,-0.168 -4.377,-0.207 -6.051,-0.207c-0.368,0 -0.749,-0.024 -1.14,-0.071l0,-19.249c0.506,-0.038 1.029,-0.068 1.571,-0.087c1.473,-0.099 3.482,0.072 5.62,0.414M225.006,53.733l0,5.072c-2.17,0.396 -4.667,0.384 -7.191,0.201l0,-6.417c2.571,0.272 5.116,0.659 7.191,1.144M225.006,25.585l0,23.616c-0.685,0.253 -1.407,0.397 -2.169,0.397c-1.422,0 -3.179,0.192 -5.022,0.417l0,-23.202c0.226,-0.028 0.459,-0.053 0.709,-0.072c2.666,-0.214 4.856,-0.639 6.482,-1.156M225.006,8.087l0,13.672c-0.939,-0.124 -2.088,-0.195 -3.464,-0.195c-1.415,0 -2.644,0.023 -3.727,0.057l0,-11.026c2.373,-0.858 4.78,-1.745 7.191,-2.508M225.006,58.805l0,-5.072c3.855,0.902 6.092,2.146 3.869,3.629c-1.078,0.718 -2.399,1.173 -3.869,1.443M225.006,109.745l0,-2.61c0.984,1.409 1.185,2.538 0,2.61M225.006,247.336l0,-4.458c3.9,0.85 6.01,5.171 1.578,4.768c-0.549,-0.05 -1.078,-0.158 -1.578,-0.31M235.048,295.875l0,41.792c-1.916,-3.349 -7.164,-7.797 -10.042,-11.694l0,-18.248c0.135,-0.077 0.274,-0.149 0.418,-0.215c4.745,-2.156 2.588,-8.627 7.331,-9.92c1.245,-0.338 1.953,-0.945 2.293,-1.715M235.048,278.985l0,13.892c-0.473,-1.744 -1.514,-3.651 -2.293,-5.207c-0.914,-1.829 -4.377,-1.718 -7.749,-1.726l0,-6.753c1.032,0.24 2.052,0.212 3.006,-0.146c1.863,-0.699 4.48,-0.266 7.036,-0.06M235.048,248.103l0,3.33c-2.935,-1.008 -4.372,-3.34 -0.872,-3.34c0.295,-0.015 0.587,-0.01 0.872,0.01M235.048,235.958l0,5.397c-1.546,0.45 -2.848,1.235 -4.222,0.486c-2.455,-1.34 -1.785,-5.583 2.234,-6.252c0.679,0 1.347,0.136 1.988,0.369M235.048,113.39l0,97.699c-2.578,1.956 -6.15,3.742 -7.468,5.85c-2.156,3.45 -0.431,6.9 -0.431,12.938c0,3.354 -0.665,4.578 -2.143,3.822l0,-80.007c1.361,2.1 2.788,2.691 3.006,-1.446c0.431,-8.195 0.431,-13.37 3.882,-13.37c3.45,0 0.431,-4.313 -0.863,-10.351c-1.183,-5.517 -2.362,-13.19 4.017,-15.135M235.048,101.301l0,6.668c-5.572,-1.294 -6.391,-6.228 -0.567,-6.616c0.197,-0.013 0.386,-0.03 0.567,-0.052M235.048,87.991l0,5.602c-3.545,0.979 -5.478,-2.771 -1.544,-5.299c0.522,-0.173 1.043,-0.271 1.544,-0.303M235.048,64.418l0,2.94c-1.775,0.495 -1.488,1.239 0,2.093l0,13.154c-3.259,-1.012 -6.83,-1.509 -10.042,-1.747l0,-19.2c3.644,0.582 7.661,1.66 10.042,2.76M235.048,6.017l0,34.653c-2.782,0.948 -5.682,6.924 -10.042,8.531l0,-23.616c4.11,-1.31 4.6,-3.217 0,-3.826l0,-13.672c3.368,-1.067 6.744,-1.894 10.042,-2.07M235.048,67.358l0,-2.94c2.361,1.09 3.115,2.2 0.296,2.864c-0.105,0.025 -0.202,0.049 -0.296,0.076M235.048,93.593c0.531,-0.147 1.098,-0.399 1.686,-0.777c3.914,-2.516 1.538,-5.031 -1.686,-4.825l0,5.602ZM235.048,241.355l0,-5.397c4.423,1.61 7.579,7.833 4.265,5.883c-1.675,-0.984 -3.045,-0.84 -4.265,-0.486M235.048,251.433l0,-3.33c4.032,0.281 6.872,3.787 2.702,3.787c-0.967,0 -1.891,-0.177 -2.702,-0.457M250.658,378.17l0,82.272c-4.191,-4.656 -7.253,-15.186 -8.844,-18.37c-1.726,-3.449 0.43,-3.882 3.018,-8.195c2.588,-4.312 2.157,-7.763 -0.431,-15.525c-2.587,-7.764 -1.725,-13.802 2.157,-16.821c3.882,-3.019 1.725,-12.939 1.725,-18.545c0,-2.059 1.104,-3.536 2.375,-4.816M250.658,277.568l0,80.229c-2.92,-2.968 -6.587,-9.315 -11.001,-9.315c-4.745,0 -3.882,-4.743 -3.882,-8.625c0,-0.652 -0.269,-1.389 -0.727,-2.19l0,-41.792c0.373,-0.845 0.302,-1.888 0,-2.998l0,-13.892c2.18,0.177 4.315,0.189 5.903,-0.802c3.45,-2.157 6.9,-6.469 8.625,-2.157c0.256,0.639 0.625,1.144 1.082,1.542M250.658,253.505l0,5.916c-3.566,-0.592 -6.83,-5.361 0,-5.916M250.658,117.757l0,70.552c-1.238,2.16 -2.531,4.047 -5.395,4.047c-4.744,0 -7.332,10.782 -7.332,14.663c0,1.51 -1.24,2.825 -2.883,4.07l0,-97.699c0.605,-0.183 1.274,-0.318 2.021,-0.392c4,-0.5 9.594,1.898 13.589,4.759M250.658,74.544l0,36.875c-4.784,-1.557 -9.936,-2.95 -13.589,-3.165c-0.73,-0.043 -1.404,-0.142 -2.021,-0.285l0,-6.668c5.802,-0.691 4.295,-5.647 8.059,-8.574c3.882,-3.019 3.882,-3.019 -2.156,-7.331c-1.695,-1.211 -3.729,-2.115 -5.903,-2.791l0,-13.154c2.83,1.621 10.001,3.638 15.61,5.093M250.658,36.311c-0.716,0.828 -1.266,2.037 -1.944,3.799c-0.753,1.957 0.177,2.758 1.944,2.989l0,-6.788ZM250.658,7.913l0,19.218c-3.513,1.512 -7.285,2.417 -9.707,2.197c-4.745,-0.431 -1.726,11.213 -5.176,11.213c-0.242,0 -0.484,0.046 -0.727,0.129l0,-34.653c0.968,-0.052 1.931,-0.049 2.883,0.021c6.306,0 6.491,2.16 12.727,1.875M250.658,259.421l0,-5.916c0.422,-0.033 0.88,-0.052 1.381,-0.052c3.797,-0.224 3.35,6.029 -0.669,6.029c-0.237,0 -0.475,-0.022 -0.712,-0.061M261.471,278.641l0,171.364c-2.555,3.962 -5.426,9.318 -5.426,9.318c0,0 0.432,6.039 -4.312,2.157c-0.366,-0.299 -0.724,-0.648 -1.075,-1.038l0,-82.272c2.189,-2.206 4.869,-3.826 3.231,-6.829c-2.588,-4.745 0.431,-10.351 -2.588,-12.939c-0.21,-0.181 -0.424,-0.384 -0.643,-0.605l0,-80.229c2.392,2.088 7.197,1.245 10.813,1.073M261.471,257.238l0,2.636c-3.705,-0.802 -5.289,-2.957 0,-2.636M261.471,128.69l0,31.209c-2.971,1.155 -5.099,2.697 -2.838,2.697c0.84,0 1.827,0.246 2.838,0.686l0,16.267c-3.114,1.947 -6.03,2.628 -8.013,4.611c-1.197,1.197 -1.986,2.732 -2.8,4.149l0,-70.552c2.899,2.074 4.957,4.392 4.957,6.024c0,3.692 1.951,5.823 5.856,4.909M261.471,82.834l0,32.508c-2.325,-0.922 -6.413,-2.492 -10.813,-3.923l0,-36.875c2.129,0.552 4.033,1.024 5.387,1.364c3.363,0.84 4.472,3.831 5.426,6.926M261.471,46.081l0,4.528c-0.084,-0.048 -0.168,-0.097 -0.25,-0.148c-2.315,-1.424 -1.321,-2.996 0.25,-4.38M261.471,34.49l0,7.79c-3.582,0.225 -8.148,1.168 -10.813,0.819l0,-6.788c1.564,-1.808 3.922,-1.808 10.132,-1.808c0.234,0 0.46,-0.004 0.681,-0.013M261.471,7.788l0,10.484c-1.056,0.984 -1.981,2.069 -2.838,3.292c-1.476,2.111 -4.607,4.118 -7.975,5.567l0,-19.218c0.589,-0.027 1.231,-0.075 1.938,-0.15c2.338,-0.246 5.591,-0.21 8.875,0.025M265.872,278.487l0,154.283c-0.646,0.681 -1.464,1.107 -2.495,1.107c-3.88,0 3.451,10.783 1.295,12.077c-0.72,0.432 -1.921,2.067 -3.201,4.051l0,-171.364c0.36,-0.017 0.71,-0.028 1.044,-0.028c1.023,0 2.145,-0.072 3.357,-0.126M265.872,258.743l0,1.136c-0.378,0.208 -1.088,0.322 -2.22,0.273c-0.778,-0.034 -1.515,-0.135 -2.181,-0.278l0,-2.636l0.171,0.011c1.753,0 3.507,0.753 4.23,1.494M265.872,178.907c-0.194,0.012 -0.399,0.048 -0.617,0.116c-2.653,0.442 -1.63,3.54 0.617,4.01l0,-4.126ZM265.872,166.539l0,9.206c-1.461,1.716 -2.952,2.898 -4.401,3.804l0,-16.267c1.565,0.682 3.187,1.831 4.401,3.257M265.872,123.548l0,35.175c-1.406,0.17 -2.997,0.63 -4.401,1.176l0,-31.209c0.198,-0.048 0.403,-0.102 0.613,-0.165c3.514,-1.054 1.588,-4.113 3.788,-4.977M265.872,90.351l0,9.126c-3.881,-0.087 -5.613,2.116 -1.2,6.189c0.463,0.428 0.861,0.866 1.2,1.305l0,8c-1.002,0.864 -2.372,1.182 -3.788,0.615l-0.613,-0.244l0,-32.508c0.942,3.065 1.731,6.232 4.401,7.517M265.872,33.407l0,18.586c-1.607,-0.22 -3.093,-0.637 -4.401,-1.384l0,-4.528c2.232,-1.97 5.629,-3.561 2.338,-3.815c-0.699,-0.053 -1.492,-0.04 -2.338,0.014l0,-7.79c1.983,-0.077 3.418,-0.486 4.401,-1.083M265.872,19.738l0,7.619c-0.36,-0.26 -0.764,-0.472 -1.2,-0.616c-3.335,-1.113 -5.396,-5.726 1.2,-7.003M265.872,8.225l0,6.89c-1.715,0.955 -3.15,1.985 -4.401,3.157l0,-10.484c1.488,0.107 2.982,0.255 4.401,0.437M265.872,114.971l0,-8c2.414,3.137 1.798,6.449 0,8M265.872,175.745c0.175,-0.207 0.35,-0.42 0.525,-0.642c2.387,-3.039 1.497,-6.186 -0.525,-8.564l0,9.206ZM265.872,183.033c0.186,0.038 0.38,0.06 0.581,0.06c2.449,0 1.998,-4.349 -0.581,-4.186l0,4.126ZM265.872,259.879l0,-1.136c0.425,0.435 0.495,0.865 0,1.136M271.485,278.629l0,143.242c-0.276,-0.099 -0.536,-0.261 -0.775,-0.5c-3.02,-3.019 -2.588,0.431 -2.588,3.449c0,2.218 -0.465,6.063 -2.25,7.95l0,-154.283c1.697,-0.075 3.573,-0.111 5.613,0.142M271.485,175.355l0,5.567c-3.033,-0.635 -4.413,-4.814 -0.832,-5.411c0.292,-0.09 0.569,-0.139 0.832,-0.156M271.485,125.576l0,35.727c-0.657,-0.601 -1.448,-1.404 -2.501,-2.157c-0.687,-0.49 -1.822,-0.579 -3.112,-0.423l0,-35.175c0.5,-0.195 1.212,-0.279 2.25,-0.199c1.53,0.118 2.577,0.974 3.363,2.227M271.485,94.793l0,5.391c-0.513,0.147 -1.197,0.126 -2.07,-0.124c-1.286,-0.368 -2.493,-0.559 -3.543,-0.583l0,-9.126c0.167,0.081 0.342,0.155 0.525,0.22c2.188,0.781 3.98,2.47 5.088,4.222M271.485,19.35l0,32.84c-1.965,0.051 -3.861,0.044 -5.613,-0.197l0,-18.586c2.657,-1.615 2.013,-4.596 0,-6.05l0,-7.619c1.081,-0.209 2.395,-0.33 3.975,-0.33c0.582,0 1.124,-0.02 1.638,-0.058M271.485,9.251l0,3.329c-2.17,0.816 -4.014,1.642 -5.613,2.535l0,-6.89c2.136,0.274 4.1,0.624 5.613,1.026M271.485,12.58c0.446,-0.169 0.906,-0.335 1.381,-0.503c2.862,-1.011 1.649,-2.021 -1.381,-2.826l0,3.329ZM271.485,100.184l0,-5.391c1.506,2.385 1.746,4.886 0,5.391M271.485,161.303c1.225,1.122 1.983,1.534 3.106,-0.432c1.725,-3.019 5.176,-5.175 12.507,-5.175c7.332,0 -3.45,-7.332 -2.156,-10.351c1.294,-3.02 -5.175,-4.313 -8.626,-7.763c-2.509,-2.509 -2.737,-8.667 -4.831,-12.006l0,35.727ZM271.485,180.922l0,-5.567c3.48,-0.219 4.088,5.648 0.783,5.648c-0.271,0 -0.533,-0.029 -0.783,-0.081M290.184,288.326l0,113.324c-4.101,-1.961 -9.334,-4.209 -6.105,0.312c4.314,6.038 5.175,9.057 0.432,11.215c-4.368,1.984 -9.831,9.816 -13.026,8.694l0,-143.242c2.642,0.33 5.557,1.147 8.712,3.003c3.609,2.122 6.903,4.663 9.987,6.694M290.184,158.044l0,13.876c-5.936,-2.557 -9.084,-2.811 -6.611,-8.684c2.585,-6.137 -0.646,-5.814 3.554,-5.491c1.185,-0.056 2.19,0.055 3.057,0.299M290.184,13.1l0,45.576c-1.028,-2.516 -2.499,-5.162 -6.536,-6.059c-3.928,-0.872 -8.188,-0.53 -12.163,-0.427l0,-32.84c9.383,-0.681 7.933,-7.228 17.338,-6.411c0.476,0.041 0.929,0.095 1.361,0.161M384.17,215.121c1.448,-0.772 2.606,-0.097 2.317,1.351c-0.29,1.448 -1.545,3.186 -2.799,1.642c-1.255,-1.545 -1.158,-2.511 0.482,-2.993M290.184,171.92l0,-13.876c4.094,1.153 5.034,5.28 6.633,8.746c1.938,4.199 0.647,8.399 -5.814,5.491c-0.279,-0.125 -0.552,-0.246 -0.819,-0.361M290.184,401.65l0,-113.324c3.183,2.1 6.143,3.658 8.991,3.658c5.607,0 4.743,5.606 4.743,11.213c0,5.607 7.333,5.607 15.096,8.195c7.764,2.587 11.213,2.156 18.977,6.901c7.762,4.743 9.487,7.332 5.606,12.937c-3.88,5.608 -12.076,14.234 -12.506,22.428c-0.433,8.195 -5.608,15.957 -11.214,16.82c-5.607,0.863 -10.783,5.177 -10.783,9.057c0,3.882 -5.176,2.156 -5.607,9.489c-0.43,7.332 -6.9,15.526 -9.919,14.232c-0.759,-0.324 -2.007,-0.95 -3.384,-1.606M390.013,263.486l0,6.668c-1.59,-2.531 -2.077,-4.79 -0.361,-6.336c0.126,-0.114 0.246,-0.224 0.361,-0.332M390.013,246.964l0,9.715c-0.269,-0.324 -0.545,-0.669 -0.816,-1.047c-1.507,-2.109 -0.616,-5.616 0.816,-8.668M390.013,223.982l0,3.852c-0.389,0.095 -0.817,-0.05 -1.246,-0.577c-1.254,-1.544 -1.158,-2.51 0.483,-2.991c0.267,-0.143 0.524,-0.236 0.763,-0.284M390.013,98.744c-0.062,0.018 -0.124,0.036 -0.188,0.055c-3.598,-0.514 -5.139,0 -9.765,-2.056c-4.626,-2.055 -9.252,6.682 -2.057,12.336c4.125,3.24 8.419,3.103 12.01,1.622l0,-11.957ZM390.013,17.305l0,6.619c-3.823,0.531 -6.241,1.388 -4.149,3.247c3.882,3.451 -6.469,6.47 -0.862,9.488c5.606,3.02 3.881,9.921 -1.725,9.921c-5.607,0 0.43,3.881 -3.882,8.194c-4.314,4.313 -3.02,7.332 -9.057,7.332c-6.038,0 7.331,9.488 0.431,9.488c-6.901,0 -9.057,8.627 -2.156,7.764c6.9,-0.863 6.469,2.156 -0.863,5.607c-7.333,3.45 -18.977,3.45 -22.427,9.056c-3.45,5.607 -16.389,5.176 -16.389,10.352c0,5.174 -2.156,24.152 -12.077,20.701c-9.919,-3.449 -12.075,-13.37 -15.957,-19.408c-3.882,-6.038 2.157,-12.508 -1.725,-14.664c-3.882,-2.156 8.625,-12.075 4.312,-9.057c-4.312,3.02 -11.213,-1.294 -5.175,-2.587c6.038,-1.294 3.881,-7.332 -0.431,-6.039c-4.313,1.294 -9.058,-0.862 -3.45,-5.175c5.606,-4.313 3.018,-3.019 -0.863,-4.313c-1.863,-0.621 -2.435,-2.832 -3.384,-5.155l0,-45.576c8.611,1.304 9.238,7.109 14.166,5.877c5.176,-1.293 -6.038,-12.507 6.901,-4.744c12.938,7.763 3.45,-0.863 9.057,-0.863c5.606,0 -3.882,-8.194 6.038,-7.763c9.92,0.431 9.92,-5.607 22.427,-5.607c15.095,0 42.266,12.508 28.465,10.783c-13.801,-1.726 -32.346,-2.157 -23.721,3.019c8.626,5.175 10.351,-4.745 13.37,0c3.019,4.744 8.194,0 11.645,3.018c3.179,2.781 7.455,2.269 11.481,0.485M390.013,227.834l0,-3.852c1.062,-0.214 1.79,0.453 1.553,1.634c-0.19,0.954 -0.8,2.033 -1.553,2.218M392.81,242.192l0,31.596c-1.095,-1.241 -2.063,-2.467 -2.797,-3.634l0,-6.668c3.542,-3.348 1.94,-4.485 0,-6.807l0,-9.715c0.73,-1.555 1.601,-2.992 2.368,-4.065c0.146,-0.206 0.289,-0.443 0.429,-0.707M392.81,212.871l0,3.813c-0.319,-0.01 -0.657,-0.187 -0.995,-0.603c-1.254,-1.545 -1.158,-2.51 0.483,-2.992c0.175,-0.093 0.347,-0.166 0.512,-0.218M392.81,98.332l0,10.876c-0.867,0.573 -1.805,1.083 -2.797,1.493l0,-11.957c1.01,-0.293 1.947,-0.421 2.797,-0.412M392.81,16.43l0,7.174c-0.981,0.095 -1.925,0.2 -2.797,0.32l0,-6.619c0.344,-0.152 0.686,-0.314 1.026,-0.485c0.493,-0.246 1.097,-0.366 1.771,-0.39M392.81,23.604l0,-7.174c5.231,-0.177 14.645,5.664 8.149,6.429c-2.479,0.291 -5.451,0.485 -8.149,0.745M392.81,109.208l0,-10.876c4.673,0.049 6.713,4.216 3.697,7.663c-0.966,1.104 -2.228,2.244 -3.697,3.213M392.81,216.684c0.866,0.027 1.593,-1.186 1.804,-2.245c0.255,-1.272 -0.609,-1.947 -1.804,-1.568l0,3.813ZM413.311,211.093l0,82.549c-3.606,-2.607 -7.75,-7.092 -11.38,-10.722c-2.649,-2.65 -6.304,-5.94 -9.121,-9.132l0,-31.596c2.034,-3.839 3.502,-13.422 7.756,-13.847c4.549,-0.455 7.732,-5.456 7.732,-9.55c0,-3.216 1.965,-6.151 5.013,-7.702M413.311,181.961l0,21.087c-2.278,0.057 -4.103,-0.168 -4.103,-2.445c0,-4.548 -3.183,-6.367 -0.91,-10.46c2.274,-4.093 0,-8.186 4.547,-8.186c0.16,0 0.315,0.001 0.466,0.004M413.311,140.872l0,15.052c-2.252,0.687 -4.654,-1.032 -3.954,-4.184c0.994,-4.475 -2.338,-11.353 3.954,-10.868M413.311,72.582l0,5.36c-2.546,-1.6 -3.466,-5.043 0,-5.36M413.311,77.942l0,-5.36c0.35,-0.032 0.743,-0.033 1.186,0.004c3.598,0 6.167,6.167 1.542,6.167c-1.01,0 -1.945,-0.318 -2.728,-0.811M413.311,155.924c1.053,-0.322 2.073,-1.169 2.728,-2.642c2.056,-4.625 2.056,-12.85 -2.056,-12.337c-0.235,-0.033 -0.459,-0.057 -0.672,-0.073l0,15.052ZM425.643,206.381l0,87.22c-2.322,0.719 -4.43,1.386 -6.429,2.053c-1.581,0.526 -3.636,-0.371 -5.903,-2.012l0,-82.549c0.832,-0.424 1.744,-0.745 2.719,-0.939c3.663,-0.733 4.966,-2.941 9.613,-3.773M425.643,182.496l0,21.839c-1.709,0.586 -3.615,0.642 -5.52,-0.549c-1.817,-1.134 -4.54,-0.796 -6.812,-0.738l0,-21.087c4.151,0.059 5.168,0.906 9.995,0.906c0.814,0 1.603,-0.134 2.337,-0.371M425.643,130.078l0,28.078c-3.987,1.707 -6.814,4.005 -7.548,-0.762c-1.029,-6.682 -1.542,-6.169 4.626,-8.738c6.168,-2.57 -2.57,-19.018 2.056,-18.503c0.3,-0.044 0.589,-0.067 0.866,-0.075M425.643,158.156c1.601,-0.686 3.388,-1.277 5.301,-1.277c6.683,0 -0.513,-11.308 0.515,-14.905c0.985,-3.447 0.553,-12.084 -5.816,-11.896l0,28.078ZM436.033,205.097l0,85.611c-0.799,0.054 -1.56,0.179 -2.267,0.397c-3.023,0.93 -5.691,1.742 -8.123,2.496l0,-87.22c1.122,-0.2 2.438,-0.321 4.03,-0.321c2.579,0 4.571,-0.405 6.36,-0.963M436.033,158.062l0,35.872c-1.93,0.308 -3.505,1.182 -3.177,3.486c0.455,3.183 -0.91,2.728 -3.183,4.548c-1.083,0.866 -2.475,1.835 -4.03,2.367l0,-21.839c3.78,-1.222 6.093,-5.224 2.666,-8.271c-4.093,-3.637 -2.729,-8.64 -0.455,-12.733c2.142,-3.854 3.476,-2.467 8.179,-3.43M436.033,134.491l0,3.813c-0.319,-0.011 -0.656,-0.188 -0.994,-0.604c-1.256,-1.543 -1.159,-2.509 0.482,-2.992c0.175,-0.093 0.346,-0.165 0.512,-0.217M436.033,138.304l0,-3.813c1.195,-0.38 2.059,0.296 1.805,1.569c-0.212,1.058 -0.939,2.271 -1.805,2.244M439.02,204.027l0,86.762c-1.038,-0.108 -2.04,-0.145 -2.987,-0.081l0,-85.611c1.038,-0.322 2.009,-0.696 2.987,-1.07M439.02,157.211l0,36.458c-0.22,0.074 -0.456,0.113 -0.705,0.113c-0.756,0 -1.545,0.034 -2.282,0.152l0,-35.872c0.292,-0.06 0.597,-0.128 0.917,-0.209c0.691,-0.172 1.383,-0.389 2.07,-0.642M439.02,149.725l0,3.813c-0.319,-0.01 -0.657,-0.188 -0.994,-0.602c-1.256,-1.545 -1.159,-2.511 0.481,-2.994c0.177,-0.093 0.348,-0.165 0.513,-0.217M439.02,153.538l0,-3.813c1.196,-0.379 2.059,0.297 1.804,1.569c-0.211,1.058 -0.939,2.271 -1.804,2.244M480.636,219.491l0,179.815c-0.349,-0.381 -0.664,-0.819 -0.936,-1.326c-3.183,-5.912 2.273,-9.55 -3.183,-15.918c-5.458,-6.367 -2.274,-11.824 -6.368,-17.737c-4.093,-5.912 -8.186,-16.371 -4.093,-21.828c4.093,-5.459 5.913,-9.552 2.274,-10.915c-3.638,-1.365 1.819,-7.732 -3.183,-10.916c-5.004,-3.183 -8.187,-11.824 -6.367,-15.917c1.818,-4.093 2.273,-10.915 -3.639,-10.915c-4.366,0 -10.717,-2.48 -16.121,-3.045l0,-86.762c2.682,-1.027 5.415,-2.059 9.754,-2.059c8.641,0 15.009,-3.185 14.099,3.638c-0.91,6.821 7.731,8.185 12.279,10.915c1.686,1.011 3.622,2.148 5.484,2.97M480.636,141.808c-1.278,-0.423 -2.638,-0.782 -4.119,-0.782c-5.003,0 -6.368,2.274 -12.28,2.274c-5.913,0 -3.639,-4.092 -7.277,-4.092c-3.639,0 -2.729,6.822 -5.912,10.005c-2.78,2.779 -7.294,6.253 -12.028,7.998l0,36.458c2.17,-0.728 2.807,-4.895 1.568,-9.438c-1.365,-5.003 7.277,-3.184 14.553,-3.184c7.276,0 8.186,5.003 13.189,6.822c5.004,1.82 5.457,6.367 5.457,12.734c0,6.368 5.003,-2.274 5.913,-5.003c0.288,-0.865 0.668,-2.096 0.936,-3.374l0,-4.598c-0.32,-0.689 -0.897,-1.123 -1.846,-1.123c-3.638,0 -4.547,-1.364 -7.731,-4.548c-3.183,-3.184 -0.455,-5.003 2.728,-2.274c3.183,2.728 4.549,4.093 6.822,6.822l0.027,0.032l0,-44.729ZM480.636,82.811l0,48.21c-1.885,2.492 -3.228,4.548 -5.484,4.548c-3.183,0 -5.913,6.821 -7.276,2.274c-1.364,-4.548 -4.093,-9.551 -7.278,-7.278c-3.183,2.275 -2.728,10.006 -6.821,3.639c-4.093,-6.366 -7.731,-15.462 -3.183,-20.465c4.547,-5.002 10.914,-9.096 14.553,-14.098c3.064,-4.213 9.676,-13.264 15.489,-16.83M480.636,26.791l0,18.065c-0.566,0.044 -1.327,-0.246 -2.404,-1.053c-6.168,-4.627 -7.197,-8.224 -0.514,-8.739c6.683,-0.514 -6.169,-5.653 -9.252,-2.056c-3.084,3.598 -9.766,-8.737 -0.514,-8.737c8.048,0 7.541,0.389 12.684,2.52M480.636,44.856l0,-18.065c0.771,0.319 1.665,0.676 2.736,1.078c10.793,0 7.71,2.571 12.849,6.168c5.141,3.597 -1.542,12.336 -8.737,7.195c-5.94,-4.242 -4.176,3.422 -6.848,3.624M480.636,192.226c0.357,-1.7 0.517,-3.483 0,-4.598l0,4.598ZM547.599,356.648c-1.257,3.402 -1.704,7.89 0,9.861l0,-9.861ZM547.599,337.608c-0.163,0.051 -0.335,0.125 -0.51,0.218c-1.641,0.483 -1.738,1.448 -0.483,2.991c0.337,0.417 0.676,0.594 0.993,0.604l0,-3.813ZM547.599,98.272l0,168.401c-4.369,-9.08 -12.603,-18.826 -15.598,-26.959c-3.185,-8.64 -6.368,-14.098 -9.551,-13.644c-3.183,0.456 4.092,16.829 7.275,22.741c3.185,5.912 6.822,15.463 12.28,20.919c1.832,1.832 3.714,3.303 5.594,4.383l0,32.067c-0.361,0.311 -0.711,0.592 -1.045,0.844c-5.459,4.093 -6.822,13.643 -10.007,15.007c-3.183,1.364 0.91,3.637 2.73,7.276c1.818,3.638 2.274,15.463 0,20.011c-2.274,4.547 -6.367,10.005 -10.005,10.459c-3.639,0.456 -4.093,6.823 -1.364,8.643c2.727,1.818 -0.91,5.91 -6.368,6.366c-5.458,0.454 0.454,16.827 -4.548,17.282c-5.003,0.454 -10.915,6.822 -18.191,7.73c-6.653,0.832 -14.445,3.563 -18.165,-0.492l0,-179.815c3.159,1.393 6.105,1.879 7.249,-0.696c1.82,-4.094 7.732,-2.73 12.734,-1.82c5.003,0.909 13.644,2.729 18.192,2.274c4.548,-0.454 9.097,-4.548 9.551,-8.641c0.454,-4.093 -5.912,-5.002 -13.643,-5.002c-7.732,0 -10.915,-1.364 -9.552,-5.912c1.366,-4.548 3.639,-8.641 7.732,-10.461c4.093,-1.819 7.731,-2.728 11.824,-2.728c4.093,0 9.551,3.184 14.554,2.728c5.002,-0.454 3.183,-5.002 -1.82,-7.731c-5.002,-2.729 -5.912,-6.822 -3.637,-9.096c2.274,-2.274 0.909,-4.548 -3.185,-2.274c-4.093,2.274 -10.005,8.187 -11.368,4.548c-1.365,-3.638 -11.37,-0.455 -11.37,5.003c0,5.458 1.365,6.367 -0.455,10.006c-1.82,3.637 -5.913,6.366 -9.55,5.911c-3.639,-0.454 0.453,6.368 -3.185,8.186c-3.637,1.82 -5.456,-2.728 -7.732,-7.276c-2.264,-4.53 -4.077,-7.256 -6.339,-9.973l0,-44.729c3.036,1.004 5.598,2.368 8.159,0.128c3.639,-3.184 -2.729,-8.641 2.729,-8.641c5.458,0 10.005,0.455 5.912,-3.638c-4.092,-4.093 1.364,-1.819 5.912,-4.093c4.549,-2.274 4.093,-5.913 -1.364,-5.003c-5.457,0.91 -10.005,4.094 -12.279,-1.364c-2.274,-5.458 4.548,-11.825 8.187,-15.918c3.637,-4.093 -5.913,-5.912 -7.278,-0.909c-1.363,5.002 -6.822,7.276 -8.641,12.279c-1.819,5.002 5.002,9.55 1.366,13.189c-1.061,1.06 -1.929,2.158 -2.703,3.183l0,-48.21c1.089,-0.669 2.151,-1.146 3.156,-1.362c6.368,-1.364 15.463,-9.55 22.741,-6.366c7.276,3.183 10.003,2.274 15.461,6.366c5.458,4.094 5.004,6.367 10.916,7.277c5.912,0.91 7.276,8.641 0,8.641c-7.277,0 -11.825,-4.093 -14.553,-1.819c-2.729,2.273 2.729,4.548 5.457,7.731c2.728,3.184 7.731,5.457 10.006,4.093c2.274,-1.365 -4.548,-5.912 0.454,-4.548c5.003,1.365 10.005,1.82 6.821,-0.909c-3.183,-2.729 1.365,-3.639 6.367,-3.639c0.048,0 0.092,-0.003 0.137,-0.004M547.599,341.421l0,-3.813c1.197,-0.379 2.06,0.296 1.807,1.569c-0.213,1.058 -0.939,2.27 -1.807,2.244M556.651,344.499l0,32.357c-1.118,1.335 -2.332,2.349 -3.73,2.612c-4.695,0.88 -2.64,-9.979 -5.282,-12.913l-0.04,-0.046l0,-9.861c0.645,-1.739 1.499,-3.195 2.388,-3.886c1.47,-1.141 4.027,-5.007 6.664,-8.263M556.651,276.104c-2.863,0.499 -5.956,-0.216 -9.052,-1.991l0,32.067c2.625,-2.239 5.932,-5.941 9.052,-10.081l0,-19.995ZM556.651,94.752l0,83.11c-2.713,3.133 -3.026,6.341 0,9.86l0,84.062c-2.82,1.95 -5.726,2.538 -8.279,-3.417c-0.241,-0.561 -0.498,-1.127 -0.773,-1.694l0,-168.401c4.735,-0.205 -1.908,-10.91 3.048,-10.91c5.002,0 0.909,11.824 4.546,8.64c0.47,-0.411 0.956,-0.829 1.458,-1.25M556.651,296.099c3.489,-4.63 6.746,-9.807 8.547,-14.089c3.639,-8.641 -1.818,-8.187 -6.82,-6.368c-0.565,0.205 -1.141,0.36 -1.727,0.462l0,19.995ZM556.651,376.856l0,-32.357c2.106,-2.6 4.261,-4.812 5.954,-4.942c5.284,-0.294 5.284,6.162 1.761,9.098c-3.521,2.934 3.522,17.607 -0.293,19.075c-2.68,1.029 -4.781,5.972 -7.422,9.126M570.783,273.632l0,3.813c-0.318,-0.009 -0.656,-0.187 -0.994,-0.603c-1.254,-1.544 -1.157,-2.509 0.484,-2.991c0.175,-0.094 0.347,-0.165 0.51,-0.219M570.783,201.266l0,30.489c-0.531,-0.634 -1.029,-1.447 -1.491,-2.5c-3.184,-7.277 -9.096,-5.912 -6.367,-1.365c2.004,3.34 4.743,8.641 7.858,10.503l0,25.78c-3.559,1.271 -7.296,2.454 -9.222,3.738c-1.539,1.027 -3.21,2.698 -4.91,3.873l0,-84.062c0.495,0.575 1.079,1.159 1.757,1.752c6.144,5.376 -3.072,9.217 9.985,11.521c0.791,0.139 1.591,0.227 2.39,0.271M570.783,87.647l0,87.446c-1.452,-0.747 -4.542,-0.932 -10.839,-0.212c-1.321,0.992 -2.427,1.982 -3.293,2.981l0,-83.11c3.386,-2.835 7.551,-5.748 13.096,-6.936c0.398,-0.085 0.742,-0.139 1.036,-0.169M570.783,277.445l0,-3.813c1.196,-0.378 2.061,0.298 1.806,1.569c-0.212,1.059 -0.939,2.272 -1.806,2.244M576.066,287.426l0,3.813c-0.319,-0.011 -0.657,-0.188 -0.993,-0.604c-1.256,-1.544 -1.159,-2.509 0.482,-2.991c0.175,-0.094 0.347,-0.166 0.511,-0.218M576.066,238.262l0,23.751c-1.503,0.765 -3.368,1.476 -5.283,2.16l0,-25.78c1.127,0.672 2.304,0.896 3.512,0.413c0.579,-0.232 1.171,-0.412 1.771,-0.544M576.066,200.908l0,33.232c-1.944,-0.221 -3.749,-0.552 -5.283,-2.385l0,-30.489c1.791,0.094 3.581,-0.042 5.283,-0.358M576.066,89.888l0,96.333c-8.678,-3.557 -1.541,-9.207 -5.283,-11.128l0,-87.446c4.416,-0.432 -2.03,5.03 3.512,2.898c0.583,-0.224 1.175,-0.444 1.771,-0.657M576.066,59.974l0,17.825c-0.22,-0.173 -0.448,-0.368 -0.69,-0.587c-5.421,-4.928 -5.644,-15.053 0.69,-17.238M576.066,291.239l0,-3.813c1.195,-0.38 2.06,0.297 1.805,1.569c-0.212,1.059 -0.939,2.27 -1.805,2.244M579.002,317.358l0,3.813c-0.32,-0.009 -0.658,-0.187 -0.995,-0.602c-1.255,-1.544 -1.159,-2.509 0.482,-2.993c0.175,-0.093 0.347,-0.165 0.513,-0.218M579.002,237.998l0,21.824c-0.55,0.788 -1.6,1.512 -2.936,2.191l0,-23.751c0.969,-0.21 1.959,-0.295 2.936,-0.264M579.002,200.163l0,34.386c-1.002,-0.218 -1.985,-0.3 -2.936,-0.409l0,-33.232c1.015,-0.188 1.999,-0.44 2.936,-0.745M579.002,88.896l0,98.281l-0.026,-0.007c-1.128,-0.294 -2.088,-0.612 -2.91,-0.949l0,-96.333c0.969,-0.348 1.953,-0.681 2.936,-0.992M579.002,58.865l0,19.914c-0.692,0.303 -1.625,0.057 -2.936,-0.98l0,-17.825c0.273,-0.094 0.555,-0.174 0.851,-0.238c0.816,-0.175 1.498,-0.476 2.085,-0.871M579.002,78.779l0,-19.914c4.583,-3.09 3.191,-11.979 12.307,-11.979c10.281,0 4.112,-5.654 15.933,-2.57c6.683,-0.513 1.029,7.711 -4.626,7.711c-5.652,0 -19.017,11.307 -20.559,16.96c-1.083,3.972 -1.151,8.958 -3.055,9.792M579.002,259.822l0,-21.824c3.169,0.098 6.206,1.411 8.027,3.535c2.729,3.184 -6.368,14.099 -7.732,17.738c-0.07,0.188 -0.171,0.371 -0.295,0.551M579.002,321.171l0,-3.813c1.195,-0.378 2.058,0.298 1.804,1.571c-0.212,1.057 -0.939,2.27 -1.804,2.242M625.954,296.111l0,0.896c-0.117,-0.343 -0.118,-0.641 0,-0.896M625.954,285.958l0,3.813c-0.318,-0.011 -0.656,-0.188 -0.993,-0.602c-1.255,-1.545 -1.159,-2.51 0.482,-2.993c0.176,-0.094 0.347,-0.166 0.511,-0.218M625.954,273.338l0,3.063c-0.549,0.775 -1.358,1.144 -2.168,0.148c-1.253,-1.544 -1.157,-2.509 0.484,-2.991c0.657,-0.352 1.255,-0.403 1.684,-0.22M625.954,96.183c-0.549,0.417 -1.232,0.818 -2.087,1.184c-6.368,2.729 -8.642,-0.455 -5.459,-4.548c3.184,-4.093 5.003,-6.822 3.639,-14.098c-1.365,-7.277 0,-14.099 -4.548,-13.189c-4.547,0.909 -7.731,12.28 -7.731,16.373c0,4.092 3.184,5.457 -2.274,5.457c-5.458,0 -7.275,-5.457 -11.37,-5.457c-4.092,0 -0.909,4.547 -5.002,4.547c-3.034,0 -7.569,1 -12.12,2.444l0,98.281c12.735,3.333 8.341,10.264 0,12.986l0,34.386c1.144,0.251 2.311,0.678 3.478,1.528c5.004,3.637 3.639,0 11.826,0c8.186,0 7.73,-0.91 14.098,4.547c6.366,5.458 10.004,7.277 14.098,7.277c4.093,0 -1.818,13.644 2.275,18.646c0.387,0.476 0.782,1.005 1.177,1.575l0,-171.939ZM625.954,71.278l0,4.491c-0.379,-1.58 -0.593,-3.143 0,-4.491M625.954,276.401l0,-3.063c0.517,0.22 0.79,0.781 0.632,1.57c-0.103,0.515 -0.329,1.065 -0.632,1.493M627.568,295.107l0,3.744c-0.274,-0.052 -0.561,-0.234 -0.847,-0.586c-0.383,-0.473 -0.641,-0.89 -0.767,-1.258l0,-0.896c0.17,-0.365 0.581,-0.64 1.25,-0.838c0.124,-0.066 0.246,-0.12 0.364,-0.166M627.568,290.307l0,1.465c-0.31,-0.607 -0.316,-1.091 0,-1.465M627.568,286.302l0,1.881c-0.322,0.847 -0.924,1.61 -1.614,1.588l0,-3.813c0.71,-0.224 1.304,-0.078 1.614,0.344M627.568,94.391l0,176.215c-0.538,-0.877 -1.079,-1.717 -1.614,-2.484l0,-171.939c0.761,-0.577 1.266,-1.188 1.614,-1.792M627.568,69.418l0,15.214c-1.144,-0.338 -1.64,-0.937 -0.973,-2.273c0.888,-1.776 -0.065,-4.201 -0.641,-6.59l0,-4.491c0.302,-0.684 0.813,-1.313 1.614,-1.86M627.568,288.183l0,-1.881c0.215,0.29 0.295,0.707 0.192,1.225c-0.043,0.217 -0.108,0.439 -0.192,0.656M629.183,300.873l0,3.359c-0.135,-0.094 -0.272,-0.223 -0.407,-0.39c-1.236,-1.521 -1.161,-2.48 0.407,-2.969M629.183,295.239l0,2.379c-0.369,0.759 -0.96,1.361 -1.615,1.233l0,-3.744c0.674,-0.256 1.256,-0.187 1.615,0.132M629.183,289.479l0,3.813c-0.318,-0.009 -0.656,-0.187 -0.994,-0.602c-0.271,-0.332 -0.477,-0.638 -0.621,-0.918l0,-1.465c0.217,-0.253 0.582,-0.456 1.103,-0.61c0.176,-0.093 0.348,-0.165 0.512,-0.218M629.183,90.373l0,182.932c-0.536,-0.915 -1.076,-1.824 -1.615,-2.699l0,-176.215c0.998,-1.719 0.745,-3.375 1.615,-4.018M629.183,68.676l0,16.26c-0.617,-0.08 -1.165,-0.172 -1.615,-0.304l0,-15.214c0.125,-0.084 0.254,-0.167 0.392,-0.248c0.533,-0.311 0.93,-0.463 1.223,-0.494M629.183,293.292l0,-3.813c1.195,-0.378 2.059,0.298 1.804,1.569c-0.21,1.059 -0.939,2.272 -1.804,2.244M629.183,297.618l0,-2.379c0.319,0.283 0.463,0.763 0.338,1.386c-0.066,0.329 -0.183,0.675 -0.338,0.993M629.183,304.232l0,-3.359l0.076,-0.024c1.447,-0.772 2.606,-0.097 2.316,1.351c-0.258,1.292 -1.284,2.812 -2.392,2.032M644.887,281.18c-0.229,-0.031 -0.461,-0.03 -0.698,0.014c-4.002,-0.567 -2.666,7.389 0.698,7.733l0,-7.747ZM644.887,71.956l0,191.605c-1.111,1.961 -0.309,7.773 -1.465,11.628c-1.365,4.546 -3.639,8.185 -6.822,7.731c-2.064,-0.296 -4.701,-4.988 -7.417,-9.615l0,-182.932c0.244,-0.182 0.577,-0.282 1.05,-0.282c3.183,0 6.367,5.457 10.916,5.457c4.547,0 0.454,-6.822 -4.549,-9.096c-2.444,-1.111 -5.324,-1.245 -7.417,-1.516l0,-16.26c2.714,-0.277 -3.519,10.1 4.689,6.407c9.095,-4.093 1.819,-3.639 6.367,-4.548c2.158,-0.432 3.612,0.275 4.648,1.421M644.887,288.927l0,-7.747c2.88,0.387 4.869,6.255 1.062,7.608c-0.372,0.133 -0.727,0.173 -1.062,0.139M679.071,284.492l0,3.813c-0.318,-0.011 -0.657,-0.188 -0.993,-0.604c-1.256,-1.544 -1.159,-2.51 0.482,-2.993c0.175,-0.092 0.347,-0.165 0.511,-0.216M679.071,49.991l0,205.855c-0.356,-0.619 -0.847,-1.162 -1.539,-1.577c-4.549,-2.731 -9.552,-5.914 -15.919,-2.275c-6.366,3.638 -13.643,10.46 -15.917,10.914c-0.348,0.071 -0.609,0.299 -0.809,0.653l0,-191.605c1.146,1.27 1.778,3.079 2.279,4.483c0.954,2.673 6.777,7.827 8.971,11.358c2.196,3.531 3.819,4.581 3.819,1.336c0,-3.245 -2.863,-7.444 -4.772,-8.78c-1.909,-1.337 0.571,-8.876 -3.722,-10.69c-4.296,-1.813 -7.159,-7.159 -1.719,-7.826c5.441,-0.668 6.54,-1.21 9.157,-3.827c2.618,-2.616 11.07,-5.837 18.317,-7.648c0.669,-0.168 1.285,-0.288 1.854,-0.371M679.071,22.681l0,7.096c-2.767,-1.655 -2.883,-6.864 0,-7.096M679.071,29.777l0,-7.096c0.164,-0.014 0.337,-0.011 0.519,0.009c3.124,-2.232 15.177,-1.786 10.935,-0.893c-4.24,0.893 -4.909,8.481 -9.597,8.481c-0.711,0 -1.332,-0.187 -1.857,-0.501M679.071,288.305c0.867,0.026 1.593,-1.187 1.806,-2.244c0.253,-1.274 -0.609,-1.949 -1.806,-1.569l0,3.813ZM698.973,303.363l0,16.262c-1.236,-0.984 -2.367,-2.052 -3.257,-3.097c-4.459,-5.247 -12.328,-16.002 -5.508,-16.526c2.702,-0.263 5.811,1.128 8.765,3.361M698.973,48.358l0,228.238c-3.165,-2.862 -6.435,-4.679 -6.435,-1.863c0,3.639 0,10.46 3.183,11.824c0.902,0.386 2.059,1.247 3.252,2.426l0,10.365c-0.477,-0.393 -0.959,-0.729 -1.432,-0.966c-3.638,-1.818 -2.273,-9.55 -5.912,-11.825c-3.639,-2.274 -5.457,-4.547 -2.274,-10.915c3.183,-6.366 -0.455,-10.458 -5.912,-10.458c-4.626,0 -2.39,-5.883 -4.372,-9.338l0,-205.855c5.594,-0.815 6.677,2.034 9.416,0.573c3.019,-1.611 8.654,2.213 10.264,-1.611c0.082,-0.194 0.156,-0.392 0.222,-0.595M698.973,299.348c3.203,2.626 6.3,7.756 6.3,2.217c0,-4.565 -3.273,-9.597 -6.3,-12.582l0,10.365ZM698.973,319.625l0,-16.262c5.939,4.485 11.259,12.371 11.434,17.099c0.211,5.669 -6.47,3.102 -11.434,-0.837M721.335,323.956l0,3.578c-6.358,-0.226 -8.604,-3.916 -1.485,-3.661c0.518,0 1.014,0.03 1.485,0.083M721.335,303.108l0,7.519c-1.173,-2.147 -2.769,-4.784 0,-7.519M721.335,251.144c-0.074,-0.012 -0.148,-0.017 -0.225,-0.017c-2.625,0.375 -2.043,3.958 0.225,4.991l0,-4.974ZM721.335,47.3l0,8.301c-5.808,1.419 -11.562,5.008 -14.243,9.476c-2.729,4.549 2.729,5.913 6.368,2.274c2.466,-2.468 4.1,-4.935 7.875,-5.699l0,185.976c-5.931,0.81 -12.406,4.284 -9.24,9.824c3.638,6.366 6.367,10.915 6.821,13.644c0.456,2.727 -4.548,5.002 -7.276,10.004c-2.729,5.003 -6.367,2.274 -10.005,-1.819c-0.823,-0.924 -1.737,-1.848 -2.662,-2.685l0,-228.238c1.265,-3.806 0.276,-9.096 5.845,-9.659c8.186,0 -0.455,7.732 5.003,7.277c3.786,-0.316 7.575,0.682 11.514,1.324M721.335,55.601l0,-8.301c1.737,0.282 3.504,0.495 5.313,0.495c5.912,0 0.909,6.367 -5.003,7.732c-0.104,0.023 -0.208,0.048 -0.31,0.074M721.335,256.118l0,-4.974c2.191,0.357 2.852,5.879 0.367,5.114c-0.127,-0.039 -0.25,-0.086 -0.367,-0.14M721.335,310.627l0,-7.519c0.685,-0.678 1.638,-1.362 2.934,-2.046c7.106,-3.75 9.474,-11.053 14.014,-11.053c2.762,-0.197 2.96,3.948 2.171,8.882c-0.79,4.935 -8.29,17.764 -10.857,17.566c-2.565,-0.198 -6.512,-2.368 -7.895,-5.131c-0.112,-0.227 -0.237,-0.46 -0.367,-0.699M721.335,327.534l0,-3.578c4.77,0.546 6.824,3.589 0.615,3.589c-0.21,0 -0.415,-0.003 -0.615,-0.011M751.673,352.169l0,48.447c-1.666,0.447 -3.57,0.433 -5.351,0.297c-3.939,-0.303 -6.969,3.333 -9.695,1.515c-2.725,-1.818 2.12,-4.848 -0.909,-11.814c-3.029,-6.969 -2.725,-14.542 -4.846,-18.177c-2.121,-3.635 0.605,-11.511 8.178,-11.814c7.574,-0.304 12.117,-1.818 12.117,-4.545c0,-1.626 -0.537,-3.036 0.506,-3.909M751.673,311.507l0,4.211c-3.358,-0.951 -6.195,-6.186 -3.324,-6.365c0.76,0 2.134,0.965 3.324,2.154M751.673,266.87l0,4.752c-2.273,-0.231 -4.391,-4.932 -1.548,-5.1c0.509,0 1.044,0.128 1.548,0.348M751.673,254.899l0,5.884c-0.332,0.059 -0.716,0.067 -1.154,0.015c-4.934,-0.592 -5.724,-6.315 -0.592,-6.513c0.644,0 1.237,0.234 1.746,0.614M751.673,239.881c-0.054,-0.003 -0.11,-0.004 -0.167,-0.004c-3.539,-0.591 -2.572,5.871 0.167,6.311l0,-6.307ZM751.673,65.363l0,126.094c-0.993,-0.259 -2.195,-0.405 -3.65,-0.405c-7.276,0 -8.642,7.277 -4.093,7.277c4.546,0 -1.82,10.005 1.819,14.098c3.637,4.094 7.73,12.279 4.093,15.918c-3.639,3.638 -4.549,9.095 -8.187,10.915c-3.637,1.819 -11.369,8.185 -17.737,8.185c-0.825,0 -1.698,0.062 -2.583,0.183l0,-185.976c1.79,-0.363 4.06,-0.343 7.132,0.242c9.377,1.786 15.248,0.503 23.206,3.469M751.673,246.188l0,-6.307c3.751,0.187 2.754,6.7 0.031,6.31l-0.031,-0.003ZM751.673,260.783l0,-5.884c2.047,1.526 2.736,5.405 0,5.884M751.673,271.622l0,-4.752c1.837,0.804 3.23,2.84 1.214,4.389c-0.391,0.301 -0.805,0.403 -1.214,0.363M751.673,315.718l0,-4.211c1.898,1.896 3.324,4.359 1.018,4.359c-0.342,0 -0.683,-0.053 -1.018,-0.148M759.066,350.59l0,43.397c-1.464,0.169 -2.628,0.794 -3.051,2.382c-0.664,2.489 -2.326,3.704 -4.342,4.247l0,-48.447c0.706,-0.592 2.136,-0.938 4.948,-0.938c1.173,0 1.943,-0.241 2.445,-0.641M759.066,328.679l0,3.536c-0.192,-0.095 -0.385,-0.255 -0.58,-0.494c-1.254,-1.545 -1.159,-2.511 0.484,-2.993l0.096,-0.049ZM759.066,282.854l0,7.797c-0.652,-0.021 -1.344,-0.384 -2.033,-1.233c-2.566,-3.159 -2.369,-5.133 0.987,-6.119c0.357,-0.192 0.709,-0.338 1.046,-0.445M759.066,67.232l0,133.795c-1.184,-0.919 -2.217,-1.844 -2.403,-3.153c-0.364,-2.546 -1.019,-5.383 -4.99,-6.417l0,-126.094c0.146,0.055 0.295,0.111 0.442,0.169c2.271,0.882 4.645,1.345 6.951,1.7M759.066,59.426l0,5.933c-0.242,-0.154 -0.48,-0.317 -0.72,-0.491c-3.808,-2.748 -5.287,-5.709 -2.875,-5.651c1.029,-0.514 2.263,-0.321 3.595,0.209M759.066,290.651l0,-7.797c2.445,-0.775 4.212,0.606 3.69,3.208c-0.432,2.165 -1.919,4.643 -3.69,4.589M759.066,332.215l0,-3.536c1.402,-0.692 2.502,-0.015 2.219,1.4c-0.245,1.225 -1.179,2.654 -2.219,2.136M763.997,342.775l0,51.587c-1.647,-0.246 -3.444,-0.547 -4.931,-0.375l0,-43.397c2.475,-1.976 -1.573,-7.84 4.22,-7.84c0.247,0 0.484,0.008 0.711,0.025M763.997,67.964c-1.559,-0.269 -3.226,-0.471 -4.931,-0.732l0,133.795c1.693,1.317 3.697,2.623 3.964,5.033c0.142,1.274 0.46,2.502 0.967,3.564l0,-141.66ZM763.997,62.086l0,5.321c-1.72,-0.415 -3.333,-1.025 -4.931,-2.048l0,-5.933c1.569,0.623 3.273,1.712 4.931,2.66M767.697,344.298l0,50.216c-0.057,0.014 -0.114,0.025 -0.17,0.037c-0.895,0.179 -2.161,0.014 -3.53,-0.189l0,-51.587c1.841,0.126 2.959,0.747 3.7,1.523M767.697,233.429l0,3.813c-0.318,-0.011 -0.657,-0.188 -0.993,-0.604c-1.256,-1.544 -1.159,-2.51 0.482,-2.991c0.175,-0.094 0.347,-0.166 0.511,-0.218M767.697,68.867c-1.125,-0.4 -2.373,-0.676 -3.7,-0.903l0,141.66c0.775,1.623 1.992,2.854 3.7,3.257l0,-13.627c-2.344,-3.484 -5.498,-4.66 -1.029,-5.472c0.375,-0.069 0.717,-0.145 1.029,-0.229l0,-124.686ZM767.697,63.752l0,4.302c-1.304,-0.171 -2.527,-0.364 -3.7,-0.647l0,-5.321c1.288,0.737 2.551,1.387 3.7,1.666M767.697,68.054c1.055,0.137 2.16,0.261 3.334,0.408c5.075,0.635 2.027,-4.938 -1.921,-4.579c-0.445,0.041 -0.92,-0.011 -1.413,-0.131l0,4.302ZM767.697,212.881l0,-13.627c0.279,0.416 0.548,0.865 0.791,1.349c2.273,4.548 6.367,11.37 1.819,12.279c-0.972,0.195 -1.841,0.181 -2.61,-0.001M767.697,237.242l0,-3.813c1.197,-0.38 2.059,0.297 1.805,1.569c-0.212,1.057 -0.939,2.27 -1.805,2.244M776.395,340.869l0,52.406c-3.982,-0.489 -6.759,0.807 -8.698,1.239l0,-50.216c1.719,1.798 1.424,4.418 3.464,3.602c3.029,-1.212 0.607,-6.968 4.544,-6.968c0.251,0 0.479,-0.022 0.69,-0.063M776.395,214.132l0,4.152c-3.435,-1.968 -1.804,-4.936 0,-4.152M776.395,76.013l0,108.403c-1.38,0.099 -2.5,0.542 -3.359,2.089c-2.103,3.786 -1.484,6.016 -5.339,7.048l0,-124.686c2.211,0.788 3.948,2.058 4.884,4.396c1.12,2.802 2.319,3.225 3.814,2.75M776.395,218.284l0,-4.152c0.063,0.028 0.128,0.06 0.192,0.097c1.254,0.471 3.448,6.114 -0.157,4.077l-0.035,-0.022ZM781.773,337.161l0,57.725c-2.001,-0.936 -3.787,-1.416 -5.378,-1.611l0,-52.406c3.02,-0.58 2.315,-4.996 5.378,-3.708M781.773,312.577l0,4.235c-3.109,-1.238 -5.34,-4.696 -1.451,-4.696c0.401,0 0.911,0.175 1.451,0.461M781.773,73.46l0,110.876c-2.097,0.265 -3.888,-0.026 -5.378,0.08l0,-108.403c1.448,-0.458 3.173,-1.757 5.378,-2.553M781.773,316.812l0,-4.235c2.374,1.261 5.32,4.67 2.103,4.67c-0.708,0 -1.427,-0.166 -2.103,-0.435M789.901,349.665l0,50.098c-0.628,-0.311 -2.086,-1.331 -5.41,-3.394c-0.948,-0.589 -1.854,-1.078 -2.718,-1.483l0,-57.725c0.093,0.04 0.192,0.084 0.294,0.135c3.636,1.818 5.755,4.544 6.968,9.392c0.307,1.224 0.554,2.196 0.866,2.977M789.901,206.686l0,3.811c-0.19,0.246 -0.422,0.494 -0.699,0.741c-3.199,2.856 -4.106,-5.761 -1.377,-5.217c0.667,-0.229 1.49,0.06 2.076,0.665M789.901,201.224l0,2.311c-1.006,-0.185 -1.002,-1.318 0,-2.311M789.901,72.836l0,67.025c-4.149,1.219 -3.539,5.443 0,5.358l0,34.242c-1.258,1.633 -2.746,3.01 -4.587,3.859c-1.264,0.585 -2.444,0.876 -3.541,1.016l0,-110.876c1.062,-0.384 2.235,-0.651 3.541,-0.651c1.844,0 3.321,0.033 4.587,0.027M789.901,210.497l0,-3.811c0.819,0.841 1.175,2.296 0,3.811M793.845,352.574l0,47.545c-1.174,-2.915 -2.041,-4.729 -2.992,-3.145c-1.131,1.884 0.081,3.299 -0.952,2.789l0,-50.098c0.656,1.638 1.594,2.428 3.944,2.909M793.845,311.787l0,9.983c-2.937,-4.737 -4.992,-9.797 -2.075,-10.05c0.59,-0.066 1.295,-0.032 2.075,0.067M793.845,205.176l0,3.062l-0.069,0.077c-1.213,1.33 -1.706,-2.879 0.069,-3.139M793.845,199.868l0,3.276c-0.616,-0.225 -1.406,-0.221 -2.448,0.167c-0.633,0.234 -1.131,0.291 -1.496,0.224l0,-2.311c0.299,-0.296 0.686,-0.579 1.16,-0.821c0.957,-0.487 1.9,-0.54 2.784,-0.535M793.845,144.887l0,27.675c-1.113,2.335 -2.343,4.822 -3.944,6.899l0,-34.242c0.274,-0.007 0.564,-0.038 0.872,-0.099c1.082,-0.217 2.112,-0.305 3.072,-0.233M793.845,72.517l0,66.01c-0.936,0.554 -1.956,0.949 -3.072,1.135c-0.312,0.052 -0.601,0.119 -0.872,0.199l0,-67.025c1.538,-0.006 2.762,-0.07 3.944,-0.319M793.845,46.962l0,3.177c-0.721,-1.104 -0.906,-2.32 0,-3.177M793.845,172.562l0,-27.675c3.078,0.231 5.438,2.094 6.478,6.6c1.364,5.911 -1.365,11.824 -4.094,16.371c-0.798,1.332 -1.559,2.976 -2.384,4.704M793.845,208.238c1.281,-1.404 1.521,-1.759 0.635,-3.003c-0.237,-0.07 -0.448,-0.086 -0.635,-0.059l0,3.062ZM806.773,337.907l0,75.72c-3.444,-0.639 -6.11,-0.822 -8.65,-4.534c-1.878,-2.746 -3.205,-6.317 -4.278,-8.974l0,-47.545c0.963,0.198 2.16,0.343 3.672,0.475c4.847,-0.303 4.544,-7.876 4.544,-12.117c0,-2.569 2.446,-4.027 4.712,-3.025M806.773,314.048l0,14.096c-2.497,1.478 -5.282,3.836 -7.897,0.353c-1.482,-1.553 -3.393,-4.089 -5.031,-6.727l0,-9.983c3.893,0.496 9.673,2.631 12.436,2.302c0.157,-0.018 0.32,-0.032 0.492,-0.041M806.773,193.1l0,0.819c-0.043,0.239 -0.127,0.447 -0.265,0.612c-1.02,1.223 -1.338,3.234 -1.556,5.19c-0.218,1.954 -1.446,4.211 -3.066,4.591c-1.621,0.381 -3.092,0.581 -3.505,1.783c-0.413,1.201 -1.63,1.099 -2.394,-0.446c-0.489,-0.987 -1.047,-2.106 -2.142,-2.505l0,-3.276c1.571,0.009 2.963,0.202 3.931,-1.511c1.516,-2.679 3.362,-1.483 4.046,-3.895c0.684,-2.411 0.587,-5.631 2.532,-5.08c0.976,0.216 2.207,2.186 2.419,3.718M806.773,171.797c-1.049,-0.964 -2.24,-1.677 -3.069,-1.614c-2.585,0.225 0.636,3.837 3.069,5.341l0,-3.727ZM806.773,158.611l0,7.912c-2.754,-2.245 -2.737,-8.716 -0.404,-7.939c0.139,0 0.274,0.01 0.404,0.027M806.773,146.703l0,2.784c-2.284,-0.723 -3.916,-3.515 -0.561,-2.816c0.196,0 0.383,0.011 0.561,0.032M806.773,67.19l0,58.014c-2.234,-0.087 -4.093,0.45 -5.086,2.634c-1.809,3.979 -4.194,8.535 -7.842,10.689l0,-66.01c1.448,-0.305 2.834,-0.887 4.659,-1.982c1.962,-1.178 5.278,-2.524 8.269,-3.345M806.773,60.227l0,2.853c-0.52,0.368 -1.317,0.626 -2.428,0.674c-5.132,0.223 -5.802,-4.017 -1.116,-4.463c1.585,-0.151 2.811,0.285 3.544,0.936M806.773,45.829l0,5.329c-2.216,1.191 -5.88,1.378 -8.253,1.657c-1.601,0.188 -3.664,-1.133 -4.675,-2.676l0,-3.177c0.673,-0.636 1.944,-1.075 4.041,-1.124c3.369,-0.27 6.825,-0.711 8.887,-0.009M805.206,176.009c0.691,0.258 1.188,0.604 1.567,0.987l0,9.163c-1.186,-1.095 -3.404,-3.307 -2.326,-0.952c1.192,2.607 0.994,3.306 -0.239,3.209c-1.232,-0.098 -2.714,-2.87 -2.952,-4.702c-0.237,-1.832 2.422,0.35 3.185,-1.45c0.762,-1.8 -1.536,-7.326 0.765,-6.255M806.773,51.158l0,-5.329c1.173,0.398 1.895,1.167 1.895,2.547c0,1.292 -0.756,2.17 -1.895,2.782M806.773,63.08l0,-2.853c0.965,0.859 1.071,2.092 0,2.853M806.773,149.487l0,-2.784c2.813,0.329 3.357,3.094 0.85,2.946c-0.287,-0.017 -0.573,-0.074 -0.85,-0.162M806.773,166.523l0,-7.912c2.975,0.399 3.913,5.132 2.261,4.831c-1.723,-0.312 0.627,5.331 -2.195,3.136l-0.066,-0.055ZM806.773,175.524l0,-3.727c1.529,1.407 2.756,3.349 2.104,4.186c-0.31,0.398 -1.146,0.134 -2.104,-0.459M806.773,193.919l0,-0.819c0.041,0.295 0.044,0.573 0,0.819M817.708,418.101l0,9.273c-1.06,0.473 -2.266,0.237 -3.47,-1.247c-3.05,-3.751 -2.814,-6.096 1.171,-7.268c0.816,-0.435 1.593,-0.681 2.299,-0.758M817.708,357.555l0,58.115c-1.483,0.729 -2.981,0.846 -4.438,0.086c-2.473,-1.29 -4.603,-1.778 -6.497,-2.129l0,-75.72c1.474,0.652 2.87,2.344 3.467,5.449c0.696,3.618 3.822,9.026 7.468,14.199M817.708,323.742l0,6.137c-4.975,-1.089 -6.422,-3.307 -9.148,-2.565c-0.573,0.155 -1.172,0.467 -1.787,0.83l0,-14.096c3.437,-0.182 9.438,1.59 9.042,4.976c-0.139,1.197 0.803,2.953 1.893,4.718M817.708,71.255l0,55.176c-0.476,0.026 -0.964,0.042 -1.468,0.042c-3.076,0 -6.584,-1.155 -9.467,-1.269l0,-58.014c3.942,-1.084 7.319,-1.257 6.284,1.071c-1.819,4.092 1.364,7.731 3.183,5.002c0.474,-0.709 0.947,-1.418 1.468,-2.008M817.708,50.594l0,3.699c-3.867,-0.603 -5.299,-4.114 -0.195,-3.706c0.065,0 0.129,0.003 0.195,0.007M806.773,176.996c1.202,1.216 1.204,2.805 2.405,3.082c1.578,0.362 4.6,1.556 2.283,2.916c-2.319,1.359 -3.334,4.349 -4.347,3.473c-0.098,-0.085 -0.213,-0.189 -0.341,-0.308l0,-9.163ZM817.708,54.293l0,-3.699c2.639,0.174 5.717,3.786 1.144,3.786c-0.401,0 -0.782,-0.031 -1.144,-0.087M817.708,329.879l0,-6.137c2.144,3.476 4.859,6.989 1.01,6.334c-0.352,-0.06 -0.689,-0.126 -1.01,-0.197M817.708,427.374l0,-9.273c2.333,-0.256 3.869,1.338 3.329,4.04c-0.426,2.126 -1.707,4.509 -3.329,5.233M832.364,376.181l0,13.165c-0.386,2.047 -0.908,4.031 -1.525,5.81c-2.155,6.228 -7.531,17.758 -13.131,20.514l0,-58.115c4.289,6.085 9.299,11.845 11.919,13.973c1.303,1.058 2.19,2.687 2.737,4.653M832.364,315.797l0,4.363c-3.661,-1.99 -6.705,-6.127 -3.092,-5.676c0.67,0 1.851,0.539 3.092,1.313M832.364,75.163l0,52.223c-0.77,0.117 -1.591,-0.013 -2.48,-0.458c-4.128,-2.064 -7.507,-0.756 -12.176,-0.497l0,-55.176c1.482,-1.678 3.353,-2.385 6.718,0.644c2.118,1.906 5.024,2.825 7.938,3.264M832.364,389.346l0,-13.165c1.03,3.696 0.859,8.592 0,13.165M836.727,376.374l0,3.813c-0.318,-0.01 -0.656,-0.187 -0.993,-0.604c-1.255,-1.544 -1.158,-2.509 0.483,-2.991c0.175,-0.093 0.347,-0.165 0.51,-0.218M836.727,319.586l0,1.443c-0.207,0.107 -0.516,0.165 -0.943,0.165c-1.078,0 -2.279,-0.412 -3.42,-1.034l0,-4.363c1.743,1.085 3.607,2.629 4.363,3.789M836.727,75.527l0,48.474c-1.363,1.818 -2.757,3.141 -4.363,3.385l0,-52.223c1.486,0.223 2.977,0.323 4.363,0.364M836.727,321.029l0,-1.443c0.429,0.655 0.503,1.187 0,1.443M836.727,380.187l0,-3.813c1.197,-0.379 2.06,0.296 1.806,1.568c-0.212,1.059 -0.938,2.271 -1.806,2.245M846.274,326.776l0,3.801c-4.377,-0.971 -8.455,-3.242 -4.174,-4.336c1.095,-0.17 2.628,0.077 4.174,0.535M846.274,131.007l0,22.354c-2.932,0.7 -6.246,0.065 -6.466,-1.907c-0.341,-3.072 1.195,-6.827 0.171,-9.387c-1.023,-2.559 -1.878,-3.584 3.242,-8.02c1.192,-1.034 2.182,-2.067 3.053,-3.04M846.274,79.564l0,34.531c-1.784,0.13 -3.778,1.191 -5.476,3.737c-1.443,2.165 -2.743,4.4 -4.071,6.169l0,-48.474c1.735,0.051 3.311,0.01 4.527,0.01c1.89,0 3.488,1.939 5.02,4.027M846.274,330.577l0,-3.801c4.028,1.192 8.133,3.816 4.708,4.205c-1.311,0.148 -3.032,-0.032 -4.708,-0.404M856.245,335.263l0,3.649c-3.743,-0.507 -7.368,-5.086 -2.895,-5.086c0.758,0 1.898,0.624 2.895,1.437M856.245,126.623l0,20.645c-0.302,-0.021 -0.656,-0.152 -1.077,-0.422c-4.266,-2.73 -2.73,0.683 -4.949,4.095c-0.794,1.223 -2.311,2.029 -3.945,2.42l0,-22.354c2.87,-3.205 4.466,-5.755 7.871,-5.494c0.675,-0.067 1.397,0.368 2.1,1.11M856.245,84.005l0,33.143c-2.337,0.802 -4.652,0.9 -5.442,-0.68c-0.726,-1.456 -2.49,-2.523 -4.529,-2.373l0,-34.531c1.786,2.434 3.48,5.068 5.439,5.068c1.481,0 2.96,-0.3 4.532,-0.627M856.245,76.387l0,3.047c-2.308,-0.669 -4.115,-3.071 -0.735,-3.071c0.258,-0.014 0.502,-0.005 0.735,0.024M856.245,79.434l0,-3.047c2.698,0.327 3.655,3.218 1.141,3.218c-0.379,0 -0.767,-0.063 -1.141,-0.171M856.245,147.268c2.766,0.193 1.053,-8.988 3.36,-9.296c2.054,-0.274 -0.505,-8.343 -3.36,-11.349l0,20.645ZM856.245,338.912l0,-3.649c1.865,1.518 3.23,3.696 0.66,3.696c-0.22,0 -0.44,-0.018 -0.66,-0.047M862.745,360.133l0,5.411c-3.593,-1.731 -5.58,-5.527 -1.007,-5.527c0.323,0 0.661,0.042 1.007,0.116M862.745,127.617l0,3.392c-2.261,-0.635 -3.734,-3.297 -0.581,-3.447c0.201,0 0.395,0.02 0.581,0.055M862.745,117.777l0,4.999c-5.116,-0.929 -5.015,-2.718 -0.118,-4.944l0.118,-0.055ZM862.745,83.2l0,30.67c-0.635,0.031 -1.32,0.265 -1.935,0.779c-1.151,0.957 -2.864,1.915 -4.565,2.499l0,-33.143c1.965,-0.408 4.071,-0.855 6.5,-0.805M862.745,131.009l0,-3.392c2.352,0.451 3.487,3.528 0.956,3.528c-0.326,0 -0.649,-0.049 -0.956,-0.136M862.745,365.544l0,-5.411c3.893,0.837 8.848,5.966 3.841,6.244c-1.338,0.075 -2.674,-0.27 -3.841,-0.833M871.761,428.653l0,9.007c-1.806,1.545 -3.225,3.204 -3.661,5.058c-1.211,5.149 -2.423,-4.847 -3.332,-7.575c-0.806,-2.418 2.442,-5.076 6.993,-6.49M871.761,349.481l0,5.426c-3.583,-1.235 -6.257,-6.438 -3.054,-6.705c1.014,0.079 2.088,0.58 3.054,1.279M871.761,143.507l0,2.82c-2.172,-1.287 -3.834,-3.918 -2.258,-3.918c0.588,0.098 1.427,0.532 2.258,1.098M871.761,82.947l0,38.176c-2.946,0.494 -3.873,2.512 -8.678,1.711c-0.115,-0.019 -0.227,-0.039 -0.338,-0.058l0,-4.999c3.722,-1.753 2.155,-4.01 0,-3.907l0,-30.67c0.407,0.008 0.821,0.03 1.248,0.069c4.385,0.398 2.479,-1.649 7.768,-0.322M871.761,146.327l0,-2.82c2.067,1.408 4.08,3.631 2.01,3.51c-0.669,-0.039 -1.363,-0.305 -2.01,-0.69M871.761,354.907l0,-5.426c2.777,2.017 4.638,5.689 1.49,5.689c-0.506,0 -1.007,-0.097 -1.49,-0.263M875.2,427.462l0,7.588c-1.199,0.842 -2.386,1.707 -3.439,2.61l0,-9.007c0.577,-0.181 1.178,-0.34 1.791,-0.476c0.724,-0.162 1.253,-0.408 1.648,-0.715M875.2,286.1l0,3.813c-0.318,-0.01 -0.656,-0.188 -0.993,-0.602c-1.255,-1.546 -1.159,-2.511 0.482,-2.993c0.176,-0.094 0.347,-0.165 0.511,-0.218M875.2,83.957l0,37.514c-0.664,-0.273 -1.365,-0.455 -2.112,-0.455c-0.49,0 -0.928,0.039 -1.327,0.107l0,-38.176c0.742,0.187 1.627,0.44 2.692,0.776c0.257,0.082 0.507,0.159 0.747,0.234M875.2,289.913l0,-3.813c1.197,-0.379 2.06,0.296 1.805,1.569c-0.211,1.059 -0.938,2.271 -1.805,2.244M881.835,420.06l0,9.82c-0.034,0.038 -0.068,0.076 -0.103,0.115c-1.562,1.692 -4.076,3.329 -6.532,5.055l0,-7.588c2.587,-2.013 -0.643,-6.676 5.927,-7.465c0.25,0 0.486,0.022 0.708,0.063M881.835,400.207l0,9.636c-1.798,-4.461 -4.161,-9.087 -1.011,-9.536c0.365,-0.077 0.7,-0.109 1.011,-0.1M881.835,77.879l0,45.442c-1.974,1.701 -4.016,-0.778 -6.635,-1.85l0,-37.514c7.864,2.437 7.331,1.436 3.8,-3.417c-2.426,-3.336 -0.402,-3.638 2.835,-2.661M881.835,429.88c3.321,-3.704 3.483,-9.179 0,-9.82l0,9.82ZM886.119,405.517l0,15.36c-1.592,-1.185 -2.232,-3.008 -2.872,-6.635c-0.235,-1.326 -0.79,-2.853 -1.412,-4.399l0,-9.636c2.443,0.067 3.292,2.631 4.284,5.31M886.119,79.568l0,37.918c-1.33,1.481 -2.368,3.225 -3.48,4.894c-0.268,0.402 -0.537,0.71 -0.804,0.941l0,-45.442c1.302,0.395 2.8,0.996 4.284,1.689M892.468,413.464l0,5.467c-0.731,2.133 -2.193,3.713 -3.768,3.187c-1.075,-0.358 -1.912,-0.742 -2.581,-1.241l0,-15.36c0.869,2.341 1.846,4.769 4.096,5.695c1.1,0.453 1.825,1.266 2.253,2.252M892.468,350.625l0,3.813c-0.319,-0.01 -0.656,-0.187 -0.995,-0.604c-1.253,-1.544 -1.157,-2.509 0.484,-2.991c0.175,-0.093 0.345,-0.165 0.511,-0.218M892.468,81.976l0,20.802l-0.734,-0.408c-3.245,-1.803 -2.773,0.682 0.734,3.376l0,8.188c-2.886,0.486 -4.813,1.844 -6.349,3.552l0,-37.918c0.357,0.168 0.715,0.34 1.068,0.517c1.638,0.819 3.438,1.391 5.281,1.891M892.468,354.438l0,-3.813c1.195,-0.379 2.06,0.296 1.805,1.568c-0.211,1.059 -0.939,2.273 -1.805,2.245M892.468,418.931l0,-5.467c0.706,1.629 0.595,3.73 0,5.467M898.527,348.503l0,3.813c-0.32,-0.009 -0.657,-0.187 -0.995,-0.601c-1.254,-1.546 -1.157,-2.511 0.483,-2.993c0.176,-0.094 0.347,-0.165 0.512,-0.219M898.527,109.406l0,3.998c-0.893,0.216 -2.092,0.335 -3.61,0.335c-0.887,0 -1.7,0.068 -2.449,0.195l0,-8.188c0.917,0.703 2.04,1.422 3.359,2.081c1.086,0.544 1.989,1.074 2.7,1.579M898.527,83.585l0,22.038c-1.53,-0.34 -3.909,-1.648 -6.059,-2.845l0,-20.802c2.024,0.55 4.098,1.009 6.059,1.609M898.527,113.404l0,-3.998c2.586,1.839 2.658,3.353 0,3.998M898.527,352.316l0,-3.813c1.194,-0.378 2.059,0.298 1.804,1.569c-0.211,1.059 -0.939,2.273 -1.804,2.244M903.019,85.46l0,14.022c-2.329,0.213 -3.948,1.704 -3.098,4.251c0.589,1.77 -0.097,2.179 -1.394,1.89l0,-22.038c1.603,0.489 3.13,1.074 4.492,1.875M903.019,72.775l0,4.382c-4.302,-0.541 -5.302,-4.642 0,-4.382M903.019,77.157l0,-4.382l0.104,0.004c2.561,-0.171 5.973,4.437 0.854,4.437c-0.335,0 -0.655,-0.021 -0.958,-0.059M903.019,99.482l0,-14.022c0.507,0.298 0.992,0.627 1.449,0.992c4.548,3.639 9.551,7.276 16.373,7.276c6.821,0 0,10.916 -4.549,12.279c-4.547,1.365 -4.547,-3.183 -8.639,-5.457c-1.546,-0.858 -3.22,-1.198 -4.634,-1.068" style="fill:#35928d;"/></g></g></g></g></svg>