<svg viewBox="0 0 924 503" xmlns="http://www.w3.org/2000/svg" fill-rule="evenodd" clip-rule="evenodd" stroke-linejoin="round" stroke-miterlimit="1.414"><clipPath id="a"><path d="M0 39.874h923.722v462.78H0z"/></clipPath><g opacity=".5" clip-path="url(#a)"><clipPath id="b"><path d="M0 39.874h923.722v462.78H0z"/></clipPath><g clip-path="url(#b)"><path d="M133.61 126.735c-1.27.112-2.724.26-4.363.26-5.607 0-3.02-4.745-10.35-4.745-7.333 0-3.883 1.725-10.353-2.588-6.47-4.313-4.312 1.725-12.938 1.725-8.626 0-10.352 1.726-10.352 5.607 0 3.882-12.075-6.038-24.582-6.9-12.508-.863-25.878-4.745-33.64-4.745-7.764 0-11.646 8.194-20.703 9.488-9.058 1.293.86 3.88 3.45 8.626 2.587 4.744 1.725 4.312-6.902 5.175-8.626.86 4.313 6.468 10.352 6.468 6.038 0-.432 4.313-4.745 6.9-4.312 2.59-6.037 11.646.863 12.077 6.9.432 3.45 4.313 12.076 4.313 8.626 0 .863 6.47-4.744 10.782-5.607 4.313-5.175 9.92-2.156 7.332 3.02-2.587 10.782-9.057 14.663-10.35 3.882-1.294 6.47-8.195 9.92-10.35 3.45-2.158 6.038 4.312 8.194.86 2.158-3.45 6.47-.43 10.353-1.293 3.88-.863 12.076.86 15.526 1.724 3.45.863 7.33 4.313 12.506 3.882 5.175-.432 5.607 8.194 9.057 11.213 3.45 3.018 7.332 2.587 6.47 6.9-.863 4.313 6.038 10.35 12.508 12.94 6.47 2.586 9.058 10.35 3.88 7.762-5.174-2.588-5.605-1.725-3.88 3.02 1.726 4.742 2.588 7.762 0 9.056-2.588 1.293-2.588 13.8.862 19.84 3.45 6.037 15.527 12.075 17.252 17.682a22.156 22.156 0 0 0 1.777 4.148V126.735zm0-6.05v1.992c-1.452-.68-1.787-1.202 0-1.993m0-18.96v17.75c-2.05-.29-5.588-.763-6.09-3.262-.862-4.313-13.368 0-16.82-4.313-3.45-4.313-.43-13.37 6.9-13.37 6.04-.432 9.058 3.018 14.234 3.018.598 0 1.19.064 1.777.175m0-11.164c-1.56 1.493-1.955 3.857-1.538 5.95.184.916.783 1.365 1.54 1.588v-7.54zm0-8.755v3.77c-1.854 1.5-4.893 2.86-7.352 2.86-5.49 0-4.198 3.876-8.398 3.876-4.2 0-6.784-5.167-.323-5.49 6.46-.323 6.783-4.846 14.214-5.168.75 0 1.365.054 1.86.153m0 3.77v-3.77c2.573.51 1.92 2.217 0 3.77m7.55 45.58v143.313l-.268-.405c-2.537-3.804-5.306-6.91-7.28-10.515V126.735c3.075-.27 5.07-.33 5.985 2.416.345 1.036.874 1.64 1.562 2.005m0-26.49v21.355c-.24-.093-.474-.2-.7-.32-2.737-1.474-5.37-2.33-6.85-3.023v-1.993c.118-.053.244-.105.38-.16 1.815-.725 1.11-.84-.38-1.05v-17.75c2.506.475 4.954 1.83 7.55 2.942m0-14.598v9.635c-1.754.75-3.12.91-2.95-.285.23-1.62-2.687-.753-4.6-1.32v-7.54c.85-.81 2.04-1.364 3.63-1.478 1.29-.09 2.63.368 3.92.988m0-14.234v2.874c-.457-1.04-.507-2.085 0-2.874m0 2.874v-2.874c.588-.914 1.924-1.482 4.237-1.29 4.79 0 8.212 8.215 2.053 8.215-2.93 0-5.394-2.014-6.29-4.052m21.443 47.915a16.89 16.89 0 0 0-1.44-.06c-6.902 0-6.04 7.763-11.214 6.038-3.797-1.265-6.897-.442-8.79-1.445v143.313c3.317 5.016 5.848 9.494 8.79 8.653 3.017-.862 0-5.605-2.59-9.487-2.587-3.882 9.057 6.9 12.508 9.488 1.213.91 2 2.888 2.735 5.087V126.623zm0-16.02v12.488c-6.597-.008-15.912 5.074-21.444 2.93v-21.354c2.08.892 4.256 1.626 6.632 1.626 6.04 0 12.507-2.587 14.664 3.882.048.143.097.286.147.428m0-16.346c-.156-.004-.32-.007-.49-.007-5.49 0-5.49-7.107-9.69-7.107-3.552-.324-2.906.968-4.2 4.522-.922 2.54-3.83-.04-7.064-1.597v9.635c1.562-.668 3.434-1.804 4.803-2.87 2.908-2.26 6.46-.645 13.244-.322 1.338.064 2.475.015 3.396-.105v-2.15zm0-7.414v3.34c-3.124-.697-4.338-3.082 0-3.34m0-15.035v6.885c-3.007-3.21-4.323-8.108-1.01-6.903.342 0 .678.005 1.01.017m0 18.375v-3.34c.25-.015.517-.023.804-.023 4.522 0 5.49 3.553.97 3.553-.637 0-1.234-.07-1.774-.19m0 6.222v-2.15c3.9.12 3.603 1.678 0 2.15m8.316 32.686v168.74c-.847-.242-1.656-.412-2.426-.477-3.356-.278-4.536-5.092-5.89-9.146V126.623c3.284.28 5.398 1.484 8.315 2.468m0-8.677c-3.093-.658-6.354-4.222-8.317-9.81v12.488c.243 0 .48.008.715.023 3.084.193 5.822-.304 7.6-.912v-1.787zm0-11.964v4.627c-2.18-2.15-3.097-4.614-.73-4.614.25 0 .49-.005.73-.014m0-35.372v8.28a36.87 36.87 0 0 1-3.72-.08c-1.69-.13-3.3-1.2-4.597-2.586v-6.885c3.072.103 5.747.662 8.316 1.27m0 49.124v-1.787c.343.074.686.112 1.024.112 1.91 0 1.177.923-1.025 1.676m5.627 8.097v169.68c-2.02-.846-3.9-1.65-5.628-2.146V129.09c1.55.523 3.326.982 5.627 1.207m0-7.797v3.266c-1.383-1.18-1.487-2.56 0-3.266m0-21.028v14.69c-2.032-.274-4.13-1.605-5.628-3.085v-4.628c3.795-.14 6.244-1.375 4.116-2.894-1.89-1.35-1.072-3.15 1.51-4.084m0-13.047v7.19a23.42 23.42 0 0 0-.863-.073c-4.815-.32-4.527-7.657.864-7.117m0-14.082v6.876c-1.93-.038-3.728.093-5.628.138v-8.28c1.894.45 3.73.925 5.627 1.265m0-9.413v2.654c-.804-1.004-.958-2.063 0-2.654m0 2.654V64.93c.474-.294 1.22-.473 2.298-.473 4.744-.43 7.763 5.606 3.02 5.606-2.19 0-4.287-1.193-5.318-2.48m0 48.58v-14.69a9.96 9.96 0 0 1 1.72-.44c4.845 0 2.584 9.044 5.168 8.72 2.584-.32-.97 6.462-6.138 6.462-.248 0-.498-.018-.75-.052m9.618 14.176v139.437c-3.288 4.93-6.188 13.615-3.006 16.795.917.92 1.933 2.032 3.005 3.138v13.39c-3.477-.59-6.695-1.9-9.618-3.123v-169.68a32.25 32.25 0 0 0 3.16.147c2.46 0 4.628-.026 6.458-.105m0-5.766v3.026c-.58.155-1.37.244-2.407.244-3.39 0-5.887-.948-7.21-2.078V122.5c.615-.293 1.503-.47 2.687-.47 2.37 0 5.28 1.22 6.93 2.544m0-8.287v4.69c-1.18-.93-1.518-3.12 0-4.69m0-22.787c-.555-.14-1.05-.22-1.44-.22-2.906 0-3.552-4.845-8.073-4.845l-.105-.01v7.19c3.078.317 6.284 1.19 9.618 1.733V93.5zm0-10.64v6.22c-.584-.195-1-.598-1.116-1.292a6.694 6.694 0 0 1 1.115-4.927m0-6.035v5.193c-.692.377-1.688.474-3.006.122a26.83 26.83 0 0 0-6.613-.92v-6.877c1.566.28 3.173.466 4.885.466 2.137 0 3.735.867 4.733 2.015m5.992 24.53c-5.492.324-5.17 3.877-3.877 7.108 1.292 3.23 2.908 3.23 3.877 1.29.97-1.937 6.137-2.583 7.43-5.813 1.29-3.23-3.554-2.584-7.43-2.584m-5.992-19.338v-5.193c1.567 1.803 1.65 4.295 0 5.193m0 7.063c2.68.9 8.91-2.583 5.992-2.583-3.554 0 .97-5.814-2.585-5.814-1.153 0-2.474.84-3.407 2.178v6.22zm0 8.268c1.644.268 3.318.455 5.023.455 4.76 0-1.404-3.398-5.023-4.303v3.848zm0 30.252c1.962-.527 1.506-1.818 0-3.026v3.026zm15.918 161.174v20.34c-4.083-2.066-7.68-5.426-13.318-5.723a22.448 22.448 0 0 1-2.6-.29v-13.39c3.457 3.562 7.502 7.054 10.794 3.763a85.997 85.997 0 0 1 5.123-4.7m0-161.31v21.575c-1.735 1.053-.89 3.496-4.26 3.834-4.314.43-3.452 8.194-5.608 9.488-2.156 1.294 1.294 3.882 1.725 7.332.366 2.93 2.288 4.306 8.143 6.502v88.833c-4.306 1.68-9.884-1.3-13.75 2.136-.7.624-1.443 1.53-2.168 2.614V130.34c5.55-.242 7.995-.968 6.05-2.914-2.588-2.588-3.02-5.607-5.176-6.04a2.04 2.04 0 0 1-.875-.408v-4.69c.34-.35.77-.67 1.306-.94 3.45-1.724 4.314-4.743 6.47-1.292 2.156 3.45-1.293 8.195 3.45 7.763 4.717-.43 1.762 7.663 4.693 5.642m0-36.637v7.366c-2.124.624-3.175 1.273-5.124-.955-3.02-3.45-6.04-9.488-.432-8.626 2.22-1.11 3.19.816 5.555 2.215m0-9.805v3.76c-.414.1-.92.142-1.527.1-4.846-.32-4.846-4.197-.324-4.197a3.38 3.38 0 0 1 1.85.337m0-16.07a4.298 4.298 0 0 0-.38-.062c-3.88-.43-3.018-6.9-11.212-6.038-6.9-.43 2.587 8.626 1.725 13.802-.782 4.696 4.118 7.262 9.868 4.794V64.95zm0-10.83v5.614c-5.08-2.192-8.006-5.394 0-5.615m0 23.326c.586-.252 1.18-.554 1.777-.913 6.26-3.755 2.02-10.742-1.777-11.582v12.496zm0 7.334v-3.76c1.763.893 2.23 3.21 0 3.76m15.733 228.352V323.6c-1.93-3.816-2.634-12.876-9.642-12.876-2.288 0-4.24-.672-6.09-1.61v-20.34c4.282-3.614 8.904-6.698 8.904-3.722 0 4.312-4.54 18.77 1.93 18.77s2.156 4.744 4.744 9.058l.155.252m0-131.438V265.9c-5.102-4.257-11.89-2.41-15.68-.894l-.052.02v-88.832c1.04.39 2.2.807 3.502 1.26 4.59 1.608 9.055 2.847 12.23 4.24m0-28.274v.795a.9.9 0 0 1 0-.795m0-11.875c-.642-.202-1.276-.32-1.88-.32-4.744.865-7.762 3.452-5.175 8.628 1.65 3.3 4.003 1.515 7.055.235v-8.543zm0-18.055v14.587c-4.006.68-7.486 2.287-7.486 2.287s-1.295 8.195-6.04 8.195c-1.037 0-1.723.184-2.207.478v-21.576l.05-.036c3.02-2.157 6.04-.432 6.47 3.018.432 3.45 3.452 2.588 3.452-1.293 0-3.556 1.81-5.663 5.76-5.66m0-22.285v19.25c-5.562-.66-13.093-5.82-13.093-9.85 0-4.112 2.745-8.616 13.093-9.4m0-8.742c-3.766-.398-7.59-.55-10.074-.403-2.612.154-4.35-.46-5.657-1.235v7.366a12.802 12.802 0 0 1 4.795-.524c2.925.21 6.963.924 10.937 1.214v-6.417zm0-25.777v23.202c-5.985.73-12.89 1.816-12.23-2.14.862-5.177 3.88-9.06 9.056-10.783 5.058-1.685-6.345-9.13 3.175-10.28m0-16.216v11.025c-7.164.224-7.904.954-13.524-.92a27.723 27.723 0 0 1-2.207-.84v-5.616c.29-.01.594-.014.915-.014 4.548 0 9.598-1.75 14.817-3.637m0 87.607V123.49c.363 0 .742.018 1.14.054 4.744.43 7.332 14.232 2.156 14.232-1.097 0-2.215.117-3.295.3m0 16.14v-.796c.26-.523 1.088-1.013 2.768-1.35 5.49-1.29 4.846 2.908 2.262 3.877-1.577.59-4.472-.498-5.03-1.732m7.19 193.384v18.246c-.525-.713-.973-1.408-1.306-2.074-2.51-5.02-2.99-13.686 1.306-16.173m0-28.535v6.753c-2.985-.005-5.9-.104-6.913-1.724a6.513 6.513 0 0 1-.278-.495V313.13c1.87 3 4.566 5.328 7.19 5.933m0-36.314v4.46c-3.972-1.212-6.084-5.197-1.324-4.602.46 0 .903.05 1.326.143m0-89.184v80.007c-1.183-.605-2.886-2.48-5.19-5.548a12.587 12.587 0 0 0-2-2.124v-84.206c2.794 1.226 4.59 2.57 4.59 4.387 0 1.922 1.268 5.428 2.6 7.486m0-46.557v2.608c-.326.02-.756-.04-1.307-.196-2.19-.625-4.15-.06-5.885.666v-8.543c2.81.888 5.792 3.458 7.19 5.464m0-45.48v19.202a81.998 81.998 0 0 0-6.05-.207c-.368 0-.75-.025-1.14-.07v-19.25c.506-.038 1.03-.068 1.57-.088 1.474-.098 3.483.072 5.62.414m0-7.923v5.07c-2.17.398-4.666.386-7.19.203v-6.417c2.57.27 5.116.658 7.19 1.144m0-28.15v23.617a6.218 6.218 0 0 1-2.168.398c-1.422 0-3.18.19-5.022.416V66.686c.226-.028.46-.052.71-.072 2.665-.214 4.855-.638 6.48-1.156m0-17.498v13.673c-.938-.125-2.087-.195-3.463-.195-1.415 0-2.644.023-3.727.057V50.47c2.373-.86 4.78-1.746 7.19-2.51m0 50.718v-5.07c3.856.9 6.093 2.144 3.87 3.627-1.078.72-2.4 1.174-3.87 1.443m0 50.94v-2.61c.985 1.41 1.186 2.538 0 2.61m0 137.59v-4.457c3.9.85 6.01 5.173 1.58 4.77a7.82 7.82 0 0 1-1.58-.31m10.043 48.54v41.79c-1.916-3.35-7.164-7.797-10.042-11.694V347.6a4.99 4.99 0 0 1 .418-.217c4.745-2.156 2.588-8.626 7.33-9.92 1.246-.337 1.954-.944 2.294-1.714m0-16.89v13.89c-.473-1.744-1.514-3.65-2.293-5.206-.914-1.83-4.377-1.72-7.75-1.726v-6.753c1.033.24 2.053.21 3.007-.146 1.863-.7 4.48-.268 7.036-.06m0-30.883v3.33c-2.935-1.008-4.372-3.34-.872-3.34.295-.015.587-.01.872.01m0-12.145v5.396c-1.546.45-2.848 1.235-4.222.487-2.455-1.34-1.785-5.583 2.234-6.252.68 0 1.347.136 1.988.37m0-122.57v97.7c-2.578 1.956-6.15 3.74-7.468 5.85-2.156 3.45-.43 6.9-.43 12.938 0 3.354-.666 4.58-2.144 3.823v-80.007c1.36 2.1 2.788 2.69 3.006-1.447.43-8.195.43-13.37 3.882-13.37 3.45 0 .43-4.314-.863-10.352-1.182-5.516-2.36-13.19 4.018-15.134m0-12.09v6.67c-5.572-1.296-6.39-6.23-.567-6.618.198-.012.387-.03.568-.05m0-13.312v5.603c-3.545.98-5.478-2.77-1.544-5.3a6.21 6.21 0 0 1 1.544-.303m0-23.573v2.94c-1.775.497-1.488 1.24 0 2.094v13.155c-3.26-1.013-6.83-1.51-10.042-1.748v-19.2c3.644.58 7.66 1.66 10.042 2.76m0-58.402v34.653c-2.782.95-5.682 6.925-10.042 8.53V65.46c4.11-1.31 4.6-3.216 0-3.825V47.96c3.368-1.066 6.744-1.894 10.042-2.07m0 61.34v-2.94c2.36 1.092 3.115 2.202.296 2.865a8.4 8.4 0 0 0-.296.076m0 26.237c.53-.148 1.098-.4 1.686-.778 3.914-2.516 1.538-5.032-1.686-4.826v5.603zm0 147.76v-5.395c4.423 1.61 7.58 7.832 4.265 5.883-1.675-.985-3.045-.84-4.265-.487m0 10.08v-3.33c4.032.28 6.872 3.785 2.702 3.785-.967 0-1.89-.177-2.702-.456m15.61 126.736v82.273c-4.19-4.657-7.253-15.186-8.844-18.37-1.726-3.45.43-3.883 3.018-8.195 2.588-4.312 2.157-7.762-.43-15.525-2.588-7.763-1.726-13.8 2.156-16.82 3.882-3.02 1.725-12.94 1.725-18.545 0-2.06 1.104-3.537 2.375-4.817m0-100.6v80.227c-2.92-2.968-6.587-9.315-11-9.315-4.746 0-3.883-4.743-3.883-8.625 0-.652-.27-1.388-.727-2.19v-41.79c.373-.847.302-1.89 0-3v-13.89c2.18.176 4.315.188 5.903-.804 3.45-2.156 6.9-6.47 8.626-2.156a3.964 3.964 0 0 0 1.082 1.542m0-24.063v5.914c-3.566-.592-6.83-5.36 0-5.915m0-135.75v70.553c-1.238 2.16-2.53 4.046-5.395 4.046-4.744 0-7.332 10.78-7.332 14.662 0 1.51-1.24 2.826-2.882 4.07v-97.698a10.468 10.468 0 0 1 2.02-.392c4-.5 9.595 1.898 13.59 4.758m0-43.212v36.874c-4.784-1.557-9.936-2.95-13.59-3.165a12.21 12.21 0 0 1-2.02-.284v-6.668c5.802-.692 4.295-5.647 8.06-8.574 3.88-3.018 3.88-3.018-2.157-7.33-1.694-1.21-3.728-2.116-5.902-2.79v-13.156c2.83 1.622 10 3.64 15.61 5.094m0-38.233c-.716.828-1.266 2.036-1.944 3.8-.753 1.955.177 2.756 1.944 2.987v-6.787zm0-28.4v19.22c-3.513 1.512-7.285 2.416-9.707 2.197-4.744-.432-1.725 11.212-5.175 11.212a2.27 2.27 0 0 0-.727.13V45.89c.968-.052 1.93-.05 2.883.02 6.307 0 6.492 2.162 12.728 1.876m0 251.508v-5.915c.422-.035.88-.054 1.38-.054 3.798-.224 3.35 6.03-.668 6.03a4.28 4.28 0 0 1-.712-.062m10.813 19.22V489.88c-2.554 3.96-5.425 9.317-5.425 9.317s.432 6.038-4.312 2.156a9.712 9.712 0 0 1-1.075-1.037v-82.273c2.19-2.206 4.87-3.826 3.23-6.83-2.587-4.744.432-10.35-2.587-12.938a10.96 10.96 0 0 1-.642-.605v-80.228c2.392 2.088 7.197 1.244 10.813 1.072m0-21.402v2.635c-3.704-.802-5.288-2.956 0-2.635m0-128.55v31.21c-2.97 1.156-5.098 2.697-2.837 2.697.84 0 1.827.246 2.838.685v16.268c-3.113 1.947-6.03 2.627-8.012 4.61-1.197 1.198-1.986 2.732-2.8 4.15V157.63c2.9 2.075 4.957 4.392 4.957 6.024 0 3.693 1.95 5.823 5.856 4.91m0-45.857v32.508c-2.324-.92-6.412-2.492-10.812-3.923v-36.874c2.13.552 4.033 1.023 5.387 1.363 3.363.84 4.472 3.832 5.426 6.927m0-36.753v4.528a7.815 7.815 0 0 1-.25-.148c-2.314-1.424-1.32-2.995.25-4.38m0-11.59v7.79c-3.58.224-8.147 1.168-10.812.818v-6.787c1.564-1.808 3.922-1.808 10.132-1.808.234 0 .46-.005.68-.014m0-26.7v10.482a20.59 20.59 0 0 0-2.837 3.293c-1.476 2.11-4.607 4.118-7.975 5.567v-19.22c.59-.026 1.23-.073 1.938-.148 2.338-.246 5.59-.21 8.875.025m4.402 270.7v154.282c-.646.68-1.464 1.107-2.495 1.107-3.88 0 3.45 10.784 1.295 12.077-.72.432-1.92 2.067-3.2 4.052V318.513c.36-.017.71-.027 1.043-.027 1.023 0 2.145-.072 3.357-.126m0-19.744v1.136c-.378.21-1.088.323-2.22.273a13.08 13.08 0 0 1-2.18-.278v-2.635l.17.01c1.753 0 3.507.753 4.23 1.494m0-79.835c-.194.012-.4.05-.617.116-2.653.443-1.63 3.54.617 4.01v-4.125zm0-12.367v9.205a18.7 18.7 0 0 1-4.4 3.805v-16.268c1.564.682 3.186 1.83 4.4 3.258m0-42.99v35.173c-1.406.17-2.997.63-4.4 1.176v-31.21c.197-.047.402-.1.612-.164 3.514-1.054 1.588-4.113 3.788-4.976m0-33.197v9.126c-3.88-.086-5.613 2.116-1.2 6.19.463.428.86.865 1.2 1.305v8c-1.002.864-2.372 1.18-3.788.615l-.613-.245v-32.508c.943 3.066 1.732 6.233 4.402 7.518m0-56.945v18.587c-1.607-.22-3.093-.637-4.4-1.385v-4.528c2.23-1.97 5.628-3.56 2.337-3.814-.7-.053-1.493-.04-2.34.013v-7.79c1.984-.076 3.42-.486 4.402-1.083m0-13.67v7.62a4.426 4.426 0 0 0-1.2-.616c-3.335-1.112-5.396-5.725 1.2-7.003m0-11.512v6.89c-1.715.956-3.15 1.986-4.4 3.157V47.662c1.487.107 2.98.255 4.4.436m0 106.746v-8c2.414 3.137 1.798 6.45 0 8m0 60.774c.175-.206.35-.42.525-.64 2.387-3.04 1.497-6.187-.525-8.565v9.205zm0 7.29c.186.037.38.06.58.06 2.45 0 2-4.35-.58-4.187v4.127zm0 76.844v-1.136c.425.435.495.866 0 1.136m5.613 18.75v143.242a2.08 2.08 0 0 1-.775-.5c-3.02-3.02-2.588.43-2.588 3.45 0 2.218-.465 6.063-2.25 7.95V318.36c1.697-.074 3.573-.11 5.613.142m0-103.274v5.567c-3.033-.634-4.413-4.813-.832-5.41.292-.09.57-.14.832-.157m0-49.778v35.727c-.657-.602-1.448-1.405-2.5-2.157-.688-.49-1.823-.58-3.113-.424v-35.174c.5-.196 1.212-.28 2.25-.2 1.53.118 2.577.975 3.363 2.228m0-30.783v5.39c-.513.148-1.197.126-2.07-.124-1.286-.368-2.493-.558-3.543-.582v-9.125c.167.08.342.154.525.22 2.188.78 3.98 2.47 5.088 4.222m0-75.443v32.84c-1.965.05-3.86.043-5.613-.197V73.28c2.657-1.615 2.013-4.596 0-6.05v-7.62c1.08-.208 2.395-.33 3.975-.33.582 0 1.124-.02 1.638-.056m0-10.1v3.33c-2.17.815-4.014 1.642-5.613 2.534v-6.89c2.136.275 4.1.624 5.613 1.027m0 3.328a72.54 72.54 0 0 1 1.38-.503c2.863-1.01 1.65-2.02-1.38-2.825v3.328zm0 87.604v-5.39c1.506 2.384 1.746 4.885 0 5.39m0 61.12c1.225 1.122 1.983 1.534 3.106-.432 1.726-3.02 5.177-5.176 12.508-5.176 7.332 0-3.45-7.333-2.156-10.352 1.294-3.02-5.175-4.312-8.626-7.763-2.51-2.51-2.737-8.667-4.83-12.005v35.727zm0 19.618v-5.567c3.48-.22 4.088 5.648.783 5.648-.27 0-.533-.03-.783-.08m18.7 107.404v113.323c-4.102-1.96-9.335-4.21-6.106.312 4.313 6.04 5.174 9.057.43 11.215-4.367 1.985-9.83 9.816-13.025 8.694V318.502c2.642.33 5.557 1.148 8.712 3.003 3.61 2.123 6.903 4.663 9.987 6.695m0-130.283v13.877c-5.936-2.558-9.084-2.81-6.61-8.684 2.584-6.138-.647-5.814 3.553-5.492 1.185-.055 2.19.056 3.057.3m0-144.945V98.55c-1.028-2.516-2.5-5.162-6.536-6.06-3.928-.872-8.188-.53-12.163-.427v-32.84c9.383-.68 7.933-7.228 17.338-6.41.476.04.93.095 1.36.16m93.987 202.022c1.448-.773 2.606-.097 2.317 1.35-.29 1.45-1.545 3.186-2.8 1.642-1.254-1.545-1.157-2.51.483-2.992m-93.986-43.2v-13.878c4.094 1.154 5.034 5.28 6.633 8.746 1.938 4.2.647 8.4-5.814 5.492-.28-.126-.552-.246-.82-.36m0 229.728V328.2c3.184 2.1 6.144 3.658 8.992 3.658 5.607 0 4.743 5.606 4.743 11.213 0 5.607 7.333 5.607 15.096 8.195 7.764 2.587 11.213 2.157 18.977 6.9 7.763 4.744 9.488 7.333 5.607 12.94-3.88 5.606-12.076 14.233-12.506 22.427-.432 8.194-5.607 15.957-11.213 16.82-5.607.862-10.783 5.176-10.783 9.056 0 3.882-5.176 2.156-5.607 9.49-.43 7.33-6.9 15.526-9.92 14.232-.758-.325-2.006-.95-3.383-1.607m99.83-138.164v6.667c-1.59-2.53-2.078-4.79-.362-6.336.126-.113.246-.222.36-.33m0-16.523v9.715c-.268-.324-.544-.668-.815-1.046-1.507-2.11-.616-5.616.816-8.67m0-22.98v3.85c-.39.096-.817-.048-1.246-.576-1.254-1.544-1.158-2.51.483-2.99.267-.143.524-.237.763-.285m0-125.238a9.53 9.53 0 0 0-.188.056c-3.598-.515-5.14 0-9.765-2.056-4.626-2.056-9.252 6.682-2.057 12.335 4.125 3.24 8.42 3.104 12.01 1.622v-11.957zm0-81.44v6.62c-3.823.53-6.24 1.388-4.15 3.248 3.883 3.45-6.468 6.47-.86 9.488 5.605 3.02 3.88 9.92-1.726 9.92-5.607 0 .43 3.88-3.882 8.195-4.314 4.313-3.02 7.332-9.057 7.332-6.038 0 7.33 9.488.43 9.488s-9.056 8.626-2.155 7.763c6.9-.86 6.47 2.157-.863 5.608-7.333 3.45-18.977 3.45-22.427 9.056-3.45 5.607-16.39 5.176-16.39 10.353 0 5.174-2.155 24.15-12.076 20.7-9.92-3.45-12.075-13.37-15.957-19.407-3.882-6.04 2.157-12.508-1.725-14.664-3.882-2.157 8.625-12.075 4.312-9.057-4.312 3.018-11.213-1.295-5.175-2.59 6.038-1.293 3.88-7.33-.43-6.037-4.314 1.294-9.06-.863-3.45-5.176 5.605-4.312 3.017-3.02-.864-4.312-1.863-.62-2.435-2.832-3.384-5.155V52.973c8.61 1.304 9.238 7.11 14.166 5.877 5.176-1.293-6.038-12.507 6.9-4.744 12.94 7.764 3.45-.862 9.058-.862 5.606 0-3.882-8.195 6.038-7.763 9.92.43 9.92-5.606 22.427-5.606 15.095 0 42.266 12.507 28.465 10.782-13.8-1.725-32.346-2.157-23.72 3.02 8.625 5.174 10.35-4.745 13.37 0 3.018 4.744 8.193 0 11.644 3.018 3.18 2.78 7.455 2.27 11.48.484m0 210.53v-3.853c1.063-.214 1.79.454 1.554 1.634-.19.953-.8 2.033-1.553 2.217m2.797 14.36v31.594c-1.095-1.24-2.063-2.466-2.797-3.633v-6.668c3.542-3.348 1.94-4.486 0-6.808v-9.715a26.91 26.91 0 0 1 2.368-4.065c.147-.205.29-.442.43-.706m0-29.32v3.812c-.32-.01-.657-.188-.995-.603-1.254-1.545-1.158-2.51.483-2.993.175-.093.347-.166.512-.217m0-114.54v10.877a16.567 16.567 0 0 1-2.797 1.492v-11.957c1.01-.292 1.947-.42 2.797-.412m0-81.9v7.173c-.98.095-1.925.2-2.797.32v-6.62c.344-.152.686-.314 1.026-.484.492-.246 1.096-.367 1.77-.39m0 7.174v-7.174c5.23-.177 14.645 5.664 8.15 6.428-2.48.292-5.452.485-8.15.746m0 85.604v-10.877c4.673.05 6.713 4.217 3.697 7.663a18.566 18.566 0 0 1-3.697 3.214m0 107.476c.866.027 1.593-1.186 1.804-2.245.255-1.272-.61-1.948-1.804-1.568v3.813zm20.5-5.592v82.55c-3.605-2.608-7.75-7.093-11.38-10.723-2.648-2.65-6.303-5.94-9.12-9.132v-31.594c2.034-3.84 3.502-13.423 7.756-13.847 4.55-.457 7.732-5.458 7.732-9.552 0-3.216 1.965-6.15 5.013-7.702m0-29.132v21.087c-2.277.058-4.102-.166-4.102-2.444 0-4.547-3.183-6.367-.91-10.46 2.274-4.093 0-8.186 4.547-8.186.16 0 .315.002.466.004m0-41.09v15.053c-2.25.688-4.653-1.03-3.953-4.183.994-4.476-2.338-11.354 3.954-10.87m0-68.288v5.36c-2.545-1.6-3.465-5.043 0-5.36m0 5.36v-5.36c.35-.033.744-.033 1.187.003 3.598 0 6.167 6.167 1.542 6.167a5.124 5.124 0 0 1-2.73-.81m0 77.98c1.054-.322 2.074-1.168 2.73-2.64 2.055-4.627 2.055-12.852-2.057-12.338-.235-.034-.46-.058-.672-.075v15.052zm12.333 50.458v87.22c-2.322.72-4.43 1.386-6.43 2.052-1.58.526-3.635-.37-5.902-2.01v-82.55a10.567 10.567 0 0 1 2.72-.94c3.663-.732 4.966-2.94 9.613-3.772m0-23.885v21.84c-1.71.585-3.615.64-5.52-.55-1.817-1.135-4.54-.797-6.812-.74v-21.086c4.152.06 5.17.906 9.996.906.814 0 1.603-.133 2.337-.37m0-52.42v28.08c-3.987 1.707-6.814 4.005-7.548-.763-1.03-6.682-1.542-6.17 4.626-8.737 6.17-2.57-2.57-19.018 2.057-18.504a7.9 7.9 0 0 1 .866-.075m0 28.08c1.6-.686 3.388-1.277 5.3-1.277 6.684 0-.512-11.308.516-14.906.984-3.447.552-12.084-5.817-11.896v28.08zm10.39 46.94v85.612c-.8.054-1.56.178-2.267.397-3.023.93-5.69 1.74-8.123 2.495v-87.22c1.122-.2 2.438-.32 4.03-.32 2.58 0 4.57-.407 6.36-.964m0-47.035v35.873c-1.93.307-3.505 1.182-3.177 3.485.455 3.183-.91 2.73-3.183 4.548-1.083.867-2.475 1.836-4.03 2.37v-21.84c3.78-1.222 6.093-5.224 2.666-8.27-4.094-3.64-2.73-8.64-.456-12.735 2.142-3.853 3.476-2.467 8.18-3.43m0-23.57v3.812c-.32-.01-.657-.187-.995-.603-1.257-1.544-1.16-2.51.48-2.992.176-.094.347-.166.513-.218m0 3.813v-3.813c1.195-.38 2.06.297 1.805 1.57-.212 1.058-.94 2.27-1.805 2.243m2.987 65.724v86.762c-1.038-.108-2.04-.145-2.987-.08v-85.61c1.038-.324 2.01-.697 2.987-1.07m0-46.818v36.458c-.22.075-.456.114-.705.114-.756 0-1.545.033-2.282.152v-35.873a19.954 19.954 0 0 0 2.987-.85m0-7.487v3.813c-.32-.008-.657-.186-.994-.6-1.256-1.546-1.16-2.51.48-2.994.178-.094.35-.165.514-.218m0 3.813V189.6c1.196-.378 2.06.297 1.804 1.57-.21 1.058-.94 2.27-1.804 2.243m41.616 65.954V439.18c-.35-.38-.664-.82-.936-1.326-3.183-5.913 2.273-9.55-3.183-15.918-5.458-6.367-2.274-11.825-6.368-17.737-4.094-5.913-8.187-16.372-4.094-21.83 4.093-5.458 5.913-9.55 2.274-10.915-3.638-1.365 1.82-7.73-3.183-10.916-5.004-3.184-8.187-11.825-6.367-15.917 1.818-4.093 2.273-10.915-3.64-10.915-4.365 0-10.716-2.48-16.12-3.046v-86.76c2.682-1.03 5.415-2.06 9.754-2.06 8.64 0 15.01-3.185 14.1 3.637-.91 6.82 7.73 8.185 12.278 10.914 1.686 1.012 3.622 2.148 5.484 2.97m0-77.683c-1.278-.422-2.638-.78-4.12-.78-5.002 0-6.367 2.274-12.28 2.274-5.912 0-3.638-4.093-7.276-4.093-3.64 0-2.73 6.823-5.912 10.006-2.78 2.78-7.294 6.254-12.028 7.998v36.458c2.17-.727 2.807-4.895 1.568-9.438-1.365-5.002 7.277-3.183 14.553-3.183 7.277 0 8.187 5.003 13.19 6.823 5.004 1.82 5.457 6.366 5.457 12.733 0 6.368 5.003-2.273 5.913-5.002.288-.866.668-2.097.936-3.375v-4.6c-.32-.687-.897-1.122-1.846-1.122-3.638 0-4.547-1.364-7.73-4.548-3.184-3.183-.456-5.002 2.727-2.274 3.183 2.728 4.55 4.093 6.822 6.822l.026.033v-44.73zm0-58.996v48.21c-1.885 2.492-3.228 4.548-5.484 4.548-3.183 0-5.913 6.82-7.276 2.275-1.364-4.55-4.093-9.55-7.278-7.278-3.183 2.274-2.728 10.005-6.82 3.638-4.094-6.367-7.732-15.463-3.184-20.465 4.547-5.003 10.914-9.096 14.553-14.1 3.064-4.212 9.676-13.263 15.49-16.83m0-56.02V84.73c-.567.043-1.328-.246-2.405-1.053-6.168-4.627-7.197-8.225-.514-8.74 6.683-.513-6.17-5.653-9.252-2.055-3.084 3.598-9.766-8.738-.514-8.738 8.048 0 7.54.39 12.684 2.52m0 18.066V66.664c.77.32 1.665.677 2.736 1.078 10.793 0 7.71 2.57 12.85 6.168 5.14 3.598-1.543 12.336-8.738 7.196-5.94-4.242-4.176 3.42-6.848 3.624m0 147.37c.357-1.7.517-3.484 0-4.6v4.6zM547.6 396.52c-1.258 3.4-1.705 7.89 0 9.86v-9.86zm0-19.04c-.164.05-.336.124-.51.218-1.642.482-1.74 1.447-.484 2.99.337.417.676.594.993.605v-3.813zm0-239.337v168.402c-4.37-9.08-12.604-18.827-15.6-26.96-3.184-8.64-6.367-14.098-9.55-13.643-3.183.455 4.092 16.828 7.275 22.74 3.185 5.912 6.822 15.463 12.28 20.92 1.832 1.83 3.714 3.303 5.594 4.383v32.067c-.362.31-.712.59-1.046.843-5.46 4.093-6.822 13.644-10.007 15.008-3.183 1.363.91 3.637 2.73 7.276 1.818 3.64 2.274 15.463 0 20.01-2.274 4.55-6.367 10.006-10.005 10.46-3.64.456-4.093 6.824-1.364 8.643 2.727 1.818-.91 5.91-6.368 6.366-5.458.454.454 16.826-4.548 17.28-5.003.456-10.915 6.823-18.19 7.732-6.654.83-14.446 3.562-18.166-.492V259.364c3.16 1.394 6.105 1.88 7.25-.696 1.82-4.093 7.73-2.73 12.733-1.82 5.002.91 13.643 2.73 18.19 2.275 4.55-.455 9.098-4.548 9.552-8.64.454-4.095-5.912-5.004-13.643-5.004-7.733 0-10.916-1.365-9.553-5.913 1.366-4.548 3.64-8.64 7.732-10.46 4.092-1.82 7.73-2.73 11.823-2.73s9.55 3.185 14.554 2.73c5.002-.455 3.183-5.003-1.82-7.73-5.002-2.73-5.912-6.823-3.637-9.097 2.274-2.274.91-4.548-3.185-2.274-4.093 2.274-10.005 8.186-11.368 4.548-1.365-3.638-11.37-.455-11.37 5.002 0 5.458 1.365 6.367-.455 10.006-1.82 3.638-5.913 6.367-9.55 5.912-3.64-.455.453 6.367-3.185 8.186-3.637 1.82-5.456-2.73-7.732-7.277-2.264-4.53-4.077-7.255-6.34-9.972v-44.73c3.037 1.006 5.6 2.37 8.16.13 3.64-3.184-2.73-8.642 2.73-8.642 5.457 0 10.004.455 5.91-3.637-4.09-4.093 1.365-1.82 5.913-4.093 4.55-2.274 4.093-5.912-1.364-5.002-5.457.91-10.005 4.093-12.28-1.365-2.273-5.457 4.55-11.824 8.188-15.918 3.637-4.092-5.913-5.91-7.278-.91-1.363 5.004-6.822 7.278-8.64 12.28-1.82 5.003 5 9.55 1.365 13.19-1.062 1.06-1.93 2.158-2.704 3.182v-48.21c1.09-.67 2.15-1.146 3.156-1.36 6.368-1.365 15.463-9.552 22.74-6.368 7.277 3.184 10.004 2.274 15.462 6.367s5.004 6.367 10.916 7.276c5.912.91 7.276 8.64 0 8.64-7.277 0-11.825-4.093-14.553-1.82-2.73 2.275 2.73 4.55 5.457 7.732 2.728 3.184 7.73 5.457 10.006 4.094 2.274-1.365-4.548-5.912.454-4.548 5.003 1.364 10.005 1.82 6.82-.91-3.182-2.728 1.366-3.638 6.368-3.638.048 0 .092-.003.137-.005m0 243.15v-3.813c1.196-.38 2.06.296 1.806 1.57-.213 1.056-.94 2.27-1.807 2.243m9.05 3.078v32.356c-1.117 1.335-2.33 2.35-3.73 2.61-4.694.88-2.64-9.977-5.28-12.91l-.04-.047v-9.86c.644-1.74 1.498-3.196 2.387-3.888 1.47-1.14 4.027-5.007 6.664-8.262m0-68.396c-2.862.5-5.955-.215-9.05-1.99v32.067c2.624-2.24 5.93-5.942 9.05-10.082v-19.995zm0-181.35v83.108c-2.712 3.133-3.025 6.342 0 9.86v84.062c-2.82 1.95-5.725 2.54-8.278-3.417-.24-.56-.498-1.126-.773-1.693V138.145c4.734-.204-1.91-10.91 3.047-10.91 5.002 0 .91 11.825 4.546 8.64.47-.41.956-.83 1.458-1.25m0 201.347c3.49-4.63 6.747-9.807 8.548-14.09 3.64-8.64-1.818-8.186-6.82-6.366-.565.205-1.14.36-1.727.46v19.996zm0 80.757v-32.357c2.107-2.6 4.262-4.812 5.955-4.943 5.284-.293 5.284 6.163 1.76 9.098-3.52 2.934 3.523 17.607-.292 19.075-2.68 1.03-4.78 5.972-7.422 9.126m14.133-103.224v3.813c-.318-.01-.656-.19-.994-.604-1.255-1.544-1.158-2.51.483-2.992a3.11 3.11 0 0 1 .51-.218m0-72.367v30.49c-.53-.636-1.03-1.45-1.49-2.502-3.185-7.277-9.097-5.912-6.368-1.365 2.004 3.34 4.743 8.642 7.858 10.503v25.78c-3.56 1.27-7.296 2.455-9.222 3.738-1.538 1.028-3.21 2.7-4.91 3.873v-84.06c.496.574 1.08 1.157 1.758 1.75 6.144 5.377-3.072 9.217 9.985 11.52.79.14 1.59.23 2.39.272m0-113.62v87.446c-1.452-.747-4.542-.93-10.84-.21-1.32.99-2.426 1.98-3.292 2.98v-83.11c3.387-2.835 7.552-5.748 13.097-6.936.398-.086.742-.14 1.036-.17m0 189.8v-3.814c1.196-.378 2.06.298 1.806 1.57-.213 1.058-.94 2.27-1.807 2.243m5.283 9.98v3.812c-.32-.01-.657-.187-.993-.604-1.256-1.543-1.16-2.508.482-2.99a3.17 3.17 0 0 1 .51-.22m0-49.162v23.75c-1.502.766-3.367 1.476-5.282 2.16v-25.78c1.127.672 2.304.897 3.512.414.58-.232 1.17-.412 1.77-.544m0-37.355v33.234c-1.943-.22-3.748-.552-5.282-2.385v-30.49a22.54 22.54 0 0 0 5.283-.36m0-111.02v96.334c-8.678-3.556-1.54-9.206-5.283-11.128V127.52c4.416-.43-2.03 5.03 3.512 2.9a80.183 80.183 0 0 1 1.77-.66m0-29.913v17.826c-.22-.174-.447-.37-.69-.588-5.42-4.928-5.643-15.053.69-17.238m0 231.265V327.3c1.196-.38 2.06.296 1.806 1.568-.21 1.06-.938 2.27-1.804 2.244m2.936 26.12v3.813c-.32-.01-.658-.188-.995-.603-1.255-1.543-1.16-2.508.482-2.992a2.95 2.95 0 0 1 .512-.218m0-79.36v21.823c-.55.79-1.6 1.512-2.936 2.192v-23.75c.97-.212 1.96-.297 2.936-.266m0-37.833v34.386c-1.002-.22-1.985-.3-2.936-.41v-33.232c1.015-.186 2-.438 2.936-.743m0-111.267v98.28l-.026-.006a22.755 22.755 0 0 1-2.91-.95V129.76c.97-.347 1.953-.68 2.936-.99m0-30.03v19.913c-.692.302-1.625.057-2.936-.98V99.847c.273-.093.555-.174.85-.237a5.906 5.906 0 0 0 2.086-.87m0 19.913V98.74c4.583-3.09 3.19-11.98 12.307-11.98 10.28 0 4.11-5.654 15.932-2.57 6.683-.513 1.03 7.71-4.626 7.71-5.652 0-19.017 11.307-20.56 16.96-1.082 3.973-1.15 8.958-3.054 9.793m0 181.042V277.87c3.17.1 6.206 1.413 8.027 3.537 2.728 3.183-6.37 14.1-7.733 17.738-.07.187-.17.37-.295.55m0 61.35v-3.813c1.195-.378 2.058.297 1.804 1.57-.212 1.058-.94 2.27-1.804 2.243m46.952-25.06v.895c-.117-.342-.118-.64 0-.896m0-10.153v3.814c-.318-.01-.656-.187-.993-.602-1.254-1.545-1.158-2.51.483-2.992.176-.094.347-.166.51-.22m0-12.618v3.063c-.548.775-1.357 1.144-2.167.148-1.253-1.545-1.157-2.51.484-2.99.657-.353 1.255-.404 1.684-.22m0-177.156c-.55.417-1.232.817-2.087 1.184-6.368 2.73-8.642-.454-5.46-4.548 3.185-4.093 5.004-6.82 3.64-14.098-1.365-7.277 0-14.098-4.548-13.188-4.548.91-7.732 12.28-7.732 16.372 0 4.093 3.184 5.457-2.274 5.457s-7.275-5.457-11.37-5.457c-4.092 0-.91 4.547-5.002 4.547-3.034 0-7.57 1-12.12 2.445v98.28c12.735 3.333 8.34 10.264 0 12.987v34.386c1.144.25 2.31.678 3.478 1.527 5.004 3.638 3.64 0 11.826 0s7.73-.91 14.098 4.548c6.366 5.457 10.004 7.277 14.098 7.277 4.093 0-1.818 13.643 2.275 18.646a25.83 25.83 0 0 1 1.177 1.576v-171.94zm0-24.906v4.492c-.38-1.58-.593-3.143 0-4.49m0 205.123v-3.063c.517.22.79.78.632 1.57a4.065 4.065 0 0 1-.632 1.493m1.614 18.706v3.745c-.274-.053-.56-.234-.847-.586-.382-.474-.64-.89-.766-1.26v-.896c.17-.364.58-.64 1.25-.838a3.2 3.2 0 0 1 .364-.165m0-4.8v1.465c-.31-.606-.316-1.09 0-1.464m0-4.004v1.88c-.322.847-.924 1.61-1.614 1.588v-3.813c.71-.223 1.304-.077 1.614.346m0-191.91V310.48a50.447 50.447 0 0 0-1.614-2.484v-171.94c.76-.577 1.266-1.187 1.614-1.79m0-24.975v15.215c-1.144-.337-1.64-.937-.973-2.272.888-1.776-.065-4.202-.64-6.59v-4.492c.3-.683.812-1.31 1.613-1.86m0 218.767v-1.88c.215.29.295.706.192 1.223-.043.217-.108.44-.192.657m1.615 12.69v3.358a2.03 2.03 0 0 1-.407-.39c-1.236-1.52-1.16-2.48.407-2.968m0-5.634v2.38c-.37.758-.96 1.36-1.615 1.232v-3.744c.674-.256 1.256-.187 1.615.133m0-5.76v3.813c-.318-.01-.656-.188-.994-.603a5.366 5.366 0 0 1-.622-.918v-1.464c.217-.253.582-.455 1.103-.61.177-.093.35-.164.513-.217m0-199.107v182.932a142.558 142.558 0 0 0-1.615-2.698V134.265c.998-1.72.745-3.375 1.615-4.02m0-21.695v16.26c-.617-.08-1.165-.173-1.615-.305V109.29a7.56 7.56 0 0 1 .392-.247c.533-.31.93-.463 1.223-.493m0 224.616v-3.813c1.195-.378 2.06.297 1.804 1.57-.21 1.058-.94 2.27-1.804 2.243m0 4.326v-2.38c.32.283.463.763.338 1.387-.065.328-.182.674-.337.992m0 6.613v-3.358l.076-.024c1.446-.772 2.605-.097 2.315 1.35-.258 1.293-1.284 2.813-2.392 2.032m15.704-23.052c-.23-.03-.46-.03-.698.014-4.003-.567-2.667 7.39.697 7.734v-7.747zm0-209.224v191.604c-1.11 1.96-.31 7.774-1.465 11.628-1.365 4.547-3.64 8.186-6.822 7.73-2.064-.294-4.7-4.986-7.417-9.614V130.246c.244-.18.577-.282 1.05-.282 3.183 0 6.367 5.457 10.916 5.457 4.546 0 .453-6.82-4.55-9.095-2.444-1.11-5.324-1.245-7.417-1.515v-16.26c2.714-.277-3.52 10.1 4.69 6.406 9.094-4.093 1.818-3.64 6.366-4.548 2.157-.432 3.61.275 4.647 1.42m0 216.973v-7.747c2.88.388 4.87 6.255 1.062 7.608a2.406 2.406 0 0 1-1.063.14m34.184-4.435v3.813c-.317-.01-.656-.187-.992-.604-1.256-1.543-1.16-2.51.482-2.992.175-.092.347-.166.51-.217m0-234.5V295.72a4.29 4.29 0 0 0-1.538-1.578c-4.55-2.73-9.552-5.913-15.92-2.274-6.365 3.638-13.642 10.46-15.916 10.914-.348.07-.61.3-.81.652V111.83c1.147 1.27 1.78 3.08 2.28 4.483.954 2.672 6.777 7.826 8.97 11.357 2.197 3.532 3.82 4.58 3.82 1.337 0-3.246-2.863-7.444-4.772-8.78-1.91-1.337.57-8.877-3.722-10.69-4.296-1.814-7.16-7.16-1.72-7.827 5.442-.668 6.54-1.21 9.158-3.826 2.618-2.617 11.07-5.837 18.317-7.65.67-.167 1.285-.287 1.854-.37m0-27.31v7.097c-2.766-1.654-2.882-6.863 0-7.096m0 7.097v-7.096c.165-.013.338-.01.52.01 3.124-2.233 15.177-1.786 10.935-.894-4.24.893-4.91 8.482-9.597 8.482-.71 0-1.332-.188-1.857-.5m0 258.526c.868.026 1.594-1.186 1.807-2.244.253-1.273-.61-1.948-1.806-1.57v3.814zm19.903 15.06v16.26c-1.236-.983-2.367-2.05-3.257-3.097-4.46-5.246-12.328-16-5.508-16.525 2.702-.262 5.81 1.13 8.765 3.362m0-255.006v228.24c-3.165-2.863-6.435-4.68-6.435-1.864 0 3.64 0 10.46 3.183 11.825.903.387 2.06 1.247 3.253 2.426v10.365c-.477-.39-.96-.728-1.432-.964-3.637-1.82-2.272-9.55-5.91-11.825-3.64-2.273-5.458-4.547-2.275-10.914 3.183-6.366-.455-10.46-5.912-10.46-4.626 0-2.39-5.882-4.372-9.336V89.864c5.595-.814 6.678 2.034 9.417.573 3.02-1.61 8.654 2.213 10.264-1.61.083-.194.157-.392.223-.596m0 250.99c3.203 2.628 6.3 7.758 6.3 2.22 0-4.566-3.273-9.598-6.3-12.584v10.365zm0 20.278v-16.26c5.94 4.484 11.26 12.37 11.434 17.098.21 5.668-6.47 3.102-11.434-.838m22.362 4.33v3.58c-6.358-.227-8.604-3.917-1.485-3.662.518 0 1.014.03 1.485.083m0-20.848v7.518c-1.173-2.147-2.77-4.783 0-7.518m0-51.964a1.394 1.394 0 0 0-.225-.017c-2.625.376-2.043 3.958.225 4.99v-4.972zm0-203.845v8.3c-5.808 1.42-11.562 5.01-14.243 9.477-2.73 4.55 2.73 5.913 6.368 2.274 2.466-2.468 4.1-4.935 7.875-5.7v185.978c-5.93.81-12.406 4.283-9.24 9.823 3.638 6.366 6.367 10.915 6.82 13.644.457 2.726-4.547 5-7.275 10.004-2.73 5.002-6.367 2.274-10.005-1.82a35.495 35.495 0 0 0-2.662-2.685V88.23c1.265-3.805.276-9.095 5.845-9.657 8.186 0-.455 7.732 5.003 7.276 3.787-.316 7.576.682 11.515 1.323m0 8.3v-8.3c1.737.283 3.504.496 5.313.496 5.912 0 .91 6.366-5.003 7.73l-.31.074m0 200.517v-4.972c2.19.356 2.852 5.878.367 5.113a2.93 2.93 0 0 1-.367-.14m0 54.51v-7.518c.685-.678 1.638-1.362 2.934-2.046 7.105-3.75 9.473-11.053 14.013-11.053 2.762-.197 2.96 3.948 2.17 8.88-.79 4.936-8.29 17.766-10.856 17.568-2.565-.197-6.512-2.368-7.895-5.13-.112-.228-.237-.46-.367-.7m0 16.908v-3.58c4.77.547 6.824 3.59.615 3.59-.21 0-.415-.003-.615-.01m30.338 24.634v48.447c-1.666.446-3.57.433-5.35.296-3.94-.303-6.97 3.333-9.696 1.515-2.725-1.817 2.12-4.846-.91-11.813-3.028-6.968-2.724-14.542-4.845-18.177-2.12-3.634.605-11.51 8.178-11.814 7.574-.304 12.117-1.818 12.117-4.544 0-1.626-.537-3.037.506-3.91m0-40.66v4.21c-3.358-.952-6.195-6.187-3.324-6.366.76 0 2.133.965 3.323 2.155m0-44.637v4.752c-2.273-.23-4.39-4.932-1.548-5.1.51 0 1.044.128 1.548.348m0-11.97v5.884a3.957 3.957 0 0 1-1.154.014c-4.935-.59-5.725-6.314-.593-6.512.644 0 1.237.235 1.746.614m0-15.018c-.054-.003-.11-.003-.167-.003-3.54-.59-2.572 5.872.167 6.31v-6.306zm0-174.517V231.33c-.993-.258-2.195-.404-3.65-.404-7.276 0-8.642 7.277-4.093 7.277 4.546 0-1.82 10.005 1.82 14.098 3.636 4.094 7.73 12.28 4.092 15.92-3.64 3.636-4.55 9.094-8.187 10.913-3.637 1.82-11.37 8.186-17.737 8.186-.825 0-1.698.06-2.583.182V101.525c1.79-.363 4.06-.343 7.132.242 9.377 1.787 15.248.504 23.206 3.47m0 180.824v-6.306c3.75.188 2.754 6.7.03 6.31l-.03-.003zm0 14.597v-5.885c2.047 1.527 2.736 5.406 0 5.885m0 10.838v-4.752c1.837.804 3.23 2.84 1.214 4.39-.39.3-.805.403-1.214.362m0 44.096v-4.21c1.898 1.897 3.324 4.36 1.018 4.36-.34 0-.682-.053-1.017-.15m7.393 34.873v43.398c-1.464.17-2.628.795-3.05 2.383-.665 2.488-2.327 3.704-4.343 4.246V392.04c.706-.592 2.136-.937 4.948-.937 1.174 0 1.944-.242 2.446-.642m0-21.91v3.535c-.192-.095-.385-.255-.58-.494-1.254-1.545-1.16-2.51.484-2.992l.096-.05zm0-45.826v7.798c-.652-.02-1.344-.384-2.033-1.234-2.566-3.157-2.37-5.132.987-6.117.357-.192.71-.34 1.046-.446m0-215.622V240.9c-1.184-.92-2.217-1.844-2.403-3.152-.364-2.547-1.02-5.384-4.99-6.417V105.238c.146.055.295.11.442.17 2.27.88 4.645 1.343 6.95 1.698m0-7.806v5.932a14.32 14.32 0 0 1-.72-.49c-3.807-2.75-5.286-5.71-2.874-5.65 1.03-.516 2.264-.322 3.596.207m0 231.225v-7.798c2.445-.775 4.212.607 3.69 3.21-.432 2.163-1.92 4.642-3.69 4.588m0 41.563v-3.536c1.402-.69 2.502-.015 2.22 1.4-.246 1.225-1.18 2.655-2.22 2.136m4.93 10.56v51.588c-1.646-.246-3.443-.547-4.93-.375v-43.397c2.475-1.976-1.573-7.84 4.22-7.84.247 0 .484.01.71.025m0-274.81c-1.558-.27-3.225-.47-4.93-.733V240.9c1.693 1.318 3.697 2.623 3.964 5.034.142 1.273.46 2.502.967 3.564v-141.66zm0-5.88v5.323c-1.72-.414-3.332-1.025-4.93-2.048V99.3c1.57.622 3.273 1.71 4.93 2.66m3.7 282.212v50.216l-.17.037c-.894.178-2.16.014-3.53-.19V382.65c1.842.126 2.96.747 3.7 1.524m0-110.87v3.813c-.317-.01-.656-.187-.992-.604-1.256-1.542-1.16-2.508.482-2.99a3.17 3.17 0 0 1 .51-.218m0-164.56c-1.124-.402-2.372-.678-3.7-.905v141.66c.776 1.623 1.993 2.855 3.7 3.257v-13.626c-2.343-3.485-5.497-4.66-1.028-5.472.375-.07.717-.145 1.03-.23V108.742zm0-5.116v4.3c-1.303-.17-2.526-.363-3.7-.645v-5.32c1.29.737 2.552 1.387 3.7 1.666m0 4.3c1.056.138 2.16.263 3.335.41 5.076.634 2.028-4.938-1.92-4.58-.445.042-.92-.01-1.413-.13v4.3zm0 144.828v-13.626c.28.415.55.864.792 1.348 2.273 4.55 6.367 11.37 1.82 12.28-.973.194-1.842.18-2.61-.002m0 24.36v-3.812c1.196-.38 2.058.297 1.804 1.57-.212 1.057-.94 2.27-1.805 2.243m8.698 103.628v52.406c-3.982-.49-6.76.806-8.698 1.238v-50.216c1.72 1.797 1.424 4.418 3.464 3.602 3.03-1.213.608-6.968 4.545-6.968.25 0 .48-.023.69-.063m0-126.738v4.152c-3.435-1.968-1.804-4.935 0-4.152m0-138.118V224.29c-1.38.1-2.5.54-3.36 2.088-2.102 3.786-1.483 6.016-5.338 7.05V108.74c2.21.788 3.948 2.058 4.884 4.397 1.12 2.802 2.32 3.225 3.815 2.75m0 142.27v-4.152c.063.028.128.06.192.098 1.254.47 3.448 6.114-.157 4.076l-.035-.023zm5.378 118.878v57.725c-2-.936-3.787-1.416-5.378-1.61v-52.407c3.02-.58 2.315-4.997 5.378-3.708m0-24.585v4.236c-3.11-1.24-5.34-4.697-1.45-4.697.4 0 .91.175 1.45.46m0-239.117V224.21c-2.097.264-3.888-.027-5.378.08V115.887c1.448-.458 3.173-1.757 5.378-2.554m0 243.353v-4.236c2.374 1.262 5.32 4.67 2.103 4.67-.708 0-1.427-.165-2.103-.434m8.128 32.853v50.096c-.627-.31-2.085-1.33-5.41-3.393a26.14 26.14 0 0 0-2.717-1.483v-57.725c.093.04.192.084.294.135 3.636 1.818 5.755 4.544 6.968 9.39.307 1.225.554 2.198.866 2.98m0-142.98v3.81c-.19.246-.42.494-.698.74-3.2 2.858-4.106-5.76-1.377-5.216.667-.23 1.49.06 2.076.665m0-5.463v2.312c-1.005-.187-1-1.32 0-2.313m0-128.387v67.024c-4.148 1.22-3.538 5.444 0 5.358v34.242c-1.257 1.634-2.745 3.01-4.586 3.86a11.88 11.88 0 0 1-3.54 1.015V113.332c1.06-.384 2.234-.65 3.54-.65 1.844 0 3.32.032 4.587.027m0 137.66v-3.81c.82.84 1.176 2.295 0 3.81m3.945 142.078v47.545c-1.174-2.916-2.04-4.73-2.992-3.146-1.13 1.884.08 3.3-.952 2.79v-50.098c.657 1.637 1.595 2.426 3.945 2.908m0-40.787v9.984c-2.937-4.737-4.992-9.797-2.075-10.05.59-.066 1.295-.032 2.075.067m0-106.61v3.062l-.07.076c-1.212 1.33-1.705-2.88.07-3.138m0-5.308v3.276c-.616-.226-1.406-.22-2.448.166-.633.234-1.13.29-1.496.225v-2.313c.3-.295.687-.58 1.16-.82.958-.487 1.9-.54 2.785-.535m0-54.98v27.673c-1.113 2.336-2.343 4.823-3.944 6.9V185.09a4.96 4.96 0 0 0 .873-.1c1.082-.215 2.112-.303 3.072-.23m0-72.372v66.01a8.85 8.85 0 0 1-3.072 1.136c-.312.05-.6.12-.872.198V112.71c1.54-.007 2.763-.07 3.945-.32m0-25.554v3.177c-.72-1.104-.906-2.32 0-3.177m0 125.6V184.76c3.078.23 5.438 2.095 6.478 6.6 1.364 5.912-1.365 11.825-4.094 16.372-.8 1.33-1.56 2.976-2.385 4.703m0 35.677c1.28-1.404 1.52-1.76.635-3.003a1.47 1.47 0 0 0-.635-.06v3.062zm12.928 129.67V453.5c-3.444-.64-6.11-.822-8.65-4.534-1.878-2.745-3.205-6.316-4.278-8.973v-47.545c.963.198 2.16.343 3.672.475 4.847-.303 4.544-7.877 4.544-12.117 0-2.57 2.447-4.027 4.713-3.025m0-23.86v14.097c-2.497 1.48-5.282 3.837-7.897.354-1.482-1.553-3.393-4.088-5.03-6.726v-9.983c3.892.496 9.672 2.632 12.435 2.302.158-.018.32-.032.493-.04m0-120.948v.82a1.296 1.296 0 0 1-.265.61c-1.02 1.223-1.338 3.234-1.556 5.19-.218 1.955-1.446 4.21-3.066 4.592-1.62.38-3.092.58-3.505 1.782-.412 1.202-1.63 1.1-2.393-.445-.49-.988-1.047-2.107-2.142-2.505v-3.276c1.57.01 2.963.202 3.93-1.51 1.517-2.68 3.363-1.485 4.047-3.896.684-2.41.587-5.63 2.532-5.08.976.215 2.207 2.186 2.42 3.718m0-21.303c-1.05-.964-2.24-1.677-3.07-1.613-2.585.225.636 3.837 3.07 5.34v-3.726zm0-13.186v7.913c-2.755-2.246-2.738-8.717-.405-7.94.138 0 .273.01.403.027m0-11.907v2.784c-2.284-.722-3.916-3.515-.56-2.816.195 0 .382.012.56.033m0-79.514v58.015c-2.234-.088-4.093.45-5.086 2.633-1.81 3.98-4.194 8.536-7.842 10.69v-66.01c1.448-.305 2.834-.887 4.66-1.982 1.96-1.177 5.277-2.524 8.268-3.345m0-6.962v2.853c-.52.368-1.317.626-2.428.674-5.132.224-5.802-4.017-1.116-4.463 1.584-.15 2.81.285 3.543.937m0-14.398v5.33c-2.216 1.19-5.88 1.378-8.253 1.657-1.6.187-3.664-1.135-4.675-2.677v-3.177c.673-.636 1.944-1.075 4.04-1.125 3.37-.27 6.826-.71 8.888-.008m-1.567 130.18c.69.258 1.188.605 1.567.987v9.163c-1.186-1.095-3.404-3.307-2.326-.953 1.192 2.608.994 3.307-.24 3.21-1.23-.098-2.713-2.87-2.95-4.702-.238-1.833 2.42.35 3.184-1.45.763-1.8-1.535-7.327.766-6.255m1.567-124.85v-5.33c1.173.398 1.895 1.166 1.895 2.546 0 1.292-.756 2.17-1.895 2.782m0 11.92v-2.85c.965.858 1.07 2.09 0 2.85m0 86.41v-2.785c2.813.33 3.357 3.093.85 2.946a3.596 3.596 0 0 1-.85-.162m0 17.037v-7.913c2.975.4 3.913 5.133 2.26 4.832-1.722-.313.628 5.33-2.194 3.136l-.067-.055zm0 9v-3.726c1.53 1.408 2.756 3.35 2.104 4.187-.31.398-1.146.133-2.104-.46m0 18.396v-.82c.04.296.044.573 0 .82m10.935 224.182v9.273c-1.06.472-2.266.237-3.47-1.248-3.05-3.75-2.814-6.096 1.17-7.268.817-.435 1.594-.68 2.3-.757m0-60.546v58.113c-1.483.73-2.98.847-4.438.086-2.473-1.29-4.603-1.78-6.497-2.13v-75.72c1.474.653 2.87 2.345 3.467 5.45.696 3.618 3.822 9.026 7.468 14.2m0-33.814v6.137c-4.975-1.09-6.422-3.308-9.148-2.566-.573.155-1.172.467-1.787.83V353.92c3.437-.18 9.438 1.592 9.042 4.977-.14 1.197.803 2.953 1.893 4.72m0-252.49v55.177c-.476.026-.964.042-1.468.042-3.076 0-6.584-1.155-9.467-1.268v-58.015c3.942-1.084 7.32-1.256 6.284 1.07-1.82 4.094 1.364 7.733 3.183 5.004.474-.71.947-1.42 1.468-2.01m0-20.66v3.7c-3.867-.604-5.3-4.115-.195-3.707.065 0 .13.003.195.008m-10.935 126.4c1.202 1.218 1.204 2.807 2.405 3.084 1.578.362 4.6 1.556 2.283 2.916-2.318 1.36-3.333 4.348-4.346 3.473-.098-.085-.213-.19-.34-.307v-9.164zm10.935-122.702v-3.698c2.64.174 5.717 3.786 1.144 3.786-.4 0-.782-.032-1.144-.088m0 275.587v-6.137c2.144 3.476 4.86 6.988 1.01 6.333-.352-.06-.69-.127-1.01-.197m0 97.495v-9.273c2.333-.256 3.87 1.338 3.33 4.04-.427 2.125-1.708 4.51-3.33 5.233m14.656-51.194v13.166a41.365 41.365 0 0 1-1.525 5.81c-2.156 6.228-7.532 17.758-13.132 20.513V397.43c4.29 6.083 9.3 11.843 11.92 13.972 1.302 1.057 2.19 2.686 2.736 4.652m0-60.384v4.364c-3.66-1.99-6.705-6.127-3.092-5.676.67 0 1.85.54 3.092 1.312m0-240.634v52.224c-.77.117-1.59-.013-2.48-.46-4.128-2.063-7.507-.755-12.176-.496v-55.176c1.482-1.678 3.353-2.384 6.718.644 2.118 1.906 5.024 2.826 7.938 3.264m0 314.184v-13.166c1.03 3.697.86 8.593 0 13.166m4.363-12.972v3.813c-.318-.01-.656-.187-.993-.603-1.255-1.544-1.158-2.51.483-2.99.175-.095.347-.167.51-.22m0-56.787v1.443c-.207.106-.516.165-.943.165-1.078 0-2.28-.413-3.42-1.034v-4.364c1.743 1.085 3.607 2.63 4.363 3.79m0-244.06v48.475c-1.363 1.818-2.757 3.14-4.363 3.385v-52.224c1.486.224 2.977.324 4.363.364m0 245.503v-1.443c.43.655.503 1.186 0 1.443m0 59.158v-3.812c1.197-.38 2.06.295 1.806 1.568-.212 1.058-.938 2.27-1.806 2.245m9.547-53.41v3.8c-4.377-.97-8.455-3.24-4.174-4.335 1.095-.17 2.628.077 4.174.534m0-195.77v22.354c-2.932.7-6.246.066-6.466-1.907-.34-3.072 1.195-6.826.17-9.386-1.022-2.56-1.877-3.583 3.243-8.02a33.718 33.718 0 0 0 3.054-3.04m0-51.443v34.53c-1.784.132-3.778 1.192-5.476 3.738-1.443 2.166-2.743 4.4-4.07 6.17V115.4c1.734.05 3.31.01 4.526.01 1.89 0 3.488 1.94 5.02 4.027m0 251.013v-3.8c4.028 1.192 8.133 3.815 4.708 4.205-1.31.147-3.032-.033-4.708-.405m9.97 4.686v3.65c-3.742-.507-7.367-5.087-2.894-5.087.758 0 1.898.623 2.895 1.436m0-208.64v20.645c-.302-.02-.656-.15-1.077-.42-4.266-2.73-2.73.682-4.95 4.095-.793 1.222-2.31 2.03-3.944 2.42V170.88c2.87-3.204 4.466-5.755 7.87-5.493.676-.068 1.398.367 2.1 1.11m0-42.618v33.14c-2.336.804-4.65.9-5.44-.678-.727-1.457-2.49-2.524-4.53-2.374v-34.53c1.786 2.433 3.48 5.068 5.44 5.068 1.48 0 2.96-.3 4.53-.627m0-7.62v3.048c-2.307-.67-4.114-3.072-.734-3.072.258-.014.502-.004.735.024m0 3.048v-3.048c2.698.327 3.655 3.22 1.14 3.22-.378 0-.766-.064-1.14-.172m0 67.833c2.766.195 1.053-8.987 3.36-9.295 2.054-.274-.505-8.343-3.36-11.35v20.646zm0 191.645v-3.65c1.865 1.52 3.23 3.697.66 3.697-.22 0-.44-.018-.66-.047m6.5 21.22v5.413c-3.593-1.73-5.58-5.527-1.007-5.527.323 0 .66.042 1.007.116m0-232.515v3.393c-2.26-.635-3.734-3.298-.58-3.448.2 0 .394.02.58.056m0-9.84v5c-5.116-.93-5.015-2.72-.118-4.945l.118-.054zm0-34.577v30.67c-.635.032-1.32.266-1.935.78-1.15.956-2.864 1.914-4.565 2.498v-33.14c1.965-.41 4.07-.856 6.5-.807m0 47.81v-3.392c2.352.45 3.487 3.53.956 3.53-.325 0-.648-.05-.955-.137m0 234.535v-5.412c3.893.837 8.848 5.967 3.84 6.245-1.337.076-2.673-.27-3.84-.832m9.016 63.108v9.007c-1.805 1.546-3.224 3.204-3.66 5.06-1.21 5.148-2.423-4.848-3.332-7.576-.806-2.42 2.442-5.076 6.993-6.49m0-79.173v5.426c-3.582-1.235-6.256-6.438-3.053-6.705 1.014.08 2.088.58 3.054 1.28m0-205.975v2.82c-2.17-1.287-3.833-3.918-2.257-3.918.588.098 1.427.533 2.258 1.098m0-60.56v38.176c-2.945.495-3.872 2.513-8.677 1.712l-.338-.06v-4.997c3.722-1.752 2.155-4.01 0-3.906v-30.67c.407.008.82.03 1.248.068 4.385.4 2.48-1.65 7.768-.32m0 63.38v-2.822c2.068 1.41 4.08 3.632 2.01 3.51-.668-.04-1.362-.304-2.01-.69m0 208.58v-5.426c2.778 2.018 4.64 5.69 1.49 5.69a4.563 4.563 0 0 1-1.49-.264m3.44 72.555v7.588c-1.2.842-2.386 1.708-3.44 2.61v-9.007a22.54 22.54 0 0 1 1.792-.476c.724-.16 1.253-.407 1.648-.715m0-141.362v3.813c-.318-.01-.656-.187-.993-.6-1.255-1.547-1.16-2.512.482-2.995a3.21 3.21 0 0 1 .51-.217m0-202.142v37.514c-.664-.273-1.365-.455-2.112-.455-.49 0-.928.04-1.327.106V122.82c.743.187 1.628.44 2.693.776.257.083.507.16.747.235m0 205.956v-3.813c1.197-.38 2.06.296 1.805 1.57-.21 1.058-.938 2.27-1.805 2.243m6.635 130.148v9.82l-.103.114c-1.562 1.692-4.076 3.33-6.532 5.055v-7.588c2.587-2.013-.643-6.675 5.927-7.464.25 0 .486.022.708.064m0-19.854v9.636c-1.798-4.46-4.16-9.087-1.01-9.536.364-.076.7-.11 1.01-.1m0-322.327v45.442c-1.974 1.7-4.016-.778-6.635-1.85V123.83c7.864 2.438 7.33 1.436 3.8-3.417-2.426-3.336-.402-3.637 2.835-2.66m0 352c3.32-3.704 3.483-9.178 0-9.82v9.82zm4.284-24.363v15.36c-1.593-1.185-2.233-3.008-2.873-6.635-.235-1.326-.79-2.852-1.412-4.4v-9.635c2.443.068 3.292 2.63 4.284 5.31m0-325.948v37.918c-1.33 1.48-2.37 3.225-3.48 4.893a4.63 4.63 0 0 1-.805.942v-45.442c1.302.394 2.8.995 4.284 1.69m6.348 333.894v5.467c-.73 2.133-2.193 3.713-3.768 3.188-1.075-.358-1.912-.743-2.58-1.242v-15.36c.868 2.34 1.845 4.77 4.095 5.696 1.1.452 1.825 1.265 2.253 2.25m0-62.837v3.812c-.32-.01-.656-.188-.995-.604-1.253-1.544-1.157-2.51.484-2.99.175-.095.345-.167.51-.22m0-268.65v20.803l-.733-.407c-3.245-1.803-2.773.682.734 3.376v8.188c-2.886.486-4.813 1.844-6.35 3.552v-37.918c.358.167.716.34 1.07.517 1.637.818 3.437 1.39 5.28 1.89m0 272.462V390.5c1.195-.38 2.06.294 1.805 1.567-.21 1.06-.94 2.272-1.805 2.245m0 64.492v-5.467c.706 1.63.595 3.73 0 5.467m6.06-70.427v3.813c-.32-.01-.658-.188-.996-.602-1.254-1.545-1.157-2.51.483-2.993.176-.094.347-.165.512-.218m0-239.097v3.997c-.893.216-2.092.336-3.61.336-.887 0-1.7.068-2.45.195v-8.19c.918.705 2.04 1.423 3.36 2.082 1.086.544 1.99 1.074 2.7 1.58m0-25.822v22.04c-1.53-.342-3.91-1.65-6.06-2.847v-20.8c2.025.55 4.1 1.01 6.06 1.608m0 29.82v-3.998c2.586 1.84 2.658 3.352 0 3.997m0 238.913v-3.813c1.194-.38 2.06.298 1.804 1.57-.21 1.058-.938 2.27-1.803 2.243m4.492-266.856v14.02c-2.33.215-3.95 1.705-3.1 4.253.59 1.77-.096 2.18-1.393 1.89v-22.04c1.603.49 3.13 1.075 4.492 1.877m0-12.686v4.383c-4.303-.54-5.303-4.64 0-4.382m0 4.383v-4.382l.103.005c2.56-.17 5.973 4.437.854 4.437a7.7 7.7 0 0 1-.958-.06m0 22.325v-14.02c.506.297.99.625 1.448.99 4.548 3.64 9.55 7.277 16.373 7.277 6.822 0 0 10.915-4.548 12.28-4.547 1.364-4.547-3.184-8.64-5.458-1.545-.86-3.22-1.2-4.633-1.07" fill="#35928d"/></g></g></svg>