<?xml version="1.0" standalone="no"?><!DOCTYPE svg PUBLIC "-//W3C//DTD SVG 1.1//EN" "http://www.w3.org/Graphics/SVG/1.1/DTD/svg11.dtd"><svg width="100%" height="100%" viewBox="0 0 924 503" version="1.1" xmlns="http://www.w3.org/2000/svg" xmlns:xlink="http://www.w3.org/1999/xlink" xml:space="preserve" style="fill-rule:evenodd;clip-rule:evenodd;stroke-linejoin:round;stroke-miterlimit:1.41421;"><path d="M519.747,31.321c-0.418,0.418 -1.096,0.418 -1.513,0l-0.384,-0.383c-0.416,-0.416 -1.238,-0.757 -1.828,-0.757l-8.326,0c-0.589,0 -1.235,-0.453 -1.434,-1.007l-3.526,-9.787c-0.465,-1.289 0.277,-2.345 1.648,-2.345l6.93,0c0.302,-1.003 0.134,-1.81 -0.155,-2.246c-0.429,-0.644 -1.597,-1.832 -1.383,-3.616c0.07,-0.586 0.422,-1.498 0.782,-1.968c1.028,-1.347 2.528,-1.036 2.528,0.174c0,1.437 -0.761,2.874 1.944,4.649c2.704,1.775 4.553,5.25 4.553,5.26c0,0.01 0.338,0.357 0.756,0.777l4.572,4.571c0.418,0.418 0.418,1.096 0,1.513l-5.164,5.165Z" style="fill:#cbe3e2;fill-rule:nonzero;"/><path d="M526.036,26.411l-6.122,6.121l1.402,1.403l6.121,-6.123l-1.401,-1.401Z" style="fill:#cbe3e2;fill-rule:nonzero;"/><path d="M223.374,103.571l-0.698,-1.305l2.756,-1.472l0.699,1.307c0.826,-0.263 1.696,-0.401 2.582,-0.4l0,2.237c-2.709,-0.001 -5.215,1.756 -6.044,4.483c-1.015,3.338 0.869,6.868 4.207,7.883c0.612,0.186 1.231,0.274 1.837,0.274l0,2.238c-0.315,0 -0.633,-0.018 -0.951,-0.054l-0.432,1.417l-2.988,-0.908l0.43,-1.417c-1.084,-0.561 -2.011,-1.336 -2.745,-2.256l-1.306,0.698l-1.471,-2.756l1.306,-0.699c-0.356,-1.12 -0.483,-2.321 -0.346,-3.535l-1.417,-0.431l0.909,-2.989l1.417,0.43c0.561,-1.083 1.335,-2.011 2.255,-2.745M228.713,101.701c0.316,0 0.634,0.018 0.953,0.054l0.431,-1.418l2.989,0.909l-0.431,1.418c1.084,0.561 2.013,1.335 2.745,2.254l1.306,-0.696l1.471,2.756l-1.305,0.697c0.355,1.121 0.482,2.322 0.345,3.537l1.417,0.43l-0.908,2.989l-1.418,-0.431c-0.561,1.084 -1.335,2.012 -2.255,2.745l0.698,1.307l-2.757,1.471l-0.698,-1.306c-0.826,0.262 -1.696,0.4 -2.583,0.399l0,-2.238c2.71,0.001 5.216,-1.754 6.046,-4.482c1.015,-3.338 -0.869,-6.868 -4.208,-7.883c-0.612,-0.186 -1.23,-0.274 -1.838,-0.275l0,-2.237Z" style="fill:#cbe3e2;fill-rule:nonzero;"/><path d="M236.665,132.121l-0.664,0.058l-0.089,-1.009c-0.681,-0.088 -1.345,-0.298 -1.953,-0.616l-0.652,0.775l-1.919,-1.611l0.651,-0.775c-0.423,-0.548 -0.741,-1.158 -0.948,-1.818l-1.007,0.087l-0.218,-2.496l1.007,-0.088c0.089,-0.686 0.297,-1.342 0.618,-1.955l-0.776,-0.651l1.611,-1.92l0.775,0.651c0.548,-0.423 1.159,-0.741 1.819,-0.946l-0.088,-1.01l1.833,-0.159l0,2.826c-1.139,0 -2.241,0.497 -2.998,1.399c-1.388,1.653 -1.172,4.127 0.482,5.515c0.407,0.342 0.871,0.593 1.375,0.747c0.376,0.114 0.76,0.169 1.141,0.169l0,2.827ZM241.839,128.086l0.776,0.65l-1.612,1.921l-0.776,-0.651c-0.547,0.422 -1.156,0.74 -1.817,0.946l0.088,1.009l-1.833,0.16l0,-2.827c1.138,0.001 2.24,-0.496 2.998,-1.398c1.387,-1.654 1.172,-4.127 -0.482,-5.514c-0.408,-0.342 -0.872,-0.594 -1.376,-0.747c-0.375,-0.115 -0.76,-0.171 -1.14,-0.171l0,-2.826l0.663,-0.058l0.088,1.009c0.681,0.087 1.346,0.297 1.955,0.616l0.651,-0.775l1.92,1.611l-0.651,0.776c0.423,0.547 0.741,1.158 0.947,1.818l1.008,-0.089l0.219,2.497l-1.01,0.088c-0.087,0.687 -0.294,1.342 -0.616,1.955" style="fill:#cbe3e2;fill-rule:nonzero;"/><path d="M328.553,344.772l1.036,0l0,-0.278c-0.78,0 -1.413,-0.633 -1.413,-1.413c0,-0.78 0.633,-1.413 1.413,-1.413l0,-0.27l-1.036,0.002c-3.101,0.006 -2.973,3.372 0,3.372M329.589,344.772l24.482,0l0,-0.278c-0.78,0 -1.412,-0.633 -1.412,-1.413c0,-0.78 0.632,-1.413 1.412,-1.413l0,-0.27c-8.16,-0.012 -16.321,-0.012 -24.482,0l0,0.27c0.781,0 1.413,0.633 1.413,1.413c0,0.78 -0.632,1.413 -1.413,1.413l0,0.278ZM354.071,344.772l1.035,0c2.974,0 3.102,-3.366 0,-3.372l-1.035,-0.002l0,0.27c0.78,0 1.413,0.633 1.413,1.413c0,0.78 -0.633,1.413 -1.413,1.413l0,0.278Z" style="fill:#cbe3e2;"/><path d="M343.706,329.901c-0.78,0 -1.413,0.631 -1.413,1.412c0,0.781 0.633,1.412 1.413,1.412c0.78,0 1.413,-0.631 1.413,-1.412c0,-0.781 -0.633,-1.412 -1.413,-1.412" style="fill:#cbe3e2;"/><path d="M354.62,342.705l-9.64,-10.781c-0.222,-0.249 -0.608,-0.271 -0.857,-0.048c-0.249,0.222 -0.27,0.609 -0.048,0.856l9.64,10.783c0.223,0.249 0.608,0.269 0.857,0.047c0.249,-0.223 0.271,-0.608 0.048,-0.857" style="fill:#cbe3e2;"/><path d="M339.954,329.901c0.781,0 1.413,0.631 1.413,1.412c0,0.781 -0.632,1.412 -1.413,1.412c-0.78,0 -1.413,-0.631 -1.413,-1.412c0,-0.781 0.633,-1.412 1.413,-1.412" style="fill:#cbe3e2;"/><path d="M329.04,342.705l10.515,-11.76c0.222,-0.249 0.608,-0.269 0.857,-0.048c0.249,0.223 0.27,0.609 0.048,0.858l-10.514,11.76c-0.223,0.249 -0.609,0.269 -0.858,0.047c-0.249,-0.223 -0.27,-0.608 -0.048,-0.857" style="fill:#cbe3e2;"/><path d="M333.545,356.029c-2.462,0 -3.246,-1.205 -3.524,-2.808l-1.293,-7.444l4.932,0l0,1.015c-0.125,-0.041 -0.256,-0.063 -0.391,-0.063c-0.62,0 -1.062,0.467 -0.985,1.037c0.116,0.849 0.233,1.701 0.35,2.549c0.117,0.85 0.234,1.699 0.35,2.548c0.054,0.4 0.327,0.749 0.676,0.922l0,2.244l-0.115,0ZM333.66,345.777l4.062,0l0,0.963c-0.057,-0.007 -0.114,-0.011 -0.174,-0.011c-0.619,0 -1.092,0.467 -1.048,1.037c0.064,0.849 0.13,1.701 0.196,2.549c0.066,0.85 0.129,1.699 0.194,2.548c0.037,0.48 0.389,0.885 0.832,1.002l0,2.164l-4.062,0l0,-2.244c0.149,0.073 0.31,0.114 0.476,0.114c0.558,0 0.963,-0.466 0.903,-1.036c-0.089,-0.849 -0.177,-1.698 -0.267,-2.548c-0.09,-0.848 -0.181,-1.7 -0.269,-2.549c-0.046,-0.445 -0.396,-0.829 -0.843,-0.974l0,-1.015ZM337.722,345.777l4.105,0l0,0.952c-0.617,0 -1.118,0.467 -1.109,1.037c0.014,0.849 0.027,1.701 0.04,2.549c0.015,0.85 0.025,1.699 0.04,2.548c0.009,0.57 0.474,1.036 1.028,1.036l0.001,0l0,2.13l-4.105,0l0,-2.164c0.085,0.023 0.171,0.034 0.261,0.034c0.555,0 0.989,-0.466 0.964,-1.036l-0.112,-2.548c-0.038,-0.848 -0.078,-1.7 -0.114,-2.549c-0.023,-0.516 -0.456,-0.948 -0.999,-1.026l0,-0.963ZM341.827,345.777l4.104,0l0,0.965c-0.54,0.079 -0.974,0.51 -0.997,1.024c-0.036,0.849 -0.077,1.701 -0.114,2.549c-0.037,0.85 -0.077,1.699 -0.114,2.548c-0.025,0.57 0.411,1.036 0.966,1.036c0.089,0 0.175,-0.011 0.259,-0.034l0,2.164l-4.104,0l0,-2.13c0.558,0 1.019,-0.466 1.028,-1.036c0.015,-0.849 0.027,-1.698 0.041,-2.548c0.013,-0.848 0.027,-1.7 0.04,-2.549c0.01,-0.57 -0.488,-1.037 -1.107,-1.037l-0.002,0l0,-0.952ZM345.931,345.777l4.065,0l0,1.015c-0.447,0.146 -0.798,0.529 -0.844,0.974c-0.088,0.849 -0.18,1.701 -0.27,2.549c-0.088,0.85 -0.18,1.699 -0.268,2.548c-0.06,0.57 0.346,1.036 0.904,1.036c0.167,0 0.329,-0.041 0.478,-0.114l0,2.244l-4.065,0l0,-2.164c0.443,-0.115 0.795,-0.521 0.832,-1.002c0.065,-0.849 0.132,-1.698 0.196,-2.548c0.064,-0.848 0.132,-1.7 0.195,-2.549c0.043,-0.57 -0.424,-1.037 -1.044,-1.037c-0.06,0 -0.12,0.004 -0.179,0.013l0,-0.965ZM349.996,345.777l4.937,0l-1.293,7.444c-0.278,1.603 -1.062,2.808 -3.524,2.808l-0.12,0l0,-2.244c0.35,-0.173 0.623,-0.522 0.677,-0.922c0.116,-0.849 0.234,-1.698 0.351,-2.548c0.116,-0.848 0.234,-1.7 0.35,-2.549c0.079,-0.57 -0.364,-1.037 -0.983,-1.037c-0.137,0 -0.27,0.022 -0.395,0.063l0,-1.015Z" style="fill:#cbe3e2;"/><path d="M519.253,166.978c-2.007,-0.002 -4.037,0.569 -5.832,1.765c-4.836,3.223 -6.143,9.755 -2.92,14.59c2.024,3.037 5.357,4.682 8.752,4.685l0,-1.962c-2.763,-0.003 -5.474,-1.341 -7.122,-3.813c-2.62,-3.93 -1.555,-9.245 2.378,-11.867c1.46,-0.973 3.112,-1.438 4.744,-1.437l0,-1.961ZM528.007,171.662c-2.024,-3.038 -5.357,-4.682 -8.754,-4.684l0,1.961c2.765,0.002 5.476,1.34 7.122,3.811c2.621,3.931 1.559,9.248 -2.374,11.869c-1.46,0.975 -3.113,1.439 -4.748,1.437l0,1.962c2.01,0.003 4.041,-0.57 5.838,-1.767c4.833,-3.222 6.139,-9.753 2.916,-14.589" style="fill:#cbe3e2;fill-rule:nonzero;"/><path d="M503.717,189.562l-1.576,-2.367l8.518,-5.677l1.576,2.367l-8.518,5.677Z" style="fill:#cbe3e2;fill-rule:nonzero;"/><path d="M504.045,189.441l-1.678,-2.52l5.77,-3.845l1.678,2.518l-5.77,3.847Z" style="fill:#cbe3e2;fill-rule:nonzero;"/><path d="M500.183,193.106c-1.113,0.744 -2.618,0.441 -3.36,-0.672c-0.742,-1.11 -0.44,-2.615 0.675,-3.356l8.563,-5.709c0.636,-0.424 1.399,-0.507 2.075,-0.293l1.68,2.518c-0.062,0.708 -0.432,1.38 -1.07,1.805l-8.563,5.707Z" style="fill:#cbe3e2;fill-rule:nonzero;"/><path d="M500.089,193.004c-1.045,0.699 -2.458,0.415 -3.155,-0.63c-0.696,-1.044 -0.414,-2.457 0.633,-3.153l8.044,-5.362c1.045,-0.697 2.457,-0.415 3.154,0.63c0.696,1.045 0.413,2.458 -0.631,3.154l-8.045,5.361Z" style="fill:#cbe3e2;fill-rule:nonzero;"/><path d="M199.734,237.497c3.277,0 5.95,-2.673 5.95,-5.95c0,-3.277 -2.673,-5.949 -5.95,-5.949c-3.276,0 -5.949,2.672 -5.949,5.949c0,3.277 2.673,5.95 5.949,5.95" style="fill:#cbe3e2;"/><path d="M206.766,210.539l0,4.162c-2.165,-0.904 -4.539,-1.404 -7.032,-1.404l0,-3.899c2.458,0 4.822,0.402 7.032,1.141M199.734,221.479c2.736,0 5.217,1.092 7.032,2.862l0,-4.974c-2.069,-1.196 -4.47,-1.881 -7.032,-1.881l0,3.993ZM206.766,214.701l0,-4.162c8.785,2.939 15.117,11.234 15.117,21.009l-3.898,0c0,-7.587 -4.631,-14.094 -11.219,-16.847M206.766,224.341c1.873,1.829 3.037,4.381 3.037,7.207l3.993,0c0,-5.205 -2.827,-9.749 -7.03,-12.181l0,4.974Z" style="fill:#cbe3e2;"/><path d="M582.528,153.689l0,-4.533c-1.413,-0.403 -2.45,-1.015 -3.11,-1.833c-0.66,-0.819 -0.99,-1.812 -0.99,-2.98c0,-1.183 0.374,-2.176 1.12,-2.98c0.746,-0.805 1.74,-1.268 2.98,-1.39l0,-1.071l1.569,0l0,1.071c1.146,0.137 2.059,0.528 2.736,1.173c0.678,0.646 1.111,1.509 1.298,2.591l-2.736,0.357c-0.166,-0.851 -0.599,-1.428 -1.298,-1.731l0,4.23c1.73,0.468 2.909,1.076 3.537,1.822c0.627,0.747 0.941,1.704 0.941,2.872c0,1.306 -0.395,2.405 -1.185,3.3c-0.789,0.894 -1.887,1.442 -3.293,1.644l0,2.023l-1.569,0l0,-1.969c-1.247,-0.151 -2.261,-0.617 -3.04,-1.395c-0.778,-0.779 -1.276,-1.879 -1.492,-3.3l2.823,-0.303c0.115,0.577 0.332,1.075 0.649,1.493c0.317,0.418 0.671,0.721 1.06,0.909ZM582.528,142.331c-0.425,0.144 -0.764,0.389 -1.017,0.735c-0.252,0.346 -0.378,0.729 -0.378,1.147c0,0.382 0.115,0.737 0.346,1.065c0.231,0.329 0.58,0.594 1.049,0.795l0,-3.742ZM584.097,153.84c0.54,-0.101 0.98,-0.351 1.319,-0.752c0.339,-0.4 0.509,-0.87 0.509,-1.411c0,-0.483 -0.143,-0.9 -0.428,-1.25c-0.284,-0.349 -0.751,-0.618 -1.4,-0.805l0,4.218Z" style="fill:#cbe3e2;fill-rule:nonzero;"/><path d="M352.727,43.85l0,-4.532c-1.414,-0.404 -2.45,-1.015 -3.11,-1.834c-0.66,-0.818 -0.99,-1.812 -0.99,-2.98c0,-1.183 0.373,-2.176 1.12,-2.98c0.746,-0.804 1.739,-1.267 2.98,-1.39l0,-1.071l1.568,0l0,1.071c1.147,0.137 2.059,0.528 2.737,1.174c0.678,0.645 1.111,1.509 1.298,2.59l-2.737,0.357c-0.166,-0.851 -0.598,-1.427 -1.298,-1.73l0,4.229c1.731,0.469 2.91,1.076 3.538,1.823c0.627,0.746 0.941,1.704 0.941,2.872c0,1.305 -0.395,2.405 -1.185,3.299c-0.79,0.894 -1.887,1.442 -3.294,1.644l0,2.023l-1.568,0l0,-1.969c-1.248,-0.151 -2.261,-0.616 -3.04,-1.395c-0.779,-0.779 -1.276,-1.879 -1.493,-3.299l2.824,-0.303c0.115,0.577 0.331,1.074 0.649,1.493c0.317,0.418 0.67,0.721 1.06,0.908ZM352.727,32.492c-0.426,0.144 -0.765,0.39 -1.017,0.736c-0.252,0.346 -0.379,0.728 -0.379,1.146c0,0.383 0.116,0.738 0.346,1.066c0.231,0.328 0.581,0.593 1.05,0.795l0,-3.743ZM354.295,44.002c0.541,-0.101 0.981,-0.352 1.32,-0.752c0.339,-0.4 0.508,-0.871 0.508,-1.412c0,-0.483 -0.142,-0.899 -0.427,-1.249c-0.285,-0.35 -0.752,-0.618 -1.401,-0.806l0,4.219Z" style="fill:#cbe3e2;fill-rule:nonzero;"/><path d="M704.042,92.146l0,-4.533c-1.414,-0.404 -2.45,-1.015 -3.11,-1.833c-0.66,-0.819 -0.99,-1.812 -0.99,-2.981c0,-1.182 0.373,-2.176 1.12,-2.98c0.746,-0.804 1.739,-1.267 2.98,-1.39l0,-1.071l1.568,0l0,1.071c1.147,0.137 2.059,0.529 2.737,1.174c0.678,0.645 1.111,1.509 1.298,2.591l-2.737,0.357c-0.166,-0.851 -0.598,-1.428 -1.298,-1.731l0,4.229c1.731,0.469 2.91,1.077 3.537,1.823c0.628,0.747 0.942,1.704 0.942,2.872c0,1.305 -0.395,2.405 -1.185,3.299c-0.79,0.895 -1.888,1.443 -3.294,1.645l0,2.022l-1.568,0l0,-1.968c-1.248,-0.152 -2.261,-0.617 -3.04,-1.396c-0.779,-0.779 -1.276,-1.878 -1.493,-3.299l2.824,-0.303c0.115,0.577 0.331,1.075 0.649,1.493c0.317,0.418 0.67,0.721 1.06,0.909ZM704.042,80.787c-0.426,0.145 -0.765,0.39 -1.017,0.736c-0.253,0.346 -0.379,0.728 -0.379,1.147c0,0.382 0.116,0.737 0.346,1.065c0.231,0.328 0.581,0.593 1.05,0.795l0,-3.743ZM705.61,92.297c0.541,-0.101 0.981,-0.352 1.32,-0.752c0.339,-0.4 0.508,-0.871 0.508,-1.411c0,-0.484 -0.142,-0.9 -0.427,-1.25c-0.285,-0.35 -0.752,-0.618 -1.401,-0.806l0,4.219Z" style="fill:#cbe3e2;fill-rule:nonzero;"/><path d="M413.028,182.544l-110.954,-59.472l1.36,-2.538l110.954,59.472l-1.36,2.538Z" style="fill:#63c7ba;"/><path d="M601.28,238.947l-187.984,-56.293l0.826,-2.759l187.984,56.293l-0.826,2.759Z" style="fill:#63c7ba;"/><path d="M476.146,348.275l-1.03,-2.689l2.689,-1.031l1.03,2.69l-2.689,1.03ZM473.055,340.207l-1.03,-2.689l2.689,-1.031l1.03,2.69l-2.689,1.03ZM469.964,332.139l-1.03,-2.69l2.689,-1.03l1.03,2.69l-2.689,1.03ZM466.873,324.071l-1.03,-2.69l2.689,-1.03l1.03,2.689l-2.689,1.031ZM463.782,316.003l-1.03,-2.69l2.689,-1.03l1.03,2.689l-2.689,1.031ZM460.691,307.934l-1.03,-2.689l2.689,-1.03l1.03,2.689l-2.689,1.03ZM457.6,299.866l-1.03,-2.689l2.689,-1.031l1.03,2.69l-2.689,1.03ZM454.509,291.798l-1.03,-2.689l2.689,-1.031l1.03,2.69l-2.689,1.03ZM451.418,283.73l-1.03,-2.689l2.689,-1.031l1.03,2.69l-2.689,1.03ZM448.327,275.662l-1.03,-2.69l2.689,-1.03l1.03,2.689l-2.689,1.031ZM445.236,267.594l-1.03,-2.69l2.689,-1.03l1.03,2.689l-2.689,1.031ZM442.145,259.525l-1.03,-2.689l2.689,-1.03l1.03,2.689l-2.689,1.03ZM439.054,251.457l-1.03,-2.689l2.689,-1.03l1.03,2.689l-2.689,1.03ZM435.963,243.389l-1.03,-2.689l2.689,-1.031l1.03,2.69l-2.689,1.03ZM432.872,235.321l-1.03,-2.689l2.689,-1.031l1.03,2.69l-2.689,1.03ZM429.781,227.253l-1.03,-2.69l2.689,-1.03l1.03,2.689l-2.689,1.031ZM426.69,219.185l-1.03,-2.69l2.689,-1.03l1.03,2.689l-2.689,1.031ZM423.599,211.116l-1.03,-2.689l2.689,-1.03l1.03,2.689l-2.689,1.03ZM420.508,203.048l-1.03,-2.689l2.689,-1.03l1.03,2.689l-2.689,1.03ZM417.417,194.98l-1.03,-2.689l2.689,-1.031l1.03,2.69l-2.689,1.03ZM414.326,186.912l-1.03,-2.689l2.689,-1.031l1.03,2.69l-2.689,1.03Z" style="fill:#63c7ba;"/><path d="M417.156,180.328l-1.817,-2.235l2.235,-1.816l1.817,2.235l-2.235,1.816ZM423.86,174.879l-1.816,-2.235l2.235,-1.816l1.816,2.234l-2.235,1.817ZM430.565,169.43l-1.816,-2.235l2.235,-1.817l1.816,2.235l-2.235,1.817ZM437.27,163.98l-1.816,-2.235l2.235,-1.816l1.816,2.235l-2.235,1.816ZM443.975,158.531l-1.817,-2.235l2.235,-1.817l1.817,2.235l-2.235,1.817ZM450.68,153.082l-1.817,-2.235l2.235,-1.817l1.817,2.235l-2.235,1.817ZM457.384,147.632l-1.816,-2.235l2.235,-1.816l1.816,2.235l-2.235,1.816ZM464.089,142.183l-1.816,-2.235l2.235,-1.817l1.816,2.235l-2.235,1.817ZM470.794,136.733l-1.816,-2.234l2.234,-1.817l1.817,2.235l-2.235,1.816ZM477.499,131.284l-1.817,-2.235l2.235,-1.816l1.817,2.235l-2.235,1.816ZM484.204,125.835l-1.817,-2.235l2.235,-1.817l1.816,2.235l-2.234,1.817ZM490.908,120.385l-1.816,-2.235l2.235,-1.816l1.816,2.235l-2.235,1.816ZM497.613,114.936l-1.816,-2.235l2.235,-1.816l1.816,2.235l-2.235,1.816ZM504.318,109.487l-1.817,-2.235l2.235,-1.817l1.817,2.235l-2.235,1.817ZM511.023,104.037l-1.817,-2.235l2.235,-1.816l1.817,2.235l-2.235,1.816ZM517.727,98.588l-1.816,-2.235l2.235,-1.816l1.816,2.235l-2.235,1.816ZM524.432,93.139l-1.816,-2.235l2.235,-1.817l1.816,2.235l-2.235,1.817ZM531.137,87.689l-1.816,-2.235l2.235,-1.816l1.816,2.235l-2.235,1.816ZM537.842,82.24l-1.817,-2.235l2.235,-1.816l1.817,2.235l-2.235,1.816ZM544.547,76.791l-1.817,-2.235l2.235,-1.817l1.817,2.235l-2.235,1.817ZM551.251,71.341l-1.816,-2.235l2.235,-1.816l1.816,2.235l-2.235,1.816ZM557.956,65.892l-1.816,-2.235l2.235,-1.816l1.816,2.234l-2.235,1.817ZM564.661,60.443l-1.816,-2.235l2.234,-1.817l1.817,2.235l-2.235,1.817Z" style="fill:#63c7ba;"/><path d="M555.675,61.204l-0.351,-2.859l2.858,-0.35l0.351,2.858l-2.858,0.351ZM564.251,60.151l-0.351,-2.858l2.858,-0.351l0.351,2.858l-2.858,0.351ZM572.826,59.098l-0.351,-2.858l2.859,-0.351l0.351,2.859l-2.859,0.35ZM581.402,58.046l-0.351,-2.859l2.858,-0.351l0.351,2.859l-2.858,0.351ZM589.977,56.993l-0.351,-2.859l2.859,-0.351l0.351,2.859l-2.859,0.351ZM598.553,55.94l-0.351,-2.858l2.859,-0.351l0.351,2.858l-2.859,0.351ZM607.129,54.887l-0.351,-2.858l2.858,-0.351l0.351,2.858l-2.858,0.351ZM615.704,53.835l-0.351,-2.859l2.859,-0.351l0.351,2.859l-2.859,0.351ZM624.28,52.782l-0.351,-2.859l2.858,-0.351l0.351,2.859l-2.858,0.351ZM632.855,51.729l-0.35,-2.859l2.858,-0.35l0.351,2.858l-2.859,0.351ZM641.431,50.676l-0.351,-2.858l2.859,-0.351l0.351,2.858l-2.859,0.351ZM650.007,49.623l-0.351,-2.858l2.858,-0.351l0.351,2.858l-2.858,0.351ZM658.582,48.571l-0.351,-2.859l1.14,-0.14l0.351,2.859l-1.14,0.14Z" style="fill:#63c7ba;"/><path d="M529.936,137.154l-1.623,-2.379l130.42,-88.963l1.623,2.379l-130.42,88.963Z" style="fill:#63c7ba;"/><path d="M524.947,134.642l-122.383,-99.732l1.819,-2.232l122.384,99.732l-1.82,2.232Z" style="fill:#63c7ba;"/><path d="M618.03,267.254l-92.546,-127.903l2.333,-1.688l92.547,127.903l-2.334,1.688Z" style="fill:#63c7ba;"/><path d="M603.071,237.985l-2.756,-0.836l0.837,-2.756l2.756,0.837l-0.837,2.755ZM605.581,229.718l-2.756,-0.837l0.837,-2.755l2.756,0.836l-0.837,2.756ZM608.091,221.451l-2.756,-0.837l0.837,-2.756l2.755,0.837l-0.836,2.756ZM610.601,213.183l-2.756,-0.836l0.836,-2.756l2.756,0.836l-0.836,2.756ZM613.11,204.916l-2.755,-0.837l0.836,-2.756l2.756,0.837l-0.837,2.756ZM615.62,196.648l-2.756,-0.836l0.837,-2.756l2.756,0.836l-0.837,2.756ZM618.13,188.381l-2.756,-0.837l0.837,-2.756l2.756,0.837l-0.837,2.756ZM620.64,180.113l-2.756,-0.836l0.837,-2.756l2.755,0.837l-0.836,2.755ZM623.15,171.846l-2.756,-0.837l0.836,-2.755l2.756,0.836l-0.836,2.756ZM625.659,163.579l-2.755,-0.837l0.836,-2.756l2.756,0.837l-0.837,2.756ZM628.169,155.311l-2.756,-0.836l0.837,-2.756l2.756,0.836l-0.837,2.756ZM630.679,147.044l-2.756,-0.837l0.837,-2.756l2.756,0.837l-0.837,2.756ZM633.189,138.776l-2.756,-0.836l0.836,-2.756l2.756,0.836l-0.836,2.756ZM635.699,130.509l-2.756,-0.837l0.836,-2.756l2.756,0.837l-0.836,2.756ZM638.208,122.241l-2.756,-0.836l0.837,-2.756l2.756,0.837l-0.837,2.755ZM640.718,113.974l-2.756,-0.837l0.837,-2.755l2.756,0.836l-0.837,2.756ZM643.228,105.707l-2.756,-0.837l0.837,-2.756l2.755,0.837l-0.836,2.756ZM645.738,97.439l-2.756,-0.837l0.836,-2.755l2.756,0.836l-0.836,2.756ZM648.247,89.172l-2.755,-0.837l0.836,-2.756l2.756,0.837l-0.837,2.756ZM650.757,80.904l-2.756,-0.836l0.837,-2.756l2.756,0.836l-0.837,2.756ZM653.267,72.637l-2.756,-0.837l0.837,-2.756l2.756,0.837l-0.837,2.756ZM655.777,64.369l-2.756,-0.836l0.837,-2.756l2.755,0.837l-0.836,2.755ZM658.287,56.102l-2.756,-0.837l0.836,-2.756l2.756,0.837l-0.836,2.756ZM660.796,47.834l-2.755,-0.836l0.126,-0.415l2.755,0.837l-0.126,0.414Z" style="fill:#63c7ba;"/><path d="M375.732,189.226l-0.959,-2.716l2.22,-0.784l0.959,2.716l-2.22,0.784ZM383.384,186.525l-0.959,-2.716l2.716,-0.959l0.958,2.716l-2.715,0.959ZM391.531,183.648l-0.959,-2.715l2.716,-0.959l0.958,2.716l-2.715,0.958ZM399.678,180.772l-0.959,-2.716l2.716,-0.958l0.959,2.715l-2.716,0.959ZM407.825,177.896l-0.959,-2.716l2.716,-0.959l0.959,2.716l-2.716,0.959ZM415.972,175.02l-0.958,-2.716l2.715,-0.959l0.959,2.716l-2.716,0.959ZM424.12,172.143l-0.959,-2.715l2.716,-0.959l0.958,2.716l-2.715,0.958ZM432.267,169.267l-0.959,-2.715l2.716,-0.959l0.959,2.716l-2.716,0.958ZM440.414,166.391l-0.959,-2.716l2.716,-0.958l0.959,2.715l-2.716,0.959ZM448.561,163.515l-0.959,-2.716l2.716,-0.959l0.959,2.716l-2.716,0.959ZM456.708,160.639l-0.958,-2.716l2.715,-0.959l0.959,2.716l-2.716,0.959ZM464.856,157.762l-0.959,-2.715l2.716,-0.959l0.958,2.716l-2.715,0.958ZM473.003,154.886l-0.959,-2.716l2.716,-0.958l0.959,2.715l-2.716,0.959ZM481.15,152.01l-0.959,-2.716l2.716,-0.958l0.959,2.715l-2.716,0.959ZM489.297,149.134l-0.958,-2.716l2.715,-0.959l0.959,2.716l-2.716,0.959ZM497.444,146.258l-0.958,-2.716l2.715,-0.959l0.959,2.716l-2.716,0.959ZM505.592,143.381l-0.959,-2.715l2.716,-0.959l0.958,2.716l-2.715,0.958ZM513.739,140.505l-0.959,-2.716l2.716,-0.958l0.959,2.715l-2.716,0.959ZM521.886,137.629l-0.959,-2.716l2.716,-0.959l0.959,2.716l-2.716,0.959Z" style="fill:#63c7ba;"/><path d="M690.644,305.249l-89.808,-66.524l1.714,-2.314l89.808,66.523l-1.714,2.315Z" style="fill:#63c7ba;"/><path d="M478.446,348.837l-1.911,-2.154l124.203,-110.192l1.911,2.154l-124.203,110.192Z" style="fill:#63c7ba;"/><path d="M255.6,278.304l-0.325,-2.861l2.861,-0.325l0.325,2.861l-2.861,0.325ZM264.184,277.33l-0.324,-2.862l2.861,-0.325l0.325,2.862l-2.862,0.325ZM272.769,276.355l-0.325,-2.861l2.862,-0.325l0.325,2.861l-2.862,0.325ZM281.354,275.381l-0.325,-2.862l2.862,-0.325l0.325,2.862l-2.862,0.325ZM289.939,274.406l-0.325,-2.862l2.862,-0.324l0.325,2.861l-2.862,0.325ZM298.524,273.432l-0.325,-2.862l2.862,-0.325l0.324,2.862l-2.861,0.325ZM307.109,272.457l-0.325,-2.862l2.861,-0.324l0.325,2.861l-2.861,0.325ZM315.694,271.483l-0.325,-2.862l2.861,-0.325l0.325,2.862l-2.861,0.325ZM324.278,270.508l-0.324,-2.862l2.861,-0.324l0.325,2.861l-2.862,0.325ZM332.863,269.533l-0.325,-2.861l2.862,-0.325l0.325,2.862l-2.862,0.324ZM341.448,268.559l-0.325,-2.862l2.862,-0.325l0.325,2.862l-2.862,0.325ZM350.033,267.584l-0.325,-2.861l2.862,-0.325l0.325,2.862l-2.862,0.324ZM358.618,266.61l-0.325,-2.862l2.862,-0.325l0.324,2.862l-2.861,0.325ZM367.203,265.635l-0.325,-2.861l2.862,-0.325l0.324,2.861l-2.861,0.325ZM375.788,264.661l-0.325,-2.862l2.861,-0.325l0.325,2.862l-2.861,0.325ZM384.372,263.686l-0.324,-2.861l2.861,-0.325l0.325,2.861l-2.862,0.325ZM392.957,262.712l-0.325,-2.862l2.862,-0.325l0.325,2.862l-2.862,0.325ZM401.542,261.737l-0.325,-2.861l2.862,-0.325l0.325,2.861l-2.862,0.325ZM410.127,260.763l-0.325,-2.862l2.862,-0.325l0.325,2.862l-2.862,0.325ZM418.712,259.788l-0.325,-2.862l2.862,-0.324l0.325,2.861l-2.862,0.325ZM427.297,258.814l-0.325,-2.862l2.862,-0.325l0.324,2.862l-2.861,0.325ZM435.882,257.839l-0.325,-2.862l2.861,-0.324l0.325,2.861l-2.861,0.325ZM444.466,256.864l-0.324,-2.861l2.861,-0.325l0.325,2.862l-2.862,0.324ZM453.051,255.89l-0.324,-2.862l2.861,-0.325l0.325,2.862l-2.862,0.325ZM461.636,254.915l-0.325,-2.861l2.862,-0.325l0.325,2.862l-2.862,0.324ZM470.221,253.941l-0.325,-2.862l2.862,-0.325l0.325,2.862l-2.862,0.325ZM478.806,252.966l-0.325,-2.861l2.862,-0.325l0.325,2.861l-2.862,0.325ZM487.391,251.992l-0.325,-2.862l2.862,-0.325l0.324,2.862l-2.861,0.325ZM495.976,251.017l-0.325,-2.861l2.861,-0.325l0.325,2.861l-2.861,0.325ZM504.561,250.043l-0.325,-2.862l2.861,-0.325l0.325,2.862l-2.861,0.325ZM513.145,249.068l-0.324,-2.861l2.861,-0.325l0.325,2.861l-2.862,0.325ZM521.73,248.094l-0.325,-2.862l2.862,-0.325l0.325,2.862l-2.862,0.325ZM530.315,247.119l-0.325,-2.861l2.862,-0.325l0.325,2.861l-2.862,0.325ZM538.9,246.145l-0.325,-2.862l2.862,-0.325l0.325,2.862l-2.862,0.325ZM547.485,245.17l-0.325,-2.862l2.862,-0.324l0.324,2.861l-2.861,0.325ZM556.07,244.196l-0.325,-2.862l2.862,-0.325l0.324,2.862l-2.861,0.325ZM564.655,243.221l-0.325,-2.862l2.861,-0.324l0.325,2.861l-2.861,0.325ZM573.239,242.246l-0.324,-2.861l2.861,-0.325l0.325,2.862l-2.862,0.324ZM581.824,241.272l-0.325,-2.862l2.862,-0.325l0.325,2.862l-2.862,0.325ZM590.409,240.297l-0.325,-2.861l2.862,-0.325l0.325,2.862l-2.862,0.324ZM598.994,239.323l-0.325,-2.862l2.862,-0.325l0.325,2.862l-2.862,0.325Z" style="fill:#63c7ba;"/><path d="M304.869,125.027l-1.903,-2.161l2.161,-1.904l1.904,2.162l-2.162,1.903ZM311.354,119.317l-1.904,-2.161l2.162,-1.904l1.903,2.162l-2.161,1.903ZM317.838,113.607l-1.903,-2.161l2.161,-1.903l1.903,2.161l-2.161,1.903ZM324.322,107.897l-1.903,-2.161l2.162,-1.903l1.903,2.161l-2.162,1.903ZM330.807,102.188l-1.904,-2.162l2.162,-1.903l1.903,2.161l-2.161,1.904ZM337.291,96.478l-1.903,-2.162l2.161,-1.903l1.904,2.161l-2.162,1.904ZM343.776,90.768l-1.904,-2.162l2.162,-1.903l1.903,2.162l-2.161,1.903ZM350.26,85.058l-1.903,-2.161l2.161,-1.904l1.903,2.162l-2.161,1.903ZM356.744,79.348l-1.903,-2.161l2.161,-1.904l1.904,2.162l-2.162,1.903ZM363.229,73.638l-1.904,-2.161l2.162,-1.903l1.903,2.161l-2.161,1.903ZM369.713,67.928l-1.903,-2.161l2.161,-1.903l1.903,2.161l-2.161,1.903ZM376.197,62.219l-1.903,-2.162l2.162,-1.903l1.903,2.161l-2.162,1.904ZM382.682,56.509l-1.904,-2.162l2.162,-1.903l1.903,2.161l-2.161,1.904ZM389.166,50.799l-1.903,-2.162l2.161,-1.903l1.904,2.162l-2.162,1.903ZM395.65,45.089l-1.903,-2.161l2.162,-1.904l1.903,2.162l-2.162,1.903ZM402.135,39.379l-1.903,-2.161l2.161,-1.904l1.903,2.162l-2.161,1.903Z" style="fill:#63c7ba;"/><path d="M215.985,165.696l-1.176,-2.628l86.645,-38.786l1.177,2.629l-86.646,38.785Z" style="fill:#63c7ba;"/><path d="M237.477,254.989l-0.797,-2.768l2.767,-0.797l0.797,2.767l-2.767,0.798ZM235.085,246.686l-0.797,-2.767l2.767,-0.798l0.797,2.768l-2.767,0.797ZM232.693,238.384l-0.797,-2.768l2.767,-0.797l0.797,2.768l-2.767,0.797ZM230.301,230.082l-0.797,-2.768l2.767,-0.797l0.798,2.767l-2.768,0.798ZM227.909,221.779l-0.797,-2.767l2.767,-0.797l0.798,2.767l-2.768,0.797ZM225.517,213.477l-0.797,-2.767l2.767,-0.798l0.798,2.768l-2.768,0.797ZM223.125,205.175l-0.797,-2.768l2.767,-0.797l0.798,2.767l-2.768,0.798ZM220.733,196.872l-0.797,-2.767l2.767,-0.797l0.798,2.767l-2.768,0.797ZM218.341,188.57l-0.797,-2.767l2.768,-0.798l0.797,2.768l-2.768,0.797ZM215.95,180.268l-0.798,-2.768l2.768,-0.797l0.797,2.767l-2.767,0.798ZM213.558,171.965l-0.798,-2.767l2.768,-0.797l0.797,2.767l-2.767,0.797Z" style="fill:#63c7ba;"/><path d="M408.352,179.63l-2.874,-0.185l0.185,-2.874l2.874,0.185l-0.185,2.874ZM399.729,179.075l-2.874,-0.185l0.185,-2.874l2.874,0.185l-0.185,2.874ZM391.107,178.52l-2.874,-0.185l0.185,-2.874l2.874,0.185l-0.185,2.874ZM382.485,177.965l-2.874,-0.185l0.185,-2.874l2.874,0.185l-0.185,2.874ZM373.863,177.41l-2.874,-0.186l0.185,-2.874l2.874,0.185l-0.185,2.875ZM365.241,176.854l-2.874,-0.185l0.185,-2.874l2.874,0.185l-0.185,2.874ZM356.619,176.299l-2.874,-0.185l0.185,-2.874l2.874,0.185l-0.185,2.874ZM347.997,175.744l-2.874,-0.185l0.185,-2.874l2.874,0.185l-0.185,2.874ZM339.374,175.189l-2.874,-0.185l0.185,-2.874l2.874,0.185l-0.185,2.874ZM330.752,174.634l-2.874,-0.185l0.185,-2.874l2.874,0.185l-0.185,2.874ZM322.13,174.079l-2.874,-0.185l0.185,-2.874l2.874,0.185l-0.185,2.874ZM313.508,173.524l-2.874,-0.185l0.185,-2.874l2.874,0.185l-0.185,2.874ZM304.886,172.969l-2.874,-0.185l0.185,-2.874l2.874,0.185l-0.185,2.874ZM296.264,172.414l-2.874,-0.185l0.185,-2.874l2.874,0.185l-0.185,2.874ZM287.642,171.859l-2.875,-0.185l0.185,-2.875l2.875,0.186l-0.185,2.874ZM279.019,171.303l-2.874,-0.185l0.185,-2.874l2.874,0.185l-0.185,2.874ZM270.397,170.748l-2.874,-0.185l0.185,-2.874l2.874,0.185l-0.185,2.874ZM261.775,170.193l-2.874,-0.185l0.185,-2.874l2.874,0.185l-0.185,2.874ZM253.153,169.638l-2.874,-0.185l0.185,-2.874l2.874,0.185l-0.185,2.874ZM244.531,169.083l-2.874,-0.185l0.185,-2.874l2.874,0.185l-0.185,2.874ZM235.909,168.528l-2.874,-0.185l0.185,-2.874l2.874,0.185l-0.185,2.874ZM227.286,167.973l-2.874,-0.185l0.185,-2.874l2.874,0.185l-0.185,2.874ZM218.664,167.418l-2.874,-0.185l0.185,-2.874l2.874,0.185l-0.185,2.874Z" style="fill:#63c7ba;"/><path d="M477.063,349.135l-226.386,-70.394l0.855,-2.75l226.386,70.394l-0.855,2.75Z" style="fill:#63c7ba;"/><path d="M477.793,349.168l-0.605,-2.816l2.816,-0.604l0.605,2.816l-2.816,0.604ZM486.24,347.355l-0.604,-2.816l2.816,-0.604l0.604,2.815l-2.816,0.605ZM494.688,345.542l-0.604,-2.816l2.816,-0.605l0.604,2.816l-2.816,0.605ZM503.136,343.729l-0.605,-2.816l2.816,-0.605l0.605,2.816l-2.816,0.605ZM511.583,341.915l-0.604,-2.815l2.816,-0.605l0.604,2.816l-2.816,0.604ZM520.031,340.102l-0.604,-2.816l2.815,-0.604l0.605,2.816l-2.816,0.604ZM528.478,338.289l-0.604,-2.816l2.816,-0.604l0.604,2.816l-2.816,0.604ZM536.926,336.476l-0.604,-2.816l2.816,-0.604l0.604,2.816l-2.816,0.604ZM545.374,334.663l-0.605,-2.816l2.816,-0.604l0.605,2.816l-2.816,0.604ZM553.821,332.85l-0.604,-2.816l2.816,-0.604l0.604,2.815l-2.816,0.605ZM562.269,331.037l-0.604,-2.816l2.815,-0.605l0.605,2.816l-2.816,0.605ZM570.717,329.223l-0.605,-2.815l2.816,-0.605l0.604,2.816l-2.815,0.604ZM579.164,327.41l-0.604,-2.816l2.816,-0.604l0.604,2.816l-2.816,0.604ZM587.612,325.597l-0.605,-2.816l2.816,-0.604l0.605,2.816l-2.816,0.604ZM596.059,323.784l-0.604,-2.816l2.816,-0.604l0.604,2.816l-2.816,0.604ZM604.507,321.971l-0.604,-2.816l2.815,-0.604l0.605,2.816l-2.816,0.604ZM612.955,320.158l-0.605,-2.816l2.816,-0.604l0.604,2.815l-2.815,0.605ZM621.402,318.345l-0.604,-2.816l2.816,-0.605l0.604,2.816l-2.816,0.605ZM629.85,316.532l-0.605,-2.816l2.816,-0.605l0.605,2.816l-2.816,0.605ZM638.297,314.718l-0.604,-2.815l2.816,-0.605l0.604,2.816l-2.816,0.604ZM646.745,312.905l-0.604,-2.816l2.816,-0.604l0.604,2.816l-2.816,0.604ZM655.193,311.092l-0.605,-2.816l2.816,-0.604l0.605,2.816l-2.816,0.604ZM663.64,309.279l-0.604,-2.816l2.816,-0.604l0.604,2.816l-2.816,0.604ZM672.088,307.466l-0.604,-2.816l2.815,-0.604l0.605,2.815l-2.816,0.605ZM680.535,305.653l-0.604,-2.816l2.816,-0.605l0.604,2.816l-2.816,0.605ZM688.983,303.84l-0.604,-2.816l2.816,-0.605l0.604,2.816l-2.816,0.605Z" style="fill:#63c7ba;"/><path d="M248.39,283.003l-1.478,-2.471l169.551,-101.412l1.479,2.472l-169.552,101.411Z" style="fill:#63c7ba;"/><path d="M414.111,192.432l-12.472,-157.38l2.871,-0.228l12.472,157.38l-2.871,0.228Z" style="fill:#63c7ba;"/><path d="M558.731,60.284l-2.841,-0.471l0.471,-2.841l2.841,0.471l-0.471,2.841ZM550.208,58.871l-2.842,-0.471l0.471,-2.841l2.842,0.471l-0.471,2.841ZM541.684,57.458l-2.841,-0.471l0.471,-2.841l2.841,0.471l-0.471,2.841ZM533.16,56.045l-2.841,-0.471l0.471,-2.841l2.841,0.471l-0.471,2.841ZM524.637,54.632l-2.842,-0.471l0.471,-2.841l2.842,0.471l-0.471,2.841ZM516.113,53.219l-2.841,-0.471l0.471,-2.841l2.841,0.471l-0.471,2.841ZM507.589,51.806l-2.841,-0.471l0.471,-2.841l2.841,0.471l-0.471,2.841ZM499.066,50.393l-2.842,-0.471l0.471,-2.841l2.842,0.471l-0.471,2.841ZM490.542,48.98l-2.841,-0.471l0.471,-2.841l2.841,0.471l-0.471,2.841ZM482.018,47.567l-2.841,-0.471l0.471,-2.841l2.841,0.471l-0.471,2.841ZM473.494,46.154l-2.841,-0.471l0.471,-2.841l2.841,0.471l-0.471,2.841ZM464.971,44.741l-2.841,-0.471l0.471,-2.841l2.841,0.471l-0.471,2.841ZM456.447,43.328l-2.841,-0.471l0.471,-2.841l2.841,0.471l-0.471,2.841ZM447.923,41.915l-2.841,-0.471l0.471,-2.841l2.841,0.471l-0.471,2.841ZM439.4,40.502l-2.841,-0.471l0.471,-2.841l2.841,0.471l-0.471,2.841ZM430.876,39.089l-2.841,-0.471l0.471,-2.841l2.841,0.471l-0.471,2.841ZM422.352,37.676l-2.841,-0.471l0.471,-2.841l2.841,0.471l-0.471,2.841ZM413.829,36.263l-2.841,-0.471l0.471,-2.841l2.841,0.471l-0.471,2.841ZM405.305,34.85l-2.322,-0.385l0.471,-2.841l2.322,0.385l-0.471,2.841Z" style="fill:#63c7ba;"/><path d="M692.617,304.283l-34.498,-257.09l2.854,-0.383l34.499,257.09l-2.855,0.383Z" style="fill:#63c7ba;"/><path d="M412.967,230.936c-32.101,0 -58.124,-26.022 -58.124,-58.123c0,-32.1 26.023,-58.123 58.124,-58.123c32.099,0 58.122,26.023 58.122,58.123c0,32.101 -26.023,58.123 -58.123,58.123" style="fill:#cbe3e2;"/><path d="M391.237,199.346c-5.727,3.718 -8.099,11.707 -11.458,21.169c9.413,6.567 20.861,10.422 33.21,10.422c12.329,0 23.759,-3.843 33.165,-10.389c-3.352,-9.507 -5.684,-17.573 -11.479,-21.202c-9.919,-6.211 -15.888,-7.699 -21.74,-7.778c-5.986,-0.081 -11.851,1.385 -21.698,7.778" style="fill:#e6615f;"/><path d="M439.627,224.482l0,-19.909c2.577,4.147 4.333,9.752 6.527,15.974c-2.081,1.449 -4.262,2.764 -6.527,3.935" style="fill:#d95957;"/><path d="M434.679,199.349l0,27.402c-2.312,0.931 -4.698,1.718 -7.146,2.349l0,-33.767c2.15,1.046 4.505,2.363 7.142,4.013l0.004,0.003Z" style="fill:#d95957;"/><path d="M422.586,193.262l0,36.885c-2.338,0.389 -4.723,0.637 -7.146,0.738l0,-39.189c2.225,0.204 4.539,0.668 7.146,1.566" style="fill:#d95957;"/><path d="M410.492,191.629l0,39.254c-2.422,-0.103 -4.808,-0.353 -7.145,-0.744l0,-37.046c2.585,-0.885 4.895,-1.314 7.145,-1.464" style="fill:#d95957;"/><path d="M398.399,195.191l0,33.897c-2.448,-0.633 -4.833,-1.422 -7.146,-2.355l0,-27.398c2.643,-1.715 4.998,-3.074 7.146,-4.144" style="fill:#d95957;"/><path d="M386.306,204.643l0,19.815c-2.267,-1.173 -4.447,-2.491 -6.527,-3.943c2.194,-6.179 3.967,-11.729 6.527,-15.872" style="fill:#d95957;"/><path d="M389.725,200.49c-2.059,1.797 -3.645,4.24 -5.037,7.145l56.592,0c-1.389,-2.92 -2.976,-5.366 -5.053,-7.145l-46.502,0Z" style="fill:#d95957;"/><path d="M382.611,212.583c-0.844,2.234 -1.668,4.635 -2.553,7.146l65.809,0c-0.878,-2.509 -1.693,-4.91 -2.53,-7.146l-60.726,0Z" style="fill:#d95957;"/><path d="M386.73,224.677c7.887,4.002 16.809,6.26 26.259,6.26c9.45,0 18.372,-2.258 26.259,-6.26l-52.518,0Z" style="fill:#d95957;"/><path d="M439.627,207.635l1.653,0l-0.066,-0.136l-0.132,-0.271l-0.065,-0.135c-0.088,-0.178 -0.178,-0.355 -0.268,-0.53l-0.068,-0.131c-0.09,-0.172 -0.181,-0.343 -0.272,-0.511l-0.003,-0.005l-0.069,-0.127l-0.066,-0.117l-0.007,-0.015l-0.067,-0.12l-0.072,-0.125l-0.008,-0.013l-0.049,-0.086l-0.014,-0.025l-0.07,-0.122l-0.001,-0.001l-0.072,-0.122l-0.013,-0.021l-0.06,-0.101l-0.073,-0.121l-0.064,-0.107l-0.026,-0.04l-0.048,-0.079l0,3.061Z" style="fill:#f0817f;"/><path d="M439.627,219.729l6.239,0l-0.018,-0.052l-0.023,-0.066l-0.04,-0.117l-0.038,-0.106l-0.003,-0.011l-0.041,-0.117l-0.082,-0.234l-0.041,-0.117l-0.032,-0.095l-0.008,-0.021l-0.04,-0.116l-0.041,-0.116l-0.011,-0.033l-0.028,-0.083l-0.041,-0.115l-0.081,-0.232l-0.04,-0.115l-0.007,-0.022l-0.032,-0.093l-0.239,-0.686l-0.022,-0.064l-0.135,-0.39l-0.04,-0.112l-0.019,-0.055l-0.021,-0.058l-0.039,-0.113l-0.037,-0.106l-0.002,-0.007l-0.039,-0.112l-0.04,-0.112l-0.015,-0.044l-0.177,-0.503l-0.003,-0.01l-0.012,-0.033l-0.027,-0.077l-0.039,-0.11l-0.03,-0.085l-0.009,-0.026l-0.039,-0.11l-0.039,-0.11l-0.009,-0.024l-0.069,-0.195l-0.027,-0.075l-0.012,-0.035l-0.078,-0.217l-0.006,-0.015l-0.033,-0.094l-0.039,-0.108l-0.024,-0.064l-0.015,-0.045l-0.039,-0.108l-0.039,-0.108l-0.002,-0.005l-0.037,-0.102l-0.039,-0.107l-0.02,-0.055l-0.019,-0.052l-0.039,-0.107l-0.038,-0.103l-0.001,-0.003l-0.094,-0.258l-0.023,-0.061l-0.039,-0.105l-0.034,-0.093l-0.084,-0.223l-3.71,0l0,7.146Z" style="fill:#f0817f;"/><rect x="427.533" y="200.49" width="7.146" height="7.145" style="fill:#f0817f;"/><rect x="427.533" y="212.583" width="7.146" height="7.146" style="fill:#f0817f;"/><path d="M427.602,229.082l0.268,-0.07l0.007,-0.002l0.06,-0.015l0.055,-0.015l0.268,-0.072l0.146,-0.04l0.271,-0.075l0.075,-0.021l0.038,-0.011l0.013,-0.004l0.292,-0.083l0.125,-0.037l0.024,-0.006l0.114,-0.033l0.113,-0.033l0.154,-0.047l0.288,-0.086l0.01,-0.003l0.043,-0.014l0.069,-0.021l0.247,-0.076l0.198,-0.062l0.006,-0.002l0.111,-0.034l0.113,-0.036l0.112,-0.036l0.111,-0.037l0.113,-0.036l0.111,-0.038l0.059,-0.018l0.263,-0.088l0.16,-0.053l0.273,-0.093l0.111,-0.039l0.252,-0.088l0.169,-0.06l0.267,-0.095l0.043,-0.016l0.067,-0.025l0.003,-0.001l0.255,-0.093l0.072,-0.027l0.11,-0.041l0.189,-0.07l0.14,-0.053l0.109,-0.042l0.109,-0.041l0.11,-0.042l0.076,-0.03l0.032,-0.013l0.11,-0.042l0.109,-0.043l0.031,-0.013l0.095,-0.037l0.2,-0.079l0.109,-0.044l0,-2.074l-7.147,0l0,4.423l0.069,-0.018Z" style="fill:#f0817f;"/><rect x="415.44" y="200.49" width="7.146" height="7.145" style="fill:#f0817f;"/><rect x="415.44" y="212.583" width="7.146" height="7.146" style="fill:#f0817f;"/><path d="M415.78,230.87l0.114,-0.006l0.339,-0.017l0.114,-0.007l0.339,-0.02l0.112,-0.007l0.226,-0.015l0.113,-0.008l0.113,-0.008l0.225,-0.017l0.113,-0.008l0.112,-0.009l0.324,-0.027l0.013,-0.001l0.112,-0.011l0.216,-0.018l0.008,-0.001l0.112,-0.011l0.112,-0.011l0.162,-0.015l0.174,-0.017l0.112,-0.012l0.167,-0.018l0.235,-0.025l0.152,-0.017l0.288,-0.033l0.136,-0.017l0.358,-0.044l0.018,-0.002l0.015,-0.002l0.405,-0.053l0.005,-0.001l0.003,0l0.009,-0.002c0.14,-0.019 0.278,-0.037 0.417,-0.057l0.013,-0.001c0.442,-0.064 0.881,-0.132 1.32,-0.205l0,-5.471l-7.146,0l0,6.209l0.34,-0.015Z" style="fill:#f0817f;"/><rect x="403.347" y="200.49" width="7.145" height="7.145" style="fill:#f0817f;"/><rect x="403.347" y="212.583" width="7.145" height="7.146" style="fill:#f0817f;"/><path d="M403.347,230.139l0.076,0.013l0.029,0.004l0.004,0.001l0.021,0.004l0.38,0.061l0.018,0.003l0.02,0.003l0.383,0.059l0.022,0.003l0.035,0.006l0.373,0.054l0.017,0.003l0.051,0.007l0.333,0.045l0.043,0.007l0.067,0.009l0.313,0.041l0.112,0.014l0.242,0.03l0.213,0.025l0.009,0.001l0.11,0.013l0.112,0.014l0.001,0l0.221,0.024l0.224,0.024l0.2,0.021l0.023,0.002l0.112,0.012l0.019,0.002l0.317,0.03l0.111,0.012c0.971,0.09 1.95,0.156 2.934,0.197l0,-6.206l-7.145,0l0,5.462Z" style="fill:#f0817f;"/><rect x="391.253" y="200.49" width="7.146" height="7.145" style="fill:#f0817f;"/><rect x="391.253" y="212.583" width="7.146" height="7.146" style="fill:#f0817f;"/><path d="M391.362,226.776l0.108,0.044l0.109,0.042l0.218,0.086l0.109,0.043l0.029,0.011l0.189,0.074l0.219,0.084l0.013,0.005l0.173,0.064l0.033,0.013l0.109,0.041l0.11,0.041l0.194,0.071l0.026,0.01l0.11,0.04l0.186,0.067l0.261,0.093l0.105,0.038l0.111,0.039l0.111,0.039l0.001,0l0.221,0.076l0.111,0.038l0.111,0.039l0.026,0.009l0.085,0.028l0.112,0.037l0.111,0.037l0.113,0.037l0.101,0.034l0.01,0.004l0.112,0.036l0.112,0.036l0.016,0.005l0.144,0.047l0.252,0.08l0.147,0.046l0.002,0.001l0.112,0.034l0.113,0.036l0.044,0.012l0.145,0.045l0.262,0.078l0.068,0.021l0.046,0.013l0.227,0.067l0.113,0.033l0.064,0.018l0.28,0.081l0.11,0.031l0.115,0.032l0.113,0.031l0.114,0.032l0.106,0.029l0.009,0.002l0.114,0.031l0.114,0.03l0.101,0.028l0.013,0.003l0.03,0.008l0.315,0.082l0,-4.412l-7.147,0l0,2.056l0.109,0.044Z" style="fill:#f0817f;"/><path d="M386.306,204.643l-0.024,0.04l-0.005,0.007l-0.074,0.121l-0.017,0.027l-0.055,0.093l-0.029,0.05l-0.044,0.072l-0.072,0.122l-0.064,0.109l-0.007,0.014l-0.071,0.123l-0.042,0.072l-0.052,0.092l-0.048,0.086l-0.069,0.126l-0.003,0.004l-0.059,0.106l-0.009,0.017l-0.069,0.127l0,0.001l-0.069,0.127l-0.069,0.129l-0.067,0.13l-0.002,0.002l-0.058,0.113l-0.014,0.025l-0.122,0.237l-0.012,0.025l-0.062,0.123l-0.067,0.134l-0.132,0.267l-0.065,0.136l-0.001,0.001l-0.065,0.134l1.618,0l0,-2.992Z" style="fill:#f0817f;"/><path d="M382.611,212.583l-0.039,0.105l-0.039,0.105l-0.015,0.038l-0.025,0.068l-0.04,0.105l-0.031,0.085l-0.009,0.02l-0.039,0.107l-0.039,0.106l-0.01,0.027l-0.03,0.08l-0.039,0.106l-0.027,0.073l-0.012,0.035l-0.04,0.107l-0.039,0.107l-0.005,0.014l-0.035,0.094l-0.039,0.107l-0.022,0.061l-0.017,0.048l-0.039,0.108l-0.04,0.109l-0.039,0.108l-0.04,0.109l-0.016,0.048l-0.024,0.062l-0.039,0.109l-0.033,0.096l-0.006,0.014l-0.039,0.11l-0.039,0.11l-0.013,0.035l-0.026,0.076l-0.04,0.11l-0.03,0.084l-0.01,0.027l-0.04,0.11l-0.039,0.112l-0.007,0.022l-0.032,0.089l-0.04,0.112l-0.025,0.07l-0.015,0.041l-0.039,0.112l-0.04,0.113l-0.003,0.008l-0.036,0.103l-0.04,0.114l-0.02,0.057l-0.019,0.055l-0.041,0.113l-0.037,0.108l-0.002,0.006l-0.04,0.112l-0.04,0.114l-0.016,0.044l-0.024,0.07l-0.04,0.113l-0.034,0.095l-0.006,0.02l-0.161,0.458l-0.028,0.081l-0.013,0.034l-0.04,0.116l-0.04,0.115l-0.006,0.016l-0.035,0.099l-0.041,0.115l-0.023,0.068l-0.017,0.049l-0.041,0.117l-0.041,0.115l-0.001,0.002l-0.039,0.115l-0.042,0.116l-0.018,0.054l-0.023,0.063l-0.041,0.117l-0.036,0.105l-0.005,0.012l-0.042,0.118l-0.041,0.117l-0.013,0.04l-0.027,0.078l6.248,0l0,-7.146l-3.695,0Z" style="fill:#f0817f;"/><path d="M404.741,169.743l16.428,0l0,23.762c0,8.02 -16.428,8.941 -16.428,0l0,-23.762Z" style="fill:#ffddb8;"/><path d="M421.17,184.661l0,-3.038l-16.428,0l0,11.183l16.428,-8.145Z" style="fill:#e8c5a0;"/><path d="M412.594,145.047c11.668,0 17.829,6.843 18.453,14.08c0.622,7.237 1.671,5.953 4.193,0.567c2.524,-5.384 -3.657,-28.608 -21.7,-28.608c-18.043,0 -25.43,17.866 -22.907,27.627c2.523,9.761 2.523,7.443 4.1,0.038c1.577,-7.405 4.931,-13.367 17.861,-13.704" style="fill:#c48872;"/><path d="M433.284,152.324c3.859,13.598 -6.83,33.159 -20.328,33.159c-13.313,0 -23.896,-19.03 -20.48,-32.599c10.917,-5.452 27.79,-11.619 40.808,-0.56" style="fill:#ffddb8;"/><path d="M430.114,157.564c-0.075,-3.811 -3.271,-7.888 -5.59,-9.047c-2.319,-1.159 -14.045,0.289 -20.1,4.141c-6.547,4.164 -7.754,7.327 -8.189,11.062c-0.137,1.172 -0.455,2.363 -1.089,2.132c-2.004,-0.731 -2.4,-6.336 -4.104,-7.359c-2.484,-1.491 -1.348,-3.869 -0.353,-7.677c0.993,-3.81 12.202,-5.901 21.476,-6.232c9.274,-0.332 16.211,1.821 19.087,4.471c2.877,2.65 3.968,6.925 2.7,10.549c-0.909,2.599 -1.82,5.771 -3.684,5.229c-0.849,-0.247 -0.111,-5.064 -0.154,-7.269" style="fill:#c48872;"/><path d="M435.311,155.34c1.266,0.282 1.764,2.887 1.111,5.82c-0.652,2.931 -2.207,5.08 -3.473,4.798c-1.267,-0.282 -1.764,-2.887 -1.112,-5.819c0.652,-2.933 2.208,-5.081 3.474,-4.799" style="fill:#ffddb8;"/><path d="M390.622,155.34c-1.266,0.282 -1.765,2.887 -1.112,5.82c0.653,2.931 2.207,5.08 3.474,4.798c1.266,-0.282 1.763,-2.887 1.112,-5.819c-0.653,-2.933 -2.209,-5.081 -3.474,-4.799" style="fill:#f7d6b2;"/><path d="M397.728,194.945c-6.917,0 -8.358,0.865 -8.646,5.477c-0.288,4.611 0.864,15.564 5.188,21.616c4.323,6.052 2.017,-0.864 2.594,-5.765c0.576,-4.9 1.441,6.918 3.459,1.442c2.016,-5.476 -0.577,-9.223 -2.595,-22.77" style="fill:#ffcd61;"/><path d="M432.15,197.107c3.148,0 7.037,2.038 4.26,6.483c-2.778,4.445 -4.26,14.631 -4.445,18.891c-0.185,4.26 -2.223,7.224 -2.223,3.705c0,-3.519 -2.593,-11.668 -3.334,-8.15c-0.741,3.52 -3.519,7.038 -3.148,0.371c0.37,-6.667 1.851,-25.003 8.89,-21.3" style="fill:#ffcd61;"/><path d="M431.701,197.986c-5.993,6.492 -24.282,15.21 -36.268,-0.272c-1.322,-4.025 -0.951,-6.177 2.545,-5.179c-0.25,-3.745 3.128,-5.141 6.374,-3.393c4.745,4.994 15.307,2.424 17.304,-0.822c3.09,-0.84 5.016,0.404 5.016,4.65c6.242,-2.997 7.526,1.769 5.029,5.016" style="fill:#ffcd61;"/><path d="M395.784,198.201l0,1.364c-0.478,-0.654 -0.761,-1.476 -0.691,-2.424c0.178,0.34 0.417,0.7 0.691,1.06M395.784,211.528c-1.842,-4.575 -2.774,-12.573 -2.153,-13.691c-1.929,1.477 -1.33,10.391 2.153,14.456l0,-0.765ZM395.784,199.565l0,-1.364c0.904,1.191 2.197,2.406 2.998,3.046c-1.074,-0.064 -2.265,-0.675 -2.998,-1.682M426.052,202.306l-0.336,0.194c0.108,0.019 0.219,0.028 0.336,0.031l0,-0.225ZM426.052,193.366l0,0.079c-5.051,5.051 -16.61,10.139 -26.721,-0.011c10.313,8.365 21.813,3.712 26.721,-0.068M396.485,213.01c-0.247,-0.433 -0.48,-0.933 -0.701,-1.482l0,0.765c0.222,0.261 0.455,0.5 0.701,0.717M426.052,193.445l0,-0.079c0.115,-0.089 0.227,-0.177 0.335,-0.264c-0.108,0.114 -0.221,0.228 -0.335,0.343M429.328,203.326l0,2.306c-1.358,3.208 -2.567,6.966 -2.567,9.605c-0.973,-3.443 0.625,-8.437 2.567,-11.911M429.328,200.223l0,1.124c-1.119,0.787 -2.341,1.213 -3.276,1.184l0,-0.225c0.875,-0.51 2.115,-1.241 3.276,-2.083M429.328,201.347c1.287,-0.904 2.438,-2.285 2.862,-3.997c-0.533,0.998 -1.654,1.996 -2.862,2.873l0,1.124ZM429.328,205.632l0,-2.306c1.179,-2.108 2.484,-3.656 3.418,-3.957c-0.619,0.516 -2.089,3.126 -3.418,6.263" style="fill:#dea21f;"/><path d="M396.235,160.004c-0.824,3.294 -0.614,11.42 2.648,14.052c3.262,2.633 5.115,3.037 5.663,0.017c1.025,-5.641 15.763,-5.641 16.789,0c0.548,3.02 2.4,2.616 5.663,-0.017c3.262,-2.632 3.472,-10.758 2.647,-14.052c0.4,-3.398 2.981,-3.217 2.241,-0.762c-0.424,1.411 0.36,3.315 0.649,4.501c1.066,4.362 0.272,8.984 -2.749,14.201c-7.245,12.513 -26.446,12.513 -33.691,0c-3.022,-5.217 -3.815,-9.839 -2.75,-14.201c0.291,-1.186 1.074,-3.09 0.649,-4.501c-0.74,-2.455 1.841,-2.636 2.241,0.762" style="fill:#c48872;"/><path d="M412.967,171.33c4.131,0 7.481,2.281 7.481,5.094c0,2.035 0,4.608 -3.081,4.608c-3.031,0 -2.147,-2.575 -4.326,-2.543c-2.393,0.034 -1.741,2.508 -4.7,2.508c-2.795,-0.001 -2.856,-2.58 -2.856,-4.573c0,-2.863 3.349,-5.094 7.482,-5.094" style="fill:#f7d6b2;"/><path d="M404.793,156.12c-2.703,-0.145 -6.3,0.164 -6.956,0.374c-0.839,0.269 -0.863,0.338 -0.901,0.976c-0.037,0.637 0.068,1.185 0.563,1.35c0.676,0.225 0.682,1.078 1.125,3.527c0.405,2.229 1.39,3.993 5.627,4.313c0.186,0.014 0.367,0.022 0.542,0.025l0,-0.622c-1.92,-0.006 -4.055,-0.693 -4.818,-2.066c-1.084,-1.952 -1.354,-5.894 0.038,-6.715c0.606,-0.358 2.657,-0.6 4.78,-0.502l0,-0.66ZM412.88,157.395c-0.938,0.021 -4.805,-1.014 -7.541,-1.238c-0.177,-0.015 -0.359,-0.027 -0.546,-0.037l0,0.66c2.207,0.103 4.491,0.573 5.311,1.665c1.35,1.8 -0.826,6.19 -2.889,7.165c-0.645,0.305 -1.509,0.456 -2.422,0.453l0,0.622c3.739,0.054 5.031,-2.426 5.46,-3.251c0.804,-1.538 0.557,-3.659 2.657,-3.659c2.101,0 1.891,2.083 2.694,3.622c0.43,0.824 1.687,3.338 5.423,3.288l0,-0.622c-0.912,0.003 -1.777,-0.148 -2.422,-0.453c-2.063,-0.975 -4.239,-5.365 -2.889,-7.165c0.819,-1.092 3.104,-1.562 5.311,-1.665l0,-0.66c-0.187,0.01 -0.37,0.022 -0.546,0.037c-2.449,0.2 -5.395,1.189 -7.601,1.238M421.027,166.685c0.176,-0.003 0.356,-0.011 0.542,-0.025c4.238,-0.32 5.223,-2.084 5.627,-4.313c0.444,-2.449 0.45,-3.302 1.125,-3.527c0.496,-0.165 0.601,-0.713 0.563,-1.35c-0.037,-0.638 -0.062,-0.707 -0.901,-0.976c-0.656,-0.21 -4.252,-0.519 -6.956,-0.374l0,0.66c2.123,-0.098 4.175,0.144 4.781,0.502c1.391,0.821 1.122,4.763 0.037,6.715c-0.762,1.373 -2.897,2.06 -4.818,2.066l0,0.622Z" style="fill:#00806f;"/><path d="M403.348,52.85c-9.941,0 -18,-8.058 -18,-18c0,-9.941 8.059,-18 18,-18c9.941,0 18,8.059 18,18c0,9.942 -8.059,18 -18,18" style="fill:#ffcd61;"/><path d="M396.841,26.428c-1.019,1.881 -3.066,13.036 -0.166,19.462c2.9,6.427 10.229,6.644 10.387,2.96c0.156,-3.684 -8.262,-23.91 -10.221,-22.422" style="fill:#c48872;"/><path d="M409.576,26.422c1.019,1.881 2.919,12.351 0.019,18.777c-2.9,6.426 -10.13,7.334 -10.286,3.651c-0.157,-3.684 8.308,-23.917 10.267,-22.428" style="fill:#c48872;"/><path d="M396.619,43.067c-1.774,1.152 -2.508,3.626 -3.548,6.556c2.915,2.033 6.46,3.227 10.284,3.227c3.818,0 7.358,-1.189 10.271,-3.216c-1.038,-2.945 -1.76,-5.442 -3.555,-6.567c-3.071,-1.923 -4.92,-2.384 -6.733,-2.409c-1.853,-0.024 -3.67,0.429 -6.719,2.409" style="fill:#7e9c9b;"/><path d="M400.801,33.9l5.087,0l0,7.359c0,2.483 -5.087,2.769 -5.087,0l0,-7.359Z" style="fill:#ffddb8;"/><path d="M405.888,38.52l0,-0.941l-5.087,0l0,3.463l5.087,-2.522Z" style="fill:#e8c5a0;"/><path d="M403.345,24.542c10.773,0 6.406,14.233 0,14.233c-6.407,0 -10.774,-14.233 0,-14.233" style="fill:#f0ceaa;"/><path d="M403.345,24.542c10.773,0 6.406,14.233 0,14.233l0,-14.233Z" style="fill:#ffddb8;"/><path d="M405.535,25.913c1.785,0.881 2.886,2.353 3.267,4.61c0.384,2.256 0.663,1.933 1.444,0.265c0.781,-1.668 -1.132,-8.859 -6.721,-8.859c-5.587,0 -7.875,5.532 -7.094,8.555c0.782,3.023 1.391,2.035 1.88,-0.259c0.489,-2.293 2.882,-4.546 7.224,-4.312" style="fill:#c48872;"/><path d="M408.393,43.286c3.135,-10.659 -1.801,-17.32 -2.899,-17.398c2.115,-0.532 7.106,6.097 2.899,17.398" style="fill:#7d5f54;"/><path d="M405.912,41.013c-0.236,2.436 -2.546,4.516 -2.546,6.486c0,-1.974 -2.322,-4.056 -2.547,-6.505l5.093,0.019Z" style="fill:#ffddb8;"/><path d="M403.366,46.598c1.111,-1.662 2.271,-2.618 3.67,-3.054c0.69,-0.215 1.902,-0.445 2.55,-0.129c-1.227,-1.395 -2.518,-2.093 -3.674,-3.406c-0.013,3.788 -2.57,4.452 -2.546,6.589" style="fill:#e1e6f7;"/><path d="M403.366,46.598c0.832,-1.77 2.12,-3.264 3.518,-3.7c0.691,-0.215 1.342,-0.165 1.991,0.151c-1.227,-1.395 -1.807,-2.201 -2.963,-3.04c-0.013,3.788 -2.57,4.452 -2.546,6.589" style="fill:#fff;"/><path d="M403.366,46.598c-1.112,-1.662 -2.271,-2.618 -3.67,-3.054c-0.69,-0.215 -1.903,-0.445 -2.551,-0.129c1.228,-1.395 2.519,-2.093 3.675,-3.406c0.013,3.788 2.569,4.452 2.546,6.589" style="fill:#e1e6f7;"/><path d="M403.366,46.598c-0.832,-1.77 -2.12,-3.264 -3.518,-3.7c-0.692,-0.215 -1.343,-0.165 -1.992,0.151c1.228,-1.395 1.808,-2.201 2.964,-3.04c0.013,3.788 2.569,4.452 2.546,6.589" style="fill:#fff;"/><path d="M398.637,45.362c-3.672,-21.495 4.94,-19.054 6.896,-19.435c-2.453,-2.627 -13.658,-2.793 -6.896,19.435" style="fill:#7d5f54;"/><path d="M397.835,42.405c-0.91,0.558 -1.306,1.875 -1.433,2.901c1.803,-0.39 3.812,0.684 4.151,1.173c-1.355,0.759 -1.737,1.465 -2.486,2.443c0.642,0.86 1.997,2.136 3.201,3.809c0.16,0.018 0.321,0.034 0.482,0.048c-1.08,-1.769 -2.391,-3.05 -3.057,-3.942c0.748,-0.978 1.28,-1.512 2.634,-2.272c-0.339,-0.489 -2.675,-2.378 -4.478,-1.987c0.187,-1.027 0.284,-1.444 0.986,-2.173" style="fill:#3c6634;"/><path d="M408.926,42.405c0.912,0.558 1.307,1.875 1.434,2.901c-1.803,-0.39 -3.811,0.684 -4.152,1.173c1.356,0.759 1.739,1.465 2.487,2.443c-0.641,0.859 -1.997,2.132 -3.202,3.801c-0.161,0.019 -0.322,0.036 -0.484,0.05c1.082,-1.765 2.396,-3.045 3.061,-3.936c-0.749,-0.978 -1.281,-1.512 -2.636,-2.272c0.34,-0.489 2.676,-2.378 4.479,-1.987c-0.186,-1.027 -0.284,-1.444 -0.987,-2.173" style="fill:#3c6634;"/><path d="M403.311,52.85c-0.02,-2.029 0.011,-4.546 0.133,-5.979c-0.435,1.563 -0.478,4.017 -0.363,5.976c0.077,0.001 0.153,0.003 0.23,0.003" style="fill:#3c6634;"/><path d="M215.398,182.382c-9.941,0 -18,-8.059 -18,-18c0,-9.941 8.059,-18 18,-18c9.941,0 18,8.059 18,18c0,9.941 -8.059,18 -18,18" style="fill:#cbe3e2;"/><path d="M208.67,175.826c-1.214,0.788 -1.941,2.196 -2.612,3.946c2.722,1.656 5.919,2.61 9.34,2.61c3.423,0 6.623,-0.956 9.348,-2.615c-0.67,-1.759 -1.396,-3.172 -2.623,-3.941c-3.072,-1.924 -4.92,-2.384 -6.733,-2.409c-1.854,-0.025 -3.671,0.428 -6.72,2.409" style="fill:#fff;"/><path d="M212.853,166.046l5.087,0l0,7.359c0,2.483 -5.087,2.769 -5.087,0l0,-7.359Z" style="fill:#ffddb8;"/><path d="M217.94,171.278l0,-0.941l-5.087,0l0,3.464l5.087,-2.523Z" style="fill:#e8c5a0;"/><path d="M215.396,157.301c10.774,0 6.407,14.232 0,14.232c-6.406,0 -10.774,-14.232 0,-14.232" style="fill:#ffddb8;"/><path d="M218.404,158.278c2.007,0.564 2.454,3.428 2.857,4.935c0.586,2.189 0.254,2.001 1.036,0.333c0.781,-1.667 -1.132,-8.859 -6.72,-8.859c-5.588,0 -7.876,5.533 -7.094,8.555c0.781,3.023 0.781,2.305 1.27,0.012c0.486,-2.283 1.334,-4.424 2.503,-4.876c0.92,-0.358 2.176,0.288 3.214,0.243c1.044,-0.046 1.983,-0.609 2.934,-0.343" style="fill:#7d5f54;"/><path d="M222.319,162.198c0.393,0.087 0.547,0.894 0.345,1.802c-0.203,0.908 -0.684,1.574 -1.077,1.487c-0.391,-0.088 -0.546,-0.895 -0.344,-1.803c0.203,-0.908 0.685,-1.573 1.076,-1.486" style="fill:#ffddb8;"/><path d="M208.479,162.198c-0.391,0.087 -0.546,0.894 -0.344,1.802c0.203,0.908 0.684,1.574 1.076,1.487c0.393,-0.088 0.546,-0.895 0.345,-1.803c-0.203,-0.908 -0.685,-1.573 -1.077,-1.486" style="fill:#f7d6b2;"/><path d="M214.839,177.892l-0.318,4.468c0.291,0.014 0.584,0.022 0.877,0.022c0.29,0 0.579,-0.007 0.865,-0.021l-0.318,-4.469l1.797,-4.304c-1.682,-0.03 -3.028,-0.026 -4.7,0l1.797,4.304Z" style="fill:#e6615f;"/><path d="M212.933,172.046l-1.956,2.491l1.113,2.926l3.328,-3.897l-2.485,-1.52Z" style="fill:#bcc2d6;"/><path d="M212.933,172.046l-1.956,2.491l1.216,2.272l3.225,-3.243l-2.485,-1.52Z" style="fill:#fff;"/><path d="M218.019,172.046l1.956,2.491l-1.114,2.926l-3.327,-3.897l2.485,-1.52Z" style="fill:#e1e6f7;"/><path d="M218.019,172.046l1.956,2.491l-1.216,2.272l-3.225,-3.243l2.485,-1.52Z" style="fill:#fff;"/><path d="M302.862,157.045c-19.882,0 -36,-16.119 -36,-36.001c0,-19.883 16.118,-36 36,-36c19.883,0 36,16.117 36,36c0,19.882 -16.117,36.001 -36,36.001" style="fill:#e6615f;"/><path d="M288.513,119.569c1.098,7.146 -2.133,15.482 -3.594,9.967c-3.055,3.836 0.516,19.502 13.342,11.906c12.826,-7.596 2.319,-36.501 -9.748,-21.873" style="fill:#ad4947;"/><path d="M317.258,119.569c-1.321,8.474 2.132,15.482 3.594,9.967c3.055,3.836 -0.517,19.502 -13.342,11.906c-12.827,-7.596 -2.319,-36.501 9.748,-21.873" style="fill:#ad4947;"/><path d="M289.407,143.932c-2.427,1.577 -3.882,4.392 -5.225,7.892c5.445,3.312 11.84,5.22 18.68,5.22c6.847,0 13.247,-1.911 18.695,-5.229c-1.337,-3.519 -2.789,-6.344 -5.245,-7.883c-6.144,-3.847 -9.84,-4.768 -13.466,-4.817c-3.706,-0.05 -7.339,0.857 -13.439,4.817" style="fill:#ffcd61;"/><path d="M297.772,125.597l10.174,0l0,14.718c0,4.966 -10.174,5.538 -10.174,0l0,-14.718Z" style="fill:#ffddb8;"/><path d="M307.947,134.836l0,-1.881l-10.175,0l0,6.927l10.175,-5.046Z" style="fill:#e8c5a0;"/><path d="M302.859,106.882c21.549,0 12.813,28.464 0,28.464c-12.813,0 -21.548,-28.464 0,-28.464" style="fill:#ffddb8;"/><path d="M302.866,153.273c0,-1.867 -5.029,-8.588 -5.029,-12.218l10.058,0c0,3.63 -5.029,10.351 -5.029,12.218" style="fill:#ffddb8;"/><path d="M300.548,156.969c-2,-3.36 -5.012,-6.704 -7.898,-6.342c-0.646,-2.145 -0.093,-3.814 0.879,-5.733c-1.171,-0.196 -1.905,0.009 -3.379,0.723c-0.492,-2.718 4.017,-7.657 7.622,-8.801c0,2.003 -0.208,5.84 1.759,8.415c1.345,1.761 2.405,7.169 2.94,11.808c-0.645,-0.007 -1.286,-0.03 -1.923,-0.07" style="fill:#eda200;"/><path d="M301.264,157.007c-1.924,-3.633 -5.226,-7.857 -7.914,-7.857c0.061,-2.28 0.258,-3.363 1.569,-5.079c-1.802,-0.286 -3.112,0.045 -4.587,0.762c0.448,-2.718 4.65,-6.873 7.44,-8.017c0,2.002 -0.208,5.839 1.758,8.415c1.439,1.884 2.552,7.41 3.045,11.809c-0.439,-0.003 -0.876,-0.014 -1.311,-0.033" style="fill:#ffcd61;"/><path d="M302.854,153.704c-3.189,-4.736 -6.67,-6.277 -8.797,-6.282c0.45,-2.113 1.602,-4.44 2.426,-5.338c-3.427,0.03 -4.498,0.731 -5.973,1.808c0.448,-2.718 4.472,-5.932 7.262,-7.076c0,2.002 -0.208,5.84 1.758,8.415c1.966,2.575 3.324,4.468 3.324,8.473" style="fill:#fff;"/><path d="M305.16,156.969c2,-3.36 5.013,-6.703 7.9,-6.342c0.645,-2.145 0.092,-3.814 -0.881,-5.733c1.172,-0.196 1.905,0.009 3.38,0.723c0.492,-2.718 -4.017,-7.657 -7.622,-8.801c0,2.003 1.732,6.146 -1.447,8.504c-2.192,1.627 -3.691,7.023 -3.995,11.72c0.122,0.001 0.245,0.005 0.368,0.005c0.771,0 1.537,-0.028 2.297,-0.076" style="fill:#eda200;"/><path d="M304.444,157.008c1.925,-3.633 5.226,-7.858 7.915,-7.858c-0.061,-2.28 -0.259,-3.363 -1.57,-5.079c1.803,-0.286 3.113,0.045 4.588,0.762c-0.448,-2.718 -4.65,-6.873 -7.44,-8.017c0,2.002 0.344,6.079 -1.759,8.415c-1.563,1.735 -2.754,7.271 -3.177,11.812c0.483,-0.003 0.965,-0.015 1.443,-0.035" style="fill:#ffcd61;"/><path d="M302.854,153.704c3.189,-4.736 6.67,-6.277 8.797,-6.282c-0.449,-2.113 -1.602,-4.44 -2.425,-5.338c3.426,0.03 4.498,0.731 5.972,1.808c-0.448,-2.718 -4.471,-5.932 -7.261,-7.076c0,2.002 0.208,5.84 -1.759,8.415c-1.966,2.575 -3.324,4.468 -3.324,8.473" style="fill:#fff;"/><path d="M302.495,110.301c7.227,0 10.725,4.747 10.956,8.406c0.232,3.659 1.507,4.002 3.07,0.667c1.562,-3.336 -2.265,-17.72 -13.441,-17.72c-11.175,0 -15.75,11.066 -14.187,17.111c1.562,6.046 3.498,2.618 3.424,0.024c-0.075,-2.595 2.169,-8.28 10.178,-8.488" style="fill:#ad4947;"/><path d="M316.706,116.677c0.784,0.174 1.092,1.788 0.688,3.604c-0.404,1.816 -1.367,3.146 -2.152,2.972c-0.783,-0.175 -1.092,-1.788 -0.688,-3.604c0.404,-1.817 1.368,-3.147 2.152,-2.972" style="fill:#ffddb8;"/><path d="M289.026,116.677c-0.784,0.174 -1.093,1.788 -0.688,3.604c0.404,1.816 1.367,3.146 2.151,2.972c0.785,-0.175 1.092,-1.788 0.689,-3.604c-0.404,-1.817 -1.367,-3.147 -2.152,-2.972" style="fill:#f7d6b2;"/><path d="M293.73,107.686c-0.699,4.274 11.009,9.24 20.404,9.65c0.849,-11.106 -13.051,-13.782 -20.404,-9.65" style="fill:#ad4947;"/><path d="M291.276,118.239c0.116,0.56 -0.066,2.594 0.016,3.025c0.081,0.431 2.484,1.593 4.306,1.764c0.362,0.033 0.759,0.066 1.164,0.091l0,-0.404c-0.154,-0.014 -0.309,-0.031 -0.462,-0.051c-1.479,-0.193 -3.094,-0.629 -3.576,-1.125c-0.483,-0.497 -0.474,-2.094 -0.477,-2.413c-0.006,-0.586 2.862,-0.525 4.515,-0.348l0,-0.48c-2.034,-0.224 -5.469,-0.343 -5.486,-0.059M296.762,123.119c1.632,0.104 3.41,0.116 3.717,-0.19c0.385,-0.382 1.126,-1.766 1.21,-2.102c0.113,-0.455 1.876,-0.373 1.979,0.035c0.084,0.335 0.83,1.716 1.215,2.097c0.309,0.305 2.079,0.288 3.707,0.179l0,-0.404c-1.324,0.121 -2.618,0.014 -3.227,-0.273c-0.679,-0.32 -1.503,-1.93 -1.234,-2.416c0.268,-0.485 2.6,-1.012 4.185,-1.217c0.087,-0.011 0.18,-0.022 0.276,-0.033l0,-0.479c-0.253,0.029 -0.485,0.059 -0.686,0.091c-2.37,0.368 -3.817,0.763 -5.079,0.781c-1.439,0.019 -2.671,-0.39 -5.381,-0.802c-0.199,-0.031 -0.43,-0.06 -0.682,-0.088l0,0.48c0.096,0.01 0.187,0.02 0.274,0.032c1.586,0.198 3.919,0.718 4.19,1.202c0.269,0.484 -0.549,2.098 -1.228,2.42c-0.609,0.29 -1.907,0.401 -3.236,0.283l0,0.404ZM308.59,123.138c0.41,-0.028 0.811,-0.061 1.177,-0.097c1.821,-0.175 4.219,-1.346 4.299,-1.777c0.08,-0.431 -0.109,-2.464 0.006,-3.025c-0.018,-0.283 -3.447,-0.154 -5.482,0.077l0,0.479c1.653,-0.181 4.517,-0.252 4.514,0.334c-0.002,0.319 0.011,1.916 -0.469,2.415c-0.48,0.498 -2.094,0.938 -3.572,1.136c-0.157,0.021 -0.316,0.039 -0.473,0.054l0,0.404Z" style="fill:#e6615f;"/><path d="M601.693,295.708c-32.109,0 -58.14,-26.031 -58.14,-58.14c0,-32.11 26.031,-58.14 58.14,-58.14c32.11,0 58.14,26.03 58.14,58.14c0,32.109 -26.03,58.14 -58.14,58.14" style="fill:#ffcd61;"/><path d="M580.674,220.669c-3.29,4.178 -9.899,28.96 -0.533,43.236c1.924,2.934 4.455,5.284 7.263,7.097c4.571,0.794 9.358,1.217 14.289,1.217c4.055,0 8.013,-0.285 11.833,-0.829c0.087,-0.29 0.141,-0.595 0.162,-0.911c0.504,-8.183 -26.685,-53.118 -33.014,-49.81" style="fill:#7d5f54;"/><path d="M621.81,220.656c3.292,4.177 9.426,27.438 0.061,41.714c-2.689,4.098 -6.531,7.186 -10.656,9.313c-3.099,0.352 -6.279,0.537 -9.522,0.537c-4.446,0 -8.774,-0.345 -12.934,-0.996c-0.06,-0.237 -0.1,-0.486 -0.116,-0.745c-0.505,-8.183 26.838,-53.131 33.167,-49.823" style="fill:#7d5f54;"/><path d="M579.956,274.5c-3.925,2.549 -6.275,7.107 -8.448,12.768c8.8,5.355 19.131,8.44 30.185,8.44c11.06,0 21.397,-3.088 30.198,-8.449c-2.162,-5.695 -4.509,-10.27 -8.483,-12.759c-9.921,-6.213 -15.892,-7.701 -21.747,-7.78c-5.987,-0.082 -11.853,1.384 -21.705,7.78" style="fill:#cbe3e2;"/><path d="M593.465,244.888l16.434,0l0,23.769c0,8.023 -16.434,8.944 -16.434,0l0,-23.769Z" style="fill:#ffddb8;"/><path d="M609.898,259.81l0,-3.038l-16.433,0l0,11.186l16.433,-8.148Z" style="fill:#e8c5a0;"/><path d="M601.682,214.664c34.801,0 20.694,45.969 0,45.969c-20.693,0 -34.8,-45.969 0,-45.969" style="fill:#ffddb8;"/><path d="M608.758,219.091c5.766,2.844 10.422,9.599 11.659,16.889c1.236,7.288 1.033,4.245 3.557,-1.143c2.523,-5.386 -3.658,-28.617 -21.706,-28.617c-18.049,0 -25.437,17.872 -22.915,27.636c2.524,9.762 4.021,7.068 5.599,-0.339c1.576,-7.407 7.999,-16.068 23.806,-14.426" style="fill:#7d5f54;"/><path d="M617.991,259.147c10.125,-24.312 -5.823,-39.508 -9.366,-39.687c6.83,-1.213 22.952,13.908 9.366,39.687" style="fill:#c48872;"/><path d="M609.974,267.863c-0.763,7.871 -8.224,14.592 -8.224,20.952c0,-6.378 -7.498,-13.102 -8.226,-21.014l16.45,0.062Z" style="fill:#ffddb8;"/><path d="M601.75,285.907c3.592,-5.371 7.336,-8.459 11.853,-9.867c2.23,-0.694 6.144,-1.437 8.239,-0.416c-3.965,-4.508 -8.136,-6.761 -11.868,-11.004c-0.044,12.238 -8.3,14.383 -8.224,21.287" style="fill:#478c76;"/><path d="M601.75,285.907c2.687,-5.72 6.849,-10.547 11.364,-11.954c2.233,-0.695 4.337,-0.533 6.433,0.487c-3.966,-4.507 -5.841,-7.107 -9.573,-9.82c-0.044,12.238 -8.3,14.383 -8.224,21.287" style="fill:#cbe3e2;"/><path d="M601.75,285.907c-3.59,-5.371 -7.335,-8.459 -11.852,-9.867c-2.23,-0.694 -6.145,-1.437 -8.239,-0.416c3.965,-4.508 8.136,-6.761 11.868,-11.004c0.044,12.238 8.301,14.383 8.223,21.287" style="fill:#478c76;"/><path d="M601.75,285.907c-2.686,-5.72 -6.848,-10.547 -11.364,-11.954c-2.232,-0.695 -4.336,-0.533 -6.432,0.487c3.967,-4.507 5.841,-7.107 9.573,-9.82c0.044,12.238 8.301,14.383 8.223,21.287" style="fill:#cbe3e2;"/><path d="M586.475,263.884c-11.391,-49.519 16.96,-44.513 22.276,-44.334c-7.922,-5.993 -44.114,-6.372 -22.276,44.334" style="fill:#c48872;"/><path d="M691.504,319.825c-9.94,0 -18,-8.059 -18,-18c0,-9.942 8.06,-18 18,-18c9.942,0 18,8.058 18,18c0,9.941 -8.058,18 -18,18" style="fill:#cbe3e2;"/><path d="M688.957,304.092l5.087,0l0,7.893c0,2.485 -5.087,2.771 -5.087,0l0,-7.893Z" style="fill:#ffddb8;"/><path d="M684.775,313.259c-1.216,0.789 -1.943,2.2 -2.615,3.953c2.724,1.658 5.922,2.614 9.345,2.614c3.423,0 6.624,-0.957 9.349,-2.616c-0.67,-1.764 -1.396,-3.181 -2.627,-3.951c-3.071,-1.923 -4.947,-2.23 -6.759,-2.253c-1.855,-0.027 -3.644,0.273 -6.693,2.253" style="fill:#e6615f;"/><path d="M694.044,308.712l0,-0.941l-5.087,0l0,3.463l5.087,-2.522Z" style="fill:#e8c5a0;"/><path d="M691.501,294.734c10.774,0 6.406,14.233 0,14.233c-6.407,0 -10.773,-14.233 0,-14.233" style="fill:#ffddb8;"/><path d="M690.951,315.336l-0.317,4.468c0.289,0.015 0.579,0.021 0.87,0.021c0.292,0 0.584,-0.006 0.872,-0.021l-0.318,-4.468l1.796,-4.305c-1.682,-0.029 -3.028,-0.026 -4.7,0l1.797,4.305Z" style="fill:#fff;"/><path d="M688.957,309.503l-1.955,2.49l1.113,2.926l3.327,-3.896l-2.485,-1.52Z" style="fill:#c94341;"/><path d="M688.957,309.503l-1.955,2.49l1.215,2.272l3.225,-3.242l-2.485,-1.52Z" style="fill:#e6615f;"/><path d="M694.044,309.503l1.957,2.49l-1.114,2.926l-3.328,-3.896l2.485,-1.52Z" style="fill:#c94341;"/><path d="M694.044,309.503l1.957,2.49l-1.217,2.272l-3.225,-3.242l2.485,-1.52Z" style="fill:#e6615f;"/><path d="M696.814,299.16c-0.021,-1.179 -1.012,-2.442 -1.73,-2.801c-0.719,-0.359 -4.35,0.089 -6.225,1.282c-2.028,1.29 -2.401,2.269 -2.536,3.426c-0.042,0.363 -0.141,0.731 -0.337,0.659c-0.621,-0.226 -0.744,-1.301 -1.271,-1.617c-0.769,-0.462 -0.417,-1.859 -0.11,-3.038c0.308,-1.181 2.015,-4.402 6.695,-4.529c2.334,-0.063 3.283,1.344 3.993,1.486c2.133,0.429 3.468,4.373 2.843,6.16c-0.281,0.805 -0.696,1.392 -1.274,1.223c-0.263,-0.076 -0.034,-1.567 -0.048,-2.251" style="fill:#ad4947;"/><path d="M698.421,299.631c0.393,0.088 0.547,0.893 0.345,1.802c-0.203,0.908 -0.684,1.573 -1.077,1.487c-0.391,-0.088 -0.546,-0.896 -0.345,-1.802c0.203,-0.909 0.685,-1.575 1.077,-1.487" style="fill:#ffddb8;"/><path d="M684.581,299.631c-0.392,0.088 -0.546,0.893 -0.344,1.802c0.203,0.908 0.684,1.573 1.076,1.487c0.392,-0.088 0.546,-0.896 0.344,-1.802c-0.203,-0.909 -0.683,-1.575 -1.076,-1.487" style="fill:#f7d6b2;"/><path d="M477.508,377.893c-16.651,0 -30.15,-13.498 -30.15,-30.149c0,-16.651 13.499,-30.149 30.15,-30.149c16.653,0 30.151,13.498 30.151,30.149c0,16.651 -13.498,30.149 -30.151,30.149" style="fill:#e6615f;"/><path d="M466.225,361.508c-2.971,1.927 -4.202,6.072 -5.944,10.98c4.885,3.408 10.822,5.406 17.227,5.406c6.396,0 12.326,-1.993 17.203,-5.39c-1.737,-4.93 -2.948,-9.114 -5.954,-10.996c-5.144,-3.223 -8.24,-3.995 -11.276,-4.036c-3.106,-0.041 -6.147,0.719 -11.256,4.036" style="fill:#ffd67d;"/><path d="M484.239,359.047c-2.674,-1.193 -4.73,-1.548 -6.759,-1.575c-2.074,-0.028 -4.12,0.302 -6.772,1.513c0.69,3.104 3.46,5.426 6.772,5.426c3.29,0 6.046,-2.291 6.759,-5.364" style="fill:#ffae00;"/><path d="M473.231,346.152l8.521,0l0,12.325c0,4.16 -8.521,4.639 -8.521,0l0,-12.325Z" style="fill:#ffddb8;"/><path d="M477.491,330.478c18.046,0 10.731,23.839 0,23.839c-10.731,0 -18.047,-23.839 0,-23.839" style="fill:#f0ceaa;"/><path d="M477.491,330.478c18.046,0 10.731,23.839 0,23.839l0,-23.839Z" style="fill:#ffddb8;"/><path d="M477.303,333.34c2.021,0 2.877,-0.893 4.253,-0.256c2.743,1.272 5.105,4.854 5.758,7.298c0.981,3.664 0.428,3.351 1.737,0.558c1.308,-2.794 -1.897,-14.84 -11.257,-14.84c-9.359,0 -13.191,9.266 -11.883,14.33c1.31,5.062 1.31,3.86 2.127,0.019c0.819,-3.841 2.559,-6.933 9.265,-7.109" style="fill:#7d5f54;"/><path d="M482.317,333.279c-1.328,1.151 -5.834,3.747 -8.46,3.817c0.688,-0.622 1.154,-1.203 1.381,-1.909c0.228,-0.705 -3.573,2.662 -5.107,2.807c0.793,-0.945 0.926,-1.337 0.963,-1.857c-2.487,1.36 -2.445,3.993 -2.442,6.112c0.004,2.118 -1.143,1.524 -0.987,-0.801c0.156,-2.323 -1.392,-5.166 -0.615,-7.002c0.777,-1.837 11.016,-4.378 14.265,-4.378c3.249,0 5.933,3.247 6.709,4.661c0.777,1.412 -0.73,5.387 -0.688,6.659c0.042,1.27 -0.987,2.661 -0.999,-0.036c-0.013,-2.699 -1.573,-5.507 -4.02,-8.073" style="fill:#7d5f54;"/><path d="M489.088,338.68c0.656,0.146 0.914,1.498 0.576,3.018c-0.339,1.521 -1.145,2.636 -1.802,2.49c-0.657,-0.146 -0.915,-1.497 -0.576,-3.018c0.339,-1.522 1.144,-2.635 1.802,-2.49" style="fill:#ffddb8;"/><path d="M465.905,338.68c-0.656,0.146 -0.914,1.498 -0.576,3.018c0.339,1.521 1.146,2.636 1.803,2.49c0.656,-0.146 0.915,-1.497 0.576,-3.018c-0.338,-1.522 -1.145,-2.635 -1.803,-2.49" style="fill:#f7d6b2;"/><path d="M464.798,362.732c-1.995,2.196 -3.083,5.717 -4.517,9.756c1.944,1.356 4.057,2.489 6.298,3.362c0.303,-1.342 0.467,-2.763 0.467,-4.235c0,-3.334 -0.836,-6.41 -2.248,-8.883" style="fill:#ffae00;"/><path d="M488.417,375.859c2.239,-0.87 4.351,-2.001 6.295,-3.355c-1.431,-4.055 -2.502,-7.604 -4.509,-9.784c-1.417,2.473 -2.256,5.555 -2.256,8.895c0,1.475 0.165,2.899 0.47,4.244" style="fill:#ffae00;"/><path d="M561.072,78.159c-9.941,0 -18,-8.059 -18,-18c0,-9.941 8.059,-18 18,-18c9.942,0 18,8.059 18,18c0,9.941 -8.058,18 -18,18" style="fill:#a8d0ce;"/><path d="M554.284,68.376c-1.768,1.147 -2.504,3.609 -3.54,6.526c2.925,2.052 6.486,3.257 10.328,3.257c3.799,0 7.324,-1.179 10.228,-3.189c-1.042,-2.956 -1.764,-5.467 -3.564,-6.594c-3.072,-1.923 -4.921,-2.385 -6.733,-2.409c-1.853,-0.025 -3.67,0.429 -6.719,2.409" style="fill:#e6615f;"/><path d="M558.466,59.208l5.087,0l0,7.359c0,1.29 -1.373,5.511 -2.692,5.495c-1.221,-0.015 -2.395,-4.165 -2.395,-5.495l0,-7.359Z" style="fill:#ffddb8;"/><path d="M563.553,63.828l0,-0.941l-5.087,0l0,3.463l5.087,-2.522Z" style="fill:#e8c5a0;"/><path d="M561.009,49.85c10.773,0 6.407,14.233 0,14.233c-6.406,0 -10.774,-14.233 0,-14.233" style="fill:#ffddb8;"/><path d="M564.133,51.038c1.743,0.741 2.454,2.977 2.857,4.484c0.586,2.188 0.254,2 1.037,0.333c0.78,-1.668 -1.132,-8.861 -6.721,-8.861c-5.588,0 -7.875,5.534 -7.094,8.557c0.78,3.023 0.782,2.305 1.27,0.011c1.256,-5.897 5.678,-3.315 8.651,-4.524" style="fill:#eb817f;"/><path d="M564.542,52.196c-0.97,0.421 -4.343,2.571 -5.735,2.613c-1.39,0.042 0.253,-0.253 0.633,-0.675c0.379,-0.421 -2.656,0.971 -3.372,1.013c-0.718,0.041 0,-0.085 0.336,-0.548c0.338,-0.465 -1.222,0.252 -0.969,1.518c0.252,1.264 -1.044,0.791 -1.128,-0.39c-0.085,-1.18 0.031,-1.382 0.495,-2.478c0.465,-1.096 6.577,-2.613 8.517,-2.613c1.939,0 3.542,1.938 4.006,2.782c0.463,0.843 0.567,1.757 0.356,2.516c-0.211,0.759 -0.863,1.11 -0.863,0.141c0,-0.97 -1.56,-2.109 -2.276,-3.879" style="fill:#eb817f;"/><path d="M567.992,54.747c0.392,0.087 0.546,0.894 0.344,1.803c-0.203,0.908 -0.684,1.573 -1.076,1.486c-0.392,-0.087 -0.546,-0.895 -0.344,-1.803c0.203,-0.907 0.683,-1.573 1.076,-1.486" style="fill:#ffddb8;"/><path d="M554.152,54.747c-0.392,0.087 -0.547,0.894 -0.344,1.803c0.202,0.908 0.684,1.573 1.077,1.486c0.39,-0.087 0.546,-0.895 0.344,-1.803c-0.203,-0.907 -0.685,-1.573 -1.077,-1.486" style="fill:#f7d6b2;"/><path d="M553.441,69.137c-1.191,1.31 -1.839,3.413 -2.697,5.824c1.162,0.809 2.422,1.486 3.761,2.006c0.181,-0.801 0.278,-1.649 0.278,-2.528c0,-1.99 -0.499,-3.827 -1.342,-5.302" style="fill:#ffaead;"/><path d="M567.542,76.973c1.337,-0.519 2.599,-1.195 3.759,-2.003c-0.854,-2.42 -1.494,-4.54 -2.693,-5.842c-0.845,1.478 -1.346,3.317 -1.346,5.311c0,0.881 0.098,1.731 0.28,2.534" style="fill:#ffaead;"/><path d="M659.544,77.151c-16.65,0 -30.149,-13.498 -30.149,-30.15c0,-16.651 13.499,-30.15 30.149,-30.15c16.653,0 30.151,13.499 30.151,30.15c0,16.652 -13.498,30.15 -30.151,30.15" style="fill:#ffcd61;"/><path d="M668.798,44.353c-2.883,1.706 -0.879,5.125 0.361,3.161c1.208,1.848 -2.019,7.498 -7.855,3.038c-5.834,-4.46 2.677,-13.295 7.494,-6.199" style="fill:#7d5f54;"/><path d="M650.335,44.119c2.883,1.706 0.879,5.126 -0.362,3.161c-1.207,1.848 2.02,7.498 7.856,3.038c5.836,-4.46 -2.678,-13.295 -7.494,-6.199" style="fill:#7d5f54;"/><path d="M651.252,48.205c2.422,2.315 -0.305,5.192 -1.068,2.997c-1.594,1.527 0.27,7.761 6.964,4.737c6.693,-3.022 0.401,-13.556 -5.896,-7.734" style="fill:#7d5f54;"/><path d="M667.871,48.205c-2.422,2.315 0.304,5.192 1.068,2.997c1.593,1.527 -0.272,7.761 -6.964,4.737c-6.695,-3.022 -0.401,-13.556 5.896,-7.734" style="fill:#7d5f54;"/><path d="M648.272,60.764c-2.969,1.928 -4.2,6.074 -5.943,10.982c4.884,3.406 10.823,5.406 17.229,5.406c6.393,0 12.324,-1.994 17.202,-5.39c-1.738,-4.931 -2.948,-9.115 -5.954,-10.998c-5.146,-3.222 -8.241,-3.993 -11.278,-4.034c-3.104,-0.043 -6.147,0.718 -11.256,4.034" style="fill:#ad4947;"/><path d="M655.279,45.408l8.521,0l0,12.327c0,4.159 -8.521,4.638 -8.521,0l0,-12.327Z" style="fill:#ffddb8;"/><path d="M663.8,53.146l0,-1.575l-8.521,0l0,5.802l8.521,-4.227Z" style="fill:#e8c5a0;"/><path d="M659.539,29.734c18.048,0 10.731,23.839 0,23.839c-10.731,0 -18.047,-23.839 0,-23.839" style="fill:#ffddb8;"/><path d="M659.544,68.587c0,-1.563 -4.211,-7.193 -4.211,-10.232l8.423,0c0,3.039 -4.212,8.669 -4.212,10.232" style="fill:#ffddb8;"/><path d="M659.536,68.949c-2.673,-3.967 -5.586,-5.258 -7.368,-5.262c0.376,-1.77 1.341,-3.718 2.031,-4.471c-2.869,0.026 -3.768,0.613 -5.002,1.515c0.375,-2.277 3.745,-4.968 6.082,-5.926c0,1.677 -0.174,4.891 1.472,7.047c1.648,2.156 2.785,3.742 2.785,7.097" style="fill:#70a7cc;"/><path d="M659.536,68.949c2.67,-3.967 5.585,-5.258 7.366,-5.262c-0.376,-1.77 -1.342,-3.718 -2.03,-4.471c2.869,0.026 3.766,0.613 5.001,1.515c-0.375,-2.277 -3.744,-4.968 -6.08,-5.926c0,1.677 0.172,4.891 -1.474,7.047c-1.646,2.156 -2.783,3.742 -2.783,7.097" style="fill:#70a7cc;"/><path d="M659.234,32.598c6.052,0 8.983,3.976 9.175,7.04c0.195,3.064 1.263,3.351 2.571,0.558c1.31,-2.793 -1.896,-14.84 -11.256,-14.84c-9.358,0 -13.191,9.267 -11.882,14.33c1.308,5.064 2.931,2.193 2.868,0.021c-0.063,-2.173 1.817,-6.935 8.524,-7.109" style="fill:#7d5f54;"/><path d="M671.136,37.937c0.657,0.146 0.915,1.498 0.577,3.019c-0.339,1.521 -1.146,2.635 -1.802,2.49c-0.658,-0.147 -0.916,-1.498 -0.577,-3.02c0.338,-1.52 1.145,-2.635 1.802,-2.489" style="fill:#ffddb8;"/><path d="M647.955,37.937c-0.658,0.146 -0.916,1.498 -0.578,3.019c0.339,1.521 1.146,2.635 1.802,2.49c0.658,-0.147 0.916,-1.498 0.577,-3.02c-0.338,-1.52 -1.145,-2.635 -1.801,-2.489" style="fill:#f7d6b2;"/><path d="M651.893,30.408c-0.584,3.579 6.254,8.666 14.123,9.009c0.712,-9.303 -7.964,-12.469 -14.123,-9.009" style="fill:#7d5f54;"/><path d="M659.446,77.142c-0.035,-3.399 0.016,-7.616 0.221,-10.015c-0.728,2.618 -0.799,6.728 -0.606,10.01c0.127,0.002 0.256,0.004 0.385,0.005" style="fill:#70a7cc;"/><path d="M529.128,151.236c-9.942,0 -18,-8.059 -18,-18c0,-9.941 8.058,-18 18,-18c9.94,0 18,8.059 18,18c0,9.941 -8.06,18 -18,18" style="fill:#e6615f;"/><path d="M522.398,141.453c-1.773,1.151 -2.508,3.625 -3.547,6.555c1.422,0.993 2.994,1.785 4.675,2.336c1.554,-1.31 3.651,-0.841 5.609,-0.841c1.651,-2.568 3.844,-0.777 5.609,0.84c1.676,-0.549 3.243,-1.338 4.661,-2.325c-1.037,-2.944 -1.761,-5.442 -3.555,-6.565c-3.072,-1.923 -4.919,-2.385 -6.732,-2.409c-1.854,-0.026 -3.67,0.428 -6.72,2.409" style="fill:#fff;"/><path d="M526.58,132.285l5.088,0l0,7.359c0,2.483 -5.088,2.769 -5.088,0l0,-7.359Z" style="fill:#ffddb8;"/><path d="M531.668,136.905l0,-0.941l-5.087,0l0,3.464l5.087,-2.523Z" style="fill:#e8c5a0;"/><path d="M529.125,122.928c10.774,0 6.406,14.232 0,14.232c-6.407,0 -10.775,-14.232 0,-14.232" style="fill:#ffddb8;"/><path d="M528.942,124.189c3.613,0 5.362,2.373 5.479,4.203c0.115,1.829 0.753,2 1.535,0.333c0.781,-1.668 -1.133,-8.86 -6.721,-8.86c-5.587,0 -7.875,5.533 -7.094,8.556c0.782,3.023 1.75,1.309 1.712,0.012c-0.037,-1.297 1.085,-4.14 5.089,-4.244" style="fill:#7d5f54;"/><path d="M523.813,129.549c-0.183,1.276 -1.328,0.436 -1.412,-0.745c-0.085,-1.18 0.031,-1.381 0.495,-2.478c0.464,-1.096 2.932,-4.027 6.046,-4.027c3.112,0 6.013,3.353 6.478,4.197c0.462,0.843 0.566,1.756 0.355,2.514c-0.211,0.759 -0.703,1.287 -0.97,0.355c-0.908,-3.19 -3.474,-5.116 -5.783,-5.156c-2.839,-0.05 -4.875,3.013 -5.209,5.34" style="fill:#7d5f54;"/><path d="M536.048,127.825c0.392,0.087 0.547,0.894 0.344,1.801c-0.202,0.909 -0.684,1.575 -1.077,1.487c-0.391,-0.087 -0.546,-0.894 -0.344,-1.802c0.202,-0.908 0.685,-1.573 1.077,-1.486" style="fill:#ffddb8;"/><path d="M522.208,127.825c-0.392,0.087 -0.547,0.894 -0.344,1.801c0.202,0.909 0.684,1.575 1.075,1.487c0.392,-0.087 0.546,-0.894 0.344,-1.802c-0.202,-0.908 -0.683,-1.573 -1.075,-1.486" style="fill:#f7d6b2;"/><path d="M525.08,139.944l0,7.827l8.095,0l0,-7.778c0.488,0.218 1.011,0.484 1.579,0.805l0,9.543c-1.812,0.595 -3.719,0.895 -5.627,0.895c-1.921,0 -3.808,-0.301 -5.625,-0.901l0,-1.096l0,-8.468c0.567,-0.332 1.091,-0.604 1.578,-0.827" style="fill:#2e5b78;"/><path d="M533.345,124.615c0.349,2.137 -3.734,5.173 -8.431,5.378c-0.426,-5.553 4.755,-7.444 8.431,-5.378" style="fill:#7d5f54;"/><path d="M479.722,76.273c-0.302,0 -0.6,0.021 -0.89,0.063c-1.201,0.169 -2.292,0.675 -3.178,1.419c-0.012,-0.585 -0.071,-1.157 -0.17,-1.716c-0.073,-0.41 -0.172,-0.812 -0.289,-1.205c-0.971,-3.253 -3.411,-5.872 -6.551,-7.085c-0.361,-0.14 -0.73,-0.261 -1.11,-0.362c-0.904,-0.243 -1.855,-0.374 -2.836,-0.374c-0.15,0 -0.302,0.006 -0.454,0.012c-5.842,0.238 -10.506,5.048 -10.506,10.949c0,1.119 0.169,2.199 0.481,3.216c-2.1,0.047 -3.788,1.76 -3.788,3.87c0,2.139 1.735,3.873 3.875,3.873l25.416,0c3.496,0 6.329,-2.833 6.329,-6.33c0,-3.495 -2.833,-6.33 -6.329,-6.33" style="fill:#cbe3e2;fill-rule:nonzero;"/><path d="M503.977,275.619c-0.303,0 -0.6,0.021 -0.891,0.062c-1.2,0.17 -2.292,0.675 -3.177,1.42c-0.013,-0.584 -0.072,-1.158 -0.171,-1.716c-0.074,-0.41 -0.171,-0.812 -0.289,-1.204c-0.97,-3.255 -3.41,-5.873 -6.551,-7.088c-0.36,-0.137 -0.731,-0.26 -1.11,-0.361c-0.904,-0.242 -1.854,-0.374 -2.835,-0.374c-0.152,0 -0.303,0.006 -0.454,0.013c-5.842,0.238 -10.506,5.047 -10.506,10.948c0,1.12 0.169,2.2 0.481,3.217c-2.1,0.046 -3.789,1.76 -3.789,3.87c0,2.139 1.735,3.873 3.875,3.873l25.417,0c3.495,0 6.329,-2.833 6.329,-6.33c0,-3.495 -2.834,-6.33 -6.329,-6.33" style="fill:#cbe3e2;fill-rule:nonzero;"/><path d="M294.938,200.466c-0.303,0 -0.599,0.021 -0.89,0.063c-1.2,0.17 -2.293,0.675 -3.178,1.419c-0.012,-0.585 -0.071,-1.157 -0.17,-1.716c-0.074,-0.41 -0.171,-0.812 -0.289,-1.205c-0.97,-3.253 -3.411,-5.871 -6.551,-7.085c-0.361,-0.14 -0.731,-0.261 -1.11,-0.362c-0.905,-0.242 -1.854,-0.374 -2.835,-0.374c-0.152,0 -0.303,0.006 -0.455,0.012c-5.841,0.238 -10.506,5.048 -10.506,10.949c0,1.119 0.17,2.199 0.482,3.216c-2.1,0.047 -3.788,1.76 -3.788,3.87c0,2.139 1.734,3.873 3.874,3.873l25.416,0c3.496,0 6.329,-2.833 6.329,-6.33c0,-3.495 -2.833,-6.33 -6.329,-6.33" style="fill:#cbe3e2;fill-rule:nonzero;"/><path d="M727.113,210.43c-0.303,0 -0.599,0.021 -0.89,0.063c-1.2,0.169 -2.293,0.675 -3.178,1.419c-0.011,-0.585 -0.07,-1.157 -0.169,-1.716c-0.074,-0.41 -0.172,-0.813 -0.289,-1.205c-0.971,-3.253 -3.412,-5.872 -6.551,-7.085c-0.362,-0.14 -0.731,-0.261 -1.11,-0.363c-0.906,-0.242 -1.855,-0.373 -2.836,-0.373c-0.152,0 -0.302,0.006 -0.455,0.012c-5.841,0.237 -10.506,5.048 -10.506,10.949c0,1.119 0.171,2.199 0.483,3.216c-2.101,0.047 -3.789,1.759 -3.789,3.87c0,2.139 1.735,3.873 3.875,3.873l25.415,0c3.497,0 6.329,-2.833 6.329,-6.33c0,-3.496 -2.832,-6.33 -6.329,-6.33" style="fill:#cbe3e2;fill-rule:nonzero;"/><path d="M251.105,307.619c-16.709,0 -30.254,-13.544 -30.254,-30.253c0,-16.708 13.545,-30.254 30.254,-30.254c16.708,0 30.253,13.546 30.253,30.254c0,16.709 -13.545,30.253 -30.253,30.253" style="fill:#ffcd61;"/><path d="M239.782,291.176c-2.98,1.935 -4.215,6.094 -5.963,11.018c4.9,3.42 10.858,5.425 17.286,5.425c6.417,0 12.367,-1.999 17.262,-5.407c-1.744,-4.95 -2.959,-9.147 -5.975,-11.036c-5.162,-3.233 -8.269,-4.006 -11.315,-4.048c-3.116,-0.043 -6.169,0.72 -11.295,4.048" style="fill:#eb817f;"/><path d="M246.812,275.767l8.55,0l0,12.368c0,2.102 -3.303,9.627 -4.275,16.383c-0.709,-4.112 -4.275,-14.072 -4.275,-16.383l0,-12.368Z" style="fill:#ffddb8;"/><path d="M253.291,295.531c-0.865,2.779 -1.768,5.96 -2.203,8.987c-0.362,-2.094 -1.464,-5.701 -2.457,-9.045c0.77,0.167 1.604,0.259 2.474,0.259c0.763,0 1.497,-0.07 2.186,-0.201" style="fill:#e6615f;"/><path d="M255.362,283.533l0,-1.581l-8.55,0l0,5.82l8.55,-4.239Z" style="fill:#e8c5a0;"/><path d="M251.087,260.04c18.109,0 10.768,23.921 0,23.921c-10.767,0 -18.108,-23.921 0,-23.921" style="fill:#ffddb8;"/><path d="M250.9,262.913c6.073,0 9.059,3.386 10.045,7.065c0.984,3.679 0.429,3.364 1.742,0.56c1.313,-2.804 -1.904,-14.892 -11.295,-14.892c-9.392,0 -13.236,9.3 -11.923,14.38c1.313,5.081 1.313,3.875 2.134,0.021c0.82,-3.854 2.566,-6.958 9.297,-7.134" style="fill:#c48872;"/><path d="M262.724,268.271c0.659,0.147 0.918,1.502 0.578,3.028c-0.339,1.527 -1.149,2.646 -1.808,2.498c-0.659,-0.147 -0.918,-1.501 -0.578,-3.028c0.339,-1.526 1.149,-2.645 1.808,-2.498" style="fill:#ffddb8;"/><path d="M239.462,268.271c-0.658,0.147 -0.918,1.502 -0.578,3.028c0.34,1.527 1.149,2.646 1.808,2.498c0.66,-0.147 0.918,-1.501 0.579,-3.028c-0.34,-1.526 -1.149,-2.645 -1.809,-2.498" style="fill:#f7d6b2;"/><path d="M244.345,268.947c-0.636,0.296 -1.524,1.204 -1.183,3.11c0.341,1.906 1.504,2.848 2.929,2.707c1.425,-0.139 3.149,-1.182 3.892,-2.306c0.326,-0.493 0.462,-1.077 0.419,-1.619l0.703,0l0,-0.301l-0.746,0c-0.121,-0.569 -0.451,-1.061 -0.978,-1.31c-0.239,-0.112 -0.546,-0.221 -0.893,-0.313l2.617,0l0,-0.302l-0.21,0l-4.582,0c-0.728,-0.009 -1.431,0.085 -1.968,0.334M251.105,270.839l0.703,0c-0.043,0.542 0.094,1.126 0.42,1.619c0.742,1.124 2.467,2.167 3.892,2.306c1.424,0.141 2.587,-0.801 2.928,-2.707c0.342,-1.906 -0.547,-2.814 -1.184,-3.11c-0.535,-0.249 -1.24,-0.343 -1.967,-0.334l-4.583,0l-0.209,0l0,0.302l2.617,0c-0.347,0.092 -0.653,0.201 -0.893,0.313c-0.527,0.249 -0.857,0.741 -0.977,1.31l-0.747,0l0,0.301Z" style="fill:#e6615f;"/><path d="M244.473,269.219c-0.355,0.166 -0.641,0.473 -0.818,0.818c-0.31,0.6 -0.313,1.315 -0.197,1.965c0.168,0.939 0.613,1.936 1.55,2.321c0.335,0.138 0.694,0.178 1.053,0.142c1.29,-0.127 2.955,-1.089 3.67,-2.174c0.466,-0.704 0.548,-1.777 -0.027,-2.446c-0.126,-0.145 -0.278,-0.263 -0.452,-0.345c-0.715,-0.338 -1.748,-0.518 -2.532,-0.57c-0.705,-0.045 -1.597,-0.012 -2.247,0.289" style="fill:#ffaead;"/><path d="M257.738,269.219c0.354,0.166 0.64,0.473 0.817,0.818c0.31,0.6 0.313,1.315 0.197,1.965c-0.168,0.939 -0.613,1.936 -1.55,2.321c-0.335,0.138 -0.694,0.178 -1.053,0.142c-1.291,-0.127 -2.955,-1.089 -3.67,-2.174c-0.466,-0.704 -0.549,-1.777 0.027,-2.446c0.126,-0.145 0.279,-0.263 0.452,-0.345c0.715,-0.338 1.748,-0.518 2.532,-0.57c0.705,-0.045 1.597,-0.012 2.248,0.289" style="fill:#ffaead;"/><path d="M251.087,304.518c0,-5.553 -4.299,-13.727 -4.275,-19.328c-3.752,1.372 -5.52,3.61 -7.029,5.986c8.463,0.16 9.032,8.659 11.304,13.342" style="fill:#7e9c9b;"/><path d="M251.087,304.518c0,-8.012 4.319,-13.909 4.275,-19.64c2.903,0.351 6.866,4.832 7.294,6.472c-8.464,0.16 -9.295,8.485 -11.569,13.168" style="fill:#7e9c9b;"/><path d="M256.042,262.594c-1.328,1.151 -5.833,3.747 -8.461,3.817c0.69,-0.621 1.155,-1.203 1.383,-1.909c0.228,-0.705 -3.573,2.664 -5.107,2.807c0.793,-0.944 0.925,-1.336 0.962,-1.857c-2.488,1.36 -2.445,3.993 -2.441,6.112c0.003,2.119 -1.143,1.524 -0.988,-0.799c0.156,-2.325 -1.393,-5.168 -0.615,-7.004c0.777,-1.836 11.017,-4.379 14.265,-4.379c3.249,0 5.933,3.25 6.71,4.662c0.777,1.412 -0.732,5.387 -0.689,6.659c0.044,1.272 -0.986,2.662 -1,-0.036c-0.011,-2.699 -1.572,-5.505 -4.019,-8.073" style="fill:#c48872;"/></svg>