<svg viewBox="0 0 924 503" xmlns="http://www.w3.org/2000/svg" fill-rule="evenodd" clip-rule="evenodd" stroke-linejoin="round" stroke-miterlimit="1.414"><path fill="#fff" d="M611.52 112.976h108.105v48.917H611.52z"/><path d="M712.05 155.35l-33.215 26.6 11.105-26.905 22.11.306z" fill="#fff"/><path fill="#e6615f" d="M618.39 118.83h17.594v5.332H618.39z"/><path fill="#ccc" d="M643.714 118.83h48.25v5.332h-48.25zm53.544 0h15.496v5.332h-15.496zm-53.544 10.663h21.302v5.33h-21.302zm24.19 0h6.12v5.33h-6.12zm8.49 0h5.624v5.33h-5.625z"/><path fill="#00806f" d="M618.39 141.222h17.594v5.33H618.39z"/><path fill="#ccc" d="M643.714 141.222h15.438v5.33h-15.438zm28.534 0h13.028v5.33h-13.028zm-28.534 10.663h23.797v5.33h-23.795zm41.04 0h21.3v5.33h-21.3zm-21.98-10.663h7.105v5.33h-7.108zm24.673 0h25.308v5.33h-25.308zm-17.083 10.663h11.752v5.33h-11.752z"/><path fill="#fff" d="M312.81 255.02h108.105v48.92H312.81z"/><path d="M319.24 257.425l33.213-26.598-11.105 26.904-22.11-.304z" fill="#fff"/><path fill="#e6615f" d="M319.68 260.876h17.594v5.332H319.68z"/><path fill="#ccc" d="M345.005 260.876h48.248v5.332h-48.248zm53.542 0h15.497v5.332h-15.497zm-53.542 10.664h21.3v5.33h-21.3zm24.19 0h6.12v5.33h-6.12zm8.488 0h5.625v5.33h-5.625z"/><path fill="#00806f" d="M319.68 283.268h17.594v5.33H319.68z"/><path fill="#ccc" d="M345.005 283.268h15.437v5.33h-15.437zm28.532 0h13.028v5.33h-13.028zm-28.532 10.662H368.8v5.33h-23.795zm41.038 0h21.3v5.33h-21.3zm-21.98-10.662h7.105v5.33h-7.106zm24.673 0h25.308v5.33h-25.308zm-17.083 10.662h11.754v5.33h-11.754z"/><path fill="#fff" d="M205.5 324.88h108.107v48.916H205.5z"/><path d="M310.336 330.42L276.098 303l11.447 27.734 22.79-.315z" fill="#fff"/><path fill="#e6615f" d="M212.37 330.734h17.595v5.33H212.37z"/><path fill="#ccc" d="M237.695 330.734h48.248v5.33h-48.248zm53.543 0h15.497v5.33h-15.497zm-53.543 10.662h21.3v5.33h-21.3zm24.19 0h6.12v5.33h-6.12zm8.49 0H276v5.33h-5.626z"/><path fill="#00806f" d="M212.37 353.125h17.595v5.33H212.37z"/><path fill="#ccc" d="M237.695 353.125h15.437v5.33h-15.437zm28.533 0h13.028v5.33h-13.028zm-28.533 10.662h23.796v5.332h-23.794zm41.04 0h21.3v5.332h-21.3zm-21.982-10.662h7.107v5.33h-7.107zm24.675 0h25.308v5.33h-25.308zm-17.085 10.662h11.754v5.332h-11.754z"/></svg>