<?xml version="1.0" standalone="no"?><!DOCTYPE svg PUBLIC "-//W3C//DTD SVG 1.1//EN" "http://www.w3.org/Graphics/SVG/1.1/DTD/svg11.dtd"><svg width="100%" height="100%" viewBox="0 0 139 158" version="1.1" xmlns="http://www.w3.org/2000/svg" xmlns:xlink="http://www.w3.org/1999/xlink" xml:space="preserve" style="fill-rule:evenodd;clip-rule:evenodd;stroke-linejoin:round;stroke-miterlimit:1.41421;"><path d="M79.111,52.483l-3.054,0l0,-8.549l-12.212,0l0,8.549l-3.663,0l0,4.274l4.951,0l-1.127,3.745l2.457,2.06l0.2,2.252l3.651,6.192l3.521,-6.145l0.154,-2.205l2.408,-2.154l-1.127,-3.745l3.841,0l0,-4.274Z" style="fill:#2c2e32;fill-rule:nonzero;"/><path d="M63.845,43.934l0,8.549l-3.663,0l0,4.274l4.951,0l-1.127,3.745l2.457,2.06l0.2,2.252l3.651,6.192l0.048,-27.072l-6.517,0Z" style="fill:#606266;fill-rule:nonzero;"/></svg>