<?xml version="1.0" standalone="no"?><!DOCTYPE svg PUBLIC "-//W3C//DTD SVG 1.1//EN" "http://www.w3.org/Graphics/SVG/1.1/DTD/svg11.dtd"><svg width="100%" height="100%" viewBox="0 0 24 34" version="1.1" xmlns="http://www.w3.org/2000/svg" xmlns:xlink="http://www.w3.org/1999/xlink" xml:space="preserve" style="fill-rule:evenodd;clip-rule:evenodd;stroke-linejoin:round;stroke-miterlimit:1.41421;"><path d="M23.25,10.5l-3.75,0l0,-10.5l-15,0l0,10.5l-4.5,0l0,5.25l6.082,0l-1.384,4.6l3.017,2.53l0.246,2.765l4.485,7.607l4.324,-7.549l0.19,-2.707l2.957,-2.646l-1.384,-4.6l4.717,0l0,-5.25Z" style="fill:#2c2e32;fill-rule:nonzero;"/><path d="M4.5,0l0,10.5l-4.5,0l0,5.25l6.082,0l-1.384,4.6l3.017,2.53l0.246,2.765l4.485,7.607l0.058,-33.252l-8.004,0Z" style="fill:#606266;fill-rule:nonzero;"/></svg>