<?xml version="1.0" standalone="no"?><!DOCTYPE svg PUBLIC "-//W3C//DTD SVG 1.1//EN" "http://www.w3.org/Graphics/SVG/1.1/DTD/svg11.dtd"><svg width="100%" height="100%" viewBox="0 0 561 540" version="1.1" xmlns="http://www.w3.org/2000/svg" xmlns:xlink="http://www.w3.org/1999/xlink" xml:space="preserve" style="fill-rule:evenodd;clip-rule:evenodd;stroke-linejoin:round;stroke-miterlimit:1.41421;"><path d="M285.496,47.831c-2.378,-13.746 12.456,-22.501 28.866,-22.948c-0.143,-0.754 -0.219,-1.523 -0.219,-2.304c0,-9.758 11.577,-17.667 25.855,-17.667c3.448,0 6.737,0.462 9.745,1.299c6.699,-3.873 15.362,-6.211 24.825,-6.211c21.236,0 38.452,11.764 38.452,26.275c0,0.229 -0.005,0.459 -0.013,0.688c15.833,3.966 28.6,15.134 27.471,26.424c-0.536,5.361 -11.634,11.784 -24.701,11.897c-13.066,0.113 -23.849,-3.105 -32.777,-6.033c-4.668,6.156 -14.167,10.876 -26.051,12.103c-17.704,1.83 -34.418,-4.74 -38.957,-14.908c-0.33,0.04 -0.696,-0.037 -0.996,0.113c-7.616,3.789 -29.123,5.016 -31.5,-8.728" style="fill:#fff;"/><path d="M532.237,85.029c-2.369,0 -4.608,0.382 -6.592,1.061c-2.132,-5.043 -8.937,-8.731 -17.003,-8.731c-8.45,0 -15.514,4.048 -17.274,9.461c-2.697,-1.137 -4.765,-1.791 -9.271,-1.791c-4.505,0 -11.994,1.568 -14.01,4.983c-2.686,4.547 5.303,9.333 12.28,10.912c-0.597,1.212 -0.92,2.508 -0.92,3.857c0,6.678 7.923,12.093 17.696,12.093c4.493,0 8.594,-1.145 11.715,-3.03c3.239,1.27 7.035,1.422 10.996,1.997c10.727,1.556 23.681,-6.807 22.121,-15.116c-0.246,-1.31 -0.253,-2.625 -0.727,-3.858c2.671,0.6 5.406,-0.703 5.683,-2.618c0.747,-5.149 -6.971,-9.22 -14.694,-9.22" style="fill:#fff;"/><path d="M224.922,73.109c-2.182,-8.283 -13.696,-13.787 -26.209,-14.127c0.133,-0.698 0.202,-1.408 0.202,-2.13c0,-9.015 -10.695,-16.323 -23.887,-16.323c-3.186,0 -6.225,0.427 -9.004,1.2c-6.189,-3.579 -14.193,-5.739 -22.937,-5.739c-17.507,0 -32.055,8.654 -34.988,20.043c-15.958,0.711 -31.59,11.28 -28.193,21.832c4.165,12.942 35.614,14.522 43.705,4.954c2.818,8.989 15.896,15.787 31.606,15.787c15.362,0 28.206,-6.499 31.404,-15.192c8.026,5.158 43.382,8.982 38.301,-10.305" style="fill:#fff;"/><path d="M19.07,112.741c2.266,-5.358 9.495,-9.275 18.066,-9.275c8.978,0 16.484,4.3 18.354,10.05c2.864,-1.206 6.237,-1.903 9.849,-1.903c13.601,0 28.622,12.881 8.796,17.37c0.633,1.287 1.109,2.597 0.977,4.097c-0.775,8.764 -9.713,13.489 -18.803,12.848c-4.761,-0.336 -9.129,-1.216 -12.445,-3.219c-3.442,1.351 -7.431,2.123 -11.684,2.123c-12.981,0 -23.503,-7.191 -23.503,-16.061c0,-1.417 0.268,-2.791 0.773,-4.099c-19.229,-4.92 -5.576,-17.129 9.62,-11.931" style="fill:#fff;"/></svg>