<?xml version="1.0" standalone="no"?><!DOCTYPE svg PUBLIC "-//W3C//DTD SVG 1.1//EN" "http://www.w3.org/Graphics/SVG/1.1/DTD/svg11.dtd"><svg width="100%" height="100%" viewBox="0 0 561 540" version="1.1" xmlns="http://www.w3.org/2000/svg" xmlns:xlink="http://www.w3.org/1999/xlink" xml:space="preserve" style="fill-rule:evenodd;clip-rule:evenodd;stroke-linecap:round;stroke-linejoin:round;stroke-miterlimit:22.926;"><path d="M130.297,192.892l276.481,0c5.651,0 10.274,4.623 10.274,10.274l0,174.669c0,5.65 -4.623,10.273 -10.274,10.273l-276.481,0c-5.651,0 -10.274,-4.623 -10.274,-10.273l0,-174.669c0,-5.651 4.623,-10.274 10.274,-10.274" style="fill:#013c5c;"/><rect x="135.434" y="213.275" width="266.205" height="142.91" style="fill:#fff;"/><path d="M268.536,207.183c2.064,0 3.736,-1.673 3.736,-3.736c0,-2.063 -1.672,-3.736 -3.736,-3.736c-2.063,0 -3.735,1.673 -3.735,3.736c0,2.063 1.672,3.736 3.735,3.736" style="fill:#5895cb;"/><rect x="262.22" y="365.081" width="12.632" height="12.632" style="fill:#055a87;"/><path d="M120.022,388.109l297.03,0l51.588,33.815l-400.207,0l51.589,-33.815Z" style="fill:#055a87;"/><path d="M68.433,421.924l400.207,0l0,4.808c0,4.083 -3.342,7.425 -7.425,7.425l-385.357,0c-4.083,0 -7.425,-3.342 -7.425,-7.425l0,-4.808Z" style="fill:#013c5c;"/><rect x="68.433" y="421.925" width="400.208" height="5.761" style="fill:#013c5c;"/><path d="M133.599,407.514l-0.296,0.235l0.296,0l0,-0.235ZM133.599,400.509l0,0.23c-1.458,1.134 -2.946,2.268 -4.434,3.399c-1.587,1.206 -3.14,2.413 -4.728,3.623c-8.608,0.008 -17.18,0.016 -25.751,0.024c1.884,-1.211 3.739,-2.416 5.615,-3.636c1.854,-1.205 3.732,-2.428 5.579,-3.643c7.883,0.003 15.8,0.003 23.719,0.003M133.599,390.414l0,7.274c-6.465,-0.003 -12.924,-0.006 -19.359,-0.01c1.847,-1.212 3.738,-2.418 5.615,-3.638c1.854,-1.203 3.732,-2.427 5.616,-3.642l8.128,0.016ZM133.599,400.739l0.296,-0.23l-0.296,0l0,0.23ZM146.382,400.509l0,7.228l-12.783,0.012l0,-0.235c1.41,-1.124 2.775,-2.239 4.174,-3.382c1.459,-1.189 2.957,-2.414 4.434,-3.623l4.175,0ZM146.382,397.096c-0.248,0.2 -0.494,0.401 -0.739,0.601l0.739,0l0,-0.601ZM146.382,390.438l0,0.564c-1.349,1.027 -2.709,2.053 -4.027,3.066c-1.58,1.214 -3.178,2.417 -4.766,3.623l-3.99,-0.003l0,-7.274l12.783,0.024ZM329.37,390.786c7.204,0.014 14.445,0.027 21.687,0.041c1.145,1.169 2.216,2.334 3.324,3.496c1.108,1.163 2.217,2.325 3.363,3.488c-7.833,-0.006 -15.629,-0.009 -23.424,-0.014c-0.813,-1.168 -1.648,-2.341 -2.475,-3.502c-0.836,-1.174 -1.626,-2.338 -2.475,-3.509M300.257,390.731c7.204,0.014 14.446,0.027 21.687,0.042c0.739,1.173 1.455,2.337 2.179,3.514c0.716,1.162 1.441,2.336 2.18,3.506c-7.832,-0.005 -15.627,-0.008 -23.423,-0.013c-0.443,-1.173 -0.887,-2.347 -1.329,-3.521c-0.444,-1.173 -0.85,-2.349 -1.294,-3.528M271.108,390.675c7.204,0.014 14.445,0.028 21.65,0.042c0.369,1.179 0.702,2.357 1.034,3.531c0.333,1.176 0.665,2.353 1.034,3.53c-7.832,-0.006 -15.59,-0.009 -23.386,-0.015c-0.074,-1.179 -0.093,-2.361 -0.147,-3.54c-0.055,-1.182 -0.111,-2.363 -0.185,-3.548M241.995,390.62c7.204,0.013 14.409,0.028 21.65,0.042c-0.037,1.184 -0.074,2.369 -0.111,3.551c-0.037,1.183 -0.111,2.363 -0.148,3.545c-7.795,-0.003 -15.59,-0.006 -23.386,-0.01c0.333,-1.188 0.666,-2.376 0.997,-3.561c0.333,-1.187 0.666,-2.376 0.998,-3.567M212.846,390.564c7.204,0.014 14.446,0.028 21.686,0.042c-0.443,1.193 -0.869,2.388 -1.293,3.571c-0.426,1.191 -0.886,2.377 -1.293,3.565c-7.795,-0.003 -15.628,-0.009 -23.423,-0.012c0.703,-1.193 1.471,-2.373 2.18,-3.578c0.695,-1.184 1.403,-2.392 2.143,-3.588M183.696,390.509c7.204,0.015 14.446,0.027 21.687,0.042c-0.813,1.197 -1.626,2.397 -2.439,3.589c-0.813,1.196 -1.625,2.392 -2.438,3.584c-7.795,-0.002 -15.628,-0.008 -23.423,-0.01c1.108,-1.202 2.23,-2.392 3.325,-3.599c1.083,-1.192 2.18,-2.402 3.288,-3.606M336.241,400.52c8.018,0.003 16.072,0.003 24.089,0.003c1.108,1.164 2.181,2.331 3.288,3.493l3.324,3.487c-8.608,0.009 -17.215,0.02 -25.787,0.028c-0.812,-1.167 -1.64,-2.328 -2.476,-3.501c-0.826,-1.163 -1.625,-2.34 -2.438,-3.51M303.915,400.52l24.088,0c0.702,1.17 1.419,2.339 2.143,3.513c0.717,1.164 1.44,2.338 2.18,3.506c-8.609,0.012 -17.217,0.02 -25.788,0.028c-0.444,-1.173 -0.888,-2.347 -1.33,-3.52c-0.444,-1.176 -0.85,-2.351 -1.293,-3.527M271.587,400.517l24.052,0c0.332,1.179 0.647,2.355 0.998,3.532c0.35,1.172 0.665,2.353 0.997,3.526c-8.608,0.012 -17.179,0.019 -25.75,0.028c-0.037,-1.179 -0.093,-2.361 -0.148,-3.54c-0.056,-1.182 -0.111,-2.364 -0.149,-3.546M239.224,400.515c8.018,0 16.034,0.002 24.051,0c-0.036,1.187 -0.111,2.372 -0.147,3.553c-0.037,1.181 -0.074,2.365 -0.111,3.546c-8.608,0.009 -17.18,0.016 -25.75,0.028c0.332,-1.188 0.628,-2.375 0.96,-3.559c0.333,-1.187 0.702,-2.378 0.997,-3.568M206.861,400.512c8.017,0 16.07,0.003 24.088,0.003c-0.407,1.19 -0.87,2.387 -1.294,3.57c-0.425,1.192 -0.849,2.378 -1.292,3.565c-8.609,0.008 -17.217,0.019 -25.788,0.028c0.739,-1.193 1.441,-2.386 2.143,-3.579c0.702,-1.194 1.441,-2.388 2.143,-3.587M174.534,400.512c8.017,0 16.034,0 24.088,0.003c-0.813,1.196 -1.65,2.4 -2.439,3.587c-0.799,1.202 -1.625,2.391 -2.438,3.584c-8.608,0.008 -17.216,0.019 -25.787,0.028c1.108,-1.199 2.192,-2.393 3.288,-3.598c1.083,-1.19 2.216,-2.402 3.288,-3.604M146.382,391.002l0.738,-0.562l-0.738,-0.002l0,0.564ZM146.382,397.697l0,-0.601c1.241,-1.006 2.5,-2.012 3.732,-3.017c1.477,-1.206 2.955,-2.416 4.47,-3.625c7.204,0.013 14.408,0.027 21.65,0.041c-1.182,1.204 -2.392,2.416 -3.584,3.609c-1.209,1.209 -2.439,2.403 -3.621,3.605c-7.549,-0.004 -15.098,-0.009 -22.647,-0.012M146.382,407.737l0,-7.228c6.6,0 13.226,0.001 19.876,0.003c-1.182,1.204 -2.39,2.417 -3.583,3.609c-1.208,1.207 -2.403,2.403 -3.621,3.603l-12.672,0.013ZM388.408,400.524l0,6.956l-12.562,0.015c-1.218,-1.163 -2.437,-2.323 -3.657,-3.485c-1.218,-1.16 -2.364,-2.324 -3.583,-3.487c6.601,0 13.201,0.002 19.802,0.001M388.408,397.232c-1.247,-0.958 -2.478,-1.917 -3.731,-2.873c-1.516,-1.156 -2.956,-2.317 -4.508,-3.477c-7.241,-0.013 -14.445,-0.027 -21.649,-0.04c1.255,1.164 2.427,2.335 3.62,3.489c1.208,1.168 2.439,2.323 3.658,3.482l22.61,0.013l0,-0.594ZM388.408,390.899l0,0.544c-0.256,-0.182 -0.514,-0.364 -0.776,-0.546l0.776,0.002ZM165.363,410.551l204.483,0l7.185,7.525l-218.553,0l6.885,-7.525ZM388.408,397.826l0.776,0.001l-0.776,-0.595l0,0.594ZM401.283,407.222c-1.379,-1.074 -2.794,-2.142 -4.193,-3.223c-1.487,-1.148 -2.956,-2.316 -4.434,-3.476l-4.248,0.001l0,6.956l12.875,-0.012l0,-0.246ZM401.283,400.526l0,0.234l-0.314,-0.234l0.314,0ZM401.283,390.922l0,6.91l-4.045,-0.002c-1.589,-1.154 -3.215,-2.308 -4.803,-3.463c-1.338,-0.972 -2.652,-1.947 -4.027,-2.924l0,-0.544l12.875,0.023ZM401.283,397.832l0,-6.91l8.073,0.014c1.92,1.154 3.767,2.306 5.652,3.456c1.884,1.149 3.768,2.3 5.652,3.449c-6.477,-0.003 -12.929,-0.004 -19.377,-0.009M401.283,400.76c1.448,1.077 2.907,2.15 4.416,3.234c1.596,1.146 3.177,2.311 4.764,3.462c8.572,-0.008 17.181,-0.017 25.826,-0.027c-1.885,-1.149 -3.77,-2.3 -5.653,-3.45c-1.885,-1.149 -3.732,-2.301 -5.579,-3.456c-7.948,0.003 -15.897,0.003 -23.774,0.003l0,0.234ZM401.283,407.468l0,-0.246l0.314,0.245l-0.314,0.001Z" style="fill:#8fbfea;"/><rect x="215.464" y="231.317" width="106.144" height="18.353" style="fill:#5895cb;"/><rect x="154.5" y="273.334" width="228.071" height="82.852" style="fill:#5895cb;"/><rect x="198.305" y="256.847" width="140.461" height="7.692" style="fill:#90bce2;"/><path d="M368.203,308.965c-0.375,-0.486 -0.286,-1.183 0.2,-1.559c0.485,-0.375 1.184,-0.286 1.559,0.2l4.987,6.457c0.035,0.042 0.065,0.087 0.092,0.134l0.006,0.007l0.006,0.011l0.005,0.009c0.015,0.028 0.03,0.057 0.042,0.087l0.023,0.054l0.008,0.023l0.023,0.072l0.019,0.078c0.006,0.034 0.012,0.068 0.015,0.103l0,0.005l0.004,0.049l0.002,0.036l0,0.02l0,0.016l0,0.02l-0.002,0.037l-0.004,0.047l0,0.006l-0.015,0.103l-0.019,0.078l-0.023,0.07l-0.008,0.024l-0.023,0.055l-0.042,0.087l-0.005,0.008l-0.006,0.011l-0.006,0.008c-0.026,0.046 -0.057,0.091 -0.091,0.133l-4.988,6.459c-0.375,0.484 -1.074,0.574 -1.559,0.199c-0.486,-0.375 -0.575,-1.072 -0.2,-1.559l4.476,-5.794l-4.476,-5.794Z" style="fill:#dfeefb;fill-rule:nonzero;"/><path d="M167.111,307.607c0.375,-0.486 1.073,-0.576 1.558,-0.201c0.485,0.375 0.575,1.073 0.2,1.56l-4.476,5.793l4.476,5.794c0.375,0.486 0.285,1.184 -0.2,1.559c-0.485,0.375 -1.183,0.285 -1.558,-0.2l-4.989,-6.457c-0.034,-0.043 -0.064,-0.087 -0.091,-0.135l-0.006,-0.008l-0.005,-0.01l-0.005,-0.009c-0.016,-0.027 -0.031,-0.056 -0.043,-0.086l-0.022,-0.055l-0.01,-0.024l-0.022,-0.07l-0.018,-0.078c-0.007,-0.035 -0.013,-0.069 -0.016,-0.104l-0.001,-0.005l-0.004,-0.047l-0.001,-0.038l-0.001,-0.019l0,-0.017l0.001,-0.019l0.001,-0.037l0.004,-0.048l0.001,-0.005l0.016,-0.104l0.018,-0.077l0.022,-0.072l0.01,-0.023l0.022,-0.055c0.012,-0.029 0.027,-0.058 0.043,-0.087l0.005,-0.007l0.005,-0.012l0.006,-0.008c0.026,-0.046 0.058,-0.091 0.091,-0.133l4.989,-6.456Z" style="fill:#dfeefb;fill-rule:nonzero;"/><rect x="228.116" y="425.87" width="80.839" height="3.767" style="fill:#055a87;"/><path d="M238.501,318.849l2.342,0l0,-0.632c-1.764,0 -3.195,-1.431 -3.195,-3.196c0,-1.765 1.431,-3.195 3.195,-3.196l0,-0.61l-2.342,0.004c-7.015,0.012 -6.727,7.63 0,7.63M240.843,318.849l55.385,0l0,-0.632c-1.766,0 -3.196,-1.431 -3.196,-3.196c0,-1.765 1.43,-3.195 3.196,-3.196l0,-0.61c-18.461,-0.028 -36.924,-0.028 -55.385,0l0,0.61c1.766,0 3.197,1.431 3.197,3.196c0,1.765 -1.431,3.196 -3.197,3.196l0,0.632ZM296.228,318.849l2.343,0c6.727,0 7.014,-7.618 0,-7.63l-2.343,-0.004l0,0.61c1.765,0 3.196,1.431 3.196,3.196c0,1.765 -1.431,3.196 -3.196,3.196l0,0.632Z" style="fill:#fff;"/><path d="M272.779,285.204c-1.764,0 -3.195,1.43 -3.195,3.196c0,1.764 1.431,3.195 3.195,3.195c1.766,0 3.196,-1.431 3.196,-3.195c0,-1.766 -1.43,-3.196 -3.196,-3.196" style="fill:#fff;"/><path d="M297.47,314.171l-21.808,-24.39c-0.503,-0.564 -1.376,-0.612 -1.939,-0.109c-0.563,0.504 -0.612,1.377 -0.109,1.941l21.808,24.389c0.503,0.563 1.376,0.612 1.939,0.108c0.563,-0.504 0.613,-1.375 0.109,-1.939" style="fill:#fff;"/><path d="M264.293,285.204c1.765,0 3.195,1.43 3.195,3.196c0,1.764 -1.43,3.195 -3.195,3.195c-1.766,0 -3.197,-1.431 -3.197,-3.195c0,-1.766 1.431,-3.196 3.197,-3.196" style="fill:#fff;"/><path d="M239.602,314.171l23.786,-26.604c0.504,-0.562 1.376,-0.612 1.94,-0.107c0.563,0.503 0.611,1.376 0.108,1.939l-23.787,26.603c-0.502,0.563 -1.375,0.612 -1.938,0.108c-0.564,-0.504 -0.612,-1.375 -0.109,-1.939" style="fill:#fff;"/><path d="M249.792,344.315c-5.568,0 -7.343,-2.73 -7.972,-6.355l-2.925,-16.841l11.159,0l0,2.297c-0.282,-0.092 -0.581,-0.143 -0.887,-0.143c-1.403,0 -2.403,1.057 -2.227,2.348c0.262,1.922 0.528,3.845 0.793,5.766c0.265,1.92 0.527,3.844 0.79,5.763c0.124,0.907 0.739,1.697 1.531,2.087l0,5.078l-0.262,0ZM250.054,321.119l9.19,0l0,2.182c-0.129,-0.018 -0.261,-0.028 -0.395,-0.028c-1.402,0 -2.47,1.057 -2.371,2.348c0.147,1.923 0.294,3.845 0.443,5.766c0.148,1.921 0.292,3.844 0.438,5.763c0.082,1.087 0.883,2.005 1.885,2.27l0,4.895l-9.19,0l0,-5.078c0.335,0.165 0.702,0.259 1.076,0.259c1.263,0 2.179,-1.054 2.043,-2.346c-0.202,-1.919 -0.4,-3.843 -0.605,-5.763c-0.203,-1.921 -0.41,-3.843 -0.609,-5.766c-0.104,-1.009 -0.896,-1.876 -1.905,-2.205l0,-2.297ZM259.244,321.119l9.285,0l0,2.154c-1.398,0.001 -2.53,1.057 -2.509,2.348c0.031,1.922 0.059,3.845 0.092,5.766c0.033,1.921 0.056,3.844 0.088,5.763c0.021,1.292 1.074,2.346 2.327,2.346l0.002,0l0,4.819l-9.285,0l0,-4.895c0.189,0.05 0.386,0.076 0.587,0.076c1.258,0 2.239,-1.054 2.183,-2.346c-0.084,-1.919 -0.169,-3.843 -0.254,-5.763c-0.086,-1.921 -0.175,-3.844 -0.26,-5.766c-0.05,-1.168 -1.032,-2.143 -2.256,-2.32l0,-2.182ZM268.529,321.119l9.283,0l0,2.184c-1.222,0.18 -2.203,1.153 -2.254,2.318c-0.084,1.922 -0.176,3.845 -0.259,5.766c-0.083,1.921 -0.175,3.844 -0.259,5.763c-0.056,1.292 0.929,2.346 2.187,2.346c0.201,0 0.396,-0.026 0.585,-0.076l0,4.895l-9.283,0l0,-4.819c1.261,-0.001 2.304,-1.055 2.326,-2.346c0.031,-1.919 0.061,-3.842 0.092,-5.763c0.03,-1.921 0.06,-3.844 0.091,-5.766c0.021,-1.291 -1.104,-2.348 -2.506,-2.348l-0.003,0l0,-2.154ZM277.812,321.119l9.196,0l0,2.299c-1.011,0.33 -1.804,1.195 -1.909,2.203c-0.198,1.923 -0.407,3.845 -0.608,5.766c-0.203,1.921 -0.408,3.844 -0.61,5.763c-0.136,1.292 0.785,2.346 2.048,2.346c0.375,0 0.742,-0.094 1.079,-0.259l0,5.078l-9.196,0l0,-4.895c1.003,-0.264 1.8,-1.183 1.883,-2.27c0.147,-1.919 0.299,-3.842 0.444,-5.763c0.144,-1.921 0.297,-3.844 0.441,-5.766c0.098,-1.291 -0.96,-2.348 -2.362,-2.348c-0.137,0 -0.273,0.01 -0.406,0.03l0,-2.184ZM287.008,321.119l11.168,0l-2.924,16.841c-0.629,3.625 -2.405,6.355 -7.973,6.355l-0.271,0l0,-5.078c0.792,-0.39 1.408,-1.18 1.532,-2.087c0.263,-1.919 0.53,-3.842 0.794,-5.763c0.263,-1.921 0.531,-3.844 0.793,-5.766c0.177,-1.291 -0.823,-2.348 -2.226,-2.348c-0.309,0 -0.61,0.052 -0.893,0.145l0,-2.299Z" style="fill:#fff;"/><path d="M182.933,317.067l1.322,0l0,-0.356c-0.996,0 -1.804,-0.808 -1.804,-1.803c0,-0.996 0.808,-1.804 1.804,-1.804l0,-0.344l-1.322,0.002c-3.958,0.007 -3.796,4.305 0,4.305M184.255,317.067l31.254,0l0,-0.356c-0.996,0 -1.803,-0.808 -1.803,-1.803c0,-0.996 0.807,-1.804 1.803,-1.804l0,-0.344c-10.417,-0.016 -20.837,-0.016 -31.254,0l0,0.344c0.996,0 1.803,0.808 1.803,1.804c0,0.995 -0.807,1.803 -1.803,1.803l0,0.356ZM215.509,317.067l1.322,0c3.796,0 3.959,-4.298 0,-4.305l-1.322,-0.002l0,0.344l0.001,0c0.996,0 1.803,0.808 1.803,1.804c0,0.995 -0.807,1.803 -1.803,1.803l-0.001,0l0,0.356Z" style="fill:#013c5c;"/><path d="M202.276,298.081c-0.995,0 -1.803,0.807 -1.803,1.803c0,0.996 0.808,1.804 1.803,1.804c0.997,0 1.804,-0.808 1.804,-1.804c0,-0.996 -0.807,-1.803 -1.804,-1.803" style="fill:#013c5c;"/><path d="M216.21,314.428l-12.306,-13.764c-0.284,-0.318 -0.777,-0.346 -1.094,-0.062c-0.318,0.284 -0.346,0.778 -0.062,1.095l12.307,13.763c0.283,0.318 0.776,0.346 1.094,0.062c0.318,-0.284 0.345,-0.776 0.061,-1.094" style="fill:#013c5c;"/><path d="M197.488,298.081c0.996,0 1.803,0.807 1.803,1.803c0,0.996 -0.807,1.804 -1.803,1.804c-0.996,0 -1.804,-0.808 -1.804,-1.804c0,-0.996 0.808,-1.803 1.804,-1.803" style="fill:#013c5c;"/><path d="M183.554,314.428l13.423,-15.013c0.284,-0.317 0.778,-0.346 1.094,-0.062c0.318,0.285 0.346,0.777 0.062,1.095l-13.423,15.012c-0.284,0.318 -0.776,0.346 -1.095,0.062c-0.317,-0.284 -0.345,-0.776 -0.061,-1.094" style="fill:#013c5c;"/><path d="M189.304,331.437c-3.141,0 -4.143,-1.539 -4.498,-3.584l-1.65,-9.504l6.296,0l0,1.296c-0.159,-0.052 -0.328,-0.08 -0.501,-0.08c-0.79,0 -1.355,0.595 -1.256,1.324c0.148,1.085 0.298,2.17 0.448,3.254c0.15,1.084 0.297,2.168 0.445,3.252c0.07,0.512 0.418,0.958 0.864,1.178l0,2.864l-0.148,0ZM189.452,318.349l5.186,0l0,1.232c-0.072,-0.011 -0.147,-0.016 -0.222,-0.016c-0.792,0 -1.394,0.595 -1.338,1.324c0.083,1.086 0.165,2.17 0.249,3.254c0.085,1.084 0.165,2.168 0.248,3.252c0.046,0.613 0.497,1.132 1.063,1.281l0,2.761l-5.186,0l0,-2.864c0.189,0.094 0.397,0.146 0.608,0.146c0.712,0 1.229,-0.594 1.153,-1.324c-0.114,-1.084 -0.226,-2.168 -0.342,-3.252c-0.115,-1.084 -0.232,-2.168 -0.343,-3.254c-0.06,-0.569 -0.506,-1.058 -1.076,-1.244l0,-1.296ZM194.638,318.349l5.241,0l0,1.216c-0.789,0.001 -1.428,0.596 -1.416,1.324c0.017,1.085 0.033,2.17 0.051,3.254c0.019,1.084 0.032,2.168 0.05,3.252c0.011,0.73 0.605,1.324 1.313,1.324l0.002,0l0,2.718l-5.241,0l0,-2.761c0.108,0.028 0.219,0.043 0.332,0.043c0.709,0 1.263,-0.594 1.231,-1.324c-0.047,-1.084 -0.096,-2.168 -0.143,-3.252c-0.049,-1.084 -0.098,-2.169 -0.145,-3.254c-0.03,-0.659 -0.583,-1.209 -1.275,-1.308l0,-1.232ZM199.879,318.349l5.238,0l0,1.232c-0.69,0.102 -1.243,0.651 -1.272,1.308c-0.048,1.085 -0.099,2.17 -0.147,3.254c-0.046,1.084 -0.098,2.168 -0.145,3.252c-0.032,0.73 0.524,1.324 1.234,1.324c0.113,0 0.223,-0.015 0.33,-0.043l0,2.761l-5.238,0l0,-2.718c0.711,0 1.3,-0.595 1.312,-1.324c0.017,-1.084 0.035,-2.168 0.052,-3.252c0.016,-1.084 0.034,-2.169 0.051,-3.254c0.012,-0.729 -0.623,-1.324 -1.414,-1.324l-0.001,0l0,-1.216ZM205.117,318.349l5.189,0l0,1.297c-0.57,0.187 -1.017,0.675 -1.077,1.243c-0.112,1.086 -0.23,2.17 -0.344,3.254c-0.114,1.084 -0.229,2.168 -0.343,3.252c-0.077,0.73 0.442,1.324 1.154,1.324c0.212,0 0.42,-0.053 0.61,-0.146l0,2.864l-5.189,0l0,-2.761c0.566,-0.149 1.016,-0.667 1.062,-1.281c0.083,-1.084 0.169,-2.168 0.251,-3.252c0.081,-1.084 0.169,-2.169 0.249,-3.254c0.055,-0.729 -0.542,-1.324 -1.333,-1.324c-0.078,0 -0.154,0.006 -0.229,0.016l0,-1.232ZM210.306,318.349l6.302,0l-1.65,9.504c-0.355,2.045 -1.357,3.584 -4.498,3.584l-0.154,0l0,-2.864c0.447,-0.22 0.796,-0.666 0.865,-1.178c0.148,-1.084 0.3,-2.168 0.447,-3.252c0.149,-1.084 0.3,-2.169 0.449,-3.254c0.099,-0.729 -0.466,-1.324 -1.257,-1.324c-0.174,0 -0.344,0.028 -0.504,0.081l0,-1.297Z" style="fill:#013c5c;"/><path d="M320.241,317.067l1.321,0l0,-0.356c-0.995,0 -1.803,-0.808 -1.803,-1.803c0,-0.996 0.808,-1.804 1.803,-1.804l0,-0.344l-1.321,0.002c-3.959,0.007 -3.797,4.305 0,4.305M321.562,317.067l31.255,0l0,-0.356c-0.997,0 -1.804,-0.808 -1.804,-1.803c0,-0.996 0.807,-1.804 1.804,-1.804l0,-0.344c-10.418,-0.016 -20.838,-0.016 -31.255,0l0,0.344c0.997,0 1.804,0.808 1.804,1.804c0,0.995 -0.807,1.803 -1.804,1.803l0,0.356ZM352.817,317.067l1.322,0c3.795,0 3.959,-4.298 0,-4.305l-1.322,-0.002l0,0.344c0.996,0 1.803,0.808 1.803,1.804c0,0.995 -0.807,1.803 -1.803,1.803l0,0.356Z" style="fill:#013c5c;"/><path d="M339.584,298.081c-0.996,0 -1.803,0.807 -1.803,1.803c0,0.996 0.807,1.804 1.803,1.804c0.996,0 1.803,-0.808 1.803,-1.804c0,-0.996 -0.807,-1.803 -1.803,-1.803" style="fill:#013c5c;"/><path d="M353.518,314.428l-12.307,-13.764c-0.284,-0.318 -0.776,-0.346 -1.094,-0.062c-0.318,0.284 -0.345,0.778 -0.062,1.095l12.307,13.763c0.284,0.318 0.776,0.346 1.094,0.062c0.318,-0.284 0.345,-0.776 0.062,-1.094" style="fill:#013c5c;"/><path d="M334.795,298.081c0.997,0 1.804,0.807 1.804,1.803c0,0.996 -0.807,1.804 -1.804,1.804c-0.996,0 -1.803,-0.808 -1.803,-1.804c0,-0.996 0.807,-1.803 1.803,-1.803" style="fill:#013c5c;"/><path d="M320.861,314.428l13.424,-15.013c0.283,-0.317 0.777,-0.346 1.094,-0.062c0.317,0.285 0.345,0.777 0.061,1.095l-13.422,15.012c-0.285,0.318 -0.777,0.346 -1.095,0.062c-0.318,-0.284 -0.345,-0.776 -0.062,-1.094" style="fill:#013c5c;"/><path d="M326.612,331.437c-3.142,0 -4.144,-1.539 -4.499,-3.584l-1.65,-9.504l6.296,0l0,1.296c-0.159,-0.052 -0.327,-0.08 -0.5,-0.08c-0.791,0 -1.355,0.595 -1.256,1.324c0.147,1.085 0.298,2.17 0.447,3.254c0.15,1.084 0.297,2.168 0.446,3.252c0.07,0.512 0.417,0.958 0.863,1.178l0,2.864l-0.147,0ZM326.759,318.349l5.186,0l0,1.232c-0.072,-0.011 -0.147,-0.016 -0.222,-0.016c-0.792,0 -1.394,0.595 -1.338,1.324c0.083,1.086 0.165,2.17 0.249,3.254c0.085,1.084 0.165,2.168 0.248,3.252c0.047,0.613 0.498,1.132 1.063,1.281l0,2.761l-5.186,0l0,-2.864c0.19,0.094 0.397,0.146 0.608,0.146c0.713,0 1.23,-0.594 1.153,-1.324c-0.114,-1.084 -0.226,-2.168 -0.341,-3.252c-0.116,-1.084 -0.232,-2.168 -0.344,-3.254c-0.059,-0.57 -0.506,-1.058 -1.076,-1.244l0,-1.296ZM331.945,318.349l5.241,0l0,1.216c-0.789,0.001 -1.428,0.596 -1.416,1.324c0.017,1.085 0.033,2.17 0.051,3.254c0.019,1.084 0.032,2.168 0.05,3.252c0.012,0.73 0.606,1.324 1.314,1.324l0.001,0l0,2.718l-5.241,0l0,-2.761c0.108,0.028 0.219,0.043 0.333,0.043c0.709,0 1.263,-0.594 1.231,-1.324c-0.048,-1.084 -0.096,-2.168 -0.143,-3.252c-0.049,-1.084 -0.099,-2.169 -0.146,-3.254c-0.03,-0.659 -0.583,-1.209 -1.275,-1.308l0,-1.232ZM337.186,318.349l5.238,0l0,1.232c-0.689,0.102 -1.243,0.651 -1.272,1.308c-0.048,1.085 -0.099,2.17 -0.146,3.254c-0.047,1.084 -0.098,2.168 -0.146,3.252c-0.032,0.73 0.524,1.324 1.234,1.324c0.114,0 0.223,-0.015 0.33,-0.043l0,2.761l-5.238,0l0,-2.718c0.711,0 1.3,-0.595 1.312,-1.324c0.017,-1.084 0.035,-2.168 0.052,-3.252c0.017,-1.084 0.034,-2.169 0.051,-3.254c0.013,-0.729 -0.623,-1.324 -1.414,-1.324l-0.001,0l0,-1.216ZM342.424,318.349l5.19,0l0,1.297c-0.571,0.187 -1.018,0.675 -1.078,1.243c-0.112,1.086 -0.229,2.17 -0.344,3.254c-0.113,1.084 -0.228,2.168 -0.343,3.252c-0.076,0.73 0.442,1.324 1.155,1.324c0.212,0 0.419,-0.053 0.61,-0.146l0,2.864l-5.19,0l0,-2.761c0.566,-0.149 1.017,-0.667 1.063,-1.281c0.083,-1.084 0.168,-2.168 0.25,-3.252c0.081,-1.084 0.169,-2.169 0.25,-3.254c0.054,-0.729 -0.543,-1.324 -1.333,-1.324c-0.078,0 -0.155,0.006 -0.23,0.016l0,-1.232ZM347.614,318.349l6.302,0l-1.65,9.504c-0.356,2.045 -1.357,3.584 -4.499,3.584l-0.153,0l0,-2.864c0.447,-0.22 0.795,-0.666 0.864,-1.178c0.149,-1.084 0.3,-2.168 0.448,-3.252c0.149,-1.084 0.299,-2.169 0.448,-3.254c0.099,-0.729 -0.465,-1.324 -1.256,-1.324c-0.174,0 -0.344,0.028 -0.504,0.081l0,-1.297Z" style="fill:#013c5c;"/><rect x="120.023" y="174.598" width="297.029" height="18.294" style="fill:#d32a13;"/><path d="M74.044,213.078l388.985,0l-45.977,-20.186l-297.029,0l-45.979,20.186Z" style="fill:#f65741;"/><path d="M433.108,213.078l-29.922,0l-31.832,-20.186l22.849,0l38.905,20.186Z" style="fill:#ffd96b;"/><path d="M373.264,213.078l29.922,0l-31.832,-20.186l-22.848,0l24.758,20.186Z" style="fill:#f65741;"/><path d="M373.264,213.078l-29.922,0l-17.684,-20.186l22.848,0l24.758,20.186Z" style="fill:#ffd96b;"/><path d="M313.42,213.078l29.922,0l-17.684,-20.186l-22.848,0l10.61,20.186Z" style="fill:#f65741;"/><path d="M313.42,213.078l-29.922,0l-3.537,-20.186l22.849,0l10.61,20.186Z" style="fill:#ffd96b;"/><path d="M253.576,213.078l29.922,0l-3.537,-20.186l-22.848,0l-3.537,20.186Z" style="fill:#f65741;"/><path d="M253.576,213.078l-29.922,0l10.61,-20.186l22.849,0l-3.537,20.186Z" style="fill:#ffd96b;"/><path d="M193.732,213.078l29.922,0l10.61,-20.186l-22.849,0l-17.683,20.186Z" style="fill:#f65741;"/><path d="M193.732,213.078l-29.922,0l24.757,-20.186l22.848,0l-17.683,20.186Z" style="fill:#ffd96b;"/><path d="M133.888,213.078l29.922,0l24.757,-20.186l-22.848,0l-31.831,20.186Z" style="fill:#f65741;"/><path d="M133.888,213.078l-29.922,0l38.905,-20.186l22.848,0l-31.831,20.186Z" style="fill:#ffd96b;"/><path d="M74.044,213.078l29.922,0l38.905,-20.186l-22.848,0l-45.979,20.186Z" style="fill:#f65741;"/><path d="M133.888,213.078c0,8.264 -6.698,14.961 -14.961,14.961c-8.263,0 -14.961,-6.697 -14.961,-14.961l29.922,0Z" style="fill:#ddab14;"/><path d="M74.044,213.078c0,8.264 6.698,14.961 14.961,14.961c8.263,0 14.961,-6.697 14.961,-14.961l-29.922,0Z" style="fill:#d32a13;"/><path d="M193.733,213.078c0,8.264 -6.699,14.961 -14.961,14.961c-8.264,0 -14.961,-6.697 -14.961,-14.961l29.922,0Z" style="fill:#ddab14;"/><path d="M133.888,213.078c0,8.264 6.699,14.961 14.961,14.961c8.263,0 14.961,-6.697 14.961,-14.961l-29.922,0Z" style="fill:#d32a13;"/><path d="M253.577,213.078c0,8.264 -6.699,14.961 -14.961,14.961c-8.263,0 -14.961,-6.697 -14.961,-14.961l29.922,0Z" style="fill:#ddab14;"/><path d="M193.733,213.078c0,8.264 6.698,14.961 14.96,14.961c8.263,0 14.962,-6.697 14.962,-14.961l-29.922,0Z" style="fill:#d32a13;"/><path d="M313.421,213.078c0,8.264 -6.699,14.961 -14.961,14.961c-8.263,0 -14.961,-6.697 -14.961,-14.961l29.922,0Z" style="fill:#ddab14;"/><path d="M253.577,213.078c0,8.264 6.699,14.961 14.961,14.961c8.262,0 14.961,-6.697 14.961,-14.961l-29.922,0Z" style="fill:#d32a13;"/><path d="M373.265,213.078c0,8.264 -6.698,14.961 -14.961,14.961c-8.262,0 -14.961,-6.697 -14.961,-14.961l29.922,0Z" style="fill:#ddab14;"/><path d="M313.421,213.078c0,8.264 6.699,14.961 14.961,14.961c8.263,0 14.961,-6.697 14.961,-14.961l-29.922,0Z" style="fill:#d32a13;"/><path d="M433.11,213.078c0,8.264 -6.699,14.961 -14.961,14.961c-8.263,0 -14.961,-6.697 -14.961,-14.961l29.922,0Z" style="fill:#ddab14;"/><path d="M373.265,213.078c0,8.264 6.699,14.961 14.961,14.961c8.263,0 14.961,-6.697 14.961,-14.961l-29.922,0Z" style="fill:#d32a13;"/><path d="M433.11,213.078c0,8.264 6.698,14.961 14.96,14.961c8.264,0 14.962,-6.697 14.962,-14.961l-29.922,0Z" style="fill:#d32a13;"/><path d="M485.673,316.644l-66,0c-12.782,0 -23.24,10.457 -23.24,23.239l0,113.941c0,12.782 10.458,23.241 23.24,23.241l66,0c12.782,0 23.24,-10.459 23.24,-23.241l0,-113.94c0,-12.783 -10.458,-23.24 -23.24,-23.24Z" style="fill:none;stroke-width:4.5px;stroke:#5895cb;"/><path d="M485.673,316.644l-66,0c-12.782,0 -23.24,10.457 -23.24,23.239l0,113.941c0,12.782 10.458,23.241 23.24,23.241l66,0c12.782,0 23.24,-10.459 23.24,-23.241l0,-113.94c0,-12.783 -10.458,-23.24 -23.24,-23.24Z" style="fill:#013c5c;"/><path d="M500.588,330.096l-95.829,0c-0.187,0 -0.34,0.153 -0.34,0.339l0,131.493c0,0.186 0.153,0.339 0.34,0.339l95.829,0c0.186,0 0.338,-0.153 0.338,-0.339l0,-131.493c0,-0.186 -0.152,-0.339 -0.338,-0.339" style="fill:#fff;"/><path d="M465.011,320.612l-24.675,0c-0.67,0 -1.217,0.547 -1.217,1.216l0,0.001c0,0.669 0.547,1.216 1.217,1.216l24.675,0c0.669,0 1.216,-0.547 1.216,-1.216l0,-0.001c0,-0.669 -0.547,-1.216 -1.216,-1.216" style="fill:#5895cb;"/><path d="M452.673,473.548c2.265,0 4.112,-1.847 4.112,-4.111c0,-2.265 -1.847,-4.112 -4.112,-4.112c-2.265,0 -4.111,1.847 -4.111,4.112c0,2.264 1.846,4.111 4.111,4.111" style="fill:#5895cb;"/><rect x="404.42" y="330.096" width="96.507" height="132.171" style="fill:#fff;"/><rect x="404.42" y="330.096" width="96.507" height="8.253" style="fill:#90bce2;"/><rect x="426.994" y="343.37" width="51.359" height="12.868" style="fill:#5895cb;"/><rect x="404.42" y="372.029" width="96.507" height="46.796" style="fill:#5895cb;"/><rect x="418.691" y="361.27" width="67.963" height="5.393" style="fill:#90bce2;"/><path d="M494.847,392.975c-0.159,-0.205 -0.121,-0.501 0.084,-0.659c0.206,-0.159 0.501,-0.121 0.66,0.084l2.11,2.732c0.014,0.018 0.028,0.037 0.039,0.056l0.002,0.004l0.003,0.004l0.002,0.004c0.007,0.011 0.013,0.024 0.019,0.037l0.012,0.033l0.009,0.031l0.009,0.033c0.003,0.013 0.004,0.028 0.006,0.042l0,0.003l0.002,0.02l0.001,0.016l0,0.023l-0.001,0.016l-0.002,0.02l0,0.002l-0.006,0.044l-0.009,0.033l-0.009,0.03l-0.003,0.009l-0.009,0.024l-0.019,0.036l-0.002,0.004l-0.003,0.005l-0.002,0.003c-0.01,0.02 -0.024,0.039 -0.038,0.057l-2.111,2.733c-0.159,0.204 -0.454,0.243 -0.66,0.084c-0.205,-0.159 -0.243,-0.454 -0.084,-0.66l1.893,-2.451l-1.893,-2.452Z" style="fill:#dfeefb;fill-rule:nonzero;"/><path d="M409.756,392.4c0.158,-0.205 0.454,-0.243 0.659,-0.084c0.205,0.158 0.243,0.454 0.085,0.659l-1.894,2.451l1.894,2.453c0.158,0.204 0.12,0.501 -0.085,0.659c-0.205,0.159 -0.501,0.121 -0.659,-0.085l-2.11,-2.732c-0.015,-0.018 -0.029,-0.037 -0.04,-0.056l-0.002,-0.004l-0.003,-0.005l-0.001,-0.003c-0.007,-0.012 -0.014,-0.024 -0.018,-0.037l-0.01,-0.023l-0.004,-0.01l-0.009,-0.03l-0.008,-0.033c-0.003,-0.014 -0.005,-0.029 -0.007,-0.044l0,-0.002l-0.001,-0.02l-0.002,-0.016l0,-0.008l0,-0.008l0,-0.007l0.002,-0.016l0.001,-0.019l0,-0.003l0.007,-0.044l0.008,-0.033l0.009,-0.031l0.004,-0.009l0.01,-0.024c0.004,-0.012 0.01,-0.024 0.018,-0.036l0.001,-0.003l0.003,-0.005l0.002,-0.004c0.011,-0.019 0.025,-0.039 0.04,-0.056l2.11,-2.732Z" style="fill:#dfeefb;fill-rule:nonzero;"/><path d="M437.655,397.472l1.171,0l0,-0.316c-0.883,0 -1.598,-0.715 -1.598,-1.598c0,-0.883 0.715,-1.598 1.598,-1.598l0,-0.305l-1.171,0.002c-3.508,0.006 -3.364,3.815 0,3.815M438.826,397.472l27.694,0l0,-0.316c-0.882,0 -1.598,-0.715 -1.598,-1.598c0,-0.883 0.716,-1.598 1.598,-1.598l0,-0.305c-9.23,-0.013 -18.464,-0.013 -27.694,0l0,0.305c0.882,0 1.598,0.715 1.598,1.598c0,0.883 -0.716,1.598 -1.598,1.598l0,0.316ZM466.52,397.472l1.172,0c3.363,0 3.508,-3.809 0,-3.815l-1.172,-0.002l0,0.305c0.883,0 1.598,0.715 1.598,1.598c0,0.883 -0.715,1.598 -1.598,1.598l0,0.316Z" style="fill:#fff;"/><path d="M454.795,380.648c-0.883,0 -1.598,0.715 -1.598,1.598c0,0.883 0.715,1.598 1.598,1.598c0.883,0 1.598,-0.715 1.598,-1.598c0,-0.883 -0.715,-1.598 -1.598,-1.598" style="fill:#fff;"/><path d="M467.141,395.132l-10.904,-12.195c-0.252,-0.282 -0.688,-0.306 -0.97,-0.055c-0.282,0.252 -0.306,0.688 -0.054,0.97l10.905,12.196c0.252,0.282 0.688,0.306 0.969,0.054c0.282,-0.252 0.306,-0.688 0.054,-0.97" style="fill:#fff;"/><path d="M450.551,380.648c0.883,0 1.598,0.715 1.598,1.598c0,0.883 -0.715,1.598 -1.598,1.598c-0.883,0 -1.598,-0.715 -1.598,-1.598c0,-0.883 0.715,-1.598 1.598,-1.598" style="fill:#fff;"/><path d="M438.205,395.132l11.894,-13.302c0.251,-0.281 0.688,-0.306 0.97,-0.054c0.281,0.252 0.306,0.687 0.054,0.969l-11.895,13.303c-0.251,0.282 -0.687,0.306 -0.969,0.054c-0.282,-0.252 -0.306,-0.688 -0.054,-0.97" style="fill:#fff;"/><path d="M443.3,410.206c-2.784,0 -3.672,-1.365 -3.985,-3.177l-1.464,-8.422l5.58,0l0,1.148c-0.141,-0.046 -0.291,-0.07 -0.444,-0.07c-0.701,0 -1.201,0.528 -1.113,1.173c0.131,0.961 0.264,1.923 0.397,2.883c0.133,0.96 0.263,1.921 0.395,2.883c0.061,0.453 0.369,0.847 0.765,1.042l0,2.54l-0.131,0ZM443.431,398.607l4.596,0l0,1.091c-0.065,-0.008 -0.131,-0.013 -0.198,-0.013c-0.701,0 -1.234,0.528 -1.185,1.173c0.073,0.961 0.146,1.923 0.221,2.883c0.075,0.96 0.146,1.922 0.22,2.883c0.041,0.543 0.441,1.002 0.942,1.134l0,2.448l-4.596,0l0,-2.54c0.168,0.083 0.352,0.13 0.539,0.13c0.631,0 1.089,-0.527 1.021,-1.172c-0.101,-0.961 -0.201,-1.923 -0.302,-2.883c-0.102,-0.96 -0.206,-1.922 -0.305,-2.882c-0.052,-0.506 -0.447,-0.939 -0.953,-1.104l0,-1.148ZM448.027,398.607l4.643,0l0,1.078c-0.698,0 -1.265,0.528 -1.256,1.173c0.017,0.961 0.03,1.923 0.047,2.883c0.016,0.96 0.028,1.922 0.043,2.883c0.012,0.645 0.537,1.172 1.164,1.172l0.002,0l0,2.41l-4.643,0l0,-2.448c0.095,0.025 0.193,0.038 0.293,0.038c0.629,0 1.12,-0.527 1.091,-1.172c-0.041,-0.961 -0.084,-1.923 -0.127,-2.883c-0.042,-0.96 -0.087,-1.922 -0.129,-2.883c-0.025,-0.584 -0.516,-1.072 -1.128,-1.16l0,-1.091ZM452.67,398.607l4.642,0l0,1.092c-0.611,0.09 -1.102,0.577 -1.128,1.159c-0.042,0.961 -0.087,1.923 -0.129,2.883c-0.042,0.96 -0.087,1.922 -0.129,2.883c-0.029,0.645 0.465,1.172 1.093,1.172c0.101,0 0.199,-0.013 0.293,-0.038l0,2.448l-4.642,0l0,-2.41c0.631,0 1.152,-0.527 1.162,-1.172c0.016,-0.961 0.031,-1.923 0.046,-2.882c0.016,-0.96 0.031,-1.923 0.047,-2.883c0.01,-0.646 -0.552,-1.174 -1.254,-1.174l-0.001,0l0,-1.078ZM457.312,398.607l4.598,0l0,1.149c-0.505,0.166 -0.902,0.598 -0.954,1.102c-0.1,0.961 -0.204,1.923 -0.305,2.883c-0.101,0.96 -0.204,1.922 -0.304,2.883c-0.068,0.645 0.392,1.172 1.023,1.172c0.187,0 0.372,-0.047 0.54,-0.13l0,2.54l-4.598,0l0,-2.448c0.501,-0.132 0.9,-0.591 0.942,-1.134c0.072,-0.961 0.148,-1.923 0.22,-2.883c0.073,-0.96 0.15,-1.922 0.221,-2.883c0.05,-0.645 -0.479,-1.173 -1.181,-1.173c-0.068,0 -0.136,0.005 -0.202,0.014l0,-1.092ZM461.91,398.607l5.585,0l-1.462,8.422c-0.315,1.812 -1.203,3.177 -3.987,3.177l-0.136,0l0,-2.54c0.396,-0.195 0.704,-0.589 0.766,-1.042c0.132,-0.962 0.265,-1.923 0.397,-2.883c0.131,-0.96 0.266,-1.922 0.397,-2.883c0.088,-0.645 -0.413,-1.173 -1.114,-1.173c-0.154,0 -0.304,0.025 -0.446,0.071l0,-1.149Z" style="fill:#fff;"/><path d="M415.629,396.384l0.548,0l0,-0.147c-0.413,-0.001 -0.748,-0.336 -0.748,-0.748c0,-0.414 0.335,-0.748 0.748,-0.749l0,-0.143l-0.548,0.001c-1.642,0.003 -1.575,1.786 0,1.786M416.177,396.384l12.967,0l0,-0.147c-0.414,0 -0.749,-0.336 -0.749,-0.748c0,-0.414 0.335,-0.749 0.749,-0.749l0,-0.143c-4.322,-0.007 -8.645,-0.007 -12.967,0l0,0.143c0.414,0 0.749,0.335 0.749,0.749c0,0.412 -0.335,0.748 -0.749,0.748l0,0.147ZM429.144,396.384l0.547,0c1.576,0 1.643,-1.783 0,-1.786l-0.547,-0.001l0,0.143c0.412,0 0.747,0.335 0.747,0.749c0,0.412 -0.335,0.748 -0.747,0.748l0,0.147Z" style="fill:#013c5c;"/><path d="M423.654,388.508c-0.413,0 -0.749,0.335 -0.749,0.748c0,0.413 0.336,0.748 0.749,0.748c0.413,0 0.748,-0.335 0.748,-0.748c0,-0.413 -0.335,-0.748 -0.748,-0.748" style="fill:#013c5c;"/><path d="M429.434,395.289l-5.106,-5.71c-0.118,-0.132 -0.322,-0.143 -0.454,-0.024c-0.132,0.117 -0.143,0.321 -0.024,0.453l5.104,5.709c0.119,0.132 0.323,0.144 0.455,0.026c0.132,-0.118 0.143,-0.322 0.025,-0.454" style="fill:#013c5c;"/><path d="M421.667,388.508c0.414,0 0.748,0.335 0.748,0.748c0,0.413 -0.334,0.748 -0.748,0.748c-0.414,0 -0.748,-0.335 -0.748,-0.748c0,-0.413 0.334,-0.748 0.748,-0.748" style="fill:#013c5c;"/><path d="M415.886,395.289l5.569,-6.228c0.118,-0.131 0.322,-0.142 0.454,-0.025c0.132,0.117 0.144,0.323 0.025,0.454l-5.568,6.227c-0.118,0.132 -0.322,0.144 -0.454,0.026c-0.132,-0.118 -0.143,-0.322 -0.026,-0.454" style="fill:#013c5c;"/><path d="M418.273,402.346c-1.304,0 -1.719,-0.639 -1.867,-1.487l-0.685,-3.943l2.612,0l0,0.538c-0.066,-0.022 -0.136,-0.033 -0.207,-0.033c-0.329,0 -0.562,0.247 -0.522,0.549c0.062,0.45 0.124,0.9 0.186,1.35l0.186,1.349c0.028,0.212 0.172,0.397 0.357,0.488l0,1.189l-0.06,0ZM418.333,396.916l2.152,0l0,0.511c-0.031,-0.004 -0.061,-0.006 -0.093,-0.006c-0.328,0 -0.577,0.247 -0.554,0.549c0.034,0.45 0.068,0.9 0.103,1.35c0.035,0.449 0.068,0.899 0.102,1.349c0.021,0.254 0.207,0.47 0.442,0.531l0,1.146l-2.152,0l0,-1.189c0.079,0.039 0.165,0.061 0.252,0.061c0.297,0 0.51,-0.247 0.479,-0.549c-0.047,-0.45 -0.094,-0.9 -0.142,-1.349c-0.047,-0.45 -0.096,-0.9 -0.142,-1.35c-0.024,-0.236 -0.21,-0.44 -0.447,-0.516l0,-0.538ZM420.485,396.916l2.174,0l0,0.505c-0.327,0 -0.592,0.247 -0.588,0.549c0.007,0.45 0.014,0.9 0.022,1.35c0.008,0.449 0.013,0.899 0.02,1.349c0.006,0.302 0.252,0.549 0.546,0.549l0,1.128l-2.174,0l0,-1.146c0.044,0.011 0.09,0.018 0.137,0.018c0.294,0 0.525,-0.247 0.511,-0.549l-0.059,-1.349c-0.02,-0.45 -0.041,-0.9 -0.061,-1.35c-0.011,-0.273 -0.241,-0.502 -0.528,-0.543l0,-0.511ZM422.659,396.916l2.172,0l0,0.511c-0.285,0.043 -0.515,0.271 -0.527,0.543c-0.019,0.45 -0.041,0.9 -0.061,1.35c-0.018,0.449 -0.041,0.899 -0.06,1.349c-0.013,0.302 0.218,0.549 0.512,0.549c0.047,0 0.093,-0.007 0.136,-0.017l0,1.145l-2.172,0l0,-1.128c0.295,0 0.539,-0.247 0.544,-0.549c0.008,-0.45 0.014,-0.9 0.022,-1.349c0.007,-0.45 0.013,-0.9 0.021,-1.35c0.005,-0.302 -0.259,-0.549 -0.587,-0.549l0,0l0,-0.505ZM424.831,396.916l2.154,0l0,0.539c-0.237,0.077 -0.423,0.279 -0.447,0.515c-0.047,0.45 -0.096,0.9 -0.143,1.35c-0.046,0.449 -0.095,0.899 -0.142,1.349c-0.032,0.302 0.183,0.549 0.479,0.549c0.088,0 0.174,-0.022 0.253,-0.061l0,1.189l-2.154,0l0,-1.145c0.236,-0.062 0.423,-0.277 0.441,-0.532c0.035,-0.45 0.071,-0.9 0.105,-1.349c0.033,-0.45 0.069,-0.9 0.102,-1.35c0.024,-0.302 -0.223,-0.549 -0.552,-0.549c-0.033,0 -0.064,0.002 -0.096,0.006l0,-0.511ZM426.985,396.916l2.615,0l-0.686,3.943c-0.147,0.848 -0.563,1.487 -1.866,1.487l-0.063,0l0,-1.189c0.185,-0.091 0.33,-0.276 0.359,-0.488c0.061,-0.45 0.124,-0.9 0.185,-1.349c0.062,-0.45 0.125,-0.9 0.186,-1.35c0.041,-0.302 -0.193,-0.549 -0.521,-0.549c-0.072,0 -0.143,0.011 -0.209,0.034l0,-0.539Z" style="fill:#013c5c;"/><path d="M475.655,396.384l0.547,0l0,-0.147c-0.412,0 -0.747,-0.336 -0.747,-0.748c0,-0.414 0.335,-0.749 0.747,-0.749l0,-0.143l-0.547,0.001c-1.642,0.003 -1.575,1.786 0,1.786M476.202,396.384l12.967,0l0,-0.147c-0.413,0 -0.748,-0.336 -0.748,-0.748c0,-0.414 0.335,-0.749 0.748,-0.749l0,-0.143c-4.321,-0.007 -8.644,-0.007 -12.967,0l0,0.143c0.414,0 0.75,0.335 0.75,0.749c0,0.412 -0.336,0.748 -0.75,0.748l0,0.147ZM489.169,396.384l0.548,0c1.575,0 1.642,-1.783 0,-1.786l-0.548,-0.001l0,0.143c0.413,0 0.748,0.335 0.748,0.749c0,0.412 -0.335,0.748 -0.748,0.748l0,0.147Z" style="fill:#013c5c;"/><path d="M483.679,388.508c-0.413,0 -0.747,0.335 -0.747,0.748c0,0.413 0.334,0.748 0.747,0.748c0.414,0 0.749,-0.335 0.749,-0.748c0,-0.413 -0.335,-0.748 -0.749,-0.748" style="fill:#013c5c;"/><path d="M489.46,395.289l-5.106,-5.71c-0.118,-0.132 -0.321,-0.143 -0.453,-0.024c-0.132,0.117 -0.144,0.321 -0.026,0.453l5.105,5.709c0.118,0.132 0.322,0.144 0.454,0.026c0.132,-0.118 0.143,-0.322 0.026,-0.454" style="fill:#013c5c;"/><path d="M481.693,388.508c0.413,0 0.748,0.335 0.748,0.748c0,0.413 -0.335,0.748 -0.748,0.748c-0.413,0 -0.748,-0.335 -0.748,-0.748c0,-0.413 0.335,-0.748 0.748,-0.748" style="fill:#013c5c;"/><path d="M475.913,395.289l5.568,-6.228c0.118,-0.131 0.322,-0.142 0.454,-0.025c0.132,0.117 0.144,0.323 0.025,0.454l-5.568,6.227c-0.118,0.132 -0.322,0.144 -0.454,0.026c-0.132,-0.118 -0.143,-0.322 -0.025,-0.454" style="fill:#013c5c;"/><path d="M478.298,402.346c-1.303,0 -1.719,-0.639 -1.866,-1.487l-0.684,-3.943l2.611,0l0,0.538c-0.066,-0.022 -0.136,-0.033 -0.207,-0.033c-0.328,0 -0.562,0.247 -0.522,0.549c0.062,0.45 0.124,0.9 0.186,1.35c0.062,0.449 0.123,0.899 0.185,1.349c0.029,0.212 0.173,0.397 0.358,0.488l0,1.189l-0.061,0ZM478.359,396.916l2.152,0l0,0.511c-0.031,-0.004 -0.062,-0.006 -0.092,-0.006c-0.329,0 -0.579,0.247 -0.555,0.549c0.033,0.45 0.069,0.9 0.103,1.35c0.035,0.449 0.068,0.899 0.102,1.349c0.02,0.254 0.208,0.47 0.442,0.531l0,1.146l-2.152,0l0,-1.189c0.08,0.039 0.165,0.061 0.253,0.061c0.295,0 0.51,-0.247 0.478,-0.549c-0.048,-0.45 -0.094,-0.9 -0.142,-1.349c-0.047,-0.45 -0.096,-0.9 -0.143,-1.35c-0.024,-0.236 -0.21,-0.44 -0.446,-0.516l0,-0.538ZM480.511,396.916l2.174,0l0,0.505c-0.328,0 -0.592,0.247 -0.588,0.549c0.008,0.45 0.014,0.9 0.022,1.35c0.007,0.449 0.013,0.899 0.02,1.349c0.005,0.302 0.251,0.549 0.545,0.549l0.001,0l0,1.128l-2.174,0l0,-1.146c0.045,0.011 0.091,0.018 0.138,0.018c0.294,0 0.523,-0.247 0.51,-0.549l-0.059,-1.349c-0.02,-0.45 -0.041,-0.9 -0.061,-1.35c-0.011,-0.273 -0.241,-0.502 -0.528,-0.543l0,-0.511ZM482.685,396.916l2.173,0l0,0.511c-0.287,0.043 -0.516,0.271 -0.528,0.543c-0.019,0.45 -0.041,0.9 -0.06,1.35c-0.02,0.449 -0.041,0.899 -0.061,1.349c-0.013,0.302 0.218,0.549 0.512,0.549c0.047,0 0.093,-0.007 0.137,-0.017l0,1.145l-2.173,0l0,-1.128c0.295,0 0.539,-0.247 0.544,-0.549c0.007,-0.45 0.015,-0.9 0.022,-1.349c0.006,-0.45 0.014,-0.9 0.021,-1.35c0.006,-0.302 -0.258,-0.549 -0.587,-0.549l0,-0.505ZM484.858,396.916l2.152,0l0,0.539c-0.236,0.076 -0.421,0.279 -0.446,0.515c-0.047,0.45 -0.095,0.9 -0.143,1.35c-0.047,0.449 -0.095,0.899 -0.143,1.349c-0.031,0.302 0.184,0.549 0.48,0.549c0.087,0 0.174,-0.022 0.252,-0.061l0,1.189l-2.152,0l0,-1.145c0.235,-0.062 0.421,-0.277 0.441,-0.532c0.034,-0.45 0.07,-0.9 0.103,-1.349c0.034,-0.45 0.07,-0.9 0.104,-1.35c0.023,-0.302 -0.224,-0.549 -0.553,-0.549c-0.032,0 -0.064,0.002 -0.095,0.006l0,-0.511ZM487.01,396.916l2.616,0l-0.686,3.943c-0.147,0.848 -0.562,1.487 -1.866,1.487l-0.064,0l0,-1.189c0.186,-0.091 0.33,-0.276 0.36,-0.488c0.061,-0.45 0.124,-0.9 0.185,-1.349c0.062,-0.45 0.124,-0.9 0.186,-1.35c0.041,-0.302 -0.193,-0.549 -0.521,-0.549c-0.072,0 -0.144,0.011 -0.21,0.034l0,-0.539Z" style="fill:#013c5c;"/><rect x="410.265" y="422.264" width="24.233" height="12.762" style="fill:#5895cb;"/><rect x="440.557" y="422.264" width="24.233" height="12.762" style="fill:#5895cb;"/><rect x="470.848" y="422.264" width="24.233" height="12.762" style="fill:#5895cb;"/><rect x="404.42" y="455.383" width="96.506" height="6.884" style="fill:#90bce2;"/><rect x="410.265" y="436.776" width="24.233" height="2.401" style="fill:#90bce2;"/><rect x="410.265" y="440.902" width="24.233" height="2.401" style="fill:#90bce2;"/><rect x="410.265" y="445.028" width="24.233" height="2.401" style="fill:#90bce2;"/><rect x="410.265" y="449.153" width="15.343" height="2.401" style="fill:#90bce2;"/><rect x="440.557" y="436.776" width="24.233" height="2.401" style="fill:#90bce2;"/><rect x="440.557" y="440.902" width="24.233" height="2.401" style="fill:#90bce2;"/><rect x="440.557" y="445.028" width="24.233" height="2.401" style="fill:#90bce2;"/><rect x="440.557" y="449.153" width="15.344" height="2.401" style="fill:#90bce2;"/><rect x="470.848" y="436.776" width="24.233" height="2.401" style="fill:#90bce2;"/><rect x="470.848" y="440.902" width="24.233" height="2.401" style="fill:#90bce2;"/><rect x="470.848" y="445.028" width="24.233" height="2.401" style="fill:#90bce2;"/><rect x="470.848" y="449.153" width="15.343" height="2.401" style="fill:#90bce2;"/><g><g opacity="0.199997"><path d="M394.104,352.094c2.336,-2.117 3.815,-5.254 3.815,-8.756c0,6.375 4.903,11.544 10.951,11.544c6.048,0 10.951,-5.169 10.951,-11.544c0,6.375 4.903,11.544 10.951,11.544c6.048,0 10.95,-5.169 10.95,-11.544c0,6.375 4.903,11.544 10.952,11.544c6.047,0 10.951,-5.169 10.951,-11.544c0,6.375 4.902,11.544 10.95,11.544c6.048,0 10.951,-5.169 10.951,-11.544c0,6.375 4.904,11.544 10.952,11.544c6.048,0 10.95,-5.169 10.95,-11.544c0,3.501 1.479,6.638 3.814,8.754l0,-17.951c0,-8.045 -3.981,-15.205 -10.068,-19.612l-97.002,0c-6.088,4.407 -10.068,11.567 -10.068,19.612l0,17.953Z" style="fill:#000;"/></g></g><rect x="394.139" y="306.415" width="117.069" height="14.114" style="fill:#d32a13;"/><path d="M376.018,336.103l153.312,0l-18.123,-15.575l-117.069,0l-18.12,15.575Z" style="fill:#f65741;"/><path d="M529.329,336.103l-21.901,0l-12.945,-15.575l16.725,0l18.121,15.575Z" style="fill:#ffd96b;"/><path d="M485.525,336.103l21.902,0l-12.944,-15.575l-16.723,0l7.765,15.575Z" style="fill:#f65741;"/><path d="M485.525,336.103l-21.901,0l-2.589,-15.575l16.725,0l7.765,15.575Z" style="fill:#ffd96b;"/><path d="M441.722,336.103l21.902,0l-2.589,-15.575l-16.724,0l-2.589,15.575Z" style="fill:#f65741;"/><path d="M441.722,336.103l-21.901,0l7.766,-15.575l16.724,0l-2.589,15.575Z" style="fill:#ffd96b;"/><path d="M397.919,336.103l21.902,0l7.766,-15.575l-16.724,0l-12.944,15.575Z" style="fill:#f65741;"/><path d="M397.919,336.103l-21.901,0l18.121,-15.575l16.724,0l-12.944,15.575Z" style="fill:#ffd96b;"/><path d="M397.919,336.103c0,6.375 -4.903,11.543 -10.95,11.543c-6.048,0 -10.951,-5.168 -10.951,-11.543l21.901,0Z" style="fill:#ddab14;"/><path d="M441.723,336.103c0,6.375 -4.903,11.543 -10.951,11.543c-6.048,0 -10.951,-5.168 -10.951,-11.543l21.902,0Z" style="fill:#ddab14;"/><path d="M397.919,336.103c0,6.375 4.903,11.543 10.952,11.543c6.047,0 10.95,-5.168 10.95,-11.543l-21.902,0Z" style="fill:#d32a13;"/><path d="M485.527,336.103c0,6.375 -4.903,11.543 -10.952,11.543c-6.047,0 -10.95,-5.168 -10.95,-11.543l21.902,0Z" style="fill:#ddab14;"/><path d="M441.723,336.103c0,6.375 4.902,11.543 10.951,11.543c6.048,0 10.951,-5.168 10.951,-11.543l-21.902,0Z" style="fill:#d32a13;"/><path d="M529.33,336.103c0,6.375 -4.903,11.543 -10.952,11.543c-6.046,0 -10.95,-5.168 -10.95,-11.543l21.902,0Z" style="fill:#ddab14;"/><path d="M485.527,336.103c0,6.375 4.902,11.543 10.951,11.543c6.047,0 10.95,-5.168 10.95,-11.543l-21.901,0Z" style="fill:#d32a13;"/><path d="M377.828,406.188l30.366,0c5.76,0 10.471,4.711 10.471,10.47l0.001,81.674c0,5.759 -4.712,10.471 -10.471,10.471l-30.366,0c-5.759,0 -10.471,-4.712 -10.471,-10.471l0,-81.674c0,-5.758 4.711,-10.47 10.47,-10.47Z" style="fill:none;stroke-width:2.7px;stroke:#5895cb;"/><path d="M377.828,406.188l30.366,0c5.76,0 10.471,4.711 10.471,10.47l0.001,81.674c0,5.759 -4.712,10.471 -10.471,10.471l-30.366,0c-5.759,0 -10.471,-4.712 -10.471,-10.471l0,-81.674c0,-5.758 4.711,-10.47 10.47,-10.47Z" style="fill:#013c5c;"/><path d="M371.119,416.907l43.828,-0.001l0,77.645l-43.828,0l0,-77.644Z" style="fill:#fff;"/><path d="M383.175,411.855l19.715,0c0.536,0 0.974,-0.438 0.974,-0.973l0,-0.001c0,-0.536 -0.438,-0.974 -0.974,-0.974l-19.715,0c-0.536,0 -0.974,0.438 -0.974,0.974l0,0.001c0,0.535 0.438,0.973 0.974,0.973" style="fill:#5895cb;"/><path d="M376.426,503.309l33.215,0c0.831,0 1.51,-0.679 1.51,-1.51l0,0c0,-0.83 -0.679,-1.509 -1.51,-1.509l-33.215,0c-0.831,0 -1.51,0.679 -1.51,1.509c0,0.831 0.679,1.51 1.51,1.51" style="fill:#5895cb;"/><path d="M393.011,495.89c3.265,0 5.91,2.646 5.91,5.91c0,3.263 -2.645,5.909 -5.909,5.909c-3.265,0 -5.91,-2.646 -5.91,-5.909c0,-3.264 2.645,-5.91 5.909,-5.91" style="fill:#013c5c;"/><path d="M393.011,497.634c2.301,0 4.167,1.865 4.167,4.166c0,2.299 -1.866,4.164 -4.166,4.164c-2.3,0 -4.165,-1.864 -4.165,-4.164c0,-2.301 1.865,-4.166 4.164,-4.166" style="fill:#5895cb;"/><rect x="371.12" y="416.906" width="43.828" height="4.849" style="fill:#90bce2;"/><rect x="381.371" y="424.745" width="23.324" height="5.644" style="fill:#5895cb;"/><rect x="371.12" y="438.234" width="43.828" height="22.43" style="fill:#5895cb;"/><rect x="377.601" y="432.597" width="30.863" height="2.365" style="fill:#90bce2;"/><path d="M412.186,448.374c-0.072,-0.09 -0.055,-0.219 0.038,-0.29c0.094,-0.07 0.227,-0.052 0.299,0.038l0.959,1.198c0.006,0.008 0.012,0.016 0.018,0.025l0.003,0.004l0,0.001c0.003,0.005 0.006,0.011 0.009,0.016l0.003,0.01l0.006,0.018l0.003,0.015c0.003,0.006 0.003,0.012 0.003,0.018l0,0.001l0.002,0.009l0,0.024l-0.002,0.009l0,0.001l-0.003,0.019l-0.003,0.015l-0.005,0.012l-0.001,0.005l-0.003,0.01l-0.009,0.016l0,0.002l-0.002,0.002l-0.001,0.001c-0.006,0.009 -0.012,0.018 -0.018,0.025l-0.959,1.199c-0.072,0.09 -0.205,0.107 -0.299,0.037c-0.093,-0.07 -0.11,-0.199 -0.038,-0.289l0.86,-1.075l-0.86,-1.076Z" style="fill:#dfeefb;fill-rule:nonzero;"/><path d="M373.543,448.122c0.073,-0.09 0.206,-0.107 0.299,-0.038c0.094,0.071 0.11,0.2 0.039,0.29l-0.86,1.076l0.86,1.075c0.071,0.09 0.055,0.22 -0.039,0.289c-0.093,0.07 -0.226,0.053 -0.299,-0.037l-0.959,-1.199c-0.006,-0.007 -0.012,-0.015 -0.018,-0.024l0,-0.002l-0.002,-0.002l-0.001,-0.002c-0.003,-0.004 -0.005,-0.009 -0.007,-0.015l-0.005,-0.011l-0.001,-0.004l-0.005,-0.013l-0.003,-0.015c-0.002,-0.007 -0.003,-0.012 -0.003,-0.019l0,-0.001l-0.001,-0.009l-0.001,-0.006l0,-0.005l0,-0.002l0,-0.004l0.001,-0.007l0.001,-0.009l0,0l0.003,-0.019l0.003,-0.015l0.005,-0.013l0.001,-0.004l0.005,-0.011c0.002,-0.005 0.004,-0.01 0.007,-0.016l0.001,-0.001l0.002,-0.002l0,-0.002c0.006,-0.009 0.012,-0.017 0.018,-0.025l0.959,-1.198Z" style="fill:#dfeefb;fill-rule:nonzero;"/><path d="M386.446,450.346l0.513,0l0,-0.139c-0.388,0 -0.701,-0.314 -0.701,-0.7c0,-0.387 0.313,-0.701 0.701,-0.702l0,-0.133l-0.513,0.001c-1.539,0.002 -1.476,1.673 0,1.673M386.959,450.346l12.148,0l0,-0.139c-0.387,0 -0.702,-0.314 -0.702,-0.7c0,-0.388 0.315,-0.702 0.702,-0.702l0,-0.133c-4.05,-0.006 -8.099,-0.006 -12.148,0l0,0.133l0.001,0c0.386,0 0.7,0.314 0.7,0.702c0,0.386 -0.314,0.7 -0.7,0.7l-0.001,0l0,0.139ZM399.107,450.346l0.513,0c1.476,0 1.539,-1.671 0,-1.673l-0.513,-0.001l0,0.133c0.387,0.001 0.7,0.314 0.7,0.702c0,0.386 -0.313,0.7 -0.7,0.7l0,0.139Z" style="fill:#fff;"/><path d="M393.964,442.967c-0.387,0 -0.702,0.313 -0.702,0.701c0,0.386 0.315,0.701 0.702,0.701c0.387,0 0.701,-0.315 0.701,-0.701c0,-0.388 -0.314,-0.701 -0.701,-0.701" style="fill:#fff;"/><path d="M399.379,449.32l-4.783,-5.349c-0.11,-0.124 -0.301,-0.135 -0.425,-0.024c-0.124,0.11 -0.134,0.301 -0.024,0.425l4.783,5.35c0.111,0.123 0.302,0.133 0.425,0.023c0.124,-0.11 0.134,-0.301 0.024,-0.425" style="fill:#fff;"/><path d="M392.102,442.967c0.388,0 0.702,0.313 0.702,0.701c0,0.386 -0.314,0.701 -0.702,0.701c-0.387,0 -0.701,-0.315 -0.701,-0.701c0,-0.388 0.314,-0.701 0.701,-0.701" style="fill:#fff;"/><path d="M386.687,449.32l5.217,-5.835c0.11,-0.123 0.301,-0.134 0.425,-0.023c0.124,0.11 0.134,0.302 0.024,0.425l-5.217,5.835c-0.111,0.123 -0.302,0.133 -0.425,0.023c-0.124,-0.11 -0.134,-0.301 -0.024,-0.425" style="fill:#fff;"/><path d="M388.922,455.932c-1.221,0 -1.61,-0.599 -1.749,-1.395l-0.642,-3.693l2.448,0l0,0.504c-0.062,-0.021 -0.127,-0.031 -0.195,-0.031c-0.307,0 -0.526,0.232 -0.487,0.514c0.057,0.423 0.115,0.843 0.173,1.265c0.059,0.421 0.116,0.844 0.173,1.264c0.027,0.199 0.163,0.372 0.336,0.459l0,1.113l-0.057,0ZM388.979,450.844l2.016,0l0,0.479c-0.028,-0.004 -0.057,-0.006 -0.087,-0.006c-0.308,0 -0.54,0.232 -0.52,0.514c0.033,0.423 0.064,0.843 0.097,1.265c0.033,0.421 0.064,0.844 0.097,1.264c0.017,0.239 0.193,0.44 0.413,0.498l0,1.074l-2.016,0l0,-1.113c0.074,0.035 0.154,0.056 0.237,0.056c0.276,0 0.477,-0.231 0.447,-0.515c-0.044,-0.42 -0.087,-0.843 -0.132,-1.264c-0.045,-0.422 -0.09,-0.842 -0.133,-1.265c-0.023,-0.221 -0.197,-0.411 -0.419,-0.483l0,-0.504ZM390.995,450.844l2.037,0l0,0.473c-0.307,0 -0.555,0.232 -0.551,0.514c0.008,0.423 0.014,0.843 0.02,1.265c0.007,0.421 0.013,0.844 0.02,1.264c0.004,0.284 0.235,0.515 0.51,0.515l0.001,0l0,1.057l-2.037,0l0,-1.074c0.042,0.011 0.084,0.017 0.129,0.017c0.276,0 0.491,-0.231 0.478,-0.515c-0.017,-0.42 -0.037,-0.843 -0.055,-1.264c-0.018,-0.422 -0.039,-0.842 -0.057,-1.265c-0.011,-0.256 -0.226,-0.47 -0.495,-0.508l0,-0.479ZM393.032,450.844l2.035,0l0,0.479c-0.267,0.04 -0.482,0.253 -0.494,0.508c-0.018,0.423 -0.038,0.843 -0.056,1.265c-0.018,0.421 -0.039,0.844 -0.057,1.264c-0.013,0.284 0.204,0.515 0.48,0.515c0.043,0 0.087,-0.006 0.127,-0.017l0,1.074l-2.035,0l0,-1.057c0.276,-0.001 0.505,-0.232 0.51,-0.515c0.006,-0.42 0.013,-0.843 0.021,-1.264c0.006,-0.422 0.012,-0.842 0.019,-1.265c0.005,-0.282 -0.242,-0.514 -0.55,-0.514l0,-0.473ZM395.067,450.844l2.018,0l0,0.504c-0.222,0.072 -0.396,0.262 -0.419,0.483c-0.043,0.423 -0.09,0.843 -0.133,1.265c-0.045,0.421 -0.09,0.844 -0.134,1.264c-0.03,0.284 0.172,0.515 0.449,0.515c0.082,0 0.162,-0.021 0.237,-0.057l0,1.114l-2.018,0l0,-1.074c0.221,-0.057 0.396,-0.259 0.413,-0.498c0.033,-0.42 0.066,-0.843 0.098,-1.264c0.031,-0.422 0.065,-0.842 0.097,-1.265c0.021,-0.282 -0.21,-0.514 -0.519,-0.514c-0.03,0 -0.06,0.002 -0.089,0.006l0,-0.479ZM397.085,450.844l2.449,0l-0.641,3.693c-0.139,0.796 -0.527,1.395 -1.748,1.395l-0.06,0l0,-1.114c0.173,-0.086 0.309,-0.259 0.336,-0.458c0.057,-0.42 0.116,-0.843 0.174,-1.264c0.057,-0.422 0.116,-0.842 0.174,-1.265c0.039,-0.282 -0.181,-0.514 -0.488,-0.514c-0.068,0 -0.134,0.01 -0.196,0.031l0,-0.504Z" style="fill:#fff;"/><path d="M376.785,449.869l0.24,0l0,-0.065c-0.18,0 -0.327,-0.146 -0.327,-0.328c0,-0.181 0.147,-0.327 0.327,-0.327l0,-0.063l-0.24,0c-0.72,0.001 -0.69,0.783 0,0.783M377.025,449.869l5.687,0l0,-0.065c-0.182,0 -0.328,-0.146 -0.328,-0.328c0,-0.181 0.146,-0.327 0.328,-0.327l0,-0.063c-1.895,-0.003 -3.791,-0.003 -5.687,0l0,0.063c0.183,0 0.329,0.146 0.329,0.327c0,0.182 -0.146,0.328 -0.329,0.328l0,0.065ZM382.712,449.869l0.241,0c0.691,0 0.721,-0.782 0,-0.783l-0.241,0l0,0.063c0.182,0 0.328,0.146 0.328,0.327c0,0.182 -0.146,0.328 -0.328,0.328l0,0.065Z" style="fill:#013c5c;"/><path d="M380.305,446.415c-0.181,0 -0.329,0.146 -0.329,0.328c0,0.181 0.148,0.328 0.329,0.328c0.18,0 0.328,-0.147 0.328,-0.328c0,-0.182 -0.148,-0.328 -0.328,-0.328" style="fill:#013c5c;"/><path d="M382.84,449.39l-2.239,-2.505c-0.052,-0.058 -0.142,-0.063 -0.2,-0.011c-0.057,0.051 -0.062,0.141 -0.011,0.199l2.24,2.504c0.051,0.058 0.141,0.063 0.199,0.011c0.058,-0.051 0.062,-0.141 0.011,-0.198" style="fill:#013c5c;"/><path d="M379.433,446.415c0.182,0 0.329,0.146 0.329,0.328c0,0.181 -0.147,0.328 -0.329,0.328c-0.181,0 -0.328,-0.147 -0.328,-0.328c0,-0.182 0.147,-0.328 0.328,-0.328" style="fill:#013c5c;"/><path d="M376.898,449.39l2.442,-2.733c0.053,-0.057 0.142,-0.063 0.2,-0.01c0.058,0.051 0.062,0.141 0.01,0.198l-2.442,2.732c-0.052,0.058 -0.141,0.063 -0.199,0.011c-0.058,-0.051 -0.063,-0.141 -0.011,-0.198" style="fill:#013c5c;"/><path d="M377.945,452.484c-0.572,0 -0.755,-0.28 -0.82,-0.652l-0.299,-1.729l1.144,0l0,0.236c-0.028,-0.01 -0.059,-0.015 -0.09,-0.015c-0.144,0 -0.246,0.109 -0.229,0.241c0.028,0.197 0.055,0.395 0.082,0.592c0.027,0.197 0.054,0.395 0.081,0.592c0.013,0.093 0.076,0.174 0.156,0.215l0,0.52l-0.025,0ZM377.97,450.103l0.945,0l0,0.224c-0.014,-0.002 -0.027,-0.003 -0.041,-0.003c-0.144,0 -0.253,0.109 -0.243,0.241c0.015,0.197 0.03,0.395 0.046,0.592c0.015,0.197 0.029,0.395 0.044,0.592c0.009,0.111 0.091,0.206 0.194,0.233l0,0.502l-0.945,0l0,-0.52c0.036,0.016 0.073,0.026 0.112,0.026c0.129,0 0.223,-0.109 0.209,-0.241c-0.02,-0.197 -0.04,-0.395 -0.061,-0.592c-0.021,-0.197 -0.043,-0.395 -0.063,-0.592c-0.011,-0.104 -0.092,-0.192 -0.197,-0.226l0,-0.236ZM378.915,450.103l0.953,0l0,0.221c-0.143,0 -0.26,0.109 -0.257,0.241c0.003,0.197 0.006,0.395 0.009,0.592c0.003,0.197 0.006,0.395 0.009,0.592c0.002,0.132 0.111,0.241 0.239,0.241l0,0.494l-0.953,0l0,-0.502c0.019,0.005 0.039,0.008 0.06,0.008c0.129,0 0.231,-0.109 0.225,-0.241c-0.009,-0.197 -0.018,-0.395 -0.027,-0.592c-0.009,-0.197 -0.018,-0.395 -0.026,-0.592c-0.005,-0.12 -0.106,-0.221 -0.232,-0.238l0,-0.224ZM379.868,450.103l0.954,0l0,0.224c-0.125,0.018 -0.227,0.119 -0.232,0.238c-0.008,0.197 -0.018,0.395 -0.027,0.592c-0.009,0.197 -0.017,0.395 -0.026,0.592c-0.006,0.132 0.095,0.241 0.225,0.241c0.02,0 0.04,-0.003 0.06,-0.008l0,0.502l-0.954,0l0,-0.494c0.13,0 0.237,-0.109 0.239,-0.241c0.003,-0.197 0.007,-0.395 0.01,-0.592c0.003,-0.197 0.006,-0.395 0.009,-0.592c0.002,-0.132 -0.113,-0.241 -0.257,-0.241l-0.001,0l0,-0.221ZM380.822,450.103l0.944,0l0,0.236c-0.104,0.034 -0.185,0.123 -0.196,0.226c-0.02,0.197 -0.042,0.395 -0.063,0.592c-0.02,0.197 -0.042,0.395 -0.062,0.592c-0.014,0.132 0.08,0.241 0.209,0.241c0.039,0 0.077,-0.011 0.112,-0.027l0,0.521l-0.944,0l0,-0.502c0.103,-0.027 0.184,-0.122 0.193,-0.233c0.015,-0.197 0.03,-0.395 0.045,-0.592c0.015,-0.197 0.031,-0.395 0.046,-0.592c0.01,-0.132 -0.098,-0.241 -0.242,-0.241c-0.015,0 -0.029,0.001 -0.042,0.003l0,-0.224ZM381.766,450.103l1.147,0l-0.3,1.729c-0.065,0.372 -0.247,0.652 -0.819,0.652l-0.028,0l0,-0.521c0.081,-0.041 0.144,-0.121 0.157,-0.214c0.028,-0.197 0.055,-0.395 0.082,-0.592c0.027,-0.197 0.054,-0.395 0.081,-0.592c0.018,-0.132 -0.084,-0.241 -0.228,-0.241c-0.032,0 -0.063,0.005 -0.092,0.015l0,-0.236Z" style="fill:#013c5c;"/><path d="M403.114,449.869l0.24,0l0,-0.065c-0.181,0 -0.328,-0.146 -0.328,-0.328c0,-0.181 0.147,-0.327 0.328,-0.327l0,-0.063l-0.24,0c-0.721,0.001 -0.691,0.783 0,0.783M403.354,449.869l5.686,0l0,-0.065c-0.181,0 -0.328,-0.146 -0.328,-0.328c0,-0.181 0.147,-0.327 0.328,-0.327l0,-0.063c-1.895,-0.003 -3.79,-0.003 -5.686,0l0,0.063c0.182,0 0.328,0.146 0.328,0.327c0,0.182 -0.146,0.328 -0.328,0.328l0,0.065ZM409.04,449.869l0.242,0c0.69,0 0.72,-0.782 0,-0.783l-0.242,0l0,0.063l0.001,0c0.181,0 0.328,0.146 0.328,0.327c0,0.182 -0.147,0.328 -0.328,0.328l-0.001,0l0,0.065Z" style="fill:#013c5c;"/><path d="M406.633,446.415c-0.182,0 -0.329,0.146 -0.329,0.328c0,0.181 0.147,0.328 0.329,0.328c0.181,0 0.328,-0.147 0.328,-0.328c0,-0.182 -0.147,-0.328 -0.328,-0.328" style="fill:#013c5c;"/><path d="M409.169,449.39l-2.24,-2.505c-0.052,-0.058 -0.142,-0.063 -0.199,-0.011c-0.058,0.051 -0.063,0.141 -0.012,0.199l2.24,2.504c0.052,0.058 0.141,0.063 0.199,0.011c0.058,-0.051 0.063,-0.141 0.012,-0.198" style="fill:#013c5c;"/><path d="M405.761,446.415c0.182,0 0.329,0.146 0.329,0.328c0,0.181 -0.147,0.328 -0.329,0.328c-0.18,0 -0.328,-0.147 -0.328,-0.328c0,-0.182 0.148,-0.328 0.328,-0.328" style="fill:#013c5c;"/><path d="M403.226,449.39l2.442,-2.733c0.052,-0.057 0.142,-0.063 0.2,-0.01c0.058,0.051 0.063,0.141 0.011,0.198l-2.443,2.732c-0.051,0.058 -0.141,0.063 -0.198,0.011c-0.059,-0.051 -0.063,-0.141 -0.012,-0.198" style="fill:#013c5c;"/><path d="M404.272,452.484c-0.571,0 -0.753,-0.28 -0.818,-0.652l-0.3,-1.729l1.145,0l0,0.236c-0.029,-0.01 -0.059,-0.015 -0.09,-0.015c-0.144,0 -0.247,0.109 -0.229,0.241c0.027,0.197 0.054,0.395 0.082,0.592c0.027,0.197 0.053,0.395 0.08,0.592c0.013,0.093 0.076,0.174 0.157,0.215l0,0.52l-0.027,0ZM404.299,450.103l0.944,0l0,0.224c-0.014,-0.002 -0.026,-0.003 -0.041,-0.003c-0.144,0 -0.253,0.109 -0.243,0.241c0.015,0.197 0.03,0.395 0.045,0.592c0.016,0.197 0.031,0.395 0.045,0.592c0.009,0.111 0.091,0.206 0.194,0.233l0,0.502l-0.944,0l0,-0.52c0.035,0.016 0.072,0.026 0.111,0.026c0.129,0 0.224,-0.109 0.21,-0.241c-0.021,-0.197 -0.042,-0.395 -0.062,-0.592c-0.021,-0.197 -0.043,-0.395 -0.062,-0.592c-0.012,-0.104 -0.092,-0.192 -0.197,-0.226l0,-0.236ZM405.243,450.103l0.953,0l0,0.221c-0.143,0 -0.259,0.109 -0.257,0.241c0.004,0.197 0.006,0.395 0.009,0.592c0.004,0.197 0.006,0.395 0.01,0.592c0.002,0.132 0.11,0.241 0.238,0.241l0,0.494l-0.953,0l0,-0.502c0.019,0.005 0.04,0.008 0.06,0.008c0.13,0 0.231,-0.109 0.225,-0.241c-0.009,-0.197 -0.018,-0.395 -0.027,-0.592c-0.008,-0.197 -0.018,-0.395 -0.026,-0.592c-0.005,-0.12 -0.106,-0.221 -0.232,-0.238l0,-0.224ZM406.196,450.103l0.954,0l0,0.224c-0.126,0.018 -0.226,0.119 -0.232,0.238c-0.008,0.197 -0.018,0.395 -0.027,0.592c-0.008,0.197 -0.017,0.395 -0.026,0.592c-0.005,0.132 0.095,0.241 0.225,0.241c0.02,0 0.041,-0.003 0.06,-0.008l0,0.502l-0.954,0l0,-0.494c0.131,0 0.237,-0.109 0.239,-0.241c0.003,-0.197 0.007,-0.395 0.009,-0.592c0.004,-0.197 0.006,-0.395 0.01,-0.592c0.002,-0.132 -0.112,-0.241 -0.258,-0.241l0,-0.221ZM407.15,450.103l0.944,0l0,0.236c-0.104,0.035 -0.185,0.123 -0.195,0.226c-0.021,0.197 -0.042,0.395 -0.063,0.592c-0.021,0.197 -0.042,0.395 -0.063,0.592c-0.014,0.132 0.08,0.241 0.21,0.241c0.039,0 0.077,-0.01 0.111,-0.026l0,0.52l-0.944,0l0,-0.502c0.103,-0.027 0.185,-0.122 0.193,-0.233c0.015,-0.197 0.031,-0.395 0.046,-0.592c0.015,-0.197 0.03,-0.395 0.045,-0.592c0.01,-0.132 -0.098,-0.241 -0.243,-0.241c-0.014,0 -0.028,0.001 -0.041,0.003l0,-0.224ZM408.094,450.103l1.146,0l-0.299,1.729c-0.065,0.372 -0.247,0.652 -0.819,0.652l-0.028,0l0,-0.52c0.081,-0.041 0.145,-0.122 0.158,-0.215c0.026,-0.197 0.054,-0.395 0.081,-0.592c0.027,-0.197 0.055,-0.395 0.081,-0.592c0.019,-0.132 -0.085,-0.241 -0.228,-0.241c-0.032,0 -0.062,0.005 -0.092,0.015l0,-0.236Z" style="fill:#013c5c;"/><rect x="373.775" y="466.624" width="11.005" height="9.425" style="fill:#5895cb;"/><rect x="387.53" y="466.624" width="11.005" height="9.425" style="fill:#5895cb;"/><rect x="401.287" y="466.624" width="11.005" height="9.425" style="fill:#5895cb;"/><rect x="371.12" y="490.508" width="43.828" height="4.044" style="fill:#90bce2;"/><rect x="373.775" y="477.343" width="11.005" height="1.773" style="fill:#90bce2;"/><rect x="373.775" y="480.39" width="11.005" height="1.773" style="fill:#90bce2;"/><rect x="373.775" y="483.437" width="11.005" height="1.773" style="fill:#90bce2;"/><rect x="387.53" y="477.343" width="11.005" height="1.773" style="fill:#90bce2;"/><rect x="387.53" y="480.39" width="11.005" height="1.773" style="fill:#90bce2;"/><rect x="387.53" y="483.437" width="11.005" height="1.773" style="fill:#90bce2;"/><rect x="387.53" y="486.484" width="6.967" height="1.774" style="fill:#90bce2;"/><rect x="401.287" y="477.343" width="11.005" height="1.773" style="fill:#90bce2;"/><rect x="401.287" y="480.39" width="11.005" height="1.773" style="fill:#90bce2;"/><rect x="401.287" y="483.437" width="11.005" height="1.773" style="fill:#90bce2;"/><rect x="401.287" y="486.484" width="6.968" height="1.774" style="fill:#90bce2;"/><g><g opacity="0.199997"><path d="M365.215,428.779c1.105,-1 1.804,-2.484 1.804,-4.139c0,3.014 2.318,5.458 5.178,5.458c2.859,0 5.177,-2.444 5.177,-5.458c0,3.014 2.319,5.458 5.178,5.458c2.86,0 5.178,-2.444 5.178,-5.458c0,3.014 2.318,5.458 5.178,5.458c2.859,0 5.177,-2.444 5.177,-5.458c0,3.014 2.318,5.458 5.178,5.458c2.86,0 5.179,-2.444 5.179,-5.458c0,3.014 2.318,5.458 5.176,5.458c2.861,0 5.178,-2.444 5.178,-5.458c0,1.654 0.7,3.138 1.803,4.139l0,-8.486c0,-3.806 -1.881,-7.19 -4.761,-9.275l-45.862,0c-2.878,2.085 -4.761,5.469 -4.761,9.275l0,8.486Z" style="fill:#000;"/></g></g><rect x="365.232" y="404.345" width="55.351" height="6.674" style="fill:#d32a13;"/><path d="M356.664,418.382l72.487,0l-8.567,-7.364l-55.352,0l-8.568,7.364Z" style="fill:#f65741;"/><path d="M429.151,418.382l-10.356,0l-6.12,-7.364l7.908,0l8.568,7.364Z" style="fill:#ffd96b;"/><path d="M408.44,418.382l10.356,0l-6.121,-7.364l-7.907,0l3.672,7.364Z" style="fill:#f65741;"/><path d="M408.44,418.382l-10.355,0l-1.224,-7.364l7.907,0l3.672,7.364Z" style="fill:#ffd96b;"/><path d="M387.729,418.382l10.356,0l-1.224,-7.364l-7.907,0l-1.225,7.364Z" style="fill:#f65741;"/><path d="M387.729,418.382l-10.355,0l3.673,-7.364l7.907,0l-1.225,7.364Z" style="fill:#ffd96b;"/><path d="M367.019,418.382l10.355,0l3.672,-7.364l-7.907,0l-6.12,7.364Z" style="fill:#f65741;"/><path d="M367.019,418.382l-10.356,0l8.568,-7.364l7.908,0l-6.12,7.364Z" style="fill:#ffd96b;"/><path d="M367.019,418.382c0,3.014 -2.318,5.457 -5.177,5.457c-2.86,0 -5.179,-2.443 -5.179,-5.457l10.356,0Z" style="fill:#ddab14;"/><path d="M387.73,418.382c0,3.014 -2.318,5.457 -5.177,5.457c-2.861,0 -5.179,-2.443 -5.179,-5.457l10.356,0Z" style="fill:#ddab14;"/><path d="M367.019,418.382c0,3.014 2.318,5.457 5.177,5.457c2.86,0 5.178,-2.443 5.178,-5.457l-10.355,0Z" style="fill:#d32a13;"/><path d="M408.441,418.382c0,3.014 -2.319,5.457 -5.178,5.457c-2.86,0 -5.178,-2.443 -5.178,-5.457l10.356,0Z" style="fill:#ddab14;"/><path d="M387.73,418.382c0,3.014 2.318,5.457 5.177,5.457c2.861,0 5.178,-2.443 5.178,-5.457l-10.355,0Z" style="fill:#d32a13;"/><path d="M429.151,418.382c0,3.014 -2.318,5.457 -5.177,5.457c-2.86,0 -5.178,-2.443 -5.178,-5.457l10.355,0Z" style="fill:#ddab14;"/><path d="M408.441,418.382c0,3.014 2.319,5.457 5.177,5.457c2.86,0 5.179,-2.443 5.179,-5.457l-10.356,0Z" style="fill:#d32a13;"/></svg>