<?xml version="1.0" standalone="no"?>
<!DOCTYPE svg PUBLIC "-//W3C//DTD SVG 1.1//EN" "http://www.w3.org/Graphics/SVG/1.1/DTD/svg11.dtd">
<svg width="100%" height="100%" viewBox="0 0 561 540" version="1.1" xmlns="http://www.w3.org/2000/svg" xmlns:xlink="http://www.w3.org/1999/xlink" xml:space="preserve" style="fill-rule:evenodd;clip-rule:evenodd;stroke-linejoin:round;stroke-miterlimit:1.41421;">
    <g transform="matrix(1,0,0,1,5.5,-1)">
        <path d="M215.72,152.8C215.72,155.488 213.512,157.696 210.824,157.696C208.136,157.696 205.928,155.488 205.928,152.8L205.928,111.232C205.928,108.448 208.136,106.24 210.824,106.24C213.512,106.24 215.72,108.448 215.72,111.232L215.72,152.8ZM210.824,100.192C204.776,100.192 199.784,105.088 199.784,111.232L199.784,152.8C199.784,157.792 203.144,162.016 207.752,163.36L207.752,168.448C207.752,169.216 208.424,169.888 209.288,169.888L212.36,169.888C213.224,169.888 213.896,169.216 213.896,168.448L213.896,163.36C218.504,162.016 221.864,157.792 221.864,152.8L221.864,111.232C221.864,105.088 216.872,100.192 210.824,100.192Z" style="fill:black;fill-rule:nonzero;"/>
        <path d="M248.264,123.904C248.264,126.592 246.056,128.8 243.368,128.8L238.472,128.8L238.472,106.144L243.368,106.144C246.056,106.144 248.264,108.352 248.264,111.136L248.264,123.904ZM254.408,111.136C254.408,104.992 249.512,100 243.368,100L235.4,100C233.672,100 232.328,101.44 232.328,103.072L232.328,162.304C232.328,163.168 233,163.84 233.864,163.84L236.936,163.84C237.704,163.84 238.472,163.168 238.472,162.304L238.472,134.944L243.368,134.944C246.056,134.944 248.264,137.152 248.264,139.936L248.264,162.304C248.264,163.168 248.936,163.84 249.8,163.84L252.872,163.84C253.736,163.84 254.408,163.168 254.408,162.304L254.408,139.936C254.408,136.768 253.16,133.888 251.048,131.872C253.16,129.856 254.408,127.072 254.408,123.904L254.408,111.136Z" style="fill:black;fill-rule:nonzero;"/>
        <path d="M279.752,106.144C280.616,106.144 281.288,105.472 281.288,104.608L281.288,101.536C281.288,100.768 280.616,100 279.752,100L268.328,100C266.6,100 265.256,101.44 265.256,103.072L265.256,160.768C265.256,162.496 266.6,163.84 268.328,163.84L279.752,163.84C280.616,163.84 281.288,163.168 281.288,162.304L281.288,159.232C281.288,158.464 280.616,157.696 279.752,157.696L271.4,157.696L271.4,135.04L279.752,135.04C280.616,135.04 281.288,134.272 281.288,133.504L281.288,130.432C281.288,129.568 280.616,128.896 279.752,128.896L271.4,128.896L271.4,106.144L279.752,106.144Z" style="fill:black;fill-rule:nonzero;"/>
        <path d="M308.168,152.8C308.168,155.488 305.96,157.696 303.272,157.696C300.488,157.696 298.28,155.488 298.28,152.8L298.28,111.136C298.28,108.352 300.488,106.144 303.272,106.144C305.96,106.144 308.168,108.352 308.168,111.136L308.168,152.8ZM303.272,100C297.128,100 292.136,104.992 292.136,111.136L292.136,152.8C292.136,158.944 297.128,163.84 303.272,163.84C309.32,163.84 314.312,158.944 314.312,152.8L314.312,111.136C314.312,104.992 309.32,100 303.272,100Z" style="fill:black;fill-rule:nonzero;"/>
        <path d="M345.704,100L342.728,100C341.864,100 341.192,100.768 341.192,101.536L341.192,128.896L331.304,128.896L331.304,101.536C331.304,100.768 330.632,100 329.768,100L326.696,100C325.832,100 325.16,100.768 325.16,101.536L325.16,162.304C325.16,163.168 325.832,163.84 326.696,163.84L329.768,163.84C330.632,163.84 331.304,163.168 331.304,162.304L331.304,135.04L341.192,135.04L341.192,162.304C341.192,163.168 341.864,163.84 342.728,163.84L345.704,163.84C346.568,163.84 347.24,163.168 347.24,162.304L347.24,101.536C347.24,100.768 346.568,100 345.704,100Z" style="fill:black;fill-rule:nonzero;"/>
    </g>
</svg>
