<svg viewBox="0 0 561 540" xmlns="http://www.w3.org/2000/svg" fill-rule="evenodd" clip-rule="evenodd" stroke-linejoin="round" stroke-miterlimit="1.414"><g fill-rule="nonzero"><path d="M221.22 151.8c0 2.688-2.208 4.896-4.896 4.896-2.688 0-4.896-2.208-4.896-4.896v-41.568c0-2.784 2.208-4.992 4.896-4.992 2.688 0 4.896 2.208 4.896 4.992V151.8zm-4.896-52.608c-6.048 0-11.04 4.896-11.04 11.04V151.8c0 4.992 3.36 9.216 7.968 10.56v5.088c0 .768.672 1.44 1.536 1.44h3.072c.864 0 1.536-.672 1.536-1.44v-5.088c4.608-1.344 7.968-5.568 7.968-10.56v-41.568c0-6.144-4.992-11.04-11.04-11.04zM253.764 122.904c0 2.688-2.208 4.896-4.896 4.896h-4.896v-22.656h4.896c2.688 0 4.896 2.208 4.896 4.992v12.768zm6.144-12.768c0-6.144-4.896-11.136-11.04-11.136H240.9c-1.728 0-3.072 1.44-3.072 3.072v59.232c0 .864.672 1.536 1.536 1.536h3.072c.768 0 1.536-.672 1.536-1.536v-27.36h4.896c2.688 0 4.896 2.208 4.896 4.992v22.368c0 .864.672 1.536 1.536 1.536h3.072c.864 0 1.536-.672 1.536-1.536v-22.368c0-3.168-1.248-6.048-3.36-8.064 2.112-2.016 3.36-4.8 3.36-7.968v-12.768zM285.252 105.144c.864 0 1.536-.672 1.536-1.536v-3.072c0-.768-.672-1.536-1.536-1.536h-11.424c-1.728 0-3.072 1.44-3.072 3.072v57.696c0 1.728 1.344 3.072 3.072 3.072h11.424c.864 0 1.536-.672 1.536-1.536v-3.072c0-.768-.672-1.536-1.536-1.536H276.9V134.04h8.352c.864 0 1.536-.768 1.536-1.536v-3.072c0-.864-.672-1.536-1.536-1.536H276.9v-22.752h8.352zM313.668 151.8c0 2.688-2.208 4.896-4.896 4.896-2.784 0-4.992-2.208-4.992-4.896v-41.664a4.958 4.958 0 0 1 4.992-4.992c2.688 0 4.896 2.208 4.896 4.992V151.8zM308.772 99c-6.144 0-11.136 4.992-11.136 11.136V151.8c0 6.144 4.992 11.04 11.136 11.04 6.048 0 11.04-4.896 11.04-11.04v-41.664c0-6.144-4.992-11.136-11.04-11.136zM351.204 99h-2.976c-.864 0-1.536.768-1.536 1.536v27.36h-9.888v-27.36c0-.768-.672-1.536-1.536-1.536h-3.072c-.864 0-1.536.768-1.536 1.536v60.768c0 .864.672 1.536 1.536 1.536h3.072c.864 0 1.536-.672 1.536-1.536V134.04h9.888v27.264c0 .864.672 1.536 1.536 1.536h2.976c.864 0 1.536-.672 1.536-1.536v-60.768c0-.768-.672-1.536-1.536-1.536z"/></g></svg>