<svg viewBox="0 0 561 540" xmlns="http://www.w3.org/2000/svg" fill-rule="evenodd" clip-rule="evenodd" stroke-linecap="round" stroke-linejoin="round" stroke-miterlimit="22.926"><path d="M130.297 192.892h276.48c5.652 0 10.275 4.623 10.275 10.274v174.67c0 5.65-4.623 10.272-10.274 10.272h-276.48c-5.652 0-10.275-4.623-10.275-10.273v-174.67c0-5.65 4.623-10.273 10.274-10.273" fill="#013c5c"/><path fill="#fff" d="M135.434 213.275H401.64v142.91H135.433z"/><path d="M268.536 207.183a3.736 3.736 0 1 0 0-7.472 3.736 3.736 0 0 0 0 7.474" fill="#5895cb"/><path fill="#055a87" d="M262.22 365.08h12.632v12.633H262.22zm-142.198 23.03h297.03l51.588 33.814H68.433l51.59-33.815z"/><path d="M68.433 421.924H468.64v4.808c0 4.083-3.342 7.425-7.425 7.425H75.858c-4.083 0-7.425-3.342-7.425-7.425v-4.808z" fill="#013c5c"/><path fill="#013c5c" d="M68.433 421.925H468.64v5.76H68.434z"/><path d="M133.6 407.514l-.297.235h.296v-.237zm0-7.005v.23a504.277 504.277 0 0 1-4.435 3.397c-1.587 1.206-3.14 2.413-4.728 3.623-8.608.01-17.18.017-25.75.025 1.883-1.21 3.738-2.416 5.614-3.636 1.856-1.207 3.734-2.43 5.58-3.645 7.884.003 15.8.003 23.72.003m0-10.096v7.274l-19.36-.01c1.848-1.212 3.74-2.418 5.616-3.638 1.854-1.203 3.732-2.427 5.616-3.642l8.13.016zm0 10.325l.296-.23h-.296v.23zm12.783-.23v7.227l-12.783.012v-.236c1.41-1.124 2.774-2.24 4.173-3.382 1.46-1.19 2.957-2.414 4.434-3.623h4.175zm0-3.414l-.74.6h.74v-.6zm0-6.658V391c-1.35 1.026-2.71 2.052-4.027 3.065-1.58 1.214-3.178 2.417-4.766 3.623l-3.99-.002v-7.274l12.782.024zm182.988.348l21.688.04c1.145 1.17 2.216 2.335 3.324 3.497a286.057 286.057 0 0 0 3.364 3.488l-23.424-.013a396.17 396.17 0 0 0-2.475-3.502c-.836-1.174-1.626-2.338-2.475-3.51m-29.113-.054l21.686.042c.74 1.173 1.455 2.337 2.18 3.514a334.08 334.08 0 0 0 2.18 3.506l-23.424-.013-1.33-3.52c-.443-1.175-.85-2.35-1.293-3.53m-29.15-.056l21.65.042c.37 1.18.702 2.357 1.034 3.53.333 1.177.665 2.354 1.034 3.53-7.832-.005-15.59-.008-23.386-.014-.074-1.18-.093-2.36-.147-3.54-.055-1.182-.11-2.363-.185-3.548m-29.113-.055l21.65.04-.11 3.55c-.038 1.185-.112 2.365-.15 3.547l-23.385-.01.997-3.56.997-3.568m-29.15-.057l21.687.042c-.443 1.193-.87 2.388-1.293 3.57-.426 1.192-.886 2.378-1.293 3.566-7.795-.002-15.628-.01-23.423-.01.703-1.194 1.47-2.374 2.18-3.58.695-1.183 1.403-2.39 2.143-3.587m-29.15-.055l21.687.04c-.813 1.198-1.626 2.398-2.44 3.59-.812 1.196-1.624 2.392-2.437 3.584-7.795-.002-15.628-.008-23.423-.01 1.108-1.202 2.23-2.392 3.325-3.6 1.082-1.19 2.18-2.4 3.287-3.605m152.545 10.01c8.02.003 16.073.003 24.09.003 1.108 1.164 2.18 2.33 3.288 3.493l3.324 3.487c-8.608.01-17.215.02-25.787.028-.812-1.166-1.64-2.327-2.476-3.5-.826-1.163-1.625-2.34-2.44-3.51m-32.324 0h24.088c.702 1.17 1.42 2.34 2.143 3.513.717 1.165 1.44 2.34 2.18 3.507-8.61.01-17.217.02-25.788.027a2522.72 2522.72 0 0 1-1.33-3.52c-.445-1.176-.85-2.35-1.294-3.527m-32.328-.003h24.052c.33 1.18.646 2.355.997 3.532.35 1.17.665 2.352.997 3.525-8.608.013-17.18.02-25.75.03-.037-1.18-.093-2.36-.148-3.54-.056-1.183-.11-2.365-.15-3.547m-32.362-.002c8.018 0 16.034.003 24.05 0-.035 1.188-.11 2.373-.146 3.554l-.11 3.546c-8.61.01-17.18.016-25.75.028.33-1.188.627-2.375.96-3.56.332-1.186.7-2.377.996-3.567m-32.363-.002l24.09.003c-.407 1.19-.87 2.388-1.294 3.57-.425 1.193-.85 2.38-1.292 3.566-8.61.008-17.217.02-25.788.028.74-1.193 1.44-2.386 2.143-3.58.7-1.193 1.44-2.387 2.142-3.586m-32.326 0c8.017 0 16.034 0 24.088.003-.813 1.197-1.65 2.4-2.44 3.588-.798 1.202-1.624 2.39-2.437 3.584-8.608.008-17.216.02-25.787.028 1.108-1.2 2.192-2.393 3.288-3.598 1.083-1.19 2.216-2.402 3.288-3.604m-28.152-9.51l.738-.562-.738-.002v.564zm0 6.695v-.6c1.24-1.007 2.5-2.013 3.732-3.018 1.477-1.207 2.955-2.417 4.47-3.626l21.65.04a580.826 580.826 0 0 1-3.584 3.61c-1.21 1.21-2.44 2.402-3.62 3.604-7.55-.005-15.1-.01-22.648-.013m0 10.04v-7.227c6.6 0 13.226 0 19.876.002a530.17 530.17 0 0 1-3.583 3.61c-1.208 1.206-2.403 2.402-3.62 3.602l-12.673.013zm242.026-7.212v6.956l-12.562.015c-1.218-1.164-2.437-2.324-3.657-3.486-1.22-1.16-2.364-2.324-3.583-3.487 6.6 0 13.2.002 19.802 0m0-3.29c-1.248-.96-2.48-1.918-3.73-2.874-1.518-1.157-2.958-2.318-4.51-3.478l-21.65-.04c1.256 1.164 2.428 2.335 3.62 3.49 1.21 1.167 2.44 2.322 3.66 3.48l22.61.014v-.595zm0-6.334v.543a86.917 86.917 0 0 0-.777-.546l.776.002zm-223.046 19.65h204.483l7.185 7.526H158.48l6.885-7.526zM388.41 397.82h.775l-.776-.595v.594zm12.874 9.395c-1.38-1.074-2.794-2.142-4.193-3.223-1.486-1.15-2.955-2.317-4.433-3.477h-4.248v6.957l12.874-.012v-.246zm0-6.696v.233l-.314-.234h.313zm0-9.605v6.91l-4.045-.002c-1.59-1.154-3.216-2.308-4.804-3.463-1.338-.972-2.652-1.947-4.027-2.924v-.544l12.874.022zm0 6.91v-6.91l8.073.014c1.92 1.153 3.767 2.305 5.652 3.455l5.65 3.45c-6.476-.004-12.93-.005-19.376-.01m0 2.928a328.562 328.562 0 0 0 4.416 3.234c1.595 1.146 3.176 2.31 4.763 3.462l25.826-.028-5.655-3.45a605.073 605.073 0 0 1-5.58-3.457c-7.947.003-15.896.003-23.773.003v.234zm0 6.708v-.245l.314.245h-.314z" fill="#8fbfea"/><path fill="#5895cb" d="M215.464 231.317h106.144v18.353H215.464zM154.5 273.334h228.07v82.852H154.5z"/><path fill="#90bce2" d="M198.305 256.847h140.46v7.692h-140.46z"/><path d="M368.203 308.965a1.11 1.11 0 0 1 1.76-1.36l4.986 6.458a.936.936 0 0 1 .09.134l.006.007.006.01.005.01c.015.028.03.057.042.087l.022.056.008.023.024.07.02.08.014.102v.006l.004.05.002.035v.055l-.002.037-.004.047v.007l-.015.102-.02.078-.022.07-.006.024-.023.055-.04.086-.006.008-.006.01-.006.01a.98.98 0 0 1-.09.132l-4.988 6.46a1.11 1.11 0 0 1-1.76-1.36l4.477-5.795-4.476-5.794zm-201.093-1.358a1.11 1.11 0 0 1 1.76 1.36l-4.477 5.792 4.476 5.792a1.112 1.112 0 0 1-1.76 1.36l-4.99-6.458a1.03 1.03 0 0 1-.09-.135l-.006-.01-.005-.01-.006-.01a.627.627 0 0 1-.043-.084l-.02-.055-.01-.023-.023-.07-.018-.078a.934.934 0 0 1-.017-.105v-.005l-.005-.046-.002-.038v-.092l.005-.048v-.005l.018-.102.018-.077.022-.07.01-.024.022-.055a.876.876 0 0 1 .043-.086l.005-.007.005-.012.006-.008a1.08 1.08 0 0 1 .09-.133l4.99-6.456z" fill="#dfeefb" fill-rule="nonzero"/><path fill="#055a87" d="M228.116 425.87h80.84v3.767h-80.84z"/><path d="M238.5 318.85h2.343v-.633a3.196 3.196 0 0 1 0-6.392v-.61l-2.342.004c-7.013.01-6.725 7.63 0 7.63m2.344 0h55.385v-.634a3.195 3.195 0 0 1 0-6.392v-.61c-18.46-.028-36.925-.028-55.386 0v.61a3.196 3.196 0 0 1 0 6.392v.632zm55.385 0h2.342c6.728 0 7.015-7.62 0-7.63l-2.342-.006v.61a3.196 3.196 0 0 1 0 6.392v.632zm-23.45-33.646a3.195 3.195 0 1 0 0 6.39 3.195 3.195 0 0 0 0-6.39" fill="#fff"/><path d="M297.47 314.17l-21.808-24.39a1.377 1.377 0 0 0-1.94-.108 1.38 1.38 0 0 0-.108 1.94l21.808 24.39a1.377 1.377 0 0 0 1.94.108 1.377 1.377 0 0 0 .108-1.94m-33.177-28.966a3.195 3.195 0 0 1 0 6.39 3.196 3.196 0 0 1 0-6.39" fill="#fff"/><path d="M239.602 314.17l23.786-26.603a1.378 1.378 0 0 1 1.94-.107 1.38 1.38 0 0 1 .108 1.94L241.65 316a1.375 1.375 0 0 1-1.94.108 1.377 1.377 0 0 1-.108-1.94m10.19 30.147c-5.568 0-7.343-2.73-7.972-6.355l-2.925-16.84h11.16v2.296a2.86 2.86 0 0 0-.888-.143c-1.403 0-2.403 1.057-2.227 2.348.262 1.924.528 3.847.793 5.768.265 1.92.527 3.844.79 5.763.124.908.74 1.698 1.53 2.088v5.078h-.26zm.262-23.196h9.19v2.18a2.858 2.858 0 0 0-.395-.028c-1.404 0-2.47 1.057-2.373 2.348.147 1.924.294 3.846.443 5.767.15 1.92.293 3.844.44 5.763a2.585 2.585 0 0 0 1.884 2.27v4.895h-9.19v-5.078c.335.165.702.26 1.076.26 1.263 0 2.18-1.055 2.043-2.347-.202-1.92-.4-3.843-.605-5.763-.203-1.92-.41-3.843-.61-5.766-.103-1.007-.895-1.874-1.904-2.203v-2.297zm9.19 0h9.285v2.152c-1.4 0-2.53 1.057-2.51 2.348l.09 5.767c.034 1.92.057 3.844.09 5.763.02 1.292 1.073 2.346 2.326 2.346h.002v4.82h-9.286v-4.896c.19.05.386.076.587.076 1.26 0 2.24-1.054 2.183-2.346l-.254-5.763c-.087-1.92-.176-3.844-.26-5.766-.05-1.166-1.033-2.14-2.257-2.32v-2.18zm9.285 0h9.28v2.182c-1.22.18-2.202 1.153-2.253 2.318-.084 1.923-.176 3.846-.26 5.767-.082 1.92-.174 3.844-.258 5.763-.057 1.292.93 2.346 2.186 2.346.2 0 .396-.026.585-.076v4.895h-9.282v-4.82c1.26 0 2.303-1.054 2.325-2.345.03-1.92.06-3.842.092-5.763l.09-5.766c.022-1.29-1.103-2.346-2.505-2.346h-.003v-2.154zm9.28 0h9.197v2.297c-1.01.33-1.804 1.195-1.91 2.203-.197 1.924-.406 3.846-.607 5.767-.202 1.92-.407 3.844-.61 5.763-.135 1.292.786 2.346 2.05 2.346.374 0 .74-.094 1.078-.26v5.08h-9.196v-4.896a2.582 2.582 0 0 0 1.883-2.27c.147-1.92.3-3.842.444-5.763.142-1.92.295-3.844.44-5.766.097-1.29-.96-2.346-2.363-2.346-.137 0-.273.01-.406.03v-2.184zm9.197 0h11.168l-2.924 16.84c-.63 3.624-2.404 6.354-7.972 6.354h-.272v-5.078c.792-.39 1.408-1.18 1.532-2.087.263-1.92.53-3.843.794-5.764.263-1.92.53-3.844.793-5.766.177-1.29-.823-2.347-2.226-2.347-.31 0-.61.052-.893.145v-2.3z" fill="#fff"/><path d="M182.933 317.067h1.322v-.356a1.804 1.804 0 0 1 0-3.605v-.344l-1.322.003c-3.958.007-3.796 4.305 0 4.305m1.322 0h31.254v-.356a1.803 1.803 0 0 1 0-3.606v-.344c-10.42-.016-20.84-.016-31.256 0v.344a1.804 1.804 0 0 1 0 3.607v.357zm31.254 0h1.32c3.796 0 3.96-4.298 0-4.305l-1.32-.002v.345a1.804 1.804 0 0 1 0 3.607v.357zm-13.234-18.988a1.803 1.803 0 1 0 0 3.608 1.803 1.803 0 0 0 0-3.607" fill="#013c5c"/><path d="M216.21 314.428l-12.306-13.764a.777.777 0 0 0-1.094-.062.778.778 0 0 0-.062 1.095l12.307 13.763a.777.777 0 0 0 1.094.062.777.777 0 0 0 .06-1.094m-18.722-16.348a1.803 1.803 0 1 1 0 3.606 1.803 1.803 0 0 1 0-3.605" fill="#013c5c"/><path d="M183.554 314.428l13.423-15.013a.778.778 0 0 1 1.094-.062.778.778 0 0 1 .064 1.095L184.71 315.46a.778.778 0 0 1-1.095.062.778.778 0 0 1-.06-1.094m5.75 17.01c-3.14 0-4.144-1.54-4.5-3.585l-1.65-9.504h6.297v1.294a1.612 1.612 0 0 0-.5-.08c-.79 0-1.356.595-1.257 1.324.148 1.084.298 2.17.448 3.253.15 1.085.297 2.17.445 3.253.07.512.418.958.864 1.178v2.865h-.148zm.147-13.09h5.186v1.23a1.478 1.478 0 0 0-.222-.014c-.792 0-1.394.595-1.338 1.324.083 1.085.165 2.17.25 3.253.084 1.085.164 2.17.247 3.253a1.457 1.457 0 0 0 1.063 1.28v2.762h-5.186v-2.864c.19.095.397.147.608.147.712 0 1.23-.595 1.153-1.325-.114-1.084-.226-2.168-.342-3.252-.113-1.084-.23-2.168-.34-3.254-.06-.57-.507-1.06-1.077-1.245v-1.295zm5.186 0h5.24v1.216c-.788 0-1.427.596-1.415 1.324l.05 3.253c.02 1.085.033 2.17.05 3.253.012.73.606 1.324 1.314 1.324h.002v2.717h-5.243v-2.76c.108.027.22.042.332.042.71 0 1.262-.595 1.23-1.325l-.143-3.25c-.05-1.085-.098-2.17-.145-3.255-.03-.66-.583-1.21-1.275-1.31v-1.23zm5.24 0h5.24v1.23c-.69.104-1.244.653-1.273 1.31-.048 1.085-.1 2.17-.147 3.254-.046 1.084-.098 2.168-.145 3.252-.032.73.524 1.324 1.234 1.324a1.3 1.3 0 0 0 .33-.044v2.76h-5.238v-2.717c.71 0 1.3-.596 1.31-1.325l.052-3.252.05-3.254c.013-.73-.622-1.325-1.413-1.325v-1.215zm5.24 0h5.188v1.297c-.57.187-1.017.675-1.077 1.243-.114 1.085-.23 2.17-.346 3.253-.114 1.085-.23 2.17-.343 3.253-.076.73.443 1.324 1.155 1.324.212 0 .42-.054.61-.147v2.864h-5.19v-2.76a1.455 1.455 0 0 0 1.063-1.282c.082-1.084.168-2.168.25-3.252.08-1.084.17-2.17.25-3.254.054-.73-.543-1.325-1.334-1.325-.078 0-.154.007-.23.017v-1.23zm5.188 0h6.302l-1.65 9.504c-.355 2.045-1.357 3.584-4.498 3.584h-.154v-2.864a1.58 1.58 0 0 0 .865-1.178l.45-3.252.45-3.254c.097-.73-.468-1.325-1.26-1.325a1.63 1.63 0 0 0-.503.08v-1.296zm109.934-1.28h1.322v-.357a1.804 1.804 0 0 1 0-3.605v-.344l-1.32.003c-3.96.007-3.798 4.305 0 4.305m1.32 0h31.255v-.356a1.804 1.804 0 0 1 0-3.606v-.344c-10.418-.016-20.838-.016-31.255 0v.344a1.804 1.804 0 0 1 0 3.607v.357zm31.255 0h1.322c3.793 0 3.957-4.298 0-4.305l-1.324-.002v.345a1.804 1.804 0 0 1 0 3.607v.357zm-13.233-18.988a1.803 1.803 0 1 0 0 3.606 1.803 1.803 0 0 0 0-3.605" fill="#013c5c"/><path d="M353.518 314.428l-12.307-13.764a.777.777 0 0 0-1.092-.062.78.78 0 0 0-.062 1.095l12.307 13.763a.777.777 0 0 0 1.094.062.778.778 0 0 0 .062-1.094m-18.725-16.348a1.803 1.803 0 1 1 .002 3.607 1.803 1.803 0 0 1-.002-3.606" fill="#013c5c"/><path d="M320.86 314.428l13.425-15.013a.778.778 0 0 1 1.094-.062.78.78 0 0 1 .06 1.095l-13.423 15.012a.778.778 0 0 1-1.095.062.778.778 0 0 1-.062-1.094m5.752 17.01c-3.142 0-4.144-1.54-4.5-3.585l-1.65-9.504h6.297v1.294a1.606 1.606 0 0 0-.5-.08c-.793 0-1.357.595-1.258 1.324.147 1.084.298 2.17.447 3.253.15 1.085.296 2.17.445 3.253.07.512.417.958.863 1.178v2.865h-.148zm.147-13.09h5.184v1.23a1.478 1.478 0 0 0-.222-.014c-.792 0-1.394.595-1.338 1.324.083 1.085.165 2.17.25 3.253.084 1.085.164 2.17.247 3.253a1.46 1.46 0 0 0 1.064 1.28v2.762h-5.186v-2.864c.19.095.396.147.607.147.713 0 1.23-.595 1.153-1.325l-.34-3.252a688.633 688.633 0 0 1-.345-3.254c-.06-.57-.506-1.06-1.076-1.245v-1.295zm5.184 0h5.24v1.216c-.788 0-1.427.596-1.415 1.324l.05 3.253c.02 1.085.032 2.17.05 3.253.012.73.606 1.324 1.314 1.324v2.717h-5.24v-2.76c.108.027.22.042.333.042.71 0 1.263-.595 1.23-1.325l-.142-3.25c-.05-1.085-.1-2.17-.146-3.255-.03-.66-.584-1.21-1.276-1.31v-1.23zm5.24 0h5.24v1.23c-.69.104-1.244.653-1.273 1.31-.047 1.085-.1 2.17-.145 3.254-.047 1.084-.098 2.168-.146 3.252-.033.73.523 1.324 1.233 1.324.114 0 .223-.016.33-.044v2.76h-5.238v-2.717c.71 0 1.3-.596 1.312-1.325l.052-3.252.05-3.254c.013-.73-.623-1.325-1.414-1.325v-1.215zm5.24 0h5.19v1.297c-.572.187-1.02.675-1.08 1.243-.11 1.085-.228 2.17-.343 3.253-.112 1.085-.227 2.17-.342 3.253-.077.73.44 1.324 1.154 1.324.212 0 .42-.054.61-.147v2.864h-5.19v-2.76a1.456 1.456 0 0 0 1.063-1.282c.083-1.084.168-2.168.25-3.252.08-1.084.17-2.17.25-3.254.054-.73-.543-1.325-1.333-1.325-.078 0-.155.007-.23.017v-1.23zm5.19 0h6.3l-1.65 9.504c-.355 2.045-1.356 3.584-4.498 3.584h-.153v-2.864a1.58 1.58 0 0 0 .864-1.178c.15-1.084.3-2.168.448-3.252.15-1.084.3-2.17.448-3.254.1-.73-.465-1.325-1.256-1.325a1.63 1.63 0 0 0-.504.08v-1.296z" fill="#013c5c"/><path fill="#d32a13" d="M120.023 174.598h297.03v18.294h-297.03z"/><path d="M74.044 213.078H463.03l-45.978-20.186h-297.03l-45.978 20.186z" fill="#f65741"/><path d="M433.108 213.078h-29.922l-31.832-20.186h22.85l38.904 20.186z" fill="#ffd96b"/><path d="M373.264 213.078h29.922l-31.832-20.186h-22.848l24.758 20.186z" fill="#f65741"/><path d="M373.264 213.078h-29.922l-17.684-20.186h22.848l24.758 20.186z" fill="#ffd96b"/><path d="M313.42 213.078h29.922l-17.684-20.186H302.81l10.61 20.186z" fill="#f65741"/><path d="M313.42 213.078h-29.922l-3.537-20.186h22.85l10.61 20.186z" fill="#ffd96b"/><path d="M253.576 213.078h29.922l-3.537-20.186h-22.846l-3.537 20.186z" fill="#f65741"/><path d="M253.576 213.078h-29.922l10.61-20.186h22.85l-3.538 20.186z" fill="#ffd96b"/><path d="M193.732 213.078h29.922l10.61-20.186h-22.85l-17.682 20.186z" fill="#f65741"/><path d="M193.732 213.078H163.81l24.757-20.186h22.848l-17.683 20.186z" fill="#ffd96b"/><path d="M133.888 213.078h29.922l24.757-20.186H165.72l-31.832 20.186z" fill="#f65741"/><path d="M133.888 213.078h-29.922l38.905-20.186h22.85l-31.83 20.186z" fill="#ffd96b"/><path d="M74.044 213.078h29.922l38.905-20.186h-22.846l-45.98 20.186z" fill="#f65741"/><path d="M133.888 213.078c0 8.264-6.698 14.96-14.96 14.96-8.264 0-14.962-6.696-14.962-14.96h29.922z" fill="#ddab14"/><path d="M74.044 213.078c0 8.264 6.698 14.96 14.96 14.96 8.264 0 14.962-6.696 14.962-14.96H74.044z" fill="#d32a13"/><path d="M193.733 213.078c0 8.264-6.7 14.96-14.96 14.96-8.265 0-14.962-6.696-14.962-14.96h29.924z" fill="#ddab14"/><path d="M133.888 213.078c0 8.264 6.7 14.96 14.96 14.96 8.264 0 14.962-6.696 14.962-14.96h-29.922z" fill="#d32a13"/><path d="M253.577 213.078c0 8.264-6.7 14.96-14.96 14.96-8.264 0-14.962-6.696-14.962-14.96h29.922z" fill="#ddab14"/><path d="M193.733 213.078c0 8.264 6.698 14.96 14.96 14.96 8.263 0 14.962-6.696 14.962-14.96h-29.922z" fill="#d32a13"/><path d="M313.42 213.078c0 8.264-6.698 14.96-14.96 14.96-8.263 0-14.96-6.696-14.96-14.96h29.92z" fill="#ddab14"/><path d="M253.577 213.078c0 8.264 6.7 14.96 14.96 14.96 8.263 0 14.962-6.696 14.962-14.96h-29.924z" fill="#d32a13"/><path d="M373.265 213.078c0 8.264-6.698 14.96-14.96 14.96-8.263 0-14.962-6.696-14.962-14.96h29.922z" fill="#ddab14"/><path d="M313.42 213.078c0 8.264 6.7 14.96 14.962 14.96 8.263 0 14.96-6.696 14.96-14.96h-29.92z" fill="#d32a13"/><path d="M433.11 213.078c0 8.264-6.7 14.96-14.96 14.96-8.264 0-14.962-6.696-14.962-14.96h29.922z" fill="#ddab14"/><path d="M373.265 213.078c0 8.264 6.7 14.96 14.96 14.96 8.264 0 14.962-6.696 14.962-14.96h-29.922zm59.845 0c0 8.264 6.698 14.96 14.96 14.96 8.264 0 14.962-6.696 14.962-14.96H433.11z" fill="#d32a13"/><path d="M485.673 316.644h-66c-12.782 0-23.24 10.457-23.24 23.24v113.94c0 12.782 10.458 23.24 23.24 23.24h66c12.782 0 23.24-10.458 23.24-23.24v-113.94c0-12.783-10.458-23.24-23.24-23.24z" fill="none" stroke-width="4.5" stroke="#5895cb"/><path d="M485.673 316.644h-66c-12.782 0-23.24 10.457-23.24 23.24v113.94c0 12.782 10.458 23.24 23.24 23.24h66c12.782 0 23.24-10.458 23.24-23.24v-113.94c0-12.783-10.458-23.24-23.24-23.24z" fill="#013c5c"/><path d="M500.588 330.096h-95.83a.34.34 0 0 0-.34.34v131.492c0 .186.154.34.34.34h95.83a.34.34 0 0 0 .338-.34V330.435a.34.34 0 0 0-.338-.34" fill="#fff"/><path d="M465.01 320.612h-24.674a1.22 1.22 0 0 0-1.217 1.216c0 .67.545 1.217 1.215 1.217h24.675a1.22 1.22 0 0 0 1.217-1.216v-.003a1.22 1.22 0 0 0-1.216-1.216M452.674 473.55a4.12 4.12 0 0 0 4.112-4.11 4.12 4.12 0 0 0-4.112-4.113 4.12 4.12 0 0 0-4.11 4.112 4.12 4.12 0 0 0 4.11 4.11" fill="#5895cb"/><path fill="#fff" d="M404.42 330.096h96.507v132.17H404.42z"/><path fill="#90bce2" d="M404.42 330.096h96.507v8.253H404.42z"/><path fill="#5895cb" d="M426.994 343.37h51.36v12.868h-51.36zm-22.574 28.66h96.507v46.795H404.42z"/><path fill="#90bce2" d="M418.69 361.27h67.964v5.393H418.69z"/><path d="M494.847 392.975a.47.47 0 1 1 .744-.575l2.11 2.732a.512.512 0 0 1 .04.056l.003.004.003.004.002.004c.007.01.013.024.02.037l.01.033.01.03.01.034.005.042v.003l.002.02v.053l-.002.02v.002l-.006.044-.01.032-.008.03-.004.01-.01.023-.018.036-.002.005-.003.005-.002.004a.353.353 0 0 1-.037.057l-2.11 2.735a.47.47 0 0 1-.744-.576l1.89-2.45-1.892-2.454zm-85.09-.575a.47.47 0 1 1 .743.575l-1.894 2.45 1.894 2.454a.47.47 0 1 1-.744.572l-2.11-2.732a.412.412 0 0 1-.04-.055l-.002-.004-.003-.003v-.003c-.006-.012-.013-.024-.017-.037l-.01-.023-.004-.01-.01-.03-.008-.033-.006-.043v-.022l-.003-.016v-.024l.003-.016v-.023l.008-.044.01-.033.008-.03.004-.01.01-.024a.15.15 0 0 1 .018-.036v-.003l.004-.005.002-.004c.01-.02.025-.04.04-.056l2.11-2.732z" fill="#dfeefb" fill-rule="nonzero"/><path d="M437.655 397.472h1.17v-.316a1.597 1.597 0 0 1 0-3.196v-.305l-1.17.002c-3.508.006-3.364 3.815 0 3.815m1.17 0h27.695v-.316a1.598 1.598 0 0 1 0-3.196v-.305c-9.23-.013-18.464-.013-27.694 0v.305a1.598 1.598 0 0 1 0 3.196v.316zm27.695 0h1.172c3.363 0 3.508-3.81 0-3.815l-1.172-.002v.305a1.597 1.597 0 0 1 0 3.196v.316zm-11.725-16.824a1.597 1.597 0 1 0 0 3.195 1.597 1.597 0 0 0 0-3.195" fill="#fff"/><path d="M467.14 395.132l-10.903-12.195a.69.69 0 0 0-.97-.055.69.69 0 0 0-.054.97l10.905 12.196a.687.687 0 1 0 1.023-.916m-16.59-14.484a1.597 1.597 0 1 1 .002 3.195 1.597 1.597 0 0 1 0-3.195" fill="#fff"/><path d="M438.205 395.132L450.1 381.83a.69.69 0 0 1 .97-.054.69.69 0 0 1 .053.97l-11.895 13.302a.687.687 0 1 1-1.023-.916m5.095 15.074c-2.784 0-3.672-1.365-3.985-3.177l-1.464-8.424h5.58v1.148a1.42 1.42 0 0 0-.442-.07c-.7 0-1.2.528-1.113 1.173.13.96.264 1.923.397 2.883.134.96.264 1.922.396 2.884.06.453.37.847.765 1.042v2.54h-.13zm.13-11.6h4.597v1.092a1.62 1.62 0 0 0-.198-.013c-.703 0-1.236.528-1.187 1.173l.22 2.883c.076.96.147 1.924.22 2.885.042.543.442 1.002.943 1.134v2.447h-4.596v-2.54c.17.083.353.13.54.13.63 0 1.09-.527 1.02-1.172l-.3-2.883c-.103-.96-.207-1.92-.306-2.88-.052-.507-.447-.94-.953-1.105v-1.148zm4.597 0h4.643v1.08c-.698 0-1.265.527-1.256 1.172.017.96.03 1.923.047 2.883s.03 1.924.045 2.885c.012.645.537 1.172 1.164 1.172v2.41h-4.642v-2.448c.095.024.193.037.293.037.63 0 1.12-.527 1.09-1.172-.04-.96-.082-1.923-.125-2.883-.042-.96-.087-1.92-.13-2.882-.024-.584-.515-1.072-1.127-1.16v-1.09zm4.643 0h4.642v1.093c-.61.09-1.102.575-1.128 1.157-.042.96-.087 1.923-.13 2.883-.04.96-.086 1.923-.128 2.884a1.102 1.102 0 0 0 1.385 1.134v2.448h-4.64v-2.41c.63 0 1.15-.527 1.16-1.172l.047-2.882c.016-.96.03-1.923.047-2.883.01-.648-.552-1.176-1.254-1.176v-1.078zm4.642 0h4.598v1.15c-.505.166-.902.598-.954 1.102-.1.96-.204 1.923-.305 2.883l-.302 2.885c-.068.645.392 1.172 1.023 1.172.188 0 .373-.047.54-.13v2.54h-4.597v-2.448c.5-.133.9-.59.942-1.135.072-.96.148-1.923.22-2.883.073-.96.15-1.92.22-2.882.05-.645-.478-1.173-1.18-1.173a1.5 1.5 0 0 0-.202.014v-1.092zm4.598 0h5.585l-1.462 8.423c-.315 1.81-1.203 3.175-3.987 3.175h-.136v-2.54a1.4 1.4 0 0 0 .766-1.042l.397-2.883c.13-.96.266-1.92.397-2.882.088-.645-.413-1.173-1.114-1.173-.154 0-.304.025-.446.07v-1.148z" fill="#fff"/><path d="M415.63 396.384h.547v-.147a.75.75 0 0 1 0-1.497v-.143h-.548c-1.644.004-1.577 1.787 0 1.787m.546 0h12.967v-.147a.75.75 0 0 1 0-1.497v-.143a4003.41 4003.41 0 0 0-12.967 0v.143a.75.75 0 0 1 0 1.497v.147zm12.967 0h.547c1.577 0 1.644-1.783 0-1.786h-.546v.142a.748.748 0 0 1 0 1.497v.147zm-5.49-7.876a.75.75 0 1 0 0 1.498.75.75 0 0 0 0-1.498" fill="#013c5c"/><path d="M429.434 395.29l-5.106-5.71a.32.32 0 1 0-.478.428l5.104 5.71c.12.13.323.143.455.025a.322.322 0 0 0 .023-.454m-7.766-6.782a.747.747 0 1 1 0 1.495.747.747 0 0 1 0-1.495" fill="#013c5c"/><path d="M415.886 395.29l5.57-6.23a.32.32 0 1 1 .48.43l-5.57 6.227a.322.322 0 0 1-.48-.428m2.387 7.056c-1.304 0-1.72-.64-1.867-1.487l-.685-3.945h2.614v.538a.655.655 0 0 0-.207-.033c-.33 0-.562.248-.522.55l.186 1.35.187 1.35a.652.652 0 0 0 .357.487v1.19h-.06zm.06-5.43h2.152v.51a.714.714 0 0 0-.093-.005c-.328 0-.577.25-.554.55l.103 1.35c.037.45.07.9.104 1.35.02.254.207.47.442.53v1.147h-2.152v-1.19c.08.04.165.062.252.062.297 0 .51-.248.48-.55l-.143-1.35c-.047-.45-.096-.9-.142-1.35-.023-.235-.21-.44-.446-.515v-.538zm2.152 0h2.174v.505c-.33 0-.594.25-.59.55l.022 1.35c.008.45.013.9.02 1.35.006.3.252.55.546.55v1.127h-2.175V401.2a.516.516 0 0 0 .648-.53l-.06-1.35-.06-1.35c-.01-.273-.24-.502-.527-.543v-.51zm2.174 0h2.17v.51c-.285.044-.515.272-.527.544l-.06 1.35c-.02.45-.042.9-.06 1.35a.517.517 0 0 0 .647.53v1.146h-2.17v-1.128a.554.554 0 0 0 .543-.55l.022-1.348.02-1.35c.006-.302-.258-.55-.586-.55v-.504zm2.17 0h2.154v.54c-.237.076-.423.278-.447.514l-.143 1.35c-.046.45-.095.9-.142 1.35a.48.48 0 0 0 .48.548.572.572 0 0 0 .252-.06v1.188h-2.154V401.2a.6.6 0 0 0 .442-.53l.105-1.35c.033-.45.07-.9.102-1.35.022-.302-.225-.55-.554-.55a.76.76 0 0 0-.096.007v-.51zm2.154 0h2.615l-.687 3.943c-.147.846-.563 1.485-1.866 1.485h-.063v-1.19a.657.657 0 0 0 .36-.487c.06-.45.123-.9.184-1.35.06-.45.124-.9.185-1.35.04-.302-.193-.55-.52-.55a.636.636 0 0 0-.21.035v-.54zm48.67-.532h.548v-.147a.75.75 0 0 1 0-1.497v-.143h-.547c-1.642.004-1.575 1.787 0 1.787m.547 0h12.967v-.147a.75.75 0 0 1 0-1.497v-.143c-4.323-.007-8.646-.007-12.97 0v.143a.75.75 0 0 1 0 1.497v.147zm12.967 0h.546c1.575 0 1.642-1.783 0-1.786h-.548v.142a.748.748 0 0 1 0 1.497v.147zm-5.49-7.876a.747.747 0 1 0 0 1.495.747.747 0 0 0 0-1.495" fill="#013c5c"/><path d="M489.46 395.29l-5.106-5.71a.32.32 0 1 0-.48.43l5.107 5.707a.322.322 0 0 0 .48-.428m-7.767-6.782a.748.748 0 1 1 0 1.496.748.748 0 0 1 0-1.496" fill="#013c5c"/><path d="M475.913 395.29l5.568-6.23a.32.32 0 1 1 .48.43l-5.567 6.227a.322.322 0 0 1-.454.026.322.322 0 0 1-.026-.454m2.384 7.056c-1.303 0-1.72-.64-1.866-1.487l-.684-3.945h2.61v.538a.655.655 0 0 0-.206-.033c-.328 0-.562.248-.522.55l.186 1.35.185 1.35a.66.66 0 0 0 .36.487v1.19h-.06zm.06-5.43h2.153v.51a.722.722 0 0 0-.09-.005c-.33 0-.58.25-.555.55.033.45.07.9.103 1.35l.102 1.35c.02.254.207.47.44.53v1.147h-2.15v-1.19c.08.04.164.062.252.062a.48.48 0 0 0 .478-.55l-.142-1.35-.143-1.35c-.024-.235-.21-.44-.446-.515v-.538zm2.153 0h2.176v.505c-.328 0-.592.25-.588.55l.022 1.35c.006.45.012.9.02 1.35.004.3.25.55.544.55v1.127h-2.173V401.2a.515.515 0 0 0 .65-.53l-.06-1.35-.06-1.35c-.01-.273-.24-.502-.53-.543v-.51zm2.176 0h2.173v.51c-.288.044-.517.272-.53.544l-.06 1.35-.06 1.35a.517.517 0 0 0 .65.53v1.146h-2.174v-1.128c.295 0 .54-.247.544-.55l.02-1.348.022-1.35c.006-.302-.258-.55-.587-.55v-.504zm2.173 0h2.15v.54a.634.634 0 0 0-.445.514l-.143 1.35c-.046.45-.094.9-.142 1.35-.03.3.184.548.48.548a.567.567 0 0 0 .252-.06v1.188h-2.152V401.2a.605.605 0 0 0 .44-.53l.104-1.35.104-1.35c.023-.302-.224-.55-.553-.55a.746.746 0 0 0-.095.007v-.51zm2.15 0h2.617l-.686 3.943c-.146.846-.56 1.485-1.865 1.485h-.064v-1.19a.658.658 0 0 0 .36-.487c.06-.45.125-.9.186-1.35l.186-1.35c.042-.302-.192-.55-.52-.55a.642.642 0 0 0-.21.035v-.54z" fill="#013c5c"/><path fill="#5895cb" d="M410.265 422.264h24.233v12.762h-24.233zm30.292 0h24.233v12.762h-24.233zm30.29 0h24.234v12.762h-24.23z"/><path fill="#90bce2" d="M404.42 455.383h96.506v6.884H404.42zm5.845-18.607h24.233v2.4h-24.233zm0 4.126h24.233v2.4h-24.233zm0 4.126h24.233v2.4h-24.233zm0 4.125h15.343v2.4h-15.343zm30.292-12.377h24.233v2.4h-24.233zm0 4.126h24.233v2.4h-24.233zm0 4.126h24.233v2.4h-24.233zm0 4.125H455.9v2.4h-15.343zm30.29-12.377h24.234v2.4h-24.23zm0 4.126h24.234v2.4h-24.23zm0 4.126h24.234v2.4h-24.23zm0 4.125h15.344v2.4h-15.34z"/><path d="M394.104 352.094c2.336-2.117 3.815-5.254 3.815-8.756 0 6.375 4.9 11.544 10.95 11.544 6.047 0 10.95-5.17 10.95-11.544 0 6.375 4.903 11.544 10.95 11.544s10.95-5.17 10.95-11.544c0 6.375 4.904 11.544 10.953 11.544 6.047 0 10.95-5.17 10.95-11.544 0 6.375 4.903 11.544 10.95 11.544 6.05 0 10.952-5.17 10.952-11.544 0 6.375 4.904 11.544 10.952 11.544s10.95-5.17 10.95-11.544c0 3.5 1.48 6.638 3.814 8.754v-17.95c0-8.046-3.98-15.206-10.067-19.613H404.17c-6.087 4.405-10.067 11.565-10.067 19.61v17.953z" opacity=".2"/><path fill="#d32a13" d="M394.14 306.415h117.068v14.114h-117.07z"/><path d="M376.018 336.103H529.33l-18.123-15.575h-117.07l-18.12 15.575z" fill="#f65741"/><path d="M529.33 336.103h-21.902l-12.945-15.575h16.725l18.12 15.575z" fill="#ffd96b"/><path d="M485.525 336.103h21.902l-12.944-15.575H477.76l7.765 15.575z" fill="#f65741"/><path d="M485.525 336.103h-21.9l-2.59-15.575h16.725l7.765 15.575z" fill="#ffd96b"/><path d="M441.722 336.103h21.902l-2.59-15.575H444.31l-2.587 15.575z" fill="#f65741"/><path d="M441.722 336.103h-21.9l7.765-15.575h16.724l-2.587 15.575z" fill="#ffd96b"/><path d="M397.92 336.103h21.9l7.767-15.575h-16.724l-12.944 15.575z" fill="#f65741"/><path d="M397.92 336.103h-21.902l18.12-15.575h16.725l-12.944 15.575z" fill="#ffd96b"/><path d="M397.92 336.103c0 6.375-4.904 11.543-10.95 11.543-6.05 0-10.952-5.168-10.952-11.543h21.9zm43.803 0c0 6.375-4.903 11.543-10.95 11.543-6.05 0-10.952-5.168-10.952-11.543h21.904z" fill="#ddab14"/><path d="M397.92 336.103c0 6.375 4.902 11.543 10.95 11.543 6.048 0 10.95-5.168 10.95-11.543h-21.9z" fill="#d32a13"/><path d="M485.527 336.103c0 6.375-4.903 11.543-10.952 11.543-6.047 0-10.95-5.168-10.95-11.543h21.902z" fill="#ddab14"/><path d="M441.723 336.103c0 6.375 4.902 11.543 10.95 11.543 6.05 0 10.952-5.168 10.952-11.543h-21.902z" fill="#d32a13"/><path d="M529.33 336.103c0 6.375-4.903 11.543-10.952 11.543-6.046 0-10.95-5.168-10.95-11.543h21.902z" fill="#ddab14"/><path d="M485.527 336.103c0 6.375 4.902 11.543 10.95 11.543 6.048 0 10.95-5.168 10.95-11.543h-21.9z" fill="#d32a13"/><path d="M377.828 406.188h30.366c5.76 0 10.47 4.71 10.47 10.47l.002 81.674c0 5.76-4.712 10.47-10.47 10.47H377.83c-5.76 0-10.473-4.71-10.473-10.47v-81.674c0-5.758 4.71-10.47 10.47-10.47z" fill="none" stroke-width="2.7" stroke="#5895cb"/><path d="M377.828 406.188h30.366c5.76 0 10.47 4.71 10.47 10.47l.002 81.674c0 5.76-4.712 10.47-10.47 10.47H377.83c-5.76 0-10.473-4.71-10.473-10.47v-81.674c0-5.758 4.71-10.47 10.47-10.47z" fill="#013c5c"/><path d="M371.12 416.907h43.827v77.644H371.12V416.91z" fill="#fff"/><path d="M383.175 411.855h19.715a.976.976 0 0 0 .974-.973.976.976 0 0 0-.974-.975h-19.715a.976.976 0 0 0-.974.974v.003c0 .535.44.973.976.973m-6.75 91.454h33.215c.833 0 1.51-.68 1.51-1.51s-.677-1.51-1.51-1.51h-33.213c-.83 0-1.51.68-1.51 1.51s.68 1.51 1.51 1.51" fill="#5895cb"/><path d="M393.01 495.89a5.91 5.91 0 1 1 .002 11.82 5.91 5.91 0 0 1 0-11.82" fill="#013c5c"/><path d="M393.01 497.634a4.166 4.166 0 1 1 .002 8.328 4.166 4.166 0 0 1 0-8.328" fill="#5895cb"/><path fill="#90bce2" d="M371.12 416.906h43.828v4.85H371.12z"/><path fill="#5895cb" d="M381.37 424.745h23.325v5.644H381.37zm-10.25 13.49h43.828v22.43H371.12z"/><path fill="#90bce2" d="M377.6 432.597h30.864v2.365H377.6z"/><path d="M412.186 448.374a.203.203 0 0 1 .038-.29.218.218 0 0 1 .3.038l.958 1.198.018.025.003.004.01.015.002.01.006.018.005.015a.038.038 0 0 1 .003.017l.002.01v.024l-.003.01-.003.02-.003.014-.003.012v.005l-.004.01-.01.017v.004h-.002c-.005.01-.01.02-.017.027l-.96 1.2a.218.218 0 0 1-.298.036.202.202 0 0 1-.038-.29l.86-1.074-.86-1.077zm-38.643-.252a.22.22 0 0 1 .3-.038c.093.07.11.2.038.29l-.86 1.076.86 1.075c.073.09.057.22-.037.29a.218.218 0 0 1-.3-.038l-.958-1.2a.25.25 0 0 1-.018-.023v-.002l-.002-.002v-.002a.052.052 0 0 1-.008-.015l-.005-.01v-.005l-.005-.013-.003-.015a.063.063 0 0 1-.003-.02V449.427l.003-.018.003-.017.005-.013v-.003l.007-.01a.197.197 0 0 1 .007-.017l.003-.003v-.002a.54.54 0 0 1 .018-.025l.96-1.198z" fill="#dfeefb" fill-rule="nonzero"/><path d="M386.446 450.346h.513v-.14a.7.7 0 0 1 0-1.4v-.134h-.515c-1.54.003-1.476 1.674 0 1.674m.513 0h12.147v-.14a.702.702 0 0 1 0-1.4v-.134c-4.05-.006-8.1-.006-12.148 0v.133a.7.7 0 0 1 0 1.402v.14zm12.147 0h.513c1.476 0 1.54-1.67 0-1.673h-.513v.132a.7.7 0 0 1 0 1.402v.14zm-5.14-7.38a.7.7 0 1 0 0 1.404.7.7 0 0 0 0-1.403" fill="#fff"/><path d="M399.38 449.32l-4.784-5.35a.3.3 0 1 0-.45.402l4.784 5.35a.302.302 0 0 0 .45-.402m-7.278-6.353a.7.7 0 1 1 .002 1.402.7.7 0 0 1-.002-1.404" fill="#fff"/><path d="M386.687 449.32l5.217-5.835a.302.302 0 1 1 .45.402l-5.218 5.835a.302.302 0 0 1-.45-.402m2.236 6.612c-1.22 0-1.61-.6-1.75-1.395l-.64-3.693h2.447v.504a.603.603 0 0 0-.197-.03c-.307 0-.526.23-.487.513l.173 1.267c.06.42.115.844.172 1.264a.62.62 0 0 0 .336.46v1.113h-.058zm.057-5.088h2.014v.48a.615.615 0 0 0-.087-.007c-.308 0-.54.232-.52.514l.097 1.267.097 1.264c.018.24.194.44.414.5v1.073h-2.016v-1.113a.554.554 0 0 0 .236.055c.276 0 .477-.23.447-.515l-.13-1.264c-.045-.422-.09-.842-.133-1.265-.023-.22-.197-.41-.42-.48v-.505zm2.014 0h2.037v.473c-.306 0-.554.232-.55.514l.02 1.267.02 1.264a.52.52 0 0 0 .51.516v1.057h-2.036v-1.074a.482.482 0 0 0 .607-.5c-.016-.42-.036-.842-.054-1.263-.018-.422-.04-.842-.057-1.265-.01-.255-.227-.47-.496-.507v-.48zm2.037 0h2.036v.48c-.267.04-.482.252-.494.507l-.056 1.267c-.018.42-.04.844-.057 1.264a.484.484 0 0 0 .606.5v1.073h-2.035v-1.057a.52.52 0 0 0 .51-.515l.02-1.263.02-1.265c.006-.28-.24-.513-.55-.513v-.474zm2.036 0h2.018v.504c-.222.072-.396.262-.42.483-.042.425-.09.845-.132 1.267l-.134 1.264a.45.45 0 0 0 .448.516c.082 0 .162-.02.237-.057v1.113h-2.018v-1.074a.562.562 0 0 0 .413-.5l.098-1.263c.03-.422.065-.842.097-1.265.02-.28-.21-.513-.52-.513a.63.63 0 0 0-.088.005v-.48zm2.018 0h2.45l-.642 3.693c-.14.796-.527 1.395-1.748 1.395h-.06v-1.114a.617.617 0 0 0 .336-.458l.175-1.264c.057-.422.116-.842.174-1.265.037-.28-.183-.512-.49-.512a.61.61 0 0 0-.196.03v-.503z" fill="#fff"/><path d="M376.785 449.87h.24v-.066a.327.327 0 0 1 0-.655v-.065h-.24c-.72 0-.69.783 0 .783m.24 0h5.687v-.066a.327.327 0 0 1 0-.655v-.064c-1.895-.003-3.79-.003-5.687 0v.063a.327.327 0 0 1 0 .654v.065zm5.687 0h.24c.692 0 .722-.783 0-.784h-.24v.063a.327.327 0 0 1 0 .654v.066zm-2.407-3.453a.328.328 0 1 0 0 .657.328.328 0 0 0 0-.657" fill="#013c5c"/><path d="M382.84 449.39l-2.24-2.505a.142.142 0 0 0-.2-.01.143.143 0 0 0-.01.198l2.24 2.504a.14.14 0 1 0 .21-.187m-3.407-2.975a.328.328 0 1 1 .002.656.328.328 0 0 1-.002-.654" fill="#013c5c"/><path d="M376.898 449.39l2.442-2.733a.142.142 0 0 1 .2-.01.14.14 0 0 1 .01.198l-2.442 2.732a.14.14 0 1 1-.21-.187m1.047 3.094c-.572 0-.755-.28-.82-.652l-.3-1.73h1.145v.237a.27.27 0 0 0-.09-.017c-.144 0-.246.11-.23.24.03.198.056.396.083.593l.08.592a.293.293 0 0 0 .157.214v.52h-.025zm.025-2.38h.945v.223a.283.283 0 0 0-.04-.003c-.145 0-.254.11-.244.24.017.198.03.396.048.593l.044.592a.27.27 0 0 0 .195.23v.503h-.945v-.52a.274.274 0 0 0 .112.026.21.21 0 0 0 .21-.24c-.02-.2-.04-.397-.062-.594l-.063-.592a.278.278 0 0 0-.198-.226v-.237zm.945 0h.953v.22c-.143 0-.26.11-.257.24l.01.593.01.592c0 .13.11.24.24.24v.493h-.954v-.502a.227.227 0 0 0 .285-.232c-.01-.197-.017-.395-.026-.592-.01-.197-.018-.395-.026-.592-.005-.12-.106-.22-.232-.238v-.224zm.953 0h.954v.223c-.125.018-.227.12-.232.238l-.027.592c-.01.197-.017.395-.026.592a.227.227 0 0 0 .285.23v.503h-.954v-.494c.13 0 .237-.11.24-.24.002-.2.006-.397.01-.594l.008-.592c.002-.132-.113-.24-.257-.24h-.003v-.222zm.954 0h.944v.235a.28.28 0 0 0-.196.224l-.063.592-.062.592a.21.21 0 0 0 .21.24.27.27 0 0 0 .11-.027v.52h-.943v-.5a.266.266 0 0 0 .193-.233l.045-.593.046-.592c.01-.132-.098-.24-.242-.24-.015 0-.03 0-.042.002v-.224zm.944 0h1.147l-.3 1.728c-.065.372-.247.652-.82.652h-.027v-.52a.29.29 0 0 0 .157-.215l.082-.594.08-.592c.02-.132-.083-.24-.227-.24a.282.282 0 0 0-.092.014v-.237zm21.348-.234h.24v-.066a.328.328 0 0 1 0-.655v-.065h-.24c-.72 0-.69.783 0 .783m.24 0h5.686v-.066a.328.328 0 0 1 0-.655v-.064c-1.895-.003-3.79-.003-5.686 0v.063a.327.327 0 0 1 0 .654v.065zm5.686 0h.242c.69 0 .72-.783 0-.784h-.242v.063a.327.327 0 0 1 0 .654v.066zm-2.407-3.453a.328.328 0 1 0-.002.656.328.328 0 0 0 .004-.654" fill="#013c5c"/><path d="M409.17 449.39l-2.24-2.505a.14.14 0 0 0-.2-.01.142.142 0 0 0-.012.198l2.24 2.504a.14.14 0 1 0 .21-.187m-3.408-2.975a.328.328 0 1 1 .003.656.328.328 0 0 1-.002-.654" fill="#013c5c"/><path d="M403.226 449.39l2.442-2.733a.142.142 0 0 1 .2-.01.14.14 0 0 1 .01.198l-2.442 2.732a.14.14 0 0 1-.198.01.14.14 0 0 1-.012-.197m1.046 3.094c-.57 0-.753-.28-.818-.652l-.3-1.73h1.145v.237a.274.274 0 0 0-.09-.017c-.146 0-.25.11-.23.24l.08.593.08.592a.292.292 0 0 0 .158.214v.52h-.028zm.027-2.38h.942v.223a.273.273 0 0 0-.04-.003c-.145 0-.254.11-.244.24l.044.593c.016.197.03.395.045.592.008.11.09.204.193.23v.503h-.944v-.52a.266.266 0 0 0 .11.026.21.21 0 0 0 .21-.24l-.062-.594c-.02-.197-.043-.395-.062-.592a.28.28 0 0 0-.197-.226v-.237zm.942 0h.953v.22c-.143 0-.26.11-.257.24l.008.593.01.592c.002.13.11.24.238.24v.493h-.953v-.502a.227.227 0 0 0 .286-.232c-.01-.197-.018-.395-.027-.592l-.026-.592c-.005-.12-.106-.22-.232-.238v-.224zm.953 0h.954v.223c-.127.018-.227.12-.233.238l-.027.592c-.007.197-.016.395-.025.592a.227.227 0 0 0 .285.23v.503h-.954v-.494c.13 0 .237-.11.24-.24l.008-.594.01-.592c.002-.132-.112-.24-.258-.24v-.222zm.954 0h.943v.235a.276.276 0 0 0-.195.224l-.064.592-.063.592a.21.21 0 0 0 .21.24.25.25 0 0 0 .11-.026v.52h-.942v-.502a.264.264 0 0 0 .193-.233l.047-.593.044-.592c.01-.132-.097-.24-.242-.24-.013 0-.027 0-.04.002v-.224zm.943 0h1.146l-.3 1.728c-.065.372-.247.652-.82.652h-.027v-.52a.293.293 0 0 0 .158-.215l.08-.594a60.1 60.1 0 0 0 .083-.592c.02-.132-.085-.24-.228-.24a.286.286 0 0 0-.092.014v-.237z" fill="#013c5c"/><path fill="#5895cb" d="M373.775 466.624h11.005v9.425h-11.005zm13.755 0h11.005v9.425H387.53zm13.757 0h11.005v9.425h-11.005z"/><path fill="#90bce2" d="M371.12 490.508h43.828v4.044H371.12zm2.655-13.165h11.005v1.773h-11.005zm0 3.047h11.005v1.773h-11.005zm0 3.047h11.005v1.773h-11.005zm13.755-6.094h11.005v1.773H387.53zm0 3.047h11.005v1.773H387.53zm0 3.047h11.005v1.773H387.53zm0 3.047h6.967v1.774h-6.967zm13.757-9.14h11.005v1.772h-11.005zm0 3.046h11.005v1.773h-11.005zm0 3.047h11.005v1.773h-11.005zm0 3.047h6.968v1.774h-6.968z"/><path d="M365.215 428.78c1.105-1 1.804-2.485 1.804-4.14 0 3.014 2.316 5.458 5.176 5.458 2.86 0 5.177-2.444 5.177-5.458 0 3.014 2.32 5.458 5.178 5.458 2.86 0 5.18-2.444 5.18-5.458 0 3.014 2.317 5.458 5.177 5.458s5.177-2.444 5.177-5.458c0 3.014 2.318 5.458 5.178 5.458s5.18-2.444 5.18-5.458c0 3.014 2.317 5.458 5.175 5.458 2.86 0 5.178-2.444 5.178-5.458 0 1.654.7 3.138 1.803 4.14v-8.487c0-3.806-1.882-7.19-4.762-9.275h-45.862c-2.878 2.085-4.76 5.47-4.76 9.275v8.486z" opacity=".2"/><path fill="#d32a13" d="M365.232 404.345h55.35v6.674h-55.35z"/><path d="M356.664 418.382h72.487l-8.565-7.364h-55.352l-8.568 7.364z" fill="#f65741"/><path d="M429.15 418.382h-10.355l-6.12-7.364h7.908l8.568 7.364z" fill="#ffd96b"/><path d="M408.44 418.382h10.356l-6.12-7.364h-7.908l3.672 7.364z" fill="#f65741"/><path d="M408.44 418.382h-10.355l-1.224-7.364h7.91l3.67 7.364z" fill="#ffd96b"/><path d="M387.73 418.382h10.355l-1.224-7.364h-7.905l-1.225 7.364z" fill="#f65741"/><path d="M387.73 418.382h-10.356l3.673-7.364h7.907l-1.225 7.364z" fill="#ffd96b"/><path d="M367.02 418.382h10.354l3.672-7.364h-7.907l-6.12 7.364z" fill="#f65741"/><path d="M367.02 418.382h-10.357l8.568-7.364h7.91l-6.12 7.364z" fill="#ffd96b"/><path d="M367.02 418.382c0 3.014-2.32 5.457-5.178 5.457-2.86 0-5.18-2.445-5.18-5.46h10.357zm20.71 0c0 3.014-2.318 5.457-5.177 5.457-2.86 0-5.18-2.445-5.18-5.46h10.357z" fill="#ddab14"/><path d="M367.02 418.382c0 3.014 2.317 5.457 5.176 5.457 2.86 0 5.178-2.445 5.178-5.46H367.02z" fill="#d32a13"/><path d="M408.44 418.382c0 3.014-2.318 5.457-5.177 5.457-2.86 0-5.178-2.445-5.178-5.46h10.356z" fill="#ddab14"/><path d="M387.73 418.382c0 3.014 2.318 5.457 5.177 5.457 2.86 0 5.178-2.445 5.178-5.46H387.73z" fill="#d32a13"/><path d="M429.15 418.382c0 3.014-2.317 5.457-5.176 5.457-2.86 0-5.178-2.445-5.178-5.46h10.355z" fill="#ddab14"/><path d="M408.44 418.382c0 3.014 2.32 5.457 5.178 5.457 2.86 0 5.18-2.445 5.18-5.46H408.44z" fill="#d32a13"/></svg>