<svg viewBox="0 0 561 540" xmlns="http://www.w3.org/2000/svg" fill-rule="evenodd" clip-rule="evenodd" stroke-linejoin="round" stroke-miterlimit="1.414"><path d="M285.496 47.83c-2.378-13.745 12.456-22.5 28.866-22.947a12.348 12.348 0 0 1-.22-2.304c0-9.76 11.578-17.668 25.856-17.668 3.448 0 6.737.462 9.745 1.3C356.443 2.337 365.105 0 374.568 0c21.236 0 38.452 11.764 38.452 26.275 0 .23-.005.46-.013.688 15.833 3.966 28.6 15.134 27.47 26.424-.535 5.36-11.633 11.784-24.7 11.897-13.066.113-23.85-3.105-32.777-6.033-4.668 6.157-14.167 10.877-26.05 12.104-17.705 1.83-34.42-4.74-38.958-14.908-.33.04-.696-.037-.996.113-7.616 3.788-29.123 5.015-31.5-8.73M532.237 85.03c-2.37 0-4.608.38-6.592 1.06-2.132-5.043-8.937-8.73-17.003-8.73-8.45 0-15.514 4.047-17.274 9.46-2.697-1.137-4.765-1.79-9.27-1.79-4.506 0-11.995 1.567-14.01 4.982-2.687 4.547 5.302 9.333 12.28 10.912a8.672 8.672 0 0 0-.92 3.857c0 6.68 7.922 12.094 17.695 12.094 4.493 0 8.594-1.145 11.715-3.03 3.24 1.27 7.035 1.422 10.996 1.997 10.727 1.557 23.68-6.806 22.12-15.115-.245-1.31-.252-2.625-.726-3.858 2.67.6 5.406-.703 5.683-2.618.748-5.15-6.97-9.22-14.693-9.22M224.922 73.11c-2.182-8.284-13.696-13.788-26.21-14.128.134-.698.203-1.408.203-2.13 0-9.015-10.695-16.323-23.887-16.323-3.186 0-6.225.426-9.004 1.2-6.19-3.58-14.193-5.74-22.937-5.74-17.507 0-32.055 8.654-34.988 20.043-15.96.71-31.59 11.28-28.194 21.832 4.165 12.942 35.614 14.522 43.705 4.954 2.82 8.988 15.897 15.786 31.607 15.786 15.362 0 28.206-6.5 31.404-15.192 8.027 5.158 43.383 8.982 38.302-10.305M19.07 112.74c2.266-5.357 9.495-9.274 18.066-9.274 8.978 0 16.484 4.3 18.354 10.05 2.864-1.206 6.237-1.903 9.85-1.903 13.6 0 28.62 12.88 8.795 17.37.633 1.287 1.11 2.597.977 4.097-.775 8.764-9.713 13.49-18.803 12.848-4.762-.336-9.13-1.216-12.446-3.22-3.442 1.352-7.43 2.124-11.684 2.124-12.98 0-23.503-7.19-23.503-16.06 0-1.418.268-2.792.773-4.1-19.23-4.92-5.576-17.13 9.62-11.93" fill="#fff"/></svg>