<?xml version="1.0" standalone="no"?><!DOCTYPE svg PUBLIC "-//W3C//DTD SVG 1.1//EN" "http://www.w3.org/Graphics/SVG/1.1/DTD/svg11.dtd"><svg width="100%" height="100%" viewBox="0 0 511 415" version="1.1" xmlns="http://www.w3.org/2000/svg" xmlns:xlink="http://www.w3.org/1999/xlink" xml:space="preserve" style="fill-rule:evenodd;clip-rule:evenodd;stroke-linejoin:round;stroke-miterlimit:1.41421;"><path d="M330.916,246.75l-3.008,0c0,0 -17.663,-4.703 -17.663,-54.024c0,-14.528 -78.001,-14.519 -78.001,1.082c0,47.487 -18.124,52.942 -18.124,52.942l-2.439,0c-2.178,0 -3.931,1.701 -3.931,3.877l0,1.971c0,2.176 1.753,3.902 3.931,3.902l119.235,0c2.176,0 4.334,-1.726 4.334,-3.902l0,-1.971c0,-2.176 -2.158,-3.877 -4.334,-3.877" style="fill:#4d4d4d;fill-rule:nonzero;"/><path d="M409.652,0l-277.204,0c-5.342,0 -10.198,2.803 -10.198,8.144l0,193.4c0,5.341 4.856,12.206 10.198,12.206l277.204,0c5.343,0 8.098,-6.865 8.098,-12.206l0,-25.7l0,-167.701c0,-5.34 -2.755,-8.143 -8.098,-8.143" style="fill:#4d4d4d;fill-rule:nonzero;"/><rect x="136.5" y="15.75" width="267" height="153" style="fill:#f2f2f2;fill-rule:nonzero;"/><path d="M283.153,191.799c0,6.688 -5.422,12.106 -12.106,12.106c-6.682,0 -12.102,-5.418 -12.102,-12.106c0,-6.685 5.42,-12.104 12.102,-12.104c6.684,0 12.106,5.419 12.106,12.104" style="fill:#b3b3b3;fill-rule:nonzero;"/><path d="M240,37.289c0,2.188 -1.804,3.961 -4.379,3.961l-49.833,0c-2.576,0 -5.038,-1.773 -5.038,-3.961l0,-7.828c0,-2.188 2.462,-3.961 5.038,-3.961l49.833,0c2.575,0 4.379,1.773 4.379,3.961l0,7.828Z" style="fill:#f98410;fill-rule:nonzero;"/><path d="M358.5,87.539c0,2.188 -1.986,3.961 -4.561,3.961l-168.152,0c-2.575,0 -5.037,-1.773 -5.037,-3.961l0,-37.078c0,-2.188 2.462,-3.961 5.037,-3.961l168.152,0c2.575,0 4.561,1.773 4.561,3.961l0,37.078Z" style="fill:#2fa3dd;fill-rule:nonzero;"/><path d="M235.5,119.039c0,2.188 -1.719,3.961 -4.294,3.961l-45.418,0c-2.576,0 -5.038,-1.773 -5.038,-3.961l0,-19.828c0,-2.188 2.462,-3.961 5.038,-3.961l45.418,0c2.575,0 4.294,1.773 4.294,3.961l0,19.828Z" style="fill:#999;fill-rule:nonzero;"/><path d="M295.5,119.039c0,2.188 -1.677,3.961 -4.252,3.961l-45.419,0c-2.575,0 -5.079,-1.773 -5.079,-3.961l0,-19.828c0,-2.188 2.504,-3.961 5.079,-3.961l45.419,0c2.575,0 4.252,1.773 4.252,3.961l0,19.828Z" style="fill:#999;fill-rule:nonzero;"/><path d="M358.5,119.039c0,2.188 -1.986,3.961 -4.561,3.961l-45.42,0c-2.574,0 -4.769,-1.773 -4.769,-3.961l0,-19.828c0,-2.188 2.195,-3.961 4.769,-3.961l45.42,0c2.575,0 4.561,1.773 4.561,3.961l0,19.828Z" style="fill:#999;fill-rule:nonzero;"/><path d="M295.5,130.49c0,0.911 -0.502,1.51 -1.545,1.51l-50.621,0c-1.043,0 -2.584,-0.599 -2.584,-1.51l0,-0.66c0,-0.912 1.541,-1.58 2.584,-1.58l50.621,0c1.043,0 1.545,0.668 1.545,1.58l0,0.66Z" style="fill:#b3b3b3;fill-rule:nonzero;"/><path d="M295.5,137.091c0,0.911 -0.502,1.659 -1.545,1.659l-50.621,0c-1.043,0 -2.584,-0.748 -2.584,-1.659l0,-0.66c0,-0.912 1.541,-1.431 2.584,-1.431l50.621,0c1.043,0 1.545,0.519 1.545,1.431l0,0.66Z" style="fill:#b3b3b3;fill-rule:nonzero;"/><path d="M295.5,143.692c0,0.911 -0.502,1.808 -1.545,1.808l-50.621,0c-1.043,0 -2.584,-0.897 -2.584,-1.808l0,-0.66c0,-0.912 1.541,-1.282 2.584,-1.282l50.621,0c1.043,0 1.545,0.37 1.545,1.282l0,0.66Z" style="fill:#b3b3b3;fill-rule:nonzero;"/><path d="M295.5,150.293c0,0.911 -0.502,1.957 -1.545,1.957l-50.621,0c-1.043,0 -2.584,-1.046 -2.584,-1.957l0,-0.66c0,-0.912 1.541,-1.883 2.584,-1.883l50.621,0c1.043,0 1.545,0.971 1.545,1.883l0,0.66Z" style="fill:#b3b3b3;fill-rule:nonzero;"/><path d="M270.75,156.894c0,0.911 -0.62,1.356 -1.662,1.356l-25.754,0c-1.043,0 -2.584,-0.445 -2.584,-1.356l0,-0.66c0,-0.912 1.541,-1.734 2.584,-1.734l25.754,0c1.042,0 1.662,0.822 1.662,1.734l0,0.66Z" style="fill:#b3b3b3;fill-rule:nonzero;"/><path d="M357,130.49c0,0.911 0.167,1.51 -0.876,1.51l-50.621,0c-1.043,0 -1.753,-0.599 -1.753,-1.51l0,-0.66c0,-0.912 0.71,-1.58 1.753,-1.58l50.621,0c1.043,0 0.876,0.668 0.876,1.58l0,0.66Z" style="fill:#b3b3b3;fill-rule:nonzero;"/><path d="M357,137.091c0,0.911 0.167,1.659 -0.876,1.659l-50.621,0c-1.043,0 -1.753,-0.748 -1.753,-1.659l0,-0.66c0,-0.912 0.71,-1.431 1.753,-1.431l50.621,0c1.043,0 0.876,0.519 0.876,1.431l0,0.66Z" style="fill:#b3b3b3;fill-rule:nonzero;"/><path d="M357,143.692c0,0.911 0.167,1.808 -0.876,1.808l-50.621,0c-1.043,0 -1.753,-0.897 -1.753,-1.808l0,-0.66c0,-0.912 0.71,-1.282 1.753,-1.282l50.621,0c1.043,0 0.876,0.37 0.876,1.282l0,0.66Z" style="fill:#b3b3b3;fill-rule:nonzero;"/><path d="M357,150.293c0,0.911 0.167,1.957 -0.876,1.957l-50.621,0c-1.043,0 -1.753,-1.046 -1.753,-1.957l0,-0.66c0,-0.912 0.71,-1.883 1.753,-1.883l50.621,0c1.043,0 0.876,0.971 0.876,1.883l0,0.66Z" style="fill:#b3b3b3;fill-rule:nonzero;"/><path d="M332.25,156.894c0,0.911 0.049,1.356 -0.993,1.356l-25.754,0c-1.043,0 -1.753,-0.445 -1.753,-1.356l0,-0.66c0,-0.912 0.71,-1.734 1.753,-1.734l25.754,0c1.042,0 0.993,0.822 0.993,1.734l0,0.66Z" style="fill:#b3b3b3;fill-rule:nonzero;"/><path d="M234.75,130.49c0,0.911 -0.367,1.51 -1.409,1.51l-50.622,0c-1.043,0 -1.969,-0.599 -1.969,-1.51l0,-0.66c0,-0.912 0.926,-1.58 1.969,-1.58l50.622,0c1.042,0 1.409,0.668 1.409,1.58l0,0.66Z" style="fill:#b3b3b3;fill-rule:nonzero;"/><path d="M234.75,137.091c0,0.911 -0.367,1.659 -1.409,1.659l-50.622,0c-1.043,0 -1.969,-0.748 -1.969,-1.659l0,-0.66c0,-0.912 0.926,-1.431 1.969,-1.431l50.622,0c1.042,0 1.409,0.519 1.409,1.431l0,0.66Z" style="fill:#b3b3b3;fill-rule:nonzero;"/><path d="M234.75,143.692c0,0.911 -0.367,1.808 -1.409,1.808l-50.622,0c-1.043,0 -1.969,-0.897 -1.969,-1.808l0,-0.66c0,-0.912 0.926,-1.282 1.969,-1.282l50.622,0c1.042,0 1.409,0.37 1.409,1.282l0,0.66Z" style="fill:#b3b3b3;fill-rule:nonzero;"/><path d="M234.75,150.293c0,0.911 -0.367,1.957 -1.409,1.957l-50.622,0c-1.043,0 -1.969,-1.046 -1.969,-1.957l0,-0.66c0,-0.912 0.926,-1.883 1.969,-1.883l50.622,0c1.042,0 1.409,0.971 1.409,1.883l0,0.66Z" style="fill:#b3b3b3;fill-rule:nonzero;"/><path d="M210,156.894c0,0.911 -0.485,1.356 -1.527,1.356l-25.754,0c-1.043,0 -1.969,-0.445 -1.969,-1.356l0,-0.66c0,-0.912 0.926,-1.734 1.969,-1.734l25.754,0c1.042,0 1.527,0.822 1.527,1.734l0,0.66Z" style="fill:#b3b3b3;fill-rule:nonzero;"/><path d="M253.5,378l-226.5,0l0,-145.251c0,-3.02 2.984,-4.749 6.005,-4.749l216.006,0c3.02,0 4.489,1.729 4.489,4.749l0,145.251Z" style="fill:#4d4d4d;fill-rule:nonzero;"/><rect x="36" y="238.5" width="210" height="128.25" style="fill:#f2f2f2;fill-rule:nonzero;"/><path d="M282.75,384l0,-6.335c0,-1.509 -0.784,-1.915 -2.295,-1.915l-277.528,0c-1.51,0 -2.927,0.406 -2.927,1.915l0,6.335l0.193,0c0,0 6.835,5.25 10.936,5.25l261.125,0c4.101,0 10.937,-5.25 10.937,-5.25l-0.441,0Z" style="fill:#4d4d4d;fill-rule:nonzero;"/><path d="M166.3,380.25l-49.218,0c-4.101,0 -4.101,-4.5 -4.101,-4.5l57.42,0c0,0 0,4.5 -4.101,4.5" style="fill:#b3b3b3;fill-rule:nonzero;"/><path d="M120,256.826c0,1.828 -1.236,3.424 -3.066,3.424l-35.315,0c-1.828,0 -3.619,-1.596 -3.619,-3.424l0,-6.622c0,-1.828 1.791,-3.454 3.619,-3.454l35.315,0c1.83,0 3.066,1.626 3.066,3.454l0,6.622Z" style="fill:#f98410;fill-rule:nonzero;"/><path d="M204,298.939c0,1.829 -1.483,3.311 -3.31,3.311l-119.38,0c-1.827,0 -3.31,-1.482 -3.31,-3.311l0,-30.879c0,-1.827 1.483,-3.31 3.31,-3.31l119.38,0c1.827,0 3.31,1.483 3.31,3.31l0,30.879Z" style="fill:#2fa3dd;fill-rule:nonzero;"/><path d="M117,325.249c0,1.827 -1.547,3.251 -3.377,3.251l-32.004,0c-1.828,0 -3.619,-1.423 -3.619,-3.251l0,-16.554c0,-1.828 1.791,-3.445 3.619,-3.445l32.004,0c1.83,0 3.377,1.617 3.377,3.445l0,16.554Z" style="fill:#999;fill-rule:nonzero;"/><path d="M159.75,325.189c0,1.828 -1.483,3.311 -3.311,3.311l-31.628,0c-1.828,0 -3.311,-1.483 -3.311,-3.311l0,-16.628c0,-1.828 1.483,-3.311 3.311,-3.311l31.628,0c1.828,0 3.311,1.483 3.311,3.311l0,16.628Z" style="fill:#999;fill-rule:nonzero;"/><path d="M203.25,325.189c0,1.828 -1.483,3.311 -3.31,3.311l-31.63,0c-1.827,0 -3.31,-1.483 -3.31,-3.311l0,-16.628c0,-1.828 1.483,-3.311 3.31,-3.311l31.63,0c1.827,0 3.31,1.483 3.31,3.311l0,16.628Z" style="fill:#999;fill-rule:nonzero;"/><path d="M159.75,334.905c0,0.762 -0.376,1.095 -1.116,1.095l-35.944,0c-0.741,0 -1.19,-0.333 -1.19,-1.095l0,-0.551c0,-0.763 0.449,-1.354 1.19,-1.354l35.944,0c0.74,0 1.116,0.591 1.116,1.354l0,0.551Z" style="fill:#b3b3b3;fill-rule:nonzero;"/><path d="M159.75,340.423c0,0.762 -0.376,1.577 -1.116,1.577l-35.944,0c-0.741,0 -1.19,-0.815 -1.19,-1.577l0,-0.551c0,-0.762 0.449,-1.622 1.19,-1.622l35.944,0c0.74,0 1.116,0.86 1.116,1.622l0,0.551Z" style="fill:#b3b3b3;fill-rule:nonzero;"/><path d="M159.75,345.941c0,0.762 -0.376,2.059 -1.116,2.059l-35.944,0c-0.741,0 -1.19,-1.297 -1.19,-2.059l0,-0.552c0,-0.762 0.449,-1.889 1.19,-1.889l35.944,0c0.74,0 1.116,1.127 1.116,1.889l0,0.552Z" style="fill:#b3b3b3;fill-rule:nonzero;"/><path d="M159.75,351.459c0,0.763 -0.376,1.791 -1.116,1.791l-35.944,0c-0.741,0 -1.19,-1.028 -1.19,-1.791l0,-0.551c0,-0.763 0.449,-1.408 1.19,-1.408l35.944,0c0.74,0 1.116,0.645 1.116,1.408l0,0.551Z" style="fill:#b3b3b3;fill-rule:nonzero;"/><path d="M141.75,356.977c0,0.762 -0.033,1.523 -0.773,1.523l-18.287,0c-0.741,0 -1.19,-0.761 -1.19,-1.523l0,-0.552c0,-0.762 0.449,-1.675 1.19,-1.675l18.287,0c0.74,0 0.773,0.913 0.773,1.675l0,0.552Z" style="fill:#b3b3b3;fill-rule:nonzero;"/><path d="M204,334.905c0,0.762 -0.482,1.095 -1.222,1.095l-35.945,0c-0.74,0 -1.833,-0.333 -1.833,-1.095l0,-0.551c0,-0.763 1.093,-1.354 1.833,-1.354l35.945,0c0.74,0 1.222,0.591 1.222,1.354l0,0.551Z" style="fill:#b3b3b3;fill-rule:nonzero;"/><path d="M204,340.423c0,0.762 -0.482,1.577 -1.222,1.577l-35.945,0c-0.74,0 -1.833,-0.815 -1.833,-1.577l0,-0.551c0,-0.762 1.093,-1.622 1.833,-1.622l35.945,0c0.74,0 1.222,0.86 1.222,1.622l0,0.551Z" style="fill:#b3b3b3;fill-rule:nonzero;"/><path d="M204,345.941c0,0.762 -0.482,2.059 -1.222,2.059l-35.945,0c-0.74,0 -1.833,-1.297 -1.833,-2.059l0,-0.552c0,-0.762 1.093,-1.889 1.833,-1.889l35.945,0c0.74,0 1.222,1.127 1.222,1.889l0,0.552Z" style="fill:#b3b3b3;fill-rule:nonzero;"/><path d="M204,351.459c0,0.763 -0.482,1.791 -1.222,1.791l-35.945,0c-0.74,0 -1.833,-1.028 -1.833,-1.791l0,-0.551c0,-0.763 1.093,-1.408 1.833,-1.408l35.945,0c0.74,0 1.222,0.645 1.222,1.408l0,0.551Z" style="fill:#b3b3b3;fill-rule:nonzero;"/><path d="M186.75,356.977c0,0.762 -0.889,1.523 -1.63,1.523l-18.287,0c-0.74,0 -1.833,-0.761 -1.833,-1.523l0,-0.552c0,-0.762 1.093,-1.675 1.833,-1.675l18.287,0c0.74,0 1.63,0.913 1.63,1.675l0,0.552Z" style="fill:#b3b3b3;fill-rule:nonzero;"/><path d="M117,334.905c0,0.762 -0.666,1.095 -1.406,1.095l-35.945,0c-0.739,0 -1.649,-0.333 -1.649,-1.095l0,-0.551c0,-0.763 0.91,-1.354 1.649,-1.354l35.945,0c0.74,0 1.406,0.591 1.406,1.354l0,0.551Z" style="fill:#b3b3b3;fill-rule:nonzero;"/><path d="M117,340.423c0,0.762 -0.666,1.577 -1.406,1.577l-35.945,0c-0.739,0 -1.649,-0.815 -1.649,-1.577l0,-0.551c0,-0.762 0.91,-1.622 1.649,-1.622l35.945,0c0.74,0 1.406,0.86 1.406,1.622l0,0.551Z" style="fill:#b3b3b3;fill-rule:nonzero;"/><path d="M117,345.941c0,0.762 -0.666,2.059 -1.406,2.059l-35.945,0c-0.739,0 -1.649,-1.297 -1.649,-2.059l0,-0.552c0,-0.762 0.91,-1.889 1.649,-1.889l35.945,0c0.74,0 1.406,1.127 1.406,1.889l0,0.552Z" style="fill:#b3b3b3;fill-rule:nonzero;"/><path d="M117,351.459c0,0.763 -0.666,1.791 -1.406,1.791l-35.945,0c-0.739,0 -1.649,-1.028 -1.649,-1.791l0,-0.551c0,-0.763 0.91,-1.408 1.649,-1.408l35.945,0c0.74,0 1.406,0.645 1.406,1.408l0,0.551Z" style="fill:#b3b3b3;fill-rule:nonzero;"/><path d="M99,356.977c0,0.762 -0.324,1.523 -1.064,1.523l-18.287,0c-0.739,0 -1.649,-0.761 -1.649,-1.523l0,-0.552c0,-0.762 0.91,-1.675 1.649,-1.675l18.287,0c0.74,0 1.064,0.913 1.064,1.675l0,0.552Z" style="fill:#b3b3b3;fill-rule:nonzero;"/><path d="M510.75,302.601c0,5.752 -4.509,10.899 -10.259,10.899l-107.238,0c-5.749,0 -10.753,-5.147 -10.753,-10.899l0,-148.452c0,-5.752 5.004,-10.899 10.753,-10.899l107.238,0c5.75,0 10.259,5.147 10.259,10.899l0,148.452Z" style="fill:#4d4d4d;fill-rule:nonzero;"/><rect x="393" y="156" width="107.25" height="130.5" style="fill:#f2f2f2;fill-rule:nonzero;"/><path d="M455.477,299.641c0,4.755 -3.85,8.603 -8.605,8.603c-4.754,0 -8.604,-3.848 -8.604,-8.603c0,-4.755 3.85,-8.608 8.604,-8.608c4.755,0 8.605,3.853 8.605,8.608" style="fill:#b3b3b3;fill-rule:nonzero;"/><path d="M447.75,176.291c0,1.802 -1.372,2.959 -3.174,2.959l-34.812,0c-1.804,0 -3.264,-1.157 -3.264,-2.959l0,-6.527c0,-1.802 1.46,-3.264 3.264,-3.264l34.812,0c1.802,0 3.174,1.462 3.174,3.264l0,6.527Z" style="fill:#f98410;fill-rule:nonzero;"/><path d="M486.75,217.63c0,1.801 -1.208,3.62 -3.011,3.62l-73.975,0c-1.804,0 -3.264,-1.819 -3.264,-3.62l0,-30.46c0,-1.802 1.46,-3.42 3.264,-3.42l73.975,0c1.803,0 3.011,1.618 3.011,3.42l0,30.46Z" style="fill:#2fa3dd;fill-rule:nonzero;"/><path d="M444.75,243.739c0,1.802 -1.635,3.011 -3.438,3.011l-31.548,0c-1.804,0 -3.264,-1.209 -3.264,-3.011l0,-16.318c0,-1.802 1.46,-3.171 3.264,-3.171l31.548,0c1.803,0 3.438,1.369 3.438,3.171l0,16.318Z" style="fill:#999;fill-rule:nonzero;"/><path d="M486.75,243.739c0,1.802 -1.208,3.011 -3.011,3.011l-31.548,0c-1.802,0 -2.941,-1.209 -2.941,-3.011l0,-16.318c0,-1.802 1.139,-3.171 2.941,-3.171l31.548,0c1.803,0 3.011,1.369 3.011,3.171l0,16.318Z" style="fill:#999;fill-rule:nonzero;"/><path d="M486.75,253.258c0,0.751 -0.339,0.992 -1.07,0.992l-35.431,0c-0.731,0 -0.999,-0.241 -0.999,-0.992l0,-0.544c0,-0.752 0.268,-1.464 0.999,-1.464l35.431,0c0.731,0 1.07,0.712 1.07,1.464l0,0.544Z" style="fill:#b3b3b3;fill-rule:nonzero;"/><path d="M486.75,258.697c0,0.751 -0.339,1.553 -1.07,1.553l-35.431,0c-0.731,0 -0.999,-0.802 -0.999,-1.553l0,-0.544c0,-0.751 0.268,-1.653 0.999,-1.653l35.431,0c0.731,0 1.07,0.902 1.07,1.653l0,0.544Z" style="fill:#b3b3b3;fill-rule:nonzero;"/><path d="M486.75,264.136c0,0.752 -0.339,1.364 -1.07,1.364l-35.431,0c-0.731,0 -0.999,-0.612 -0.999,-1.364l0,-0.544c0,-0.751 0.268,-1.092 0.999,-1.092l35.431,0c0.731,0 1.07,0.341 1.07,1.092l0,0.544Z" style="fill:#b3b3b3;fill-rule:nonzero;"/><path d="M486.75,269.576c0,0.751 -0.339,1.174 -1.07,1.174l-35.431,0c-0.731,0 -0.999,-0.423 -0.999,-1.174l0,-0.545c0,-0.75 0.268,-1.281 0.999,-1.281l35.431,0c0.731,0 1.07,0.531 1.07,1.281l0,0.545Z" style="fill:#b3b3b3;fill-rule:nonzero;"/><path d="M469.5,275.015c0,0.751 -0.495,1.735 -1.225,1.735l-18.026,0c-0.731,0 -0.999,-0.984 -0.999,-1.735l0,-0.544c0,-0.751 0.269,-1.471 0.999,-1.471l18.026,0c0.73,0 1.225,0.72 1.225,1.471l0,0.544Z" style="fill:#b3b3b3;fill-rule:nonzero;"/><path d="M444.75,253.258c0,0.751 -0.766,0.992 -1.495,0.992l-35.434,0c-0.729,0 -1.321,-0.241 -1.321,-0.992l0,-0.544c0,-0.752 0.592,-1.464 1.321,-1.464l35.433,0c0.73,0 1.496,0.712 1.496,1.464l0,0.544Z" style="fill:#b3b3b3;fill-rule:nonzero;"/><path d="M444.75,258.697c0,0.751 -0.766,1.553 -1.495,1.553l-35.434,0c-0.729,0 -1.321,-0.802 -1.321,-1.553l0,-0.544c0,-0.751 0.592,-1.653 1.321,-1.653l35.433,0c0.73,0 1.496,0.902 1.496,1.653l0,0.544Z" style="fill:#b3b3b3;fill-rule:nonzero;"/><path d="M444.75,264.136c0,0.752 -0.766,1.364 -1.495,1.364l-35.434,0c-0.729,0 -1.321,-0.612 -1.321,-1.364l0,-0.544c0,-0.751 0.592,-1.092 1.321,-1.092l35.433,0c0.73,0 1.496,0.341 1.496,1.092l0,0.544Z" style="fill:#b3b3b3;fill-rule:nonzero;"/><path d="M444.75,269.576c0,0.751 -0.766,1.174 -1.495,1.174l-35.434,0c-0.729,0 -1.321,-0.423 -1.321,-1.174l0,-0.545c0,-0.75 0.592,-1.281 1.321,-1.281l35.433,0c0.73,0 1.496,0.531 1.496,1.281l0,0.545Z" style="fill:#b3b3b3;fill-rule:nonzero;"/><path d="M427.5,275.015c0,0.751 -0.922,1.735 -1.652,1.735l-18.027,0c-0.729,0 -1.321,-0.984 -1.321,-1.735l0,-0.544c0,-0.751 0.592,-1.471 1.321,-1.471l18.027,0c0.73,0 1.652,0.72 1.652,1.471l0,0.544Z" style="fill:#b3b3b3;fill-rule:nonzero;"/><path d="M402.75,405.535c0,4.859 -4.692,9.215 -9.556,9.215l-55.758,0c-4.862,0 -8.936,-4.356 -8.936,-9.215l0,-120.318c0,-4.86 4.074,-9.217 8.936,-9.217l55.757,0c4.865,0 9.557,4.357 9.557,9.217l0,120.318Z" style="fill:#4d4d4d;fill-rule:nonzero;"/><path d="M402.75,405.535c0,4.859 -4.692,9.215 -9.556,9.215l-55.758,0c-4.862,0 -8.936,-4.356 -8.936,-9.215l0,-120.318c0,-4.86 4.074,-9.217 8.936,-9.217l55.757,0c4.865,0 9.557,4.357 9.557,9.217l0,120.318Z" style="fill:#4d4d4d;fill-rule:nonzero;"/><rect x="333.75" y="293.25" width="63.75" height="101.25" style="fill:#f2f2f2;fill-rule:nonzero;"/><path d="M370.646,404.411c0,2.942 -2.386,5.33 -5.33,5.33c-2.945,0 -5.331,-2.388 -5.331,-5.33c0,-2.943 2.386,-5.33 5.331,-5.33c2.944,0 5.33,2.387 5.33,5.33" style="fill:#b3b3b3;fill-rule:nonzero;"/><path d="M378,286.605c0,0.771 -0.624,1.395 -1.393,1.395l-26.464,0c-0.769,0 -1.393,-0.624 -1.393,-1.395l0,-0.21c0,-0.771 0.624,-1.395 1.393,-1.395l26.464,0c0.769,0 1.393,0.624 1.393,1.395l0,0.21Z" style="fill:#b3b3b3;fill-rule:nonzero;"/><path d="M390.75,308.61c0,1.458 -1.182,2.64 -2.64,2.64l-44.97,0c-1.458,0 -2.64,-1.182 -2.64,-2.64l0,-5.22c0,-1.458 1.182,-2.64 2.64,-2.64l44.97,0c1.458,0 2.64,1.182 2.64,2.64l0,5.22Z" style="fill:#f98410;fill-rule:nonzero;"/><path d="M390.75,341.61c0,1.458 -1.182,2.64 -2.64,2.64l-44.97,0c-1.458,0 -2.64,-1.182 -2.64,-2.64l0,-24.72c0,-1.458 1.182,-2.64 2.64,-2.64l44.97,0c1.458,0 2.64,1.182 2.64,2.64l0,24.72Z" style="fill:#2fa3dd;fill-rule:nonzero;"/><path d="M390.75,362.665c0,1.458 -0.9,2.585 -2.391,2.585l-45.436,0c-1.491,0 -2.423,-1.127 -2.423,-2.585l0,-13.2c0,-1.458 0.932,-2.215 2.423,-2.215l45.436,0c1.491,0 2.391,0.757 2.391,2.215l0,13.2Z" style="fill:#999;fill-rule:nonzero;"/><path d="M390.75,384.415c0,1.458 -0.899,2.585 -2.391,2.585l-45.436,0c-1.492,0 -2.423,-1.127 -2.423,-2.585l0,-13.2c0,-1.458 0.931,-2.215 2.423,-2.215l45.436,0c1.492,0 2.391,0.757 2.391,2.215l0,13.2Z" style="fill:#999;fill-rule:nonzero;"/></svg>