<svg viewBox="0 0 511 415" xmlns="http://www.w3.org/2000/svg" fill-rule="evenodd" clip-rule="evenodd" stroke-linejoin="round" stroke-miterlimit="1.414"><path d="M330.916 246.75h-3.008s-17.663-4.703-17.663-54.024c0-14.528-78-14.52-78 1.082 0 47.487-18.125 52.942-18.125 52.942h-2.44c-2.177 0-3.93 1.7-3.93 3.877v1.97c0 2.177 1.753 3.903 3.93 3.903h119.236c2.176 0 4.334-1.726 4.334-3.902v-1.97c0-2.177-2.158-3.878-4.334-3.878" fill="#4d4d4d" fill-rule="nonzero"/><path d="M409.652 0H132.448c-5.342 0-10.198 2.803-10.198 8.144v193.4c0 5.34 4.856 12.206 10.198 12.206h277.204c5.343 0 8.098-6.865 8.098-12.206V8.144c0-5.34-2.755-8.144-8.098-8.144" fill="#4d4d4d" fill-rule="nonzero"/><path fill="#f2f2f2" fill-rule="nonzero" d="M136.5 15.75h267v153h-267z"/><path d="M283.153 191.8c0 6.687-5.422 12.105-12.106 12.105-6.682 0-12.102-5.418-12.102-12.106 0-6.687 5.42-12.106 12.102-12.106 6.684 0 12.106 5.42 12.106 12.104" fill="#b3b3b3" fill-rule="nonzero"/><path d="M240 37.29c0 2.187-1.804 3.96-4.38 3.96h-49.83c-2.576 0-5.038-1.773-5.038-3.96v-7.83c0-2.187 2.462-3.96 5.038-3.96h49.833c2.576 0 4.38 1.773 4.38 3.96v7.83z" fill="#f98410" fill-rule="nonzero"/><path d="M358.5 87.54c0 2.187-1.986 3.96-4.56 3.96H185.786c-2.575 0-5.037-1.773-5.037-3.96V50.46c0-2.187 2.46-3.96 5.036-3.96H353.94c2.574 0 4.56 1.773 4.56 3.96v37.08z" fill="#2fa3dd" fill-rule="nonzero"/><path d="M235.5 119.04c0 2.187-1.72 3.96-4.294 3.96h-45.418c-2.576 0-5.038-1.773-5.038-3.96V99.21c0-2.187 2.462-3.96 5.038-3.96h45.418c2.575 0 4.294 1.773 4.294 3.96v19.83zm60 0c0 2.187-1.677 3.96-4.252 3.96h-45.42c-2.574 0-5.078-1.773-5.078-3.96V99.21c0-2.187 2.504-3.96 5.08-3.96h45.418c2.575 0 4.252 1.773 4.252 3.96v19.83zm63 0c0 2.187-1.986 3.96-4.56 3.96h-45.42c-2.575 0-4.77-1.773-4.77-3.96V99.21c0-2.187 2.195-3.96 4.77-3.96h45.42c2.574 0 4.56 1.773 4.56 3.96v19.83z" fill="#999" fill-rule="nonzero"/><path d="M295.5 130.49c0 .91-.502 1.51-1.545 1.51h-50.62c-1.044 0-2.585-.6-2.585-1.51v-.66c0-.912 1.54-1.58 2.584-1.58h50.62c1.044 0 1.546.668 1.546 1.58v.66zm0 6.6c0 .912-.502 1.66-1.545 1.66h-50.62c-1.044 0-2.585-.748-2.585-1.66v-.66c0-.91 1.54-1.43 2.584-1.43h50.62c1.044 0 1.546.52 1.546 1.43v.66zm0 6.602c0 .91-.502 1.808-1.545 1.808h-50.62c-1.044 0-2.585-.897-2.585-1.808v-.66c0-.912 1.54-1.282 2.584-1.282h50.62c1.044 0 1.546.37 1.546 1.282v.66zm0 6.6c0 .91-.502 1.958-1.545 1.958h-50.62c-1.044 0-2.585-1.046-2.585-1.957v-.66c0-.912 1.54-1.883 2.584-1.883h50.62c1.044 0 1.546.97 1.546 1.883v.66zm-24.75 6.602c0 .91-.62 1.356-1.662 1.356h-25.754c-1.043 0-2.584-.445-2.584-1.356v-.66c0-.912 1.54-1.734 2.584-1.734h25.754c1.042 0 1.662.822 1.662 1.734v.66zM357 130.49c0 .91.167 1.51-.876 1.51h-50.62c-1.044 0-1.754-.6-1.754-1.51v-.66c0-.912.71-1.58 1.753-1.58h50.62c1.044 0 .877.668.877 1.58v.66zm0 6.6c0 .912.167 1.66-.876 1.66h-50.62c-1.044 0-1.754-.748-1.754-1.66v-.66c0-.91.71-1.43 1.753-1.43h50.62c1.044 0 .877.52.877 1.43v.66zm0 6.602c0 .91.167 1.808-.876 1.808h-50.62c-1.044 0-1.754-.897-1.754-1.808v-.66c0-.912.71-1.282 1.753-1.282h50.62c1.044 0 .877.37.877 1.282v.66zm0 6.6c0 .91.167 1.958-.876 1.958h-50.62c-1.044 0-1.754-1.046-1.754-1.957v-.66c0-.912.71-1.883 1.753-1.883h50.62c1.044 0 .877.97.877 1.883v.66zm-24.75 6.602c0 .91.05 1.356-.993 1.356h-25.754c-1.043 0-1.753-.445-1.753-1.356v-.66c0-.912.71-1.734 1.753-1.734h25.754c1.042 0 .993.822.993 1.734v.66zm-97.5-26.404c0 .91-.367 1.51-1.41 1.51h-50.62c-1.044 0-1.97-.6-1.97-1.51v-.66c0-.912.926-1.58 1.97-1.58h50.62c1.043 0 1.41.668 1.41 1.58v.66zm0 6.6c0 .912-.367 1.66-1.41 1.66h-50.62c-1.044 0-1.97-.748-1.97-1.66v-.66c0-.91.926-1.43 1.97-1.43h50.62c1.043 0 1.41.52 1.41 1.43v.66zm0 6.602c0 .91-.367 1.808-1.41 1.808h-50.62c-1.044 0-1.97-.897-1.97-1.808v-.66c0-.912.926-1.282 1.97-1.282h50.62c1.043 0 1.41.37 1.41 1.282v.66zm0 6.6c0 .91-.367 1.958-1.41 1.958h-50.62c-1.044 0-1.97-1.046-1.97-1.957v-.66c0-.912.926-1.883 1.97-1.883h50.62c1.043 0 1.41.97 1.41 1.883v.66zM210 156.895c0 .91-.485 1.356-1.527 1.356H182.72c-1.044 0-1.97-.445-1.97-1.356v-.66c0-.912.926-1.734 1.97-1.734h25.753c1.042 0 1.527.822 1.527 1.734v.66z" fill="#b3b3b3" fill-rule="nonzero"/><path d="M253.5 378H27V232.75c0-3.02 2.984-4.75 6.005-4.75H249.01c3.02 0 4.49 1.73 4.49 4.75V378z" fill="#4d4d4d" fill-rule="nonzero"/><path fill="#f2f2f2" fill-rule="nonzero" d="M36 238.5h210v128.25H36z"/><path d="M282.75 384v-6.335c0-1.51-.784-1.915-2.295-1.915H2.927c-1.51 0-2.927.406-2.927 1.915V384h.193s6.835 5.25 10.936 5.25h261.123c4.1 0 10.937-5.25 10.937-5.25h-.44z" fill="#4d4d4d" fill-rule="nonzero"/><path d="M166.3 380.25h-49.218c-4.1 0-4.1-4.5-4.1-4.5h57.42s0 4.5-4.102 4.5" fill="#b3b3b3" fill-rule="nonzero"/><path d="M120 256.826c0 1.828-1.236 3.424-3.066 3.424H81.62c-1.83 0-3.62-1.596-3.62-3.424v-6.622c0-1.828 1.79-3.454 3.62-3.454h35.314c1.83 0 3.066 1.626 3.066 3.454v6.622z" fill="#f98410" fill-rule="nonzero"/><path d="M204 298.94a3.31 3.31 0 0 1-3.31 3.31H81.31a3.31 3.31 0 0 1-3.31-3.31v-30.88a3.31 3.31 0 0 1 3.31-3.31h119.38a3.31 3.31 0 0 1 3.31 3.31v30.88z" fill="#2fa3dd" fill-rule="nonzero"/><path d="M117 325.25c0 1.826-1.547 3.25-3.377 3.25H81.62c-1.83 0-3.62-1.423-3.62-3.25v-16.555c0-1.828 1.79-3.445 3.62-3.445h32.003c1.83 0 3.377 1.617 3.377 3.445v16.554zm42.75-.06a3.312 3.312 0 0 1-3.31 3.31h-31.63a3.312 3.312 0 0 1-3.31-3.31v-16.63a3.312 3.312 0 0 1 3.31-3.31h31.63a3.312 3.312 0 0 1 3.31 3.31v16.63zm43.5 0a3.312 3.312 0 0 1-3.31 3.31h-31.63a3.312 3.312 0 0 1-3.31-3.31v-16.63a3.312 3.312 0 0 1 3.31-3.31h31.63a3.312 3.312 0 0 1 3.31 3.31v16.63z" fill="#999" fill-rule="nonzero"/><path d="M159.75 334.905c0 .762-.376 1.095-1.116 1.095H122.69c-.74 0-1.19-.333-1.19-1.095v-.55c0-.764.45-1.355 1.19-1.355h35.944c.74 0 1.116.59 1.116 1.354v.55zm0 5.518c0 .762-.376 1.577-1.116 1.577H122.69c-.74 0-1.19-.815-1.19-1.577v-.55c0-.763.45-1.623 1.19-1.623h35.944c.74 0 1.116.86 1.116 1.622v.55zm0 5.517c0 .763-.376 2.06-1.116 2.06H122.69c-.74 0-1.19-1.297-1.19-2.06v-.55c0-.763.45-1.89 1.19-1.89h35.944c.74 0 1.116 1.127 1.116 1.89v.55zm0 5.52c0 .762-.376 1.79-1.116 1.79H122.69c-.74 0-1.19-1.028-1.19-1.79v-.552c0-.763.45-1.408 1.19-1.408h35.944c.74 0 1.116.645 1.116 1.408v.55zm-18 5.517c0 .762-.033 1.523-.773 1.523H122.69c-.74 0-1.19-.76-1.19-1.523v-.552c0-.762.45-1.675 1.19-1.675h18.287c.74 0 .773.913.773 1.675v.552zM204 334.905c0 .762-.482 1.095-1.222 1.095h-35.945c-.74 0-1.833-.333-1.833-1.095v-.55c0-.764 1.093-1.355 1.833-1.355h35.945c.74 0 1.222.59 1.222 1.354v.55zm0 5.518c0 .762-.482 1.577-1.222 1.577h-35.945c-.74 0-1.833-.815-1.833-1.577v-.55c0-.763 1.093-1.623 1.833-1.623h35.945c.74 0 1.222.86 1.222 1.622v.55zm0 5.517c0 .763-.482 2.06-1.222 2.06h-35.945c-.74 0-1.833-1.297-1.833-2.06v-.55c0-.763 1.093-1.89 1.833-1.89h35.945c.74 0 1.222 1.127 1.222 1.89v.55zm0 5.52c0 .762-.482 1.79-1.222 1.79h-35.945c-.74 0-1.833-1.028-1.833-1.79v-.552c0-.763 1.093-1.408 1.833-1.408h35.945c.74 0 1.222.645 1.222 1.408v.55zm-17.25 5.517c0 .762-.89 1.523-1.63 1.523h-18.287c-.74 0-1.833-.76-1.833-1.523v-.552c0-.762 1.093-1.675 1.833-1.675h18.287c.74 0 1.63.913 1.63 1.675v.552zM117 334.905c0 .762-.666 1.095-1.406 1.095H79.65c-.74 0-1.65-.333-1.65-1.095v-.55c0-.764.91-1.355 1.65-1.355h35.944c.74 0 1.406.59 1.406 1.354v.55zm0 5.518c0 .762-.666 1.577-1.406 1.577H79.65c-.74 0-1.65-.815-1.65-1.577v-.55c0-.763.91-1.623 1.65-1.623h35.944c.74 0 1.406.86 1.406 1.622v.55zm0 5.517c0 .763-.666 2.06-1.406 2.06H79.65c-.74 0-1.65-1.297-1.65-2.06v-.55c0-.763.91-1.89 1.65-1.89h35.944c.74 0 1.406 1.127 1.406 1.89v.55zm0 5.52c0 .762-.666 1.79-1.406 1.79H79.65c-.74 0-1.65-1.028-1.65-1.79v-.552c0-.763.91-1.408 1.65-1.408h35.944c.74 0 1.406.645 1.406 1.408v.55zm-18 5.517c0 .762-.324 1.523-1.064 1.523H79.65c-.74 0-1.65-.76-1.65-1.523v-.552c0-.762.91-1.675 1.65-1.675h18.286c.74 0 1.064.913 1.064 1.675v.552z" fill="#b3b3b3" fill-rule="nonzero"/><path d="M510.75 302.6c0 5.753-4.51 10.9-10.26 10.9H393.254c-5.75 0-10.753-5.147-10.753-10.9V154.15c0-5.753 5.005-10.9 10.754-10.9H500.49c5.75 0 10.26 5.147 10.26 10.9V302.6z" fill="#4d4d4d" fill-rule="nonzero"/><path fill="#f2f2f2" fill-rule="nonzero" d="M393 156h107.25v130.5H393z"/><path d="M455.477 299.64a8.6 8.6 0 0 1-8.605 8.604 8.6 8.6 0 0 1-8.604-8.603 8.604 8.604 0 0 1 8.604-8.606 8.604 8.604 0 0 1 8.605 8.608" fill="#b3b3b3" fill-rule="nonzero"/><path d="M447.75 176.29c0 1.803-1.372 2.96-3.174 2.96h-34.812c-1.804 0-3.264-1.157-3.264-2.96v-6.526a3.264 3.264 0 0 1 3.264-3.264h34.812c1.802 0 3.174 1.462 3.174 3.264v6.527z" fill="#f98410" fill-rule="nonzero"/><path d="M486.75 217.63c0 1.8-1.208 3.62-3.01 3.62h-73.976c-1.804 0-3.264-1.82-3.264-3.62v-30.46c0-1.802 1.46-3.42 3.264-3.42h73.975c1.8 0 3.01 1.618 3.01 3.42v30.46z" fill="#2fa3dd" fill-rule="nonzero"/><path d="M444.75 243.74c0 1.8-1.635 3.01-3.438 3.01h-31.548c-1.804 0-3.264-1.21-3.264-3.01v-16.32c0-1.8 1.46-3.17 3.264-3.17h31.548c1.803 0 3.438 1.37 3.438 3.17v16.32zm42 0c0 1.8-1.208 3.01-3.01 3.01h-31.55c-1.8 0-2.94-1.21-2.94-3.01v-16.32c0-1.8 1.14-3.17 2.94-3.17h31.55c1.802 0 3.01 1.37 3.01 3.17v16.32z" fill="#999" fill-rule="nonzero"/><path d="M486.75 253.258c0 .75-.34.992-1.07.992h-35.43c-.732 0-1-.24-1-.992v-.544c0-.752.268-1.464 1-1.464h35.43c.73 0 1.07.712 1.07 1.464v.544zm0 5.44c0 .75-.34 1.552-1.07 1.552h-35.43c-.732 0-1-.802-1-1.553v-.544c0-.75.268-1.653 1-1.653h35.43c.73 0 1.07.902 1.07 1.653v.544zm0 5.438c0 .752-.34 1.364-1.07 1.364h-35.43c-.732 0-1-.612-1-1.364v-.544c0-.75.268-1.092 1-1.092h35.43c.73 0 1.07.34 1.07 1.092v.544zm0 5.44c0 .75-.34 1.174-1.07 1.174h-35.43c-.732 0-1-.423-1-1.174v-.545c0-.75.268-1.28 1-1.28h35.43c.73 0 1.07.53 1.07 1.28v.547zm-17.25 5.44c0 .75-.495 1.734-1.225 1.734H450.25c-.732 0-1-.984-1-1.735v-.544c0-.75.27-1.47 1-1.47h18.025c.73 0 1.225.72 1.225 1.47v.546zm-24.75-21.758c0 .75-.766.992-1.495.992H407.82c-.728 0-1.32-.24-1.32-.992v-.544c0-.752.592-1.464 1.32-1.464h35.434c.73 0 1.496.712 1.496 1.464v.544zm0 5.44c0 .75-.766 1.552-1.495 1.552H407.82c-.728 0-1.32-.802-1.32-1.553v-.544c0-.75.592-1.653 1.32-1.653h35.434c.73 0 1.496.902 1.496 1.653v.544zm0 5.438c0 .752-.766 1.364-1.495 1.364H407.82c-.728 0-1.32-.612-1.32-1.364v-.544c0-.75.592-1.092 1.32-1.092h35.434c.73 0 1.496.34 1.496 1.092v.544zm0 5.44c0 .75-.766 1.174-1.495 1.174H407.82c-.728 0-1.32-.423-1.32-1.174v-.545c0-.75.592-1.28 1.32-1.28h35.434c.73 0 1.496.53 1.496 1.28v.547zm-17.25 5.44c0 .75-.922 1.734-1.652 1.734H407.82c-.728 0-1.32-.984-1.32-1.735v-.544c0-.75.592-1.47 1.32-1.47h18.028c.73 0 1.652.72 1.652 1.47v.546z" fill="#b3b3b3" fill-rule="nonzero"/><path d="M402.75 405.535c0 4.86-4.692 9.215-9.556 9.215h-55.758c-4.862 0-8.936-4.356-8.936-9.215V285.217c0-4.86 4.074-9.217 8.936-9.217h55.757c4.865 0 9.557 4.357 9.557 9.217v120.318z" fill="#4d4d4d" fill-rule="nonzero"/><path d="M402.75 405.535c0 4.86-4.692 9.215-9.556 9.215h-55.758c-4.862 0-8.936-4.356-8.936-9.215V285.217c0-4.86 4.074-9.217 8.936-9.217h55.757c4.865 0 9.557 4.357 9.557 9.217v120.318z" fill="#4d4d4d" fill-rule="nonzero"/><path fill="#f2f2f2" fill-rule="nonzero" d="M333.75 293.25h63.75V394.5h-63.75z"/><path d="M370.646 404.41a5.33 5.33 0 1 1-10.662 0 5.33 5.33 0 0 1 10.662 0M378 286.605c0 .77-.624 1.395-1.393 1.395h-26.464c-.77 0-1.393-.624-1.393-1.395v-.21c0-.77.624-1.395 1.393-1.395h26.464c.77 0 1.393.624 1.393 1.395v.21z" fill="#b3b3b3" fill-rule="nonzero"/><path d="M390.75 308.61a2.64 2.64 0 0 1-2.64 2.64h-44.97a2.64 2.64 0 0 1-2.64-2.64v-5.22a2.64 2.64 0 0 1 2.64-2.64h44.97a2.64 2.64 0 0 1 2.64 2.64v5.22z" fill="#f98410" fill-rule="nonzero"/><path d="M390.75 341.61a2.64 2.64 0 0 1-2.64 2.64h-44.97a2.64 2.64 0 0 1-2.64-2.64v-24.72a2.64 2.64 0 0 1 2.64-2.64h44.97a2.64 2.64 0 0 1 2.64 2.64v24.72z" fill="#2fa3dd" fill-rule="nonzero"/><path d="M390.75 362.665c0 1.458-.9 2.585-2.39 2.585h-45.437c-1.49 0-2.423-1.127-2.423-2.585v-13.2c0-1.458.932-2.215 2.423-2.215h45.436c1.49 0 2.39.757 2.39 2.215v13.2zm0 21.75c0 1.458-.9 2.585-2.39 2.585h-45.437c-1.492 0-2.423-1.127-2.423-2.585v-13.2c0-1.458.93-2.215 2.423-2.215h45.436c1.49 0 2.39.757 2.39 2.215v13.2z" fill="#999" fill-rule="nonzero"/></svg>