<svg viewBox="0 0 520 499" xmlns="http://www.w3.org/2000/svg" fill-rule="evenodd" clip-rule="evenodd" stroke-miterlimit="22.926"><path d="M367.868 94.418H471.53l17.397 17.395V94.418v171.21H367.87l-.002-171.21z" fill="#fff"/><path d="M441.396 215.85v10.7m25.997-10.7v21.4" fill="none" stroke-width=".72" stroke="#ccc"/><path fill="#ccc" d="M399.012 112.756h58.772v4.18h-58.772zm-20.032 10.452h98.837v4.18H378.98zm0 7.315h98.837v4.18H378.98zm0 7.317h98.837v4.18H378.98zm0 7.314h46.32v4.18h-46.32z"/><path d="M465 168.207c7.077 0 12.816 5.738 12.816 12.818 0 7.078-5.738 12.817-12.817 12.817-7.08 0-12.82-5.74-12.82-12.817 0-7.08 5.74-12.818 12.82-12.818" fill="#ef4136"/><path d="M457.946 191.727a12.865 12.865 0 0 1-4.36-4.864L465 181.025l-7.054 10.702z" fill="#fcd8d6"/><path d="M453.585 186.863a12.767 12.767 0 0 1-1.404-5.838c0-4.1 1.926-7.748 4.92-10.094l7.9 10.096-11.414 5.838z" fill="#f9b3af"/><path d="M457.1 170.93a12.763 12.763 0 0 1 7.9-2.723v12.818l-7.9-10.094z" fill="#f48c85"/><path d="M465 168.207v12.818l9.134-8.99a12.78 12.78 0 0 0-9.135-3.828" fill="#f2675d"/><path fill="#ccc" d="M378.98 196.02h58.81v1.504h-58.81z"/><path fill="#4c8eb4" d="M378.98 164.525h10.454v31.496H378.98z"/><path d="M391.068 176.4h10.454v19.62H391.07V176.4z" fill="#609dc1"/><path fill="#73accd" d="M403.157 183.044h10.455v12.976h-10.455z"/><path fill="#87bbda" d="M415.246 176.96H425.7v19.06h-10.454z"/><path fill="#9acae6" d="M427.335 182.39h10.455v13.63h-10.455z"/><path fill="#ccc" d="M452.997 196.02h5.276v1.504h-5.276zm7.72 0h15.675v1.504h-15.674zm10.813-84.207h17.397L471.53 94.417v17.396z"/><path fill="#ef4136" d="M378.98 212.668h20.847v6.362H378.98z"/><path fill="#9acae6" d="M405.046 212.668h20.848v6.362h-20.848z"/><path fill="#609dc1" d="M430.972 212.668h20.848v6.362h-20.848z"/><path fill="#9acae6" d="M456.97 212.668h20.847v6.362H456.97z"/><path fill="#f2675d" d="M378.98 223.367h20.847v6.362H378.98z"/><path fill="#f48c85" d="M378.98 234.068h20.847v6.362H378.98z"/><path fill="#fcd8d6" d="M378.98 244.768h20.847v6.362H378.98z"/><path fill="#609dc1" d="M430.972 223.367h20.848v6.362h-20.848z"/><path fill="#9acae6" d="M456.97 223.367h20.847v6.362H456.97zm0 10.7h20.847v6.363H456.97z"/><path fill="#609dc1" d="M63.323 69.367h71.825V94.83H63.323z"/><path fill="#ef4136" d="M71.756 169.968h101.33v25.46H71.756z"/><path d="M82.717 83.618h-4.094v4.685h-2.19V77.11h2.19v4.557h4.094V77.11h2.19v11.193h-2.19v-4.685zM94.79 79.06h-3.263v9.243h-2.19V79.06h-3.28v-1.95h8.732v1.95zm9.816 3.44l.24-2.224h-.096l-.687 1.79-2.383 4.174h-.703l-2.51-4.19-.704-1.774h-.08l.32 2.207v5.82h-2.08V77.11h2l2.99 5.117.527 1.28h.064l.48-1.312 2.83-5.085h1.983v11.193h-2.19V82.5zm11.194 5.803h-7.084V77.11h2.19v9.242h4.893v1.95zm3.693-1.615c.703 0 1.24-.17 1.615-.512.373-.34.56-.81.56-1.407 0-.64-.22-1.11-.656-1.41-.437-.297-1.06-.447-1.87-.447l-1.264.048v-5.85h5.5v1.95h-3.71v2.16l.656-.064c.522.02.994.117 1.415.287.42.17.78.408 1.077.712.3.304.528.67.688 1.103.16.432.24.914.24 1.447 0 .63-.107 1.183-.32 1.663-.213.48-.51.88-.887 1.2a3.8 3.8 0 0 1-1.337.72c-.51.16-1.07.24-1.677.24-.48 0-.936-.04-1.368-.12-.43-.08-.796-.19-1.095-.33l.56-1.726c.245.107.514.19.807.248.292.06.647.088 1.063.088z" fill="#fff" fill-rule="nonzero"/><path d="M118.195 9.834v-1.12l6.172-3.693.91 1.44-3.58 2.223-1.456.56 1.44.496 3.68 2.19-.91 1.44-6.254-3.535zm7.867-3.438h1.103V4.893l2.08-.592v2.097h1.95v1.76h-1.95v3.07c0 .553.054.95.166 1.19.114.24.325.36.634.36.213 0 .397-.022.552-.064.154-.043.327-.107.52-.192l.367 1.6a5.34 5.34 0 0 1-1.007.35 4.844 4.844 0 0 1-1.168.145c-.735 0-1.276-.19-1.622-.567-.347-.38-.52-1-.52-1.863v-4.03h-1.103V6.397zm6.603 0h2.08v7.995h-2.08V6.398zm-.304-2.255c0-.307.117-.57.346-.79.23-.22.547-.327.952-.327.405 0 .733.11.983.328.25.22.377.483.377.79a.97.97 0 0 1-.376.778c-.25.208-.577.312-.982.312s-.723-.105-.952-.313a1.007 1.007 0 0 1-.344-.776zm3.583 2.256h1.103V4.893l2.08-.592v2.097h1.95v1.76h-1.95v3.07c0 .553.055.95.167 1.19.112.24.322.36.632.36.213 0 .397-.022.55-.064a3.84 3.84 0 0 0 .52-.192l.37 1.6a5.327 5.327 0 0 1-1.01.35 4.836 4.836 0 0 1-1.166.145c-.737 0-1.278-.19-1.625-.567-.346-.38-.52-1-.52-1.863v-4.03h-1.103V6.397zm8.555 5.308c0 .373.048.645.143.816.098.17.253.256.466.256.128 0 .253-.01.376-.032a2.37 2.37 0 0 0 .457-.144l.222 1.63c-.17.086-.43.17-.783.257a4.612 4.612 0 0 1-1.088.127c-.608 0-1.072-.14-1.39-.423-.32-.28-.48-.747-.48-1.397V3.198h2.078v8.506zm8.954 2c-.32.255-.754.47-1.303.647a5.703 5.703 0 0 1-1.753.265c-1.29 0-2.233-.375-2.83-1.127-.597-.75-.896-1.783-.896-3.094 0-1.407.337-2.462 1.008-3.166.67-.703 1.614-1.055 2.83-1.055.405 0 .8.053 1.183.16.385.106.726.282 1.024.528.3.246.54.576.72.99.18.418.272.935.272 1.553 0 .224-.014.464-.04.72a9.652 9.652 0 0 1-.12.8h-4.797c.032.67.205 1.177.52 1.518.314.34.823.513 1.526.513.437 0 .83-.067 1.176-.2.346-.134.61-.27.79-.408l.69 1.36zm-2.974-5.87c-.544 0-.946.163-1.208.49-.26.324-.418.76-.47 1.302h2.973c.042-.576-.045-1.018-.264-1.327-.22-.31-.564-.466-1.033-.466zm11.576.72v1.12l-6.172 3.693-.91-1.455 3.58-2.206 1.455-.576-1.44-.48-3.676-2.206.913-1.423 6.252 3.535zm164.18 69.763v-1.12l6.173-3.693.91 1.44-3.58 2.222-1.456.56 1.44.495 3.68 2.19-.91 1.44-6.254-3.532zm10.842 1.87c0 .374.048.646.144.816.096.17.25.256.463.256.128 0 .253-.013.376-.034.12-.02.273-.07.454-.144l.224 1.63c-.172.086-.433.17-.785.257a4.613 4.613 0 0 1-1.087.127c-.608 0-1.07-.142-1.39-.424-.32-.283-.48-.75-.48-1.4V71.68h2.078v8.508zm2.51-4.844a6.835 6.835 0 0 1 1.52-.456 9.78 9.78 0 0 1 1.838-.168c.554 0 1.018.065 1.39.2.374.13.67.32.888.566a2.1 2.1 0 0 1 .464.88c.09.34.136.724.136 1.15 0 .47-.016.94-.048 1.415-.032.476-.05.94-.056 1.4-.005.46.008.904.04 1.336.032.43.112.84.24 1.223h-1.695l-.336-1.104h-.08c-.213.33-.51.615-.887.855-.38.24-.866.36-1.463.36-.373 0-.71-.055-1.008-.167a2.18 2.18 0 0 1-.77-.48 2.204 2.204 0 0 1-.495-.735 2.47 2.47 0 0 1-.176-.953c0-.49.11-.903.327-1.24.22-.335.533-.607.944-.814.41-.207.9-.35 1.47-.43a10.41 10.41 0 0 1 1.91-.07c.077-.6.034-1.028-.126-1.29-.16-.26-.517-.39-1.07-.39a7.33 7.33 0 0 0-1.32.127c-.464.085-.845.197-1.143.336l-.495-1.55zm2.638 5.948c.416 0 .747-.09.992-.28.245-.184.426-.384.543-.6v-1.037a5.745 5.745 0 0 0-.953-.016c-.304.02-.573.07-.808.144a1.36 1.36 0 0 0-.56.32.71.71 0 0 0-.208.528c0 .3.088.53.264.696.176.165.418.248.727.248zm5.34-9.61h2.08v3.84h.063a2.34 2.34 0 0 1 .864-.61 2.99 2.99 0 0 1 1.17-.223c.96 0 1.69.328 2.2.984.504.657.757 1.656.757 3 0 1.44-.354 2.53-1.063 3.277-.71.747-1.682 1.12-2.918 1.12a9.646 9.646 0 0 1-1.87-.168c-.566-.113-.992-.238-1.28-.377v-10.84zm3.567 4.766c-.382 0-.694.1-.934.296-.24.197-.424.482-.552.855v3.486c.17.085.355.144.552.176.197.03.408.046.632.046.565 0 .994-.205 1.287-.616.293-.41.44-1.062.44-1.957 0-1.525-.475-2.287-1.423-2.287zm11.4 5.74c-.32.256-.753.472-1.302.648a5.704 5.704 0 0 1-1.75.264c-1.29 0-2.234-.376-2.83-1.128-.598-.75-.897-1.782-.897-3.094 0-1.407.338-2.462 1.01-3.165.67-.702 1.615-1.054 2.83-1.054.405 0 .8.054 1.183.16.384.107.725.283 1.024.528.298.245.538.575.72.99.18.417.27.934.27 1.552 0 .224-.012.464-.04.72a9.694 9.694 0 0 1-.12.8h-4.796c.033.67.206 1.177.52 1.518.315.34.824.512 1.528.512.437 0 .83-.067 1.175-.2.346-.133.61-.27.792-.408l.687 1.36zm-2.973-5.868c-.544 0-.946.163-1.207.488-.26.325-.42.76-.472 1.303h2.974c.043-.578-.045-1.02-.264-1.33-.218-.31-.562-.463-1.03-.463zm6.843 3.87c0 .373.05.645.144.815.096.17.25.256.464.256.128 0 .253-.013.376-.034.122-.02.274-.07.456-.144l.223 1.63c-.17.086-.43.17-.783.257a4.613 4.613 0 0 1-1.087.127c-.608 0-1.072-.142-1.39-.424-.32-.283-.48-.75-.48-1.4V71.68h2.078v8.508zm9.434-3.15v1.12l-6.172 3.693-.91-1.454 3.58-2.206 1.456-.577-1.44-.48-3.677-2.206.913-1.423 6.252 3.534zM1.007 251.18v-1.12l6.172-3.693.91 1.44-3.58 2.222-1.457.557 1.44.496 3.677 2.19-.91 1.44-6.253-3.534zm13.59 4.557v-4.54c0-.65-.09-1.12-.27-1.408-.182-.29-.512-.434-.992-.434-.35 0-.674.12-.967.36-.293.24-.488.546-.584.92v5.1H9.706v-11.193h2.078v4.094h.064a2.89 2.89 0 0 1 .944-.816c.373-.2.847-.303 1.423-.303.405 0 .762.054 1.07.16.31.107.57.283.777.528.207.245.362.578.463 1 .1.42.152.94.152 1.558v4.973h-2.08zm10.22-.687c-.32.255-.755.47-1.304.647a5.704 5.704 0 0 1-1.75.264c-1.29 0-2.234-.374-2.83-1.126-.598-.75-.897-1.782-.897-3.094 0-1.408.336-2.463 1.008-3.166.67-.704 1.614-1.056 2.83-1.056.405 0 .8.054 1.183.16.384.107.725.283 1.023.528.3.245.54.575.72.99.18.417.272.934.272 1.552 0 .224-.014.464-.04.72a9.694 9.694 0 0 1-.12.8h-4.797c.032.67.205 1.177.52 1.518.314.34.823.512 1.527.512a3.26 3.26 0 0 0 1.175-.2c.346-.133.61-.27.79-.408l.69 1.36zm-2.975-5.87c-.544 0-.946.164-1.207.49-.262.324-.42.758-.472 1.302h2.974c.043-.576-.045-1.018-.264-1.327-.218-.31-.562-.464-1.03-.464zm4.653-.974a6.818 6.818 0 0 1 1.52-.456 9.777 9.777 0 0 1 1.837-.168c.555 0 1.018.067 1.392.2.373.133.668.323.887.568a2.1 2.1 0 0 1 .466.88c.09.34.136.724.136 1.15 0 .47-.015.94-.047 1.415-.032.475-.05.94-.056 1.4-.007.458.007.903.04 1.335.03.43.11.84.24 1.223h-1.7l-.336-1.103h-.08c-.213.33-.51.615-.888.855s-.866.36-1.463.36a2.85 2.85 0 0 1-1.007-.168 2.18 2.18 0 0 1-.767-.48 2.175 2.175 0 0 1-.496-.735 2.47 2.47 0 0 1-.176-.952c0-.49.108-.903.327-1.24.218-.335.533-.606.943-.814.41-.208.9-.352 1.47-.432a10.42 10.42 0 0 1 1.912-.072c.075-.597.032-1.026-.128-1.287-.16-.26-.517-.392-1.07-.392a7.32 7.32 0 0 0-1.32.128c-.464.087-.845.2-1.144.338l-.495-1.55zm2.638 5.948c.416 0 .746-.093.99-.28a1.94 1.94 0 0 0 .545-.6v-1.04a5.747 5.747 0 0 0-.95-.015c-.305.02-.574.067-.81.142-.233.075-.42.18-.56.32a.715.715 0 0 0-.206.528c0 .3.088.53.263.696.176.165.42.248.728.248zm12.137-1.23c0 .446.004.894.015 1.342.01.448.06.943.144 1.487h-1.49l-.288-1.04h-.064c-.213.374-.52.675-.92.904-.4.23-.87.344-1.414.344-1.002 0-1.78-.33-2.335-.99-.554-.66-.83-1.695-.83-3.102 0-1.364.31-2.425.926-3.182.618-.756 1.524-1.135 2.718-1.135.33 0 .603.02.816.057.214.037.427.1.64.184v-3.245h2.08v8.38zm-3.535 1.28c.405 0 .725-.1.96-.298.234-.197.4-.482.495-.855v-3.39a1.596 1.596 0 0 0-.495-.262 2.33 2.33 0 0 0-.704-.088c-.584 0-1.024.196-1.317.59-.293.395-.44 1.072-.44 2.03 0 .684.12 1.233.36 1.648.24.416.62.624 1.143.624zm12.232-4.304v1.12l-6.172 3.694-.91-1.456 3.58-2.206 1.456-.576-1.437-.48-3.678-2.206.91-1.423 6.253 3.534zm-5.564 137.4v-1.12l6.172-3.694.91 1.44-3.58 2.222-1.455.56 1.44.495 3.676 2.19-.91 1.44-6.253-3.534zm15.494 1.742c0 .447.005.895.016 1.343.01.448.058.943.144 1.487H58.57l-.288-1.04h-.064c-.213.374-.52.675-.92.904-.4.23-.87.344-1.415.344-1.002 0-1.78-.33-2.334-.992-.556-.66-.833-1.694-.833-3.102 0-1.364.31-2.425.927-3.18.618-.758 1.524-1.137 2.718-1.137.33 0 .602.017.816.054.212.038.425.1.638.184v-3.247h2.08v8.38zm-3.534 1.28c.405 0 .725-.1.96-.297.234-.197.4-.482.495-.855v-3.39a1.596 1.596 0 0 0-.495-.264 2.33 2.33 0 0 0-.704-.088c-.588 0-1.028.197-1.32.592-.294.394-.44 1.07-.44 2.03 0 .683.12 1.232.36 1.647.24.416.62.624 1.142.624zm5.55-6.462h2.077v7.996h-2.078v-7.995zm-.305-2.253c0-.31.114-.573.344-.792.23-.218.546-.328.95-.328.406 0 .734.11.984.328.25.22.376.482.376.792 0 .31-.125.567-.376.775-.25.208-.578.312-.983.312s-.722-.104-.95-.312a1 1 0 0 1-.345-.775zm7.18 6.443l.27 1.232h.08l.224-1.264 1.36-4.157h2.237l-3.34 8.077h-1.266l-3.47-8.075H67.3l1.487 4.19zm11.735-2.03v1.12l-6.172 3.693-.91-1.455 3.583-2.207 1.455-.574-1.44-.48-3.677-2.206.91-1.424 6.254 3.534zm365.202-51.95v-1.12l6.172-3.693.91 1.44-3.58 2.22-1.456.56 1.44.497 3.68 2.19-.91 1.44-6.254-3.534zm7.962-3.438h1.104v-.448c0-1.012.215-1.745.64-2.198.428-.453 1.046-.68 1.856-.68.853 0 1.562.1 2.127.304l-.4 1.663a3.577 3.577 0 0 0-.648-.168 4.065 4.065 0 0 0-.583-.04c-.212 0-.38.032-.503.096a.592.592 0 0 0-.273.298 1.56 1.56 0 0 0-.112.495 8.526 8.526 0 0 0-.024.68h1.76v1.76h-1.76v6.235h-2.078v-6.236h-1.103v-1.758zm5.485 3.998c0-1.354.33-2.396.99-3.127.662-.73 1.59-1.095 2.783-1.095.64 0 1.194.1 1.663.304.47.202.858.488 1.168.855.31.368.54.813.695 1.335.157.523.234 1.098.234 1.727 0 1.352-.328 2.394-.983 3.124s-1.58 1.096-2.774 1.096c-.64 0-1.193-.1-1.662-.303a3.19 3.19 0 0 1-1.176-.856 3.586 3.586 0 0 1-.703-1.333 6.053 6.053 0 0 1-.232-1.727zm2.143 0c0 .35.03.676.095.975.064.298.16.56.288.783.128.224.296.397.504.52.208.122.456.184.743.184.544 0 .95-.198 1.216-.592.268-.394.4-1.018.4-1.87 0-.736-.12-1.33-.366-1.784-.246-.453-.66-.68-1.248-.68-.51 0-.91.193-1.2.577-.287.383-.43 1.012-.43 1.886zm11.24-2.047a2.688 2.688 0 0 0-.895-.176c-.373 0-.685.098-.936.296-.25.197-.418.45-.503.76v5.164h-2.077v-7.995h1.615l.24 1.055h.064c.182-.394.427-.698.736-.91a1.87 1.87 0 0 1 1.088-.32c.277 0 .59.058.943.175l-.273 1.95zm5.74 6.044v-4.35c0-.735-.07-1.257-.207-1.566-.14-.31-.427-.462-.864-.462-.362 0-.655.098-.88.296-.223.197-.394.45-.51.76v5.324h-2.08v-7.995h1.615l.24 1.055h.062c.245-.34.557-.64.936-.895.377-.256.865-.384 1.462-.384.51 0 .93.103 1.255.31.325.21.578.558.76 1.048.244-.416.56-.746.943-.99.383-.246.847-.37 1.39-.37.448 0 .83.054 1.144.16.314.108.57.29.767.553.2.26.344.61.44 1.048.096.437.144.99.144 1.663v4.798h-2.08v-4.493c0-.63-.065-1.1-.198-1.415-.134-.316-.43-.473-.888-.473-.374 0-.67.1-.888.304-.22.204-.38.48-.488.833v5.245h-2.08zm15.205-5.837v1.12l-6.17 3.693-.912-1.455 3.582-2.206 1.455-.576-1.44-.48-3.677-2.206.912-1.423 6.25 3.534zm-64.708 54.51v-1.12l6.172-3.694.91 1.44-3.58 2.222-1.456.56 1.44.495 3.677 2.19-.91 1.44-6.253-3.534zm8.698-6.637h2.08v3.838h.063c.224-.254.51-.457.863-.606.352-.15.74-.224 1.167-.224.96 0 1.693.327 2.2.983.505.655.758 1.655.758 2.998 0 1.44-.352 2.533-1.06 3.28-.71.746-1.68 1.12-2.92 1.12a9.646 9.646 0 0 1-1.87-.17c-.565-.11-.99-.236-1.28-.375v-10.84zm3.566 4.765c-.384 0-.696.1-.936.296-.24.197-.423.482-.55.855v3.484c.17.085.353.144.55.176.198.033.408.05.632.05.565 0 .994-.206 1.287-.617.29-.41.44-1.063.44-1.958 0-1.525-.477-2.287-1.425-2.287zm7.004-1.568v4.542c0 .65.076 1.12.23 1.407.156.286.457.43.904.43.395 0 .723-.117.984-.35.26-.236.455-.524.583-.865v-5.165h2.08v5.565c0 .438.02.867.065 1.288.043.42.107.802.192 1.143h-1.567l-.37-1.183h-.063a2.98 2.98 0 0 1-1.023 1.007c-.437.267-.954.4-1.55.4a3.44 3.44 0 0 1-1.088-.16 1.79 1.79 0 0 1-.8-.528c-.213-.245-.376-.575-.488-.99-.112-.417-.167-.94-.167-1.568v-4.973h2.08zm5.77 0h1.105v-1.502l2.078-.592v2.095h1.95v1.76h-1.95v3.07c0 .555.056.95.168 1.19.114.24.325.36.634.36.213 0 .397-.02.55-.062a3.84 3.84 0 0 0 .52-.192l.37 1.6a5.27 5.27 0 0 1-1.008.35 4.796 4.796 0 0 1-1.168.145c-.735 0-1.276-.19-1.623-.567-.346-.378-.52-1-.52-1.863v-4.03h-1.103v-1.76zm5.582 0h1.103v-1.502l2.08-.592v2.095h1.95v1.76h-1.95v3.07c0 .555.055.95.167 1.19.11.24.322.36.63.36.214 0 .398-.02.553-.062a3.89 3.89 0 0 0 .52-.192l.367 1.6a5.25 5.25 0 0 1-1.007.35 4.794 4.794 0 0 1-1.167.145c-.736 0-1.277-.19-1.623-.567-.347-.378-.52-1-.52-1.863v-4.03h-1.103v-1.76zm6.028 4c0-1.355.33-2.397.99-3.127.662-.73 1.59-1.096 2.783-1.096.64 0 1.194.102 1.663.304.47.205.858.49 1.167.858.31.367.54.812.696 1.335a6.09 6.09 0 0 1 .23 1.727c0 1.352-.328 2.394-.983 3.124-.656.73-1.58 1.096-2.775 1.096-.64 0-1.194-.102-1.663-.304a3.195 3.195 0 0 1-1.176-.855 3.59 3.59 0 0 1-.703-1.334 6.05 6.05 0 0 1-.23-1.726zm2.142 0c0 .35.032.675.096.974.064.298.16.56.288.783.128.224.296.397.504.52.208.123.456.184.743.184.544 0 .95-.195 1.216-.59.264-.394.397-1.02.397-1.87 0-.736-.122-1.33-.367-1.783-.245-.453-.66-.68-1.247-.68-.51 0-.91.192-1.2.576-.287.383-.43 1.012-.43 1.887zm11.72 3.996v-4.54c0-.65-.093-1.12-.28-1.408-.186-.288-.503-.432-.95-.432-.395 0-.73.115-1 .344-.272.23-.466.514-.583.855v5.18h-2.08v-7.994h1.646l.24 1.057h.064c.246-.34.57-.64.976-.895.405-.255.927-.383 1.567-.383.394 0 .746.053 1.055.16.31.106.57.282.784.527.213.245.373.578.48 1 .106.42.16.94.16 1.558v4.973h-2.08zM490 386.02v1.12l-6.172 3.693-.912-1.455 3.582-2.207 1.455-.574-1.44-.48-3.677-2.206.912-1.424L490 386.02z" fill="#ffc5b6" fill-rule="nonzero"/><g fill-rule="nonzero"><path d="M92.488 148.748v-1.12l6.173-3.692.913 1.44-3.582 2.22-1.454.56 1.44.496 3.677 2.19-.912 1.44-6.25-3.534zm12.008 2.352a.596.596 0 0 0-.27-.513 3.264 3.264 0 0 0-.672-.35c-.267-.108-.56-.217-.88-.33a3.31 3.31 0 0 1-.88-.463 2.547 2.547 0 0 1-.67-.75c-.183-.305-.273-.697-.273-1.176 0-.79.236-1.392.706-1.807.47-.414 1.145-.622 2.03-.622.608 0 1.157.064 1.647.192.49.127.874.27 1.15.43l-.462 1.504a10.522 10.522 0 0 0-.927-.304 4.087 4.087 0 0 0-1.135-.16c-.618 0-.927.24-.927.72 0 .192.09.346.27.463.184.117.408.227.674.328.266.103.56.213.88.33.32.117.613.27.88.456.265.186.49.43.67.727.182.3.272.682.272 1.15 0 .81-.258 1.448-.775 1.912-.516.464-1.29.696-2.326.696a5.678 5.678 0 0 1-1.59-.215c-.496-.144-.9-.312-1.208-.504l.576-1.55c.246.138.57.274.976.408.405.133.82.2 1.247.2.31 0 .558-.06.744-.176.185-.116.28-.314.28-.59zm9.1 1.71a3.5 3.5 0 0 1-1.16.536c-.454.122-.92.184-1.4.184-.64 0-1.18-.102-1.623-.304a2.77 2.77 0 0 1-1.08-.856 3.53 3.53 0 0 1-.598-1.335 7.536 7.536 0 0 1-.185-1.727c0-1.354.304-2.396.912-3.125.608-.73 1.492-1.096 2.655-1.096.585 0 1.057.048 1.414.144.36.098.68.22.97.37l-.496 1.694a4.19 4.19 0 0 0-.728-.27 3.184 3.184 0 0 0-.823-.097c-.575 0-1.013.19-1.31.568-.3.378-.45.983-.45 1.814 0 .34.04.655.113.942.075.29.187.54.336.753.15.214.344.38.584.504.24.12.52.183.84.183.352 0 .65-.044.895-.135.245-.09.464-.2.656-.328l.48 1.583zm5.674-5.548a2.692 2.692 0 0 0-.894-.176c-.374 0-.686.1-.936.295-.25.2-.418.453-.503.76v5.166h-2.08v-7.994h1.616l.24 1.056h.064a2.18 2.18 0 0 1 .735-.912 1.87 1.87 0 0 1 1.087-.32c.276 0 .59.06.942.177l-.272 1.952zm1.392-1.952h2.08v7.995h-2.08v-7.994zm-.304-2.253c0-.31.115-.573.344-.792.23-.22.546-.328.95-.328.406 0 .734.11.985.328.25.22.375.482.375.792a.97.97 0 0 1-.375.775c-.25.208-.58.31-.984.31-.405 0-.722-.102-.95-.31a1.005 1.005 0 0 1-.345-.775zm4.412 2.253h1.52l.24.96h.064c.277-.405.605-.703.984-.895.378-.192.84-.288 1.383-.288 1.004 0 1.755.317 2.256.952.5.63.752 1.652.752 3.06 0 .682-.08 1.297-.24 1.846a3.897 3.897 0 0 1-.71 1.4 3.112 3.112 0 0 1-1.153.88c-.453.2-.972.303-1.56.303-.33 0-.6-.025-.814-.073a2.802 2.802 0 0 1-.64-.232v3.277h-2.08V145.31zm3.567 1.536c-.405 0-.722.1-.95.303-.23.2-.41.505-.537.91v3.326c.15.117.312.21.488.28.176.07.408.104.696.104.596 0 1.044-.21 1.342-.63.3-.422.448-1.117.448-2.088 0-.703-.117-1.247-.352-1.63-.234-.384-.613-.576-1.135-.576zm4.237-1.536h1.103v-1.502l2.08-.592v2.095h1.95v1.76h-1.95v3.07c0 .555.055.95.167 1.19.112.24.323.36.632.36.213 0 .397-.02.55-.062.156-.043.33-.107.52-.192l.368 1.6a5.25 5.25 0 0 1-1.007.35 4.786 4.786 0 0 1-1.167.145c-.736 0-1.276-.19-1.623-.567-.346-.38-.52-1-.52-1.863v-4.03h-1.103v-1.76zm13.288 2.16v1.12l-6.173 3.692-.913-1.455 3.582-2.206 1.454-.574-1.44-.48-3.676-2.206.91-1.424 6.252 3.534z" fill="#ffc5b6"/><path d="M86.028 177.71h2.19v8.187c0 .427-.048.832-.144 1.215a2.817 2.817 0 0 1-.47 1.016 2.393 2.393 0 0 1-.84.703c-.342.18-.757.266-1.248.266-.31 0-.645-.032-1.007-.096a4.134 4.134 0 0 1-.946-.272l.48-1.79c.277.138.59.207.943.207.448 0 .734-.165.856-.496.123-.33.184-.77.184-1.313v-7.627zm9.722 8.715h-3.44l-.848 2.478h-2.19l4.03-11.272h1.614l4.03 11.274h-2.303l-.896-2.478zm-2.88-1.758h2.4l-.832-2.495-.335-1.76h-.08l-.336 1.776-.816 2.48zm9.627-.384l.288 1.902h.08l.32-1.918 2.142-6.556h2.303l-4.157 11.275h-1.568l-4.19-11.273h2.544l2.236 6.573zm10.378 2.142h-3.438l-.848 2.478h-2.193l4.03-11.272h1.615l4.03 11.274h-2.304l-.895-2.478zm-2.88-1.758h2.4l-.832-2.495-.335-1.76h-.08l-.337 1.776-.813 2.48zm11.865 1.23c0-.34-.125-.618-.375-.83a4.134 4.134 0 0 0-.944-.585 37.18 37.18 0 0 0-1.23-.543 6.33 6.33 0 0 1-1.23-.69 3.51 3.51 0 0 1-.944-1.015c-.25-.405-.375-.922-.375-1.55 0-.545.09-1.017.273-1.416.18-.4.44-.734.775-1a3.325 3.325 0 0 1 1.19-.59c.46-.13.97-.194 1.537-.194.65 0 1.263.056 1.838.168.576.112 1.05.274 1.423.487l-.687 1.84c-.236-.15-.588-.285-1.057-.41a6.012 6.012 0 0 0-1.518-.18c-.513 0-.904.1-1.176.302a.965.965 0 0 0-.41.816c0 .32.127.585.377.798.25.214.565.41.944.592.38.18.79.368 1.23.56.444.19.854.423 1.233.695.38.272.693.608.943 1.008s.376.898.376 1.495-.098 1.112-.295 1.544a2.93 2.93 0 0 1-.83 1.08c-.358.286-.79.5-1.296.64a6.344 6.344 0 0 1-1.67.207c-.8 0-1.504-.075-2.11-.225-.61-.15-1.057-.298-1.345-.447l.703-1.87c.117.063.27.133.456.207.186.075.397.144.632.208.234.064.482.118.743.16.26.043.53.065.807.065.65 0 1.148-.11 1.495-.328.347-.22.52-.552.52-1zm11.225 2.543c-.34.245-.776.42-1.303.527a8.13 8.13 0 0 1-1.623.16c-.674 0-1.31-.104-1.913-.31a4.086 4.086 0 0 1-1.59-1.01c-.46-.462-.824-1.064-1.096-1.805-.27-.74-.407-1.64-.407-2.695 0-1.098.152-2.017.456-2.758.303-.743.697-1.34 1.182-1.793a4.358 4.358 0 0 1 1.623-.975 5.68 5.68 0 0 1 1.79-.296c.64 0 1.182.043 1.624.128a5.84 5.84 0 0 1 1.094.304l-.432 1.854a3.145 3.145 0 0 0-.87-.256 7.967 7.967 0 0 0-1.224-.08c-.886 0-1.598.314-2.136.943-.538.63-.807 1.604-.807 2.926 0 .576.064 1.1.192 1.575.126.476.32.88.582 1.217.26.335.586.597.974.783.39.187.84.28 1.352.28.478 0 .883-.048 1.214-.143.33-.096.618-.22.863-.368l.448 1.79zm1.36-10.617a18.62 18.62 0 0 1 1.638-.208 21.895 21.895 0 0 1 1.56-.064c.522 0 1.035.05 1.542.146.507.096.96.26 1.36.495.4.236.72.56.96.97.24.41.36.924.36 1.542 0 .918-.215 1.664-.64 2.24a3.293 3.293 0 0 1-1.712 1.2l.783.494 2.558 4.27h-2.526l-2.542-4.38-1.15-.21v4.59h-2.192v-11.08zm3.357 1.678c-.224 0-.445.008-.663.02-.22.01-.39.03-.506.063v3.246h.927c.61 0 1.094-.14 1.456-.417.363-.277.544-.736.544-1.375 0-.48-.148-.856-.447-1.128-.298-.272-.735-.41-1.31-.41zm6.492-1.79h2.19v11.194h-2.19zm4.333.113c.448-.086.94-.152 1.48-.2a18.086 18.086 0 0 1 1.606-.072c.554 0 1.11.047 1.67.138.56.09 1.064.272 1.512.544.448.272.813.65 1.095 1.136.283.485.424 1.116.424 1.895 0 .704-.123 1.298-.368 1.784a3.4 3.4 0 0 1-.976 1.19 3.92 3.92 0 0 1-1.383.672 6.11 6.11 0 0 1-1.606.207h-.254a9.017 9.017 0 0 1-.744-.032 2.747 2.747 0 0 1-.263-.032v3.853h-2.19v-11.08zm3.262 1.615c-.215 0-.418.008-.61.024a4.832 4.832 0 0 0-.464.056v3.63a4.046 4.046 0 0 0 .744.064h.2c.287 0 .572-.027.854-.08.283-.054.536-.153.76-.297a1.54 1.54 0 0 0 .536-.6c.132-.255.2-.59.2-1.006 0-.354-.065-.644-.193-.874a1.567 1.567 0 0 0-.504-.552 1.972 1.972 0 0 0-.712-.287 4.15 4.15 0 0 0-.814-.08zm13.83.224h-3.262v9.24h-2.19v-9.24h-3.278v-1.95h8.73v1.95z" fill="#fff"/></g></svg>