<?xml version="1.0" standalone="no"?><!DOCTYPE svg PUBLIC "-//W3C//DTD SVG 1.1//EN" "http://www.w3.org/Graphics/SVG/1.1/DTD/svg11.dtd"><svg width="100%" height="100%" viewBox="0 0 1000 1000" version="1.1" xmlns="http://www.w3.org/2000/svg" xmlns:xlink="http://www.w3.org/1999/xlink" xml:space="preserve" style="fill-rule:evenodd;clip-rule:evenodd;stroke-miterlimit:22.926;"><g id="Layer1"><path d="M535.878,459.049l-21.129,-42.654l83.513,-48.04l21.155,42.659c25.038,-8.569 51.415,-13.079 78.285,-13.057l0,73.075c-82.119,-0.032 -158.07,57.308 -183.195,146.358c-30.756,109.019 26.324,224.259 127.499,257.401c18.54,6.072 37.274,8.955 55.696,8.962l0,73.085c-9.573,-0.007 -19.208,-0.589 -28.864,-1.768l-13.059,46.284l-90.587,-29.673l13.059,-46.284c-32.867,-18.319 -60.963,-43.61 -83.184,-73.629l-39.609,22.757l-44.569,-89.998l39.59,-22.782c-10.789,-36.587 -14.632,-75.825 -10.48,-115.448l-42.942,-14.067l27.541,-97.619l42.943,14.066c17.011,-35.396 40.472,-65.686 68.337,-89.628M697.702,397.957c9.571,0.007 19.201,0.59 28.856,1.769l13.057,-46.283l90.586,29.673l-13.056,46.283c32.851,18.314 60.972,43.612 83.193,73.633l39.584,-22.761l44.584,89.999l-39.584,22.766c10.778,36.602 14.623,75.833 10.474,115.458l42.94,14.067l-27.538,97.606l-42.939,-14.065c-17.021,35.408 -40.481,65.701 -68.342,89.645l21.126,42.666l-83.527,48.026l-21.128,-42.652c-25.041,8.563 -51.423,13.069 -78.286,13.051l0,-73.085c82.118,0.029 158.077,-57.305 183.197,-146.346c30.759,-109.028 -26.336,-224.274 -127.509,-257.414c-18.536,-6.071 -37.267,-8.955 -55.688,-8.961l0,-73.075Z" style="fill:#ffa185;fill-rule:nonzero;"/><path d="M105.387,150.469l-12.787,-25.812l50.541,-29.074l12.801,25.816c15.153,-5.185 31.116,-7.915 47.378,-7.901l0,44.223c-49.697,-0.019 -95.662,34.681 -110.867,88.573c-18.613,65.976 15.931,135.717 77.161,155.774c11.22,3.675 22.556,5.42 33.706,5.423l0,44.229c-5.794,-0.005 -11.624,-0.356 -17.469,-1.069l-7.902,28.009l-54.82,-17.956l7.9,-28.011c-19.89,-11.086 -36.892,-26.391 -50.34,-44.559l-23.972,13.772l-26.972,-54.465l23.959,-13.787c-6.528,-22.14 -8.854,-45.887 -6.341,-69.866l-25.987,-8.512l16.666,-59.077l25.988,8.513c10.296,-21.422 24.494,-39.753 41.357,-54.243M203.32,113.498c5.79,0.005 11.619,0.357 17.462,1.07l7.902,-28.009l54.822,17.957l-7.904,28.009c19.882,11.084 36.9,26.394 50.348,44.562l23.956,-13.775l26.98,54.466l-23.955,13.778c6.525,22.15 8.852,45.893 6.34,69.873l25.985,8.511l-16.664,59.071l-25.987,-8.511c-10.3,21.427 -24.498,39.759 -41.357,54.25l12.784,25.82l-50.55,29.066l-12.785,-25.814c-15.156,5.182 -31.121,7.91 -47.377,7.898l0,-44.229c49.695,0.017 95.663,-34.68 110.866,-88.566c18.615,-65.981 -15.938,-135.724 -77.164,-155.781c-11.22,-3.674 -22.554,-5.418 -33.702,-5.423l0,-44.223Z" style="fill:#ffa185;fill-rule:nonzero;"/><path d="M706.444,188.944l199.273,0l33.439,36.031l0,-36.031l0.001,354.631l-232.711,0l-0.002,-354.631Z" style="fill:#fff;"/><path d="M847.787,440.465l0,22.163" style="fill:none;stroke-width:0.96px;stroke:#ccc;"/><path d="M897.761,440.465l0,44.327" style="fill:none;stroke-width:0.96px;stroke:#ccc;"/><rect x="766.312" y="226.928" width="112.976" height="8.659" style="fill:#ccc;"/><rect x="727.803" y="248.577" width="189.996" height="8.659" style="fill:#ccc;"/><rect x="727.804" y="263.728" width="189.996" height="8.659" style="fill:#ccc;"/><rect x="727.804" y="278.883" width="189.996" height="8.659" style="fill:#ccc;"/><rect x="727.804" y="294.035" width="89.042" height="8.659" style="fill:#ccc;"/><path d="M893.159,341.784c13.607,0 24.639,11.886 24.639,26.549c0,14.662 -11.031,26.549 -24.639,26.549c-13.607,0 -24.639,-11.887 -24.639,-26.549c0,-14.663 11.032,-26.549 24.639,-26.549" style="fill:#ef4136;"/><path d="M879.601,390.501c-3.537,-2.516 -6.438,-5.987 -8.381,-10.075l21.939,-12.093l-13.558,22.168Z" style="fill:#fcd8d6;"/><path d="M871.219,380.426c-1.724,-3.626 -2.699,-7.737 -2.699,-12.093c0,-8.489 3.698,-16.047 9.454,-20.906l15.185,20.906l-21.94,12.093Z" style="fill:#f9b3af;"/><path d="M877.973,347.426c4.184,-3.534 9.458,-5.642 15.186,-5.642l0,26.549l-15.186,-20.907Z" style="fill:#f48c85;"/><path d="M893.159,341.784l0,26.549l17.56,-18.621c-4.469,-4.892 -10.684,-7.928 -17.56,-7.928" style="fill:#f2675d;"/><rect x="727.803" y="399.394" width="113.054" height="3.116" style="fill:#ccc;"/><rect x="727.804" y="334.157" width="20.098" height="65.237" style="fill:#4c8eb4;"/><path d="M751.042,358.755l20.096,0l0.002,40.639l-20.098,0l0,-40.639Z" style="fill:#609dc1;"/><rect x="774.28" y="372.517" width="20.098" height="26.877" style="fill:#73accd;"/><rect x="797.52" y="359.915" width="20.098" height="39.479" style="fill:#87bbda;"/><rect x="820.757" y="371.164" width="20.098" height="28.23" style="fill:#9acae6;"/><rect x="870.089" y="399.394" width="10.143" height="3.116" style="fill:#ccc;"/><rect x="884.93" y="399.394" width="30.129" height="3.116" style="fill:#ccc;"/><path d="M905.716,224.975l33.44,0l-33.44,-36.032l0,36.032Z" style="fill:#ccc;"/><rect x="727.804" y="433.876" width="40.076" height="13.178" style="fill:#ef4136;"/><rect x="777.912" y="433.876" width="40.076" height="13.178" style="fill:#9acae6;"/><rect x="827.75" y="433.876" width="40.076" height="13.178" style="fill:#609dc1;"/><rect x="877.724" y="433.876" width="40.076" height="13.178" style="fill:#9acae6;"/><rect x="727.804" y="456.038" width="40.076" height="13.178" style="fill:#f2675d;"/><rect x="727.804" y="478.202" width="40.076" height="13.178" style="fill:#f48c85;"/><rect x="727.804" y="500.365" width="40.076" height="13.178" style="fill:#fcd8d6;"/><rect x="827.75" y="456.038" width="40.076" height="13.178" style="fill:#609dc1;"/><rect x="877.724" y="456.038" width="40.076" height="13.178" style="fill:#9acae6;"/><rect x="877.724" y="478.202" width="40.076" height="13.178" style="fill:#9acae6;"/><path d="M229.161,419.1l500.314,0c10.228,0 18.592,9.014 18.592,20.033l0,340.577c0,11.019 -8.364,20.034 -18.592,20.034l-500.314,0c-10.226,0 -18.592,-9.015 -18.592,-20.034l0,-340.577c0,-11.019 8.366,-20.033 18.592,-20.033" style="fill:#808080;"/><rect x="238.457" y="458.844" width="481.721" height="278.652" style="fill:#fff;"/><rect x="467.888" y="754.844" width="22.857" height="24.629" style="fill:#ccc;"/><path d="M210.569,799.744l537.499,0l93.355,65.933l-724.21,0l93.356,-65.933Z" style="fill:#808080;"/><path d="M117.213,865.679l724.21,0l0,22.468c0,7.962 -6.047,14.477 -13.437,14.477l-697.336,0c-7.39,0 -13.437,-6.515 -13.437,-14.477l0,-22.468Z" style="fill:#4d4d4d;"/><rect x="406.175" y="884.823" width="146.284" height="10.051" style="fill:#808080;"/><rect x="117.214" y="865.68" width="724.209" height="11.232" style="fill:#666;"/><path d="M232.565,837.809l-1.32,1.069l1.32,-0.002l0,-1.067ZM232.565,824.406l0,1.005c-2.73,2.08 -5.432,4.152 -8.158,6.246c-3.13,2.402 -6.23,4.835 -9.413,7.249c-15.776,0.032 -31.485,0.054 -47.195,0.084c3.724,-2.427 7.381,-4.852 11.038,-7.277c3.657,-2.423 7.312,-4.856 11.037,-7.286c14.187,-0.004 28.438,-0.015 42.691,-0.021M232.565,804.226l0,14.544c-11.407,0 -22.803,0.003 -34.158,-0.002c3.587,-2.423 7.312,-4.85 10.967,-7.273c3.656,-2.427 7.314,-4.856 11.038,-7.288l12.153,0.019ZM158.726,845.019l73.839,-0.163l0,14.413c-31.971,0.102 -63.943,0.203 -95.912,0.304c3.724,-2.425 7.38,-4.848 11.037,-7.275c3.656,-2.423 7.312,-4.85 11.036,-7.279M232.565,825.411l1.321,-1.005l-1.321,0l0,1.005ZM257.992,824.387l0,14.443l-25.427,0.046l0,-1.067c2.545,-2.054 5.094,-4.101 7.618,-6.167c2.927,-2.397 5.891,-4.835 8.871,-7.249l8.938,-0.006ZM257.992,817.093c-0.681,0.557 -1.36,1.114 -2.032,1.67l2.032,0l0,-1.67ZM257.992,804.259l0,1.558c-2.479,1.906 -4.92,3.815 -7.381,5.704c-3.167,2.431 -6.365,4.83 -9.413,7.247l-8.633,0.002l0,-14.544c8.476,0.014 16.952,0.023 25.427,0.033M232.565,844.856l25.427,-0.056l0,14.388l-25.427,0.081l0,-14.413ZM593.842,804.7c13.204,0.017 26.407,0.034 39.678,0.051c1.83,2.336 3.638,4.674 5.417,6.986c1.808,2.346 3.657,4.651 5.418,6.983c-14.286,0 -28.642,0.005 -42.86,0.005c-1.289,-2.337 -2.563,-4.648 -3.861,-7.003c-1.274,-2.312 -2.506,-4.68 -3.792,-7.022M540.486,804.628c13.203,0.017 26.474,0.033 39.679,0.055c1.15,2.347 2.207,4.701 3.317,7.026c1.125,2.354 2.167,4.679 3.318,7.016c-14.354,0.004 -28.642,0.004 -42.929,0.004c-0.541,-2.347 -1.116,-4.688 -1.693,-7.04c-0.574,-2.341 -1.152,-4.702 -1.692,-7.061M487.128,804.563c13.204,0.014 26.408,0.031 39.679,0.048c0.408,2.358 0.781,4.721 1.152,7.065c0.373,2.357 0.813,4.706 1.151,7.053c-14.288,0.008 -28.507,0.008 -42.794,0.013c0.135,-2.366 0.271,-4.729 0.406,-7.089c0.134,-2.356 0.271,-4.727 0.406,-7.09M433.772,804.49c13.204,0.016 26.408,0.033 39.679,0.05c-0.338,2.375 -0.644,4.736 -0.948,7.104c-0.305,2.366 -0.678,4.727 -0.948,7.093c-14.288,0.005 -28.574,0.005 -42.794,0.009c0.811,-2.375 1.695,-4.749 2.506,-7.119c0.813,-2.376 1.692,-4.755 2.505,-7.137M380.415,804.419c13.204,0.015 26.475,0.037 39.678,0.054c-1.016,2.386 -2.033,4.766 -3.046,7.143c-1.015,2.38 -2.099,4.75 -3.047,7.13c-14.355,0.005 -28.642,0 -42.862,0.005c1.488,-2.385 3.045,-4.774 4.605,-7.163c1.554,-2.382 3.046,-4.772 4.672,-7.169M327.057,804.352c13.204,0.017 26.476,0.032 39.747,0.05c-1.76,2.397 -3.52,4.789 -5.213,7.18c-1.693,2.391 -3.521,4.778 -5.215,7.169c-14.286,0.006 -28.572,0.006 -42.861,0.012c2.235,-2.403 4.539,-4.8 6.772,-7.198c2.236,-2.399 4.468,-4.81 6.77,-7.213M604.472,824.173c14.694,-0.011 29.388,-0.022 44.081,-0.028c1.76,2.331 3.587,4.657 5.416,6.987c1.829,2.326 3.658,4.645 5.418,6.975c-15.776,0.03 -31.553,0.058 -47.262,0.083c-1.22,-2.335 -2.548,-4.684 -3.792,-7.003c-1.26,-2.348 -2.64,-4.678 -3.861,-7.014M545.225,824.205c14.694,-0.006 29.388,-0.017 44.147,-0.021c1.016,2.341 2.169,4.683 3.251,7.02c1.084,2.342 2.234,4.679 3.319,7.015c-15.777,0.033 -31.555,0.061 -47.263,0.087c-0.542,-2.352 -1.122,-4.705 -1.694,-7.042c-0.577,-2.356 -1.218,-4.705 -1.76,-7.059M486.045,824.244c14.625,-0.011 29.319,-0.015 44.013,-0.028c0.338,2.36 0.744,4.713 1.15,7.065c0.407,2.352 0.813,4.701 1.151,7.053c-15.776,0.028 -31.485,0.056 -47.194,0.084c0.204,-2.358 0.372,-4.721 0.473,-7.081c0.101,-2.358 0.203,-4.722 0.407,-7.093M426.799,824.283c14.691,-0.011 29.318,-0.017 44.011,-0.028c-0.339,2.371 -0.643,4.73 -0.947,7.104c-0.304,2.36 -0.61,4.729 -0.949,7.092c-15.777,0.028 -31.486,0.056 -47.196,0.084c0.882,-2.376 1.726,-4.737 2.573,-7.12c0.844,-2.368 1.625,-4.751 2.508,-7.132M367.482,824.316c14.692,-0.004 29.386,-0.01 44.148,-0.021c-1.084,2.38 -2.097,4.762 -3.115,7.142c-1.014,2.375 -2.03,4.75 -3.047,7.124c-15.778,0.034 -31.553,0.057 -47.262,0.09c1.557,-2.392 3.141,-4.764 4.672,-7.158c1.516,-2.379 3.047,-4.785 4.604,-7.177M308.302,824.356c14.625,-0.006 29.387,-0.017 44.079,-0.023c-1.76,2.392 -3.477,4.77 -5.213,7.175c-1.716,2.379 -3.452,4.783 -5.213,7.171c-15.777,0.033 -31.554,0.061 -47.263,0.087c2.301,-2.403 4.554,-4.785 6.838,-7.203c2.251,-2.383 4.471,-4.799 6.772,-7.207M484.827,844.287c16.181,-0.034 32.297,-0.071 48.548,-0.11c0.339,2.358 0.745,4.711 1.152,7.059c0.407,2.352 0.812,4.705 1.218,7.054c-17.266,0.055 -34.464,0.109 -51.664,0.165c0.136,-2.358 0.238,-4.718 0.338,-7.081c0.102,-2.36 0.271,-4.718 0.408,-7.087M257.992,805.817c0.674,-0.519 1.35,-1.038 2.031,-1.555l-2.031,-0.003l0,1.558ZM257.992,818.763l0,-1.67c2.265,-1.848 4.561,-3.697 6.838,-5.561c2.928,-2.395 5.892,-4.833 8.871,-7.253c13.203,0.018 26.408,0.032 39.679,0.056c-2.438,2.408 -4.875,4.812 -7.313,7.214c-2.438,2.403 -4.943,4.805 -7.312,7.208c-13.607,0.005 -27.216,0.006 -40.763,0.006M257.992,838.83l0,-14.443c11.696,-0.008 23.377,-0.011 35.143,-0.02c-2.507,2.408 -4.944,4.816 -7.38,7.219c-2.438,2.403 -4.808,4.8 -7.314,7.21l-20.449,0.034ZM701.232,843.801l0,13.956l-17.605,0.056c-43.332,0.138 -86.738,0.283 -130.074,0.42c-0.608,-2.346 -1.15,-4.695 -1.76,-7.042c-0.608,-2.348 -1.152,-4.695 -1.692,-7.048c40.695,-0.094 81.388,-0.185 122.083,-0.277l29.048,-0.065ZM701.232,824.112l0,13.919l-25.595,0.044c-1.962,-2.32 -3.907,-4.659 -5.891,-6.966c-2.011,-2.338 -4.061,-4.651 -5.958,-6.975c12.446,-0.011 24.941,-0.016 37.444,-0.022M701.232,818.072c-2.223,-2.102 -4.497,-4.202 -6.77,-6.302c-2.503,-2.309 -5.079,-4.628 -7.584,-6.947c-13.271,-0.018 -26.476,-0.035 -39.679,-0.058c2.032,2.332 3.976,4.678 5.959,6.984c2.01,2.337 3.995,4.645 5.957,6.971c13.995,-0.006 28.057,-0.006 42.117,-0.006l0,-0.642ZM701.232,804.84l0,0.578l-0.678,-0.58l0.678,0.002ZM257.992,844.8l55.388,-0.125c51.528,-0.116 103.125,-0.233 154.789,-0.351c-0.338,2.371 -0.643,4.738 -0.947,7.1c-0.306,2.367 -0.678,4.729 -0.948,7.091c-54.983,0.177 -109.966,0.356 -164.879,0.533l-43.403,0.14l0,-14.388ZM722.967,824.095c14.694,-0.005 29.389,-0.017 44.149,-0.028c3.182,2.304 6.444,4.594 9.682,6.911c3.194,2.283 6.433,4.596 9.617,6.898c-15.778,0.033 -31.555,0.06 -47.264,0.088c-2.708,-2.316 -5.404,-4.637 -8.057,-6.925c-2.696,-2.327 -5.485,-4.631 -8.127,-6.944M701.232,805.418c2.484,2.128 4.968,4.248 7.448,6.364c2.709,2.307 5.35,4.617 7.99,6.926c14.289,0 28.576,0 42.93,-0.005c-3.182,-2.304 -6.375,-4.589 -9.615,-6.905c-3.192,-2.284 -6.433,-4.6 -9.682,-6.909l-39.071,-0.049l0,0.578ZM701.232,818.714l0,-0.642l0.679,0.642l-0.679,0ZM701.232,838.031l0,-13.919l6.569,-0.005c2.505,2.318 5.046,4.603 7.584,6.946c2.472,2.284 5.01,4.625 7.448,6.939l-21.601,0.039ZM701.232,857.757l0,-13.956l93.173,-0.211c3.249,2.308 6.434,4.606 9.682,6.903c3.252,2.301 6.432,4.602 9.684,6.898c-37.528,0.126 -75.056,0.247 -112.539,0.366" style="fill:#ccc;"/><rect x="238.455" y="76.514" width="481.721" height="48.423" style="fill:#fff;"/><rect x="238.457" y="114.483" width="475.203" height="10.455" style="fill:#ffcd61;"/><rect x="238.457" y="91.469" width="5.082" height="33.468" style="fill:#ffcd61;"/><rect x="250.018" y="100.803" width="1.832" height="24.135" style="fill:#ffcd61;"/><rect x="258.88" y="100.803" width="1.832" height="24.135" style="fill:#ffcd61;"/><rect x="267.743" y="100.803" width="1.832" height="24.135" style="fill:#ffcd61;"/><rect x="276.606" y="100.803" width="1.832" height="24.135" style="fill:#ffcd61;"/><rect x="285.469" y="91.469" width="5.081" height="33.468" style="fill:#ffcd61;"/><rect x="297.03" y="100.803" width="1.832" height="24.135" style="fill:#ffcd61;"/><rect x="305.892" y="100.803" width="1.832" height="24.135" style="fill:#ffcd61;"/><rect x="314.756" y="100.803" width="1.832" height="24.135" style="fill:#ffcd61;"/><rect x="323.618" y="100.803" width="1.832" height="24.135" style="fill:#ffcd61;"/><rect x="332.482" y="91.469" width="5.082" height="33.468" style="fill:#ffcd61;"/><rect x="344.041" y="100.803" width="1.832" height="24.135" style="fill:#ffcd61;"/><rect x="352.905" y="100.803" width="1.832" height="24.135" style="fill:#ffcd61;"/><rect x="361.767" y="100.803" width="1.832" height="24.135" style="fill:#ffcd61;"/><rect x="370.631" y="100.803" width="1.832" height="24.135" style="fill:#ffcd61;"/><rect x="379.493" y="91.469" width="5.081" height="33.468" style="fill:#ffcd61;"/><rect x="391.055" y="100.803" width="1.832" height="24.135" style="fill:#ffcd61;"/><rect x="399.917" y="100.803" width="1.832" height="24.135" style="fill:#ffcd61;"/><rect x="408.781" y="100.803" width="1.832" height="24.135" style="fill:#ffcd61;"/><rect x="417.641" y="100.803" width="1.832" height="24.135" style="fill:#ffcd61;"/><rect x="426.507" y="91.469" width="5.082" height="33.468" style="fill:#ffcd61;"/><rect x="438.066" y="100.803" width="1.832" height="24.135" style="fill:#ffcd61;"/><rect x="446.93" y="100.803" width="1.832" height="24.135" style="fill:#ffcd61;"/><rect x="455.792" y="100.803" width="1.832" height="24.135" style="fill:#ffcd61;"/><rect x="464.656" y="100.803" width="1.832" height="24.135" style="fill:#ffcd61;"/><rect x="473.518" y="91.469" width="5.081" height="33.468" style="fill:#ffcd61;"/><rect x="485.079" y="100.803" width="1.832" height="24.135" style="fill:#ffcd61;"/><rect x="493.94" y="100.803" width="1.832" height="24.135" style="fill:#ffcd61;"/><rect x="502.804" y="100.803" width="1.832" height="24.135" style="fill:#ffcd61;"/><rect x="511.666" y="100.803" width="1.832" height="24.135" style="fill:#ffcd61;"/><rect x="520.53" y="91.469" width="5.082" height="33.468" style="fill:#ffcd61;"/><rect x="532.09" y="100.803" width="1.832" height="24.135" style="fill:#ffcd61;"/><rect x="540.953" y="100.803" width="1.832" height="24.135" style="fill:#ffcd61;"/><path d="M551.649,124.938l-0.001,-24.135l-1.831,0l0,24.135l1.832,0Z" style="fill:#ffcd61;"/><rect x="558.678" y="100.803" width="1.832" height="24.135" style="fill:#ffcd61;"/><rect x="567.543" y="91.469" width="5.081" height="33.468" style="fill:#ffcd61;"/><rect x="579.103" y="100.803" width="1.832" height="24.135" style="fill:#ffcd61;"/><rect x="587.965" y="100.803" width="1.832" height="24.135" style="fill:#ffcd61;"/><path d="M598.662,124.938l-0.002,-24.135l-1.831,0l0,24.135l1.833,0Z" style="fill:#ffcd61;"/><rect x="605.691" y="100.803" width="1.832" height="24.135" style="fill:#ffcd61;"/><rect x="614.555" y="91.469" width="5.081" height="33.468" style="fill:#ffcd61;"/><rect x="626.115" y="100.803" width="1.832" height="24.135" style="fill:#ffcd61;"/><rect x="634.978" y="100.803" width="1.832" height="24.135" style="fill:#ffcd61;"/><rect x="643.84" y="100.803" width="1.832" height="24.135" style="fill:#ffcd61;"/><rect x="652.703" y="100.803" width="1.832" height="24.135" style="fill:#ffcd61;"/><rect x="661.568" y="91.469" width="5.081" height="33.468" style="fill:#ffcd61;"/><rect x="673.126" y="100.803" width="1.832" height="24.135" style="fill:#ffcd61;"/><rect x="681.99" y="100.803" width="1.832" height="24.135" style="fill:#ffcd61;"/><rect x="690.852" y="100.803" width="1.832" height="24.135" style="fill:#ffcd61;"/><rect x="699.716" y="100.803" width="1.832" height="24.135" style="fill:#ffcd61;"/><rect x="708.58" y="91.469" width="5.081" height="33.468" style="fill:#ffcd61;"/><path d="M128.544,533.969l25.502,0.176l-0.478,178.185l-25.501,-0.175l0.477,-178.186Z" style="fill:#fff;"/><path d="M133.499,541.997l-0.435,162.198l15.551,0.107l0.434,-162.197l-15.55,-0.108Z" style="fill:#87bbda;"/><path d="M157.549,489.27c8.841,5.888 14.717,16.447 14.667,28.466c-0.074,18.375 -13.956,33.209 -31.013,33.128c-17.053,-0.076 -30.818,-15.038 -30.745,-33.414c0.049,-12.022 6.007,-22.524 14.896,-28.329l-0.079,18.817l-0.036,10.014l8.025,5.044l8.033,5.047l8.069,-4.972l8.068,-4.968l0.04,-10.016l0.075,-18.817Z" style="fill:#fff;"/><path d="M156.759,751.192c8.89,-5.805 14.847,-16.31 14.898,-28.329c0.072,-18.375 -13.694,-33.335 -30.748,-33.414c-17.054,-0.081 -30.938,14.752 -31.013,33.128c-0.046,12.021 5.828,22.577 14.668,28.464l0.075,-18.815l0.042,-10.014l8.067,-4.97l8.069,-4.972l8.032,5.044l8.024,5.047l-0.036,10.015l-0.078,18.816Z" style="fill:#fff;"/><path d="M161.787,739.054c3.11,-4.64 4.869,-10.281 4.893,-16.214c0.061,-15.413 -11.486,-27.964 -25.792,-28.031c-14.308,-0.065 -25.954,12.375 -26.016,27.791c-0.024,5.935 1.691,11.587 4.763,16.26l0.08,-19.767l21.128,-13.012l21.022,13.207l-0.078,19.766Z" style="fill:#87bbda;"/><path d="M120.328,500.996c-3.111,4.64 -4.87,10.28 -4.893,16.213c-0.062,15.417 11.481,27.964 25.793,28.03c14.308,0.066 25.953,-12.374 26.012,-27.791c0.026,-5.931 -1.69,-11.589 -4.763,-16.258l-0.08,19.768l-21.125,13.012l-21.022,-13.208l0.078,-19.766Z" style="fill:#87bbda;"/><path d="M808.903,517.964l-11.737,-28.694l-11.737,28.694l-0.002,226.328c0.002,3.795 2.882,6.9 6.403,6.9l10.671,0c3.521,0 6.402,-3.105 6.402,-6.9l0,-226.328Z" style="fill:#ffeec9;"/><path d="M808.904,517.964l-11.739,-28.694l5.093,29.84l-0.002,232.082l0.245,0c3.521,0 6.401,-3.105 6.401,-6.899l0.002,-226.329Z" style="fill:#ffcd61;"/><path d="M808.903,517.964l-11.737,-28.694l-11.737,28.694l0,216.17c8.265,1.516 16.037,1.448 23.474,0l0,-216.17Z" style="fill:#c0f7fc;"/><path d="M808.904,517.964l-11.739,-28.694l5.093,29.84l-0.002,216.134c4.015,0.013 2.83,-0.366 6.646,-1.11l0.002,-216.17Z" style="fill:#a2edf4;"/><path d="M808.903,517.964l-11.737,-28.694l-11.737,28.694l0,208.102c8.31,1.621 16.079,1.548 23.474,0l0,-208.102Z" style="fill:#87bbda;"/><path d="M808.874,518.879l-11.646,-28.469l5.789,28.506l0,207.251c3.996,0.013 2.082,0.712 5.857,-0.079l0,-207.209Z" style="fill:#4c8eb4;"/><path d="M808.903,517.963l-11.737,-28.693l-11.736,28.693c3.728,0.746 7.664,1.147 11.736,1.147c4.071,0 8.008,-0.401 11.737,-1.147" style="fill:#fff;"/><path d="M808.903,517.964l-11.737,-28.694l5.893,29.84c4.072,0 2.115,-0.4 5.844,-1.146" style="fill:#ccc;"/><path d="M801.044,498.75l-3.877,-9.48l-3.879,9.48c1.233,0.247 2.532,0.379 3.879,0.379c1.343,0 2.645,-0.132 3.877,-0.379" style="fill:#4d4d4d;"/><rect x="121.018" y="137.056" width="138.069" height="52.739" style="fill:#609dc1;"/><rect x="856.611" y="573.784" width="99.199" height="52.737" style="fill:#666;"/><path d="M113.168,314.586l-4.764,0.449l-0.635,-7.8c-4.89,-0.685 -9.658,-2.304 -14.025,-4.773l-4.675,6.001l-13.78,-12.46l4.674,-6.001c-3.039,-4.235 -5.32,-8.954 -6.795,-14.062l-7.24,0.683l-1.566,-19.311l7.237,-0.682c0.636,-5.308 2.127,-10.377 4.429,-15.117l-5.565,-5.038l11.56,-14.848l5.571,5.035c3.928,-3.27 8.311,-5.726 13.049,-7.317l-0.633,-7.803l13.158,-1.238l0,21.86c-8.17,-0.003 -16.083,3.842 -21.52,10.819c-9.957,12.79 -8.402,31.921 3.461,42.649c2.926,2.646 6.249,4.592 9.871,5.779c2.703,0.885 5.459,1.316 8.188,1.316l0,21.859ZM150.312,283.379l5.566,5.034l-11.57,14.848l-5.566,-5.037c-3.932,3.272 -8.306,5.731 -13.045,7.324l0.629,7.8l-13.158,1.238l0,-21.859c8.171,0.003 16.083,-3.844 21.521,-10.822c9.954,-12.788 8.407,-31.916 -3.46,-42.646c-2.93,-2.647 -6.254,-4.594 -9.872,-5.779c-2.703,-0.885 -5.459,-1.316 -8.189,-1.316l0,-21.86l4.763,-0.448l0.631,7.799c4.889,0.683 9.662,2.304 14.035,4.774l4.671,-6.001l13.783,12.46l-4.672,6.001c3.034,4.238 5.315,8.954 6.79,14.062l7.243,-0.683l1.566,19.313l-7.246,0.677c-0.629,5.308 -2.117,10.382 -4.42,15.121" style="fill:#808080;fill-rule:nonzero;"/><path d="M880.382,61.168c11.431,2.524 19.982,11.899 19.982,22.997c0,11.408 -8.862,23.192 -20.947,23.192l-53.121,0c-12.934,0 -22.903,-11.166 -22.903,-23.192c0,-11.098 8.55,-20.473 19.982,-22.997c-0.007,-0.222 -0.01,-0.445 -0.01,-0.668c0,-14.258 12.766,-25.818 28.513,-25.818c15.746,0 28.514,11.56 28.514,25.818c0,0.223 -0.004,0.446 -0.01,0.668" style="fill:#ffbba6;"/><path d="M837.847,51.774c7.987,1.763 13.964,8.314 13.964,16.069c0,7.973 -6.195,16.208 -14.639,16.208l-37.12,0c-9.038,0 -16.005,-7.805 -16.005,-16.208c0,-7.755 5.975,-14.306 13.962,-16.069c-0.004,-0.155 -0.006,-0.311 -0.006,-0.468c0,-9.962 8.92,-18.04 19.925,-18.04c11.003,0 19.925,8.078 19.925,18.04c0,0.157 -0.003,0.313 -0.006,0.468" style="fill:#fff;"/><rect x="137.229" y="345.432" width="194.787" height="52.737" style="fill:#ef4136;"/><text x="144.375px" y="176.278px" style="font-family:PT Sans;font-size:33.119px;font-weight:700;fill:#fff;">H<tspan x="164.385px 181.843px 206.433px 222.231px " y="176.278px 176.278px 176.278px 176.278px ">TML5</tspan></text><text x="874.581px" y="613.004px" style="font-family:PT Sans;font-size:33.119px;font-weight:700;fill:#fff;">C<tspan x="891.763px 908.053px 924.344px " y="613.004px 613.004px 613.004px ">SS3</tspan></text><text x="225.269px" y="23.183px" style="font-family:PT Sans;font-size:33.119px;font-weight:700;fill:#ffc5b6;">&lt;<tspan x="241.467px 252.194px 260.463px 271.19px 280.226px 295.84px " y="23.183px 23.183px 23.183px 23.183px 23.183px 23.183px ">title&gt;</tspan></text><text x="625.184px" y="165.033px" style="font-family:PT Sans;font-size:33.119px;font-weight:700;fill:#ffc5b6;">&lt;<tspan x="641.382px 650.419px 665.664px 682.139px 697.753px 706.79px " y="165.033px 165.033px 165.033px 165.033px 165.033px 165.033px ">label&gt;</tspan></text><text x="0px" y="523.085px" style="font-family:PT Sans;font-size:33.119px;font-weight:700;fill:#ffc5b6;">&lt;<tspan x="16.198px 32.95px 48.564px 63.809px 80.376px " y="523.085px 523.085px 523.085px 523.085px 523.085px ">head&gt;</tspan></text><text x="83.419px" y="805.029px" style="font-family:PT Sans;font-size:33.119px;font-weight:700;fill:#ffc5b6;">&lt;<tspan x="99.618px 116.185px 124.453px 139.114px " y="805.029px 805.029px 805.029px 805.029px ">div&gt;</tspan></text><text x="854.879px" y="694.775px" style="font-family:PT Sans;font-size:33.119px;font-weight:700;fill:#ffc5b6;">&lt;<tspan x="871.077px 880.944px 897.449px 908.238px 932.981px " y="694.775px 694.775px 694.775px 694.775px 694.775px ">form&gt;</tspan></text><text x="822.329px" y="805.029px" style="font-family:PT Sans;font-size:33.119px;font-weight:700;fill:#ffc5b6;">&lt;<tspan x="838.527px 855.002px 871.538px 882.265px 892.992px 909.498px 926.25px " y="805.029px 805.029px 805.029px 805.029px 805.029px 805.029px 805.029px ">button&gt;</tspan></text><g transform="matrix(1.44172,0,0,1.55348,-97.3133,-100.865)"><text x="189.473px" y="265.072px" style="font-family:PT Sans;font-size:21.319px;font-weight:700;fill:#ffc5b6;">&lt;script&gt; </text><text x="178.918px" y="312.536px" style="font-family:PT Sans;font-size:21.319px;font-weight:700;fill:#fff;">JA<tspan x="197.488px 208.872px 221.77px " y="312.536px 312.536px 312.536px ">VAS</tspan>CRIPT</text></g></g></svg>