<svg viewBox="0 0 693 665" xmlns="http://www.w3.org/2000/svg" fill-rule="evenodd" clip-rule="evenodd" stroke-linejoin="round" stroke-miterlimit="1.414"><path d="M401.58 434.29l36.06-6.03-35.82-22.147 9.668-9.75-.748-.4c-.072-.04-7.05-3.767-13.867-6.952l21.743-28.977-43.97 2.693 1.633-14.128-1.276.71s-5.28 2.92-10.834 6.034l-17.205-46.952-17.322 33.93-7.422-12.676-.553 1.046c-.057.107-5.516 10.436-8.692 20.05l-35.823-37.592 9.265 43.186c-9.08-4.112-17.597-8.307-17.685-8.35l-1.186-.586 4.68 20.506-49.166.962 43.035 25.307c-11.68 5.843-25.584 13.29-25.727 13.366l-1.26.672 51.967 12.555-7.118 28.13 34.236-9.108 4.41 16.256 17.335-12.408 44.532 35.364.87-31.692 22.152 7.023-5.912-20.042z" fill-rule="nonzero"/><path d="M400.15 427.94l35.263-5.898-35.21-21.767 9.63-9.714s-7.464-3.99-14.56-7.27l21.354-28.462-43.37 2.655 1.568-13.553s-5.782 3.2-11.608 6.472l-16.934-46.21-17.164 33.62-7.436-12.692s-5.84 11-8.973 20.954l-35.066-36.798 9.05 42.192a665.776 665.776 0 0 1-18.842-8.872l4.563 20-47.944.935 42.27 24.856c-11.973 5.965-26.557 13.78-26.557 13.78l51.098 12.344-6.99 27.62 33.758-8.98 4.322 15.927 16.89-12.092 43.943 34.894.855-31.243 21.882 6.936-5.79-19.632z" fill="#e71724" fill-rule="nonzero"/><path d="M296.82 410.74L251 399.67c5.218-2.744 12.455-6.51 18.86-9.7l5.07-2.525-37.672-22.152 40.608-.79-3.887-17.035a611.91 611.91 0 0 0 11.91 5.524l6.78 3.048-7.77-36.225 30.555 32.064 1.86-5.903c1.546-4.904 3.808-10.15 5.603-14.015l7.364 12.576L346.5 312.77l15.302 41.76s7.345-4.12 8.608-4.824l-1.17 10.096 39.754-2.43-19.03 25.36 4.454 2.057c3.392 1.568 6.905 3.32 9.75 4.772l-9.367 9.444 31.538 19.5-30.473 5.097 5.067 17.177-20.25-6.418-.782 28.545-40.39-32.075-14.235 10.192-3.784-13.942-30.883 8.215 6.213-24.556z" fill="#fc9d06" fill-rule="nonzero"/><path d="M298.05 410.172l-6.02 23.792 30.164-8.026 3.648 13.447 13.574-9.716 39.504 31.37.762-27.872 19.84 6.288-4.885-16.563 29.275-4.898-30.617-18.93 9.29-9.37a267.185 267.185 0 0 0-8.536-4.157l-5.57-2.573 18.45-24.584-38.85 2.377 1.07-9.225c-2.603 1.456-6.69 3.75-6.69 3.75l-1.167.656L346.4 315.29l-15.982 31.304-7.32-12.494c-1.563 3.474-3.45 7.986-4.79 12.23l-2.324 7.374-29.426-30.88 7.45 34.732-8.474-3.808a587.654 587.654 0 0 1-10.182-4.704l3.723 16.31-38.774.753 36.52 21.477-6.34 3.155c-5.707 2.843-12.065 6.14-16.922 8.685l44.492 10.747zm-8.867 26.46l6.408-25.324-47.152-11.39 1.917-1.01c5.02-2.637 12.367-6.464 18.88-9.71l3.8-1.892-38.82-22.83 42.443-.825-4.054-17.76 1.758.834a609.108 609.108 0 0 0 11.884 5.513l5.086 2.285-8.09-37.715 31.682 33.247 1.395-4.427c1.588-5.046 3.94-10.45 5.632-14.095l.787-1.698 7.407 12.647 16.453-32.228 15.71 42.872c2.125-1.193 6.492-3.643 7.438-4.17l1.92-1.07-1.266 10.964 40.654-2.485-19.61 26.134 3.34 1.542a280.626 280.626 0 0 1 9.797 4.795l1.16.594-9.438 9.518 32.455 20.066-31.67 5.3 5.248 17.79-20.657-6.55-.8 29.222-41.278-32.782-14.9 10.67-3.918-14.44-31.6 8.407z" fill-rule="nonzero"/><path d="M308.814 404.197l-33.297-7.686 17.825-9.592-26.825-16.105 23.726-1.037-2.18-11.067 18.414 8.317-4.305-23.453 19.734 21.744 5.38-16.746 5.987 11 14.792-29.33 12.223 33.96 31.66-2.76-14.163 19.48 13.103 6.094-8.78 9.252 22.857 14.463-19.56 3.87 3.143 12.018-16.476-5.12-1.14 23.53-31.818-26.188-8.256 6.275-2.335-9.785-24.568 7.365 4.86-18.498z" fill="#ffde17" fill-rule="nonzero"/><path d="M313.475 403.44l-25.14-6.072 13.62-6.782-19.99-11.755 12.497-.242-1.577-6.91 18.286 8.22-3.215-15 13.954 14.644 4.16-13.192 5.145 8.79 13.006-25.474 9.372 25.57 25.525-1.56-10.958 14.6 12.295 5.68-7.927 7.992 17.292 10.69-12.113 2.028 2.365 8.01-13.924-4.41-.52 19.045-27.456-21.803-5.39 3.86-1.974-7.274-20.932 5.568 3.6-14.22z" fill="#ffffc9" fill-rule="nonzero"/><g fill="red" fill-rule="nonzero" stroke-width="2.67" stroke="#000"><path d="M281.224 374.634c.215.853.49 1.728.824 2.626.335.897.68 1.77 1.038 2.62.357.85.717 1.64 1.08 2.375.365.735.696 1.36.997 1.877.488.722.976 1.227 1.466 1.513.49.287.974.473 1.453.555.375.104.695.188.96.253.263.064.632.042 1.107-.066.39-.078.648-.205.777-.38.13-.174.076-.517-.157-1.026a27.662 27.662 0 0 1-.916-2.086 95.062 95.062 0 0 1-1.765-4.847 69.3 69.3 0 0 1-.722-2.28c2.616.044 4.965-.132 7.044-.528 2.08-.396 3.768-1.103 5.067-2.122.83-.623 1.424-1.643 1.777-3.055.258-1.362.308-2.592.15-3.69a20.102 20.102 0 0 0-.74-3.223c-.464-1.228-1.218-2.197-2.263-2.91-1.045-.71-2.254-1.25-3.623-1.617a21.432 21.432 0 0 0-4.377-.682 103.83 103.83 0 0 0-4.5-.156c-.314.018-.716.25-1.205.692-.49.443-1.027 1.04-1.612 1.79-.585.752-1.21 1.613-1.876 2.586-.666.973-1.332 1.986-2 3.04a223.513 223.513 0 0 0-1.975 3.174 271.332 271.332 0 0 0-3.27 5.5c-.43.743-.757 1.308-.985 1.696-.274.485-.412.908-.416 1.27-.005.364.128.737.395 1.12.276.366.6.682.97.948.37.267.784.59 1.243.97.4.303.705.445.914.425.21-.02.434-.163.675-.427l2.14-2.886c.728-.98 1.502-1.996 2.322-3.048zm8.594-10.328c.925-.016 1.758.066 2.498.246.74.18 1.39.4 1.95.663 1.142.532 1.7 1.123 1.68 1.772-.036.383-.35.802-.938 1.257-.59.455-1.387.854-2.394 1.196-1.007.343-2.18.596-3.515.762-1.338.166-2.776.16-4.318-.018a153.35 153.35 0 0 0 2.663-3.136 71.86 71.86 0 0 1 2.373-2.742zM305.876 366.215l-11.748 18c-.283.505-.418.984-.405 1.437.013.453.12.89.322 1.315.244.538.463.988.66 1.35.196.36.41.725.638 1.09.2.33.474.64.82.93.347.292.953.52 1.816.69 1.258.327 2.584.663 3.977 1.007 1.394.344 2.764.688 4.11 1.033.566.146.93.17 1.096.07.165-.1.288-.366.372-.798.007-.42.028-.83.06-1.226a7.357 7.357 0 0 0-.03-1.338c-.05-.448-.198-.8-.444-1.055-.245-.254-.647-.49-1.207-.703a51.892 51.892 0 0 0-2.79-1.02 56.328 56.328 0 0 0-2.772-.832c.408-.47.808-.948 1.2-1.436.392-.49.81-1.006 1.253-1.553a86 86 0 0 1 3.793.992c1.298.37 2.577.72 3.836 1.046.596.137.992.157 1.19.06.198-.095.323-.4.376-.918a17.1 17.1 0 0 0 .2-1.3c.05-.437.05-.902-.002-1.397-.032-.486-.176-.858-.43-1.118-.256-.26-.66-.507-1.21-.74a53.937 53.937 0 0 0-1.896-.78 29.705 29.705 0 0 0-1.822-.636c.787-.88 1.526-1.73 2.214-2.552.688-.82 1.38-1.598 2.076-2.333 1.464.448 2.846.892 4.146 1.334 1.3.442 2.562.865 3.785 1.27.596.185 1.012.226 1.248.124.236-.102.432-.422.59-.96.11-.49.205-.947.284-1.37.08-.42.1-.923.066-1.504.097-1.014-.41-1.768-1.522-2.263a43.097 43.097 0 0 0-3.623-1.353 78.58 78.58 0 0 0-3.66-1.088 68.003 68.003 0 0 0-3.487-.85c-1.123-.242-2.15-.45-3.08-.625z"/><path d="M310.954 389.626c-.496.004-.81.2-.943.584-.14.405.046 1.163.564 2.275.88 2.2 1.92 3.945 3.12 5.233 1.2 1.29 2.592 2.28 4.176 2.97 1.17.523 2.233.843 3.19.96.958.116 1.82.107 2.59-.03.77-.134 1.44-.357 2.008-.67a9.14 9.14 0 0 0 1.428-.94c.58-.436.933-.93 1.06-1.482.13-.553.1-1.15-.083-1.787-.185-.64-.48-1.32-.886-2.04a57.9 57.9 0 0 0-1.328-2.224c-.48-.765-.957-1.546-1.432-2.345-.475-.798-.867-1.598-1.176-2.4-.255-.614-.32-1.204-.198-1.77a4.274 4.274 0 0 1 .7-1.58 6.18 6.18 0 0 1 1.29-1.324 10.17 10.17 0 0 1 1.625-1.025 10.91 10.91 0 0 1 1.698-.69c.563-.173 1.05-.27 1.46-.29.492-.1.81-.086.952.038.142.125.17.315.087.57-.084.256-.26.568-.525.94-.267.37-.56.756-.878 1.16-.317.405-.634.805-.947 1.2-.314.396-.57.758-.772 1.088-.99 1.564-.366 3.408 1.87 5.532.383.44.72.66 1.012.667.29.007.643-.13 1.055-.408.403-.307.845-.713 1.327-1.218s.968-1.044 1.458-1.615c.49-.572.952-1.145 1.385-1.72.432-.575.805-1.096 1.117-1.563.135-.29.277-.606.425-.95.147-.342.26-.708.335-1.096.075-.39.092-.817.05-1.283a5.527 5.527 0 0 0-.385-1.52c-.346-.822-.85-1.67-1.515-2.544a22.012 22.012 0 0 0-2.084-2.385 7.94 7.94 0 0 0-1.54-1.09 7.662 7.662 0 0 0-1.542-.63 5.622 5.622 0 0 0-2.552-.13c-.922.112-1.874.32-2.853.63-.98.307-1.924.69-2.833 1.15-.908.46-1.75.98-2.527 1.558-.776.58-1.414 1.177-1.912 1.792-.62.676-1.09 1.376-1.403 2.1a7.062 7.062 0 0 0-.57 2.206 7.51 7.51 0 0 0 .14 2.238c.16.745.41 1.456.753 2.134.294.63.65 1.285 1.063 1.96.415.676.837 1.338 1.265 1.984a74.95 74.95 0 0 1 1.196 1.865c.37.597.666 1.123.89 1.58.222.457.343.826.366 1.106.022.28-.12.445-.424.492-.748.192-1.664-.14-2.747-1-1.083-.857-2.207-2.18-3.373-3.973-.2-.328-.453-.63-.762-.902-.308-.273-.65-.51-1.028-.71-.378-.2-.773-.36-1.187-.482a4.677 4.677 0 0 0-1.25-.194z"/><path d="M329.294 401.708a5.7 5.7 0 0 0 .466 1.877c.254.566.56 1.097.917 1.593.833 1.142 2.093 2.176 3.78 3.104.842.463 1.63.79 2.366.98a8.8 8.8 0 0 0 2.348.265c1.2-.1 2.467-.568 3.8-1.407 1.332-.838 2.74-1.993 4.228-3.465 1.487-1.473 3.064-3.227 4.73-5.262 1.668-2.035 3.436-4.3 5.305-6.795a6.03 6.03 0 0 0 .42-.598c.105-.175.165-.353.18-.535a1.41 1.41 0 0 0-.096-.59 4.19 4.19 0 0 0-.4-.77 33.75 33.75 0 0 0-1.286-1.748 9.94 9.94 0 0 0-1.444-1.52c-.483-.403-.945-.636-1.386-.7-.44-.065-.816.184-1.125.746-.79 1.09-1.688 2.333-2.69 3.724a147.084 147.084 0 0 1-3.142 4.202 106.627 106.627 0 0 1-3.303 4.055c-1.11 1.295-2.156 2.402-3.138 3.32-.98.92-1.872 1.582-2.673 1.986-.8.404-1.43.416-1.89.038-.37-.314-.49-.805-.355-1.472.135-.667.438-1.443.91-2.33a28.018 28.018 0 0 1 1.81-2.898 64.645 64.645 0 0 1 2.376-3.165 92.26 92.26 0 0 1 2.6-3.113c.884-1.012 1.716-1.95 2.494-2.81.878-1.025.97-2.16.28-3.4a12.62 12.62 0 0 0-1.107-1.68c-.405-.52-.857-1-1.356-1.445-.52-.502-.955-.764-1.31-.788-.353-.024-.737.21-1.154.698-.925 1.074-1.85 2.19-2.78 3.347a91.29 91.29 0 0 0-2.673 3.502 62.182 62.182 0 0 0-2.394 3.544 32.23 32.23 0 0 0-1.897 3.46c-.523 1.12-.91 2.192-1.165 3.216-.253 1.024-.334 1.968-.244 2.834zM359.7 402.223a138.25 138.25 0 0 0-1.65 6.08c-.49 1.983-.867 3.762-1.13 5.334-.055.374-.09.687-.102.94-.012.254.006.48.054.68.05.198.13.377.244.537.114.16.26.327.436.503.49.463 1.086.953 1.787 1.47.223.174.414.293.574.355.16.062.3.087.424.074a.762.762 0 0 0 .375-.16c.127-.094.287-.225.484-.393a82.932 82.932 0 0 1 2.415-1.963c.986-.776 2.05-1.592 3.19-2.45a357.01 357.01 0 0 1 3.508-2.6c1.198-.877 2.32-1.684 3.37-2.42a73.696 73.696 0 0 0-2.563 3.113 194.986 194.986 0 0 0-4.427 5.898 47.474 47.474 0 0 0-1.426 2.073c-.322.438-.478.836-.468 1.194.01.357.187.746.533 1.166.257.356.586.71.987 1.06.4.353.8.68 1.2.985.45.35.797.49 1.043.415.246-.074.518-.252.816-.537a89.49 89.49 0 0 1 1.828-2.255c.75-.898 1.576-1.877 2.482-2.937.906-1.06 1.86-2.17 2.858-3.328 1-1.16 1.99-2.298 2.97-3.417.98-1.12 1.93-2.184 2.848-3.192.917-1.008 1.733-1.898 2.447-2.672.51-.54.775-1.02.797-1.447.022-.425-.185-.903-.62-1.436a28.342 28.342 0 0 0-2.122-2.224c-.745-.7-1.463-1.34-2.157-1.924-.587-.51-1.106-.846-1.56-1.01a2.253 2.253 0 0 0-1.41-.04c-.49.138-1.03.415-1.624.832-.595.417-1.322.967-2.18 1.65a133.297 133.297 0 0 0-5.123 3.79c-.85.662-1.676 1.313-2.48 1.95a60.98 60.98 0 0 0-2.156 1.784c.62-2.135 1.108-3.814 1.466-5.036.358-1.223.638-2.163.84-2.822.2-.66.343-1.116.427-1.372a5.9 5.9 0 0 1 .247-.644c.094-.403.175-.766.242-1.087.068-.322.08-.64.04-.953a2.847 2.847 0 0 0-.328-.965c-.177-.33-.456-.69-.84-1.08a27.258 27.258 0 0 0-1.864-1.717c-.635-.53-1.438-1.118-2.41-1.76-.632-.412-1.145-.61-1.54-.595-.396.016-.835.312-1.315.888-.6.828-1.267 1.793-2.005 2.897-.738 1.103-1.51 2.28-2.316 3.527a183.21 183.21 0 0 0-2.402 3.824 314.98 314.98 0 0 0-2.273 3.777c-.72 1.22-1.37 2.358-1.946 3.42a50.442 50.442 0 0 0-1.394 2.72c-.274.486-.386.904-.338 1.256.047.352.26.757.634 1.214.297.373.64.74 1.025 1.096.387.356.78.686 1.18.99.418.314.74.458.963.433.224-.026.456-.195.695-.507a74.143 74.143 0 0 1 1.66-2.687c.64-.995 1.34-2.057 2.102-3.185.76-1.127 1.565-2.294 2.41-3.5.845-1.208 1.7-2.41 2.564-3.607zM386.444 403.782l-11.75 18.002c-.28.504-.416.982-.403 1.435.014.452.12.89.323 1.315.244.537.463.987.66 1.35.196.36.408.725.638 1.09.2.33.474.64.82.93.348.29.953.52 1.816.688 1.26.328 2.586.664 3.98 1.008 1.392.345 2.762.69 4.108 1.034.567.146.932.17 1.097.07.165-.1.29-.365.373-.797.007-.42.028-.83.06-1.226a7.357 7.357 0 0 0-.03-1.337c-.05-.447-.198-.798-.444-1.054-.247-.257-.65-.492-1.21-.705a51.892 51.892 0 0 0-2.79-1.02 56.328 56.328 0 0 0-2.77-.833c.406-.468.806-.947 1.198-1.435.392-.488.81-1.005 1.253-1.552a86 86 0 0 1 3.793.99c1.3.372 2.578.72 3.837 1.05.595.135.992.156 1.19.06.198-.097.323-.403.376-.92a17.1 17.1 0 0 0 .2-1.3c.05-.437.05-.902-.002-1.397-.032-.486-.176-.86-.43-1.12-.256-.26-.66-.506-1.21-.74a53.937 53.937 0 0 0-1.897-.777 29.705 29.705 0 0 0-1.82-.637c.786-.88 1.524-1.73 2.213-2.55.688-.822 1.38-1.6 2.076-2.334 1.463.446 2.845.89 4.146 1.33 1.3.443 2.562.866 3.785 1.272.597.185 1.013.225 1.25.123.235-.1.43-.422.588-.96.11-.49.206-.946.285-1.368.08-.423.1-.924.066-1.505.097-1.015-.41-1.77-1.522-2.264a43.097 43.097 0 0 0-3.623-1.354 78.58 78.58 0 0 0-3.658-1.088 68.003 68.003 0 0 0-3.488-.85c-1.123-.24-2.15-.45-3.08-.624z"/></g></svg>