<svg viewBox="0 0 520 499" xmlns="http://www.w3.org/2000/svg" fill-rule="evenodd" clip-rule="evenodd" stroke-linejoin="round" stroke-miterlimit="1.414"><path d="M279.137 224.82l-10.99-20.592 43.443-23.193 11.005 20.595a134.178 134.178 0 0 1 40.725-6.304v35.28c-42.72-.015-82.23 27.668-95.3 70.66-16 52.633 13.694 108.27 66.326 124.27a99.59 99.59 0 0 0 28.974 4.327v35.284a134.13 134.13 0 0 1-15.016-.853l-6.793 22.345-47.122-14.328 6.793-22.345a134.134 134.134 0 0 1-43.272-35.547l-20.605 10.988-23.185-43.45 20.595-11a134.157 134.157 0 0 1-5.452-55.736l-22.34-6.79 14.33-47.13 22.34 6.79a134.245 134.245 0 0 1 35.55-43.27m84.18-29.496c4.98.004 9.99.285 15.01.855l6.794-22.343 47.124 14.326-6.792 22.344a134.186 134.186 0 0 1 43.278 35.55l20.592-10.99 23.193 43.45-20.593 10.992a134.307 134.307 0 0 1 5.45 55.74l22.337 6.79-14.326 47.125-22.337-6.79a134.297 134.297 0 0 1-35.55 43.28l10.99 20.598-43.453 23.186-10.99-20.593a134.328 134.328 0 0 1-40.726 6.3v-35.283c42.72.014 82.234-27.666 95.3-70.654 16.003-52.638-13.7-108.278-66.33-124.278a99.587 99.587 0 0 0-28.97-4.326v-35.28zM55.19 75.843L48.54 63.38l26.29-14.036 6.66 12.464a81.186 81.186 0 0 1 24.647-3.815v21.35c-25.853-.008-49.765 16.744-57.674 42.763-9.683 31.852 8.287 65.522 40.14 75.205a60.21 60.21 0 0 0 17.534 2.62v21.354a81.554 81.554 0 0 1-9.088-.516l-4.11 13.522-28.52-8.67 4.11-13.523a81.16 81.16 0 0 1-26.188-21.513l-12.47 6.65-14.03-26.296 12.462-6.656a81.19 81.19 0 0 1-3.298-33.73l-13.52-4.11 8.67-28.522 13.52 4.11A81.252 81.252 0 0 1 55.19 75.843m50.947-17.85a81.5 81.5 0 0 1 9.084.517l4.113-13.522 28.52 8.67-4.113 13.52a81.232 81.232 0 0 1 26.19 21.515l12.463-6.65 14.035 26.296-12.462 6.65a81.26 81.26 0 0 1 3.3 33.733l13.516 4.11-8.67 28.518-13.517-4.11a81.298 81.298 0 0 1-21.515 26.193l6.65 12.466-26.296 14.03-6.65-12.46a81.275 81.275 0 0 1-24.647 3.812V199.93c25.852.008 49.765-16.744 57.674-42.76 9.686-31.854-8.29-65.525-40.14-75.208a60.27 60.27 0 0 0-17.532-2.618v-21.35z" fill="#ffa185" fill-rule="nonzero"/><path fill="#fff" d="M124.415 40.138h250.597v23.378H124.415z"/><path fill="#ffcd61" d="M124.416 58.47h247.206v5.047H124.416z"/><path fill="#ffcd61" d="M124.416 47.358h2.644v16.158h-2.644zm6.014 4.506h.953v11.652h-.953zm4.61 0h.953v11.652h-.953zm4.61 0h.954v11.652h-.953zm4.61 0h.954v11.652h-.953zm4.612-4.506h2.643v16.158h-2.643zm6.014 4.506h.953v11.652h-.955zm4.61 0h.953v11.652h-.955zm4.61 0h.954v11.652h-.953zm4.61 0h.954v11.652h-.953zm4.612-4.506h2.644v16.158h-2.644zm6.014 4.506h.953v11.652h-.953zm4.61 0h.954v11.652h-.953zm4.61 0h.954v11.652h-.953zm4.612 0h.953v11.652h-.953zm4.61-4.506h2.643v16.158h-2.643zm6.016 4.506h.952v11.652h-.953zm4.61 0h.952v11.652h-.953zm4.61 0h.953v11.652h-.953zm4.61 0h.952v11.652h-.953zm4.61-4.506h2.645v16.158h-2.644zm6.015 4.506h.953v11.652h-.953zm4.61 0h.954v11.652h-.955zm4.61 0h.954v11.652h-.955zm4.612 0h.953v11.652h-.953zm4.61-4.506h2.643v16.158h-2.643zm6.013 4.506h.954v11.652h-.953zm4.61 0h.954v11.652h-.953zm4.612 0h.953v11.652h-.953zm4.61 0h.953v11.652h-.953zm4.61-4.506h2.645v16.158h-2.644zm6.015 4.506h.953v11.652h-.953zm4.61 0h.954v11.652h-.95zm5.565 11.652V51.864h-.953v11.652h.95zm3.656-11.652h.953v11.652H291zm4.612-4.506h2.643v16.158h-2.643zm6.013 4.506h.953v11.652h-.953zm4.61 0h.954v11.652h-.953zm5.565 11.652V51.864h-.953v11.652h.953zm3.657-11.652h.953v11.652h-.953zm4.61-4.506h2.644v16.158h-2.645zm6.015 4.506h.952v11.652h-.953zm4.61 0h.953v11.652h-.953zm4.61 0h.954v11.652h-.953zm4.61 0h.954v11.652h-.953zm4.613-4.506h2.643v16.158h-2.643zm6.012 4.506h.953v11.652h-.953zm4.61 0h.954v11.652h-.955zm4.612 0h.953v11.652h-.953zm4.61 0h.954v11.652h-.95zm4.613-4.506h2.642v16.158h-2.643z"/><path d="M67.238 260.99l13.266.086-.248 86.026-13.266-.085.248-86.026z" fill="#fff"/><path d="M69.815 264.867l-.226 78.307 8.09.052.224-78.307-8.09-.054z" fill="#87bbda"/><path d="M82.327 239.41c4.6 2.844 7.656 7.942 7.63 13.744-.04 8.87-7.26 16.033-16.134 15.994-8.87-.037-16.032-7.26-15.994-16.132.024-5.804 3.123-10.874 7.747-13.677l-.04 9.083-.02 4.835 4.175 2.434 4.18 2.437 4.197-2.4 4.196-2.4.02-4.835.04-9.085zm-.41 126.454c4.623-2.803 7.722-7.874 7.75-13.677.036-8.87-7.125-16.093-15.997-16.132-8.872-.04-16.094 7.122-16.133 15.994-.024 5.802 3.03 10.9 7.63 13.74l.04-9.084.02-4.834 4.197-2.4 4.198-2.4 4.178 2.435 4.175 2.437-.02 4.835-.04 9.083z" fill="#fff"/><path d="M84.53 360.004a13.458 13.458 0 0 0 2.547-7.828c.03-7.44-5.976-13.5-13.418-13.533-7.445-.03-13.503 5.975-13.536 13.417a13.462 13.462 0 0 0 2.478 7.85l.042-9.543 10.99-6.282 10.937 6.376-.04 9.545zM62.964 245.072a13.447 13.447 0 0 0-2.546 7.828c-.032 7.443 5.973 13.5 13.418 13.532 7.443.033 13.5-5.973 13.532-13.416a13.45 13.45 0 0 0-2.478-7.85l-.04 9.544-10.99 6.282-10.937-6.377.04-9.543z" fill="#87bbda"/><path d="M421.168 253.264l-6.106-13.853-6.106 13.855v109.27c0 1.83 1.5 3.33 3.33 3.33h5.552c1.83 0 3.33-1.5 3.33-3.33v-109.27z" fill="#ffeec9"/><path d="M421.168 253.264l-6.106-13.853 2.65 14.41-.002 112.045h.128c1.83 0 3.33-1.5 3.33-3.33v-109.27z" fill="#ffcd61"/><path d="M421.168 253.264l-6.106-13.853-6.106 13.855V357.63c4.3.73 8.343.7 12.212 0V253.263z" fill="#c0f7fc"/><path d="M421.168 253.264l-6.106-13.853 2.65 14.41-.002 104.346c2.09.006 1.472-.177 3.458-.537V253.263z" fill="#a2edf4"/><path d="M421.168 253.264l-6.106-13.853-6.106 13.855v100.47c4.323.782 8.365.747 12.212 0v-100.47z" fill="#87bbda"/><path d="M421.153 253.706l-6.058-13.744 3.01 13.762v100.058c2.08.006 1.084.344 3.048-.038V253.706z" fill="#4c8eb4"/><path d="M421.168 253.264l-6.106-13.852-6.105 13.852c1.94.36 3.987.554 6.105.554 2.118 0 4.166-.194 6.106-.554" fill="#fff"/><path d="M421.168 253.264l-6.106-13.853 3.066 14.41c2.118 0 1.1-.195 3.04-.555" fill="#ccc"/><path d="M417.08 243.988l-2.017-4.577-2.018 4.58c.64.12 1.317.182 2.018.182.7 0 1.376-.063 2.016-.182" fill="#4d4d4d"/><path d="M59.24 155.076l-2.48.217-.33-3.766a21.78 21.78 0 0 1-7.296-2.304l-2.432 2.897-7.168-6.016 2.43-2.897a21.492 21.492 0 0 1-3.534-6.79l-3.766.33-.815-9.322 3.763-.33a21.67 21.67 0 0 1 2.304-7.298l-2.895-2.432 6.014-7.168 2.898 2.43a21.562 21.562 0 0 1 6.788-3.532l-.33-3.767 6.846-.598v10.554a14.6 14.6 0 0 0-11.196 5.223c-5.18 6.175-4.37 15.41 1.8 20.59a14.504 14.504 0 0 0 5.135 2.79c1.405.428 2.84.636 4.26.636v10.553zm19.32-15.066l2.897 2.43-6.02 7.168-2.894-2.43a21.55 21.55 0 0 1-6.786 3.534l.327 3.766-6.845.598v-10.553c4.25 0 8.364-1.856 11.193-5.225 5.178-6.174 4.374-15.41-1.8-20.59a14.536 14.536 0 0 0-5.135-2.79 14.65 14.65 0 0 0-4.26-.634V104.73l2.476-.216.33 3.765a21.792 21.792 0 0 1 7.3 2.303l2.43-2.898 7.17 6.016-2.43 2.898a21.528 21.528 0 0 1 3.532 6.788l3.768-.33.814 9.324-3.77.327a21.533 21.533 0 0 1-2.3 7.3" fill="gray" fill-rule="nonzero"/><path d="M458.352 32.73c5.947 1.218 10.395 5.744 10.395 11.102 0 5.507-4.61 11.197-10.897 11.197h-27.634c-6.728 0-11.915-5.393-11.915-11.2 0-5.357 4.45-9.883 10.397-11.102a11.537 11.537 0 0 1-.005-.324c0-6.883 6.642-12.464 14.834-12.464 8.19 0 14.833 5.58 14.833 12.464 0 .108-.003.216-.006.323" fill="#ffbba6"/><path d="M436.225 28.194c4.155.85 7.264 4.014 7.264 7.758 0 3.85-3.224 7.824-7.617 7.824h-19.31c-4.702 0-8.326-3.768-8.326-7.824 0-3.744 3.108-6.907 7.263-7.758a8.46 8.46 0 0 1-.002-.226c0-4.81 4.64-8.71 10.365-8.71 5.724 0 10.365 3.9 10.365 8.71 0 .076-.002.15-.003.226" fill="#fff"/></svg>