<?xml version="1.0" standalone="no"?><!DOCTYPE svg PUBLIC "-//W3C//DTD SVG 1.1//EN" "http://www.w3.org/Graphics/SVG/1.1/DTD/svg11.dtd"><svg width="100%" height="100%" viewBox="0 0 520 499" version="1.1" xmlns="http://www.w3.org/2000/svg" xmlns:xlink="http://www.w3.org/1999/xlink" xml:space="preserve" style="fill-rule:evenodd;clip-rule:evenodd;stroke-linejoin:round;stroke-miterlimit:1.41421;"><rect x="154.905" y="94.418" width="189.617" height="264.834" style="fill:#4d4d4d;"/><rect x="168.751" y="109.687" width="91.021" height="3.458" style="fill:#f2675d;"/><rect x="168.751" y="118.235" width="29.167" height="3.458" style="fill:#9acae6;"/><rect x="168.751" y="126.761" width="47.036" height="3.457" style="fill:#ccc;"/><rect x="190.637" y="135.31" width="27.448" height="3.458" style="fill:#9acae6;"/><rect x="190.637" y="143.836" width="27.448" height="3.457" style="fill:#9acae6;"/><rect x="209.688" y="152.384" width="26.696" height="3.458" style="fill:#9acae6;"/><rect x="207.733" y="118.235" width="49.742" height="3.458" style="fill:#ccc;"/><rect x="264.563" y="118.235" width="23.754" height="3.458" style="fill:#ccc;"/><rect x="297.337" y="118.235" width="32.066" height="3.458" style="fill:#ccc;"/><rect x="223.648" y="126.761" width="27.986" height="3.457" style="fill:#9acae6;"/><rect x="226.461" y="135.31" width="16.022" height="3.458" style="fill:#ccc;"/><rect x="226.461" y="143.836" width="27.448" height="3.457" style="fill:#ccc;"/><rect x="250.108" y="135.31" width="30.498" height="3.458" style="fill:#ccc;"/><rect x="286.706" y="135.31" width="16" height="3.458" style="fill:#ccc;"/><rect x="309.579" y="135.31" width="19.824" height="3.458" style="fill:#ccc;"/><rect x="260.01" y="143.836" width="34.665" height="3.457" style="fill:#ccc;"/><rect x="299.85" y="143.836" width="10.352" height="3.457" style="fill:#ccc;"/><rect x="244.008" y="152.384" width="19.846" height="3.458" style="fill:#ccc;"/><rect x="190.637" y="169.459" width="27.448" height="3.457" style="fill:#9acae6;"/><rect x="190.637" y="178.007" width="27.448" height="3.457" style="fill:#9acae6;"/><rect x="226.461" y="169.459" width="16.022" height="3.457" style="fill:#ccc;"/><rect x="226.461" y="178.007" width="24.721" height="3.457" style="fill:#ccc;"/><rect x="250.108" y="169.459" width="23.453" height="3.457" style="fill:#ccc;"/><rect x="278.244" y="169.459" width="12.329" height="3.457" style="fill:#ccc;"/><rect x="295.855" y="169.459" width="15.249" height="3.457" style="fill:#ccc;"/><rect x="275.237" y="178.007" width="27.47" height="3.457" style="fill:#ccc;"/><rect x="190.637" y="186.533" width="27.448" height="3.458" style="fill:#9acae6;"/><rect x="190.637" y="195.081" width="27.448" height="3.457" style="fill:#9acae6;"/><rect x="226.461" y="186.533" width="16.022" height="3.458" style="fill:#ccc;"/><rect x="226.461" y="195.081" width="50.322" height="3.457" style="fill:#ccc;"/><rect x="250.108" y="186.533" width="30.498" height="3.458" style="fill:#ccc;"/><rect x="286.706" y="186.533" width="16" height="3.458" style="fill:#ccc;"/><rect x="309.579" y="186.533" width="19.824" height="3.458" style="fill:#ccc;"/><rect x="282.883" y="195.081" width="28.222" height="3.457" style="fill:#ccc;"/><rect x="256.68" y="178.007" width="11.683" height="3.457" style="fill:#ccc;"/><rect x="168.751" y="212.156" width="29.167" height="3.458" style="fill:#9acae6;"/><rect x="168.751" y="220.682" width="47.036" height="3.457" style="fill:#ccc;"/><rect x="190.637" y="229.23" width="27.448" height="3.458" style="fill:#9acae6;"/><rect x="190.637" y="237.757" width="27.448" height="3.48" style="fill:#9acae6;"/><rect x="209.688" y="246.305" width="26.696" height="3.457" style="fill:#9acae6;"/><rect x="207.733" y="212.156" width="27.599" height="3.458" style="fill:#ccc;"/><rect x="242.398" y="212.156" width="13.939" height="3.458" style="fill:#ccc;"/><rect x="265.357" y="212.156" width="44.329" height="3.458" style="fill:#ccc;"/><rect x="223.648" y="220.682" width="27.986" height="3.457" style="fill:#9acae6;"/><rect x="226.461" y="229.23" width="31.271" height="3.458" style="fill:#ccc;"/><rect x="226.461" y="237.757" width="21.349" height="3.48" style="fill:#ccc;"/><rect x="265.357" y="229.23" width="23.238" height="3.458" style="fill:#ccc;"/><rect x="253.91" y="237.757" width="40.765" height="3.48" style="fill:#ccc;"/><rect x="299.85" y="237.757" width="10.352" height="3.48" style="fill:#ccc;"/><rect x="244.008" y="246.305" width="19.846" height="3.457" style="fill:#ccc;"/><rect x="268.257" y="246.305" width="36.942" height="3.457" style="fill:#ccc;"/><rect x="310.696" y="246.305" width="11.04" height="3.457" style="fill:#ccc;"/><rect x="190.637" y="263.38" width="27.448" height="3.458" style="fill:#9acae6;"/><rect x="190.637" y="271.927" width="27.448" height="3.458" style="fill:#9acae6;"/><rect x="226.461" y="263.38" width="45.189" height="3.458" style="fill:#ccc;"/><rect x="226.461" y="271.927" width="24.721" height="3.458" style="fill:#ccc;"/><rect x="278.244" y="263.38" width="12.329" height="3.458" style="fill:#ccc;"/><rect x="295.855" y="263.38" width="15.249" height="3.458" style="fill:#ccc;"/><rect x="275.237" y="271.927" width="27.47" height="3.458" style="fill:#ccc;"/><rect x="256.68" y="271.927" width="11.683" height="3.458" style="fill:#ccc;"/><rect x="168.751" y="285.931" width="29.167" height="3.457" style="fill:#9acae6;"/><rect x="168.751" y="294.457" width="47.036" height="3.457" style="fill:#ccc;"/><rect x="190.637" y="303.005" width="27.448" height="3.458" style="fill:#9acae6;"/><rect x="190.637" y="311.532" width="27.448" height="3.458" style="fill:#9acae6;"/><rect x="209.688" y="320.081" width="26.696" height="3.458" style="fill:#9acae6;"/><rect x="207.733" y="285.931" width="27.599" height="3.457" style="fill:#ccc;"/><rect x="242.398" y="285.931" width="13.939" height="3.457" style="fill:#ccc;"/><rect x="265.357" y="285.931" width="64.046" height="3.457" style="fill:#ccc;"/><rect x="223.648" y="294.457" width="27.986" height="3.457" style="fill:#9acae6;"/><rect x="226.461" y="303.005" width="31.271" height="3.458" style="fill:#ccc;"/><rect x="226.461" y="311.532" width="21.349" height="3.458" style="fill:#ccc;"/><rect x="265.357" y="303.005" width="23.238" height="3.458" style="fill:#ccc;"/><rect x="294.696" y="303.005" width="14.132" height="3.458" style="fill:#ccc;"/><rect x="315.7" y="303.005" width="13.703" height="3.458" style="fill:#ccc;"/><rect x="253.91" y="311.532" width="40.765" height="3.458" style="fill:#ccc;"/><rect x="299.85" y="311.532" width="10.352" height="3.458" style="fill:#ccc;"/><rect x="244.008" y="320.081" width="19.846" height="3.458" style="fill:#ccc;"/><rect x="190.637" y="337.154" width="27.448" height="3.458" style="fill:#9acae6;"/><rect x="190.637" y="345.703" width="27.448" height="3.457" style="fill:#9acae6;"/><rect x="226.461" y="337.154" width="45.189" height="3.458" style="fill:#ccc;"/><rect x="226.461" y="345.703" width="24.721" height="3.457" style="fill:#ccc;"/><rect x="278.244" y="337.154" width="12.329" height="3.458" style="fill:#ccc;"/><rect x="295.855" y="337.154" width="15.249" height="3.458" style="fill:#ccc;"/><rect x="275.237" y="345.703" width="27.47" height="3.457" style="fill:#ccc;"/><rect x="256.68" y="345.703" width="11.683" height="3.457" style="fill:#ccc;"/></svg>