<?xml version="1.0" standalone="no"?><!DOCTYPE svg PUBLIC "-//W3C//DTD SVG 1.1//EN" "http://www.w3.org/Graphics/SVG/1.1/DTD/svg11.dtd"><svg width="100%" height="100%" viewBox="0 0 520 499" version="1.1" xmlns="http://www.w3.org/2000/svg" xmlns:xlink="http://www.w3.org/1999/xlink" xml:space="preserve" style="fill-rule:evenodd;clip-rule:evenodd;stroke-miterlimit:22.926;"><path d="M367.868,94.418l103.663,0l17.396,17.395l0,-17.395l0.001,171.211l-121.059,0l-0.001,-171.211Z" style="fill:#fff;"/><path d="M441.396,215.849l0,10.7" style="fill:none;stroke-width:0.72px;stroke:#ccc;"/><path d="M467.393,215.849l0,21.4" style="fill:none;stroke-width:0.72px;stroke:#ccc;"/><rect x="399.012" y="112.756" width="58.772" height="4.18" style="fill:#ccc;"/><rect x="378.979" y="123.208" width="98.838" height="4.18" style="fill:#ccc;"/><rect x="378.979" y="130.523" width="98.838" height="4.18" style="fill:#ccc;"/><rect x="378.979" y="137.839" width="98.838" height="4.18" style="fill:#ccc;"/><rect x="378.979" y="145.154" width="46.321" height="4.18" style="fill:#ccc;"/><path d="M464.999,168.207c7.078,0 12.817,5.738 12.817,12.818c0,7.078 -5.738,12.817 -12.817,12.817c-7.079,0 -12.818,-5.739 -12.818,-12.817c0,-7.08 5.739,-12.818 12.818,-12.818" style="fill:#ef4136;"/><path d="M457.946,191.727c-1.84,-1.215 -3.349,-2.89 -4.36,-4.864l11.413,-5.838l-7.053,10.702Z" style="fill:#fcd8d6;"/><path d="M453.585,186.863c-0.897,-1.751 -1.404,-3.735 -1.404,-5.838c0,-4.099 1.924,-7.748 4.918,-10.094l7.9,10.094l-11.414,5.838Z" style="fill:#f9b3af;"/><path d="M457.099,170.931c2.176,-1.706 4.92,-2.724 7.9,-2.724l0,12.818l-7.9,-10.094Z" style="fill:#f48c85;"/><path d="M464.999,168.207l0,12.818l9.135,-8.991c-2.325,-2.361 -5.558,-3.827 -9.135,-3.827" style="fill:#f2675d;"/><rect x="378.979" y="196.02" width="58.812" height="1.504" style="fill:#ccc;"/><rect x="378.979" y="164.525" width="10.455" height="31.496" style="fill:#4c8eb4;"/><path d="M391.068,176.4l10.454,0l0.001,19.62l-10.455,0l0,-19.62Z" style="fill:#609dc1;"/><rect x="403.157" y="183.044" width="10.455" height="12.976" style="fill:#73accd;"/><rect x="415.246" y="176.96" width="10.455" height="19.06" style="fill:#87bbda;"/><rect x="427.335" y="182.391" width="10.455" height="13.629" style="fill:#9acae6;"/><rect x="452.997" y="196.02" width="5.276" height="1.504" style="fill:#ccc;"/><rect x="460.718" y="196.02" width="15.674" height="1.504" style="fill:#ccc;"/><path d="M471.531,111.813l17.396,0l-17.396,-17.396l0,17.396Z" style="fill:#ccc;"/><rect x="378.979" y="212.668" width="20.848" height="6.362" style="fill:#ef4136;"/><rect x="405.046" y="212.668" width="20.848" height="6.362" style="fill:#9acae6;"/><rect x="430.972" y="212.668" width="20.848" height="6.362" style="fill:#609dc1;"/><rect x="456.969" y="212.668" width="20.848" height="6.362" style="fill:#9acae6;"/><rect x="378.979" y="223.367" width="20.848" height="6.362" style="fill:#f2675d;"/><rect x="378.979" y="234.068" width="20.848" height="6.362" style="fill:#f48c85;"/><rect x="378.979" y="244.768" width="20.848" height="6.362" style="fill:#fcd8d6;"/><rect x="430.972" y="223.367" width="20.848" height="6.362" style="fill:#609dc1;"/><rect x="456.969" y="223.367" width="20.848" height="6.362" style="fill:#9acae6;"/><rect x="456.969" y="234.068" width="20.848" height="6.362" style="fill:#9acae6;"/><rect x="63.323" y="69.367" width="71.825" height="25.462" style="fill:#609dc1;"/><rect x="71.756" y="169.968" width="101.33" height="25.461" style="fill:#ef4136;"/><path d="M82.717,83.618l-4.094,0l0,4.685l-2.19,0l0,-11.193l2.19,0l0,4.557l4.094,0l0,-4.557l2.19,0l0,11.193l-2.19,0l0,-4.685Z" style="fill:#fff;fill-rule:nonzero;"/><path d="M94.789,79.061l-3.262,0l0,9.242l-2.191,0l0,-9.242l-3.278,0l0,-1.951l8.731,0l0,1.951Z" style="fill:#fff;fill-rule:nonzero;"/><path d="M104.606,82.499l0.24,-2.223l-0.096,0l-0.687,1.791l-2.383,4.173l-0.703,0l-2.511,-4.189l-0.703,-1.775l-0.08,0l0.32,2.207l0,5.82l-2.079,0l0,-11.193l1.999,0l2.99,5.117l0.527,1.279l0.064,0l0.48,-1.311l2.83,-5.085l1.983,0l0,11.193l-2.191,0l0,-5.804Z" style="fill:#fff;fill-rule:nonzero;"/><path d="M115.799,88.303l-7.083,0l0,-11.193l2.19,0l0,9.242l4.893,0l0,1.951Z" style="fill:#fff;fill-rule:nonzero;"/><path d="M119.493,86.688c0.703,0 1.241,-0.171 1.615,-0.512c0.373,-0.341 0.559,-0.81 0.559,-1.407c0,-0.639 -0.218,-1.108 -0.655,-1.407c-0.437,-0.298 -1.061,-0.448 -1.871,-0.448l-1.263,0.048l0,-5.852l5.5,0l0,1.951l-3.71,0l0,2.158l0.656,-0.063c0.522,0.021 0.994,0.117 1.415,0.287c0.421,0.171 0.781,0.408 1.079,0.712c0.299,0.304 0.528,0.671 0.688,1.103c0.16,0.432 0.24,0.914 0.24,1.447c0,0.629 -0.107,1.183 -0.32,1.663c-0.213,0.48 -0.509,0.88 -0.887,1.199c-0.379,0.32 -0.824,0.56 -1.336,0.72c-0.511,0.16 -1.071,0.24 -1.678,0.24c-0.48,0 -0.936,-0.04 -1.368,-0.12c-0.431,-0.08 -0.796,-0.189 -1.095,-0.328l0.56,-1.727c0.245,0.107 0.514,0.189 0.807,0.248c0.293,0.059 0.648,0.088 1.064,0.088Z" style="fill:#fff;fill-rule:nonzero;"/><path d="M118.195,9.834l0,-1.12l6.172,-3.693l0.911,1.439l-3.582,2.222l-1.455,0.56l1.439,0.496l3.678,2.19l-0.911,1.439l-6.252,-3.533Z" style="fill:#ffc5b6;fill-rule:nonzero;"/><path d="M126.062,6.396l1.103,0l0,-1.503l2.079,-0.592l0,2.095l1.95,0l0,1.759l-1.95,0l0,3.07c0,0.554 0.055,0.951 0.167,1.191c0.112,0.24 0.323,0.36 0.632,0.36c0.213,0 0.397,-0.022 0.552,-0.064c0.154,-0.043 0.327,-0.107 0.519,-0.192l0.368,1.599c-0.288,0.138 -0.624,0.256 -1.007,0.352c-0.384,0.095 -0.773,0.143 -1.168,0.143c-0.735,0 -1.276,-0.189 -1.622,-0.567c-0.347,-0.379 -0.52,-1 -0.52,-1.863l0,-4.029l-1.103,0l0,-1.759Z" style="fill:#ffc5b6;fill-rule:nonzero;"/><path d="M132.665,6.396l2.079,0l0,7.995l-2.079,0l0,-7.995ZM132.361,4.141c0,-0.309 0.115,-0.573 0.344,-0.791c0.229,-0.219 0.547,-0.328 0.952,-0.328c0.405,0 0.733,0.109 0.983,0.328c0.251,0.218 0.376,0.482 0.376,0.791c0,0.309 -0.125,0.568 -0.376,0.776c-0.25,0.208 -0.578,0.312 -0.983,0.312c-0.405,0 -0.723,-0.104 -0.952,-0.312c-0.229,-0.208 -0.344,-0.467 -0.344,-0.776Z" style="fill:#ffc5b6;fill-rule:nonzero;"/><path d="M135.943,6.396l1.103,0l0,-1.503l2.079,-0.592l0,2.095l1.951,0l0,1.759l-1.951,0l0,3.07c0,0.554 0.056,0.951 0.168,1.191c0.112,0.24 0.322,0.36 0.632,0.36c0.213,0 0.397,-0.022 0.551,-0.064c0.155,-0.043 0.328,-0.107 0.52,-0.192l0.368,1.599c-0.288,0.138 -0.624,0.256 -1.008,0.352c-0.383,0.095 -0.773,0.143 -1.167,0.143c-0.735,0 -1.276,-0.189 -1.623,-0.567c-0.346,-0.379 -0.52,-1 -0.52,-1.863l0,-4.029l-1.103,0l0,-1.759Z" style="fill:#ffc5b6;fill-rule:nonzero;"/><path d="M144.498,11.704c0,0.373 0.048,0.645 0.143,0.816c0.096,0.17 0.251,0.256 0.464,0.256c0.128,0 0.253,-0.011 0.376,-0.032c0.123,-0.022 0.274,-0.07 0.456,-0.144l0.223,1.631c-0.17,0.085 -0.431,0.17 -0.783,0.256c-0.352,0.085 -0.714,0.127 -1.087,0.127c-0.608,0 -1.072,-0.141 -1.391,-0.423c-0.32,-0.283 -0.48,-0.749 -0.48,-1.399l0,-9.594l2.079,0l0,8.506Z" style="fill:#ffc5b6;fill-rule:nonzero;"/><path d="M153.452,13.703c-0.32,0.256 -0.754,0.472 -1.303,0.648c-0.549,0.176 -1.133,0.263 -1.751,0.263c-1.29,0 -2.233,-0.375 -2.83,-1.127c-0.597,-0.751 -0.896,-1.783 -0.896,-3.094c0,-1.407 0.336,-2.462 1.007,-3.166c0.672,-0.703 1.615,-1.055 2.831,-1.055c0.405,0 0.799,0.053 1.183,0.16c0.384,0.106 0.725,0.282 1.023,0.528c0.299,0.245 0.539,0.575 0.72,0.991c0.181,0.416 0.272,0.933 0.272,1.551c0,0.224 -0.014,0.464 -0.04,0.719c-0.027,0.256 -0.067,0.523 -0.12,0.8l-4.797,0c0.032,0.671 0.205,1.178 0.519,1.519c0.315,0.341 0.824,0.512 1.527,0.512c0.437,0 0.829,-0.067 1.176,-0.2c0.346,-0.134 0.61,-0.269 0.791,-0.408l0.688,1.359ZM150.478,7.835c-0.544,0 -0.946,0.162 -1.208,0.488c-0.261,0.325 -0.418,0.759 -0.471,1.303l2.974,0c0.042,-0.576 -0.045,-1.018 -0.264,-1.327c-0.219,-0.31 -0.562,-0.464 -1.031,-0.464Z" style="fill:#ffc5b6;fill-rule:nonzero;"/><path d="M162.054,8.554l0,1.12l-6.172,3.693l-0.911,-1.455l3.581,-2.206l1.455,-0.576l-1.439,-0.48l-3.677,-2.206l0.911,-1.423l6.252,3.533Z" style="fill:#ffc5b6;fill-rule:nonzero;"/><path d="M326.235,78.317l0,-1.119l6.172,-3.694l0.911,1.439l-3.581,2.223l-1.456,0.559l1.44,0.496l3.677,2.19l-0.911,1.44l-6.252,-3.534Z" style="fill:#ffc5b6;fill-rule:nonzero;"/><path d="M337.076,80.188c0,0.373 0.048,0.645 0.144,0.815c0.096,0.171 0.25,0.256 0.463,0.256c0.128,0 0.253,-0.011 0.376,-0.032c0.123,-0.021 0.275,-0.069 0.456,-0.144l0.224,1.631c-0.171,0.085 -0.432,0.17 -0.784,0.256c-0.352,0.085 -0.714,0.128 -1.087,0.128c-0.608,0 -1.071,-0.142 -1.391,-0.424c-0.32,-0.283 -0.48,-0.749 -0.48,-1.399l0,-9.594l2.079,0l0,8.507Z" style="fill:#ffc5b6;fill-rule:nonzero;"/><path d="M339.586,75.343c0.426,-0.192 0.933,-0.344 1.519,-0.456c0.586,-0.112 1.199,-0.168 1.839,-0.168c0.554,0 1.018,0.067 1.391,0.2c0.373,0.133 0.669,0.322 0.887,0.568c0.219,0.245 0.373,0.538 0.464,0.879c0.091,0.341 0.136,0.725 0.136,1.151c0,0.469 -0.016,0.941 -0.048,1.415c-0.032,0.475 -0.051,0.941 -0.056,1.399c-0.005,0.459 0.008,0.904 0.04,1.336c0.032,0.431 0.112,0.839 0.24,1.223l-1.695,0l-0.336,-1.103l-0.08,0c-0.213,0.33 -0.509,0.615 -0.887,0.855c-0.379,0.24 -0.866,0.36 -1.463,0.36c-0.373,0 -0.709,-0.056 -1.008,-0.168c-0.298,-0.112 -0.554,-0.272 -0.767,-0.48c-0.213,-0.208 -0.378,-0.453 -0.496,-0.735c-0.117,-0.283 -0.176,-0.6 -0.176,-0.952c0,-0.49 0.11,-0.903 0.328,-1.239c0.219,-0.336 0.533,-0.608 0.944,-0.815c0.41,-0.208 0.9,-0.352 1.471,-0.432c0.57,-0.08 1.207,-0.104 1.91,-0.072c0.075,-0.597 0.032,-1.026 -0.128,-1.287c-0.159,-0.261 -0.517,-0.392 -1.071,-0.392c-0.416,0 -0.855,0.043 -1.319,0.128c-0.464,0.085 -0.845,0.197 -1.143,0.336l-0.496,-1.551ZM342.224,81.291c0.416,0 0.747,-0.093 0.992,-0.28c0.245,-0.186 0.426,-0.386 0.543,-0.6l0,-1.039c-0.33,-0.032 -0.647,-0.037 -0.951,-0.016c-0.304,0.021 -0.573,0.069 -0.808,0.144c-0.234,0.075 -0.421,0.181 -0.559,0.32c-0.139,0.138 -0.208,0.314 -0.208,0.527c0,0.299 0.088,0.531 0.264,0.696c0.176,0.165 0.418,0.248 0.727,0.248Z" style="fill:#ffc5b6;fill-rule:nonzero;"/><path d="M347.565,71.681l2.078,0l0,3.838l0.064,0c0.224,-0.256 0.512,-0.459 0.864,-0.608c0.352,-0.149 0.741,-0.224 1.167,-0.224c0.959,0 1.692,0.328 2.199,0.984c0.506,0.655 0.759,1.654 0.759,2.998c0,1.439 -0.354,2.531 -1.063,3.277c-0.709,0.747 -1.682,1.12 -2.918,1.12c-0.682,0 -1.306,-0.056 -1.871,-0.168c-0.565,-0.112 -0.991,-0.237 -1.279,-0.376l0,-10.841ZM351.131,76.446c-0.384,0 -0.696,0.099 -0.936,0.296c-0.24,0.197 -0.424,0.482 -0.552,0.855l0,3.486c0.171,0.085 0.355,0.144 0.552,0.176c0.197,0.032 0.408,0.048 0.632,0.048c0.565,0 0.994,-0.205 1.287,-0.616c0.293,-0.41 0.44,-1.063 0.44,-1.958c0,-1.525 -0.475,-2.287 -1.423,-2.287Z" style="fill:#ffc5b6;fill-rule:nonzero;"/><path d="M362.531,82.186c-0.32,0.256 -0.754,0.472 -1.303,0.648c-0.549,0.176 -1.133,0.264 -1.751,0.264c-1.29,0 -2.233,-0.376 -2.83,-1.128c-0.597,-0.751 -0.896,-1.782 -0.896,-3.094c0,-1.407 0.336,-2.462 1.008,-3.165c0.671,-0.704 1.615,-1.056 2.83,-1.056c0.405,0 0.799,0.054 1.183,0.16c0.384,0.107 0.725,0.283 1.024,0.528c0.298,0.245 0.538,0.575 0.719,0.991c0.181,0.416 0.272,0.933 0.272,1.551c0,0.224 -0.013,0.464 -0.04,0.72c-0.027,0.255 -0.067,0.522 -0.12,0.799l-4.797,0c0.032,0.672 0.205,1.178 0.52,1.519c0.314,0.341 0.823,0.512 1.527,0.512c0.437,0 0.829,-0.067 1.175,-0.2c0.346,-0.133 0.61,-0.269 0.792,-0.408l0.687,1.359ZM359.557,76.318c-0.544,0 -0.946,0.163 -1.207,0.488c-0.261,0.325 -0.419,0.759 -0.472,1.303l2.974,0c0.043,-0.576 -0.045,-1.018 -0.264,-1.327c-0.218,-0.309 -0.562,-0.464 -1.031,-0.464Z" style="fill:#ffc5b6;fill-rule:nonzero;"/><path d="M366.401,80.188c0,0.373 0.048,0.645 0.143,0.815c0.096,0.171 0.251,0.256 0.464,0.256c0.128,0 0.253,-0.011 0.376,-0.032c0.122,-0.021 0.274,-0.069 0.456,-0.144l0.223,1.631c-0.17,0.085 -0.431,0.17 -0.783,0.256c-0.352,0.085 -0.714,0.128 -1.087,0.128c-0.608,0 -1.072,-0.142 -1.391,-0.424c-0.32,-0.283 -0.48,-0.749 -0.48,-1.399l0,-9.594l2.079,0l0,8.507Z" style="fill:#ffc5b6;fill-rule:nonzero;"/><path d="M375.834,77.038l0,1.119l-6.172,3.694l-0.911,-1.456l3.582,-2.206l1.455,-0.576l-1.439,-0.479l-3.678,-2.207l0.911,-1.423l6.252,3.534Z" style="fill:#ffc5b6;fill-rule:nonzero;"/><path d="M1.007,251.18l0,-1.119l6.172,-3.694l0.912,1.439l-3.582,2.223l-1.455,0.559l1.439,0.496l3.678,2.19l-0.912,1.44l-6.252,-3.534Z" style="fill:#ffc5b6;fill-rule:nonzero;"/><path d="M14.598,255.737l0,-4.541c0,-0.65 -0.09,-1.119 -0.271,-1.407c-0.182,-0.288 -0.512,-0.432 -0.992,-0.432c-0.351,0 -0.674,0.12 -0.967,0.36c-0.293,0.24 -0.488,0.546 -0.584,0.919l0,5.101l-2.078,0l0,-11.193l2.078,0l0,4.094l0.064,0c0.256,-0.342 0.571,-0.613 0.944,-0.816c0.373,-0.202 0.847,-0.304 1.423,-0.304c0.405,0 0.762,0.054 1.071,0.16c0.309,0.107 0.568,0.283 0.776,0.528c0.207,0.245 0.362,0.578 0.463,0.999c0.101,0.421 0.152,0.941 0.152,1.559l0,4.973l-2.079,0Z" style="fill:#ffc5b6;fill-rule:nonzero;"/><path d="M24.816,255.049c-0.32,0.256 -0.754,0.472 -1.303,0.648c-0.549,0.176 -1.133,0.264 -1.751,0.264c-1.29,0 -2.233,-0.376 -2.83,-1.128c-0.597,-0.751 -0.896,-1.782 -0.896,-3.094c0,-1.407 0.336,-2.462 1.008,-3.165c0.671,-0.704 1.614,-1.056 2.83,-1.056c0.405,0 0.799,0.054 1.183,0.16c0.384,0.107 0.725,0.283 1.023,0.528c0.299,0.245 0.539,0.575 0.72,0.991c0.181,0.416 0.272,0.933 0.272,1.551c0,0.224 -0.014,0.464 -0.04,0.72c-0.027,0.255 -0.067,0.522 -0.12,0.799l-4.797,0c0.032,0.672 0.205,1.178 0.52,1.519c0.314,0.341 0.823,0.512 1.527,0.512c0.437,0 0.828,-0.067 1.175,-0.2c0.346,-0.133 0.61,-0.269 0.791,-0.408l0.688,1.359ZM21.842,249.181c-0.544,0 -0.946,0.163 -1.207,0.488c-0.262,0.325 -0.419,0.759 -0.472,1.303l2.974,0c0.043,-0.576 -0.045,-1.018 -0.264,-1.327c-0.218,-0.309 -0.562,-0.464 -1.031,-0.464Z" style="fill:#ffc5b6;fill-rule:nonzero;"/><path d="M26.495,248.206c0.426,-0.192 0.932,-0.344 1.519,-0.456c0.586,-0.112 1.199,-0.168 1.838,-0.168c0.555,0 1.018,0.067 1.392,0.2c0.373,0.133 0.668,0.323 0.887,0.568c0.219,0.245 0.373,0.538 0.464,0.879c0.09,0.341 0.136,0.725 0.136,1.151c0,0.469 -0.016,0.941 -0.048,1.415c-0.032,0.475 -0.051,0.941 -0.056,1.4c-0.006,0.458 0.008,0.903 0.04,1.335c0.032,0.431 0.112,0.839 0.239,1.223l-1.694,0l-0.336,-1.103l-0.08,0c-0.213,0.33 -0.509,0.615 -0.888,0.855c-0.378,0.24 -0.866,0.36 -1.463,0.36c-0.373,0 -0.708,-0.056 -1.007,-0.168c-0.298,-0.112 -0.554,-0.272 -0.767,-0.48c-0.214,-0.208 -0.379,-0.453 -0.496,-0.735c-0.117,-0.283 -0.176,-0.6 -0.176,-0.952c0,-0.49 0.109,-0.903 0.328,-1.239c0.218,-0.336 0.533,-0.607 0.943,-0.815c0.411,-0.208 0.901,-0.352 1.471,-0.432c0.571,-0.08 1.207,-0.104 1.911,-0.072c0.075,-0.597 0.032,-1.026 -0.128,-1.287c-0.16,-0.261 -0.517,-0.392 -1.071,-0.392c-0.416,0 -0.856,0.043 -1.319,0.128c-0.464,0.085 -0.845,0.197 -1.144,0.336l-0.495,-1.551ZM29.133,254.154c0.416,0 0.746,-0.093 0.991,-0.28c0.245,-0.186 0.427,-0.386 0.544,-0.6l0,-1.039c-0.33,-0.032 -0.648,-0.037 -0.951,-0.016c-0.304,0.021 -0.573,0.069 -0.808,0.144c-0.234,0.075 -0.421,0.181 -0.56,0.32c-0.138,0.138 -0.207,0.314 -0.207,0.528c0,0.298 0.088,0.53 0.263,0.695c0.176,0.165 0.419,0.248 0.728,0.248Z" style="fill:#ffc5b6;fill-rule:nonzero;"/><path d="M41.269,252.923c0,0.447 0.005,0.895 0.016,1.343c0.011,0.448 0.059,0.943 0.144,1.487l-1.487,0l-0.288,-1.039l-0.064,0c-0.213,0.373 -0.52,0.674 -0.919,0.903c-0.4,0.229 -0.872,0.344 -1.415,0.344c-1.002,0 -1.781,-0.331 -2.335,-0.992c-0.554,-0.661 -0.831,-1.695 -0.831,-3.102c0,-1.364 0.309,-2.425 0.927,-3.182c0.618,-0.756 1.524,-1.135 2.718,-1.135c0.331,0 0.603,0.019 0.816,0.056c0.213,0.037 0.426,0.099 0.639,0.184l0,-3.246l2.079,0l0,8.379ZM37.735,254.202c0.405,0 0.725,-0.099 0.96,-0.296c0.234,-0.197 0.399,-0.482 0.495,-0.855l0,-3.39c-0.149,-0.117 -0.314,-0.205 -0.495,-0.264c-0.182,-0.059 -0.416,-0.088 -0.704,-0.088c-0.586,0 -1.026,0.197 -1.319,0.592c-0.293,0.394 -0.44,1.071 -0.44,2.03c0,0.683 0.12,1.232 0.36,1.647c0.24,0.416 0.621,0.624 1.143,0.624Z" style="fill:#ffc5b6;fill-rule:nonzero;"/><path d="M49.967,249.901l0,1.119l-6.172,3.694l-0.911,-1.456l3.582,-2.206l1.455,-0.576l-1.439,-0.479l-3.678,-2.207l0.911,-1.423l6.252,3.534Z" style="fill:#ffc5b6;fill-rule:nonzero;"/><path d="M44.403,387.299l0,-1.119l6.172,-3.694l0.911,1.439l-3.581,2.223l-1.455,0.559l1.439,0.496l3.677,2.191l-0.911,1.439l-6.252,-3.534Z" style="fill:#ffc5b6;fill-rule:nonzero;"/><path d="M59.897,389.042c0,0.447 0.005,0.895 0.016,1.343c0.011,0.448 0.058,0.943 0.144,1.487l-1.487,0l-0.288,-1.039l-0.064,0c-0.213,0.373 -0.52,0.674 -0.919,0.903c-0.4,0.229 -0.872,0.344 -1.416,0.344c-1.002,0 -1.78,-0.331 -2.334,-0.992c-0.554,-0.66 -0.831,-1.694 -0.831,-3.102c0,-1.364 0.309,-2.425 0.927,-3.181c0.618,-0.757 1.524,-1.136 2.718,-1.136c0.331,0 0.602,0.019 0.816,0.056c0.213,0.038 0.426,0.099 0.639,0.184l0,-3.246l2.079,0l0,8.379ZM56.363,390.321c0.405,0 0.725,-0.099 0.96,-0.296c0.234,-0.197 0.399,-0.482 0.495,-0.855l0,-3.39c-0.149,-0.117 -0.314,-0.205 -0.495,-0.264c-0.182,-0.059 -0.416,-0.088 -0.704,-0.088c-0.586,0 -1.026,0.197 -1.319,0.592c-0.293,0.394 -0.44,1.071 -0.44,2.03c0,0.683 0.12,1.232 0.36,1.647c0.24,0.416 0.621,0.624 1.143,0.624Z" style="fill:#ffc5b6;fill-rule:nonzero;"/><path d="M61.912,383.861l2.078,0l0,7.995l-2.078,0l0,-7.995ZM61.608,381.607c0,-0.31 0.114,-0.573 0.344,-0.792c0.229,-0.218 0.546,-0.328 0.951,-0.328c0.405,0 0.733,0.11 0.983,0.328c0.251,0.219 0.376,0.482 0.376,0.792c0,0.309 -0.125,0.567 -0.376,0.775c-0.25,0.208 -0.578,0.312 -0.983,0.312c-0.405,0 -0.722,-0.104 -0.951,-0.312c-0.23,-0.208 -0.344,-0.466 -0.344,-0.775Z" style="fill:#ffc5b6;fill-rule:nonzero;"/><path d="M68.787,388.05l0.272,1.232l0.08,0l0.224,-1.264l1.359,-4.157l2.238,0l-3.341,8.075l-1.264,0l-3.469,-8.075l2.414,0l1.487,4.189Z" style="fill:#ffc5b6;fill-rule:nonzero;"/><path d="M80.523,386.02l0,1.119l-6.172,3.694l-0.911,-1.455l3.582,-2.207l1.455,-0.576l-1.439,-0.479l-3.678,-2.207l0.911,-1.423l6.252,3.534Z" style="fill:#ffc5b6;fill-rule:nonzero;"/><path d="M445.725,334.07l0,-1.12l6.172,-3.693l0.911,1.439l-3.582,2.222l-1.455,0.56l1.439,0.496l3.678,2.19l-0.911,1.439l-6.252,-3.533Z" style="fill:#ffc5b6;fill-rule:nonzero;"/><path d="M453.687,330.632l1.104,0l0,-0.448c0,-1.012 0.213,-1.745 0.639,-2.198c0.427,-0.453 1.045,-0.68 1.855,-0.68c0.853,0 1.562,0.101 2.127,0.304l-0.4,1.663c-0.245,-0.085 -0.461,-0.141 -0.648,-0.168c-0.186,-0.027 -0.381,-0.04 -0.583,-0.04c-0.213,0 -0.381,0.032 -0.504,0.096c-0.122,0.064 -0.213,0.162 -0.272,0.296c-0.058,0.133 -0.096,0.298 -0.112,0.495c-0.016,0.198 -0.024,0.424 -0.024,0.68l1.759,0l0,1.759l-1.759,0l0,6.236l-2.078,0l0,-6.236l-1.104,0l0,-1.759Z" style="fill:#ffc5b6;fill-rule:nonzero;"/><path d="M459.172,334.629c0,-1.353 0.33,-2.395 0.991,-3.126c0.661,-0.73 1.589,-1.095 2.782,-1.095c0.64,0 1.194,0.101 1.663,0.304c0.469,0.202 0.858,0.488 1.168,0.855c0.309,0.368 0.541,0.813 0.695,1.335c0.155,0.523 0.232,1.098 0.232,1.727c0,1.354 -0.328,2.396 -0.983,3.126c-0.656,0.73 -1.581,1.096 -2.775,1.096c-0.639,0 -1.193,-0.102 -1.662,-0.304c-0.469,-0.203 -0.861,-0.488 -1.176,-0.856c-0.314,-0.367 -0.549,-0.813 -0.703,-1.335c-0.155,-0.522 -0.232,-1.098 -0.232,-1.727ZM461.315,334.629c0,0.352 0.031,0.677 0.095,0.976c0.064,0.298 0.16,0.559 0.288,0.783c0.128,0.224 0.296,0.397 0.504,0.52c0.208,0.122 0.456,0.184 0.743,0.184c0.544,0 0.949,-0.198 1.216,-0.592c0.266,-0.394 0.399,-1.018 0.399,-1.871c0,-0.735 -0.122,-1.329 -0.367,-1.783c-0.246,-0.453 -0.661,-0.679 -1.248,-0.679c-0.511,0 -0.911,0.192 -1.199,0.576c-0.288,0.383 -0.431,1.012 -0.431,1.886Z" style="fill:#ffc5b6;fill-rule:nonzero;"/><path d="M472.555,332.583c-0.33,-0.118 -0.629,-0.176 -0.895,-0.176c-0.373,0 -0.685,0.098 -0.936,0.296c-0.25,0.197 -0.418,0.45 -0.503,0.759l0,5.165l-2.079,0l0,-7.995l1.615,0l0.24,1.055l0.064,0c0.181,-0.394 0.426,-0.698 0.735,-0.911c0.309,-0.213 0.672,-0.32 1.088,-0.32c0.277,0 0.591,0.059 0.943,0.176l-0.272,1.951Z" style="fill:#ffc5b6;fill-rule:nonzero;"/><path d="M478.295,338.627l0,-4.349c0,-0.736 -0.069,-1.258 -0.207,-1.567c-0.139,-0.31 -0.427,-0.464 -0.864,-0.464c-0.362,0 -0.655,0.098 -0.879,0.296c-0.224,0.197 -0.395,0.45 -0.512,0.759l0,5.325l-2.079,0l0,-7.995l1.615,0l0.24,1.055l0.064,0c0.245,-0.341 0.557,-0.639 0.936,-0.895c0.378,-0.256 0.866,-0.384 1.463,-0.384c0.511,0 0.93,0.104 1.255,0.312c0.325,0.208 0.578,0.557 0.759,1.047c0.245,-0.416 0.56,-0.746 0.944,-0.991c0.383,-0.245 0.847,-0.368 1.391,-0.368c0.447,0 0.829,0.053 1.143,0.16c0.314,0.107 0.57,0.29 0.767,0.552c0.198,0.261 0.344,0.61 0.44,1.047c0.096,0.437 0.144,0.991 0.144,1.663l0,4.797l-2.079,0l0,-4.493c0,-0.629 -0.066,-1.101 -0.199,-1.415c-0.134,-0.315 -0.429,-0.472 -0.888,-0.472c-0.373,0 -0.669,0.101 -0.887,0.304c-0.219,0.202 -0.381,0.479 -0.488,0.831l0,5.245l-2.079,0Z" style="fill:#ffc5b6;fill-rule:nonzero;"/><path d="M493.501,332.791l0,1.119l-6.171,3.693l-0.912,-1.455l3.582,-2.206l1.455,-0.576l-1.439,-0.48l-3.678,-2.206l0.912,-1.423l6.251,3.534Z" style="fill:#ffc5b6;fill-rule:nonzero;"/><path d="M428.792,387.299l0,-1.119l6.172,-3.694l0.911,1.439l-3.582,2.223l-1.455,0.559l1.439,0.496l3.678,2.191l-0.911,1.439l-6.252,-3.534Z" style="fill:#ffc5b6;fill-rule:nonzero;"/><path d="M437.49,380.663l2.079,0l0,3.838l0.064,0c0.224,-0.256 0.511,-0.459 0.863,-0.608c0.352,-0.149 0.741,-0.224 1.167,-0.224c0.96,0 1.693,0.328 2.199,0.984c0.506,0.655 0.759,1.655 0.759,2.998c0,1.439 -0.354,2.531 -1.063,3.278c-0.709,0.746 -1.681,1.119 -2.918,1.119c-0.682,0 -1.306,-0.056 -1.871,-0.168c-0.565,-0.112 -0.991,-0.237 -1.279,-0.376l0,-10.841ZM441.056,385.428c-0.384,0 -0.696,0.099 -0.936,0.296c-0.239,0.197 -0.423,0.482 -0.551,0.855l0,3.486c0.17,0.085 0.354,0.144 0.551,0.176c0.198,0.032 0.408,0.048 0.632,0.048c0.565,0 0.994,-0.205 1.287,-0.616c0.293,-0.41 0.44,-1.063 0.44,-1.958c0,-1.525 -0.475,-2.287 -1.423,-2.287Z" style="fill:#ffc5b6;fill-rule:nonzero;"/><path d="M448.059,383.861l0,4.541c0,0.65 0.077,1.119 0.232,1.407c0.155,0.288 0.456,0.432 0.903,0.432c0.395,0 0.723,-0.117 0.984,-0.352c0.261,-0.234 0.455,-0.522 0.583,-0.863l0,-5.165l2.079,0l0,5.564c0,0.438 0.021,0.867 0.064,1.288c0.043,0.421 0.107,0.802 0.192,1.143l-1.567,0l-0.368,-1.183l-0.064,0c-0.245,0.405 -0.586,0.741 -1.023,1.007c-0.437,0.267 -0.954,0.4 -1.551,0.4c-0.405,0 -0.768,-0.054 -1.087,-0.16c-0.32,-0.107 -0.587,-0.283 -0.8,-0.528c-0.213,-0.245 -0.376,-0.575 -0.488,-0.991c-0.112,-0.416 -0.167,-0.938 -0.167,-1.567l0,-4.973l2.078,0Z" style="fill:#ffc5b6;fill-rule:nonzero;"/><path d="M453.831,383.861l1.104,0l0,-1.503l2.078,-0.592l0,2.095l1.951,0l0,1.759l-1.951,0l0,3.07c0,0.554 0.056,0.951 0.168,1.191c0.112,0.24 0.323,0.36 0.632,0.36c0.213,0 0.397,-0.021 0.551,-0.064c0.155,-0.043 0.328,-0.107 0.52,-0.192l0.368,1.599c-0.288,0.139 -0.624,0.256 -1.007,0.352c-0.384,0.096 -0.773,0.144 -1.168,0.144c-0.735,0 -1.276,-0.189 -1.623,-0.568c-0.346,-0.378 -0.519,-0.999 -0.519,-1.863l0,-4.029l-1.104,0l0,-1.759Z" style="fill:#ffc5b6;fill-rule:nonzero;"/><path d="M459.412,383.861l1.103,0l0,-1.503l2.079,-0.592l0,2.095l1.95,0l0,1.759l-1.95,0l0,3.07c0,0.554 0.056,0.951 0.168,1.191c0.111,0.24 0.322,0.36 0.631,0.36c0.213,0 0.397,-0.021 0.552,-0.064c0.154,-0.043 0.328,-0.107 0.519,-0.192l0.368,1.599c-0.288,0.139 -0.623,0.256 -1.007,0.352c-0.384,0.096 -0.773,0.144 -1.167,0.144c-0.736,0 -1.277,-0.189 -1.623,-0.568c-0.347,-0.378 -0.52,-0.999 -0.52,-1.863l0,-4.029l-1.103,0l0,-1.759Z" style="fill:#ffc5b6;fill-rule:nonzero;"/><path d="M465.44,387.859c0,-1.354 0.33,-2.396 0.991,-3.126c0.661,-0.731 1.588,-1.096 2.782,-1.096c0.64,0 1.194,0.102 1.663,0.304c0.469,0.203 0.858,0.488 1.167,0.856c0.31,0.367 0.541,0.812 0.696,1.335c0.155,0.522 0.232,1.098 0.232,1.727c0,1.353 -0.328,2.395 -0.983,3.125c-0.656,0.731 -1.581,1.096 -2.775,1.096c-0.639,0 -1.194,-0.102 -1.663,-0.304c-0.469,-0.203 -0.86,-0.488 -1.175,-0.855c-0.314,-0.368 -0.549,-0.813 -0.703,-1.336c-0.155,-0.522 -0.232,-1.098 -0.232,-1.726ZM467.582,387.859c0,0.351 0.032,0.676 0.096,0.975c0.064,0.298 0.16,0.56 0.288,0.783c0.128,0.224 0.296,0.397 0.504,0.52c0.208,0.123 0.456,0.184 0.743,0.184c0.544,0 0.949,-0.197 1.216,-0.592c0.266,-0.394 0.399,-1.018 0.399,-1.87c0,-0.736 -0.122,-1.33 -0.367,-1.783c-0.246,-0.453 -0.661,-0.68 -1.248,-0.68c-0.511,0 -0.911,0.192 -1.199,0.576c-0.288,0.383 -0.432,1.012 -0.432,1.887Z" style="fill:#ffc5b6;fill-rule:nonzero;"/><path d="M479.303,391.856l0,-4.541c0,-0.65 -0.094,-1.119 -0.28,-1.407c-0.187,-0.288 -0.504,-0.432 -0.951,-0.432c-0.395,0 -0.728,0.115 -1,0.344c-0.272,0.229 -0.466,0.514 -0.583,0.855l0,5.181l-2.079,0l0,-7.995l1.647,0l0.24,1.055l0.064,0c0.245,-0.341 0.57,-0.639 0.975,-0.895c0.405,-0.256 0.927,-0.384 1.567,-0.384c0.394,0 0.746,0.054 1.055,0.16c0.309,0.107 0.571,0.283 0.784,0.528c0.213,0.245 0.373,0.578 0.479,0.999c0.107,0.421 0.16,0.941 0.16,1.559l0,4.973l-2.078,0Z" style="fill:#ffc5b6;fill-rule:nonzero;"/><path d="M490,386.02l0,1.119l-6.172,3.694l-0.912,-1.455l3.582,-2.207l1.455,-0.576l-1.439,-0.479l-3.678,-2.207l0.912,-1.423l6.252,3.534Z" style="fill:#ffc5b6;fill-rule:nonzero;"/><g transform="matrix(0.75,0,0,0.75,-50.2557,-45.4986)"><path d="M190.325,258.996l0,-1.492l8.23,-4.925l1.215,1.919l-4.776,2.963l-1.94,0.746l1.919,0.661l4.904,2.921l-1.216,1.919l-8.336,-4.712Z" style="fill:#ffc5b6;fill-rule:nonzero;"/><path d="M206.336,262.13c0,-0.284 -0.12,-0.511 -0.362,-0.682c-0.242,-0.171 -0.54,-0.327 -0.895,-0.469c-0.356,-0.142 -0.747,-0.288 -1.173,-0.437c-0.426,-0.149 -0.817,-0.355 -1.173,-0.618c-0.355,-0.263 -0.653,-0.597 -0.895,-1.002c-0.242,-0.405 -0.362,-0.928 -0.362,-1.567c0,-1.052 0.312,-1.855 0.938,-2.409c0.625,-0.555 1.527,-0.832 2.707,-0.832c0.81,0 1.542,0.085 2.196,0.256c0.654,0.171 1.165,0.362 1.535,0.576l-0.618,2.004c-0.327,-0.128 -0.739,-0.263 -1.237,-0.405c-0.497,-0.143 -1.002,-0.214 -1.513,-0.214c-0.825,0 -1.237,0.32 -1.237,0.96c0,0.256 0.121,0.462 0.362,0.618c0.242,0.156 0.541,0.302 0.896,0.437c0.355,0.135 0.746,0.281 1.172,0.437c0.427,0.156 0.818,0.359 1.173,0.608c0.355,0.248 0.654,0.572 0.895,0.97c0.242,0.398 0.363,0.909 0.363,1.535c0,1.08 -0.345,1.929 -1.034,2.547c-0.689,0.619 -1.723,0.928 -3.102,0.928c-0.753,0 -1.46,-0.096 -2.121,-0.288c-0.661,-0.192 -1.198,-0.416 -1.61,-0.672l0.768,-2.068c0.326,0.185 0.76,0.366 1.3,0.544c0.54,0.178 1.094,0.267 1.663,0.267c0.412,0 0.743,-0.079 0.991,-0.235c0.249,-0.156 0.373,-0.419 0.373,-0.789Z" style="fill:#ffc5b6;fill-rule:nonzero;"/><path d="M218.467,264.411c-0.426,0.313 -0.942,0.551 -1.546,0.715c-0.604,0.163 -1.225,0.245 -1.865,0.245c-0.853,0 -1.574,-0.135 -2.164,-0.405c-0.59,-0.27 -1.069,-0.651 -1.439,-1.141c-0.37,-0.49 -0.636,-1.084 -0.799,-1.78c-0.164,-0.696 -0.246,-1.464 -0.246,-2.303c0,-1.805 0.405,-3.194 1.216,-4.167c0.81,-0.974 1.989,-1.461 3.539,-1.461c0.781,0 1.41,0.064 1.886,0.192c0.476,0.128 0.906,0.291 1.29,0.49l-0.661,2.26c-0.327,-0.156 -0.65,-0.277 -0.97,-0.362c-0.32,-0.086 -0.686,-0.128 -1.098,-0.128c-0.767,0 -1.35,0.252 -1.748,0.757c-0.398,0.504 -0.597,1.311 -0.597,2.419c0,0.455 0.05,0.875 0.149,1.258c0.1,0.384 0.249,0.718 0.448,1.002c0.199,0.285 0.458,0.508 0.778,0.672c0.32,0.163 0.693,0.245 1.12,0.245c0.469,0 0.867,-0.06 1.193,-0.181c0.327,-0.121 0.619,-0.267 0.875,-0.437l0.639,2.11Z" style="fill:#ffc5b6;fill-rule:nonzero;"/><path d="M226.035,257.014c-0.44,-0.157 -0.838,-0.235 -1.193,-0.235c-0.498,0 -0.914,0.132 -1.248,0.394c-0.334,0.263 -0.557,0.601 -0.671,1.013l0,6.886l-2.772,0l0,-10.659l2.154,0l0.319,1.407l0.086,0c0.241,-0.526 0.568,-0.931 0.98,-1.216c0.413,-0.284 0.896,-0.426 1.45,-0.426c0.37,0 0.789,0.078 1.258,0.235l-0.363,2.601Z" style="fill:#ffc5b6;fill-rule:nonzero;"/><path d="M227.89,254.413l2.772,0l0,10.659l-2.772,0l0,-10.659ZM227.485,251.407c0,-0.413 0.153,-0.764 0.459,-1.056c0.305,-0.291 0.728,-0.437 1.268,-0.437c0.54,0 0.977,0.146 1.311,0.437c0.334,0.292 0.501,0.643 0.501,1.056c0,0.412 -0.167,0.756 -0.501,1.034c-0.334,0.277 -0.771,0.415 -1.311,0.415c-0.54,0 -0.963,-0.138 -1.268,-0.415c-0.306,-0.278 -0.459,-0.622 -0.459,-1.034Z" style="fill:#ffc5b6;fill-rule:nonzero;"/><path d="M233.369,254.413l2.026,0l0.319,1.279l0.086,0c0.369,-0.54 0.806,-0.938 1.311,-1.194c0.504,-0.256 1.119,-0.384 1.844,-0.384c1.336,0 2.338,0.423 3.006,1.269c0.668,0.845 1.002,2.206 1.002,4.082c0,0.91 -0.107,1.731 -0.32,2.463c-0.213,0.732 -0.529,1.353 -0.948,1.865c-0.42,0.512 -0.931,0.903 -1.535,1.173c-0.604,0.27 -1.297,0.405 -2.079,0.405c-0.441,0 -0.803,-0.032 -1.087,-0.096c-0.285,-0.064 -0.569,-0.167 -0.853,-0.309l0,4.37l-2.772,0l0,-14.923ZM238.124,256.459c-0.541,0 -0.963,0.135 -1.269,0.405c-0.306,0.27 -0.544,0.675 -0.714,1.216l0,4.434c0.199,0.156 0.416,0.281 0.65,0.373c0.235,0.092 0.544,0.139 0.928,0.139c0.795,0 1.392,-0.281 1.79,-0.842c0.398,-0.562 0.597,-1.489 0.597,-2.783c0,-0.938 -0.156,-1.663 -0.469,-2.174c-0.312,-0.512 -0.817,-0.768 -1.513,-0.768Z" style="fill:#ffc5b6;fill-rule:nonzero;"/><path d="M243.773,254.413l1.471,0l0,-2.004l2.772,-0.789l0,2.793l2.601,0l0,2.345l-2.601,0l0,4.093c0,0.739 0.074,1.269 0.224,1.588c0.149,0.32 0.43,0.48 0.842,0.48c0.284,0 0.529,-0.028 0.735,-0.085c0.206,-0.057 0.437,-0.142 0.693,-0.256l0.49,2.132c-0.383,0.185 -0.831,0.341 -1.343,0.469c-0.511,0.128 -1.03,0.192 -1.556,0.192c-0.981,0 -1.702,-0.253 -2.164,-0.757c-0.462,-0.505 -0.693,-1.333 -0.693,-2.484l0,-5.372l-1.471,0l0,-2.345Z" style="fill:#ffc5b6;fill-rule:nonzero;"/><path d="M261.49,257.291l0,1.492l-8.23,4.925l-1.215,-1.94l4.776,-2.942l1.94,-0.768l-1.919,-0.639l-4.903,-2.942l1.215,-1.898l8.336,4.712Z" style="fill:#ffc5b6;fill-rule:nonzero;"/><path d="M181.711,297.613l2.921,0l0,10.915c0,0.569 -0.064,1.109 -0.192,1.62c-0.128,0.512 -0.337,0.963 -0.629,1.354c-0.291,0.391 -0.664,0.704 -1.119,0.938c-0.455,0.235 -1.009,0.352 -1.663,0.352c-0.412,0 -0.86,-0.043 -1.343,-0.128c-0.483,-0.085 -0.903,-0.206 -1.258,-0.362l0.64,-2.388c0.369,0.185 0.788,0.277 1.257,0.277c0.597,0 0.978,-0.22 1.141,-0.661c0.164,-0.44 0.245,-1.023 0.245,-1.748l0,-10.169Z" style="fill:#fff;fill-rule:nonzero;"/><path d="M194.673,309.232l-4.583,0l-1.13,3.304l-2.921,0l5.373,-15.03l2.153,0l5.372,15.03l-3.07,0l-1.194,-3.304ZM190.836,306.887l3.198,0l-1.109,-3.326l-0.447,-2.345l-0.107,0l-0.448,2.366l-1.087,3.305Z" style="fill:#fff;fill-rule:nonzero;"/><path d="M203.67,306.375l0.384,2.537l0.107,0l0.426,-2.558l2.857,-8.741l3.07,0l-5.543,15.03l-2.09,0l-5.585,-15.03l3.39,0l2.984,8.762Z" style="fill:#fff;fill-rule:nonzero;"/><path d="M217.507,309.232l-4.584,0l-1.13,3.304l-2.921,0l5.373,-15.03l2.153,0l5.372,15.03l-3.07,0l-1.193,-3.304ZM213.669,306.887l3.198,0l-1.109,-3.326l-0.447,-2.345l-0.107,0l-0.448,2.366l-1.087,3.305Z" style="fill:#fff;fill-rule:nonzero;"/><path d="M229.488,308.528c0,-0.455 -0.167,-0.824 -0.501,-1.108c-0.334,-0.285 -0.753,-0.544 -1.258,-0.779c-0.504,-0.234 -1.052,-0.476 -1.641,-0.724c-0.59,-0.249 -1.137,-0.555 -1.642,-0.917c-0.505,-0.363 -0.924,-0.814 -1.258,-1.354c-0.334,-0.54 -0.501,-1.229 -0.501,-2.068c0,-0.725 0.121,-1.354 0.363,-1.887c0.241,-0.533 0.586,-0.977 1.034,-1.332c0.447,-0.356 0.977,-0.618 1.588,-0.789c0.611,-0.171 1.293,-0.256 2.047,-0.256c0.867,0 1.684,0.075 2.451,0.224c0.768,0.149 1.4,0.366 1.898,0.65l-0.917,2.452c-0.313,-0.199 -0.782,-0.38 -1.407,-0.544c-0.626,-0.163 -1.301,-0.245 -2.025,-0.245c-0.683,0 -1.205,0.135 -1.567,0.405c-0.363,0.27 -0.544,0.633 -0.544,1.088c0,0.426 0.167,0.781 0.501,1.065c0.334,0.285 0.753,0.548 1.258,0.789c0.504,0.242 1.052,0.491 1.641,0.746c0.59,0.256 1.137,0.565 1.642,0.928c0.505,0.362 0.924,0.81 1.258,1.343c0.334,0.533 0.501,1.197 0.501,1.993c0,0.796 -0.132,1.482 -0.395,2.058c-0.263,0.575 -0.632,1.055 -1.108,1.439c-0.476,0.383 -1.052,0.668 -1.727,0.853c-0.675,0.184 -1.418,0.277 -2.228,0.277c-1.066,0 -2.004,-0.1 -2.814,-0.299c-0.81,-0.199 -1.407,-0.398 -1.791,-0.597l0.938,-2.494c0.156,0.085 0.359,0.178 0.608,0.277c0.248,0.1 0.529,0.192 0.842,0.277c0.312,0.085 0.643,0.157 0.991,0.213c0.348,0.057 0.707,0.086 1.077,0.086c0.867,0 1.531,-0.146 1.993,-0.437c0.462,-0.292 0.693,-0.736 0.693,-1.333Z" style="fill:#fff;fill-rule:nonzero;"/><path d="M244.454,311.918c-0.455,0.327 -1.034,0.561 -1.737,0.703c-0.704,0.143 -1.425,0.214 -2.164,0.214c-0.896,0 -1.745,-0.139 -2.548,-0.416c-0.803,-0.277 -1.51,-0.725 -2.121,-1.343c-0.611,-0.618 -1.098,-1.421 -1.461,-2.409c-0.362,-0.988 -0.543,-2.186 -0.543,-3.593c0,-1.464 0.202,-2.689 0.607,-3.677c0.406,-0.988 0.931,-1.784 1.578,-2.388c0.647,-0.604 1.368,-1.038 2.164,-1.3c0.796,-0.263 1.592,-0.395 2.388,-0.395c0.853,0 1.574,0.057 2.164,0.171c0.59,0.113 1.076,0.248 1.46,0.405l-0.576,2.473c-0.326,-0.157 -0.714,-0.27 -1.161,-0.341c-0.448,-0.071 -0.992,-0.107 -1.631,-0.107c-1.18,0 -2.129,0.419 -2.847,1.258c-0.717,0.839 -1.076,2.139 -1.076,3.901c0,0.768 0.085,1.468 0.256,2.1c0.17,0.633 0.43,1.173 0.778,1.621c0.348,0.447 0.782,0.796 1.3,1.044c0.519,0.249 1.12,0.373 1.802,0.373c0.639,0 1.179,-0.064 1.62,-0.191c0.441,-0.128 0.824,-0.292 1.151,-0.491l0.597,2.388Z" style="fill:#fff;fill-rule:nonzero;"/><path d="M246.266,297.762c0.327,-0.057 0.679,-0.11 1.056,-0.16c0.376,-0.05 0.753,-0.089 1.13,-0.117c0.376,-0.029 0.742,-0.05 1.098,-0.064c0.355,-0.014 0.682,-0.022 0.98,-0.022c0.697,0 1.382,0.064 2.058,0.192c0.675,0.128 1.279,0.349 1.812,0.661c0.533,0.313 0.959,0.743 1.279,1.29c0.32,0.547 0.48,1.233 0.48,2.057c0,1.223 -0.285,2.218 -0.853,2.985c-0.569,0.768 -1.329,1.301 -2.281,1.599l1.044,0.661l3.411,5.692l-3.368,0l-3.39,-5.841l-1.535,-0.277l0,6.118l-2.921,0l0,-14.774ZM250.743,300c-0.298,0 -0.593,0.007 -0.884,0.022c-0.292,0.014 -0.515,0.042 -0.672,0.085l0,4.328l1.237,0c0.81,0 1.457,-0.185 1.94,-0.554c0.483,-0.37 0.725,-0.981 0.725,-1.834c0,-0.64 -0.199,-1.141 -0.597,-1.503c-0.398,-0.362 -0.981,-0.544 -1.749,-0.544Z" style="fill:#fff;fill-rule:nonzero;"/><rect x="259.399" y="297.613" width="2.921" height="14.924" style="fill:#fff;fill-rule:nonzero;"/><path d="M265.177,297.762c0.597,-0.114 1.254,-0.203 1.972,-0.267c0.718,-0.064 1.432,-0.096 2.142,-0.096c0.739,0 1.482,0.061 2.228,0.182c0.746,0.12 1.418,0.362 2.015,0.725c0.597,0.362 1.084,0.866 1.46,1.513c0.377,0.647 0.565,1.489 0.565,2.527c0,0.938 -0.163,1.73 -0.49,2.377c-0.327,0.646 -0.76,1.176 -1.301,1.588c-0.54,0.412 -1.154,0.711 -1.844,0.895c-0.689,0.185 -1.403,0.278 -2.142,0.278c-0.071,0 -0.185,0 -0.341,0c-0.157,0 -0.32,-0.004 -0.491,-0.011c-0.17,-0.007 -0.337,-0.018 -0.501,-0.032c-0.163,-0.014 -0.28,-0.029 -0.352,-0.043l0,5.138l-2.92,0l0,-14.774ZM269.526,299.915c-0.284,0 -0.554,0.011 -0.81,0.032c-0.256,0.021 -0.462,0.046 -0.619,0.075l0,4.839c0.057,0.014 0.143,0.029 0.256,0.043c0.114,0.014 0.235,0.025 0.363,0.032c0.128,0.007 0.252,0.01 0.373,0.01c0.121,0 0.209,0 0.266,0c0.384,0 0.764,-0.035 1.141,-0.106c0.377,-0.071 0.714,-0.203 1.013,-0.395c0.298,-0.191 0.536,-0.458 0.714,-0.799c0.177,-0.341 0.266,-0.789 0.266,-1.343c0,-0.469 -0.085,-0.856 -0.256,-1.162c-0.17,-0.306 -0.394,-0.551 -0.671,-0.736c-0.277,-0.184 -0.594,-0.312 -0.949,-0.383c-0.355,-0.071 -0.718,-0.107 -1.087,-0.107Z" style="fill:#fff;fill-rule:nonzero;"/><path d="M287.967,300.214l-4.349,0l0,12.322l-2.921,0l0,-12.322l-4.37,0l0,-2.601l11.64,0l0,2.601Z" style="fill:#fff;fill-rule:nonzero;"/></g></svg>