<svg viewBox="0 0 520 499" xmlns="http://www.w3.org/2000/svg" fill-rule="evenodd" clip-rule="evenodd" stroke-linejoin="round" stroke-miterlimit="1.414"><path fill="#4d4d4d" d="M154.905 94.418h189.617v264.834H154.905z"/><path fill="#f2675d" d="M168.75 109.687h91.022v3.458h-91.02z"/><path fill="#9acae6" d="M168.75 118.235h29.168v3.458H168.75z"/><path fill="#ccc" d="M168.75 126.76h47.037v3.458H168.75z"/><path fill="#9acae6" d="M190.637 135.31h27.448v3.458h-27.448zm0 8.526h27.448v3.457h-27.448zm19.05 8.548h26.697v3.458h-26.696z"/><path fill="#ccc" d="M207.733 118.235h49.742v3.458h-49.742zm56.83 0h23.754v3.458h-23.754zm32.774 0h32.066v3.458h-32.066z"/><path fill="#9acae6" d="M223.648 126.76h27.986v3.458h-27.986z"/><path fill="#ccc" d="M226.46 135.31h16.023v3.458H226.46zm0 8.526h27.45v3.457h-27.45zm23.648-8.526h30.498v3.458h-30.498zm36.598 0h16v3.458h-16zm22.874 0h19.823v3.458H309.58zm-49.57 8.526h34.665v3.457H260.01zm39.84 0h10.352v3.457H299.85zm-55.842 8.548h19.846v3.458h-19.846z"/><path fill="#9acae6" d="M190.637 169.46h27.448v3.456h-27.448zm0 8.547h27.448v3.457h-27.448z"/><path fill="#ccc" d="M226.46 169.46h16.023v3.456H226.46zm0 8.547h24.722v3.457h-24.72zm23.648-8.547h23.453v3.456h-23.45zm28.136 0h12.33v3.456h-12.33zm17.61 0h15.25v3.456h-15.25zm-20.617 8.547h27.47v3.457h-27.47z"/><path fill="#9acae6" d="M190.637 186.533h27.448v3.458h-27.448zm0 8.547h27.448v3.458h-27.448z"/><path fill="#ccc" d="M226.46 186.533h16.023v3.458H226.46zm0 8.547h50.323v3.458H226.46zm23.648-8.547h30.498v3.458h-30.498zm36.598 0h16v3.458h-16zm22.874 0h19.823v3.458H309.58zm-26.697 8.547h28.222v3.458h-28.222zm-26.203-17.073h11.683v3.457H256.68z"/><path fill="#9acae6" d="M168.75 212.156h29.168v3.458H168.75z"/><path fill="#ccc" d="M168.75 220.682h47.037v3.457H168.75z"/><path fill="#9acae6" d="M190.637 229.23h27.448v3.458h-27.448zm0 8.527h27.448v3.48h-27.448zm19.05 8.548h26.697v3.457h-26.696z"/><path fill="#ccc" d="M207.733 212.156h27.6v3.458h-27.6zm34.665 0h13.94v3.458h-13.94zm22.96 0h44.33v3.458h-44.33z"/><path fill="#9acae6" d="M223.648 220.682h27.986v3.457h-27.986z"/><path fill="#ccc" d="M226.46 229.23h31.272v3.458h-31.27zm0 8.527h21.35v3.48h-21.35zm38.897-8.527h23.238v3.458h-23.238zm-11.447 8.527h40.765v3.48H253.91zm45.94 0h10.352v3.48H299.85zm-55.842 8.548h19.846v3.457h-19.846zm24.25 0H305.2v3.457h-36.943zm42.438 0h11.04v3.457h-11.04z"/><path fill="#9acae6" d="M190.637 263.38h27.448v3.458h-27.448zm0 8.547h27.448v3.458h-27.448z"/><path fill="#ccc" d="M226.46 263.38h45.19v3.458h-45.19zm0 8.547h24.722v3.458h-24.72zm51.784-8.547h12.33v3.458h-12.33zm17.61 0h15.25v3.458h-15.25zm-20.617 8.547h27.47v3.458h-27.47zm-18.557 0h11.683v3.458H256.68z"/><path fill="#9acae6" d="M168.75 285.93h29.168v3.458H168.75z"/><path fill="#ccc" d="M168.75 294.457h47.037v3.457H168.75z"/><path fill="#9acae6" d="M190.637 303.005h27.448v3.458h-27.448zm0 8.527h27.448v3.458h-27.448zm19.05 8.548h26.697v3.46h-26.696z"/><path fill="#ccc" d="M207.733 285.93h27.6v3.458h-27.6zm34.665 0h13.94v3.458h-13.94zm22.96 0h64.045v3.458h-64.046z"/><path fill="#9acae6" d="M223.648 294.457h27.986v3.457h-27.986z"/><path fill="#ccc" d="M226.46 303.005h31.272v3.458h-31.27zm0 8.527h21.35v3.458h-21.35zm38.897-8.527h23.238v3.458h-23.238zm29.34 0h14.13v3.458h-14.13zm21.003 0h13.703v3.458H315.7zm-61.79 8.527h40.765v3.458H253.91zm45.94 0h10.352v3.458H299.85zm-55.842 8.548h19.846v3.46h-19.846z"/><path fill="#9acae6" d="M190.637 337.154h27.448v3.458h-27.448zm0 8.55h27.448v3.456h-27.448z"/><path fill="#ccc" d="M226.46 337.154h45.19v3.458h-45.19zm0 8.55h24.722v3.456h-24.72zm51.784-8.55h12.33v3.458h-12.33zm17.61 0h15.25v3.458h-15.25zm-20.617 8.55h27.47v3.456h-27.47zm-18.557 0h11.683v3.456H256.68z"/></svg>