<?xml version="1.0" standalone="no"?><!DOCTYPE svg PUBLIC "-//W3C//DTD SVG 1.1//EN" "http://www.w3.org/Graphics/SVG/1.1/DTD/svg11.dtd"><svg width="100%" height="100%" viewBox="0 0 1000 1000" version="1.1" xmlns="http://www.w3.org/2000/svg" xmlns:xlink="http://www.w3.org/1999/xlink" xml:space="preserve" style="fill-rule:evenodd;clip-rule:evenodd;stroke-miterlimit:22.926;"><g id="Layer1"><path d="M535.391,459.385l-20.951,-41.477l82.814,-46.715l20.977,41.482c24.829,-8.332 50.985,-12.718 77.631,-12.697l0,71.06c-81.432,-0.032 -156.748,55.727 -181.662,142.321c-30.499,106.011 26.104,218.072 126.431,250.299c18.385,5.905 36.962,8.709 55.231,8.715l0,71.069c-9.493,-0.006 -19.048,-0.573 -28.624,-1.719l-12.949,45.007l-89.828,-28.854l12.949,-45.008c-32.591,-17.813 -60.452,-42.406 -82.488,-71.597l-39.277,22.129l-44.196,-87.515l39.258,-22.153c-10.698,-35.579 -14.509,-73.734 -10.392,-112.264l-42.582,-13.679l27.311,-94.926l42.583,13.678c16.869,-34.42 40.134,-63.874 67.764,-87.156M695.862,399.978c9.49,0.008 19.04,0.574 28.614,1.721l12.947,-45.006l89.828,28.854l-12.947,45.006c32.576,17.809 60.461,42.41 82.497,71.602l39.252,-22.133l44.211,87.516l-39.253,22.138c10.688,35.592 14.501,73.742 10.387,112.273l42.581,13.679l-27.308,94.914l-42.58,-13.677c-16.878,34.431 -40.141,63.888 -67.769,87.172l20.948,41.489l-82.827,46.701l-20.951,-41.476c-24.832,8.327 -50.993,12.709 -77.63,12.691l0,-71.069c81.43,0.029 156.752,-55.724 181.663,-142.308c30.501,-106.02 -26.116,-218.087 -126.442,-250.314c-18.381,-5.903 -36.955,-8.707 -55.221,-8.713l0,-71.06Z" style="fill:#ffa185;fill-rule:nonzero;"/><path d="M108.505,159.318l-12.68,-25.1l50.118,-28.271l12.694,25.103c15.025,-5.042 30.855,-7.697 46.981,-7.683l0,43.003c-49.282,-0.018 -94.862,33.725 -109.939,86.13c-18.457,64.156 15.798,131.972 76.515,151.476c11.126,3.574 22.367,5.271 33.424,5.274l0,43.009c-5.746,-0.005 -11.527,-0.346 -17.323,-1.04l-7.836,27.237l-54.361,-17.462l7.834,-27.238c-19.723,-10.779 -36.583,-25.662 -49.919,-43.329l-23.771,13.392l-26.746,-52.963l23.758,-13.406c-6.473,-21.53 -8.779,-44.621 -6.287,-67.939l-25.77,-8.277l16.527,-57.447l25.769,8.278c10.211,-20.832 24.29,-38.657 41.012,-52.747M205.618,123.367c5.742,0.005 11.522,0.347 17.316,1.041l7.836,-27.237l54.363,17.462l-7.838,27.236c19.715,10.778 36.591,25.666 49.927,43.332l23.755,-13.394l26.754,52.964l-23.755,13.397c6.471,21.539 8.778,44.627 6.288,67.945l25.766,8.277l-16.524,57.441l-25.769,-8.276c-10.214,20.836 -24.293,38.663 -41.011,52.754l12.677,25.108l-50.127,28.264l-12.678,-25.103c-15.029,5.04 -30.861,7.693 -46.98,7.681l0,-43.009c49.279,0.016 94.862,-33.724 109.938,-86.123c18.459,-64.16 -15.805,-131.98 -76.518,-151.483c-11.126,-3.573 -22.366,-5.27 -33.42,-5.274l0,-43.003Z" style="fill:#ffa185;fill-rule:nonzero;"/><path d="M704.53,196.731l197.604,0l33.16,35.038l0,-35.038l0.001,344.849l-230.763,0l-0.002,-344.849Z" style="fill:#fff;"/><path d="M844.69,441.314l0,21.552" style="fill:none;stroke-width:0.96px;stroke:#ccc;"/><path d="M894.246,441.314l0,43.104" style="fill:none;stroke-width:0.96px;stroke:#ccc;"/><rect x="763.897" y="233.668" width="112.031" height="8.42" style="fill:#ccc;"/><rect x="725.71" y="254.719" width="188.405" height="8.42" style="fill:#ccc;"/><rect x="725.711" y="269.453" width="188.405" height="8.42" style="fill:#ccc;"/><rect x="725.711" y="284.189" width="188.405" height="8.42" style="fill:#ccc;"/><rect x="725.711" y="298.924" width="88.297" height="8.42" style="fill:#ccc;"/><path d="M889.682,345.356c13.493,0 24.433,11.558 24.433,25.816c0,14.258 -10.939,25.817 -24.433,25.817c-13.493,0 -24.433,-11.559 -24.433,-25.817c0,-14.258 10.94,-25.816 24.433,-25.816" style="fill:#ef4136;"/><path d="M876.237,392.729c-3.507,-2.447 -6.384,-5.822 -8.311,-9.798l21.755,-11.759l-13.444,21.557Z" style="fill:#fcd8d6;"/><path d="M867.926,382.931c-1.71,-3.526 -2.677,-7.523 -2.677,-11.759c0,-8.255 3.667,-15.604 9.375,-20.33l15.058,20.33l-21.756,11.759Z" style="fill:#f9b3af;"/><path d="M874.623,350.842c4.149,-3.436 9.378,-5.486 15.058,-5.486l0,25.816l-15.058,-20.33Z" style="fill:#f48c85;"/><path d="M889.682,345.356l0,25.816l17.413,-18.107c-4.432,-4.757 -10.595,-7.709 -17.413,-7.709" style="fill:#f2675d;"/><rect x="725.71" y="401.376" width="112.108" height="3.03" style="fill:#ccc;"/><rect x="725.711" y="337.939" width="19.929" height="63.437" style="fill:#4c8eb4;"/><path d="M748.755,361.858l19.928,0l0.001,39.518l-19.929,0l0,-39.518Z" style="fill:#609dc1;"/><rect x="771.798" y="375.241" width="19.929" height="26.135" style="fill:#73accd;"/><rect x="794.843" y="362.986" width="19.929" height="38.389" style="fill:#87bbda;"/><rect x="817.886" y="373.925" width="19.929" height="27.451" style="fill:#9acae6;"/><rect x="866.805" y="401.376" width="10.058" height="3.03" style="fill:#ccc;"/><rect x="881.521" y="401.376" width="29.877" height="3.03" style="fill:#ccc;"/><path d="M902.134,231.768l33.159,0l-33.159,-35.037l0,35.037Z" style="fill:#ccc;"/><rect x="725.711" y="434.907" width="39.74" height="12.815" style="fill:#ef4136;"/><rect x="775.4" y="434.907" width="39.74" height="12.815" style="fill:#9acae6;"/><rect x="824.82" y="434.907" width="39.74" height="12.815" style="fill:#609dc1;"/><rect x="874.376" y="434.907" width="39.74" height="12.815" style="fill:#9acae6;"/><rect x="725.711" y="456.458" width="39.74" height="12.815" style="fill:#f2675d;"/><rect x="725.711" y="478.01" width="39.74" height="12.815" style="fill:#f48c85;"/><rect x="725.711" y="499.562" width="39.74" height="12.815" style="fill:#fcd8d6;"/><rect x="824.82" y="456.458" width="39.74" height="12.815" style="fill:#609dc1;"/><rect x="874.376" y="456.458" width="39.74" height="12.815" style="fill:#9acae6;"/><rect x="874.376" y="478.01" width="39.74" height="12.815" style="fill:#9acae6;"/><path d="M231.243,420.538l496.125,0c10.142,0 18.437,8.766 18.437,19.481l0,331.182c0,10.715 -8.295,19.481 -18.437,19.481l-496.125,0c-10.141,0 -18.437,-8.766 -18.437,-19.481l0,-331.182c0,-10.715 8.296,-19.481 18.437,-19.481" style="fill:#808080;"/><rect x="240.461" y="459.186" width="477.689" height="270.965" style="fill:#fff;"/><rect x="467.971" y="747.02" width="22.666" height="23.949" style="fill:#ccc;"/><path d="M212.806,790.682l533,0l92.573,64.114l-718.147,0l92.574,-64.114Z" style="fill:#808080;"/><path d="M120.232,854.798l718.147,0l0,21.848c0,7.742 -5.996,14.078 -13.325,14.078l-691.498,0c-7.328,0 -13.324,-6.336 -13.324,-14.078l0,-21.848Z" style="fill:#4d4d4d;"/><rect x="406.775" y="873.414" width="145.06" height="9.774" style="fill:#808080;"/><rect x="120.232" y="854.799" width="718.146" height="10.922" style="fill:#666;"/><path d="M234.618,827.697l-1.309,1.039l1.309,-0.001l0,-1.038ZM234.618,814.663l0,0.978c-2.707,2.022 -5.387,4.038 -8.09,6.074c-3.104,2.335 -6.178,4.701 -9.334,7.048c-15.643,0.032 -31.221,0.053 -46.8,0.082c3.693,-2.36 7.32,-4.718 10.946,-7.076c3.627,-2.356 7.251,-4.722 10.945,-7.085c14.068,-0.004 28.2,-0.015 42.333,-0.021M234.618,795.04l0,14.143c-11.311,0 -22.612,0.003 -33.872,-0.002c3.557,-2.356 7.251,-4.716 10.875,-7.072c3.626,-2.36 7.253,-4.723 10.945,-7.087l12.052,0.018ZM161.397,834.708l73.221,-0.159l0,14.016c-31.704,0.099 -63.408,0.198 -95.109,0.296c3.693,-2.358 7.319,-4.715 10.944,-7.074c3.626,-2.357 7.251,-4.717 10.944,-7.079M234.618,815.641l1.31,-0.978l-1.31,0l0,0.978ZM259.832,814.645l0,14.044l-25.214,0.046l0,-1.038c2.524,-1.997 5.051,-3.988 7.555,-5.997c2.902,-2.331 5.841,-4.701 8.796,-7.049l8.863,-0.006ZM259.832,807.553c-0.675,0.541 -1.348,1.083 -2.015,1.624l2.015,0l0,-1.624ZM259.832,795.072l0,1.515c-2.458,1.854 -4.878,3.71 -7.319,5.547c-3.141,2.364 -6.312,4.697 -9.334,7.047l-8.561,0.002l0,-14.143c8.405,0.014 16.81,0.023 25.214,0.032M234.618,834.549l25.214,-0.054l0,13.991l-25.214,0.079l0,-14.016ZM592.871,795.501c13.093,0.017 26.186,0.033 39.345,0.05c1.815,2.272 3.607,4.545 5.372,6.793c1.792,2.281 3.627,4.523 5.372,6.79c-14.166,0 -28.401,0.005 -42.5,0.005c-1.279,-2.272 -2.542,-4.52 -3.829,-6.81c-1.264,-2.248 -2.485,-4.55 -3.76,-6.828M539.961,795.432c13.093,0.016 26.253,0.031 39.347,0.052c1.141,2.283 2.189,4.572 3.289,6.833c1.116,2.289 2.149,4.55 3.29,6.822c-14.233,0.004 -28.401,0.004 -42.569,0.004c-0.536,-2.282 -1.107,-4.559 -1.679,-6.846c-0.569,-2.276 -1.142,-4.572 -1.678,-6.865M487.049,795.368c13.095,0.014 26.187,0.03 39.347,0.047c0.405,2.293 0.775,4.591 1.143,6.87c0.37,2.292 0.806,4.576 1.142,6.858c-14.169,0.008 -28.269,0.008 -42.436,0.013c0.134,-2.301 0.268,-4.599 0.403,-6.893c0.133,-2.292 0.269,-4.597 0.401,-6.895M434.141,795.297c13.093,0.015 26.187,0.032 39.347,0.048c-0.336,2.31 -0.639,4.606 -0.941,6.909c-0.302,2.3 -0.672,4.596 -0.939,6.897c-14.17,0.005 -28.336,0.005 -42.437,0.009c0.805,-2.31 1.682,-4.618 2.485,-6.923c0.806,-2.31 1.679,-4.624 2.485,-6.94M381.231,795.228c13.093,0.015 26.253,0.036 39.345,0.053c-1.008,2.32 -2.016,4.634 -3.021,6.945c-1.006,2.315 -2.081,4.62 -3.02,6.934c-14.235,0.005 -28.403,0 -42.504,0.005c1.475,-2.319 3.019,-4.643 4.566,-6.966c1.541,-2.316 3.021,-4.64 4.634,-6.971M328.319,795.163c13.093,0.016 26.254,0.031 39.414,0.048c-1.745,2.331 -3.491,4.657 -5.169,6.982c-1.679,2.325 -3.491,4.647 -5.171,6.972c-14.167,0.006 -28.333,0.006 -42.502,0.012c2.216,-2.337 4.5,-4.668 6.715,-7.001c2.217,-2.332 4.43,-4.676 6.713,-7.013M603.412,814.437c14.571,-0.011 29.142,-0.021 43.711,-0.027c1.746,2.267 3.557,4.528 5.372,6.794c1.812,2.262 3.627,4.517 5.372,6.783c-15.644,0.029 -31.289,0.056 -46.867,0.08c-1.209,-2.27 -2.526,-4.554 -3.76,-6.81c-1.249,-2.282 -2.617,-4.548 -3.828,-6.82M544.66,814.468c14.571,-0.006 29.142,-0.016 43.778,-0.021c1.008,2.277 2.151,4.555 3.224,6.827c1.075,2.278 2.215,4.55 3.291,6.822c-15.645,0.032 -31.291,0.059 -46.867,0.084c-0.538,-2.287 -1.113,-4.575 -1.68,-6.847c-0.572,-2.292 -1.208,-4.576 -1.746,-6.865M485.976,814.506c14.502,-0.01 29.073,-0.015 43.644,-0.027c0.336,2.295 0.738,4.583 1.141,6.87c0.403,2.287 0.806,4.571 1.141,6.859c-15.643,0.027 -31.221,0.054 -46.798,0.081c0.201,-2.293 0.369,-4.591 0.469,-6.885c0.1,-2.293 0.201,-4.593 0.403,-6.898M427.226,814.544c14.568,-0.011 29.073,-0.017 43.643,-0.027c-0.336,2.305 -0.638,4.6 -0.94,6.908c-0.301,2.295 -0.604,4.598 -0.94,6.896c-15.645,0.027 -31.223,0.054 -46.801,0.081c0.874,-2.309 1.711,-4.605 2.551,-6.923c0.837,-2.302 1.612,-4.619 2.487,-6.935M368.405,814.576c14.57,-0.003 29.141,-0.009 43.779,-0.02c-1.075,2.314 -2.08,4.63 -3.089,6.944c-1.005,2.31 -2.013,4.62 -3.021,6.928c-15.646,0.033 -31.29,0.056 -46.867,0.088c1.544,-2.327 3.115,-4.633 4.634,-6.961c1.502,-2.313 3.02,-4.653 4.564,-6.979M309.721,814.615c14.502,-0.006 29.141,-0.017 43.71,-0.023c-1.745,2.327 -3.448,4.639 -5.169,6.978c-1.702,2.313 -3.423,4.651 -5.17,6.973c-15.645,0.032 -31.289,0.059 -46.867,0.085c2.282,-2.337 4.516,-4.653 6.781,-7.005c2.232,-2.318 4.433,-4.667 6.715,-7.008M484.768,833.996c16.046,-0.033 32.027,-0.069 48.142,-0.107c0.336,2.293 0.739,4.582 1.142,6.864c0.403,2.287 0.805,4.576 1.208,6.86c-17.121,0.053 -34.176,0.106 -51.231,0.16c0.134,-2.293 0.236,-4.588 0.334,-6.885c0.102,-2.295 0.269,-4.588 0.405,-6.892M259.832,796.587c0.669,-0.504 1.339,-1.009 2.014,-1.512l-2.014,-0.003l0,1.515ZM259.832,809.177l0,-1.624c2.246,-1.798 4.523,-3.595 6.781,-5.408c2.903,-2.33 5.843,-4.7 8.796,-7.053c13.093,0.018 26.187,0.031 39.347,0.054c-2.417,2.342 -4.833,4.68 -7.251,7.015c-2.418,2.337 -4.902,4.673 -7.251,7.01c-13.493,0.004 -26.988,0.006 -40.422,0.006M259.832,828.689l0,-14.044c11.599,-0.007 23.182,-0.01 34.849,-0.019c-2.486,2.341 -4.902,4.682 -7.318,7.019c-2.418,2.337 -4.768,4.668 -7.253,7.011l-20.278,0.033ZM699.362,833.523l0,13.572l-17.458,0.054c-42.97,0.135 -86.012,0.275 -128.985,0.408c-0.603,-2.281 -1.141,-4.565 -1.745,-6.848c-0.604,-2.282 -1.143,-4.565 -1.679,-6.853c40.355,-0.091 80.707,-0.18 121.062,-0.269l28.805,-0.064ZM699.362,814.378l0,13.535l-25.381,0.042c-1.946,-2.255 -3.874,-4.53 -5.842,-6.773c-1.994,-2.274 -4.027,-4.523 -5.908,-6.783c12.342,-0.011 24.733,-0.015 37.131,-0.021M699.362,808.505c-2.205,-2.044 -4.46,-4.087 -6.714,-6.129c-2.482,-2.245 -5.037,-4.5 -7.52,-6.756c-13.16,-0.016 -26.254,-0.033 -39.347,-0.056c2.014,2.268 3.943,4.549 5.909,6.792c1.993,2.272 3.961,4.517 5.907,6.778c13.878,-0.006 27.823,-0.006 41.765,-0.006l0,-0.623ZM699.362,795.637l0,0.562l-0.672,-0.564l0.672,0.002ZM259.832,834.495l54.924,-0.121c51.097,-0.113 102.262,-0.227 153.494,-0.341c-0.335,2.305 -0.638,4.607 -0.94,6.903c-0.303,2.302 -0.672,4.598 -0.939,6.896c-54.523,0.172 -109.045,0.346 -163.5,0.518l-43.039,0.136l0,-13.991ZM720.915,814.361c14.571,-0.004 29.142,-0.016 43.779,-0.027c3.155,2.24 6.39,4.467 9.601,6.721c3.167,2.219 6.38,4.468 9.536,6.707c-15.646,0.032 -31.291,0.059 -46.868,0.086c-2.685,-2.252 -5.358,-4.509 -7.989,-6.734c-2.673,-2.263 -5.44,-4.503 -8.059,-6.753M699.362,796.199c2.463,2.07 4.926,4.132 7.385,6.189c2.686,2.243 5.306,4.49 7.923,6.734c14.17,0 28.337,0 42.571,-0.004c-3.155,-2.24 -6.322,-4.463 -9.534,-6.715c-3.166,-2.221 -6.379,-4.473 -9.602,-6.718l-38.743,-0.048l0,0.562ZM699.362,809.128l0,-0.623l0.673,0.623l-0.673,0ZM699.362,827.913l0,-13.535l6.513,-0.005c2.485,2.254 5.004,4.476 7.521,6.754c2.451,2.221 4.969,4.497 7.386,6.748l-21.42,0.038ZM699.362,847.095l0,-13.572l92.392,-0.205c3.223,2.245 6.381,4.479 9.602,6.713c3.224,2.237 6.378,4.475 9.603,6.707c-37.214,0.123 -74.428,0.241 -111.597,0.357" style="fill:#ccc;"/><rect x="240.459" y="87.403" width="477.689" height="47.088" style="fill:#fff;"/><rect x="240.461" y="124.324" width="471.225" height="10.166" style="fill:#ffcd61;"/><rect x="240.461" y="101.946" width="5.04" height="32.545" style="fill:#ffcd61;"/><rect x="251.925" y="111.022" width="1.817" height="23.469" style="fill:#ffcd61;"/><rect x="260.713" y="111.022" width="1.817" height="23.469" style="fill:#ffcd61;"/><rect x="269.502" y="111.022" width="1.817" height="23.469" style="fill:#ffcd61;"/><rect x="278.291" y="111.022" width="1.817" height="23.469" style="fill:#ffcd61;"/><rect x="287.079" y="101.946" width="5.038" height="32.545" style="fill:#ffcd61;"/><rect x="298.543" y="111.022" width="1.817" height="23.469" style="fill:#ffcd61;"/><rect x="307.331" y="111.022" width="1.817" height="23.469" style="fill:#ffcd61;"/><rect x="316.121" y="111.022" width="1.817" height="23.469" style="fill:#ffcd61;"/><rect x="324.909" y="111.022" width="1.817" height="23.469" style="fill:#ffcd61;"/><rect x="333.698" y="101.946" width="5.04" height="32.545" style="fill:#ffcd61;"/><rect x="345.161" y="111.022" width="1.817" height="23.469" style="fill:#ffcd61;"/><rect x="353.951" y="111.022" width="1.817" height="23.469" style="fill:#ffcd61;"/><rect x="362.739" y="111.022" width="1.817" height="23.469" style="fill:#ffcd61;"/><rect x="371.528" y="111.022" width="1.817" height="23.469" style="fill:#ffcd61;"/><rect x="380.316" y="101.946" width="5.038" height="32.545" style="fill:#ffcd61;"/><rect x="391.781" y="111.022" width="1.817" height="23.469" style="fill:#ffcd61;"/><rect x="400.569" y="111.022" width="1.817" height="23.469" style="fill:#ffcd61;"/><rect x="409.358" y="111.022" width="1.817" height="23.469" style="fill:#ffcd61;"/><rect x="418.145" y="111.022" width="1.817" height="23.469" style="fill:#ffcd61;"/><rect x="426.936" y="101.946" width="5.04" height="32.545" style="fill:#ffcd61;"/><rect x="438.399" y="111.022" width="1.817" height="23.469" style="fill:#ffcd61;"/><rect x="447.188" y="111.022" width="1.817" height="23.469" style="fill:#ffcd61;"/><rect x="455.977" y="111.022" width="1.817" height="23.469" style="fill:#ffcd61;"/><rect x="464.766" y="111.022" width="1.817" height="23.469" style="fill:#ffcd61;"/><rect x="473.554" y="101.946" width="5.038" height="32.545" style="fill:#ffcd61;"/><rect x="485.019" y="111.022" width="1.817" height="23.469" style="fill:#ffcd61;"/><rect x="493.805" y="111.022" width="1.817" height="23.469" style="fill:#ffcd61;"/><rect x="502.595" y="111.022" width="1.817" height="23.469" style="fill:#ffcd61;"/><rect x="511.383" y="111.022" width="1.817" height="23.469" style="fill:#ffcd61;"/><rect x="520.172" y="101.946" width="5.04" height="32.545" style="fill:#ffcd61;"/><rect x="531.635" y="111.022" width="1.817" height="23.469" style="fill:#ffcd61;"/><rect x="540.425" y="111.022" width="1.817" height="23.469" style="fill:#ffcd61;"/><path d="M551.031,134.491l-0.001,-23.469l-1.816,0l0,23.469l1.817,0Z" style="fill:#ffcd61;"/><rect x="558.001" y="111.022" width="1.817" height="23.469" style="fill:#ffcd61;"/><rect x="566.792" y="101.946" width="5.038" height="32.545" style="fill:#ffcd61;"/><rect x="578.255" y="111.022" width="1.817" height="23.469" style="fill:#ffcd61;"/><rect x="587.043" y="111.022" width="1.817" height="23.469" style="fill:#ffcd61;"/><path d="M597.65,134.491l-0.002,-23.469l-1.815,0l0,23.469l1.817,0Z" style="fill:#ffcd61;"/><rect x="604.62" y="111.022" width="1.817" height="23.469" style="fill:#ffcd61;"/><rect x="613.41" y="101.946" width="5.038" height="32.545" style="fill:#ffcd61;"/><rect x="624.873" y="111.022" width="1.817" height="23.469" style="fill:#ffcd61;"/><rect x="633.662" y="111.022" width="1.817" height="23.469" style="fill:#ffcd61;"/><rect x="642.451" y="111.022" width="1.817" height="23.469" style="fill:#ffcd61;"/><rect x="651.239" y="111.022" width="1.817" height="23.469" style="fill:#ffcd61;"/><rect x="660.03" y="101.946" width="5.038" height="32.545" style="fill:#ffcd61;"/><rect x="671.491" y="111.022" width="1.817" height="23.469" style="fill:#ffcd61;"/><rect x="680.281" y="111.022" width="1.817" height="23.469" style="fill:#ffcd61;"/><rect x="689.069" y="111.022" width="1.817" height="23.469" style="fill:#ffcd61;"/><rect x="697.858" y="111.022" width="1.817" height="23.469" style="fill:#ffcd61;"/><rect x="706.648" y="101.946" width="5.038" height="32.545" style="fill:#ffcd61;"/><path d="M131.468,532.239l25.288,0.17l-0.473,173.271l-25.288,-0.171l0.473,-173.27Z" style="fill:#fff;"/><path d="M136.381,540.046l-0.431,157.722l15.421,0.105l0.431,-157.723l-15.421,-0.104Z" style="fill:#87bbda;"/><path d="M160.23,488.773c8.767,5.725 14.594,15.993 14.544,27.681c-0.073,17.867 -13.839,32.292 -30.753,32.214c-16.91,-0.074 -30.56,-14.623 -30.487,-32.492c0.048,-11.691 5.956,-21.903 14.771,-27.548l-0.079,18.298l-0.036,9.738l7.958,4.905l7.966,4.908l8.002,-4.836l8,-4.831l0.04,-9.739l0.074,-18.298Z" style="fill:#fff;"/><path d="M159.447,743.469c8.815,-5.645 14.723,-15.86 14.773,-27.547c0.071,-17.868 -13.579,-32.415 -30.491,-32.492c-16.911,-0.079 -30.678,14.345 -30.753,32.214c-0.046,11.689 5.779,21.954 14.545,27.679l0.075,-18.297l0.041,-9.737l7.999,-4.833l8.002,-4.835l7.965,4.905l7.957,4.908l-0.036,9.739l-0.077,18.296Z" style="fill:#fff;"/><path d="M164.433,731.666c3.083,-4.512 4.828,-9.997 4.852,-15.766c0.06,-14.989 -11.39,-27.193 -25.577,-27.258c-14.187,-0.063 -25.736,12.034 -25.798,27.024c-0.024,5.772 1.677,11.267 4.724,15.811l0.079,-19.221l20.951,-12.653l20.846,12.842l-0.077,19.221Z" style="fill:#87bbda;"/><path d="M123.32,500.175c-3.085,4.512 -4.829,9.997 -4.852,15.766c-0.061,14.992 11.386,27.193 25.578,27.256c14.188,0.065 25.735,-12.032 25.794,-27.023c0.026,-5.768 -1.676,-11.269 -4.724,-15.81l-0.078,19.222l-20.949,12.653l-20.846,-12.843l0.077,-19.221Z" style="fill:#87bbda;"/><path d="M806.131,516.675l-11.639,-27.902l-11.639,27.902l-0.001,220.085c0.001,3.69 2.858,6.71 6.349,6.71l10.582,0c3.491,0 6.348,-3.02 6.348,-6.71l0,-220.085Z" style="fill:#ffeec9;"/><path d="M806.132,516.675l-11.64,-27.902l5.049,29.017l-0.001,225.68l0.243,0c3.491,0 6.348,-3.02 6.348,-6.709l0.001,-220.086Z" style="fill:#ffcd61;"/><path d="M806.131,516.675l-11.639,-27.902l-11.639,27.902l0,210.207c8.196,1.474 15.904,1.407 23.278,0l0,-210.207Z" style="fill:#c0f7fc;"/><path d="M806.132,516.675l-11.64,-27.902l5.049,29.017l-0.001,210.172c3.982,0.012 2.806,-0.357 6.591,-1.08l0.001,-210.207Z" style="fill:#a2edf4;"/><path d="M806.131,516.675l-11.639,-27.902l-11.639,27.902l0,202.362c8.241,1.575 15.945,1.504 23.278,0l0,-202.362Z" style="fill:#87bbda;"/><path d="M806.103,517.565l-11.549,-27.684l5.74,27.72l0,201.534c3.963,0.012 2.065,0.692 5.809,-0.077l0,-201.493Z" style="fill:#4c8eb4;"/><path d="M806.131,516.675l-11.639,-27.902l-11.637,27.902c3.697,0.725 7.6,1.114 11.637,1.114c4.037,0 7.942,-0.389 11.639,-1.114" style="fill:#fff;"/><path d="M806.131,516.675l-11.639,-27.902l5.844,29.017c4.038,0 2.098,-0.39 5.795,-1.115" style="fill:#ccc;"/><path d="M798.337,497.991l-3.844,-9.218l-3.846,9.218c1.223,0.24 2.511,0.368 3.846,0.368c1.333,0 2.624,-0.128 3.844,-0.368" style="fill:#4d4d4d;"/><rect x="124.005" y="146.275" width="136.914" height="51.284" style="fill:#609dc1;"/><rect x="853.44" y="570.955" width="98.369" height="51.283" style="fill:#666;"/><path d="M116.221,318.907l-4.725,0.437l-0.629,-7.585c-4.849,-0.666 -9.577,-2.24 -13.908,-4.64l-4.636,5.835l-13.665,-12.117l4.635,-5.835c-3.013,-4.118 -5.275,-8.707 -6.738,-13.674l-7.179,0.664l-1.553,-18.778l7.177,-0.663c0.63,-5.162 2.109,-10.091 4.392,-14.7l-5.519,-4.899l11.463,-14.439l5.524,4.896c3.896,-3.18 8.242,-5.568 12.94,-7.115l-0.627,-7.588l13.048,-1.204l0,21.258c-8.102,-0.003 -15.949,3.736 -21.34,10.52c-9.874,12.437 -8.332,31.04 3.432,41.472c2.901,2.573 6.196,4.466 9.788,5.62c2.68,0.861 5.414,1.279 8.12,1.279l0,21.256ZM153.053,288.562l5.52,4.894l-11.473,14.439l-5.52,-4.897c-3.898,3.181 -8.236,5.572 -12.935,7.121l0.623,7.584l-13.047,1.204l0,-21.256c8.102,0.003 15.948,-3.737 21.341,-10.523c9.87,-12.435 8.336,-31.035 -3.432,-41.469c-2.905,-2.574 -6.201,-4.467 -9.788,-5.62c-2.681,-0.861 -5.415,-1.279 -8.121,-1.279l0,-21.258l4.722,-0.435l0.626,7.584c4.848,0.664 9.582,2.24 13.918,4.642l4.632,-5.836l13.668,12.117l-4.634,5.835c3.01,4.121 5.271,8.708 6.734,13.675l7.182,-0.665l1.553,18.78l-7.185,0.659c-0.624,5.161 -2.099,10.095 -4.384,14.704" style="fill:#808080;fill-rule:nonzero;"/><path d="M877.012,72.48c11.335,2.455 19.815,11.572 19.815,22.364c0,11.092 -8.788,22.552 -20.772,22.552l-52.677,0c-12.825,0 -22.711,-10.859 -22.711,-22.552c0,-10.792 8.479,-19.909 19.815,-22.364c-0.007,-0.216 -0.01,-0.432 -0.01,-0.649c0,-13.865 12.659,-25.105 28.274,-25.105c15.615,0 28.276,11.24 28.276,25.105c0,0.217 -0.005,0.433 -0.01,0.649" style="fill:#ffbba6;"/><path d="M834.833,63.346c7.92,1.714 13.847,8.085 13.847,15.626c0,7.752 -6.143,15.76 -14.516,15.76l-36.81,0c-8.962,0 -15.87,-7.589 -15.87,-15.76c0,-7.541 5.924,-13.912 13.845,-15.626c-0.005,-0.151 -0.006,-0.302 -0.006,-0.455c0,-9.688 8.845,-17.543 19.758,-17.543c10.911,0 19.757,7.855 19.757,17.543c0,0.153 -0.002,0.304 -0.005,0.455" style="fill:#fff;"/><rect x="298.58" y="196.732" width="361.448" height="533.419" style="fill:#4d4d4d;"/><rect x="324.973" y="227.486" width="173.506" height="6.964" style="fill:#f2675d;"/><rect x="324.973" y="244.703" width="55.598" height="6.964" style="fill:#9acae6;"/><rect x="324.973" y="261.877" width="89.659" height="6.964" style="fill:#ccc;"/><rect x="366.692" y="279.095" width="52.321" height="6.964" style="fill:#9acae6;"/><rect x="366.692" y="296.268" width="52.321" height="6.964" style="fill:#9acae6;"/><rect x="403.006" y="313.486" width="50.889" height="6.964" style="fill:#9acae6;"/><rect x="399.281" y="244.703" width="94.819" height="6.964" style="fill:#ccc;"/><rect x="507.61" y="244.703" width="45.28" height="6.964" style="fill:#ccc;"/><rect x="570.084" y="244.703" width="61.125" height="6.964" style="fill:#ccc;"/><rect x="429.618" y="261.877" width="53.346" height="6.964" style="fill:#9acae6;"/><rect x="434.981" y="279.095" width="30.54" height="6.964" style="fill:#ccc;"/><rect x="434.981" y="296.268" width="52.322" height="6.964" style="fill:#ccc;"/><rect x="480.056" y="279.095" width="58.135" height="6.964" style="fill:#ccc;"/><rect x="549.819" y="279.095" width="30.5" height="6.964" style="fill:#ccc;"/><rect x="593.421" y="279.095" width="37.789" height="6.964" style="fill:#ccc;"/><rect x="498.93" y="296.268" width="66.079" height="6.964" style="fill:#ccc;"/><rect x="574.875" y="296.268" width="19.734" height="6.964" style="fill:#ccc;"/><rect x="468.429" y="313.486" width="37.83" height="6.964" style="fill:#ccc;"/><rect x="366.692" y="347.877" width="52.321" height="6.964" style="fill:#9acae6;"/><rect x="366.692" y="365.094" width="52.321" height="6.964" style="fill:#9acae6;"/><rect x="434.981" y="347.877" width="30.54" height="6.964" style="fill:#ccc;"/><rect x="434.981" y="365.094" width="47.123" height="6.964" style="fill:#ccc;"/><rect x="480.056" y="347.877" width="44.707" height="6.964" style="fill:#ccc;"/><rect x="533.688" y="347.877" width="23.501" height="6.964" style="fill:#ccc;"/><rect x="567.259" y="347.877" width="29.068" height="6.964" style="fill:#ccc;"/><rect x="527.957" y="365.094" width="52.362" height="6.964" style="fill:#ccc;"/><rect x="366.692" y="382.268" width="52.321" height="6.964" style="fill:#9acae6;"/><rect x="366.692" y="399.485" width="52.321" height="6.964" style="fill:#9acae6;"/><rect x="434.981" y="382.268" width="30.54" height="6.964" style="fill:#ccc;"/><rect x="434.981" y="399.485" width="95.924" height="6.964" style="fill:#ccc;"/><rect x="480.056" y="382.268" width="58.135" height="6.964" style="fill:#ccc;"/><rect x="549.819" y="382.268" width="30.5" height="6.964" style="fill:#ccc;"/><rect x="593.421" y="382.268" width="37.789" height="6.964" style="fill:#ccc;"/><rect x="542.532" y="399.485" width="53.796" height="6.964" style="fill:#ccc;"/><rect x="492.584" y="365.094" width="22.271" height="6.964" style="fill:#ccc;"/><rect x="324.973" y="433.875" width="55.598" height="6.964" style="fill:#9acae6;"/><rect x="324.973" y="451.05" width="89.659" height="6.964" style="fill:#ccc;"/><rect x="366.692" y="468.266" width="52.321" height="6.965" style="fill:#9acae6;"/><rect x="366.692" y="485.441" width="52.321" height="7.009" style="fill:#9acae6;"/><rect x="403.006" y="502.657" width="50.889" height="6.964" style="fill:#9acae6;"/><rect x="399.281" y="433.875" width="52.608" height="6.964" style="fill:#ccc;"/><rect x="465.359" y="433.875" width="26.57" height="6.964" style="fill:#ccc;"/><rect x="509.124" y="433.875" width="84.5" height="6.964" style="fill:#ccc;"/><rect x="429.618" y="451.05" width="53.346" height="6.964" style="fill:#9acae6;"/><rect x="434.981" y="468.266" width="59.609" height="6.965" style="fill:#ccc;"/><rect x="434.981" y="485.441" width="40.695" height="7.009" style="fill:#ccc;"/><rect x="509.124" y="468.266" width="44.296" height="6.965" style="fill:#ccc;"/><rect x="487.303" y="485.441" width="77.706" height="7.009" style="fill:#ccc;"/><rect x="574.875" y="485.441" width="19.734" height="7.009" style="fill:#ccc;"/><rect x="468.429" y="502.657" width="37.83" height="6.964" style="fill:#ccc;"/><rect x="514.651" y="502.657" width="70.419" height="6.964" style="fill:#ccc;"/><rect x="595.549" y="502.657" width="21.044" height="6.964" style="fill:#ccc;"/><rect x="366.692" y="537.05" width="52.321" height="6.964" style="fill:#9acae6;"/><rect x="366.692" y="554.265" width="52.321" height="6.965" style="fill:#9acae6;"/><rect x="434.981" y="537.05" width="86.139" height="6.964" style="fill:#ccc;"/><rect x="434.981" y="554.265" width="47.123" height="6.965" style="fill:#ccc;"/><rect x="533.688" y="537.05" width="23.501" height="6.964" style="fill:#ccc;"/><rect x="567.259" y="537.05" width="29.068" height="6.964" style="fill:#ccc;"/><rect x="527.957" y="554.265" width="52.362" height="6.965" style="fill:#ccc;"/><rect x="492.584" y="554.265" width="22.271" height="6.965" style="fill:#ccc;"/><rect x="324.973" y="582.471" width="55.598" height="6.964" style="fill:#9acae6;"/><rect x="324.973" y="599.644" width="89.659" height="6.964" style="fill:#ccc;"/><rect x="366.692" y="616.862" width="52.321" height="6.964" style="fill:#9acae6;"/><rect x="366.692" y="634.036" width="52.321" height="6.964" style="fill:#9acae6;"/><rect x="403.006" y="651.254" width="50.889" height="6.964" style="fill:#9acae6;"/><rect x="399.281" y="582.471" width="52.608" height="6.964" style="fill:#ccc;"/><rect x="465.359" y="582.471" width="26.57" height="6.964" style="fill:#ccc;"/><rect x="509.124" y="582.471" width="122.085" height="6.964" style="fill:#ccc;"/><rect x="429.618" y="599.644" width="53.346" height="6.964" style="fill:#9acae6;"/><rect x="434.981" y="616.862" width="59.609" height="6.964" style="fill:#ccc;"/><rect x="434.981" y="634.036" width="40.695" height="6.964" style="fill:#ccc;"/><rect x="509.124" y="616.862" width="44.296" height="6.964" style="fill:#ccc;"/><rect x="565.049" y="616.862" width="26.939" height="6.964" style="fill:#ccc;"/><rect x="605.088" y="616.862" width="26.121" height="6.964" style="fill:#ccc;"/><rect x="487.303" y="634.036" width="77.706" height="6.964" style="fill:#ccc;"/><rect x="574.875" y="634.036" width="19.734" height="6.964" style="fill:#ccc;"/><rect x="468.429" y="651.254" width="37.83" height="6.964" style="fill:#ccc;"/><rect x="366.692" y="685.644" width="52.321" height="6.964" style="fill:#9acae6;"/><rect x="366.692" y="702.862" width="52.321" height="6.964" style="fill:#9acae6;"/><rect x="434.981" y="685.644" width="86.139" height="6.964" style="fill:#ccc;"/><rect x="434.981" y="702.862" width="47.123" height="6.964" style="fill:#ccc;"/><rect x="533.688" y="685.644" width="23.501" height="6.964" style="fill:#ccc;"/><rect x="567.259" y="685.644" width="29.068" height="6.964" style="fill:#ccc;"/><rect x="527.957" y="702.862" width="52.362" height="6.964" style="fill:#ccc;"/><rect x="492.584" y="702.862" width="22.271" height="6.964" style="fill:#ccc;"/><rect x="140.08" y="348.903" width="193.156" height="51.283" style="fill:#ef4136;"/><text x="147.167px" y="184.415px" style="font-family:PT Sans;font-size:32.206px;font-weight:700;fill:#fff;">H<tspan x="167.009px 184.321px 208.704px 224.371px " y="184.415px 184.415px 184.415px 184.415px ">TML5</tspan></text><text x="871.26px" y="609.093px" style="font-family:PT Sans;font-size:32.206px;font-weight:700;fill:#fff;">C<tspan x="888.298px 904.452px 920.606px " y="609.093px 609.093px 609.093px ">SS3</tspan></text><text x="227.383px" y="35.544px" style="font-family:PT Sans;font-size:32.206px;font-weight:700;fill:#ffc5b6;">&lt;<tspan x="243.446px 254.083px 262.282px 272.919px 281.88px 297.364px " y="35.544px 35.544px 35.544px 35.544px 35.544px 35.544px ">title&gt;</tspan></text><text x="623.95px" y="173.48px" style="font-family:PT Sans;font-size:32.206px;font-weight:700;fill:#ffc5b6;">&lt;<tspan x="640.013px 648.974px 664.091px 680.428px 695.912px 704.873px " y="173.48px 173.48px 173.48px 173.48px 173.48px 173.48px ">label&gt;</tspan></text><text x="4px" y="521.655px" style="font-family:PT Sans;font-size:32.206px;font-weight:700;fill:#ffc5b6;">&lt;<tspan x="20.063px 36.674px 52.157px 67.275px 83.704px " y="521.655px 521.655px 521.655px 521.655px 521.655px ">head&gt;</tspan></text><text x="86.721px" y="795.821px" style="font-family:PT Sans;font-size:32.206px;font-weight:700;fill:#ffc5b6;">&lt;<tspan x="102.784px 119.212px 127.411px 141.95px " y="795.821px 795.821px 795.821px 795.821px ">div&gt;</tspan></text><text x="851.722px" y="688.609px" style="font-family:PT Sans;font-size:32.206px;font-weight:700;fill:#ffc5b6;">&lt;<tspan x="867.785px 877.569px 893.936px 904.634px 929.17px " y="688.609px 688.609px 688.609px 688.609px 688.609px ">form&gt;</tspan></text><text x="819.445px" y="795.821px" style="font-family:PT Sans;font-size:32.206px;font-weight:700;fill:#ffc5b6;">&lt;<tspan x="835.507px 851.844px 868.242px 878.879px 889.517px 905.884px 922.495px " y="795.821px 795.821px 795.821px 795.821px 795.821px 795.821px 795.821px ">button&gt;</tspan></text><g transform="matrix(1.42965,0,0,1.51062,-92.4986,-85.0827)"><text x="189.473px" y="265.072px" style="font-family:PT Sans;font-size:21.319px;font-weight:700;fill:#ffc5b6;">&lt;script&gt; </text><text x="178.918px" y="312.536px" style="font-family:PT Sans;font-size:21.319px;font-weight:700;fill:#fff;">JA<tspan x="197.488px 208.872px 221.77px " y="312.536px 312.536px 312.536px ">VAS</tspan>CRIPT</text></g></g></svg>