<svg viewBox="0 0 520 499" xmlns="http://www.w3.org/2000/svg" fill-rule="evenodd" clip-rule="evenodd" stroke-linejoin="round" stroke-miterlimit="1.414"><path fill="#4d4d4d" d="M154.905 94.418h189.617v264.834H154.905z"/><path fill="#f2675d" d="M168.75 109.687h91.022v3.458h-91.02z"/><path fill="#9acae6" d="M168.75 118.235h29.168v3.458H168.75z"/><path fill="#ccc" d="M168.75 126.76h47.037v3.458H168.75z"/><path fill="#9acae6" d="M190.637 135.31h27.448v3.458h-27.448zM190.637 143.836h27.448v3.457h-27.448zM209.688 152.384h26.696v3.458h-26.696z"/><path fill="#ccc" d="M207.733 118.235h49.742v3.458h-49.742zM264.563 118.235h23.754v3.458h-23.754zM297.337 118.235h32.066v3.458h-32.066z"/><path fill="#9acae6" d="M223.648 126.76h27.986v3.458h-27.986z"/><path fill="#ccc" d="M226.46 135.31h16.023v3.458H226.46zM226.46 143.836h27.45v3.457h-27.45zM250.108 135.31h30.498v3.458h-30.498zM286.706 135.31h16v3.458h-16zM309.58 135.31h19.823v3.458H309.58zM260.01 143.836h34.665v3.457H260.01zM299.85 143.836h10.352v3.457H299.85zM244.008 152.384h19.846v3.458h-19.846z"/><path fill="#9acae6" d="M190.637 169.46h27.448v3.456h-27.448zM190.637 178.007h27.448v3.457h-27.448z"/><path fill="#ccc" d="M226.46 169.46h16.023v3.456H226.46zM226.46 178.007h24.722v3.457h-24.72zM250.108 169.46h23.453v3.456H250.11zM278.244 169.46h12.33v3.456h-12.33zM295.855 169.46h15.25v3.456h-15.25zM275.237 178.007h27.47v3.457h-27.47z"/><path fill="#9acae6" d="M190.637 186.533h27.448v3.458h-27.448zM190.637 195.08h27.448v3.458h-27.448z"/><path fill="#ccc" d="M226.46 186.533h16.023v3.458H226.46zM226.46 195.08h50.323v3.458H226.46zM250.108 186.533h30.498v3.458h-30.498zM286.706 186.533h16v3.458h-16zM309.58 186.533h19.823v3.458H309.58zM282.883 195.08h28.222v3.458h-28.222zM256.68 178.007h11.683v3.457H256.68z"/><path fill="#9acae6" d="M168.75 212.156h29.168v3.458H168.75z"/><path fill="#ccc" d="M168.75 220.682h47.037v3.457H168.75z"/><path fill="#9acae6" d="M190.637 229.23h27.448v3.458h-27.448zM190.637 237.757h27.448v3.48h-27.448zM209.688 246.305h26.696v3.457h-26.696z"/><path fill="#ccc" d="M207.733 212.156h27.6v3.458h-27.6zM242.398 212.156h13.94v3.458h-13.94zM265.357 212.156h44.33v3.458h-44.33z"/><path fill="#9acae6" d="M223.648 220.682h27.986v3.457h-27.986z"/><path fill="#ccc" d="M226.46 229.23h31.272v3.458h-31.27zM226.46 237.757h21.35v3.48h-21.35zM265.357 229.23h23.238v3.458h-23.238zM253.91 237.757h40.765v3.48H253.91zM299.85 237.757h10.352v3.48H299.85zM244.008 246.305h19.846v3.457h-19.846zM268.257 246.305H305.2v3.457h-36.943zM310.696 246.305h11.04v3.457h-11.04z"/><path fill="#9acae6" d="M190.637 263.38h27.448v3.458h-27.448zM190.637 271.927h27.448v3.458h-27.448z"/><path fill="#ccc" d="M226.46 263.38h45.19v3.458h-45.19zM226.46 271.927h24.722v3.458h-24.72zM278.244 263.38h12.33v3.458h-12.33zM295.855 263.38h15.25v3.458h-15.25zM275.237 271.927h27.47v3.458h-27.47zM256.68 271.927h11.683v3.458H256.68z"/><path fill="#9acae6" d="M168.75 285.93h29.168v3.458H168.75z"/><path fill="#ccc" d="M168.75 294.457h47.037v3.457H168.75z"/><path fill="#9acae6" d="M190.637 303.005h27.448v3.458h-27.448zM190.637 311.532h27.448v3.458h-27.448zM209.688 320.08h26.696v3.46h-26.696z"/><path fill="#ccc" d="M207.733 285.93h27.6v3.458h-27.6zM242.398 285.93h13.94v3.458h-13.94zM265.357 285.93h64.046v3.458h-64.046z"/><path fill="#9acae6" d="M223.648 294.457h27.986v3.457h-27.986z"/><path fill="#ccc" d="M226.46 303.005h31.272v3.458h-31.27zM226.46 311.532h21.35v3.458h-21.35zM265.357 303.005h23.238v3.458h-23.238zM294.696 303.005h14.132v3.458h-14.132zM315.7 303.005h13.703v3.458H315.7zM253.91 311.532h40.765v3.458H253.91zM299.85 311.532h10.352v3.458H299.85zM244.008 320.08h19.846v3.46h-19.846z"/><path fill="#9acae6" d="M190.637 337.154h27.448v3.458h-27.448zM190.637 345.703h27.448v3.457h-27.448z"/><path fill="#ccc" d="M226.46 337.154h45.19v3.458h-45.19zM226.46 345.703h24.722v3.457h-24.72zM278.244 337.154h12.33v3.458h-12.33zM295.855 337.154h15.25v3.458h-15.25zM275.237 345.703h27.47v3.457h-27.47zM256.68 345.703h11.683v3.457H256.68z"/></svg>