<?xml version="1.0" standalone="no"?>
<!DOCTYPE svg PUBLIC "-//W3C//DTD SVG 1.1//EN" "http://www.w3.org/Graphics/SVG/1.1/DTD/svg11.dtd">
<svg width="100%" height="100%" viewBox="0 0 693 665" version="1.1" xmlns="http://www.w3.org/2000/svg" xmlns:xlink="http://www.w3.org/1999/xlink" xml:space="preserve" style="fill-rule:evenodd;clip-rule:evenodd;stroke-linejoin:round;stroke-miterlimit:1.41421;">
    <g transform="matrix(1,0,0,1,-67.0075,-60.6647)">
        <path d="M226.447,334.71L573.472,334.71C580.566,334.71 586.368,340.513 586.368,347.606L586.368,566.841C586.368,573.934 580.566,579.737 573.472,579.737L226.447,579.737C219.354,579.737 213.551,573.934 213.551,566.841L213.551,347.606C213.551,340.513 219.354,334.71 226.447,334.71" style="fill:rgb(128,128,128);"/>
    </g>
    <g transform="matrix(1,0,0,1,-67.0075,-60.6647)">
        <rect x="232.895" y="360.294" width="334.129" height="179.373" style="fill:white;"/>
    </g>
    <g transform="matrix(1,0,0,1,-67.0075,-60.6647)">
        <rect x="392.032" y="550.834" width="15.854" height="15.854" style="fill:rgb(204,204,204);"/>
    </g>
    <g transform="matrix(1,0,0,1,-67.0075,-60.6647)">
        <path d="M213.552,579.737L586.369,579.737L651.121,622.179L148.799,622.179L213.552,579.737Z" style="fill:rgb(128,128,128);"/>
    </g>
    <g transform="matrix(1,0,0,1,-67.0075,-60.6647)">
        <path d="M148.799,622.181L651.121,622.181L651.121,636.644C651.121,641.769 646.927,645.963 641.801,645.963L158.119,645.963C152.993,645.963 148.799,641.769 148.799,636.644L148.799,622.181Z" style="fill:rgb(77,77,77);"/>
    </g>
    <g transform="matrix(1,0,0,1,-67.0075,-60.6647)">
        <rect x="349.227" y="634.504" width="101.465" height="6.47" style="fill:rgb(128,128,128);"/>
    </g>
    <g transform="matrix(1,0,0,1,-67.0075,-60.6647)">
        <rect x="148.799" y="622.181" width="502.322" height="7.23" style="fill:rgb(102,102,102);"/>
    </g>
    <g transform="matrix(1,0,0,1,-67.0075,-60.6647)">
        <path d="M228.809,604.24L227.893,604.928L228.809,604.927L228.809,604.24ZM228.809,595.612L228.809,596.259C226.915,597.598 225.041,598.932 223.15,600.28C220.979,601.826 218.829,603.392 216.621,604.946C205.679,604.967 194.783,604.981 183.886,605C186.469,603.438 189.006,601.877 191.542,600.316C194.079,598.756 196.614,597.19 199.198,595.626C209.038,595.623 218.923,595.616 228.809,595.612M228.809,582.622L228.809,591.984C220.897,591.984 212.992,591.986 205.116,591.983C207.604,590.423 210.188,588.861 212.723,587.301C215.259,585.739 217.796,584.175 220.379,582.61L228.809,582.622ZM177.593,608.881L228.809,608.776L228.809,618.054C206.633,618.12 184.457,618.185 162.283,618.25C164.866,616.689 167.402,615.129 169.938,613.567C172.474,612.007 175.01,610.445 177.593,608.881M228.809,596.259L229.725,595.612L228.809,595.612L228.809,596.259ZM246.445,595.6L246.445,604.897L228.809,604.927L228.809,604.24C230.574,602.918 232.342,601.6 234.093,600.27C236.123,598.727 238.179,597.158 240.246,595.604L246.445,595.6ZM246.445,590.905C245.973,591.263 245.502,591.622 245.036,591.98L246.445,591.98L246.445,590.905ZM246.445,582.643L246.445,583.646C244.726,584.873 243.033,586.102 241.326,587.318C239.129,588.883 236.911,590.427 234.797,591.983L228.809,591.984L228.809,582.622C234.688,582.631 240.567,582.637 246.445,582.643M228.809,608.776L246.445,608.74L246.445,618.002L228.809,618.054L228.809,608.776ZM479.396,582.927C488.554,582.938 497.712,582.949 506.917,582.96C508.186,584.464 509.44,585.969 510.674,587.457C511.928,588.967 513.211,590.451 514.432,591.952C504.523,591.952 494.566,591.955 484.704,591.955C483.81,590.451 482.926,588.963 482.026,587.447C481.142,585.959 480.288,584.435 479.396,582.927M442.387,582.881C451.545,582.892 460.75,582.902 469.909,582.916C470.707,584.427 471.44,585.942 472.21,587.439C472.99,588.954 473.713,590.451 474.511,591.955C464.555,591.958 454.645,591.958 444.735,591.958C444.36,590.447 443.961,588.94 443.561,587.426C443.163,585.919 442.762,584.399 442.387,582.881M405.377,582.839C414.536,582.848 423.694,582.859 432.899,582.87C433.182,584.388 433.441,585.909 433.698,587.418C433.957,588.935 434.262,590.447 434.497,591.958C424.586,591.963 414.724,591.963 404.814,591.966C404.908,590.443 405.002,588.922 405.096,587.403C405.189,585.886 405.284,584.36 405.377,582.839M368.369,582.792C377.527,582.802 386.686,582.813 395.891,582.824C395.656,584.353 395.444,585.873 395.233,587.397C395.022,588.92 394.763,590.44 394.576,591.963C384.665,591.966 374.756,591.966 364.893,591.969C365.456,590.44 366.069,588.912 366.631,587.386C367.195,585.857 367.805,584.325 368.369,582.792M331.36,582.746C340.518,582.756 349.723,582.77 358.881,582.781C358.176,584.317 357.471,585.849 356.768,587.379C356.064,588.911 355.312,590.437 354.655,591.969C344.698,591.972 334.788,591.969 324.925,591.972C325.957,590.437 327.037,588.899 328.119,587.361C329.197,585.828 330.232,584.289 331.36,582.746M294.35,582.703C303.508,582.714 312.714,582.724 321.919,582.735C320.698,584.278 319.477,585.818 318.303,587.357C317.129,588.896 315.861,590.433 314.686,591.972C304.777,591.976 294.868,591.976 284.957,591.98C286.507,590.433 288.105,588.89 289.654,587.346C291.205,585.802 292.753,584.25 294.35,582.703M486.769,595.462C496.961,595.455 507.153,595.448 517.344,595.444C518.565,596.945 519.832,598.442 521.101,599.942C522.369,601.439 523.638,602.932 524.859,604.432C513.916,604.451 502.973,604.469 492.077,604.485C491.231,602.982 490.31,601.47 489.447,599.977C488.573,598.466 487.616,596.966 486.769,595.462M445.674,595.483C455.866,595.479 466.058,595.472 476.295,595.469C477,596.976 477.8,598.484 478.55,599.988C479.302,601.496 480.1,603 480.852,604.504C469.909,604.525 458.965,604.543 448.07,604.56C447.694,603.046 447.292,601.531 446.895,600.027C446.495,598.51 446.05,596.998 445.674,595.483M404.626,595.508C414.77,595.501 424.962,595.498 435.154,595.49C435.389,597.009 435.67,598.524 435.952,600.038C436.234,601.552 436.516,603.064 436.75,604.578C425.808,604.596 414.912,604.614 404.016,604.632C404.157,603.114 404.274,601.593 404.344,600.074C404.414,598.556 404.485,597.034 404.626,595.508M363.532,595.533C373.722,595.526 383.868,595.522 394.059,595.515C393.824,597.041 393.613,598.56 393.402,600.088C393.191,601.607 392.979,603.132 392.744,604.653C381.801,604.671 370.905,604.689 360.008,604.707C360.62,603.178 361.205,601.658 361.793,600.124C362.378,598.6 362.92,597.066 363.532,595.533M322.389,595.554C332.58,595.552 342.772,595.548 353.011,595.541C352.259,597.073 351.556,598.606 350.85,600.138C350.147,601.667 349.442,603.196 348.737,604.724C337.793,604.746 326.851,604.761 315.955,604.782C317.035,603.242 318.134,601.715 319.196,600.174C320.247,598.643 321.309,597.094 322.389,595.554M281.341,595.58C291.485,595.576 301.724,595.569 311.915,595.565C310.694,597.105 309.503,598.636 308.299,600.184C307.109,601.715 305.905,603.263 304.683,604.8C293.74,604.821 282.797,604.839 271.901,604.856C273.497,603.309 275.06,601.776 276.644,600.219C278.205,598.685 279.745,597.13 281.341,595.58M403.781,608.41C415.005,608.388 426.183,608.364 437.455,608.339C437.69,609.857 437.972,611.372 438.254,612.883C438.536,614.397 438.817,615.912 439.099,617.424C427.123,617.459 415.194,617.494 403.264,617.53C403.358,616.012 403.429,614.493 403.498,612.972C403.569,611.453 403.686,609.935 403.781,608.41M246.445,583.646C246.913,583.312 247.382,582.978 247.854,582.645L246.445,582.643L246.445,583.646ZM246.445,591.98L246.445,590.905C248.016,589.715 249.609,588.525 251.188,587.325C253.219,585.783 255.275,584.214 257.341,582.656C266.499,582.668 275.658,582.677 284.863,582.692C283.172,584.242 281.482,585.79 279.791,587.336C278.1,588.883 276.362,590.429 274.719,591.976C265.281,591.979 255.842,591.98 246.445,591.98M246.445,604.897L246.445,595.6C254.558,595.595 262.66,595.593 270.821,595.587C269.082,597.137 267.392,598.687 265.702,600.234C264.011,601.781 262.367,603.324 260.629,604.875L246.445,604.897ZM553.883,608.097L553.883,617.081L541.672,617.117C511.616,617.206 481.509,617.299 451.451,617.387C451.029,615.877 450.653,614.365 450.23,612.854C449.808,611.343 449.431,609.832 449.056,608.317C477.283,608.257 505.508,608.198 533.735,608.139L553.883,608.097ZM553.883,595.423L553.883,604.383L536.13,604.411C534.769,602.918 533.42,601.412 532.044,599.927C530.649,598.422 529.227,596.933 527.911,595.437C536.544,595.43 545.211,595.427 553.883,595.423M553.883,591.535C552.341,590.182 550.764,588.83 549.187,587.478C547.451,585.992 545.664,584.499 543.927,583.006C534.722,582.995 525.563,582.984 516.405,582.969C517.814,584.47 519.163,585.98 520.538,587.465C521.932,588.969 523.309,590.455 524.67,591.952C534.377,591.948 544.131,591.948 553.883,591.948L553.883,591.535ZM553.883,583.017L553.883,583.389L553.413,583.016L553.883,583.017ZM246.445,608.74L284.863,608.66C320.604,608.585 356.392,608.51 392.227,608.434C391.993,609.96 391.781,611.484 391.57,613.004C391.358,614.528 391.1,616.048 390.913,617.569C352.776,617.683 314.639,617.798 276.55,617.912L246.445,618.002L246.445,608.74ZM568.959,595.412C579.151,595.409 589.343,595.401 599.581,595.394C601.788,596.877 604.051,598.351 606.297,599.843C608.512,601.312 610.759,602.801 612.967,604.283C602.023,604.304 591.08,604.322 580.184,604.34C578.306,602.849 576.436,601.355 574.596,599.882C572.726,598.384 570.791,596.901 568.959,595.412M553.883,583.389C555.606,584.759 557.329,586.124 559.049,587.486C560.928,588.971 562.76,590.458 564.591,591.944C574.502,591.944 584.412,591.944 594.368,591.941C592.161,590.458 589.946,588.987 587.699,587.496C585.485,586.026 583.237,584.535 580.983,583.049L553.883,583.017L553.883,583.389ZM553.883,591.948L553.883,591.535L554.354,591.948L553.883,591.948ZM553.883,604.383L553.883,595.423L558.439,595.42C560.177,596.912 561.939,598.383 563.7,599.891C565.414,601.361 567.175,602.868 568.866,604.358L553.883,604.383ZM553.883,617.081L553.883,608.097L618.509,607.961C620.763,609.447 622.972,610.926 625.225,612.405C627.48,613.886 629.686,615.367 631.942,616.845C605.912,616.926 579.882,617.004 553.883,617.081" style="fill:rgb(204,204,204);"/>
    </g>
</svg>
