<?xml version="1.0" standalone="no"?><!DOCTYPE svg PUBLIC "-//W3C//DTD SVG 1.1//EN" "http://www.w3.org/Graphics/SVG/1.1/DTD/svg11.dtd"><svg width="100%" height="100%" viewBox="0 0 520 499" version="1.1" xmlns="http://www.w3.org/2000/svg" xmlns:xlink="http://www.w3.org/1999/xlink" xml:space="preserve" style="fill-rule:evenodd;clip-rule:evenodd;stroke-linejoin:round;stroke-miterlimit:1.41421;"><path d="M279.137,224.821l-10.991,-20.593l43.444,-23.193l11.005,20.595c13.025,-4.137 26.747,-6.314 40.725,-6.304l0,35.28c-42.719,-0.015 -82.23,27.668 -95.3,70.66c-16,52.633 13.694,108.269 66.326,124.27c9.645,2.932 19.391,4.324 28.974,4.327l0,35.284c-4.98,-0.003 -9.992,-0.284 -15.016,-0.853l-6.793,22.345l-47.124,-14.326l6.793,-22.345c-17.097,-8.844 -31.713,-21.054 -43.273,-35.547l-20.605,10.987l-23.185,-43.45l20.595,-10.999c-5.613,-17.664 -7.612,-36.607 -5.452,-55.737l-22.339,-6.791l14.327,-47.129l22.34,6.79c8.849,-17.089 21.054,-31.712 35.549,-43.271M363.32,195.326c4.979,0.004 9.989,0.285 15.011,0.855l6.792,-22.345l47.124,14.326l-6.792,22.344c17.09,8.842 31.719,21.056 43.278,35.55l20.592,-10.989l23.193,43.45l-20.592,10.991c5.607,17.671 7.608,36.612 5.449,55.742l22.338,6.791l-14.326,47.123l-22.337,-6.79c-8.854,17.095 -21.058,31.72 -35.552,43.279l10.99,20.599l-43.452,23.186l-10.991,-20.592c-13.027,4.134 -26.751,6.31 -40.725,6.301l0,-35.284c42.719,0.014 82.233,-27.666 95.301,-70.654c16.001,-52.637 -13.7,-108.277 -66.331,-124.277c-9.643,-2.931 -19.387,-4.323 -28.97,-4.326l0,-35.28Z" style="fill:#ffa185;fill-rule:nonzero;"/><path d="M55.191,75.843l-6.652,-12.462l26.292,-14.037l6.66,12.464c7.882,-2.504 16.186,-3.821 24.646,-3.815l0,21.351c-25.853,-0.009 -49.765,16.743 -57.674,42.762c-9.683,31.852 8.287,65.522 40.14,75.205c5.836,1.775 11.734,2.617 17.534,2.618l0,21.354c-3.014,-0.003 -6.047,-0.172 -9.088,-0.516l-4.11,13.522l-28.518,-8.669l4.11,-13.523c-10.347,-5.352 -19.192,-12.741 -26.188,-21.513l-12.47,6.649l-14.031,-26.295l12.463,-6.656c-3.396,-10.689 -4.606,-22.154 -3.298,-33.731l-13.519,-4.109l8.67,-28.522l13.519,4.11c5.356,-10.342 12.742,-19.192 21.514,-26.187M106.137,57.993c3.012,0.003 6.044,0.173 9.084,0.517l4.111,-13.522l28.519,8.669l-4.112,13.522c10.343,5.352 19.196,12.743 26.192,21.514l12.462,-6.65l14.035,26.296l-12.462,6.651c3.395,10.694 4.605,22.157 3.299,33.734l13.517,4.109l-8.669,28.519l-13.518,-4.109c-5.358,10.344 -12.744,19.195 -21.515,26.191l6.65,12.466l-26.296,14.032l-6.651,-12.462c-7.884,2.502 -16.19,3.819 -24.646,3.813l0,-21.354c25.852,0.009 49.765,-16.743 57.674,-42.758c9.684,-31.855 -8.292,-65.526 -40.142,-75.209c-5.836,-1.774 -11.733,-2.616 -17.532,-2.618l0,-21.351Z" style="fill:#ffa185;fill-rule:nonzero;"/><rect x="124.415" y="40.138" width="250.597" height="23.378" style="fill:#fff;"/><rect x="124.416" y="58.469" width="247.206" height="5.048" style="fill:#ffcd61;"/><rect x="124.416" y="47.358" width="2.644" height="16.158" style="fill:#ffcd61;"/><rect x="130.43" y="51.864" width="0.953" height="11.652" style="fill:#ffcd61;"/><rect x="135.04" y="51.864" width="0.953" height="11.652" style="fill:#ffcd61;"/><rect x="139.651" y="51.864" width="0.953" height="11.652" style="fill:#ffcd61;"/><rect x="144.261" y="51.864" width="0.953" height="11.652" style="fill:#ffcd61;"/><rect x="148.872" y="47.358" width="2.643" height="16.158" style="fill:#ffcd61;"/><rect x="154.886" y="51.864" width="0.953" height="11.652" style="fill:#ffcd61;"/><rect x="159.496" y="51.864" width="0.953" height="11.652" style="fill:#ffcd61;"/><rect x="164.107" y="51.864" width="0.953" height="11.652" style="fill:#ffcd61;"/><rect x="168.717" y="51.864" width="0.953" height="11.652" style="fill:#ffcd61;"/><rect x="173.328" y="47.358" width="2.644" height="16.158" style="fill:#ffcd61;"/><rect x="179.342" y="51.864" width="0.953" height="11.652" style="fill:#ffcd61;"/><rect x="183.953" y="51.864" width="0.953" height="11.652" style="fill:#ffcd61;"/><rect x="188.563" y="51.864" width="0.953" height="11.652" style="fill:#ffcd61;"/><rect x="193.174" y="51.864" width="0.953" height="11.652" style="fill:#ffcd61;"/><rect x="197.784" y="47.358" width="2.643" height="16.158" style="fill:#ffcd61;"/><rect x="203.799" y="51.864" width="0.953" height="11.652" style="fill:#ffcd61;"/><rect x="208.409" y="51.864" width="0.953" height="11.652" style="fill:#ffcd61;"/><rect x="213.02" y="51.864" width="0.953" height="11.652" style="fill:#ffcd61;"/><rect x="217.629" y="51.864" width="0.953" height="11.652" style="fill:#ffcd61;"/><rect x="222.241" y="47.358" width="2.644" height="16.158" style="fill:#ffcd61;"/><rect x="228.255" y="51.864" width="0.953" height="11.652" style="fill:#ffcd61;"/><rect x="232.866" y="51.864" width="0.953" height="11.652" style="fill:#ffcd61;"/><rect x="237.476" y="51.864" width="0.953" height="11.652" style="fill:#ffcd61;"/><rect x="242.087" y="51.864" width="0.953" height="11.652" style="fill:#ffcd61;"/><rect x="246.697" y="47.358" width="2.643" height="16.158" style="fill:#ffcd61;"/><rect x="252.711" y="51.864" width="0.953" height="11.652" style="fill:#ffcd61;"/><rect x="257.321" y="51.864" width="0.953" height="11.652" style="fill:#ffcd61;"/><rect x="261.932" y="51.864" width="0.953" height="11.652" style="fill:#ffcd61;"/><rect x="266.542" y="51.864" width="0.953" height="11.652" style="fill:#ffcd61;"/><rect x="271.153" y="47.358" width="2.644" height="16.158" style="fill:#ffcd61;"/><rect x="277.167" y="51.864" width="0.953" height="11.652" style="fill:#ffcd61;"/><rect x="281.778" y="51.864" width="0.953" height="11.652" style="fill:#ffcd61;"/><path d="M287.342,63.516l-0.001,-11.652l-0.952,0l0,11.652l0.953,0Z" style="fill:#ffcd61;"/><rect x="290.998" y="51.864" width="0.953" height="11.652" style="fill:#ffcd61;"/><rect x="295.61" y="47.358" width="2.643" height="16.158" style="fill:#ffcd61;"/><rect x="301.623" y="51.864" width="0.953" height="11.652" style="fill:#ffcd61;"/><rect x="306.234" y="51.864" width="0.953" height="11.652" style="fill:#ffcd61;"/><path d="M311.798,63.516l-0.001,-11.652l-0.952,0l0,11.652l0.953,0Z" style="fill:#ffcd61;"/><rect x="315.455" y="51.864" width="0.953" height="11.652" style="fill:#ffcd61;"/><rect x="320.066" y="47.358" width="2.643" height="16.158" style="fill:#ffcd61;"/><rect x="326.079" y="51.864" width="0.953" height="11.652" style="fill:#ffcd61;"/><rect x="330.69" y="51.864" width="0.953" height="11.652" style="fill:#ffcd61;"/><rect x="335.301" y="51.864" width="0.953" height="11.652" style="fill:#ffcd61;"/><rect x="339.911" y="51.864" width="0.953" height="11.652" style="fill:#ffcd61;"/><rect x="344.523" y="47.358" width="2.643" height="16.158" style="fill:#ffcd61;"/><rect x="350.535" y="51.864" width="0.953" height="11.652" style="fill:#ffcd61;"/><rect x="355.146" y="51.864" width="0.953" height="11.652" style="fill:#ffcd61;"/><rect x="359.757" y="51.864" width="0.953" height="11.652" style="fill:#ffcd61;"/><rect x="364.368" y="51.864" width="0.953" height="11.652" style="fill:#ffcd61;"/><rect x="368.979" y="47.358" width="2.643" height="16.158" style="fill:#ffcd61;"/><path d="M67.238,260.991l13.266,0.085l-0.248,86.026l-13.266,-0.085l0.248,-86.026Z" style="fill:#fff;"/><path d="M69.815,264.867l-0.226,78.307l8.09,0.052l0.226,-78.307l-8.09,-0.052Z" style="fill:#87bbda;"/><path d="M82.327,239.411c4.599,2.843 7.656,7.941 7.629,13.743c-0.038,8.871 -7.26,16.033 -16.133,15.994c-8.871,-0.037 -16.032,-7.26 -15.994,-16.132c0.026,-5.804 3.125,-10.874 7.749,-13.677l-0.041,9.085l-0.019,4.835l4.175,2.435l4.179,2.437l4.198,-2.401l4.197,-2.399l0.021,-4.835l0.039,-9.085Z" style="fill:#fff;"/><path d="M81.916,365.864c4.624,-2.803 7.723,-7.874 7.749,-13.677c0.038,-8.871 -7.123,-16.093 -15.995,-16.132c-8.872,-0.039 -16.094,7.122 -16.133,15.994c-0.024,5.804 3.031,10.9 7.63,13.742l0.039,-9.084l0.022,-4.834l4.196,-2.399l4.198,-2.401l4.178,2.435l4.175,2.437l-0.019,4.835l-0.04,9.084Z" style="fill:#fff;"/><path d="M84.531,360.004c1.618,-2.24 2.533,-4.964 2.546,-7.828c0.031,-7.441 -5.976,-13.501 -13.418,-13.533c-7.443,-0.031 -13.501,5.975 -13.534,13.417c-0.012,2.866 0.88,5.594 2.478,7.85l0.042,-9.543l10.991,-6.282l10.936,6.376l-0.041,9.543Z" style="fill:#87bbda;"/><path d="M62.964,245.072c-1.619,2.241 -2.534,4.964 -2.546,7.828c-0.032,7.443 5.973,13.501 13.418,13.532c7.443,0.033 13.501,-5.973 13.532,-13.416c0.013,-2.864 -0.879,-5.595 -2.478,-7.85l-0.041,9.544l-10.99,6.282l-10.936,-6.377l0.041,-9.543Z" style="fill:#87bbda;"/><path d="M421.168,253.264l-6.106,-13.853l-6.106,13.853l-0.001,109.269c0.001,1.832 1.5,3.331 3.331,3.331l5.552,0c1.831,0 3.33,-1.499 3.33,-3.331l0,-109.269Z" style="fill:#ffeec9;"/><path d="M421.168,253.264l-6.106,-13.853l2.649,14.407l-0.001,112.046l0.128,0c1.831,0 3.33,-1.499 3.33,-3.331l0,-109.269Z" style="fill:#ffcd61;"/><path d="M421.168,253.264l-6.106,-13.853l-6.106,13.853l0,104.364c4.3,0.732 8.343,0.699 12.212,0l0,-104.364Z" style="fill:#c0f7fc;"/><path d="M421.168,253.264l-6.106,-13.853l2.649,14.407l-0.001,104.347c2.089,0.006 1.472,-0.177 3.458,-0.537l0,-104.364Z" style="fill:#a2edf4;"/><path d="M421.168,253.264l-6.106,-13.853l-6.106,13.853l0,100.47c4.323,0.782 8.365,0.747 12.212,0l0,-100.47Z" style="fill:#87bbda;"/><path d="M421.153,253.706l-6.058,-13.744l3.011,13.762l0,100.058c2.079,0.006 1.083,0.344 3.047,-0.038l0,-100.038Z" style="fill:#4c8eb4;"/><path d="M421.168,253.264l-6.106,-13.852l-6.105,13.852c1.939,0.36 3.987,0.554 6.105,0.554c2.118,0 4.166,-0.194 6.106,-0.554" style="fill:#fff;"/><path d="M421.168,253.264l-6.106,-13.853l3.066,14.407c2.118,0 1.1,-0.194 3.04,-0.554" style="fill:#ccc;"/><path d="M417.079,243.988l-2.016,-4.577l-2.018,4.577c0.641,0.119 1.317,0.183 2.018,0.183c0.699,0 1.376,-0.064 2.016,-0.183" style="fill:#4d4d4d;"/><path d="M59.239,155.076l-2.479,0.217l-0.33,-3.766c-2.544,-0.331 -5.024,-1.112 -7.296,-2.304l-2.432,2.897l-7.168,-6.016l2.431,-2.897c-1.581,-2.044 -2.767,-4.323 -3.535,-6.789l-3.766,0.33l-0.815,-9.323l3.765,-0.329c0.331,-2.563 1.107,-5.01 2.304,-7.299l-2.895,-2.432l6.014,-7.168l2.898,2.43c2.044,-1.578 4.324,-2.764 6.788,-3.532l-0.329,-3.767l6.845,-0.598l0,10.554c-4.25,-0.002 -8.367,1.855 -11.195,5.223c-5.18,6.175 -4.371,15.411 1.801,20.59c1.521,1.278 3.25,2.217 5.134,2.79c1.406,0.428 2.84,0.636 4.26,0.636l0,10.553ZM78.561,140.01l2.896,2.43l-6.019,7.168l-2.895,-2.431c-2.046,1.579 -4.321,2.767 -6.786,3.535l0.327,3.766l-6.845,0.598l0,-10.553c4.25,0.001 8.366,-1.856 11.195,-5.225c5.178,-6.174 4.374,-15.409 -1.8,-20.589c-1.524,-1.278 -3.253,-2.218 -5.135,-2.79c-1.406,-0.427 -2.84,-0.635 -4.26,-0.635l0,-10.554l2.477,-0.216l0.329,3.765c2.543,0.33 5.026,1.112 7.301,2.305l2.43,-2.898l7.17,6.016l-2.431,2.897c1.579,2.046 2.766,4.323 3.533,6.789l3.768,-0.33l0.814,9.324l-3.769,0.327c-0.327,2.563 -1.101,5.013 -2.3,7.301" style="fill:#808080;fill-rule:nonzero;"/><path d="M458.352,32.729c5.947,1.219 10.395,5.745 10.395,11.103c0,5.507 -4.61,11.197 -10.897,11.197l-27.634,0c-6.728,0 -11.915,-5.391 -11.915,-11.197c0,-5.358 4.449,-9.884 10.395,-11.103c-0.003,-0.107 -0.005,-0.215 -0.005,-0.323c0,-6.883 6.641,-12.464 14.833,-12.464c8.191,0 14.833,5.581 14.833,12.464c0,0.108 -0.002,0.216 -0.005,0.323" style="fill:#ffbba6;"/><path d="M436.225,28.194c4.155,0.851 7.264,4.014 7.264,7.758c0,3.849 -3.222,7.824 -7.615,7.824l-19.31,0c-4.702,0 -8.326,-3.768 -8.326,-7.824c0,-3.744 3.108,-6.907 7.263,-7.758c-0.002,-0.075 -0.003,-0.15 -0.003,-0.226c0,-4.81 4.64,-8.71 10.365,-8.71c5.724,0 10.365,3.9 10.365,8.71c0,0.076 -0.002,0.151 -0.003,0.226" style="fill:#fff;"/></svg>