<?xml version="1.0" standalone="no"?>
<!DOCTYPE svg PUBLIC "-//W3C//DTD SVG 1.1//EN" "http://www.w3.org/Graphics/SVG/1.1/DTD/svg11.dtd">
<svg width="100%" height="100%" viewBox="0 0 693 665" version="1.1" xmlns="http://www.w3.org/2000/svg" xmlns:xlink="http://www.w3.org/1999/xlink" xml:space="preserve" style="fill-rule:evenodd;clip-rule:evenodd;stroke-linejoin:round;stroke-miterlimit:1.41421;">
    <g transform="matrix(0.695781,0,0,0.695781,-107.149,279.798)">
        <path d="M731.163,222.043L782.991,213.374L731.508,181.544L745.402,167.532L744.327,166.957C744.224,166.9 734.193,161.542 724.398,156.965L755.647,115.316L692.45,119.187L694.799,98.882L692.966,99.9C692.966,99.9 685.378,104.099 677.396,108.575L652.668,41.093L627.772,89.857L617.105,71.641L616.309,73.144C616.227,73.297 608.381,88.142 603.817,101.96L552.331,47.932L565.647,110C552.596,104.09 540.356,98.061 540.229,98L538.524,97.157L545.25,126.629L474.587,128.011L536.439,164.383C519.651,172.781 499.669,183.483 499.463,183.593L497.654,184.561L572.341,202.605L562.111,243.033L611.316,229.945L617.653,253.31L642.568,235.476L706.571,286.303L707.821,240.754L739.66,250.848L731.163,222.043Z" style="fill:black;fill-rule:nonzero;"/>
    </g>
    <g transform="matrix(0.695781,0,0,0.695781,-107.149,279.798)">
        <path d="M729.106,212.916L779.788,204.438L729.182,173.153L743.023,159.193C743.023,159.193 732.297,153.455 722.098,148.741L752.788,107.836L690.457,111.652L692.71,92.173C692.71,92.173 684.399,96.773 676.026,101.475L651.688,35.061L627.019,83.378L616.334,65.138C616.334,65.138 607.941,80.946 603.437,95.254L553.037,42.367L566.046,103.007C552.224,96.794 538.964,90.255 538.964,90.255L545.522,119L476.615,120.344L537.366,156.067C520.158,164.64 499.198,175.873 499.198,175.873L572.637,193.612L562.591,233.309L611.108,220.404L617.319,243.293L641.596,225.914L704.751,276.066L705.979,231.163L737.429,241.132L729.106,212.916Z" style="fill:rgb(231,23,36);fill-rule:nonzero;"/>
    </g>
    <g transform="matrix(0.695781,0,0,0.695781,-107.149,279.798)">
        <path d="M580.598,188.195L514.742,172.285C522.243,168.34 532.644,162.927 541.848,158.342L549.135,154.714L494.994,122.876L553.357,121.74L547.77,97.257C552.735,99.619 558.792,102.458 564.89,105.197L574.633,109.578L563.465,57.514L607.381,103.597L610.054,95.114C612.276,88.067 615.527,80.526 618.107,74.972L628.691,93.047L651.999,47.39L673.992,107.408C673.992,107.408 684.549,101.487 686.364,100.474L684.684,114.985L741.818,111.491L714.467,147.94L720.869,150.896C725.744,153.151 730.793,155.668 734.882,157.756L721.419,171.33L766.746,199.355L722.949,206.682L730.231,231.369L701.126,222.144L700.003,263.17L641.952,217.071L621.494,231.72L616.056,211.681L571.668,223.488L580.598,188.195Z" style="fill:rgb(252,157,6);fill-rule:nonzero;"/>
    </g>
    <g transform="matrix(0.695781,0,0,0.695781,-107.149,279.798)">
        <path d="M582.365,187.378L573.714,221.573L617.067,210.037L622.309,229.364L641.818,215.399L698.595,260.485L699.69,220.429L728.206,229.466L721.184,205.661L763.259,198.622L719.255,171.416L732.608,157.948C728.102,155.664 723.981,153.657 720.339,151.973L712.335,148.275L738.85,112.942L683.017,116.357L684.552,103.098C680.812,105.191 674.94,108.488 674.94,108.488L673.261,109.431L651.854,51.012L628.886,96.001L618.367,78.044C616.119,83.037 613.406,89.522 611.483,95.62L608.141,106.22L565.849,61.838L576.555,111.757L564.377,106.283C559.869,104.257 554.958,101.987 549.744,99.522L555.094,122.963L499.367,124.046L551.854,154.913L542.743,159.448C534.539,163.536 525.401,168.273 518.42,171.932L582.365,187.378ZM569.622,225.405L578.831,189.011L511.062,172.64L513.817,171.191C521.031,167.399 531.591,161.898 540.951,157.233L546.415,154.514L490.621,121.704L551.62,120.516L545.794,94.988L548.32,96.189C554.45,99.108 560.198,101.772 565.4,104.112L572.71,107.396L561.083,53.191L606.618,100.974L608.622,94.611C610.907,87.36 614.287,79.592 616.719,74.354L617.849,71.913L628.496,90.09L652.144,43.77L674.723,105.387C677.776,103.672 684.053,100.151 685.413,99.393L688.174,97.856L686.353,113.613L744.782,110.042L716.596,147.602L721.397,149.819C725.533,151.731 730.27,154.049 735.478,156.711L737.147,157.566L723.581,171.247L770.227,200.086L724.71,207.703L732.252,233.272L702.563,223.859L701.412,265.856L642.085,218.741L620.671,234.076L615.04,213.323L569.622,225.405Z" style="fill:black;fill-rule:nonzero;"/>
    </g>
    <g transform="matrix(0.695781,0,0,0.695781,-107.149,279.798)">
        <path d="M597.836,178.79L549.98,167.744C550.248,167.599 575.599,153.956 575.599,153.956L537.046,130.81L571.145,129.319L568.013,113.413L594.478,125.369L588.29,91.661L616.652,122.912L624.383,98.844L632.989,114.652L654.249,72.5L671.816,121.31L717.319,117.343L696.964,145.338L715.795,154.098L703.178,167.395L736.028,188.182L707.915,193.74L712.433,211.014L688.752,203.658L687.113,237.473L641.385,199.836L629.518,208.855L626.163,194.791L590.853,205.377L597.836,178.79Z" style="fill:rgb(255,222,23);fill-rule:nonzero;"/>
    </g>
    <g transform="matrix(0.695781,0,0,0.695781,-107.149,279.798)">
        <path d="M604.535,177.704L568.402,168.975C572.967,166.702 587.976,159.228 587.976,159.228L559.249,142.334L577.209,141.985L574.943,132.054L601.223,143.867L596.602,122.31L616.657,143.356L622.635,124.396L630.032,137.028L648.724,100.416L662.192,137.166L698.878,134.925L683.129,155.908L700.801,164.071L689.408,175.558L714.261,190.924L696.852,193.837L700.251,205.351L680.239,199.011L679.49,226.383L640.031,195.046L632.283,200.593L629.446,190.139L599.363,198.141L604.535,177.704Z" style="fill:rgb(255,255,201);fill-rule:nonzero;"/>
    </g>
    <g transform="matrix(0.906316,0.4226,-0.4226,0.906316,142.462,60.8515)">
        <path d="M258.367,225.745C258.922,226.428 259.54,227.105 260.223,227.777C260.906,228.449 261.588,229.094 262.271,229.713C262.954,230.332 263.615,230.897 264.255,231.409C264.895,231.921 265.46,232.348 265.951,232.689C266.698,233.137 267.354,233.388 267.919,233.441C268.484,233.494 269.002,233.457 269.471,233.329C269.855,233.265 270.18,233.206 270.447,233.153C270.714,233.1 271.039,232.924 271.423,232.625C271.743,232.39 271.924,232.166 271.967,231.953C272.01,231.74 271.818,231.452 271.391,231.089C270.858,230.662 270.287,230.161 269.679,229.585C269.071,229.009 268.458,228.412 267.839,227.793C267.22,227.174 266.618,226.556 266.031,225.937C265.444,225.318 264.906,224.732 264.415,224.177C266.804,223.11 268.858,221.958 270.575,220.721C272.292,219.484 273.524,218.129 274.271,216.657C274.762,215.74 274.868,214.566 274.591,213.137C274.25,211.793 273.775,210.657 273.167,209.729C272.559,208.801 271.882,207.932 271.135,207.121C270.196,206.204 269.103,205.644 267.855,205.441C266.607,205.238 265.284,205.26 263.887,205.505C262.49,205.75 261.071,206.161 259.631,206.737C258.191,207.313 256.81,207.9 255.487,208.497C255.21,208.646 254.943,209.025 254.687,209.633C254.431,210.241 254.196,211.009 253.983,211.937C253.77,212.865 253.567,213.91 253.375,215.073C253.183,216.236 253.007,217.436 252.847,218.673C252.687,219.91 252.538,221.148 252.399,222.385C252.26,223.622 252.138,224.78 252.031,225.857C251.924,226.934 251.834,227.9 251.759,228.753C251.684,229.606 251.626,230.257 251.583,230.705C251.54,231.26 251.594,231.702 251.743,232.033C251.892,232.364 252.17,232.646 252.575,232.881C252.98,233.094 253.407,233.244 253.855,233.329C254.303,233.414 254.815,233.532 255.391,233.681C255.882,233.788 256.218,233.788 256.399,233.681C256.58,233.574 256.724,233.35 256.831,233.009C257.066,231.857 257.306,230.684 257.551,229.489C257.796,228.294 258.068,227.046 258.367,225.745ZM261.791,212.753C262.623,212.348 263.412,212.07 264.159,211.921C264.906,211.772 265.588,211.697 266.207,211.697C267.466,211.697 268.223,211.996 268.479,212.593C268.607,212.956 268.5,213.468 268.159,214.129C267.818,214.79 267.263,215.489 266.495,216.225C265.727,216.961 264.772,217.686 263.631,218.401C262.49,219.116 261.183,219.718 259.711,220.209C260.116,218.801 260.479,217.478 260.799,216.241C261.119,215.004 261.45,213.841 261.791,212.753Z" style="fill:rgb(255,0,0);fill-rule:nonzero;stroke-width:2.67px;stroke:black;"/>
        <path d="M277.151,207.697L274.111,228.977C274.068,229.553 274.148,230.044 274.351,230.449C274.554,230.854 274.836,231.206 275.199,231.505C275.647,231.889 276.036,232.204 276.367,232.449C276.698,232.694 277.044,232.934 277.407,233.169C277.727,233.382 278.106,233.548 278.543,233.665C278.98,233.782 279.626,233.734 280.479,233.521C281.759,233.286 283.103,233.03 284.511,232.753C285.919,232.476 287.306,232.209 288.671,231.953C289.247,231.846 289.588,231.713 289.695,231.553C289.802,231.393 289.802,231.1 289.695,230.673C289.524,230.289 289.37,229.91 289.231,229.537C289.092,229.164 288.895,228.764 288.639,228.337C288.404,227.953 288.122,227.697 287.791,227.569C287.46,227.441 286.996,227.398 286.399,227.441C285.332,227.505 284.346,227.59 283.439,227.697C282.532,227.804 281.578,227.942 280.575,228.113C280.746,227.516 280.906,226.913 281.055,226.305C281.204,225.697 281.364,225.052 281.535,224.369C282.772,224.113 284.058,223.878 285.391,223.665C286.724,223.452 288.031,223.228 289.311,222.993C289.908,222.865 290.276,222.716 290.415,222.545C290.554,222.374 290.538,222.044 290.367,221.553C290.26,221.126 290.138,220.705 289.999,220.289C289.86,219.873 289.663,219.452 289.407,219.025C289.172,218.598 288.884,218.321 288.543,218.193C288.202,218.065 287.732,218.012 287.135,218.033C286.41,218.054 285.727,218.086 285.087,218.129C284.447,218.172 283.807,218.236 283.167,218.321C283.508,217.19 283.818,216.108 284.095,215.073C284.372,214.038 284.671,213.041 284.991,212.081C286.506,211.868 287.946,211.686 289.311,211.537C290.676,211.388 291.999,211.238 293.279,211.089C293.898,211.004 294.292,210.865 294.463,210.673C294.634,210.481 294.676,210.108 294.591,209.553C294.484,209.062 294.378,208.609 294.271,208.193C294.164,207.777 293.972,207.313 293.695,206.801C293.354,205.841 292.575,205.372 291.359,205.393C290.079,205.436 288.794,205.537 287.503,205.697C286.212,205.857 284.954,206.044 283.727,206.257C282.5,206.47 281.327,206.705 280.207,206.961C279.087,207.217 278.068,207.462 277.151,207.697Z" style="fill:rgb(255,0,0);fill-rule:nonzero;stroke-width:2.67px;stroke:black;"/>
        <path d="M291.647,226.769C291.199,226.982 290.996,227.292 291.039,227.697C291.082,228.124 291.572,228.732 292.511,229.521C294.239,231.142 295.919,232.284 297.551,232.945C299.183,233.606 300.863,233.916 302.591,233.873C303.871,233.852 304.97,233.692 305.887,233.393C306.804,233.094 307.583,232.721 308.223,232.273C308.863,231.825 309.375,231.34 309.759,230.817C310.143,230.294 310.442,229.809 310.655,229.361C310.996,228.721 311.108,228.124 310.991,227.569C310.874,227.014 310.596,226.486 310.159,225.985C309.722,225.484 309.167,224.993 308.495,224.513C307.823,224.033 307.108,223.548 306.351,223.057C305.594,222.566 304.831,222.06 304.063,221.537C303.295,221.014 302.602,220.454 301.983,219.857C301.492,219.409 301.183,218.902 301.055,218.337C300.927,217.772 300.916,217.196 301.023,216.609C301.13,216.022 301.332,215.441 301.631,214.865C301.93,214.289 302.276,213.75 302.671,213.249C303.066,212.748 303.482,212.3 303.919,211.905C304.356,211.51 304.756,211.217 305.119,211.025C305.524,210.726 305.818,210.604 305.999,210.657C306.18,210.71 306.287,210.87 306.319,211.137C306.351,211.404 306.324,211.761 306.239,212.209C306.154,212.657 306.052,213.132 305.935,213.633C305.818,214.134 305.7,214.63 305.583,215.121C305.466,215.612 305.386,216.049 305.343,216.433C305.108,218.268 306.452,219.676 309.375,220.657C309.908,220.892 310.308,220.95 310.575,220.833C310.842,220.716 311.103,220.444 311.359,220.017C311.594,219.569 311.823,219.014 312.047,218.353C312.271,217.692 312.484,216.998 312.687,216.273C312.89,215.548 313.066,214.833 313.215,214.129C313.364,213.425 313.482,212.796 313.567,212.241C313.567,211.921 313.562,211.574 313.551,211.201C313.54,210.828 313.487,210.449 313.391,210.065C313.295,209.681 313.13,209.286 312.895,208.881C312.66,208.476 312.33,208.07 311.903,207.665C311.242,207.068 310.426,206.513 309.455,206.001C308.484,205.489 307.519,205.062 306.559,204.721C305.919,204.529 305.3,204.417 304.703,204.385C304.106,204.353 303.551,204.38 303.039,204.465C302.527,204.55 302.068,204.684 301.663,204.865C301.258,205.046 300.927,205.233 300.671,205.425C299.882,205.916 299.108,206.508 298.351,207.201C297.594,207.894 296.9,208.641 296.271,209.441C295.642,210.241 295.098,211.068 294.639,211.921C294.18,212.774 293.855,213.585 293.663,214.353C293.386,215.228 293.258,216.06 293.279,216.849C293.3,217.638 293.439,218.385 293.695,219.089C293.951,219.793 294.308,220.449 294.767,221.057C295.226,221.665 295.754,222.204 296.351,222.673C296.884,223.121 297.482,223.564 298.143,224.001C298.804,224.438 299.466,224.86 300.127,225.265C300.788,225.67 301.412,226.065 301.999,226.449C302.586,226.833 303.076,227.185 303.471,227.505C303.866,227.825 304.132,228.108 304.271,228.353C304.41,228.598 304.351,228.806 304.095,228.977C303.498,229.468 302.527,229.553 301.183,229.233C299.839,228.913 298.26,228.188 296.447,227.057C296.127,226.844 295.77,226.678 295.375,226.561C294.98,226.444 294.57,226.374 294.143,226.353C293.716,226.332 293.29,226.353 292.863,226.417C292.436,226.481 292.031,226.598 291.647,226.769Z" style="fill:rgb(255,0,0);fill-rule:nonzero;stroke-width:2.67px;stroke:black;"/>
        <path d="M313.375,229.969C313.716,230.566 314.122,231.068 314.591,231.473C315.06,231.878 315.562,232.23 316.095,232.529C317.332,233.212 318.911,233.617 320.831,233.745C321.791,233.809 322.644,233.772 323.391,233.633C324.138,233.494 324.884,233.244 325.631,232.881C326.676,232.284 327.626,231.324 328.479,230.001C329.332,228.678 330.122,227.036 330.847,225.073C331.572,223.11 332.26,220.854 332.911,218.305C333.562,215.756 334.207,212.956 334.847,209.905C334.911,209.628 334.954,209.388 334.975,209.185C334.996,208.982 334.975,208.796 334.911,208.625C334.847,208.454 334.735,208.289 334.575,208.129C334.415,207.969 334.186,207.793 333.887,207.601C333.311,207.26 332.676,206.913 331.983,206.561C331.29,206.209 330.639,205.953 330.031,205.793C329.423,205.633 328.906,205.617 328.479,205.745C328.052,205.873 327.818,206.257 327.775,206.897C327.519,208.22 327.231,209.724 326.911,211.409C326.591,213.094 326.234,214.806 325.839,216.545C325.444,218.284 325.018,219.974 324.559,221.617C324.1,223.26 323.62,224.705 323.119,225.953C322.618,227.201 322.09,228.177 321.535,228.881C320.98,229.585 320.415,229.862 319.839,229.713C319.37,229.585 319.055,229.19 318.895,228.529C318.735,227.868 318.682,227.036 318.735,226.033C318.788,225.03 318.927,223.9 319.151,222.641C319.375,221.382 319.647,220.092 319.967,218.769C320.287,217.446 320.634,216.14 321.007,214.849C321.38,213.558 321.738,212.358 322.079,211.249C322.442,209.948 322.047,208.881 320.895,208.049C320.34,207.644 319.77,207.292 319.183,206.993C318.596,206.694 317.983,206.449 317.343,206.257C316.66,206.022 316.154,205.969 315.823,206.097C315.492,206.225 315.242,206.598 315.071,207.217C314.687,208.582 314.319,209.985 313.967,211.425C313.615,212.865 313.3,214.3 313.023,215.729C312.746,217.158 312.522,218.566 312.351,219.953C312.18,221.34 312.095,222.652 312.095,223.889C312.095,225.126 312.196,226.262 312.399,227.297C312.602,228.332 312.927,229.222 313.375,229.969Z" style="fill:rgb(255,0,0);fill-rule:nonzero;stroke-width:2.67px;stroke:black;"/>
        <path d="M341.151,217.585C341.471,219.718 341.828,221.788 342.223,223.793C342.618,225.798 343.028,227.569 343.455,229.105C343.562,229.468 343.663,229.766 343.759,230.001C343.855,230.236 343.967,230.433 344.095,230.593C344.223,230.753 344.372,230.881 344.543,230.977C344.714,231.073 344.916,231.164 345.151,231.249C345.791,231.462 346.538,231.654 347.391,231.825C347.668,231.889 347.892,231.916 348.063,231.905C348.234,231.894 348.372,231.857 348.479,231.793C348.586,231.729 348.676,231.628 348.751,231.489C348.826,231.35 348.916,231.164 349.023,230.929C349.364,230.182 349.818,229.249 350.383,228.129C350.948,227.009 351.567,225.82 352.239,224.561C352.911,223.302 353.604,222.022 354.319,220.721C355.034,219.42 355.711,218.214 356.351,217.105C355.988,218.364 355.652,219.665 355.343,221.009C355.034,222.353 354.751,223.638 354.495,224.865C354.239,226.092 354.015,227.212 353.823,228.225C353.631,229.238 353.492,230.065 353.407,230.705C353.3,231.238 353.327,231.665 353.487,231.985C353.647,232.305 353.972,232.582 354.463,232.817C354.847,233.03 355.295,233.212 355.807,233.361C356.319,233.51 356.82,233.638 357.311,233.745C357.866,233.873 358.239,233.852 358.431,233.681C358.623,233.51 358.794,233.233 358.943,232.849C359.114,232.102 359.348,231.164 359.647,230.033C359.946,228.902 360.282,227.665 360.655,226.321C361.028,224.977 361.423,223.569 361.839,222.097C362.255,220.625 362.671,219.174 363.087,217.745C363.503,216.316 363.914,214.95 364.319,213.649C364.724,212.348 365.087,211.196 365.407,210.193C365.642,209.489 365.679,208.94 365.519,208.545C365.359,208.15 364.97,207.804 364.351,207.505C363.412,207.078 362.458,206.705 361.487,206.385C360.516,206.065 359.594,205.788 358.719,205.553C357.972,205.34 357.359,205.254 356.879,205.297C356.399,205.34 355.967,205.526 355.583,205.857C355.199,206.188 354.826,206.668 354.463,207.297C354.1,207.926 353.674,208.732 353.183,209.713C352.692,210.566 352.186,211.473 351.663,212.433C351.14,213.393 350.634,214.353 350.143,215.313C349.652,216.273 349.178,217.212 348.719,218.129C348.26,219.046 347.86,219.889 347.519,220.657C347.178,218.46 346.911,216.732 346.719,215.473C346.527,214.214 346.383,213.244 346.287,212.561C346.191,211.878 346.127,211.404 346.095,211.137C346.063,210.87 346.047,210.641 346.047,210.449C345.962,210.044 345.882,209.681 345.807,209.361C345.732,209.041 345.61,208.748 345.439,208.481C345.268,208.214 345.034,207.969 344.735,207.745C344.436,207.521 344.031,207.313 343.519,207.121C342.708,206.822 341.903,206.566 341.103,206.353C340.303,206.14 339.327,205.948 338.175,205.777C337.428,205.67 336.879,205.708 336.527,205.889C336.175,206.07 335.903,206.524 335.711,207.249C335.519,208.252 335.322,209.409 335.119,210.721C334.916,212.033 334.714,213.425 334.511,214.897C334.308,216.369 334.122,217.862 333.951,219.377C333.78,220.892 333.626,222.353 333.487,223.761C333.348,225.169 333.242,226.476 333.167,227.681C333.092,228.886 333.055,229.905 333.055,230.737C333.012,231.292 333.087,231.718 333.279,232.017C333.471,232.316 333.834,232.593 334.367,232.849C334.794,233.062 335.258,233.249 335.759,233.409C336.26,233.569 336.756,233.702 337.247,233.809C337.759,233.916 338.111,233.91 338.303,233.793C338.495,233.676 338.634,233.425 338.719,233.041C338.804,232.124 338.927,231.078 339.087,229.905C339.247,228.732 339.434,227.473 339.647,226.129C339.86,224.785 340.095,223.388 340.351,221.937C340.607,220.486 340.874,219.036 341.151,217.585Z" style="fill:rgb(255,0,0);fill-rule:nonzero;stroke-width:2.67px;stroke:black;"/>
        <path d="M366.047,207.697L363.007,228.977C362.964,229.553 363.044,230.044 363.247,230.449C363.45,230.854 363.732,231.206 364.095,231.505C364.543,231.889 364.932,232.204 365.263,232.449C365.594,232.694 365.94,232.934 366.303,233.169C366.623,233.382 367.002,233.548 367.439,233.665C367.876,233.782 368.522,233.734 369.375,233.521C370.655,233.286 371.999,233.03 373.407,232.753C374.815,232.476 376.202,232.209 377.567,231.953C378.143,231.846 378.484,231.713 378.591,231.553C378.698,231.393 378.698,231.1 378.591,230.673C378.42,230.289 378.266,229.91 378.127,229.537C377.988,229.164 377.791,228.764 377.535,228.337C377.3,227.953 377.018,227.697 376.687,227.569C376.356,227.441 375.892,227.398 375.295,227.441C374.228,227.505 373.242,227.59 372.335,227.697C371.428,227.804 370.474,227.942 369.471,228.113C369.642,227.516 369.802,226.913 369.951,226.305C370.1,225.697 370.26,225.052 370.431,224.369C371.668,224.113 372.954,223.878 374.287,223.665C375.62,223.452 376.927,223.228 378.207,222.993C378.804,222.865 379.172,222.716 379.311,222.545C379.45,222.374 379.434,222.044 379.263,221.553C379.156,221.126 379.034,220.705 378.895,220.289C378.756,219.873 378.559,219.452 378.303,219.025C378.068,218.598 377.78,218.321 377.439,218.193C377.098,218.065 376.628,218.012 376.031,218.033C375.306,218.054 374.623,218.086 373.983,218.129C373.343,218.172 372.703,218.236 372.063,218.321C372.404,217.19 372.714,216.108 372.991,215.073C373.268,214.038 373.567,213.041 373.887,212.081C375.402,211.868 376.842,211.686 378.207,211.537C379.572,211.388 380.895,211.238 382.175,211.089C382.794,211.004 383.188,210.865 383.359,210.673C383.53,210.481 383.572,210.108 383.487,209.553C383.38,209.062 383.274,208.609 383.167,208.193C383.06,207.777 382.868,207.313 382.591,206.801C382.25,205.841 381.471,205.372 380.255,205.393C378.975,205.436 377.69,205.537 376.399,205.697C375.108,205.857 373.85,206.044 372.623,206.257C371.396,206.47 370.223,206.705 369.103,206.961C367.983,207.217 366.964,207.462 366.047,207.697Z" style="fill:rgb(255,0,0);fill-rule:nonzero;stroke-width:2.67px;stroke:black;"/>
    </g>
</svg>
