<svg viewBox="0 0 693 665" xmlns="http://www.w3.org/2000/svg" fill-rule="evenodd" clip-rule="evenodd" stroke-linejoin="round" stroke-miterlimit="1.414"><path d="M159.44 274.045h347.024c7.095 0 12.897 5.803 12.897 12.896v219.236c0 7.093-5.802 12.896-12.896 12.896H159.44c-7.094 0-12.897-5.803-12.897-12.896V286.94c0-7.092 5.803-12.895 12.896-12.895" fill="gray"/><path fill="#fff" d="M165.888 299.63h334.13V479h-334.13z"/><path fill="#ccc" d="M325.024 490.17h15.854v15.853h-15.853z"/><path d="M146.544 519.072H519.36l64.753 42.442H81.79l64.754-42.442z" fill="gray"/><path d="M81.792 561.516h502.322v14.463c0 5.124-4.194 9.318-9.32 9.318H91.112c-5.126 0-9.32-4.194-9.32-9.32v-14.462z" fill="#4d4d4d"/><path fill="gray" d="M282.22 573.84h101.464v6.47H282.22z"/><path fill="#666" d="M81.792 561.516h502.322v7.23H81.792z"/><path d="M161.8 543.575l-.915.688h.917v-.688zm0-8.628v.647a1770.32 1770.32 0 0 0-5.657 4.02c-2.17 1.547-4.32 3.113-6.53 4.667-10.94.022-21.838.036-32.734.055 2.582-1.562 5.12-3.123 7.655-4.684 2.537-1.56 5.072-3.125 7.656-4.69 9.84-.002 19.726-.01 29.612-.013m0-12.99v9.362c-7.912 0-15.817 0-23.693-.002 2.487-1.56 5.07-3.122 7.606-4.682 2.535-1.562 5.072-3.126 7.655-4.69l8.431.01zm-51.216 26.26l51.216-.106v9.28l-66.526.195c2.583-1.56 5.118-3.12 7.654-4.683 2.536-1.56 5.072-3.122 7.655-4.686m51.217-12.622l.916-.647h-.916v.647zm17.636-.66v9.298l-17.636.03v-.687c1.765-1.322 3.533-2.64 5.284-3.97 2.03-1.543 4.085-3.112 6.153-4.666l6.197-.005zm0-4.694c-.472.358-.943.717-1.41 1.075h1.41v-1.075zm0-8.262v1.003c-1.72 1.228-3.412 2.457-5.12 3.673-2.197 1.565-4.415 3.11-6.53 4.665h-5.987v-9.36c5.88.008 11.76.014 17.637.02M161.8 548.11l17.637-.035v9.262l-17.636.052v-9.28zm250.59-25.848l27.52.033c1.268 1.504 2.522 3.01 3.756 4.497 1.255 1.51 2.538 2.994 3.76 4.495l-29.73.003-2.678-4.508c-.883-1.488-1.737-3.012-2.63-4.52m-37.008-.046c9.158.01 18.363.02 27.522.035.798 1.512 1.53 3.027 2.3 4.524.78 1.515 1.504 3.012 2.302 4.516-9.957.003-19.867.003-29.776.003-.375-1.51-.774-3.018-1.175-4.532-.397-1.506-.798-3.026-1.173-4.544m-37.01-.042l27.522.03c.283 1.52.54 3.04.798 4.55.26 1.516.565 3.028.8 4.54-9.91.004-19.774.004-29.683.007.094-1.522.188-3.043.28-4.562.095-1.517.19-3.043.283-4.564m-37.008-.047c9.157.01 18.316.02 27.522.032-.236 1.528-.447 3.048-.66 4.572-.21 1.523-.47 3.043-.655 4.566-9.912.003-19.822.003-29.685.006.564-1.53 1.177-3.057 1.738-4.583.565-1.528 1.175-3.06 1.74-4.593m-37.01-.046c9.157.01 18.363.025 27.52.036-.704 1.536-1.41 3.068-2.113 4.598-.703 1.532-1.455 3.058-2.113 4.59-9.957.003-19.866 0-29.73.003a266.228 266.228 0 0 1 3.195-4.61c1.077-1.534 2.113-3.073 3.24-4.616m-37.01-.042c9.158.01 18.364.02 27.57.032-1.222 1.543-2.443 3.083-3.617 4.622-1.173 1.54-2.44 3.076-3.617 4.615-9.91.004-19.817.004-29.728.008 1.55-1.547 3.148-3.09 4.697-4.634 1.55-1.543 3.1-3.095 4.696-4.642m192.42 12.76c10.19-.008 20.383-.015 30.574-.02 1.22 1.502 2.488 3 3.757 4.5 1.268 1.496 2.537 2.99 3.758 4.49-10.943.018-21.886.036-32.782.052-.846-1.503-1.767-3.015-2.63-4.508-.875-1.51-1.832-3.01-2.678-4.515m-41.096.02c10.192-.003 20.385-.01 30.622-.013.704 1.507 1.505 3.015 2.255 4.52.752 1.507 1.55 3.01 2.3 4.515-10.942.02-21.886.038-32.78.055-.376-1.514-.78-3.03-1.175-4.533-.4-1.517-.845-3.03-1.22-4.544m-41.05.025c10.144-.007 20.337-.01 30.53-.018.233 1.52.514 3.034.796 4.548.282 1.514.565 3.026.798 4.54l-32.733.054c.14-1.518.257-3.04.327-4.558.07-1.52.14-3.04.28-4.567m-41.093.025c10.19-.007 20.337-.01 30.528-.018a295.95 295.95 0 0 0-.658 4.573c-.21 1.52-.423 3.044-.657 4.565l-32.737.054a333.5 333.5 0 0 0 1.786-4.583c.584-1.525 1.127-3.06 1.738-4.592m-41.142.02c10.19 0 20.382-.005 30.622-.012-.752 1.532-1.456 3.065-2.16 4.597-.704 1.53-1.41 3.058-2.114 4.586-10.945.02-21.887.036-32.783.057 1.08-1.54 2.18-3.067 3.242-4.608 1.05-1.532 2.112-3.08 3.192-4.62m-41.048.025l30.574-.015c-1.22 1.54-2.412 3.07-3.617 4.62-1.19 1.53-2.393 3.078-3.614 4.615-10.943.02-21.886.04-32.782.056 1.596-1.546 3.16-3.08 4.743-4.636 1.56-1.534 3.1-3.09 4.697-4.64m122.44 12.83c11.224-.02 22.401-.045 33.673-.07.236 1.518.517 3.033.8 4.544.28 1.514.563 3.03.844 4.54-11.974.036-23.903.07-35.833.107.094-1.518.164-3.037.233-4.558.072-1.52.188-3.037.284-4.562M179.437 522.98c.47-.333.938-.667 1.41-1l-1.41-.002v1.003zm0 8.335v-1.075c1.57-1.19 3.165-2.38 4.743-3.58 2.03-1.542 4.088-3.11 6.154-4.67 9.158.013 18.317.022 27.522.037-1.69 1.55-3.38 3.098-5.072 4.644-1.69 1.548-3.43 3.094-5.072 4.64-9.438.004-18.877.005-28.274.005m0 12.917v-9.297c8.113-.005 16.215-.007 24.376-.013-1.74 1.55-3.43 3.1-5.12 4.647-1.69 1.546-3.334 3.09-5.072 4.64l-14.185.022zm307.438 3.2v8.984l-12.21.036c-30.058.09-60.164.182-90.222.27-.423-1.51-.798-3.022-1.22-4.533-.423-1.512-.8-3.023-1.175-4.538 28.226-.06 56.45-.12 84.678-.178l20.148-.042zm0-12.674v8.96l-17.753.028c-1.36-1.493-2.71-3-4.087-4.484-1.394-1.505-2.817-2.994-4.133-4.49 8.633-.007 17.3-.01 25.973-.014m0-3.888c-1.542-1.353-3.12-2.705-4.696-4.057-1.736-1.486-3.524-2.98-5.26-4.472-9.206-.01-18.365-.02-27.523-.036 1.41 1.5 2.76 3.01 4.134 4.496 1.395 1.504 2.772 2.99 4.132 4.487 9.707-.004 19.462-.004 29.214-.004v-.413zm0-8.518v.372l-.47-.373.47.002zm-307.438 25.723l38.418-.08 107.363-.226c-.235 1.525-.447 3.05-.658 4.57-.212 1.523-.47 3.043-.656 4.564-38.137.114-76.274.23-114.363.343l-30.106.09v-9.262zm322.513-13.328c10.193-.003 20.385-.01 30.624-.018 2.207 1.482 4.47 2.956 6.716 4.448 2.214 1.47 4.462 2.958 6.67 4.44-10.945.02-21.888.04-32.784.057a1769.22 1769.22 0 0 1-5.588-4.458c-1.87-1.498-3.805-2.98-5.637-4.47m-15.075-12.023c1.723 1.37 3.446 2.735 5.166 4.097 1.88 1.486 3.712 2.973 5.543 4.46 9.91 0 19.82 0 29.777-.004a1378.89 1378.89 0 0 0-6.67-4.445 2473.56 2473.56 0 0 0-6.715-4.446l-27.1-.032v.372zm0 8.56v-.414l.47.413h-.47zm0 12.434v-8.96l4.556-.003c1.74 1.492 3.5 2.963 5.262 4.47 1.714 1.47 3.475 2.978 5.166 4.468l-14.983.025zm0 12.698v-8.984l64.626-.136c2.255 1.486 4.464 2.965 6.717 4.444 2.255 1.48 4.462 2.962 6.717 4.44-26.03.08-52.06.16-78.058.236" fill="#ccc"/></svg>