<?xml version="1.0" standalone="no"?><!DOCTYPE svg PUBLIC "-//W3C//DTD SVG 1.1//EN" "http://www.w3.org/Graphics/SVG/1.1/DTD/svg11.dtd"><svg width="100%" height="100%" viewBox="0 0 190 265" version="1.1" xmlns="http://www.w3.org/2000/svg" xmlns:xlink="http://www.w3.org/1999/xlink" xml:space="preserve" style="fill-rule:evenodd;clip-rule:evenodd;stroke-linejoin:round;stroke-miterlimit:1.41421;"><rect x="0" y="0" width="189.617" height="264.834" style="fill:#4d4d4d;"/><rect x="14.482" y="12.68" width="91.021" height="3.458" style="fill:#f2675d;"/><rect x="14.482" y="21.228" width="29.167" height="3.458" style="fill:#9acae6;"/><rect x="14.482" y="29.755" width="47.036" height="3.458" style="fill:#ccc;"/><rect x="36.368" y="38.303" width="27.448" height="3.458" style="fill:#9acae6;"/><rect x="36.368" y="46.829" width="27.448" height="3.458" style="fill:#9acae6;"/><rect x="55.419" y="55.378" width="26.696" height="3.458" style="fill:#9acae6;"/><rect x="53.464" y="21.228" width="49.742" height="3.458" style="fill:#ccc;"/><rect x="110.294" y="21.228" width="23.754" height="3.458" style="fill:#ccc;"/><rect x="143.068" y="21.228" width="32.066" height="3.458" style="fill:#ccc;"/><rect x="69.379" y="29.755" width="27.986" height="3.458" style="fill:#9acae6;"/><rect x="72.192" y="38.303" width="16.022" height="3.458" style="fill:#ccc;"/><rect x="72.192" y="46.829" width="27.448" height="3.458" style="fill:#ccc;"/><rect x="95.839" y="38.303" width="30.498" height="3.458" style="fill:#ccc;"/><rect x="132.437" y="38.303" width="16" height="3.458" style="fill:#ccc;"/><rect x="155.31" y="38.303" width="19.824" height="3.458" style="fill:#ccc;"/><rect x="105.741" y="46.829" width="34.665" height="3.458" style="fill:#ccc;"/><rect x="145.581" y="46.829" width="10.352" height="3.458" style="fill:#ccc;"/><rect x="89.739" y="55.378" width="19.846" height="3.458" style="fill:#ccc;"/><rect x="36.368" y="72.452" width="27.448" height="3.457" style="fill:#9acae6;"/><rect x="36.368" y="81" width="27.448" height="3.458" style="fill:#9acae6;"/><rect x="72.192" y="72.452" width="16.022" height="3.457" style="fill:#ccc;"/><rect x="72.192" y="81" width="24.721" height="3.458" style="fill:#ccc;"/><rect x="95.839" y="72.452" width="23.453" height="3.457" style="fill:#ccc;"/><rect x="123.975" y="72.452" width="12.329" height="3.457" style="fill:#ccc;"/><rect x="141.586" y="72.452" width="15.249" height="3.457" style="fill:#ccc;"/><rect x="120.968" y="81" width="27.47" height="3.458" style="fill:#ccc;"/><rect x="36.368" y="89.527" width="27.448" height="3.458" style="fill:#9acae6;"/><rect x="36.368" y="98.075" width="27.448" height="3.457" style="fill:#9acae6;"/><rect x="72.192" y="89.527" width="16.022" height="3.458" style="fill:#ccc;"/><rect x="72.192" y="98.075" width="50.322" height="3.457" style="fill:#ccc;"/><rect x="95.839" y="89.527" width="30.498" height="3.458" style="fill:#ccc;"/><rect x="132.437" y="89.527" width="16" height="3.458" style="fill:#ccc;"/><rect x="155.31" y="89.527" width="19.824" height="3.458" style="fill:#ccc;"/><rect x="128.614" y="98.075" width="28.222" height="3.457" style="fill:#ccc;"/><rect x="102.411" y="81" width="11.683" height="3.458" style="fill:#ccc;"/><rect x="14.482" y="115.149" width="29.167" height="3.458" style="fill:#9acae6;"/><rect x="14.482" y="123.676" width="47.036" height="3.457" style="fill:#ccc;"/><rect x="36.368" y="132.224" width="27.448" height="3.458" style="fill:#9acae6;"/><rect x="36.368" y="140.75" width="27.448" height="3.48" style="fill:#9acae6;"/><rect x="55.419" y="149.298" width="26.696" height="3.457" style="fill:#9acae6;"/><rect x="53.464" y="115.149" width="27.599" height="3.458" style="fill:#ccc;"/><rect x="88.129" y="115.149" width="13.939" height="3.458" style="fill:#ccc;"/><rect x="111.088" y="115.149" width="44.329" height="3.458" style="fill:#ccc;"/><rect x="69.379" y="123.676" width="27.986" height="3.457" style="fill:#9acae6;"/><rect x="72.192" y="132.224" width="31.271" height="3.458" style="fill:#ccc;"/><rect x="72.192" y="140.75" width="21.349" height="3.48" style="fill:#ccc;"/><rect x="111.088" y="132.224" width="23.238" height="3.458" style="fill:#ccc;"/><rect x="99.641" y="140.75" width="40.765" height="3.48" style="fill:#ccc;"/><rect x="145.581" y="140.75" width="10.352" height="3.48" style="fill:#ccc;"/><rect x="89.739" y="149.298" width="19.846" height="3.457" style="fill:#ccc;"/><rect x="113.988" y="149.298" width="36.942" height="3.457" style="fill:#ccc;"/><rect x="156.427" y="149.298" width="11.04" height="3.457" style="fill:#ccc;"/><rect x="36.368" y="166.373" width="27.448" height="3.458" style="fill:#9acae6;"/><rect x="36.368" y="174.92" width="27.448" height="3.458" style="fill:#9acae6;"/><rect x="72.192" y="166.373" width="45.189" height="3.458" style="fill:#ccc;"/><rect x="72.192" y="174.92" width="24.721" height="3.458" style="fill:#ccc;"/><rect x="123.975" y="166.373" width="12.329" height="3.458" style="fill:#ccc;"/><rect x="141.586" y="166.373" width="15.249" height="3.458" style="fill:#ccc;"/><rect x="120.968" y="174.92" width="27.47" height="3.458" style="fill:#ccc;"/><rect x="102.411" y="174.92" width="11.683" height="3.458" style="fill:#ccc;"/><rect x="14.482" y="188.924" width="29.167" height="3.457" style="fill:#9acae6;"/><rect x="14.482" y="197.45" width="47.036" height="3.457" style="fill:#ccc;"/><rect x="36.368" y="205.999" width="27.448" height="3.458" style="fill:#9acae6;"/><rect x="36.368" y="214.526" width="27.448" height="3.458" style="fill:#9acae6;"/><rect x="55.419" y="223.074" width="26.696" height="3.458" style="fill:#9acae6;"/><rect x="53.464" y="188.924" width="27.599" height="3.457" style="fill:#ccc;"/><rect x="88.129" y="188.924" width="13.939" height="3.457" style="fill:#ccc;"/><rect x="111.088" y="188.924" width="64.046" height="3.457" style="fill:#ccc;"/><rect x="69.379" y="197.45" width="27.986" height="3.457" style="fill:#9acae6;"/><rect x="72.192" y="205.999" width="31.271" height="3.458" style="fill:#ccc;"/><rect x="72.192" y="214.526" width="21.349" height="3.458" style="fill:#ccc;"/><rect x="111.088" y="205.999" width="23.238" height="3.458" style="fill:#ccc;"/><rect x="140.427" y="205.999" width="14.132" height="3.458" style="fill:#ccc;"/><rect x="161.431" y="205.999" width="13.703" height="3.458" style="fill:#ccc;"/><rect x="99.641" y="214.526" width="40.765" height="3.458" style="fill:#ccc;"/><rect x="145.581" y="214.526" width="10.352" height="3.458" style="fill:#ccc;"/><rect x="89.739" y="223.074" width="19.846" height="3.458" style="fill:#ccc;"/><rect x="36.368" y="240.148" width="27.448" height="3.458" style="fill:#9acae6;"/><rect x="36.368" y="248.696" width="27.448" height="3.457" style="fill:#9acae6;"/><rect x="72.192" y="240.148" width="45.189" height="3.458" style="fill:#ccc;"/><rect x="72.192" y="248.696" width="24.721" height="3.457" style="fill:#ccc;"/><rect x="123.975" y="240.148" width="12.329" height="3.458" style="fill:#ccc;"/><rect x="141.586" y="240.148" width="15.249" height="3.458" style="fill:#ccc;"/><rect x="120.968" y="248.696" width="27.47" height="3.457" style="fill:#ccc;"/><rect x="102.411" y="248.696" width="11.683" height="3.457" style="fill:#ccc;"/></svg>