<?xml version="1.0" standalone="no"?><!DOCTYPE svg PUBLIC "-//W3C//DTD SVG 1.1//EN" "http://www.w3.org/Graphics/SVG/1.1/DTD/svg11.dtd"><svg width="100%" height="100%" viewBox="0 0 222 537" version="1.1" xmlns="http://www.w3.org/2000/svg" xmlns:xlink="http://www.w3.org/1999/xlink" xml:space="preserve" style="fill-rule:evenodd;clip-rule:evenodd;stroke-linejoin:round;stroke-miterlimit:1.41421;"><path d="M3.263,157.358c0,0 -2.587,5.307 -3.263,12.295c0,0 0.331,2.555 6.659,4.694c7.223,0.97 20.743,0.153 20.743,0.153l0,-3.114c0,0 -12.193,-0.074 -15.137,-2.215c-0.48,-1.442 0,-3.877 1.185,-6.068l-10.187,-5.745Z" style="fill:#c9f2ff;fill-rule:nonzero;"/><path d="M7.81,155.466c0,0 5.826,-17.936 6.188,-19.864c0,0 5.854,-0.74 9.979,3.104c0,0 -8.546,17.141 -10.388,19.55c0,0 -2.687,-1.932 -5.779,-2.79" style="fill:#0c0c0c;fill-rule:nonzero;"/><path d="M1.937,158.534c0,0 1.102,-4.08 3.719,-5.314c0.764,-0.36 9.48,4.582 10.663,6.373c0,0 -2.092,5.344 -2.952,5.557c0,0 -10.879,-5.196 -11.43,-6.616" style="fill:#2d2d2d;fill-rule:nonzero;"/><path d="M64.097,178.814c0,0 -6.402,12.462 -6.891,13.244c-0.488,0.782 7.624,0 7.624,0c0,0 -3.061,12.51 -3.442,14.856c0,0 5.214,-3.518 8.269,-4.691c0,0 6.951,25.467 10.079,30.55c0,0 17.809,-31.505 17.006,-33.851c0,0 3.763,1.346 5.328,1.737c1.564,0.391 -5.083,-12.902 -5.083,-12.902c0,0 6.647,0.392 8.992,0l-6.548,-11.289c0,0 -28.736,1.222 -35.334,2.346" style="fill:#ffea80;fill-rule:nonzero;"/><path d="M96.183,98.605c-3.708,-6.207 -9.036,-8.336 -17.023,-7.219c-5.562,0.778 -9.361,5.056 -11.909,11.24c7.438,1.398 18.106,1.65 28.932,-4.021" style="fill:#b2490d;fill-rule:nonzero;"/><path d="M96.183,98.605c-10.826,5.671 -21.494,5.419 -28.932,4.021c-8.954,21.735 -2.426,67.056 -2.426,67.056c28.711,4.176 41.065,-4.176 41.065,-4.176c-1.918,-35.681 -3.644,-56.75 -9.707,-66.901" style="fill:#c0bab3;fill-rule:nonzero;"/><path d="M64.825,166.898l-1.566,2.118c0,0 0.609,9.366 0.696,10.236c0,0 30.625,6.612 45.067,-4.176c0,0 -0.574,-9.271 -1.914,-10.266l-1.34,-0.994c0,0 -16.408,6.736 -40.943,3.082" style="fill:#52858b;fill-rule:nonzero;"/><path d="M63.053,157.347c0,0 17.924,3.514 42.851,-2.982l-0.014,-7.457c0,0 -14.565,4.673 -42.837,2.817l0,7.622Z" style="fill:#c95e15;fill-rule:nonzero;"/><path d="M117.509,317.133c-13.775,-2.826 -22.964,-18.932 -11.619,-26.645c0,0 -23.108,-3.74 -12.518,-26.327c0,0 -15.176,-7.934 -3.099,-19.754c0,0 -16.606,-21.153 0.594,-32.722c0,0 6.528,-9.985 19.023,14.255c0,0 42.208,-18.742 19.657,31.953c12.12,-4.959 13.773,9.916 6.611,14.324c19.282,2.754 21.741,27.545 4.26,36.635c5.656,3.581 6.873,21.208 -5.086,20.657c0,0 27.27,4.961 16.857,27.273c21.156,-10.743 28.593,9.09 23.635,19.833c0,0 37.186,17.353 -3.306,43.797c28.923,14.874 23.139,62.804 -17.354,60.325c23.965,12.395 6.611,41.318 -14.048,27.27c5.785,10.743 -9.203,29.749 -27.326,28.923c-18.124,-0.826 -25.082,-21.486 -26.562,-29.749c-9.742,11.569 -20.442,-4.959 -14.679,-12.396c-15.723,5.784 -26.214,-21.486 -8.985,-30.576c-27.396,2.48 -42,-42.971 1.662,-51.234c-15.01,-14.049 -6.163,-43.251 22.881,-36.914c-6.489,-9.363 9.664,-13.362 15.627,-11.709c0,0 -12.808,-17.672 8.765,-25.114c0,0 -9.689,-18.644 5.01,-22.105" style="fill:#ececec;fill-rule:nonzero;"/><path d="M89.834,193.023c0,0 -9.021,17.56 -9.71,18.662c-0.689,1.102 10.743,0 10.743,0c0,0 -4.314,17.629 -4.851,20.935c0,0 7.347,-4.958 11.652,-6.611c0,0 16.475,37.461 20.882,44.624c0,0 18.415,-45.971 17.284,-49.276c0,0 5.304,1.897 7.507,2.448c2.204,0.551 -7.162,-18.18 -7.162,-18.18c0,0 9.366,0.551 12.672,0l-9.228,-15.907c0,0 -40.492,1.721 -49.789,3.305" style="fill:#f0d61d;fill-rule:nonzero;"/><path d="M97.98,192.457c0,0 -6.038,11.754 -6.5,12.492c-0.461,0.737 7.191,0 7.191,0c0,0 -2.888,11.8 -3.246,14.013c0,0 4.917,-3.319 7.799,-4.425c0,0 11.028,25.076 13.978,29.869c0,0 12.327,-30.771 11.569,-32.983c0,0 3.55,1.269 5.025,1.638c1.475,0.369 -4.794,-12.169 -4.794,-12.169c0,0 6.269,0.369 8.482,0l-6.177,-10.648c0,0 -27.104,1.152 -33.327,2.213" style="fill:#ffeb80;fill-rule:nonzero;"/><path d="M126.395,97.271c-12.853,6.733 -25.519,6.433 -34.349,4.774c-10.632,25.806 -2.882,79.615 -2.882,79.615c34.089,4.958 48.756,-4.958 48.756,-4.958c-2.277,-42.363 -4.326,-67.379 -11.525,-79.431" style="fill:#c9f2ff;fill-rule:nonzero;"/><path d="M89.165,178.355l-1.86,2.514c0,0 0.723,11.121 0.827,12.154c0,0 36.36,7.851 53.507,-4.959c0,0 -0.681,-11.008 -2.272,-12.188l-1.592,-1.18c0,0 -19.481,7.998 -48.61,3.659" style="fill:#71a3ac;fill-rule:nonzero;"/><path d="M87.061,167.014c0,0 21.28,4.173 50.876,-3.54l-0.017,-8.853c0,0 -17.292,5.548 -50.859,3.345l0,9.048Z" style="fill:#c95e15;fill-rule:nonzero;"/><path d="M112.499,92.888c0,0 10.826,-0.477 15.195,14.687c4.356,15.117 6.42,51.99 7.107,64.962l-4.512,1.276c0,0 -0.761,-79.779 -17.79,-80.925" style="fill:#fff;fill-rule:nonzero;"/><path d="M126.395,97.271c-4.402,-7.37 -15.082,-9.886 -20.211,-8.57c-6.459,1.655 -11.113,6.002 -14.138,13.344c8.83,1.659 21.496,1.959 34.349,-4.774" style="fill:#c95e15;fill-rule:nonzero;"/><path d="M51.875,107.475c4.356,-1.012 15.719,7.968 8.073,41.19c-6.22,27.026 -46.247,6.787 -46.247,6.787c0,0 7.084,-7.569 4.72,-11.981c0,0 19.693,20.345 32.438,5.439c2.194,-2.566 4.33,-16.094 1.552,-25.186c-3.069,-10.049 -5.66,-15.057 -0.536,-16.249" style="fill:#464b4c;fill-rule:nonzero;"/><path d="M13.701,154.815c0,0 0.08,0.053 0.227,0.126c1.027,0.516 5.296,2.057 7.911,-6.276c0,0 -10.45,-0.523 -8.138,6.15" style="fill:#eabe96;fill-rule:nonzero;"/><path d="M24.679,141.936c-1.646,-0.553 -3.381,-0.589 -5.448,4.31c-2.065,4.899 -0.583,5.238 1.881,3.888c2.465,-1.35 5.746,-7.465 3.567,-8.198" style="fill:#eabe96;fill-rule:nonzero;"/><path d="M15.887,139.549c-4.765,-1.429 -10.437,1.012 -1.4,5.672c9.037,4.662 12.309,-2.399 1.4,-5.672" style="fill:#ffdcb8;fill-rule:nonzero;"/><path d="M13.517,144.072c-2.802,-0.841 -5.533,-1.282 -6.4,1.011c-0.648,1.716 0.804,2.787 4.936,4.918c4.403,2.27 7.206,2.33 8.39,0.468c1.027,-1.614 -0.838,-4.571 -6.926,-6.397" style="fill:#ffdcb8;fill-rule:nonzero;"/><path d="M11.798,149.242c-3.895,-1.168 -8.53,0.828 -1.145,4.636c3.64,1.877 6.35,1.334 6.953,0.11c1.107,-2.245 -1.287,-3.389 -5.808,-4.746" style="fill:#ffdcb8;fill-rule:nonzero;"/><path d="M107.575,74.876c0,0 1.601,5.165 0,6.405c-1.602,1.239 -5.733,-2.214 -6.56,-3.586c0,0 1.034,3.907 -0.826,3.85c-1.86,-0.057 -4.958,-6.669 -4.958,-6.669c0,0 4.028,-7.024 12.344,0" style="fill:#725c2b;fill-rule:nonzero;"/><path d="M56.391,21.782c0,0 -10.743,28.51 -14.048,36.773c-3.305,8.264 -5.371,23.552 7.025,27.27c12.395,3.72 34.575,4.959 42.144,-3.305c7.569,-8.263 9.09,-15.288 9.09,-15.288c0,0 12.396,-29.335 4.132,-40.905c-8.264,-11.569 -42.145,-16.94 -48.343,-4.545" style="fill:#ffdcb8;fill-rule:nonzero;"/><path d="M60.11,36.932c0,0 -1.928,3.857 -3.305,3.857c-1.378,0 -6.887,1.377 -2.755,4.407c4.132,3.03 7.988,1.377 7.988,1.377c0,0 -7.26,-1.348 -7.438,-3.306c-0.177,-1.957 2.755,-0.1 4.133,-1.29c1.377,-1.188 1.377,-5.045 1.377,-5.045" style="fill:#cb8f5e;fill-rule:nonzero;"/><path d="M77.114,37.573c-0.504,1.676 -1.661,2.808 -2.586,2.531c-0.924,-0.278 -1.264,-1.862 -0.76,-3.537c0.504,-1.676 1.662,-2.808 2.586,-2.531c0.924,0.279 1.264,1.862 0.76,3.537" style="fill:#190f08;fill-rule:nonzero;"/><path d="M57.905,36.196c-0.504,1.675 -1.661,2.808 -2.586,2.53c-0.924,-0.278 -1.265,-1.861 -0.761,-3.537c0.504,-1.675 1.662,-2.808 2.586,-2.53c0.924,0.278 1.265,1.861 0.761,3.537" style="fill:#190f08;fill-rule:nonzero;"/><path d="M62.038,21.162c0,0 5.303,7.231 7.575,7.025c2.273,-0.207 0,-4.339 0,-4.339c0,0 6.404,5.578 10.949,6.404c4.545,0.827 0,-4.545 0,-4.545c0,0 3.926,1.533 5.579,0.044c1.652,-1.49 -15.357,-9.34 -24.103,-4.589" style="fill:#725c2b;fill-rule:nonzero;"/><path d="M47.301,55.25c0,0 -1.417,21.072 9.917,24.378c0.14,0.041 0.276,0.062 0.416,0.099c3.33,-14.22 19.537,-16.879 26.618,-17.357c1.22,-2.033 1.889,-3.401 1.889,-3.401c-16.115,-10.743 -38.84,-3.719 -38.84,-3.719" style="fill:#753427;fill-rule:nonzero;"/><path d="M57.634,79.727c12.525,3.281 22.601,-10.667 26.618,-17.357c-7.081,0.478 -23.289,3.138 -26.618,17.357" style="fill:#da9089;fill-rule:nonzero;"/><path d="M47.814,44.407c0,0 2.971,-7.29 4.93,-12.579c-0.877,-0.489 -1.707,-0.971 -2.487,-1.439c-1.233,4.191 -2.077,8.85 -2.443,14.018" style="fill:#c9f2ff;fill-rule:nonzero;"/><path d="M127.915,22.925c-1.093,-2.688 -2.593,-5.292 -4.588,-7.754c-17.507,-21.604 -61.79,-23.134 -73.07,15.218c0.779,0.468 1.609,0.95 2.487,1.439c0.75,-2.026 1.353,-3.759 1.582,-4.674c0,0 16.94,-11.156 42.144,2.892c0,0 2.604,3.163 3.249,10.14c9.385,-2.299 19.032,-7.521 28.196,-17.261" style="fill:#fff;fill-rule:nonzero;"/><path d="M99.72,40.185c0.612,6.623 -0.54,16.68 -7.382,30.766c0,0 14.462,7.85 19.007,6.611c4.077,-1.113 26.111,-31.162 16.57,-54.637c-9.164,9.739 -18.811,14.962 -28.195,17.26" style="fill:#c9f2ff;fill-rule:nonzero;"/><path d="M113.051,48.06c-0.207,-0.056 -0.417,-0.094 -0.627,-0.117c2.457,1.173 3.373,5.824 2.029,10.822c-1.345,4.998 -4.471,8.562 -7.185,8.343c0.194,0.084 0.394,0.157 0.602,0.213c3.44,0.925 7.389,-2.636 8.82,-7.955c1.431,-5.319 -0.199,-10.381 -3.639,-11.306" style="fill:#75a4ac;fill-rule:nonzero;"/><path d="M114.453,58.765c1.345,-4.998 0.428,-9.649 -2.03,-10.822c-3.28,-0.371 -6.848,3.073 -8.193,8.072c-1.344,4.998 0.014,9.767 3.038,11.093c2.714,0.219 5.84,-3.345 7.185,-8.343" style="fill:#a0ccd0;fill-rule:nonzero;"/><path d="M72.346,28.823c0,0 6.771,0.736 10.626,6.428c0,0 -5.001,-10.56 -10.626,-6.428" style="fill:#493918;fill-rule:nonzero;"/><path d="M62.545,28.691c0,0 -2.621,-1.387 -8.219,3.693c0,0 4.065,-7.958 8.219,-3.693" style="fill:#493918;fill-rule:nonzero;"/><path d="M63.002,316.796c0,0 -4.132,12.395 -7.437,17.766c-3.306,5.372 -1.24,14.049 3.719,14.462c4.958,0.413 21.491,-23.418 23.138,-26.444c1.647,-3.026 -7.831,-8.274 -7.831,-8.274c0,0 -8.697,0.837 -11.589,2.49" style="fill:#382b19;fill-rule:nonzero;"/><path d="M79.736,314.307c0,0 1.582,9.51 1.995,17.361c0.413,7.851 -1.003,19.422 4.988,21.488c5.991,2.065 8.387,-1.24 8.387,-1.24c0,0 7.396,-27.784 6.652,-31.659c-0.743,-3.874 -8.387,-9.246 -8.387,-9.246l-13.635,3.296Z" style="fill:#382b19;fill-rule:nonzero;"/><path d="M25.816,190.361c0,0 6.611,83.05 34.294,128.087c0,0 11.982,7.024 19.626,-6.611c0,0 -9.159,-19.006 -17.698,-50.821c-8.539,-31.815 -12.671,-61.152 -13.29,-66.11l-22.932,-4.545Z" style="fill:#464b4c;fill-rule:nonzero;"/><path d="M29.055,194.471c0,0 8.37,15.31 13.308,23.16c4.938,7.851 25.365,89.661 34.984,101.23c0,0 11.106,3.719 24.411,-5.784c0,0 -24.201,-52.698 -29.413,-112.498c0,0 -30.96,-11.916 -43.29,-6.108" style="fill:#464b4c;fill-rule:nonzero;"/><path d="M33.08,201.724c0,0 6.962,8.679 10.17,17.704c3.208,9.025 22.274,74.522 29.095,88.583c0,0 -15.187,-37.688 -21.912,-59.347c-6.725,-21.658 -6.104,-25.73 -17.353,-46.94" style="fill:#232728;fill-rule:nonzero;"/><path d="M194.409,376.061c0,0 -7.948,-6.303 0,-9.971c0,0 -9.781,-10.855 0,-15.515c9.782,-4.66 13.45,8.179 13.45,8.179c0,0 2.446,-5.502 8.559,-1.834c6.114,3.668 3.668,11.881 0,14.5c0,0 7.448,4.664 3.724,10.977c-3.724,6.314 -11.06,0 -11.06,0c-2.446,7.536 -18.952,3.636 -14.673,-6.336" style="fill:#ececec;fill-rule:nonzero;"/><path d="M87.576,103.593c0,0 8.274,1.767 11.787,3.982c0,0 -19.627,56.894 -21.073,94.149c0,0 -18.689,-4.06 -34.736,-6.232c-0.113,-0.813 -0.293,-1.275 -1.191,-1.386c-7.195,-0.888 -15.113,-0.277 -18.615,0.348c0,0 14.325,-68.825 28.792,-86.879c0,0 3.851,-0.543 7.88,-1.747c4.029,-1.203 27.156,-2.235 27.156,-2.235" style="fill:#464b4c;fill-rule:nonzero;"/><path d="M62.842,104.965c0,0 -8.837,7.587 -15.598,7.239c0,0 2.536,7.296 7.908,11.841c0,0 -11.322,5.165 -12.789,6.198l0,46.441c0,0 6.792,-22.613 7.349,-27.622c0.556,-5.01 11.563,-39.06 13.13,-44.097" style="fill:#676b6b;fill-rule:nonzero;"/><path d="M84.488,85.206c0,0 -3.926,19.626 -4.545,21.279c-12.269,12.395 -13.91,5.795 -13.25,0c-1.005,-1.24 3.333,-15.494 3.333,-20.246c6.405,-1.033 14.462,-1.033 14.462,-1.033" style="fill:#ffdcb8;fill-rule:nonzero;"/><path d="M42.349,178.096c0.201,-0.353 -1.787,9.352 -1.94,12.992c0,0 0.288,-10.088 1.94,-12.992" style="fill:#232728;fill-rule:nonzero;"/><path d="M40.092,179.354c-0.099,0.618 -0.551,1.059 -1.01,0.985c-0.458,-0.074 -0.749,-0.634 -0.649,-1.252c0.099,-0.618 0.551,-1.059 1.009,-0.986c0.459,0.074 0.75,0.635 0.65,1.253" style="fill:#232728;fill-rule:nonzero;"/><path d="M39.243,186.231c-0.1,0.618 -0.551,1.059 -1.01,0.986c-0.459,-0.074 -0.75,-0.635 -0.65,-1.253c0.099,-0.618 0.551,-1.059 1.01,-0.985c0.459,0.074 0.75,0.634 0.65,1.252" style="fill:#232728;fill-rule:nonzero;"/><path d="M89.398,104.965c0,0 -0.779,11.85 3.973,17.841c0,0 -16.376,5.674 -23.313,6.817c0,0 7.406,6.198 14.43,10.536c0,0 -37.993,20.204 -42.125,36.525c0,0 4.28,-20.039 6.892,-26.65c2.611,-6.611 35.447,-41.293 40.143,-45.069" style="fill:#676b6b;fill-rule:nonzero;"/><path d="M74.229,106.616c-0.629,0.462 -1.433,1.146 -2.267,1.904l-0.659,-2.035l-2.028,4.202c-0.448,0.462 -0.661,1.148 -1.006,1.546l-0.595,-5.232l-0.905,0.977c-0.075,-0.376 -0.151,-0.698 -0.227,-0.924c-3.141,0.266 -4.504,0.521 -4.504,0.521c-3.857,8.527 -12.784,42.459 -12.784,42.459c6.479,-12.395 38.321,-43.549 38.321,-43.549c-5.39,-0.06 -9.8,0.006 -13.346,0.131" style="fill:#e5e5e5;fill-rule:nonzero;"/><path d="M83.455,99.048c0,0 -10.495,6.595 -12.152,7.437c0,0 1.608,6.817 2.232,8.47c0,0 15.291,-8.47 16.737,-10.743l-6.817,-5.164Z" style="fill:#fff;fill-rule:nonzero;"/><path d="M67.252,101.049c0,0 -0.56,3.037 0.422,5.952c0,0 -2.605,5.888 -4.052,6.921c0,0 -1.86,-6.162 -2.067,-8.435l5.697,-4.438Z" style="fill:#fff;fill-rule:nonzero;"/><path d="M72.882,113.518c0,0 -8.038,-1.092 -8.267,-0.737c-0.23,0.356 1.111,7.89 1.111,7.89c0,0 2.808,1.796 3.167,1.144c0.36,-0.652 3.989,-8.297 3.989,-8.297" style="fill:#141414;fill-rule:nonzero;"/><path d="M65.722,120.552c0,0 -4.916,12.644 -23.313,20.227c-10.649,4.39 -28.576,22.932 -24.857,39.46c0,0 8.47,9.915 10.95,10.122c0,0 7.437,-7.644 9.09,-10.122c0,0 -7.347,-22.05 10.221,-32.849c20.602,-12.662 20.968,-25.432 20.968,-25.432l-3.059,-1.406Z" style="fill:#141414;fill-rule:nonzero;"/><path d="M71.303,106.485c0,0 -2.59,4.818 -3.041,5.682c0,0 -0.384,-4.117 -0.588,-5.165c0,0 0.206,5.021 0.441,6.017c0,0 1.619,-2.814 3.188,-6.534" style="fill:#a0a3a3;fill-rule:nonzero;"/><path d="M30.932,193.181c-0.387,0.05 8.726,-0.422 10.216,-0.192l0.774,0.917c0,0 14.875,2.53 21.338,4.729c-0.001,0 -12.3,-3.459 -21.546,-3.725l-0.918,-1.183c0,0 -7.424,-0.864 -9.864,-0.546" style="fill:#232728;fill-rule:nonzero;"/><path d="M90.254,104.236c0,0 43.733,5.151 45.826,36.188c2.81,41.674 -64.778,33.188 -64.778,33.188c0,0 7.196,-12.607 3.36,-17.014c0,0 46.666,13.554 49.353,-12.99c1.653,-16.326 -21.33,-23.565 -27.561,-24.728c-6.23,-1.162 -7.099,-11.395 -6.2,-14.644" style="fill:#464b4c;fill-rule:nonzero;"/><path d="M66.693,179.22c-1.286,5.751 0,8.005 0,8.005c1.746,1.18 27.847,-4.014 44.382,-10.236c2.773,-1.043 5.969,-5.072 7.908,-6.137c0,0 3.891,0.523 4.356,3.471c0.165,1.048 0.008,2.145 -2.403,4.358c0,0 -41.676,12.857 -60.13,14.407c-2.927,0.246 -5.599,-1.37 -7.235,-2c-1.072,-1.987 0.094,-13.944 0.094,-13.944c0,0 9.678,0.479 13.028,2.076" style="fill:#c9f2ff;fill-rule:nonzero;"/><path d="M63.002,144.752c0,0 -4.953,27.499 -5.713,29.943c-0.76,2.444 5.977,3.546 8.118,2.858c2.14,-0.69 9.663,-27.142 10.034,-29.4c0,0 -5.966,-3.835 -12.439,-3.401" style="fill:#0c0c0c;fill-rule:nonzero;"/><path d="M54.623,171.906c0,0 12.925,2.754 14.577,4.407c0,0 -0.883,5.208 -2.507,6.735c-1.625,1.529 -12.987,-3.429 -13.917,-4.256c-0.93,-0.826 0.004,-4.079 1.847,-6.886" style="fill:#2d2d2d;fill-rule:nonzero;"/><path d="M78.181,157.83c0,0 -1.148,-3.025 -3.323,-7.289c-1.117,3.483 -2.11,5.393 -2.11,5.393c0,0 -11.302,-6.087 -12.741,-3.922c-1.44,2.165 -0.564,6.065 -0.564,6.065c0,0 -3.418,0.313 -3.399,3.025c0.02,2.713 0.317,4.045 0.317,4.045c0,0 -2.705,2.126 0.105,3.952c2.809,1.825 12.225,5.629 14.836,4.513c2.613,-1.115 7.185,-9.639 6.879,-15.782" style="fill:#ffdcb8;fill-rule:nonzero;"/></svg>