<?xml version="1.0" standalone="no"?><!DOCTYPE svg PUBLIC "-//W3C//DTD SVG 1.1//EN" "http://www.w3.org/Graphics/SVG/1.1/DTD/svg11.dtd"><svg width="100%" height="100%" viewBox="0 0 600 600" version="1.1" xmlns="http://www.w3.org/2000/svg" xmlns:xlink="http://www.w3.org/1999/xlink" xml:space="preserve" style="fill-rule:evenodd;clip-rule:evenodd;stroke-linejoin:round;stroke-miterlimit:1.41421;"><path d="M350.379,191.113c0,0 -2.587,5.307 -3.263,12.295c0,0 0.331,2.554 6.659,4.694c7.224,0.97 20.743,0.152 20.743,0.152l0,-3.114c0,0 -12.193,-0.073 -15.136,-2.214c-0.481,-1.443 0,-3.877 1.184,-6.069l-10.187,-5.744Z" style="fill:#c9f2ff;fill-rule:nonzero;"/><path d="M354.927,189.221c0,0 5.825,-17.936 6.187,-19.864c0,0 5.855,-0.74 9.98,3.104c0,0 -8.547,17.14 -10.389,19.55c0,0 -2.687,-1.932 -5.778,-2.79" style="fill:#0c0c0c;fill-rule:nonzero;"/><path d="M349.053,192.289c0,0 1.102,-4.08 3.719,-5.314c0.764,-0.36 9.48,4.582 10.663,6.373c0,0 -2.092,5.344 -2.952,5.556c0,0 -10.879,-5.195 -11.43,-6.615" style="fill:#2d2d2d;fill-rule:nonzero;"/><path d="M411.214,212.569c0,0 -6.402,12.462 -6.891,13.243c-0.489,0.783 7.623,0 7.623,0c0,0 -3.061,12.511 -3.441,14.857c0,0 5.213,-3.518 8.268,-4.691c0,0 6.951,25.467 10.08,30.55c0,0 17.808,-31.506 17.005,-33.852c0,0 3.764,1.347 5.328,1.738c1.564,0.391 -5.083,-12.902 -5.083,-12.902c0,0 6.647,0.391 8.992,0l-6.548,-11.289c0,0 -28.736,1.222 -35.333,2.346" style="fill:#ffea80;fill-rule:nonzero;"/><path d="M443.299,132.36c-3.707,-6.207 -9.035,-8.336 -17.023,-7.219c-5.562,0.778 -9.361,5.056 -11.908,11.239c7.437,1.398 18.105,1.65 28.931,-4.02" style="fill:#b2490d;fill-rule:nonzero;"/><path d="M443.299,132.36c-10.826,5.67 -21.494,5.418 -28.931,4.02c-8.955,21.735 -2.427,67.057 -2.427,67.057c28.711,4.176 41.065,-4.176 41.065,-4.176c-1.918,-35.681 -3.644,-56.75 -9.707,-66.901" style="fill:#c0bab3;fill-rule:nonzero;"/><path d="M411.941,200.653l-1.566,2.118c0,0 0.609,9.366 0.696,10.236c0,0 30.625,6.612 45.067,-4.176c0,0 -0.574,-9.272 -1.914,-10.266l-1.34,-0.995c0,0 -16.408,6.737 -40.943,3.083" style="fill:#52858b;fill-rule:nonzero;"/><path d="M410.169,191.101c0,0 17.924,3.515 42.851,-2.981l-0.014,-7.457c0,0 -14.565,4.673 -42.837,2.817l0,7.621Z" style="fill:#c95e15;fill-rule:nonzero;"/><path d="M464.625,350.888c-13.775,-2.826 -22.964,-18.933 -11.619,-26.646c0,0 -23.107,-3.739 -12.518,-26.326c0,0 -15.176,-7.934 -3.099,-19.754c0,0 -16.606,-21.153 0.594,-32.722c0,0 6.528,-9.986 19.023,14.255c0,0 42.208,-18.742 19.657,31.952c12.12,-4.958 13.773,9.917 6.611,14.325c19.282,2.754 21.741,27.545 4.26,36.635c5.656,3.581 6.874,21.208 -5.086,20.657c0,0 27.27,4.961 16.857,27.272c21.156,-10.743 28.593,9.09 23.635,19.833c0,0 37.186,17.354 -3.305,43.797c28.923,14.875 23.138,62.805 -17.355,60.326c23.965,12.395 6.612,41.318 -14.048,27.27c5.785,10.743 -9.202,29.749 -27.326,28.923c-18.124,-0.827 -25.082,-21.486 -26.561,-29.75c-9.743,11.57 -20.442,-4.958 -14.68,-12.395c-15.722,5.784 -26.213,-21.486 -8.985,-30.576c-27.396,2.48 -42,-42.971 1.662,-51.235c-15.01,-14.048 -6.163,-43.251 22.882,-36.913c-6.49,-9.363 9.663,-13.362 15.626,-11.709c0,0 -12.808,-17.672 8.765,-25.115c0,0 -9.689,-18.643 5.01,-22.104" style="fill:#ececec;fill-rule:nonzero;"/><path d="M436.95,226.778c0,0 -9.021,17.56 -9.709,18.662c-0.69,1.102 10.742,0 10.742,0c0,0 -4.314,17.629 -4.851,20.935c0,0 7.347,-4.959 11.652,-6.612c0,0 16.475,37.462 20.882,44.625c0,0 18.416,-45.971 17.284,-49.276c0,0 5.304,1.897 7.507,2.448c2.204,0.55 -7.161,-18.18 -7.161,-18.18c0,0 9.365,0.55 12.671,0l-9.228,-15.908c0,0 -40.492,1.722 -49.789,3.306" style="fill:#f0d61d;fill-rule:nonzero;"/><path d="M445.096,226.211c0,0 -6.038,11.755 -6.499,12.492c-0.462,0.738 7.191,0 7.191,0c0,0 -2.889,11.801 -3.247,14.013c0,0 4.917,-3.318 7.799,-4.425c0,0 11.028,25.077 13.978,29.87c0,0 12.327,-30.771 11.569,-32.984c0,0 3.55,1.27 5.025,1.639c1.476,0.369 -4.794,-12.169 -4.794,-12.169c0,0 6.27,0.369 8.482,0l-6.177,-10.648c0,0 -27.104,1.152 -33.327,2.212" style="fill:#ffeb80;fill-rule:nonzero;"/><path d="M473.511,131.026c-12.853,6.732 -25.519,6.433 -34.349,4.773c-10.632,25.806 -2.882,79.616 -2.882,79.616c34.089,4.958 48.756,-4.958 48.756,-4.958c-2.277,-42.363 -4.326,-67.379 -11.525,-79.431" style="fill:#c9f2ff;fill-rule:nonzero;"/><path d="M436.281,212.11l-1.859,2.514c0,0 0.723,11.121 0.826,12.153c0,0 36.36,7.851 53.507,-4.958c0,0 -0.681,-11.008 -2.272,-12.188l-1.592,-1.181c0,0 -19.481,7.998 -48.61,3.66" style="fill:#71a3ac;fill-rule:nonzero;"/><path d="M434.177,200.769c0,0 21.28,4.173 50.876,-3.54l-0.017,-8.854c0,0 -17.292,5.549 -50.859,3.345l0,9.049Z" style="fill:#c95e15;fill-rule:nonzero;"/><path d="M459.615,126.642c0,0 10.826,-0.476 15.195,14.688c4.356,15.117 6.42,51.99 7.107,64.962l-4.512,1.276c0,0 -0.761,-79.78 -17.79,-80.926" style="fill:#fff;fill-rule:nonzero;"/><path d="M473.511,131.026c-4.402,-7.37 -15.082,-9.886 -20.211,-8.571c-6.459,1.656 -11.113,6.003 -14.138,13.344c8.83,1.66 21.496,1.959 34.349,-4.773" style="fill:#c95e15;fill-rule:nonzero;"/><path d="M398.991,141.23c4.356,-1.012 15.719,7.967 8.073,41.19c-6.22,27.026 -46.247,6.787 -46.247,6.787c0,0 7.084,-7.569 4.72,-11.981c0,0 19.693,20.345 32.438,5.439c2.194,-2.566 4.33,-16.095 1.552,-25.186c-3.069,-10.049 -5.66,-15.057 -0.536,-16.249" style="fill:#464b4c;fill-rule:nonzero;"/><path d="M360.817,188.57c0,0 0.08,0.052 0.227,0.126c1.027,0.516 5.296,2.057 7.911,-6.276c0,0 -10.45,-0.523 -8.138,6.15" style="fill:#eabe96;fill-rule:nonzero;"/><path d="M371.796,175.691c-1.647,-0.554 -3.382,-0.59 -5.448,4.309c-2.066,4.899 -0.584,5.239 1.881,3.889c2.464,-1.351 5.745,-7.465 3.567,-8.198" style="fill:#eabe96;fill-rule:nonzero;"/><path d="M363.003,173.304c-4.765,-1.43 -10.437,1.012 -1.4,5.672c9.037,4.661 12.309,-2.399 1.4,-5.672" style="fill:#ffdcb8;fill-rule:nonzero;"/><path d="M360.633,177.826c-2.802,-0.84 -5.532,-1.281 -6.399,1.012c-0.648,1.715 0.804,2.786 4.935,4.918c4.403,2.27 7.206,2.33 8.391,0.468c1.026,-1.614 -0.839,-4.571 -6.927,-6.398" style="fill:#ffdcb8;fill-rule:nonzero;"/><path d="M358.914,182.997c-3.895,-1.168 -8.53,0.827 -1.145,4.636c3.64,1.877 6.351,1.333 6.954,0.109c1.107,-2.244 -1.287,-3.388 -5.809,-4.745" style="fill:#ffdcb8;fill-rule:nonzero;"/><path d="M454.691,108.631c0,0 1.601,5.165 0,6.404c-1.602,1.24 -5.733,-2.213 -6.56,-3.585c0,0 1.034,3.907 -0.826,3.849c-1.86,-0.057 -4.958,-6.668 -4.958,-6.668c0,0 4.028,-7.024 12.344,0" style="fill:#725c2b;fill-rule:nonzero;"/><path d="M403.507,55.537c0,0 -10.743,28.51 -14.048,36.773c-3.305,8.264 -5.371,23.552 7.025,27.27c12.395,3.719 34.575,4.958 42.144,-3.305c7.569,-8.264 9.09,-15.288 9.09,-15.288c0,0 12.396,-29.336 4.132,-40.905c-8.264,-11.569 -42.145,-16.94 -48.343,-4.545" style="fill:#ffdcb8;fill-rule:nonzero;"/><path d="M407.226,70.687c0,0 -1.928,3.856 -3.305,3.856c-1.378,0 -6.887,1.377 -2.755,4.407c4.132,3.03 7.988,1.378 7.988,1.378c0,0 -7.26,-1.348 -7.437,-3.306c-0.177,-1.957 2.754,-0.1 4.132,-1.29c1.377,-1.189 1.377,-5.045 1.377,-5.045" style="fill:#cb8f5e;fill-rule:nonzero;"/><path d="M424.23,71.328c-0.504,1.676 -1.661,2.808 -2.586,2.531c-0.924,-0.279 -1.264,-1.862 -0.76,-3.537c0.504,-1.676 1.662,-2.808 2.586,-2.531c0.924,0.278 1.264,1.862 0.76,3.537" style="fill:#190f08;fill-rule:nonzero;"/><path d="M405.021,69.951c-0.504,1.675 -1.661,2.808 -2.586,2.53c-0.924,-0.278 -1.264,-1.861 -0.76,-3.537c0.504,-1.675 1.661,-2.808 2.585,-2.53c0.924,0.278 1.265,1.861 0.761,3.537" style="fill:#190f08;fill-rule:nonzero;"/><path d="M409.154,54.917c0,0 5.303,7.231 7.575,7.025c2.273,-0.207 0,-4.339 0,-4.339c0,0 6.405,5.578 10.95,6.404c4.545,0.827 0,-4.545 0,-4.545c0,0 3.925,1.532 5.578,0.044c1.652,-1.49 -15.357,-9.34 -24.103,-4.589" style="fill:#725c2b;fill-rule:nonzero;"/><path d="M394.417,89.005c0,0 -1.417,21.072 9.917,24.378c0.14,0.04 0.277,0.062 0.416,0.099c3.33,-14.22 19.537,-16.879 26.618,-17.357c1.221,-2.033 1.889,-3.402 1.889,-3.402c-16.115,-10.743 -38.84,-3.718 -38.84,-3.718" style="fill:#753427;fill-rule:nonzero;"/><path d="M404.75,113.482c12.525,3.281 22.601,-10.668 26.619,-17.358c-7.082,0.479 -23.289,3.138 -26.619,17.358" style="fill:#da9089;fill-rule:nonzero;"/><path d="M394.93,78.162c0,0 2.971,-7.291 4.93,-12.58c-0.877,-0.489 -1.707,-0.97 -2.487,-1.438c-1.233,4.191 -2.077,8.85 -2.443,14.018" style="fill:#c9f2ff;fill-rule:nonzero;"/><path d="M475.031,56.68c-1.093,-2.688 -2.593,-5.292 -4.588,-7.754c-17.507,-21.604 -61.79,-23.134 -73.07,15.218c0.779,0.468 1.61,0.95 2.487,1.439c0.75,-2.026 1.353,-3.759 1.582,-4.674c0,0 16.94,-11.157 42.145,2.892c0,0 2.604,3.163 3.249,10.14c9.384,-2.299 19.032,-7.521 28.195,-17.261" style="fill:#fff;fill-rule:nonzero;"/><path d="M446.836,73.94c0.613,6.623 -0.54,16.68 -7.382,30.766c0,0 14.462,7.85 19.007,6.61c4.078,-1.112 26.111,-31.161 16.57,-54.636c-9.164,9.739 -18.81,14.962 -28.195,17.26" style="fill:#c9f2ff;fill-rule:nonzero;"/><path d="M460.167,81.815c-0.207,-0.056 -0.416,-0.094 -0.627,-0.117c2.458,1.173 3.373,5.823 2.029,10.821c-1.344,4.998 -4.47,8.562 -7.185,8.343c0.194,0.085 0.394,0.158 0.602,0.213c3.44,0.926 7.389,-2.635 8.82,-7.954c1.431,-5.319 -0.199,-10.381 -3.639,-11.306" style="fill:#75a4ac;fill-rule:nonzero;"/><path d="M461.569,92.519c1.345,-4.998 0.428,-9.648 -2.029,-10.821c-3.281,-0.372 -6.849,3.073 -8.193,8.072c-1.345,4.998 0.013,9.767 3.037,11.092c2.714,0.219 5.84,-3.345 7.185,-8.343" style="fill:#a0ccd0;fill-rule:nonzero;"/><path d="M419.462,62.578c0,0 6.771,0.736 10.627,6.427c0,0 -5.002,-10.559 -10.627,-6.427" style="fill:#493918;fill-rule:nonzero;"/><path d="M409.661,62.446c0,0 -2.621,-1.387 -8.219,3.693c0,0 4.065,-7.958 8.219,-3.693" style="fill:#493918;fill-rule:nonzero;"/><path d="M410.118,350.55c0,0 -4.131,12.396 -7.437,17.767c-3.306,5.372 -1.239,14.048 3.719,14.462c4.958,0.413 21.491,-23.418 23.138,-26.444c1.647,-3.026 -7.831,-8.274 -7.831,-8.274c0,0 -8.697,0.836 -11.589,2.489" style="fill:#382b19;fill-rule:nonzero;"/><path d="M426.852,348.061c0,0 1.582,9.511 1.995,17.361c0.414,7.851 -1.003,19.422 4.988,21.489c5.991,2.065 8.387,-1.24 8.387,-1.24c0,0 7.396,-27.785 6.653,-31.659c-0.744,-3.875 -8.388,-9.246 -8.388,-9.246l-13.635,3.295Z" style="fill:#382b19;fill-rule:nonzero;"/><path d="M372.932,224.116c0,0 6.611,83.05 34.294,128.087c0,0 11.982,7.024 19.626,-6.611c0,0 -9.159,-19.007 -17.697,-50.822c-8.54,-31.815 -12.672,-61.151 -13.291,-66.109l-22.932,-4.545Z" style="fill:#464b4c;fill-rule:nonzero;"/><path d="M376.172,228.225c0,0 8.369,15.311 13.308,23.161c4.938,7.85 25.364,89.661 34.983,101.23c0,0 11.106,3.719 24.411,-5.784c0,0 -24.201,-52.698 -29.413,-112.498c0,0 -30.96,-11.916 -43.289,-6.109" style="fill:#464b4c;fill-rule:nonzero;"/><path d="M380.196,235.479c0,0 6.962,8.679 10.17,17.703c3.208,9.026 22.274,74.523 29.096,88.584c0,0 -15.188,-37.688 -21.912,-59.347c-6.726,-21.659 -6.105,-25.73 -17.354,-46.94" style="fill:#232728;fill-rule:nonzero;"/><path d="M541.525,409.816c0,0 -7.947,-6.303 0,-9.971c0,0 -9.781,-10.856 0,-15.515c9.782,-4.66 13.45,8.178 13.45,8.178c0,0 2.446,-5.502 8.559,-1.833c6.114,3.668 3.668,11.88 0,14.499c0,0 7.448,4.665 3.725,10.978c-3.725,6.314 -11.061,0 -11.061,0c-2.445,7.536 -18.952,3.635 -14.673,-6.336" style="fill:#ececec;fill-rule:nonzero;"/><path d="M434.692,137.347c0,0 8.275,1.767 11.787,3.983c0,0 -19.627,56.893 -21.073,94.149c0,0 -18.689,-4.061 -34.736,-6.233c-0.113,-0.812 -0.293,-1.274 -1.19,-1.385c-7.196,-0.889 -15.114,-0.277 -18.616,0.348c0,0 14.325,-68.825 28.792,-86.879c0,0 3.851,-0.543 7.88,-1.747c4.029,-1.203 27.156,-2.236 27.156,-2.236" style="fill:#464b4c;fill-rule:nonzero;"/><path d="M409.958,138.72c0,0 -8.837,7.587 -15.597,7.239c0,0 2.535,7.296 7.907,11.841c0,0 -11.322,5.165 -12.788,6.197l0,46.442c0,0 6.792,-22.613 7.348,-27.623c0.556,-5.009 11.564,-39.059 13.13,-44.096" style="fill:#676b6b;fill-rule:nonzero;"/><path d="M431.604,118.961c0,0 -3.926,19.626 -4.545,21.279c-12.269,12.395 -13.91,5.795 -13.25,0c-1.005,-1.24 3.333,-15.495 3.333,-20.247c6.405,-1.032 14.462,-1.032 14.462,-1.032" style="fill:#ffdcb8;fill-rule:nonzero;"/><path d="M389.465,211.851c0.201,-0.353 -1.786,9.352 -1.94,12.992c0,0 0.289,-10.088 1.94,-12.992" style="fill:#232728;fill-rule:nonzero;"/><path d="M387.209,213.108c-0.1,0.618 -0.552,1.059 -1.011,0.986c-0.458,-0.074 -0.749,-0.635 -0.649,-1.253c0.099,-0.618 0.551,-1.059 1.009,-0.985c0.459,0.074 0.75,0.634 0.651,1.252" style="fill:#232728;fill-rule:nonzero;"/><path d="M386.359,219.986c-0.1,0.618 -0.551,1.059 -1.01,0.986c-0.458,-0.075 -0.749,-0.635 -0.65,-1.253c0.099,-0.618 0.552,-1.059 1.01,-0.985c0.459,0.074 0.75,0.634 0.65,1.252" style="fill:#232728;fill-rule:nonzero;"/><path d="M436.514,138.72c0,0 -0.779,11.849 3.973,17.84c0,0 -16.376,5.675 -23.313,6.818c0,0 7.406,6.198 14.43,10.536c0,0 -37.993,20.204 -42.125,36.525c0,0 4.28,-20.039 6.892,-26.651c2.611,-6.61 35.447,-41.292 40.143,-45.068" style="fill:#676b6b;fill-rule:nonzero;"/><path d="M421.345,140.37c-0.629,0.462 -1.433,1.147 -2.267,1.905l-0.659,-2.035l-2.028,4.201c-0.448,0.463 -0.661,1.149 -1.006,1.547l-0.595,-5.232l-0.905,0.977c-0.075,-0.376 -0.151,-0.698 -0.227,-0.924c-3.14,0.266 -4.504,0.521 -4.504,0.521c-3.856,8.527 -12.784,42.459 -12.784,42.459c6.479,-12.396 38.322,-43.549 38.322,-43.549c-5.391,-0.06 -9.801,0.006 -13.347,0.13" style="fill:#e5e5e5;fill-rule:nonzero;"/><path d="M430.571,132.802c0,0 -10.495,6.596 -12.152,7.437c0,0 1.609,6.818 2.232,8.471c0,0 15.292,-8.471 16.738,-10.743l-6.818,-5.165Z" style="fill:#fff;fill-rule:nonzero;"/><path d="M414.368,134.804c0,0 -0.56,3.036 0.422,5.952c0,0 -2.605,5.888 -4.052,6.921c0,0 -1.86,-6.162 -2.067,-8.435l5.697,-4.438Z" style="fill:#fff;fill-rule:nonzero;"/><path d="M419.998,147.273c0,0 -8.038,-1.092 -8.267,-0.737c-0.23,0.356 1.111,7.89 1.111,7.89c0,0 2.808,1.796 3.167,1.144c0.36,-0.653 3.989,-8.297 3.989,-8.297" style="fill:#141414;fill-rule:nonzero;"/><path d="M412.838,154.307c0,0 -4.916,12.643 -23.313,20.227c-10.648,4.389 -28.576,22.932 -24.857,39.459c0,0 8.47,9.916 10.95,10.123c0,0 7.437,-7.644 9.09,-10.123c0,0 -7.347,-22.05 10.222,-32.848c20.601,-12.662 20.967,-25.433 20.967,-25.433l-3.059,-1.405Z" style="fill:#141414;fill-rule:nonzero;"/><path d="M418.419,140.24c0,0 -2.59,4.818 -3.041,5.682c0,0 -0.384,-4.117 -0.588,-5.166c0,0 0.206,5.022 0.441,6.018c0,0 1.619,-2.814 3.188,-6.534" style="fill:#a0a3a3;fill-rule:nonzero;"/><path d="M378.048,226.935c-0.387,0.051 8.726,-0.421 10.216,-0.192l0.774,0.918c0,0 14.875,2.53 21.338,4.729c0,0 -12.3,-3.46 -21.546,-3.725l-0.918,-1.183c0,0 -7.424,-0.864 -9.864,-0.547" style="fill:#232728;fill-rule:nonzero;"/><path d="M437.37,137.991c0,0 43.733,5.151 45.826,36.188c2.81,41.673 -64.777,33.188 -64.777,33.188c0,0 7.195,-12.608 3.36,-17.015c0,0 46.665,13.555 49.353,-12.99c1.653,-16.326 -21.331,-23.565 -27.561,-24.727c-6.231,-1.162 -7.1,-11.395 -6.201,-14.644" style="fill:#464b4c;fill-rule:nonzero;"/><path d="M413.809,212.975c-1.286,5.751 0,8.005 0,8.005c1.746,1.179 27.847,-4.014 44.382,-10.236c2.773,-1.044 5.969,-5.073 7.908,-6.138c0,0 3.891,0.524 4.356,3.471c0.165,1.049 0.008,2.146 -2.403,4.359c0,0 -41.676,12.857 -60.13,14.407c-2.927,0.245 -5.599,-1.37 -7.235,-2c-1.072,-1.988 0.094,-13.944 0.094,-13.944c0,0 9.678,0.478 13.028,2.076" style="fill:#c9f2ff;fill-rule:nonzero;"/><path d="M410.118,178.507c0,0 -4.953,27.499 -5.713,29.943c-0.76,2.444 5.977,3.546 8.118,2.857c2.14,-0.689 9.664,-27.141 10.034,-29.4c0,0 -5.965,-3.834 -12.439,-3.4" style="fill:#0c0c0c;fill-rule:nonzero;"/><path d="M401.739,205.66c0,0 12.925,2.755 14.577,4.407c0,0 -0.883,5.208 -2.507,6.736c-1.625,1.529 -12.987,-3.43 -13.917,-4.256c-0.93,-0.827 0.004,-4.079 1.847,-6.887" style="fill:#2d2d2d;fill-rule:nonzero;"/><path d="M425.298,191.585c0,0 -1.149,-3.025 -3.324,-7.289c-1.116,3.483 -2.11,5.393 -2.11,5.393c0,0 -11.302,-6.087 -12.741,-3.922c-1.439,2.165 -0.564,6.065 -0.564,6.065c0,0 -3.418,0.312 -3.398,3.025c0.019,2.713 0.316,4.045 0.316,4.045c0,0 -2.705,2.125 0.105,3.952c2.81,1.825 12.225,5.628 14.837,4.513c2.612,-1.115 7.184,-9.64 6.879,-15.782" style="fill:#ffdcb8;fill-rule:nonzero;"/></svg>