<svg viewBox="0 0 600 600" xmlns="http://www.w3.org/2000/svg" fill-rule="evenodd" clip-rule="evenodd" stroke-linejoin="round" stroke-miterlimit="1.414"><clipPath id="a"><path d="M0 0h600v599.867H0z"/></clipPath><g clip-path="url(#a)" fill-rule="nonzero"><path d="M465.867 161.118s0-12.54 13-12.35c0 0 .48-16.535 18.49-16.173 18.01.363 21.51 10.155 22.51 14.26 0 0 10-23.81 41-18.613 31 5.195 25 26.528 25 26.528s25 5.63 8.5 9.158c-16.5 3.53-39 0-39 0s-26.398 12.618-42.45 5.074c0 0-34.05 5.145-40.55-1.37 0 0-24.5 5.175-28.5 0s15-6.854 22-6.514M215.907 98.123s0-12.54 13-12.35c0 0 .48-16.535 18.49-16.173 18.01.363 21.51 10.155 22.51 14.26 0 0 10-23.81 41-18.613 31 5.195 25 26.528 25 26.528s25 5.63 8.5 9.158c-16.5 3.53-39 0-39 0s-26.398 12.618-42.45 5.074c0 0-34.05 5.145-40.55-1.37 0 0-24.5 5.175-28.5 0s15-6.854 22-6.514" fill="#bdeef3"/><path d="M327.783 616.545C335.51 646.92-3.1 628.92-3.1 628.92L-17.724-34.8l249.738 21.375s28.866 209.07 35.998 280.5c0 0 17.266 12.572 21.374 24.832" fill="#259999"/><path d="M223.343-13.007s32.634 208.364 34.75 280.502c0 0 16.16 18.828 20.63 24.83 11.54 15.498 29.607 294.263 37.065 324.637 7.457 30.373-319.395 12.374-319.395 12.374L-17.724-34.38l241.067 21.373z" fill="#84b9c1"/><path d="M280.355 295.67s-8.855-18.673-41.855-37.743c0 0 35.723 3.247 41.855 37.742M125.47 584.89s8.64-16.8 48.81-16.62c40.17.18 50.347 26.012 50.347 26.012s-27.668-33.66-99.156-9.393M46.154 487.825s9.43-14.442 43.854-16.223c34.424-1.78 44.973 16.223 44.973 16.223s-37.163-21.135-88.826 0M60.244 343.233S75.31 323.79 98.857 323.02c23.55-.767 31.054 16.466 31.054 16.466s-22.7-23.43-69.666 3.747M159.087 237.4s35.794-26.55 65.54 0c0 0-22.274-13.243-65.54 0M-40.68 186.933s18.75-20.59 57.75-21.704c39-1.113 53.43 21.703 53.43 21.703s-47.43-31.934-111.18 0M132.622 47.14s6.945-7.63 21.393-8.04c14.447-.412 19.793 8.04 19.793 8.04s-17.57-11.83-41.186 0" fill="#259999"/><path d="M-16.7 510.518s19.57-21.49 60.274-22.652c40.704-1.16 55.765 22.652 55.765 22.652s-49.504-33.33-116.04 0" fill="#259999"/><path d="M294.725 570.42v-.014.013M294.823 571.04h.003a7.234 7.234 0 0 1-.09-.525c.024.175.052.352.087.526M295.467 572.846l-.013-.025.013.026M295.406 572.726l-.05-.1a1.9 1.9 0 0 0 .05.1M295.004 571.736c.096.3.21.59.343.87a6.652 6.652 0 0 1-.34-.87h-.003z" fill="#236a6d"/></g></svg>