<?xml version="1.0" standalone="no"?><!DOCTYPE svg PUBLIC "-//W3C//DTD SVG 1.1//EN" "http://www.w3.org/Graphics/SVG/1.1/DTD/svg11.dtd"><svg width="100%" height="100%" viewBox="0 0 600 600" version="1.1" xmlns="http://www.w3.org/2000/svg" xmlns:xlink="http://www.w3.org/1999/xlink" xml:space="preserve" style="fill-rule:evenodd;clip-rule:evenodd;stroke-linejoin:round;stroke-miterlimit:1.41421;"><clipPath id="_clip1"><rect x="0" y="0" width="600" height="599.867"/></clipPath><g clip-path="url(#_clip1)"><path d="M465.867,161.118c0,0 0,-12.54 13,-12.35c0,0 0.479,-16.535 18.49,-16.173c18.01,0.363 21.51,10.155 22.51,14.259c0,0 10,-23.808 41,-18.612c31,5.195 25,26.528 25,26.528c0,0 25,5.629 8.5,9.158c-16.5,3.53 -39,0 -39,0c0,0 -26.398,12.618 -42.449,5.074c0,0 -34.051,5.145 -40.551,-1.37c0,0 -24.5,5.175 -28.5,0c-4,-5.175 15,-6.854 22,-6.514" style="fill:#bdeef3;fill-rule:nonzero;"/><path d="M215.907,98.123c0,0 0,-12.54 13,-12.35c0,0 0.479,-16.535 18.49,-16.173c18.01,0.363 21.51,10.155 22.51,14.259c0,0 10,-23.808 41,-18.612c31,5.195 25,26.528 25,26.528c0,0 25,5.629 8.5,9.158c-16.5,3.53 -39,0 -39,0c0,0 -26.398,12.618 -42.449,5.074c0,0 -34.051,5.145 -40.551,-1.37c0,0 -24.5,5.175 -28.5,0c-4,-5.175 15,-6.854 22,-6.514" style="fill:#bdeef3;fill-rule:nonzero;"/><path d="M327.783,616.545c7.726,30.374 -330.883,12.374 -330.883,12.374l-14.624,-663.717l249.738,21.375c0,0 28.866,209.07 35.998,280.501c0,0 17.266,12.571 21.374,24.831" style="fill:#259999;fill-rule:nonzero;"/><path d="M223.343,-13.007c0,0 32.634,208.364 34.749,280.502c0,0 16.161,18.828 20.631,24.831c11.541,15.497 29.607,294.262 37.065,324.636c7.457,30.373 -319.395,12.374 -319.395,12.374l-14.117,-663.717l241.067,21.374Z" style="fill:#84b9c1;fill-rule:nonzero;"/><path d="M280.355,295.669c0,0 -8.855,-18.672 -41.855,-37.742c0,0 35.723,3.247 41.855,37.742" style="fill:#259999;fill-rule:nonzero;"/><path d="M125.471,584.889c0,0 8.64,-16.799 48.81,-16.619c40.17,0.18 50.346,26.012 50.346,26.012c0,0 -27.668,-33.659 -99.156,-9.393" style="fill:#259999;fill-rule:nonzero;"/><path d="M46.154,487.825c0,0 9.43,-14.442 43.854,-16.223c34.424,-1.781 44.973,16.223 44.973,16.223c0,0 -37.164,-21.135 -88.827,0" style="fill:#259999;fill-rule:nonzero;"/><path d="M60.244,343.233c0,0 15.065,-19.443 38.613,-20.212c23.549,-0.768 31.054,16.465 31.054,16.465c0,0 -22.7,-23.43 -69.667,3.747" style="fill:#259999;fill-rule:nonzero;"/><path d="M159.087,237.401c0,0 35.794,-26.552 65.539,0c0,0 -22.273,-13.244 -65.539,0" style="fill:#259999;fill-rule:nonzero;"/><path d="M-40.68,186.933c0,0 18.75,-20.591 57.75,-21.704c39,-1.112 53.43,21.704 53.43,21.704c0,0 -47.43,-31.934 -111.18,0" style="fill:#259999;fill-rule:nonzero;"/><path d="M132.622,47.139c0,0 6.945,-7.628 21.393,-8.04c14.447,-0.411 19.793,8.04 19.793,8.04c0,0 -17.57,-11.829 -41.186,0" style="fill:#259999;fill-rule:nonzero;"/><path d="M-16.699,510.518c0,0 19.569,-21.491 60.273,-22.652c40.704,-1.16 55.765,22.652 55.765,22.652c0,0 -49.503,-33.33 -116.038,0" style="fill:#259999;fill-rule:nonzero;"/><path d="M294.725,570.419c-0.001,-0.003 -0.001,-0.007 -0.001,-0.013c0,0.006 0,0.01 0.001,0.013" style="fill:#236a6d;fill-rule:nonzero;"/><path d="M294.823,571.041l0.003,0c-0.038,-0.177 -0.066,-0.353 -0.09,-0.526c0.024,0.175 0.052,0.352 0.087,0.526" style="fill:#236a6d;fill-rule:nonzero;"/><path d="M295.467,572.846c-0.004,-0.007 -0.008,-0.016 -0.013,-0.025c0.005,0.009 0.009,0.018 0.013,0.025" style="fill:#236a6d;fill-rule:nonzero;"/><path d="M295.406,572.726c-0.017,-0.033 -0.033,-0.068 -0.049,-0.101c0.016,0.036 0.032,0.068 0.049,0.101" style="fill:#236a6d;fill-rule:nonzero;"/><path d="M295.004,571.736c0.096,0.3 0.21,0.591 0.343,0.869c-0.135,-0.284 -0.248,-0.575 -0.34,-0.869l-0.003,0Z" style="fill:#236a6d;fill-rule:nonzero;"/></g></svg>