<svg viewBox="0 0 600 600" xmlns="http://www.w3.org/2000/svg" fill-rule="evenodd" clip-rule="evenodd" stroke-linejoin="round" stroke-miterlimit="1.414"><path d="M350.38 191.113s-2.588 5.307-3.264 12.295c0 0 .33 2.554 6.66 4.694 7.223.97 20.742.152 20.742.152v-3.114s-12.193-.073-15.136-2.214c-.48-1.443 0-3.877 1.184-6.07l-10.187-5.743z" fill="#c9f2ff" fill-rule="nonzero"/><path d="M354.927 189.22s5.825-17.935 6.187-19.863c0 0 5.855-.74 9.98 3.104 0 0-8.547 17.14-10.39 19.55 0 0-2.686-1.93-5.777-2.79" fill="#0c0c0c" fill-rule="nonzero"/><path d="M349.053 192.29s1.102-4.08 3.72-5.315c.763-.36 9.48 4.582 10.662 6.373 0 0-2.092 5.344-2.952 5.556 0 0-10.88-5.195-11.43-6.615" fill="#2d2d2d" fill-rule="nonzero"/><path d="M411.214 212.57s-6.402 12.46-6.89 13.242c-.49.783 7.622 0 7.622 0s-3.06 12.51-3.44 14.857c0 0 5.212-3.52 8.267-4.693 0 0 6.95 25.467 10.08 30.55 0 0 17.808-31.506 17.005-33.852 0 0 3.764 1.347 5.328 1.738 1.564.39-5.083-12.902-5.083-12.902s6.647.39 8.992 0l-6.548-11.29s-28.736 1.224-35.333 2.348" fill="#ffea80" fill-rule="nonzero"/><path d="M443.3 132.36c-3.708-6.207-9.036-8.336-17.024-7.22-5.562.78-9.36 5.057-11.908 11.24 7.437 1.398 18.105 1.65 28.93-4.02" fill="#b2490d" fill-rule="nonzero"/><path d="M443.3 132.36c-10.827 5.67-21.495 5.418-28.932 4.02-8.955 21.735-2.427 67.057-2.427 67.057 28.713 4.176 41.067-4.176 41.067-4.176-1.918-35.68-3.644-56.75-9.707-66.9" fill="#c0bab3" fill-rule="nonzero"/><path d="M411.94 200.653l-1.565 2.118s.61 9.368.696 10.238c0 0 30.627 6.612 45.07-4.176 0 0-.575-9.27-1.915-10.265l-1.34-.995s-16.408 6.737-40.943 3.083" fill="#52858b" fill-rule="nonzero"/><path d="M410.17 191.1s17.923 3.516 42.85-2.98l-.014-7.457s-14.565 4.673-42.837 2.817v7.62z" fill="#c95e15" fill-rule="nonzero"/><path d="M464.625 350.888c-13.775-2.826-22.964-18.933-11.62-26.646 0 0-23.106-3.74-12.517-26.326 0 0-15.176-7.934-3.1-19.754 0 0-16.605-21.153.595-32.722 0 0 6.528-9.986 19.023 14.255 0 0 42.208-18.742 19.657 31.952 12.12-4.958 13.773 9.917 6.61 14.325 19.283 2.754 21.742 27.545 4.26 36.635 5.657 3.58 6.875 21.208-5.085 20.657 0 0 27.27 4.96 16.857 27.272 21.156-10.743 28.593 9.09 23.635 19.833 0 0 37.186 17.352-3.305 43.795 28.923 14.875 23.138 62.805-17.355 60.326 23.965 12.396 6.612 41.32-14.048 27.27 5.785 10.744-9.202 29.75-27.326 28.924-18.124-.827-25.082-21.486-26.56-29.75-9.744 11.57-20.443-4.958-14.68-12.395-15.723 5.783-26.214-21.487-8.986-30.577-27.396 2.48-42-42.97 1.662-51.235-15.01-14.05-6.163-43.252 22.882-36.914-6.49-9.363 9.663-13.362 15.626-11.71 0 0-12.808-17.67 8.765-25.114 0 0-9.69-18.643 5.01-22.104" fill="#ececec" fill-rule="nonzero"/><path d="M436.95 226.778s-9.02 17.56-9.71 18.662c-.69 1.102 10.743 0 10.743 0s-4.314 17.63-4.85 20.935c0 0 7.346-4.96 11.65-6.612 0 0 16.476 37.462 20.883 44.625 0 0 18.416-45.97 17.284-49.276 0 0 5.304 1.897 7.507 2.448 2.204.55-7.16-18.18-7.16-18.18s9.364.55 12.67 0l-9.228-15.908s-40.494 1.722-49.79 3.306" fill="#f0d61d" fill-rule="nonzero"/><path d="M445.096 226.21s-6.038 11.756-6.5 12.493c-.46.738 7.192 0 7.192 0s-2.89 11.8-3.247 14.013c0 0 4.92-3.318 7.8-4.425 0 0 11.03 25.08 13.98 29.87 0 0 12.326-30.77 11.57-32.982 0 0 3.55 1.27 5.023 1.64 1.476.368-4.794-12.17-4.794-12.17s6.27.37 8.48 0L478.424 224s-27.104 1.15-33.327 2.21" fill="#ffeb80" fill-rule="nonzero"/><path d="M473.51 131.026c-12.852 6.732-25.518 6.433-34.348 4.773-10.632 25.804-2.882 79.614-2.882 79.614 34.09 4.958 48.756-4.958 48.756-4.958-2.277-42.363-4.326-67.38-11.525-79.43" fill="#c9f2ff" fill-rule="nonzero"/><path d="M436.28 212.11l-1.858 2.514s.723 11.12.826 12.153c0 0 36.36 7.85 53.507-4.958 0 0-.68-11.01-2.272-12.19l-1.592-1.18s-19.48 7.997-48.61 3.66" fill="#71a3ac" fill-rule="nonzero"/><path d="M434.177 200.77s21.28 4.172 50.876-3.54l-.017-8.855s-17.292 5.55-50.86 3.345v9.05z" fill="#c95e15" fill-rule="nonzero"/><path d="M459.615 126.642s10.826-.476 15.195 14.688c4.356 15.117 6.42 51.99 7.107 64.962l-4.512 1.276s-.76-79.78-17.79-80.926" fill="#fff" fill-rule="nonzero"/><path d="M473.51 131.026c-4.4-7.37-15.08-9.886-20.21-8.57-6.46 1.655-11.113 6.002-14.138 13.343 8.83 1.66 21.496 1.957 34.35-4.775" fill="#c95e15" fill-rule="nonzero"/><path d="M398.99 141.23c4.357-1.012 15.72 7.967 8.074 41.19-6.22 27.026-46.247 6.787-46.247 6.787s7.084-7.57 4.72-11.98c0 0 19.693 20.344 32.438 5.438 2.194-2.566 4.33-16.095 1.552-25.186-3.07-10.05-5.66-15.06-.536-16.25" fill="#464b4c" fill-rule="nonzero"/><path d="M360.817 188.57s.08.052.227.126c1.027.516 5.296 2.057 7.91-6.276 0 0-10.45-.523-8.137 6.15" fill="#eabe96" fill-rule="nonzero"/><path d="M371.796 175.69c-1.647-.553-3.382-.59-5.448 4.31-2.066 4.9-.584 5.24 1.88 3.89 2.465-1.352 5.746-7.466 3.568-8.2" fill="#eabe96" fill-rule="nonzero"/><path d="M363.003 173.304c-4.765-1.43-10.437 1.012-1.4 5.672 9.037 4.66 12.31-2.4 1.4-5.672" fill="#ffdcb8" fill-rule="nonzero"/><path d="M360.633 177.826c-2.802-.84-5.532-1.28-6.4 1.012-.647 1.715.805 2.786 4.936 4.918 4.4 2.27 7.204 2.33 8.39.468 1.025-1.614-.84-4.57-6.928-6.398" fill="#ffdcb8" fill-rule="nonzero"/><path d="M358.914 182.997c-3.895-1.168-8.53.827-1.145 4.636 3.64 1.877 6.35 1.333 6.952.11 1.107-2.245-1.287-3.39-5.81-4.746" fill="#ffdcb8" fill-rule="nonzero"/><path d="M454.69 108.63s1.602 5.166 0 6.405c-1.6 1.24-5.732-2.213-6.56-3.585 0 0 1.035 3.907-.825 3.85-1.86-.058-4.958-6.67-4.958-6.67s4.028-7.023 12.344 0" fill="#725c2b" fill-rule="nonzero"/><path d="M403.507 55.537s-10.743 28.51-14.048 36.773c-3.307 8.264-5.373 23.552 7.023 27.27 12.395 3.72 34.575 4.958 42.144-3.305 7.57-8.264 9.09-15.288 9.09-15.288s12.396-29.336 4.132-40.905c-8.265-11.57-42.146-16.94-48.344-4.545" fill="#ffdcb8" fill-rule="nonzero"/><path d="M407.226 70.687s-1.928 3.856-3.305 3.856c-1.376 0-6.885 1.377-2.753 4.407 4.132 3.03 7.988 1.378 7.988 1.378s-7.26-1.348-7.437-3.306c-.177-1.957 2.754-.1 4.132-1.29 1.376-1.19 1.376-5.045 1.376-5.045" fill="#cb8f5e" fill-rule="nonzero"/><path d="M424.23 71.328c-.504 1.676-1.66 2.808-2.586 2.53-.924-.278-1.264-1.86-.76-3.536s1.662-2.808 2.586-2.53c.924.277 1.264 1.86.76 3.536m-19.21-1.378c-.503 1.676-1.66 2.81-2.585 2.53-.924-.277-1.264-1.86-.76-3.536.504-1.675 1.66-2.808 2.585-2.53.924.278 1.265 1.86.76 3.537" fill="#190f08" fill-rule="nonzero"/><path d="M409.154 54.917s5.303 7.23 7.575 7.025c2.27-.207 0-4.34 0-4.34s6.403 5.58 10.95 6.405c4.543.827 0-4.545 0-4.545s3.923 1.532 5.576.044c1.652-1.49-15.357-9.34-24.103-4.59" fill="#725c2b" fill-rule="nonzero"/><path d="M394.417 89.005s-1.417 21.072 9.917 24.378c.14.04.277.062.416.1 3.33-14.22 19.537-16.88 26.618-17.358 1.22-2.033 1.89-3.402 1.89-3.402-16.116-10.743-38.84-3.718-38.84-3.718" fill="#753427" fill-rule="nonzero"/><path d="M404.75 113.482c12.525 3.28 22.6-10.668 26.62-17.358-7.083.48-23.29 3.138-26.62 17.358" fill="#da9089" fill-rule="nonzero"/><path d="M394.93 78.162s2.97-7.29 4.93-12.58a90.52 90.52 0 0 1-2.487-1.438c-1.233 4.19-2.077 8.85-2.443 14.018" fill="#c9f2ff" fill-rule="nonzero"/><path d="M475.03 56.68a30.508 30.508 0 0 0-4.587-7.754c-17.507-21.604-61.79-23.134-73.07 15.218a89 89 0 0 0 2.487 1.44c.75-2.027 1.353-3.76 1.582-4.675 0 0 16.94-11.16 42.145 2.89 0 0 2.604 3.163 3.25 10.14 9.383-2.3 19.03-7.52 28.194-17.26" fill="#fff" fill-rule="nonzero"/><path d="M446.836 73.94c.613 6.623-.54 16.68-7.382 30.766 0 0 14.462 7.85 19.007 6.61 4.08-1.112 26.113-31.16 16.57-54.636-9.162 9.74-18.81 14.962-28.193 17.26" fill="#c9f2ff" fill-rule="nonzero"/><path d="M460.167 81.815a4.094 4.094 0 0 0-.627-.117c2.458 1.173 3.373 5.823 2.03 10.82-1.345 5-4.47 8.563-7.186 8.344.194.085.394.158.602.213 3.44.926 7.39-2.635 8.82-7.954 1.43-5.317-.2-10.38-3.64-11.304" fill="#75a4ac" fill-rule="nonzero"/><path d="M461.57 92.52c1.344-5 .427-9.65-2.03-10.822-3.28-.372-6.85 3.073-8.193 8.072-1.345 4.998.013 9.767 3.037 11.092 2.714.22 5.84-3.345 7.185-8.343" fill="#a0ccd0" fill-rule="nonzero"/><path d="M419.462 62.578s6.77.736 10.627 6.427c0 0-5.004-10.56-10.63-6.427m-9.8-.132s-2.62-1.387-8.218 3.693c0 0 4.065-7.96 8.22-3.695" fill="#493918" fill-rule="nonzero"/><path d="M410.118 350.55s-4.13 12.396-7.437 17.767c-3.304 5.372-1.237 14.048 3.72 14.462 4.96.41 21.49-23.42 23.14-26.446 1.646-3.026-7.83-8.274-7.83-8.274s-8.7.837-11.59 2.49" fill="#382b19" fill-rule="nonzero"/><path d="M426.852 348.06s1.582 9.512 1.995 17.362c.414 7.85-1.003 19.422 4.988 21.49 5.99 2.064 8.387-1.24 8.387-1.24s7.396-27.786 6.653-31.66c-.744-3.875-8.388-9.246-8.388-9.246l-13.635 3.295z" fill="#382b19" fill-rule="nonzero"/><path d="M372.932 224.116s6.61 83.05 34.294 128.087c0 0 11.982 7.024 19.626-6.61 0 0-9.16-19.008-17.697-50.823-8.54-31.815-12.672-61.15-13.29-66.11l-22.933-4.544z" fill="#464b4c" fill-rule="nonzero"/><path d="M376.172 228.225s8.37 15.31 13.308 23.16c4.938 7.85 25.364 89.662 34.983 101.23 0 0 11.106 3.72 24.41-5.783 0 0-24.2-52.698-29.412-112.498 0 0-30.96-11.916-43.287-6.11" fill="#464b4c" fill-rule="nonzero"/><path d="M380.196 235.48s6.962 8.678 10.17 17.702c3.208 9.026 22.274 74.523 29.096 88.584 0 0-15.188-37.688-21.912-59.347-6.726-21.66-6.105-25.73-17.354-46.94" fill="#232728" fill-rule="nonzero"/><path d="M541.525 409.816s-7.947-6.303 0-9.97c0 0-9.78-10.857 0-15.516 9.782-4.66 13.45 8.178 13.45 8.178s2.446-5.502 8.56-1.833c6.113 3.668 3.667 11.88 0 14.5 0 0 7.447 4.664 3.724 10.977-3.727 6.314-11.063 0-11.063 0-2.445 7.536-18.952 3.635-14.673-6.336" fill="#ececec" fill-rule="nonzero"/><path d="M434.692 137.347s8.275 1.767 11.787 3.983c0 0-19.63 56.893-21.075 94.15 0 0-18.69-4.062-34.736-6.234-.114-.812-.294-1.274-1.19-1.385-7.197-.887-15.115-.275-18.617.35 0 0 14.325-68.825 28.792-86.88 0 0 3.85-.542 7.88-1.746 4.03-1.203 27.156-2.236 27.156-2.236" fill="#464b4c" fill-rule="nonzero"/><path d="M409.958 138.72s-8.837 7.587-15.597 7.24c0 0 2.537 7.295 7.91 11.84 0 0-11.323 5.165-12.79 6.197v46.442s6.793-22.615 7.35-27.625c.555-5.01 11.563-39.06 13.13-44.096" fill="#676b6b" fill-rule="nonzero"/><path d="M431.604 118.96s-3.926 19.627-4.545 21.28c-12.27 12.395-13.91 5.795-13.25 0-1.007-1.24 3.33-15.495 3.33-20.247 6.406-1.032 14.463-1.032 14.463-1.032" fill="#ffdcb8" fill-rule="nonzero"/><path d="M389.465 211.85c.2-.352-1.786 9.353-1.94 12.993 0 0 .29-10.088 1.94-12.992m-2.255 1.258c-.1.618-.553 1.06-1.012.986-.458-.074-.75-.635-.65-1.253.1-.616.552-1.057 1.01-.983.46.074.75.634.65 1.252m-.848 6.876c-.1.618-.552 1.06-1.01.986-.46-.075-.75-.635-.65-1.253.098-.62.55-1.06 1.01-.987.458.074.75.634.65 1.252" fill="#232728" fill-rule="nonzero"/><path d="M436.514 138.72s-.78 11.85 3.973 17.84c0 0-16.376 5.675-23.313 6.818 0 0 7.406 6.198 14.43 10.536 0 0-37.993 20.204-42.125 36.525 0 0 4.28-20.04 6.89-26.653 2.61-6.61 35.447-41.292 40.143-45.068" fill="#676b6b" fill-rule="nonzero"/><path d="M421.345 140.37c-.63.462-1.433 1.147-2.267 1.905l-.66-2.035-2.027 4.2c-.446.464-.66 1.15-1.004 1.548l-.595-5.232-.904.977a8.11 8.11 0 0 0-.227-.924c-3.14.264-4.505.52-4.505.52-3.856 8.526-12.784 42.46-12.784 42.46 6.48-12.398 38.323-43.55 38.323-43.55-5.39-.06-9.8.005-13.347.13" fill="#e5e5e5" fill-rule="nonzero"/><path d="M430.57 132.802s-10.494 6.596-12.15 7.437c0 0 1.608 6.816 2.23 8.47 0 0 15.293-8.47 16.74-10.744l-6.82-5.165zm-16.202 2.002s-.56 3.036.422 5.952c0 0-2.605 5.888-4.052 6.92 0 0-1.86-6.16-2.067-8.434l5.7-4.438z" fill="#fff" fill-rule="nonzero"/><path d="M419.998 147.273s-8.038-1.092-8.267-.737c-.23.356 1.113 7.89 1.113 7.89s2.808 1.796 3.167 1.144c.36-.653 3.988-8.297 3.988-8.297" fill="#141414" fill-rule="nonzero"/><path d="M412.838 154.307s-4.916 12.643-23.313 20.227c-10.648 4.39-28.576 22.932-24.857 39.46 0 0 8.47 9.915 10.95 10.122 0 0 7.437-7.644 9.09-10.123 0 0-7.347-22.05 10.222-32.848 20.6-12.662 20.967-25.433 20.967-25.433l-3.06-1.405z" fill="#141414" fill-rule="nonzero"/><path d="M418.42 140.24s-2.59 4.818-3.042 5.682c0 0-.384-4.117-.588-5.166 0 0 .206 5.022.44 6.018 0 0 1.62-2.814 3.19-6.534" fill="#a0a3a3" fill-rule="nonzero"/><path d="M378.048 226.935c-.387.05 8.726-.42 10.216-.192l.774.918s14.875 2.53 21.338 4.73c0 0-12.3-3.46-21.546-3.724l-.918-1.183s-7.424-.864-9.864-.547" fill="#232728" fill-rule="nonzero"/><path d="M437.37 137.99s43.733 5.152 45.826 36.19c2.81 41.672-64.777 33.187-64.777 33.187s7.193-12.608 3.36-17.015c0 0 46.663 13.555 49.35-12.99 1.654-16.326-21.33-23.565-27.56-24.727-6.23-1.162-7.1-11.395-6.2-14.644" fill="#464b4c" fill-rule="nonzero"/><path d="M413.81 212.975c-1.287 5.75 0 8.005 0 8.005 1.745 1.18 27.846-4.014 44.38-10.236 2.774-1.044 5.97-5.073 7.91-6.138 0 0 3.89.524 4.355 3.47.165 1.05.008 2.147-2.403 4.36 0 0-41.676 12.857-60.13 14.407-2.927.245-5.6-1.37-7.235-2-1.072-1.988.094-13.944.094-13.944s9.68.476 13.03 2.074" fill="#c9f2ff" fill-rule="nonzero"/><path d="M410.118 178.507s-4.953 27.5-5.713 29.943c-.76 2.444 5.977 3.546 8.118 2.857 2.14-.69 9.664-27.14 10.034-29.4 0 0-5.965-3.834-12.44-3.4" fill="#0c0c0c" fill-rule="nonzero"/><path d="M401.74 205.66s12.924 2.755 14.576 4.407c0 0-.883 5.208-2.507 6.736-1.627 1.53-12.99-3.43-13.92-4.256-.93-.827.005-4.08 1.848-6.887" fill="#2d2d2d" fill-rule="nonzero"/><path d="M425.298 191.585s-1.15-3.025-3.324-7.29c-1.116 3.484-2.11 5.394-2.11 5.394s-11.302-6.09-12.74-3.924c-1.44 2.165-.565 6.065-.565 6.065s-3.42.313-3.4 3.026c.02 2.713.316 4.045.316 4.045s-2.705 2.126.105 3.953c2.81 1.825 12.226 5.628 14.838 4.513 2.61-1.115 7.183-9.64 6.878-15.782" fill="#ffdcb8" fill-rule="nonzero"/></svg>