<?xml version="1.0" standalone="no"?><!DOCTYPE svg PUBLIC "-//W3C//DTD SVG 1.1//EN" "http://www.w3.org/Graphics/SVG/1.1/DTD/svg11.dtd"><svg width="100%" height="100%" viewBox="0 0 688 600" version="1.1" xmlns="http://www.w3.org/2000/svg" xmlns:xlink="http://www.w3.org/1999/xlink" xml:space="preserve" style="fill-rule:evenodd;clip-rule:evenodd;stroke-linejoin:round;stroke-miterlimit:1.41421;"><clipPath id="_clip1"><rect x="0" y="0" width="687.865" height="599.867"/></clipPath><g clip-path="url(#_clip1)"><path d="M534.09,165.127c0,0 0,-12.54 14.903,-12.35c0,0 0.549,-16.534 21.197,-16.172c20.648,0.362 24.661,10.154 25.807,14.258c0,0 11.464,-23.808 47.005,-18.612c35.539,5.195 28.661,26.528 28.661,26.528c0,0 28.66,5.629 9.744,9.159c-18.916,3.529 -44.711,0 -44.711,0c0,0 -30.264,12.618 -48.665,5.073c0,0 -39.038,5.145 -46.489,-1.369c0,0 -28.088,5.175 -32.674,0c-4.586,-5.175 17.197,-6.854 25.222,-6.515" style="fill:#bdeef3;fill-rule:nonzero;"/><path d="M247.525,98.123c0,0 0,-12.54 14.903,-12.35c0,0 0.55,-16.535 21.198,-16.173c20.648,0.363 24.661,10.155 25.807,14.259c0,0 11.464,-23.808 47.004,-18.612c35.54,5.195 28.661,26.528 28.661,26.528c0,0 28.661,5.629 9.744,9.158c-18.916,3.53 -44.711,0 -44.711,0c0,0 -30.263,12.618 -48.665,5.074c0,0 -39.038,5.145 -46.489,-1.37c0,0 -28.088,5.175 -32.674,0c-4.586,-5.175 17.197,-6.854 25.222,-6.514" style="fill:#bdeef3;fill-rule:nonzero;"/><path d="M375.784,616.545c8.857,30.374 -379.338,12.374 -379.338,12.374l-16.766,-663.717l286.311,21.375c0,0 33.093,209.07 41.269,280.501c0,0 19.795,12.571 24.504,24.831" style="fill:#259999;fill-rule:nonzero;"/><path d="M256.05,-13.007c0,0 37.412,208.364 39.837,280.502c0,0 18.528,18.828 23.653,24.831c13.23,15.497 33.943,294.262 42.492,324.636c8.549,30.373 -366.168,12.374 -366.168,12.374l-16.183,-663.717l276.369,21.374Z" style="fill:#84b9c1;fill-rule:nonzero;"/><path d="M321.411,295.669c0,0 -10.152,-18.672 -47.984,-37.742c0,0 40.954,3.247 47.984,37.742" style="fill:#259999;fill-rule:nonzero;"/><path d="M143.845,584.889c0,0 9.905,-16.799 55.958,-16.619c46.052,0.18 57.718,26.012 57.718,26.012c0,0 -31.719,-33.659 -113.676,-9.393" style="fill:#259999;fill-rule:nonzero;"/><path d="M52.913,487.825c0,0 10.811,-14.442 50.275,-16.223c39.466,-1.781 51.559,16.223 51.559,16.223c0,0 -42.605,-21.135 -101.834,0" style="fill:#259999;fill-rule:nonzero;"/><path d="M69.066,343.233c0,0 17.271,-19.443 44.268,-20.212c26.997,-0.768 35.601,16.465 35.601,16.465c0,0 -26.024,-23.43 -79.869,3.747" style="fill:#259999;fill-rule:nonzero;"/><path d="M182.384,237.401c0,0 41.035,-26.552 75.137,0c0,0 -25.535,-13.244 -75.137,0" style="fill:#259999;fill-rule:nonzero;"/><path d="M-46.638,186.933c0,0 21.496,-20.591 66.207,-21.704c44.712,-1.112 61.255,21.704 61.255,21.704c0,0 -54.376,-31.934 -127.462,0" style="fill:#259999;fill-rule:nonzero;"/><path d="M152.043,47.139c0,0 7.963,-7.628 24.526,-8.04c16.563,-0.411 22.691,8.04 22.691,8.04c0,0 -20.143,-11.829 -47.217,0" style="fill:#259999;fill-rule:nonzero;"/><path d="M-19.145,510.518c0,0 22.435,-21.491 69.1,-22.652c46.665,-1.16 63.931,22.652 63.931,22.652c0,0 -56.752,-33.33 -133.031,0" style="fill:#259999;fill-rule:nonzero;"/></g></svg>