<svg viewBox="0 0 91 23" xmlns="http://www.w3.org/2000/svg" fill-rule="evenodd" clip-rule="evenodd" stroke-linejoin="round" stroke-miterlimit="1.414"><path d="M60.938 14.048l-10.333-.493c-.4-.02-.452-.35-.117-.735l2.437-2.796c.336-.384.936-.683 1.336-.663l10.335.494c.4.02.45.35.117.734l-2.44 2.796c-.334.385-.934.683-1.334.664" fill="#ce4f44"/><path d="M58.483 14.77l-14.3-.684a1.01 1.01 0 0 1-.956-1.053l.192-4.022c.025-.552.5-.983 1.052-.956l14.3.683c.553.027.983.5.957 1.053l-.194 4.023a1.01 1.01 0 0 1-1.053.957" fill="#fff"/><path d="M50.13 18.614L2.304 16.33a2.425 2.425 0 0 1-2.3-2.534l.46-9.667a2.427 2.427 0 0 1 2.533-2.302l47.826 2.286c2.758.13 4.43 3.36 4.386 4.247l-.31 6.445c-.04.886-2.012 3.94-4.77 3.81" fill="#fff"/><path d="M48.327 20.44L3.925 18.318a1.718 1.718 0 0 1-1.63-1.793l.71-14.893A1.718 1.718 0 0 1 4.8.002l44.402 2.122a1.72 1.72 0 0 1 1.63 1.793l-.71 14.893a1.72 1.72 0 0 1-1.795 1.63" fill="#d8817a"/><path d="M47.57 20.404l-42.89-2.05L5.557.04l42.89 2.05-.876 18.316z" fill="#ce4f44"/><path d="M86.328 22.256l-16.486-.787a1.72 1.72 0 0 1-1.63-1.795l.71-14.893a1.72 1.72 0 0 1 1.795-1.63l16.487.788c.94.045 1.674.852 1.63 1.793l-.712 14.894a1.718 1.718 0 0 1-1.794 1.63" fill="#d8817a"/><path d="M72.438 19.795l15.828.756a1.38 1.38 0 0 0 1.443-1.31l.57-11.976a1.38 1.38 0 0 0-1.31-1.442l-15.828-.757a1.382 1.382 0 0 0-1.442 1.31l-.573 11.978a1.382 1.382 0 0 0 1.31 1.442" fill="#ce4f44"/></svg>