<?xml version="1.0" standalone="no"?><!DOCTYPE svg PUBLIC "-//W3C//DTD SVG 1.1//EN" "http://www.w3.org/Graphics/SVG/1.1/DTD/svg11.dtd"><svg width="100%" height="100%" viewBox="0 0 91 23" version="1.1" xmlns="http://www.w3.org/2000/svg" xmlns:xlink="http://www.w3.org/1999/xlink" xml:space="preserve" style="fill-rule:evenodd;clip-rule:evenodd;stroke-linejoin:round;stroke-miterlimit:1.41421;"><path d="M60.938,14.048l-10.333,-0.493c-0.4,-0.02 -0.452,-0.35 -0.117,-0.735l2.437,-2.796c0.336,-0.384 0.936,-0.683 1.336,-0.663l10.334,0.493c0.399,0.019 0.451,0.35 0.117,0.734l-2.439,2.796c-0.335,0.385 -0.935,0.683 -1.335,0.664" style="fill:#ce4f44;"/><path d="M58.483,14.77l-14.299,-0.684c-0.553,-0.026 -0.983,-0.501 -0.957,-1.053l0.192,-4.022c0.026,-0.553 0.5,-0.984 1.053,-0.957l14.299,0.683c0.554,0.027 0.984,0.5 0.958,1.053l-0.193,4.023c-0.026,0.552 -0.5,0.983 -1.053,0.957" style="fill:#fff;"/><path d="M50.13,18.614l-47.826,-2.285c-1.33,-0.063 -2.366,-1.203 -2.301,-2.533l0.461,-9.667c0.064,-1.328 1.203,-2.365 2.533,-2.301l47.826,2.286c2.758,0.131 4.429,3.36 4.386,4.247l-0.308,6.444c-0.042,0.886 -2.013,3.941 -4.771,3.809" style="fill:#fff;"/><path d="M48.327,20.44l-44.402,-2.122c-0.942,-0.045 -1.675,-0.852 -1.63,-1.793l0.711,-14.893c0.045,-0.942 0.852,-1.675 1.794,-1.63l44.402,2.122c0.941,0.045 1.675,0.852 1.63,1.793l-0.711,14.893c-0.045,0.942 -0.853,1.675 -1.794,1.63" style="fill:#d8817a;"/><path d="M47.57,20.404l-42.889,-2.049l0.875,-18.317l42.89,2.05l-0.876,18.316Z" style="fill:#ce4f44;"/><path d="M86.328,22.256l-16.486,-0.787c-0.941,-0.045 -1.675,-0.853 -1.63,-1.794l0.711,-14.893c0.045,-0.942 0.853,-1.675 1.794,-1.63l16.487,0.788c0.941,0.045 1.674,0.852 1.629,1.793l-0.711,14.894c-0.045,0.941 -0.852,1.674 -1.794,1.629" style="fill:#d8817a;"/><path d="M72.438,19.795l15.828,0.756c0.758,0.037 1.407,-0.553 1.443,-1.311l0.572,-11.976c0.037,-0.757 -0.553,-1.406 -1.31,-1.442l-15.829,-0.757c-0.757,-0.036 -1.406,0.554 -1.442,1.311l-0.573,11.977c-0.036,0.756 0.553,1.406 1.311,1.442" style="fill:#ce4f44;"/></svg>