<svg viewBox="0 0 800 800" xmlns="http://www.w3.org/2000/svg" fill-rule="evenodd" clip-rule="evenodd" stroke-linejoin="round" stroke-miterlimit="1.414"><g fill-rule="nonzero"><path d="M145.832 148.152c2.047-1.52 4.632-2.24 7.17-2.143 31.038-.005 62.074-.018 93.112.006 5.13-.138 9.823 3.676 11.352 8.473.628 1.672.766 3.465.73 5.24-.013 16.437.012 32.872-.013 49.31.006.502.113.993.22 1.48a139.71 139.71 0 0 1-7.257 4.414c.366-.404.65-.892.603-1.455 0-16.45.004-32.9 0-49.348-.11-2.93-.393-6.17-2.424-8.46-1.884-2.137-4.89-2.674-7.6-2.704-27.376-.005-54.75.007-82.124-.007-2.526-.057-5.124.003-7.51.93a6.087 6.087 0 0 0-3.276 3.224c-1.012 2.284-1.122 4.832-1.17 7.293-.016 15.792.004 31.585-.01 47.38.025 1.136-.17 2.347.347 3.407-.826-.538-1.656-1.067-2.54-1.5-1.818-.914-3.428-2.18-5.202-3.17.084-.304.183-.606.196-.92.01-16.808-.013-33.618.012-50.425-.076-4.244 1.884-8.56 5.382-11.03z" fill="#b5c4c3"/><path d="M327.94 181.243c1.063-.242 2.586-.143 3.085 1.01.45 1.54.352 3.16.36 4.747.01 16.53.006 33.065.004 49.597-.04 1.07-.07 2.202-.52 3.185-.82 1.103-2.356.928-3.494.496-.88-1.006-.894-2.417-.93-3.68.018-17.358-.012-34.717.018-52.075.124-1.166.112-2.855 1.476-3.28zm170.215 3.247c1.127-3.575 6.31-4.49 8.78-1.8 1.514 1.485 1.487 3.74 1.608 5.704.094 4.975-.02 9.955.063 14.934.938-.86 1.78-1.823 2.742-2.657 2.088-1.605 4.493-2.86 7.106-3.34 4.84-.934 10.326.21 13.796 3.89 2.47 2.72 3.475 6.445 3.636 10.046.102 3.67.196 7.34.147 11.013-.12 2.85.112 5.706-.046 8.557-.02 2.444.166 5.056-.996 7.298-1.514 3.06-6.34 3.318-8.427.747-.99-1.47-1.225-3.306-1.217-5.038-.028-5.5-.007-11.002-.014-16.504 0-2.595-.06-5.26-.89-7.745-.71-2.185-2.773-3.778-5.035-4.065-4.338-.854-8.91 2.11-10.074 6.338-.693 2.76-.777 5.635-.75 8.467-.013 4.323.01 8.643-.013 12.963.01 1.122-.16 2.23-.357 3.33-.3.985-.63 2.033-1.425 2.74-1.86 1.554-4.714 1.645-6.745.383-1.85-1.323-2.09-3.82-2.204-5.903-.017-14.234-.005-28.47-.01-42.703.014-1.656-.035-3.315.09-4.968.11-.553.19-1.12.238-1.684zm-152.35-1.68c1.17-.293 2.413.2 3.223 1.056 1.11 1.48.727 3.924-.978 4.79-1.91 1.256-4.775-.474-4.6-2.736-.184-1.497 1.004-2.715 2.356-3.11z" fill="#16a7a8"/><path d="M178.634 186.348c1.276-.14 2.554-.393 3.84-.234 1.49.224 2.995.353 4.443.816 2.805 1.088 5.488 2.697 7.365 5.098 1.655 1.934 2.6 4.362 3.154 6.82.092 1.383.147 2.773.02 4.154-.57 4.386-3.274 8.428-7.073 10.68-1.88 1.22-4.045 1.93-6.233 2.337-1.647.135-3.31.14-4.96.033-4.4-.57-8.6-2.948-11.167-6.596-1.09-1.53-1.813-3.282-2.325-5.08-.498-2.084-.466-4.245-.014-6.333 1.408-6.075 6.83-10.812 12.95-11.697z" fill="#f29225"/><path d="M215.82 186.385c4.968-.98 10.354.48 14.165 3.81 4.05 3.486 5.96 9.256 4.62 14.454-1.25 4.867-5.127 8.852-9.828 10.526-2.493.982-5.202 1.08-7.847.907-5.108-.543-9.977-3.59-12.385-8.18-.98-1.673-1.394-3.582-1.74-5.467-.21-3.63.847-7.348 3.143-10.197a16.13 16.13 0 0 1 9.872-5.856z" fill="#138bcc"/><path d="M596.786 197.682c2.264-1.218 5.64-.797 6.95 1.615.532 1.385.79 2.85 1.002 4.314.33-.527.656-1.06.965-1.602.82-1.528 2.127-2.768 3.57-3.71 2.63-1.61 5.966-1.555 8.807-.555 1.884.66 3.938 1.49 5.012 3.288.686 1.105.642 2.46.34 3.68-.547 1.28-1.59 2.238-2.842 2.81-2.494.45-4.744-1.048-7.19-1.14-1.58-.13-3.324.02-4.547 1.134-2.21 1.768-2.924 4.687-3.293 7.357-1.105 7.004-.207 14.12-.818 21.158-.196 2.824-3.14 4.99-5.902 4.54-2.27-.294-4.316-2.13-4.492-4.475-.24-2.85-.088-5.72-.13-8.58.004-7.992-.007-15.985.004-23.978-.03-2.166.625-4.63 2.564-5.852zm-301.96-.307c3.827-.537 7.813-.45 11.52.72 3.23 1.242 6.343 3.604 7.415 7.023.304.96.764 2.014.298 3-.48 1.524-2.89 1.723-3.675.372-.662-1.142-.85-2.52-1.705-3.56-1.745-2.323-4.66-3.344-7.442-3.708-3.42-.276-7.2.028-9.95 2.293-1.518 1.152-2.14 3.15-1.962 4.998.105.366.187.738.267 1.116 1.183 3.07 4.633 4.16 7.518 4.977 1.738.47 3.485.925 5.254 1.28 3.167.775 6.31 1.74 9.195 3.28 1.85.9 3.41 2.448 4.134 4.39.72 1.583.688 3.357.664 5.058a11.21 11.21 0 0 1-2.662 6.92c-1.484 1.877-3.688 2.962-5.843 3.87-.28.087-.557.178-.83.27-3.957 1.065-8.148 1.205-12.185.552-1.093-.174-2.167-.462-3.174-.928-3.573-1.464-6.422-4.52-7.692-8.158-.356-.935-.262-1.955-.217-2.93.81-1.047 2.2-1.684 3.474-1.078 1.21 1.436 1.497 3.395 2.69 4.844 2.016 2.945 5.63 4.446 9.123 4.51 2.746.105 5.62-.1 8.09-1.423 1.933-1.06 3.653-2.814 4.09-5.04.235-1.495.172-3.106-.58-4.453-.587-1.156-1.74-1.855-2.86-2.412-2.663-1.407-5.638-2.014-8.512-2.834-1.65-.41-3.28-.907-4.924-1.33-.285-.08-.57-.164-.853-.24-2.13-.745-4.333-1.525-6.003-3.106-1.82-1.79-3.095-4.265-2.99-6.867-.085-2.775 1.31-5.312 2.91-7.48 1.73-2.348 4.623-3.494 7.422-3.93zm50.217.095c1.034-.71 2.428-.47 3.395.244.364 1.08.576 2.21.56 3.35-.006 11.937-.003 23.875 0 35.814-.034.866-.224 1.714-.277 2.578-.892 1.546-3.315 1.546-4.307.106a46.49 46.49 0 0 0-.256-1.025c-.2-4.678-.036-9.37-.09-14.055.04-8.454-.086-16.912.066-25.362.2-.595.335-1.292.91-1.65zm117.35.506c4.583-1.22 9.463-1.234 14.095-.253.364.096.727.182 1.105.267 2.047.667 4.052 1.57 5.72 2.96 1.476 1.173 2.907 2.622 3.427 4.49.25 1.304.257 2.797-.567 3.91-1.268 1.775-3.87 2.21-5.775 1.29-1.596-.686-2.78-2.014-3.728-3.427-2.626-3.49-7.81-4.067-11.614-2.352-1.3.523-2.185 1.725-2.474 3.074.104 1.478.86 2.903 2.262 3.517 5.607 2.585 12.008 2.908 17.488 5.817 2.42 1.284 4.77 3.064 5.9 5.64 1.194 2.57.88 5.55.15 8.205-.7 1.966-1.792 3.83-3.397 5.19-1.653 1.448-3.667 2.4-5.725 3.124-.15.036-.452.104-.604.138-.45.138-.896.26-1.337.394-3.627.653-7.35.9-11.014.413-2.45-.243-4.883-.854-7.09-1.95-2.827-1.538-5.388-3.896-6.486-6.99-.483-1.524-.602-3.334.35-4.707 1.225-1.848 4.007-2.51 5.852-1.212 1.735 1.16 2.474 3.214 3.854 4.705 1.72 2.113 4.43 3.115 7.078 3.356 1.563.277 3.174.028 4.684-.41 1.615-.52 3.182-1.65 3.73-3.312.744-2.122-.586-4.527-2.578-5.395-4.552-2.14-9.716-2.425-14.32-4.428-2.796-1.132-5.518-2.844-7.12-5.472-1.363-2.1-1.647-4.737-1.217-7.16.97-4.605 4.927-8.146 9.35-9.416z" fill="#16a7a8"/><path d="M603.736 199.297c.735.743.804 1.828.992 2.798.316-.03.642-.06.975-.088a46.97 46.97 0 0 1-.965 1.604c-.21-1.46-.47-2.927-1.002-4.312z" fill="#b5c4c3"/><path d="M417.612 205.328c-2.463 2.73-3.68 6.375-3.912 10 8.776 0 17.55.013 26.33-.005.044-3.964-1.245-8.075-4.067-10.94-2.358-2.17-5.585-3.4-8.795-3.232-3.607-.19-7.257 1.39-9.556 4.18zm-4.538-2.072c2.607-3.313 6.602-5.362 10.746-5.938 3.836-.532 7.875-.303 11.487 1.182 2.827 1.154 4.913 3.493 6.652 5.924.96 1.45 1.77 3.02 2.223 4.705.673 2.572 1.265 5.226 1.036 7.904-.033.628-.406 1.157-.684 1.7-.978.383-2.005.672-3.064.645-9.324.037-18.647-.018-27.972.026.055 2.278.377 4.55.916 6.764.942 3.23 2.715 6.358 5.574 8.245 4.618 3.067 11.032 2.67 15.518-.45 2.147-1.696 3.33-4.24 4.406-6.68.28-.836 1.096-1.207 1.825-1.574 1.04.118 2.287.506 2.642 1.614.37 2.064-.904 3.91-1.8 5.66-1.945 2.834-4.71 5.176-7.923 6.438-4.448 1.57-9.38 1.525-13.9.28-3.167-1.026-6.064-2.987-7.99-5.726-2.653-3.527-3.965-7.904-4.287-12.267-.36-2.568-.025-5.144.155-7.71.715-3.823 1.883-7.714 4.434-10.74zm-44.454 2.072c-2.678 3.07-4.02 7.136-4.216 11.165-.026 2.738-.18 5.53.535 8.204.882 3.86 3.007 7.676 6.49 9.738l-.42.033c1.652.594 3.183 1.547 4.95 1.832 3.215.495 6.645.176 9.547-1.38 3.747-1.863 6.3-5.652 7.16-9.685.67-2.952.555-5.995.493-8.996-.194-4.38-1.976-8.75-5.308-11.668-2.763-2.318-6.428-3.563-10.028-3.422-3.478-.038-6.922 1.56-9.203 4.178zm25.688-23.93c.954-.275 1.95-.3 2.91-.02.69.808.986 1.827.914 2.882.028 16.984.01 33.97.012 50.954-.028 1.488.126 3.02-.364 4.455-.097.14-.294.42-.39.563-1.27.642-3.324.557-3.79-1.042-.485-1.884-.265-3.867-.443-5.79-1.712 1.774-3.415 3.64-5.624 4.805-2.224 1.268-4.706 1.973-7.23 2.31a32.82 32.82 0 0 1-4.948-.006c-1.68-.24-3.362-.53-4.93-1.198-4.433-1.936-7.762-5.917-9.456-10.39a31.27 31.27 0 0 1-1.547-14.62c.638-4.055 1.944-8.14 4.647-11.312 1.75-1.96 3.813-3.72 6.3-4.66 3.505-1.343 7.373-1.52 11.066-1.018 2.47.267 4.95 1.04 6.94 2.57 1.802 1.326 3.51 2.858 4.747 4.738l.125-1.356c-.025-.55-.033-1.1-.02-1.65-.035-1.93-.02-3.86 0-5.79-.058-3.212-.01-6.425-.028-9.635.14-1.62-.032-3.48 1.108-4.793zm245.228 25.69c-2.06 2.223-2.778 5.307-3.14 8.23 6.45.025 12.902.02 19.354.003.11-4.05-1.85-8.424-5.725-10.1-3.428-1.442-7.916-1-10.49 1.87zm-.248-9.114c5.152-1.334 10.775-1.37 15.782.57 4.38 1.71 7.704 5.44 9.65 9.64 1.305 2.935 1.92 6.308 1.143 9.463-.58 1.366-1.566 2.683-3.042 3.127-2.795.834-5.75.774-8.64.76-5.926.01-11.853-.016-17.776.016.014 2.31.504 4.646 1.578 6.702 1.484 2.608 4.154 4.538 7.118 5.052 3.25.61 6.663-.325 9.338-2.22 1.93-1.242 3.377-3.06 5.183-4.458 1.595-1.056 4.12-1.04 5.377.548 1.213 1.49.585 3.632-.294 5.13-2.085 3.326-5.417 5.833-9.117 7.098-.28.088-.553.18-.82.275-3.506.896-7.182 1.194-10.775.73-4.64-.374-9.356-2.082-12.6-5.53-3.798-3.812-5.62-9.188-5.875-14.484-.278-5.593.898-11.533 4.436-16.014 2.1-2.864 5.156-4.966 8.498-6.116l.84-.29z" fill="#16a7a8"/><path d="M258.403 210.52c1.267-.878 2.613-2.06 4.27-1.856 1.266.072 2.18 1.378 2.11 2.59.156 1.82-1.043 3.367-2.27 4.57-6.317 6.77-14.32 11.736-22.675 15.604-.945.42-1.885.846-2.832 1.254-.186.075-.55.226-.736.3.2 1.04.534 2.047.73 3.09l.1.205c1 4.445 1.845 8.972 1.74 13.545.09 5.643-.958 11.39-3.554 16.436-2.436 4.822-6.282 9.092-11.267 11.332-3.655 1.703-7.8 2.265-11.787 1.73-3.37-.58-6.667-2.275-8.65-5.13-2.136-2.85-2.635-6.568-2.478-10.04.017-6.304-.072-12.613.014-18.913a13.9 13.9 0 0 0 .59-3.294c3.5.192 7.066.762 10.535-.05 1.538-.375 3.124-.59 4.61-1.166 3.135-1.314 5.894-3.477 7.974-6.16 2.057-2.364 3.48-5.42 3.52-8.586.017-.522.017-1.047.022-1.57-.898-.516-1.788-1.33-2.9-1.164-1.023.17-1.96.667-2.84 1.196-1.446.962-2.162 2.602-3.13 3.974-1.865 1.937-4.245 3.607-6.985 3.916-1.286.13-2.598.118-3.862-.16-1.276-.262-2.455-.88-3.753-1.048a2.515 2.515 0 0 0-.127-.126c-1.044-1.036-2.515-1.49-3.576-2.52.007-2.16 1.156-4.374 3.176-5.288 2.793-1.36 5.984-.676 8.968-.723 3.033-.098 6.062.38 9.09.04 9.99-.263 19.852-2.977 28.71-7.57a139.71 139.71 0 0 0 7.258-4.414z" fill="#138bcc"/><path d="M134.825 209.088c.89-.718 2.086-.4 3.083-.134.78.523 1.535 1.08 2.334 1.573 1.774.99 3.384 2.256 5.202 3.17.884.433 1.714.962 2.54 1.5 5.937 2.992 12.278 5.23 18.844 6.343 3.973.8 8.03.918 12.065 1.102 3.03-.273 6.075-.132 9.114-.25 1.943-.025 3.976-.178 5.81.594 1.58.654 2.683 2.014 3.868 3.185.02.95 1.25.818 1.782 1.393 1.6 1.365 3.147 3.018 5.31 3.434.032.03.096.093.126.126l.234.24c.802.634 1.824.865 2.79 1.12 3.018.775 6.443.445 9.04-1.368 2.04-1.2 3.562-3.06 4.936-4.948.99-1.15 2.26-2.367 3.858-2.436.835-.12 1.43.615 1.726 1.296.475 1.913-.382 3.736-.795 5.563-1.76 3.9-4.96 7.102-8.803 8.96-2.457 1.187-5.166 1.636-7.83 2.09-1.475.15-2.962.107-4.442.097-1.463.008-2.863-.475-4.31-.62a19.745 19.745 0 0 1-.23-.193c-.406-.064-.808-.13-1.21-.204a8.16 8.16 0 0 0-2.36-.458c.012 8.607-.01 17.215.004 25.822-.108 2.954-.84 6.007-2.706 8.362-1.76 2.398-4.495 3.937-7.35 4.643-1.802.483-3.68.4-5.53.376-1.614 0-3.146-.554-4.697-.923a42.96 42.96 0 0 0-.804-.28c-6.038-2.26-10.914-7.12-13.57-12.95-.516-1.085-.928-2.208-1.372-3.32-.382-1.296-.664-2.62-1.02-3.922-1.063-5.35-.88-10.872-.065-16.245.458-2.677.96-5.367 1.77-7.964.027-.226.087-.677.114-.905-.42-.178-.843-.35-1.265-.525-9.426-4.082-18.485-9.513-25.456-17.16-.81-1.002-1.748-2.098-1.746-3.46-.08-.99.084-2.16 1.012-2.722z" fill="#f29225"/><path d="M569.857 219.997c-3.61.964-7.37 1.39-10.87 2.75-.79.324-1.574.68-2.26 1.188-1.487 1.11-2.15 3.165-1.662 4.945.538 2.518 2.933 4.408 5.468 4.585 1.664.074 3.38.11 4.976-.463 2.84-.923 5.58-2.838 6.643-5.74.17-.925.336-1.853.518-2.78.148-1.746.18-3.5.18-5.25-1.02.178-1.994.514-2.994.765zm-16.733-20.794c2.728-1.368 5.8-1.805 8.81-2.092 3.567-.143 7.184-.135 10.694.62 2.555.5 5.1 1.433 7.13 3.104 2.186 2.045 3.143 5.057 3.486 7.957.458 2.823.21 5.69.243 8.535.046 1.292-.152 2.574-.2 3.864 0 3.084-.246 6.222.537 9.245.534 2.055 1.59 4.034 1.515 6.207-.215 2.034-2.025 3.418-3.88 3.922-1.677.297-3.31-.46-4.496-1.604a17.956 17.956 0 0 1-3.24-4.26c-1.642.87-3.048 2.127-4.715 2.962-5.103 3.03-11.53 3.877-17.15 1.844-3.07-1.18-5.603-3.66-6.85-6.7-.99-2.798-1.1-5.936.02-8.708.813-2.088 2.516-3.672 4.31-4.937 2.386-1.716 5.33-2.25 8.11-2.995 4.34-.967 8.69-1.877 13.01-2.915.757-.257 1.53-.452 2.324-.574-.008-2.11-.197-4.392-1.46-6.166-.776-1.125-2.174-1.47-3.375-1.935-3.234-.286-6.703-.386-9.64 1.205-1.534.823-2.553 2.295-3.32 3.81-.766 1.176-1.548 2.636-3.04 2.95-1.015.306-2.064.122-3.07-.093-1.215-.644-2.486-1.644-2.64-3.11-.33-2.233.68-4.44 2.03-6.167 1.365-1.59 2.943-3.055 4.853-3.967z" fill="#16a7a8"/><path d="M222.634 224.44c.88-.528 1.816-1.026 2.838-1.195 1.113-.167 2.003.648 2.9 1.164-.004.52-.004 1.046-.023 1.57-.47 1.565-.67 3.257-1.66 4.607.412-1.827 1.27-3.65.794-5.563-.296-.68-.89-1.417-1.724-1.295-1.597.07-2.867 1.285-3.857 2.435-1.374 1.887-2.895 3.75-4.937 4.948-2.596 1.813-6.02 2.143-9.038 1.367-.967-.253-1.99-.484-2.79-1.117l-.235-.24c1.298.168 2.477.785 3.753 1.047 1.264.278 2.576.29 3.862.16 2.74-.31 5.12-1.98 6.986-3.916.967-1.372 1.683-3.012 3.13-3.973zm-24.95 1.73c.4.045.805.175 1.04.525.558.727 1.293 1.275 2.04 1.796.108 0 .325-.01.436-.014 1.06 1.03 2.532 1.485 3.576 2.52-2.162-.415-3.708-2.068-5.31-3.433-.53-.575-1.76-.443-1.78-1.39z" fill="#8cabae"/><path d="M226.69 230.588c.99-1.35 1.19-3.042 1.66-4.607-.04 3.168-1.462 6.224-3.52 8.588-2.08 2.683-4.84 4.846-7.974 6.16-1.486.576-3.072.79-4.61 1.165-3.47.813-7.034.243-10.534.05a13.9 13.9 0 0 1-.592 3.295c-.154-1.435-.028-2.876-.047-4.314.058.05.174.146.232.193 1.446.145 2.846.628 4.31.62 1.48.01 2.966.05 4.44-.097 2.665-.455 5.374-.904 7.83-2.092 3.845-1.857 7.044-5.058 8.805-8.96z" fill="#16a7a8"/><path d="M656.237 252.195c1.048-1.65 3.338-2.11 5.1-1.493.993.324 1.387 1.755.618 2.49-.633.584-1.59.122-2.306.474-.236.744-.137 1.537-.14 2.306.904.11 2.158-.275 2.76.64.094.493.205 1.234-.344 1.5-.713.494-1.614.345-2.42.35-.06 3.29.038 6.584-.045 9.87-.13 1.596-2.49 2.04-3.372.827-.466-.443-.362-1.123-.386-1.694.024-2.987.002-5.97.01-8.954a9.537 9.537 0 0 1-2.173-.336c-.15-.77-.254-1.63.446-2.168.56-.007 1.122-.022 1.69-.033.103-1.26-.21-2.68.56-3.782zm-105.01-.38c.536-1.39 2.81-1.836 3.665-.497 1.42 2.246 2.52 4.682 3.87 6.97.065 0 .197-.007.264-.01 1.292-2.228 2.43-4.55 3.705-6.783.64-1.234 2.42-1.246 3.31-.28.776.713.437 1.92-.067 2.694-1.683 2.76-3.326 5.54-5.034 8.285-.04 2.017.073 4.037-.053 6.05-.243 1.586-2.505 2.125-3.555 1.023-.925-.783-.536-2.112-.62-3.164-.093-1.413.25-2.903-.227-4.26-1.448-2.394-2.91-4.783-4.342-7.185-.524-.85-1.242-1.78-.912-2.847zm95.888-1.02c1.025-.672 2.83-.11 2.862 1.254.084 5.134.004 10.28.042 15.414.012.774-.06 1.777-.875 2.138-1.042.58-2.873.113-2.84-1.28-.066-5.25-.017-10.504-.03-15.76-.062-.693.164-1.45.84-1.767zm-113.67 1.972c.45-1.05 1.913-1.184 2.822-.705 1.32.844.56 2.646.903 3.93.813.066 1.822-.232 2.486.393.468.524.198 1.218-.006 1.792a7.555 7.555 0 0 1-2.513.31c-.143 2.747-.17 5.517.113 8.255.77.086 1.61.03 2.31.434.52.503.487 1.43.005 1.95-.413.466-1.074.566-1.65.662-1.323.13-2.84.044-3.842-.932-.677-.636-.768-1.606-.76-2.478-.005-2.62.01-5.24-.003-7.86-.717-.074-1.663.033-2.065-.708a9.93 9.93 0 0 1-.128-1.107c.187-.215.38-.425.58-.637.52-.113 1.227.12 1.605-.355.066-.98-.11-1.982.143-2.942zm-94.04 1.353c.016 1.764-.017 3.53.033 5.295 1.75-.117 3.573.242 5.278-.26 1.918-.642 2.26-3.72.372-4.59-1.782-.79-3.8-.303-5.683-.444zm-4.194-.977c-.02-.864.36-1.945 1.314-2.125 1.64-.314 3.323-.1 4.98-.162 2.315.017 4.894-.256 6.887 1.178 3.18 2.244 2.9 7.766-.474 9.703-2.586 1.462-5.654.75-8.475.925-.076 1.788.026 3.58-.05 5.367-.034 1.032-1.02 1.85-2.04 1.795-1.132.102-2.28-.907-2.127-2.08-.023-4.866.002-9.737-.01-14.603zm19.723 2.983c.573-.685 1.537-.372 2.31-.33.608.85.685 1.887.636 2.902.46-1.07.893-2.326 2.045-2.833.92-.333 2.188-.348 2.797.562.726.77.26 1.852-.188 2.637-1.26.507-3.094-.13-3.78 1.37-1.094 2.625-.262 5.557-.65 8.298-.296 1.12-1.676 1.213-2.62 1.03-1.13-.454-1.114-1.824-1.12-2.842.05-3.034-.074-6.073.084-9.104.067-.58-.035-1.287.483-1.69zm28.683.848c1.777-1.528 4.33-1.423 6.517-1.13 1.34.324 3.002.796 3.53 2.228.364 1.08-.64 2.317-1.78 2.07-1.038-.318-1.693-1.367-2.765-1.613-1.003-.146-2.105-.16-2.945.486.096.463-.196 1.18.37 1.405 1.822.813 3.923.808 5.708 1.754 1.173.556 2.18 1.724 2.08 3.09.15 1.582-.894 3.023-2.246 3.73-1.637.917-3.6.955-5.41.693-1.478-.297-3.038-.832-3.998-2.066-.677-.853-.476-2.385.665-2.73 1.8-.317 2.475 1.954 4.118 2.194.96.34 1.93-.022 2.816-.397.11-.282.223-.562.344-.84-.05-.202-.145-.607-.192-.81-2.14-.968-4.635-.92-6.65-2.18-1.983-1.248-1.964-4.48-.16-5.884zm32.39-1.17c.63-.2 1.305-.06 1.958-.044.462.587.622 1.306.67 2.04.97-.665 1.743-1.67 2.938-1.95 1.8-.396 3.974-.278 5.296 1.175 1.3 1.507 1.177 3.626 1.188 5.49-.063 2.012.127 4.04-.13 6.04-.24 1.887-3.67 1.667-3.65-.25-.064-2.298.006-4.6-.028-6.897-.014-.933-.292-2.033-1.253-2.402-1.614-.85-3.7.394-3.943 2.138-.188 2.47.096 4.957-.13 7.42-.352 1.85-3.69 1.675-3.68-.287-.098-3.292.005-6.594-.048-9.892.01-.892-.072-2.05.813-2.58zm68.844 1.188c.125-1.852 3.5-1.83 3.636.024.112 2.375 0 4.763.04 7.142.003.872.326 1.858 1.152 2.282 1.553.898 3.74-.296 4.028-2.017.23-2.47-.075-4.966.145-7.434.147-1.423 1.97-1.59 3.007-1.088.752.447.678 1.44.713 2.196-.033 3.4.044 6.805-.03 10.202.006 1.733-2.563 2.06-3.294.63-.024-.487-.04-.974-.062-1.46-.888.896-1.825 1.86-3.098 2.17-1.562.36-3.375.258-4.675-.767-1.1-.84-1.635-2.26-1.585-3.617.02-2.756-.05-5.513.027-8.266zm17.246.248c-.054-1.41 1.726-2.017 2.756-1.282.843.65.642 1.83.694 2.767.39-1.165.956-2.458 2.193-2.926.894-.223 2.1-.267 2.637.65.725.82.362 2.2-.55 2.714-.998.4-2.312-.123-3.11.75-1.086 1.444-.824 3.373-.874 5.07-.072 1.49.276 3.072-.378 4.478-.89.308-2.055.688-2.832-.05-.65-.538-.566-1.475-.587-2.23.05-3.314-.047-6.63.05-9.943zm12.824-.62c1.802-1.122 4.047-1.094 6.075-.763 1.36.292 2.875.867 3.513 2.21.405 1.214-.862 2.316-2.03 2.112-.92-.67-1.78-1.665-2.995-1.704-.813-.023-1.788-.125-2.387.545-.434.368-.077.963.047 1.395 2.23.835 4.828.805 6.773 2.315 1.612 1.18 1.63 3.7.382 5.145-1.182 1.386-3.085 1.94-4.852 1.95-2.12 0-4.5-.478-5.91-2.193-.756-.818-.567-2.512.667-2.738 1.13-.287 1.816.805 2.604 1.39 1.025.98 2.667 1.203 3.92.544.762-.328.896-1.7.026-1.973-2.133-.9-4.71-.766-6.547-2.325-1.807-1.55-1.312-4.776.714-5.91zm-145.937 4.623c2.212.047 4.424.024 6.64.012-.242-1.587-1.596-3.067-3.274-3.004-1.69-.05-3.118 1.377-3.368 2.994zm-2.35-3.07c1.222-1.702 3.38-2.515 5.43-2.498 1.772-.094 3.61.408 4.965 1.58 1.524 1.31 2.372 3.423 2.027 5.42-.118.668-.94.748-1.482.772-2.898.034-5.803-.047-8.7.04.107 1.45.986 2.898 2.465 3.267 1.196.167 2.573.203 3.552-.63.603-.39 1.09-1.112 1.882-1.087.758-.054 1.517.55 1.565 1.325.148 1.017-.656 1.847-1.464 2.324-2.185 1.264-4.924 1.457-7.31.7-1.798-.546-3.308-1.968-3.918-3.75-.867-2.442-.56-5.355.987-7.462zm35.717 1.017c-.618.53-.827 1.34-1.064 2.08 2.2-.007 4.397 0 6.596-.003-.187-.836-.443-1.74-1.166-2.278-1.24-1.055-3.21-.903-4.367.2zm-4.084.138c1.03-2.306 3.543-3.706 6.032-3.655 2.174-.15 4.45.654 5.832 2.387 1.203 1.384 1.507 3.322 1.174 5.085-.584.16-1.174.322-1.775.31-2.76 0-5.524-.023-8.28.017.103 1.355.776 2.796 2.175 3.216 1.218.28 2.65.292 3.684-.52.685-.428 1.27-1.247 2.173-1.134 1.008-.016 1.758 1.268 1.303 2.142-.47 1.108-1.562 1.732-2.648 2.102-2.963 1.052-6.75.713-8.89-1.8-1.86-2.237-1.95-5.57-.784-8.15zm74.774-.748c-1.695.572-2.27 2.577-2.21 4.196.02 1.48.44 3.317 1.93 3.978 1.238.628 2.925.22 3.696-.953.776-1.206.876-2.71.727-4.1-.143-1.056-.56-2.18-1.496-2.78-.753-.563-1.777-.546-2.646-.34zm-.83-2.776c1.82-.236 3.788-.26 5.44.66 2.2 1.117 3.382 3.644 3.374 6.044.06 2.072-.516 4.31-2.094 5.742-1.783 1.535-4.318 1.783-6.56 1.454-1.893-.283-3.662-1.437-4.516-3.17-1.06-2.305-1.12-5.076-.022-7.374.84-1.72 2.51-2.97 4.378-3.356zm59.85 5.446c2.224.038 4.45.02 6.676.008-.187-1.715-1.81-3.254-3.585-2.993-1.604.094-2.71 1.53-3.09 2.985zm.562-5.13c2.362-.768 5.208-.676 7.24.89 1.88 1.38 2.79 3.837 2.276 6.112-.56.175-1.13.353-1.715.333-2.775-.005-5.547-.018-8.32.006-.018 1.47.89 2.926 2.36 3.286 1.184.196 2.534.193 3.527-.59.667-.448 1.224-1.28 2.146-1.1 1.166.017 1.73 1.512 1.13 2.42-.81 1.345-2.43 1.86-3.874 2.182-2.343.41-4.995.128-6.842-1.495-1.655-1.35-2.34-3.593-2.188-5.67-.005-2.71 1.61-5.497 4.26-6.373z" fill="#8cabae"/></g></svg>