<?xml version="1.0" standalone="no"?><!DOCTYPE svg PUBLIC "-//W3C//DTD SVG 1.1//EN" "http://www.w3.org/Graphics/SVG/1.1/DTD/svg11.dtd"><svg width="100%" height="100%" viewBox="0 0 800 800" version="1.1" xmlns="http://www.w3.org/2000/svg" xmlns:xlink="http://www.w3.org/1999/xlink" xml:space="preserve" style="fill-rule:evenodd;clip-rule:evenodd;stroke-linejoin:round;stroke-miterlimit:1.41421;"><g id="object"><path d="M145.832,148.152c2.047,-1.521 4.632,-2.24 7.17,-2.143c31.038,-0.003 62.074,-0.016 93.112,0.008c5.131,-0.138 9.823,3.676 11.352,8.473c0.628,1.673 0.766,3.466 0.731,5.24c-0.014,16.438 0.011,32.873 -0.014,49.311c0.006,0.502 0.113,0.993 0.22,1.48c-2.375,1.544 -4.794,3.018 -7.257,4.414c0.366,-0.404 0.65,-0.892 0.603,-1.455c0,-16.449 0.006,-32.898 0,-49.347c-0.11,-2.929 -0.391,-6.169 -2.422,-8.461c-1.884,-2.136 -4.891,-2.673 -7.601,-2.703c-27.375,-0.004 -54.749,0.008 -82.123,-0.006c-2.526,-0.058 -5.124,0.002 -7.51,0.929c-1.458,0.595 -2.662,1.774 -3.276,3.224c-1.012,2.284 -1.122,4.832 -1.169,7.293c-0.017,15.793 0.003,31.586 -0.011,47.38c0.025,1.137 -0.171,2.348 0.347,3.408c-0.826,-0.538 -1.656,-1.067 -2.54,-1.501c-1.818,-0.913 -3.428,-2.178 -5.202,-3.169c0.083,-0.304 0.182,-0.606 0.195,-0.92c0.009,-16.808 -0.013,-33.618 0.012,-50.425c-0.075,-4.243 1.885,-8.561 5.383,-11.03Z" style="fill:#b5c4c3;fill-rule:nonzero;"/><path d="M327.941,181.243c1.062,-0.242 2.585,-0.143 3.084,1.009c0.449,1.54 0.352,3.16 0.36,4.748c0.009,16.531 0.006,33.065 0.004,49.597c-0.037,1.069 -0.067,2.202 -0.519,3.185c-0.821,1.103 -2.355,0.928 -3.493,0.496c-0.879,-1.006 -0.894,-2.417 -0.929,-3.681c0.017,-17.357 -0.013,-34.716 0.017,-52.074c0.124,-1.166 0.112,-2.855 1.476,-3.28Z" style="fill:#16a7a8;fill-rule:nonzero;"/><path d="M498.155,184.491c1.127,-3.576 6.31,-4.49 8.779,-1.801c1.515,1.485 1.488,3.739 1.609,5.704c0.094,4.975 -0.019,9.955 0.063,14.934c0.938,-0.861 1.781,-1.823 2.742,-2.657c2.088,-1.607 4.493,-2.86 7.106,-3.34c4.841,-0.936 10.326,0.21 13.796,3.888c2.469,2.722 3.475,6.445 3.636,10.046c0.102,3.67 0.196,7.34 0.147,11.013c-0.121,2.852 0.112,5.707 -0.046,8.558c-0.021,2.444 0.166,5.056 -0.996,7.298c-1.516,3.059 -6.343,3.318 -8.429,0.747c-0.989,-1.471 -1.225,-3.307 -1.217,-5.039c-0.028,-5.5 -0.007,-11.002 -0.014,-16.504c-0.002,-2.595 -0.061,-5.26 -0.89,-7.745c-0.711,-2.185 -2.774,-3.778 -5.036,-4.065c-4.338,-0.854 -8.911,2.111 -10.074,6.338c-0.694,2.76 -0.778,5.635 -0.752,8.467c-0.012,4.323 0.011,8.643 -0.012,12.963c0.009,1.122 -0.159,2.229 -0.357,3.329c-0.301,0.986 -0.631,2.034 -1.425,2.741c-1.859,1.554 -4.714,1.645 -6.745,0.383c-1.851,-1.323 -2.091,-3.818 -2.204,-5.903c-0.016,-14.234 -0.004,-28.469 -0.008,-42.703c0.013,-1.656 -0.036,-3.315 0.09,-4.968c0.11,-0.553 0.188,-1.119 0.237,-1.684Z" style="fill:#16a7a8;fill-rule:nonzero;"/><path d="M345.806,182.811c1.169,-0.294 2.412,0.198 3.222,1.055c1.11,1.48 0.727,3.924 -0.978,4.79c-1.91,1.256 -4.775,-0.474 -4.601,-2.736c-0.183,-1.497 1.005,-2.715 2.357,-3.109Z" style="fill:#16a7a8;fill-rule:nonzero;"/><path d="M178.634,186.348c1.276,-0.14 2.554,-0.393 3.841,-0.234c1.49,0.224 2.994,0.353 4.442,0.816c2.805,1.088 5.488,2.697 7.365,5.098c1.655,1.934 2.6,4.362 3.154,6.821c0.092,1.382 0.147,2.772 0.02,4.153c-0.571,4.386 -3.274,8.428 -7.073,10.679c-1.88,1.221 -4.045,1.932 -6.233,2.338c-1.647,0.137 -3.309,0.143 -4.96,0.035c-4.4,-0.57 -8.599,-2.948 -11.167,-6.596c-1.09,-1.53 -1.813,-3.282 -2.325,-5.079c-0.498,-2.085 -0.466,-4.246 -0.014,-6.334c1.408,-6.075 6.83,-10.812 12.95,-11.697Z" style="fill:#f29225;fill-rule:nonzero;"/><path d="M215.82,186.385c4.968,-0.981 10.354,0.479 14.165,3.811c4.05,3.485 5.959,9.255 4.62,14.453c-1.251,4.869 -5.127,8.854 -9.828,10.528c-2.493,0.982 -5.202,1.08 -7.847,0.907c-5.108,-0.543 -9.977,-3.59 -12.385,-8.18c-0.981,-1.673 -1.394,-3.582 -1.739,-5.467c-0.212,-3.631 0.846,-7.348 3.142,-10.197c2.424,-3.073 6.011,-5.202 9.872,-5.855Z" style="fill:#138bcc;fill-rule:nonzero;"/><path d="M596.786,197.682c2.264,-1.218 5.641,-0.797 6.95,1.615c0.532,1.385 0.791,2.851 1.002,4.314c0.329,-0.529 0.656,-1.06 0.965,-1.604c0.819,-1.528 2.127,-2.768 3.571,-3.709c2.628,-1.611 5.965,-1.556 8.806,-0.556c1.884,0.661 3.938,1.491 5.012,3.288c0.686,1.104 0.642,2.46 0.341,3.681c-0.548,1.278 -1.59,2.236 -2.843,2.807c-2.494,0.449 -4.744,-1.047 -7.191,-1.139c-1.58,-0.131 -3.323,0.021 -4.546,1.134c-2.211,1.768 -2.924,4.687 -3.293,7.357c-1.105,7.003 -0.207,14.12 -0.818,21.157c-0.196,2.824 -3.141,4.989 -5.902,4.54c-2.269,-0.294 -4.316,-2.129 -4.492,-4.475c-0.24,-2.851 -0.088,-5.721 -0.129,-8.581c0.003,-7.991 -0.008,-15.984 0.003,-23.977c-0.031,-2.166 0.625,-4.631 2.564,-5.852Z" style="fill:#16a7a8;fill-rule:nonzero;"/><path d="M294.825,197.375c3.828,-0.537 7.814,-0.449 11.521,0.719c3.229,1.243 6.343,3.605 7.415,7.024c0.302,0.96 0.762,2.014 0.296,3c-0.479,1.524 -2.89,1.723 -3.675,0.372c-0.662,-1.142 -0.851,-2.521 -1.705,-3.559c-1.745,-2.324 -4.66,-3.345 -7.442,-3.709c-3.42,-0.276 -7.2,0.028 -9.95,2.293c-1.518,1.152 -2.141,3.149 -1.962,4.998c0.105,0.366 0.187,0.738 0.267,1.116c1.182,3.071 4.632,4.16 7.517,4.979c1.738,0.47 3.485,0.925 5.254,1.28c3.166,0.775 6.31,1.739 9.194,3.28c1.85,0.901 3.409,2.448 4.134,4.391c0.721,1.582 0.688,3.356 0.664,5.057c-0.064,2.52 -1.028,5.003 -2.662,6.92c-1.485,1.877 -3.689,2.962 -5.844,3.871c-0.281,0.086 -0.556,0.177 -0.829,0.27c-3.957,1.064 -8.148,1.204 -12.185,0.551c-1.093,-0.174 -2.167,-0.462 -3.174,-0.928c-3.573,-1.463 -6.422,-4.518 -7.692,-8.157c-0.356,-0.935 -0.262,-1.955 -0.217,-2.929c0.809,-1.048 2.201,-1.685 3.473,-1.079c1.211,1.436 1.497,3.395 2.69,4.844c2.016,2.946 5.631,4.447 9.123,4.511c2.746,0.105 5.62,-0.1 8.089,-1.423c1.934,-1.06 3.654,-2.814 4.092,-5.041c0.234,-1.494 0.171,-3.105 -0.582,-4.452c-0.586,-1.156 -1.738,-1.855 -2.86,-2.412c-2.662,-1.407 -5.637,-2.014 -8.511,-2.834c-1.651,-0.409 -3.279,-0.907 -4.924,-1.329c-0.286,-0.082 -0.572,-0.165 -0.854,-0.242c-2.129,-0.744 -4.333,-1.524 -6.003,-3.105c-1.821,-1.789 -3.095,-4.265 -2.99,-6.867c-0.085,-2.775 1.309,-5.312 2.91,-7.48c1.73,-2.348 4.623,-3.494 7.422,-3.93Z" style="fill:#16a7a8;fill-rule:nonzero;"/><path d="M345.043,197.469c1.034,-0.708 2.428,-0.468 3.395,0.245c0.364,1.079 0.576,2.211 0.559,3.351c-0.005,11.936 -0.002,23.874 0,35.813c-0.033,0.866 -0.223,1.714 -0.276,2.578c-0.894,1.546 -3.317,1.546 -4.309,0.106c-0.082,-0.344 -0.167,-0.686 -0.256,-1.025c-0.201,-4.678 -0.036,-9.37 -0.091,-14.055c0.042,-8.454 -0.085,-16.912 0.067,-25.362c0.2,-0.595 0.335,-1.292 0.911,-1.651Z" style="fill:#16a7a8;fill-rule:nonzero;"/><path d="M462.392,197.976c4.584,-1.22 9.464,-1.234 14.096,-0.253c0.364,0.096 0.727,0.182 1.105,0.267c2.047,0.667 4.052,1.571 5.72,2.959c1.476,1.174 2.907,2.623 3.427,4.492c0.249,1.303 0.257,2.796 -0.567,3.909c-1.268,1.775 -3.869,2.21 -5.775,1.29c-1.596,-0.686 -2.78,-2.014 -3.728,-3.427c-2.626,-3.489 -7.809,-4.067 -11.614,-2.352c-1.301,0.521 -2.185,1.723 -2.474,3.072c0.104,1.478 0.86,2.903 2.262,3.517c5.607,2.584 12.008,2.907 17.488,5.816c2.419,1.284 4.77,3.064 5.899,5.64c1.195,2.571 0.881,5.549 0.151,8.205c-0.699,1.965 -1.792,3.83 -3.397,5.189c-1.653,1.448 -3.667,2.399 -5.725,3.124c-0.149,0.036 -0.452,0.104 -0.604,0.138c-0.449,0.138 -0.896,0.261 -1.337,0.394c-3.625,0.653 -7.35,0.9 -11.012,0.413c-2.45,-0.243 -4.883,-0.854 -7.089,-1.951c-2.828,-1.537 -5.389,-3.895 -6.487,-6.99c-0.484,-1.523 -0.603,-3.333 0.35,-4.706c1.224,-1.848 4.006,-2.51 5.851,-1.212c1.735,1.16 2.474,3.213 3.854,4.704c1.719,2.113 4.431,3.115 7.078,3.356c1.563,0.276 3.174,0.027 4.684,-0.411c1.615,-0.518 3.182,-1.651 3.731,-3.312c0.743,-2.122 -0.587,-4.527 -2.579,-5.395c-4.552,-2.141 -9.716,-2.425 -14.32,-4.428c-2.796,-1.132 -5.518,-2.844 -7.119,-5.472c-1.364,-2.1 -1.648,-4.737 -1.218,-7.161c0.97,-4.604 4.927,-8.145 9.349,-9.415Z" style="fill:#16a7a8;fill-rule:nonzero;"/><path d="M603.736,199.297c0.735,0.743 0.804,1.828 0.992,2.798c0.316,-0.03 0.642,-0.06 0.975,-0.088c-0.309,0.544 -0.636,1.075 -0.965,1.604c-0.211,-1.463 -0.47,-2.929 -1.002,-4.314Z" style="fill:#b5c4c3;fill-rule:nonzero;"/><path d="M417.612,205.328c-2.463,2.73 -3.68,6.375 -3.912,10.001c8.776,0 17.551,0.012 26.33,-0.006c0.044,-3.964 -1.245,-8.075 -4.067,-10.941c-2.358,-2.168 -5.585,-3.4 -8.795,-3.231c-3.607,-0.193 -7.257,1.388 -9.556,4.177ZM413.074,203.256c2.607,-3.313 6.602,-5.362 10.746,-5.938c3.836,-0.532 7.875,-0.303 11.487,1.182c2.827,1.154 4.913,3.493 6.652,5.924c0.961,1.449 1.772,3.02 2.225,4.705c0.673,2.574 1.265,5.228 1.036,7.906c-0.032,0.628 -0.405,1.157 -0.683,1.7c-0.978,0.383 -2.005,0.672 -3.064,0.645c-9.324,0.038 -18.647,-0.017 -27.972,0.027c0.054,2.278 0.376,4.549 0.915,6.764c0.942,3.23 2.715,6.357 5.574,8.244c4.618,3.067 11.032,2.669 15.518,-0.451c2.147,-1.695 3.329,-4.238 4.406,-6.68c0.281,-0.835 1.096,-1.206 1.825,-1.573c1.04,0.116 2.289,0.504 2.644,1.612c0.369,2.064 -0.904,3.909 -1.801,5.659c-1.944,2.835 -4.71,5.177 -7.922,6.439c-4.447,1.569 -9.379,1.524 -13.901,0.279c-3.165,-1.026 -6.062,-2.987 -7.99,-5.726c-2.651,-3.527 -3.963,-7.904 -4.285,-12.267c-0.361,-2.567 -0.025,-5.143 0.155,-7.709c0.716,-3.823 1.884,-7.714 4.435,-10.742Z" style="fill:#16a7a8;fill-rule:nonzero;"/><path d="M368.621,205.328c-2.679,3.069 -4.022,7.136 -4.217,11.165c-0.026,2.738 -0.179,5.529 0.535,8.204c0.884,3.861 3.009,7.676 6.492,9.738c-0.105,0.008 -0.317,0.025 -0.421,0.033c1.653,0.594 3.184,1.547 4.951,1.832c3.215,0.495 6.645,0.176 9.547,-1.381c3.747,-1.862 6.301,-5.651 7.161,-9.684c0.67,-2.952 0.554,-5.995 0.492,-8.996c-0.195,-4.379 -1.977,-8.749 -5.309,-11.666c-2.763,-2.318 -6.428,-3.563 -10.028,-3.422c-3.478,-0.039 -6.922,1.559 -9.203,4.177ZM394.308,181.398c0.954,-0.275 1.949,-0.301 2.91,-0.019c0.689,0.807 0.986,1.826 0.914,2.881c0.028,16.984 0.009,33.971 0.012,50.954c-0.028,1.488 0.126,3.019 -0.364,4.455c-0.097,0.14 -0.294,0.422 -0.391,0.565c-1.268,0.642 -3.323,0.557 -3.789,-1.042c-0.485,-1.885 -0.265,-3.868 -0.443,-5.79c-1.712,1.773 -3.415,3.639 -5.624,4.804c-2.224,1.268 -4.706,1.973 -7.23,2.31c-1.648,0.12 -3.304,0.123 -4.948,-0.006c-1.679,-0.24 -3.362,-0.529 -4.93,-1.197c-4.433,-1.936 -7.762,-5.917 -9.456,-10.389c-1.67,-4.667 -2.199,-9.71 -1.545,-14.62c0.638,-4.056 1.944,-8.142 4.647,-11.313c1.75,-1.961 3.812,-3.722 6.299,-4.662c3.505,-1.342 7.373,-1.518 11.066,-1.017c2.469,0.267 4.951,1.041 6.94,2.571c1.802,1.325 3.51,2.857 4.747,4.737c0.042,-0.453 0.083,-0.904 0.125,-1.356c-0.025,-0.551 -0.033,-1.099 -0.02,-1.651c-0.035,-1.929 -0.02,-3.86 0,-5.789c-0.058,-3.212 -0.011,-6.425 -0.028,-9.635c0.139,-1.62 -0.032,-3.477 1.108,-4.791Z" style="fill:#16a7a8;fill-rule:nonzero;"/><path d="M639.536,207.088c-2.059,2.223 -2.778,5.307 -3.139,8.231c6.45,0.024 12.901,0.018 19.353,0.002c0.11,-4.053 -1.849,-8.426 -5.725,-10.1c-3.428,-1.444 -7.916,-1.001 -10.489,1.867ZM639.288,197.974c5.152,-1.334 10.775,-1.37 15.782,0.569c4.381,1.712 7.704,5.44 9.649,9.642c1.306,2.934 1.921,6.307 1.144,9.462c-0.58,1.366 -1.566,2.683 -3.042,3.127c-2.797,0.834 -5.753,0.774 -8.641,0.76c-5.927,0.011 -11.854,-0.016 -17.777,0.016c0.014,2.31 0.504,4.646 1.578,6.702c1.483,2.608 4.153,4.538 7.117,5.052c3.251,0.61 6.663,-0.325 9.338,-2.22c1.929,-1.242 3.377,-3.061 5.183,-4.458c1.595,-1.056 4.122,-1.039 5.377,0.548c1.213,1.491 0.585,3.632 -0.294,5.13c-2.085,3.326 -5.417,5.833 -9.117,7.098c-0.281,0.088 -0.553,0.179 -0.821,0.275c-3.505,0.896 -7.181,1.194 -10.774,0.73c-4.639,-0.374 -9.357,-2.082 -12.602,-5.529c-3.797,-3.813 -5.619,-9.189 -5.874,-14.485c-0.278,-5.593 0.898,-11.533 4.436,-16.014c2.099,-2.862 5.155,-4.964 8.497,-6.114c0.276,-0.096 0.554,-0.192 0.841,-0.291Z" style="fill:#16a7a8;fill-rule:nonzero;"/><path d="M258.403,210.521c1.267,-0.879 2.613,-2.061 4.271,-1.857c1.265,0.072 2.179,1.378 2.11,2.591c0.155,1.818 -1.044,3.366 -2.27,4.568c-6.318,6.772 -14.322,11.737 -22.676,15.605c-0.945,0.42 -1.885,0.846 -2.832,1.254c-0.186,0.075 -0.551,0.226 -0.736,0.3c0.201,1.039 0.534,2.047 0.73,3.089l0.099,0.206c1,4.445 1.846,8.972 1.742,13.545c0.088,5.643 -0.959,11.389 -3.555,16.436c-2.436,4.822 -6.282,9.092 -11.267,11.332c-3.653,1.703 -7.797,2.265 -11.785,1.73c-3.369,-0.581 -6.667,-2.275 -8.651,-5.129c-2.135,-2.852 -2.634,-6.569 -2.477,-10.042c0.017,-6.303 -0.072,-12.612 0.014,-18.912c0.323,-1.074 0.535,-2.176 0.592,-3.294c3.5,0.192 7.065,0.762 10.534,-0.051c1.538,-0.374 3.124,-0.589 4.61,-1.165c3.135,-1.314 5.894,-3.477 7.974,-6.16c2.058,-2.364 3.48,-5.42 3.519,-8.586c0.019,-0.524 0.019,-1.049 0.024,-1.572c-0.898,-0.516 -1.788,-1.331 -2.901,-1.164c-1.022,0.169 -1.959,0.667 -2.838,1.196c-1.447,0.961 -2.163,2.601 -3.13,3.973c-1.866,1.937 -4.246,3.607 -6.986,3.916c-1.286,0.129 -2.598,0.118 -3.862,-0.16c-1.276,-0.262 -2.455,-0.879 -3.753,-1.048c-0.03,-0.033 -0.094,-0.096 -0.127,-0.126c-1.044,-1.036 -2.515,-1.49 -3.576,-2.521c0.008,-2.16 1.157,-4.373 3.177,-5.287c2.793,-1.359 5.984,-0.676 8.968,-0.723c3.033,-0.098 6.062,0.381 9.09,0.039c9.991,-0.262 19.852,-2.976 28.711,-7.569c2.463,-1.396 4.882,-2.87 7.257,-4.414Z" style="fill:#138bcc;fill-rule:nonzero;"/><path d="M134.825,209.088c0.89,-0.718 2.086,-0.399 3.083,-0.134c0.779,0.523 1.535,1.08 2.334,1.573c1.774,0.991 3.384,2.256 5.202,3.169c0.884,0.434 1.714,0.963 2.54,1.501c5.937,2.992 12.278,5.229 18.844,6.343c3.973,0.799 8.031,0.918 12.065,1.102c3.031,-0.273 6.075,-0.132 9.114,-0.249c1.943,-0.026 3.976,-0.179 5.809,0.593c1.581,0.654 2.684,2.014 3.869,3.185c0.021,0.948 1.25,0.816 1.782,1.391c1.601,1.365 3.147,3.018 5.309,3.434c0.033,0.03 0.097,0.093 0.127,0.126l0.234,0.241c0.802,0.633 1.824,0.864 2.791,1.118c3.017,0.776 6.442,0.446 9.038,-1.367c2.042,-1.199 3.563,-3.061 4.937,-4.948c0.99,-1.15 2.26,-2.367 3.858,-2.436c0.833,-0.122 1.428,0.614 1.724,1.295c0.475,1.913 -0.382,3.736 -0.795,5.563c-1.761,3.902 -4.96,7.103 -8.804,8.96c-2.457,1.188 -5.166,1.637 -7.831,2.091c-1.474,0.148 -2.961,0.107 -4.441,0.097c-1.463,0.008 -2.863,-0.475 -4.309,-0.62c-0.058,-0.047 -0.174,-0.144 -0.232,-0.193c-0.405,-0.064 -0.807,-0.13 -1.209,-0.204c-0.761,-0.271 -1.554,-0.419 -2.359,-0.457c0.011,8.607 -0.011,17.215 0.003,25.822c-0.107,2.954 -0.84,6.007 -2.705,8.362c-1.761,2.398 -4.495,3.937 -7.35,4.643c-1.802,0.485 -3.68,0.402 -5.529,0.378c-1.615,0 -3.147,-0.554 -4.698,-0.923c-0.27,-0.097 -0.537,-0.191 -0.804,-0.279c-6.038,-2.261 -10.914,-7.12 -13.57,-12.952c-0.516,-1.084 -0.928,-2.207 -1.372,-3.32c-0.383,-1.295 -0.665,-2.618 -1.02,-3.921c-1.064,-5.351 -0.882,-10.873 -0.066,-16.246c0.458,-2.677 0.959,-5.367 1.769,-7.964c0.028,-0.227 0.088,-0.678 0.115,-0.906c-0.421,-0.178 -0.842,-0.351 -1.264,-0.525c-9.426,-4.083 -18.485,-9.514 -25.456,-17.162c-0.81,-1.001 -1.747,-2.097 -1.745,-3.459c-0.081,-0.989 0.084,-2.16 1.012,-2.722Z" style="fill:#f29225;fill-rule:nonzero;"/><path d="M569.857,219.997c-3.61,0.964 -7.371,1.391 -10.87,2.75c-0.791,0.324 -1.574,0.68 -2.259,1.188c-1.488,1.11 -2.152,3.165 -1.663,4.945c0.538,2.518 2.933,4.408 5.468,4.585c1.664,0.074 3.38,0.11 4.976,-0.463c2.843,-0.923 5.582,-2.838 6.645,-5.739c0.171,-0.926 0.336,-1.854 0.518,-2.781c0.147,-1.746 0.179,-3.499 0.179,-5.251c-1.019,0.179 -1.994,0.515 -2.994,0.766ZM553.124,199.203c2.728,-1.368 5.8,-1.805 8.809,-2.092c3.568,-0.145 7.185,-0.137 10.695,0.62c2.555,0.499 5.099,1.431 7.129,3.102c2.187,2.045 3.144,5.057 3.487,7.957c0.458,2.822 0.21,5.69 0.243,8.534c0.046,1.292 -0.152,2.574 -0.199,3.864c-0.002,3.085 -0.247,6.223 0.536,9.246c0.534,2.055 1.59,4.034 1.515,6.207c-0.213,2.033 -2.023,3.417 -3.879,3.921c-1.676,0.297 -3.31,-0.46 -4.495,-1.604c-1.286,-1.245 -2.38,-2.694 -3.239,-4.261c-1.643,0.87 -3.049,2.128 -4.716,2.963c-5.102,3.029 -11.53,3.877 -17.151,1.844c-3.07,-1.179 -5.601,-3.659 -6.847,-6.7c-0.991,-2.798 -1.102,-5.936 0.019,-8.708c0.813,-2.088 2.516,-3.672 4.309,-4.937c2.387,-1.716 5.332,-2.248 8.112,-2.995c4.338,-0.967 8.688,-1.877 13.011,-2.915c0.755,-0.256 1.53,-0.451 2.322,-0.573c-0.008,-2.111 -0.197,-4.392 -1.46,-6.166c-0.776,-1.125 -2.174,-1.469 -3.375,-1.935c-3.233,-0.286 -6.702,-0.386 -9.64,1.205c-1.533,0.823 -2.552,2.295 -3.321,3.811c-0.764,1.175 -1.546,2.635 -3.039,2.948c-1.014,0.307 -2.063,0.123 -3.069,-0.092c-1.215,-0.644 -2.486,-1.644 -2.64,-3.111c-0.331,-2.232 0.68,-4.44 2.031,-6.166c1.364,-1.59 2.942,-3.055 4.852,-3.967Z" style="fill:#16a7a8;fill-rule:nonzero;"/><path d="M222.634,224.441c0.879,-0.529 1.816,-1.027 2.838,-1.196c1.113,-0.167 2.003,0.648 2.901,1.164c-0.005,0.523 -0.005,1.048 -0.024,1.572c-0.469,1.565 -0.668,3.257 -1.659,4.607c0.413,-1.827 1.27,-3.65 0.795,-5.563c-0.296,-0.681 -0.891,-1.417 -1.724,-1.295c-1.598,0.069 -2.868,1.286 -3.858,2.436c-1.374,1.887 -2.895,3.749 -4.937,4.948c-2.596,1.813 -6.021,2.143 -9.038,1.367c-0.967,-0.254 -1.989,-0.485 -2.791,-1.118l-0.234,-0.241c1.298,0.169 2.477,0.786 3.753,1.048c1.264,0.278 2.576,0.289 3.862,0.16c2.74,-0.309 5.12,-1.979 6.986,-3.916c0.967,-1.372 1.683,-3.012 3.13,-3.973Z" style="fill:#8cabae;fill-rule:nonzero;"/><path d="M197.685,226.171c0.399,0.044 0.804,0.174 1.04,0.524c0.557,0.727 1.292,1.275 2.04,1.796c0.107,-0.002 0.324,-0.01 0.435,-0.016c1.061,1.031 2.532,1.485 3.576,2.521c-2.162,-0.416 -3.708,-2.069 -5.309,-3.434c-0.532,-0.575 -1.761,-0.443 -1.782,-1.391Z" style="fill:#8cabae;fill-rule:nonzero;"/><path d="M226.69,230.588c0.991,-1.35 1.19,-3.042 1.659,-4.607c-0.039,3.166 -1.461,6.222 -3.519,8.586c-2.08,2.683 -4.839,4.846 -7.974,6.16c-1.486,0.576 -3.072,0.791 -4.61,1.165c-3.469,0.813 -7.034,0.243 -10.534,0.051c-0.057,1.118 -0.269,2.22 -0.592,3.294c-0.154,-1.435 -0.028,-2.876 -0.047,-4.314c0.058,0.049 0.174,0.146 0.232,0.193c1.446,0.145 2.846,0.628 4.309,0.62c1.48,0.01 2.967,0.051 4.441,-0.097c2.665,-0.454 5.374,-0.903 7.831,-2.091c3.844,-1.857 7.043,-5.058 8.804,-8.96Z" style="fill:#16a7a8;fill-rule:nonzero;"/><path d="M656.237,252.195c1.048,-1.651 3.338,-2.111 5.101,-1.493c0.992,0.324 1.386,1.755 0.617,2.49c-0.633,0.584 -1.59,0.122 -2.306,0.474c-0.234,0.744 -0.135,1.537 -0.137,2.306c0.903,0.111 2.157,-0.275 2.758,0.639c0.095,0.494 0.206,1.235 -0.343,1.5c-0.713,0.495 -1.614,0.346 -2.421,0.352c-0.058,3.29 0.039,6.583 -0.044,9.869c-0.13,1.596 -2.489,2.039 -3.373,0.827c-0.465,-0.441 -0.361,-1.121 -0.385,-1.692c0.024,-2.987 0.002,-5.971 0.011,-8.954c-0.742,-0.03 -1.469,-0.14 -2.174,-0.336c-0.149,-0.771 -0.254,-1.631 0.446,-2.168c0.559,-0.006 1.122,-0.021 1.691,-0.032c0.102,-1.261 -0.212,-2.68 0.559,-3.782Z" style="fill:#8cabae;fill-rule:nonzero;"/><path d="M551.228,251.814c0.535,-1.39 2.81,-1.835 3.664,-0.496c1.42,2.246 2.519,4.682 3.869,6.971c0.066,-0.002 0.198,-0.008 0.265,-0.01c1.292,-2.229 2.43,-4.55 3.705,-6.784c0.64,-1.234 2.42,-1.246 3.31,-0.281c0.774,0.714 0.435,1.92 -0.069,2.695c-1.683,2.761 -3.326,5.543 -5.034,8.287c-0.041,2.017 0.074,4.037 -0.052,6.051c-0.243,1.585 -2.505,2.124 -3.555,1.022c-0.926,-0.782 -0.537,-2.111 -0.62,-3.163c-0.094,-1.413 0.248,-2.903 -0.228,-4.259c-1.448,-2.395 -2.91,-4.784 -4.342,-7.186c-0.525,-0.852 -1.243,-1.78 -0.913,-2.847Z" style="fill:#8cabae;fill-rule:nonzero;"/><path d="M647.115,250.796c1.025,-0.673 2.829,-0.111 2.862,1.253c0.084,5.136 0.004,10.28 0.042,15.416c0.014,0.774 -0.06,1.777 -0.873,2.138c-1.042,0.579 -2.873,0.113 -2.841,-1.279c-0.065,-5.251 -0.016,-10.505 -0.03,-15.76c-0.061,-0.694 0.165,-1.452 0.84,-1.768Z" style="fill:#8cabae;fill-rule:nonzero;"/><path d="M533.445,252.767c0.449,-1.051 1.913,-1.184 2.822,-0.705c1.319,0.844 0.559,2.646 0.903,3.93c0.813,0.066 1.822,-0.232 2.486,0.393c0.468,0.524 0.198,1.218 -0.006,1.792c-0.816,0.247 -1.664,0.347 -2.513,0.311c-0.143,2.746 -0.17,5.516 0.113,8.254c0.771,0.086 1.61,0.029 2.31,0.434c0.52,0.503 0.487,1.43 0.005,1.951c-0.413,0.465 -1.074,0.565 -1.651,0.661c-1.322,0.131 -2.838,0.044 -3.841,-0.932c-0.677,-0.636 -0.768,-1.606 -0.76,-2.478c-0.005,-2.619 0.009,-5.239 -0.003,-7.86c-0.717,-0.074 -1.663,0.033 -2.065,-0.708c-0.065,-0.369 -0.105,-0.738 -0.128,-1.107c0.187,-0.215 0.38,-0.425 0.579,-0.637c0.52,-0.113 1.228,0.121 1.606,-0.355c0.066,-0.982 -0.111,-1.984 0.143,-2.944Z" style="fill:#8cabae;fill-rule:nonzero;"/><path d="M439.405,254.121c0.016,1.763 -0.017,3.529 0.033,5.294c1.751,-0.117 3.573,0.242 5.278,-0.26c1.918,-0.642 2.26,-3.72 0.372,-4.591c-1.782,-0.79 -3.799,-0.302 -5.683,-0.443ZM435.211,253.143c-0.022,-0.864 0.357,-1.945 1.312,-2.125c1.639,-0.314 3.323,-0.099 4.981,-0.162c2.314,0.017 4.893,-0.256 6.886,1.178c3.179,2.244 2.9,7.766 -0.475,9.703c-2.586,1.462 -5.654,0.751 -8.475,0.925c-0.077,1.788 0.025,3.579 -0.049,5.367c-0.036,1.034 -1.023,1.852 -2.04,1.797c-1.134,0.102 -2.28,-0.907 -2.129,-2.081c-0.023,-4.865 0.002,-9.736 -0.011,-14.602Z" style="fill:#8cabae;fill-rule:nonzero;"/><path d="M454.933,256.126c0.573,-0.685 1.537,-0.372 2.309,-0.33c0.609,0.851 0.686,1.887 0.637,2.902c0.46,-1.07 0.895,-2.326 2.047,-2.833c0.92,-0.333 2.188,-0.348 2.797,0.562c0.726,0.771 0.259,1.852 -0.188,2.637c-1.26,0.507 -3.094,-0.13 -3.781,1.369c-1.093,2.626 -0.261,5.558 -0.649,8.299c-0.296,1.121 -1.676,1.213 -2.621,1.031c-1.13,-0.455 -1.113,-1.825 -1.119,-2.843c0.05,-3.034 -0.074,-6.073 0.084,-9.104c0.068,-0.579 -0.034,-1.287 0.484,-1.69Z" style="fill:#8cabae;fill-rule:nonzero;"/><path d="M483.616,256.974c1.777,-1.528 4.331,-1.423 6.517,-1.131c1.341,0.325 3.002,0.797 3.529,2.229c0.365,1.08 -0.639,2.317 -1.78,2.069c-1.037,-0.317 -1.692,-1.366 -2.764,-1.612c-1.003,-0.144 -2.105,-0.16 -2.945,0.488c0.096,0.463 -0.196,1.179 0.37,1.405c1.822,0.812 3.923,0.807 5.708,1.753c1.171,0.556 2.179,1.724 2.08,3.091c0.149,1.581 -0.896,3.022 -2.248,3.73c-1.637,0.916 -3.599,0.954 -5.409,0.692c-1.479,-0.297 -3.039,-0.832 -3.999,-2.066c-0.677,-0.854 -0.476,-2.386 0.665,-2.731c1.8,-0.317 2.474,1.954 4.117,2.194c0.959,0.341 1.929,-0.022 2.816,-0.397c0.11,-0.282 0.223,-0.562 0.344,-0.84c-0.049,-0.202 -0.145,-0.607 -0.192,-0.811c-2.139,-0.967 -4.635,-0.918 -6.649,-2.18c-1.984,-1.247 -1.965,-4.479 -0.16,-5.883Z" style="fill:#8cabae;fill-rule:nonzero;"/><path d="M516.007,255.804c0.628,-0.201 1.304,-0.06 1.957,-0.044c0.462,0.587 0.622,1.306 0.671,2.039c0.968,-0.664 1.742,-1.669 2.937,-1.948c1.8,-0.397 3.974,-0.279 5.296,1.174c1.301,1.507 1.177,3.626 1.188,5.489c-0.063,2.013 0.127,4.041 -0.129,6.041c-0.24,1.887 -3.67,1.667 -3.652,-0.25c-0.063,-2.298 0.007,-4.599 -0.027,-6.897c-0.014,-0.933 -0.292,-2.033 -1.253,-2.402c-1.614,-0.849 -3.7,0.394 -3.943,2.138c-0.188,2.469 0.096,4.957 -0.13,7.42c-0.352,1.849 -3.689,1.675 -3.681,-0.287c-0.097,-3.292 0.006,-6.594 -0.047,-9.892c0.009,-0.892 -0.072,-2.049 0.813,-2.581Z" style="fill:#8cabae;fill-rule:nonzero;"/><path d="M584.851,256.992c0.124,-1.852 3.499,-1.83 3.635,0.024c0.112,2.375 0,4.763 0.04,7.142c0.003,0.872 0.326,1.858 1.152,2.282c1.553,0.898 3.739,-0.296 4.028,-2.017c0.229,-2.469 -0.075,-4.966 0.145,-7.434c0.145,-1.421 1.969,-1.59 3.005,-1.086c0.752,0.447 0.678,1.439 0.713,2.196c-0.032,3.4 0.045,6.806 -0.03,10.203c0.007,1.733 -2.562,2.061 -3.293,0.631c-0.024,-0.488 -0.039,-0.975 -0.062,-1.462c-0.888,0.897 -1.825,1.861 -3.098,2.17c-1.562,0.361 -3.375,0.259 -4.675,-0.766c-1.103,-0.84 -1.637,-2.259 -1.587,-3.617c0.019,-2.756 -0.05,-5.513 0.027,-8.266Z" style="fill:#8cabae;fill-rule:nonzero;"/><path d="M602.096,257.24c-0.054,-1.411 1.726,-2.017 2.756,-1.282c0.843,0.651 0.642,1.83 0.694,2.767c0.389,-1.165 0.956,-2.458 2.193,-2.926c0.896,-0.221 2.103,-0.265 2.639,0.65c0.725,0.821 0.362,2.202 -0.551,2.716c-0.997,0.399 -2.311,-0.123 -3.11,0.75c-1.085,1.444 -0.823,3.373 -0.873,5.07c-0.072,1.491 0.276,3.072 -0.378,4.478c-0.89,0.308 -2.055,0.688 -2.832,-0.051c-0.651,-0.537 -0.566,-1.474 -0.587,-2.229c0.049,-3.314 -0.047,-6.631 0.049,-9.943Z" style="fill:#8cabae;fill-rule:nonzero;"/><path d="M614.92,256.619c1.802,-1.121 4.047,-1.093 6.075,-0.762c1.359,0.292 2.875,0.867 3.513,2.21c0.405,1.214 -0.862,2.316 -2.031,2.112c-0.92,-0.669 -1.78,-1.663 -2.994,-1.702c-0.813,-0.023 -1.788,-0.125 -2.387,0.545c-0.434,0.367 -0.077,0.962 0.047,1.394c2.229,0.835 4.828,0.805 6.773,2.315c1.612,1.179 1.631,3.698 0.382,5.144c-1.182,1.386 -3.085,1.94 -4.852,1.951c-2.119,0 -4.499,-0.479 -5.91,-2.194c-0.756,-0.818 -0.567,-2.512 0.667,-2.738c1.129,-0.287 1.816,0.805 2.604,1.391c1.025,0.978 2.667,1.202 3.921,0.543c0.761,-0.328 0.895,-1.7 0.025,-1.973c-2.133,-0.901 -4.71,-0.766 -6.547,-2.325c-1.807,-1.55 -1.312,-4.776 0.714,-5.911Z" style="fill:#8cabae;fill-rule:nonzero;"/><path d="M468.983,261.243c2.212,0.047 4.424,0.024 6.64,0.012c-0.242,-1.587 -1.596,-3.067 -3.274,-3.004c-1.689,-0.05 -3.116,1.375 -3.366,2.992ZM466.632,258.174c1.223,-1.703 3.381,-2.516 5.431,-2.499c1.772,-0.094 3.61,0.408 4.965,1.581c1.524,1.308 2.372,3.422 2.027,5.42c-0.118,0.667 -0.939,0.747 -1.482,0.771c-2.898,0.034 -5.803,-0.047 -8.7,0.039c0.107,1.45 0.986,2.899 2.465,3.268c1.196,0.167 2.573,0.203 3.552,-0.631c0.603,-0.389 1.09,-1.111 1.882,-1.086c0.758,-0.054 1.517,0.549 1.565,1.325c0.148,1.017 -0.656,1.847 -1.464,2.324c-2.185,1.264 -4.924,1.457 -7.309,0.699c-1.799,-0.545 -3.309,-1.967 -3.919,-3.75c-0.867,-2.441 -0.561,-5.354 0.987,-7.461Z" style="fill:#8cabae;fill-rule:nonzero;"/><path d="M502.349,259.191c-0.617,0.529 -0.826,1.338 -1.063,2.08c2.199,-0.008 4.397,0 6.596,-0.004c-0.187,-0.836 -0.443,-1.741 -1.166,-2.278c-1.239,-1.053 -3.21,-0.901 -4.367,0.202ZM498.266,259.328c1.03,-2.306 3.543,-3.706 6.032,-3.655c2.174,-0.15 4.449,0.654 5.832,2.387c1.203,1.384 1.507,3.322 1.174,5.085c-0.584,0.159 -1.174,0.322 -1.775,0.31c-2.76,0 -5.522,-0.023 -8.28,0.017c0.105,1.355 0.778,2.796 2.177,3.216c1.218,0.281 2.651,0.292 3.684,-0.521c0.686,-0.427 1.27,-1.246 2.174,-1.133c1.008,-0.016 1.758,1.268 1.303,2.142c-0.471,1.108 -1.562,1.732 -2.648,2.102c-2.962,1.052 -6.75,0.713 -8.888,-1.8c-1.86,-2.237 -1.951,-5.571 -0.785,-8.15Z" style="fill:#8cabae;fill-rule:nonzero;"/><path d="M573.041,258.579c-1.696,0.573 -2.272,2.578 -2.212,4.197c0.022,1.479 0.441,3.317 1.932,3.978c1.237,0.628 2.924,0.22 3.695,-0.953c0.776,-1.208 0.876,-2.712 0.727,-4.1c-0.143,-1.058 -0.559,-2.183 -1.496,-2.781c-0.753,-0.564 -1.777,-0.547 -2.646,-0.341ZM572.21,255.804c1.819,-0.236 3.788,-0.259 5.439,0.661c2.201,1.116 3.383,3.643 3.375,6.043c0.06,2.072 -0.516,4.309 -2.094,5.742c-1.783,1.535 -4.318,1.783 -6.561,1.454c-1.892,-0.283 -3.661,-1.437 -4.515,-3.17c-1.059,-2.305 -1.119,-5.076 -0.022,-7.374c0.839,-1.719 2.509,-2.97 4.378,-3.356Z" style="fill:#8cabae;fill-rule:nonzero;"/><path d="M632.06,261.25c2.224,0.038 4.451,0.021 6.676,0.008c-0.187,-1.715 -1.81,-3.254 -3.585,-2.993c-1.606,0.094 -2.713,1.529 -3.091,2.985ZM632.622,256.119c2.362,-0.767 5.208,-0.675 7.241,0.89c1.88,1.38 2.789,3.838 2.275,6.113c-0.56,0.175 -1.131,0.353 -1.715,0.333c-2.775,-0.005 -5.547,-0.018 -8.319,0.006c-0.019,1.468 0.888,2.924 2.359,3.284c1.184,0.196 2.534,0.193 3.527,-0.589c0.667,-0.449 1.224,-1.282 2.146,-1.1c1.166,0.016 1.731,1.511 1.13,2.419c-0.81,1.345 -2.43,1.86 -3.874,2.182c-2.343,0.411 -4.995,0.128 -6.842,-1.495c-1.655,-1.351 -2.339,-3.593 -2.188,-5.671c-0.005,-2.71 1.61,-5.496 4.26,-6.372Z" style="fill:#8cabae;fill-rule:nonzero;"/></g></svg>