<svg viewBox="0 0 800 800" xmlns="http://www.w3.org/2000/svg" fill-rule="evenodd" clip-rule="evenodd" stroke-linejoin="round" stroke-miterlimit="1.414"><path fill="#dec8ae" d="M1.554 565.815h798.69v77.36H1.554z"/><path d="M303.034 373.228c.873.57 1.043 1.64.405 2.383l-9.34 11.126c-.637.747-1.896.88-2.77.31-.873-.572-1.045-1.637-.406-2.387l9.34-11.123c.638-.747 1.894-.878 2.77-.308" fill="#f3dbbd"/><path d="M280.42 397.81l6.37 5.144 6.315-4.44c3.362-2.363 6.417-11.46 7.886-15.436l-5.692-2.176-11.75 7.407-3.127 9.5z" fill="#e5cfb3"/><path d="M283.75 390.657l.918 1.056 1.016-1.094 8.168-8.77c.918-.988 1.035-1.94.76-2.824-.233-.75-1.257-2.177-1.69-1.708l-9.254 9.975c-.808.87-.772 2.383.082 3.362" fill="#f3dbbd"/><path d="M293.41 377.24c-.178-.202-.32-.096-.394-.02l-1.84 2.018c.907.794 1.96-.1 2.473-1.187.07-.155-.016-.553-.24-.81" fill="#ffe7d4"/><path d="M296.615 392.096c.527.73.34 1.645-.407 2.042l-2.543 1.35c-.747.395-1.794.12-2.32-.607-.528-.723-.344-1.644.405-2.04l2.544-1.347c.748-.398 1.794-.125 2.32.604m2.136-5.074c.61.848.395 1.913-.474 2.374l-2.514 1.332c-.87.46-2.085.142-2.697-.704-.612-.846-.398-1.91.472-2.372l2.514-1.332c.874-.46 2.087-.146 2.7.7" fill="#f3dbbd"/><path d="M296.1 388.39c.485.67.315 1.52-.375 1.883l-.26.138c-.69.366-1.657.116-2.143-.556-.486-.672-.316-1.52.376-1.887l.258-.136c.693-.365 1.658-.112 2.144.56m-1.91 4.932c.446.617.29 1.396-.345 1.73l-.24.127c-.633.332-1.522.102-1.968-.513-.447-.618-.29-1.397.345-1.733l.24-.126c.635-.338 1.522-.105 1.967.512" fill="#ffe7d4"/><path d="M300.733 381.606c.61.846.395 1.912-.473 2.372l-2.515 1.333c-.87.464-2.085.147-2.696-.7-.614-.847-.4-1.91.47-2.372l2.516-1.334c.87-.46 2.083-.144 2.696.703" fill="#f3dbbd"/><path d="M298.083 382.97c.487.673.316 1.522-.374 1.886l-.26.14c-.694.362-1.658.113-2.145-.56-.487-.674-.317-1.52.375-1.886l.26-.137c.694-.365 1.658-.114 2.143.558" fill="#ffe7d4"/><path d="M280.42 397.81l4.533 3.66c2.893-3.253 6.933-10.024 3.12-13.62a8.714 8.714 0 0 0-1.473-1.465l-3.054 1.924-3.126 9.5z" fill="#f3dbbd"/><path d="M147.575 467.357l9.44 4.428 6.184-13.174-9.44-4.426-6.186 13.174z" fill="#f2caa9"/><path d="M160.915 460.92l-9.546-2.113-1.66 7.5-4.766 7.404c3.99 1.768 11.23-.295 10.712 5.625l5.258-18.414z" fill="#f3dbbd"/><path d="M143.45 476.578l6.35-14.127c.525-1.08 1.856-1.51 2.93-.973.102.053.2.112.287.172l.565-1.165c.55-1.127 1.944-1.58 3.07-1.015a2.28 2.28 0 0 1 1.252 1.997 2.468 2.468 0 0 1 1.566.218c1.212.612 1.694 2.094 1.1 3.317l-8.172 14.77-2.3 6.736c-.594 1.218-2.1 1.71-3.314 1.095-1.16-.582-1.094-2.54-.622-3.728-.075-.988-4.072-4.5-2.71-7.297" fill="#f3dbbd"/><path d="M147.18 495.604a1.71 1.71 0 0 1-1.393-1.96l2.825-14.364-.05-.137 3.18 2.12-2.6 12.952c-.146.922-1.04 1.547-1.963 1.39m9.668-9.687c-1-.107-1.72-1.012-1.625-2.014l.526-5.537c.062-2.1-1.64-1.685-2.864.526l-2.975-11.834 5.854-3.89 2.328 4.99c1.633.366 2.01 3.128 1.877 4.507l-1.105 11.62c-.095 1.007-1.015 1.735-2.018 1.63" fill="#f3dbbd"/><path d="M147.4 492.723c-.93.11-1.766-.562-1.89-1.488l-1.358-14.576-.087-.12 3.65 1.135 1.173 13.156c.123.93-.557 1.78-1.488 1.89" fill="#f3dbbd"/><path d="M149.973 492.904c-.87.344-1.853-.092-2.208-.957l-4.48-12.955 3.833 2.04 3.813 9.67c.356.86-.086 1.856-.956 2.202" fill="#f3dbbd"/><path d="M144.327 469.166l16.676 3.975.948-3.836-16.676-3.973-.946 3.837z" fill="#fff"/><path d="M181.756 390.162l-10.97-12.584c-5.247 3.738-8.29 12.154-9.068 15.422l-17.377 72.998c0 .012.01.035.028.037l18.292 4.36c.016 0 .032-.004.038-.018L181.78 390.2c.004-.016-.016-.028-.024-.038m-.81 75.298h15.62a3.917 3.917 0 0 1 3.908 3.905v115.653a3.916 3.916 0 0 1-3.906 3.906h-15.62a3.917 3.917 0 0 1-3.91-3.906V469.365a3.918 3.918 0 0 1 3.91-3.904m26.932 0h15.62a3.917 3.917 0 0 1 3.907 3.905v115.653a3.916 3.916 0 0 1-3.906 3.906h-15.62a3.916 3.916 0 0 1-3.904-3.906V469.365a3.917 3.917 0 0 1 3.905-3.904m19.56-66.26l6.71-21.514c.004-.014 25.793 27.53 29.072 30.84l15.87-15.716c.012-.01.035-.01.046.002l13.247 13.348c.01.008.01.03 0 .04l-24.258 24.026c-4.577 4.528-8.677 1.303-10.504-.55-10.03-10.17-20.12-20.288-30.182-30.43-.01-.013 0-.032 0-.045" fill="#231f20"/><path d="M229.882 476.19c-18.365 5.107-36.732 5.377-55.097 0l-2.972-64.457c-.734-16.013 2.347-15.58-1.026-34.154 7.668-5.447 18.67-9.745 23.332-13.544 2.534 2.23 5.322 3.553 8.196 3.553 2.874 0 5.663-1.323 8.197-3.554 4.707 3.835 15.976 8.123 23.636 13.65-4.36 18.126-.514 18.2-1.295 34.96l-2.974 63.542z" fill="#414042"/><path d="M186.353 369.156l1.782 16.442 14.284 36.26 14.08-36.26 1.782-16.442-6.814-4.38h-18.303l-6.814 4.38z" fill="#fff"/><path fill="#e5cfb3" d="M193.167 358.888h18.14v14.78h-18.14z"/><path d="M202.317 367.59c7.15 0 13.77-8.176 17.26-18.19.203.21.434.342.69.384 1.42.237 3.052-2.436 3.64-5.97.585-3.533-.093-6.587-1.514-6.823a1.073 1.073 0 0 0-.305-.004c.698-12.41-4.448-23.877-19.77-23.877-15.334 0-20.476 11.48-19.77 23.904a1.1 1.1 0 0 0-.462-.022c-1.424.237-2.1 3.29-1.515 6.825.59 3.533 2.22 6.206 3.64 5.97.304-.05.57-.23.8-.513 3.48 10.074 10.128 18.318 17.308 18.318" fill="#f3dbbd"/><path d="M222.09 336.985c.697-12.41-4.45-23.877-19.773-23.877-15.333 0-20.476 11.48-19.77 23.906 1.24.307 2.533 2.58 3.104 5.534 1 .674 1.724.28 1.724-2.222 0-7.384.914-13.93 5.765-15.49 4.615-1.487 5.63 1.773 9.152 1.773 3.523 0 4.634-3.07 9.155-1.776 4.692 1.345 5.763 8.107 5.763 15.49 0 2.403.666 2.862 1.605 2.3.584-3.12 1.978-5.497 3.278-5.64" fill="#3b1911"/><path d="M204.685 382.808l.995-2.103-3.363-8.147-3.304 8.016 1.056 2.234h4.614z" fill="#2c6eb5"/><path d="M193.167 364.775l9.15 7.784-5.135 13.74-8.284-18.695 4.27-2.83z" fill="#ccc"/><path d="M188.898 367.606l13.418 54.45-18.833-30.034 2.473-5.243-5.373-4.287 5.77-13.338 2.545-1.55z" fill="#231f20"/><path d="M211.47 364.775l-9.153 7.784 5.14 13.74 8.28-18.695-4.268-2.83z" fill="#ccc"/><path d="M200.068 387.915h4.616l2.4 23.138-4.767 11.004-4.586-11.004 2.34-23.138z" fill="#2c6eb5"/><path d="M193.167 364.775l9.15 7.784-5.247 10.343-8.172-15.298 4.27-2.83z" fill="#fff"/><path d="M188.898 367.606l13.418 54.45-17.002-32.43 2.82-4.027-5.44-4.23 3.66-12.215 2.544-1.55zm26.84 0l-13.42 54.45 18.835-30.034-2.475-5.243 5.376-4.287-5.77-13.338-2.546-1.55z" fill="#231f20"/><path d="M215.738 367.606l-13.42 54.45 17.003-32.43-2.82-4.027 5.44-4.23-3.656-12.215-2.545-1.55z" fill="#231f20"/><path d="M211.47 364.775l-9.153 7.784 5.25 10.343 8.17-15.298-4.268-2.83z" fill="#fff"/><path d="M200.068 382.426h4.616c1.032 2.136.95 4.008 0 5.834h-4.616c-.95-1.826-1.033-3.698 0-5.834" fill="#2c6eb5"/><path d="M202.678 480.12c-1.798-18.03-2.115-42-.36-62.78 1.755 20.78 2.154 44.75.36 62.78" fill="#231f20"/><path d="M183.148 458.57a2.67 2.67 0 0 1-2.612-2.147l-9.042-45.47a2.668 2.668 0 1 1 5.23-1.043l9.042 45.472a2.667 2.667 0 0 1-2.618 3.188" fill="#062631" fill-rule="nonzero"/><path d="M233.46 613.655H157.4l-5.335-131.02h86.73l-5.334 131.02z" fill="#ccc8c0" fill-rule="nonzero"/><path fill="#e0dcd3" fill-rule="nonzero" d="M132.74 442.298h124.33v58.01H132.74z"/><path d="M164.202 417.26a5.433 5.433 0 0 1-1.437-10.27l26.634-12.608a5.433 5.433 0 0 1 4.647 9.82l-26.635 12.608a5.404 5.404 0 0 1-3.21.45" fill="#162b3b" fill-rule="nonzero"/><path d="M189.83 408.786a10.317 10.317 0 0 1-7.72-5.94c-2.346-5.196-.035-11.308 5.16-13.653l10.14-4.615c5.196-2.346 11.31-.034 13.655 5.16 2.344 5.197.033 11.31-5.163 13.655l-10.14 4.616a10.293 10.293 0 0 1-5.93.775" fill="#23485f" fill-rule="nonzero"/><path d="M178.223 399.658s.008 2.79 1.213 5.268c1.205 2.478 3.428 4.556 3.428 4.556l-2.313 1.095s-2.19-2.08-3.465-4.547c-1.276-2.467-1.137-5.295-1.137-5.295l2.276-1.077z" fill="#e11e26" fill-rule="nonzero"/><path d="M166.8 405.118s.01 2.79 1.214 5.268c1.206 2.478 3.43 4.556 3.43 4.556l-2.315 1.095s-2.193-2.08-3.468-4.546c-1.277-2.465-1.137-5.294-1.137-5.294l2.275-1.077z" fill="#041419" fill-rule="nonzero"/><path d="M39.823 615.717c7.89-1.883 18.886-6.35 20.32.036 1.703 7.59 3.806 25.582 6.015 43.062.475 3.766-4.357 5.72-5.558 6.086-5.378 1.627-9.995 2.133-15.945 2.937l-4.852-52.083c-.004-.016.01-.032.02-.036" fill="#a42c0a"/><path d="M15.853 615.717c-9.97-2.377-17.893-7.922-19.633-.094-1.818 8.196-3.815 26.153-5.922 42.923-.54 4.297 3.936 6.145 5.387 6.52 5.16 1.34 9.61 2 15.334 2.77l4.853-52.083c.002-.016-.015-.036-.02-.036" fill="#bb2408"/><path d="M8.084 666.82l-.258.606c12.28 1.557 27.385 1.58 39.7.084a21.22 21.22 0 0 0-.33-.69H8.082z" fill="#0e3c64"/><path fill="#b88f6d" d="M21.202 597.483h12.925v13.385H21.202z"/><path d="M3.15 666.692c2.722-7.855-3.494-44.626-6.93-51.39 1.953-6.94 19.743-6.236 24.587-10.18 1.044.917 12.09.866 13.153-.068 3.585 2.92 22.75 2.957 25.962 9.898-3.657 7.748-10.36 44.64-7.46 51.705-12.225 2.402-36.733 2.574-49.313.035" fill="#ce2b0b"/><path d="M19.657 597.362h16.347v8.42c-5.38 2.386-13.72 1.43-16.347.117v-8.54z" fill="#b88f6d"/><path d="M34.127 627.86c15.782 0 18.856-51.39 7.93-64.942-5.274-6.55-18.33-8.018-22.51-3.153-12.405 3.966-12.622 50.515-6.057 62.658 3.31 6.12 14.633 5.437 20.637 5.437" fill="#080301"/><path d="M132.065 613.955c7.846-1.873 18.778-6.314 20.202.032 1.694 7.547 3.787 25.434 5.982 42.812.47 3.742-4.333 5.685-5.526 6.05-5.345 1.614-9.936 2.12-15.852 2.916l-4.828-51.78c0-.014.012-.03.02-.032" fill="#0e3c64"/><path d="M108.238 613.955c-9.912-2.364-17.787-7.878-19.516-.096-1.81 8.146-3.795 26-5.888 42.67-.537 4.274 3.912 6.11 5.353 6.48 5.13 1.335 9.554 1.99 15.246 2.756l4.825-51.78c.003-.014-.013-.032-.02-.032" fill="#003663"/><path d="M100.514 664.756l-.258.606c12.21 1.547 27.226 1.57 39.47.082a31.858 31.858 0 0 0-.328-.688h-38.884z" fill="#0e3c64"/><path fill="#b88f6d" d="M113.558 595.827h12.85v13.306h-12.85z"/><path d="M95.61 664.63c2.707-7.81-3.474-44.366-6.89-51.087 1.943-6.9 19.63-6.2 24.443-10.123 1.038.913 12.02.86 13.076-.066 3.56 2.902 22.617 2.94 25.807 9.84-3.633 7.702-10.297 44.376-7.412 51.403-12.155 2.387-36.52 2.557-49.027.033" fill="#003e6e"/><path d="M112.02 595.706h16.252v8.368c-5.35 2.373-13.64 1.425-16.25.12v-8.488z" fill="#b88f6d"/><path d="M120.217 603.502c15.69 0 24.935-28.566 14.074-42.04-5.243-6.51-18.223-7.97-22.376-3.134-18.554 5.933-9.502 45.174 8.304 45.174" fill="#cd880a"/><path d="M129.998 603.356a511.466 511.466 0 0 0 3.75 2.474c-6.446 6.68-22.647 4.59-27.355.317l3.844-2.9c3.838 2.42 12.24 5.293 19.76.11" fill="#565b5f"/><path d="M111.875 602.018c2.54 3.03 14.563 3.012 16.59.28.16.13.774.55 1.534 1.06-7.525 5.182-15.926 2.308-19.765-.11l1.64-1.23z" fill="#e6e6e6"/><path d="M142.136 585.39a6.29 6.29 0 0 0-1.835-4.446 6.284 6.284 0 0 0 1.837-4.443c0-1.94-.898-3.66-2.28-4.813a6.35 6.35 0 0 0 .195-1.486c0-2.52-1.487-4.673-3.623-5.683.06-.356.11-.717.11-1.092a6.302 6.302 0 0 0-12.603 0c0 2.52 1.486 4.674 3.62 5.685-.06.355-.11.717-.11 1.092 0 1.94.9 3.66 2.28 4.814-.114.48-.193.972-.193 1.487a6.28 6.28 0 0 0 1.836 4.444 6.287 6.287 0 0 0-1.836 4.445c0 1.455.514 2.778 1.343 3.845-1.57 1.146-2.603 2.988-2.603 5.082 0 .712.144 1.384.36 2.023-2.23-1.43-4.99-2.286-7.99-2.286-3.004 0-5.764.856-7.997 2.29.013-.174.052-.34.052-.517 0-2.487-1.454-4.617-3.547-5.64 1.003-1.118 1.63-2.577 1.63-4.196 0-2.014-.964-3.79-2.44-4.944a6.266 6.266 0 0 0 1.956-4.545 6.24 6.24 0 0 0-.93-3.255 6.245 6.245 0 0 0 2.04-3.034c2.95-.525 5.19-3.09 5.19-6.19a6.3 6.3 0 0 0-6.3-6.3c-2.84 0-5.21 1.887-6 4.466-2.948.53-5.19 3.093-5.19 6.19a6.24 6.24 0 0 0 .93 3.254c-1.42 1.158-2.345 2.896-2.345 4.87 0 2.017.964 3.792 2.44 4.946a6.264 6.264 0 0 0-1.955 4.545c0 2.49 1.452 4.62 3.543 5.644-1 1.117-1.627 2.578-1.627 4.194 0 1.69.673 3.216 1.756 4.347a6.266 6.266 0 0 0-1.757 4.35c0 1.27.38 2.446 1.03 3.436a6.247 6.247 0 0 0-1.03 3.436 6.303 6.303 0 0 0 6.3 6.303c0 3.48 2.824 6.3 6.304 6.3 2.353 0 4.38-1.306 5.46-3.218a6.3 6.3 0 0 0 12.076-2.515c0-.133-.03-.256-.04-.387a6.303 6.303 0 0 0 8.767-8.742 6.28 6.28 0 0 0 1.915-4.513 6.29 6.29 0 0 0-2.693-5.154 6.287 6.287 0 0 0 2.693-5.153c0-1.455-.515-2.782-1.345-3.846 1.57-1.144 2.604-2.987 2.604-5.08" fill="#cd880a"/><path d="M208.995 614.864c7.893-1.883 18.886-6.352 20.32.035 1.704 7.59 3.81 25.582 6.016 43.06.477 3.767-4.354 5.72-5.555 6.087-5.377 1.626-9.994 2.13-15.945 2.935l-4.856-52.084c0-.016.01-.03.02-.036m-23.968.002c-9.97-2.377-17.892-7.922-19.632-.095-1.82 8.195-3.815 26.152-5.92 42.923-.54 4.295 3.933 6.144 5.382 6.52 5.162 1.338 9.61 1.998 15.336 2.77l4.855-52.085c0-.016-.015-.036-.02-.036" fill="#0a0607"/><path d="M177.256 665.967l-.256.608c12.277 1.556 27.38 1.58 39.698.083a17.12 17.12 0 0 0-.33-.69h-39.112z" fill="#0e3c64"/><path fill="#b88f6d" d="M190.378 596.63H203.3v13.385h-12.92z"/><path d="M172.322 665.84c2.724-7.855-3.492-44.627-6.928-51.39 1.954-6.94 19.745-6.235 24.585-10.18 1.043.917 12.093.866 13.153-.068 3.584 2.92 22.75 2.958 25.96 9.898-3.654 7.748-10.356 44.64-7.458 51.704-12.226 2.403-36.733 2.575-49.314.035" fill="#282729"/><path d="M188.83 596.51h16.348v8.42c-5.38 2.386-13.722 1.43-16.348.117v-8.537z" fill="#b88f6d"/><path d="M197.075 604.352c15.783 0 25.083-28.734 14.157-42.286-5.276-6.55-18.33-8.02-22.51-3.153-18.66 5.966-9.556 45.44 8.353 45.44" fill="#241b16"/><path d="M206.914 604.206a539.497 539.497 0 0 0 3.77 2.488c-6.48 6.717-22.78 4.616-27.514.32l3.868-2.916c3.86 2.43 12.31 5.32 19.876.108" fill="#565b5f"/><path d="M188.685 602.856c2.556 3.05 14.648 3.03 16.69.284.158.13.777.552 1.54 1.066-7.567 5.212-16.017 2.322-19.877-.11l1.647-1.24z" fill="#e6e6e6"/><path d="M697.82 619.453c7.895-1.884 18.888-6.35 20.32.035 1.706 7.59 3.81 25.582 6.02 43.062.473 3.765-4.36 5.72-5.56 6.087-5.376 1.624-9.993 2.13-15.945 2.934l-4.855-52.08c0-.016.014-.032.02-.035m-23.968-.002c-9.97-2.378-17.89-7.923-19.63-.096-1.82 8.196-3.817 26.154-5.924 42.925-.54 4.295 3.936 6.143 5.384 6.52 5.16 1.34 9.61 2 15.337 2.77l4.85-52.084c.004-.016-.012-.035-.02-.035" fill="#0e3c64"/><path d="M666.084 670.555l-.26.608c12.28 1.556 27.386 1.58 39.703.083a21.072 21.072 0 0 0-.33-.69h-39.113z" fill="#0e3c64"/><path fill="#b88f6d" d="M679.203 601.22h12.924v13.383h-12.924z"/><path d="M661.15 670.427c2.722-7.854-3.494-44.626-6.93-51.388 1.954-6.94 19.745-6.238 24.586-10.183 1.046.918 12.094.867 13.155-.068 3.586 2.92 22.75 2.956 25.96 9.9-3.653 7.744-10.36 44.636-7.457 51.702-12.224 2.402-36.732 2.574-49.313.034" fill="#265a88"/><path d="M677.658 601.098h16.347v8.42c-5.38 2.386-13.72 1.43-16.347.117v-8.537z" fill="#b88f6d"/><path d="M685.902 608.94c15.78 0 25.08-28.734 14.156-42.288-5.274-6.55-18.333-8.017-22.51-3.15-18.66 5.964-9.557 45.438 8.354 45.438" fill="#5a3c29"/><path d="M695.74 608.793c1.577 1.056 3.77 2.49 3.77 2.49-6.48 6.718-22.78 4.617-27.513.318l3.867-2.914c3.86 2.432 12.31 5.323 19.877.108" fill="#0e3c64"/><path d="M677.512 607.446c2.556 3.05 14.65 3.03 16.687.283.16.13.777.55 1.54 1.062-7.568 5.215-16.017 2.324-19.876-.11l1.647-1.237z" fill="#e6e6e6"/><path d="M617.975 616.03c7.89-1.88 18.886-6.35 20.32.037 1.703 7.59 3.807 25.582 6.015 43.062.475 3.764-4.357 5.72-5.558 6.085-5.378 1.624-9.995 2.13-15.945 2.934l-4.852-52.084c-.003-.015.01-.032.02-.036m-23.97 0c-9.97-2.376-17.893-7.92-19.634-.093-1.816 8.196-3.812 26.153-5.92 42.923-.54 4.297 3.938 6.146 5.386 6.52 5.16 1.34 9.61 2 15.335 2.77l4.856-52.083c0-.015-.014-.036-.02-.036" fill="#a42c0a"/><path d="M586.235 667.134l-.26.607c12.28 1.56 27.387 1.583 39.7.086a13.35 13.35 0 0 0-.33-.69h-39.11z" fill="#0e3c64"/><path fill="#b88f6d" d="M599.354 597.798h12.925v13.385h-12.927z"/><path d="M581.3 667.007c2.724-7.855-3.492-44.626-6.93-51.39 1.955-6.94 19.745-6.236 24.59-10.18 1.043.917 12.09.867 13.153-.068 3.584 2.917 22.75 2.955 25.96 9.897-3.656 7.747-10.36 44.638-7.46 51.704-12.223 2.403-36.733 2.575-49.312.036" fill="#d95316"/><path d="M597.81 597.677h16.346v8.42c-5.38 2.386-13.72 1.43-16.347.117v-8.537z" fill="#b88f6d"/><path d="M612.278 628.175c15.782 0 18.856-51.39 7.932-64.942-5.276-6.55-18.332-8.018-22.51-3.153-12.407 3.967-12.624 50.515-6.06 62.658 3.312 6.12 14.634 5.437 20.638 5.437" fill="#080301"/><path d="M667.985 667.38c8.5-2.03 20.34-6.842 21.885.036 1.836 8.175 4.1 27.552 6.478 46.377.513 4.057-4.69 6.162-5.983 6.556-5.79 1.75-10.765 2.294-17.173 3.16l-5.23-56.095c-.002-.017.013-.033.023-.037" fill="#005f57"/><path d="M642.173 667.38c-10.74-2.563-19.27-8.534-21.146-.105-1.958 8.827-4.11 28.168-6.375 46.23-.583 4.625 4.236 6.617 5.795 7.022 5.56 1.44 10.35 2.153 16.517 2.983l5.23-56.094c0-.017-.015-.037-.02-.037" fill="#417e7b"/><path d="M633.805 722.415l-.277.656c13.22 1.676 29.49 1.703 42.756.09a22.64 22.64 0 0 0-.356-.744h-42.123z" fill="#0e3c64"/><path fill="#b88f6d" d="M647.935 647.74h13.918v14.415h-13.918z"/><path d="M628.49 722.277c2.93-8.46-3.764-48.063-7.463-55.345 2.106-7.474 21.266-6.717 26.48-10.967 1.126.988 13.025.934 14.166-.07 3.86 3.143 24.503 3.184 27.96 10.658-3.938 8.345-11.155 48.078-8.032 55.686-13.166 2.585-39.56 2.772-53.11.036" fill="#498c89"/><path d="M646.268 647.61h17.606v9.066c-5.792 2.572-14.777 1.54-17.606.127v-9.194z" fill="#b88f6d"/><path d="M655.148 656.055c16.997 0 27.013-30.945 15.245-45.54-5.682-7.056-19.74-8.636-24.244-3.396-20.098 6.422-10.29 48.934 8.997 48.934" fill="#cd880a"/><path d="M665.745 655.898a506.46 506.46 0 0 0 4.06 2.68c-6.983 7.234-24.535 4.973-29.634.343l4.168-3.14c4.158 2.62 13.26 5.734 21.408.12" fill="#005f57"/><path d="M646.11 654.448c2.755 3.284 15.78 3.26 17.974.304.172.14.84.594 1.66 1.146-8.15 5.615-17.25 2.503-21.407-.117l1.774-1.33z" fill="#417e7b"/><path d="M776 623.13c7.892-1.885 18.887-6.353 20.32.033 1.703 7.59 3.807 25.584 6.015 43.064.475 3.765-4.356 5.72-5.557 6.086-5.378 1.625-9.995 2.13-15.944 2.935l-4.854-52.085c-.002-.014.01-.03.02-.034" fill="#7c405d"/><path d="M752.03 623.13c-9.97-2.378-17.892-7.923-19.633-.096-1.818 8.196-3.814 26.153-5.92 42.924-.542 4.296 3.935 6.144 5.384 6.52 5.16 1.34 9.61 1.998 15.337 2.77l4.855-52.085c.003-.014-.013-.034-.02-.034" fill="#b5b7b8"/><path d="M744.26 674.23l-.257.608c12.28 1.557 27.385 1.582 39.7.084a18.52 18.52 0 0 0-.33-.69H744.26z" fill="#0e3c64"/><path fill="#b88f6d" d="M757.382 604.895h12.922v13.385h-12.922z"/><path d="M739.326 674.103c2.724-7.855-3.492-44.626-6.93-51.39 1.956-6.94 19.746-6.235 24.59-10.18 1.044.917 12.09.866 13.152-.068 3.584 2.92 22.75 2.958 25.96 9.898-3.654 7.748-10.36 44.64-7.458 51.705-12.225 2.402-36.734 2.574-49.314.035" fill="#894967"/><path d="M755.835 604.773h16.347v8.42c-5.38 2.387-13.72 1.43-16.347.118v-8.536z" fill="#b88f6d"/><path d="M770.304 635.273c15.782 0 18.86-51.39 7.933-64.943-5.276-6.55-18.33-8.02-22.51-3.154-12.407 3.966-12.626 50.516-6.06 62.66 3.312 6.12 14.636 5.437 20.637 5.437" fill="#080301"/><path d="M735.974 670.263c8.33-1.985 19.934-6.7 21.445.038 1.797 8.015 4.02 27 6.347 45.45.5 3.974-4.597 6.035-5.863 6.422-5.676 1.717-10.55 2.252-16.83 3.1l-5.12-54.97c-.004-.016.01-.032.02-.037m-25.298-.002c-10.52-2.507-18.88-8.36-20.72-.1-1.917 8.65-4.023 27.6-6.248 45.3-.57 4.536 4.154 6.487 5.685 6.883 5.444 1.41 10.14 2.108 16.182 2.923l5.124-54.97c0-.017-.017-.038-.025-.038" fill="#0a0607"/><path d="M702.478 724.194l-.272.645c12.957 1.64 28.9 1.666 41.896.084a17.134 17.134 0 0 0-.347-.73h-41.278z" fill="#0e3c64"/><path fill="#b88f6d" d="M716.323 651.02h13.64v14.126h-13.64z"/><path d="M697.27 724.062c2.875-8.293-3.685-47.1-7.312-54.236 2.063-7.324 20.837-6.582 25.95-10.744 1.1.97 12.76.914 13.88-.072 3.783 3.082 24.008 3.122 27.4 10.45-3.858 8.173-10.935 47.108-7.872 54.565-12.902 2.536-38.77 2.716-52.045.037" fill="#282729"/><path d="M714.692 650.893h17.252v8.887c-5.678 2.516-14.478 1.51-17.252.122v-9.01z" fill="#b88f6d"/><path d="M729.963 683.078c16.657 0 19.9-54.234 8.37-68.537-5.566-6.91-19.346-8.46-23.756-3.325-13.093 4.185-13.32 53.313-6.394 66.125 3.494 6.46 15.445 5.738 21.78 5.738" fill="#241b16"/><path d="M302.05 613.082c7.895-1.883 18.887-6.35 20.32.035 1.706 7.59 3.81 25.584 6.017 43.064.475 3.767-4.356 5.72-5.557 6.088-5.376 1.625-9.994 2.13-15.945 2.934l-4.855-52.083c0-.015.013-.03.02-.036" fill="#0e3c64"/><path d="M278.083 613.082c-9.97-2.377-17.893-7.922-19.633-.094-1.82 8.196-3.816 26.153-5.922 42.924-.538 4.296 3.936 6.144 5.384 6.52 5.16 1.338 9.61 1.998 15.336 2.77l4.854-52.085c.002-.014-.014-.035-.02-.035" fill="#003663"/><path d="M270.314 664.185l-.26.608c12.28 1.556 27.384 1.58 39.702.083a23.53 23.53 0 0 0-.33-.69h-39.113z" fill="#0e3c64"/><path fill="#b88f6d" d="M283.434 594.85h12.923v13.384h-12.923z"/><path d="M265.38 664.058c2.722-7.855-3.494-44.626-6.93-51.39 1.954-6.94 19.746-6.235 24.587-10.18 1.045.917 12.093.866 13.154-.068 3.586 2.92 22.75 2.958 25.96 9.898-3.653 7.748-10.357 44.64-7.456 51.705-12.226 2.402-36.733 2.574-49.314.035" fill="#003e6e"/><path d="M281.888 594.728h16.346v8.418c-5.38 2.388-13.72 1.432-16.346.12v-8.54z" fill="#b88f6d"/><path d="M290.13 602.57c15.784 0 25.082-28.734 14.158-42.287-5.274-6.55-18.333-8.02-22.51-3.152-18.66 5.967-9.558 45.44 8.353 45.44" fill="#5a3c29"/><path d="M299.97 602.424a539.497 539.497 0 0 0 3.77 2.488c-6.48 6.718-22.78 4.617-27.513.32l3.867-2.916c3.86 2.43 12.31 5.32 19.877.108" fill="#003663"/><path d="M281.74 601.075c2.557 3.05 14.65 3.03 16.69.284.16.13.777.55 1.54 1.063-7.566 5.213-16.016 2.323-19.876-.11l1.647-1.24z" fill="#e6e6e6"/><path d="M381.548 613.082c7.89-1.883 18.887-6.35 20.32.035 1.702 7.59 3.807 25.584 6.016 43.064.474 3.767-4.357 5.72-5.56 6.088-5.376 1.625-9.994 2.13-15.943 2.934l-4.852-52.083c-.003-.015.012-.03.02-.036m-23.97-.002c-9.97-2.377-17.892-7.922-19.633-.094-1.818 8.196-3.815 26.153-5.92 42.924-.54 4.296 3.935 6.144 5.385 6.52 5.16 1.338 9.61 1.998 15.334 2.77l4.855-52.085c0-.014-.017-.035-.023-.035" fill="#b5b7b8"/><path d="M349.808 664.185l-.258.608c12.28 1.556 27.385 1.58 39.7.083a16.39 16.39 0 0 0-.33-.69h-39.112z" fill="#0e3c64"/><path fill="#b88f6d" d="M362.928 594.85h12.924v13.384h-12.924z"/><path d="M344.874 664.058c2.723-7.855-3.493-44.626-6.93-51.39 1.955-6.94 19.745-6.235 24.59-10.18 1.043.917 12.09.866 13.152-.068 3.584 2.92 22.75 2.958 25.96 9.898-3.654 7.748-10.36 44.64-7.458 51.705-12.226 2.402-36.734 2.574-49.314.035" fill="#d5d6d6"/><path d="M361.383 594.728h16.346v8.418c-5.38 2.388-13.72 1.432-16.348.12v-8.54z" fill="#b88f6d"/><path d="M375.852 625.226c15.782 0 18.857-51.39 7.93-64.942-5.274-6.55-18.33-8.02-22.51-3.153-12.405 3.968-12.622 50.518-6.057 62.66 3.31 6.12 14.633 5.437 20.637 5.437" fill="#cd880a"/><path d="M250.052 663.846c8.808-2.104 21.085-7.09 22.685.04 1.902 8.473 4.25 28.56 6.716 48.074.53 4.204-4.865 6.384-6.205 6.793-6.004 1.816-11.158 2.382-17.8 3.278l-5.42-58.144c-.003-.018.013-.036.024-.04" fill="#dac2a4"/><path d="M223.29 663.846c-11.13-2.653-19.974-8.846-21.917-.106-2.03 9.15-4.26 29.197-6.61 47.92-.603 4.796 4.393 6.86 6.012 7.28 5.76 1.492 10.728 2.23 17.12 3.09l5.42-58.145c0-.018-.016-.04-.024-.04" fill="#bb2408"/><path d="M214.618 720.897l-.288.68c13.707 1.734 30.573 1.763 44.322.09-.128-.277-.25-.533-.37-.77h-43.664z" fill="#0e3c64"/><path fill="#b88f6d" d="M229.264 643.488h14.43v14.942h-14.43z"/><path d="M209.108 720.754c3.04-8.77-3.9-49.82-7.735-57.37 2.182-7.75 22.044-6.964 27.45-11.368 1.166 1.025 13.5.968 14.686-.075 3.996 3.26 25.392 3.304 28.98 11.05-4.08 8.65-11.568 49.84-8.326 57.727-13.65 2.68-41.013 2.874-55.057.038" fill="#ce2b0b"/><path d="M227.54 643.352h18.247v9.4c-6.004 2.666-15.315 1.6-18.246.132v-9.532z" fill="#b88f6d"/><path d="M254.736 651.94c4.665-10.317 9.54-36.013-2.658-51.142-5.89-7.312-20.465-8.953-25.13-3.52-13.85 4.43-16.048 43.562-8.72 57.117 3.697 6.833 29.155 13.812 36.508-2.454" fill="#cd880a"/><path d="M696.903 720.576c9.11-2.176 21.81-7.336 23.464.042 1.97 8.767 4.398 29.544 6.95 49.73.55 4.35-5.03 6.606-6.418 7.03-6.214 1.876-11.547 2.463-18.418 3.39l-5.604-60.15c-.004-.02.01-.04.023-.042m-27.682 0c-11.514-2.745-20.662-9.148-22.673-.11-2.1 9.465-4.405 30.204-6.84 49.574-.622 4.96 4.546 7.096 6.22 7.53 5.96 1.545 11.1 2.31 17.712 3.198l5.606-60.15c.002-.02-.014-.042-.025-.042" fill="#a3040b"/><path d="M660.247 779.594l-.3.704c14.182 1.794 31.63 1.823 45.85.094-.13-.287-.257-.55-.382-.798h-45.168z" fill="#0e3c64"/><path fill="#b88f6d" d="M675.397 699.518h14.926v15.458h-14.926z"/><path d="M654.547 779.447c3.146-9.072-4.033-51.54-8.002-59.35 2.26-8.015 22.804-7.202 28.397-11.758 1.207 1.057 13.963 1 15.19-.08 4.14 3.373 26.27 3.416 29.983 11.43-4.222 8.95-11.965 51.557-8.615 59.716-14.117 2.773-42.424 2.972-56.953.04" fill="#894967"/><path d="M673.613 699.377h18.878v9.724c-6.21 2.76-15.84 1.654-18.876.138v-9.86z" fill="#b88f6d"/><path d="M701.747 708.262c4.825-10.674 9.87-37.254-2.75-52.905-6.093-7.564-21.172-9.26-25.996-3.64-14.325 4.58-16.6 45.063-9.017 59.084 3.825 7.07 30.16 14.29 37.765-2.537" fill="#cd880a"/><path d="M341.237 663.846c8.81-2.104 21.084-7.09 22.684.04 1.904 8.475 4.253 28.56 6.72 48.074.53 4.204-4.865 6.386-6.205 6.795-6.004 1.816-11.16 2.38-17.8 3.276l-5.42-58.144c-.003-.018.01-.034.023-.04" fill="#0a0607"/><path d="M314.476 663.846c-11.13-2.653-19.974-8.846-21.918-.106-2.03 9.15-4.26 29.197-6.61 47.92-.604 4.798 4.392 6.862 6.01 7.28 5.763 1.492 10.73 2.23 17.122 3.09l5.418-58.145c.003-.018-.016-.04-.022-.04" fill="#7c405d"/><path d="M305.802 720.897l-.287.68c13.706 1.734 30.572 1.763 44.32.092a19.25 19.25 0 0 0-.368-.775h-43.665z" fill="#0e3c64"/><path fill="#b88f6d" d="M320.45 643.488h14.428v14.942H320.45z"/><path d="M300.294 720.754c3.04-8.77-3.9-49.82-7.736-57.37 2.183-7.75 22.043-6.964 27.45-11.368 1.167 1.026 13.5.968 14.684-.075 4 3.26 25.398 3.304 28.983 11.054-4.08 8.647-11.566 49.835-8.326 57.723-13.65 2.682-41.013 2.874-55.057.038" fill="#894967"/><path d="M318.724 643.354h18.25v9.4c-6.007 2.662-15.316 1.598-18.25.13v-9.53z" fill="#b88f6d"/><path d="M334.877 677.4c17.62 0 21.053-57.37 8.855-72.5-5.89-7.312-20.464-8.953-25.13-3.52-13.852 4.427-14.094 56.396-6.765 69.95 3.697 6.835 16.338 6.07 23.04 6.07" fill="#241b16"/><path d="M78.155 665.223c8.81-2.103 21.084-7.09 22.684.04 1.9 8.476 4.25 28.56 6.715 48.075.53 4.204-4.864 6.386-6.204 6.795-6.003 1.815-11.16 2.38-17.8 3.276l-5.42-58.15c-.002-.017.01-.033.024-.04m-26.76.003c-11.13-2.652-19.974-8.845-21.92-.106-2.027 9.15-4.26 29.198-6.61 47.922-.602 4.795 4.394 6.86 6.013 7.277 5.762 1.492 10.73 2.23 17.12 3.09l5.42-58.146c.002-.017-.017-.04-.023-.04" fill="#0a0607"/><path d="M42.72 722.274l-.286.68c13.706 1.735 30.572 1.763 44.32.093-.125-.28-.248-.535-.368-.773H42.72z" fill="#0e3c64"/><path fill="#b88f6d" d="M57.368 644.866h14.428v14.942H57.368z"/><path d="M37.212 722.132c3.04-8.77-3.9-49.82-7.736-57.37 2.183-7.75 22.043-6.964 27.45-11.368 1.166 1.026 13.5.967 14.684-.075 4 3.26 25.398 3.3 28.983 11.05-4.08 8.647-11.566 49.834-8.326 57.722-13.65 2.683-41.012 2.874-55.055.04" fill="#282729"/><path d="M55.643 644.73h18.25v9.4c-6.007 2.664-15.316 1.598-18.25.13v-9.53z" fill="#b88f6d"/><path d="M71.796 678.78c17.62 0 21.053-57.373 8.855-72.503-5.89-7.312-20.462-8.952-25.13-3.52-13.85 4.428-14.092 56.397-6.763 69.95 3.697 6.836 16.338 6.072 23.04 6.072" fill="#200"/><path d="M461.042 613.082c7.893-1.883 18.886-6.35 20.32.035 1.704 7.59 3.81 25.584 6.016 43.064.475 3.767-4.356 5.72-5.558 6.088-5.376 1.625-9.993 2.13-15.944 2.934l-4.855-52.083c0-.015.013-.03.023-.036m-23.97-.002c-9.97-2.377-17.892-7.922-19.632-.094-1.817 8.196-3.813 26.153-5.92 42.924-.54 4.296 3.935 6.144 5.384 6.52 5.162 1.338 9.61 1.998 15.336 2.77l4.854-52.085c0-.014-.015-.035-.02-.035" fill="#0a0607"/><path d="M429.303 664.185l-.256.608c12.277 1.556 27.382 1.58 39.697.083-.11-.25-.22-.478-.328-.69h-39.113z" fill="#0e3c64"/><path fill="#b88f6d" d="M442.425 594.85h12.923v13.384h-12.923z"/><path d="M424.368 664.058c2.725-7.855-3.49-44.626-6.927-51.39 1.956-6.94 19.746-6.235 24.587-10.18 1.045.917 12.095.866 13.154-.068 3.585 2.92 22.75 2.958 25.96 9.898-3.652 7.748-10.354 44.64-7.457 51.705-12.225 2.402-36.732 2.574-49.314.035" fill="#894967"/><path d="M440.877 594.728h16.348v8.418c-5.38 2.388-13.722 1.432-16.348.12v-8.54z" fill="#b88f6d"/><path d="M449.122 602.57c15.782 0 25.083-28.734 14.156-42.287-5.275-6.55-18.33-8.02-22.51-3.152-18.66 5.967-9.555 45.44 8.354 45.44" fill="#080301"/><path d="M458.96 602.424a539.497 539.497 0 0 0 3.77 2.488c-6.48 6.718-22.78 4.617-27.514.32l3.868-2.916c3.86 2.43 12.31 5.32 19.876.108" fill="#7c405d"/><path d="M440.73 601.075c2.557 3.05 14.65 3.03 16.69.284.16.13.778.55 1.54 1.063-7.566 5.213-16.016 2.323-19.876-.11l1.647-1.24z" fill="#e6e6e6"/><path d="M427.913 659.548c8.967-2.14 21.454-7.214 23.084.04 1.937 8.622 4.327 29.06 6.834 48.917.54 4.278-4.947 6.497-6.312 6.914-6.107 1.844-11.35 2.42-18.113 3.332l-5.513-59.165c-.002-.018.013-.035.023-.04" fill="#a42c0a"/><path d="M400.686 659.548c-11.327-2.7-20.326-9-22.302-.108-2.066 9.31-4.333 29.71-6.725 48.76-.615 4.88 4.47 6.98 6.11 7.408 5.865 1.52 10.918 2.27 17.423 3.145l5.515-59.165c0-.018-.017-.04-.024-.04" fill="#bb2408"/><path d="M391.86 717.6l-.292.69c13.946 1.765 31.105 1.796 45.097.093a20.42 20.42 0 0 0-.375-.784h-44.43z" fill="#0e3c64"/><path fill="#b88f6d" d="M406.766 638.835h14.68v15.203h-14.68z"/><path d="M386.254 717.453c3.093-8.923-3.967-50.693-7.87-58.376 2.22-7.884 22.43-7.083 27.93-11.565 1.187 1.042 13.737.984 14.94-.077 4.074 3.317 25.845 3.36 29.49 11.245-4.15 8.8-11.763 50.708-8.47 58.733-13.89 2.73-41.728 2.926-56.02.04" fill="#ce2b0b"/><path d="M405.007 638.697h18.57v9.564c-6.11 2.713-15.585 1.626-18.57.135v-9.697z" fill="#b88f6d"/><path d="M414.372 647.606c17.93 0 28.493-32.64 16.083-48.035-5.993-7.44-20.824-9.11-25.572-3.58-21.195 6.776-10.855 51.616 9.49 51.616" fill="#5a3c29"/><path d="M425.55 647.44a647.01 647.01 0 0 0 4.28 2.827c-7.36 7.63-25.875 5.244-31.253.36l4.394-3.31c4.387 2.76 13.985 6.044 22.58.123" fill="#bb2408"/><path d="M404.84 645.91c2.903 3.463 16.643 3.44 18.958.32.183.15.886.627 1.752 1.21-8.596 5.92-18.194 2.638-22.58-.124l1.87-1.407z" fill="#e6e6e6"/><path d="M165.7 663.552c8.967-2.14 21.455-7.215 23.084.04 1.937 8.622 4.328 29.06 6.834 48.917.54 4.276-4.948 6.495-6.313 6.91-6.107 1.848-11.352 2.423-18.113 3.336l-5.514-59.165c-.003-.017.013-.034.023-.04m-27.227.002c-11.326-2.7-20.325-9-22.3-.108-2.067 9.31-4.334 29.71-6.726 48.76-.613 4.88 4.47 6.98 6.113 7.407 5.864 1.52 10.917 2.27 17.422 3.148l5.515-59.165c0-.018-.017-.04-.024-.04" fill="#a42c0a"/><path d="M129.65 721.603l-.294.69c13.946 1.765 31.105 1.796 45.096.093a19.77 19.77 0 0 0-.374-.784h-44.43z" fill="#0e3c64"/><path fill="#b88f6d" d="M144.553 642.838h14.678v15.204h-14.676z"/><path d="M124.042 721.457c3.093-8.923-3.967-50.693-7.87-58.376 2.22-7.882 22.43-7.08 27.93-11.564 1.186 1.042 13.737.985 14.94-.077 4.073 3.316 25.845 3.36 29.49 11.245-4.15 8.798-11.763 50.708-8.47 58.733-13.89 2.73-41.728 2.926-56.02.04" fill="#894967"/><path d="M142.794 642.7h18.57v9.565c-6.11 2.71-15.585 1.624-18.57.133V642.7z" fill="#b88f6d"/><path d="M152.16 651.61c17.93 0 28.493-32.642 16.083-48.037-5.994-7.44-20.825-9.11-25.573-3.58-21.195 6.776-10.854 51.616 9.49 51.616" fill="#080301"/><path d="M163.337 651.443a622.47 622.47 0 0 0 4.28 2.828c-7.36 7.63-25.874 5.246-31.252.36l4.393-3.31c4.385 2.763 13.983 6.046 22.58.124" fill="#7c405d"/><path d="M142.628 649.913c2.902 3.464 16.64 3.44 18.957.32.183.15.885.628 1.75 1.21-8.594 5.922-18.192 2.64-22.577-.123l1.87-1.407z" fill="#e6e6e6"/><path d="M547.062 613.082c7.893-1.883 18.888-6.35 20.32.035 1.704 7.59 3.808 25.584 6.017 43.064.473 3.767-4.36 5.72-5.56 6.088-5.376 1.625-9.99 2.13-15.944 2.934l-4.856-52.083c0-.015.015-.03.022-.036m-23.968-.002c-9.97-2.377-17.892-7.922-19.63-.094-1.823 8.196-3.817 26.153-5.925 42.924-.54 4.296 3.935 6.144 5.383 6.52 5.162 1.338 9.61 1.998 15.337 2.77l4.854-52.085c.003-.014-.014-.035-.02-.035" fill="#0a0607"/><path d="M515.324 664.185l-.26.608c12.28 1.556 27.388 1.58 39.703.083a19.32 19.32 0 0 0-.33-.69h-39.113z" fill="#0e3c64"/><path fill="#b88f6d" d="M528.445 594.85h12.925v13.384h-12.925z"/><path d="M510.39 664.058c2.726-7.855-3.492-44.626-6.927-51.39 1.954-6.94 19.745-6.235 24.587-10.18 1.044.917 12.092.866 13.153-.068 3.584 2.92 22.75 2.958 25.96 9.898-3.655 7.748-10.358 44.64-7.457 51.705-12.225 2.402-36.734 2.574-49.315.035" fill="#282729"/><path d="M526.9 594.728h16.345v8.418c-5.38 2.388-13.72 1.432-16.346.12v-8.54z" fill="#b88f6d"/><path d="M535.146 602.57c15.78 0 25.08-28.734 14.155-42.287-5.274-6.55-18.33-8.02-22.51-3.152-18.662 5.967-9.556 45.44 8.357 45.44" fill="#cd880a"/><path d="M544.98 602.424a572 572 0 0 0 3.772 2.488c-6.482 6.718-22.78 4.617-27.513.32l3.865-2.916c3.86 2.43 12.31 5.32 19.875.108" fill="#565b5f"/><path d="M526.753 601.075c2.558 3.05 14.65 3.03 16.688.284.16.13.78.55 1.543 1.063-7.567 5.213-16.016 2.323-19.875-.11l1.646-1.24z" fill="#e6e6e6"/><path d="M508.635 662.81c8.965-2.138 21.453-7.214 23.08.04 1.94 8.625 4.33 29.063 6.836 48.918.54 4.278-4.947 6.498-6.31 6.913-6.11 1.85-11.352 2.425-18.113 3.337l-5.515-59.166c0-.015.01-.033.025-.04m-27.23 0c-11.33-2.698-20.325-8.998-22.302-.106-2.065 9.308-4.335 29.71-6.725 48.76-.616 4.88 4.467 6.98 6.113 7.406 5.865 1.52 10.917 2.27 17.42 3.146l5.516-59.165c0-.015-.018-.04-.023-.04" fill="#0e3c64"/><path d="M472.58 720.86l-.293.692c13.948 1.766 31.106 1.795 45.098.095a17.4 17.4 0 0 0-.375-.786h-44.43z" fill="#0e3c64"/><path fill="#b88f6d" d="M487.486 642.098h14.68v15.204h-14.68z"/><path d="M466.976 720.717c3.094-8.923-3.968-50.694-7.87-58.375 2.22-7.884 22.43-7.085 27.93-11.567 1.185 1.043 13.738.985 14.942-.076 4.07 3.314 25.843 3.36 29.486 11.243-4.15 8.798-11.76 50.708-8.47 58.733-13.887 2.728-41.726 2.925-56.018.04" fill="#003e6e"/><path d="M485.727 641.96h18.57v9.564c-6.11 2.712-15.587 1.625-18.57.133v-9.696z" fill="#b88f6d"/><path d="M495.094 650.87c17.928 0 28.493-32.643 16.08-48.037-5.99-7.44-20.823-9.108-25.57-3.58-21.197 6.776-10.855 51.616 9.49 51.616" fill="#5a3c29"/><path d="M506.27 650.703c1.79 1.2 4.283 2.826 4.283 2.826-7.366 7.63-25.878 5.245-31.256.36l4.393-3.313c4.387 2.765 13.985 6.046 22.58.125" fill="#003663"/><path d="M485.564 649.172c2.9 3.464 16.64 3.442 18.956.322.18.148.883.626 1.75 1.21-8.595 5.92-18.193 2.64-22.58-.126l1.873-1.406z" fill="#e6e6e6"/><path d="M192.21 715.607c9.79-2.337 23.423-7.877 25.203.042 2.112 9.412 4.722 31.727 7.46 53.403.59 4.672-5.402 7.095-6.893 7.55-6.667 2.015-12.394 2.644-19.773 3.64l-6.023-64.595c-.002-.02.015-.04.025-.043" fill="#003663"/><path d="M162.484 715.607c-12.364-2.95-22.188-9.826-24.346-.118-2.26 10.16-4.732 32.432-7.345 53.23-.67 5.33 4.88 7.62 6.676 8.09 6.4 1.66 11.916 2.477 19.02 3.433l6.02-64.595c.002-.02-.02-.043-.027-.043" fill="#0e3c64"/><path d="M152.85 778.983l-.324.756c15.23 1.93 33.963 1.957 49.24.1a26.59 26.59 0 0 0-.41-.858H152.85z" fill="#0e3c64"/><path fill="#b88f6d" d="M169.12 692.993h16.028v16.598H169.12z"/><path d="M146.73 778.826c3.377-9.744-4.332-55.347-8.592-63.732 2.422-8.61 24.486-7.736 30.49-12.627 1.297 1.137 15 1.073 16.316-.085 4.442 3.62 28.21 3.67 32.195 12.275-4.535 9.607-12.85 55.362-9.253 64.124-15.162 2.984-45.555 3.195-61.16.047" fill="#003e6e"/><path d="M167.204 692.843h20.274v10.438c-6.673 2.963-17.016 1.78-20.274.15v-10.586z" fill="#b88f6d"/><path d="M177.427 702.568c19.574 0 31.106-35.637 17.558-52.444-6.54-8.122-22.736-9.947-27.918-3.91-23.142 7.4-11.85 56.354 10.36 56.354" fill="#5a3c29"/><path d="M189.63 702.388a709.51 709.51 0 0 0 4.676 3.085c-8.037 8.332-28.253 5.727-34.123.394l4.796-3.615c4.785 3.016 15.265 6.6 24.65.136" fill="#003663"/><path d="M167.022 700.715c3.17 3.783 18.167 3.758 20.698.354.197.16.963.68 1.91 1.317-9.383 6.463-19.864 2.88-24.65-.136l2.042-1.536z" fill="#e6e6e6"/><path d="M376.61 714.506c9.79-2.336 23.422-7.876 25.2.043 2.116 9.41 4.727 31.726 7.463 53.403.59 4.672-5.402 7.095-6.893 7.55-6.667 2.013-12.394 2.643-19.776 3.64l-6.02-64.595c0-.022.013-.04.026-.044m-29.725.002c-12.368-2.948-22.19-9.826-24.35-.118-2.256 10.164-4.732 32.433-7.342 53.233-.67 5.33 4.88 7.623 6.676 8.09 6.4 1.66 11.917 2.48 19.017 3.434l6.022-64.594c0-.022-.02-.044-.026-.044" fill="#0a0607"/><path d="M337.25 777.882l-.323.755c15.228 1.93 33.963 1.96 49.236.102-.136-.31-.277-.594-.407-.86h-48.508z" fill="#0e3c64"/><path fill="#b88f6d" d="M353.523 691.89h16.025v16.6h-16.025z"/><path d="M331.13 777.725c3.375-9.743-4.334-55.347-8.595-63.734 2.425-8.605 24.49-7.732 30.492-12.623 1.296 1.138 15 1.073 16.314-.084 4.448 3.62 28.217 3.67 32.197 12.275-4.53 9.607-12.842 55.36-9.247 64.123-15.163 2.983-45.558 3.194-61.16.046" fill="#282729"/><path d="M351.6 691.742h20.275v10.44c-6.67 2.96-17.015 1.775-20.274.146v-10.586z" fill="#b88f6d"/><path d="M361.827 701.467c19.573 0 31.108-35.636 17.56-52.444-6.545-8.122-22.74-9.946-27.92-3.91-23.14 7.4-11.85 56.354 10.36 56.354" fill="#cd880a"/><path d="M374.03 701.285a765.482 765.482 0 0 0 4.674 3.087c-8.037 8.33-28.252 5.727-34.124.395l4.796-3.618c4.79 3.015 15.268 6.6 24.653.134" fill="#565b5f"/><path d="M351.42 699.614c3.17 3.78 18.17 3.757 20.7.353.197.16.963.68 1.91 1.318-9.386 6.465-19.864 2.88-24.653-.136l2.044-1.537z" fill="#e6e6e6"/><path d="M39.15 718.673c9.79-2.336 23.422-7.876 25.2.043 2.116 9.414 4.726 31.73 7.463 53.405.588 4.674-5.402 7.097-6.892 7.55-6.666 2.015-12.393 2.645-19.775 3.64l-6.02-64.593a.044.044 0 0 1 .026-.043m-29.725 0c-12.368-2.95-22.19-9.827-24.35-.118-2.256 10.163-4.732 32.432-7.342 53.232-.67 5.328 4.88 7.62 6.676 8.087 6.4 1.662 11.917 2.48 19.017 3.435l6.022-64.594c0-.02-.02-.043-.026-.043" fill="#0a0607"/><path d="M-.21 782.05l-.322.754c15.228 1.93 33.963 1.96 49.236.102a22.203 22.203 0 0 0-.407-.857H-.21z" fill="#0e3c64"/><path fill="#b88f6d" d="M16.063 696.06H32.09v16.598H16.062z"/><path d="M-6.33 781.892c3.375-9.743-4.334-55.346-8.595-63.733 2.425-8.61 24.49-7.737 30.492-12.628 1.296 1.138 15 1.074 16.314-.083 4.448 3.62 28.217 3.67 32.198 12.273-4.532 9.607-12.842 55.36-9.248 64.123-15.163 2.982-45.558 3.193-61.16.045" fill="#d5d6d6"/><path d="M14.14 695.91h20.275v10.438c-6.67 2.96-17.015 1.776-20.274.148V695.91z" fill="#b88f6d"/><path d="M24.367 705.635c19.573 0 31.108-35.637 17.56-52.445-6.545-8.12-22.74-9.946-27.92-3.91-23.14 7.4-11.85 56.355 10.36 56.355" fill="#cd880a"/><path d="M36.57 705.453a796.677 796.677 0 0 0 4.674 3.086c-8.037 8.33-28.252 5.725-34.124.393l4.796-3.618c4.79 3.018 15.268 6.6 24.653.137" fill="#565b5f"/><path d="M13.96 703.78c3.17 3.782 18.17 3.76 20.7.354.197.16.963.68 1.91 1.32-9.386 6.463-19.864 2.88-24.653-.138l2.044-1.535z" fill="#e6e6e6"/><path d="M291.497 716.03c10.056-2.4 24.067-8.093 25.894.044 2.173 9.673 4.853 32.6 7.667 54.876.606 4.8-5.55 7.29-7.08 7.756-6.854 2.07-12.738 2.717-20.32 3.74l-6.185-66.372a.048.048 0 0 1 .027-.045m-30.55 0c-12.703-3.03-22.798-10.097-25.02-.122-2.316 10.443-4.858 33.328-7.542 54.698-.688 5.476 5.015 7.83 6.86 8.31 6.577 1.707 12.248 2.547 19.544 3.53l6.186-66.372c.002-.02-.02-.045-.027-.045" fill="#a42c0a"/><path d="M251.05 781.15l-.328.776c15.646 1.982 34.897 2.014 50.59.106a25.31 25.31 0 0 0-.42-.882h-49.84z" fill="#0e3c64"/><path fill="#b88f6d" d="M267.77 692.793h16.468v17.055h-16.47z"/><path d="M244.763 780.988c3.468-10.012-4.45-56.87-8.832-65.487 2.494-8.843 25.164-7.947 31.336-12.973 1.33 1.17 15.41 1.105 16.763-.085 4.565 3.72 28.99 3.77 33.082 12.613-4.657 9.872-13.202 56.886-9.504 65.89-15.58 3.063-46.813 3.28-62.843.045" fill="#d95316"/><path d="M265.8 692.64h20.83v10.728c-6.853 3.04-17.48 1.824-20.83.15v-10.88z" fill="#b88f6d"/><path d="M270.733 717.873c18.43 0 36.827 2.78 21.98-12.56-8.905-9.2 9.99-31.196-5.962-50.142-6.582-7.817-22.28-9.74-27.354-3.827-15.077 4.82-15.342 32.213-7.364 46.967 4.872 9.006-29.79 19.563 18.703 19.563" fill="#5a3c29"/><path d="M783.15 722.373c10.055-2.398 24.066-8.092 25.893.045 2.173 9.673 4.853 32.6 7.667 54.876.606 4.8-5.55 7.29-7.082 7.757-6.854 2.07-12.737 2.72-20.32 3.74l-6.184-66.37c-.005-.02.015-.04.027-.046m-30.546 0c-12.706-3.03-22.8-10.096-25.02-.12-2.314 10.442-4.86 33.327-7.544 54.697-.688 5.478 5.015 7.83 6.863 8.31 6.574 1.71 12.244 2.548 19.54 3.53l6.186-66.37c.002-.02-.017-.046-.028-.046" fill="#a42c0a"/><path d="M742.703 787.495l-.327.776c15.645 1.983 34.895 2.016 50.59.108a26.23 26.23 0 0 0-.42-.882h-49.843z" fill="#0e3c64"/><path fill="#b88f6d" d="M759.424 699.138h16.468v17.055h-16.468z"/><path d="M736.416 787.333c3.47-10.012-4.452-56.87-8.83-65.487 2.49-8.844 25.16-7.947 31.334-12.974 1.33 1.168 15.407 1.104 16.76-.086 4.567 3.72 28.99 3.77 33.084 12.613-4.66 9.87-13.202 56.883-9.506 65.887-15.58 3.063-46.814 3.28-62.842.045" fill="#ce2b0b"/><path d="M757.454 698.982h20.83v10.73c-6.856 3.04-17.484 1.824-20.83.15v-10.88z" fill="#b88f6d"/><path d="M762.387 724.217c18.425 0 36.826 2.782 21.98-12.56-8.905-9.198 9.99-31.195-5.963-50.14-6.584-7.82-22.28-9.744-27.358-3.83-15.076 4.82-15.34 32.213-7.362 46.967 4.874 9.007-29.792 19.563 18.703 19.563" fill="#080301"/><path d="M463.924 714.65c9.787-2.335 23.426-7.875 25.2.044 2.115 9.414 4.725 31.727 7.463 53.406.588 4.67-5.402 7.094-6.892 7.55-6.667 2.014-12.392 2.644-19.775 3.64l-6.022-64.596c0-.02.018-.04.026-.044m-29.726 0c-12.365-2.947-22.19-9.824-24.348-.118-2.26 10.166-4.732 32.436-7.345 53.235-.666 5.328 4.88 7.62 6.676 8.086 6.407 1.66 11.923 2.48 19.024 3.436l6.02-64.597c.003-.02-.017-.044-.025-.044" fill="#b5b7b8"/><path d="M424.564 778.027l-.322.755c15.228 1.93 33.963 1.962 49.238.103-.142-.308-.278-.59-.41-.858h-48.507z" fill="#0e3c64"/><path fill="#b88f6d" d="M440.835 692.038h16.03v16.598h-16.03z"/><path d="M418.443 777.87c3.38-9.744-4.33-55.347-8.593-63.733 2.424-8.608 24.487-7.734 30.493-12.627 1.294 1.137 14.996 1.075 16.313-.084 4.444 3.622 28.215 3.67 32.195 12.275-4.53 9.61-12.843 55.363-9.245 64.128-15.163 2.98-45.557 3.192-61.16.042" fill="#d5d6d6"/><path d="M438.916 691.887h20.273v10.44c-6.674 2.96-17.014 1.776-20.275.147v-10.587z" fill="#b88f6d"/><path d="M449.143 701.612c19.572 0 31.106-35.636 17.56-52.444-6.546-8.122-22.74-9.946-27.92-3.91-23.145 7.4-11.854 56.354 10.36 56.354" fill="#241b16"/><path d="M461.344 701.43c1.957 1.31 4.68 3.088 4.68 3.088-8.043 8.33-28.254 5.725-34.124.394l4.792-3.615c4.788 3.016 15.267 6.6 24.652.133" fill="#565b5f"/><path d="M438.734 699.76c3.173 3.782 18.17 3.756 20.697.352.2.162.968.68 1.914 1.318-9.384 6.467-19.864 2.883-24.652-.133l2.044-1.537z" fill="#e6e6e6"/><path d="M476.487 679.017a7.836 7.836 0 0 0-2.292-5.546 7.824 7.824 0 0 0 2.292-5.542c0-2.423-1.12-4.563-2.848-6.007a7.76 7.76 0 0 0 .243-1.853c0-3.142-1.856-5.83-4.52-7.09.077-.445.138-.894.138-1.36a7.864 7.864 0 0 0-7.86-7.863 7.86 7.86 0 0 0-7.86 7.863c0 3.14 1.852 5.83 4.517 7.09a7.62 7.62 0 0 0-.137 1.36c0 2.424 1.12 4.565 2.847 6.008a7.708 7.708 0 0 0-.245 1.853 7.83 7.83 0 0 0 2.29 5.544 7.842 7.842 0 0 0-2.29 5.547c0 1.814.642 3.467 1.675 4.8-1.96 1.427-3.248 3.723-3.248 6.336 0 .888.18 1.73.45 2.526-2.784-1.786-6.23-2.852-9.97-2.852-3.746 0-7.19 1.068-9.977 2.854.018-.217.066-.424.066-.644 0-3.103-1.814-5.76-4.423-7.04 1.25-1.39 2.03-3.212 2.03-5.23 0-2.515-1.202-4.73-3.04-6.17a7.823 7.823 0 0 0 2.437-5.67c0-1.49-.44-2.87-1.16-4.06a7.824 7.824 0 0 0 2.55-3.784c3.677-.658 6.473-3.86 6.473-7.723 0-4.34-3.52-7.862-7.863-7.862-3.54 0-6.497 2.357-7.482 5.576-3.68.656-6.476 3.855-6.476 7.72 0 1.492.44 2.87 1.16 4.06-1.77 1.442-2.925 3.613-2.925 6.074 0 2.517 1.204 4.732 3.045 6.172-1.498 1.43-2.443 3.434-2.443 5.67 0 3.1 1.815 5.757 4.424 7.037-1.248 1.392-2.03 3.212-2.03 5.23 0 2.106.84 4.01 2.19 5.422a7.827 7.827 0 0 0-2.19 5.424c0 1.585.476 3.055 1.283 4.288a7.806 7.806 0 0 0-1.284 4.287 7.86 7.86 0 0 0 7.862 7.86 7.86 7.86 0 0 0 7.86 7.865c2.935 0 5.466-1.63 6.816-4.014a7.858 7.858 0 0 0 15.064-3.136c0-.166-.038-.32-.05-.484a7.82 7.82 0 0 0 4.432 1.37 7.862 7.862 0 0 0 6.504-12.276 7.82 7.82 0 0 0 2.387-5.63c0-2.664-1.33-5.006-3.36-6.43a7.835 7.835 0 0 0 3.36-6.43c0-1.815-.64-3.468-1.672-4.798 1.957-1.43 3.247-3.73 3.247-6.34" fill="#241b16"/><path d="M119.402 716.607c9.787-2.335 23.425-7.875 25.2.043 2.115 9.415 4.724 31.728 7.463 53.407.588 4.67-5.403 7.093-6.892 7.55-6.667 2.014-12.393 2.643-19.775 3.64l-6.022-64.597c0-.018.018-.038.026-.043m-29.725 0c-12.366-2.947-22.19-9.824-24.348-.118-2.26 10.163-4.735 32.434-7.347 53.233-.667 5.328 4.882 7.62 6.676 8.086 6.403 1.66 11.92 2.477 19.02 3.435l6.02-64.596c.004-.02-.016-.044-.024-.044" fill="#b5b7b8"/><path d="M80.042 779.984l-.32.755c15.227 1.93 33.962 1.96 49.237.1a34.95 34.95 0 0 0-.41-.857H80.04z" fill="#0e3c64"/><path fill="#b88f6d" d="M96.313 693.995h16.03v16.598h-16.03z"/><path d="M73.922 779.826c3.38-9.743-4.332-55.346-8.593-63.732 2.422-8.608 24.485-7.734 30.49-12.627 1.295 1.136 14.997 1.075 16.314-.085 4.444 3.622 28.215 3.67 32.195 12.276-4.533 9.61-12.846 55.36-9.248 64.125-15.163 2.98-45.558 3.193-61.16.043" fill="#d5d6d6"/><path d="M94.395 693.843h20.273v10.44c-6.672 2.96-17.013 1.777-20.273.148v-10.586z" fill="#b88f6d"/><path d="M104.62 703.57c19.573 0 31.107-35.637 17.56-52.446-6.545-8.12-22.738-9.945-27.92-3.91-23.144 7.4-11.853 56.355 10.36 56.355" fill="#241b16"/><path d="M116.822 703.387c1.957 1.31 4.68 3.087 4.68 3.087-8.044 8.332-28.254 5.726-34.124.394l4.792-3.614c4.788 3.016 15.267 6.6 24.652.133" fill="#565b5f"/><path d="M94.213 701.716c3.173 3.782 18.17 3.757 20.697.353.198.16.966.68 1.912 1.316-9.385 6.466-19.864 2.883-24.652-.133l2.043-1.538z" fill="#e6e6e6"/><path d="M131.966 680.974a7.834 7.834 0 0 0-2.292-5.546 7.826 7.826 0 0 0 2.292-5.544c0-2.424-1.122-4.563-2.848-6.007a7.768 7.768 0 0 0 .245-1.855c0-3.14-1.856-5.83-4.52-7.09.077-.444.138-.894.138-1.36a7.863 7.863 0 0 0-7.86-7.862 7.86 7.86 0 0 0-7.86 7.862c0 3.142 1.853 5.83 4.517 7.09a7.65 7.65 0 0 0-.137 1.36c0 2.425 1.12 4.566 2.845 6.008a7.773 7.773 0 0 0-.244 1.854c0 2.166.877 4.123 2.29 5.544a7.84 7.84 0 0 0-2.29 5.546c0 1.814.644 3.467 1.677 4.798-1.96 1.43-3.248 3.726-3.248 6.338 0 .89.18 1.73.452 2.527-2.784-1.786-6.23-2.853-9.97-2.853-3.746 0-7.19 1.07-9.977 2.855.018-.22.066-.426.066-.646 0-3.104-1.813-5.76-4.423-7.04 1.25-1.392 2.032-3.212 2.032-5.23 0-2.515-1.205-4.73-3.043-6.17a7.818 7.818 0 0 0 2.438-5.67c0-1.492-.44-2.87-1.16-4.06a7.824 7.824 0 0 0 2.55-3.784c3.677-.658 6.472-3.858 6.472-7.723 0-4.34-3.52-7.862-7.862-7.862-3.54 0-6.497 2.356-7.483 5.575-3.677.656-6.474 3.855-6.474 7.72 0 1.492.44 2.87 1.16 4.06-1.77 1.442-2.926 3.612-2.926 6.074 0 2.517 1.204 4.732 3.045 6.17-1.5 1.433-2.443 3.437-2.443 5.672 0 3.102 1.814 5.758 4.424 7.037-1.248 1.394-2.03 3.214-2.03 5.232 0 2.105.84 4.01 2.19 5.42a7.83 7.83 0 0 0-2.19 5.426c0 1.587.476 3.057 1.283 4.29a7.8 7.8 0 0 0-1.284 4.286 7.862 7.862 0 0 0 7.863 7.863 7.86 7.86 0 0 0 7.86 7.86c2.935 0 5.466-1.627 6.816-4.012a7.857 7.857 0 0 0 7.203 4.723 7.86 7.86 0 0 0 7.86-7.86c0-.165-.038-.32-.05-.483a7.816 7.816 0 0 0 4.43 1.37 7.863 7.863 0 0 0 6.506-12.275 7.824 7.824 0 0 0 2.387-5.63c0-2.663-1.332-5.006-3.36-6.43a7.838 7.838 0 0 0 3.36-6.43c0-1.814-.64-3.467-1.674-4.797 1.957-1.43 3.247-3.73 3.247-6.34" fill="#241b16"/><path d="M588.493 668.874c8.81-2.104 21.086-7.09 22.684.04 1.904 8.473 4.252 28.56 6.715 48.074.53 4.205-4.863 6.385-6.203 6.794-6.007 1.815-11.16 2.382-17.803 3.278l-5.417-58.146a.04.04 0 0 1 .023-.04m-26.763 0c-11.128-2.652-19.973-8.845-21.917-.106-2.03 9.15-4.258 29.198-6.61 47.92-.603 4.796 4.393 6.86 6.013 7.28 5.76 1.493 10.727 2.23 17.12 3.092l5.42-58.146c0-.02-.015-.04-.025-.04" fill="#a3040b"/><path d="M553.06 725.925l-.29.68c13.71 1.736 30.572 1.765 44.322.09-.126-.276-.25-.53-.37-.77H553.06z" fill="#0e3c64"/><path fill="#b88f6d" d="M567.706 648.518h14.428v14.94h-14.428z"/><path d="M547.55 725.784c3.04-8.772-3.9-49.823-7.736-57.372 2.18-7.75 22.045-6.964 27.45-11.367 1.166 1.023 13.498.967 14.685-.075 4 3.257 25.395 3.3 28.982 11.05-4.082 8.647-11.567 49.836-8.327 57.724-13.65 2.68-41.012 2.873-55.056.04" fill="#ce2b0b"/><path d="M565.98 648.38h18.25v9.4c-6.005 2.666-15.316 1.6-18.25.133v-9.533z" fill="#b88f6d"/><path d="M576.275 667.525c16.927 0 33.83 2.556 20.19-11.537-8.18-8.45 9.178-28.658-5.477-46.062-6.047-7.182-20.464-8.95-25.13-3.518-13.85 4.43-14.094 29.59-6.763 43.146 4.475 8.275-27.368 17.97 17.18 17.97" fill="#241b16"/><path d="M542.357 715.405c9.463-2.26 22.65-7.615 24.367.042 2.046 9.104 4.57 30.683 7.216 51.644.57 4.518-5.224 6.863-6.664 7.3-6.45 1.953-11.988 2.557-19.124 3.524l-5.818-62.466c-.005-.018.012-.038.023-.042" fill="#005f57"/><path d="M513.61 715.405c-11.958-2.852-21.458-9.5-23.545-.114-2.182 9.83-4.576 31.367-7.103 51.48-.647 5.154 4.72 7.37 6.46 7.82 6.188 1.606 11.525 2.397 18.39 3.324l5.82-62.466c.005-.018-.013-.042-.023-.042" fill="#417e7b"/><path d="M504.293 776.69l-.31.73c14.724 1.868 32.842 1.895 47.612.1a22.93 22.93 0 0 0-.396-.83H504.29z" fill="#0e3c64"/><path fill="#b88f6d" d="M520.027 693.537h15.5v16.054h-15.5z"/><path d="M498.373 776.54c3.267-9.42-4.187-53.52-8.308-61.63 2.344-8.325 23.68-7.48 29.487-12.212 1.253 1.102 14.502 1.04 15.775-.08 4.298 3.5 27.283 3.548 31.133 11.872-4.38 9.29-12.423 53.534-8.943 62.008-14.663 2.88-44.056 3.088-59.144.04" fill="#498c89"/><path d="M518.172 693.393h19.604v10.096c-6.45 2.863-16.453 1.715-19.604.14v-10.24z" fill="#b88f6d"/><path d="M535.527 729.97c18.925 0 22.614-61.633 9.513-77.886-6.33-7.854-21.986-9.616-26.998-3.78-14.88 4.756-15.14 60.582-7.266 75.142 3.97 7.342 17.55 6.523 24.75 6.523" fill="#cd880a"/><path d="M621.407 719.48c9.79-2.334 23.424-7.874 25.2.044 2.115 9.415 4.726 31.728 7.462 53.407.587 4.673-5.404 7.097-6.893 7.55-6.668 2.016-12.396 2.646-19.776 3.64l-6.02-64.595c0-.018.016-.038.026-.043m-29.726-.002c-12.364-2.946-22.19-9.823-24.347-.117-2.258 10.167-4.732 32.436-7.344 53.235-.67 5.328 4.88 7.62 6.673 8.086 6.403 1.66 11.92 2.478 19.022 3.436l6.02-64.596c.003-.018-.017-.043-.026-.043" fill="#0a0607"/><path d="M582.046 782.858l-.323.756c15.23 1.93 33.965 1.96 49.24.103a28.66 28.66 0 0 0-.412-.86h-48.503z" fill="#0e3c64"/><path fill="#b88f6d" d="M598.317 696.868h16.025v16.6h-16.025z"/><path d="M575.925 782.7c3.38-9.743-4.33-55.347-8.592-63.73 2.423-8.61 24.488-7.736 30.49-12.63 1.298 1.138 15 1.077 16.317-.083 4.444 3.622 28.212 3.67 32.194 12.274-4.53 9.61-12.847 55.365-9.25 64.13-15.163 2.98-45.555 3.19-61.16.04" fill="#282729"/><path d="M596.4 696.717h20.27v10.44c-6.67 2.962-17.01 1.778-20.27.15v-10.59z" fill="#b88f6d"/><path d="M606.623 706.443c19.575 0 31.105-35.635 17.56-52.445-6.543-8.12-22.74-9.944-27.92-3.91-23.143 7.4-11.852 56.355 10.36 56.355" fill="#5a3c29"/><path d="M618.826 706.262a612.034 612.034 0 0 0 4.676 3.086c-8.037 8.332-28.253 5.727-34.122.395l4.794-3.615c4.79 3.016 15.267 6.6 24.652.134" fill="#0a0607"/><path d="M596.218 704.59c3.17 3.783 18.17 3.757 20.697.353.2.16.966.682 1.91 1.32-9.383 6.464-19.862 2.88-24.65-.135l2.043-1.537z" fill="#e6e6e6"/><path d="M242.415 759.833c9.667-2.307 23.13-7.778 24.886.043 2.09 9.295 4.666 31.33 7.37 52.738.58 4.613-5.336 7.005-6.807 7.453-6.582 1.992-12.238 2.612-19.525 3.595l-5.946-63.786c-.002-.02.017-.038.026-.043m-29.358 0c-12.21-2.91-21.912-9.702-24.043-.116-2.23 10.036-4.672 32.03-7.253 52.57-.66 5.26 4.82 7.525 6.592 7.984 6.323 1.64 11.77 2.448 18.783 3.393l5.942-63.786c.006-.02-.015-.043-.023-.043" fill="#7c405d"/><path fill="#b88f6d" d="M219.613 737.5h15.827v16.394h-15.827z"/><path d="M197.502 822.262c3.333-9.62-4.278-54.655-8.486-62.935 2.394-8.5 24.182-7.64 30.11-12.47 1.28 1.124 14.813 1.062 16.11-.083 4.39 3.576 27.86 3.623 31.794 12.123-4.475 9.487-12.687 54.67-9.134 63.322-14.973 2.94-44.986 3.15-60.394.04" fill="#894967"/><path d="M217.72 737.353h20.02v10.312c-6.59 2.92-16.802 1.75-20.02.143v-10.456z" fill="#b88f6d"/><path d="M227.817 746.957c19.328 0 30.717-35.19 17.337-51.788-6.46-8.024-22.45-9.82-27.57-3.86-22.85 7.303-11.704 55.646 10.233 55.646" fill="#241b16"/><path d="M239.867 746.778a646.81 646.81 0 0 0 4.617 3.05c-7.936 8.225-27.9 5.654-33.696.388l4.736-3.57c4.727 2.977 15.076 6.517 24.343.132" fill="#7c405d"/><path d="M217.54 745.128c3.13 3.734 17.94 3.71 20.44.348.195.158.952.673 1.886 1.302-9.267 6.385-19.615 2.845-24.343-.132l2.017-1.518z" fill="#e6e6e6"/><path d="M412.785 759.833c9.663-2.307 23.13-7.778 24.886.043 2.09 9.295 4.663 31.33 7.368 52.738.582 4.613-5.334 7.005-6.807 7.453-6.584 1.992-12.24 2.612-19.526 3.595l-5.943-63.786c-.002-.02.013-.038.026-.043m-29.356 0c-12.21-2.91-21.913-9.702-24.047-.116-2.225 10.036-4.67 32.03-7.25 52.57-.662 5.26 4.82 7.525 6.595 7.984 6.318 1.64 11.77 2.448 18.78 3.393l5.948-63.786c0-.02-.02-.043-.026-.043" fill="#417e7b"/><path fill="#b88f6d" d="M389.98 737.5h15.83v16.394h-15.83z"/><path d="M367.87 822.262c3.336-9.62-4.277-54.655-8.487-62.935 2.397-8.5 24.183-7.64 30.114-12.47 1.28 1.124 14.81 1.062 16.11-.083 4.388 3.576 27.86 3.623 31.793 12.123-4.476 9.487-12.687 54.67-9.133 63.322-14.975 2.94-44.99 3.15-60.396.04" fill="#498c89"/><path d="M388.088 737.353h20.02v10.312c-6.588 2.92-16.8 1.75-20.02.143v-10.456z" fill="#b88f6d"/><path d="M405.81 774.703c19.327 0 23.093-62.937 9.712-79.534-6.46-8.024-22.45-9.82-27.567-3.863-15.194 4.857-15.46 61.867-7.42 76.737 4.054 7.497 17.922 6.658 25.275 6.658" fill="#080301"/><path d="M582.487 759.833c9.666-2.307 23.132-7.778 24.887.043 2.088 9.295 4.664 31.33 7.368 52.738.583 4.613-5.335 7.005-6.808 7.453-6.584 1.992-12.236 2.612-19.525 3.595l-5.948-63.786c-.003-.02.014-.038.024-.043m-29.352 0c-12.21-2.91-21.912-9.702-24.044-.116-2.23 10.036-4.673 32.03-7.253 52.57-.66 5.26 4.82 7.525 6.593 7.984 6.322 1.64 11.77 2.448 18.782 3.393l5.944-63.786c.005-.02-.016-.043-.022-.043" fill="#7c405d"/><path fill="#b88f6d" d="M559.686 737.5h15.83v16.394h-15.83z"/><path d="M537.575 822.262c3.337-9.62-4.278-54.655-8.485-62.935 2.392-8.5 24.18-7.64 30.11-12.47 1.28 1.124 14.812 1.062 16.11-.083 4.388 3.576 27.862 3.623 31.794 12.123-4.476 9.487-12.685 54.67-9.133 63.322-14.97 2.94-44.986 3.15-60.394.04" fill="#894967"/><path d="M557.792 737.353h20.02v10.312c-6.587 2.92-16.8 1.75-20.02.143v-10.456z" fill="#b88f6d"/><path d="M567.892 746.957c19.327 0 30.716-35.19 17.338-51.788-6.462-8.024-22.453-9.82-27.57-3.86-22.856 7.303-11.703 55.646 10.232 55.646" fill="#d54110"/><path d="M579.94 746.778a646.81 646.81 0 0 0 4.617 3.05c-7.94 8.225-27.897 5.654-33.696.388l4.737-3.57c4.728 2.977 15.075 6.517 24.344.132" fill="#565b5f"/><path d="M557.613 745.128c3.133 3.734 17.942 3.71 20.44.348.195.158.952.673 1.887 1.302-9.268 6.385-19.616 2.845-24.344-.132l2.017-1.518z" fill="#e6e6e6"/><path d="M747.193 759.64c9.693-2.313 23.2-7.8 24.96.043 2.095 9.325 4.676 31.425 7.39 52.896.583 4.624-5.353 7.025-6.828 7.474-6.603 1.995-12.272 2.62-19.585 3.605l-5.963-63.978c-.003-.02.016-.037.026-.042m-29.443 0c-12.245-2.92-21.978-9.732-24.113-.118-2.24 10.068-4.69 32.128-7.276 52.727-.66 5.277 4.835 7.545 6.616 8.006 6.34 1.647 11.805 2.456 18.837 3.403l5.96-63.978c.005-.02-.015-.042-.02-.042" fill="#003663"/><path fill="#b88f6d" d="M724.322 737.242H740.2v16.44h-15.88z"/><path d="M702.146 822.253c3.346-9.648-4.29-54.817-8.51-63.12 2.4-8.526 24.253-7.662 30.202-12.51 1.282 1.13 14.854 1.066 16.157-.08 4.4 3.584 27.943 3.632 31.888 12.157-4.49 9.516-12.725 54.832-9.162 63.512-15.012 2.95-45.12 3.162-60.574.04" fill="#003e6e"/><path d="M722.425 737.094h20.077v10.34c-6.606 2.93-16.85 1.76-20.077.146v-10.486z" fill="#b88f6d"/><path d="M732.554 746.727c19.383 0 30.807-35.296 17.39-51.945-6.485-8.043-22.52-9.848-27.654-3.87-22.924 7.328-11.737 55.815 10.264 55.815" fill="#5a3c29"/><path d="M744.638 746.547c1.937 1.295 4.632 3.056 4.632 3.056-7.965 8.254-27.984 5.672-33.797.39l4.748-3.58c4.744 2.988 15.123 6.537 24.42.134" fill="#565b5f"/><path d="M722.244 744.89c3.142 3.747 17.995 3.723 20.5.35.194.16.955.675 1.894 1.307-9.296 6.404-19.675 2.854-24.417-.134l2.025-1.522z" fill="#e6e6e6"/><path d="M759.634 724.346a7.753 7.753 0 0 0-2.27-5.492 7.752 7.752 0 0 0 2.27-5.49c0-2.4-1.11-4.522-2.818-5.95.143-.59.24-1.2.24-1.838 0-3.11-1.836-5.773-4.474-7.02a7.88 7.88 0 0 0 .133-1.35 7.788 7.788 0 0 0-7.784-7.788 7.79 7.79 0 0 0-7.787 7.787c0 3.112 1.84 5.776 4.478 7.024a7.67 7.67 0 0 0-.136 1.345c0 2.4 1.11 4.524 2.82 5.95-.144.59-.24 1.2-.24 1.838a7.75 7.75 0 0 0 2.267 5.49 7.75 7.75 0 0 0-2.267 5.492c0 1.8.633 3.434 1.658 4.752-1.94 1.416-3.217 3.69-3.217 6.278 0 .88.18 1.713.448 2.503-2.757-1.77-6.167-2.828-9.875-2.828s-7.12 1.06-9.88 2.83c.02-.215.066-.42.066-.64 0-3.073-1.795-5.704-4.38-6.97 1.236-1.38 2.01-3.184 2.01-5.182 0-2.49-1.19-4.685-3.012-6.11a7.748 7.748 0 0 0 2.417-5.616c0-1.478-.436-2.845-1.15-4.022a7.758 7.758 0 0 0 2.523-3.75c3.643-.65 6.413-3.818 6.413-7.648 0-4.3-3.486-7.786-7.785-7.786-3.506 0-6.436 2.333-7.412 5.52-3.643.65-6.41 3.82-6.41 7.648a7.71 7.71 0 0 0 1.146 4.02c-1.755 1.43-2.897 3.578-2.897 6.018 0 2.49 1.19 4.686 3.01 6.11a7.748 7.748 0 0 0-2.415 5.616c0 3.074 1.796 5.703 4.38 6.972-1.237 1.38-2.012 3.183-2.012 5.18 0 2.087.833 3.975 2.17 5.372a7.75 7.75 0 0 0-2.17 5.372c0 1.57.474 3.023 1.273 4.247a7.73 7.73 0 0 0-1.274 4.248c0 4.3 3.488 7.786 7.788 7.786 0 4.3 3.486 7.787 7.787 7.787 2.91 0 5.413-1.612 6.75-3.975 1.203 2.752 3.94 4.68 7.133 4.68a7.788 7.788 0 0 0 7.79-7.788c0-.165-.04-.316-.05-.478a7.746 7.746 0 0 0 4.388 1.357 7.787 7.787 0 0 0 6.44-12.16 7.74 7.74 0 0 0 2.368-5.576c0-2.637-1.32-4.96-3.326-6.37 2.007-1.407 3.327-3.727 3.327-6.367 0-1.798-.636-3.434-1.66-4.753 1.94-1.414 3.215-3.69 3.215-6.277" fill="#5a3c29"/><path d="M82.038 761.79c10.053-2.397 24.064-8.09 25.89.046 2.174 9.673 4.855 32.6 7.668 54.876.607 4.8-5.55 7.29-7.082 7.757-6.853 2.067-12.737 2.714-20.32 3.74l-6.184-66.375c-.004-.02.015-.04.028-.045m-30.548 0c-12.706-3.028-22.8-10.094-25.02-.12-2.315 10.443-4.86 33.33-7.545 54.7-.688 5.475 5.016 7.83 6.864 8.31 6.572 1.705 12.242 2.545 19.54 3.53l6.184-66.374c.004-.02-.015-.045-.026-.045" fill="#bb2408"/><path fill="#b88f6d" d="M58.31 738.556h16.467v17.055H58.31z"/><path d="M35.302 826.75c3.47-10.012-4.453-56.87-8.83-65.486 2.49-8.844 25.16-7.947 31.333-12.975 1.33 1.167 15.408 1.103 16.76-.087 4.568 3.72 28.99 3.77 33.085 12.612-4.66 9.87-13.203 56.886-9.506 65.89-15.58 3.062-46.814 3.28-62.842.044" fill="#ce2b0b"/><path d="M56.34 738.4h20.828v10.73c-6.855 3.04-17.482 1.823-20.83.15V738.4z" fill="#b88f6d"/><path d="M61.273 763.635c18.425 0 36.826 2.782 21.98-12.56-8.905-9.198 9.988-31.195-5.963-50.14-6.584-7.82-22.28-9.744-27.358-3.83-15.077 4.82-15.342 32.213-7.363 46.967 4.872 9.006-29.794 19.563 18.702 19.563" fill="#080301"/><path d="M663.374 759.833c9.663-2.307 23.13-7.778 24.885.043 2.085 9.295 4.662 31.33 7.365 52.738.58 4.613-5.334 7.005-6.807 7.453-6.587 1.994-12.24 2.612-19.527 3.595l-5.944-63.786c-.003-.02.014-.04.026-.043m-29.354 0c-12.21-2.91-21.91-9.702-24.045-.118-2.226 10.038-4.672 32.03-7.25 52.57-.664 5.262 4.818 7.527 6.595 7.986 6.318 1.64 11.77 2.448 18.78 3.393l5.946-63.786c0-.02-.02-.043-.026-.043" fill="#bb2408"/><path fill="#b88f6d" d="M640.57 737.5h15.828v16.394h-15.83z"/><path d="M618.46 822.262c3.334-9.62-4.28-54.655-8.487-62.935 2.395-8.5 24.182-7.64 30.113-12.47 1.28 1.124 14.808 1.062 16.108-.083 4.39 3.576 27.86 3.623 31.796 12.123-4.476 9.487-12.688 54.67-9.135 63.322-14.975 2.94-44.99 3.15-60.396.04" fill="#ce2b0b"/><path d="M638.677 737.353h20.02v10.312c-6.588 2.92-16.8 1.75-20.02.143v-10.456z" fill="#b88f6d"/><path d="M656.398 774.705c19.327 0 23.094-62.938 9.714-79.536-6.46-8.024-22.452-9.82-27.568-3.86-15.195 4.854-15.46 61.864-7.42 76.734 4.053 7.497 17.92 6.66 25.274 6.66" fill="#241b16"/><path d="M497.114 759.795c9.667-2.307 23.13-7.778 24.885.043 2.086 9.295 4.664 31.33 7.366 52.738.582 4.613-5.334 7.005-6.805 7.453-6.584 1.99-12.24 2.61-19.526 3.593l-5.947-63.786c0-.02.012-.038.026-.043m-29.353 0c-12.214-2.91-21.913-9.7-24.044-.115-2.228 10.034-4.673 32.027-7.25 52.567-.662 5.26 4.817 7.526 6.59 7.985 6.324 1.64 11.77 2.446 18.784 3.39l5.944-63.785c.002-.02-.016-.043-.025-.043" fill="#0a0607"/><path fill="#b88f6d" d="M474.313 737.462h15.826v16.394H474.31z"/><path d="M452.2 822.224c3.336-9.62-4.276-54.655-8.484-62.935 2.392-8.503 24.18-7.64 30.11-12.47 1.28 1.122 14.812 1.06 16.11-.085 4.39 3.576 27.863 3.623 31.792 12.123-4.474 9.486-12.68 54.67-9.132 63.32-14.973 2.943-44.988 3.154-60.396.044" fill="#282729"/><path d="M472.418 737.315h20.02v10.312c-6.586 2.92-16.802 1.75-20.02.143v-10.456z" fill="#b88f6d"/><path d="M482.516 746.92c19.327 0 30.72-35.19 17.338-51.79-6.462-8.02-22.45-9.82-27.57-3.86-22.852 7.306-11.702 55.65 10.232 55.65" fill="#cd880a"/><path d="M494.565 746.74a729.988 729.988 0 0 0 4.618 3.05c-7.938 8.225-27.9 5.654-33.696.388l4.735-3.57c4.73 2.977 15.076 6.517 24.343.132" fill="#565b5f"/><path d="M472.24 745.09c3.13 3.734 17.94 3.71 20.438.348.194.158.953.673 1.886 1.302-9.266 6.385-19.614 2.845-24.343-.132l2.02-1.518z" fill="#e6e6e6"/><path d="M161.623 761.61c9.664-2.308 23.13-7.78 24.885.042 2.088 9.295 4.662 31.33 7.368 52.738.582 4.613-5.334 7.005-6.808 7.453-6.584 1.992-12.24 2.612-19.528 3.595l-5.942-63.786c-.002-.02.012-.04.025-.043m-29.355 0c-12.21-2.913-21.913-9.703-24.046-.117-2.226 10.036-4.672 32.03-7.25 52.57-.663 5.26 4.818 7.525 6.594 7.984 6.318 1.64 11.77 2.446 18.78 3.39l5.948-63.785c0-.02-.02-.043-.026-.043" fill="#417e7b"/><path fill="#b88f6d" d="M138.82 739.276h15.828v16.394h-15.83z"/><path d="M116.71 824.038c3.333-9.62-4.28-54.655-8.488-62.935 2.395-8.5 24.182-7.64 30.112-12.47 1.28 1.124 14.81 1.062 16.11-.083 4.388 3.576 27.86 3.623 31.794 12.123-4.476 9.487-12.688 54.67-9.133 63.322-14.974 2.942-44.99 3.153-60.396.043" fill="#498c89"/><path d="M136.927 739.13h20.02v10.312c-6.588 2.92-16.8 1.75-20.02.143V739.13z" fill="#b88f6d"/><path d="M154.648 776.48c19.328 0 23.093-62.938 9.712-79.534-6.46-8.023-22.45-9.82-27.567-3.86-15.194 4.855-15.46 61.865-7.42 76.735 4.054 7.5 17.922 6.66 25.275 6.66" fill="#5a3c29"/><path d="M327.07 760.192c9.694-2.314 23.202-7.8 24.96.042 2.094 9.325 4.68 31.425 7.39 52.896.585 4.626-5.35 7.027-6.825 7.476-6.603 1.995-12.275 2.62-19.585 3.605l-5.966-63.975c0-.02.016-.037.026-.042m-29.442 0c-12.246-2.923-21.977-9.734-24.113-.12-2.238 10.07-4.688 32.13-7.276 52.727-.665 5.28 4.832 7.547 6.613 8.008 6.34 1.647 11.804 2.456 18.837 3.403l5.962-63.975c.004-.02-.015-.042-.024-.042" fill="#003663"/><path fill="#b88f6d" d="M304.202 737.794h15.875v16.44h-15.875z"/><path d="M282.024 822.805c3.346-9.648-4.29-54.817-8.51-63.12 2.4-8.526 24.254-7.662 30.2-12.51 1.283 1.13 14.853 1.066 16.157-.08 4.404 3.584 27.95 3.632 31.89 12.157-4.49 9.516-12.722 54.832-9.16 63.512-15.017 2.95-45.12 3.162-60.575.04" fill="#003e6e"/><path d="M302.303 737.646h20.08v10.338c-6.61 2.932-16.853 1.76-20.08.147v-10.484z" fill="#b88f6d"/><path d="M312.43 747.278c19.385 0 30.81-35.296 17.39-51.945-6.48-8.043-22.518-9.848-27.65-3.87-22.926 7.328-11.74 55.815 10.26 55.815" fill="#cd880a"/><path d="M324.514 747.1c1.937 1.294 4.633 3.055 4.633 3.055-7.963 8.254-27.982 5.672-33.798.39l4.746-3.58c4.744 2.988 15.123 6.537 24.417.134" fill="#565b5f"/><path d="M302.12 745.442c3.143 3.746 17.996 3.722 20.5.35.2.16.957.674 1.894 1.306-9.294 6.404-19.673 2.854-24.416-.134l2.023-1.522z" fill="#e6e6e6"/><path d="M339.512 724.898a7.764 7.764 0 0 0-2.268-5.492 7.766 7.766 0 0 0 2.268-5.49c0-2.402-1.11-4.523-2.82-5.95a7.69 7.69 0 0 0 .243-1.838c0-3.11-1.838-5.774-4.477-7.022a7.87 7.87 0 0 0 .137-1.35 7.79 7.79 0 0 0-7.788-7.786c-4.3 0-7.785 3.49-7.785 7.787 0 3.112 1.837 5.776 4.474 7.024-.076.44-.135.888-.135 1.35 0 2.4 1.11 4.523 2.82 5.95-.144.59-.24 1.2-.24 1.837 0 2.142.868 4.083 2.268 5.49a7.764 7.764 0 0 0-2.268 5.492c0 1.8.634 3.433 1.657 4.75-1.94 1.417-3.215 3.69-3.215 6.28 0 .88.178 1.712.446 2.502-2.756-1.768-6.168-2.826-9.876-2.826-3.71 0-7.12 1.06-9.878 2.83.016-.215.063-.42.063-.64 0-3.073-1.795-5.704-4.38-6.97 1.237-1.38 2.013-3.184 2.013-5.182 0-2.49-1.192-4.685-3.015-6.11a7.747 7.747 0 0 0 2.416-5.616 7.706 7.706 0 0 0-1.147-4.022 7.74 7.74 0 0 0 2.523-3.75c3.643-.65 6.414-3.818 6.414-7.648 0-4.3-3.487-7.786-7.79-7.786-3.505 0-6.437 2.333-7.41 5.52-3.644.65-6.413 3.82-6.413 7.648 0 1.478.435 2.845 1.15 4.02-1.755 1.43-2.9 3.578-2.9 6.018 0 2.49 1.192 4.686 3.016 6.11a7.736 7.736 0 0 0-2.416 5.616c0 3.074 1.794 5.703 4.378 6.972-1.237 1.38-2.01 3.183-2.01 5.18a7.74 7.74 0 0 0 2.17 5.372 7.74 7.74 0 0 0-2.17 5.372 7.73 7.73 0 0 0 1.27 4.247 7.72 7.72 0 0 0-1.27 4.247c0 4.3 3.486 7.786 7.784 7.786 0 4.3 3.486 7.787 7.786 7.787 2.908 0 5.415-1.613 6.75-3.976a7.784 7.784 0 0 0 14.92-3.11c0-.162-.038-.313-.048-.475a7.756 7.756 0 0 0 4.387 1.358 7.788 7.788 0 0 0 6.444-12.16 7.75 7.75 0 0 0 2.364-5.576c0-2.638-1.32-4.96-3.327-6.37 2.008-1.408 3.327-3.728 3.327-6.368 0-1.8-.636-3.435-1.66-4.754 1.94-1.414 3.217-3.69 3.217-6.277" fill="#cd880a"/><path d="M-.677 763.557c9.694-2.314 23.202-7.8 24.96.042 2.094 9.323 4.68 31.423 7.39 52.894.585 4.626-5.35 7.027-6.825 7.476-6.603 1.996-12.275 2.62-19.585 3.606L-.703 763.6c0-.02.016-.038.026-.043" fill="#003663"/><path d="M-45.723 826.17c3.346-9.65-4.29-54.818-8.51-63.122 2.4-8.525 24.254-7.66 30.2-12.508 1.283 1.13 14.853 1.065 16.157-.082 4.402 3.585 27.947 3.633 31.89 12.158-4.49 9.516-12.724 54.832-9.16 63.512-15.02 2.95-45.123 3.162-60.577.04" fill="#003e6e"/><path d="M-15.317 750.643c19.385 0 30.81-35.296 17.39-51.945-6.48-8.043-22.518-9.848-27.65-3.87-22.926 7.328-11.74 55.815 10.26 55.815" fill="#241b16"/><path d="M-3.233 750.463c1.937 1.295 4.633 3.056 4.633 3.056-7.963 8.252-27.982 5.67-33.798.39l4.748-3.58c4.744 2.986 15.123 6.535 24.417.132" fill="#565b5f"/><path d="M11.765 728.262a7.764 7.764 0 0 0-2.268-5.492 7.762 7.762 0 0 0 2.268-5.49c0-2.4-1.11-4.522-2.82-5.95.145-.59.243-1.2.243-1.838 0-3.11-1.838-5.773-4.477-7.02a7.88 7.88 0 0 0 .14-1.35 7.79 7.79 0 0 0-7.79-7.788c-4.3 0-7.784 3.49-7.784 7.787 0 3.114 1.837 5.778 4.474 7.026-.077.44-.136.886-.136 1.347 0 2.4 1.11 4.524 2.818 5.95-.144.59-.24 1.2-.24 1.838 0 2.143.868 4.084 2.268 5.49a7.764 7.764 0 0 0-2.268 5.493c0 1.8.635 3.434 1.658 4.752-1.94 1.416-3.215 3.69-3.215 6.278 0 .88.178 1.713.446 2.503-2.754-1.77-6.166-2.827-9.874-2.827-3.71 0-7.12 1.06-9.878 2.83.016-.216.063-.42.063-.64 0-3.074-1.794-5.705-4.38-6.97 1.238-1.38 2.014-3.185 2.014-5.183 0-2.49-1.192-4.685-3.015-6.11a7.747 7.747 0 0 0 2.415-5.616 7.706 7.706 0 0 0-1.15-4.02 7.74 7.74 0 0 0 2.524-3.75c3.642-.65 6.413-3.82 6.413-7.65 0-4.3-3.486-7.785-7.788-7.785-3.506 0-6.438 2.333-7.412 5.52-3.643.65-6.412 3.82-6.412 7.648 0 1.478.436 2.845 1.15 4.02-1.754 1.43-2.9 3.578-2.9 6.018 0 2.49 1.193 4.687 3.017 6.11a7.736 7.736 0 0 0-2.416 5.617c0 3.074 1.795 5.703 4.38 6.972-1.238 1.38-2.01 3.182-2.01 5.18a7.74 7.74 0 0 0 2.17 5.37 7.74 7.74 0 0 0-2.17 5.373 7.73 7.73 0 0 0 1.27 4.247 7.72 7.72 0 0 0-1.27 4.246c0 4.3 3.485 7.786 7.783 7.786a7.79 7.79 0 0 0 7.788 7.787c2.91 0 5.416-1.615 6.75-3.978a7.784 7.784 0 0 0 14.92-3.108c0-.164-.037-.315-.047-.477a7.756 7.756 0 0 0 4.388 1.358 7.788 7.788 0 0 0 6.445-12.16 7.75 7.75 0 0 0 2.364-5.576c0-2.64-1.32-4.96-3.328-6.37 2.01-1.41 3.328-3.73 3.328-6.37 0-1.797-.636-3.433-1.66-4.752 1.94-1.415 3.217-3.692 3.217-6.278" fill="#241b16"/><path d="M803.235 758.857c-12.21-2.91-21.912-9.702-24.044-.116-2.23 10.038-4.67 32.03-7.25 52.57-.66 5.26 4.82 7.527 6.592 7.986 6.323 1.64 11.772 2.446 18.783 3.39l5.944-63.785c.004-.02-.017-.042-.023-.042" fill="#417e7b"/><path d="M787.677 821.286c3.337-9.62-4.278-54.655-8.485-62.935 2.392-8.5 24.18-7.637 30.11-12.467 1.28 1.123 14.812 1.06 16.11-.084 4.388 3.575 27.862 3.622 31.794 12.122-4.476 9.488-12.685 54.672-9.133 63.323-14.972 2.942-44.988 3.153-60.396.043" fill="#498c89"/><path d="M817.993 745.98c19.327 0 30.716-35.19 17.338-51.787-6.46-8.022-22.45-9.82-27.567-3.86-22.857 7.305-11.704 55.648 10.23 55.648" fill="#241b16"/></svg>