<?xml version="1.0" standalone="no"?><!DOCTYPE svg PUBLIC "-//W3C//DTD SVG 1.1//EN" "http://www.w3.org/Graphics/SVG/1.1/DTD/svg11.dtd"><svg width="100%" height="100%" viewBox="0 0 1876 471" version="1.1" xmlns="http://www.w3.org/2000/svg" xmlns:xlink="http://www.w3.org/1999/xlink" xml:space="preserve" style="fill-rule:evenodd;clip-rule:evenodd;stroke-linejoin:round;stroke-miterlimit:1.41421;"><path d="M42.393,7.58c7.209,-5.359 16.312,-7.89 25.25,-7.55c109.306,-0.009 218.606,-0.056 327.915,0.028c18.069,-0.484 34.594,12.947 39.979,29.841c2.212,5.891 2.697,12.206 2.571,18.453c-0.046,57.891 0.041,115.772 -0.046,173.663c0.018,1.765 0.396,3.497 0.775,5.209c-8.366,5.438 -16.885,10.628 -25.56,15.547c1.291,-1.425 2.291,-3.144 2.125,-5.125c0,-57.928 0.022,-115.856 0,-173.788c-0.387,-10.315 -1.378,-21.725 -8.528,-29.796c-6.637,-7.522 -17.225,-9.413 -26.772,-9.519c-96.406,-0.013 -192.809,0.028 -289.212,-0.022c-8.897,-0.203 -18.047,0.009 -26.45,3.272c-5.135,2.097 -9.375,6.247 -11.538,11.353c-3.562,8.044 -3.95,17.019 -4.115,25.684c-0.06,55.619 0.009,111.238 -0.038,166.86c0.088,4.006 -0.603,8.268 1.222,12.003c-2.909,-1.894 -5.831,-3.756 -8.947,-5.288c-6.403,-3.212 -12.072,-7.668 -18.319,-11.159c0.291,-1.069 0.641,-2.134 0.688,-3.241c0.031,-59.19 -0.047,-118.393 0.04,-177.581c-0.262,-14.944 6.638,-30.15 18.96,-38.844Z" style="fill:#b5c4c3;fill-rule:nonzero;"/><path d="M683.73,124.118c3.738,-0.853 9.104,-0.506 10.86,3.553c1.581,5.422 1.24,11.128 1.269,16.719c0.031,58.218 0.021,116.447 0.012,174.668c-0.128,3.766 -0.234,7.754 -1.825,11.216c-2.894,3.884 -8.297,3.269 -12.303,1.747c-3.097,-3.544 -3.147,-8.513 -3.272,-12.963c0.059,-61.128 -0.047,-122.262 0.059,-183.39c0.438,-4.106 0.397,-10.056 5.2,-11.55Z" style="fill:#16a7a8;fill-rule:nonzero;"/><path d="M1283.18,135.555c3.969,-12.593 22.222,-15.812 30.916,-6.343c5.334,5.231 5.241,13.168 5.669,20.087c0.328,17.522 -0.069,35.059 0.222,52.594c3.3,-3.031 6.268,-6.419 9.656,-9.356c7.353,-5.66 15.822,-10.072 25.025,-11.763c17.047,-3.297 36.365,0.738 48.584,13.694c8.694,9.584 12.238,22.697 12.806,35.378c0.36,12.925 0.691,25.85 0.516,38.784c-0.425,10.044 0.397,20.097 -0.162,30.138c-0.072,8.609 0.587,17.806 -3.507,25.703c-5.337,10.772 -22.337,11.684 -29.684,2.631c-3.481,-5.181 -4.316,-11.647 -4.288,-17.747c-0.096,-19.368 -0.021,-38.747 -0.046,-58.122c-0.01,-9.14 -0.216,-18.525 -3.135,-27.278c-2.503,-7.693 -9.772,-13.303 -17.737,-14.312c-15.275,-3.01 -31.382,7.431 -35.478,22.319c-2.444,9.721 -2.738,19.843 -2.647,29.818c-0.041,15.225 0.037,30.438 -0.041,45.653c0.031,3.95 -0.562,7.85 -1.259,11.722c-1.06,3.472 -2.222,7.163 -5.019,9.653c-6.547,5.475 -16.6,5.794 -23.753,1.35c-6.519,-4.659 -7.366,-13.446 -7.763,-20.79c-0.056,-50.128 -0.012,-100.26 -0.028,-150.388c0.047,-5.831 -0.125,-11.672 0.319,-17.493c0.387,-1.95 0.659,-3.941 0.834,-5.932Z" style="fill:#16a7a8;fill-rule:nonzero;"/><path d="M746.646,129.64c4.116,-1.038 8.494,0.697 11.347,3.715c3.909,5.21 2.559,13.819 -3.447,16.866c-6.725,4.425 -16.816,-1.669 -16.203,-9.634c-0.644,-5.272 3.541,-9.563 8.303,-10.947Z" style="fill:#16a7a8;fill-rule:nonzero;"/><path d="M157.912,142.096c4.493,-0.494 8.993,-1.384 13.525,-0.825c5.25,0.787 10.546,1.244 15.643,2.872c9.878,3.834 19.328,9.5 25.938,17.956c5.831,6.809 9.159,15.359 11.109,24.022c0.322,4.866 0.516,9.762 0.069,14.625c-2.009,15.447 -11.528,29.681 -24.909,37.609c-6.619,4.3 -14.244,6.803 -21.95,8.232c-5.8,0.484 -11.654,0.503 -17.466,0.125c-15.497,-2.01 -30.284,-10.385 -39.328,-23.232c-3.841,-5.387 -6.385,-11.556 -8.188,-17.884c-1.756,-7.344 -1.64,-14.953 -0.05,-22.306c4.96,-21.397 24.053,-38.078 45.607,-41.194Z" style="fill:#f29225;fill-rule:nonzero;"/><path d="M288.871,142.224c17.494,-3.453 36.462,1.688 49.884,13.422c14.263,12.275 20.988,32.594 16.272,50.9c-4.406,17.147 -18.056,31.181 -34.612,37.078c-8.781,3.456 -18.322,3.803 -27.635,3.194c-17.99,-1.913 -35.137,-12.644 -43.618,-28.81c-3.454,-5.89 -4.91,-12.615 -6.122,-19.253c-0.747,-12.787 2.978,-25.878 11.062,-35.909c8.538,-10.822 21.172,-18.322 34.769,-20.622Z" style="fill:#138bcc;fill-rule:nonzero;"/><path d="M1630.53,182.008c7.972,-4.287 19.866,-2.806 24.475,5.688c1.875,4.878 2.788,10.041 3.532,15.194c1.156,-1.863 2.309,-3.735 3.396,-5.647c2.885,-5.385 7.491,-9.75 12.575,-13.063c9.257,-5.675 21.01,-5.481 31.013,-1.959c6.637,2.328 13.869,5.25 17.653,11.578c2.416,3.891 2.259,8.666 1.2,12.966c-1.931,4.5 -5.6,7.875 -10.012,9.884c-8.782,1.581 -16.707,-3.687 -25.325,-4.009c-5.563,-0.463 -11.704,0.072 -16.01,3.99c-7.787,6.228 -10.297,16.507 -11.597,25.91c-3.89,24.662 -0.728,49.728 -2.881,74.509c-0.691,9.947 -11.062,17.572 -20.784,15.991c-7.991,-1.038 -15.2,-7.5 -15.819,-15.76c-0.847,-10.04 -0.313,-20.15 -0.456,-30.222c0.009,-28.14 -0.028,-56.29 0.009,-84.44c-0.106,-7.628 2.203,-16.31 9.031,-20.61Z" style="fill:#16a7a8;fill-rule:nonzero;"/><path d="M567.105,180.93c13.479,-1.893 27.519,-1.581 40.572,2.532c11.372,4.378 22.338,12.693 26.113,24.734c1.065,3.381 2.684,7.094 1.044,10.566c-1.688,5.368 -10.179,6.068 -12.944,1.312c-2.328,-4.025 -2.997,-8.878 -6.003,-12.534c-6.144,-8.185 -16.41,-11.782 -26.21,-13.063c-12.043,-0.972 -25.356,0.097 -35.04,8.075c-5.347,4.056 -7.541,11.091 -6.91,17.6c0.369,1.291 0.66,2.6 0.941,3.931c4.162,10.816 16.312,14.65 26.472,17.535c6.122,1.656 12.275,3.259 18.503,4.509c11.15,2.728 22.222,6.125 32.381,11.55c6.513,3.172 12.003,8.622 14.556,15.466c2.541,5.569 2.425,11.819 2.338,17.806c-0.222,8.878 -3.619,17.622 -9.372,24.372c-5.231,6.609 -12.994,10.431 -20.581,13.634c-0.991,0.3 -1.96,0.622 -2.922,0.95c-13.934,3.747 -28.694,4.241 -42.909,1.941c-3.85,-0.613 -7.635,-1.628 -11.179,-3.269c-12.584,-5.153 -22.618,-15.912 -27.09,-28.728c-1.253,-3.291 -0.922,-6.884 -0.766,-10.316c2.85,-3.69 7.753,-5.931 12.234,-3.796c4.263,5.056 5.269,11.956 9.472,17.059c7.1,10.372 19.832,15.659 32.128,15.884c9.672,0.369 19.794,-0.35 28.488,-5.009c6.812,-3.734 12.869,-9.913 14.409,-17.753c0.825,-5.263 0.604,-10.938 -2.046,-15.681c-2.066,-4.069 -6.122,-6.532 -10.072,-8.494c-9.375,-4.956 -19.854,-7.091 -29.975,-9.981c-5.813,-1.438 -11.547,-3.194 -17.341,-4.679c-1.006,-0.29 -2.016,-0.581 -3.006,-0.853c-7.5,-2.622 -15.263,-5.365 -21.144,-10.934c-6.412,-6.3 -10.897,-15.022 -10.528,-24.184c-0.3,-9.772 4.609,-18.707 10.247,-26.344c6.094,-8.269 16.281,-12.303 26.14,-13.838Z" style="fill:#16a7a8;fill-rule:nonzero;"/><path d="M743.959,181.258c3.64,-2.49 8.55,-1.646 11.956,0.866c1.281,3.797 2.028,7.784 1.969,11.8c-0.019,42.034 -0.01,84.078 0,126.125c-0.116,3.047 -0.785,6.034 -0.972,9.078c-3.15,5.444 -11.682,5.444 -15.175,0.372c-0.291,-1.212 -0.591,-2.416 -0.903,-3.609c-0.707,-16.475 -0.125,-33 -0.319,-49.497c0.147,-29.772 -0.3,-59.56 0.234,-89.319c0.706,-2.097 1.181,-4.55 3.21,-5.816Z" style="fill:#16a7a8;fill-rule:nonzero;"/><path d="M1157.23,183.046c16.147,-4.297 33.332,-4.347 49.644,-0.891c1.281,0.338 2.559,0.641 3.891,0.938c7.209,2.35 14.272,5.534 20.143,10.422c5.2,4.134 10.241,9.237 12.069,15.818c0.878,4.591 0.906,9.847 -1.997,13.769c-4.462,6.25 -13.625,7.781 -20.337,4.541c-5.619,-2.416 -9.791,-7.091 -13.128,-12.069c-9.247,-12.287 -27.5,-14.322 -40.9,-8.281c-4.582,1.834 -7.697,6.069 -8.713,10.819c0.366,5.203 3.028,10.221 7.966,12.384c19.747,9.1 42.287,10.237 61.587,20.484c8.519,4.522 16.797,10.791 20.775,19.863c4.21,9.053 3.103,19.54 0.532,28.894c-2.463,6.921 -6.313,13.487 -11.963,18.275c-5.822,5.1 -12.916,8.45 -20.162,11.003c-0.525,0.125 -1.594,0.365 -2.129,0.484c-1.581,0.488 -3.153,0.919 -4.706,1.388c-12.769,2.3 -25.887,3.171 -38.784,1.456c-8.625,-0.856 -17.194,-3.01 -24.966,-6.872c-9.956,-5.413 -18.978,-13.719 -22.844,-24.616c-1.706,-5.365 -2.122,-11.74 1.235,-16.575c4.309,-6.509 14.106,-8.837 20.603,-4.268c6.112,4.087 8.712,11.315 13.572,16.565c6.056,7.444 15.606,10.972 24.928,11.819c5.503,0.972 11.178,0.097 16.497,-1.447c5.687,-1.825 11.206,-5.812 13.137,-11.662c2.619,-7.472 -2.065,-15.944 -9.081,-19c-16.031,-7.541 -34.216,-8.541 -50.431,-15.594c-9.847,-3.988 -19.435,-10.016 -25.072,-19.272c-4.803,-7.394 -5.803,-16.681 -4.288,-25.219c3.416,-16.212 17.35,-28.684 32.922,-33.156Z" style="fill:#16a7a8;fill-rule:nonzero;"/><path d="M1655,187.696c2.591,2.619 2.832,6.441 3.494,9.856c1.116,-0.106 2.263,-0.212 3.434,-0.309c-1.087,1.912 -2.24,3.784 -3.396,5.647c-0.744,-5.153 -1.657,-10.316 -3.532,-15.194Z" style="fill:#b5c4c3;fill-rule:nonzero;"/><path d="M999.527,208.937c-8.675,9.615 -12.962,22.45 -13.778,35.221c30.906,0 61.81,0.041 92.728,-0.021c0.153,-13.96 -4.387,-28.438 -14.325,-38.532c-8.303,-7.634 -19.668,-11.975 -30.972,-11.378c-12.703,-0.681 -25.559,4.888 -33.653,14.71ZM983.546,201.64c9.178,-11.666 23.25,-18.885 37.844,-20.913c13.509,-1.872 27.731,-1.065 40.453,4.163c9.956,4.065 17.303,12.303 23.425,20.862c3.387,5.103 6.241,10.638 7.837,16.572c2.369,9.063 4.457,18.409 3.65,27.841c-0.115,2.212 -1.428,4.075 -2.406,5.987c-3.444,1.35 -7.062,2.369 -10.791,2.272c-32.837,0.134 -65.671,-0.059 -98.509,0.097c0.188,8.022 1.322,16.019 3.222,23.819c3.319,11.375 9.559,22.387 19.631,29.034c16.263,10.8 38.85,9.4 54.65,-1.591c7.56,-5.968 11.722,-14.925 15.516,-23.521c0.987,-2.941 3.859,-4.25 6.425,-5.541c3.666,0.406 8.062,1.775 9.312,5.675c1.3,7.269 -3.181,13.769 -6.343,19.931c-6.844,9.985 -16.585,18.231 -27.897,22.675c-15.663,5.525 -33.031,5.369 -48.956,0.985c-11.147,-3.616 -21.347,-10.522 -28.138,-20.166c-9.337,-12.422 -13.956,-27.838 -15.091,-43.2c-1.271,-9.044 -0.087,-18.116 0.544,-27.15c2.522,-13.466 6.638,-27.169 15.622,-37.831Z" style="fill:#16a7a8;fill-rule:nonzero;"/><path d="M826.993,208.937c-9.434,10.809 -14.163,25.131 -14.85,39.318c-0.094,9.644 -0.631,19.472 1.884,28.894c3.113,13.597 10.597,27.034 22.863,34.294c-0.369,0.028 -1.116,0.087 -1.485,0.115c5.822,2.094 11.216,5.45 17.438,6.454c11.322,1.743 23.403,0.618 33.622,-4.863c13.197,-6.559 22.19,-19.903 25.218,-34.106c2.36,-10.394 1.95,-21.113 1.735,-31.681c-0.688,-15.422 -6.966,-30.81 -18.697,-41.085c-9.731,-8.162 -22.637,-12.547 -35.319,-12.05c-12.247,-0.137 -24.375,5.491 -32.409,14.71ZM917.455,124.662c3.36,-0.969 6.863,-1.06 10.247,-0.066c2.428,2.841 3.475,6.428 3.222,10.147c0.097,59.812 0.031,119.634 0.041,179.444c-0.1,5.24 0.444,10.634 -1.281,15.69c-0.341,0.494 -1.038,1.485 -1.379,1.988c-4.465,2.262 -11.703,1.962 -13.343,-3.669c-1.707,-6.638 -0.932,-13.622 -1.56,-20.391c-6.028,6.244 -12.025,12.816 -19.806,16.919c-7.831,4.466 -16.575,6.95 -25.463,8.134c-5.803,0.422 -11.634,0.435 -17.424,-0.021c-5.913,-0.844 -11.841,-1.863 -17.363,-4.213c-15.612,-6.819 -27.334,-20.841 -33.3,-36.587c-5.881,-16.438 -7.744,-34.197 -5.444,-51.488c2.25,-14.284 6.847,-28.675 16.369,-39.844c6.163,-6.906 13.422,-13.106 22.181,-16.415c12.344,-4.728 25.966,-5.347 38.972,-3.582c8.694,0.938 17.435,3.666 24.441,9.054c6.347,4.665 12.362,10.062 16.718,16.681c0.147,-1.594 0.291,-3.185 0.438,-4.775c-0.088,-1.941 -0.116,-3.872 -0.069,-5.813c-0.125,-6.793 -0.068,-13.593 0,-20.387c-0.203,-11.313 -0.037,-22.628 -0.097,-33.935c0.488,-5.703 -0.115,-12.243 3.9,-16.871Z" style="fill:#16a7a8;fill-rule:nonzero;"/><path d="M1781.08,215.137c-7.25,7.828 -9.781,18.687 -11.053,28.984c22.716,0.087 45.432,0.066 68.157,0.009c0.387,-14.275 -6.513,-29.675 -20.163,-35.572c-12.072,-5.084 -27.878,-3.521 -36.941,6.579ZM1780.21,183.037c18.143,-4.697 37.946,-4.822 55.578,2.006c15.428,6.028 27.131,19.156 33.981,33.956c4.6,10.331 6.766,22.209 4.028,33.322c-2.041,4.812 -5.512,9.45 -10.712,11.012c-9.85,2.938 -20.26,2.725 -30.432,2.675c-20.872,0.041 -41.743,-0.056 -62.606,0.06c0.05,8.134 1.775,16.359 5.56,23.6c5.221,9.187 14.624,15.981 25.062,17.794c11.45,2.146 23.466,-1.144 32.887,-7.819c6.794,-4.375 11.894,-10.781 18.253,-15.7c5.616,-3.719 14.516,-3.66 18.938,1.931c4.272,5.25 2.06,12.791 -1.037,18.066c-7.344,11.712 -19.075,20.54 -32.107,24.997c-0.99,0.309 -1.95,0.631 -2.89,0.968c-12.344,3.153 -25.291,4.203 -37.944,2.572c-16.338,-1.319 -32.953,-7.334 -44.381,-19.475c-13.372,-13.428 -19.788,-32.359 -20.688,-51.009c-0.978,-19.697 3.163,-40.619 15.622,-56.397c7.394,-10.081 18.156,-17.484 29.925,-21.531c0.972,-0.341 1.95,-0.678 2.963,-1.028Z" style="fill:#16a7a8;fill-rule:nonzero;"/><path d="M438.837,227.224c4.462,-3.094 9.2,-7.256 15.04,-6.537c4.453,0.253 7.675,4.85 7.432,9.121c0.543,6.404 -3.679,11.857 -7.994,16.088c-22.25,23.85 -50.441,41.337 -79.86,54.959c-3.328,1.478 -6.637,2.978 -9.975,4.416c-0.653,0.262 -1.94,0.797 -2.59,1.056c0.706,3.66 1.881,7.21 2.572,10.878l0.346,0.725c3.522,15.653 6.504,31.597 6.135,47.703c0.309,19.872 -3.378,40.11 -12.519,57.882c-8.578,16.981 -22.125,32.018 -39.678,39.909c-12.866,5.997 -27.459,7.978 -41.503,6.094c-11.866,-2.047 -23.481,-8.013 -30.469,-18.066c-7.519,-10.044 -9.275,-23.131 -8.722,-35.362c0.06,-22.2 -0.253,-44.419 0.05,-66.603c1.135,-3.785 1.881,-7.666 2.085,-11.604c12.325,0.679 24.881,2.685 37.096,-0.178c5.416,-1.315 11.004,-2.075 16.235,-4.103c11.041,-4.628 20.756,-12.244 28.081,-21.694c7.25,-8.325 12.256,-19.087 12.394,-30.237c0.069,-1.844 0.069,-3.694 0.084,-5.538c-3.162,-1.815 -6.297,-4.687 -10.215,-4.096c-3.6,0.593 -6.9,2.346 -9.994,4.212c-5.097,3.384 -7.619,9.159 -11.025,13.991c-6.572,6.822 -14.953,12.703 -24.6,13.79c-4.531,0.453 -9.15,0.416 -13.603,-0.562c-4.494,-0.922 -8.647,-3.097 -13.216,-3.691c-0.106,-0.115 -0.331,-0.337 -0.447,-0.444c-3.678,-3.65 -8.859,-5.25 -12.594,-8.878c0.029,-7.609 4.075,-15.4 11.188,-18.622c9.837,-4.784 21.075,-2.378 31.584,-2.543c10.682,-0.347 21.347,1.34 32.013,0.137c35.184,-0.925 69.912,-10.481 101.109,-26.656c8.675,-4.919 17.194,-10.109 25.56,-15.547Z" style="fill:#138bcc;fill-rule:nonzero;"/><path d="M3.627,222.18c3.135,-2.531 7.347,-1.406 10.86,-0.475c2.743,1.844 5.403,3.807 8.218,5.541c6.247,3.491 11.916,7.947 18.319,11.159c3.116,1.532 6.038,3.394 8.947,5.288c20.909,10.537 43.237,18.415 66.362,22.337c13.991,2.816 28.285,3.235 42.491,3.882c10.672,-0.96 21.394,-0.466 32.097,-0.875c6.844,-0.094 14.003,-0.632 20.456,2.087c5.569,2.303 9.453,7.094 13.625,11.216c0.075,3.337 4.403,2.875 6.278,4.9c5.638,4.806 11.082,10.628 18.697,12.093c0.116,0.107 0.341,0.329 0.447,0.444l0.825,0.847c2.822,2.231 6.422,3.044 9.828,3.938c10.625,2.734 22.688,1.571 31.828,-4.813c7.191,-4.222 12.547,-10.781 17.388,-17.428c3.487,-4.047 7.959,-8.334 13.587,-8.578c2.932,-0.428 5.028,2.162 6.072,4.562c1.672,6.735 -1.347,13.157 -2.8,19.591c-6.203,13.741 -17.469,25.016 -31.006,31.553c-8.653,4.184 -18.194,5.766 -27.578,7.366c-5.191,0.522 -10.428,0.378 -15.641,0.34c-5.153,0.028 -10.081,-1.672 -15.175,-2.184c-0.203,-0.163 -0.612,-0.506 -0.815,-0.678c-1.429,-0.225 -2.844,-0.456 -4.26,-0.719c-2.678,-0.953 -5.472,-1.475 -8.306,-1.609c0.037,30.312 -0.041,60.625 0.009,90.937c-0.378,10.403 -2.959,21.156 -9.528,29.45c-6.2,8.444 -15.828,13.866 -25.881,16.35c-6.347,1.71 -12.963,1.416 -19.475,1.331c-5.684,0 -11.081,-1.95 -16.544,-3.25c-0.95,-0.34 -1.89,-0.671 -2.831,-0.981c-21.263,-7.965 -38.438,-25.075 -47.791,-45.615c-1.815,-3.816 -3.268,-7.772 -4.831,-11.691c-1.35,-4.563 -2.341,-9.219 -3.591,-13.809c-3.746,-18.844 -3.106,-38.291 -0.234,-57.213c1.613,-9.428 3.378,-18.903 6.231,-28.05c0.097,-0.797 0.31,-2.387 0.407,-3.191c-1.485,-0.625 -2.969,-1.234 -4.454,-1.846c-33.196,-14.382 -65.1,-33.507 -89.65,-60.441c-2.853,-3.525 -6.15,-7.384 -6.143,-12.181c-0.288,-3.482 0.293,-7.607 3.562,-9.585Z" style="fill:#f29225;fill-rule:nonzero;"/><path d="M1535.69,260.596c-12.713,3.397 -25.956,4.9 -38.281,9.684c-2.785,1.144 -5.541,2.397 -7.954,4.185c-5.24,3.909 -7.581,11.147 -5.856,17.415c1.894,8.869 10.328,15.525 19.256,16.147c5.86,0.263 11.904,0.388 17.522,-1.631c10.013,-3.25 19.66,-9.994 23.403,-20.209c0.604,-3.263 1.185,-6.532 1.825,-9.794c0.516,-6.15 0.632,-12.325 0.632,-18.494c-3.591,0.631 -7.025,1.813 -10.547,2.697ZM1476.76,187.365c9.606,-4.816 20.425,-6.357 31.022,-7.366c12.565,-0.512 25.306,-0.484 37.665,2.184c8.997,1.757 17.956,5.038 25.106,10.925c7.704,7.2 11.072,17.807 12.282,28.022c1.612,9.938 0.74,20.038 0.856,30.053c0.162,4.55 -0.534,9.066 -0.7,13.607c-0.009,10.865 -0.872,21.918 1.884,32.562c1.882,7.238 5.6,14.206 5.338,21.86c-0.75,7.159 -7.125,12.034 -13.663,13.809c-5.9,1.047 -11.656,-1.619 -15.828,-5.647c-4.531,-4.387 -8.381,-9.491 -11.409,-15.009c-5.785,3.065 -10.735,7.497 -16.606,10.437c-17.969,10.666 -40.607,13.653 -60.404,6.494c-10.809,-4.153 -19.725,-12.888 -24.112,-23.597c-3.491,-9.853 -3.881,-20.903 0.069,-30.666c2.862,-7.353 8.859,-12.931 15.175,-17.387c8.406,-6.044 18.778,-7.916 28.568,-10.547c15.275,-3.406 30.594,-6.609 45.819,-10.266c2.66,-0.903 5.388,-1.59 8.178,-2.018c-0.028,-7.435 -0.693,-15.469 -5.14,-21.716c-2.735,-3.962 -7.657,-5.172 -11.888,-6.812c-11.384,-1.01 -23.6,-1.36 -33.95,4.24c-5.397,2.9 -8.987,8.085 -11.694,13.422c-2.69,4.141 -5.443,9.281 -10.703,10.381c-3.572,1.085 -7.265,0.435 -10.809,-0.322c-4.278,-2.268 -8.753,-5.79 -9.297,-10.956c-1.166,-7.859 2.397,-15.637 7.153,-21.715c4.803,-5.6 10.363,-10.76 17.088,-13.972Z" style="fill:#16a7a8;fill-rule:nonzero;"/><path d="M312.868,276.249c3.094,-1.866 6.394,-3.619 9.994,-4.212c3.918,-0.591 7.053,2.281 10.215,4.096c-0.015,1.844 -0.015,3.694 -0.084,5.538c-1.65,5.512 -2.35,11.469 -5.841,16.225c1.453,-6.434 4.472,-12.856 2.8,-19.591c-1.044,-2.4 -3.14,-4.99 -6.072,-4.562c-5.628,0.244 -10.1,4.531 -13.587,8.578c-4.841,6.647 -10.197,13.206 -17.388,17.428c-9.14,6.384 -21.203,7.547 -31.828,4.813c-3.406,-0.894 -7.006,-1.707 -9.828,-3.938l-0.825,-0.847c4.569,0.594 8.722,2.769 13.216,3.691c4.453,0.978 9.072,1.015 13.603,0.562c9.647,-1.087 18.028,-6.968 24.6,-13.79c3.406,-4.832 5.928,-10.607 11.025,-13.991Z" style="fill:#8cabae;fill-rule:nonzero;"/><path d="M225.002,282.34c1.406,0.156 2.831,0.612 3.666,1.847c1.959,2.559 4.55,4.49 7.181,6.325c0.378,-0.01 1.144,-0.038 1.534,-0.057c3.735,3.628 8.916,5.228 12.594,8.878c-7.615,-1.465 -13.059,-7.287 -18.697,-12.093c-1.875,-2.025 -6.203,-1.563 -6.278,-4.9Z" style="fill:#8cabae;fill-rule:nonzero;"/><path d="M327.152,297.896c3.491,-4.756 4.191,-10.713 5.841,-16.225c-0.138,11.15 -5.144,21.912 -12.394,30.237c-7.325,9.45 -17.04,17.066 -28.081,21.694c-5.231,2.028 -10.819,2.788 -16.235,4.103c-12.215,2.863 -24.771,0.857 -37.096,0.178c-0.204,3.938 -0.95,7.819 -2.085,11.604c-0.544,-5.054 -0.1,-10.129 -0.165,-15.194c0.203,0.172 0.612,0.515 0.815,0.678c5.094,0.512 10.022,2.212 15.175,2.184c5.213,0.038 10.45,0.182 15.641,-0.34c9.384,-1.6 18.925,-3.182 27.578,-7.366c13.537,-6.537 24.803,-17.812 31.006,-31.553Z" style="fill:#16a7a8;fill-rule:nonzero;"/><path d="M1839.9,373.99c3.691,-5.816 11.753,-7.435 17.963,-5.26c3.494,1.144 4.881,6.182 2.172,8.772c-2.229,2.056 -5.597,0.428 -8.119,1.669c-0.825,2.619 -0.478,5.412 -0.485,8.122c3.182,0.39 7.597,-0.972 9.713,2.25c0.337,1.737 0.725,4.347 -1.206,5.281c-2.513,1.744 -5.685,1.219 -8.525,1.241c-0.207,11.584 0.134,23.181 -0.157,34.756c-0.459,5.619 -8.765,7.181 -11.878,2.912c-1.637,-1.553 -1.271,-3.95 -1.356,-5.959c0.085,-10.519 0.006,-21.028 0.038,-31.534c-2.613,-0.107 -5.172,-0.494 -7.657,-1.185c-0.525,-2.715 -0.893,-5.743 1.572,-7.634c1.969,-0.022 3.95,-0.072 5.956,-0.113c0.36,-4.44 -0.746,-9.437 1.969,-13.318Z" style="fill:#8cabae;fill-rule:nonzero;"/><path d="M1470.08,372.649c1.884,-4.897 9.896,-6.462 12.906,-1.747c5,7.91 8.869,16.488 13.625,24.55c0.231,-0.009 0.697,-0.028 0.931,-0.037c4.55,-7.85 8.559,-16.022 13.05,-23.891c2.253,-4.347 8.522,-4.387 11.656,-0.991c2.725,2.516 1.532,6.763 -0.243,9.491c-5.929,9.725 -11.713,19.522 -17.729,29.188c-0.143,7.103 0.263,14.215 -0.184,21.309c-0.853,5.581 -8.822,7.481 -12.519,3.6c-3.259,-2.756 -1.89,-7.434 -2.181,-11.141c-0.331,-4.975 0.872,-10.225 -0.806,-15c-5.097,-8.434 -10.247,-16.847 -15.291,-25.306c-1.847,-3 -4.378,-6.269 -3.215,-10.025Z" style="fill:#8cabae;fill-rule:nonzero;"/><path d="M1807.77,369.062c3.61,-2.369 9.963,-0.391 10.078,4.412c0.294,18.088 0.013,36.206 0.147,54.291c0.05,2.728 -0.212,6.259 -3.075,7.531c-3.669,2.037 -10.118,0.397 -10.003,-4.503c-0.231,-18.494 -0.059,-36.997 -0.106,-55.503c-0.216,-2.444 0.581,-5.116 2.959,-6.228Z" style="fill:#8cabae;fill-rule:nonzero;"/><path d="M1407.46,376.005c1.581,-3.703 6.737,-4.172 9.937,-2.484c4.647,2.972 1.969,9.319 3.181,13.841c2.863,0.231 6.416,-0.819 8.753,1.384c1.65,1.844 0.7,4.287 -0.021,6.309c-2.872,0.872 -5.86,1.222 -8.847,1.097c-0.507,9.672 -0.6,19.425 0.397,29.069c2.715,0.303 5.668,0.1 8.134,1.528c1.831,1.772 1.716,5.034 0.019,6.869c-1.457,1.637 -3.785,1.99 -5.816,2.328c-4.656,0.462 -9.994,0.156 -13.525,-3.281c-2.384,-2.241 -2.706,-5.657 -2.678,-8.725c-0.019,-9.225 0.031,-18.453 -0.009,-27.682c-2.525,-0.262 -5.86,0.116 -7.275,-2.493c-0.229,-1.3 -0.369,-2.6 -0.45,-3.9c0.659,-0.757 1.34,-1.497 2.04,-2.244c1.831,-0.397 4.325,0.428 5.656,-1.25c0.232,-3.456 -0.39,-6.988 0.504,-10.366Z" style="fill:#8cabae;fill-rule:nonzero;"/><path d="M1076.27,380.774c0.056,6.206 -0.059,12.425 0.116,18.641c6.169,-0.41 12.584,0.853 18.59,-0.913c6.754,-2.262 7.957,-13.103 1.31,-16.169c-6.278,-2.784 -13.381,-1.065 -20.016,-1.559ZM1061.51,377.327c-0.078,-3.04 1.257,-6.85 4.619,-7.481c5.772,-1.106 11.703,-0.35 17.544,-0.572c8.15,0.059 17.231,-0.903 24.25,4.15c11.197,7.9 10.212,27.347 -1.672,34.169c-9.109,5.15 -19.913,2.647 -29.847,3.259c-0.272,6.297 0.088,12.603 -0.175,18.9c-0.125,3.641 -3.6,6.522 -7.181,6.328c-3.997,0.36 -8.031,-3.193 -7.5,-7.328c-0.081,-17.131 0.009,-34.287 -0.038,-51.425Z" style="fill:#8cabae;fill-rule:nonzero;"/><path d="M1130.96,387.833c2.015,-2.412 5.412,-1.309 8.131,-1.162c2.144,2.997 2.416,6.647 2.241,10.219c1.621,-3.766 3.153,-8.191 7.209,-9.975c3.24,-1.172 7.706,-1.225 9.85,1.978c2.559,2.715 0.912,6.522 -0.659,9.287c-4.438,1.785 -10.897,-0.459 -13.316,4.822c-3.85,9.247 -0.922,19.572 -2.288,29.225c-1.04,3.95 -5.9,4.272 -9.228,3.631c-3.981,-1.6 -3.922,-6.425 -3.94,-10.012c0.175,-10.684 -0.263,-21.388 0.293,-32.059c0.241,-2.041 -0.118,-4.535 1.707,-5.954Z" style="fill:#8cabae;fill-rule:nonzero;"/><path d="M1231.97,390.821c6.26,-5.381 15.253,-5.013 22.95,-3.984c4.722,1.143 10.572,2.806 12.428,7.85c1.288,3.803 -2.25,8.159 -6.268,7.287c-3.65,-1.119 -5.96,-4.812 -9.735,-5.678c-3.531,-0.506 -7.412,-0.563 -10.372,1.719c0.341,1.631 -0.687,4.153 1.303,4.947c6.419,2.862 13.816,2.843 20.103,6.175c4.126,1.959 7.676,6.071 7.326,10.884c0.525,5.569 -3.154,10.644 -7.916,13.137c-5.766,3.225 -12.675,3.36 -19.05,2.438c-5.209,-1.047 -10.703,-2.931 -14.081,-7.275c-2.385,-3.009 -1.678,-8.406 2.34,-9.619c6.338,-1.115 8.713,6.881 14.497,7.725c3.378,1.203 6.794,-0.078 9.919,-1.397c0.387,-0.993 0.784,-1.981 1.212,-2.959c-0.175,-0.709 -0.512,-2.138 -0.678,-2.856c-7.531,-3.403 -16.322,-3.232 -23.415,-7.675c-6.988,-4.394 -6.919,-15.775 -0.563,-20.719Z" style="fill:#8cabae;fill-rule:nonzero;"/><path d="M1346.05,386.699c2.213,-0.706 4.591,-0.212 6.891,-0.156c1.628,2.069 2.19,4.6 2.365,7.181c3.41,-2.337 6.135,-5.878 10.344,-6.859c6.338,-1.397 13.994,-0.982 18.65,4.134c4.581,5.306 4.144,12.769 4.184,19.331c-0.221,7.091 0.447,14.232 -0.456,21.275c-0.844,6.647 -12.925,5.872 -12.859,-0.881c-0.222,-8.094 0.022,-16.197 -0.097,-24.287c-0.047,-3.288 -1.028,-7.16 -4.413,-8.46c-5.684,-2.99 -13.031,1.388 -13.884,7.528c-0.662,8.694 0.338,17.457 -0.459,26.132c-1.241,6.512 -12.991,5.9 -12.963,-1.01c-0.34,-11.594 0.019,-23.222 -0.165,-34.837c0.031,-3.144 -0.254,-7.216 2.862,-9.091Z" style="fill:#8cabae;fill-rule:nonzero;"/><path d="M1588.5,390.883c0.438,-6.521 12.322,-6.443 12.8,0.085c0.397,8.365 0,16.775 0.144,25.153c0.009,3.069 1.147,6.541 4.056,8.034c5.469,3.163 13.166,-1.04 14.184,-7.103c0.807,-8.694 -0.262,-17.487 0.513,-26.178c0.509,-5.006 6.931,-5.6 10.581,-3.825c2.65,1.572 2.388,5.066 2.513,7.734c-0.116,11.972 0.156,23.966 -0.107,35.932c0.022,6.103 -9.025,7.256 -11.597,2.222c-0.087,-1.719 -0.137,-3.435 -0.218,-5.15c-3.128,3.159 -6.428,6.556 -10.913,7.643c-5.5,1.272 -11.884,0.913 -16.462,-2.697c-3.885,-2.959 -5.766,-7.956 -5.591,-12.74c0.069,-9.703 -0.175,-19.416 0.097,-29.11Z" style="fill:#8cabae;fill-rule:nonzero;"/><path d="M1649.23,391.755c-0.19,-4.968 6.078,-7.103 9.707,-4.512c2.968,2.29 2.262,6.444 2.443,9.744c1.372,-4.104 3.366,-8.657 7.725,-10.307c3.153,-0.775 7.403,-0.931 9.294,2.291c2.553,2.891 1.275,7.753 -1.941,9.566c-3.512,1.406 -8.14,-0.435 -10.953,2.64c-3.822,5.085 -2.9,11.878 -3.075,17.856c-0.253,5.25 0.972,10.819 -1.331,15.769c-3.134,1.085 -7.237,2.422 -9.975,-0.178c-2.291,-1.891 -1.991,-5.191 -2.066,-7.85c0.172,-11.672 -0.165,-23.353 0.172,-35.019Z" style="fill:#8cabae;fill-rule:nonzero;"/><path d="M1694.39,389.571c6.347,-3.95 14.253,-3.85 21.394,-2.684c4.787,1.028 10.125,3.053 12.371,7.781c1.428,4.278 -3.034,8.159 -7.15,7.44c-3.24,-2.356 -6.268,-5.859 -10.546,-5.996c-2.863,-0.079 -6.297,-0.438 -8.404,1.921c-1.531,1.291 -0.272,3.388 0.163,4.91c7.85,2.94 17.003,2.834 23.853,8.153c5.678,4.15 5.744,13.022 1.347,18.116c-4.163,4.878 -10.866,6.831 -17.087,6.868c-7.463,0 -15.844,-1.687 -20.813,-7.725c-2.666,-2.881 -2,-8.847 2.347,-9.643c3.978,-1.01 6.397,2.834 9.172,4.9c3.609,3.443 9.39,4.231 13.809,1.912c2.678,-1.156 3.15,-5.987 0.088,-6.95c-7.513,-3.172 -16.588,-2.697 -23.057,-8.187c-6.365,-5.46 -4.622,-16.819 2.513,-20.816Z" style="fill:#8cabae;fill-rule:nonzero;"/><path d="M1180.44,405.855c7.79,0.166 15.581,0.085 23.384,0.041c-0.853,-5.588 -5.619,-10.8 -11.528,-10.578c-5.95,-0.178 -10.975,4.84 -11.856,10.537ZM1172.16,395.046c4.306,-5.997 11.906,-8.859 19.125,-8.8c6.24,-0.331 12.712,1.437 17.484,5.569c5.369,4.606 8.356,12.05 7.141,19.084c-0.416,2.35 -3.307,2.631 -5.219,2.716c-10.206,0.122 -20.438,-0.163 -30.641,0.137c0.378,5.106 3.472,10.21 8.682,11.51c4.212,0.59 9.062,0.715 12.509,-2.222c2.125,-1.369 3.84,-3.913 6.628,-3.825c2.669,-0.191 5.344,1.934 5.513,4.668c0.521,3.582 -2.313,6.504 -5.157,8.182c-7.693,4.453 -17.34,5.131 -25.74,2.462c-6.335,-1.919 -11.653,-6.928 -13.8,-13.206c-3.057,-8.597 -1.978,-18.853 3.475,-26.275Z" style="fill:#8cabae;fill-rule:nonzero;"/><path d="M1297.95,398.627c-2.172,1.863 -2.909,4.713 -3.744,7.325c7.744,-0.028 15.485,0 23.232,-0.012c-0.66,-2.947 -1.563,-6.132 -4.107,-8.022c-4.365,-3.71 -11.306,-3.175 -15.381,0.709ZM1283.57,399.112c3.628,-8.122 12.478,-13.054 21.241,-12.875c7.656,-0.525 15.668,2.306 20.54,8.409c4.238,4.872 5.306,11.697 4.135,17.906c-2.057,0.56 -4.135,1.135 -6.25,1.094c-9.722,0 -19.447,-0.084 -29.16,0.059c0.369,4.772 2.738,9.847 7.666,11.325c4.29,0.988 9.334,1.028 12.975,-1.834c2.415,-1.506 4.472,-4.388 7.656,-3.991c3.55,-0.056 6.191,4.466 4.587,7.544c-1.659,3.9 -5.499,6.1 -9.324,7.403c-10.432,3.703 -23.772,2.51 -31.304,-6.34c-6.55,-7.879 -6.868,-19.619 -2.762,-28.7Z" style="fill:#8cabae;fill-rule:nonzero;"/><path d="M1546.9,396.471c-5.975,2.019 -8.003,9.081 -7.79,14.781c0.078,5.21 1.553,11.681 6.803,14.01c4.356,2.212 10.297,0.775 13.012,-3.357c2.735,-4.253 3.085,-9.55 2.56,-14.437c-0.503,-3.725 -1.969,-7.688 -5.266,-9.794c-2.653,-1.987 -6.259,-1.928 -9.319,-1.203ZM1543.98,386.699c6.407,-0.831 13.341,-0.912 19.157,2.328c7.75,3.931 11.912,12.831 11.884,21.281c0.212,7.297 -1.816,15.175 -7.375,20.222c-6.278,5.407 -15.206,6.278 -23.106,5.122c-6.663,-0.997 -12.894,-5.062 -15.9,-11.165c-3.728,-8.116 -3.941,-17.875 -0.078,-25.969c2.956,-6.053 8.837,-10.46 15.418,-11.819Z" style="fill:#8cabae;fill-rule:nonzero;"/><path d="M1754.75,405.877c7.831,0.135 15.675,0.075 23.513,0.028c-0.66,-6.037 -6.375,-11.459 -12.625,-10.537c-5.656,0.328 -9.556,5.384 -10.888,10.509ZM1756.73,387.808c8.315,-2.7 18.34,-2.378 25.5,3.135c6.618,4.859 9.821,13.515 8.012,21.528c-1.975,0.616 -3.984,1.244 -6.041,1.175c-9.771,-0.019 -19.534,-0.066 -29.297,0.019c-0.068,5.172 3.125,10.297 8.307,11.565c4.172,0.691 8.925,0.682 12.422,-2.075c2.35,-1.581 4.309,-4.512 7.559,-3.872c4.103,0.057 6.094,5.319 3.978,8.519c-2.853,4.738 -8.559,6.55 -13.643,7.685c-8.251,1.446 -17.591,0.45 -24.094,-5.266c-5.832,-4.756 -8.238,-12.653 -7.707,-19.972c-0.018,-9.544 5.669,-19.356 15.004,-22.441Z" style="fill:#8cabae;fill-rule:nonzero;"/></svg>