<?xml version="1.0" standalone="no"?><!DOCTYPE svg PUBLIC "-//W3C//DTD SVG 1.1//EN" "http://www.w3.org/Graphics/SVG/1.1/DTD/svg11.dtd"><svg width="100%" height="100%" viewBox="0 0 139 158" version="1.1" xmlns="http://www.w3.org/2000/svg" xmlns:xlink="http://www.w3.org/1999/xlink" xml:space="preserve" style="fill-rule:evenodd;clip-rule:evenodd;stroke-linejoin:round;stroke-miterlimit:1.41421;"><path d="M126.536,0l-115.032,0l-11.504,13.5l138.039,0l-11.503,-13.5Z" style="fill:#ccd4cf;fill-rule:nonzero;"/><path d="M120.856,125.25l-101.886,0l15.944,-40.125l69.75,-0.047l16.192,40.172Z" style="fill:#ccd4cf;fill-rule:nonzero;"/><path d="M123.789,133.687l-19.125,-48.609l0,-53.578l18,0l1.125,102.187Z" style="fill:#999;fill-rule:nonzero;"/><path d="M19.164,24.75l0,100.588l16.5,-40.26l0,-60.328l-16.5,0Z" style="fill:#999;fill-rule:nonzero;"/><path d="M121.606,119.73c0,0.825 -0.277,2.116 -0.616,2.868l-1.303,1.303c-0.753,0.339 -2.043,0.616 -2.868,0.616l-20.007,0c-0.824,0 -1.5,-0.675 -1.5,-1.5l0,-8.504c0,-0.825 -0.675,-1.5 -1.5,-1.5l-46.299,0c-0.825,0 -1.5,0.675 -1.5,1.5l0,8.504c0,0.825 -0.675,1.5 -1.5,1.5l-20.006,0c-0.824,0 -2.115,-0.277 -2.868,-0.616l-1.302,-1.303c-0.34,-0.752 -0.616,-2.043 -0.616,-2.868l0,-79.166c0,-0.825 0.276,-2.115 0.616,-2.867l1.302,-1.304c0.753,-0.338 2.044,-0.615 2.868,-0.615l92.312,0c0.825,0 2.115,0.277 2.868,0.615l1.303,1.304c0.339,0.752 0.616,2.042 0.616,2.867l0,79.166ZM1.5,12.771c-0.824,0 -1.5,0.675 -1.5,1.5l0,136.682c0,0.825 0.676,1.5 1.5,1.5l3.574,0c0.825,0 1.5,0.675 1.5,1.5l0,1.93c0,0.825 0.675,1.5 1.5,1.5l26.579,0c0.825,0 1.5,-0.675 1.5,-1.5l0,-1.93c0,-0.825 0.676,-1.5 1.5,-1.5l64.376,0c0.825,0 1.5,0.675 1.5,1.5l0,1.93c0,0.825 0.676,1.5 1.5,1.5l26.58,0c0.825,0 1.5,-0.675 1.5,-1.5l0,-1.93c0,-0.825 0.675,-1.5 1.5,-1.5l1.93,0c0.825,0 1.5,-0.675 1.5,-1.5l0,-136.682c0,-0.825 -0.675,-1.5 -1.5,-1.5l-135.039,0Z" style="fill:#eee;fill-rule:nonzero;"/><rect x="50.664" y="118.5" width="39" height="24.75" style="fill:#ccd4cf;fill-rule:nonzero;"/><rect x="57.414" y="125.25" width="12.75" height="9.75" style="fill:#999;fill-rule:nonzero;"/><rect x="78.414" y="125.25" width="5.25" height="3" style="fill:#ff9648;fill-rule:nonzero;"/><rect x="78.414" y="131.25" width="5.25" height="3.75" style="fill:#4ec659;fill-rule:nonzero;"/></svg>