<?xml version="1.0" standalone="no"?><!DOCTYPE svg PUBLIC "-//W3C//DTD SVG 1.1//EN" "http://www.w3.org/Graphics/SVG/1.1/DTD/svg11.dtd"><svg width="100%" height="100%" viewBox="0 0 139 158" version="1.1" xmlns="http://www.w3.org/2000/svg" xmlns:xlink="http://www.w3.org/1999/xlink" xml:space="preserve" style="fill-rule:evenodd;clip-rule:evenodd;stroke-linejoin:round;stroke-miterlimit:1.41421;"><path d="M115.846,14.625l-93.653,0l-9.365,10.991l112.384,0l-9.366,-10.991Z" style="fill:#ccd4cf;fill-rule:nonzero;"/><path d="M111.222,116.597l-82.95,0l12.981,-32.668l56.786,-0.038l13.183,32.706Z" style="fill:#ccd4cf;fill-rule:nonzero;"/><path d="M113.61,123.466l-15.571,-39.575l0,-43.62l14.655,0l0.916,83.195Z" style="fill:#999;fill-rule:nonzero;"/><path d="M28.43,34.775l0,81.894l13.433,-32.778l0,-49.116l-13.433,0Z" style="fill:#999;fill-rule:nonzero;"/><path d="M111.833,112.103c0,0.672 -0.226,1.723 -0.502,2.335l-1.06,1.061c-0.613,0.276 -1.664,0.501 -2.335,0.501l-16.289,0c-0.671,0 -1.221,-0.549 -1.221,-1.221l0,-6.923c0,-0.672 -0.55,-1.221 -1.222,-1.221l-37.694,0c-0.671,0 -1.221,0.549 -1.221,1.221l0,6.923c0,0.672 -0.55,1.221 -1.221,1.221l-16.288,0c-0.671,0 -1.722,-0.225 -2.335,-0.501l-1.06,-1.061c-0.277,-0.612 -0.502,-1.663 -0.502,-2.335l0,-64.453c0,-0.671 0.225,-1.722 0.502,-2.334l1.06,-1.061c0.613,-0.276 1.664,-0.502 2.335,-0.502l75.156,0c0.671,0 1.722,0.226 2.335,0.502l1.06,1.061c0.276,0.612 0.502,1.663 0.502,2.334l0,64.453ZM14.049,25.023c-0.671,0 -1.222,0.549 -1.222,1.221l0,111.279c0,0.672 0.551,1.221 1.222,1.221l2.909,0c0.672,0 1.221,0.55 1.221,1.222l0,1.571c0,0.672 0.55,1.221 1.222,1.221l21.639,0c0.672,0 1.221,-0.549 1.221,-1.221l0,-1.571c0,-0.672 0.55,-1.222 1.222,-1.222l52.411,0c0.672,0 1.222,0.55 1.222,1.222l0,1.571c0,0.672 0.55,1.221 1.221,1.221l21.64,0c0.672,0 1.221,-0.549 1.221,-1.221l0,-1.571c0,-0.672 0.55,-1.222 1.221,-1.222l1.571,0c0.672,0 1.222,-0.549 1.222,-1.221l0,-111.279c0,-0.672 -0.55,-1.221 -1.222,-1.221l-109.941,0Z" style="fill:#eee;fill-rule:nonzero;"/><rect x="54.075" y="111.102" width="31.752" height="20.15" style="fill:#ccd4cf;fill-rule:nonzero;"/><rect x="59.571" y="116.597" width="10.38" height="7.938" style="fill:#999;fill-rule:nonzero;"/><rect x="76.668" y="116.597" width="4.274" height="2.442" style="fill:#ff9648;fill-rule:nonzero;"/><rect x="76.668" y="121.482" width="4.274" height="3.053" style="fill:#4ec659;fill-rule:nonzero;"/></svg>