<svg viewBox="0 0 139 158" xmlns="http://www.w3.org/2000/svg" fill-rule="evenodd" clip-rule="evenodd" stroke-linejoin="round" stroke-miterlimit="1.414"><path d="M115.846 14.625H22.193l-9.365 10.99h112.384l-9.366-10.99zm-4.624 101.972h-82.95l12.98-32.668 56.787-.04 13.18 32.706z" fill="#ccd4cf" fill-rule="nonzero"/><path d="M113.61 123.466L98.04 83.89V40.27h14.654l.916 83.196zm-85.18-88.69v81.893l13.433-32.78V34.775H28.43z" fill="#999" fill-rule="nonzero"/><path d="M111.833 112.103c0 .672-.226 1.723-.502 2.335l-1.06 1.06c-.61.277-1.662.502-2.333.502h-16.29c-.67 0-1.22-.55-1.22-1.22v-6.924c0-.672-.55-1.22-1.222-1.22H51.51c-.67 0-1.22.548-1.22 1.22v6.923c0 .67-.55 1.22-1.222 1.22H32.78c-.67 0-1.722-.226-2.335-.5l-1.06-1.063c-.277-.612-.502-1.663-.502-2.335V47.65c0-.67.225-1.722.502-2.334l1.06-1.06c.613-.277 1.664-.503 2.335-.503h75.156c.67 0 1.722.226 2.335.502l1.06 1.06c.278.613.504 1.664.504 2.335v64.453zM14.05 25.023c-.672 0-1.223.55-1.223 1.22v111.28c0 .672.55 1.22 1.222 1.22h2.907c.672 0 1.22.55 1.22 1.223v1.57c0 .673.55 1.222 1.223 1.222h21.64c.672 0 1.22-.55 1.22-1.22v-1.572c0-.672.55-1.222 1.223-1.222h52.41c.673 0 1.223.55 1.223 1.222v1.57c0 .673.55 1.222 1.22 1.222h21.64c.673 0 1.222-.55 1.222-1.22v-1.572c0-.672.55-1.222 1.22-1.222h1.572c.672 0 1.222-.55 1.222-1.22V26.244c0-.673-.55-1.22-1.222-1.22H14.05z" fill="#eee" fill-rule="nonzero"/><path fill="#ccd4cf" fill-rule="nonzero" d="M54.075 111.102h31.752v20.15H54.075z"/><path fill="#999" fill-rule="nonzero" d="M59.57 116.597h10.38v7.938H59.57z"/><path fill="#ff9648" fill-rule="nonzero" d="M76.668 116.597h4.274v2.442h-4.274z"/><path fill="#4ec659" fill-rule="nonzero" d="M76.668 121.482h4.274v3.053h-4.274z"/></svg>