<?xml version="1.0" standalone="no"?><!DOCTYPE svg PUBLIC "-//W3C//DTD SVG 1.1//EN" "http://www.w3.org/Graphics/SVG/1.1/DTD/svg11.dtd"><svg width="100%" height="100%" viewBox="0 0 478 222" version="1.1" xmlns="http://www.w3.org/2000/svg" xmlns:xlink="http://www.w3.org/1999/xlink" xml:space="preserve" style="fill-rule:evenodd;clip-rule:evenodd;stroke-linejoin:round;stroke-miterlimit:1.41421;"><rect x="277.423" y="136.918" width="6.335" height="44.838" style="fill:#e6e7e8;fill-rule:nonzero;"/><path d="M258.172,191.015l-2.802,0l22.053,-9.259l3.899,4.63l-23.15,4.629Z" style="fill:#e6e7e8;fill-rule:nonzero;"/><path d="M301.927,191.015l3.899,0l-22.053,-9.259l-3.899,4.63l22.053,4.629Z" style="fill:#e6e7e8;fill-rule:nonzero;"/><rect x="277.423" y="181.756" width="6.335" height="3.975" style="fill:#e6e7e8;fill-rule:nonzero;"/><path d="M281.992,193.88l-2.775,0l-1.195,-13.419l5.137,0l-1.167,13.419Z" style="fill:#e6e7e8;fill-rule:nonzero;"/><rect x="255.37" y="191.016" width="2.802" height="2.864" style="fill:#e6e7e8;fill-rule:nonzero;"/><rect x="303.024" y="191.016" width="2.802" height="2.864" style="fill:#e6e7e8;fill-rule:nonzero;"/><path d="M257.086,140.086l47.009,0l0,-7.401l-47.009,0" style="fill:#273244;fill-rule:nonzero;"/><path d="M257.086,140.086l47.009,0l0,-3.168l-47.009,0" style="fill:#041728;fill-rule:nonzero;"/><path d="M257.086,132.685l47.009,0l0,-67.617l-47.009,0" style="fill:#041728;fill-rule:nonzero;"/><rect x="272.244" y="140.026" width="16.692" height="3.411" style="fill:#65859e;fill-rule:nonzero;"/><path d="M258.235,193.922c0,-0.983 -0.788,-1.778 -1.761,-1.778c-0.973,0 -1.762,0.795 -1.762,1.778c0,0.982 0.789,1.777 1.762,1.777c0.973,0 1.761,-0.795 1.761,-1.777" style="fill:#231f20;fill-rule:nonzero;"/><path d="M282.172,193.922c0,-0.983 -0.788,-1.778 -1.763,-1.778c-0.972,0 -1.76,0.795 -1.76,1.778c0,0.982 0.788,1.777 1.76,1.777c0.974,0 1.763,-0.795 1.763,-1.777" style="fill:#231f20;fill-rule:nonzero;"/><path d="M306.122,193.922c0,-0.983 -0.788,-1.778 -1.761,-1.778c-0.973,0 -1.762,0.795 -1.762,1.778c0,0.982 0.789,1.777 1.762,1.777c0.973,0 1.761,-0.795 1.761,-1.777" style="fill:#231f20;fill-rule:nonzero;"/><path d="M264.857,106.188c0,0 -11.703,11.79 -0.044,26.496l33.018,0c0,0 4.697,-5.081 4.574,-13.248c-0.105,-6.801 -5.494,-13.248 -5.494,-13.248l-32.054,0Z" style="fill:#2a3a49;fill-rule:nonzero;"/><path d="M294.274,189.296c0,0 6.057,2.516 8.335,2.749c2.978,0.306 3.681,5.268 3.681,5.268l-20.244,0c0,0 -0.964,-2.929 -0.644,-5.931c3.816,-0.897 8.33,-2.086 8.33,-2.086" style="fill:#231f20;fill-rule:nonzero;"/><path d="M266.154,189.296c0,0 -6.059,2.516 -8.335,2.749c-2.978,0.306 -3.681,5.268 -3.681,5.268l20.244,0c0,0 0.964,-2.929 0.644,-5.931c-3.816,-0.897 -8.332,-2.086 -8.332,-2.086" style="fill:#231f20;fill-rule:nonzero;"/><path d="M274.955,191.587c0,0 6.367,-69.082 6.367,-69.668c0,-0.585 -0.938,-10.928 -9.552,-10.928c-8.613,0 -11.05,5.855 -11.05,12.295c0,6.439 3.185,68.301 3.185,68.301l11.05,0Z" style="fill:#2d3e50;fill-rule:nonzero;"/><path d="M296.784,191.587c0,0 6.367,-69.082 6.367,-69.668c0,-0.585 -0.937,-10.928 -9.552,-10.928c-8.613,0 -11.05,5.855 -11.05,12.295c0,6.439 3.186,68.301 3.186,68.301l11.049,0Z" style="fill:#2d3e50;fill-rule:nonzero;"/><path d="M264.608,92.426l0.249,13.763l32.054,0l0.826,-13.763l-33.129,0Z" style="fill:#fff;fill-rule:nonzero;"/><rect x="141.884" y="136.918" width="6.336" height="44.838" style="fill:#e6e7e8;fill-rule:nonzero;"/><path d="M122.633,191.015l-2.802,0l22.053,-9.259l3.9,4.63l-23.151,4.629Z" style="fill:#e6e7e8;fill-rule:nonzero;"/><path d="M166.389,191.015l3.899,0l-22.053,-9.259l-3.899,4.63l22.053,4.629Z" style="fill:#e6e7e8;fill-rule:nonzero;"/><rect x="141.884" y="181.756" width="6.336" height="3.975" style="fill:#e6e7e8;fill-rule:nonzero;"/><path d="M146.454,193.88l-2.774,0l-1.196,-13.419l5.136,0l-1.166,13.419Z" style="fill:#e6e7e8;fill-rule:nonzero;"/><rect x="119.831" y="191.016" width="2.803" height="2.864" style="fill:#e6e7e8;fill-rule:nonzero;"/><rect x="167.486" y="191.016" width="2.803" height="2.864" style="fill:#e6e7e8;fill-rule:nonzero;"/><path d="M121.548,140.086l47.008,0l0,-7.401l-47.008,0" style="fill:#273244;fill-rule:nonzero;"/><path d="M121.548,140.086l47.008,0l0,-3.168l-47.008,0" style="fill:#041728;fill-rule:nonzero;"/><path d="M121.548,132.685l47.008,0l0,-67.617l-47.008,0" style="fill:#041728;fill-rule:nonzero;"/><rect x="136.706" y="140.026" width="16.692" height="3.411" style="fill:#65859e;fill-rule:nonzero;"/><path d="M122.697,193.922c0,-0.983 -0.788,-1.778 -1.762,-1.778c-0.973,0 -1.761,0.795 -1.761,1.778c0,0.982 0.788,1.777 1.761,1.777c0.974,0 1.762,-0.795 1.762,-1.777" style="fill:#231f20;fill-rule:nonzero;"/><path d="M146.634,193.922c0,-0.983 -0.788,-1.778 -1.762,-1.778c-0.973,0 -1.762,0.795 -1.762,1.778c0,0.982 0.789,1.777 1.762,1.777c0.974,0 1.762,-0.795 1.762,-1.777" style="fill:#231f20;fill-rule:nonzero;"/><path d="M170.584,193.922c0,-0.983 -0.788,-1.778 -1.761,-1.778c-0.973,0 -1.761,0.795 -1.761,1.778c0,0.982 0.788,1.777 1.761,1.777c0.973,0 1.761,-0.795 1.761,-1.777" style="fill:#231f20;fill-rule:nonzero;"/><path d="M129.319,106.188c0,0 -11.703,11.79 -0.045,26.496l33.018,0c0,0 4.698,-5.081 4.574,-13.248c-0.104,-6.801 -5.492,-13.248 -5.492,-13.248l-32.055,0Z" style="fill:#2a3a49;fill-rule:nonzero;"/><path d="M158.736,189.296c0,0 6.058,2.516 8.335,2.749c2.978,0.306 3.681,5.268 3.681,5.268l-20.244,0c0,0 -0.964,-2.929 -0.645,-5.931c3.816,-0.897 8.331,-2.086 8.331,-2.086" style="fill:#231f20;fill-rule:nonzero;"/><path d="M130.615,189.296c0,0 -6.057,2.516 -8.334,2.749c-2.979,0.306 -3.682,5.268 -3.682,5.268l20.245,0c0,0 0.963,-2.929 0.644,-5.931c-3.816,-0.897 -8.331,-2.086 -8.331,-2.086" style="fill:#231f20;fill-rule:nonzero;"/><path d="M139.416,191.587c0,0 6.367,-69.082 6.367,-69.668c0,-0.585 -0.936,-10.928 -9.551,-10.928c-8.614,0 -11.049,5.855 -11.049,12.295c0,6.439 3.184,68.301 3.184,68.301l11.049,0Z" style="fill:#2d3e50;fill-rule:nonzero;"/><path d="M161.245,191.587c0,0 6.367,-69.082 6.367,-69.668c0,-0.585 -0.936,-10.928 -9.551,-10.928c-8.614,0 -11.049,5.855 -11.049,12.295c0,6.439 3.184,68.301 3.184,68.301l11.049,0Z" style="fill:#2d3e50;fill-rule:nonzero;"/><path d="M129.07,92.426l0.249,13.763l32.055,0l0.825,-13.763l-33.129,0Z" style="fill:#fff;fill-rule:nonzero;"/><rect x="49.171" y="136.824" width="7.046" height="49.861" style="fill:#f9fdff;fill-rule:nonzero;"/><path d="M27.764,196.982l-3.117,0l24.524,-10.296l4.337,5.149l-25.744,5.147Z" style="fill:#f9fdff;fill-rule:nonzero;"/><path d="M76.422,196.982l4.336,0l-24.524,-10.296l-4.337,5.149l24.525,5.147Z" style="fill:#f9fdff;fill-rule:nonzero;"/><rect x="49.171" y="186.685" width="7.046" height="4.421" style="fill:#f9fdff;fill-rule:nonzero;"/><path d="M54.253,200.168l-3.085,0l-1.329,-14.922l5.711,0l-1.297,14.922Z" style="fill:#f9fdff;fill-rule:nonzero;"/><rect x="24.647" y="196.983" width="3.117" height="3.185" style="fill:#f9fdff;fill-rule:nonzero;"/><rect x="77.641" y="196.983" width="3.117" height="3.185" style="fill:#f9fdff;fill-rule:nonzero;"/><path d="M0,65.068l24.752,75.279l52.889,0l0,-8.231l-45.877,0l-23,-66.21l-8.764,-0.838Z" style="fill:#273244;fill-rule:nonzero;"/><path d="M27.191,136.824l-23.746,-71.427l-3.445,-0.329l24.753,75.279l52.888,0l0,-3.523l-50.45,0Z" style="fill:#041728;fill-rule:nonzero;"/><rect x="43.413" y="140.281" width="18.563" height="3.793" style="fill:#65859e;fill-rule:nonzero;"/><path d="M28.155,200.478c0,-1.077 -0.873,-1.95 -1.95,-1.95c-1.077,0 -1.949,0.873 -1.949,1.95c0,1.077 0.872,1.949 1.949,1.949c1.077,0 1.95,-0.872 1.95,-1.949" style="fill:#231f20;fill-rule:nonzero;"/><path d="M54.644,200.478c0,-1.077 -0.872,-1.95 -1.949,-1.95c-1.077,0 -1.95,0.873 -1.95,1.95c0,1.077 0.873,1.949 1.95,1.949c1.077,0 1.949,-0.872 1.949,-1.949" style="fill:#231f20;fill-rule:nonzero;"/><path d="M81.149,200.478c0,-1.077 -0.873,-1.95 -1.95,-1.95c-1.077,0 -1.949,0.873 -1.949,1.95c0,1.077 0.872,1.949 1.949,1.949c1.077,0 1.95,-0.872 1.95,-1.949" style="fill:#231f20;fill-rule:nonzero;"/><path d="M132.84,190.084l-24.29,-73.242c-1.803,-2.764 -4.886,-4.434 -8.186,-4.434c0,0 -13.853,-1.329 -32.579,-1.833c-7.533,-0.202 -13.734,-3.336 -14.368,-3.867l-24.115,0c0.031,0.183 -1.34,25.248 29.549,25.248l36.218,0l25.256,60.214l12.515,-2.086Z" style="fill:#2d3e50;fill-rule:nonzero;"/><path d="M132.84,190.084c0,0 8.546,2.516 11.758,2.749c4.2,0.306 5.193,5.268 5.193,5.268l-28.557,0c0,0 -1.36,-2.929 -0.909,-5.931c5.383,-0.897 11.752,-2.086 11.752,-2.086" style="fill:#231f20;fill-rule:nonzero;"/><path d="M40.603,45.009l2.545,-20.152l11.81,-14.053l-6.312,40.11" style="fill:#ffc5a8;fill-rule:nonzero;"/><path d="M69.236,19.171c0,0 -1.843,25.762 -12.904,25.762c-6.948,0 -11.68,-4.412 -11.68,-12.201l1.09,-13.561" style="fill:#ffc5a8;fill-rule:nonzero;"/><path d="M48.276,19.171c0,0 15.481,5.599 21.738,0c6.258,-5.6 -2.865,-11.858 -12.713,-11.858c-9.849,0 -12.649,4.447 -12.649,4.447l3.624,7.411Z" style="fill:#243547;fill-rule:nonzero;"/><path d="M44.652,11.76c0,0 -3.787,0.164 -5.105,3.458c-1.317,3.294 -0.438,17.202 2.197,20.497c0.406,-3.445 3.535,-10.03 5.794,-11.978c2.278,-1.963 3.744,-1.633 5.057,2.085c-0.75,-4.662 -0.366,-6.651 -0.366,-6.651l-7.577,-7.411Z" style="fill:#243547;fill-rule:nonzero;"/><path d="M47.538,23.738c0,0 -2.368,3.708 0.242,10.239c-3.891,0.75 -6.036,1.738 -6.036,1.738c0,0 -1.896,-3.625 0,-6.556c1.896,-2.931 5.794,-5.421 5.794,-5.421" style="fill:#243547;fill-rule:nonzero;"/><path d="M29.302,106.708c0,0 -3.461,-33.803 0,-50.499c3.462,-16.695 23.416,-15.881 26.266,0c2.851,15.882 -4.48,26.879 -4.071,33.393c0.407,6.516 1.92,17.106 1.92,17.106l-24.115,0Z" style="fill:#fff;fill-rule:nonzero;"/><path d="M106.723,77.587c0,0 -35.301,-2.877 -49.335,-19.68c-11.301,-13.533 -20.562,0.03 -9.095,9.146c11.893,9.454 31.539,16.372 58.264,15.625c0.037,-1.155 0.166,-5.091 0.166,-5.091" style="fill:#fff;fill-rule:nonzero;"/><path d="M106.557,82.678c0,0 6.135,0.7 6.839,-0.559c0.26,-0.336 -0.271,-0.603 -0.683,-0.679c0.838,-0.254 1.088,-0.277 1.102,-0.715c0.015,-0.438 -1.142,-0.6 -1.142,-0.6c0,0 1.496,-0.077 1.478,-0.765c-0.02,-0.688 -1.266,-0.635 -1.266,-0.635c0,0 1.329,-0.019 1.307,-0.614c-0.023,-0.595 -0.563,-0.612 -1.101,-0.63c-0.539,-0.017 -3.501,0.48 -3.501,0.48c0,0 1.643,-0.76 2.561,-0.917c0.918,-0.159 0.995,-1.218 -0.841,-0.934c-1.834,0.283 -4.595,1.694 -4.595,1.694l-0.158,4.874Z" style="fill:#ffc5a8;fill-rule:nonzero;"/><rect x="420.846" y="136.824" width="7.046" height="49.861" style="fill:#f9fdff;fill-rule:nonzero;"/><path d="M449.299,196.982l3.117,0l-24.525,-10.296l-4.335,5.149l25.743,5.147Z" style="fill:#f9fdff;fill-rule:nonzero;"/><path d="M400.641,196.982l-4.336,0l24.523,-10.296l4.337,5.149l-24.524,5.147Z" style="fill:#f9fdff;fill-rule:nonzero;"/><rect x="420.846" y="186.685" width="7.046" height="4.421" style="fill:#f9fdff;fill-rule:nonzero;"/><path d="M422.81,200.168l3.085,0l1.329,-14.922l-5.712,0l1.298,14.922Z" style="fill:#f9fdff;fill-rule:nonzero;"/><rect x="449.298" y="196.983" width="3.117" height="3.185" style="fill:#f9fdff;fill-rule:nonzero;"/><rect x="396.305" y="196.983" width="3.115" height="3.185" style="fill:#f9fdff;fill-rule:nonzero;"/><path d="M477.062,65.068l-24.752,75.279l-52.889,0l0,-8.231l45.877,0l22.999,-66.21l8.765,-0.838Z" style="fill:#273244;fill-rule:nonzero;"/><path d="M449.871,136.824l23.747,-71.427l3.444,-0.329l-24.752,75.279l-52.89,0l0,-3.523l50.451,0Z" style="fill:#041728;fill-rule:nonzero;"/><rect x="415.087" y="140.281" width="18.563" height="3.793" style="fill:#65859e;fill-rule:nonzero;"/><path d="M448.908,200.478c0,-1.077 0.873,-1.95 1.95,-1.95c1.076,0 1.949,0.873 1.949,1.95c0,1.077 -0.873,1.949 -1.949,1.949c-1.077,0 -1.95,-0.872 -1.95,-1.949" style="fill:#231f20;fill-rule:nonzero;"/><path d="M422.419,200.478c0,-1.077 0.871,-1.95 1.95,-1.95c1.076,0 1.948,0.873 1.948,1.95c0,1.077 -0.872,1.949 -1.948,1.949c-1.079,0 -1.95,-0.872 -1.95,-1.949" style="fill:#231f20;fill-rule:nonzero;"/><path d="M395.914,200.478c0,-1.077 0.871,-1.95 1.95,-1.95c1.076,0 1.948,0.873 1.948,1.95c0,1.077 -0.872,1.949 -1.948,1.949c-1.079,0 -1.95,-0.872 -1.95,-1.949" style="fill:#231f20;fill-rule:nonzero;"/><path d="M344.223,190.084l24.29,-73.242c1.803,-2.764 4.886,-4.434 8.185,-4.434c0,0 13.853,-1.329 32.58,-1.833c7.533,-0.202 13.734,-3.336 14.367,-3.867l24.116,0c-0.031,0.183 1.34,25.248 -29.549,25.248l-36.219,0l-25.256,60.214l-12.514,-2.086Z" style="fill:#2d3e50;fill-rule:nonzero;"/><path d="M344.223,190.084c0,0 -8.547,2.516 -11.759,2.749c-4.199,0.306 -5.193,5.268 -5.193,5.268l28.558,0c0,0 1.359,-2.929 0.908,-5.931c-5.382,-0.897 -11.751,-2.086 -11.751,-2.086" style="fill:#231f20;fill-rule:nonzero;"/><path d="M436.459,45.009l-2.544,-20.152l-11.811,-14.053l6.312,40.11" style="fill:#ffc5a8;fill-rule:nonzero;"/><path d="M407.826,19.171c0,0 1.844,25.762 12.904,25.762c6.949,0 11.68,-4.412 11.68,-12.201l-1.091,-13.561" style="fill:#ffc5a8;fill-rule:nonzero;"/><path d="M428.786,19.171c0,0 -15.48,5.599 -21.738,0c-6.258,-5.6 2.865,-11.858 12.714,-11.858c9.848,0 12.648,4.447 12.648,4.447l-3.624,7.411Z" style="fill:#231f20;fill-rule:nonzero;"/><path d="M432.411,11.76c0,0 -1.257,-5.688 -6.507,-6.626c-5.25,-0.937 -16.187,3.719 -25.112,-3.026c-1.2,14.12 3.549,18.921 13.112,19.552" style="fill:#231f20;fill-rule:nonzero;"/><path d="M432.411,11.76c0,0 3.786,0.164 5.105,3.458c1.317,3.294 0.438,17.202 -2.198,20.497c-0.405,-3.445 -3.534,-10.03 -5.793,-11.978c-2.278,-1.963 -3.744,-1.633 -5.057,2.085c0.75,-4.662 0.366,-6.651 0.366,-6.651l7.577,-7.411Z" style="fill:#231f20;fill-rule:nonzero;"/><path d="M429.525,23.738c0,0 2.367,3.708 -0.243,10.239c3.892,0.75 6.037,1.738 6.037,1.738c0,0 1.895,-3.625 0,-6.556c-1.896,-2.931 -5.794,-5.421 -5.794,-5.421" style="fill:#231f20;fill-rule:nonzero;"/><path d="M447.761,106.708c0,0 3.461,-33.803 0,-50.499c-3.462,-16.695 -23.418,-15.881 -26.268,0c-2.85,15.882 4.481,26.879 4.072,33.393c-0.407,6.516 -1.92,17.106 -1.92,17.106l24.116,0Z" style="fill:#fff;fill-rule:nonzero;"/><path d="M370.339,77.587c0,0 35.301,-2.877 49.336,-19.68c11.302,-13.533 20.562,0.03 9.094,9.146c-11.893,9.454 -31.539,16.372 -58.263,15.625c-0.038,-1.155 -0.167,-5.091 -0.167,-5.091" style="fill:#fff;fill-rule:nonzero;"/><path d="M370.506,82.678c0,0 -6.135,0.7 -6.839,-0.559c-0.261,-0.336 0.271,-0.603 0.682,-0.679c-0.837,-0.254 -1.088,-0.277 -1.101,-0.715c-0.015,-0.438 1.141,-0.6 1.141,-0.6c0,0 -1.495,-0.077 -1.477,-0.765c0.019,-0.688 1.266,-0.635 1.266,-0.635c0,0 -1.33,-0.019 -1.307,-0.614c0.023,-0.595 0.561,-0.612 1.1,-0.63c0.54,-0.017 3.501,0.48 3.501,0.48c0,0 -1.643,-0.76 -2.562,-0.917c-0.917,-0.159 -0.993,-1.218 0.841,-0.934c1.835,0.283 4.595,1.694 4.595,1.694l0.16,4.874Z" style="fill:#ffc5a8;fill-rule:nonzero;"/><rect x="74.895" y="83.469" width="9.799" height="120.415" style="fill:#f9fdff;fill-rule:nonzero;"/><rect x="397.268" y="83.469" width="9.799" height="120.415" style="fill:#f9fdff;fill-rule:nonzero;"/><rect x="74.895" y="83.47" width="332.152" height="8.957" style="fill:#c4996c;fill-rule:nonzero;"/><path d="M143.087,55.228l0,-20.875l8.654,-13.719l0,38.469" style="fill:#ffc5a8;fill-rule:nonzero;"/><path d="M128.24,46.478c0,0 -22.337,32.156 -11.837,36.727l26.684,0l-1.746,-4.716c0,0 -16.269,-0.342 -18.016,-3.136c-1.748,-2.796 13.824,-19.922 13.824,-19.922" style="fill:#fff;fill-rule:nonzero;"/><path d="M164.866,47.978c0,0 17.37,30.656 6.87,35.227l-26.684,0l1.746,-4.716c0,0 17.195,0.033 18.943,-2.761c1.747,-2.796 -14.751,-20.297 -14.751,-20.297" style="fill:#fff;fill-rule:nonzero;"/><path d="M160.098,29.462c0,6.933 -5.621,12.554 -12.554,12.554c-6.933,0 -12.553,-5.621 -12.553,-12.554l0,-8.056c0,-6.933 5.62,-12.553 12.553,-12.553c6.933,0 12.554,5.62 12.554,12.553l0,8.056Z" style="fill:#ffc5a8;fill-rule:nonzero;"/><path d="M129.319,83.469l-1.079,-38.061c0,0 4.501,-1.674 14.847,-1.883l4.654,6.504l3.874,-6.504c5.001,0.209 13.251,2.838 13.251,2.838l-3.492,37.106l-32.055,0Z" style="fill:#fff;fill-rule:nonzero;"/><path d="M136.784,28.968c0,0 -4.279,-2.033 -5.377,-6.623c-1.557,-6.506 0.168,-12.769 3.558,-12.196c1.659,2.928 2.589,3.6 2.589,3.6c0,0 -1.425,12.182 -0.77,15.219" style="fill:#784e26;fill-rule:nonzero;"/><path d="M137.855,13.893c0,0 4.423,3.387 12.926,3.387c8.503,0 14.545,-7.838 12.666,-14.464c-2.738,2.45 -8.635,2.935 -13.565,1.205c-4.93,-1.73 -10.058,-1.73 -13.259,0.865c-3.201,2.594 -2.024,6.988 1.232,9.007" style="fill:#784e26;fill-rule:nonzero;"/><path d="M138.539,14.235c0,0 -3.141,5.665 -2.131,9.674c-2.451,-3.146 -3.198,-7.719 -3.198,-7.719l1.877,-5.828l3.452,3.873Z" style="fill:#784e26;fill-rule:nonzero;"/><path d="M156.044,14.053c0,0 3.645,1.358 3.321,7.256c3.592,-4.113 1.827,-9.008 1.827,-9.008l-1.697,-2.121l-3.451,3.873Z" style="fill:#784e26;fill-rule:nonzero;"/><path d="M278.625,55.228l0,-20.875l8.653,-13.719l0,38.469" style="fill:#ffc5a8;fill-rule:nonzero;"/><path d="M263.779,46.478c0,0 -22.337,32.156 -11.837,36.727l26.683,0l-1.746,-4.716c0,0 -16.269,-0.342 -18.016,-3.136c-1.748,-2.796 13.824,-19.922 13.824,-19.922" style="fill:#fff;fill-rule:nonzero;"/><path d="M300.403,47.978c0,0 17.37,30.656 6.87,35.227l-26.683,0l1.746,-4.716c0,0 17.196,0.033 18.943,-2.761c1.746,-2.796 -14.751,-20.297 -14.751,-20.297" style="fill:#fff;fill-rule:nonzero;"/><path d="M295.635,29.462c0,6.933 -5.619,12.554 -12.552,12.554c-6.934,0 -12.554,-5.621 -12.554,-12.554l0,-8.056c0,-6.933 5.62,-12.553 12.554,-12.553c6.933,0 12.552,5.62 12.552,12.553l0,8.056Z" style="fill:#ffc5a8;fill-rule:nonzero;"/><path d="M271.237,22.717c0,0 21.691,0 21.482,-10.656c-0.207,-10.654 -12.257,-10.11 -18.305,-5.769c-6.048,4.34 -10.061,15.636 -3.177,16.425" style="fill:#a25016;fill-rule:nonzero;"/><path d="M289.166,15.687c0,0 5,2.069 6.525,7.923c2.525,-3.021 5.213,-7.257 2.588,-12.132c-1.811,-3.36 -5.453,-5.793 -7.415,-4.209c0,4.334 -1.698,8.418 -1.698,8.418" style="fill:#a25016;fill-rule:nonzero;"/><path d="M264.857,83.469l-1.078,-38.061c0,0 4.501,-1.674 14.846,-1.883l4.655,6.504l3.874,-6.504c5,0.209 13.25,2.838 13.25,2.838l-3.493,37.106l-32.054,0Z" style="fill:#fff;fill-rule:nonzero;"/><path d="M205.423,62.12l0,-25.011l10.217,-16.435l0,46.088" style="fill:#ffc5a8;fill-rule:nonzero;"/><path d="M225.803,31.251c0,8.307 -6.734,15.04 -15.04,15.04c-8.306,0 -15.04,-6.733 -15.04,-15.04l0,-9.651c0,-8.307 6.734,-15.039 15.04,-15.039c8.306,0 15.04,6.732 15.04,15.039l0,9.651Z" style="fill:#ffc5a8;fill-rule:nonzero;"/><path d="M188.928,95.955l0.569,-46.129c0,0 3.53,-1.476 15.926,-1.728l5.575,7.794l4.643,-7.794c5.991,0.252 13.887,2.805 13.887,2.805l-2.196,45.052l-38.404,0Z" style="fill:#fff;fill-rule:nonzero;"/><path d="M229.587,23.755c0,-11.025 -8.497,-19.962 -18.98,-19.962c-10.482,0 -18.98,8.937 -18.98,19.962c0,11.025 8.498,19.964 18.98,19.964c10.483,0 18.98,-8.939 18.98,-19.964" style="fill:#231f20;fill-rule:nonzero;"/><path d="M215.64,48.099l0,-1.184l-10.217,0l0,1.184l5.34,9.064l4.877,-9.064Z" style="fill:#fff;fill-rule:nonzero;"/><path d="M189.42,49.88c0,0 -22.337,29.177 -11.837,33.325l26.684,0l-1.746,-4.281c0,0 -16.27,-0.309 -18.016,-2.843c-1.748,-2.538 13.824,-18.077 13.824,-18.077" style="fill:#fff;fill-rule:nonzero;"/><path d="M229.528,50.902c0,0 21.935,28.155 11.435,32.302l-26.685,0l1.746,-4.28c0,0 16.27,-0.31 18.017,-2.843c1.747,-2.538 -13.824,-18.077 -13.824,-18.077" style="fill:#fff;fill-rule:nonzero;"/><path d="M227.834,198.204c0,0 7.203,2.554 9.91,2.792c3.541,0.31 4.377,5.349 4.377,5.349l-24.07,0c0,0 -1.146,-2.974 -0.767,-6.024c4.538,-0.911 9.907,-2.117 9.907,-2.117" style="fill:#231f20;fill-rule:nonzero;"/><path d="M191.992,198.204c0,0 -7.203,2.554 -9.909,2.792c-3.542,0.31 -4.377,5.349 -4.377,5.349l24.069,0c0,0 1.146,-2.974 0.767,-6.024c-4.537,-0.911 -9.906,-2.117 -9.906,-2.117" style="fill:#231f20;fill-rule:nonzero;"/><path d="M202.624,200.53c0,0 6.628,-70.147 6.628,-70.741c0,-0.594 -0.975,-11.097 -9.942,-11.097c-8.967,0 -11.501,5.946 -11.501,12.484c0,6.539 3.314,69.354 3.314,69.354l11.501,0Z" style="fill:#2d3e50;fill-rule:nonzero;"/><path d="M228.556,200.53c0,0 6.592,-70.147 6.592,-70.741c0,-0.594 -0.969,-11.097 -9.888,-11.097c-8.916,0 -11.438,5.946 -11.438,12.484c0,6.539 3.296,69.354 3.296,69.354l11.438,0Z" style="fill:#2d3e50;fill-rule:nonzero;"/><rect x="206.141" y="150.091" width="7.534" height="54.298" style="fill:#e6e7e8;fill-rule:nonzero;"/><path d="M183.252,215.602l-3.332,0l26.221,-11.212l4.637,5.607l-27.526,5.605Z" style="fill:#e6e7e8;fill-rule:nonzero;"/><path d="M235.277,215.602l4.637,0l-26.222,-11.212l-4.636,5.607l26.221,5.605Z" style="fill:#e6e7e8;fill-rule:nonzero;"/><rect x="206.141" y="204.39" width="7.534" height="4.813" style="fill:#e6e7e8;fill-rule:nonzero;"/><path d="M211.575,219.072l-3.299,0l-1.422,-16.251l6.108,0l-1.387,16.251Z" style="fill:#e6e7e8;fill-rule:nonzero;"/><rect x="179.92" y="215.602" width="3.332" height="3.469" style="fill:#e6e7e8;fill-rule:nonzero;"/><rect x="236.581" y="215.602" width="3.333" height="3.469" style="fill:#e6e7e8;fill-rule:nonzero;"/><path d="M181.961,153.927l55.893,0l0,-3.836l-55.893,0" style="fill:#041728;fill-rule:nonzero;"/><path d="M181.961,150.091l55.893,0l0,-83.038l-55.893,0" style="fill:#041728;fill-rule:nonzero;"/><rect x="199.984" y="153.855" width="19.847" height="4.131" style="fill:#65859e;fill-rule:nonzero;"/><path d="M183.327,219.122c0,-1.189 -0.938,-2.152 -2.094,-2.152c-1.156,0 -2.095,0.963 -2.095,2.152c0,1.19 0.939,2.153 2.095,2.153c1.156,0 2.094,-0.963 2.094,-2.153" style="fill:#231f20;fill-rule:nonzero;"/><path d="M211.788,219.122c0,-1.189 -0.937,-2.152 -2.095,-2.152c-1.156,0 -2.094,0.963 -2.094,2.152c0,1.19 0.938,2.153 2.094,2.153c1.158,0 2.095,-0.963 2.095,-2.153" style="fill:#231f20;fill-rule:nonzero;"/><path d="M240.266,219.122c0,-1.189 -0.938,-2.152 -2.094,-2.152c-1.157,0 -2.095,0.963 -2.095,2.152c0,1.19 0.938,2.153 2.095,2.153c1.156,0 2.094,-0.963 2.094,-2.153" style="fill:#231f20;fill-rule:nonzero;"/><path d="M194.022,27.578c0,0 1,-6.003 8.641,-6.731c7.64,-0.727 13.46,-3.91 15.188,-7.549c4.457,3.002 9.005,6.639 9.368,14.28c3.365,-5.185 4.874,-18.498 -6.404,-20.862c-10.006,-10.005 -20.891,-5.811 -26.156,0.853c-7.806,9.878 -0.637,20.009 -0.637,20.009" style="fill:#231f20;fill-rule:nonzero;"/><path d="M327.456,62.12l0,-25.011l10.217,-16.435l0,46.088" style="fill:#ffc5a8;fill-rule:nonzero;"/><path d="M347.836,31.251c0,8.307 -6.734,15.04 -15.039,15.04c-8.307,0 -15.041,-6.733 -15.041,-15.04l0,-9.651c0,-8.307 6.734,-15.039 15.041,-15.039c8.305,0 15.039,6.732 15.039,15.039l0,9.651Z" style="fill:#ffc5a8;fill-rule:nonzero;"/><path d="M318.604,23.17c0,0 25.987,0 25.737,-12.766c-0.248,-12.765 -14.684,-12.113 -21.93,-6.912c-7.245,5.199 -12.054,18.732 -3.807,19.678" style="fill:#243547;fill-rule:nonzero;"/><path d="M340.086,17.364c0,0 5.629,3.087 7.348,11.819c2.844,-4.507 5.871,-10.827 2.915,-18.098c-2.039,-5.012 -6.143,-8.64 -8.351,-6.277c0,6.464 -1.912,12.556 -1.912,12.556" style="fill:#243547;fill-rule:nonzero;"/><path d="M310.96,95.955l0.57,-46.129c0,0 3.531,-1.476 15.926,-1.728l5.575,7.794l4.642,-7.794c5.991,0.252 13.889,2.805 13.889,2.805l-2.198,45.052l-38.404,0Z" style="fill:#fff;fill-rule:nonzero;"/><path d="M351.62,23.755c0,-11.025 -8.497,-19.962 -18.98,-19.962c-10.482,0 -18.98,8.937 -18.98,19.962c0,11.025 8.498,19.964 18.98,19.964c10.483,0 18.98,-8.939 18.98,-19.964" style="fill:#243547;fill-rule:nonzero;"/><path d="M337.673,48.099l0,-1.184l-10.217,0l0,1.184l5.341,9.064l4.876,-9.064Z" style="fill:#fff;fill-rule:nonzero;"/><path d="M311.453,49.88c-0.001,0 -22.336,29.177 -11.836,33.325l26.683,0l-1.746,-4.281c0,0 -16.27,-0.309 -18.016,-2.843c-1.748,-2.538 13.824,-18.077 13.824,-18.077" style="fill:#fff;fill-rule:nonzero;"/><path d="M351.561,50.902c0,0 21.935,28.155 11.435,32.302l-26.685,0l1.746,-4.28c0,0 16.27,-0.31 18.018,-2.843c1.746,-2.538 -13.826,-18.077 -13.826,-18.077" style="fill:#fff;fill-rule:nonzero;"/><path d="M349.867,198.204c0,0 7.203,2.554 9.911,2.792c3.541,0.31 4.377,5.349 4.377,5.349l-24.071,0c0,0 -1.146,-2.974 -0.767,-6.024c4.538,-0.911 9.907,-2.117 9.907,-2.117" style="fill:#231f20;fill-rule:nonzero;"/><path d="M314.025,198.204c0,0 -7.203,2.554 -9.91,2.792c-3.541,0.31 -4.377,5.349 -4.377,5.349l24.071,0c0,0 1.145,-2.974 0.765,-6.024c-4.536,-0.911 -9.905,-2.117 -9.905,-2.117" style="fill:#231f20;fill-rule:nonzero;"/><path d="M324.657,200.53c0,0 6.628,-70.147 6.628,-70.741c0,-0.594 -0.974,-11.097 -9.942,-11.097c-8.966,0 -11.502,5.946 -11.502,12.484c0,6.539 3.315,69.354 3.315,69.354l11.501,0Z" style="fill:#2d3e50;fill-rule:nonzero;"/><path d="M350.589,200.53c0,0 6.593,-70.147 6.593,-70.741c0,-0.594 -0.97,-11.097 -9.888,-11.097c-8.917,0 -11.439,5.946 -11.439,12.484c0,6.539 3.296,69.354 3.296,69.354l11.438,0Z" style="fill:#2d3e50;fill-rule:nonzero;"/><rect x="328.173" y="150.091" width="7.534" height="54.298" style="fill:#e6e7e8;fill-rule:nonzero;"/><path d="M305.286,215.602l-3.333,0l26.221,-11.212l4.637,5.607l-27.525,5.605Z" style="fill:#e6e7e8;fill-rule:nonzero;"/><path d="M357.311,215.602l4.636,0l-26.222,-11.212l-4.636,5.607l26.222,5.605Z" style="fill:#e6e7e8;fill-rule:nonzero;"/><rect x="328.173" y="204.39" width="7.534" height="4.813" style="fill:#e6e7e8;fill-rule:nonzero;"/><path d="M333.608,219.072l-3.298,0l-1.423,-16.251l6.109,0l-1.388,16.251Z" style="fill:#e6e7e8;fill-rule:nonzero;"/><rect x="301.953" y="215.602" width="3.332" height="3.469" style="fill:#e6e7e8;fill-rule:nonzero;"/><rect x="358.615" y="215.602" width="3.332" height="3.469" style="fill:#e6e7e8;fill-rule:nonzero;"/><path d="M303.995,153.927l55.892,0l0,-3.836l-55.892,0" style="fill:#041728;fill-rule:nonzero;"/><path d="M303.995,150.091l55.892,0l0,-83.038l-55.892,0" style="fill:#041728;fill-rule:nonzero;"/><rect x="322.017" y="153.855" width="19.847" height="4.131" style="fill:#65859e;fill-rule:nonzero;"/><path d="M305.36,219.122c0,-1.189 -0.937,-2.152 -2.093,-2.152c-1.157,0 -2.096,0.963 -2.096,2.152c0,1.19 0.939,2.153 2.096,2.153c1.156,0 2.093,-0.963 2.093,-2.153" style="fill:#231f20;fill-rule:nonzero;"/><path d="M333.821,219.122c0,-1.189 -0.936,-2.152 -2.095,-2.152c-1.156,0 -2.093,0.963 -2.093,2.152c0,1.19 0.937,2.153 2.093,2.153c1.159,0 2.095,-0.963 2.095,-2.153" style="fill:#231f20;fill-rule:nonzero;"/><path d="M362.299,219.122c0,-1.189 -0.938,-2.152 -2.095,-2.152c-1.156,0 -2.095,0.963 -2.095,2.152c0,1.19 0.939,2.153 2.095,2.153c1.157,0 2.095,-0.963 2.095,-2.153" style="fill:#231f20;fill-rule:nonzero;"/></svg>