<svg viewBox="0 0 581 458" xmlns="http://www.w3.org/2000/svg" fill-rule="evenodd" clip-rule="evenodd" stroke-linejoin="round" stroke-miterlimit="1.414"><path fill="#053a5a" fill-rule="nonzero" d="M0 67.485h580.5v322.797H0z"/><path d="M215.002 294.795h54.308a3.476 3.476 0 0 1 3.472 3.473 3.477 3.477 0 0 1-3.472 3.474h-17.826a3.466 3.466 0 0 0-3.463 3.462v21.707h1.5v-21.706c0-1.08.884-1.96 1.964-1.96h17.826a4.982 4.982 0 0 0 4.973-4.976 4.98 4.98 0 0 0-4.973-4.973l-54.308-.002" fill="#fff" fill-rule="nonzero"/><path d="M250.49 325.575c3.8 0 6.883 3.082 6.883 6.882v16.513a6.883 6.883 0 0 1-6.883 6.877h-1.83v-30.272h1.83z" fill="#fff" fill-rule="nonzero"/><path d="M246.824 325.575h1.835v30.272h-1.836a6.882 6.882 0 0 1-6.88-6.877v-16.513c0-3.8 3.082-6.882 6.88-6.882" fill="#e6e7e8" fill-rule="nonzero"/><path d="M250.953 332.878v1.48a2.302 2.302 0 0 1-2.294 2.295v-6.068a2.297 2.297 0 0 1 2.293 2.293" fill="#103754" fill-rule="nonzero"/><path d="M248.66 330.586v6.068a2.296 2.296 0 0 1-2.296-2.297v-1.48a2.293 2.293 0 0 1 2.295-2.29" fill="#0e303f" fill-rule="nonzero"/><path d="M114.954 301.464h112.903a2.64 2.64 0 0 1 2.632 2.634v73.226a2.642 2.642 0 0 1-2.633 2.633H114.954a2.642 2.642 0 0 1-2.633-2.633v-73.226a2.64 2.64 0 0 1 2.634-2.634" fill="#fff"/><path d="M120.08 301.464h6.547v3.74a.617.617 0 0 1-.616.614h-5.315a.616.616 0 0 1-.614-.615v-3.74zM216.183 301.464h6.547v3.74a.618.618 0 0 1-.616.614h-5.317a.616.616 0 0 1-.614-.615v-3.74z" fill="#b3b3b3"/><path d="M104.044 266.73H238.54c3.236 0 4.22 1.512 2.893 3.593l-11.253 29.8H112.32l-10.024-27.99c-2.25-3.557-1.816-5.402 1.748-5.402" fill="#ccc"/><path d="M234.548 272.113l-8.184 25.634H116.23l-8.267-25.634h126.585zM103.3 267.224h136.316a.528.528 0 0 1 0 1.053H103.3a.528.528 0 0 1-.526-.525c0-.29.237-.526.527-.526M121.01 298.072h4.69c.296 0 .54.245.54.543v5.538a.545.545 0 0 1-.54.543h-4.69a.545.545 0 0 1-.54-.543v-5.538c0-.298.244-.543.54-.543M217.112 298.072h4.687c.297 0 .542.245.542.543v5.538a.545.545 0 0 1-.543.543h-4.688a.545.545 0 0 1-.542-.543v-5.538c0-.298.245-.543.542-.543" fill="#fff"/><path d="M218.99 311.926h3.646c.414 0 .754.34.754.753v2.71c0 .412-.34.752-.754.752h-3.646a.756.756 0 0 1-.753-.753v-2.71c0-.415.34-.754.753-.754M219.157 317.094h3.312c.506 0 .92.415.92.92v3.672c0 .506-.414.92-.92.92h-3.313a.924.924 0 0 1-.92-.92v-3.67c0-.507.414-.922.92-.922M219.157 323.56h3.312c.506 0 .92.413.92.92v3.67c0 .507-.414.92-.92.92h-3.313a.924.924 0 0 1-.92-.92v-3.67c0-.507.414-.92.92-.92M219.157 330.025h3.312c.506 0 .92.414.92.92v3.67c0 .507-.414.92-.92.92h-3.313a.923.923 0 0 1-.92-.92v-3.67c0-.506.414-.92.92-.92M219.157 336.49h3.312c.506 0 .92.414.92.918v3.672c0 .505-.414.92-.92.92h-3.313a.925.925 0 0 1-.92-.92v-3.672c0-.504.414-.92.92-.92M219.157 342.953h3.312c.506 0 .92.414.92.92v3.67c0 .506-.414.92-.92.92h-3.313a.924.924 0 0 1-.92-.92v-3.67c0-.506.414-.92.92-.92M212.55 311.926h3.645c.414 0 .754.34.754.753v2.71c0 .412-.34.752-.755.752h-3.646a.755.755 0 0 1-.755-.753v-2.71c0-.415.34-.754.754-.754M206.83 317.094h9.133a.99.99 0 0 1 .986.985v3.542a.99.99 0 0 1-.987.985h-9.132a.988.988 0 0 1-.984-.985v-3.543c0-.54.443-.986.985-.986M211.024 323.56h4.94c.54 0 .985.443.985.984v3.54a.988.988 0 0 1-.987.987h-4.94a.987.987 0 0 1-.984-.985v-3.54c0-.542.442-.985.984-.985M206.105 330.025h9.86c.54 0 .985.44.985.984v3.542a.99.99 0 0 1-.986.984h-9.86a.988.988 0 0 1-.983-.984v-3.543c0-.544.443-.985.985-.985M212.716 336.49h3.312c.506 0 .922.414.922.918v3.672c0 .505-.416.92-.922.92h-3.312a.924.924 0 0 1-.92-.92v-3.672c0-.504.414-.92.92-.92M212.716 342.953h3.312c.506 0 .922.414.922.92v3.67c0 .506-.416.92-.922.92h-3.312a.924.924 0 0 1-.92-.92v-3.67c0-.506.414-.92.92-.92M206.6 311.926h3.154c.415 0 .754.34.754.753v2.71c0 .412-.34.752-.754.752H206.6a.756.756 0 0 1-.754-.753v-2.71c0-.415.34-.754.754-.754M200.553 311.926h3.155c.413 0 .753.34.753.753v2.71c0 .412-.34.752-.752.752h-3.155a.755.755 0 0 1-.753-.753v-2.71c0-.415.338-.754.753-.754M194.506 311.926h3.156c.413 0 .753.34.753.753v2.71c0 .412-.34.752-.753.752h-3.156a.755.755 0 0 1-.752-.753v-2.71c0-.415.338-.754.753-.754M188.46 311.926h3.154c.415 0 .754.34.754.753v2.71a.755.755 0 0 1-.754.752h-3.155a.756.756 0 0 1-.754-.753v-2.71c0-.415.34-.754.753-.754M182.414 311.926h3.154c.415 0 .754.34.754.753v2.71c0 .412-.34.752-.754.752h-3.154a.757.757 0 0 1-.754-.753v-2.71c0-.415.34-.754.754-.754M176.367 311.926h3.154c.416 0 .755.34.755.753v2.71c0 .412-.34.752-.754.752h-3.153a.756.756 0 0 1-.754-.753v-2.71c0-.415.34-.754.754-.754M170.32 311.926h3.155c.414 0 .753.34.753.753v2.71c0 .412-.34.752-.753.752h-3.155a.756.756 0 0 1-.753-.753v-2.71c0-.415.34-.754.753-.754M164.273 311.926h3.155c.415 0 .754.34.754.753v2.71c0 .412-.34.752-.754.752h-3.155a.756.756 0 0 1-.753-.753v-2.71c0-.415.34-.754.753-.754M158.227 311.926h3.155c.415 0 .753.34.753.753v2.71a.755.755 0 0 1-.753.752h-3.155a.755.755 0 0 1-.753-.753v-2.71c0-.415.338-.754.753-.754M152.18 311.926h3.155c.414 0 .753.34.753.753v2.71a.755.755 0 0 1-.753.752h-3.154a.757.757 0 0 1-.754-.753v-2.71c0-.415.34-.754.755-.754M146.135 311.926h3.153c.415 0 .754.34.754.753v2.71c0 .412-.34.752-.754.752h-3.153a.756.756 0 0 1-.754-.753v-2.71c0-.415.34-.754.755-.754M140.087 311.926h3.156c.414 0 .753.34.753.753v2.71c0 .412-.34.752-.754.752h-3.155a.755.755 0 0 1-.753-.753v-2.71c0-.415.338-.754.753-.754M134.042 311.926h3.153c.415 0 .754.34.754.753v2.71c0 .412-.34.752-.755.752h-3.153a.756.756 0 0 1-.754-.753v-2.71c0-.415.338-.754.753-.754M127.994 311.926h3.155c.413 0 .752.34.752.753v2.71a.755.755 0 0 1-.753.752h-3.156a.756.756 0 0 1-.754-.753v-2.71c0-.415.34-.754.754-.754M121.202 311.926h3.647c.413 0 .752.34.752.753v2.71c0 .412-.34.752-.753.752H121.2a.756.756 0 0 1-.754-.753v-2.71c0-.415.34-.754.754-.754M200.307 317.094h3.25c.497 0 .903.407.903.904v3.705a.907.907 0 0 1-.903.904h-3.25a.907.907 0 0 1-.903-.904v-3.705c0-.497.406-.904.903-.904M193.747 317.094h3.25c.498 0 .903.407.903.904v3.705a.906.906 0 0 1-.904.904h-3.25a.907.907 0 0 1-.902-.904v-3.705c0-.497.406-.904.903-.904M187.186 317.094h3.25c.498 0 .904.407.904.904v3.705a.906.906 0 0 1-.903.904h-3.25a.907.907 0 0 1-.903-.904v-3.705c0-.497.406-.904.903-.904M180.627 317.094h3.25c.497 0 .903.407.903.904v3.705a.906.906 0 0 1-.903.904h-3.25a.907.907 0 0 1-.904-.904v-3.705c0-.497.407-.904.904-.904M174.066 317.094h3.25c.497 0 .904.407.904.904v3.705a.907.907 0 0 1-.903.904h-3.25a.907.907 0 0 1-.905-.904v-3.705c0-.497.408-.904.904-.904M167.505 317.094h3.252c.496 0 .903.407.903.904v3.705a.907.907 0 0 1-.903.904h-3.252a.907.907 0 0 1-.903-.904v-3.705c0-.497.407-.904.903-.904M160.945 317.094h3.25c.497 0 .905.407.905.904v3.705a.907.907 0 0 1-.904.904h-3.25a.907.907 0 0 1-.904-.904v-3.705c0-.497.407-.904.903-.904M154.386 317.094h3.25c.497 0 .904.407.904.904v3.705a.907.907 0 0 1-.903.904h-3.25a.907.907 0 0 1-.905-.904v-3.705c0-.497.407-.904.904-.904M147.825 317.094h3.25c.497 0 .903.407.903.904v3.705a.907.907 0 0 1-.903.904h-3.25a.906.906 0 0 1-.902-.904v-3.705c0-.497.405-.904.902-.904M141.266 317.094h3.25c.497 0 .902.407.902.904v3.705a.906.906 0 0 1-.903.904h-3.25a.908.908 0 0 1-.904-.904v-3.705c0-.497.41-.904.905-.904M134.704 317.094h3.25c.498 0 .904.407.904.904v3.705a.907.907 0 0 1-.904.904h-3.25a.907.907 0 0 1-.903-.904v-3.705c0-.497.407-.904.904-.904M128.144 317.094h3.25c.497 0 .904.407.904.904v3.705a.907.907 0 0 1-.903.904h-3.25a.907.907 0 0 1-.905-.904v-3.705c0-.497.408-.904.904-.904M121.37 317.094h3.31c.507 0 .922.415.922.92v3.672c0 .506-.415.92-.92.92h-3.313a.924.924 0 0 1-.922-.92v-3.67c0-.507.414-.922.92-.922M121.433 323.56h6.814c.542 0 .985.443.985.984v3.54a.988.988 0 0 1-.985.987h-6.814a.987.987 0 0 1-.985-.985v-3.54c0-.542.442-.985.985-.985M121.433 330.025h8.102c.54 0 .984.44.984.984v3.542c0 .54-.444.984-.985.984h-8.102a.988.988 0 0 1-.985-.984v-3.543c0-.544.444-.985.985-.985M121.433 336.49h11.615c.543 0 .985.442.985.983v3.543c0 .54-.442.985-.984.985H121.43a.987.987 0 0 1-.985-.984v-3.543c0-.54.442-.984.985-.984M121.433 342.953h4.823c.54 0 .984.443.984.985v3.542c0 .542-.444.984-.984.984h-4.823a.986.986 0 0 1-.985-.984v-3.542c0-.542.442-.985.985-.985M131.018 323.56h3.482a.97.97 0 0 1 .967.966v3.577a.97.97 0 0 1-.967.968h-3.482a.97.97 0 0 1-.966-.967v-3.577a.97.97 0 0 1 .966-.966M137.702 323.56h3.48a.97.97 0 0 1 .97.966v3.577a.97.97 0 0 1-.97.968h-3.48a.97.97 0 0 1-.968-.967v-3.577a.97.97 0 0 1 .968-.966M144.386 323.56h3.482a.97.97 0 0 1 .966.966v3.577a.97.97 0 0 1-.966.968h-3.482a.97.97 0 0 1-.967-.967v-3.577a.97.97 0 0 1 .966-.966M151.07 323.56h3.48a.97.97 0 0 1 .968.966v3.577a.97.97 0 0 1-.968.968h-3.48a.97.97 0 0 1-.968-.967v-3.577a.97.97 0 0 1 .967-.966M157.752 323.56h3.482a.97.97 0 0 1 .968.966v3.577a.97.97 0 0 1-.968.968h-3.482a.97.97 0 0 1-.967-.967v-3.577a.97.97 0 0 1 .967-.966M164.436 323.56h3.48a.97.97 0 0 1 .97.966v3.577a.97.97 0 0 1-.97.968h-3.48a.97.97 0 0 1-.968-.967v-3.577a.97.97 0 0 1 .968-.966M171.12 323.56h3.48a.97.97 0 0 1 .968.966v3.577a.97.97 0 0 1-.967.968h-3.48a.97.97 0 0 1-.968-.967v-3.577a.97.97 0 0 1 .967-.966M177.803 323.56h3.48a.97.97 0 0 1 .97.966v3.577a.97.97 0 0 1-.97.968h-3.48a.97.97 0 0 1-.967-.967v-3.577a.97.97 0 0 1 .966-.966M184.485 323.56h3.482a.97.97 0 0 1 .967.966v3.577a.97.97 0 0 1-.967.968h-3.482a.97.97 0 0 1-.967-.967v-3.577a.97.97 0 0 1 .967-.966M191.17 323.56h3.48a.97.97 0 0 1 .97.966v3.577a.97.97 0 0 1-.97.968h-3.48a.97.97 0 0 1-.967-.967v-3.577a.97.97 0 0 1 .967-.966M197.853 323.56h3.482a.97.97 0 0 1 .967.966v3.577a.97.97 0 0 1-.967.968h-3.482a.97.97 0 0 1-.968-.967v-3.577a.97.97 0 0 1 .968-.966M204.536 323.56h3.482a.97.97 0 0 1 .967.966v3.577a.97.97 0 0 1-.967.968h-3.482a.97.97 0 0 1-.967-.967v-3.577a.97.97 0 0 1 .966-.966M132.878 330.025h3.482a.97.97 0 0 1 .967.966v3.578a.97.97 0 0 1-.967.968h-3.482a.97.97 0 0 1-.967-.968v-3.577a.97.97 0 0 1 .968-.965M139.56 330.025h3.483a.97.97 0 0 1 .968.966v3.578a.97.97 0 0 1-.967.968h-3.48a.97.97 0 0 1-.97-.968v-3.577a.97.97 0 0 1 .97-.965M146.245 330.025h3.48a.97.97 0 0 1 .97.966v3.578a.97.97 0 0 1-.97.968h-3.48a.97.97 0 0 1-.968-.968v-3.577a.97.97 0 0 1 .968-.965M152.928 330.025h3.48a.97.97 0 0 1 .97.966v3.578a.97.97 0 0 1-.968.968h-3.482a.97.97 0 0 1-.967-.968v-3.577a.97.97 0 0 1 .968-.965M159.612 330.025h3.48a.97.97 0 0 1 .97.966v3.578a.97.97 0 0 1-.97.968h-3.48a.97.97 0 0 1-.968-.968v-3.577a.97.97 0 0 1 .968-.965M166.295 330.025h3.482a.97.97 0 0 1 .967.966v3.578a.97.97 0 0 1-.967.968h-3.482a.97.97 0 0 1-.966-.968l-.002-3.577a.97.97 0 0 1 .967-.965M172.98 330.025h3.48a.97.97 0 0 1 .967.966v3.578a.97.97 0 0 1-.967.968h-3.48a.97.97 0 0 1-.97-.968v-3.577a.97.97 0 0 1 .97-.965M179.662 330.025h3.482a.97.97 0 0 1 .967.966v3.578a.97.97 0 0 1-.966.968h-3.482a.97.97 0 0 1-.967-.968v-3.577a.97.97 0 0 1 .967-.965M186.346 330.025h3.48a.97.97 0 0 1 .97.966v3.578a.97.97 0 0 1-.97.968h-3.48a.97.97 0 0 1-.968-.968v-3.577a.97.97 0 0 1 .968-.965M193.028 330.025h3.483a.97.97 0 0 1 .967.966v3.578a.97.97 0 0 1-.966.968h-3.482a.97.97 0 0 1-.966-.968v-3.577a.97.97 0 0 1 .966-.965M199.712 330.025h3.48a.97.97 0 0 1 .97.966v3.578a.97.97 0 0 1-.97.968h-3.48a.97.97 0 0 1-.967-.968v-3.577a.97.97 0 0 1 .967-.965M136.378 336.49h3.48a.97.97 0 0 1 .968.967v3.576a.97.97 0 0 1-.967.968h-3.482a.97.97 0 0 1-.968-.967v-3.576a.97.97 0 0 1 .968-.968M143.06 336.49h3.482a.97.97 0 0 1 .968.967v3.576a.97.97 0 0 1-.968.968h-3.48a.97.97 0 0 1-.97-.967v-3.576a.97.97 0 0 1 .97-.968M149.744 336.49h3.48a.97.97 0 0 1 .97.967v3.576a.97.97 0 0 1-.97.968h-3.48a.97.97 0 0 1-.967-.967v-3.576a.97.97 0 0 1 .967-.968M156.428 336.49h3.48a.97.97 0 0 1 .97.967v3.576a.97.97 0 0 1-.97.968h-3.48a.97.97 0 0 1-.967-.967v-3.576a.97.97 0 0 1 .968-.968M163.11 336.49h3.482a.97.97 0 0 1 .967.967v3.576a.97.97 0 0 1-.968.968h-3.48a.97.97 0 0 1-.97-.967v-3.576a.97.97 0 0 1 .97-.968M169.795 336.49h3.48a.97.97 0 0 1 .97.967v3.576a.97.97 0 0 1-.97.968h-3.48a.97.97 0 0 1-.968-.967v-3.576a.97.97 0 0 1 .968-.968M176.48 336.49h3.48a.97.97 0 0 1 .967.967v3.576a.97.97 0 0 1-.967.968h-3.48a.97.97 0 0 1-.97-.967v-3.576a.97.97 0 0 1 .97-.968M183.16 336.49h3.483a.97.97 0 0 1 .967.967v3.576a.97.97 0 0 1-.967.968h-3.482a.97.97 0 0 1-.966-.967v-3.576a.97.97 0 0 1 .967-.968M189.845 336.49h3.48a.97.97 0 0 1 .97.967v3.576a.97.97 0 0 1-.97.968h-3.48a.97.97 0 0 1-.968-.967v-3.576a.97.97 0 0 1 .968-.968M196.528 336.49h3.48a.97.97 0 0 1 .97.967v3.576a.97.97 0 0 1-.97.968h-3.48a.97.97 0 0 1-.968-.967v-3.576a.97.97 0 0 1 .968-.968M203.23 336.49h6.293c.54 0 .984.442.984.983v3.543c0 .54-.443.985-.984.985h-6.294a.987.987 0 0 1-.986-.984v-3.543c0-.54.443-.984.985-.984M129.585 342.953h3.48a.97.97 0 0 1 .968.968v3.577a.97.97 0 0 1-.967.967h-3.48a.97.97 0 0 1-.97-.967v-3.576a.97.97 0 0 1 .97-.967M136.268 342.953h3.48a.97.97 0 0 1 .97.968v3.577a.97.97 0 0 1-.97.967h-3.48a.97.97 0 0 1-.967-.967v-3.576a.97.97 0 0 1 .968-.967M142.952 342.953h3.482a.97.97 0 0 1 .966.968v3.577a.97.97 0 0 1-.966.967h-3.482a.97.97 0 0 1-.967-.967v-3.576a.97.97 0 0 1 .967-.967M149.636 342.953h3.48a.97.97 0 0 1 .968.968v3.577a.97.97 0 0 1-.967.967h-3.48a.97.97 0 0 1-.97-.967v-3.576a.97.97 0 0 1 .97-.967M156.32 342.953h3.48a.97.97 0 0 1 .968.968v3.577a.97.97 0 0 1-.968.967h-3.48a.97.97 0 0 1-.97-.967v-3.576a.97.97 0 0 1 .97-.967M163.002 342.953h3.48a.97.97 0 0 1 .97.968v3.577a.97.97 0 0 1-.968.967H163a.97.97 0 0 1-.968-.967v-3.576a.97.97 0 0 1 .968-.967M169.686 342.953h3.48a.97.97 0 0 1 .968.968v3.577a.97.97 0 0 1-.967.967h-3.48a.97.97 0 0 1-.97-.967v-3.576a.97.97 0 0 1 .97-.967M176.368 342.953h3.483a.97.97 0 0 1 .967.968v3.577a.97.97 0 0 1-.966.967h-3.482a.97.97 0 0 1-.966-.967v-3.576a.97.97 0 0 1 .966-.967M183.053 342.953h3.48a.97.97 0 0 1 .97.968v3.577a.97.97 0 0 1-.97.967h-3.48a.97.97 0 0 1-.97-.967v-3.576a.97.97 0 0 1 .97-.967M189.735 342.953h3.482a.97.97 0 0 1 .967.968v3.577a.97.97 0 0 1-.967.967h-3.482a.97.97 0 0 1-.967-.967v-3.576a.97.97 0 0 1 .967-.967M196.436 342.953h6.294c.542 0 .984.443.984.985v3.542c0 .542-.442.984-.984.984h-6.294a.987.987 0 0 1-.985-.984l.002-3.542c0-.542.443-.985.984-.985M206.275 342.953h3.312c.506 0 .92.414.92.92v3.67c0 .506-.414.92-.92.92h-3.312a.923.923 0 0 1-.92-.92v-3.67c0-.506.413-.92.92-.92M154.04 353.1h34.73c.53 0 .963.433.963.963v16.7c0 .53-.432.962-.962.962h-34.73a.966.966 0 0 1-.962-.963v-16.7c0-.53.434-.96.962-.96M153.277 372.974h17.273c.11 0 .2.09.2.2v3.467a.2.2 0 0 1-.2.2h-17.273a.2.2 0 0 1-.2-.2v-3.466c0-.11.09-.2.2-.2M172.26 372.974h17.273c.11 0 .2.09.2.2v3.467a.2.2 0 0 1-.2.2H172.26a.2.2 0 0 1-.2-.2v-3.466c0-.11.09-.2.2-.2" fill="#ccc"/><path d="M233.18 276.358H109.332l-1.37-4.265H234.55l-1.368 4.265z" fill="#104d7c" fill-rule="nonzero"/><path d="M230.314 285.374H112.17l-2.838-9.016H233.18l-2.866 9.016z" fill="#a2d7e7" fill-rule="nonzero"/><path d="M154.947 292.282h-24.01l-1.675-5.445h24.813l.872 5.445zM183.26 292.282h-24.01l-.71-5.445h26.24l-1.52 5.445zM211.575 292.282h-24.01l1.247-5.445h24.7l-1.937 5.445z" fill="#104d7c" fill-rule="nonzero"/><path d="M139.217 274.225c0-.863-1.855-1.563-4.14-1.563-2.287 0-4.14.7-4.14 1.563 0 .864 1.853 1.564 4.14 1.564 2.285 0 4.14-.7 4.14-1.565M201.488 273.12h10.086v1.458h-10.086zM189.353 273.12h10.086v1.458h-10.087zM177.217 273.12h10.087v1.458h-10.087zM165.08 273.12h10.088v1.458H165.08z" fill="#e6e7e8" fill-rule="nonzero"/><path d="M155.087 293.337l.113 1.047h-23.753l-.37-1.047h24.01zM155.556 295.024l.112 1.047h-23.753l-.37-1.046h24.01zM187.46 293.337l-.244 1.047h23.886l.37-1.047h-24.01zM187.06 295.024l-.18 1.047h23.754l.37-1.046H187.06zM159.357 293.337l.156 1.047h23.25l.368-1.047h-23.773zM159.578 295.024l.168 1.047h22.547l.37-1.046h-23.086z" fill="#a7a9ac" fill-rule="nonzero"/><path d="M226.68 435.202a7.5 7.5 0 0 1-7.5 7.5h-61.358a7.5 7.5 0 0 1-7.5-7.5V400.3a7.5 7.5 0 0 1 7.5-7.5h61.358a7.5 7.5 0 0 1 7.5 7.5v34.902z" fill="#053a5a" fill-rule="nonzero"/><path fill="#2bb673" fill-rule="nonzero" d="M163.5 390.47H187.6v27.28H163.5zM189.406 390.47h24.097v27.28h-24.097z"/><path d="M236.852 449.203a8.75 8.75 0 0 1-8.75 8.75h-79.2a8.75 8.75 0 0 1 0-17.5h79.2a8.75 8.75 0 0 1 8.75 8.75" fill="#053a5a" fill-rule="nonzero"/><path d="M241.183 427.357c0 9.864-23.99 17.86-53.582 17.86-29.592 0-53.582-7.996-53.582-17.86 0-9.864 23.99-17.86 53.582-17.86 29.593 0 53.583 7.996 53.583 17.86" fill="#eee" fill-rule="nonzero"/><path d="M184.182 402.22s6.947-10.034 18.302-2.096c11.357 7.938 10.474 21.06 10.144 26.57-.332 5.513-3.75 22.823-23.374 22.823-19.625 0-23.925-15.104-23.925-24.696 0-9.59 2.32-21.658 10.252-24.255 6.064-1.984 8.6 1.654 8.6 1.654" fill="#604a32" fill-rule="nonzero"/><path d="M238.097 348.916l.894-7.314a2.85 2.85 0 0 0-2.483-3.176l-.944-.115c-.04-.005-.077-.006-.12-.008l-.762 6.246 3.417 4.368z" fill="#fcb" fill-rule="nonzero"/><path d="M240.665 348.166l-4.172-5.33a2.847 2.847 0 0 0-1.5-.994l-.574 4.705 5.573 7.124.672-5.504zM248.486 327.025a1.933 1.933 0 0 1 1.682 2.15l-1.725 14.116a1.932 1.932 0 1 1-3.834-.467l1.724-14.117a1.932 1.932 0 0 1 2.152-1.68" fill="#fcb" fill-rule="nonzero"/><path d="M238.894 349.738a5.017 5.017 0 0 0 4.37 5.587l8.094.99a5.017 5.017 0 0 0 5.588-4.372l.99-8.09a5.02 5.02 0 0 0-4.37-5.59l-8.094-.988a5.02 5.02 0 0 0-5.59 4.372l-.988 8.09z" fill="#fcb" fill-rule="nonzero"/><path d="M257.353 332.51a1.93 1.93 0 0 1 1.68 2.15l-1.103 9.042a1.932 1.932 0 0 1-3.834-.47l1.105-9.04a1.93 1.93 0 0 1 2.153-1.682M252.953 329.965a1.934 1.934 0 0 1 1.684 2.152l-1.726 14.117a1.93 1.93 0 0 1-3.832-.47l1.725-14.116a1.933 1.933 0 0 1 2.15-1.683M243.358 329.476a1.93 1.93 0 0 1 1.683 2.15l-1.603 13.14a1.932 1.932 0 0 1-3.835-.47l1.605-13.137a1.932 1.932 0 0 1 2.15-1.684" fill="#fcb" fill-rule="nonzero"/><path d="M252.923 368.22l2.203-18.024a3.404 3.404 0 0 0-2.966-3.79l-5.49-.67a3.403 3.403 0 0 0-3.79 2.964l-2.202 18.026 12.245 1.495z" fill="#fcb" fill-rule="nonzero"/><path d="M253.255 395.893l-14.95-3.843 2.074-34.914 15.055 1.822-2.18 36.935z" fill="#eee" fill-rule="nonzero"/><path d="M253.255 395.893l-12.1 31.886-15.637-1.104 12.77-34.632M134.017 387.203v40.154h15.455v-40.154" fill="#eee" fill-rule="nonzero"/><path d="M156.16 346.228v-7.368a2.85 2.85 0 0 1 2.852-2.852h.95c.04 0 .078.004.12.007v6.292l-3.922 3.92z" fill="#fcb" fill-rule="nonzero"/><path d="M153.703 345.173l4.787-4.786a2.843 2.843 0 0 1 1.61-.803v4.74l-6.397 6.395v-5.547zM148.533 328.762c-1.066 0-1.93.865-1.93 1.93v14.222a1.932 1.932 0 0 0 3.86 0v-14.222c0-1.065-.863-1.93-1.93-1.93" fill="#fcb" fill-rule="nonzero"/><path d="M155.27 346.947a5.016 5.016 0 0 1-5.018 5.016h-8.154a5.015 5.015 0 0 1-5.015-5.016v-8.15a5.017 5.017 0 0 1 5.015-5.02h8.154a5.018 5.018 0 0 1 5.017 5.02v8.15z" fill="#fcb" fill-rule="nonzero"/><path d="M139.013 330.367a1.93 1.93 0 0 0-1.93 1.932v9.107a1.93 1.93 0 0 0 3.862 0V332.3a1.93 1.93 0 0 0-1.932-1.933M143.74 328.76a1.93 1.93 0 0 0-1.932 1.932v14.22a1.932 1.932 0 0 0 3.86 0v-14.22a1.93 1.93 0 0 0-1.928-1.93M153.327 324.02a1.932 1.932 0 0 0-1.932 1.93v13.237a1.93 1.93 0 0 0 3.862 0V325.95c0-1.066-.865-1.93-1.93-1.93" fill="#fcb" fill-rule="nonzero"/><path d="M139.102 363.592v-18.16a3.403 3.403 0 0 1 3.404-3.402h5.53a3.403 3.403 0 0 1 3.403 3.403l-.002 18.16h-12.336z" fill="#fcb" fill-rule="nonzero"/><path d="M134.017 387.203h15.438l2.652-32.04H136.67l-2.653 32.04z" fill="#eee" fill-rule="nonzero"/><path d="M138.154 357.562a.86.86 0 1 0 1.72 0 .86.86 0 0 0-1.72 0" fill="#eee" fill-rule="nonzero"/><path d="M99.747 351.158c2.424 9.26-3.117 18.732-12.376 21.156-9.262 2.424-18.732-3.118-21.157-12.378-2.423-9.26 3.117-18.732 12.38-21.157 9.26-2.425 18.73 3.118 21.154 12.378" fill="#ddd" fill-rule="nonzero"/><path d="M101.523 355.74a1.877 1.877 0 0 1-1.895 1.855l-5.62-.06.04-3.747 5.62.06a1.868 1.868 0 0 1 1.855 1.893" fill="#fff" fill-rule="nonzero"/><path d="M94.048 353.788l-.04 3.747 2.096.022c.188-1.22.206-2.48.038-3.747l-2.094-.022z" fill="#bcbec0" fill-rule="nonzero"/><path d="M94.31 352.582c1.64 6.258-2.107 12.656-8.363 14.294-6.26 1.638-12.657-2.107-14.295-8.363-1.638-6.258 2.106-12.658 8.363-14.295 6.257-1.638 12.657 2.106 14.296 8.364" fill="#fff" fill-rule="nonzero"/><path d="M92.498 353.056c1.376 5.256-1.77 10.632-7.026 12.008-5.257 1.376-10.633-1.77-12.008-7.025-1.376-5.257 1.77-10.634 7.026-12.01 5.255-1.375 10.632 1.77 12.008 7.026" fill="#391a06" fill-rule="nonzero"/><path d="M76.895 360.046c-1.375-5.257 1.77-10.632 7.026-12.008a9.787 9.787 0 0 1 5.64.197 9.825 9.825 0 0 0-9.07-2.205c-5.257 1.376-8.402 6.752-7.026 12.01a9.827 9.827 0 0 0 6.367 6.826 9.786 9.786 0 0 1-2.935-4.82" fill="#502a14" fill-rule="nonzero"/><path d="M497.837 294.795h54.307a3.476 3.476 0 0 1 3.472 3.473 3.477 3.477 0 0 1-3.472 3.474h-17.826a3.466 3.466 0 0 0-3.463 3.462v21.707h1.5v-21.706c0-1.08.883-1.96 1.963-1.96h17.826a4.982 4.982 0 0 0 4.973-4.976 4.98 4.98 0 0 0-4.973-4.973l-54.307-.002" fill="#fff" fill-rule="nonzero"/><path d="M533.324 325.575c3.8 0 6.884 3.082 6.884 6.882v16.513a6.883 6.883 0 0 1-6.884 6.877h-1.83v-30.272h1.83z" fill="#fff" fill-rule="nonzero"/><path d="M529.658 325.575h1.835v30.272h-1.836a6.882 6.882 0 0 1-6.88-6.877v-16.513c0-3.8 3.083-6.882 6.88-6.882" fill="#e6e7e8" fill-rule="nonzero"/><path d="M533.787 332.878v1.48a2.302 2.302 0 0 1-2.294 2.295v-6.068a2.297 2.297 0 0 1 2.294 2.293" fill="#103754" fill-rule="nonzero"/><path d="M531.493 330.586v6.068a2.296 2.296 0 0 1-2.295-2.297v-1.48a2.293 2.293 0 0 1 2.295-2.29" fill="#0e303f" fill-rule="nonzero"/><path d="M397.79 301.464h112.9a2.64 2.64 0 0 1 2.633 2.634v73.226a2.642 2.642 0 0 1-2.632 2.633h-112.9a2.642 2.642 0 0 1-2.635-2.633v-73.226a2.64 2.64 0 0 1 2.634-2.634" fill="#fff"/><path d="M402.916 301.464h6.546v3.74a.617.617 0 0 1-.616.614h-5.316a.616.616 0 0 1-.614-.615v-3.74zM499.017 301.464h6.547v3.74a.618.618 0 0 1-.616.614h-5.317a.616.616 0 0 1-.613-.615v-3.74z" fill="#b3b3b3"/><path d="M386.878 266.73h134.497c3.235 0 4.22 1.512 2.892 3.593l-11.253 29.8H395.156l-10.026-27.99c-2.25-3.557-1.815-5.402 1.748-5.402" fill="#ccc"/><path d="M517.382 272.113l-8.184 25.634H399.065l-8.267-25.634h126.584z" fill="#fff"/><path d="M392.034 276.11h124.163l1.225-3.997H390.798l1.236 3.996z" fill="#104d7c"/><path d="M386.136 267.224H522.45a.528.528 0 0 1 0 1.053H386.137a.528.528 0 0 1-.527-.525c0-.29.236-.526.526-.526M403.845 298.072h4.688c.296 0 .542.245.542.543v5.538a.545.545 0 0 1-.542.543h-4.688a.545.545 0 0 1-.542-.543v-5.538c0-.298.245-.543.542-.543M499.947 298.072h4.687c.297 0 .543.245.543.543v5.538a.545.545 0 0 1-.543.543h-4.687a.545.545 0 0 1-.542-.543v-5.538c0-.298.244-.543.542-.543" fill="#fff"/><path d="M501.824 311.926h3.647c.415 0 .754.34.754.753v2.71c0 .412-.34.752-.753.752h-3.646a.756.756 0 0 1-.753-.753v-2.71c0-.415.34-.754.754-.754M501.99 317.094h3.313c.507 0 .92.415.92.92v3.672c0 .506-.413.92-.92.92h-3.312a.924.924 0 0 1-.92-.92v-3.67c0-.507.415-.922.922-.922M501.99 323.56h3.313c.507 0 .92.413.92.92v3.67c0 .507-.413.92-.92.92h-3.312a.924.924 0 0 1-.92-.92v-3.67c0-.507.415-.92.922-.92M501.99 330.025h3.313c.507 0 .92.414.92.92v3.67c0 .507-.413.92-.92.92h-3.312a.923.923 0 0 1-.92-.92v-3.67c0-.506.415-.92.922-.92M501.99 336.49h3.313c.507 0 .92.414.92.918v3.672c0 .505-.413.92-.92.92h-3.312a.925.925 0 0 1-.92-.92v-3.672c0-.504.415-.92.922-.92M501.99 342.953h3.313c.507 0 .92.414.92.92v3.67c0 .506-.413.92-.92.92h-3.312a.924.924 0 0 1-.92-.92v-3.67c0-.506.415-.92.922-.92M495.383 311.926h3.647c.414 0 .754.34.754.753v2.71c0 .412-.34.752-.754.752h-3.647a.755.755 0 0 1-.753-.753v-2.71c0-.415.338-.754.753-.754M489.666 317.094h9.132a.99.99 0 0 1 .986.985v3.542a.99.99 0 0 1-.986.985h-9.132a.988.988 0 0 1-.985-.985v-3.543c0-.54.444-.986.986-.986M493.858 323.56h4.94c.54 0 .985.443.985.984v3.54a.988.988 0 0 1-.985.987h-4.94a.987.987 0 0 1-.984-.985v-3.54c0-.542.442-.985.984-.985M488.94 330.025h9.858c.54 0 .986.44.986.984v3.542a.99.99 0 0 1-.986.984h-9.86a.988.988 0 0 1-.983-.984v-3.543c0-.544.442-.985.984-.985M495.55 336.49h3.312c.506 0 .922.414.922.918v3.672c0 .505-.416.92-.922.92h-3.312a.924.924 0 0 1-.92-.92v-3.672c0-.504.414-.92.92-.92M495.55 342.953h3.312c.506 0 .922.414.922.92v3.67c0 .506-.416.92-.922.92h-3.312a.924.924 0 0 1-.92-.92v-3.67c0-.506.414-.92.92-.92M489.434 311.926h3.154c.415 0 .754.34.754.753v2.71c0 .412-.34.752-.754.752h-3.154a.756.756 0 0 1-.754-.753v-2.71c0-.415.34-.754.754-.754M483.388 311.926h3.155c.413 0 .753.34.753.753v2.71c0 .412-.34.752-.753.752h-3.155a.755.755 0 0 1-.753-.753v-2.71c0-.415.338-.754.753-.754M477.34 311.926h3.156c.413 0 .753.34.753.753v2.71c0 .412-.34.752-.754.752h-3.156a.755.755 0 0 1-.752-.753v-2.71c0-.415.338-.754.752-.754M471.294 311.926h3.155c.414 0 .752.34.752.753v2.71a.755.755 0 0 1-.753.752h-3.156a.756.756 0 0 1-.753-.753v-2.71c0-.415.34-.754.754-.754M465.248 311.926h3.154c.415 0 .754.34.754.753v2.71c0 .412-.34.752-.754.752h-3.154a.757.757 0 0 1-.754-.753v-2.71c0-.415.34-.754.754-.754M459.202 311.926h3.154c.414 0 .753.34.753.753v2.71c0 .412-.34.752-.755.752h-3.153a.756.756 0 0 1-.754-.753v-2.71c0-.415.34-.754.754-.754M453.154 311.926h3.155c.413 0 .752.34.752.753v2.71c0 .412-.34.752-.753.752h-3.156a.756.756 0 0 1-.753-.753v-2.71c0-.415.34-.754.755-.754M447.108 311.926h3.155c.414 0 .753.34.753.753v2.71c0 .412-.34.752-.754.752h-3.154a.756.756 0 0 1-.753-.753v-2.71c0-.415.34-.754.753-.754M441.06 311.926h3.156c.415 0 .753.34.753.753v2.71a.755.755 0 0 1-.754.752h-3.155a.755.755 0 0 1-.752-.753v-2.71c0-.415.338-.754.753-.754M435.016 311.926h3.153c.414 0 .752.34.752.753v2.71a.755.755 0 0 1-.753.752h-3.154a.757.757 0 0 1-.755-.753v-2.71c0-.415.34-.754.756-.754M428.968 311.926h3.154c.415 0 .754.34.754.753v2.71c0 .412-.34.752-.754.752h-3.154a.756.756 0 0 1-.753-.753v-2.71c0-.415.34-.754.754-.754M422.922 311.926h3.155c.414 0 .753.34.753.753v2.71c0 .412-.34.752-.753.752h-3.155a.755.755 0 0 1-.753-.753v-2.71c0-.415.337-.754.752-.754M416.875 311.926h3.154c.414 0 .753.34.753.753v2.71c0 .412-.34.752-.754.752h-3.154a.756.756 0 0 1-.754-.753v-2.71c0-.415.338-.754.754-.754M410.83 311.926h3.154c.414 0 .753.34.753.753v2.71a.755.755 0 0 1-.754.752h-3.154a.756.756 0 0 1-.755-.753v-2.71c0-.415.34-.754.754-.754M404.036 311.926h3.647c.414 0 .753.34.753.753v2.71a.755.755 0 0 1-.753.752h-3.647a.756.756 0 0 1-.754-.753v-2.71c0-.415.34-.754.754-.754M483.142 317.094h3.25c.497 0 .903.407.903.904v3.705a.907.907 0 0 1-.903.904h-3.25a.907.907 0 0 1-.903-.904v-3.705c0-.497.405-.904.902-.904M476.58 317.094h3.25c.5 0 .904.407.904.904v3.705a.906.906 0 0 1-.903.904h-3.25a.907.907 0 0 1-.902-.904v-3.705c0-.497.406-.904.903-.904M470.02 317.094h3.25c.498 0 .904.407.904.904v3.705a.906.906 0 0 1-.903.904h-3.25a.907.907 0 0 1-.902-.904v-3.705c0-.497.406-.904.902-.904M463.46 317.094h3.25c.498 0 .904.407.904.904v3.705a.906.906 0 0 1-.903.904h-3.25a.907.907 0 0 1-.903-.904v-3.705c0-.497.407-.904.904-.904M456.9 317.094h3.25c.497 0 .904.407.904.904v3.705a.907.907 0 0 1-.903.904h-3.25a.907.907 0 0 1-.904-.904v-3.705c0-.497.407-.904.904-.904M450.34 317.094h3.25c.498 0 .904.407.904.904v3.705a.907.907 0 0 1-.903.904h-3.25a.907.907 0 0 1-.904-.904v-3.705c0-.497.407-.904.903-.904M443.78 317.094h3.25c.497 0 .904.407.904.904v3.705a.907.907 0 0 1-.904.904h-3.25a.907.907 0 0 1-.904-.904v-3.705c0-.497.407-.904.903-.904M437.22 317.094h3.25c.497 0 .904.407.904.904v3.705a.907.907 0 0 1-.904.904h-3.25a.907.907 0 0 1-.904-.904v-3.705c0-.497.407-.904.904-.904M430.66 317.094h3.25c.496 0 .902.407.902.904v3.705a.907.907 0 0 1-.902.904h-3.25a.906.906 0 0 1-.903-.904v-3.705c0-.497.405-.904.902-.904M424.1 317.094h3.25c.496 0 .902.407.902.904v3.705a.906.906 0 0 1-.903.904h-3.25a.907.907 0 0 1-.904-.904v-3.705c0-.497.407-.904.903-.904M417.538 317.094h3.25c.498 0 .905.407.905.904v3.705a.907.907 0 0 1-.904.904h-3.252a.907.907 0 0 1-.902-.904v-3.705c0-.497.406-.904.902-.904M410.98 317.094h3.25c.496 0 .903.407.903.904v3.705a.907.907 0 0 1-.903.904h-3.25a.907.907 0 0 1-.905-.904v-3.705c0-.497.407-.904.904-.904M404.203 317.094h3.312c.506 0 .92.415.92.92v3.672c0 .506-.414.92-.92.92h-3.312a.924.924 0 0 1-.92-.92v-3.67c0-.507.413-.922.92-.922M404.267 323.56h6.814c.543 0 .986.443.986.984v3.54a.988.988 0 0 1-.985.987h-6.813a.987.987 0 0 1-.984-.985v-3.54c0-.542.44-.985.984-.985M404.267 330.025h8.102c.54 0 .984.44.984.984v3.542c0 .54-.444.984-.984.984h-8.103a.988.988 0 0 1-.984-.984v-3.543c0-.544.443-.985.984-.985M404.267 336.49h11.615c.543 0 .985.442.985.983v3.543c0 .54-.442.985-.985.985h-11.615a.987.987 0 0 1-.984-.984v-3.543c0-.54.44-.984.984-.984M404.267 342.953h4.823c.54 0 .984.443.984.985v3.542c0 .542-.444.984-.984.984h-4.823a.986.986 0 0 1-.984-.984v-3.542c0-.542.44-.985.984-.985M413.853 323.56h3.48a.97.97 0 0 1 .97.966v3.577a.97.97 0 0 1-.97.968h-3.48a.97.97 0 0 1-.967-.967v-3.577a.97.97 0 0 1 .967-.966M420.537 323.56h3.48a.97.97 0 0 1 .97.966v3.577a.97.97 0 0 1-.97.968h-3.48a.97.97 0 0 1-.968-.967v-3.577a.97.97 0 0 1 .967-.966M427.22 323.56h3.482a.97.97 0 0 1 .966.966v3.577a.97.97 0 0 1-.966.968h-3.482a.97.97 0 0 1-.967-.967v-3.577a.97.97 0 0 1 .967-.966M433.904 323.56h3.48a.97.97 0 0 1 .968.966v3.577a.97.97 0 0 1-.968.968h-3.48a.97.97 0 0 1-.968-.967v-3.577a.97.97 0 0 1 .968-.966M440.586 323.56h3.482a.97.97 0 0 1 .968.966v3.577a.97.97 0 0 1-.968.968h-3.482a.97.97 0 0 1-.967-.967v-3.577a.97.97 0 0 1 .966-.966M447.27 323.56h3.48a.97.97 0 0 1 .97.966v3.577a.97.97 0 0 1-.97.968h-3.48a.97.97 0 0 1-.967-.967v-3.577a.97.97 0 0 1 .967-.966M453.954 323.56h3.482a.97.97 0 0 1 .966.966v3.577a.97.97 0 0 1-.966.968h-3.482a.97.97 0 0 1-.968-.967v-3.577a.97.97 0 0 1 .968-.966M460.637 323.56h3.48a.97.97 0 0 1 .97.966v3.577a.97.97 0 0 1-.97.968h-3.48a.97.97 0 0 1-.966-.967v-3.577a.97.97 0 0 1 .967-.966M467.32 323.56h3.482a.97.97 0 0 1 .967.966v3.577a.97.97 0 0 1-.968.968h-3.482a.97.97 0 0 1-.967-.967v-3.577a.97.97 0 0 1 .967-.966M474.005 323.56h3.48a.97.97 0 0 1 .968.966v3.577a.97.97 0 0 1-.968.968h-3.48a.97.97 0 0 1-.968-.967v-3.577a.97.97 0 0 1 .968-.966M480.687 323.56h3.48a.97.97 0 0 1 .97.966v3.577a.97.97 0 0 1-.97.968h-3.48a.97.97 0 0 1-.968-.967v-3.577a.97.97 0 0 1 .967-.966M487.37 323.56h3.482a.97.97 0 0 1 .967.966v3.577a.97.97 0 0 1-.968.968h-3.482a.97.97 0 0 1-.967-.967v-3.577a.97.97 0 0 1 .967-.966M415.712 330.025h3.482a.97.97 0 0 1 .967.966v3.578a.97.97 0 0 1-.966.968h-3.482a.97.97 0 0 1-.967-.968v-3.577a.97.97 0 0 1 .967-.965M422.395 330.025h3.482a.97.97 0 0 1 .967.966v3.578a.97.97 0 0 1-.967.968h-3.482a.97.97 0 0 1-.967-.968v-3.577a.97.97 0 0 1 .967-.965M429.08 330.025h3.48a.97.97 0 0 1 .97.966v3.578a.97.97 0 0 1-.97.968h-3.48a.97.97 0 0 1-.97-.968v-3.577a.97.97 0 0 1 .97-.965M435.763 330.025h3.48a.97.97 0 0 1 .97.966v3.578a.97.97 0 0 1-.97.968h-3.48a.97.97 0 0 1-.968-.968v-3.577a.97.97 0 0 1 .968-.965M442.447 330.025h3.48a.97.97 0 0 1 .97.966v3.578a.97.97 0 0 1-.97.968h-3.48a.97.97 0 0 1-.968-.968v-3.577a.97.97 0 0 1 .967-.965M449.13 330.025h3.48a.97.97 0 0 1 .968.966v3.578a.97.97 0 0 1-.967.968h-3.48a.97.97 0 0 1-.968-.968v-3.577a.97.97 0 0 1 .967-.965M455.813 330.025h3.48a.97.97 0 0 1 .97.966v3.578a.97.97 0 0 1-.97.968h-3.48a.97.97 0 0 1-.968-.968v-3.577a.97.97 0 0 1 .968-.965M462.496 330.025h3.482a.97.97 0 0 1 .967.966v3.578a.97.97 0 0 1-.967.968h-3.482a.97.97 0 0 1-.967-.968v-3.577a.97.97 0 0 1 .966-.965M469.18 330.025h3.48a.97.97 0 0 1 .97.966v3.578a.97.97 0 0 1-.97.968h-3.48a.97.97 0 0 1-.968-.968v-3.577a.97.97 0 0 1 .968-.965M475.862 330.025h3.482a.97.97 0 0 1 .967.966v3.578a.97.97 0 0 1-.966.968h-3.482a.97.97 0 0 1-.967-.968v-3.577a.97.97 0 0 1 .967-.965M482.547 330.025h3.48a.97.97 0 0 1 .97.966v3.578a.97.97 0 0 1-.97.968h-3.48a.97.97 0 0 1-.968-.968v-3.577a.97.97 0 0 1 .967-.965M419.212 336.49h3.48a.97.97 0 0 1 .968.967v3.576a.97.97 0 0 1-.967.968h-3.48a.97.97 0 0 1-.97-.967v-3.576a.97.97 0 0 1 .97-.968M425.895 336.49h3.48a.97.97 0 0 1 .97.967v3.576a.97.97 0 0 1-.97.968h-3.48a.97.97 0 0 1-.968-.967v-3.576a.97.97 0 0 1 .968-.968M432.58 336.49h3.48a.97.97 0 0 1 .967.967v3.576a.97.97 0 0 1-.967.968h-3.48a.97.97 0 0 1-.968-.967v-3.576a.97.97 0 0 1 .967-.968M439.262 336.49h3.482a.97.97 0 0 1 .967.967v3.576a.97.97 0 0 1-.966.968h-3.482a.97.97 0 0 1-.966-.967v-3.576a.97.97 0 0 1 .966-.968M445.946 336.49h3.48a.97.97 0 0 1 .968.967v3.576a.97.97 0 0 1-.967.968h-3.48a.97.97 0 0 1-.97-.967v-3.576a.97.97 0 0 1 .97-.968M452.63 336.49h3.48a.97.97 0 0 1 .968.967v3.576a.97.97 0 0 1-.97.968h-3.48a.97.97 0 0 1-.967-.967v-3.576a.97.97 0 0 1 .97-.968M459.313 336.49h3.48a.97.97 0 0 1 .968.967v3.576a.97.97 0 0 1-.966.968h-3.48a.97.97 0 0 1-.97-.967v-3.576a.97.97 0 0 1 .97-.968M465.995 336.49h3.482a.97.97 0 0 1 .967.967v3.576a.97.97 0 0 1-.967.968h-3.482a.97.97 0 0 1-.967-.967v-3.576a.97.97 0 0 1 .967-.968M472.68 336.49h3.48a.97.97 0 0 1 .967.967v3.576a.97.97 0 0 1-.967.968h-3.48a.97.97 0 0 1-.97-.967v-3.576a.97.97 0 0 1 .97-.968M479.362 336.49h3.48a.97.97 0 0 1 .97.967v3.576a.97.97 0 0 1-.97.968h-3.48a.97.97 0 0 1-.968-.967v-3.576a.97.97 0 0 1 .968-.968M486.063 336.49h6.294c.54 0 .984.442.984.983v3.543c0 .54-.44.985-.983.985h-6.294a.987.987 0 0 1-.985-.984v-3.543c0-.54.443-.984.985-.984M412.42 342.953h3.48a.97.97 0 0 1 .968.968v3.577a.97.97 0 0 1-.968.967h-3.48a.97.97 0 0 1-.968-.967v-3.576a.97.97 0 0 1 .968-.967M419.103 342.953h3.48a.97.97 0 0 1 .97.968v3.577a.97.97 0 0 1-.97.967h-3.48a.97.97 0 0 1-.968-.967v-3.576a.97.97 0 0 1 .968-.967M425.786 342.953h3.482a.97.97 0 0 1 .967.968v3.577a.97.97 0 0 1-.967.967h-3.482a.97.97 0 0 1-.967-.967v-3.576a.97.97 0 0 1 .966-.967M432.47 342.953h3.48a.97.97 0 0 1 .97.968l-.002 3.577a.97.97 0 0 1-.967.967h-3.48a.97.97 0 0 1-.968-.967v-3.576a.97.97 0 0 1 .967-.967M439.154 342.953h3.48a.97.97 0 0 1 .968.968v3.577a.97.97 0 0 1-.968.967h-3.48a.97.97 0 0 1-.97-.967v-3.576a.97.97 0 0 1 .97-.967M445.836 342.953h3.482a.97.97 0 0 1 .967.968v3.577a.97.97 0 0 1-.967.967h-3.482a.97.97 0 0 1-.967-.967v-3.576a.97.97 0 0 1 .966-.967M452.52 342.953H456a.97.97 0 0 1 .968.968v3.577a.97.97 0 0 1-.967.967h-3.48a.97.97 0 0 1-.968-.967v-3.576a.97.97 0 0 1 .968-.967M459.203 342.953h3.483a.97.97 0 0 1 .966.968v3.577a.97.97 0 0 1-.966.967h-3.483a.97.97 0 0 1-.966-.967v-3.576a.97.97 0 0 1 .966-.967M465.887 342.953h3.48a.97.97 0 0 1 .97.968v3.577a.97.97 0 0 1-.97.967h-3.48a.97.97 0 0 1-.968-.967v-3.576a.97.97 0 0 1 .967-.967M472.57 342.953h3.482a.97.97 0 0 1 .967.968v3.577a.97.97 0 0 1-.968.967h-3.482a.97.97 0 0 1-.967-.967v-3.576a.97.97 0 0 1 .967-.967M479.27 342.953h6.294c.542 0 .984.443.984.985v3.542c0 .542-.442.984-.984.984h-6.294a.987.987 0 0 1-.984-.984v-3.542c0-.542.443-.985.984-.985M489.11 342.953h3.31c.508 0 .922.414.922.92v3.67c0 .506-.414.92-.92.92h-3.313a.923.923 0 0 1-.92-.92v-3.67c0-.506.412-.92.92-.92M436.874 353.1h34.73c.53 0 .963.433.963.963v16.7c0 .53-.432.962-.962.962h-34.73a.966.966 0 0 1-.963-.963v-16.7c0-.53.434-.96.962-.96M436.11 372.974h17.274c.11 0 .2.09.2.2v3.467a.2.2 0 0 1-.2.2H436.11a.2.2 0 0 1-.2-.2v-3.466c0-.11.09-.2.2-.2M455.094 372.974h17.273c.11 0 .2.09.2.2v3.467a.2.2 0 0 1-.2.2h-17.273a.2.2 0 0 1-.2-.2v-3.466c0-.11.09-.2.2-.2" fill="#ccc"/><path d="M509.514 435.202a7.5 7.5 0 0 1-7.5 7.5h-61.358a7.5 7.5 0 0 1-7.5-7.5V400.3a7.5 7.5 0 0 1 7.5-7.5h61.358a7.5 7.5 0 0 1 7.5 7.5v34.902z" fill="#053a5a" fill-rule="nonzero"/><path fill="#27aae1" fill-rule="nonzero" d="M446.335 390.47h24.097v27.28h-24.097zM472.24 390.47h24.097v27.28H472.24z"/><path d="M519.686 449.203a8.75 8.75 0 0 1-8.75 8.75h-79.202a8.75 8.75 0 0 1 0-17.5h79.203a8.75 8.75 0 0 1 8.75 8.75" fill="#053a5a" fill-rule="nonzero"/><path d="M524.018 427.357c0 9.864-23.99 17.86-53.583 17.86s-53.583-7.996-53.583-17.86c0-9.864 23.99-17.86 53.583-17.86s53.583 7.996 53.583 17.86" fill="#eee" fill-rule="nonzero"/><path d="M467.017 402.22s6.946-10.034 18.3-2.096c11.36 7.938 10.476 21.06 10.146 26.57-.332 5.513-3.75 22.823-23.374 22.823-19.626 0-23.926-15.104-23.926-24.696 0-9.59 2.32-21.658 10.253-24.255 6.064-1.984 8.6 1.654 8.6 1.654" fill="#604a32" fill-rule="nonzero"/><path d="M520.93 348.916l.895-7.314a2.85 2.85 0 0 0-2.484-3.176l-.943-.115c-.04-.005-.077-.006-.118-.008l-.765 6.246 3.416 4.368z" fill="#fcb" fill-rule="nonzero"/><path d="M523.5 348.166l-4.173-5.33a2.847 2.847 0 0 0-1.5-.994l-.574 4.705 5.573 7.124.673-5.504zM531.32 327.025a1.933 1.933 0 0 1 1.683 2.15l-1.725 14.116a1.932 1.932 0 1 1-3.834-.467l1.725-14.117a1.932 1.932 0 0 1 2.15-1.68" fill="#fcb" fill-rule="nonzero"/><path d="M521.73 349.738a5.017 5.017 0 0 0 4.37 5.587l8.093.99a5.017 5.017 0 0 0 5.588-4.372l.99-8.09a5.02 5.02 0 0 0-4.37-5.59l-8.093-.988a5.02 5.02 0 0 0-5.59 4.372l-.988 8.09z" fill="#fcb" fill-rule="nonzero"/><path d="M540.187 332.51a1.93 1.93 0 0 1 1.68 2.15l-1.103 9.042a1.932 1.932 0 0 1-3.834-.47l1.105-9.04a1.93 1.93 0 0 1 2.152-1.682M535.788 329.965a1.932 1.932 0 0 1 1.683 2.152l-1.725 14.117a1.93 1.93 0 0 1-3.832-.47l1.725-14.116a1.933 1.933 0 0 1 2.15-1.683M526.193 329.476a1.93 1.93 0 0 1 1.683 2.15l-1.605 13.14a1.932 1.932 0 0 1-3.836-.47l1.608-13.137a1.932 1.932 0 0 1 2.15-1.684" fill="#fcb" fill-rule="nonzero"/><path d="M535.757 368.22l2.204-18.024a3.404 3.404 0 0 0-2.966-3.79l-5.488-.67a3.403 3.403 0 0 0-3.792 2.964l-2.2 18.026 12.243 1.495z" fill="#fcb" fill-rule="nonzero"/><path d="M536.09 395.893l-14.95-3.843 2.073-34.914 15.056 1.822-2.18 36.935z" fill="#eee" fill-rule="nonzero"/><path d="M536.09 395.893l-12.1 31.886-15.64-1.104 12.772-34.632M416.852 387.203v40.154h15.455v-40.154" fill="#eee" fill-rule="nonzero"/><path d="M438.994 346.228v-7.368a2.85 2.85 0 0 1 2.852-2.852h.95c.04 0 .078.004.12.007v6.292l-3.922 3.92z" fill="#fcb" fill-rule="nonzero"/><path d="M436.537 345.173l4.788-4.786a2.84 2.84 0 0 1 1.608-.803v4.74l-6.396 6.395v-5.547zM431.367 328.762c-1.066 0-1.93.865-1.93 1.93v14.222a1.932 1.932 0 0 0 3.86 0v-14.222c0-1.065-.864-1.93-1.93-1.93" fill="#fcb" fill-rule="nonzero"/><path d="M438.104 346.947a5.016 5.016 0 0 1-5.017 5.016h-8.154a5.015 5.015 0 0 1-5.015-5.016v-8.15a5.017 5.017 0 0 1 5.015-5.02h8.154a5.018 5.018 0 0 1 5.017 5.02v8.15z" fill="#fcb" fill-rule="nonzero"/><path d="M421.847 330.367a1.93 1.93 0 0 0-1.93 1.932v9.107a1.93 1.93 0 0 0 3.862 0V332.3a1.93 1.93 0 0 0-1.933-1.933M426.574 328.76a1.93 1.93 0 0 0-1.93 1.932v14.22a1.932 1.932 0 0 0 3.86 0v-14.22a1.93 1.93 0 0 0-1.93-1.93M436.16 324.02a1.932 1.932 0 0 0-1.93 1.93v13.237a1.93 1.93 0 0 0 3.86 0l.002-13.237c0-1.066-.865-1.93-1.93-1.93" fill="#fcb" fill-rule="nonzero"/><path d="M421.936 363.592v-18.16a3.403 3.403 0 0 1 3.404-3.402h5.53a3.403 3.403 0 0 1 3.402 3.403v18.16h-12.336z" fill="#fcb" fill-rule="nonzero"/><path d="M416.852 387.203h15.438l2.65-32.04h-15.436l-2.652 32.04z" fill="#eee" fill-rule="nonzero"/><path d="M420.988 357.562a.86.86 0 1 0 1.72 0 .86.86 0 0 0-1.72 0" fill="#eee" fill-rule="nonzero"/><path d="M66.604 163.158H12.296a3.476 3.476 0 0 1-3.472-3.473 3.476 3.476 0 0 1 3.47-3.474h17.828a3.466 3.466 0 0 0 3.463-3.46V131.04h-1.5v21.707c0 1.08-.883 1.958-1.963 1.958H12.295a4.982 4.982 0 0 0-4.972 4.977 4.98 4.98 0 0 0 4.972 4.973l54.31.002" fill="#fff" fill-rule="nonzero"/><path d="M31.116 132.378a6.885 6.885 0 0 1-6.884-6.882v-16.513c0-3.796 3.084-6.877 6.884-6.877h1.83v30.272h-1.83z" fill="#fff" fill-rule="nonzero"/><path d="M34.782 132.378h-1.835v-30.272h1.835c3.798 0 6.88 3.08 6.88 6.877v16.513c0 3.8-3.082 6.882-6.88 6.882" fill="#e6e7e8" fill-rule="nonzero"/><path d="M30.653 125.075v-1.48a2.302 2.302 0 0 1 2.294-2.295v6.068a2.297 2.297 0 0 1-2.294-2.293" fill="#103754" fill-rule="nonzero"/><path d="M32.947 127.367V121.3c1.27 0 2.295 1.03 2.295 2.296v1.478a2.293 2.293 0 0 1-2.295 2.293" fill="#0e303f" fill-rule="nonzero"/><path d="M166.65 156.49H53.75a2.64 2.64 0 0 1-2.634-2.635V80.63a2.642 2.642 0 0 1 2.633-2.635h112.9a2.64 2.64 0 0 1 2.634 2.634v73.225a2.64 2.64 0 0 1-2.632 2.634" fill="#fff"/><path d="M161.525 156.49h-6.546v-3.74c0-.338.275-.615.614-.615h5.316c.338 0 .615.277.615.614v3.74zM65.422 156.49h-6.546v-3.74c0-.338.28-.615.616-.615h5.317c.336 0 .612.277.612.614v3.74z" fill="#b3b3b3"/><path d="M177.563 191.22H43.065c-3.236 0-4.22-1.51-2.893-3.59l11.254-29.8h117.858l10.026 27.99c2.25 3.557 1.816 5.4-1.748 5.4" fill="#ccc"/><path d="M47.057 185.84l8.184-25.634h110.134l8.268 25.634H47.057z" fill="#fff"/><path d="M172.405 181.843H48.243l-1.225 3.997h126.624l-1.237-3.997z" fill="#104d7c"/><path d="M178.304 190.73H41.99a.528.528 0 0 1-.528-.528c0-.29.237-.526.527-.526h136.314c.29 0 .528.236.528.526 0 .29-.237.527-.528.527M160.595 159.88h-4.687a.545.545 0 0 1-.542-.542V153.8c0-.298.244-.543.542-.543h4.687c.297 0 .543.245.543.543v5.538a.546.546 0 0 1-.544.543M64.493 159.88h-4.686a.546.546 0 0 1-.543-.542V153.8c0-.298.245-.543.543-.543h4.686c.297 0 .543.245.543.543v5.538a.546.546 0 0 1-.543.543" fill="#fff"/><path d="M62.615 146.027H58.97a.756.756 0 0 1-.754-.754v-2.71c0-.413.34-.752.754-.752h3.645c.415 0 .754.34.754.754v2.71c0 .413-.34.753-.755.753M62.45 140.86h-3.313a.924.924 0 0 1-.92-.922v-3.67c0-.508.414-.922.92-.922h3.312c.505 0 .92.414.92.92v3.672c0 .506-.415.92-.92.92M62.45 134.393h-3.313a.923.923 0 0 1-.92-.92v-3.67c0-.507.414-.92.92-.92h3.312c.505 0 .92.413.92.92v3.67c0 .507-.415.92-.92.92M62.45 127.928h-3.313a.924.924 0 0 1-.92-.92v-3.67c0-.507.414-.92.92-.92h3.312c.505 0 .92.413.92.92v3.67c0 .506-.415.92-.92.92M62.45 121.464h-3.313a.924.924 0 0 1-.92-.92v-3.67c0-.506.414-.922.92-.922h3.312c.505 0 .92.416.92.92v3.672c0 .505-.415.92-.92.92M62.45 115h-3.313a.924.924 0 0 1-.92-.92v-3.67c0-.507.414-.92.92-.92h3.312c.505 0 .92.413.92.92v3.67c0 .506-.415.92-.92.92M69.057 146.027H65.41a.756.756 0 0 1-.753-.754v-2.71c0-.413.34-.752.753-.752h3.647c.414 0 .753.34.753.754v2.71c0 .413-.34.753-.753.753M74.774 140.86H65.64a.99.99 0 0 1-.983-.987v-3.542c0-.54.443-.984.985-.984h9.132c.542 0 .985.444.985.985v3.543c0 .54-.444.986-.986.986M70.582 134.393h-4.94a.987.987 0 0 1-.985-.985v-3.54c0-.543.442-.986.985-.986h4.94c.542 0 .985.443.985.986v3.54c0 .542-.443.985-.985.985M75.5 127.928h-9.858a.987.987 0 0 1-.985-.985V123.4a.99.99 0 0 1 .985-.983h9.86c.54 0 .984.444.984.984v3.543a.986.986 0 0 1-.985.985M68.89 121.464h-3.31a.924.924 0 0 1-.923-.92v-3.67c0-.506.415-.922.922-.922h3.31c.506 0 .92.416.92.92v3.672c0 .505-.414.92-.92.92M68.89 115h-3.31a.924.924 0 0 1-.923-.92v-3.67c0-.507.415-.92.922-.92h3.31c.506 0 .92.413.92.92v3.67c0 .506-.414.92-.92.92M75.006 146.027h-3.154a.756.756 0 0 1-.753-.754v-2.71c0-.413.337-.752.752-.752h3.154c.414 0 .754.34.754.754v2.71c0 .413-.34.753-.754.753M81.052 146.027h-3.155a.756.756 0 0 1-.753-.754v-2.71c0-.413.34-.752.753-.752h3.155c.414 0 .753.34.753.754v2.71c0 .413-.34.753-.753.753M87.1 146.027h-3.155a.756.756 0 0 1-.753-.754v-2.71c0-.413.34-.752.753-.752H87.1c.414 0 .752.34.752.754v2.71a.756.756 0 0 1-.753.753M93.145 146.027h-3.154a.756.756 0 0 1-.752-.754v-2.71c0-.413.338-.752.753-.752h3.156c.414 0 .753.34.753.754v2.71c0 .413-.34.753-.755.753M99.192 146.027h-3.154a.756.756 0 0 1-.753-.754v-2.71c0-.413.34-.752.753-.752h3.154c.415 0 .754.34.754.754v2.71c0 .413-.34.753-.754.753M105.24 146.027h-3.156a.756.756 0 0 1-.753-.754v-2.71c0-.413.34-.752.754-.752h3.155c.413 0 .752.34.752.754v2.71c0 .413-.34.753-.753.753M111.286 146.027h-3.155a.756.756 0 0 1-.752-.754v-2.71c0-.413.34-.752.753-.752h3.156c.414 0 .754.34.754.754v2.71c0 .413-.34.753-.754.753M117.332 146.027h-3.154a.756.756 0 0 1-.754-.754v-2.71c0-.413.34-.752.754-.752h3.154c.414 0 .753.34.753.754v2.71c0 .413-.34.753-.753.753M123.38 146.027h-3.156a.756.756 0 0 1-.753-.754v-2.71c0-.413.34-.752.754-.752h3.155c.413 0 .752.34.752.754v2.71a.756.756 0 0 1-.753.753M129.424 146.027h-3.153a.756.756 0 0 1-.753-.754v-2.71c0-.413.34-.752.754-.752h3.155c.414 0 .753.34.753.754v2.71c0 .413-.34.753-.754.753M135.472 146.027h-3.155a.756.756 0 0 1-.753-.754v-2.71c0-.413.34-.752.753-.752h3.155c.414 0 .753.34.753.754v2.71c0 .413-.34.753-.753.753M141.518 146.027h-3.155a.756.756 0 0 1-.753-.754v-2.71c0-.413.34-.752.753-.752h3.155c.415 0 .753.34.753.754v2.71a.756.756 0 0 1-.752.753M147.565 146.027h-3.154a.756.756 0 0 1-.753-.754v-2.71c0-.413.34-.752.754-.752h3.155c.415 0 .753.34.753.754v2.71a.756.756 0 0 1-.753.753M153.61 146.027h-3.153a.756.756 0 0 1-.754-.754v-2.71c0-.413.34-.752.754-.752h3.154c.416 0 .754.34.754.754v2.71a.756.756 0 0 1-.753.753M160.404 146.027h-3.647a.756.756 0 0 1-.753-.754v-2.71c0-.413.34-.752.754-.752h3.646c.415 0 .753.34.753.754v2.71a.756.756 0 0 1-.753.753M81.298 140.86h-3.25a.906.906 0 0 1-.903-.906v-3.704c0-.497.406-.904.904-.904h3.248c.497 0 .903.407.903.904v3.704a.907.907 0 0 1-.902.905M87.86 140.86h-3.252a.906.906 0 0 1-.903-.906v-3.704c0-.497.406-.904.903-.904h3.25c.497 0 .904.407.904.904v3.704a.907.907 0 0 1-.903.905M94.42 140.86h-3.25a.906.906 0 0 1-.904-.906v-3.704c0-.497.406-.904.903-.904h3.25c.496 0 .903.407.903.904v3.704a.907.907 0 0 1-.903.905M100.98 140.86h-3.25a.907.907 0 0 1-.904-.906v-3.704c0-.497.406-.904.904-.904h3.25c.496 0 .903.407.903.904v3.704a.907.907 0 0 1-.904.905M107.54 140.86h-3.25a.907.907 0 0 1-.904-.906v-3.704c0-.497.406-.904.903-.904h3.25c.497 0 .903.407.903.904v3.704a.907.907 0 0 1-.903.905M114.1 140.86h-3.25a.907.907 0 0 1-.904-.906v-3.704c0-.497.407-.904.903-.904h3.25c.497 0 .904.407.904.904v3.704a.907.907 0 0 1-.904.905M120.66 140.86h-3.25a.907.907 0 0 1-.903-.906v-3.704c0-.497.407-.904.902-.904h3.25c.497 0 .904.407.904.904v3.704a.907.907 0 0 1-.903.905M127.22 140.86h-3.25a.907.907 0 0 1-.903-.906v-3.704c0-.497.406-.904.903-.904h3.25c.498 0 .904.407.904.904v3.704a.907.907 0 0 1-.904.905M133.78 140.86h-3.25a.906.906 0 0 1-.902-.906v-3.704c0-.497.406-.904.903-.904h3.25c.497 0 .904.407.904.904v3.704a.907.907 0 0 1-.903.905M140.34 140.86h-3.25a.907.907 0 0 1-.903-.906v-3.704c0-.497.407-.904.904-.904h3.25c.497 0 .904.407.904.904v3.704a.907.907 0 0 1-.903.905M146.902 140.86h-3.252a.907.907 0 0 1-.902-.906v-3.704c0-.497.406-.904.902-.904h3.252c.496 0 .903.407.903.904v3.704a.907.907 0 0 1-.903.905M153.46 140.86h-3.25a.907.907 0 0 1-.903-.906v-3.704c0-.497.407-.904.904-.904h3.25c.498 0 .904.407.904.904v3.704a.907.907 0 0 1-.903.905M160.237 140.86h-3.312a.924.924 0 0 1-.92-.922v-3.67c0-.508.413-.922.92-.922h3.312c.506 0 .92.414.92.92v3.672c0 .506-.414.92-.92.92M160.172 134.393h-6.813a.988.988 0 0 1-.987-.985v-3.54c0-.543.443-.986.986-.986h6.812c.543 0 .985.443.985.986v3.54c0 .542-.442.985-.985.985M160.172 127.928h-8.102a.986.986 0 0 1-.984-.985V123.4c0-.54.443-.983.984-.983h8.102c.542 0 .985.444.985.984v3.543a.987.987 0 0 1-.985.985M160.172 121.464h-11.615a.987.987 0 0 1-.985-.984v-3.543c0-.542.443-.985.985-.985h11.615c.543 0 .985.443.985.985v3.543c0 .54-.442.984-.985.984M160.172 115h-4.823a.988.988 0 0 1-.986-.985v-3.542c0-.542.445-.984.985-.984h4.822c.543 0 .985.44.985.983v3.542a.986.986 0 0 1-.985.985M150.587 134.393h-3.48a.97.97 0 0 1-.97-.967v-3.576a.97.97 0 0 1 .97-.968h3.48a.97.97 0 0 1 .967.968v3.576a.97.97 0 0 1-.967.967M143.903 134.393h-3.48a.97.97 0 0 1-.97-.967v-3.576a.97.97 0 0 1 .97-.968h3.48a.97.97 0 0 1 .968.968v3.576a.97.97 0 0 1-.967.967M137.22 134.393h-3.48a.97.97 0 0 1-.97-.967v-3.576a.97.97 0 0 1 .968-.968h3.482a.97.97 0 0 1 .967.968v3.576a.97.97 0 0 1-.967.967M130.536 134.393h-3.48a.97.97 0 0 1-.968-.967v-3.576a.97.97 0 0 1 .968-.968h3.48a.97.97 0 0 1 .968.968v3.576a.97.97 0 0 1-.968.967M123.853 134.393h-3.48a.97.97 0 0 1-.97-.967v-3.576a.97.97 0 0 1 .97-.968h3.48a.97.97 0 0 1 .967.968v3.576a.97.97 0 0 1-.966.967M117.17 134.393h-3.48a.97.97 0 0 1-.97-.967v-3.576a.97.97 0 0 1 .97-.968h3.48a.97.97 0 0 1 .968.968v3.576a.97.97 0 0 1-.97.967M110.486 134.393h-3.48a.97.97 0 0 1-.97-.967v-3.576a.97.97 0 0 1 .97-.968h3.48a.97.97 0 0 1 .968.968v3.576a.97.97 0 0 1-.968.967M103.803 134.393h-3.48a.97.97 0 0 1-.97-.967v-3.576a.97.97 0 0 1 .97-.968h3.48a.97.97 0 0 1 .967.968v3.576a.97.97 0 0 1-.967.967M97.12 134.393h-3.482a.97.97 0 0 1-.967-.967v-3.576a.97.97 0 0 1 .968-.968h3.482a.97.97 0 0 1 .967.968v3.576a.97.97 0 0 1-.967.967M90.436 134.393h-3.48a.97.97 0 0 1-.97-.967v-3.576a.97.97 0 0 1 .97-.968h3.48a.97.97 0 0 1 .967.968v3.576a.97.97 0 0 1-.967.967M83.753 134.393h-3.48a.97.97 0 0 1-.97-.967v-3.576a.97.97 0 0 1 .97-.968h3.48a.97.97 0 0 1 .967.968v3.576a.97.97 0 0 1-.967.967M77.07 134.393h-3.482a.97.97 0 0 1-.968-.967v-3.576a.97.97 0 0 1 .968-.968h3.48a.97.97 0 0 1 .97.968v3.576a.97.97 0 0 1-.97.967M148.728 127.928h-3.482a.97.97 0 0 1-.967-.967v-3.575a.97.97 0 0 1 .966-.968h3.482a.97.97 0 0 1 .967.968v3.576a.97.97 0 0 1-.967.968M142.045 127.928h-3.482a.97.97 0 0 1-.967-.967v-3.575a.97.97 0 0 1 .967-.968h3.482a.97.97 0 0 1 .967.968v3.576a.97.97 0 0 1-.967.968M135.36 127.928h-3.48a.97.97 0 0 1-.968-.967v-3.575a.97.97 0 0 1 .967-.968h3.48a.97.97 0 0 1 .968.968v3.576a.97.97 0 0 1-.967.968M128.678 127.928h-3.482a.97.97 0 0 1-.967-.967v-3.575a.97.97 0 0 1 .966-.968h3.482a.97.97 0 0 1 .967.968v3.576a.97.97 0 0 1-.967.968M121.993 127.928h-3.48a.97.97 0 0 1-.97-.967v-3.575a.97.97 0 0 1 .97-.968h3.48a.97.97 0 0 1 .968.968v3.576a.97.97 0 0 1-.967.968M115.31 127.928h-3.48a.97.97 0 0 1-.968-.967v-3.575a.97.97 0 0 1 .967-.968h3.48a.97.97 0 0 1 .968.968v3.576a.97.97 0 0 1-.968.968M108.627 127.928h-3.48a.97.97 0 0 1-.968-.967v-3.575a.97.97 0 0 1 .966-.968h3.48a.97.97 0 0 1 .97.968v3.576a.97.97 0 0 1-.97.968M101.944 127.928h-3.482a.97.97 0 0 1-.967-.967v-3.575a.97.97 0 0 1 .967-.968h3.482a.97.97 0 0 1 .967.968v3.576a.97.97 0 0 1-.966.968M95.26 127.928h-3.48a.97.97 0 0 1-.97-.967v-3.575a.97.97 0 0 1 .97-.968h3.48a.97.97 0 0 1 .968.968v3.576a.97.97 0 0 1-.967.968M88.577 127.928h-3.48a.97.97 0 0 1-.97-.967v-3.575a.97.97 0 0 1 .97-.968h3.48a.97.97 0 0 1 .967.968v3.576a.97.97 0 0 1-.967.968M81.892 127.928h-3.48a.97.97 0 0 1-.968-.967v-3.575a.97.97 0 0 1 .968-.968h3.48a.97.97 0 0 1 .97.968v3.576a.97.97 0 0 1-.97.968M145.23 121.464h-3.483a.97.97 0 0 1-.968-.968v-3.576a.97.97 0 0 1 .967-.968h3.48a.97.97 0 0 1 .97.968v3.576a.97.97 0 0 1-.968.968M138.545 121.464h-3.48a.97.97 0 0 1-.97-.968v-3.576a.97.97 0 0 1 .97-.968h3.48a.97.97 0 0 1 .968.968v3.576a.97.97 0 0 1-.968.968M131.86 121.464h-3.48a.97.97 0 0 1-.968-.968v-3.576a.97.97 0 0 1 .968-.968h3.48a.97.97 0 0 1 .97.968v3.576a.97.97 0 0 1-.97.968M125.178 121.464h-3.48a.97.97 0 0 1-.97-.968v-3.576a.97.97 0 0 1 .97-.968h3.48a.97.97 0 0 1 .967.968v3.576a.97.97 0 0 1-.967.968M118.495 121.464h-3.482a.97.97 0 0 1-.967-.968v-3.576a.97.97 0 0 1 .967-.968h3.482a.97.97 0 0 1 .967.968v3.576a.97.97 0 0 1-.967.968M111.81 121.464h-3.48a.97.97 0 0 1-.967-.968v-3.576a.97.97 0 0 1 .967-.968h3.482a.97.97 0 0 1 .967.968v3.576a.97.97 0 0 1-.968.968M105.127 121.464h-3.48a.97.97 0 0 1-.968-.968v-3.576a.97.97 0 0 1 .967-.968h3.48a.97.97 0 0 1 .968.968v3.576a.97.97 0 0 1-.968.968M98.445 121.464h-3.48a.97.97 0 0 1-.968-.968v-3.576a.97.97 0 0 1 .966-.968h3.482a.97.97 0 0 1 .968.968v3.576a.97.97 0 0 1-.968.968M91.76 121.464h-3.48a.97.97 0 0 1-.967-.968v-3.576a.97.97 0 0 1 .967-.968h3.48a.97.97 0 0 1 .968.968v3.576a.97.97 0 0 1-.967.968M85.08 121.464h-3.483a.97.97 0 0 1-.967-.968v-3.576a.97.97 0 0 1 .967-.968h3.482a.97.97 0 0 1 .966.968v3.576a.97.97 0 0 1-.968.968M78.377 121.464h-6.294a.987.987 0 0 1-.984-.984v-3.543c0-.542.442-.985.983-.985h6.294c.543 0 .985.443.985.985v3.543c0 .54-.442.984-.985.984M152.02 115h-3.48a.97.97 0 0 1-.968-.97v-3.575a.97.97 0 0 1 .968-.966h3.48a.97.97 0 0 1 .968.965v3.576a.97.97 0 0 1-.967.97M145.337 115h-3.48a.97.97 0 0 1-.97-.97v-3.575a.97.97 0 0 1 .97-.966h3.48a.97.97 0 0 1 .968.965v3.576a.97.97 0 0 1-.968.97M138.654 115h-3.482a.97.97 0 0 1-.967-.97v-3.575a.97.97 0 0 1 .967-.966h3.482a.97.97 0 0 1 .967.965v3.576a.97.97 0 0 1-.966.97M131.97 115h-3.48a.97.97 0 0 1-.97-.97v-3.575a.97.97 0 0 1 .97-.966h3.48a.97.97 0 0 1 .968.965v3.576a.97.97 0 0 1-.967.97M125.287 115h-3.48a.97.97 0 0 1-.97-.97v-3.575a.97.97 0 0 1 .97-.966h3.48a.97.97 0 0 1 .967.965v3.576a.97.97 0 0 1-.967.97M118.604 115h-3.48a.97.97 0 0 1-.97-.97v-3.575a.97.97 0 0 1 .97-.966h3.48a.97.97 0 0 1 .968.965v3.576a.97.97 0 0 1-.968.97M111.92 115h-3.48a.97.97 0 0 1-.968-.97v-3.575a.97.97 0 0 1 .967-.966h3.48a.97.97 0 0 1 .968.965v3.576a.97.97 0 0 1-.968.97M105.236 115h-3.48a.97.97 0 0 1-.97-.97v-3.575a.97.97 0 0 1 .97-.966h3.48a.97.97 0 0 1 .968.965v3.576a.97.97 0 0 1-.968.97M98.553 115h-3.48a.97.97 0 0 1-.97-.97v-3.575a.97.97 0 0 1 .97-.966h3.48a.97.97 0 0 1 .967.965v3.576a.97.97 0 0 1-.967.97M91.87 115h-3.482a.97.97 0 0 1-.967-.97v-3.575a.97.97 0 0 1 .968-.966h3.482a.97.97 0 0 1 .967.965v3.576a.97.97 0 0 1-.967.97M85.17 115h-6.295a.987.987 0 0 1-.984-.985v-3.542c0-.542.444-.984.985-.984h6.295c.54 0 .985.44.985.983v3.542a.987.987 0 0 1-.985.985M75.33 115h-3.31a.923.923 0 0 1-.922-.92v-3.67c0-.507.414-.92.92-.92h3.313c.507 0 .922.413.922.92v3.67c0 .506-.415.92-.92.92M127.566 104.85h-34.73a.964.964 0 0 1-.963-.96v-16.7c0-.53.433-.963.962-.963h34.73c.53 0 .963.434.963.963v16.7c0 .53-.433.96-.962.96M128.33 84.98h-17.275a.2.2 0 0 1-.2-.2V81.31c0-.11.09-.2.2-.2h17.274c.108 0 .198.09.198.2v3.467a.2.2 0 0 1-.2.2M109.346 84.98H92.073a.2.2 0 0 1-.2-.2V81.31c0-.11.09-.2.2-.2h17.273c.11 0 .2.09.2.2v3.467a.2.2 0 0 1-.2.2" fill="#ccc"/><path d="M113.49 177.822c4.336 0 7.852-1.89 7.852-4.224 0-2.332-3.516-4.223-7.852-4.223-4.337 0-7.854 1.89-7.854 4.223s3.517 4.224 7.854 4.224" fill="#39b54a" fill-rule="nonzero"/><path d="M107.794 172.66c4.334 0 7.85-1.89 7.85-4.223 0-2.332-3.516-4.223-7.85-4.223-4.338 0-7.854 1.89-7.854 4.223s3.516 4.223 7.854 4.223" fill="#ee2a7b" fill-rule="nonzero"/><path d="M115.384 169.504c-.61-.08-1.24-.13-1.893-.13-3.652 0-6.71 1.342-7.59 3.157.607.083 1.237.13 1.894.13 3.648 0 6.71-1.34 7.59-3.156" fill="#da1c5c" fill-rule="nonzero" opacity=".7"/><path d="M103.396 177.11c4.337 0 7.853-1.89 7.853-4.222 0-2.332-3.517-4.224-7.854-4.224-4.336 0-7.854 1.892-7.854 4.224 0 2.33 3.518 4.222 7.854 4.222" fill="#27aae1" fill-rule="nonzero"/><path d="M103.396 168.664c-1.203 0-2.34.15-3.36.41.573 2.03 3.823 3.586 7.757 3.586 1.203 0 2.338-.15 3.358-.41-.57-2.03-3.82-3.586-7.754-3.586" fill="#662d91" fill-rule="nonzero" opacity=".7"/><path d="M107.67 176.428c2.154-.754 3.58-2.056 3.58-3.54 0-1.09-.774-2.082-2.033-2.83-2.154.754-3.58 2.056-3.58 3.54 0 1.09.773 2.08 2.033 2.83" fill="#1c75bc" fill-rule="nonzero" opacity=".7"/><path d="M54.925 22.75a7.5 7.5 0 0 1 7.5-7.5h61.36a7.5 7.5 0 0 1 7.5 7.5v34.902a7.5 7.5 0 0 1-7.5 7.5h-61.36a7.5 7.5 0 0 1-7.5-7.5V22.75z" fill="#053a5a" fill-rule="nonzero"/><path fill="#f9ed32" fill-rule="nonzero" d="M94.01 40.202h24.095v27.28H94.01zM68.104 40.202H92.2v27.28H68.105z"/><path d="M44.753 8.75A8.75 8.75 0 0 1 53.503 0h79.203a8.75 8.75 0 0 1 0 17.5H53.504a8.75 8.75 0 0 1-8.75-8.75" fill="#053a5a" fill-rule="nonzero"/><path d="M40.423 30.595c0-9.863 23.99-17.86 53.583-17.86s53.583 7.997 53.583 17.86c0 9.865-23.99 17.86-53.584 17.86-29.593 0-53.583-7.995-53.583-17.86" fill="#eee" fill-rule="nonzero"/><path d="M97.423 55.734s-6.945 10.033-18.3 2.095c-11.358-7.94-10.475-21.06-10.145-26.572.332-5.512 3.75-22.822 23.374-22.822s23.925 15.104 23.925 24.696c0 9.592-2.32 21.66-10.253 24.256-6.065 1.984-8.6-1.654-8.6-1.654" fill="#604a32" fill-rule="nonzero"/><path d="M43.51 109.036l-.895 7.314a2.85 2.85 0 0 0 2.484 3.177l.942.115c.04.006.08.007.12.008l.763-6.246-3.416-4.368z" fill="#fcb" fill-rule="nonzero"/><path d="M40.94 109.786l4.173 5.332c.395.503.926.836 1.5.992l.573-4.704-5.572-7.125-.673 5.506zM33.12 130.928a1.93 1.93 0 0 1-1.683-2.15l1.725-14.117a1.933 1.933 0 0 1 2.15-1.682 1.933 1.933 0 0 1 1.684 2.152l-1.725 14.117a1.932 1.932 0 0 1-2.15 1.68" fill="#fcb" fill-rule="nonzero"/><path d="M42.71 108.215a5.016 5.016 0 0 0-4.37-5.587l-8.093-.99a5.017 5.017 0 0 0-5.588 4.37l-.99 8.092a5.02 5.02 0 0 0 4.37 5.59l8.093.988a5.02 5.02 0 0 0 5.59-4.372l.988-8.09z" fill="#fcb" fill-rule="nonzero"/><path d="M24.254 125.443a1.93 1.93 0 0 1-1.682-2.15l1.104-9.042a1.932 1.932 0 0 1 3.834.47l-1.105 9.04a1.93 1.93 0 0 1-2.15 1.683M28.651 127.987a1.932 1.932 0 0 1-1.68-2.15l1.724-14.118a1.932 1.932 0 0 1 3.833.47l-1.725 14.114a1.932 1.932 0 0 1-2.15 1.683M38.247 128.476a1.93 1.93 0 0 1-1.682-2.15l1.604-13.14a1.932 1.932 0 0 1 3.835.47l-1.607 13.137a1.932 1.932 0 0 1-2.15 1.683" fill="#fcb" fill-rule="nonzero"/><path d="M28.683 89.73l-2.204 18.027a3.404 3.404 0 0 0 2.966 3.79l5.488.67a3.403 3.403 0 0 0 3.792-2.965l2.2-18.025-12.243-1.496z" fill="#fcb" fill-rule="nonzero"/><path d="M28.35 62.06l14.95 3.843-2.073 34.913-15.056-1.82 2.18-36.936z" fill="#eee" fill-rule="nonzero"/><path d="M28.35 62.06l12.1-31.886 15.64 1.103-12.772 34.63M147.588 70.75V30.595h-15.454V70.75" fill="#eee" fill-rule="nonzero"/><path d="M125.446 111.724v7.37a2.85 2.85 0 0 1-2.852 2.85h-.95c-.04 0-.078-.003-.12-.006v-6.293l3.922-3.92z" fill="#fcb" fill-rule="nonzero"/><path d="M127.904 112.78l-4.788 4.786a2.84 2.84 0 0 1-1.61.803v-4.74l6.398-6.396v5.546zM133.073 129.19c1.065 0 1.93-.864 1.93-1.93v-14.22a1.932 1.932 0 0 0-3.86 0v14.22c0 1.066.864 1.93 1.93 1.93" fill="#fcb" fill-rule="nonzero"/><path d="M126.337 111.006a5.016 5.016 0 0 1 5.016-5.016h8.154a5.015 5.015 0 0 1 5.016 5.016v8.15a5.018 5.018 0 0 1-5.016 5.02h-8.154a5.018 5.018 0 0 1-5.016-5.02v-8.15z" fill="#fcb" fill-rule="nonzero"/><path d="M142.593 127.586a1.93 1.93 0 0 0 1.93-1.93v-9.11a1.93 1.93 0 0 0-3.86 0v9.11a1.93 1.93 0 0 0 1.93 1.93M137.866 129.192a1.93 1.93 0 0 0 1.93-1.93V113.04a1.932 1.932 0 0 0-3.86 0v14.22a1.93 1.93 0 0 0 1.93 1.932M128.28 133.934a1.93 1.93 0 0 0 1.93-1.93v-13.24a1.93 1.93 0 0 0-3.86 0v13.24c0 1.065.863 1.93 1.93 1.93" fill="#fcb" fill-rule="nonzero"/><path d="M142.505 94.36v18.16a3.403 3.403 0 0 1-3.405 3.403h-5.53a3.403 3.403 0 0 1-3.402-3.404V94.36h12.337z" fill="#fcb" fill-rule="nonzero"/><path d="M147.588 70.75H132.15l-2.65 32.04h15.435l2.653-32.04z" fill="#eee" fill-rule="nonzero"/><path d="M143.452 100.39a.86.86 0 0 0-1.72 0 .86.86 0 0 0 1.72 0" fill="#eee" fill-rule="nonzero"/><path d="M344.464 163.158h-54.307a3.476 3.476 0 0 1-3.472-3.473 3.477 3.477 0 0 1 3.472-3.474h17.825a3.467 3.467 0 0 0 3.464-3.46V131.04h-1.5v21.707c0 1.08-.884 1.958-1.964 1.958h-17.825a4.982 4.982 0 0 0-4.973 4.977 4.98 4.98 0 0 0 4.973 4.973l54.307.002" fill="#fff" fill-rule="nonzero"/><path d="M308.978 132.378a6.885 6.885 0 0 1-6.884-6.882v-16.513a6.883 6.883 0 0 1 6.884-6.877h1.83v30.272h-1.83z" fill="#fff" fill-rule="nonzero"/><path d="M312.644 132.378h-1.836v-30.272h1.836c3.797 0 6.88 3.08 6.88 6.877v16.513c0 3.8-3.083 6.882-6.88 6.882" fill="#e6e7e8" fill-rule="nonzero"/><path d="M308.515 125.075v-1.48a2.3 2.3 0 0 1 2.294-2.295v6.068a2.296 2.296 0 0 1-2.295-2.293" fill="#103754" fill-rule="nonzero"/><path d="M310.808 127.367V121.3a2.296 2.296 0 0 1 2.295 2.296v1.478a2.293 2.293 0 0 1-2.295 2.293" fill="#0e303f" fill-rule="nonzero"/><path d="M444.512 156.49h-112.9a2.64 2.64 0 0 1-2.634-2.635V80.63a2.642 2.642 0 0 1 2.633-2.635h112.902a2.643 2.643 0 0 1 2.634 2.634v73.225a2.64 2.64 0 0 1-2.634 2.634" fill="#fff"/><path d="M439.385 156.49h-6.545v-3.74c0-.338.278-.615.616-.615h5.316c.338 0 .613.277.613.614v3.74zM343.284 156.49h-6.547v-3.74c0-.338.278-.615.616-.615h5.316c.337 0 .614.277.614.614v3.74z" fill="#b3b3b3"/><path d="M455.423 191.22H320.926c-3.235 0-4.22-1.51-2.892-3.59l11.253-29.8h117.858l10.026 27.99c2.252 3.557 1.816 5.4-1.747 5.4" fill="#ccc"/><path d="M324.92 185.84l8.183-25.634h110.133l8.268 25.634H324.92zM456.165 190.73H319.85a.528.528 0 0 1-.526-.528c0-.29.237-.526.527-.526h136.315c.29 0 .527.236.527.526 0 .29-.237.527-.527.527M438.456 159.88h-4.688a.546.546 0 0 1-.542-.542V153.8c0-.298.245-.543.542-.543h4.688c.297 0 .542.245.542.543v5.538a.546.546 0 0 1-.542.543M342.354 159.88h-4.686a.546.546 0 0 1-.544-.542V153.8c0-.298.245-.543.544-.543h4.686c.3 0 .542.245.542.543v5.538a.545.545 0 0 1-.542.543" fill="#fff"/><path d="M340.478 146.027h-3.648a.757.757 0 0 1-.753-.754v-2.71c0-.413.34-.752.753-.752h3.648c.413 0 .753.34.753.754v2.71c0 .413-.34.753-.752.753M340.31 140.86h-3.312a.924.924 0 0 1-.92-.922v-3.67c0-.508.413-.922.92-.922h3.31c.508 0 .923.414.923.92v3.672c0 .506-.414.92-.92.92M340.31 134.393h-3.312a.923.923 0 0 1-.92-.92v-3.67c0-.507.413-.92.92-.92h3.31c.508 0 .923.413.923.92v3.67c0 .507-.414.92-.92.92M340.31 127.928h-3.312a.924.924 0 0 1-.92-.92v-3.67c0-.507.413-.92.92-.92h3.31c.508 0 .923.413.923.92v3.67c0 .506-.414.92-.92.92M340.31 121.464h-3.312a.924.924 0 0 1-.92-.92v-3.67c0-.506.413-.922.92-.922h3.31c.508 0 .923.416.923.92v3.672c0 .505-.414.92-.92.92M340.31 115h-3.312a.924.924 0 0 1-.92-.92v-3.67c0-.507.413-.92.92-.92h3.31c.508 0 .923.413.923.92v3.67c0 .506-.414.92-.92.92M346.918 146.027h-3.647a.757.757 0 0 1-.752-.754v-2.71c0-.413.34-.752.753-.752h3.65c.413 0 .75.34.75.754l.002 2.71a.756.756 0 0 1-.754.753M352.636 140.86h-9.132a.99.99 0 0 1-.986-.987v-3.542a.99.99 0 0 1 .986-.984h9.132c.542 0 .984.444.984.985v3.543c0 .54-.442.986-.984.986M348.443 134.393h-4.94a.988.988 0 0 1-.985-.985v-3.54c0-.543.444-.986.986-.986h4.94c.542 0 .984.443.984.986v3.54c0 .542-.442.985-.985.985M353.362 127.928h-9.86a.987.987 0 0 1-.984-.985V123.4a.99.99 0 0 1 .985-.983h9.86c.54 0 .984.444.984.984v3.543a.986.986 0 0 1-.985.985M346.75 121.464h-3.31a.924.924 0 0 1-.923-.92v-3.67c0-.506.415-.922.922-.922h3.31c.507 0 .92.416.92.92v3.672c0 .505-.413.92-.92.92M346.75 115h-3.31a.924.924 0 0 1-.923-.92v-3.67c0-.507.415-.92.922-.92h3.31c.507 0 .92.413.92.92v3.67c0 .506-.413.92-.92.92M352.867 146.027h-3.154a.757.757 0 0 1-.755-.754v-2.71c0-.413.34-.752.755-.752h3.154c.414 0 .753.34.753.754v2.71a.756.756 0 0 1-.753.753M358.914 146.027h-3.155a.757.757 0 0 1-.754-.754v-2.71c0-.413.34-.752.753-.752h3.154c.415 0 .753.34.753.754v2.71a.756.756 0 0 1-.753.753M364.96 146.027h-3.155a.757.757 0 0 1-.753-.754v-2.71c0-.413.34-.752.753-.752h3.155c.415 0 .754.34.754.754v2.71a.756.756 0 0 1-.753.753M371.008 146.027h-3.155a.756.756 0 0 1-.754-.754v-2.71c0-.413.338-.752.752-.752h3.156c.413 0 .753.34.753.754v2.71c0 .413-.34.753-.752.753M377.053 146.027H373.9a.757.757 0 0 1-.756-.754v-2.71c0-.413.34-.752.755-.752h3.153c.415 0 .754.34.754.754v2.71c0 .413-.34.753-.754.753M383.1 146.027h-3.154a.757.757 0 0 1-.754-.754v-2.71c0-.413.34-.752.754-.752h3.154c.415 0 .753.34.753.754v2.71a.756.756 0 0 1-.753.753M389.146 146.027h-3.155a.757.757 0 0 1-.752-.754v-2.71c0-.413.34-.752.753-.752h3.156c.415 0 .753.34.753.754v2.71a.756.756 0 0 1-.754.753M395.194 146.027h-3.156a.756.756 0 0 1-.752-.754v-2.71c0-.413.338-.752.752-.752h3.156c.413 0 .753.34.753.754v2.71c0 .413-.34.753-.753.753M401.24 146.027h-3.155a.756.756 0 0 1-.753-.754v-2.71c0-.413.338-.752.753-.752h3.155c.415 0 .753.34.753.754v2.71a.756.756 0 0 1-.753.753M407.286 146.027h-3.154a.756.756 0 0 1-.753-.754v-2.71c0-.413.338-.752.752-.752h3.154c.415 0 .755.34.755.754v2.71c0 .413-.34.753-.754.753M413.332 146.027h-3.153a.757.757 0 0 1-.756-.754v-2.71c0-.413.34-.752.755-.752h3.152c.415 0 .754.34.754.754v2.71a.756.756 0 0 1-.754.753M419.38 146.027h-3.155a.756.756 0 0 1-.754-.754v-2.71c0-.413.34-.752.754-.752h3.156c.415 0 .753.34.753.754v2.71a.756.756 0 0 1-.753.753M425.425 146.027h-3.154a.756.756 0 0 1-.752-.754v-2.71c0-.413.338-.752.753-.752h3.155c.416 0 .754.34.754.754v2.71a.756.756 0 0 1-.755.753M431.472 146.027h-3.154a.756.756 0 0 1-.753-.754v-2.71c0-.413.34-.752.753-.752h3.154c.415 0 .755.34.755.754v2.71c0 .413-.34.753-.755.753M438.264 146.027h-3.646a.756.756 0 0 1-.753-.754v-2.71c0-.413.338-.752.753-.752h3.646c.415 0 .754.34.754.754v2.71c0 .413-.34.753-.754.753M359.16 140.86h-3.25a.907.907 0 0 1-.904-.906v-3.704c0-.497.407-.904.903-.904h3.25c.496 0 .902.407.902.904v3.704a.906.906 0 0 1-.902.905M365.72 140.86h-3.25a.906.906 0 0 1-.903-.906v-3.704c0-.497.406-.904.903-.904h3.25c.496 0 .903.407.903.904v3.704a.907.907 0 0 1-.903.905M372.28 140.86h-3.25a.906.906 0 0 1-.904-.906v-3.704c0-.497.406-.904.904-.904h3.25c.497 0 .903.407.903.904v3.704a.906.906 0 0 1-.902.905M378.84 140.86h-3.25a.906.906 0 0 1-.903-.906v-3.704c0-.497.406-.904.902-.904h3.25c.497 0 .904.407.904.904v3.704a.907.907 0 0 1-.904.905M385.4 140.86h-3.25a.907.907 0 0 1-.903-.906v-3.704c0-.497.407-.904.904-.904h3.25c.498 0 .905.407.905.904v3.704a.907.907 0 0 1-.904.905M391.962 140.86h-3.252a.907.907 0 0 1-.904-.906v-3.704c0-.497.408-.904.904-.904h3.252c.495 0 .902.407.902.904v3.704a.907.907 0 0 1-.902.905M398.52 140.86h-3.25a.907.907 0 0 1-.903-.906v-3.704c0-.497.407-.904.904-.904h3.25c.498 0 .905.407.905.904v3.704a.907.907 0 0 1-.904.905M405.08 140.86h-3.25a.907.907 0 0 1-.903-.906v-3.704c0-.497.407-.904.903-.904h3.25c.498 0 .905.407.905.904v3.704a.907.907 0 0 1-.904.905M411.642 140.86h-3.25a.907.907 0 0 1-.904-.906v-3.704c0-.497.407-.904.904-.904h3.25c.497 0 .902.407.902.904v3.704a.906.906 0 0 1-.902.905M418.202 140.86h-3.25a.907.907 0 0 1-.903-.906v-3.704c0-.497.405-.904.902-.904h3.25c.497 0 .904.407.904.904v3.704a.907.907 0 0 1-.904.905M424.763 140.86h-3.25a.906.906 0 0 1-.904-.906v-3.704c0-.497.405-.904.903-.904h3.25c.497 0 .902.407.902.904v3.704a.906.906 0 0 1-.902.905M431.323 140.86h-3.25a.907.907 0 0 1-.904-.906l-.002-3.704c0-.497.408-.904.904-.904h3.25c.497 0 .905.407.905.904v3.704a.907.907 0 0 1-.904.905M438.097 140.86h-3.31a.924.924 0 0 1-.922-.922v-3.67c0-.508.415-.922.92-.922h3.312c.508 0 .922.414.922.92v3.672c0 .506-.415.92-.923.92M438.033 134.393h-6.813a.988.988 0 0 1-.986-.985v-3.54c0-.543.444-.986.986-.986h6.813c.544 0 .985.443.985.986v3.54c0 .542-.44.985-.985.985M438.033 127.928h-8.102a.987.987 0 0 1-.983-.985V123.4c0-.54.444-.983.984-.983h8.103c.542 0 .985.444.985.984v3.543a.987.987 0 0 1-.985.985M438.033 121.464H426.42a.987.987 0 0 1-.986-.984v-3.543c0-.542.442-.985.984-.985h11.615c.544 0 .985.443.985.985v3.543c0 .54-.44.984-.985.984M438.033 115h-4.822a.988.988 0 0 1-.983-.985v-3.542c0-.542.444-.984.984-.984h4.823c.544 0 .985.44.985.983v3.542a.986.986 0 0 1-.985.985M428.45 134.393h-3.483a.97.97 0 0 1-.967-.967v-3.576a.97.97 0 0 1 .966-.968h3.483a.97.97 0 0 1 .966.968v3.576a.97.97 0 0 1-.967.967M421.764 134.393h-3.48a.97.97 0 0 1-.97-.967v-3.576a.97.97 0 0 1 .97-.968h3.48a.97.97 0 0 1 .968.968v3.576a.97.97 0 0 1-.968.967M415.08 134.393h-3.48a.97.97 0 0 1-.968-.967v-3.576a.97.97 0 0 1 .967-.968h3.48a.97.97 0 0 1 .968.968v3.576a.97.97 0 0 1-.968.967M408.397 134.393h-3.48a.97.97 0 0 1-.97-.967v-3.576a.97.97 0 0 1 .97-.968h3.48a.97.97 0 0 1 .967.968v3.576a.97.97 0 0 1-.967.967M401.715 134.393h-3.482a.97.97 0 0 1-.968-.967v-3.576a.97.97 0 0 1 .968-.968h3.482a.97.97 0 0 1 .967.968v3.576a.97.97 0 0 1-.967.967M395.03 134.393h-3.48a.97.97 0 0 1-.968-.967v-3.576a.97.97 0 0 1 .968-.968h3.48a.97.97 0 0 1 .968.968v3.576a.97.97 0 0 1-.967.967M388.347 134.393h-3.48a.97.97 0 0 1-.968-.967v-3.576a.97.97 0 0 1 .966-.968h3.48a.97.97 0 0 1 .97.968v3.576a.97.97 0 0 1-.97.967M381.664 134.393h-3.48a.97.97 0 0 1-.97-.967l.002-3.576a.97.97 0 0 1 .968-.968h3.48a.97.97 0 0 1 .967.968v3.576a.97.97 0 0 1-.966.967M374.982 134.393H371.5a.97.97 0 0 1-.967-.967v-3.576a.97.97 0 0 1 .967-.968h3.482a.97.97 0 0 1 .967.968v3.576a.97.97 0 0 1-.968.967M368.296 134.393h-3.48a.97.97 0 0 1-.968-.967v-3.576a.97.97 0 0 1 .97-.968h3.478a.97.97 0 0 1 .968.968v3.576a.97.97 0 0 1-.968.967M361.613 134.393h-3.48a.97.97 0 0 1-.97-.967v-3.576a.97.97 0 0 1 .97-.968h3.48a.97.97 0 0 1 .968.968l.002 3.576a.97.97 0 0 1-.97.967M354.93 134.393h-3.48a.97.97 0 0 1-.968-.967v-3.576a.97.97 0 0 1 .966-.968h3.483a.97.97 0 0 1 .967.968v3.576a.97.97 0 0 1-.966.967M426.588 127.928h-3.48a.97.97 0 0 1-.97-.967v-3.575a.97.97 0 0 1 .97-.968h3.48a.97.97 0 0 1 .968.968v3.576a.97.97 0 0 1-.968.968M419.906 127.928h-3.483a.97.97 0 0 1-.966-.967v-3.575a.97.97 0 0 1 .966-.968h3.483a.97.97 0 0 1 .966.968v3.576a.97.97 0 0 1-.966.968M413.22 127.928h-3.48a.97.97 0 0 1-.968-.967v-3.575a.97.97 0 0 1 .97-.968h3.48a.97.97 0 0 1 .968.968v3.576a.97.97 0 0 1-.97.968M406.54 127.928h-3.483a.97.97 0 0 1-.967-.967v-3.575a.97.97 0 0 1 .967-.968h3.482a.97.97 0 0 1 .966.968v3.576a.97.97 0 0 1-.967.968M399.855 127.928h-3.48a.97.97 0 0 1-.97-.967v-3.575a.97.97 0 0 1 .97-.968h3.48a.97.97 0 0 1 .967.968v3.576a.97.97 0 0 1-.967.968M393.173 127.928h-3.483a.97.97 0 0 1-.966-.967v-3.575a.97.97 0 0 1 .966-.968h3.483a.97.97 0 0 1 .966.968v3.576a.97.97 0 0 1-.967.968M386.488 127.928h-3.48a.97.97 0 0 1-.97-.967v-3.575a.97.97 0 0 1 .97-.968h3.48a.97.97 0 0 1 .968.968v3.576a.97.97 0 0 1-.968.968M379.805 127.928h-3.482a.97.97 0 0 1-.967-.967v-3.575a.97.97 0 0 1 .967-.968h3.482a.97.97 0 0 1 .967.968v3.576a.97.97 0 0 1-.967.968M373.12 127.928h-3.48a.97.97 0 0 1-.968-.967v-3.575a.97.97 0 0 1 .968-.968h3.48a.97.97 0 0 1 .968.968v3.576a.97.97 0 0 1-.967.968M366.44 127.928h-3.484a.97.97 0 0 1-.966-.967v-3.575a.97.97 0 0 1 .966-.968h3.483a.97.97 0 0 1 .966.968v3.576a.97.97 0 0 1-.967.968M359.755 127.928h-3.48a.97.97 0 0 1-.97-.967v-3.575a.97.97 0 0 1 .97-.968h3.48a.97.97 0 0 1 .966.968v3.576a.97.97 0 0 1-.965.968M423.09 121.464h-3.482a.97.97 0 0 1-.967-.968v-3.576a.97.97 0 0 1 .968-.968h3.48a.97.97 0 0 1 .97.968v3.576a.97.97 0 0 1-.97.968M416.406 121.464h-3.48a.97.97 0 0 1-.97-.968v-3.576a.97.97 0 0 1 .97-.968h3.48a.97.97 0 0 1 .968.968v3.576a.97.97 0 0 1-.968.968M409.722 121.464h-3.48a.97.97 0 0 1-.968-.968v-3.576a.97.97 0 0 1 .967-.968h3.482a.97.97 0 0 1 .968.968v3.576a.97.97 0 0 1-.968.968M403.04 121.464h-3.483a.97.97 0 0 1-.967-.968v-3.576a.97.97 0 0 1 .967-.968h3.482a.97.97 0 0 1 .966.968v3.576a.97.97 0 0 1-.966.968M396.356 121.464h-3.48a.97.97 0 0 1-.968-.968v-3.576a.97.97 0 0 1 .967-.968h3.48a.97.97 0 0 1 .97.968v3.576a.97.97 0 0 1-.97.968M389.673 121.464h-3.48a.97.97 0 0 1-.97-.968v-3.576a.97.97 0 0 1 .97-.968h3.48a.97.97 0 0 1 .967.968v3.576a.97.97 0 0 1-.967.968M382.988 121.464h-3.48a.97.97 0 0 1-.97-.968v-3.576a.97.97 0 0 1 .97-.968h3.48a.97.97 0 0 1 .97.968l-.002 3.576a.97.97 0 0 1-.968.968M376.306 121.464h-3.482a.97.97 0 0 1-.967-.968v-3.576a.97.97 0 0 1 .966-.968h3.483a.97.97 0 0 1 .966.968v3.576a.97.97 0 0 1-.966.968M369.622 121.464h-3.48a.97.97 0 0 1-.97-.968v-3.576a.97.97 0 0 1 .97-.968h3.48a.97.97 0 0 1 .968.968v3.576a.97.97 0 0 1-.968.968M362.94 121.464h-3.483a.97.97 0 0 1-.967-.968v-3.576a.97.97 0 0 1 .967-.968h3.482a.97.97 0 0 1 .966.968v3.576a.97.97 0 0 1-.967.968M356.237 121.464h-6.293a.987.987 0 0 1-.984-.984v-3.543c0-.542.443-.985.984-.985h6.293c.543 0 .986.443.986.985v3.543c0 .54-.443.984-.986.984M429.88 115h-3.48a.97.97 0 0 1-.966-.97v-3.575a.97.97 0 0 1 .966-.966h3.48a.97.97 0 0 1 .97.965v3.576a.97.97 0 0 1-.97.97M423.2 115h-3.482a.97.97 0 0 1-.968-.97v-3.575a.97.97 0 0 1 .968-.966h3.48a.97.97 0 0 1 .968.965v3.576a.97.97 0 0 1-.967.97M416.514 115h-3.48a.97.97 0 0 1-.97-.97v-3.575a.97.97 0 0 1 .97-.966h3.48a.97.97 0 0 1 .968.965v3.576a.97.97 0 0 1-.968.97M409.832 115h-3.483a.97.97 0 0 1-.968-.97v-3.575a.97.97 0 0 1 .967-.966h3.48a.97.97 0 0 1 .968.965v3.576a.97.97 0 0 1-.966.97M403.147 115h-3.48a.97.97 0 0 1-.97-.97v-3.575a.97.97 0 0 1 .97-.966h3.48a.97.97 0 0 1 .97.965v3.576a.97.97 0 0 1-.97.97M396.465 115h-3.482a.97.97 0 0 1-.967-.97v-3.575a.97.97 0 0 1 .967-.966h3.482a.97.97 0 0 1 .967.965v3.576a.97.97 0 0 1-.967.97M389.78 115h-3.48a.97.97 0 0 1-.968-.97v-3.575a.97.97 0 0 1 .968-.966h3.48a.97.97 0 0 1 .97.965v3.576a.97.97 0 0 1-.97.97M383.099 115h-3.484a.97.97 0 0 1-.966-.97v-3.575a.97.97 0 0 1 .966-.966h3.483a.97.97 0 0 1 .965.965v3.576a.97.97 0 0 1-.966.97M376.414 115h-3.48a.97.97 0 0 1-.968-.97v-3.575a.97.97 0 0 1 .968-.966h3.48a.97.97 0 0 1 .97.965v3.576a.97.97 0 0 1-.97.97M369.732 115h-3.482a.97.97 0 0 1-.967-.97v-3.575a.97.97 0 0 1 .967-.966h3.482a.97.97 0 0 1 .967.965v3.576a.97.97 0 0 1-.968.97M363.03 115h-6.293a.987.987 0 0 1-.984-.985v-3.542c0-.542.442-.984.984-.984h6.293c.542 0 .986.44.986.983v3.542a.987.987 0 0 1-.986.985M353.192 115h-3.312a.922.922 0 0 1-.92-.92v-3.67c0-.507.413-.92.92-.92h3.312c.507 0 .92.413.92.92v3.67c0 .506-.413.92-.92.92M405.427 104.85h-34.732a.963.963 0 0 1-.96-.96v-16.7c0-.53.43-.963.96-.963h34.732c.528 0 .962.434.962.963v16.7c0 .53-.434.96-.963.96M406.19 84.98h-17.273a.2.2 0 0 1-.2-.2V81.31c0-.11.09-.2.2-.2h17.273c.11 0 .2.09.2.2v3.467a.2.2 0 0 1-.2.2M387.207 84.98h-17.273a.2.2 0 0 1-.2-.2V81.31c0-.11.09-.2.2-.2h17.273c.11 0 .2.09.2.2v3.467a.2.2 0 0 1-.2.2" fill="#ccc"/><path d="M326.286 181.595h123.848l1.37 4.265H324.92l1.366-4.265z" fill="#104d7c" fill-rule="nonzero"/><path d="M329.153 172.58h118.145l2.836 9.015H326.286l2.867-9.016z" fill="#a2d7e7" fill-rule="nonzero"/><path d="M404.52 165.67h24.01l1.674 5.446H405.39l-.87-5.445zM376.206 165.67h24.01l.71 5.446h-26.24l1.52-5.445zM347.892 165.67h24.01l-1.247 5.446h-24.7l1.937-5.445z" fill="#104d7c" fill-rule="nonzero"/><path d="M420.25 183.727c0 .864 1.855 1.564 4.14 1.564 2.287 0 4.14-.7 4.14-1.563s-1.853-1.563-4.14-1.563c-2.285 0-4.14.7-4.14 1.563M347.893 183.375h10.085v1.46h-10.085zM360.027 183.375h10.087v1.46h-10.087zM372.162 183.375h10.088v1.46h-10.088zM384.298 183.375h10.087v1.46h-10.087z" fill="#e6e7e8" fill-rule="nonzero"/><path d="M404.38 164.617l-.113-1.047h23.753l.37 1.047h-24.01zM403.91 162.93l-.112-1.048h23.754l.37 1.047h-24.01zM372.005 164.617l.246-1.047h-23.886l-.37 1.047h24.01zM372.406 162.93l.18-1.048h-23.753l-.37 1.047h23.943zM400.11 164.617l-.155-1.047h-23.25l-.37 1.047h23.775zM399.89 162.93l-.168-1.048h-22.548l-.37 1.047h23.085z" fill="#a7a9ac" fill-rule="nonzero"/><path d="M332.787 22.75a7.5 7.5 0 0 1 7.5-7.5h61.358a7.5 7.5 0 0 1 7.5 7.5v34.902a7.5 7.5 0 0 1-7.5 7.5h-61.358a7.5 7.5 0 0 1-7.5-7.5V22.75z" fill="#053a5a" fill-rule="nonzero"/><path fill="#92278f" fill-rule="nonzero" d="M371.87 40.202h24.095v27.28H371.87zM345.964 40.202h24.097v27.28h-24.096z"/><path d="M322.615 8.75a8.75 8.75 0 0 1 8.75-8.75h79.2a8.75 8.75 0 0 1 0 17.5h-79.2a8.75 8.75 0 0 1-8.75-8.75" fill="#053a5a" fill-rule="nonzero"/><path d="M318.284 30.595c0-9.863 23.99-17.86 53.582-17.86 29.593 0 53.583 7.997 53.583 17.86 0 9.865-23.99 17.86-53.584 17.86-29.593 0-53.582-7.995-53.582-17.86" fill="#eee" fill-rule="nonzero"/><path d="M375.285 55.734s-6.947 10.033-18.302 2.095c-11.357-7.94-10.475-21.06-10.144-26.572.33-5.512 3.748-22.822 23.372-22.822 19.626 0 23.926 15.104 23.926 24.696 0 9.592-2.32 21.66-10.254 24.256-6.063 1.984-8.6-1.654-8.6-1.654" fill="#604a32" fill-rule="nonzero"/><path d="M321.37 109.036l-.893 7.314a2.85 2.85 0 0 0 2.482 3.177l.944.115c.04.006.077.007.12.008l.762-6.246-3.416-4.368z" fill="#fcb" fill-rule="nonzero"/><path d="M318.802 109.786l4.172 5.332c.395.503.926.836 1.5.992l.574-4.704-5.574-7.125-.672 5.506zM310.98 130.928a1.932 1.932 0 0 1-1.68-2.15l1.724-14.117a1.932 1.932 0 0 1 3.834.47l-1.726 14.117a1.932 1.932 0 0 1-2.152 1.68" fill="#fcb" fill-rule="nonzero"/><path d="M320.573 108.215a5.017 5.017 0 0 0-4.372-5.587l-8.09-.99a5.017 5.017 0 0 0-5.59 4.37l-.99 8.092a5.02 5.02 0 0 0 4.372 5.59l8.093.988a5.02 5.02 0 0 0 5.59-4.372l.988-8.09z" fill="#fcb" fill-rule="nonzero"/><path d="M302.114 125.443a1.93 1.93 0 0 1-1.68-2.15l1.103-9.042a1.933 1.933 0 0 1 2.15-1.683 1.933 1.933 0 0 1 1.684 2.154l-1.104 9.04a1.93 1.93 0 0 1-2.152 1.683M306.514 127.987a1.932 1.932 0 0 1-1.683-2.15l1.727-14.118a1.93 1.93 0 1 1 3.832.47l-1.725 14.114a1.933 1.933 0 0 1-2.15 1.683M316.108 128.476a1.932 1.932 0 0 1-1.683-2.15l1.606-13.14a1.932 1.932 0 0 1 3.835.47l-1.606 13.137a1.932 1.932 0 0 1-2.152 1.683" fill="#fcb" fill-rule="nonzero"/><path d="M306.544 89.73l-2.203 18.027a3.403 3.403 0 0 0 2.968 3.79l5.487.67a3.404 3.404 0 0 0 3.793-2.965l2.2-18.025-12.244-1.496z" fill="#fcb" fill-rule="nonzero"/><path d="M306.212 62.06l14.95 3.843-2.074 34.913-15.056-1.82 2.18-36.936zM306.212 62.06l12.1-31.886 15.638 1.103-12.77 34.63M425.45 70.75V30.595h-15.455V70.75" fill="#eee" fill-rule="nonzero"/><path d="M403.307 111.724v7.37a2.85 2.85 0 0 1-2.852 2.85h-.95c-.04 0-.078-.003-.12-.006v-6.293l3.922-3.92z" fill="#fcb" fill-rule="nonzero"/><path d="M405.764 112.78l-4.787 4.786a2.84 2.84 0 0 1-1.608.803v-4.74l6.394-6.396v5.546zM410.933 129.19a1.932 1.932 0 0 0 1.932-1.93v-14.22a1.932 1.932 0 0 0-3.862 0v14.22a1.93 1.93 0 0 0 1.93 1.93" fill="#fcb" fill-rule="nonzero"/><path d="M404.198 111.006a5.016 5.016 0 0 1 5.017-5.016h8.154a5.015 5.015 0 0 1 5.014 5.016v8.15a5.017 5.017 0 0 1-5.015 5.02h-8.155a5.018 5.018 0 0 1-5.017-5.02v-8.15z" fill="#fcb" fill-rule="nonzero"/><path d="M420.454 127.586a1.93 1.93 0 0 0 1.93-1.93v-9.11a1.932 1.932 0 0 0-3.86 0v9.11a1.93 1.93 0 0 0 1.93 1.93M415.726 129.192a1.932 1.932 0 0 0 1.933-1.93l-.002-14.222a1.93 1.93 0 0 0-3.86 0v14.22a1.93 1.93 0 0 0 1.93 1.932M406.14 133.934a1.932 1.932 0 0 0 1.933-1.93v-13.24a1.932 1.932 0 0 0-3.863 0v13.24a1.93 1.93 0 0 0 1.93 1.93" fill="#fcb" fill-rule="nonzero"/><path d="M420.365 94.36v18.16a3.403 3.403 0 0 1-3.404 3.403h-5.53a3.403 3.403 0 0 1-3.402-3.404V94.36h12.337z" fill="#fcb" fill-rule="nonzero"/><path d="M425.45 70.75H410.01l-2.653 32.04h15.438l2.65-32.04z" fill="#eee" fill-rule="nonzero"/><path d="M421.313 100.39a.86.86 0 1 0-1.72.002.86.86 0 0 0 1.72-.002" fill="#eee" fill-rule="nonzero"/></svg>