<?xml version="1.0" standalone="no"?><!DOCTYPE svg PUBLIC "-//W3C//DTD SVG 1.1//EN" "http://www.w3.org/Graphics/SVG/1.1/DTD/svg11.dtd"><svg width="100%" height="100%" viewBox="0 0 132 37" version="1.1" xmlns="http://www.w3.org/2000/svg" xmlns:xlink="http://www.w3.org/1999/xlink" xml:space="preserve" style="fill-rule:evenodd;clip-rule:evenodd;stroke-linejoin:round;stroke-miterlimit:1.41421;"><path d="M65.906,0c4.227,0 7.913,1.843 9.322,4.336c-3.144,-0.65 -6.504,-1.084 -8.13,-1.084c-0.325,-0.108 -0.867,0.217 -0.759,0.65l0,9.214l-0.867,0l0,-8.888l0,-0.326c0.109,-0.433 -0.433,-0.758 -0.867,-0.65c-1.518,0 -4.986,0.434 -8.021,1.084c1.3,-2.493 4.986,-4.336 9.322,-4.336ZM75.553,5.42c0.109,0.325 0.217,0.758 0.217,1.084c0,2.927 -2.818,5.42 -6.72,6.287l-1.302,-6.395c-0.108,-0.434 -0.108,-0.868 -0.108,-1.301c0.108,-0.325 0.434,-0.542 0.759,-0.542c2.385,0.108 4.878,0.434 7.154,0.867ZM62.762,12.791c-3.902,-0.867 -6.72,-3.36 -6.72,-6.287c0,-0.326 0,-0.759 0.108,-1.084c2.385,-0.433 4.77,-0.759 7.155,-0.867c0.433,0 0.758,0.217 0.758,0.542c0.109,0.433 0,0.867 0,1.301l-1.301,6.395Z" style="fill:#357ac3;"/><path d="M59.077,18.428l0,-1.951c-2.168,0 -4.228,0 -6.287,0l0,1.951l1.842,0l0,4.661l2.602,0l0,-4.661l1.843,0ZM62.329,19.187l-1.301,3.902l-2.601,0l2.493,-6.612c0.975,0 1.842,0 2.818,0l2.493,6.612l-2.602,0l-1.3,-3.902ZM71.867,18.428l0,-1.951c-2.059,0 -4.227,0 -6.286,0l0,1.951l1.843,0l0,4.661l2.601,0l0,-4.661l1.842,0ZM75.119,19.187l-1.3,3.902l-2.602,0l2.494,-6.612c0.975,0 1.842,0 2.818,0l2.493,6.612l-2.601,0l-1.302,-3.902Z" style="fill:#357ac3;"/><path d="M6.287,31.436l0,-1.843c-2.059,0 -4.227,0 -6.287,0l0,1.843l1.843,0l0,4.661l2.602,0l0,-4.661l1.842,0ZM9.539,32.195l-1.409,3.902l-2.493,0l2.493,-6.504c0.976,0 1.843,0 2.71,0l2.493,6.504l-2.493,0l-1.301,-3.902ZM19.078,31.436l0,-1.843c-2.168,0 -4.227,0 -6.287,0l0,1.843l1.843,0l0,4.661l2.601,0l0,-4.661l1.843,0ZM22.33,32.195l-1.409,3.902l-2.494,0l2.494,-6.504c0.867,0 1.842,0 2.71,0l2.493,6.504l-2.493,0l-1.301,-3.902Z" style="fill:#357ac3;"/><path d="M33.603,35.012c-0.325,0.109 -0.867,0.217 -1.3,0.217c-1.41,0 -2.277,-0.975 -2.277,-2.384c0,-1.518 0.976,-2.385 2.277,-2.385c0.542,0 0.975,0.109 1.3,0.217l0.218,-0.867c-0.218,-0.109 -0.759,-0.326 -1.626,-0.326c-1.952,0 -3.469,1.301 -3.469,3.469c0,1.951 1.3,3.252 3.36,3.252c0.759,0 1.409,-0.108 1.626,-0.325l-0.109,-0.868ZM37.181,36.205c1.734,0 3.035,-1.193 3.035,-3.469c0,-1.843 -1.085,-3.252 -2.927,-3.252c-1.842,0 -3.144,1.409 -3.144,3.361c0,1.95 1.193,3.36 3.036,3.36ZM37.181,35.229c-1.084,0 -1.734,-1.084 -1.734,-2.384c0,-1.301 0.541,-2.385 1.734,-2.385c1.192,0 1.842,1.084 1.842,2.385c0,1.3 -0.65,2.384 -1.842,2.384ZM42.384,36.097l0,-2.276c0,-1.085 0,-1.952 -0.109,-2.819l0.109,0c0.325,0.758 0.758,1.517 1.084,2.276l1.734,2.819l1.301,0l0,-6.504l-1.192,0l0,2.276c0,0.976 0.108,1.843 0.108,2.71c-0.325,-0.758 -0.651,-1.517 -1.084,-2.168l-1.735,-2.818l-1.3,0l0,6.504l1.084,0ZM47.587,35.771c0.325,0.217 0.975,0.434 1.734,0.434c1.626,0 2.385,-0.867 2.385,-1.951c0,-0.976 -0.542,-1.518 -1.626,-1.952c-0.867,-0.324 -1.301,-0.542 -1.301,-1.083c0,-0.326 0.434,-0.759 1.084,-0.759c0.65,0 1.084,0.217 1.301,0.325l0.325,-0.975c-0.325,-0.217 -0.867,-0.326 -1.518,-0.326c-1.409,0 -2.384,0.759 -2.384,1.843c0,0.975 0.758,1.518 1.843,1.951c0.758,0.217 1.083,0.543 1.083,1.084c0,0.542 -0.433,0.867 -1.192,0.867c-0.542,0 -1.192,-0.217 -1.517,-0.434l-0.217,0.976ZM52.79,29.593l0,3.685c0,2.06 0.975,2.927 2.493,2.927c1.626,0 2.601,-0.867 2.601,-2.927l0,-3.685l-1.192,0l0,3.793c0,1.301 -0.542,1.843 -1.409,1.843c-0.759,0 -1.301,-0.541 -1.301,-1.843l0,-3.793l-1.192,0ZM59.294,36.097l3.793,0l0,-0.976l-2.601,0l0,-5.528l-1.192,0l0,6.504ZM64.28,36.097l1.192,0l0,-5.528l1.952,0l0,-0.976l-4.987,0l0,0.976l1.843,0l0,5.528ZM70.784,34.254l0.65,1.843l1.192,0l-2.059,-6.504l-1.517,0l-2.06,6.504l1.192,0l0.542,-1.843l2.06,0ZM68.941,33.386l0.433,-1.626c0.217,-0.433 0.326,-0.867 0.326,-1.191l0.108,0c0.109,0.324 0.109,0.758 0.325,1.191l0.434,1.626l-1.626,0ZM74.686,36.097l0,-2.276c0,-1.085 0,-1.952 -0.108,-2.819l0.108,0c0.217,0.758 0.651,1.517 1.084,2.276l1.734,2.819l1.193,0l0,-6.504l-1.084,0l0,2.276c0,0.976 0,1.843 0.108,2.71c-0.325,-0.758 -0.65,-1.517 -1.084,-2.168l-1.734,-2.818l-1.301,0l0,6.504l1.084,0ZM84.55,35.012c-0.325,0.109 -0.758,0.217 -1.301,0.217c-1.409,0 -2.276,-0.975 -2.276,-2.384c0,-1.518 0.976,-2.385 2.276,-2.385c0.543,0 0.976,0.109 1.301,0.217l0.217,-0.867c-0.217,-0.109 -0.759,-0.326 -1.518,-0.326c-1.951,0 -3.468,1.301 -3.468,3.469c0,1.951 1.192,3.252 3.252,3.252c0.867,0 1.409,-0.108 1.734,-0.325l-0.217,-0.868ZM88.453,36.097l0,-2.711l2.167,-3.793l-1.409,0l-0.758,1.626c-0.218,0.541 -0.326,0.867 -0.542,1.3c-0.217,-0.433 -0.326,-0.759 -0.543,-1.3l-0.759,-1.626l-1.408,0l2.059,3.793l0,2.711l1.193,0ZM93.005,35.771c0.434,0.217 1.084,0.434 1.843,0.434c1.626,0 2.384,-0.867 2.384,-1.951c0,-0.976 -0.541,-1.518 -1.626,-1.952c-0.867,-0.324 -1.3,-0.542 -1.3,-1.083c0,-0.326 0.325,-0.759 1.084,-0.759c0.65,0 1.084,0.217 1.301,0.325l0.325,-0.975c-0.325,-0.217 -0.867,-0.326 -1.626,-0.326c-1.41,0 -2.277,0.759 -2.277,1.843c0,0.975 0.759,1.518 1.735,1.951c0.867,0.217 1.192,0.543 1.192,1.084c0,0.542 -0.434,0.867 -1.192,0.867c-0.542,0 -1.192,-0.217 -1.518,-0.434l-0.325,0.976ZM102.002,32.195l-2.493,0l0,-1.626l2.601,0l0,-0.976l-3.793,0l0,6.504l3.902,0l0,-0.976l-2.71,0l0,-1.951l2.493,0l0,-0.975ZM103.303,36.097l1.192,0l0,-2.711l0.542,0c0.759,0.109 1.084,0.326 1.192,1.193c0.217,0.759 0.326,1.301 0.435,1.518l1.191,0c-0.108,-0.217 -0.216,-0.976 -0.433,-1.843c-0.217,-0.65 -0.434,-1.084 -0.976,-1.192l0,-0.109c0.651,-0.217 1.193,-0.758 1.193,-1.626c0,-0.542 -0.217,-0.975 -0.542,-1.301c-0.433,-0.325 -1.084,-0.433 -1.951,-0.433c-0.759,0 -1.41,0 -1.843,0.108l0,6.396ZM104.495,30.46c0.108,0 0.326,0 0.759,0c0.759,0 1.192,0.325 1.192,0.976c0,0.65 -0.433,1.083 -1.3,1.083l-0.651,0l0,-2.059ZM111.65,36.097l2.276,-6.504l-1.301,0l-0.867,2.926c-0.325,0.867 -0.542,1.626 -0.651,2.385l-0.108,0c-0.108,-0.759 -0.325,-1.518 -0.542,-2.385l-0.976,-2.926l-1.3,0l2.167,6.504l1.302,0ZM115.877,36.097l0,-6.504l-1.192,0l0,6.504l1.192,0ZM121.622,35.012c-0.325,0.109 -0.759,0.217 -1.301,0.217c-1.409,0 -2.276,-0.975 -2.276,-2.384c0.109,-1.518 0.976,-2.385 2.276,-2.385c0.542,0 0.976,0.109 1.301,0.217l0.325,-0.867c-0.325,-0.109 -0.867,-0.326 -1.626,-0.326c-1.951,0 -3.469,1.301 -3.469,3.469c0,1.951 1.193,3.252 3.361,3.252c0.758,0 1.409,-0.108 1.626,-0.325l-0.217,-0.868ZM126.5,32.195l-2.493,0l0,-1.626l2.601,0l0,-0.976l-3.794,0l0,6.504l4.011,0l0,-0.976l-2.818,0l0,-1.951l2.493,0l0,-0.975ZM127.584,35.771c0.325,0.217 1.084,0.434 1.734,0.434c1.626,0 2.493,-0.867 2.493,-1.951c0,-0.976 -0.541,-1.518 -1.734,-1.952c-0.867,-0.324 -1.192,-0.542 -1.192,-1.083c0,-0.326 0.325,-0.759 1.083,-0.759c0.543,0 0.976,0.217 1.302,0.325l0.216,-0.975c-0.325,-0.217 -0.867,-0.326 -1.518,-0.326c-1.409,0 -2.276,0.759 -2.276,1.843c0,0.975 0.65,1.518 1.735,1.951c0.758,0.217 1.084,0.543 1.084,1.084c0,0.542 -0.326,0.867 -1.084,0.867c-0.65,0 -1.193,-0.217 -1.626,-0.434l-0.217,0.976Z" style="fill:#357ac3;"/></svg>