<svg viewBox="0 0 132 37" xmlns="http://www.w3.org/2000/svg" fill-rule="evenodd" clip-rule="evenodd" stroke-linejoin="round" stroke-miterlimit="1.414"><path d="M65.906 0c4.227 0 7.913 1.843 9.322 4.336-3.144-.65-6.504-1.084-8.13-1.084-.325-.108-.867.217-.76.65v9.214h-.866V3.902c.11-.433-.433-.758-.867-.65-1.518 0-4.986.434-8.02 1.084C57.885 1.843 61.57 0 65.905 0zm9.647 5.42c.11.325.217.758.217 1.084 0 2.927-2.818 5.42-6.72 6.287l-1.302-6.393c-.108-.434-.108-.868-.108-1.3a.816.816 0 0 1 .76-.543c2.384.108 4.877.434 7.153.867zm-12.79 7.37c-3.903-.866-6.72-3.36-6.72-6.286 0-.326 0-.76.107-1.084 2.385-.433 4.77-.76 7.155-.867.433 0 .758.217.758.542.11.433 0 .867 0 1.3l-1.3 6.396zm-3.686 5.638v-1.95H52.79v1.95h1.842v4.66h2.602v-4.66h1.843zm3.252.76l-1.303 3.9h-2.6l2.492-6.61h2.817l2.493 6.61h-2.6l-1.3-3.9zm9.536-.76v-1.95H65.58v1.95h1.844v4.66h2.6v-4.66h1.843zm3.252.76l-1.3 3.9h-2.603l2.494-6.61h2.82l2.49 6.61h-2.6l-1.302-3.9zM6.288 31.436v-1.843H0v1.843h1.843v4.66h2.602v-4.66h1.842zm3.25.76l-1.41 3.9H5.64l2.492-6.503h2.71l2.493 6.504H10.84l-1.3-3.902zm9.54-.76v-1.843H12.79v1.843h1.844v4.66h2.6v-4.66h1.844zm3.25.76l-1.41 3.9h-2.492l2.494-6.503h2.71l2.494 6.504H23.63l-1.3-3.902zm11.275 2.816c-.325.11-.867.217-1.3.217-1.41 0-2.277-.977-2.277-2.386 0-1.518.976-2.385 2.277-2.385.542 0 .975.11 1.3.216l.218-.867c-.216-.11-.757-.327-1.624-.327-1.952 0-3.47 1.3-3.47 3.47 0 1.95 1.3 3.25 3.36 3.25.76 0 1.41-.107 1.627-.324l-.11-.87zm3.578 1.193c1.736 0 3.037-1.193 3.037-3.47 0-1.842-1.085-3.25-2.927-3.25-1.843 0-3.145 1.408-3.145 3.36 0 1.95 1.193 3.36 3.036 3.36zm0-.976c-1.082 0-1.732-1.086-1.732-2.386s.54-2.385 1.734-2.385c1.193 0 1.843 1.083 1.843 2.384 0 1.3-.65 2.384-1.842 2.384zm5.205.866V33.82c0-1.084 0-1.95-.11-2.818h.11c.325.758.758 1.517 1.084 2.276l1.733 2.82h1.3v-6.505h-1.19v2.276c0 .974.107 1.84.107 2.71-.326-.76-.652-1.52-1.085-2.17L42.6 29.593h-1.3v6.504h1.084zm5.203-.326c.325.218.975.435 1.734.435 1.627 0 2.386-.867 2.386-1.95 0-.977-.542-1.52-1.626-1.953-.867-.324-1.3-.542-1.3-1.083 0-.328.433-.76 1.083-.76.65 0 1.084.216 1.3.324l.326-.975c-.325-.218-.867-.327-1.52-.327-1.407 0-2.382.76-2.382 1.843 0 .975.758 1.518 1.843 1.95.76.218 1.084.544 1.084 1.085 0 .543-.433.868-1.192.868-.54 0-1.19-.218-1.516-.435l-.217.976zm5.203-6.177v3.685c0 2.06.976 2.927 2.494 2.927 1.626 0 2.6-.867 2.6-2.927v-3.685h-1.19v3.793c0 1.3-.543 1.843-1.41 1.843-.76 0-1.3-.543-1.3-1.845v-3.793H52.79zm6.505 6.504h3.793v-.976h-2.6v-5.526h-1.193v6.504zm4.986 0h1.193V30.57h1.952v-.977h-4.987v.976h1.843v5.526zm6.505-1.843l.65 1.843h1.192l-2.06-6.504H69.05l-2.06 6.504h1.192l.542-1.843h2.06zm-1.843-.868l.434-1.626c.217-.433.326-.867.326-1.19h.108c.11.323.11.757.325 1.19l.434 1.626h-1.63zm5.746 2.71V33.82c0-1.083 0-1.95-.108-2.817h.108c.217.758.65 1.517 1.084 2.276l1.734 2.82H78.7v-6.506h-1.085v2.276c0 .975 0 1.842.108 2.71-.324-.76-.65-1.518-1.083-2.17l-1.734-2.817h-1.3v6.504h1.083zm9.864-1.084a4.02 4.02 0 0 1-1.3.217c-1.41 0-2.277-.977-2.277-2.386 0-1.518.976-2.385 2.276-2.385.543 0 .976.11 1.3.216l.218-.867c-.217-.11-.76-.327-1.518-.327-1.952 0-3.47 1.3-3.47 3.47 0 1.95 1.193 3.25 3.253 3.25.867 0 1.41-.107 1.734-.324l-.217-.87zm3.903 1.085v-2.71l2.167-3.794h-1.41l-.757 1.626c-.218.54-.326.865-.542 1.3-.216-.435-.325-.76-.542-1.3l-.76-1.628h-1.406l2.06 3.793v2.71h1.193zm4.552-.326a4.19 4.19 0 0 0 1.843.436c1.626 0 2.384-.867 2.384-1.95 0-.977-.54-1.52-1.626-1.953-.867-.324-1.3-.542-1.3-1.083 0-.327.325-.76 1.084-.76.65 0 1.084.217 1.3.325l.326-.975c-.325-.217-.867-.326-1.626-.326-1.41 0-2.277.76-2.277 1.843 0 .975.76 1.518 1.735 1.95.867.218 1.192.544 1.192 1.085 0 .542-.434.867-1.192.867-.542 0-1.192-.22-1.518-.436l-.325.976zm8.997-3.574H99.51V30.57h2.6v-.977h-3.793v6.504h3.902v-.976h-2.71v-1.95H102v-.974zm1.3 3.902h1.193v-2.71h.542c.76.108 1.083.325 1.19 1.192.217.758.326 1.3.435 1.517h1.19c-.107-.217-.215-.976-.432-1.843-.217-.65-.434-1.084-.976-1.192v-.11c.65-.216 1.193-.757 1.193-1.625 0-.542-.218-.975-.543-1.3-.433-.326-1.084-.434-1.95-.434-.76 0-1.41 0-1.844.108V36.1zm1.193-5.637h.76c.758 0 1.19.326 1.19.977 0 .65-.432 1.083-1.3 1.083h-.65v-2.06zm7.155 5.638l2.276-6.504h-1.3l-.868 2.926c-.325.866-.542 1.625-.65 2.384H111c-.107-.76-.324-1.518-.54-2.385l-.977-2.928h-1.3l2.168 6.504h1.303zm4.227 0v-6.504h-1.193v6.504h1.192zm5.744-1.085c-.325.11-.76.217-1.3.217-1.41 0-2.277-.976-2.277-2.385.11-1.518.976-2.385 2.276-2.385.543 0 .977.11 1.302.217l.325-.867c-.325-.11-.867-.326-1.626-.326-1.95 0-3.468 1.3-3.468 3.47 0 1.95 1.193 3.25 3.36 3.25.76 0 1.41-.107 1.627-.324l-.218-.868zm4.878-2.817h-2.493V30.57h2.6v-.977h-3.794v6.504h4.01v-.976h-2.817v-1.95h2.492v-.974zm1.084 3.576c.325.218 1.084.435 1.734.435 1.626 0 2.493-.867 2.493-1.95 0-.977-.54-1.52-1.733-1.953-.867-.324-1.192-.542-1.192-1.083 0-.326.325-.76 1.083-.76.544 0 .977.218 1.303.326l.216-.975c-.326-.216-.868-.325-1.52-.325-1.41 0-2.275.76-2.275 1.843 0 .975.65 1.518 1.735 1.95.758.218 1.084.544 1.084 1.085 0 .542-.325.867-1.083.867-.65 0-1.192-.218-1.625-.435l-.216.976z" fill="#357ac3"/></svg>