<svg viewBox="0 0 132 37" xmlns="http://www.w3.org/2000/svg" fill-rule="evenodd" clip-rule="evenodd" stroke-linejoin="round" stroke-miterlimit="1.414"><path d="M65.906 0c4.227 0 7.913 1.843 9.322 4.336-3.144-.65-6.504-1.084-8.13-1.084-.325-.108-.867.217-.76.65v9.214h-.866V3.902c.11-.433-.433-.758-.867-.65-1.518 0-4.986.434-8.02 1.084C57.884 1.843 61.57 0 65.904 0zm9.647 5.42c.11.325.217.758.217 1.084 0 2.927-2.818 5.42-6.72 6.287l-1.302-6.394c-.108-.434-.108-.868-.108-1.3a.816.816 0 0 1 .76-.543c2.384.108 4.877.434 7.153.867zm-12.79 7.37c-3.903-.866-6.72-3.36-6.72-6.286 0-.326 0-.76.107-1.084 2.385-.433 4.77-.76 7.155-.867.433 0 .758.217.758.542.11.433 0 .867 0 1.3l-1.3 6.396zM59.077 18.428v-1.95H52.79v1.95h1.842v4.66h2.602v-4.66h1.843zm3.252.76l-1.302 3.9h-2.6l2.492-6.61h2.818l2.493 6.61h-2.6l-1.3-3.9zm9.537-.76v-1.95H65.58v1.95h1.844v4.66h2.6v-4.66h1.843zm3.252.76l-1.3 3.9h-2.603l2.494-6.61h2.82l2.492 6.61h-2.6l-1.303-3.9zM6.287 31.436v-1.843H0v1.843h1.843v4.66h2.602v-4.66h1.842zm3.252.76l-1.41 3.9H5.637l2.493-6.503h2.71l2.493 6.504H10.84l-1.3-3.902zm9.538-.76v-1.843H12.79v1.843h1.844v4.66h2.6v-4.66h1.844zm3.252.76l-1.41 3.9h-2.493l2.494-6.503h2.71l2.494 6.504H23.63l-1.3-3.902zM33.603 35.012c-.325.11-.867.217-1.3.217-1.41 0-2.277-.976-2.277-2.385 0-1.518.976-2.385 2.277-2.385.542 0 .975.11 1.3.217l.218-.867c-.217-.11-.758-.326-1.625-.326-1.952 0-3.47 1.3-3.47 3.47 0 1.95 1.3 3.25 3.36 3.25.76 0 1.41-.107 1.627-.324l-.11-.868zm3.578 1.193c1.735 0 3.036-1.193 3.036-3.47 0-1.842-1.085-3.25-2.927-3.25-1.843 0-3.145 1.408-3.145 3.36 0 1.95 1.193 3.36 3.036 3.36zm0-.976c-1.083 0-1.733-1.085-1.733-2.385 0-1.3.54-2.385 1.734-2.385 1.193 0 1.843 1.084 1.843 2.385 0 1.3-.65 2.384-1.842 2.384zm5.204.867V33.82c0-1.084 0-1.95-.11-2.818h.11c.325.758.758 1.517 1.084 2.276l1.734 2.82h1.3v-6.505h-1.19v2.276c0 .975.107 1.842.107 2.71-.326-.76-.652-1.518-1.085-2.17L42.6 29.594h-1.3v6.504h1.084zm5.203-.326c.325.218.975.435 1.734.435 1.627 0 2.386-.867 2.386-1.95 0-.977-.542-1.52-1.626-1.953-.867-.324-1.3-.542-1.3-1.083 0-.327.433-.76 1.083-.76.65 0 1.084.217 1.3.325l.326-.975c-.326-.217-.868-.326-1.52-.326-1.408 0-2.383.76-2.383 1.843 0 .975.758 1.518 1.843 1.95.758.218 1.083.544 1.083 1.085 0 .542-.433.867-1.192.867-.54 0-1.19-.218-1.516-.435l-.217.976zm5.203-6.177v3.685c0 2.06.975 2.927 2.493 2.927 1.626 0 2.6-.867 2.6-2.927v-3.685h-1.19v3.793c0 1.3-.543 1.843-1.41 1.843-.76 0-1.3-.542-1.3-1.844v-3.793H52.79zm6.504 6.504h3.793v-.976h-2.6v-5.527h-1.193v6.504zm4.986 0h1.192V30.57h1.952v-.977h-4.987v.976h1.843v5.527zm6.504-1.843l.65 1.843h1.192l-2.06-6.504H69.05l-2.06 6.504h1.192l.542-1.843h2.06zm-1.843-.868l.434-1.626c.217-.433.326-.867.326-1.19h.108c.11.323.11.757.325 1.19l.434 1.626H68.94zm5.746 2.71v-2.275c0-1.084 0-1.95-.108-2.818h.108c.217.758.65 1.517 1.084 2.276l1.734 2.82h1.193v-6.505h-1.084v2.276c0 .975 0 1.842.108 2.71-.324-.76-.65-1.518-1.083-2.17l-1.734-2.817h-1.3v6.504h1.083zm9.864-1.084a4.02 4.02 0 0 1-1.3.217c-1.41 0-2.277-.976-2.277-2.385 0-1.518.976-2.385 2.276-2.385.542 0 .975.11 1.3.217l.217-.867c-.217-.11-.76-.326-1.518-.326-1.952 0-3.47 1.3-3.47 3.47 0 1.95 1.193 3.25 3.253 3.25.867 0 1.41-.107 1.734-.324l-.217-.868zm3.903 1.085v-2.71l2.167-3.794h-1.41l-.757 1.626c-.218.54-.326.866-.542 1.3-.216-.434-.325-.76-.542-1.3l-.76-1.627h-1.407l2.06 3.793v2.71h1.193zm4.552-.326a4.19 4.19 0 0 0 1.843.435c1.626 0 2.384-.867 2.384-1.95 0-.977-.54-1.52-1.626-1.953-.867-.324-1.3-.542-1.3-1.083 0-.327.325-.76 1.084-.76.65 0 1.084.217 1.3.325l.326-.975c-.325-.217-.867-.326-1.626-.326-1.41 0-2.277.76-2.277 1.843 0 .975.76 1.518 1.735 1.95.867.218 1.192.544 1.192 1.085 0 .542-.434.867-1.192.867-.542 0-1.192-.218-1.518-.435l-.325.976zm8.997-3.575H99.51V30.57h2.6v-.977h-3.793v6.504h3.902v-.976h-2.71v-1.95H102v-.975zm1.3 3.902h1.193v-2.71h.542c.76.108 1.084.325 1.192 1.192.216.758.325 1.3.434 1.517h1.19c-.107-.217-.215-.976-.432-1.843-.217-.65-.434-1.084-.976-1.192v-.11c.65-.216 1.193-.757 1.193-1.625 0-.542-.218-.975-.543-1.3-.433-.326-1.084-.434-1.95-.434-.76 0-1.41 0-1.844.108v6.397zm1.193-5.637h.76c.758 0 1.19.325 1.19.976 0 .65-.432 1.083-1.3 1.083h-.65v-2.06zm7.155 5.637l2.276-6.504h-1.3l-.868 2.926c-.325.866-.542 1.625-.65 2.384h-.11c-.107-.76-.324-1.518-.54-2.385l-.977-2.927h-1.3l2.168 6.504h1.302zm4.227 0v-6.504h-1.192v6.504h1.192zm5.745-1.085c-.325.11-.76.217-1.3.217-1.41 0-2.277-.976-2.277-2.385.11-1.518.976-2.385 2.276-2.385.543 0 .977.11 1.302.217l.325-.867c-.325-.11-.867-.326-1.626-.326-1.95 0-3.468 1.3-3.468 3.47 0 1.95 1.193 3.25 3.36 3.25.76 0 1.41-.107 1.627-.324l-.218-.868zm4.878-2.817h-2.493V30.57h2.6v-.977h-3.793v6.504h4.01v-.976h-2.817v-1.95h2.493v-.975zm1.084 3.576c.325.218 1.084.435 1.734.435 1.626 0 2.493-.867 2.493-1.95 0-.977-.54-1.52-1.733-1.953-.867-.324-1.192-.542-1.192-1.083 0-.327.325-.76 1.083-.76.543 0 .976.217 1.302.325l.216-.975c-.325-.217-.867-.326-1.518-.326-1.41 0-2.276.76-2.276 1.843 0 .975.65 1.518 1.735 1.95.758.218 1.084.544 1.084 1.085 0 .542-.325.867-1.083.867-.65 0-1.193-.218-1.626-.435l-.216.976z" fill="#357ac3"/></svg>