<?xml version="1.0" standalone="no"?><!DOCTYPE svg PUBLIC "-//W3C//DTD SVG 1.1//EN" "http://www.w3.org/Graphics/SVG/1.1/DTD/svg11.dtd"><svg width="100%" height="100%" viewBox="0 0 245 240" version="1.1" xmlns="http://www.w3.org/2000/svg" xmlns:xlink="http://www.w3.org/1999/xlink" xml:space="preserve" style="fill-rule:evenodd;clip-rule:evenodd;stroke-linejoin:round;stroke-miterlimit:1.41421;"><path d="M108.836,109.282l14.967,4.127c3.198,0.882 5.076,4.188 4.193,7.389l-0.532,1.928c-0.023,0.083 -0.052,0.16 -0.081,0.239l-12.781,-3.525l-5.766,-10.158Z" style="fill:#fcb;fill-rule:nonzero;"/><path d="M112.356,104.882l7.038,12.406c0.667,1.172 0.886,2.473 0.731,3.716l-9.627,-2.655l-9.405,-16.575l11.263,3.108Z" style="fill:#fcb;fill-rule:nonzero;"/><path d="M161.047,107.011c0.597,-2.167 -0.676,-4.408 -2.841,-5.004l-28.887,-7.966c-2.163,-0.597 -4.404,0.675 -5.001,2.841c-0.597,2.166 0.675,4.407 2.838,5.004l28.887,7.965c2.163,0.597 4.407,-0.675 5.004,-2.84" style="fill:#fcb;fill-rule:nonzero;"/><path d="M107.876,107.068c-5.628,-1.551 -8.935,-7.374 -7.381,-13l4.567,-16.559c1.549,-5.628 7.374,-8.931 13.001,-7.38l16.556,4.566c5.628,1.553 8.932,7.374 7.381,13l-4.567,16.56c-1.552,5.628 -7.373,8.931 -13.001,7.379l-16.557,-4.566Z" style="fill:#fcb;fill-rule:nonzero;"/><path d="M154.436,84.38c0.596,-2.164 -0.674,-4.405 -2.841,-5.003l-18.499,-5.101c-2.168,-0.599 -4.41,0.674 -5.006,2.838c-0.598,2.169 0.674,4.407 2.843,5.005l18.499,5.102c2.167,0.597 4.407,-0.673 5.004,-2.841" style="fill:#fcb;fill-rule:nonzero;"/><path d="M156.981,95.413c0.597,-2.166 -0.675,-4.407 -2.841,-5.004l-28.886,-7.967c-2.165,-0.597 -4.406,0.675 -5.003,2.841c-0.598,2.166 0.675,4.406 2.84,5.003l28.886,7.966c2.166,0.597 4.408,-0.674 5.004,-2.839" style="fill:#fcb;fill-rule:nonzero;"/><path d="M151.611,114.885c0.598,-2.167 -0.676,-4.407 -2.841,-5.004l-22.963,-6.334c-2.167,-0.596 -4.407,0.674 -5.005,2.841c-0.597,2.166 0.675,4.408 2.84,5.005l22.965,6.333c2.164,0.597 4.407,-0.675 5.004,-2.841" style="fill:#fcb;fill-rule:nonzero;"/><path d="M79.399,63.88l40.605,11.197c3.819,1.054 6.06,5.002 5.007,8.821l-3.098,11.232c-1.052,3.818 -5,6.059 -8.819,5.006l-40.606,-11.199l6.911,-25.057Z" style="fill:#fcb;fill-rule:nonzero;"/><path d="M80.4,59.295l-9.402,34.09l17.369,4.79l9.401,-34.091l-17.368,-4.789Z" style="fill:#94361d;fill-rule:nonzero;"/><path d="M0,75.187l82.147,22.655l10.109,-36.659l-92.256,-25.442l0,39.446Z" style="fill:#2f4962;fill-rule:nonzero;"/><path d="M83.965,63.126c-0.962,-0.264 -1.963,0.304 -2.228,1.265c-0.266,0.965 0.303,1.963 1.266,2.227c0.963,0.267 1.961,-0.299 2.227,-1.263c0.265,-0.963 -0.3,-1.962 -1.265,-2.229" style="fill:#103754;fill-rule:nonzero;"/><path d="M117.373,197.883l15.525,0.001c3.318,0 6.007,-2.687 6.007,-6.008l0,-2c0,-0.087 -0.008,-0.168 -0.014,-0.253l-13.258,0l-8.26,8.26Z" style="fill:#fcb;fill-rule:nonzero;"/><path d="M119.597,203.061l10.083,-10.088c0.954,-0.953 1.511,-2.149 1.693,-3.388l-9.987,0l-13.474,13.477l11.685,-0.001Z" style="fill:#fcb;fill-rule:nonzero;"/><g><clipPath id="_clip1"><rect x="129.862" y="146.069" width="33.511" height="33.509"/></clipPath><g clip-path="url(#_clip1)"><g opacity="0.100006"><clipPath id="_clip2"><rect x="129.862" y="146.069" width="33.511" height="33.509"/></clipPath><g clip-path="url(#_clip2)"><path d="M152.854,147.288c4.147,1.663 7.401,4.837 9.158,8.93c3.646,8.486 -0.292,18.352 -8.782,21.995c-4.116,1.769 -8.677,1.821 -12.855,0.147c-4.145,-1.665 -7.395,-4.833 -9.15,-8.923c-1.764,-4.106 -1.818,-8.658 -0.155,-12.819c1.66,-4.163 4.836,-7.424 8.942,-9.188c4.11,-1.764 8.673,-1.815 12.842,-0.142" style="fill:#fff;fill-rule:nonzero;"/></g></g></g></g><path d="M141.806,178.86c-0.231,-0.068 -0.462,-0.143 -0.692,-0.227c0.23,0.084 0.461,0.159 0.692,0.227" style="fill:#a6dae9;fill-rule:nonzero;"/><path d="M141.068,178.619c-0.232,-0.08 -0.463,-0.167 -0.693,-0.26c0.23,0.093 0.461,0.18 0.693,0.26" style="fill:#a6dae9;fill-rule:nonzero;"/><g><clipPath id="_clip3"><rect x="141.343" y="146.071" width="22.03" height="33.506"/></clipPath><g clip-path="url(#_clip3)"><g opacity="0.600006"><clipPath id="_clip4"><rect x="141.343" y="146.071" width="22.03" height="33.506"/></clipPath><g clip-path="url(#_clip4)"><path d="M152.854,147.288c-3.725,-1.494 -7.762,-1.611 -11.512,-0.362c0.734,-0.244 1.478,-0.434 2.228,-0.573c2,0.042 3.997,0.441 5.913,1.211c4.147,1.663 7.399,4.837 9.157,8.932c3.645,8.484 -0.296,18.353 -8.782,21.996c-1.155,0.497 -2.35,0.855 -3.557,1.08c-1.5,-0.032 -2.995,-0.264 -4.459,-0.702c3.762,1.128 7.75,0.906 11.388,-0.657c8.49,-3.643 12.428,-13.509 8.782,-21.995c-1.757,-4.093 -5.011,-7.267 -9.158,-8.93" style="fill:#fff;fill-rule:nonzero;"/></g></g></g></g><path d="M141.314,146.935c-0.125,0.042 -0.251,0.086 -0.374,0.13c0.124,-0.044 0.249,-0.088 0.374,-0.13" style="fill:#a6dae9;fill-rule:nonzero;"/><path d="M140.862,147.094c-0.112,0.041 -0.222,0.082 -0.332,0.125c0.11,-0.043 0.22,-0.084 0.332,-0.125" style="fill:#a6dae9;fill-rule:nonzero;"/><path d="M140.428,147.26c-0.139,0.054 -0.278,0.111 -0.416,0.17c0.138,-0.059 0.277,-0.116 0.416,-0.17" style="fill:#a6dae9;fill-rule:nonzero;"/><path d="M135.832,190.041c1.473,0.59 3.15,-0.131 3.738,-1.608l1.845,-4.814c0.586,-1.477 -0.129,-3.149 -1.601,-3.739c0,0 -0.006,-0.001 -0.009,-0.001c-1.476,-0.591 -3.151,0.129 -3.74,1.608l-1.844,4.815c-0.588,1.472 0.128,3.147 1.602,3.736c0,0 0.006,0.002 0.009,0.003" style="fill:#0e303f;fill-rule:nonzero;"/><path d="M153.231,178.213c-4.116,1.769 -8.679,1.82 -12.856,0.146c-4.145,-1.663 -7.394,-4.832 -9.15,-8.922c-1.763,-4.107 -1.817,-8.658 -0.155,-12.819c1.66,-4.164 4.836,-7.423 8.942,-9.189c4.111,-1.763 8.672,-1.814 12.842,-0.141c4.147,1.663 7.4,4.836 9.158,8.93c3.645,8.485 -0.293,18.352 -8.781,21.995M154.999,141.942c-5.6,-2.247 -11.728,-2.175 -17.26,0.198c-5.517,2.369 -9.786,6.753 -12.017,12.342c-2.232,5.59 -2.157,11.708 0.213,17.224c2.361,5.501 6.727,9.764 12.296,11.997l0.001,0.002c5.602,2.248 11.736,2.176 17.271,-0.198c11.403,-4.896 16.697,-18.159 11.8,-29.562c-2.361,-5.502 -6.731,-9.767 -12.304,-12.003" style="fill:#2c5871;fill-rule:nonzero;"/><path d="M142.33,189.291l-10.745,-4.31l-13.504,33.649l10.746,4.313l13.503,-33.652Z" style="fill:#103754;fill-rule:nonzero;"/><path d="M140.104,188.398l-6.294,-2.524l-13.503,33.649l6.292,2.526l13.505,-33.651Z" style="fill:#2c5871;fill-rule:nonzero;"/><path d="M130.897,217.782l-10.746,-4.312l-2.07,5.161l10.746,4.312l2.07,-5.161Z" style="fill:#0e303f;fill-rule:nonzero;"/><path d="M128.67,216.887l-6.292,-2.525l-2.07,5.161l6.291,2.526l2.071,-5.162Z" style="fill:#164866;fill-rule:nonzero;"/><g><g opacity="0.600006"><path d="M134.956,154.872c2.906,-3.394 6.956,-5.456 11.398,-5.809c1.542,-0.122 3.052,-0.025 4.5,0.256l0.151,3.502c-1.74,-0.447 -3.582,-0.622 -5.471,-0.475c-4.441,0.352 -8.49,2.413 -11.396,5.807c-1.342,1.565 -2.366,3.379 -3.048,5.257c0.439,-3.127 1.756,-6.075 3.866,-8.538" style="fill:#fff;fill-rule:nonzero;"/></g></g><path d="M149.256,213.954c0.001,2.247 -1.824,4.069 -4.069,4.069l-29.965,0c-2.244,0 -4.066,-1.823 -4.066,-4.069c0,-2.247 1.822,-4.07 4.066,-4.07l29.966,0c2.244,0 4.069,1.824 4.068,4.07" style="fill:#fcb;fill-rule:nonzero;"/><path d="M115.859,199.763c-5.838,-0.001 -10.573,4.733 -10.571,10.571l-0.001,17.176c-0.001,5.837 4.734,10.571 10.572,10.571l17.174,-0.001c5.838,0.001 10.572,-4.733 10.572,-10.57l0,-17.177c0,-5.838 -4.733,-10.571 -10.572,-10.57l-17.175,-0.001Z" style="fill:#fcb;fill-rule:nonzero;"/><path d="M148.297,234.013c0,2.244 -1.821,4.068 -4.068,4.067l-19.19,0.001c-2.25,-0.001 -4.073,-1.824 -4.072,-4.068c0,-2.25 1.822,-4.07 4.072,-4.07l19.189,0c2.248,0 4.069,1.82 4.069,4.07" style="fill:#fcb;fill-rule:nonzero;"/><path d="M148.13,224.053c0,2.247 -1.822,4.07 -4.068,4.069l-29.965,0c-2.247,0 -4.069,-1.822 -4.068,-4.068c-0.001,-2.248 1.821,-4.069 4.068,-4.068l29.965,0c2.246,0 4.068,1.821 4.068,4.067" style="fill:#fcb;fill-rule:nonzero;"/><path d="M148.906,203.854c0,2.248 -1.824,4.069 -4.069,4.07l-23.822,0c-2.247,-0.001 -4.069,-1.822 -4.069,-4.07c0,-2.246 1.823,-4.069 4.069,-4.069l23.821,0c2.246,0 4.07,1.823 4.07,4.069" style="fill:#fcb;fill-rule:nonzero;"/><path d="M76.925,233.826l42.121,0c3.962,0 7.172,-3.21 7.172,-7.172l0,-11.651c0,-3.96 -3.21,-7.17 -7.172,-7.17l-42.121,0l0,25.993Z" style="fill:#fcb;fill-rule:nonzero;"/><rect x="76.67" y="203.149" width="18.016" height="35.363" style="fill:#94361d;fill-rule:nonzero;"/><rect x="0" y="201.817" width="88.603" height="38.026" style="fill:#2f4962;fill-rule:nonzero;"/><path d="M81.127,235.766c-0.999,0 -1.812,-0.814 -1.812,-1.811c0,-1.001 0.813,-1.811 1.812,-1.811c0.999,0 1.812,0.81 1.812,1.811c-0.001,0.997 -0.812,1.811 -1.812,1.811" style="fill:#103754;fill-rule:nonzero;"/></svg>