<?xml version="1.0" standalone="no"?>
<!DOCTYPE svg PUBLIC "-//W3C//DTD SVG 1.1//EN" "http://www.w3.org/Graphics/SVG/1.1/DTD/svg11.dtd">
<svg width="100%" height="100%" viewBox="0 0 800 801" version="1.1" xmlns="http://www.w3.org/2000/svg" xmlns:xlink="http://www.w3.org/1999/xlink" xml:space="preserve" style="fill-rule:evenodd;clip-rule:evenodd;stroke-linejoin:round;stroke-miterlimit:1.41421;">
    <path d="M145.114,339.402L165.07,344.904C169.334,346.08 171.838,350.488 170.661,354.756L169.952,357.327C169.921,357.438 169.882,357.54 169.844,357.646L152.803,352.946L145.114,339.402Z" style="fill:rgb(255,204,187);fill-rule:nonzero;"/>
    <path d="M149.808,333.534L159.192,350.076C160.081,351.639 160.373,353.373 160.166,355.03L147.331,351.491L134.79,329.391L149.808,333.534Z" style="fill:rgb(255,204,187);fill-rule:nonzero;"/>
    <path d="M214.729,336.374C215.526,333.485 213.828,330.496 210.941,329.702L172.425,319.08C169.542,318.284 166.553,319.98 165.757,322.869C164.961,325.756 166.657,328.745 169.541,329.54L208.057,340.161C210.941,340.957 213.933,339.261 214.729,336.374" style="fill:rgb(255,204,187);fill-rule:nonzero;"/>
    <path d="M143.834,336.45C136.331,334.381 131.921,326.618 133.994,319.116L140.083,297.037C142.148,289.534 149.914,285.129 157.417,287.198L179.492,293.286C186.996,295.356 191.402,303.118 189.334,310.619L183.244,332.699C181.175,340.203 173.414,344.607 165.91,342.537L143.834,336.45Z" style="fill:rgb(255,204,187);fill-rule:nonzero;"/>
    <path d="M205.915,306.198C206.71,303.313 205.016,300.325 202.127,299.528L177.462,292.726C174.571,291.928 171.581,293.625 170.787,296.51C169.989,299.402 171.686,302.387 174.578,303.184L199.243,309.987C202.132,310.783 205.118,309.089 205.915,306.198" style="fill:rgb(255,204,187);fill-rule:nonzero;"/>
    <path d="M209.308,320.909C210.104,318.021 208.408,315.033 205.52,314.237L167.005,303.615C164.118,302.819 161.13,304.515 160.334,307.402C159.537,310.291 161.234,313.277 164.121,314.073L202.636,324.695C205.524,325.491 208.513,323.796 209.308,320.909" style="fill:rgb(255,204,187);fill-rule:nonzero;"/>
    <path d="M202.148,346.872C202.945,343.983 201.246,340.996 198.36,340.2L167.742,331.755C164.853,330.96 161.866,332.654 161.069,335.543C160.273,338.431 161.969,341.42 164.856,342.217L195.475,350.661C198.361,351.456 201.352,349.76 202.148,346.872" style="fill:rgb(255,204,187);fill-rule:nonzero;"/>
    <path d="M105.865,278.865L160.006,293.795C165.098,295.2 168.086,300.464 166.681,305.556L162.551,320.532C161.148,325.622 155.884,328.61 150.792,327.206L96.651,312.275L105.865,278.865Z" style="fill:rgb(255,204,187);fill-rule:nonzero;"/>
    <path d="M107.2,272.751L94.664,318.206L117.823,324.593L130.357,279.138L107.2,272.751Z" style="fill:rgb(148,54,29);fill-rule:nonzero;"/>
    <path d="M0,293.942L109.529,324.148L123.008,275.269L0,241.347L0,293.942Z" style="fill:rgb(47,73,98);fill-rule:nonzero;"/>
    <path d="M111.953,277.86C110.67,277.507 109.336,278.265 108.983,279.546C108.628,280.833 109.386,282.163 110.67,282.516C111.954,282.871 113.285,282.117 113.64,280.831C113.993,279.548 113.24,278.215 111.953,277.86" style="fill:rgb(16,55,84);fill-rule:nonzero;"/>
    <path d="M156.498,457.536L177.198,457.537C181.622,457.537 185.207,453.954 185.207,449.526L185.207,446.86C185.207,446.744 185.197,446.636 185.188,446.523L167.511,446.523L156.498,457.536Z" style="fill:rgb(255,204,187);fill-rule:nonzero;"/>
    <path d="M159.462,464.44L172.906,450.989C174.178,449.718 174.921,448.124 175.163,446.472L161.848,446.471L143.882,464.441L159.462,464.44Z" style="fill:rgb(255,204,187);fill-rule:nonzero;"/>
    <g>
        <clipPath id="_clip1">
            <rect x="173.149" y="388.451" width="44.681" height="44.679"/>
        </clipPath>
        <g clip-path="url(#_clip1)">
            <g opacity="0.100006">
                <clipPath id="_clip2">
                    <rect x="173.149" y="388.451" width="44.681" height="44.679"/>
                </clipPath>
                <g clip-path="url(#_clip2)">
                    <path d="M203.805,390.076C209.335,392.294 213.673,396.525 216.016,401.983C220.877,413.297 215.626,426.452 204.307,431.31C198.819,433.668 192.737,433.737 187.166,431.505C181.64,429.286 177.307,425.062 174.967,419.608C172.615,414.133 172.543,408.064 174.76,402.516C176.973,396.965 181.208,392.618 186.682,390.265C192.163,387.914 198.246,387.846 203.805,390.076" style="fill:white;fill-rule:nonzero;"/>
                </g>
            </g>
        </g>
    </g>
    <path d="M189.075,432.172C188.766,432.081 188.458,431.981 188.152,431.87C188.458,431.981 188.766,432.081 189.075,432.172" style="fill:rgb(166,218,233);fill-rule:nonzero;"/>
    <path d="M188.091,431.851C187.782,431.744 187.473,431.628 187.167,431.505C187.473,431.628 187.782,431.744 188.091,431.851" style="fill:rgb(166,218,233);fill-rule:nonzero;"/>
    <g>
        <clipPath id="_clip3">
            <rect x="188.457" y="388.453" width="29.373" height="44.675"/>
        </clipPath>
        <g clip-path="url(#_clip3)">
            <g opacity="0.600006">
                <clipPath id="_clip4">
                    <rect x="188.457" y="388.453" width="29.373" height="44.675"/>
                </clipPath>
                <g clip-path="url(#_clip4)">
                    <path d="M203.805,390.076C198.839,388.084 193.456,387.928 188.456,389.593C189.435,389.268 190.426,389.015 191.427,388.829C194.093,388.885 196.756,389.417 199.311,390.444C204.84,392.662 209.176,396.893 211.52,402.354C216.38,413.666 211.125,426.824 199.811,431.682C198.271,432.344 196.677,432.822 195.068,433.122C193.068,433.079 191.074,432.77 189.123,432.186C194.139,433.689 199.456,433.393 204.307,431.31C215.626,426.452 220.877,413.297 216.016,401.983C213.673,396.525 209.335,392.294 203.805,390.076" style="fill:white;fill-rule:nonzero;"/>
                </g>
            </g>
        </g>
    </g>
    <path d="M181.11,447.08C183.074,447.866 185.309,446.905 186.093,444.936L188.553,438.517C189.335,436.548 188.381,434.318 186.419,433.532C186.419,433.532 186.411,433.531 186.407,433.531C184.439,432.743 182.205,433.702 181.42,435.674L178.962,442.094C178.178,444.057 179.132,446.29 181.097,447.076C181.097,447.076 181.106,447.079 181.11,447.08" style="fill:rgb(14,48,63);fill-rule:nonzero;"/>
    <path d="M204.308,431.31C198.82,433.668 192.737,433.737 187.167,431.505C181.641,429.287 177.308,425.062 174.967,419.608C172.616,414.133 172.544,408.064 174.761,402.516C176.974,396.965 181.209,392.619 186.683,390.265C192.164,387.914 198.246,387.846 203.806,390.076C209.335,392.294 213.673,396.525 216.017,401.983C220.877,413.297 215.626,426.453 204.308,431.31M206.666,382.949C199.199,379.953 191.029,380.049 183.652,383.212C176.297,386.371 170.605,392.217 167.63,399.668C164.654,407.122 164.754,415.279 167.914,422.634C171.062,429.969 176.883,435.653 184.309,438.63L184.31,438.632C191.779,441.63 199.958,441.534 207.338,438.368C222.542,431.841 229.6,414.157 223.071,398.953C219.923,391.616 214.096,385.93 206.666,382.949" style="fill:rgb(44,88,113);fill-rule:nonzero;"/>
    <path d="M189.774,446.08L175.447,440.333L157.441,485.199L171.769,490.949L189.774,446.08Z" style="fill:rgb(16,55,84);fill-rule:nonzero;"/>
    <path d="M186.806,444.89L178.414,441.524L160.41,486.39L168.799,489.758L186.806,444.89Z" style="fill:rgb(44,88,113);fill-rule:nonzero;"/>
    <path d="M174.529,484.067L160.202,478.318L157.441,485.199L171.769,490.949L174.529,484.067Z" style="fill:rgb(14,48,63);fill-rule:nonzero;"/>
    <path d="M171.56,482.875L163.17,479.508L160.41,486.39L168.799,489.758L171.56,482.875Z" style="fill:rgb(22,72,102);fill-rule:nonzero;"/>
    <g>
        <g opacity="0.600006">
            <path d="M179.941,400.188C183.816,395.663 189.215,392.914 195.138,392.443C197.194,392.28 199.207,392.41 201.138,392.784L201.34,397.454C199.019,396.858 196.564,396.624 194.045,396.821C188.123,397.29 182.725,400.038 178.85,404.563C177.061,406.65 175.696,409.069 174.786,411.573C175.372,407.403 177.128,403.473 179.941,400.188" style="fill:white;fill-rule:nonzero;"/>
        </g>
    </g>
    <path d="M199.008,478.964C199.009,481.96 196.576,484.39 193.583,484.389L153.629,484.389C150.638,484.389 148.208,481.959 148.208,478.964C148.208,475.968 150.638,473.538 153.63,473.538L193.584,473.538C196.576,473.538 199.009,475.969 199.008,478.964" style="fill:rgb(255,204,187);fill-rule:nonzero;"/>
    <path d="M154.478,460.042C146.694,460.042 140.381,466.353 140.384,474.137L140.383,497.039C140.381,504.821 146.695,511.133 154.478,511.133L177.378,511.132C185.162,511.133 191.473,504.821 191.473,497.039L191.473,474.136C191.473,466.352 185.163,460.042 177.378,460.043L154.478,460.042Z" style="fill:rgb(255,204,187);fill-rule:nonzero;"/>
    <path d="M197.729,505.709C197.729,508.702 195.301,511.133 192.305,511.132L166.719,511.133C163.719,511.132 161.288,508.702 161.289,505.709C161.289,502.71 163.719,500.283 166.718,500.283L192.304,500.283C195.301,500.283 197.729,502.71 197.729,505.709" style="fill:rgb(255,204,187);fill-rule:nonzero;"/>
    <path d="M197.507,492.43C197.507,495.425 195.077,497.856 192.082,497.855L152.129,497.855C149.133,497.855 146.704,495.425 146.705,492.431C146.704,489.434 149.133,487.006 152.129,487.007L192.082,487.007C195.077,487.007 197.507,489.435 197.507,492.43" style="fill:rgb(255,204,187);fill-rule:nonzero;"/>
    <path d="M198.541,465.498C198.541,468.495 196.109,470.923 193.116,470.924L161.354,470.924C158.358,470.923 155.928,468.495 155.928,465.498C155.928,462.503 158.359,460.072 161.353,460.072L193.115,460.072C196.109,460.072 198.541,462.503 198.541,465.498" style="fill:rgb(255,204,187);fill-rule:nonzero;"/>
    <path d="M102.566,505.46L158.728,505.46C164.01,505.46 168.29,501.18 168.29,495.897L168.29,480.363C168.29,475.083 164.01,470.803 158.728,470.803L102.566,470.803L102.566,505.46Z" style="fill:rgb(255,204,187);fill-rule:nonzero;"/>
    <rect x="102.227" y="464.558" width="24.022" height="47.151" style="fill:rgb(148,54,29);fill-rule:nonzero;"/>
    <rect x="0" y="462.781" width="118.137" height="50.702" style="fill:rgb(47,73,98);fill-rule:nonzero;"/>
    <path d="M108.169,508.047C106.838,508.047 105.753,506.962 105.753,505.632C105.753,504.298 106.838,503.217 108.169,503.217C109.502,503.217 110.585,504.298 110.585,505.632C110.584,506.962 109.503,508.047 108.169,508.047" style="fill:rgb(16,55,84);fill-rule:nonzero;"/>
</svg>
