<svg viewBox="0 0 800 801" xmlns="http://www.w3.org/2000/svg" fill-rule="evenodd" clip-rule="evenodd" stroke-linejoin="round" stroke-miterlimit="1.414"><path d="M145.114 339.402l19.956 5.502a8.008 8.008 0 0 1 5.59 9.852l-.708 2.57c-.03.112-.07.214-.108.32l-17.04-4.7-7.69-13.544z" fill="#fcb" fill-rule="nonzero"/><path d="M149.808 333.534l9.384 16.542a7.973 7.973 0 0 1 .974 4.954l-12.835-3.54-12.54-22.1 15.02 4.144zm64.922 2.84a5.424 5.424 0 0 0-3.79-6.672l-38.515-10.622a5.426 5.426 0 1 0-2.884 10.46l38.517 10.62a5.428 5.428 0 0 0 6.672-3.786" fill="#fcb" fill-rule="nonzero"/><path d="M143.834 336.45c-7.503-2.07-11.913-9.832-9.84-17.334l6.09-22.08c2.064-7.502 9.83-11.907 17.333-9.838l22.075 6.088c7.504 2.07 11.91 9.832 9.842 17.333l-6.09 22.08c-2.07 7.502-9.83 11.906-17.334 9.836l-22.076-6.087z" fill="#fcb" fill-rule="nonzero"/><path d="M205.915 306.198a5.426 5.426 0 0 0-3.788-6.67l-24.665-6.802a5.425 5.425 0 1 0-2.884 10.458l24.665 6.803a5.424 5.424 0 0 0 6.672-3.79m3.393 14.713a5.426 5.426 0 0 0-3.788-6.673l-38.515-10.622a5.425 5.425 0 1 0-2.884 10.458l38.517 10.622a5.425 5.425 0 0 0 6.672-3.786m-7.162 25.962a5.426 5.426 0 0 0-3.788-6.672l-30.618-8.445a5.427 5.427 0 0 0-2.886 10.462l30.62 8.444a5.43 5.43 0 0 0 6.672-3.787" fill="#fcb" fill-rule="nonzero"/><path d="M105.865 278.865l54.14 14.93a9.56 9.56 0 0 1 6.676 11.76l-4.13 14.977c-1.4 5.09-6.665 8.078-11.757 6.674l-54.14-14.93 9.213-33.41z" fill="#fcb" fill-rule="nonzero"/><path d="M107.2 272.75l-12.536 45.456 23.16 6.387 12.533-45.455-23.157-6.387z" fill="#94361d" fill-rule="nonzero"/><path d="M0 293.942l109.53 30.206 13.478-48.88L0 241.35v52.594z" fill="#2f4962" fill-rule="nonzero"/><path d="M111.953 277.86a2.42 2.42 0 0 0-2.97 1.686 2.415 2.415 0 1 0 2.97-1.686" fill="#103754" fill-rule="nonzero"/><path d="M156.498 457.536h20.7a8.007 8.007 0 0 0 8.01-8.01v-2.666c0-.116-.01-.224-.02-.337H167.51l-11.01 11.013z" fill="#fcb" fill-rule="nonzero"/><path d="M159.462 464.44l13.444-13.45a7.988 7.988 0 0 0 2.257-4.518h-13.315l-17.966 17.97 15.58-.002z" fill="#fcb" fill-rule="nonzero"/><clipPath id="a"><path d="M173.15 388.45h44.68v44.68h-44.68z"/></clipPath><g opacity=".1" clip-path="url(#a)"><clipPath id="b"><path d="M173.15 388.45h44.68v44.68h-44.68z"/></clipPath><g clip-path="url(#b)"><path d="M203.805 390.076c5.53 2.218 9.868 6.45 12.21 11.907 4.862 11.314-.39 24.47-11.708 29.327-5.488 2.358-11.57 2.427-17.14.195-5.527-2.22-9.86-6.443-12.2-11.897-2.352-5.475-2.424-11.544-.207-17.092 2.213-5.55 6.448-9.898 11.922-12.25 5.48-2.352 11.564-2.42 17.123-.19" fill="#fff" fill-rule="nonzero"/></g></g><clipPath id="c"><path d="M188.457 388.453h29.373v44.675h-29.373z"/></clipPath><g opacity=".6" clip-path="url(#c)"><clipPath id="d"><path d="M188.457 388.453h29.373v44.675h-29.373z"/></clipPath><g clip-path="url(#d)"><path d="M203.805 390.076c-4.966-1.992-10.35-2.148-15.35-.483a22.43 22.43 0 0 1 2.972-.764 22.33 22.33 0 0 1 7.884 1.613c5.53 2.218 9.867 6.45 12.21 11.91 4.86 11.312-.394 24.47-11.71 29.328a22.418 22.418 0 0 1-4.74 1.44c-2-.042-3.995-.35-5.946-.935a22.154 22.154 0 0 0 15.184-.876c11.32-4.86 16.57-18.014 11.71-29.328-2.344-5.458-6.682-9.69-12.212-11.907" fill="#fff" fill-rule="nonzero"/></g></g><path d="M181.11 447.08a3.835 3.835 0 0 0 4.983-2.144l2.46-6.42a3.84 3.84 0 0 0-2.134-4.984h-.014a3.834 3.834 0 0 0-4.987 2.142l-2.46 6.42a3.835 3.835 0 0 0 2.136 4.982l.013.004" fill="#0e303f" fill-rule="nonzero"/><path d="M204.308 431.31c-5.488 2.358-11.57 2.427-17.14.195-5.527-2.218-9.86-6.443-12.2-11.897-2.352-5.475-2.424-11.544-.207-17.092 2.215-5.55 6.45-9.897 11.924-12.25 5.48-2.352 11.563-2.42 17.123-.19 5.53 2.218 9.867 6.45 12.21 11.907 4.86 11.314-.39 24.47-11.708 29.327m2.357-48.36c-7.467-2.997-15.637-2.9-23.014.262-7.355 3.16-13.047 9.005-16.022 16.456-2.975 7.454-2.875 15.61.285 22.966 3.148 7.335 8.97 13.02 16.395 15.996v.002c7.47 2.998 15.648 2.902 23.028-.264 15.204-6.527 22.262-24.21 15.733-39.415-3.146-7.337-8.973-13.023-16.403-16.004" fill="#2c5871" fill-rule="nonzero"/><path d="M189.774 446.08l-14.327-5.747L157.44 485.2l14.33 5.75 18.004-44.87z" fill="#103754" fill-rule="nonzero"/><path d="M186.806 444.89l-8.392-3.366-18.004 44.866 8.39 3.368 18.006-44.868z" fill="#2c5871" fill-rule="nonzero"/><path d="M174.53 484.067l-14.328-5.75-2.76 6.882 14.327 5.75 2.76-6.884z" fill="#0e303f" fill-rule="nonzero"/><path d="M171.56 482.875l-8.39-3.367-2.76 6.882 8.39 3.368 2.76-6.883z" fill="#164866" fill-rule="nonzero"/><path d="M179.94 400.188c3.876-4.525 9.275-7.274 15.198-7.745a22.26 22.26 0 0 1 6 .34l.202 4.67a22.29 22.29 0 0 0-7.295-.632c-5.922.47-11.32 3.22-15.195 7.744-1.79 2.087-3.154 4.506-4.064 7.01.586-4.17 2.342-8.1 5.155-11.385" fill="#fff" fill-rule="nonzero" opacity=".6"/><path d="M199.008 478.964a5.426 5.426 0 0 1-5.425 5.425H153.63a5.426 5.426 0 0 1 0-10.853h39.954a5.428 5.428 0 0 1 5.424 5.426" fill="#fcb" fill-rule="nonzero"/><path d="M154.478 460.042c-7.784 0-14.097 6.31-14.094 14.095v22.902c-.003 7.78 6.31 14.092 14.094 14.092h22.9c7.784 0 14.095-6.312 14.095-14.094v-22.904c0-7.784-6.31-14.094-14.095-14.093h-22.9z" fill="#fcb" fill-rule="nonzero"/><path d="M197.73 505.71a5.424 5.424 0 0 1-5.425 5.422H166.72a5.426 5.426 0 1 1 0-10.85h25.584a5.423 5.423 0 0 1 5.425 5.426m-.223-13.278a5.426 5.426 0 0 1-5.425 5.425H152.13a5.424 5.424 0 1 1 0-10.848h39.952a5.425 5.425 0 0 1 5.425 5.423m1.033-26.932a5.428 5.428 0 0 1-5.424 5.426h-31.762a5.427 5.427 0 0 1 0-10.852h31.76a5.43 5.43 0 0 1 5.427 5.426" fill="#fcb" fill-rule="nonzero"/><path d="M102.566 505.46h56.162a9.56 9.56 0 0 0 9.562-9.563v-15.534c0-5.28-4.28-9.56-9.562-9.56h-56.162v34.657z" fill="#fcb" fill-rule="nonzero"/><path fill="#94361d" fill-rule="nonzero" d="M102.227 464.558h24.022v47.15h-24.024z"/><path fill="#2f4962" fill-rule="nonzero" d="M0 462.78h118.137v50.703H0z"/><path d="M108.17 508.047a2.42 2.42 0 0 1-2.417-2.415 2.416 2.416 0 0 1 4.832 0 2.42 2.42 0 0 1-2.417 2.415" fill="#103754" fill-rule="nonzero"/></svg>